%TF.GenerationSoftware,Altium Limited,Altium Designer,23.3.1 (30)*%
G04 Layer_Physical_Order=2*
G04 Layer_Color=16711680*
%FSLAX45Y45*%
%MOMM*%
%TF.SameCoordinates,805B0A7C-C0AB-40D2-B4E8-8F8973F9869A*%
%TF.FilePolarity,Positive*%
%TF.FileFunction,Copper,L2,Bot,Signal*%
%TF.Part,Single*%
G01*
G75*
%TA.AperFunction,Conductor*%
%ADD28C,0.63500*%
%ADD29C,0.50800*%
%ADD30C,0.25400*%
%ADD32C,1.27000*%
%TA.AperFunction,ComponentPad*%
%ADD33C,1.40000*%
%ADD34R,1.40000X1.40000*%
%ADD35C,3.05000*%
%ADD36C,1.20000*%
%ADD37R,1.20000X1.20000*%
%ADD38C,1.70000*%
%ADD39C,1.80000*%
%TA.AperFunction,ViaPad*%
%ADD40C,5.58800*%
%ADD41C,1.27000*%
%ADD42C,0.76200*%
G36*
X6121400Y7035800D02*
X6121400Y4961830D01*
X6098001Y4929625D01*
X6076946Y4888302D01*
X6062615Y4844195D01*
X6055360Y4798389D01*
Y4752011D01*
X6062615Y4706205D01*
X6076946Y4662098D01*
X6098001Y4620775D01*
X6121400Y4588570D01*
X6121399Y939799D01*
X5968999Y787399D01*
X4597399Y787400D01*
X4445000Y939800D01*
Y5156200D01*
X4191000Y5410200D01*
X3225800D01*
X2971800Y5664200D01*
Y6328186D01*
X2976615Y6330181D01*
X2991619Y6345185D01*
X2992335Y6346913D01*
X3415252D01*
X3415254Y6346912D01*
X3426155Y6349081D01*
X3431406Y6352590D01*
X3443790Y6347460D01*
X3465010D01*
X3484615Y6355581D01*
X3499619Y6370585D01*
X3507740Y6390190D01*
Y6411410D01*
X3499619Y6431015D01*
X3484615Y6446019D01*
X3465010Y6454140D01*
X3443790D01*
X3424185Y6446019D01*
X3409181Y6431015D01*
X3401060Y6411410D01*
Y6403887D01*
X2992335D01*
X2991619Y6405615D01*
X2976615Y6420619D01*
X2971800Y6422614D01*
Y6934200D01*
X3175000Y7137400D01*
X6019800D01*
X6121400Y7035800D01*
D02*
G37*
G36*
X2870200Y6985000D02*
Y5918200D01*
X2768600Y5816600D01*
X482600D01*
X330200Y5969000D01*
Y6934200D01*
X533400Y7137400D01*
X2717800D01*
X2870200Y6985000D01*
D02*
G37*
G36*
X3175000Y5105400D02*
X3987800D01*
X4140200Y4953000D01*
Y939800D01*
X3987800Y787400D01*
X886391D01*
X882654Y798902D01*
X861599Y840225D01*
X834339Y877745D01*
X801545Y910539D01*
X764025Y937799D01*
X722702Y958854D01*
X678595Y973185D01*
X632789Y980440D01*
X586411D01*
X540605Y973185D01*
X496498Y958854D01*
X455175Y937799D01*
X417655Y910539D01*
X388558Y881442D01*
X330200Y939800D01*
Y4646579D01*
X342900Y4649628D01*
X357601Y4620775D01*
X384861Y4583255D01*
X417655Y4550461D01*
X455175Y4523201D01*
X496498Y4502146D01*
X540605Y4487815D01*
X586411Y4480560D01*
X632789D01*
X678595Y4487815D01*
X722702Y4502146D01*
X764025Y4523201D01*
X801545Y4550461D01*
X834339Y4583255D01*
X861599Y4620775D01*
X882654Y4662098D01*
X896985Y4706205D01*
X904240Y4752011D01*
Y4798389D01*
X896985Y4844195D01*
X882654Y4888302D01*
X861599Y4929625D01*
X834339Y4967145D01*
X801545Y4999939D01*
X764025Y5027199D01*
X722702Y5048254D01*
X678595Y5062585D01*
X632789Y5069840D01*
X586411D01*
X540605Y5062585D01*
X496498Y5048254D01*
X455175Y5027199D01*
X417655Y4999939D01*
X384861Y4967145D01*
X357601Y4929625D01*
X342900Y4900772D01*
X330200Y4903821D01*
Y5257800D01*
X482600Y5410200D01*
X2870200D01*
X3175000Y5105400D01*
D02*
G37*
%LPC*%
G36*
X5268410Y6708140D02*
X5247190D01*
X5227585Y6700019D01*
X5212581Y6685015D01*
X5204460Y6665410D01*
Y6647910D01*
X5189037Y6632487D01*
X5100535D01*
X5099819Y6634215D01*
X5084815Y6649219D01*
X5065210Y6657340D01*
X5043990D01*
X5024385Y6649219D01*
X5009381Y6634215D01*
X5001260Y6614610D01*
Y6593390D01*
X5009381Y6573785D01*
X5024385Y6558781D01*
X5043990Y6550660D01*
X5065210D01*
X5084815Y6558781D01*
X5099819Y6573785D01*
X5100535Y6575513D01*
X5200836D01*
X5200837Y6575512D01*
X5211739Y6577681D01*
X5220981Y6583856D01*
X5241105Y6603980D01*
X5247190Y6601460D01*
X5268410D01*
X5288015Y6609581D01*
X5303019Y6624585D01*
X5311140Y6644190D01*
Y6665410D01*
X5303019Y6685015D01*
X5288015Y6700019D01*
X5268410Y6708140D01*
D02*
G37*
G36*
X4862429Y6247104D02*
X4841209D01*
X4821604Y6238983D01*
X4812961Y6230340D01*
X4754222D01*
X4738365Y6227186D01*
X4724922Y6218204D01*
X4694955Y6188236D01*
X4605998D01*
X4602215Y6192019D01*
X4582610Y6200140D01*
X4561390D01*
X4541785Y6192019D01*
X4526781Y6177015D01*
X4518660Y6157410D01*
Y6136190D01*
X4526781Y6116585D01*
X4541785Y6101581D01*
X4561390Y6093460D01*
X4582610D01*
X4602215Y6101581D01*
X4605998Y6105364D01*
X4712118D01*
X4727975Y6108518D01*
X4741418Y6117500D01*
X4771385Y6147468D01*
X4824203D01*
X4841209Y6140424D01*
X4862429D01*
X4882033Y6148544D01*
X4897038Y6163549D01*
X4905159Y6183153D01*
Y6204374D01*
X4897038Y6223978D01*
X4882033Y6238983D01*
X4862429Y6247104D01*
D02*
G37*
G36*
X4658810Y5641340D02*
X4637590D01*
X4617985Y5633219D01*
X4602981Y5618215D01*
X4594860Y5598610D01*
Y5577390D01*
X4602981Y5557785D01*
X4617985Y5542781D01*
X4637590Y5534660D01*
X4658810D01*
X4678415Y5542781D01*
X4690067Y5554433D01*
X4892412D01*
X4895232Y5547625D01*
X4910237Y5532621D01*
X4929841Y5524500D01*
X4951061D01*
X4970666Y5532621D01*
X4985671Y5547625D01*
X4993791Y5567230D01*
Y5588450D01*
X4985671Y5608055D01*
X4970666Y5623059D01*
X4951061Y5631180D01*
X4929841D01*
X4910237Y5623059D01*
X4898585Y5611407D01*
X4696239D01*
X4693419Y5618215D01*
X4678415Y5633219D01*
X4658810Y5641340D01*
D02*
G37*
G36*
X5344610Y6047740D02*
X5323390D01*
X5303785Y6039619D01*
X5288781Y6024615D01*
X5280660Y6005010D01*
Y5983790D01*
X5288781Y5964185D01*
X5292564Y5960402D01*
Y5367998D01*
X5288781Y5364215D01*
X5280660Y5344610D01*
Y5323390D01*
X5288781Y5303785D01*
X5303785Y5288781D01*
X5323390Y5280660D01*
X5344610D01*
X5364215Y5288781D01*
X5379219Y5303785D01*
X5387340Y5323390D01*
Y5344610D01*
X5379219Y5364215D01*
X5375436Y5367998D01*
Y5960402D01*
X5379219Y5964185D01*
X5387340Y5983790D01*
Y6005010D01*
X5379219Y6024615D01*
X5364215Y6039619D01*
X5344610Y6047740D01*
D02*
G37*
G36*
X4862640Y4888540D02*
X4712160D01*
Y4738060D01*
X4862640D01*
Y4888540D01*
D02*
G37*
G36*
X4797305Y4634540D02*
X4777494D01*
X4758358Y4629412D01*
X4741202Y4619507D01*
X4727193Y4605498D01*
X4717287Y4588342D01*
X4712160Y4569205D01*
Y4549395D01*
X4717287Y4530258D01*
X4727193Y4513102D01*
X4741202Y4499093D01*
X4758358Y4489188D01*
X4777494Y4484060D01*
X4797305D01*
X4816441Y4489188D01*
X4833598Y4499093D01*
X4847607Y4513102D01*
X4857512Y4530258D01*
X4862640Y4549395D01*
Y4569205D01*
X4857512Y4588342D01*
X4847607Y4605498D01*
X4833598Y4619507D01*
X4816441Y4629412D01*
X4797305Y4634540D01*
D02*
G37*
G36*
Y4380540D02*
X4777494D01*
X4758358Y4375412D01*
X4741202Y4365507D01*
X4727193Y4351498D01*
X4717287Y4334342D01*
X4712160Y4315205D01*
Y4295395D01*
X4717287Y4276258D01*
X4727193Y4259102D01*
X4741202Y4245093D01*
X4758358Y4235188D01*
X4777494Y4230060D01*
X4797305D01*
X4816441Y4235188D01*
X4833598Y4245093D01*
X4847607Y4259102D01*
X4857512Y4276258D01*
X4862640Y4295395D01*
Y4315205D01*
X4857512Y4334342D01*
X4847607Y4351498D01*
X4833598Y4365507D01*
X4816441Y4375412D01*
X4797305Y4380540D01*
D02*
G37*
G36*
X5293810Y4041140D02*
X5272590D01*
X5252985Y4033019D01*
X5249202Y4029236D01*
X5113998D01*
X5110215Y4033019D01*
X5090610Y4041140D01*
X5069390D01*
X5049785Y4033019D01*
X5034781Y4018015D01*
X5026660Y3998410D01*
Y3977190D01*
X5034781Y3957585D01*
X5049785Y3942581D01*
X5069390Y3934460D01*
X5090610D01*
X5110215Y3942581D01*
X5113998Y3946364D01*
X5249202D01*
X5252985Y3942581D01*
X5272590Y3934460D01*
X5293810D01*
X5313415Y3942581D01*
X5328419Y3957585D01*
X5336540Y3977190D01*
Y3998410D01*
X5328419Y4018015D01*
X5313415Y4033019D01*
X5293810Y4041140D01*
D02*
G37*
G36*
X5266920Y3839891D02*
X5245700D01*
X5226095Y3831771D01*
X5211091Y3816766D01*
X5202970Y3797161D01*
Y3775941D01*
X5211091Y3756337D01*
X5226095Y3741332D01*
X5227823Y3740616D01*
Y3626857D01*
X5225281Y3624315D01*
X5217160Y3604710D01*
Y3583490D01*
X5225281Y3563885D01*
X5240285Y3548881D01*
X5259890Y3540760D01*
X5281110D01*
X5300715Y3548881D01*
X5315719Y3563885D01*
X5323840Y3583490D01*
Y3604710D01*
X5315719Y3624315D01*
X5300715Y3639319D01*
X5284797Y3645913D01*
Y3740616D01*
X5286525Y3741332D01*
X5301529Y3756337D01*
X5309650Y3775941D01*
Y3797161D01*
X5301529Y3816766D01*
X5286525Y3831771D01*
X5266920Y3839891D01*
D02*
G37*
G36*
X5027110Y2809240D02*
X5005890D01*
X4992782Y2803810D01*
X4557618D01*
X4544510Y2809240D01*
X4523290D01*
X4503685Y2801119D01*
X4488681Y2786115D01*
X4480560Y2766510D01*
Y2745290D01*
X4488681Y2725685D01*
X4503685Y2710681D01*
X4523290Y2702560D01*
X4544510D01*
X4557618Y2707990D01*
X4992782D01*
X5005890Y2702560D01*
X5027110D01*
X5046715Y2710681D01*
X5061719Y2725685D01*
X5069840Y2745290D01*
Y2766510D01*
X5061719Y2786115D01*
X5046715Y2801119D01*
X5027110Y2809240D01*
D02*
G37*
G36*
X5807721Y1150440D02*
X5774679D01*
X5742272Y1143994D01*
X5711745Y1131349D01*
X5684272Y1112992D01*
X5660908Y1089628D01*
X5642551Y1062155D01*
X5629906Y1031628D01*
X5623460Y999221D01*
Y966179D01*
X5629906Y933773D01*
X5642551Y903246D01*
X5660908Y875772D01*
X5684272Y852409D01*
X5711745Y834051D01*
X5742272Y821407D01*
X5774679Y814961D01*
X5807721D01*
X5840128Y821407D01*
X5870655Y834051D01*
X5898128Y852409D01*
X5921492Y875772D01*
X5939849Y903246D01*
X5952494Y933773D01*
X5958940Y966179D01*
Y999221D01*
X5952494Y1031628D01*
X5939849Y1062155D01*
X5921492Y1089628D01*
X5898128Y1112992D01*
X5870655Y1131349D01*
X5840128Y1143994D01*
X5807721Y1150440D01*
D02*
G37*
G36*
X4791721D02*
X4758679D01*
X4726272Y1143994D01*
X4695745Y1131349D01*
X4668272Y1112992D01*
X4644908Y1089628D01*
X4626551Y1062155D01*
X4613906Y1031628D01*
X4607460Y999221D01*
Y966179D01*
X4613906Y933773D01*
X4626551Y903246D01*
X4644908Y875772D01*
X4668272Y852409D01*
X4695745Y834051D01*
X4726272Y821407D01*
X4758679Y814961D01*
X4791721D01*
X4824128Y821407D01*
X4854655Y834051D01*
X4882128Y852409D01*
X4905492Y875772D01*
X4923849Y903246D01*
X4936494Y933773D01*
X4942940Y966179D01*
Y999221D01*
X4936494Y1031628D01*
X4923849Y1062155D01*
X4905492Y1089628D01*
X4882128Y1112992D01*
X4854655Y1131349D01*
X4824128Y1143994D01*
X4791721Y1150440D01*
D02*
G37*
G36*
X2759097Y6789540D02*
X2732703D01*
X2707209Y6782708D01*
X2684352Y6769511D01*
X2665688Y6750848D01*
X2652492Y6727991D01*
X2645660Y6702497D01*
Y6676103D01*
X2652492Y6650609D01*
X2665688Y6627751D01*
X2684352Y6609088D01*
X2707209Y6595891D01*
X2732703Y6589060D01*
X2759097D01*
X2784591Y6595891D01*
X2807449Y6609088D01*
X2826112Y6627751D01*
X2839309Y6650609D01*
X2846140Y6676103D01*
Y6702497D01*
X2839309Y6727991D01*
X2826112Y6750848D01*
X2807449Y6769511D01*
X2784591Y6782708D01*
X2759097Y6789540D01*
D02*
G37*
G36*
X1509097D02*
X1482703D01*
X1457209Y6782708D01*
X1434351Y6769511D01*
X1415688Y6750848D01*
X1402491Y6727991D01*
X1395660Y6702497D01*
Y6676103D01*
X1402491Y6650609D01*
X1415688Y6627751D01*
X1434351Y6609088D01*
X1457209Y6595891D01*
X1482703Y6589060D01*
X1509097D01*
X1534591Y6595891D01*
X1557448Y6609088D01*
X1576112Y6627751D01*
X1589308Y6650609D01*
X1596140Y6676103D01*
Y6702497D01*
X1589308Y6727991D01*
X1576112Y6750848D01*
X1557448Y6769511D01*
X1534591Y6782708D01*
X1509097Y6789540D01*
D02*
G37*
G36*
X1037897D02*
X1011503D01*
X986009Y6782708D01*
X963151Y6769511D01*
X944488Y6750848D01*
X931292Y6727991D01*
X924460Y6702497D01*
Y6676103D01*
X931292Y6650609D01*
X944488Y6627751D01*
X963151Y6609088D01*
X986009Y6595891D01*
X1011503Y6589060D01*
X1037897D01*
X1063391Y6595891D01*
X1086249Y6609088D01*
X1104912Y6627751D01*
X1118109Y6650609D01*
X1124940Y6676103D01*
Y6702497D01*
X1118109Y6727991D01*
X1104912Y6750848D01*
X1086249Y6769511D01*
X1063391Y6782708D01*
X1037897Y6789540D01*
D02*
G37*
G36*
X537897D02*
X511503D01*
X486009Y6782708D01*
X463151Y6769511D01*
X444488Y6750848D01*
X431291Y6727991D01*
X424460Y6702497D01*
Y6676103D01*
X431291Y6650609D01*
X444488Y6627751D01*
X463151Y6609088D01*
X486009Y6595891D01*
X511503Y6589060D01*
X537897D01*
X563391Y6595891D01*
X586249Y6609088D01*
X604912Y6627751D01*
X618108Y6650609D01*
X624940Y6676103D01*
Y6702497D01*
X618108Y6727991D01*
X604912Y6750848D01*
X586249Y6769511D01*
X563391Y6782708D01*
X537897Y6789540D01*
D02*
G37*
G36*
X2509755Y6076540D02*
X2482045D01*
X2455279Y6069368D01*
X2431281Y6055513D01*
X2411687Y6035919D01*
X2397832Y6011921D01*
X2390660Y5985155D01*
Y5957445D01*
X2397832Y5930679D01*
X2411687Y5906681D01*
X2431281Y5887087D01*
X2455279Y5873232D01*
X2482045Y5866060D01*
X2509755D01*
X2536521Y5873232D01*
X2560519Y5887087D01*
X2580113Y5906681D01*
X2593968Y5930679D01*
X2601140Y5957445D01*
Y5985155D01*
X2593968Y6011921D01*
X2580113Y6035919D01*
X2560519Y6055513D01*
X2536521Y6069368D01*
X2509755Y6076540D01*
D02*
G37*
G36*
X2259755D02*
X2232045D01*
X2205279Y6069368D01*
X2181281Y6055513D01*
X2161687Y6035919D01*
X2147832Y6011921D01*
X2140660Y5985155D01*
Y5957445D01*
X2147832Y5930679D01*
X2161687Y5906681D01*
X2181281Y5887087D01*
X2205279Y5873232D01*
X2232045Y5866060D01*
X2259755D01*
X2286521Y5873232D01*
X2310519Y5887087D01*
X2330113Y5906681D01*
X2343968Y5930679D01*
X2351140Y5957445D01*
Y5985155D01*
X2343968Y6011921D01*
X2330113Y6035919D01*
X2310519Y6055513D01*
X2286521Y6069368D01*
X2259755Y6076540D01*
D02*
G37*
G36*
X2009755D02*
X1982045D01*
X1955279Y6069368D01*
X1931281Y6055513D01*
X1911687Y6035919D01*
X1897832Y6011921D01*
X1890660Y5985155D01*
Y5957445D01*
X1897832Y5930679D01*
X1911687Y5906681D01*
X1931281Y5887087D01*
X1955279Y5873232D01*
X1982045Y5866060D01*
X2009755D01*
X2036521Y5873232D01*
X2060519Y5887087D01*
X2080113Y5906681D01*
X2093968Y5930679D01*
X2101140Y5957445D01*
Y5985155D01*
X2093968Y6011921D01*
X2080113Y6035919D01*
X2060519Y6055513D01*
X2036521Y6069368D01*
X2009755Y6076540D01*
D02*
G37*
G36*
X1759755D02*
X1732045D01*
X1705279Y6069368D01*
X1681281Y6055513D01*
X1661687Y6035919D01*
X1647832Y6011921D01*
X1640660Y5985155D01*
Y5957445D01*
X1647832Y5930679D01*
X1661687Y5906681D01*
X1681281Y5887087D01*
X1705279Y5873232D01*
X1732045Y5866060D01*
X1759755D01*
X1786521Y5873232D01*
X1810519Y5887087D01*
X1830113Y5906681D01*
X1843968Y5930679D01*
X1851140Y5957445D01*
Y5985155D01*
X1843968Y6011921D01*
X1830113Y6035919D01*
X1810519Y6055513D01*
X1786521Y6069368D01*
X1759755Y6076540D01*
D02*
G37*
G36*
X1509755D02*
X1482045D01*
X1455279Y6069368D01*
X1431281Y6055513D01*
X1411687Y6035919D01*
X1397832Y6011921D01*
X1390660Y5985155D01*
Y5957445D01*
X1397832Y5930679D01*
X1411687Y5906681D01*
X1431281Y5887087D01*
X1455279Y5873232D01*
X1482045Y5866060D01*
X1509755D01*
X1536521Y5873232D01*
X1560519Y5887087D01*
X1580113Y5906681D01*
X1593968Y5930679D01*
X1601140Y5957445D01*
Y5985155D01*
X1593968Y6011921D01*
X1580113Y6035919D01*
X1560519Y6055513D01*
X1536521Y6069368D01*
X1509755Y6076540D01*
D02*
G37*
G36*
X788555D02*
X760845D01*
X734079Y6069368D01*
X710081Y6055513D01*
X690487Y6035919D01*
X676632Y6011921D01*
X669460Y5985155D01*
Y5957445D01*
X676632Y5930679D01*
X690487Y5906681D01*
X710081Y5887087D01*
X734079Y5873232D01*
X760845Y5866060D01*
X788555D01*
X815321Y5873232D01*
X839319Y5887087D01*
X858913Y5906681D01*
X872768Y5930679D01*
X879940Y5957445D01*
Y5985155D01*
X872768Y6011921D01*
X858913Y6035919D01*
X839319Y6055513D01*
X815321Y6069368D01*
X788555Y6076540D01*
D02*
G37*
G36*
X538555D02*
X510845D01*
X484079Y6069368D01*
X460081Y6055513D01*
X440487Y6035919D01*
X426632Y6011921D01*
X419460Y5985155D01*
Y5957445D01*
X426632Y5930679D01*
X440487Y5906681D01*
X460081Y5887087D01*
X484079Y5873232D01*
X510845Y5866060D01*
X538555D01*
X565321Y5873232D01*
X589319Y5887087D01*
X608913Y5906681D01*
X622768Y5930679D01*
X629940Y5957445D01*
Y5985155D01*
X622768Y6011921D01*
X608913Y6035919D01*
X589319Y6055513D01*
X565321Y6069368D01*
X538555Y6076540D01*
D02*
G37*
G36*
X2753810Y5107940D02*
X2732590D01*
X2712985Y5099819D01*
X2697981Y5084815D01*
X2689860Y5065210D01*
Y5043990D01*
X2697981Y5024385D01*
X2712985Y5009381D01*
X2715004Y5008544D01*
Y4994798D01*
X2702723Y4989710D01*
X2687718Y4974706D01*
X2679597Y4955101D01*
Y4933881D01*
X2687718Y4914276D01*
X2702723Y4899272D01*
X2722327Y4891151D01*
X2743547D01*
X2763152Y4899272D01*
X2778157Y4914276D01*
X2780635Y4920258D01*
X2954508D01*
X2966985Y4907781D01*
X2986590Y4899660D01*
X3007810D01*
X3009537Y4900376D01*
X3070040Y4839872D01*
Y4790091D01*
X3068313Y4789376D01*
X3053308Y4774371D01*
X3045187Y4754766D01*
Y4733546D01*
X3053308Y4713942D01*
X3068313Y4698937D01*
X3087917Y4690816D01*
X3109138D01*
X3128742Y4698937D01*
X3134360Y4704555D01*
X3147060Y4699294D01*
Y4688390D01*
X3155181Y4668785D01*
X3170185Y4653781D01*
X3189790Y4645660D01*
X3211010D01*
X3230615Y4653781D01*
X3245619Y4668785D01*
X3253740Y4688390D01*
Y4709610D01*
X3245619Y4729215D01*
X3230615Y4744219D01*
X3228887Y4744935D01*
Y4807274D01*
X3226719Y4818175D01*
X3220544Y4827417D01*
X3220543Y4827418D01*
X3127287Y4920674D01*
Y4929392D01*
X3132581Y4937314D01*
X3134749Y4948216D01*
Y4972521D01*
X3146196Y4977263D01*
X3161201Y4992268D01*
X3169322Y5011872D01*
Y5033092D01*
X3161201Y5052697D01*
X3146196Y5067702D01*
X3126592Y5075822D01*
X3105371D01*
X3092882Y5070648D01*
X3088786Y5074744D01*
X3079544Y5080919D01*
X3068643Y5083088D01*
X3068641Y5083087D01*
X2789135D01*
X2788419Y5084815D01*
X2773415Y5099819D01*
X2753810Y5107940D01*
D02*
G37*
G36*
X2512510Y4841240D02*
X2491290D01*
X2471685Y4833119D01*
X2456681Y4818115D01*
X2448560Y4798510D01*
Y4777290D01*
X2456681Y4757685D01*
X2471685Y4742681D01*
X2491290Y4734560D01*
X2512510D01*
X2514237Y4735276D01*
X2652476Y4597037D01*
X2651760Y4595310D01*
Y4574090D01*
X2659881Y4554485D01*
X2674885Y4539481D01*
X2694490Y4531360D01*
X2715710D01*
X2735315Y4539481D01*
X2750319Y4554485D01*
X2758440Y4574090D01*
Y4595310D01*
X2750319Y4614915D01*
X2735315Y4629919D01*
X2715710Y4638040D01*
X2694490D01*
X2692763Y4637324D01*
X2554524Y4775563D01*
X2555240Y4777290D01*
Y4798510D01*
X2547119Y4818115D01*
X2532115Y4833119D01*
X2512510Y4841240D01*
D02*
G37*
G36*
X1801310Y4384040D02*
X1780090D01*
X1760485Y4375919D01*
X1745481Y4360915D01*
X1737360Y4341310D01*
Y4320090D01*
X1745481Y4300485D01*
X1760485Y4285481D01*
X1780090Y4277360D01*
X1801310D01*
X1820915Y4285481D01*
X1824947Y4289513D01*
X2069705D01*
X2075681Y4275085D01*
X2090685Y4260081D01*
X2110290Y4251960D01*
X2131510D01*
X2151115Y4260081D01*
X2166119Y4275085D01*
X2174240Y4294690D01*
Y4315910D01*
X2166119Y4335515D01*
X2151115Y4350519D01*
X2131510Y4358640D01*
X2110290D01*
X2090685Y4350519D01*
X2086653Y4346487D01*
X1841895D01*
X1835919Y4360915D01*
X1820915Y4375919D01*
X1801310Y4384040D01*
D02*
G37*
G36*
X1852110Y1031240D02*
X1830890D01*
X1811285Y1023119D01*
X1796281Y1008115D01*
X1788160Y988510D01*
Y967290D01*
X1796281Y947685D01*
X1811285Y932681D01*
X1830890Y924560D01*
X1852110D01*
X1871715Y932681D01*
X1875747Y936713D01*
X2095105D01*
X2101081Y922285D01*
X2116085Y907281D01*
X2135690Y899160D01*
X2156910D01*
X2176515Y907281D01*
X2191519Y922285D01*
X2199640Y941890D01*
Y963110D01*
X2191519Y982715D01*
X2176515Y997719D01*
X2156910Y1005840D01*
X2135690D01*
X2116085Y997719D01*
X2112053Y993687D01*
X1892695D01*
X1886719Y1008115D01*
X1871715Y1023119D01*
X1852110Y1031240D01*
D02*
G37*
%LPD*%
D28*
X4533900Y2755900D02*
X5016500D01*
D29*
X4712118Y6146800D02*
X4754222Y6188904D01*
X4846959D02*
X4851819Y6193764D01*
X4754222Y6188904D02*
X4846959D01*
X4572000Y6146800D02*
X4712118D01*
X5080000Y3987800D02*
X5283200D01*
X5334000Y5334000D02*
Y5994400D01*
X1524000Y5537200D02*
X1727200D01*
D30*
X2737192Y4948745D02*
X2992945D01*
X2732937Y4944491D02*
X2737192Y4948745D01*
X2992945D02*
X2997200Y4953000D01*
X3068643Y5054600D02*
X3091041Y5032202D01*
X3106262D01*
X3098800Y4940754D02*
X3106262Y4948216D01*
Y5012762D01*
X3115982Y5022482D01*
X3098800Y4908874D02*
Y4940754D01*
X2743200Y5054600D02*
X3068643D01*
X3106262Y5032202D02*
X3115982Y5022482D01*
X3098800Y4908874D02*
X3200400Y4807274D01*
Y4699000D02*
Y4807274D01*
X5054600Y6604000D02*
X5200837D01*
X4648200Y5588000D02*
X4653280Y5582920D01*
X4935371D01*
X4940451Y5577840D01*
X2997200Y4953000D02*
X3098527Y4851673D01*
X5200837Y6604000D02*
X5251637Y6654800D01*
X5257800D01*
X3440654Y6400800D02*
X3454400D01*
X2946400Y6375400D02*
X3415254D01*
X3440654Y6400800D01*
X1803400Y4318000D02*
X2108200D01*
X2120900Y4305300D01*
X1790700Y4330700D02*
X1803400Y4318000D01*
X1854200Y965200D02*
X2133600D01*
X1841500Y977900D02*
X1854200Y965200D01*
X2133600D02*
X2146300Y952500D01*
X5256310Y3618600D02*
Y3786551D01*
X3098527Y4744156D02*
Y4851673D01*
X2501900Y4787900D02*
X2705100Y4584700D01*
D32*
X2745900Y5382100D02*
X2768600Y5359400D01*
X2745900Y5382100D02*
Y5971300D01*
X2748200Y5969000D02*
X3175000D01*
X2745900Y5971300D02*
X2748200Y5969000D01*
D33*
X5537200Y1490700D02*
D03*
D34*
X5283200D02*
D03*
D35*
X5791200Y982700D02*
D03*
X4775200D02*
D03*
D36*
X4787400Y4305300D02*
D03*
Y4559300D02*
D03*
D37*
Y4813300D02*
D03*
D38*
X2745900Y6689300D02*
D03*
X1495900D02*
D03*
X1024700D02*
D03*
X524700D02*
D03*
D39*
X1495900Y5971300D02*
D03*
X1745900D02*
D03*
X1995900D02*
D03*
X2245900D02*
D03*
X2495900D02*
D03*
X2745900D02*
D03*
X1024700D02*
D03*
X774700D02*
D03*
X524700D02*
D03*
D40*
X6350000Y4775200D02*
D03*
X609600D02*
D03*
X6350000Y685800D02*
D03*
X609600D02*
D03*
D41*
X2908300Y2705100D02*
D03*
X2882900Y3594100D02*
D03*
X1206500Y5092700D02*
D03*
X1968500Y4711700D02*
D03*
X825500Y1308100D02*
D03*
X2451100Y1333500D02*
D03*
D42*
X2732937Y4944491D02*
D03*
X4851819Y6193764D02*
D03*
X3115982Y5022482D02*
D03*
X2997200Y4953000D02*
D03*
X3230700Y4991100D02*
D03*
X3200400Y4699000D02*
D03*
X5054600Y6604000D02*
D03*
X4648200Y5588000D02*
D03*
X4940451Y5577840D02*
D03*
X2997200Y5791200D02*
D03*
X5143828Y3708400D02*
D03*
X5283200Y3987800D02*
D03*
X5080000D02*
D03*
X4800600Y6629400D02*
D03*
X5257800Y6654800D02*
D03*
X3454400Y6400800D02*
D03*
X2946400Y6375400D02*
D03*
X3048000Y6273800D02*
D03*
X3073400Y6781800D02*
D03*
X5270500Y3594100D02*
D03*
X5676900Y4114800D02*
D03*
X5085371Y5999685D02*
D03*
X5063620Y6473310D02*
D03*
X4292600Y6337912D02*
D03*
X3937000Y5816600D02*
D03*
X4533900Y2755900D02*
D03*
X5334000Y5334000D02*
D03*
Y5994400D02*
D03*
X4572000Y6146800D02*
D03*
X1524000Y5537200D02*
D03*
X1727200D02*
D03*
X2743200Y5054600D02*
D03*
X5256310Y3786551D02*
D03*
X2146300Y952500D02*
D03*
X1790700Y4330700D02*
D03*
X5016500Y2755900D02*
D03*
X2501900Y4787900D02*
D03*
X2120900Y4305300D02*
D03*
X2705100Y4584700D02*
D03*
X1841500Y977900D02*
D03*
X3098527Y4744156D02*
D03*
%TF.MD5,5edf4b43d1c4a1e4c060fbbccc9d89f7*%
M02*
