%TF.GenerationSoftware,Altium Limited,Altium Designer,23.3.1 (30)*%
G04 Layer_Physical_Order=1*
G04 Layer_Color=255*
%FSLAX45Y45*%
%MOMM*%
%TF.SameCoordinates,805B0A7C-C0AB-40D2-B4E8-8F8973F9869A*%
%TF.FilePolarity,Positive*%
%TF.FileFunction,Copper,L1,Top,Signal*%
%TF.Part,Single*%
G01*
G75*
%TA.AperFunction,SMDPad,CuDef*%
%ADD10R,2.05000X1.00000*%
%ADD11R,6.90000X5.65000*%
%ADD12R,1.20000X1.20000*%
G04:AMPARAMS|DCode=13|XSize=0.3mm|YSize=1mm|CornerRadius=0.0495mm|HoleSize=0mm|Usage=FLASHONLY|Rotation=270.000|XOffset=0mm|YOffset=0mm|HoleType=Round|Shape=RoundedRectangle|*
%AMROUNDEDRECTD13*
21,1,0.30000,0.90100,0,0,270.0*
21,1,0.20100,1.00000,0,0,270.0*
1,1,0.09900,-0.45050,-0.10050*
1,1,0.09900,-0.45050,0.10050*
1,1,0.09900,0.45050,0.10050*
1,1,0.09900,0.45050,-0.10050*
%
%ADD13ROUNDEDRECTD13*%
%ADD14O,0.30000X1.65000*%
%ADD15R,1.44780X1.11760*%
G04:AMPARAMS|DCode=16|XSize=2.48393mm|YSize=0.60684mm|CornerRadius=0.30342mm|HoleSize=0mm|Usage=FLASHONLY|Rotation=0.000|XOffset=0mm|YOffset=0mm|HoleType=Round|Shape=RoundedRectangle|*
%AMROUNDEDRECTD16*
21,1,2.48393,0.00000,0,0,0.0*
21,1,1.87709,0.60684,0,0,0.0*
1,1,0.60684,0.93854,0.00000*
1,1,0.60684,-0.93854,0.00000*
1,1,0.60684,-0.93854,0.00000*
1,1,0.60684,0.93854,0.00000*
%
%ADD16ROUNDEDRECTD16*%
%ADD17R,2.48393X0.60684*%
%ADD18R,1.11760X1.44780*%
%ADD19R,3.50000X3.00000*%
%ADD20O,1.50000X0.45000*%
%ADD21R,1.90620X1.95395*%
%ADD22R,1.60000X1.60000*%
G04:AMPARAMS|DCode=23|XSize=0.23928mm|YSize=0.80602mm|CornerRadius=0.11964mm|HoleSize=0mm|Usage=FLASHONLY|Rotation=270.000|XOffset=0mm|YOffset=0mm|HoleType=Round|Shape=RoundedRectangle|*
%AMROUNDEDRECTD23*
21,1,0.23928,0.56673,0,0,270.0*
21,1,0.00000,0.80602,0,0,270.0*
1,1,0.23928,-0.28337,0.00000*
1,1,0.23928,-0.28337,0.00000*
1,1,0.23928,0.28337,0.00000*
1,1,0.23928,0.28337,0.00000*
%
%ADD23ROUNDEDRECTD23*%
G04:AMPARAMS|DCode=24|XSize=0.80602mm|YSize=0.23928mm|CornerRadius=0.11964mm|HoleSize=0mm|Usage=FLASHONLY|Rotation=270.000|XOffset=0mm|YOffset=0mm|HoleType=Round|Shape=RoundedRectangle|*
%AMROUNDEDRECTD24*
21,1,0.80602,0.00000,0,0,270.0*
21,1,0.56673,0.23928,0,0,270.0*
1,1,0.23928,0.00000,-0.28337*
1,1,0.23928,0.00000,0.28337*
1,1,0.23928,0.00000,0.28337*
1,1,0.23928,0.00000,-0.28337*
%
%ADD24ROUNDEDRECTD24*%
%ADD25R,0.23928X0.80602*%
G04:AMPARAMS|DCode=26|XSize=0.3mm|YSize=0.8mm|CornerRadius=0.0495mm|HoleSize=0mm|Usage=FLASHONLY|Rotation=270.000|XOffset=0mm|YOffset=0mm|HoleType=Round|Shape=RoundedRectangle|*
%AMROUNDEDRECTD26*
21,1,0.30000,0.70100,0,0,270.0*
21,1,0.20100,0.80000,0,0,270.0*
1,1,0.09900,-0.35050,-0.10050*
1,1,0.09900,-0.35050,0.10050*
1,1,0.09900,0.35050,0.10050*
1,1,0.09900,0.35050,-0.10050*
%
%ADD26ROUNDEDRECTD26*%
%ADD27R,1.95395X1.90620*%
%TA.AperFunction,Conductor*%
%ADD28C,0.63500*%
%ADD29C,0.50800*%
%ADD30C,0.25400*%
%ADD31C,0.30480*%
%ADD32C,1.27000*%
%TA.AperFunction,ComponentPad*%
%ADD33C,1.40000*%
%ADD34R,1.40000X1.40000*%
%ADD35C,3.05000*%
%ADD36C,1.20000*%
%ADD37R,1.20000X1.20000*%
%ADD38C,1.70000*%
%ADD39C,1.80000*%
%TA.AperFunction,ViaPad*%
%ADD40C,5.58800*%
%ADD41C,1.27000*%
%ADD42C,0.76200*%
G36*
X5499100Y3568700D02*
Y2933700D01*
X5448300Y2882900D01*
X5118100D01*
X5067300Y2933700D01*
Y3568700D01*
X5089613Y3591013D01*
X5160693D01*
X5160695Y3591012D01*
X5171596Y3593181D01*
X5180838Y3599356D01*
X5226382Y3644900D01*
X5422900D01*
X5499100Y3568700D01*
D02*
G37*
G36*
X5651500Y4445000D02*
Y4229100D01*
X5829300Y4051300D01*
Y3848100D01*
X5626100D01*
Y4025900D01*
X5524500Y4127500D01*
Y4268732D01*
X5527812Y4273688D01*
X5530177Y4285581D01*
Y4450677D01*
X5537200Y4457700D01*
X5638800D01*
X5651500Y4445000D01*
D02*
G37*
G36*
X1431661Y738187D02*
X1427607D01*
Y738363D01*
X1427254Y738892D01*
X1427078Y739949D01*
X1426549Y741183D01*
X1426021Y742594D01*
X1425139Y744356D01*
X1424434Y746119D01*
X1423376Y748234D01*
X1421261Y752641D01*
X1418617Y757048D01*
X1415620Y761279D01*
X1414034Y763218D01*
X1412271Y764981D01*
X1412095Y765157D01*
X1411566Y765510D01*
X1410861Y766215D01*
X1409803Y767096D01*
X1408569Y767977D01*
X1406806Y769211D01*
X1405044Y770445D01*
X1402928Y771679D01*
X1400460Y772913D01*
X1397816Y773971D01*
X1394996Y775205D01*
X1391823Y776086D01*
X1388650Y776967D01*
X1385124Y777673D01*
X1381423Y778025D01*
X1377545Y778201D01*
X1376311D01*
X1374724Y778025D01*
X1372785Y777849D01*
X1370317Y777496D01*
X1367673Y776967D01*
X1364500Y776262D01*
X1361151Y775381D01*
X1357625Y774147D01*
X1354100Y772561D01*
X1350398Y770798D01*
X1346696Y768506D01*
X1343171Y765862D01*
X1339645Y762865D01*
X1336472Y759340D01*
X1333476Y755286D01*
X1333299Y755109D01*
X1332947Y754404D01*
X1332242Y753346D01*
X1331537Y751760D01*
X1330655Y749997D01*
X1329598Y747706D01*
X1328364Y745238D01*
X1327306Y742241D01*
X1326072Y739068D01*
X1324838Y735543D01*
X1323780Y731665D01*
X1322899Y727786D01*
X1322194Y723380D01*
X1321489Y718973D01*
X1321136Y714213D01*
X1320960Y709277D01*
Y709101D01*
Y708396D01*
Y707162D01*
X1321136Y705576D01*
Y703637D01*
X1321489Y701521D01*
X1321665Y698877D01*
X1322018Y696233D01*
X1322370Y693236D01*
X1323075Y690063D01*
X1324486Y683365D01*
X1326601Y676490D01*
X1327835Y672965D01*
X1329245Y669615D01*
X1329421Y669439D01*
X1329598Y668910D01*
X1330126Y667853D01*
X1330831Y666795D01*
X1331713Y665208D01*
X1332594Y663622D01*
X1333828Y661683D01*
X1335238Y659744D01*
X1338411Y655513D01*
X1342113Y651106D01*
X1346520Y647052D01*
X1348812Y645113D01*
X1351279Y643527D01*
X1351456D01*
X1351808Y643174D01*
X1352690Y642821D01*
X1353571Y642293D01*
X1354805Y641587D01*
X1356391Y640882D01*
X1357978Y640177D01*
X1359917Y639472D01*
X1363971Y637886D01*
X1368731Y636475D01*
X1373843Y635594D01*
X1376487Y635418D01*
X1379131Y635242D01*
X1380541D01*
X1382128Y635418D01*
X1384243Y635594D01*
X1386711Y635770D01*
X1389355Y636123D01*
X1392176Y636652D01*
X1395172Y637357D01*
X1395348D01*
X1395525Y637533D01*
X1396582Y637709D01*
X1397993Y638238D01*
X1400108Y638943D01*
X1402400Y639825D01*
X1405044Y640882D01*
X1407688Y642116D01*
X1410508Y643527D01*
Y687419D01*
Y687596D01*
Y687948D01*
Y688477D01*
Y689358D01*
Y691297D01*
X1410332Y693589D01*
X1410156Y696057D01*
X1409803Y698525D01*
X1409274Y700816D01*
X1409098Y701698D01*
X1408745Y702403D01*
Y702579D01*
X1408393Y702932D01*
X1408040Y703637D01*
X1407335Y704342D01*
X1406630Y705223D01*
X1405749Y706281D01*
X1404515Y707162D01*
X1403281Y707867D01*
X1403105Y708044D01*
X1402576Y708220D01*
X1401694Y708572D01*
X1400460Y708925D01*
X1398698Y709277D01*
X1396406Y709454D01*
X1393762Y709806D01*
X1390589D01*
Y713861D01*
X1449289D01*
Y709806D01*
X1445058D01*
X1443472Y709454D01*
X1441709Y709101D01*
X1439594Y708396D01*
X1437655Y707338D01*
X1435892Y705752D01*
X1434482Y703813D01*
Y703637D01*
X1434129Y702932D01*
X1433777Y701874D01*
X1433424Y700111D01*
X1433072Y697996D01*
X1432719Y695175D01*
X1432543Y691650D01*
X1432366Y689535D01*
Y687419D01*
Y641059D01*
X1432190D01*
X1431838Y640706D01*
X1431133Y640354D01*
X1430251Y640001D01*
X1429017Y639296D01*
X1427607Y638591D01*
X1426021Y637886D01*
X1424434Y637181D01*
X1420556Y635418D01*
X1416149Y633831D01*
X1411742Y632245D01*
X1406983Y630835D01*
X1406806D01*
X1406454Y630658D01*
X1405749Y630482D01*
X1404867Y630306D01*
X1403633Y630130D01*
X1402223Y629777D01*
X1400637Y629601D01*
X1398874Y629248D01*
X1396759Y628896D01*
X1394643Y628719D01*
X1389884Y628191D01*
X1384772Y627838D01*
X1379131Y627662D01*
X1377192D01*
X1376134Y627838D01*
X1374900D01*
X1373490Y628014D01*
X1371904Y628191D01*
X1368202Y628543D01*
X1363971Y629072D01*
X1359388Y629953D01*
X1354276Y631187D01*
X1348988Y632597D01*
X1343523Y634536D01*
X1338059Y636828D01*
X1332418Y639472D01*
X1326953Y642645D01*
X1321841Y646523D01*
X1316906Y650754D01*
X1312322Y655690D01*
X1312146Y655866D01*
X1311617Y656571D01*
X1310736Y657805D01*
X1309678Y659391D01*
X1308444Y661507D01*
X1307034Y663798D01*
X1305448Y666619D01*
X1303861Y669792D01*
X1302275Y673141D01*
X1300688Y676843D01*
X1299278Y680897D01*
X1298044Y685304D01*
X1296986Y689711D01*
X1296105Y694470D01*
X1295576Y699406D01*
X1295400Y704518D01*
Y704694D01*
Y705399D01*
Y706457D01*
X1295576Y707867D01*
X1295753Y709630D01*
X1295929Y711745D01*
X1296281Y714213D01*
X1296634Y716857D01*
X1297163Y719678D01*
X1297692Y722674D01*
X1299454Y729020D01*
X1300512Y732370D01*
X1301746Y735895D01*
X1303332Y739244D01*
X1304919Y742770D01*
X1305095Y742946D01*
X1305448Y743651D01*
X1306153Y744885D01*
X1307034Y746295D01*
X1308268Y748234D01*
X1309678Y750350D01*
X1311265Y752641D01*
X1313204Y755109D01*
X1315319Y757753D01*
X1317611Y760574D01*
X1320255Y763394D01*
X1323075Y766215D01*
X1326072Y768859D01*
X1329245Y771503D01*
X1332594Y773971D01*
X1336296Y776262D01*
X1336472Y776439D01*
X1337001Y776615D01*
X1338059Y777144D01*
X1339293Y777849D01*
X1340879Y778554D01*
X1342818Y779435D01*
X1344934Y780317D01*
X1347401Y781198D01*
X1350222Y782079D01*
X1353219Y782961D01*
X1356391Y783842D01*
X1359917Y784547D01*
X1363619Y785252D01*
X1367321Y785781D01*
X1371375Y785958D01*
X1375606Y786134D01*
X1378602D01*
X1380541Y785958D01*
X1382833Y785781D01*
X1385477Y785605D01*
X1390589Y784724D01*
X1390942D01*
X1391823Y784371D01*
X1393409Y784018D01*
X1395525Y783490D01*
X1398169Y782608D01*
X1401518Y781551D01*
X1405396Y780317D01*
X1409803Y778730D01*
X1410156Y778554D01*
X1410861Y778378D01*
X1411918Y778025D01*
X1413152Y777673D01*
X1415973Y776791D01*
X1417207Y776615D01*
X1418088Y776439D01*
X1418441D01*
X1419322Y776615D01*
X1420556Y777320D01*
X1421261Y777673D01*
X1421790Y778378D01*
Y778554D01*
X1421966Y778730D01*
X1422319Y779259D01*
X1422671Y780140D01*
X1423024Y781198D01*
X1423200Y782432D01*
X1423553Y784195D01*
X1423729Y786134D01*
X1427783D01*
X1431661Y738187D01*
D02*
G37*
G36*
X2410698Y701698D02*
X2406996D01*
Y701874D01*
X2406820Y702403D01*
X2406468Y703284D01*
X2406291Y704342D01*
X2405763Y705752D01*
X2405234Y707162D01*
X2404000Y710688D01*
X2402413Y714390D01*
X2400474Y718092D01*
X2398359Y721441D01*
X2397125Y722851D01*
X2395891Y724085D01*
X2395539Y724261D01*
X2394657Y724966D01*
X2393247Y726024D01*
X2391308Y727082D01*
X2389016Y728139D01*
X2386020Y729197D01*
X2382847Y729902D01*
X2379145Y730078D01*
X2377911D01*
X2376324Y729902D01*
X2374562Y729549D01*
X2372623Y729021D01*
X2370507Y728316D01*
X2368392Y727258D01*
X2366453Y725848D01*
X2366277Y725671D01*
X2365748Y725143D01*
X2364866Y724261D01*
X2364161Y723204D01*
X2363280Y721793D01*
X2362399Y720207D01*
X2361870Y718444D01*
X2361694Y716681D01*
Y716329D01*
Y715624D01*
X2361870Y714390D01*
X2362222Y712980D01*
X2362575Y711217D01*
X2363104Y709454D01*
X2363985Y707691D01*
X2365219Y705928D01*
X2365395Y705752D01*
X2365924Y705223D01*
X2366806Y704166D01*
X2368216Y702932D01*
X2370155Y701522D01*
X2372623Y699759D01*
X2375619Y697996D01*
X2379321Y696057D01*
X2395715Y688125D01*
X2395891Y687948D01*
X2396772Y687596D01*
X2397830Y687067D01*
X2399240Y686186D01*
X2401003Y684952D01*
X2402942Y683718D01*
X2405057Y682131D01*
X2407173Y680368D01*
X2409288Y678253D01*
X2411227Y676138D01*
X2413166Y673670D01*
X2414929Y671026D01*
X2416339Y668382D01*
X2417397Y665385D01*
X2418278Y662212D01*
X2418454Y658863D01*
Y658687D01*
Y658334D01*
Y657453D01*
X2418278Y656571D01*
X2418102Y655337D01*
X2417926Y653927D01*
X2417220Y650754D01*
X2415810Y647229D01*
X2415105Y645290D01*
X2414047Y643527D01*
X2412814Y641588D01*
X2411403Y639825D01*
X2409817Y638062D01*
X2407878Y636299D01*
X2407702Y636123D01*
X2407349Y635947D01*
X2406820Y635594D01*
X2405939Y635066D01*
X2405057Y634360D01*
X2403823Y633655D01*
X2402413Y632950D01*
X2401003Y632069D01*
X2397478Y630482D01*
X2393423Y629248D01*
X2388840Y628191D01*
X2386548Y628014D01*
X2384081Y627838D01*
X2382494D01*
X2381613Y628014D01*
X2380555D01*
X2377911Y628191D01*
X2374738Y628543D01*
X2371212Y629248D01*
X2367158Y629954D01*
X2362751Y631011D01*
X2362575D01*
X2362222Y631187D01*
X2361517Y631364D01*
X2360636Y631540D01*
X2358521Y631893D01*
X2356582Y632069D01*
X2356229D01*
X2355171Y631716D01*
X2354642Y631364D01*
X2353937Y631011D01*
X2353232Y630306D01*
X2352703Y629425D01*
X2349002D01*
Y666090D01*
X2352703D01*
Y665914D01*
X2352880Y665385D01*
X2353056Y664504D01*
X2353232Y663446D01*
X2353761Y662212D01*
X2354114Y660626D01*
X2355348Y657100D01*
X2356934Y653398D01*
X2358873Y649344D01*
X2361517Y645642D01*
X2362927Y643879D01*
X2364514Y642293D01*
X2364690D01*
X2364866Y641940D01*
X2365395Y641588D01*
X2366100Y641059D01*
X2367863Y639825D01*
X2370331Y638415D01*
X2373328Y636828D01*
X2376677Y635594D01*
X2380379Y634713D01*
X2382318Y634537D01*
X2384433Y634360D01*
X2385667D01*
X2387077Y634537D01*
X2388840Y634889D01*
X2390779Y635418D01*
X2392894Y636299D01*
X2395010Y637357D01*
X2396949Y638767D01*
X2397125Y638944D01*
X2397654Y639649D01*
X2398535Y640530D01*
X2399417Y641940D01*
X2400298Y643527D01*
X2401179Y645290D01*
X2401708Y647405D01*
X2401884Y649696D01*
Y649873D01*
Y650049D01*
Y650930D01*
X2401532Y652517D01*
X2401179Y654280D01*
X2400474Y656219D01*
X2399593Y658510D01*
X2398183Y660626D01*
X2396420Y662741D01*
X2396244Y662917D01*
X2395362Y663622D01*
X2393776Y664856D01*
X2392894Y665561D01*
X2391660Y666443D01*
X2390250Y667324D01*
X2388664Y668382D01*
X2386901Y669439D01*
X2384962Y670497D01*
X2382670Y671731D01*
X2380203Y673141D01*
X2377558Y674551D01*
X2374562Y675962D01*
X2374385Y676138D01*
X2373857Y676314D01*
X2372975Y676843D01*
X2371918Y677372D01*
X2370684Y678077D01*
X2369097Y678958D01*
X2365924Y680897D01*
X2362222Y683189D01*
X2358873Y685480D01*
X2357287Y686891D01*
X2355700Y688125D01*
X2354466Y689359D01*
X2353409Y690592D01*
X2353232Y690945D01*
X2352703Y691826D01*
X2351822Y693060D01*
X2350941Y694999D01*
X2350059Y697291D01*
X2349178Y700111D01*
X2348649Y703284D01*
X2348473Y706810D01*
Y706986D01*
Y707339D01*
Y708044D01*
X2348649Y708925D01*
X2348825Y709983D01*
X2349002Y711217D01*
X2349530Y714213D01*
X2350588Y717563D01*
X2352175Y721088D01*
X2353056Y722851D01*
X2354290Y724614D01*
X2355524Y726376D01*
X2357110Y727963D01*
X2357287Y728139D01*
X2357463Y728316D01*
X2357992Y728844D01*
X2358697Y729373D01*
X2359578Y729902D01*
X2360636Y730783D01*
X2363104Y732370D01*
X2366453Y733956D01*
X2370155Y735190D01*
X2374562Y736248D01*
X2377030Y736424D01*
X2379497Y736601D01*
X2380555D01*
X2381789Y736424D01*
X2383552Y736248D01*
X2385667Y735895D01*
X2388135Y735543D01*
X2390955Y734838D01*
X2394128Y733956D01*
X2394305D01*
X2395010Y733780D01*
X2396067Y733428D01*
X2397301Y733251D01*
X2399769Y732546D01*
X2400827Y732370D01*
X2402061D01*
X2402766Y732546D01*
X2403647Y732722D01*
X2404529Y733075D01*
X2404705Y733251D01*
X2405234Y733780D01*
X2405939Y734838D01*
X2406468Y735719D01*
X2406996Y736601D01*
X2410698D01*
Y701698D01*
D02*
G37*
G36*
X2056031Y729549D02*
X2055855D01*
X2055326Y729373D01*
X2054621D01*
X2053739Y729197D01*
X2051624Y728492D01*
X2049685Y727610D01*
X2049509D01*
X2049332Y727434D01*
X2048275Y726553D01*
X2047393Y725848D01*
X2046688Y724966D01*
X2045807Y723909D01*
X2044749Y722675D01*
X2044573Y722322D01*
X2044220Y721793D01*
X2043868Y721088D01*
X2043339Y719854D01*
X2042634Y718444D01*
X2041929Y716505D01*
X2040871Y714037D01*
X1999094Y611797D01*
Y611621D01*
X1998741Y611092D01*
X1998565Y610387D01*
X1998036Y609329D01*
X1997331Y608095D01*
X1996626Y606685D01*
X1994863Y603512D01*
X1992572Y599810D01*
X1989927Y596108D01*
X1986754Y592583D01*
X1983229Y589410D01*
X1983053D01*
X1982876Y589057D01*
X1982348Y588705D01*
X1981642Y588176D01*
X1979703Y586942D01*
X1977236Y585532D01*
X1974415Y584122D01*
X1971242Y582888D01*
X1967893Y582006D01*
X1966130Y581830D01*
X1964367Y581654D01*
X1963310D01*
X1962076Y581830D01*
X1960666Y582182D01*
X1958903Y582535D01*
X1957140Y583240D01*
X1955377Y584298D01*
X1953615Y585532D01*
X1953438Y585708D01*
X1952909Y586237D01*
X1952204Y586942D01*
X1951499Y588176D01*
X1950794Y589410D01*
X1950089Y590820D01*
X1949560Y592583D01*
X1949384Y594346D01*
Y594522D01*
Y595051D01*
X1949560Y595932D01*
X1949737Y596990D01*
X1950089Y598224D01*
X1950618Y599458D01*
X1951323Y600691D01*
X1952381Y601749D01*
X1952557Y601925D01*
X1952909Y602278D01*
X1953615Y602630D01*
X1954496Y603159D01*
X1955730Y603688D01*
X1957140Y604217D01*
X1958903Y604393D01*
X1960842Y604570D01*
X1961547D01*
X1962428Y604393D01*
X1963486Y604217D01*
X1964896Y604041D01*
X1966659Y603688D01*
X1968598Y602983D01*
X1970890Y602278D01*
X1971066D01*
X1971595Y602102D01*
X1972476Y601749D01*
X1973357Y601573D01*
X1975297Y600868D01*
X1976002Y600691D01*
X1977059D01*
X1977764Y600868D01*
X1978646Y601220D01*
X1979703Y601573D01*
X1980937Y602102D01*
X1982348Y602983D01*
X1983758Y604217D01*
X1983934Y604393D01*
X1984463Y604922D01*
X1985344Y605803D01*
X1986226Y607214D01*
X1987460Y608976D01*
X1988870Y611268D01*
X1990280Y614088D01*
X1991866Y617438D01*
X1999094Y635242D01*
X1962252Y712274D01*
Y712450D01*
X1961900Y712979D01*
X1961547Y713684D01*
X1960842Y714742D01*
X1960137Y715976D01*
X1959255Y717562D01*
X1958021Y719149D01*
X1956788Y721088D01*
X1956611Y721264D01*
X1956435Y721793D01*
X1955906Y722322D01*
X1955201Y723203D01*
X1953791Y724966D01*
X1952909Y725671D01*
X1952204Y726376D01*
X1952028D01*
X1951676Y726729D01*
X1951147Y727081D01*
X1950265Y727434D01*
X1949031Y727963D01*
X1947621Y728492D01*
X1946035Y729020D01*
X1943919Y729549D01*
Y733604D01*
X1991866D01*
Y729549D01*
X1988694D01*
X1987812Y729373D01*
X1986754Y729197D01*
X1984287Y728668D01*
X1983053Y727963D01*
X1981995Y727258D01*
X1981819Y727081D01*
X1981642Y726905D01*
X1981290Y726376D01*
X1980761Y725847D01*
X1979880Y724085D01*
X1979703Y723027D01*
X1979527Y721793D01*
Y721617D01*
Y720912D01*
X1979703Y720030D01*
X1980056Y718620D01*
X1980409Y716857D01*
X1981114Y714742D01*
X1981995Y712450D01*
X1983229Y709630D01*
X2008260Y657805D01*
X2031176Y714566D01*
Y714742D01*
X2031529Y715447D01*
X2031705Y716329D01*
X2032057Y717386D01*
X2032410Y718797D01*
X2032586Y720383D01*
X2032939Y723732D01*
Y723909D01*
Y724085D01*
Y724790D01*
X2032586Y725848D01*
X2032234Y726729D01*
X2032057Y726905D01*
X2031529Y727434D01*
X2030647Y728139D01*
X2029413Y728668D01*
X2029061Y728844D01*
X2028532Y729021D01*
X2027827Y729197D01*
X2026945D01*
X2025711Y729373D01*
X2024301Y729549D01*
X2022715D01*
Y733604D01*
X2056031D01*
Y729549D01*
D02*
G37*
G36*
X2640562D02*
X2640386D01*
X2639681Y729373D01*
X2638623D01*
X2637389Y729021D01*
X2634745Y728316D01*
X2633511Y727787D01*
X2632453Y727082D01*
X2632277Y726905D01*
X2631748Y726376D01*
X2631043Y725671D01*
X2630162Y724437D01*
X2629104Y722851D01*
X2627870Y720912D01*
X2626636Y718620D01*
X2625402Y715800D01*
X2589266Y627838D01*
X2584683D01*
X2548194Y714213D01*
X2548017Y714566D01*
X2547841Y715271D01*
X2547312Y716329D01*
X2546607Y717563D01*
X2545197Y720559D01*
X2544315Y721970D01*
X2543434Y723027D01*
X2543258Y723204D01*
X2543082Y723556D01*
X2542553Y723909D01*
X2541848Y724614D01*
X2540085Y726024D01*
X2537793Y727610D01*
X2537617D01*
X2537441Y727787D01*
X2536912Y727963D01*
X2536207Y728139D01*
X2535149Y728492D01*
X2533739Y728844D01*
X2532152Y729197D01*
X2530213Y729549D01*
Y733604D01*
X2578337D01*
Y729549D01*
X2574459D01*
X2573577Y729373D01*
X2572696Y729197D01*
X2570404Y728668D01*
X2569347Y727963D01*
X2568465Y727258D01*
X2568289Y727082D01*
X2568113Y726905D01*
X2567760Y726376D01*
X2567408Y725848D01*
X2566526Y723909D01*
X2566350Y722851D01*
X2566174Y721617D01*
Y721441D01*
Y720912D01*
X2566350Y720031D01*
X2566526Y718973D01*
X2566703Y717563D01*
X2567231Y715976D01*
X2567760Y714213D01*
X2568642Y712274D01*
X2592439Y655690D01*
X2616412Y714390D01*
X2616589Y714742D01*
X2616765Y715447D01*
X2617117Y716505D01*
X2617646Y717915D01*
X2618528Y721088D01*
X2618704Y722675D01*
X2618880Y723909D01*
Y724261D01*
X2618704Y724790D01*
X2618528Y725671D01*
X2617999Y726553D01*
X2617823Y726905D01*
X2617117Y727434D01*
X2616060Y728316D01*
X2614826Y728844D01*
X2614650D01*
X2614473Y729021D01*
X2613944D01*
X2613063Y729197D01*
X2612005Y729373D01*
X2610772D01*
X2609009Y729549D01*
X2607070D01*
Y733604D01*
X2640562D01*
Y729549D01*
D02*
G37*
G36*
X1855253Y782608D02*
X1857544D01*
X1860012Y782432D01*
X1862832D01*
X1868650Y781903D01*
X1874467Y781374D01*
X1877287Y780846D01*
X1880107Y780493D01*
X1882575Y779964D01*
X1884867Y779259D01*
X1885043D01*
X1885396Y779083D01*
X1885925Y778906D01*
X1886806Y778554D01*
X1887687Y778201D01*
X1888921Y777673D01*
X1891565Y776262D01*
X1894562Y774500D01*
X1897911Y772208D01*
X1901084Y769564D01*
X1904257Y766215D01*
X1904434Y766038D01*
X1904610Y765862D01*
X1904962Y765333D01*
X1905491Y764452D01*
X1906196Y763570D01*
X1906901Y762513D01*
X1908312Y759869D01*
X1909722Y756519D01*
X1911132Y752641D01*
X1912013Y748411D01*
X1912366Y746119D01*
Y743651D01*
Y743475D01*
Y743122D01*
Y742241D01*
X1912190Y741360D01*
X1912013Y740126D01*
X1911837Y738716D01*
X1911308Y735366D01*
X1910074Y731665D01*
X1908488Y727434D01*
X1907430Y725495D01*
X1906196Y723380D01*
X1904786Y721264D01*
X1903200Y719325D01*
X1903023Y719149D01*
X1902847Y718796D01*
X1902318Y718444D01*
X1901437Y717739D01*
X1900556Y716857D01*
X1899322Y715800D01*
X1897911Y714742D01*
X1896149Y713684D01*
X1894386Y712450D01*
X1892271Y711393D01*
X1889979Y710159D01*
X1887335Y708925D01*
X1884514Y707867D01*
X1881518Y706633D01*
X1878345Y705752D01*
X1874819Y704871D01*
X1906373Y661330D01*
X1906549Y661154D01*
X1906901Y660625D01*
X1907430Y659920D01*
X1908135Y658863D01*
X1909017Y657629D01*
X1910251Y656218D01*
X1912719Y653222D01*
X1915539Y649696D01*
X1918712Y646523D01*
X1921709Y643527D01*
X1923295Y642293D01*
X1924705Y641235D01*
X1924882D01*
X1925058Y641059D01*
X1926116Y640530D01*
X1927878Y639648D01*
X1930170Y638591D01*
X1932990Y637533D01*
X1936516Y636475D01*
X1940570Y635770D01*
X1944977Y635065D01*
Y631011D01*
X1904434D01*
X1852961Y702050D01*
X1852080D01*
X1851022Y701874D01*
X1849788D01*
X1846791Y701698D01*
X1840269D01*
X1839564Y701874D01*
X1838506D01*
X1837272Y702050D01*
Y657805D01*
Y657629D01*
Y657100D01*
Y656395D01*
Y655513D01*
X1837449Y654279D01*
Y653045D01*
X1837625Y650225D01*
X1837978Y647052D01*
X1838506Y644055D01*
X1838859Y642821D01*
X1839211Y641587D01*
X1839740Y640530D01*
X1840269Y639825D01*
X1840445Y639648D01*
X1841150Y639120D01*
X1842032Y638238D01*
X1843442Y637533D01*
X1845205Y636652D01*
X1847496Y635770D01*
X1849964Y635242D01*
X1852961Y635065D01*
X1858954D01*
Y631011D01*
X1794085D01*
Y635065D01*
X1800607D01*
X1801312Y635242D01*
X1802899Y635418D01*
X1805014Y635770D01*
X1807306Y636652D01*
X1809421Y637709D01*
X1811536Y639120D01*
X1813299Y641235D01*
X1813475Y641411D01*
X1813651Y641940D01*
X1814004Y642998D01*
X1814533Y644584D01*
X1815062Y646876D01*
X1815238Y648110D01*
X1815414Y649696D01*
X1815590Y651459D01*
Y653398D01*
X1815767Y655513D01*
Y657805D01*
Y755991D01*
Y756167D01*
Y756696D01*
Y757401D01*
Y758282D01*
X1815590Y759340D01*
Y760750D01*
X1815414Y763570D01*
X1815062Y766567D01*
X1814357Y769564D01*
X1814004Y770798D01*
X1813651Y772032D01*
X1813123Y773089D01*
X1812594Y773794D01*
X1812418Y773971D01*
X1811712Y774500D01*
X1810831Y775381D01*
X1809421Y776262D01*
X1807482Y777144D01*
X1805366Y778025D01*
X1802722Y778554D01*
X1799726Y778730D01*
X1794085D01*
Y782785D01*
X1853137D01*
X1855253Y782608D01*
D02*
G37*
G36*
X1495297Y654103D02*
Y653927D01*
Y653751D01*
Y653222D01*
Y652517D01*
Y650930D01*
X1495473Y648815D01*
X1495650Y646699D01*
X1495826Y644584D01*
X1496178Y642645D01*
X1496531Y641235D01*
Y641059D01*
X1496883Y640706D01*
X1497060Y640177D01*
X1497589Y639472D01*
X1498999Y638062D01*
X1500762Y636652D01*
X1500938D01*
X1501290Y636475D01*
X1502172Y636123D01*
X1503229Y635947D01*
X1504816Y635594D01*
X1506755Y635242D01*
X1509047Y635065D01*
X1511867D01*
Y631011D01*
X1461628D01*
Y635065D01*
X1463920D01*
X1465506Y635242D01*
X1468679Y635594D01*
X1470090Y635947D01*
X1471147Y636475D01*
X1471323D01*
X1471676Y636828D01*
X1472734Y637533D01*
X1473968Y639120D01*
X1474673Y640001D01*
X1475202Y641235D01*
Y641411D01*
X1475378Y641940D01*
X1475730Y642821D01*
X1476083Y644055D01*
X1476259Y645818D01*
X1476612Y648110D01*
X1476788Y650754D01*
Y654103D01*
Y747353D01*
Y747529D01*
Y748058D01*
Y748940D01*
Y750174D01*
Y751407D01*
Y752994D01*
X1476612Y756343D01*
Y760045D01*
X1476435Y763394D01*
X1476259Y764981D01*
Y766391D01*
X1476083Y767449D01*
X1475907Y768330D01*
Y768506D01*
X1475730Y769035D01*
X1475554Y769740D01*
X1475378Y770622D01*
X1474496Y772384D01*
X1474144Y773089D01*
X1473439Y773794D01*
X1473086Y773971D01*
X1472205Y774676D01*
X1470795Y775205D01*
X1469032Y775381D01*
X1467974D01*
X1467093Y775205D01*
X1466035Y775028D01*
X1464801Y774676D01*
X1463215Y774147D01*
X1461628Y773618D01*
X1459866Y777673D01*
X1490185Y790188D01*
X1495297D01*
Y654103D01*
D02*
G37*
G36*
X2310750Y733604D02*
X2334547D01*
Y726024D01*
X2310750Y725848D01*
Y659215D01*
Y659039D01*
Y658863D01*
Y658334D01*
Y657629D01*
X2310926Y655866D01*
X2311102Y653751D01*
X2311455Y651459D01*
X2311984Y649344D01*
X2312689Y647229D01*
X2313570Y645642D01*
X2313746Y645466D01*
X2314099Y645113D01*
X2314628Y644584D01*
X2315509Y644056D01*
X2316567Y643351D01*
X2317801Y642822D01*
X2319211Y642469D01*
X2320797Y642293D01*
X2321503D01*
X2322208Y642469D01*
X2323089Y642645D01*
X2325381Y643174D01*
X2326791Y643703D01*
X2328025Y644408D01*
X2328201Y644584D01*
X2328554Y644761D01*
X2329259Y645466D01*
X2329964Y646171D01*
X2330845Y647052D01*
X2331903Y648286D01*
X2332784Y649696D01*
X2333489Y651283D01*
X2337896D01*
Y651107D01*
X2337720Y650754D01*
X2337544Y650225D01*
X2337191Y649520D01*
X2336310Y647405D01*
X2334900Y645113D01*
X2333313Y642293D01*
X2331374Y639649D01*
X2329259Y637005D01*
X2326615Y634713D01*
X2326262Y634537D01*
X2325381Y633832D01*
X2323970Y632950D01*
X2322208Y632069D01*
X2319916Y631011D01*
X2317448Y630130D01*
X2314804Y629425D01*
X2311984Y629248D01*
X2311102D01*
X2310045Y629425D01*
X2308811Y629601D01*
X2307224Y629954D01*
X2305461Y630482D01*
X2303699Y631187D01*
X2301760Y632069D01*
X2301583Y632245D01*
X2300878Y632598D01*
X2299997Y633303D01*
X2298939Y634184D01*
X2297882Y635242D01*
X2296648Y636652D01*
X2295590Y638239D01*
X2294532Y640178D01*
X2294356Y640354D01*
X2294180Y641235D01*
X2293827Y642469D01*
X2293475Y644232D01*
X2292946Y646700D01*
X2292593Y649520D01*
X2292417Y652869D01*
X2292241Y656747D01*
Y726024D01*
X2276023D01*
Y729549D01*
X2276376Y729726D01*
X2277081Y730078D01*
X2278315Y730607D01*
X2279901Y731489D01*
X2281664Y732722D01*
X2283780Y734133D01*
X2286071Y735895D01*
X2288363Y737834D01*
X2288715Y738187D01*
X2289420Y738892D01*
X2290654Y740126D01*
X2292241Y741713D01*
X2294004Y743828D01*
X2295943Y746119D01*
X2298058Y748764D01*
X2299997Y751584D01*
X2300173Y751760D01*
X2300526Y752465D01*
X2301055Y753523D01*
X2301936Y755109D01*
X2302994Y757225D01*
X2304228Y760045D01*
X2305638Y763394D01*
X2307224Y767273D01*
X2310750D01*
Y733604D01*
D02*
G37*
G36*
X2110148Y736424D02*
X2111558D01*
X2114731Y736072D01*
X2118256Y735367D01*
X2121958Y734661D01*
X2125660Y733428D01*
X2129185Y731841D01*
X2129538Y731665D01*
X2130243Y731136D01*
X2131477Y730431D01*
X2132887Y729197D01*
X2134474Y727787D01*
X2136060Y725848D01*
X2137647Y723732D01*
X2138881Y721088D01*
X2139057Y720912D01*
X2139233Y720031D01*
X2139586Y718797D01*
X2139938Y716858D01*
X2140115Y715624D01*
X2140291Y714213D01*
X2140467Y712627D01*
X2140643Y710688D01*
X2140820Y708749D01*
X2140996Y706457D01*
Y703989D01*
Y701345D01*
Y666619D01*
Y666443D01*
Y665914D01*
Y665209D01*
Y664327D01*
Y663093D01*
Y661859D01*
Y658863D01*
X2141172Y655866D01*
Y652869D01*
X2141349Y651459D01*
Y650402D01*
X2141525Y649344D01*
Y648639D01*
Y648463D01*
X2141701Y648110D01*
Y647581D01*
X2141877Y646876D01*
X2142582Y645290D01*
X2142935Y644761D01*
X2143288Y644232D01*
X2143464Y644056D01*
X2144169Y643703D01*
X2145227Y643351D01*
X2146284Y643174D01*
X2146637D01*
X2147342Y643351D01*
X2148400Y643527D01*
X2149457Y643879D01*
X2149633D01*
X2149986Y644232D01*
X2150515Y644761D01*
X2151396Y645466D01*
X2152630Y646523D01*
X2154217Y647934D01*
X2156332Y649873D01*
X2158624Y652164D01*
Y645818D01*
X2158447Y645642D01*
X2158095Y645113D01*
X2157390Y644232D01*
X2156508Y643174D01*
X2155274Y641940D01*
X2154040Y640530D01*
X2150867Y637533D01*
X2147166Y634360D01*
X2145227Y632950D01*
X2143111Y631716D01*
X2140996Y630659D01*
X2138881Y629777D01*
X2136589Y629248D01*
X2134474Y629072D01*
X2133592D01*
X2132535Y629248D01*
X2131301Y629601D01*
X2129891Y629954D01*
X2128480Y630659D01*
X2127070Y631540D01*
X2125660Y632774D01*
X2125484Y632950D01*
X2125131Y633479D01*
X2124602Y634537D01*
X2124073Y635947D01*
X2123545Y637710D01*
X2123016Y640001D01*
X2122663Y642645D01*
X2122487Y645818D01*
X2122311Y645642D01*
X2121782Y645290D01*
X2121077Y644584D01*
X2120019Y643879D01*
X2118609Y642822D01*
X2117199Y641764D01*
X2114026Y639472D01*
X2110676Y636828D01*
X2107327Y634537D01*
X2105917Y633655D01*
X2104507Y632774D01*
X2103449Y632069D01*
X2102568Y631540D01*
X2102215Y631364D01*
X2101510Y631187D01*
X2100276Y630659D01*
X2098690Y630306D01*
X2096927Y629777D01*
X2094635Y629248D01*
X2092344Y629072D01*
X2089876Y628896D01*
X2088818D01*
X2088113Y629072D01*
X2086174Y629248D01*
X2083706Y629777D01*
X2080886Y630659D01*
X2077889Y631893D01*
X2075069Y633655D01*
X2072248Y636123D01*
X2071896Y636476D01*
X2071191Y637357D01*
X2070133Y639120D01*
X2068899Y641235D01*
X2067665Y643879D01*
X2066607Y647229D01*
X2065902Y650930D01*
X2065550Y655161D01*
Y655337D01*
Y655514D01*
Y656395D01*
X2065726Y657805D01*
X2065902Y659568D01*
X2066431Y661683D01*
X2066960Y663799D01*
X2067841Y666090D01*
X2068899Y668205D01*
Y668382D01*
X2069075Y668558D01*
X2069780Y669439D01*
X2070838Y671026D01*
X2072601Y672789D01*
X2074716Y675080D01*
X2077360Y677372D01*
X2080710Y680016D01*
X2084588Y682484D01*
X2084764D01*
X2085116Y682836D01*
X2085822Y683189D01*
X2086879Y683718D01*
X2088113Y684423D01*
X2089700Y685128D01*
X2091462Y686009D01*
X2093578Y687067D01*
X2096046Y688125D01*
X2098866Y689359D01*
X2102039Y690769D01*
X2105388Y692179D01*
X2109090Y693765D01*
X2113321Y695352D01*
X2117728Y697115D01*
X2122487Y698877D01*
Y702756D01*
Y702932D01*
Y703461D01*
Y704166D01*
Y705223D01*
X2122311Y706457D01*
Y708044D01*
X2121958Y711217D01*
X2121253Y714742D01*
X2120372Y718268D01*
X2119138Y721441D01*
X2118433Y722675D01*
X2117551Y723909D01*
X2117375Y724085D01*
X2116670Y724790D01*
X2115612Y725671D01*
X2114026Y726905D01*
X2112087Y727963D01*
X2109619Y728844D01*
X2106798Y729549D01*
X2103449Y729726D01*
X2102392D01*
X2100981Y729549D01*
X2099571Y729197D01*
X2097808Y728844D01*
X2095869Y728139D01*
X2094107Y727082D01*
X2092344Y725848D01*
X2092168Y725671D01*
X2091639Y725143D01*
X2090934Y724437D01*
X2090228Y723380D01*
X2089523Y721970D01*
X2088818Y720559D01*
X2088289Y718797D01*
X2088113Y717034D01*
X2088466Y710688D01*
Y710512D01*
Y709807D01*
X2088289Y708925D01*
X2088113Y707691D01*
X2087761Y706457D01*
X2087232Y705047D01*
X2086527Y703813D01*
X2085645Y702579D01*
X2085469Y702403D01*
X2085116Y702227D01*
X2084588Y701698D01*
X2083883Y701345D01*
X2082825Y700816D01*
X2081591Y700288D01*
X2080357Y700111D01*
X2078771Y699935D01*
X2078065D01*
X2077360Y700111D01*
X2076479Y700288D01*
X2075421Y700640D01*
X2074187Y701169D01*
X2073130Y701874D01*
X2072072Y702756D01*
X2071896Y702932D01*
X2071720Y703284D01*
X2071191Y703989D01*
X2070838Y704871D01*
X2070309Y705928D01*
X2069780Y707339D01*
X2069604Y708925D01*
X2069428Y710688D01*
Y710864D01*
Y711040D01*
Y711569D01*
X2069604Y712274D01*
X2069957Y714213D01*
X2070662Y716505D01*
X2071720Y719325D01*
X2073482Y722322D01*
X2074716Y723909D01*
X2075950Y725319D01*
X2077360Y726905D01*
X2079123Y728492D01*
X2079299Y728668D01*
X2079652Y728844D01*
X2080181Y729197D01*
X2080886Y729726D01*
X2081944Y730431D01*
X2083177Y731136D01*
X2084588Y731841D01*
X2086350Y732546D01*
X2088113Y733251D01*
X2090228Y733956D01*
X2092520Y734661D01*
X2094988Y735367D01*
X2097632Y735895D01*
X2100452Y736248D01*
X2103625Y736601D01*
X2109090D01*
X2110148Y736424D01*
D02*
G37*
G36*
X2485087D02*
X2486673Y736248D01*
X2488260Y736072D01*
X2490199Y735719D01*
X2492314Y735190D01*
X2496721Y733780D01*
X2499189Y732899D01*
X2501480Y731841D01*
X2503948Y730431D01*
X2506240Y728844D01*
X2508531Y727082D01*
X2510647Y725143D01*
X2510823Y724966D01*
X2511176Y724614D01*
X2511704Y723909D01*
X2512410Y723027D01*
X2513291Y721970D01*
X2514172Y720559D01*
X2515230Y718973D01*
X2516288Y717210D01*
X2517169Y715095D01*
X2518227Y712803D01*
X2519108Y710335D01*
X2519989Y707515D01*
X2520694Y704695D01*
X2521223Y701522D01*
X2521576Y698349D01*
X2521752Y694823D01*
X2450889D01*
Y694647D01*
Y693765D01*
Y692708D01*
X2451065Y691121D01*
X2451242Y689182D01*
X2451418Y686891D01*
X2451771Y684423D01*
X2452123Y681779D01*
X2453533Y675962D01*
X2454415Y672965D01*
X2455472Y669968D01*
X2456706Y666971D01*
X2458116Y664151D01*
X2459879Y661507D01*
X2461818Y658863D01*
X2461995Y658687D01*
X2462347Y658334D01*
X2462876Y657629D01*
X2463757Y656924D01*
X2464815Y655866D01*
X2466225Y654808D01*
X2467635Y653575D01*
X2469398Y652517D01*
X2473276Y650049D01*
X2477683Y647934D01*
X2480151Y647229D01*
X2482619Y646523D01*
X2485263Y646171D01*
X2488083Y645995D01*
X2489141D01*
X2489846Y646171D01*
X2491785Y646347D01*
X2494077Y646700D01*
X2496897Y647405D01*
X2499894Y648286D01*
X2502891Y649696D01*
X2505711Y651459D01*
X2506064Y651812D01*
X2506945Y652517D01*
X2508355Y653927D01*
X2510118Y655866D01*
X2512057Y658510D01*
X2514172Y661859D01*
X2515230Y663622D01*
X2516288Y665738D01*
X2517169Y668029D01*
X2518227Y670497D01*
X2521752Y668205D01*
Y668029D01*
X2521576Y667500D01*
X2521400Y666795D01*
X2521223Y665561D01*
X2520871Y664327D01*
X2520342Y662741D01*
X2519813Y660978D01*
X2519108Y659039D01*
X2517345Y654632D01*
X2514877Y650049D01*
X2513467Y647581D01*
X2511881Y645113D01*
X2509942Y642822D01*
X2508003Y640354D01*
X2507826Y640178D01*
X2507474Y639825D01*
X2506769Y639120D01*
X2506064Y638415D01*
X2504830Y637533D01*
X2503596Y636476D01*
X2502009Y635242D01*
X2500246Y634184D01*
X2498307Y632950D01*
X2496192Y631716D01*
X2493724Y630659D01*
X2491256Y629777D01*
X2488612Y629072D01*
X2485792Y628367D01*
X2482795Y628014D01*
X2479622Y627838D01*
X2478741D01*
X2477859Y628014D01*
X2476625D01*
X2475039Y628367D01*
X2473100Y628543D01*
X2470985Y629072D01*
X2468869Y629601D01*
X2466401Y630306D01*
X2463934Y631364D01*
X2461289Y632421D01*
X2458645Y633832D01*
X2455825Y635418D01*
X2453181Y637357D01*
X2450537Y639649D01*
X2448069Y642117D01*
X2447892Y642293D01*
X2447540Y642822D01*
X2446835Y643703D01*
X2445953Y644761D01*
X2445072Y646171D01*
X2444014Y647934D01*
X2442780Y650049D01*
X2441547Y652341D01*
X2440313Y654985D01*
X2439079Y657981D01*
X2438021Y661154D01*
X2437140Y664504D01*
X2436258Y668205D01*
X2435553Y672083D01*
X2435201Y676314D01*
X2435024Y680721D01*
Y681074D01*
Y681955D01*
X2435201Y683189D01*
Y685128D01*
X2435377Y687243D01*
X2435729Y689887D01*
X2436082Y692708D01*
X2436787Y695704D01*
X2437492Y699054D01*
X2438374Y702403D01*
X2439431Y705752D01*
X2440665Y709278D01*
X2442252Y712627D01*
X2444014Y715800D01*
X2446130Y718973D01*
X2448421Y721793D01*
X2448598Y721970D01*
X2449126Y722498D01*
X2449832Y723204D01*
X2450889Y724085D01*
X2452123Y725319D01*
X2453710Y726553D01*
X2455649Y727787D01*
X2457764Y729197D01*
X2460056Y730607D01*
X2462700Y731841D01*
X2465520Y733251D01*
X2468517Y734309D01*
X2471690Y735190D01*
X2475039Y735895D01*
X2478565Y736424D01*
X2482266Y736601D01*
X2483853D01*
X2485087Y736424D01*
D02*
G37*
G36*
X2194408Y715624D02*
X2194584Y715800D01*
X2195113Y716505D01*
X2195818Y717563D01*
X2197052Y718973D01*
X2198286Y720559D01*
X2200048Y722322D01*
X2201811Y724085D01*
X2203927Y726200D01*
X2206218Y728139D01*
X2208686Y729902D01*
X2211330Y731665D01*
X2214151Y733251D01*
X2216971Y734661D01*
X2219968Y735719D01*
X2223141Y736424D01*
X2226314Y736601D01*
X2227900D01*
X2228958Y736424D01*
X2230368Y736248D01*
X2231954Y735895D01*
X2233717Y735543D01*
X2235656Y734838D01*
X2237771Y734133D01*
X2240063Y733251D01*
X2242355Y732194D01*
X2244646Y730960D01*
X2246938Y729373D01*
X2249229Y727434D01*
X2251521Y725495D01*
X2253813Y723027D01*
X2253989Y722851D01*
X2254341Y722322D01*
X2254870Y721617D01*
X2255752Y720559D01*
X2256633Y719149D01*
X2257514Y717563D01*
X2258572Y715624D01*
X2259806Y713332D01*
X2260864Y710864D01*
X2261921Y708044D01*
X2262803Y705047D01*
X2263860Y701698D01*
X2264565Y698172D01*
X2265094Y694471D01*
X2265447Y690416D01*
X2265623Y686186D01*
Y685833D01*
Y684952D01*
X2265447Y683541D01*
X2265271Y681602D01*
X2265094Y679311D01*
X2264742Y676667D01*
X2264037Y673670D01*
X2263332Y670497D01*
X2262450Y666971D01*
X2261216Y663446D01*
X2259806Y659744D01*
X2258043Y656042D01*
X2255928Y652341D01*
X2253460Y648815D01*
X2250640Y645290D01*
X2247467Y642117D01*
X2247290Y641940D01*
X2246762Y641588D01*
X2245880Y640883D01*
X2244823Y639825D01*
X2243236Y638767D01*
X2241473Y637533D01*
X2239534Y636299D01*
X2237243Y635066D01*
X2234775Y633655D01*
X2232131Y632421D01*
X2229310Y631187D01*
X2226314Y630130D01*
X2223141Y629248D01*
X2219791Y628543D01*
X2216266Y628014D01*
X2212740Y627838D01*
X2211154D01*
X2209391Y628014D01*
X2207099Y628191D01*
X2204455Y628543D01*
X2201282Y629248D01*
X2198109Y629954D01*
X2194584Y631011D01*
X2194408D01*
X2194231Y631187D01*
X2193702Y631364D01*
X2192997Y631540D01*
X2191235Y632421D01*
X2188767Y633479D01*
X2185946Y634713D01*
X2182773Y636476D01*
X2179424Y638415D01*
X2175899Y640706D01*
Y747001D01*
Y747177D01*
Y747706D01*
Y748587D01*
Y749821D01*
Y751055D01*
Y752642D01*
X2175722Y756167D01*
Y759869D01*
X2175546Y763218D01*
X2175370Y764805D01*
Y766215D01*
X2175194Y767449D01*
X2175017Y768330D01*
Y768506D01*
X2174841Y769035D01*
X2174665Y769740D01*
X2174312Y770622D01*
X2173607Y772385D01*
X2173078Y773090D01*
X2172373Y773795D01*
X2172021Y773971D01*
X2171139Y774676D01*
X2169729Y775205D01*
X2167966Y775381D01*
X2166732D01*
X2165851Y775205D01*
X2164617Y775029D01*
X2163207Y774676D01*
X2161797Y774147D01*
X2160034Y773618D01*
X2158624Y777673D01*
X2189296Y790188D01*
X2194408D01*
Y715624D01*
D02*
G37*
G36*
X1653417Y715623D02*
X1653593Y715800D01*
X1654122Y716505D01*
X1654827Y717562D01*
X1656061Y718973D01*
X1657295Y720559D01*
X1659057Y722322D01*
X1660820Y724085D01*
X1662935Y726200D01*
X1665227Y728139D01*
X1667695Y729902D01*
X1670339Y731665D01*
X1673159Y733251D01*
X1675980Y734661D01*
X1678977Y735719D01*
X1682150Y736424D01*
X1685323Y736600D01*
X1686909D01*
X1687967Y736424D01*
X1689377Y736248D01*
X1690963Y735895D01*
X1692726Y735543D01*
X1694665Y734837D01*
X1696780Y734132D01*
X1699072Y733251D01*
X1701364Y732193D01*
X1703655Y730959D01*
X1705947Y729373D01*
X1708238Y727434D01*
X1710530Y725495D01*
X1712822Y723027D01*
X1712998Y722851D01*
X1713350Y722322D01*
X1713879Y721617D01*
X1714761Y720559D01*
X1715642Y719149D01*
X1716523Y717562D01*
X1717581Y715623D01*
X1718815Y713332D01*
X1719873Y710864D01*
X1720930Y708044D01*
X1721812Y705047D01*
X1722869Y701698D01*
X1723574Y698172D01*
X1724103Y694470D01*
X1724456Y690416D01*
X1724632Y686185D01*
Y685833D01*
Y684951D01*
X1724456Y683541D01*
X1724280Y681602D01*
X1724103Y679311D01*
X1723751Y676666D01*
X1723046Y673670D01*
X1722340Y670497D01*
X1721459Y666971D01*
X1720225Y663446D01*
X1718815Y659744D01*
X1717052Y656042D01*
X1714937Y652340D01*
X1712469Y648815D01*
X1709649Y645289D01*
X1706476Y642116D01*
X1706299Y641940D01*
X1705771Y641587D01*
X1704889Y640882D01*
X1703831Y639825D01*
X1702245Y638767D01*
X1700482Y637533D01*
X1698543Y636299D01*
X1696252Y635065D01*
X1693784Y633655D01*
X1691140Y632421D01*
X1688319Y631187D01*
X1685323Y630130D01*
X1682150Y629248D01*
X1678800Y628543D01*
X1675275Y628014D01*
X1671749Y627838D01*
X1670163D01*
X1668400Y628014D01*
X1666108Y628191D01*
X1663464Y628543D01*
X1660291Y629248D01*
X1657118Y629953D01*
X1653593Y631011D01*
X1653417D01*
X1653240Y631187D01*
X1652711Y631363D01*
X1652006Y631540D01*
X1650244Y632421D01*
X1647776Y633479D01*
X1644955Y634713D01*
X1641782Y636475D01*
X1638433Y638415D01*
X1634908Y640706D01*
Y747001D01*
Y747177D01*
Y747706D01*
Y748587D01*
Y749821D01*
Y751055D01*
Y752641D01*
X1634731Y756167D01*
Y759869D01*
X1634555Y763218D01*
X1634379Y764804D01*
Y766215D01*
X1634202Y767449D01*
X1634026Y768330D01*
Y768506D01*
X1633850Y769035D01*
X1633674Y769740D01*
X1633321Y770622D01*
X1632616Y772384D01*
X1632087Y773089D01*
X1631382Y773794D01*
X1631030Y773971D01*
X1630148Y774676D01*
X1628738Y775205D01*
X1626975Y775381D01*
X1625741D01*
X1624860Y775205D01*
X1623626Y775028D01*
X1622216Y774676D01*
X1620805Y774147D01*
X1619043Y773618D01*
X1617633Y777673D01*
X1648305Y790188D01*
X1653417D01*
Y715623D01*
D02*
G37*
G36*
X1574974Y736424D02*
X1576560Y736248D01*
X1578147Y736071D01*
X1580086Y735719D01*
X1582201Y735190D01*
X1586608Y733780D01*
X1589076Y732898D01*
X1591367Y731841D01*
X1593835Y730431D01*
X1596127Y728844D01*
X1598418Y727081D01*
X1600534Y725142D01*
X1600710Y724966D01*
X1601063Y724613D01*
X1601591Y723908D01*
X1602297Y723027D01*
X1603178Y721969D01*
X1604059Y720559D01*
X1605117Y718973D01*
X1606175Y717210D01*
X1607056Y715095D01*
X1608114Y712803D01*
X1608995Y710335D01*
X1609876Y707515D01*
X1610581Y704694D01*
X1611110Y701521D01*
X1611463Y698348D01*
X1611639Y694823D01*
X1540776D01*
Y694647D01*
Y693765D01*
Y692708D01*
X1540952Y691121D01*
X1541129Y689182D01*
X1541305Y686890D01*
X1541658Y684423D01*
X1542010Y681778D01*
X1543420Y675961D01*
X1544302Y672965D01*
X1545359Y669968D01*
X1546593Y666971D01*
X1548004Y664151D01*
X1549766Y661507D01*
X1551705Y658863D01*
X1551882Y658686D01*
X1552234Y658334D01*
X1552763Y657629D01*
X1553644Y656924D01*
X1554702Y655866D01*
X1556112Y654808D01*
X1557522Y653574D01*
X1559285Y652517D01*
X1563163Y650049D01*
X1567570Y647933D01*
X1570038Y647228D01*
X1572506Y646523D01*
X1575150Y646171D01*
X1577970Y645994D01*
X1579028D01*
X1579733Y646171D01*
X1581672Y646347D01*
X1583964Y646699D01*
X1586784Y647405D01*
X1589781Y648286D01*
X1592778Y649696D01*
X1595598Y651459D01*
X1595951Y651811D01*
X1596832Y652517D01*
X1598242Y653927D01*
X1600005Y655866D01*
X1601944Y658510D01*
X1604059Y661859D01*
X1605117Y663622D01*
X1606175Y665737D01*
X1607056Y668029D01*
X1608114Y670497D01*
X1611639Y668205D01*
Y668029D01*
X1611463Y667500D01*
X1611287Y666795D01*
X1611110Y665561D01*
X1610758Y664327D01*
X1610229Y662741D01*
X1609700Y660978D01*
X1608995Y659039D01*
X1607232Y654632D01*
X1604764Y650049D01*
X1603354Y647581D01*
X1601768Y645113D01*
X1599829Y642821D01*
X1597890Y640354D01*
X1597713Y640177D01*
X1597361Y639825D01*
X1596656Y639120D01*
X1595951Y638415D01*
X1594717Y637533D01*
X1593483Y636475D01*
X1591896Y635242D01*
X1590133Y634184D01*
X1588194Y632950D01*
X1586079Y631716D01*
X1583611Y630658D01*
X1581143Y629777D01*
X1578499Y629072D01*
X1575679Y628367D01*
X1572682Y628014D01*
X1569509Y627838D01*
X1568628D01*
X1567746Y628014D01*
X1566512D01*
X1564926Y628367D01*
X1562987Y628543D01*
X1560872Y629072D01*
X1558756Y629601D01*
X1556288Y630306D01*
X1553821Y631363D01*
X1551176Y632421D01*
X1548532Y633831D01*
X1545712Y635418D01*
X1543068Y637357D01*
X1540424Y639648D01*
X1537956Y642116D01*
X1537779Y642293D01*
X1537427Y642821D01*
X1536722Y643703D01*
X1535840Y644760D01*
X1534959Y646171D01*
X1533901Y647933D01*
X1532667Y650049D01*
X1531434Y652340D01*
X1530200Y654984D01*
X1528966Y657981D01*
X1527908Y661154D01*
X1527027Y664503D01*
X1526145Y668205D01*
X1525440Y672083D01*
X1525088Y676314D01*
X1524911Y680721D01*
Y681073D01*
Y681955D01*
X1525088Y683189D01*
Y685128D01*
X1525264Y687243D01*
X1525616Y689887D01*
X1525969Y692708D01*
X1526674Y695704D01*
X1527379Y699053D01*
X1528261Y702403D01*
X1529318Y705752D01*
X1530552Y709277D01*
X1532139Y712627D01*
X1533901Y715800D01*
X1536017Y718973D01*
X1538308Y721793D01*
X1538485Y721969D01*
X1539013Y722498D01*
X1539719Y723203D01*
X1540776Y724085D01*
X1542010Y725319D01*
X1543597Y726553D01*
X1545536Y727786D01*
X1547651Y729197D01*
X1549943Y730607D01*
X1552587Y731841D01*
X1555407Y733251D01*
X1558404Y734309D01*
X1561577Y735190D01*
X1564926Y735895D01*
X1568452Y736424D01*
X1572153Y736600D01*
X1573740D01*
X1574974Y736424D01*
D02*
G37*
%LPC*%
G36*
X1854547Y774323D02*
X1853314D01*
X1851903Y774147D01*
X1849964D01*
X1847496Y773794D01*
X1844676Y773442D01*
X1841150Y772913D01*
X1837272Y772208D01*
Y709101D01*
X1839564D01*
X1840798Y708925D01*
X1845557D01*
X1846968Y709101D01*
X1848730Y709277D01*
X1850846Y709454D01*
X1853137Y709630D01*
X1855605Y710159D01*
X1860893Y711217D01*
X1866182Y712803D01*
X1868826Y713861D01*
X1871294Y715271D01*
X1873762Y716681D01*
X1875877Y718268D01*
X1876053Y718444D01*
X1876406Y718620D01*
X1876935Y719149D01*
X1877640Y720030D01*
X1878345Y720912D01*
X1879402Y721969D01*
X1880284Y723380D01*
X1881341Y724790D01*
X1883280Y728315D01*
X1885043Y732370D01*
X1885748Y734661D01*
X1886277Y736953D01*
X1886630Y739597D01*
X1886806Y742241D01*
Y742417D01*
Y742946D01*
Y743651D01*
X1886630Y744533D01*
Y745767D01*
X1886277Y747177D01*
X1885748Y750526D01*
X1884691Y754228D01*
X1883104Y757930D01*
X1882047Y759869D01*
X1880989Y761808D01*
X1879579Y763570D01*
X1877992Y765333D01*
X1877816Y765510D01*
X1877640Y765686D01*
X1877111Y766215D01*
X1876406Y766743D01*
X1875524Y767449D01*
X1874467Y768154D01*
X1873233Y769035D01*
X1871823Y769916D01*
X1868473Y771503D01*
X1864419Y772913D01*
X1859836Y773971D01*
X1857192Y774147D01*
X1854547Y774323D01*
D02*
G37*
G36*
X2122487Y692003D02*
X2122311D01*
X2121782Y691650D01*
X2120901Y691298D01*
X2119843Y690945D01*
X2118433Y690416D01*
X2116846Y689711D01*
X2113497Y688301D01*
X2109795Y686714D01*
X2106093Y685128D01*
X2104507Y684423D01*
X2102920Y683718D01*
X2101686Y683013D01*
X2100629Y682484D01*
X2100452D01*
X2100276Y682308D01*
X2099219Y681602D01*
X2097632Y680721D01*
X2095693Y679311D01*
X2093754Y677724D01*
X2091639Y675962D01*
X2089700Y674023D01*
X2088113Y672083D01*
X2087937Y671907D01*
X2087584Y671202D01*
X2086879Y670144D01*
X2086350Y668734D01*
X2085645Y666971D01*
X2084940Y665032D01*
X2084588Y662741D01*
X2084411Y660449D01*
Y660097D01*
Y659215D01*
X2084588Y657629D01*
X2084940Y655866D01*
X2085645Y653751D01*
X2086350Y651459D01*
X2087584Y649344D01*
X2089171Y647229D01*
X2089347Y647052D01*
X2090052Y646347D01*
X2090934Y645642D01*
X2092344Y644584D01*
X2093930Y643703D01*
X2095869Y642822D01*
X2097808Y642117D01*
X2100100Y641940D01*
X2100981D01*
X2101686Y642117D01*
X2102568Y642293D01*
X2103449Y642469D01*
X2106093Y643351D01*
X2109266Y644584D01*
X2111205Y645642D01*
X2113144Y646700D01*
X2115260Y647934D01*
X2117551Y649344D01*
X2120019Y651107D01*
X2122487Y653046D01*
Y692003D01*
D02*
G37*
G36*
X2476097Y728668D02*
X2475215D01*
X2474510Y728492D01*
X2472747Y728316D01*
X2470456Y727787D01*
X2467988Y726905D01*
X2465168Y725671D01*
X2462171Y723909D01*
X2459350Y721441D01*
X2458998Y721088D01*
X2458293Y720031D01*
X2457059Y718444D01*
X2455649Y716152D01*
X2454062Y713332D01*
X2452652Y709983D01*
X2451594Y705928D01*
X2450889Y701345D01*
X2498484D01*
Y701522D01*
Y701698D01*
Y702227D01*
X2498307Y702932D01*
X2498131Y704695D01*
X2497955Y706634D01*
X2497602Y708925D01*
X2497073Y711217D01*
X2496721Y713332D01*
X2496016Y715095D01*
X2495840Y715447D01*
X2495487Y716152D01*
X2494782Y717210D01*
X2493901Y718797D01*
X2492667Y720383D01*
X2491256Y721970D01*
X2489494Y723556D01*
X2487555Y724966D01*
X2487378Y725143D01*
X2486673Y725495D01*
X2485439Y726200D01*
X2484029Y726905D01*
X2482443Y727434D01*
X2480504Y728139D01*
X2478388Y728492D01*
X2476097Y728668D01*
D02*
G37*
G36*
X2217500Y720559D02*
X2216442D01*
X2215384Y720383D01*
X2213798Y720207D01*
X2212035Y719854D01*
X2210096Y719149D01*
X2207981Y718444D01*
X2205689Y717386D01*
X2205513Y717210D01*
X2204984Y717034D01*
X2203927Y716329D01*
X2202693Y715447D01*
X2200930Y714390D01*
X2198991Y712803D01*
X2196875Y710864D01*
X2194408Y708573D01*
Y647229D01*
X2194584Y647052D01*
X2195465Y646347D01*
X2196523Y645290D01*
X2197933Y644056D01*
X2199696Y642645D01*
X2201635Y641235D01*
X2203750Y640001D01*
X2206042Y638767D01*
X2206394Y638591D01*
X2207099Y638415D01*
X2208333Y637886D01*
X2209920Y637357D01*
X2211859Y636828D01*
X2213974Y636476D01*
X2216266Y636123D01*
X2218557Y635947D01*
X2219615D01*
X2220320Y636123D01*
X2222259Y636476D01*
X2224727Y637357D01*
X2227547Y638591D01*
X2229134Y639649D01*
X2230720Y640706D01*
X2232483Y641940D01*
X2234070Y643351D01*
X2235832Y645113D01*
X2237419Y647052D01*
X2237595Y647229D01*
X2237771Y647581D01*
X2238300Y648286D01*
X2238829Y649168D01*
X2239534Y650225D01*
X2240239Y651635D01*
X2240944Y653398D01*
X2241826Y655337D01*
X2242707Y657453D01*
X2243412Y659920D01*
X2244117Y662565D01*
X2244823Y665561D01*
X2245351Y668734D01*
X2245880Y672083D01*
X2246056Y675785D01*
X2246233Y679663D01*
Y679840D01*
Y680545D01*
Y681602D01*
X2246056Y682836D01*
Y684599D01*
X2245704Y686538D01*
X2245528Y688653D01*
X2245175Y690945D01*
X2244117Y695704D01*
X2242531Y700816D01*
X2241473Y703284D01*
X2240416Y705576D01*
X2239005Y707868D01*
X2237419Y709983D01*
X2237243Y710159D01*
X2237066Y710512D01*
X2236538Y711040D01*
X2235832Y711569D01*
X2234070Y713332D01*
X2231602Y715271D01*
X2228605Y717210D01*
X2225256Y718973D01*
X2223493Y719502D01*
X2221554Y720031D01*
X2219615Y720383D01*
X2217500Y720559D01*
D02*
G37*
G36*
X1676509Y720559D02*
X1675451D01*
X1674393Y720383D01*
X1672807Y720207D01*
X1671044Y719854D01*
X1669105Y719149D01*
X1666990Y718444D01*
X1664698Y717386D01*
X1664522Y717210D01*
X1663993Y717034D01*
X1662935Y716329D01*
X1661702Y715447D01*
X1659939Y714389D01*
X1658000Y712803D01*
X1655884Y710864D01*
X1653417Y708572D01*
Y647228D01*
X1653593Y647052D01*
X1654474Y646347D01*
X1655532Y645289D01*
X1656942Y644055D01*
X1658705Y642645D01*
X1660644Y641235D01*
X1662759Y640001D01*
X1665051Y638767D01*
X1665403Y638591D01*
X1666108Y638415D01*
X1667342Y637886D01*
X1668929Y637357D01*
X1670868Y636828D01*
X1672983Y636475D01*
X1675275Y636123D01*
X1677566Y635947D01*
X1678624D01*
X1679329Y636123D01*
X1681268Y636475D01*
X1683736Y637357D01*
X1686556Y638591D01*
X1688143Y639648D01*
X1689729Y640706D01*
X1691492Y641940D01*
X1693079Y643350D01*
X1694841Y645113D01*
X1696428Y647052D01*
X1696604Y647228D01*
X1696780Y647581D01*
X1697309Y648286D01*
X1697838Y649167D01*
X1698543Y650225D01*
X1699248Y651635D01*
X1699953Y653398D01*
X1700835Y655337D01*
X1701716Y657452D01*
X1702421Y659920D01*
X1703126Y662564D01*
X1703831Y665561D01*
X1704360Y668734D01*
X1704889Y672083D01*
X1705065Y675785D01*
X1705242Y679663D01*
Y679839D01*
Y680544D01*
Y681602D01*
X1705065Y682836D01*
Y684599D01*
X1704713Y686538D01*
X1704537Y688653D01*
X1704184Y690945D01*
X1703126Y695704D01*
X1701540Y700816D01*
X1700482Y703284D01*
X1699425Y705576D01*
X1698014Y707867D01*
X1696428Y709983D01*
X1696252Y710159D01*
X1696075Y710511D01*
X1695547Y711040D01*
X1694841Y711569D01*
X1693079Y713332D01*
X1690611Y715271D01*
X1687614Y717210D01*
X1684265Y718973D01*
X1682502Y719501D01*
X1680563Y720030D01*
X1678624Y720383D01*
X1676509Y720559D01*
D02*
G37*
G36*
X1565984Y728668D02*
X1565102D01*
X1564397Y728492D01*
X1562634Y728315D01*
X1560343Y727786D01*
X1557875Y726905D01*
X1555055Y725671D01*
X1552058Y723908D01*
X1549237Y721441D01*
X1548885Y721088D01*
X1548180Y720030D01*
X1546946Y718444D01*
X1545536Y716152D01*
X1543949Y713332D01*
X1542539Y709983D01*
X1541481Y705928D01*
X1540776Y701345D01*
X1588371D01*
Y701521D01*
Y701698D01*
Y702226D01*
X1588194Y702932D01*
X1588018Y704694D01*
X1587842Y706633D01*
X1587489Y708925D01*
X1586961Y711217D01*
X1586608Y713332D01*
X1585903Y715095D01*
X1585727Y715447D01*
X1585374Y716152D01*
X1584669Y717210D01*
X1583788Y718796D01*
X1582554Y720383D01*
X1581143Y721969D01*
X1579381Y723556D01*
X1577442Y724966D01*
X1577265Y725142D01*
X1576560Y725495D01*
X1575326Y726200D01*
X1573916Y726905D01*
X1572330Y727434D01*
X1570391Y728139D01*
X1568275Y728492D01*
X1565984Y728668D01*
D02*
G37*
%LPD*%
D10*
X3134300Y2248500D02*
D03*
Y2704500D02*
D03*
X3108900Y3137500D02*
D03*
Y3593500D02*
D03*
X1647100Y2704500D02*
D03*
Y2248500D02*
D03*
X1661100Y3618900D02*
D03*
Y3162900D02*
D03*
D11*
X2414300Y2476500D02*
D03*
X2388900Y3365500D02*
D03*
X927100Y2476500D02*
D03*
X941100Y3390900D02*
D03*
D12*
X863600Y4343400D02*
D03*
X1143600D02*
D03*
X1117900Y1079500D02*
D03*
X837900D02*
D03*
X5131100Y3492500D02*
D03*
X4851100D02*
D03*
X4851100Y3238500D02*
D03*
X5131100D02*
D03*
X5435300D02*
D03*
X5715300D02*
D03*
X5702900Y3492500D02*
D03*
X5422900D02*
D03*
X3631900Y3416300D02*
D03*
X3911900D02*
D03*
X3937300Y2730500D02*
D03*
X3657300D02*
D03*
X3886500Y3136900D02*
D03*
X3606500D02*
D03*
X3708100Y2476500D02*
D03*
X3988100D02*
D03*
D13*
X2890700Y4939100D02*
D03*
Y4889100D02*
D03*
Y4839100D02*
D03*
Y4789100D02*
D03*
X3230700Y4939100D02*
D03*
Y4889100D02*
D03*
Y4839100D02*
D03*
Y4789100D02*
D03*
D14*
X5013700Y6445740D02*
D03*
X4963700D02*
D03*
X4913700D02*
D03*
X4863700D02*
D03*
X4813700D02*
D03*
X4763700D02*
D03*
X4713700D02*
D03*
X4663700D02*
D03*
X5013700Y6030740D02*
D03*
X4963700D02*
D03*
X4913700D02*
D03*
X4863700D02*
D03*
X4813700D02*
D03*
X4763700D02*
D03*
X4713700D02*
D03*
X4663700D02*
D03*
D15*
X1384300Y4674870D02*
D03*
Y4494530D02*
D03*
X1358900Y1257300D02*
D03*
Y1076960D02*
D03*
X1943100Y1906270D02*
D03*
Y1725930D02*
D03*
X4787900Y2857500D02*
D03*
Y2677160D02*
D03*
X5753100Y2832100D02*
D03*
Y2651760D02*
D03*
X5905500Y6379210D02*
D03*
Y6198870D02*
D03*
X5499100Y6582410D02*
D03*
Y6402070D02*
D03*
X3797300Y5956300D02*
D03*
Y5775960D02*
D03*
X3124200Y5906770D02*
D03*
Y5726430D02*
D03*
X3086100Y6501130D02*
D03*
Y6681470D02*
D03*
X5194300Y6122670D02*
D03*
Y6303010D02*
D03*
X5702300Y6582410D02*
D03*
Y6402070D02*
D03*
X5499100Y6201410D02*
D03*
Y6021070D02*
D03*
X5702300D02*
D03*
Y6201410D02*
D03*
X5346700Y5857240D02*
D03*
Y5676900D02*
D03*
X5143500Y5857240D02*
D03*
Y5676900D02*
D03*
X4776470Y5287010D02*
D03*
Y5467350D02*
D03*
X4584700Y5284470D02*
D03*
Y5464810D02*
D03*
X3136900Y1714500D02*
D03*
Y1894840D02*
D03*
X1790700Y3910330D02*
D03*
Y4090670D02*
D03*
X3111500Y3986530D02*
D03*
Y4166870D02*
D03*
X2908300D02*
D03*
Y3986530D02*
D03*
X5168900Y4598670D02*
D03*
Y4418330D02*
D03*
X5143500Y5501640D02*
D03*
Y5321300D02*
D03*
X3797300Y6311900D02*
D03*
Y6131560D02*
D03*
X4406900Y6120130D02*
D03*
Y6300470D02*
D03*
X3594100Y6311900D02*
D03*
Y6131560D02*
D03*
D16*
X2184199Y4851400D02*
D03*
Y4724400D02*
D03*
Y4597400D02*
D03*
Y4470400D02*
D03*
X1702001D02*
D03*
Y4597400D02*
D03*
Y4724400D02*
D03*
X2184199Y1473200D02*
D03*
Y1346200D02*
D03*
Y1219200D02*
D03*
Y1092200D02*
D03*
X1702001D02*
D03*
Y1219200D02*
D03*
Y1346200D02*
D03*
D17*
Y4851400D02*
D03*
Y1473200D02*
D03*
D18*
X1308100Y1460500D02*
D03*
X1127760D02*
D03*
X5434330Y3009900D02*
D03*
X5614670D02*
D03*
X4951730D02*
D03*
X5132070D02*
D03*
X5335270Y6466840D02*
D03*
X5154930D02*
D03*
X5665470Y6746240D02*
D03*
X5485130D02*
D03*
X5245100Y6771640D02*
D03*
X5064760D02*
D03*
X4903470D02*
D03*
X4723130D02*
D03*
X3811270Y6565900D02*
D03*
X3630930D02*
D03*
X3811270Y6743700D02*
D03*
X3630930D02*
D03*
X5535930Y5628640D02*
D03*
X5716270D02*
D03*
X3286760Y6565900D02*
D03*
X3467100D02*
D03*
X4062730Y6896100D02*
D03*
X4243070D02*
D03*
X5716270Y5831840D02*
D03*
X5535930D02*
D03*
X5335270Y4787900D02*
D03*
X5154930D02*
D03*
X5716270Y5425440D02*
D03*
X5535930D02*
D03*
X4596130Y5679440D02*
D03*
X4776470D02*
D03*
X3249930Y5092700D02*
D03*
X3430270D02*
D03*
X2919730Y1079500D02*
D03*
X3100070D02*
D03*
X1192530Y4914900D02*
D03*
X1372870D02*
D03*
X5408930Y4381500D02*
D03*
X5589270D02*
D03*
X5408930Y4203700D02*
D03*
X5589270D02*
D03*
D19*
X5778500Y2396300D02*
D03*
Y1896300D02*
D03*
X4787900Y2421700D02*
D03*
Y1921700D02*
D03*
D20*
X4585400Y3920200D02*
D03*
Y3855200D02*
D03*
Y3790200D02*
D03*
Y3725200D02*
D03*
X4990400Y3920200D02*
D03*
Y3855200D02*
D03*
Y3790200D02*
D03*
Y3725200D02*
D03*
D21*
X4152900Y6082688D02*
D03*
Y6337912D02*
D03*
D22*
X3289300Y6210300D02*
D03*
D23*
X3424606Y6285300D02*
D03*
Y6235300D02*
D03*
Y6185300D02*
D03*
Y6135300D02*
D03*
X3153994D02*
D03*
Y6185300D02*
D03*
Y6235300D02*
D03*
Y6285300D02*
D03*
D24*
X3364300Y6074994D02*
D03*
X3314300D02*
D03*
X3264300D02*
D03*
X3214300D02*
D03*
Y6345606D02*
D03*
X3264300D02*
D03*
X3314300D02*
D03*
D25*
X3364300D02*
D03*
D26*
X3089500Y5118900D02*
D03*
Y5168900D02*
D03*
Y5218900D02*
D03*
X2879500D02*
D03*
Y5118900D02*
D03*
D27*
X5728312Y3949700D02*
D03*
X5473088D02*
D03*
D28*
X2908300Y2705100D02*
X2908600Y2704800D01*
X3134000D01*
X3134300Y2704500D01*
X1003300Y3949700D02*
Y4528820D01*
X1372870Y4898390D01*
X891550Y4558351D02*
X939800Y4606601D01*
X863600Y4343400D02*
X891550Y4371350D01*
Y4558351D01*
X1192530Y4898390D02*
Y4914900D01*
X1168400Y4874260D02*
X1192530Y4898390D01*
X1165860Y4874260D02*
X1168400D01*
X939800Y4648200D02*
X1165860Y4874260D01*
X939800Y4606601D02*
Y4648200D01*
X927100Y3404900D02*
X941100Y3390900D01*
X927100Y3404900D02*
Y3873500D01*
X1003300Y3949700D01*
X1372870Y4898390D02*
Y5123130D01*
X1192530Y4914900D02*
X1199515Y4921885D01*
X3899200Y3403600D02*
X3911900Y3416300D01*
X3899200Y3149600D02*
Y3403600D01*
X3886500Y3136900D02*
X3899200Y3149600D01*
X2882900Y3594100D02*
X2883200Y3593800D01*
X4267500Y2755900D02*
X4533900D01*
X524700Y5971300D02*
X1372870Y5123130D01*
X2185607Y1344792D02*
X2439808D01*
X2451100Y1333500D01*
X3886500Y3136900D02*
X4267500Y2755900D01*
X3988100Y2527300D02*
Y2679701D01*
Y2527300D02*
X4682300D01*
X3988100Y2476500D02*
Y2527300D01*
X3937300Y2730500D02*
X3988100Y2679701D01*
X1979792Y4722992D02*
X2182791D01*
X2184199Y4724400D01*
X837900Y1079500D02*
Y1295700D01*
X2184199Y1346200D02*
X2185607Y1344792D01*
X825500Y1308100D02*
X937260Y1419860D01*
X1103630D01*
X1127760Y1443990D01*
Y1460500D01*
X825500Y1308100D02*
X837900Y1295700D01*
X1199515Y5085715D02*
X1206500Y5092700D01*
X1199515Y4921885D02*
Y5085715D01*
X2883200Y3593800D02*
X3108600D01*
X3108900Y3593500D01*
X1968500Y4711700D02*
X1979792Y4722992D01*
X5660250Y2514550D02*
X5778500Y2396300D01*
X5461050Y2514550D02*
X5660250D01*
X5219700Y2755900D02*
X5461050Y2514550D01*
X5016500Y2755900D02*
X5219700D01*
X4682300Y2527300D02*
X4787900Y2421700D01*
D29*
X1647100Y2704500D02*
X2186300D01*
X2414300Y2476500D01*
X3136900Y1894840D02*
Y2245900D01*
X2414300Y2476500D02*
X3708100D01*
X3134300Y2248500D02*
X3136900Y2245900D01*
X4968686Y6193764D02*
X4991519Y6170930D01*
X4851819Y6193764D02*
X4968686D01*
X4991519Y6170930D02*
X5105421D01*
X5315473Y3962400D02*
X5460388D01*
X5290073Y3987800D02*
X5315473Y3962400D01*
X5283200Y3987800D02*
X5290073D01*
X5040000Y3923100D02*
X5075140Y3958240D01*
Y3982940D01*
X5080000Y3987800D01*
X5105421Y6170930D02*
X5123201Y6153150D01*
X5163820D02*
X5194300Y6122670D01*
X5123201Y6153150D02*
X5163820D01*
X5194300Y6122670D02*
X5210810D01*
X5499100Y4495800D02*
Y5168900D01*
X3619200Y3403600D02*
X3631900Y3416300D01*
X3581100Y3365500D02*
X3619200Y3403600D01*
X2388900Y3365500D02*
X3581100D01*
X3619200Y3149600D02*
Y3403600D01*
X3606500Y3136900D02*
X3619200Y3149600D01*
X1406200Y3732026D02*
X1584504Y3910330D01*
X1406200Y3365300D02*
Y3732026D01*
X3253512Y3986530D02*
X3742700Y3497342D01*
X5334000Y5334000D02*
X5499100Y5168900D01*
X5334000Y5994400D02*
Y5999480D01*
X5210810Y6122670D02*
X5334000Y5999480D01*
X4406900Y6120130D02*
X4541893D01*
X4568563Y6146800D01*
X4572000D01*
X4352948Y6082688D02*
X4390390Y6120130D01*
X4152900Y6082688D02*
X4352948D01*
X4390390Y6120130D02*
X4406900D01*
X5408930Y4013858D02*
X5460388Y3962400D01*
X5473088Y3949700D01*
X5408930Y4013858D02*
Y4203700D01*
X1208800Y5537200D02*
X1524000D01*
X1727200D02*
X3149600D01*
X3810000D01*
X4152900Y6082688D02*
Y6085075D01*
Y5880100D02*
Y6082688D01*
X3810000Y5537200D02*
X4152900Y5880100D01*
X774700Y5971300D02*
X1208800Y5537200D01*
X3657300Y2730500D02*
X3708100Y2679701D01*
X3687542Y3026100D02*
X3742700Y3081257D01*
X3708100Y2476500D02*
Y2679701D01*
X3272800Y3026100D02*
X3687542D01*
X2135500Y3618900D02*
X2388900Y3365500D01*
X1584504Y3910330D02*
X1790700D01*
X1661100Y3618900D02*
X2135500D01*
X1608600Y3162900D02*
X1661100D01*
X1406200Y3365300D02*
X1608600Y3162900D01*
X1724200Y2097230D02*
X1926590Y1894840D01*
X1943100D01*
X1724200Y2097230D02*
Y2223900D01*
X1699600Y2248500D02*
X1724200Y2223900D01*
X1647100Y2248500D02*
X1699600D01*
X3161400Y3137500D02*
X3272800Y3026100D01*
X3742700Y3081257D02*
Y3497342D01*
X3108900Y3137500D02*
X3161400D01*
X3111500Y3986530D02*
X3253512D01*
D30*
X1143600Y4343400D02*
X1190900Y4390700D01*
Y4467200D01*
X1218230Y4494530D02*
X1384300D01*
X1190900Y4467200D02*
X1218230Y4494530D01*
X2666522Y5003800D02*
X2725831Y4944491D01*
X1981200Y5003800D02*
X2666522D01*
X2725831Y4944491D02*
X2732937D01*
X4842099Y6170297D02*
X4843583Y6171781D01*
X4814580Y6121633D02*
X4842099Y6149152D01*
Y6170297D01*
X5073315Y6259804D02*
X5111389Y6221730D01*
X4843583Y6171781D02*
X4851819D01*
X4799326Y6259804D02*
X5073315D01*
X4758011Y6218489D02*
X4799326Y6259804D01*
X3041879Y5078500D02*
X3059964D01*
X3115982Y5022482D01*
X3024100Y5096279D02*
X3041879Y5078500D01*
X2941021Y4891400D02*
X2997200Y4947579D01*
X2974923Y5048477D02*
X2995117D01*
X3063240Y4971374D02*
Y4980355D01*
X3069590Y4915576D02*
Y4965024D01*
X2997200Y4947579D02*
Y4953000D01*
X2995117Y5048477D02*
X3063240Y4980355D01*
Y4971374D02*
X3069590Y4965024D01*
X3230700Y4939100D02*
Y4991100D01*
X3200400Y4786800D02*
X3202700Y4789100D01*
X3230700D01*
X3200400Y4699000D02*
Y4786800D01*
X5027245Y6670040D02*
X5135286D01*
X4973300Y6529974D02*
X5047326Y6604000D01*
X4914580Y6557374D02*
X5027245Y6670040D01*
X5135286D02*
X5220376Y6584950D01*
X4914580Y6446620D02*
Y6557374D01*
X5047326Y6604000D02*
X5054600D01*
X4596130Y5662930D02*
X4639310Y5619750D01*
Y5596890D02*
Y5619750D01*
Y5596890D02*
X4648200Y5588000D01*
X4874411Y5463389D02*
X5047889Y5289911D01*
X4763700Y5888113D02*
X4874411Y5777402D01*
Y5463389D02*
Y5777402D01*
X3024100Y5096279D02*
Y5141521D01*
X3049179Y5166600D01*
X3087200D01*
X3010701Y4856687D02*
X3069590Y4915576D01*
X2904500Y5118900D02*
X2974923Y5048477D01*
X2893000Y4891400D02*
X2941021D01*
X4965700Y3619500D02*
X5160695D01*
X5236895Y3695700D01*
X5448300D01*
X5098930Y3854330D02*
X5166360Y3921760D01*
X5207000Y3845880D02*
X5256310Y3796570D01*
X5207000Y3845880D02*
Y4064000D01*
X5166360Y3921760D02*
Y4147185D01*
X5168900Y4149725D01*
X5207000Y4064000D02*
X5292090Y4149090D01*
X4863700Y6445740D02*
Y6593332D01*
X4903470Y6633102D01*
X4963700Y6514485D02*
X4973300Y6524085D01*
X4963700Y6445740D02*
Y6514485D01*
X4973300Y6524085D02*
Y6529974D01*
X5245100Y6771640D02*
X5257800Y6758940D01*
Y6654800D02*
Y6758940D01*
X4763700Y5888113D02*
Y6030740D01*
Y6212800D01*
X5263023Y6221730D02*
X5367163Y6117590D01*
X5111389Y6221730D02*
X5263023D01*
X4814580Y6031620D02*
Y6121633D01*
X4813700Y6030740D02*
X4814580Y6031620D01*
X3534410Y6355080D02*
X3550920D01*
X3464120Y6391080D02*
X3498410D01*
X3534410Y6355080D01*
X3454400Y6400800D02*
X3464120Y6391080D01*
X2890280Y6365680D02*
X2936680D01*
X2495900Y5971300D02*
X2890280Y6365680D01*
X2936680D02*
X2946400Y6375400D01*
X3153259Y6234564D02*
X3153994Y6235300D01*
X2981960Y6246445D02*
X3020645Y6207760D01*
X3102159Y6234564D02*
X3153259D01*
X3020645Y6207760D02*
X3075355D01*
X3153994Y6285300D02*
X3180860D01*
X3058310Y6273800D02*
X3069810Y6285300D01*
X3075355Y6207760D02*
X3102159Y6234564D01*
X3069810Y6285300D02*
X3153994D01*
X3048000Y6273800D02*
X3058310D01*
X2981960Y6246445D02*
Y6301155D01*
X3040461Y6359656D01*
Y6457950D01*
X3153994Y6135300D02*
Y6185300D01*
X3424606D02*
X3523850D01*
X3577590Y6131560D01*
X3594100D01*
X3083641Y6501130D02*
X3086100D01*
X3040461Y6457950D02*
X3083641Y6501130D01*
X3073400Y6781800D02*
X3086100Y6769100D01*
Y6681470D02*
Y6769100D01*
X3364300Y6656143D02*
X3370580Y6649863D01*
Y6481937D02*
Y6649863D01*
X3364300Y6475657D02*
X3370580Y6481937D01*
X3364300Y6656143D02*
Y6956747D01*
X3434463Y7026910D01*
X3364300Y6345606D02*
Y6475657D01*
X3750310Y6666230D02*
X3811270Y6727190D01*
X3743817Y6666230D02*
X3750310D01*
X3726018Y6648431D02*
X3743817Y6666230D01*
X3726018Y6493205D02*
Y6648431D01*
X3708400Y6475587D02*
X3726018Y6493205D01*
X3708400Y6384290D02*
Y6475587D01*
Y6384290D02*
X3780790Y6311900D01*
X3694430Y6045200D02*
X3780790Y6131560D01*
X3480654Y6079019D02*
X3493770Y6065903D01*
Y6064107D02*
X3512677Y6045200D01*
X3694430D01*
X3493770Y6064107D02*
Y6065903D01*
X3510137Y6228080D02*
X3881263D01*
X3502917Y6235300D02*
X3510137Y6228080D01*
X4002675Y6235300D02*
X4152900Y6085075D01*
X3881263Y6228080D02*
X3888483Y6235300D01*
X3424606D02*
X3502917D01*
X3888483D02*
X4002675D01*
X3188559Y6277600D02*
X3222000D01*
X3289300Y6210300D01*
X3180860Y6285300D02*
X3188559Y6277600D01*
X3230700Y4991100D02*
Y5073470D01*
X3249930Y5092700D01*
X5448300Y3695700D02*
X5619679Y3524321D01*
X3344725Y3703475D02*
X3631900Y3416300D01*
X3207865Y3703475D02*
X3344725D01*
X2924810Y3986530D02*
X3207865Y3703475D01*
X2908300Y3986530D02*
X2924810D01*
X1899913Y3765550D02*
X1993900Y3859537D01*
X1601368Y3765550D02*
X1899913D01*
X1520500Y3684682D02*
X1601368Y3765550D01*
X1520500Y3553118D02*
Y3684682D01*
X1878872Y3816350D02*
X1943100Y3880578D01*
X1580326Y3816350D02*
X1878872D01*
X1469700Y3705724D02*
X1580326Y3816350D01*
X1469700Y3532077D02*
Y3705724D01*
X1943100Y3880578D02*
Y4450155D01*
X5168900Y4149725D02*
Y4418330D01*
X5292090Y4149090D02*
Y4381500D01*
X4991269Y3854330D02*
X5098930D01*
X5256310Y3786551D02*
Y3796570D01*
X4990400Y3855200D02*
X4991269Y3854330D01*
X3550920Y6355080D02*
X3594100Y6311900D01*
X2586020Y5631180D02*
X3211506D01*
X3314300Y5676500D02*
Y6074994D01*
X2376660Y5590540D02*
X3228340D01*
X3314300Y5676500D01*
X3273660Y5693334D02*
Y6038769D01*
X3211506Y5631180D02*
X3273660Y5693334D01*
X3162300Y5944870D02*
Y6134564D01*
X3124200Y5906770D02*
X3162300Y5944870D01*
X3161564Y6135300D02*
X3162300Y6134564D01*
X3153994Y6135300D02*
X3161564D01*
X2245900Y5971300D02*
X2586020Y5631180D01*
X3264300Y6048129D02*
X3273660Y6038769D01*
X3264300Y6048129D02*
Y6074994D01*
X1995900Y5971300D02*
X2376660Y5590540D01*
X1651000Y5410200D02*
Y5638800D01*
Y5410200D02*
X2006600Y5054600D01*
X2743200D01*
X1600200Y5384800D02*
X1981200Y5003800D01*
X1600200Y5384800D02*
Y5647416D01*
X1745900Y5733700D02*
Y5971300D01*
X1651000Y5638800D02*
X1745900Y5733700D01*
X1495900Y5751716D02*
X1600200Y5647416D01*
X1495900Y5751716D02*
Y5971300D01*
X2858350Y4941400D02*
X2860650Y4939100D01*
X2890700D01*
X2858350Y4941400D02*
Y5016117D01*
X2811560Y5062907D02*
X2858350Y5016117D01*
X2811560Y5062907D02*
Y5175960D01*
X2854500Y5218900D01*
X3159233Y5261840D02*
X3277640D01*
X3040827D02*
X3159233D01*
X3149600Y5537200D02*
X3159233Y5527567D01*
Y5261840D02*
Y5527567D01*
X5902960Y6201410D02*
X5905500Y6198870D01*
X5891259Y6379210D02*
X5905500D01*
X5848079Y6422390D02*
X5891259Y6379210D01*
X5718810Y6402070D02*
X5797911Y6322969D01*
Y6319016D02*
Y6322969D01*
X5702300Y6201410D02*
X5902960D01*
X5797911Y6319016D02*
X5821537Y6295390D01*
X5708650Y6686550D02*
X5765943D01*
X5665470Y6729730D02*
X5708650Y6686550D01*
X5485130Y6596380D02*
Y6746240D01*
X5642610Y6539230D02*
X5685790Y6582410D01*
X5665470Y6729730D02*
Y6746240D01*
Y6762750D01*
X5581650Y6846570D02*
X5665470Y6762750D01*
X5485130Y6596380D02*
X5499100Y6582410D01*
X5473700Y6584950D02*
X5485130Y6596380D01*
X5194300Y6303010D02*
X5210810D01*
X5168900Y6328410D02*
X5194300Y6303010D01*
X5210810D02*
X5292090Y6384290D01*
X5220376Y6584950D02*
X5473700D01*
X5134610Y6898640D02*
X5245100Y6788150D01*
X5288280Y6831330D01*
X5245100Y6771640D02*
Y6788150D01*
X5402437Y6831330D02*
X5417677Y6846570D01*
X5581650D01*
X5685790Y6582410D02*
X5718810D01*
X5288280Y6831330D02*
X5402437D01*
X5499100Y6201410D02*
Y6402070D01*
X5515610D01*
X5642610Y6529070D01*
Y6539230D01*
X5718810Y6582410D02*
X5848079Y6453141D01*
X5601970Y6117590D02*
X5685790Y6201410D01*
X5702300D01*
Y6402070D02*
X5718810D01*
X5848079Y6422390D02*
Y6453141D01*
X5406390Y5900420D02*
Y5928360D01*
X5292090Y6423660D02*
X5335270Y6466840D01*
X5292090Y6384290D02*
Y6423660D01*
X3434463Y7026910D02*
X3948430D01*
X4062730Y6912610D01*
Y6896100D02*
Y6912610D01*
X3552190Y6173470D02*
X3594100Y6131560D01*
X3214300Y6373207D02*
Y6476930D01*
X3286760Y6549390D01*
Y6565900D01*
X4596130Y5817870D02*
X4663700Y5885440D01*
X5100320Y5900420D02*
X5143500Y5857240D01*
X5363210D02*
X5406390Y5900420D01*
X4711700Y5882640D02*
Y5909195D01*
Y5882640D02*
X4776470Y5817870D01*
X5015794Y5900420D02*
X5100320D01*
X5367163Y6117590D02*
X5601970D01*
X5439410Y5961380D02*
Y5977890D01*
X5482590Y6021070D01*
X5499100D01*
X5372100Y5831840D02*
X5535930D01*
X5406390Y5928360D02*
X5439410Y5961380D01*
X5251089Y5879739D02*
X5307691D01*
X5154021Y5867761D02*
X5239111D01*
X5143500Y5857240D02*
X5154021Y5867761D01*
X5168900Y4598670D02*
Y4773930D01*
X4752701Y5279751D02*
X4759960Y5287010D01*
X4886960D01*
X5702300Y5845810D02*
X5716270Y5831840D01*
X5702300Y5845810D02*
Y6021070D01*
X5716270Y5628640D02*
Y5831840D01*
Y5425440D02*
Y5628640D01*
X5279953Y5425440D02*
X5535930D01*
X5363210Y5676900D02*
X5411470Y5628640D01*
X5330190Y5676900D02*
X5346700D01*
X5363210D01*
X5160010Y5321300D02*
X5292090Y5189220D01*
Y4831080D02*
Y5189220D01*
X5143500Y5501640D02*
Y5676900D01*
X5024120Y5417820D02*
X5272333D01*
X5279953Y5425440D01*
X5112111Y5289911D02*
X5143500Y5321300D01*
X5047889Y5289911D02*
X5112111D01*
X5143500Y5321300D02*
X5160010D01*
X5154930Y4787900D02*
Y5019040D01*
X4886960Y5287010D02*
X5154930Y5019040D01*
X4776470Y5467350D02*
Y5679440D01*
X5053694Y5718446D02*
X5101954D01*
X4940451Y5501489D02*
X5024120Y5417820D01*
X4940451Y5501489D02*
Y5577840D01*
X4711700Y5909195D02*
X4712820Y5910315D01*
X4776470Y5679440D02*
Y5817870D01*
X4913700Y5915913D02*
X5056194Y5773420D01*
X4964580Y5951634D02*
X5015794Y5900420D01*
X4864580Y5907560D02*
X5053694Y5718446D01*
X4596130Y5679440D02*
Y5817870D01*
X4584700Y5284470D02*
X4588871Y5280299D01*
X4680311D01*
X4584700Y5464810D02*
Y5651500D01*
X4596130Y5662930D01*
Y5679440D01*
X4596465Y4305300D02*
X4787400D01*
X4527920Y4559300D02*
X4787400D01*
X4680311Y5280299D02*
X4680859Y5279751D01*
X5765943Y6686550D02*
X6005830Y6446663D01*
X5989463Y6295390D02*
X6005830Y6311757D01*
X3277640Y5261840D02*
X3430270Y5109210D01*
Y5092700D02*
Y5109210D01*
X3249930Y5092700D02*
Y5100084D01*
X3133413Y5216600D02*
X3249930Y5100084D01*
X2753360Y4305300D02*
X2891790Y4166870D01*
X2724540Y4537320D02*
X3094990Y4166870D01*
X2120900Y4305300D02*
X2753360D01*
X2724540Y4537320D02*
Y4565260D01*
X2447116Y4470400D02*
X2722876Y4746160D01*
X2455084Y4597400D02*
X2696783Y4839099D01*
X2438400Y4851400D02*
X2501900Y4787900D01*
X2705100Y4584700D02*
X2724540Y4565260D01*
X4441820Y4473201D02*
X4527920Y4559300D01*
X4482460Y4191295D02*
X4596465Y4305300D01*
X4512007Y3869760D02*
X4513036D01*
X4482460Y3899307D02*
X4512007Y3869760D01*
X4482460Y3899307D02*
Y4191295D01*
X4441820Y3820680D02*
Y4473201D01*
X4513036Y3869760D02*
X4527596Y3855200D01*
X3087200Y5166600D02*
X3089500Y5168900D01*
X3091800Y5216600D02*
X3133413D01*
X3089500Y5218900D02*
X3091800Y5216600D01*
X2890699Y4839099D02*
X2890700Y4839100D01*
X3009900Y4856687D02*
X3010701D01*
X2854500Y5218900D02*
X2879500D01*
X2924961Y5145974D02*
X3040827Y5261840D01*
X2879500Y5118900D02*
X2904500D01*
X2924961Y5139361D01*
Y5145974D01*
X2146300Y952500D02*
X2792730D01*
X1971103Y1211442D02*
X2090345Y1092200D01*
Y1219200D02*
X2184199D01*
X2021903Y1287642D02*
X2090345Y1219200D01*
Y1092200D02*
X2184199D01*
X1971103Y1211442D02*
Y1522592D01*
X6005830Y6311757D02*
Y6446663D01*
X5821537Y6295390D02*
X5989463D01*
X4472300Y3790200D02*
X4585400D01*
X4441820Y3820680D02*
X4472300Y3790200D01*
X1795855Y1219200D02*
X1920303Y1343648D01*
X1506500Y2638718D02*
X1757818Y2387400D01*
X1786423D02*
X2104390Y2069434D01*
X1830395Y989005D02*
X1841500Y977900D01*
X1358900Y1076960D02*
X1374140Y1092200D01*
X1830395Y989005D02*
Y1059679D01*
X1374140Y1092200D02*
X1702001D01*
X1120440Y1076960D02*
X1358900D01*
X1702001Y1092200D02*
X1797873D01*
X1117900Y1079500D02*
X1120440Y1076960D01*
X1797873Y1092200D02*
X1830395Y1059679D01*
X2876550Y1019810D02*
X2919730Y1062990D01*
Y1079500D01*
X3100070Y1096010D02*
X3708100Y1704040D01*
X2184199Y1473200D02*
X2879090D01*
X2792730Y952500D02*
X2860040Y1019810D01*
X3708100Y1704040D02*
Y2476500D01*
X3100070Y1079500D02*
Y1096010D01*
X2860040Y1019810D02*
X2876550D01*
X2879090Y1473200D02*
X3120390Y1714500D01*
X3136900D01*
X1702001Y1219200D02*
X1795855D01*
X1384300Y4674870D02*
X1400810D01*
X1702001Y4597400D02*
X1803400D01*
X1408430Y4470400D02*
X1702001D01*
X1687155Y4388800D02*
Y4454101D01*
X1723067Y4370840D02*
X1763207Y4330700D01*
X1705116Y4370840D02*
X1723067D01*
X1687155Y4388800D02*
X1705116Y4370840D01*
X1763207Y4330700D02*
X1790700D01*
Y4090670D02*
X1795855Y4095825D01*
Y4192171D01*
X1892300Y4288616D01*
X1803400Y4597400D02*
X1892300Y4508500D01*
X1993900Y3859537D02*
Y4429113D01*
X1892300Y4288616D02*
Y4508500D01*
X1702001Y4468946D02*
Y4470400D01*
X1687155Y4454101D02*
X1702001Y4468946D01*
X1943100Y4450155D02*
X2090345Y4597400D01*
X1384300Y4494530D02*
X1408430Y4470400D01*
X2090345Y4597400D02*
X2184199D01*
X1993900Y4429113D02*
X2035187Y4470400D01*
X2184199D01*
Y4597400D02*
X2455084D01*
X2184199Y4470400D02*
X2447116D01*
X1672197Y3401421D02*
X1700803D01*
X1801700Y3097118D02*
Y3228682D01*
X1852500Y3076076D02*
Y3249723D01*
X1679761Y3350621D02*
X1801700Y3228682D01*
X1700803Y3401421D02*
X1852500Y3249723D01*
X1651155Y3350621D02*
X1679761D01*
X1629639Y2893421D02*
X1669845D01*
X1608597Y2944221D02*
X1648803D01*
X1801700Y3097118D01*
X1669845Y2893421D02*
X1852500Y3076076D01*
X1520500Y3553118D02*
X1672197Y3401421D01*
X1469700Y3532077D02*
X1651155Y3350621D01*
X1943100Y1566431D02*
Y1714500D01*
X1920303Y1543633D02*
X1943100Y1566431D01*
X2104390Y1584037D02*
Y2069434D01*
X2053590Y1605079D02*
Y2048392D01*
X1920303Y1343648D02*
Y1543633D01*
X2021903Y1287642D02*
Y1501550D01*
X2104390Y1584037D01*
X1971103Y1522592D02*
X2053590Y1605079D01*
X1455700Y2791324D02*
X1608597Y2944221D01*
X1455700Y2617677D02*
X1736776Y2336600D01*
X1765382D01*
X1757818Y2387400D02*
X1786423D01*
X1455700Y2617677D02*
Y2791324D01*
X1506500Y2770282D02*
X1629639Y2893421D01*
X1506500Y2638718D02*
Y2770282D01*
X1765382Y2336600D02*
X2053590Y2048392D01*
X1519247Y1257300D02*
X1608147Y1346200D01*
X1702001D01*
X1320800Y1473200D02*
X1702001D01*
X1308100Y1460500D02*
X1320800Y1473200D01*
X1358900Y1257300D02*
X1519247D01*
X1372870Y4898390D02*
X1419860Y4851400D01*
X3228400Y4836800D02*
X3230700Y4839100D01*
X3176786Y4836800D02*
X3228400D01*
X2184199Y4851400D02*
X2438400D01*
X2999660Y4746160D02*
X3142600Y4889100D01*
X2722876Y4746160D02*
X2999660D01*
X2696783Y4839099D02*
X2890699D01*
X3142600Y4889100D02*
X3230700D01*
X3098527Y4744156D02*
Y4758541D01*
X3176786Y4836800D01*
X2891790Y4166870D02*
X2908300D01*
X3094990D02*
X3111500D01*
X2890700Y4789100D02*
X2893000Y4791400D01*
X2944613D01*
X3009900Y4856687D01*
X2890700Y4889100D02*
X2893000Y4891400D01*
X1400810Y4674870D02*
X1450340Y4724400D01*
X1702001D01*
X1419860Y4851400D02*
X1702001D01*
X5791200Y982700D02*
Y1883600D01*
X5778500Y1896300D02*
X5791200Y1883600D01*
X4775200Y982700D02*
Y1909000D01*
X4787900Y1921700D01*
X5411470Y5628640D02*
X5535930D01*
X5239111Y5867761D02*
X5251089Y5879739D01*
X5330190Y5857240D02*
X5346700D01*
X5307691Y5879739D02*
X5330190Y5857240D01*
X5346700D02*
X5372100Y5831840D01*
X5346700Y5857240D02*
X5363210D01*
X5101954Y5718446D02*
X5143500Y5676900D01*
X5233670Y5773420D02*
X5330190Y5676900D01*
X5056194Y5773420D02*
X5233670D01*
X5154930Y4787900D02*
X5168900Y4773930D01*
X4589150Y3916450D02*
X4668750D01*
X4680859Y5279751D02*
X4752701D01*
X5778500Y2396300D02*
Y2626360D01*
X5736590Y2832100D02*
X5753100D01*
X5657850Y2910840D02*
X5736590Y2832100D01*
X5753100Y2651760D02*
X5778500Y2626360D01*
X5292090Y4831080D02*
X5335270Y4787900D01*
X5292090Y4381500D02*
X5408930D01*
X5292090D02*
Y4744720D01*
X5335270Y4787900D01*
X5434330Y3238500D02*
Y3262930D01*
X5435300Y3261959D01*
X5434330Y3262930D02*
X5435300Y3263900D01*
X5702900Y3250900D02*
Y3492500D01*
X5671079Y3524321D02*
X5702900Y3492500D01*
X5619679Y3524321D02*
X5671079D01*
X4851100Y3492500D02*
X4851100Y3492499D01*
X4951730Y3009900D02*
Y3137870D01*
X4851100Y3238500D02*
X4951730Y3137870D01*
X4851100Y3238500D02*
Y3492499D01*
X4994049Y3786551D02*
X5256310D01*
X4787900Y2857500D02*
X4804410D01*
X4897120Y2950210D01*
X4908550D01*
X4951730Y2993390D01*
Y3009900D01*
X4787900Y2421700D02*
Y2677160D01*
X4668750Y3916450D02*
X4965700Y3619500D01*
X4990400Y3790200D02*
X4994049Y3786551D01*
X4641650Y3701949D02*
X4851100Y3492500D01*
X4641650Y3701949D02*
Y3716146D01*
X5435300Y3238500D02*
Y3261959D01*
X5657850Y2910840D02*
Y2966720D01*
X5614670Y3009900D02*
X5657850Y2966720D01*
X5702900Y3250900D02*
X5715300Y3238500D01*
X5614670Y3137870D02*
X5715300Y3238500D01*
X5614670Y3009900D02*
Y3137870D01*
X4585400Y3725200D02*
X4632596D01*
X4641650Y3716146D01*
X4585400Y3920200D02*
X4589150Y3916450D01*
X4527596Y3855200D02*
X4585400D01*
X3467100Y6565900D02*
X3630930D01*
Y6743700D01*
X3811270Y6727190D02*
Y6743700D01*
X4712820Y5910315D02*
Y6029860D01*
X3630930Y6743700D02*
X3656330Y6718300D01*
X3811270Y6565900D02*
X4658880D01*
X4764580Y6366634D02*
Y6444860D01*
X4913700Y6445740D02*
X4914580Y6446620D01*
X4763700Y6445740D02*
X4764580Y6444860D01*
X4663700Y6312800D02*
X4763700Y6212800D01*
X4764580Y6366634D02*
X4802804Y6328410D01*
X4663700Y6312800D02*
Y6445740D01*
X4713700D01*
X4663700Y5885440D02*
Y6030740D01*
X4802804Y6328410D02*
X5168900D01*
X4245610Y6898640D02*
X5134610D01*
X4243070Y6896100D02*
X4245610Y6898640D01*
X4863700Y6030740D02*
X4864580Y6029860D01*
X4712820D02*
X4713700Y6030740D01*
X4963700D02*
X4964580Y6029860D01*
X3797300Y5956300D02*
Y6131560D01*
X3780790D02*
X3797300D01*
X4864580Y5907560D02*
Y6029860D01*
X4913700Y5915913D02*
Y6030740D01*
X4903470Y6771640D02*
X5064760D01*
X4663700Y6445740D02*
Y6570720D01*
X4964580Y5951634D02*
Y6029860D01*
X3424606Y6285300D02*
X3567500D01*
X3594100Y6311900D01*
X3424606Y6135300D02*
X3443997D01*
X3480654Y6079019D02*
Y6098643D01*
X3443997Y6135300D02*
X3480654Y6098643D01*
X3780790Y6311900D02*
X3797300D01*
X3594100D02*
X3780790D01*
X4663700Y6570720D02*
Y6695700D01*
X4713700Y6745700D01*
X4903470Y6633102D02*
Y6771640D01*
X4713700Y6745700D02*
Y6762210D01*
X4658880Y6565900D02*
X4663700Y6570720D01*
D31*
X3009572Y5791200D02*
X3033702Y5767070D01*
X3083560D01*
X3124200Y5726430D01*
X2997200Y5791200D02*
X3009572D01*
X4990400Y3725200D02*
X5127028D01*
X5143828Y3708400D01*
X4813700Y6445740D02*
Y6603928D01*
X4800600Y6617028D02*
X4813700Y6603928D01*
X4800600Y6617028D02*
Y6629400D01*
X5408930Y4220210D02*
X5449570Y4260850D01*
X5499100Y4285581D02*
Y4495800D01*
X5449570Y4260850D02*
X5474369D01*
X5408930Y4203700D02*
Y4220210D01*
X5474369Y4260850D02*
X5499100Y4285581D01*
X5013940Y5999685D02*
X5085371D01*
X5013700Y5999925D02*
Y6030740D01*
Y5999925D02*
X5013940Y5999685D01*
Y6473310D02*
X5148460D01*
X5154930Y6466840D01*
X5013700Y6473070D02*
X5013940Y6473310D01*
X5013700Y6445740D02*
Y6473070D01*
X4152900Y6337912D02*
X4292600D01*
X4369458D01*
X4406900Y6300470D01*
X3837940Y5816600D02*
X3937000D01*
X3797300Y5775960D02*
X3837940Y5816600D01*
D32*
X927100Y3376900D02*
X941100Y3390900D01*
X927100Y2476500D02*
Y3376900D01*
Y2003500D02*
Y2476500D01*
Y2003500D02*
X1300480Y1630120D01*
Y1468120D02*
X1308100Y1460500D01*
X1300480Y1468120D02*
Y1630120D01*
D33*
X5537200Y1490700D02*
D03*
D34*
X5283200D02*
D03*
D35*
X5791200Y982700D02*
D03*
X4775200D02*
D03*
D36*
X4787400Y4305300D02*
D03*
Y4559300D02*
D03*
D37*
Y4813300D02*
D03*
D38*
X2745900Y6689300D02*
D03*
X1495900D02*
D03*
X1024700D02*
D03*
X524700D02*
D03*
D39*
X1495900Y5971300D02*
D03*
X1745900D02*
D03*
X1995900D02*
D03*
X2245900D02*
D03*
X2495900D02*
D03*
X2745900D02*
D03*
X1024700D02*
D03*
X774700D02*
D03*
X524700D02*
D03*
D40*
X6350000Y4775200D02*
D03*
X609600D02*
D03*
X6350000Y685800D02*
D03*
X609600D02*
D03*
D41*
X2908300Y2705100D02*
D03*
X2882900Y3594100D02*
D03*
X1206500Y5092700D02*
D03*
X1968500Y4711700D02*
D03*
X825500Y1308100D02*
D03*
X2451100Y1333500D02*
D03*
D42*
X2732937Y4944491D02*
D03*
X4851819Y6193764D02*
D03*
X3115982Y5022482D02*
D03*
X2997200Y4953000D02*
D03*
X3230700Y4991100D02*
D03*
X3200400Y4699000D02*
D03*
X5054600Y6604000D02*
D03*
X4648200Y5588000D02*
D03*
X4940451Y5577840D02*
D03*
X2997200Y5791200D02*
D03*
X5143828Y3708400D02*
D03*
X5283200Y3987800D02*
D03*
X5080000D02*
D03*
X4800600Y6629400D02*
D03*
X5257800Y6654800D02*
D03*
X3454400Y6400800D02*
D03*
X2946400Y6375400D02*
D03*
X3048000Y6273800D02*
D03*
X3073400Y6781800D02*
D03*
X5270500Y3594100D02*
D03*
X5676900Y4114800D02*
D03*
X5085371Y5999685D02*
D03*
X5063620Y6473310D02*
D03*
X4292600Y6337912D02*
D03*
X3937000Y5816600D02*
D03*
X4533900Y2755900D02*
D03*
X5334000Y5334000D02*
D03*
Y5994400D02*
D03*
X4572000Y6146800D02*
D03*
X1524000Y5537200D02*
D03*
X1727200D02*
D03*
X2743200Y5054600D02*
D03*
X5256310Y3786551D02*
D03*
X2146300Y952500D02*
D03*
X1790700Y4330700D02*
D03*
X5016500Y2755900D02*
D03*
X2501900Y4787900D02*
D03*
X2120900Y4305300D02*
D03*
X2705100Y4584700D02*
D03*
X1841500Y977900D02*
D03*
X3098527Y4744156D02*
D03*
%TF.MD5,0bb396c4350571b0b320c56430c1e5d9*%
M02*
