%TF.GenerationSoftware,Altium Limited,Altium Designer,23.5.1 (21)*%
G04 Layer_Physical_Order=4*
G04 Layer_Color=16711680*
%FSLAX45Y45*%
%MOMM*%
%TF.SameCoordinates,815A2C8C-8163-47E4-9813-AD16C0C63C49*%
%TF.FilePolarity,Positive*%
%TF.FileFunction,Copper,L4,Bot,Signal*%
%TF.Part,Single*%
G01*
G75*
%TA.AperFunction,Conductor*%
%ADD43C,0.25400*%
%ADD45C,0.76200*%
%ADD48C,0.50800*%
%TA.AperFunction,ComponentPad*%
%ADD50C,6.10000*%
%ADD51C,2.80000*%
%ADD52C,3.50000*%
%ADD53C,9.50000*%
%ADD54C,2.03200*%
%ADD55C,1.56000*%
%ADD56C,2.10000*%
%TA.AperFunction,ViaPad*%
%ADD57C,0.50800*%
%ADD58C,0.76200*%
%ADD59C,0.81280*%
%TA.AperFunction,NonConductor*%
%ADD60C,1.01600*%
%TA.AperFunction,SMDPad,CuDef*%
%ADD77R,1.00000X1.00000*%
G36*
X2249288Y8738270D02*
X2271772Y8728957D01*
X2292008Y8715436D01*
X2309217Y8698226D01*
X2322738Y8677991D01*
X2332050Y8655506D01*
X2336798Y8631637D01*
X2336798Y8619468D01*
X2336800Y8619469D01*
X2336799Y4616449D01*
X2336799Y4599176D01*
X2330060Y4565293D01*
X2316839Y4533376D01*
X2297646Y4504651D01*
X2273218Y4480223D01*
X2244493Y4461030D01*
X2212576Y4447809D01*
X2178693Y4441070D01*
X2161419Y4441070D01*
X1797447Y4441070D01*
X1781147D01*
X1749173Y4447430D01*
X1719054Y4459905D01*
X1691949Y4478017D01*
X1668897Y4501068D01*
X1650785Y4528175D01*
X1638310Y4558293D01*
X1631950Y4590267D01*
Y4606567D01*
Y4606567D01*
Y8615637D01*
X1631949Y8628183D01*
X1636845Y8652792D01*
X1646447Y8675974D01*
X1660387Y8696837D01*
X1678129Y8714580D01*
X1698993Y8728520D01*
X1722174Y8738122D01*
X1746784Y8743017D01*
X1759329Y8743017D01*
X1759331Y8743018D01*
X2213250D01*
X2225418Y8743018D01*
X2249288Y8738270D01*
D02*
G37*
G36*
X3522667Y8654079D02*
X3557335Y8639719D01*
X3588536Y8618870D01*
X3615070Y8592336D01*
X3635918Y8561135D01*
X3650278Y8526466D01*
X3657599Y8489662D01*
X3657599Y8470899D01*
X3657600Y8470900D01*
Y7721600D01*
X3658456Y7704173D01*
X3665256Y7669987D01*
X3678594Y7637786D01*
X3697959Y7608805D01*
X3722605Y7584159D01*
X3751585Y7564794D01*
X3783787Y7551456D01*
X3817972Y7544656D01*
X3835400Y7543800D01*
X3835400D01*
X4622800Y7543799D01*
X4634057Y7543800D01*
X4656140Y7539408D01*
X4676941Y7530791D01*
X4695662Y7518282D01*
X4711583Y7502362D01*
X4724091Y7483641D01*
X4732707Y7462839D01*
X4737098Y7440756D01*
X4737098Y7429499D01*
X4737100Y7429500D01*
X4737099Y6969837D01*
X4737100Y6960624D01*
X4733505Y6942553D01*
X4726455Y6925530D01*
X4716218Y6910209D01*
X4703189Y6897181D01*
X4687869Y6886944D01*
X4670845Y6879894D01*
X4652774Y6876299D01*
X4643561Y6876300D01*
X2737600D01*
X2729396Y6876300D01*
X2713302Y6879501D01*
X2698142Y6885780D01*
X2684499Y6894897D01*
X2672897Y6906499D01*
X2663780Y6920143D01*
X2657501Y6935302D01*
X2654300Y6951396D01*
X2654300Y6959600D01*
X2654300Y6959600D01*
Y8483600D01*
X2654300Y8501112D01*
X2661133Y8535462D01*
X2674535Y8567820D01*
X2693993Y8596940D01*
X2718759Y8621706D01*
X2747879Y8641164D01*
X2780237Y8654566D01*
X2814587Y8661399D01*
X2832099Y8661399D01*
X2832100Y8661400D01*
X3467100Y8661399D01*
X3485862Y8661400D01*
X3522667Y8654079D01*
D02*
G37*
G36*
X9915527Y8480672D02*
X9929394Y8474927D01*
X9941875Y8466588D01*
X9952488Y8455974D01*
X9960827Y8443494D01*
X9966571Y8429626D01*
X9969499Y8414904D01*
X9969498Y8407399D01*
X9969500Y8407400D01*
X9969499Y8191499D01*
X9969500Y8182744D01*
X9966084Y8165568D01*
X9959382Y8149389D01*
X9949653Y8134828D01*
X9937270Y8122445D01*
X9922709Y8112716D01*
X9906530Y8106015D01*
X9889354Y8102599D01*
X9880598Y8102599D01*
X9880599D01*
X8039100Y8102600D01*
X8026469D01*
X8003130Y8112267D01*
X7985267Y8130130D01*
X7975600Y8153469D01*
X7975600Y8166100D01*
X7975600D01*
X7975599Y8407399D01*
X7975599Y8414904D01*
X7978528Y8429626D01*
X7984272Y8443493D01*
X7992611Y8455974D01*
X8003224Y8466587D01*
X8015705Y8474926D01*
X8029572Y8480671D01*
X8044294Y8483599D01*
X8051799Y8483598D01*
X8051799Y8483599D01*
X9893300Y8483600D01*
X9900805Y8483600D01*
X9915527Y8480672D01*
D02*
G37*
G36*
X4521200Y6388098D02*
X4534490Y6388099D01*
X4560560Y6382913D01*
X4585117Y6372741D01*
X4607217Y6357974D01*
X4626012Y6339179D01*
X4640779Y6317078D01*
X4650951Y6292521D01*
X4656136Y6266452D01*
X4656135Y6253162D01*
X4656136D01*
X4656140Y5796352D01*
X4656140Y5761101D01*
X4646938Y5691202D01*
X4628691Y5623102D01*
X4601712Y5557967D01*
X4566461Y5496910D01*
X4523542Y5440976D01*
X4473690Y5391124D01*
X4417757Y5348205D01*
X4356700Y5312954D01*
X4291565Y5285974D01*
X4223465Y5267727D01*
X4153566Y5258525D01*
X4118315Y5258525D01*
X4118315Y5258526D01*
X4118315Y5258525D01*
X4091506Y5257648D01*
X4038344Y5250651D01*
X3986551Y5236774D01*
X3937012Y5216255D01*
X3890576Y5189446D01*
X3848036Y5156804D01*
X3810121Y5118889D01*
X3777479Y5076349D01*
X3750670Y5029912D01*
X3730151Y4980373D01*
X3716274Y4928580D01*
X3709277Y4875418D01*
X3708400Y4848609D01*
Y4587251D01*
X3709509Y4564665D01*
X3718321Y4520362D01*
X3735607Y4478629D01*
X3760703Y4441070D01*
X3792643Y4409129D01*
X3830202Y4384033D01*
X3871935Y4366747D01*
X3916238Y4357935D01*
X3938824Y4356826D01*
X11810274Y4356825D01*
X11822854Y4356825D01*
X11847531Y4351917D01*
X11870776Y4342289D01*
X11891695Y4328311D01*
X11909486Y4310520D01*
X11923464Y4289600D01*
X11933091Y4266355D01*
X11937999Y4241678D01*
X11937998Y4229098D01*
X11937998Y4229098D01*
X11938000Y4229097D01*
Y2616926D01*
X2932974Y2616925D01*
X2912211Y2616925D01*
X2871042Y2622345D01*
X2830931Y2633093D01*
X2792567Y2648984D01*
X2756606Y2669746D01*
X2723662Y2695025D01*
X2694299Y2724387D01*
X2669021Y2757332D01*
X2648258Y2793293D01*
X2632367Y2831657D01*
X2621620Y2871767D01*
X2616200Y2912937D01*
X2616200Y2933699D01*
X2616200Y2933700D01*
Y6286499D01*
Y6296506D01*
X2620104Y6316135D01*
X2627763Y6334625D01*
X2638882Y6351265D01*
X2653033Y6365417D01*
X2669674Y6376536D01*
X2688164Y6384194D01*
X2707792Y6388099D01*
X2717799Y6388099D01*
X2717799Y6388099D01*
X4521200Y6388098D01*
D02*
G37*
G36*
X3940803Y9828090D02*
X3978983Y9812276D01*
X4013344Y9789316D01*
X4042565Y9760095D01*
X4065524Y9725734D01*
X4081338Y9687553D01*
X4089399Y9647022D01*
X4089398Y9626359D01*
X4089399Y9626360D01*
X4089400Y9537700D01*
X4090224Y9504088D01*
X4096813Y9437189D01*
X4109927Y9371258D01*
X4129440Y9306930D01*
X4155165Y9244824D01*
X4186853Y9185538D01*
X4224200Y9129644D01*
X4266846Y9077680D01*
X4314379Y9030147D01*
X4366344Y8987501D01*
X4422238Y8950154D01*
X4481523Y8918466D01*
X4543629Y8892741D01*
X4607957Y8873227D01*
X4673888Y8860113D01*
X4740788Y8853525D01*
X4774399Y8852700D01*
X4774400D01*
X5676100Y8852699D01*
X5706119Y8852701D01*
X5765644Y8844867D01*
X5823638Y8829330D01*
X5879107Y8806356D01*
X5931102Y8776337D01*
X5978735Y8739788D01*
X6021188Y8697334D01*
X6057737Y8649702D01*
X6087755Y8597706D01*
X6110730Y8542237D01*
X6126267Y8484244D01*
X6134100Y8424718D01*
X6134098Y8394699D01*
X6134100Y8394700D01*
X6134099Y6312199D01*
X6134099Y6299661D01*
X6129208Y6275067D01*
X6119612Y6251899D01*
X6105681Y6231049D01*
X6087949Y6213318D01*
X6067099Y6199386D01*
X6043931Y6189791D01*
X6019337Y6184899D01*
X6006799Y6184900D01*
X5021261D01*
X5004531Y6184899D01*
X4971714Y6191427D01*
X4940801Y6204231D01*
X4912981Y6222820D01*
X4889321Y6246480D01*
X4870731Y6274301D01*
X4857927Y6305214D01*
X4851399Y6338031D01*
X4851399Y6354760D01*
Y6354762D01*
X4851399Y7531100D01*
X4850553Y7548381D01*
X4843814Y7582280D01*
X4830590Y7614212D01*
X4811389Y7642950D01*
X4786950Y7667389D01*
X4758212Y7686589D01*
X4726280Y7699813D01*
X4692381Y7706552D01*
X4675100Y7707398D01*
X4675101Y7707400D01*
X3942950Y7707400D01*
X3927353Y7707398D01*
X3896759Y7713482D01*
X3867940Y7725418D01*
X3842004Y7742747D01*
X3819948Y7764803D01*
X3802618Y7790740D01*
X3790682Y7819558D01*
X3784598Y7850152D01*
X3784600Y7865749D01*
Y7865750D01*
X3784599Y8475543D01*
X3783875Y8497666D01*
X3778100Y8541532D01*
X3766649Y8584269D01*
X3749717Y8625146D01*
X3727595Y8663463D01*
X3700660Y8698565D01*
X3669374Y8729851D01*
X3634273Y8756785D01*
X3595956Y8778908D01*
X3555079Y8795840D01*
X3512342Y8807291D01*
X3468475Y8813066D01*
X3446353Y8813790D01*
X3446354Y8813792D01*
X3086083Y8813809D01*
X3057783Y8813810D01*
X3001665Y8821200D01*
X2946992Y8835852D01*
X2894699Y8857515D01*
X2845681Y8885817D01*
X2800776Y8920276D01*
X2760753Y8960300D01*
X2726297Y9005207D01*
X2697997Y9054226D01*
X2676337Y9106520D01*
X2661687Y9161193D01*
X2654299Y9217311D01*
Y9245612D01*
X2654299D01*
X2654299Y9366249D01*
X2654299Y9397048D01*
X2662339Y9458118D01*
X2678282Y9517617D01*
X2701854Y9574526D01*
X2732653Y9627871D01*
X2770151Y9676740D01*
X2813707Y9720296D01*
X2862576Y9757794D01*
X2915921Y9788593D01*
X2972830Y9812165D01*
X3032328Y9828108D01*
X3093399Y9836148D01*
X3124198D01*
X3124198Y9836149D01*
X3879608Y9836150D01*
X3900271Y9836151D01*
X3940803Y9828090D01*
D02*
G37*
G36*
X5298988Y6000493D02*
X5305223Y5994255D01*
X5308595Y5986105D01*
X5308593Y5981695D01*
X5308600Y5981700D01*
Y5854699D01*
X5309574Y5844789D01*
X5317158Y5826477D01*
X5331172Y5812461D01*
X5349483Y5804876D01*
X5359393Y5803901D01*
X5359400Y5803900D01*
X5448299Y5803900D01*
X5458209Y5804876D01*
X5476519Y5812460D01*
X5490533Y5826474D01*
X5498117Y5844784D01*
X5499093Y5854693D01*
X5499100Y5854700D01*
Y5968999D01*
Y5974050D01*
X5502966Y5983384D01*
X5510110Y5990528D01*
X5519444Y5994394D01*
X5524495Y5994393D01*
X5524501Y5994400D01*
X5880100Y5994399D01*
X5892174Y5994400D01*
X5914484Y5985158D01*
X5931558Y5968082D01*
X5940797Y5945770D01*
X5940795Y5933696D01*
X5940800Y5933700D01*
Y5819400D01*
X5941829Y5808943D01*
X5949831Y5789621D01*
X5964618Y5774833D01*
X5983939Y5766829D01*
X5994396Y5765800D01*
X5994400D01*
X10566401Y5765798D01*
X10592206Y5765799D01*
X10643373Y5759062D01*
X10693223Y5745705D01*
X10740904Y5725955D01*
X10785598Y5700151D01*
X10826542Y5668733D01*
X10863035Y5632240D01*
X10894452Y5591295D01*
X10920256Y5546601D01*
X10940006Y5498920D01*
X10953363Y5449070D01*
X10960098Y5397902D01*
X10960098Y5372098D01*
X10960100Y5372099D01*
X10961106Y5341366D01*
X10969129Y5280426D01*
X10985037Y5221055D01*
X11008559Y5164268D01*
X11039291Y5111037D01*
X11076709Y5062273D01*
X11120172Y5018810D01*
X11168936Y4981392D01*
X11222167Y4950659D01*
X11278954Y4927137D01*
X11338325Y4911229D01*
X11399264Y4903206D01*
X11429997Y4902200D01*
X11429998D01*
X11569700Y4902199D01*
X11580957D01*
X11603040Y4897807D01*
X11623841Y4889191D01*
X11642561Y4876682D01*
X11658482Y4860761D01*
X11670991Y4842041D01*
X11679607Y4821240D01*
X11683999Y4799157D01*
X11683999Y4787899D01*
X11684000Y4787900D01*
X11683999Y4559299D01*
Y4545540D01*
X11678630Y4518550D01*
X11668099Y4493127D01*
X11652811Y4470246D01*
X11633353Y4450788D01*
X11610472Y4435499D01*
X11585048Y4424968D01*
X11558059Y4419600D01*
X3949701D01*
X3932188Y4419599D01*
X3897838Y4426431D01*
X3865479Y4439833D01*
X3836358Y4459291D01*
X3811592Y4484057D01*
X3792134Y4513178D01*
X3778731Y4545536D01*
X3771899Y4579887D01*
X3771899Y4597398D01*
Y4597400D01*
X3771900Y4862556D01*
Y4884300D01*
X3777576Y4927415D01*
X3788831Y4969420D01*
X3805473Y5009597D01*
X3827217Y5047258D01*
X3853690Y5081759D01*
X3884440Y5112509D01*
X3918940Y5138982D01*
X3956601Y5160726D01*
X3996778Y5177367D01*
X4038783Y5188623D01*
X4081898Y5194299D01*
X4103642D01*
X4103643Y5194300D01*
X4254500Y5194300D01*
X4283788Y5195019D01*
X4342083Y5200760D01*
X4399534Y5212188D01*
X4455589Y5229192D01*
X4509707Y5251608D01*
X4561367Y5279222D01*
X4610072Y5311765D01*
X4655352Y5348926D01*
X4696772Y5390346D01*
X4733933Y5435626D01*
X4766477Y5484331D01*
X4794090Y5535991D01*
X4816506Y5590109D01*
X4833510Y5646164D01*
X4844938Y5703615D01*
X4850679Y5761910D01*
X4851398Y5791198D01*
X4851400Y5791200D01*
Y5927364D01*
Y5934898D01*
X4854340Y5949678D01*
X4860106Y5963600D01*
X4868478Y5976130D01*
X4879134Y5986786D01*
X4891664Y5995158D01*
X4905586Y6000924D01*
X4920366Y6003865D01*
X4927901Y6003864D01*
X4927902Y6003866D01*
X5286430Y6003870D01*
X5290840D01*
X5298988Y6000493D01*
D02*
G37*
%LPC*%
G36*
X2161420Y4441070D02*
X2161419D01*
D01*
X2161420D01*
D02*
G37*
G36*
X11518900Y3596265D02*
X11480611Y3592494D01*
X11443793Y3581325D01*
X11409861Y3563188D01*
X11380120Y3538780D01*
X11355712Y3509039D01*
X11337575Y3475107D01*
X11326406Y3438290D01*
X11322635Y3400000D01*
X11326406Y3361711D01*
X11337575Y3324893D01*
X11355712Y3290961D01*
X11380120Y3261220D01*
X11409861Y3236812D01*
X11443793Y3218675D01*
X11480611Y3207506D01*
X11518900Y3203735D01*
X11557189Y3207506D01*
X11594007Y3218675D01*
X11627939Y3236812D01*
X11657680Y3261220D01*
X11682088Y3290961D01*
X11700225Y3324893D01*
X11711394Y3361711D01*
X11715165Y3400000D01*
X11711394Y3438290D01*
X11700225Y3475107D01*
X11682088Y3509039D01*
X11657680Y3538780D01*
X11627939Y3563188D01*
X11594007Y3581325D01*
X11557189Y3592494D01*
X11518900Y3596265D01*
D02*
G37*
G36*
X10452100D02*
X10413811Y3592494D01*
X10376993Y3581325D01*
X10343061Y3563188D01*
X10313320Y3538780D01*
X10288912Y3509039D01*
X10270775Y3475107D01*
X10259606Y3438290D01*
X10255835Y3400000D01*
X10259606Y3361711D01*
X10270775Y3324893D01*
X10288912Y3290961D01*
X10313320Y3261220D01*
X10343061Y3236812D01*
X10376993Y3218675D01*
X10413811Y3207506D01*
X10452100Y3203735D01*
X10490389Y3207506D01*
X10527207Y3218675D01*
X10561139Y3236812D01*
X10590880Y3261220D01*
X10615288Y3290961D01*
X10633425Y3324893D01*
X10644594Y3361711D01*
X10648365Y3400000D01*
X10644594Y3438290D01*
X10633425Y3475107D01*
X10615288Y3509039D01*
X10590880Y3538780D01*
X10561139Y3563188D01*
X10527207Y3581325D01*
X10490389Y3592494D01*
X10452100Y3596265D01*
D02*
G37*
G36*
X9385300D02*
X9347011Y3592494D01*
X9310193Y3581325D01*
X9276261Y3563188D01*
X9246520Y3538780D01*
X9222112Y3509039D01*
X9203975Y3475107D01*
X9192806Y3438290D01*
X9189035Y3400000D01*
X9192806Y3361711D01*
X9203975Y3324893D01*
X9222112Y3290961D01*
X9246520Y3261220D01*
X9276261Y3236812D01*
X9310193Y3218675D01*
X9347011Y3207506D01*
X9385300Y3203735D01*
X9423589Y3207506D01*
X9460407Y3218675D01*
X9494339Y3236812D01*
X9524080Y3261220D01*
X9548488Y3290961D01*
X9566625Y3324893D01*
X9577794Y3361711D01*
X9581565Y3400000D01*
X9577794Y3438290D01*
X9566625Y3475107D01*
X9548488Y3509039D01*
X9524080Y3538780D01*
X9494339Y3563188D01*
X9460407Y3581325D01*
X9423589Y3592494D01*
X9385300Y3596265D01*
D02*
G37*
G36*
X8305800D02*
X8267511Y3592494D01*
X8230693Y3581325D01*
X8196761Y3563188D01*
X8167020Y3538780D01*
X8142612Y3509039D01*
X8124475Y3475107D01*
X8113306Y3438290D01*
X8109535Y3400000D01*
X8113306Y3361711D01*
X8124475Y3324893D01*
X8142612Y3290961D01*
X8167020Y3261220D01*
X8196761Y3236812D01*
X8230693Y3218675D01*
X8267511Y3207506D01*
X8305800Y3203735D01*
X8344089Y3207506D01*
X8380907Y3218675D01*
X8414839Y3236812D01*
X8444580Y3261220D01*
X8468988Y3290961D01*
X8487125Y3324893D01*
X8498294Y3361711D01*
X8502065Y3400000D01*
X8498294Y3438290D01*
X8487125Y3475107D01*
X8468988Y3509039D01*
X8444580Y3538780D01*
X8414839Y3563188D01*
X8380907Y3581325D01*
X8344089Y3592494D01*
X8305800Y3596265D01*
D02*
G37*
G36*
X7213600D02*
X7175311Y3592494D01*
X7138493Y3581325D01*
X7104561Y3563188D01*
X7074820Y3538780D01*
X7050412Y3509039D01*
X7032275Y3475107D01*
X7021106Y3438290D01*
X7017335Y3400000D01*
X7021106Y3361711D01*
X7032275Y3324893D01*
X7050412Y3290961D01*
X7074820Y3261220D01*
X7104561Y3236812D01*
X7138493Y3218675D01*
X7175311Y3207506D01*
X7213600Y3203735D01*
X7251889Y3207506D01*
X7288707Y3218675D01*
X7322639Y3236812D01*
X7352380Y3261220D01*
X7376788Y3290961D01*
X7394925Y3324893D01*
X7406094Y3361711D01*
X7409865Y3400000D01*
X7406094Y3438290D01*
X7394925Y3475107D01*
X7376788Y3509039D01*
X7352380Y3538780D01*
X7322639Y3563188D01*
X7288707Y3581325D01*
X7251889Y3592494D01*
X7213600Y3596265D01*
D02*
G37*
G36*
X6121400D02*
X6083111Y3592494D01*
X6046293Y3581325D01*
X6012361Y3563188D01*
X5982620Y3538780D01*
X5958212Y3509039D01*
X5940075Y3475107D01*
X5928906Y3438290D01*
X5925135Y3400000D01*
X5928906Y3361711D01*
X5940075Y3324893D01*
X5958212Y3290961D01*
X5982620Y3261220D01*
X6012361Y3236812D01*
X6046293Y3218675D01*
X6083111Y3207506D01*
X6121400Y3203735D01*
X6159689Y3207506D01*
X6196507Y3218675D01*
X6230439Y3236812D01*
X6260180Y3261220D01*
X6284588Y3290961D01*
X6302725Y3324893D01*
X6313894Y3361711D01*
X6317665Y3400000D01*
X6313894Y3438290D01*
X6302725Y3475107D01*
X6284588Y3509039D01*
X6260180Y3538780D01*
X6230439Y3563188D01*
X6196507Y3581325D01*
X6159689Y3592494D01*
X6121400Y3596265D01*
D02*
G37*
G36*
X5029200D02*
X4990911Y3592494D01*
X4954093Y3581325D01*
X4920161Y3563188D01*
X4890420Y3538780D01*
X4866012Y3509039D01*
X4847875Y3475107D01*
X4836706Y3438290D01*
X4832935Y3400000D01*
X4836706Y3361711D01*
X4847875Y3324893D01*
X4866012Y3290961D01*
X4890420Y3261220D01*
X4920161Y3236812D01*
X4954093Y3218675D01*
X4990911Y3207506D01*
X5029200Y3203735D01*
X5067489Y3207506D01*
X5104307Y3218675D01*
X5138239Y3236812D01*
X5167980Y3261220D01*
X5192388Y3290961D01*
X5210525Y3324893D01*
X5221694Y3361711D01*
X5225465Y3400000D01*
X5221694Y3438290D01*
X5210525Y3475107D01*
X5192388Y3509039D01*
X5167980Y3538780D01*
X5138239Y3563188D01*
X5104307Y3581325D01*
X5067489Y3592494D01*
X5029200Y3596265D01*
D02*
G37*
G36*
X3937000D02*
X3898711Y3592494D01*
X3861893Y3581325D01*
X3827961Y3563188D01*
X3798220Y3538780D01*
X3773812Y3509039D01*
X3755675Y3475107D01*
X3744506Y3438290D01*
X3740735Y3400000D01*
X3744506Y3361711D01*
X3755675Y3324893D01*
X3773812Y3290961D01*
X3798220Y3261220D01*
X3827961Y3236812D01*
X3861893Y3218675D01*
X3898711Y3207506D01*
X3937000Y3203735D01*
X3975289Y3207506D01*
X4012107Y3218675D01*
X4046039Y3236812D01*
X4075780Y3261220D01*
X4100188Y3290961D01*
X4118325Y3324893D01*
X4129494Y3361711D01*
X4133265Y3400000D01*
X4129494Y3438290D01*
X4118325Y3475107D01*
X4100188Y3509039D01*
X4075780Y3538780D01*
X4046039Y3563188D01*
X4012107Y3581325D01*
X3975289Y3592494D01*
X3937000Y3596265D01*
D02*
G37*
%LPD*%
D43*
X4548054Y9836063D02*
Y10561459D01*
X4555284Y10568689D01*
X4753654Y10767060D01*
X11026140D01*
X11395910Y10397290D01*
X11042974Y10807700D02*
X11412744Y10437930D01*
X3663950Y10807700D02*
X11042974D01*
X2432050Y9575800D02*
X3663950Y10807700D01*
X11730380Y5887720D02*
X11852000Y5766100D01*
X11432291Y5887720D02*
X11730380D01*
X11431021Y5886450D02*
X11432291Y5887720D01*
X10640414Y5886450D02*
X11431021D01*
X2432050Y7539502D02*
Y9575800D01*
X11412744Y10437930D02*
X11863440D01*
X11395910Y10397290D02*
X11880274D01*
X12230994Y10748010D01*
X11863440Y10437930D02*
X12214160Y10788650D01*
X12230994Y10748010D02*
X12568866D01*
X12678410Y10638466D01*
Y7985760D02*
Y10638466D01*
X12426950Y7734300D02*
X12678410Y7985760D01*
X12306300Y7734300D02*
X12426950D01*
X12268200Y7696200D02*
X12306300Y7734300D01*
X12268200Y7484600D02*
Y7696200D01*
X12146600Y7363000D02*
X12268200Y7484600D01*
X12585700Y10788650D02*
X12719050Y10655300D01*
X12214160Y10788650D02*
X12585700D01*
X12719050Y7935450D02*
Y10655300D01*
X12396600Y7613000D02*
X12719050Y7935450D01*
X9784077Y7169150D02*
X11258550D01*
X9608627Y6993700D02*
X9784077Y7169150D01*
X10899466Y5946466D02*
X11120172Y6167172D01*
X10645168Y5946466D02*
X10899466D01*
X10433839Y6157795D02*
X10645168Y5946466D01*
X7584079Y6762750D02*
X9525000D01*
X7552329Y6794500D02*
X7584079Y6762750D01*
X7543800Y6794500D02*
X7552329D01*
X9525000Y6762750D02*
X9608627Y6846377D01*
Y6993700D01*
X7083626Y6572250D02*
X7297535Y6358341D01*
X7881149D01*
Y6458126D01*
X7995273Y6572250D01*
X8205916Y6261100D02*
X8874692D01*
X8945662Y6190130D01*
X9151501Y6332370D02*
X9326076Y6157795D01*
X9046241Y6332370D02*
X9151501D01*
X8945662Y6190130D02*
X9066641D01*
X9042623Y6149490D02*
X9254863Y5937250D01*
X8207283Y6149490D02*
X9042623D01*
X8975121Y6261250D02*
X9046241Y6332370D01*
X9121021Y6261250D02*
X9270196Y6112075D01*
X9066641Y6190130D02*
X9273801Y5982970D01*
X9326076Y6157795D02*
X10433839D01*
X9273801Y5982970D02*
X9999300D01*
X9254863Y5937250D02*
X9664021D01*
X6776952Y6572250D02*
X6859688Y6654986D01*
X7251700D01*
X7321122Y6585564D01*
Y6572250D02*
Y6585564D01*
X6652015Y6235700D02*
X6678008Y6209707D01*
X5998035Y6235700D02*
X6652015D01*
X4860771Y6138587D02*
X8083402D01*
X4841833Y6092867D02*
X8150659D01*
X8083402Y6138587D02*
X8205916Y6261100D01*
X8150659Y6092867D02*
X8198901Y6141108D01*
X8207283Y6149490D01*
X8653612Y5830738D02*
X8655050Y5829300D01*
X8653612Y5830738D02*
Y6054260D01*
X10414789Y6112075D02*
X10640414Y5886450D01*
X9270196Y6112075D02*
X10414789D01*
X12087600Y7908550D02*
X12124690Y7871460D01*
X4703622Y6231078D02*
X4841833Y6092867D01*
X4750205Y6249153D02*
X4860771Y6138587D01*
X11120172Y6167172D02*
Y6227500D01*
X3768251Y6642100D02*
X4446158D01*
X3683000Y6727351D02*
X3768251Y6642100D01*
X3683000Y6727351D02*
Y6951396D01*
X4446158Y6642100D02*
X4750205Y6338053D01*
X3683000Y6305897D02*
Y6462675D01*
X3760825Y6540500D01*
X3857141D01*
Y6248700D02*
X3860800D01*
X4060341Y6540500D02*
X4483100D01*
X4750205Y6249153D02*
Y6338053D01*
X4483100Y6540500D02*
X4703622Y6319978D01*
Y6231078D02*
Y6319978D01*
X9999300Y5982970D02*
X10133920Y5848350D01*
X9664021Y5937250D02*
X9752921Y5848350D01*
X6023038Y5869185D02*
Y5983718D01*
X5960056Y6046700D02*
X6023038Y5983718D01*
X5483526Y6046700D02*
X5960056D01*
X5407903Y5971077D02*
X5483526Y6046700D01*
X5407903Y5870880D02*
Y5971077D01*
D45*
X11461750Y5711550D02*
Y5791200D01*
Y5711550D02*
X11518900Y5654400D01*
Y4680000D02*
Y5654400D01*
X11731650Y7206400D02*
X11944350Y6993700D01*
X11731650Y7206400D02*
Y7698050D01*
X12146600Y8113000D01*
D48*
X11234976Y7554674D02*
X12404090Y6385560D01*
Y6131560D02*
Y6385560D01*
X11234976Y7554674D02*
Y9830119D01*
X11061700Y7524750D02*
X12255500Y6330950D01*
X11144250Y7537450D02*
X12338050Y6343650D01*
X12255500Y4864101D02*
Y6330950D01*
X11144250Y7537450D02*
Y8022161D01*
X11061700Y7524750D02*
Y8058150D01*
X12338050Y4619265D02*
Y6343650D01*
X12179300Y5000101D02*
Y6313755D01*
X11425505Y7067550D02*
X12179300Y6313755D01*
X11076709Y7067550D02*
X11425505D01*
X12026900Y4847701D02*
X12179300Y5000101D01*
Y4787901D02*
X12255500Y4864101D01*
X12026900Y4000500D02*
Y4847701D01*
Y4000500D02*
X12179300Y3848100D01*
X11061700Y9042400D02*
X11145520Y8958580D01*
Y8023431D02*
Y8958580D01*
X11144250Y8022161D02*
X11145520Y8023431D01*
X11061700Y10003395D02*
X11234976Y9830119D01*
X12404090Y6131560D02*
X12439650Y6096000D01*
Y4413250D02*
Y6096000D01*
X12179300Y4152900D02*
X12439650Y4413250D01*
X12179300Y4460515D02*
X12338050Y4619265D01*
D50*
X2984500Y2984500D02*
D03*
X13176250Y2959100D02*
D03*
X1924050Y10775950D02*
D03*
X11709400D02*
D03*
D51*
X10452100Y4130000D02*
D03*
Y4680000D02*
D03*
X11518900Y4130000D02*
D03*
Y4680000D02*
D03*
X8305800Y4130000D02*
D03*
Y4680000D02*
D03*
X9385300Y4130000D02*
D03*
Y4680000D02*
D03*
X6121400Y4130000D02*
D03*
Y4680000D02*
D03*
X7213600Y4130000D02*
D03*
Y4680000D02*
D03*
X3937000Y4130000D02*
D03*
Y4680000D02*
D03*
X5029200Y4130000D02*
D03*
Y4680000D02*
D03*
X2089150Y4127250D02*
D03*
Y4677250D02*
D03*
D52*
X10452100Y3400000D02*
D03*
X11518900D02*
D03*
X8305800D02*
D03*
X9385300D02*
D03*
X6121400D02*
D03*
X7213600D02*
D03*
X3937000D02*
D03*
X5029200D02*
D03*
X2089150Y3397250D02*
D03*
D53*
X3175000Y9302750D02*
D03*
Y8185150D02*
D03*
D54*
X10775950Y6181800D02*
D03*
Y6470650D02*
D03*
X12179300Y4460515D02*
D03*
X6371590Y10306050D02*
D03*
X3009900Y3898900D02*
D03*
X12179300Y3530600D02*
D03*
X3009900Y3606800D02*
D03*
X12179300Y4787901D02*
D03*
Y4152900D02*
D03*
Y3848100D02*
D03*
D55*
X12146600Y8363000D02*
D03*
Y8113000D02*
D03*
Y7863000D02*
D03*
Y7613000D02*
D03*
Y7363000D02*
D03*
Y7113000D02*
D03*
Y6863000D02*
D03*
X12396600Y8363000D02*
D03*
Y8113000D02*
D03*
Y7863000D02*
D03*
Y7613000D02*
D03*
Y7363000D02*
D03*
Y7113000D02*
D03*
Y6863000D02*
D03*
X12157900Y10503395D02*
D03*
Y10253395D02*
D03*
Y10003395D02*
D03*
Y9753395D02*
D03*
Y9503395D02*
D03*
Y9253395D02*
D03*
Y9003395D02*
D03*
X12407900Y10503395D02*
D03*
Y10253395D02*
D03*
Y10003395D02*
D03*
Y9753395D02*
D03*
Y9503395D02*
D03*
Y9253395D02*
D03*
Y9003395D02*
D03*
D56*
X13119099Y6858000D02*
D03*
Y8355500D02*
D03*
X13130400Y8998395D02*
D03*
Y10495895D02*
D03*
D57*
X6982310Y7694700D02*
D03*
X6862310D02*
D03*
X6982310Y7824700D02*
D03*
X7092310D02*
D03*
X7092310Y7694700D02*
D03*
X6862310Y7824700D02*
D03*
X6841190Y9786850D02*
D03*
X7071189Y9656850D02*
D03*
X7071190Y9786850D02*
D03*
X6961190D02*
D03*
X6841190Y9656850D02*
D03*
X6961190D02*
D03*
X8636000Y9307600D02*
D03*
X8516000D02*
D03*
X8636000Y9437600D02*
D03*
X8746000D02*
D03*
X8746000Y9307600D02*
D03*
X8516000Y9437600D02*
D03*
X8503300Y7723100D02*
D03*
X8733300Y7593100D02*
D03*
X8733300Y7723100D02*
D03*
X8503300Y7593100D02*
D03*
X8623300D02*
D03*
Y7723100D02*
D03*
D58*
X11461750Y5791200D02*
D03*
X11944350Y6993700D02*
D03*
X11258550Y7169150D02*
D03*
X11076709Y7067550D02*
D03*
X11061700Y10003395D02*
D03*
Y9042400D02*
D03*
Y8058150D02*
D03*
X2280091Y5594350D02*
D03*
X7106270Y10636250D02*
D03*
X4548054Y9836063D02*
D03*
X4555284Y10568689D02*
D03*
X2432050Y7137400D02*
D03*
X2192479Y8026100D02*
D03*
X2432050Y7539502D02*
D03*
X7537155Y7229395D02*
D03*
X7289800Y7483836D02*
D03*
X7292734Y7575647D02*
D03*
Y7668551D02*
D03*
X7278302Y8343900D02*
D03*
X8966613Y6062820D02*
D03*
X7543800Y6794500D02*
D03*
X9608627Y6993700D02*
D03*
X7995273Y6572250D02*
D03*
X8470108Y6682379D02*
D03*
X8307060Y6337300D02*
D03*
X9436954Y6988900D02*
D03*
X8975121Y6261250D02*
D03*
X9121021D02*
D03*
X6776952Y6572250D02*
D03*
X7321122D02*
D03*
X6776952Y6734986D02*
D03*
X6678008Y6209707D02*
D03*
X7534439Y6654986D02*
D03*
X7083626Y6572250D02*
D03*
X8003255Y6358341D02*
D03*
X7881149D02*
D03*
X8198901Y6141108D02*
D03*
X8205916Y6261100D02*
D03*
X7974061Y5989779D02*
D03*
X7599682Y5992460D02*
D03*
X8344089Y5914950D02*
D03*
X8655050Y5829300D02*
D03*
X8929754Y9956836D02*
D03*
X7268172Y10306050D02*
D03*
X8653612Y6054260D02*
D03*
X9495821Y5848350D02*
D03*
X5032835Y6233025D02*
D03*
X5147135Y6233325D02*
D03*
X5261435D02*
D03*
X5375735Y6233025D02*
D03*
X5998035Y6235700D02*
D03*
X5883735Y6236000D02*
D03*
X5769435D02*
D03*
X5655135Y6235700D02*
D03*
X10133920Y5848350D02*
D03*
X9752921D02*
D03*
X9940321D02*
D03*
X9245600Y7203231D02*
D03*
X8991600Y7539423D02*
D03*
Y7617416D02*
D03*
X9474200Y7442200D02*
D03*
X9897750Y8425157D02*
D03*
Y8308548D02*
D03*
Y8193144D02*
D03*
X9786167Y8425157D02*
D03*
Y8308548D02*
D03*
Y8193144D02*
D03*
X8054517Y8177696D02*
D03*
Y8293100D02*
D03*
Y8409709D02*
D03*
X8166100Y8177696D02*
D03*
Y8293100D02*
D03*
Y8409709D02*
D03*
X6756400Y6358341D02*
D03*
X11613441Y6375400D02*
D03*
X11988800Y6286500D02*
D03*
X11120172Y6227500D02*
D03*
X11852000Y5766100D02*
D03*
X12026900Y5816600D02*
D03*
X11262000Y5743300D02*
D03*
X12763500Y6426200D02*
D03*
Y5067300D02*
D03*
X10302638Y6597650D02*
D03*
Y5981550D02*
D03*
X10003821Y6418650D02*
D03*
X5651500Y5869185D02*
D03*
X5549900Y5867400D02*
D03*
X5407903Y5870880D02*
D03*
X6023038Y5869185D02*
D03*
X5025641Y5867700D02*
D03*
X4911341Y5867400D02*
D03*
X5139941Y5867700D02*
D03*
X5254241Y5867400D02*
D03*
X5032835Y5675190D02*
D03*
X5147135D02*
D03*
X4918535Y5674890D02*
D03*
X5261435D02*
D03*
X5883735Y5677566D02*
D03*
X5540835D02*
D03*
X5769435Y5677866D02*
D03*
X5655135D02*
D03*
X5876541Y5870075D02*
D03*
X5762241Y5870375D02*
D03*
X5032835Y5766100D02*
D03*
X5147135D02*
D03*
X4918535Y5765800D02*
D03*
X5261435D02*
D03*
X5883735Y5768475D02*
D03*
X5540835D02*
D03*
X5769435Y5768775D02*
D03*
X5655135D02*
D03*
X5765800Y6439200D02*
D03*
X5651500Y6337000D02*
D03*
X5765800Y6337300D02*
D03*
X5880100D02*
D03*
Y6439200D02*
D03*
X5651500Y6438900D02*
D03*
X5994400D02*
D03*
Y6337000D02*
D03*
X5372100Y6334325D02*
D03*
Y6436225D02*
D03*
X5029200D02*
D03*
X5257800Y6436525D02*
D03*
Y6334625D02*
D03*
X5143500D02*
D03*
X5029200Y6334325D02*
D03*
X5143500Y6436525D02*
D03*
X2819400Y7353000D02*
D03*
X3048000Y7353300D02*
D03*
Y7251400D02*
D03*
X2933700D02*
D03*
X2819400Y7251100D02*
D03*
X2933700Y7353300D02*
D03*
X3048000Y7137100D02*
D03*
X2933700D02*
D03*
X2819400Y7136800D02*
D03*
X3048000Y7035500D02*
D03*
X2933700D02*
D03*
X2819400Y7035200D02*
D03*
X3517900Y7353000D02*
D03*
X3403600D02*
D03*
X3289300Y7352700D02*
D03*
X3517900Y7251100D02*
D03*
X3403600D02*
D03*
X3289300Y7250800D02*
D03*
X3517900Y7137100D02*
D03*
X3403600D02*
D03*
X3289300Y7136800D02*
D03*
X3517900Y7035200D02*
D03*
X3403600D02*
D03*
X3289300Y7034900D02*
D03*
X4330700Y7035200D02*
D03*
X4445000Y7035500D02*
D03*
X4559300D02*
D03*
X4330700Y7137100D02*
D03*
X4445000Y7137400D02*
D03*
X4559300D02*
D03*
X4330700Y7251100D02*
D03*
X4445000Y7251400D02*
D03*
X4559300D02*
D03*
X4330700Y7353000D02*
D03*
X4445000Y7353300D02*
D03*
X4559300D02*
D03*
X3860800Y7035500D02*
D03*
X3975100Y7035800D02*
D03*
X4089400D02*
D03*
X3860800Y7137100D02*
D03*
X3975100Y7137400D02*
D03*
X4089400D02*
D03*
X3975100Y7353600D02*
D03*
X3860800Y7251400D02*
D03*
X3975100Y7251700D02*
D03*
X4089400D02*
D03*
Y7353600D02*
D03*
X3860800Y7353300D02*
D03*
Y6248700D02*
D03*
X4089400Y6249000D02*
D03*
Y6147100D02*
D03*
X3975100D02*
D03*
X3860800Y6146800D02*
D03*
X3975100Y6249000D02*
D03*
X4089400Y6032800D02*
D03*
X3975100D02*
D03*
X3860800Y6032500D02*
D03*
X4089400Y5931200D02*
D03*
X3975100D02*
D03*
X3860800Y5930900D02*
D03*
X4559300Y6248700D02*
D03*
X4445000D02*
D03*
X4330700Y6248400D02*
D03*
X4559300Y6146800D02*
D03*
X4445000D02*
D03*
X4330700Y6146500D02*
D03*
X4559300Y6032800D02*
D03*
X4445000D02*
D03*
X4330700Y6032500D02*
D03*
X4559300Y5930900D02*
D03*
X4445000D02*
D03*
X4330700Y5930600D02*
D03*
X3289300Y5930300D02*
D03*
X3403600Y5930600D02*
D03*
X3517900D02*
D03*
X3289300Y6032200D02*
D03*
X3403600Y6032500D02*
D03*
X3517900D02*
D03*
X3289300Y6146200D02*
D03*
X3403600Y6146500D02*
D03*
X3517900D02*
D03*
X3289300Y6248100D02*
D03*
X3403600Y6248400D02*
D03*
X3517900D02*
D03*
X2819400Y5930600D02*
D03*
X2933700Y5930900D02*
D03*
X3048000D02*
D03*
X2819400Y6032200D02*
D03*
X2933700Y6032500D02*
D03*
X3048000D02*
D03*
X2933700Y6248700D02*
D03*
X2819400Y6146500D02*
D03*
X2933700Y6146800D02*
D03*
X3048000D02*
D03*
Y6248700D02*
D03*
X2819400Y6248400D02*
D03*
D59*
X2147080Y8368243D02*
D03*
X2036361D02*
D03*
X1928709D02*
D03*
Y8472234D02*
D03*
X2147080Y8472235D02*
D03*
X2036361Y8472234D02*
D03*
X2147080Y8577329D02*
D03*
X2036362D02*
D03*
X1928709D02*
D03*
X9181653Y8940800D02*
D03*
X7266434Y9437600D02*
D03*
X7465500Y9099550D02*
D03*
X7455961Y9307600D02*
D03*
X8995234Y9078110D02*
D03*
X9181653Y9042400D02*
D03*
D60*
X3857141Y6540500D02*
X4060341D01*
D77*
D03*
X3857141D02*
D03*
%TF.MD5,3002e82ce696e6c100055f520714ad4d*%
M02*
