%TF.GenerationSoftware,Altium Limited,Altium Designer,23.5.1 (21)*%
G04 Layer_Color=8388736*
%FSLAX45Y45*%
%MOMM*%
%TF.SameCoordinates,815A2C8C-8163-47E4-9813-AD16C0C63C49*%
%TF.FilePolarity,Negative*%
%TF.FileFunction,Soldermask,Top*%
%TF.Part,Single*%
G01*
G75*
%TA.AperFunction,SMDPad,CuDef*%
%ADD14R,0.70000X0.23000*%
%ADD15R,1.67640X0.35560*%
%ADD89R,8.95320X5.40320*%
%ADD90R,2.05320X3.60320*%
%ADD91R,2.20320X2.00320*%
%ADD92R,0.85320X0.83320*%
%ADD93R,1.10320X0.90320*%
%ADD94R,2.20320X1.70320*%
%ADD95R,2.20320X4.00320*%
%ADD96R,1.15320X1.90320*%
%ADD97R,0.90320X1.10320*%
G04:AMPARAMS|DCode=98|XSize=0.8032mm|YSize=1.6532mm|CornerRadius=0.1526mm|HoleSize=0mm|Usage=FLASHONLY|Rotation=0.000|XOffset=0mm|YOffset=0mm|HoleType=Round|Shape=RoundedRectangle|*
%AMROUNDEDRECTD98*
21,1,0.80320,1.34800,0,0,0.0*
21,1,0.49800,1.65320,0,0,0.0*
1,1,0.30520,0.24900,-0.67400*
1,1,0.30520,-0.24900,-0.67400*
1,1,0.30520,-0.24900,0.67400*
1,1,0.30520,0.24900,0.67400*
%
%ADD98ROUNDEDRECTD98*%
G04:AMPARAMS|DCode=99|XSize=2.6032mm|YSize=3.3032mm|CornerRadius=0.1496mm|HoleSize=0mm|Usage=FLASHONLY|Rotation=270.000|XOffset=0mm|YOffset=0mm|HoleType=Round|Shape=RoundedRectangle|*
%AMROUNDEDRECTD99*
21,1,2.60320,3.00400,0,0,270.0*
21,1,2.30400,3.30320,0,0,270.0*
1,1,0.29920,-1.50200,-1.15200*
1,1,0.29920,-1.50200,1.15200*
1,1,0.29920,1.50200,1.15200*
1,1,0.29920,1.50200,-1.15200*
%
%ADD99ROUNDEDRECTD99*%
%ADD100R,1.45320X1.30320*%
%ADD101R,1.60320X1.59320*%
%ADD102R,5.06320X3.56320*%
%ADD103R,1.40320X2.80320*%
%ADD104R,1.20320X1.10320*%
%ADD105O,0.90320X2.40320*%
G04:AMPARAMS|DCode=106|XSize=0.6032mm|YSize=0.8532mm|CornerRadius=0.1516mm|HoleSize=0mm|Usage=FLASHONLY|Rotation=90.000|XOffset=0mm|YOffset=0mm|HoleType=Round|Shape=RoundedRectangle|*
%AMROUNDEDRECTD106*
21,1,0.60320,0.55000,0,0,90.0*
21,1,0.30000,0.85320,0,0,90.0*
1,1,0.30320,0.27500,0.15000*
1,1,0.30320,0.27500,-0.15000*
1,1,0.30320,-0.27500,-0.15000*
1,1,0.30320,-0.27500,0.15000*
%
%ADD106ROUNDEDRECTD106*%
%ADD107R,1.10320X1.20320*%
%ADD108R,1.00320X1.10320*%
%ADD109R,1.77800X3.02260*%
G04:AMPARAMS|DCode=110|XSize=0.6532mm|YSize=1.6032mm|CornerRadius=0.1511mm|HoleSize=0mm|Usage=FLASHONLY|Rotation=90.000|XOffset=0mm|YOffset=0mm|HoleType=Round|Shape=RoundedRectangle|*
%AMROUNDEDRECTD110*
21,1,0.65320,1.30100,0,0,90.0*
21,1,0.35100,1.60320,0,0,90.0*
1,1,0.30220,0.65050,0.17550*
1,1,0.30220,0.65050,-0.17550*
1,1,0.30220,-0.65050,-0.17550*
1,1,0.30220,-0.65050,0.17550*
%
%ADD110ROUNDEDRECTD110*%
%ADD111R,2.80320X1.40320*%
%ADD112O,2.40320X0.90320*%
%ADD113R,1.90320X1.15320*%
%ADD114R,3.56320X5.06320*%
%ADD115R,1.59320X1.60320*%
%ADD116R,2.00320X2.30320*%
%ADD117R,1.10320X1.00320*%
%ADD118R,0.85320X0.90320*%
%TA.AperFunction,ComponentPad*%
%ADD119C,6.30320*%
%ADD120C,3.00320*%
%ADD121C,3.70320*%
%ADD122C,9.70320*%
%ADD123C,2.23520*%
%ADD124C,1.76320*%
%ADD125C,2.30320*%
G36*
X2325500Y9207557D02*
X2318500D01*
Y8818030D01*
X1872500D01*
Y9207557D01*
X1865500D01*
Y9284557D01*
X1944500D01*
Y9247070D01*
X1992500D01*
Y9284557D01*
X2071500D01*
Y9247070D01*
X2119500D01*
Y9284557D01*
X2198500D01*
Y9247070D01*
X2246500D01*
Y9284557D01*
X2325500D01*
Y9207557D01*
D02*
G37*
G36*
Y8660543D02*
X2246500D01*
Y8737543D01*
X2325500D01*
Y8660543D01*
D02*
G37*
G36*
X2198500D02*
X2119500D01*
Y8737543D01*
X2198500D01*
Y8660543D01*
D02*
G37*
G36*
X2071500D02*
X1992500D01*
Y8737543D01*
X2071500D01*
Y8660543D01*
D02*
G37*
G36*
X1944500D02*
X1865500D01*
Y8737543D01*
X1944500D01*
Y8660543D01*
D02*
G37*
G36*
X6059300Y6458007D02*
X6052300D01*
Y6068480D01*
X5606300D01*
Y6458007D01*
X5599300D01*
Y6535007D01*
X5678300D01*
Y6497520D01*
X5726300D01*
Y6535007D01*
X5805300D01*
Y6497520D01*
X5853300D01*
Y6535007D01*
X5932300D01*
Y6497520D01*
X5980300D01*
Y6535007D01*
X6059300D01*
Y6458007D01*
D02*
G37*
G36*
X5437000D02*
X5430000D01*
Y6068480D01*
X4984000D01*
Y6458007D01*
X4977000D01*
Y6535007D01*
X5056000D01*
Y6497520D01*
X5104000D01*
Y6535007D01*
X5183000D01*
Y6497520D01*
X5231000D01*
Y6535007D01*
X5310000D01*
Y6497520D01*
X5358000D01*
Y6535007D01*
X5437000D01*
Y6458007D01*
D02*
G37*
G36*
X7828219Y6242770D02*
Y6141490D01*
X7724079D01*
Y6202770D01*
Y6242770D01*
Y6304050D01*
X7828219D01*
Y6242770D01*
D02*
G37*
G36*
X6059300Y5910993D02*
X5980300D01*
Y5987993D01*
X6059300D01*
Y5910993D01*
D02*
G37*
G36*
X5932300D02*
X5853300D01*
Y5987993D01*
X5932300D01*
Y5910993D01*
D02*
G37*
G36*
X5805300D02*
X5726300D01*
Y5987993D01*
X5805300D01*
Y5910993D01*
D02*
G37*
G36*
X5678300D02*
X5599300D01*
Y5987993D01*
X5678300D01*
Y5910993D01*
D02*
G37*
G36*
X5437000D02*
X5358000D01*
Y5987993D01*
X5437000D01*
Y5910993D01*
D02*
G37*
G36*
X5310000D02*
X5231000D01*
Y5987993D01*
X5310000D01*
Y5910993D01*
D02*
G37*
G36*
X5183000D02*
X5104000D01*
Y5987993D01*
X5183000D01*
Y5910993D01*
D02*
G37*
G36*
X5056000D02*
X4977000D01*
Y5987993D01*
X5056000D01*
Y5910993D01*
D02*
G37*
%LPC*%
G36*
X7796149Y6242770D02*
X7756149D01*
Y6202770D01*
X7796149D01*
Y6242770D01*
D02*
G37*
%LPD*%
D14*
X7671149Y6142770D02*
D03*
Y6182770D02*
D03*
Y6222770D02*
D03*
Y6262770D02*
D03*
Y6302770D02*
D03*
X7881149D02*
D03*
Y6262770D02*
D03*
Y6222770D02*
D03*
Y6182770D02*
D03*
Y6142770D02*
D03*
D15*
X8810021Y6387520D02*
D03*
Y6322520D02*
D03*
Y6257520D02*
D03*
Y6192520D02*
D03*
Y6127520D02*
D03*
Y6062520D02*
D03*
Y5997520D02*
D03*
X9373901Y5997520D02*
D03*
Y6062520D02*
D03*
Y6127520D02*
D03*
Y6192520D02*
D03*
Y6257520D02*
D03*
Y6322520D02*
D03*
Y6387520D02*
D03*
D89*
X3162300Y7162800D02*
D03*
Y6082800D02*
D03*
X4203700Y7162800D02*
D03*
Y6082800D02*
D03*
D90*
X7416010Y8051800D02*
D03*
X7971010D02*
D03*
D91*
X9474200Y7962900D02*
D03*
X9024200D02*
D03*
X7854921Y9767800D02*
D03*
X7404920D02*
D03*
X9532499Y9437600D02*
D03*
X9082499D02*
D03*
D92*
X5016500Y5949493D02*
D03*
X5143500D02*
D03*
X5270500D02*
D03*
X5397500D02*
D03*
Y6496507D02*
D03*
X5270500D02*
D03*
X5143500D02*
D03*
X5016500D02*
D03*
X5638800Y5949493D02*
D03*
X5765800D02*
D03*
X5892800D02*
D03*
X6019800D02*
D03*
Y6496507D02*
D03*
X5892800D02*
D03*
X5765800D02*
D03*
X5638800D02*
D03*
X1905000Y8699043D02*
D03*
X2032000D02*
D03*
X2159000D02*
D03*
X2286000D02*
D03*
Y9246057D02*
D03*
X2159000D02*
D03*
X2032000D02*
D03*
X1905000D02*
D03*
D93*
X4548054Y9717021D02*
D03*
Y9577021D02*
D03*
X1873250Y8026100D02*
D03*
Y8166100D02*
D03*
X6626214Y7892900D02*
D03*
Y8032900D02*
D03*
X12382499Y4520786D02*
D03*
Y4380786D02*
D03*
X4555284Y10464950D02*
D03*
Y10324950D02*
D03*
X8246761Y9639600D02*
D03*
Y9499600D02*
D03*
X6581471Y9988700D02*
D03*
Y9848700D02*
D03*
X8280400Y7778600D02*
D03*
Y7918600D02*
D03*
X12382499Y4857901D02*
D03*
Y4717901D02*
D03*
X12382500Y4222900D02*
D03*
Y4082900D02*
D03*
Y3918100D02*
D03*
Y3778100D02*
D03*
Y3600600D02*
D03*
Y3460600D02*
D03*
X8439150Y6316820D02*
D03*
Y6176821D02*
D03*
X8566150Y6176820D02*
D03*
Y6316820D02*
D03*
X9752921Y5951150D02*
D03*
Y6091150D02*
D03*
X9610121Y6121550D02*
D03*
Y5981550D02*
D03*
X10133921Y5951150D02*
D03*
Y6091150D02*
D03*
X10006921Y5951150D02*
D03*
Y6091150D02*
D03*
X9879921Y5951150D02*
D03*
Y6091150D02*
D03*
D94*
X4739600Y9763875D02*
D03*
Y9533875D02*
D03*
Y9303875D02*
D03*
X4745950Y10511052D02*
D03*
Y10281052D02*
D03*
Y10051052D02*
D03*
D95*
X5369600Y9533875D02*
D03*
X5375950Y10281052D02*
D03*
D96*
X7565673Y7586921D02*
D03*
X7845673D02*
D03*
X7565673Y7377371D02*
D03*
X7845673D02*
D03*
X7414410Y7251700D02*
D03*
X7134410D02*
D03*
X9556978Y8889999D02*
D03*
X9276978D02*
D03*
X9556978Y8655050D02*
D03*
X9276978D02*
D03*
X8779538Y8889999D02*
D03*
X9059538D02*
D03*
X8781450Y8655050D02*
D03*
X9061450D02*
D03*
X7056945Y9232900D02*
D03*
X7336945D02*
D03*
X7060900Y9023350D02*
D03*
X7340900D02*
D03*
X7887000Y9074150D02*
D03*
X7607000D02*
D03*
X7881210Y9307600D02*
D03*
X7601210D02*
D03*
X8991300Y7061200D02*
D03*
X9271300D02*
D03*
X9499600Y7340600D02*
D03*
X9219600D02*
D03*
X9219900Y7556500D02*
D03*
X9499900D02*
D03*
D97*
X7052010Y8343900D02*
D03*
X7192010D02*
D03*
X6867600Y8375620D02*
D03*
X6727600D02*
D03*
X6867600Y8242838D02*
D03*
X6727600D02*
D03*
X2035021Y5594350D02*
D03*
X2175021D02*
D03*
X6867710Y7289800D02*
D03*
X7007710D02*
D03*
X7192010Y8216900D02*
D03*
X7052010D02*
D03*
X8496450Y9848700D02*
D03*
X8356450D02*
D03*
Y9988700D02*
D03*
X8496450D02*
D03*
X8688992Y9950450D02*
D03*
X8828992D02*
D03*
X8691362Y9817100D02*
D03*
X8831362D02*
D03*
X6721810Y10369550D02*
D03*
X6861810D02*
D03*
X6864350Y10229850D02*
D03*
X6724350D02*
D03*
X7022950Y10306050D02*
D03*
X7162950D02*
D03*
X7022950Y10179050D02*
D03*
X7162950D02*
D03*
X8502800Y8255000D02*
D03*
X8362800D02*
D03*
X12207701Y6311900D02*
D03*
X12347701D02*
D03*
X12207701Y6146800D02*
D03*
X12347701D02*
D03*
X12207701Y5994400D02*
D03*
X12347701D02*
D03*
X12207701Y5829300D02*
D03*
X12347701D02*
D03*
X12207701Y5676900D02*
D03*
X12347701D02*
D03*
X12207701Y5524500D02*
D03*
X12347701D02*
D03*
X12207701Y5359400D02*
D03*
X12347701D02*
D03*
X12207701Y5194300D02*
D03*
X12347701D02*
D03*
X11848044Y6375400D02*
D03*
X11708044D02*
D03*
X8680300Y8229600D02*
D03*
X8820300D02*
D03*
X8680300Y8102600D02*
D03*
X8820300D02*
D03*
X8362800Y8128000D02*
D03*
X8502800D02*
D03*
X6322500Y5867400D02*
D03*
X6462500D02*
D03*
X8572650Y6056321D02*
D03*
X8432650D02*
D03*
X8572650Y5924320D02*
D03*
X8432650D02*
D03*
X6381600Y10629900D02*
D03*
X6521600D02*
D03*
X10442121Y6099250D02*
D03*
X10302121D02*
D03*
X10302121Y6238950D02*
D03*
X10442121D02*
D03*
X10302121Y6378650D02*
D03*
X10442121D02*
D03*
X10442121Y6505650D02*
D03*
X10302121D02*
D03*
X9603621Y6394450D02*
D03*
X9743621D02*
D03*
X9603621Y6521450D02*
D03*
X9743621D02*
D03*
D98*
X6791810Y7487200D02*
D03*
X6918810D02*
D03*
X7045810D02*
D03*
X7172810D02*
D03*
X6791810Y8032200D02*
D03*
X6918810D02*
D03*
X7045810D02*
D03*
X7172810D02*
D03*
X7151690Y9994350D02*
D03*
X7024690D02*
D03*
X6897690D02*
D03*
X6770690D02*
D03*
X7151690Y9449350D02*
D03*
X7024690D02*
D03*
X6897690D02*
D03*
X6770690D02*
D03*
X8445500Y9100100D02*
D03*
X8572500D02*
D03*
X8699500D02*
D03*
X8826500D02*
D03*
X8445500Y9645100D02*
D03*
X8572500D02*
D03*
X8699500D02*
D03*
X8826500D02*
D03*
X8813800Y7930600D02*
D03*
X8686800D02*
D03*
X8559800D02*
D03*
X8432800D02*
D03*
X8813800Y7385600D02*
D03*
X8686800D02*
D03*
X8559800D02*
D03*
X8432800D02*
D03*
D99*
X6982310Y7759700D02*
D03*
X6961190Y9721850D02*
D03*
X8636000Y9372600D02*
D03*
X8623300Y7658100D02*
D03*
D100*
X2035150Y5778500D02*
D03*
X2270150D02*
D03*
X8636269Y6807779D02*
D03*
X8871269D02*
D03*
X7883553Y6811222D02*
D03*
X8118553D02*
D03*
X12766700Y4493125D02*
D03*
X12531700D02*
D03*
X12766700Y4787901D02*
D03*
X12531700D02*
D03*
X12766700Y4165600D02*
D03*
X12531700D02*
D03*
X12766700Y3848100D02*
D03*
X12531700D02*
D03*
X12766700Y3530600D02*
D03*
X12531700D02*
D03*
X12763501Y5194300D02*
D03*
X12528501D02*
D03*
X12763501Y5359400D02*
D03*
X12528501D02*
D03*
X12763501Y5522000D02*
D03*
X12528501D02*
D03*
X12763501Y5676900D02*
D03*
X12528501D02*
D03*
X12763501Y5829300D02*
D03*
X12528501D02*
D03*
X12763501Y5994400D02*
D03*
X12528501D02*
D03*
X12763501Y6146800D02*
D03*
X12528501D02*
D03*
X12763501Y6311900D02*
D03*
X12528501D02*
D03*
X6958689Y10636250D02*
D03*
X6723689D02*
D03*
D101*
X2715950Y5267250D02*
D03*
Y5083250D02*
D03*
X3619500Y5048400D02*
D03*
Y5232400D02*
D03*
D102*
X2317750Y5175250D02*
D03*
X4017700Y5140400D02*
D03*
D103*
X2138776Y6959599D02*
D03*
X1883776D02*
D03*
D104*
X2432050Y7433300D02*
D03*
Y7273300D02*
D03*
X6643380Y6734986D02*
D03*
Y6574986D02*
D03*
D105*
X1873250Y7275150D02*
D03*
X2000250D02*
D03*
X2127250D02*
D03*
X2254250D02*
D03*
X1873250Y7825150D02*
D03*
X2000250D02*
D03*
X2127250D02*
D03*
X2254250D02*
D03*
D106*
X7420279Y6719986D02*
D03*
Y6654986D02*
D03*
Y6589986D02*
D03*
X7215278D02*
D03*
Y6654986D02*
D03*
Y6719986D02*
D03*
D107*
X9440766Y7112000D02*
D03*
X9600766D02*
D03*
X9214920Y6803717D02*
D03*
X9054920D02*
D03*
X8459270Y6811222D02*
D03*
X8299270D02*
D03*
X7389964Y6436225D02*
D03*
X7229964D02*
D03*
X7852399Y5992460D02*
D03*
X7692399D02*
D03*
X6904358Y6734986D02*
D03*
X7064357D02*
D03*
X7692399Y6483350D02*
D03*
X7852399D02*
D03*
D108*
X9627901Y6890167D02*
D03*
X9437902D02*
D03*
X9532901Y6690167D02*
D03*
X8159661Y6444320D02*
D03*
X8349661D02*
D03*
X8254661Y6644320D02*
D03*
D109*
X10071100Y9715500D02*
D03*
Y10325100D02*
D03*
X11061700D02*
D03*
Y9715500D02*
D03*
X10069190Y8763000D02*
D03*
Y9372600D02*
D03*
X11059790D02*
D03*
Y8763000D02*
D03*
X10083800Y6807200D02*
D03*
Y7416800D02*
D03*
X11074400D02*
D03*
Y6807200D02*
D03*
X10071100Y7797800D02*
D03*
Y8407400D02*
D03*
X11061700D02*
D03*
Y7797800D02*
D03*
D110*
X11852000Y5837500D02*
D03*
Y5902500D02*
D03*
Y5967500D02*
D03*
Y6032500D02*
D03*
Y6097500D02*
D03*
Y6162500D02*
D03*
Y6227500D02*
D03*
X11262000Y5837500D02*
D03*
Y5902500D02*
D03*
Y5967500D02*
D03*
Y6032500D02*
D03*
Y6097500D02*
D03*
Y6162500D02*
D03*
Y6227500D02*
D03*
D111*
X7302500Y6236200D02*
D03*
Y5981200D02*
D03*
D112*
X6942500Y6019800D02*
D03*
Y6146800D02*
D03*
Y6273800D02*
D03*
Y6400800D02*
D03*
X6392500Y6019800D02*
D03*
Y6146800D02*
D03*
Y6273800D02*
D03*
Y6400800D02*
D03*
D113*
X9017000Y7238400D02*
D03*
Y7518400D02*
D03*
D114*
X2349500Y10121900D02*
D03*
D115*
X2257500Y9723700D02*
D03*
X2441500D02*
D03*
D116*
X1924050Y9666950D02*
D03*
Y10106950D02*
D03*
D117*
X9903821Y6414770D02*
D03*
X10103821Y6509770D02*
D03*
Y6319770D02*
D03*
D118*
X9011247Y5822950D02*
D03*
X9146247D02*
D03*
D119*
X2984500Y2984500D02*
D03*
X13176250Y2959100D02*
D03*
X1924050Y10775950D02*
D03*
X11709400D02*
D03*
D120*
X10452100Y4130000D02*
D03*
Y4680000D02*
D03*
X11518900Y4130000D02*
D03*
Y4680000D02*
D03*
X8305800Y4130000D02*
D03*
Y4680000D02*
D03*
X9385300Y4130000D02*
D03*
Y4680000D02*
D03*
X6121400Y4130000D02*
D03*
Y4680000D02*
D03*
X7213600Y4130000D02*
D03*
Y4680000D02*
D03*
X3937000Y4130000D02*
D03*
Y4680000D02*
D03*
X5029200Y4130000D02*
D03*
Y4680000D02*
D03*
X2089150Y4127250D02*
D03*
Y4677250D02*
D03*
D121*
X10452100Y3400000D02*
D03*
X11518900D02*
D03*
X8305800D02*
D03*
X9385300D02*
D03*
X6121400D02*
D03*
X7213600D02*
D03*
X3937000D02*
D03*
X5029200D02*
D03*
X2089150Y3397250D02*
D03*
D122*
X3175000Y9302750D02*
D03*
Y8185150D02*
D03*
D123*
X10775950Y6181800D02*
D03*
Y6470650D02*
D03*
X12179300Y4460515D02*
D03*
X6371590Y10306050D02*
D03*
X3009900Y3898900D02*
D03*
X12179300Y3530600D02*
D03*
X3009900Y3606800D02*
D03*
X12179300Y4787901D02*
D03*
Y4152900D02*
D03*
Y3848100D02*
D03*
D124*
X12146600Y8363000D02*
D03*
Y8113000D02*
D03*
Y7863000D02*
D03*
Y7613000D02*
D03*
Y7363000D02*
D03*
Y7113000D02*
D03*
Y6863000D02*
D03*
X12396600Y8363000D02*
D03*
Y8113000D02*
D03*
Y7863000D02*
D03*
Y7613000D02*
D03*
Y7363000D02*
D03*
Y7113000D02*
D03*
Y6863000D02*
D03*
X12157900Y10503395D02*
D03*
Y10253395D02*
D03*
Y10003395D02*
D03*
Y9753395D02*
D03*
Y9503395D02*
D03*
Y9253395D02*
D03*
Y9003395D02*
D03*
X12407900Y10503395D02*
D03*
Y10253395D02*
D03*
Y10003395D02*
D03*
Y9753395D02*
D03*
Y9503395D02*
D03*
Y9253395D02*
D03*
Y9003395D02*
D03*
D125*
X13119099Y6858000D02*
D03*
Y8355500D02*
D03*
X13130400Y8998395D02*
D03*
Y10495895D02*
D03*
%TF.MD5,340925a6e8bedbb23b45fd115a48168d*%
M02*
