%TF.GenerationSoftware,Altium Limited,Altium Designer,23.5.1 (21)*%
G04 Layer_Color=8421504*
%FSLAX45Y45*%
%MOMM*%
%TF.SameCoordinates,77F376E6-C6B2-4CCA-B26E-6530BE00B4D6*%
%TF.FilePolarity,Positive*%
%TF.FileFunction,Paste,Top*%
%TF.Part,Single*%
G01*
G75*
%TA.AperFunction,SMDPad,CuDef*%
%ADD10R,0.25000X0.53000*%
%ADD12C,0.71120*%
%ADD13R,1.25000X3.50000*%
%ADD14R,0.42077X1.95543*%
G04:AMPARAMS|DCode=15|XSize=1.95543mm|YSize=0.42077mm|CornerRadius=0.21038mm|HoleSize=0mm|Usage=FLASHONLY|Rotation=90.000|XOffset=0mm|YOffset=0mm|HoleType=Round|Shape=RoundedRectangle|*
%AMROUNDEDRECTD15*
21,1,1.95543,0.00000,0,0,90.0*
21,1,1.53467,0.42077,0,0,90.0*
1,1,0.42077,0.00000,0.76733*
1,1,0.42077,0.00000,-0.76733*
1,1,0.42077,0.00000,-0.76733*
1,1,0.42077,0.00000,0.76733*
%
%ADD15ROUNDEDRECTD15*%
%ADD16R,0.70000X0.90000*%
%ADD17R,1.25000X1.10000*%
%ADD18R,0.93108X0.81213*%
%ADD19R,0.80000X0.95000*%
%ADD20R,0.80000X1.00000*%
%ADD21R,0.95000X1.05000*%
%ADD22R,0.75000X0.85000*%
%ADD23R,1.50273X2.80415*%
%ADD24R,2.05000X1.10000*%
%ADD25R,1.10000X2.05000*%
%ADD26R,2.40000X2.40000*%
%ADD27R,2.00000X2.90000*%
%TA.AperFunction,BGAPad,CuDef*%
%ADD28R,0.55000X0.55000*%
%TA.AperFunction,SMDPad,CuDef*%
%ADD29R,1.70000X0.95000*%
%ADD30R,3.50000X1.25000*%
%ADD31R,1.25700X3.42900*%
%ADD32R,10.66800X9.01700*%
%ADD33R,1.80000X2.00000*%
%ADD34R,1.40000X1.10000*%
%TA.AperFunction,TestPad*%
%ADD35R,1.40000X1.39000*%
%TA.AperFunction,SMDPad,CuDef*%
%ADD36R,0.90000X0.70000*%
%ADD37R,0.95000X1.70000*%
%ADD38R,1.40000X1.39000*%
%ADD39R,4.86000X3.36000*%
%ADD40R,1.80000X2.10000*%
%TA.AperFunction,NonConductor*%
%ADD144R,2.45000X2.28000*%
%ADD145R,2.45000X2.28000*%
%ADD146R,2.28000X2.45000*%
G36*
X12456984Y7583105D02*
X12457950Y7583200D01*
X12558050D01*
X12559016Y7583105D01*
X12559944Y7582823D01*
X12560800Y7582366D01*
X12561550Y7581750D01*
X12562166Y7581000D01*
X12562623Y7580144D01*
X12562905Y7579216D01*
X12563000Y7578250D01*
Y7433150D01*
X12562905Y7432184D01*
X12562623Y7431256D01*
X12562166Y7430400D01*
X12561550Y7429650D01*
X12560800Y7429034D01*
X12559944Y7428577D01*
X12559016Y7428295D01*
X12558050Y7428200D01*
X12457950D01*
X12456984Y7428295D01*
X12456056Y7428577D01*
X12455200Y7429034D01*
X12454450Y7429650D01*
X12453834Y7430400D01*
X12453377Y7431256D01*
X12453095Y7432184D01*
X12453000Y7433150D01*
Y7578250D01*
X12453095Y7579216D01*
X12453377Y7580144D01*
X12453834Y7581000D01*
X12454450Y7581750D01*
X12455200Y7582366D01*
X12456056Y7582823D01*
X12456984Y7583105D01*
D02*
G37*
G36*
X12586984D02*
X12587950Y7583200D01*
X12688050D01*
X12689016Y7583105D01*
X12689944Y7582823D01*
X12690800Y7582366D01*
X12691550Y7581750D01*
X12692166Y7581000D01*
X12692623Y7580144D01*
X12692905Y7579216D01*
X12693000Y7578250D01*
Y7433150D01*
X12692905Y7432184D01*
X12692623Y7431256D01*
X12692166Y7430400D01*
X12691550Y7429650D01*
X12690800Y7429034D01*
X12689944Y7428577D01*
X12689016Y7428295D01*
X12688050Y7428200D01*
X12587950D01*
X12586984Y7428295D01*
X12586056Y7428577D01*
X12585200Y7429034D01*
X12584450Y7429650D01*
X12583834Y7430400D01*
X12583377Y7431256D01*
X12583095Y7432184D01*
X12583000Y7433150D01*
Y7578250D01*
X12583095Y7579216D01*
X12583377Y7580144D01*
X12583834Y7581000D01*
X12584450Y7581750D01*
X12585200Y7582366D01*
X12586056Y7582823D01*
X12586984Y7583105D01*
D02*
G37*
G36*
X14463583D02*
X14464549Y7583200D01*
X14564650D01*
X14565616Y7583105D01*
X14566544Y7582823D01*
X14567400Y7582366D01*
X14568150Y7581750D01*
X14568765Y7581000D01*
X14569223Y7580144D01*
X14569505Y7579216D01*
X14569600Y7578250D01*
Y7433150D01*
X14569505Y7432184D01*
X14569223Y7431256D01*
X14568765Y7430400D01*
X14568150Y7429650D01*
X14567400Y7429034D01*
X14566544Y7428577D01*
X14565616Y7428295D01*
X14564650Y7428200D01*
X14464549D01*
X14463583Y7428295D01*
X14462656Y7428577D01*
X14461800Y7429034D01*
X14461050Y7429650D01*
X14460434Y7430400D01*
X14459978Y7431256D01*
X14459695Y7432184D01*
X14459599Y7433150D01*
Y7578250D01*
X14459695Y7579216D01*
X14459978Y7580144D01*
X14460434Y7581000D01*
X14461050Y7581750D01*
X14461800Y7582366D01*
X14462656Y7582823D01*
X14463583Y7583105D01*
D02*
G37*
G36*
X14593584D02*
X14594550Y7583200D01*
X14694650D01*
X14695616Y7583105D01*
X14696544Y7582823D01*
X14697400Y7582366D01*
X14698151Y7581750D01*
X14698766Y7581000D01*
X14699223Y7580144D01*
X14699506Y7579216D01*
X14699600Y7578250D01*
Y7433150D01*
X14699506Y7432184D01*
X14699223Y7431256D01*
X14698766Y7430400D01*
X14698151Y7429650D01*
X14697400Y7429034D01*
X14696544Y7428577D01*
X14695616Y7428295D01*
X14694650Y7428200D01*
X14594550D01*
X14593584Y7428295D01*
X14592656Y7428577D01*
X14591800Y7429034D01*
X14591051Y7429650D01*
X14590434Y7430400D01*
X14589977Y7431256D01*
X14589696Y7432184D01*
X14589600Y7433150D01*
Y7578250D01*
X14589696Y7579216D01*
X14589977Y7580144D01*
X14590434Y7581000D01*
X14591051Y7581750D01*
X14591800Y7582366D01*
X14592656Y7582823D01*
X14593584Y7583105D01*
D02*
G37*
G36*
X16444785D02*
X16445750Y7583200D01*
X16545850D01*
X16546815Y7583105D01*
X16547745Y7582823D01*
X16548599Y7582366D01*
X16549350Y7581750D01*
X16549966Y7581000D01*
X16550423Y7580144D01*
X16550705Y7579216D01*
X16550800Y7578250D01*
Y7433150D01*
X16550705Y7432184D01*
X16550423Y7431256D01*
X16549966Y7430400D01*
X16549350Y7429650D01*
X16548599Y7429034D01*
X16547745Y7428577D01*
X16546815Y7428295D01*
X16545850Y7428200D01*
X16445750D01*
X16444785Y7428295D01*
X16443855Y7428577D01*
X16442999Y7429034D01*
X16442250Y7429650D01*
X16441634Y7430400D01*
X16441177Y7431256D01*
X16440895Y7432184D01*
X16440800Y7433150D01*
Y7578250D01*
X16440895Y7579216D01*
X16441177Y7580144D01*
X16441634Y7581000D01*
X16442250Y7581750D01*
X16442999Y7582366D01*
X16443855Y7582823D01*
X16444785Y7583105D01*
D02*
G37*
G36*
X16574783D02*
X16575751Y7583200D01*
X16675850D01*
X16676816Y7583105D01*
X16677744Y7582823D01*
X16678600Y7582366D01*
X16679350Y7581750D01*
X16679967Y7581000D01*
X16680423Y7580144D01*
X16680705Y7579216D01*
X16680800Y7578250D01*
Y7433150D01*
X16680705Y7432184D01*
X16680423Y7431256D01*
X16679967Y7430400D01*
X16679350Y7429650D01*
X16678600Y7429034D01*
X16677744Y7428577D01*
X16676816Y7428295D01*
X16675850Y7428200D01*
X16575751D01*
X16574783Y7428295D01*
X16573856Y7428577D01*
X16573000Y7429034D01*
X16572250Y7429650D01*
X16571634Y7430400D01*
X16571178Y7431256D01*
X16570895Y7432184D01*
X16570799Y7433150D01*
Y7578250D01*
X16570895Y7579216D01*
X16571178Y7580144D01*
X16571634Y7581000D01*
X16572250Y7581750D01*
X16573000Y7582366D01*
X16573856Y7582823D01*
X16574783Y7583105D01*
D02*
G37*
D10*
X16685800Y7649200D02*
D03*
X16635800D02*
D03*
X16585800D02*
D03*
X16535800D02*
D03*
X16485800D02*
D03*
X16435800D02*
D03*
Y7362200D02*
D03*
X16485800D02*
D03*
X16535800D02*
D03*
X16585800D02*
D03*
X16635800D02*
D03*
X16685800D02*
D03*
X14704601D02*
D03*
X14654601D02*
D03*
X14604601D02*
D03*
X14554601D02*
D03*
X14504601D02*
D03*
X14454601D02*
D03*
Y7649200D02*
D03*
X14504601D02*
D03*
X14554601D02*
D03*
X14604601D02*
D03*
X14654601D02*
D03*
X14704601D02*
D03*
X12698000D02*
D03*
X12648000D02*
D03*
X12598000D02*
D03*
X12548000D02*
D03*
X12498000D02*
D03*
X12448000D02*
D03*
Y7362200D02*
D03*
X12498000D02*
D03*
X12548000D02*
D03*
X12598000D02*
D03*
X12648000D02*
D03*
X12698000D02*
D03*
D12*
X17995900Y12255500D02*
D03*
X15646400Y7200900D02*
D03*
X13970000Y9918700D02*
D03*
X13868401Y10629900D02*
D03*
X16941800Y10604500D02*
D03*
X17208501Y12153900D02*
D03*
X14185899Y12128500D02*
D03*
X11874500Y12230100D02*
D03*
X11760200Y10960100D02*
D03*
Y11125200D02*
D03*
X14770100Y11039500D02*
D03*
X15379700Y12357100D02*
D03*
X14503400Y12556481D02*
D03*
X8255000Y10680700D02*
D03*
X9753600Y8223250D02*
D03*
X9855200Y7785100D02*
D03*
X9422648Y7848600D02*
D03*
X9093200D02*
D03*
X9218700Y7500968D02*
D03*
X10023725Y6654800D02*
D03*
X9906000D02*
D03*
X9788275D02*
D03*
X17843500Y6197600D02*
D03*
X10337800Y9982200D02*
D03*
D13*
X12973000Y9083900D02*
D03*
X12773000D02*
D03*
X12573000D02*
D03*
X12373000D02*
D03*
D14*
X9107000Y6456162D02*
D03*
D15*
X9172000D02*
D03*
X9237000D02*
D03*
X9302000D02*
D03*
X9367000D02*
D03*
X9432000D02*
D03*
X9497000D02*
D03*
X9562000D02*
D03*
Y7031238D02*
D03*
X9497000D02*
D03*
X9432000D02*
D03*
X9367000D02*
D03*
X9302000D02*
D03*
X9237000D02*
D03*
X9172000D02*
D03*
X9107000D02*
D03*
D16*
X14522301Y13068300D02*
D03*
X14662300D02*
D03*
X7156303Y13017500D02*
D03*
X7296302D02*
D03*
X7156303Y12700000D02*
D03*
X7296302D02*
D03*
X7156303Y12382500D02*
D03*
X7296302D02*
D03*
X7156303Y12065000D02*
D03*
X7296302D02*
D03*
X7156303Y11747500D02*
D03*
X7296302D02*
D03*
X7156303Y11430000D02*
D03*
X7296302D02*
D03*
D17*
X14316100Y13068300D02*
D03*
X14081100D02*
D03*
X6962800Y13017500D02*
D03*
X6727800D02*
D03*
X6962800Y12700000D02*
D03*
X6727800D02*
D03*
X6962800Y12382500D02*
D03*
X6727800D02*
D03*
X6962800Y12065000D02*
D03*
X6727800D02*
D03*
X6962800Y11747500D02*
D03*
X6727800D02*
D03*
X6962800Y11430000D02*
D03*
X6727800D02*
D03*
D18*
X12042501Y10749975D02*
D03*
X12150606D02*
D03*
X15079675D02*
D03*
X15187781D02*
D03*
D19*
X12167000Y10935200D02*
D03*
X12037000D02*
D03*
Y11692526D02*
D03*
X12167000D02*
D03*
X15204175D02*
D03*
X15074174D02*
D03*
X15204175Y10935200D02*
D03*
X15074174D02*
D03*
X12688900Y12256000D02*
D03*
X12818900D02*
D03*
X15746899D02*
D03*
X15876900D02*
D03*
D20*
X12017000Y11127926D02*
D03*
X12167000D02*
D03*
X15054175D02*
D03*
X15204175D02*
D03*
D21*
X12014500Y11350651D02*
D03*
X12159500D02*
D03*
X15051674D02*
D03*
X15196674D02*
D03*
D22*
X12044500Y11544800D02*
D03*
X12169500D02*
D03*
X15081674D02*
D03*
X15206674D02*
D03*
D23*
X16632326Y12327488D02*
D03*
X16922365D02*
D03*
X16632326Y12696966D02*
D03*
X16922365D02*
D03*
X16632326Y13066444D02*
D03*
X16922365D02*
D03*
X16046899Y13066444D02*
D03*
X15756860D02*
D03*
X16046899Y12696966D02*
D03*
X15756860D02*
D03*
X13558450Y12328159D02*
D03*
X13848489D02*
D03*
X13558450Y13067030D02*
D03*
X13848489D02*
D03*
X13558450Y12697595D02*
D03*
X13848489D02*
D03*
X12988899Y13067030D02*
D03*
X12698860D02*
D03*
X12988899Y12697595D02*
D03*
X12698860D02*
D03*
D24*
X14129520Y9428611D02*
D03*
Y9758611D02*
D03*
X13812019Y9428611D02*
D03*
Y9758611D02*
D03*
X14129520Y9189060D02*
D03*
Y8859060D02*
D03*
X13812019Y9189060D02*
D03*
Y8859060D02*
D03*
D25*
X13228452Y9779500D02*
D03*
X13558450D02*
D03*
X13228452Y10097000D02*
D03*
X13558450D02*
D03*
X13228452Y10414500D02*
D03*
X13558450D02*
D03*
X16302325Y9144500D02*
D03*
X16632326D02*
D03*
X16302325Y9462000D02*
D03*
X16632326D02*
D03*
X16302325Y9779500D02*
D03*
X16632326D02*
D03*
X16302325Y10097000D02*
D03*
X16632326D02*
D03*
X16302325Y10414500D02*
D03*
X16632326D02*
D03*
X16046899Y9144500D02*
D03*
X15716901D02*
D03*
X16046899Y9462000D02*
D03*
X15716901D02*
D03*
X16046899Y9779500D02*
D03*
X15716901D02*
D03*
X16046899Y10097000D02*
D03*
X15716901D02*
D03*
X16046899Y10414500D02*
D03*
X15716901D02*
D03*
X12988901Y9779500D02*
D03*
X12658900D02*
D03*
X12988901Y10097000D02*
D03*
X12658900D02*
D03*
X12988901Y10414500D02*
D03*
X12658900D02*
D03*
D26*
X13743500Y10998700D02*
D03*
Y11778700D02*
D03*
X16804700D02*
D03*
Y10998700D02*
D03*
D27*
X14503500Y11388700D02*
D03*
X17564700D02*
D03*
D28*
X16346899Y12039500D02*
D03*
Y11939500D02*
D03*
Y11739500D02*
D03*
Y11639500D02*
D03*
Y11439500D02*
D03*
Y11339500D02*
D03*
Y11139500D02*
D03*
Y11039500D02*
D03*
Y10839500D02*
D03*
Y10739500D02*
D03*
X16246899Y12039500D02*
D03*
Y11939500D02*
D03*
Y11739500D02*
D03*
Y11639500D02*
D03*
Y11439500D02*
D03*
Y11339500D02*
D03*
Y11139500D02*
D03*
Y11039500D02*
D03*
Y10839500D02*
D03*
Y10739500D02*
D03*
X16146899Y12039500D02*
D03*
Y11939500D02*
D03*
Y11739500D02*
D03*
Y11639500D02*
D03*
Y11439500D02*
D03*
Y11339500D02*
D03*
Y11139500D02*
D03*
Y11039500D02*
D03*
Y10839500D02*
D03*
Y10739500D02*
D03*
X16046899Y12039500D02*
D03*
Y11939500D02*
D03*
Y11739500D02*
D03*
Y11639500D02*
D03*
Y11439500D02*
D03*
Y11339500D02*
D03*
Y11139500D02*
D03*
Y11039500D02*
D03*
Y10839500D02*
D03*
Y10739500D02*
D03*
X15946899Y11439500D02*
D03*
Y11339500D02*
D03*
X15846899Y12039500D02*
D03*
Y11939500D02*
D03*
Y11839500D02*
D03*
Y11739500D02*
D03*
Y11639500D02*
D03*
Y11539500D02*
D03*
Y11439500D02*
D03*
Y11339500D02*
D03*
Y11239500D02*
D03*
Y11139500D02*
D03*
Y11039500D02*
D03*
Y10939500D02*
D03*
Y10739500D02*
D03*
X15746899Y12039500D02*
D03*
Y11939500D02*
D03*
Y11839500D02*
D03*
Y11739500D02*
D03*
Y11639500D02*
D03*
Y11539500D02*
D03*
Y11439500D02*
D03*
Y11339500D02*
D03*
Y11239500D02*
D03*
Y11139500D02*
D03*
Y11039500D02*
D03*
Y10939500D02*
D03*
Y10739500D02*
D03*
X15646899Y12039500D02*
D03*
Y11939500D02*
D03*
Y11839500D02*
D03*
Y11739500D02*
D03*
Y11639500D02*
D03*
Y11539500D02*
D03*
Y11439500D02*
D03*
Y11339500D02*
D03*
Y11239500D02*
D03*
Y11139500D02*
D03*
Y11039500D02*
D03*
Y10939500D02*
D03*
X15546899Y12039500D02*
D03*
Y11939500D02*
D03*
Y11839500D02*
D03*
Y11739500D02*
D03*
Y11639500D02*
D03*
Y11539500D02*
D03*
Y11439500D02*
D03*
Y11339500D02*
D03*
Y11239500D02*
D03*
Y11139500D02*
D03*
Y11039500D02*
D03*
Y10939500D02*
D03*
Y10839500D02*
D03*
Y10739500D02*
D03*
X15446899Y12039500D02*
D03*
Y11939500D02*
D03*
Y11839500D02*
D03*
Y11739500D02*
D03*
Y11639500D02*
D03*
Y11539500D02*
D03*
Y11439500D02*
D03*
Y11339500D02*
D03*
Y11239500D02*
D03*
Y11139500D02*
D03*
Y11039500D02*
D03*
Y10939500D02*
D03*
Y10839500D02*
D03*
Y10739500D02*
D03*
X13288901Y12039500D02*
D03*
Y11939500D02*
D03*
Y11739500D02*
D03*
Y11639500D02*
D03*
Y11439500D02*
D03*
Y11339500D02*
D03*
Y11139500D02*
D03*
Y11039500D02*
D03*
Y10839500D02*
D03*
Y10739500D02*
D03*
X13188901Y12039500D02*
D03*
Y11939500D02*
D03*
Y11739500D02*
D03*
Y11639500D02*
D03*
Y11439500D02*
D03*
Y11339500D02*
D03*
Y11139500D02*
D03*
Y11039500D02*
D03*
Y10839500D02*
D03*
Y10739500D02*
D03*
X13088901Y12039500D02*
D03*
Y11939500D02*
D03*
Y11739500D02*
D03*
Y11639500D02*
D03*
Y11439500D02*
D03*
Y11339500D02*
D03*
Y11139500D02*
D03*
Y11039500D02*
D03*
Y10839500D02*
D03*
Y10739500D02*
D03*
X12988901Y12039500D02*
D03*
Y11939500D02*
D03*
Y11739500D02*
D03*
Y11639500D02*
D03*
Y11439500D02*
D03*
Y11339500D02*
D03*
Y11139500D02*
D03*
Y11039500D02*
D03*
Y10839500D02*
D03*
Y10739500D02*
D03*
X12888901Y11439500D02*
D03*
Y11339500D02*
D03*
X12788900Y12039500D02*
D03*
Y11939500D02*
D03*
Y11839500D02*
D03*
Y11739500D02*
D03*
Y11639500D02*
D03*
Y11539500D02*
D03*
Y11439500D02*
D03*
Y11339500D02*
D03*
Y11239500D02*
D03*
Y11139500D02*
D03*
Y11039500D02*
D03*
Y10939500D02*
D03*
Y10739500D02*
D03*
X12688900Y12039500D02*
D03*
Y11939500D02*
D03*
Y11839500D02*
D03*
Y11739500D02*
D03*
Y11639500D02*
D03*
Y11539500D02*
D03*
Y11439500D02*
D03*
Y11339500D02*
D03*
Y11239500D02*
D03*
Y11139500D02*
D03*
Y11039500D02*
D03*
Y10939500D02*
D03*
Y10739500D02*
D03*
X12588900Y12039500D02*
D03*
Y11939500D02*
D03*
Y11839500D02*
D03*
Y11739500D02*
D03*
Y11639500D02*
D03*
Y11539500D02*
D03*
Y11439500D02*
D03*
Y11339500D02*
D03*
Y11239500D02*
D03*
Y11139500D02*
D03*
Y11039500D02*
D03*
Y10939500D02*
D03*
X12488900Y12039500D02*
D03*
Y11939500D02*
D03*
Y11839500D02*
D03*
Y11739500D02*
D03*
Y11639500D02*
D03*
Y11539500D02*
D03*
Y11439500D02*
D03*
Y11339500D02*
D03*
Y11239500D02*
D03*
Y11139500D02*
D03*
Y11039500D02*
D03*
Y10939500D02*
D03*
Y10839500D02*
D03*
Y10739500D02*
D03*
X12388900Y12039500D02*
D03*
Y11939500D02*
D03*
Y11839500D02*
D03*
Y11739500D02*
D03*
Y11639500D02*
D03*
Y11539500D02*
D03*
Y11439500D02*
D03*
Y11339500D02*
D03*
Y11239500D02*
D03*
Y11139500D02*
D03*
Y11039500D02*
D03*
Y10939500D02*
D03*
Y10839500D02*
D03*
Y10739500D02*
D03*
D29*
X17578127Y7622715D02*
D03*
Y7902715D02*
D03*
X17794026Y7622715D02*
D03*
Y7902715D02*
D03*
X13881100D02*
D03*
Y7622715D02*
D03*
X13639799Y7902715D02*
D03*
Y7622715D02*
D03*
X15875000D02*
D03*
Y7902715D02*
D03*
X15646400Y7622715D02*
D03*
Y7902715D02*
D03*
D30*
X9359900Y8966400D02*
D03*
Y9166400D02*
D03*
Y9366400D02*
D03*
Y9566400D02*
D03*
Y9766400D02*
D03*
Y9966400D02*
D03*
Y10166400D02*
D03*
Y10366400D02*
D03*
Y10566400D02*
D03*
Y10766400D02*
D03*
D31*
X10795000Y12230100D02*
D03*
X11303000D02*
D03*
X9639300D02*
D03*
X10147300D02*
D03*
D32*
X11049000Y13220700D02*
D03*
X9893300D02*
D03*
D33*
X17170399Y8073600D02*
D03*
Y7623600D02*
D03*
X15201900Y8048200D02*
D03*
Y7598200D02*
D03*
X13195300Y8035500D02*
D03*
Y7585500D02*
D03*
D34*
X7035800Y11050200D02*
D03*
Y11200200D02*
D03*
D35*
X9829800Y11531600D02*
D03*
D36*
X12382500Y7981798D02*
D03*
Y8121797D02*
D03*
X12522200D02*
D03*
Y7981798D02*
D03*
X12661900Y8121797D02*
D03*
Y7981798D02*
D03*
X12242800D02*
D03*
Y8121797D02*
D03*
X12103100D02*
D03*
Y7981798D02*
D03*
X14655800D02*
D03*
Y8121797D02*
D03*
X14516100Y7981798D02*
D03*
Y8121797D02*
D03*
X14376401D02*
D03*
Y7981798D02*
D03*
X14236700Y8121797D02*
D03*
Y7981798D02*
D03*
X14097000D02*
D03*
Y8121797D02*
D03*
X16090900Y8121802D02*
D03*
Y7981798D02*
D03*
X16230600D02*
D03*
Y8121797D02*
D03*
X16510001Y8121802D02*
D03*
Y7981798D02*
D03*
X16370300D02*
D03*
Y8121797D02*
D03*
X16637000Y8121802D02*
D03*
Y7981798D02*
D03*
D37*
X12928900Y6718300D02*
D03*
X12648901D02*
D03*
X12928900Y6946900D02*
D03*
X12648901D02*
D03*
X14655499Y6972300D02*
D03*
X14935500D02*
D03*
X14655499Y6731000D02*
D03*
X14935500D02*
D03*
X16929401Y6934200D02*
D03*
X16649400D02*
D03*
X16929401Y6705600D02*
D03*
X16649400D02*
D03*
D38*
X9829800Y11715598D02*
D03*
D39*
X10228001Y11623599D02*
D03*
D40*
X7950200Y12932700D02*
D03*
Y12492700D02*
D03*
D144*
X13358000Y9197900D02*
D03*
Y8929900D02*
D03*
X11988000Y8879900D02*
D03*
D145*
Y9147900D02*
D03*
D146*
X9513900Y11151400D02*
D03*
X9245900D02*
D03*
X9563899Y8581401D02*
D03*
X9295900Y8581401D02*
D03*
%TF.MD5,61384d9f3450cdd24f523e16f65610c3*%
M02*
