%TF.GenerationSoftware,Altium Limited,Altium Designer,23.2.1 (34)*%
G04 Layer_Color=128*
%FSLAX45Y45*%
%MOMM*%
%TF.SameCoordinates,BB813F71-6509-4A9A-A67D-B2EC92C530A4*%
%TF.FilePolarity,Positive*%
%TF.FileFunction,Paste,Bot*%
%TF.Part,Single*%
G01*
G75*
%TA.AperFunction,SMDPad,CuDef*%
%ADD13R,0.85000X1.35000*%
%ADD15R,1.11760X1.44780*%
%ADD20R,0.96520X0.66040*%
%ADD30R,0.90000X0.70000*%
%ADD74R,0.80650X1.30822*%
%ADD75R,0.66040X0.96520*%
%ADD76R,0.81280X0.25400*%
%ADD77R,0.25400X0.81280*%
%ADD79R,0.60960X0.55880*%
%ADD80R,0.55880X0.60960*%
%ADD82R,0.80000X0.95000*%
%ADD83R,0.80000X0.90000*%
%ADD138R,1.10000X1.10000*%
G36*
X12514420Y10467500D02*
X12626500D01*
Y10304620D01*
X12514420D01*
Y10467500D01*
D02*
G37*
G36*
X12646500D02*
X12758580D01*
Y10304620D01*
X12646500D01*
Y10467500D01*
D02*
G37*
G36*
X12514420Y10650380D02*
X12626500D01*
Y10487500D01*
X12514420D01*
Y10650380D01*
D02*
G37*
G36*
X12646500D02*
X12758580D01*
Y10487500D01*
X12646500D01*
Y10650380D01*
D02*
G37*
D13*
X9188500Y9144000D02*
D03*
X9353500D02*
D03*
D15*
X12155170Y10680700D02*
D03*
X11974830D02*
D03*
X13315950Y10033000D02*
D03*
X13135609D02*
D03*
D20*
X12382500Y11055350D02*
D03*
Y10915650D02*
D03*
X12814301Y11055350D02*
D03*
Y10915650D02*
D03*
X12966701Y11055350D02*
D03*
Y10915650D02*
D03*
X12382500Y9912350D02*
D03*
Y10052050D02*
D03*
X12547600Y9912350D02*
D03*
Y10052050D02*
D03*
X12738100D02*
D03*
Y9912350D02*
D03*
D30*
X11112500Y12096598D02*
D03*
Y12236597D02*
D03*
X9639300D02*
D03*
Y12096598D02*
D03*
D74*
X9832994Y9144000D02*
D03*
X10003165D02*
D03*
X9832994Y6819900D02*
D03*
X10003165D02*
D03*
X9832994Y7035800D02*
D03*
X10003165D02*
D03*
X9832994Y8928100D02*
D03*
X10003165D02*
D03*
X9832994Y7988300D02*
D03*
X10003165D02*
D03*
X9832994Y8204200D02*
D03*
X10003165D02*
D03*
X9832994Y7620000D02*
D03*
X10003165D02*
D03*
X9832994Y7404100D02*
D03*
X10003165D02*
D03*
D75*
X12185650Y10464800D02*
D03*
X12045950D02*
D03*
X13252451Y10947400D02*
D03*
X13112750D02*
D03*
X13252451Y10655300D02*
D03*
X13112750D02*
D03*
X13252451Y10490200D02*
D03*
X13112750D02*
D03*
X13252451Y9818688D02*
D03*
X13112750D02*
D03*
Y9626600D02*
D03*
X13252451D02*
D03*
X12185650Y9906000D02*
D03*
X12045950D02*
D03*
X12185650Y10071100D02*
D03*
X12045950D02*
D03*
D76*
X12830811Y10652544D02*
D03*
Y10602531D02*
D03*
Y10552519D02*
D03*
Y10502506D02*
D03*
Y10452494D02*
D03*
Y10402481D02*
D03*
Y10352468D02*
D03*
Y10302456D02*
D03*
X12442190D02*
D03*
Y10352468D02*
D03*
Y10402481D02*
D03*
Y10452494D02*
D03*
Y10502506D02*
D03*
Y10552519D02*
D03*
Y10602531D02*
D03*
Y10652544D02*
D03*
D77*
X12761531Y10232390D02*
D03*
X12711519D02*
D03*
X12661506D02*
D03*
X12611494D02*
D03*
X12561481D02*
D03*
X12511468D02*
D03*
Y10722610D02*
D03*
X12561481D02*
D03*
X12611494D02*
D03*
X12661506D02*
D03*
X12711519D02*
D03*
X12761531D02*
D03*
D79*
X12560300Y10994390D02*
D03*
Y10910570D02*
D03*
X12674600D02*
D03*
Y10994390D02*
D03*
X13309599Y10347007D02*
D03*
Y10263187D02*
D03*
D80*
X13107671Y10807700D02*
D03*
X13191490D02*
D03*
X13107671Y10344468D02*
D03*
X13191490D02*
D03*
X13107671Y10212387D02*
D03*
X13191490D02*
D03*
D82*
X7123700Y11125200D02*
D03*
X6998700D02*
D03*
D83*
X7372100Y9171000D02*
D03*
X7182100D02*
D03*
X7277100Y9371000D02*
D03*
D138*
X11886900Y10236200D02*
D03*
X12166900D02*
D03*
X11886900Y10922000D02*
D03*
X12166900D02*
D03*
%TF.MD5,2fe18639e83a308bb72e0efda87243c9*%
M02*
