%TF.GenerationSoftware,Altium Limited,Altium Designer,23.2.1 (34)*%
G04 Layer_Color=16711935*
%FSLAX45Y45*%
%MOMM*%
%TF.SameCoordinates,BB813F71-6509-4A9A-A67D-B2EC92C530A4*%
%TF.FilePolarity,Negative*%
%TF.FileFunction,Soldermask,Bot*%
%TF.Part,Single*%
G01*
G75*
%TA.AperFunction,ComponentPad*%
%ADD47C,1.30000*%
%TA.AperFunction,SMDPad,CuDef*%
%ADD74R,0.80650X1.30822*%
%ADD76R,0.81280X0.25400*%
%ADD77R,0.25400X0.81280*%
%ADD78R,2.64160X3.65760*%
%ADD96R,1.05320X1.55320*%
%ADD97R,1.32080X1.65100*%
%ADD102R,1.16840X0.86360*%
%ADD111R,1.10320X0.90320*%
%TA.AperFunction,ComponentPad*%
%ADD118C,2.00320*%
%ADD119R,2.00320X2.00320*%
%ADD120C,6.30320*%
%ADD121C,2.30320*%
%ADD122C,1.76320*%
%ADD123R,1.57320X1.57320*%
%ADD124C,1.57320*%
%ADD125C,0.60160*%
%ADD126C,9.70320*%
%ADD127C,2.23520*%
%TA.AperFunction,TestPad*%
%ADD128C,2.23520*%
%TA.AperFunction,ViaPad*%
%ADD129C,0.83820*%
%TA.AperFunction,SMDPad,CuDef*%
%ADD130R,0.86360X1.16840*%
%ADD131R,0.81280X0.76200*%
%ADD132R,0.76200X0.81280*%
%ADD133R,1.30160X1.30160*%
%ADD134R,1.00320X1.15320*%
%ADD135R,1.00320X1.10320*%
D47*
X9479900Y11151400D02*
D03*
X9279900D02*
D03*
X9529900Y8581400D02*
D03*
X9329900D02*
D03*
D74*
X9832994Y9144000D02*
D03*
X10003165D02*
D03*
X9832994Y6819900D02*
D03*
X10003165D02*
D03*
X9832994Y7035800D02*
D03*
X10003165D02*
D03*
X9832994Y8928100D02*
D03*
X10003165D02*
D03*
X9832994Y7988300D02*
D03*
X10003165D02*
D03*
X9832994Y8204200D02*
D03*
X10003165D02*
D03*
X9832994Y7620000D02*
D03*
X10003165D02*
D03*
X9832994Y7404100D02*
D03*
X10003165D02*
D03*
D76*
X12830811Y10652544D02*
D03*
Y10602531D02*
D03*
Y10552519D02*
D03*
Y10502506D02*
D03*
Y10452494D02*
D03*
Y10402481D02*
D03*
Y10352468D02*
D03*
Y10302456D02*
D03*
X12442190D02*
D03*
Y10352468D02*
D03*
Y10402481D02*
D03*
Y10452494D02*
D03*
Y10502506D02*
D03*
Y10552519D02*
D03*
Y10602531D02*
D03*
Y10652544D02*
D03*
D77*
X12761531Y10232390D02*
D03*
X12711519D02*
D03*
X12661506D02*
D03*
X12611494D02*
D03*
X12561481D02*
D03*
X12511468D02*
D03*
Y10722610D02*
D03*
X12561481D02*
D03*
X12611494D02*
D03*
X12661506D02*
D03*
X12711519D02*
D03*
X12761531D02*
D03*
D78*
X12636500Y10477500D02*
D03*
D96*
X9188500Y9144000D02*
D03*
X9353500D02*
D03*
D97*
X12155170Y10680700D02*
D03*
X11974830D02*
D03*
X13315950Y10033000D02*
D03*
X13135609D02*
D03*
D102*
X12382500Y11055350D02*
D03*
Y10915650D02*
D03*
X12814301Y11055350D02*
D03*
Y10915650D02*
D03*
X12966701Y11055350D02*
D03*
Y10915650D02*
D03*
X12382500Y9912350D02*
D03*
Y10052050D02*
D03*
X12547600Y9912350D02*
D03*
Y10052050D02*
D03*
X12738100D02*
D03*
Y9912350D02*
D03*
D111*
X11112500Y12096598D02*
D03*
Y12236597D02*
D03*
X9639300D02*
D03*
Y12096598D02*
D03*
D118*
X8432800Y10160000D02*
D03*
Y9906000D02*
D03*
Y9652000D02*
D03*
Y9398000D02*
D03*
Y9144000D02*
D03*
Y8890000D02*
D03*
Y8636000D02*
D03*
Y8382000D02*
D03*
Y8128000D02*
D03*
Y7874000D02*
D03*
Y7620000D02*
D03*
Y7366000D02*
D03*
Y7112000D02*
D03*
Y6858000D02*
D03*
Y6604000D02*
D03*
X6908800D02*
D03*
Y6858000D02*
D03*
Y7112000D02*
D03*
Y7366000D02*
D03*
Y7620000D02*
D03*
Y7874000D02*
D03*
Y8128000D02*
D03*
Y8382000D02*
D03*
Y8636000D02*
D03*
Y8890000D02*
D03*
Y9144000D02*
D03*
Y9398000D02*
D03*
Y9652000D02*
D03*
Y9906000D02*
D03*
D119*
Y10160000D02*
D03*
D120*
X18135600Y8293100D02*
D03*
X6858000Y13525500D02*
D03*
Y5778500D02*
D03*
X17843500Y13525500D02*
D03*
X17602200Y5778500D02*
D03*
X18021300Y10160000D02*
D03*
X9461500Y5778500D02*
D03*
D121*
X19545300Y7370249D02*
D03*
Y5872749D02*
D03*
Y11459647D02*
D03*
Y9962149D02*
D03*
Y9414949D02*
D03*
Y7917449D02*
D03*
Y13504347D02*
D03*
Y12006849D02*
D03*
D122*
X18822800Y5877749D02*
D03*
Y6127749D02*
D03*
Y6377749D02*
D03*
Y6627749D02*
D03*
Y6877749D02*
D03*
Y7127749D02*
D03*
Y7377749D02*
D03*
X18572800Y5877749D02*
D03*
Y6127749D02*
D03*
Y6377749D02*
D03*
Y6627749D02*
D03*
Y6877749D02*
D03*
Y7127749D02*
D03*
Y7377749D02*
D03*
X18822803Y9967148D02*
D03*
Y10217150D02*
D03*
Y10467147D02*
D03*
Y10717149D02*
D03*
Y10967146D02*
D03*
Y11217148D02*
D03*
Y11467150D02*
D03*
X18572800Y9967148D02*
D03*
Y10217150D02*
D03*
Y10467147D02*
D03*
Y10717149D02*
D03*
Y10967146D02*
D03*
Y11217148D02*
D03*
Y11467150D02*
D03*
X18822800Y7922449D02*
D03*
Y8172449D02*
D03*
Y8422449D02*
D03*
Y8672449D02*
D03*
Y8922449D02*
D03*
Y9172449D02*
D03*
Y9422449D02*
D03*
X18572800Y7922449D02*
D03*
Y8172449D02*
D03*
Y8422449D02*
D03*
Y8672449D02*
D03*
Y8922449D02*
D03*
Y9172449D02*
D03*
Y9422449D02*
D03*
X18822803Y12011848D02*
D03*
Y12261850D02*
D03*
Y12511847D02*
D03*
Y12761849D02*
D03*
Y13011845D02*
D03*
Y13261848D02*
D03*
Y13511850D02*
D03*
X18572800Y12011848D02*
D03*
Y12261850D02*
D03*
Y12511847D02*
D03*
Y12761849D02*
D03*
Y13011845D02*
D03*
Y13261848D02*
D03*
Y13511850D02*
D03*
D123*
X6616700Y10160000D02*
D03*
X8724900D02*
D03*
D124*
X6616700Y9906000D02*
D03*
Y9652000D02*
D03*
Y9398000D02*
D03*
Y9144000D02*
D03*
Y8890000D02*
D03*
Y8636000D02*
D03*
Y8382000D02*
D03*
Y8128000D02*
D03*
Y7874000D02*
D03*
Y7620000D02*
D03*
Y7366000D02*
D03*
Y7112000D02*
D03*
Y6858000D02*
D03*
Y6604000D02*
D03*
X8724900Y9906000D02*
D03*
Y9652000D02*
D03*
Y9398000D02*
D03*
Y9144000D02*
D03*
Y8890000D02*
D03*
Y8636000D02*
D03*
Y8382000D02*
D03*
Y8128000D02*
D03*
Y7874000D02*
D03*
Y7620000D02*
D03*
Y7366000D02*
D03*
Y7112000D02*
D03*
Y6858000D02*
D03*
Y6604000D02*
D03*
D125*
X16660800Y7505700D02*
D03*
X16560800Y7565700D02*
D03*
Y7445700D02*
D03*
X16460800Y7505700D02*
D03*
X14679601D02*
D03*
X14579601Y7565700D02*
D03*
Y7445700D02*
D03*
X14479601Y7505700D02*
D03*
X12673000D02*
D03*
X12573000Y7565700D02*
D03*
Y7445700D02*
D03*
X12473000Y7505700D02*
D03*
D126*
X8674100Y12090400D02*
D03*
Y13208000D02*
D03*
D127*
X6725369Y11120947D02*
D03*
X17335500Y7239000D02*
D03*
X8216900Y5867400D02*
D03*
X8483600D02*
D03*
D128*
X7543800Y12382500D02*
D03*
Y12065000D02*
D03*
Y12700000D02*
D03*
Y11430000D02*
D03*
Y13017500D02*
D03*
Y11747500D02*
D03*
D129*
X12357100Y11379200D02*
D03*
X11886097Y10565668D02*
D03*
X12280900Y10566400D02*
D03*
X16979900Y7251700D02*
D03*
X13639799Y7457915D02*
D03*
X15646400D02*
D03*
X17590826D02*
D03*
X13373100Y9817100D02*
D03*
X10033000Y7797800D02*
D03*
X9575800Y7112000D02*
D03*
Y7874000D02*
D03*
Y7366000D02*
D03*
Y7620000D02*
D03*
X10039660Y6629400D02*
D03*
X9931400Y8737600D02*
D03*
X10033000Y7213600D02*
D03*
X13373100Y10934700D02*
D03*
Y11112500D02*
D03*
Y11379200D02*
D03*
X12560300Y11112500D02*
D03*
X12738100Y13702029D02*
D03*
X13449300D02*
D03*
X12452350Y12288520D02*
D03*
X15836900Y9853930D02*
D03*
X16598900D02*
D03*
X13766800Y9918700D02*
D03*
X13868401D02*
D03*
X13970000D02*
D03*
Y9817100D02*
D03*
X13868401D02*
D03*
X13766800D02*
D03*
Y9715500D02*
D03*
X13970000D02*
D03*
X13868401D02*
D03*
X12280900Y11112500D02*
D03*
X12839700Y9817100D02*
D03*
X13373100Y10426700D02*
D03*
Y10680700D02*
D03*
Y10807700D02*
D03*
X14236700Y12484100D02*
D03*
X9791700Y12230100D02*
D03*
X10960100D02*
D03*
X11633200Y12484100D02*
D03*
X12424410Y10807700D02*
D03*
X12280900D02*
D03*
X12039600Y10579100D02*
D03*
Y10807700D02*
D03*
X12839700Y9550400D02*
D03*
X12407900Y9804400D02*
D03*
Y10236200D02*
D03*
X12039600Y10363200D02*
D03*
X12280900Y10236200D02*
D03*
X13373100Y10172700D02*
D03*
X12039600Y11112500D02*
D03*
X9791700Y12007850D02*
D03*
X10963201D02*
D03*
X13417551Y11918950D02*
D03*
X13868401Y8813800D02*
D03*
X13970000D02*
D03*
X14236700Y11671300D02*
D03*
X17284700Y9017000D02*
D03*
X17183099D02*
D03*
X9715500Y9359900D02*
D03*
X7035800Y10896600D02*
D03*
X7340600Y11163300D02*
D03*
X17513300Y8115300D02*
D03*
X17183099Y8813800D02*
D03*
X17081500D02*
D03*
X17284700D02*
D03*
X17183099Y8915400D02*
D03*
X17284700D02*
D03*
X17081500D02*
D03*
Y9017000D02*
D03*
X17386301Y8813800D02*
D03*
Y9017000D02*
D03*
Y8915400D02*
D03*
X17513300Y12979401D02*
D03*
X17614900D02*
D03*
Y12877800D02*
D03*
X17513300D02*
D03*
X16370300Y6908800D02*
D03*
X11442700Y11010900D02*
D03*
Y10909300D02*
D03*
Y11112500D02*
D03*
X11341100D02*
D03*
Y10909300D02*
D03*
Y11010900D02*
D03*
X11544300Y10909300D02*
D03*
Y11010900D02*
D03*
Y11112500D02*
D03*
X11137900Y11010900D02*
D03*
Y10909300D02*
D03*
Y11112500D02*
D03*
X11036300D02*
D03*
Y10909300D02*
D03*
Y11010900D02*
D03*
X11239500Y10909300D02*
D03*
Y11010900D02*
D03*
Y11112500D02*
D03*
X8750300Y10553700D02*
D03*
Y10655300D02*
D03*
Y10756900D02*
D03*
Y11163300D02*
D03*
Y11061700D02*
D03*
Y10960100D02*
D03*
Y10858500D02*
D03*
X8547100Y11061700D02*
D03*
Y10655300D02*
D03*
Y10858500D02*
D03*
Y10960100D02*
D03*
Y11163300D02*
D03*
Y10756900D02*
D03*
Y10553700D02*
D03*
X8648700Y10858500D02*
D03*
Y10960100D02*
D03*
Y11061700D02*
D03*
Y11163300D02*
D03*
Y10756900D02*
D03*
Y10655300D02*
D03*
Y10553700D02*
D03*
X9817100Y9359900D02*
D03*
X10223500D02*
D03*
X10020300D02*
D03*
X9817100Y9969500D02*
D03*
X10020300Y9461500D02*
D03*
Y9563100D02*
D03*
X10223500Y9461500D02*
D03*
Y9563100D02*
D03*
X9817100Y9461500D02*
D03*
Y9563100D02*
D03*
X10223500Y9969500D02*
D03*
Y9867900D02*
D03*
Y9766300D02*
D03*
Y9664700D02*
D03*
X10020300Y9867900D02*
D03*
Y9766300D02*
D03*
Y9664700D02*
D03*
Y9969500D02*
D03*
X9817100Y9867900D02*
D03*
Y9766300D02*
D03*
Y9664700D02*
D03*
X10121900Y9359900D02*
D03*
X9918700Y9766300D02*
D03*
Y9664700D02*
D03*
X10121900Y9563100D02*
D03*
Y9969500D02*
D03*
Y9766300D02*
D03*
Y9664700D02*
D03*
Y9461500D02*
D03*
Y9867900D02*
D03*
X9715500Y9664700D02*
D03*
Y9766300D02*
D03*
Y9563100D02*
D03*
Y9461500D02*
D03*
X9918700Y9969500D02*
D03*
X9715500D02*
D03*
X9918700Y9563100D02*
D03*
Y9359900D02*
D03*
Y9461500D02*
D03*
X9715500Y9867900D02*
D03*
X9918700D02*
D03*
X14071600Y8813800D02*
D03*
X13766800D02*
D03*
Y8915400D02*
D03*
X13868401D02*
D03*
X13970000D02*
D03*
X14071600D02*
D03*
Y9017000D02*
D03*
X13970000D02*
D03*
X13868401D02*
D03*
X13766800D02*
D03*
X14706599Y12865100D02*
D03*
X14605000D02*
D03*
X11671300Y12814301D02*
D03*
X12382500Y6794502D02*
D03*
X12153900D02*
D03*
Y6908802D02*
D03*
X14097000Y8267700D02*
D03*
X14808200Y8191500D02*
D03*
X14160500Y7035800D02*
D03*
X14274800Y6921500D02*
D03*
X14389101Y7035800D02*
D03*
X14274800D02*
D03*
Y6807200D02*
D03*
X14160500Y6921500D02*
D03*
Y6807200D02*
D03*
X14389101D02*
D03*
Y6921500D02*
D03*
X15887700Y8077500D02*
D03*
X15659100D02*
D03*
X15773399D02*
D03*
X14986000Y7264400D02*
D03*
X14871700Y7378700D02*
D03*
X16141701Y7023100D02*
D03*
X16256000D02*
D03*
X16370300D02*
D03*
X16256000Y6908800D02*
D03*
X16141701D02*
D03*
Y6794500D02*
D03*
X16256000D02*
D03*
X16370300D02*
D03*
X12153900Y7023102D02*
D03*
X12268200D02*
D03*
X12382500D02*
D03*
Y6908802D02*
D03*
X12268200D02*
D03*
Y6794502D02*
D03*
X14605000Y13169901D02*
D03*
X14706599D02*
D03*
Y12966701D02*
D03*
Y13068300D02*
D03*
X14605000Y12966701D02*
D03*
Y13068300D02*
D03*
X15011400Y12966701D02*
D03*
X15113000D02*
D03*
X14808200Y13169901D02*
D03*
X15113000Y12865100D02*
D03*
X15011400D02*
D03*
X14909801D02*
D03*
X14808200D02*
D03*
X14909801Y13169901D02*
D03*
X15113000D02*
D03*
X15011400Y13068300D02*
D03*
X14909801Y12966701D02*
D03*
X15011400Y13169901D02*
D03*
X14808200Y13068300D02*
D03*
Y12966701D02*
D03*
X14909801Y13068300D02*
D03*
X15113000D02*
D03*
X16764000Y12979401D02*
D03*
X13881100Y8064499D02*
D03*
X13652499D02*
D03*
X13766800D02*
D03*
X17741901Y8115300D02*
D03*
X17627600D02*
D03*
X11671300Y13373100D02*
D03*
Y13093700D02*
D03*
Y13233400D02*
D03*
Y13512801D02*
D03*
Y13652499D02*
D03*
Y12953999D02*
D03*
X11811000Y12814301D02*
D03*
Y12953999D02*
D03*
Y13652499D02*
D03*
Y13512801D02*
D03*
Y13373100D02*
D03*
Y13233400D02*
D03*
Y13093700D02*
D03*
X12852400Y7366000D02*
D03*
X12839700Y8204200D02*
D03*
X12966701Y7251700D02*
D03*
X12103100Y8305800D02*
D03*
X16827499Y7378700D02*
D03*
X16090900Y8242300D02*
D03*
X16814799Y8166100D02*
D03*
D130*
X12185650Y10464800D02*
D03*
X12045950D02*
D03*
X13252451Y10947400D02*
D03*
X13112750D02*
D03*
X13252451Y10655300D02*
D03*
X13112750D02*
D03*
X13252451Y10490200D02*
D03*
X13112750D02*
D03*
X13252451Y9818688D02*
D03*
X13112750D02*
D03*
Y9626600D02*
D03*
X13252451D02*
D03*
X12185650Y9906000D02*
D03*
X12045950D02*
D03*
X12185650Y10071100D02*
D03*
X12045950D02*
D03*
D131*
X12560300Y10994390D02*
D03*
Y10910570D02*
D03*
X12674600D02*
D03*
Y10994390D02*
D03*
X13309599Y10347007D02*
D03*
Y10263187D02*
D03*
D132*
X13107671Y10807700D02*
D03*
X13191490D02*
D03*
X13107671Y10344468D02*
D03*
X13191490D02*
D03*
X13107671Y10212387D02*
D03*
X13191490D02*
D03*
D133*
X11886900Y10236200D02*
D03*
X12166900D02*
D03*
X11886900Y10922000D02*
D03*
X12166900D02*
D03*
D134*
X7123700Y11125200D02*
D03*
X6998700D02*
D03*
D135*
X7372100Y9171000D02*
D03*
X7182100D02*
D03*
X7277100Y9371000D02*
D03*
%TF.MD5,efe7d867f699bb41a0b25368973e8b35*%
M02*
