%TF.GenerationSoftware,Altium Limited,Altium Designer,23.2.1 (34)*%
G04 Layer_Physical_Order=4*
G04 Layer_Color=16440176*
%FSLAX45Y45*%
%MOMM*%
%TF.SameCoordinates,768AFDF4-F756-44AC-9BB4-61F16B6E1C3C*%
%TF.FilePolarity,Positive*%
%TF.FileFunction,Copper,L4,Inr,Signal*%
%TF.Part,Single*%
G01*
G75*
%TA.AperFunction,Conductor*%
%ADD37C,0.25400*%
%TA.AperFunction,ComponentPad*%
%ADD44C,1.80000*%
%ADD46C,6.10000*%
%ADD47C,1.30000*%
%ADD48C,2.10000*%
%ADD49C,1.56000*%
%ADD50R,1.37000X1.37000*%
%ADD51C,1.37000*%
%ADD53C,9.50000*%
%ADD54C,2.03200*%
%TA.AperFunction,TestPad*%
%ADD55C,2.03200*%
%TA.AperFunction,ViaPad*%
%ADD56C,0.63500*%
%TA.AperFunction,ComponentPad*%
%ADD73C,1.52400*%
G36*
X17535785Y13639799D02*
X17543250Y13629526D01*
X17533623Y13599895D01*
X17525800Y13550504D01*
Y13500496D01*
X17533623Y13451105D01*
X17549075Y13403545D01*
X17571779Y13358989D01*
X17601172Y13318532D01*
X17636533Y13283173D01*
X17676990Y13253780D01*
X17721545Y13231076D01*
X17769106Y13215623D01*
X17818497Y13207800D01*
X17868504D01*
X17917896Y13215623D01*
X17965456Y13231076D01*
X18010011Y13253780D01*
X18050468Y13283173D01*
X18085828Y13318532D01*
X18115221Y13358989D01*
X18137924Y13403545D01*
X18153377Y13451105D01*
X18161200Y13500496D01*
Y13550504D01*
X18153377Y13599895D01*
X18143750Y13629526D01*
X18151215Y13639799D01*
X18592801Y13639799D01*
X18669000Y13563599D01*
Y13220700D01*
X18592799Y13144501D01*
X18516600D01*
X18453101Y13081000D01*
Y12433300D01*
X18503900Y12382500D01*
X18618201D01*
X18669000Y12331700D01*
Y12192000D01*
X18605499Y12128500D01*
X18465800D01*
X17983200Y11645900D01*
X17767300D01*
X17386292Y11264891D01*
X17386285Y9842513D01*
X17665700Y9563100D01*
X18630901D01*
X18694400Y9499600D01*
Y8610600D01*
X18618201Y8534400D01*
X18343596D01*
X18342567Y8535428D01*
X18302110Y8564821D01*
X18257555Y8587524D01*
X18209995Y8602977D01*
X18160603Y8610800D01*
X18110596D01*
X18061205Y8602977D01*
X18013644Y8587524D01*
X17969089Y8564821D01*
X17928632Y8535428D01*
X17927605Y8534400D01*
X13919200D01*
X13550900Y8902700D01*
X13550899Y10947399D01*
X14219901Y11616400D01*
X14225333Y11614150D01*
X14248068D01*
X14269073Y11622851D01*
X14285149Y11638927D01*
X14293851Y11659932D01*
Y11682668D01*
X14291600Y11688100D01*
X14592300Y11988800D01*
X15379700Y12776200D01*
X16929100D01*
X17195799Y13042900D01*
Y13449300D01*
X17386301Y13639799D01*
X17535785D01*
D02*
G37*
G36*
X17094200D02*
Y13042900D01*
X16929100Y12877800D01*
X15260320D01*
X14447520Y12052300D01*
X13386308Y10991088D01*
X13384468Y10991850D01*
X13361732D01*
X13340727Y10983149D01*
X13324651Y10967073D01*
X13315950Y10946068D01*
Y10923332D01*
X13316711Y10921492D01*
X13233400Y10838180D01*
Y8140700D01*
X14008099Y7366000D01*
X14539845D01*
X14545287Y7362859D01*
X14567896Y7356800D01*
X14591304D01*
X14613914Y7362859D01*
X14619354Y7366000D01*
X14815102D01*
X14823251Y7346327D01*
X14839326Y7330251D01*
X14860332Y7321550D01*
X14883067D01*
X14904073Y7330251D01*
X14920149Y7346327D01*
X14928297Y7366000D01*
X16370300D01*
X16471899Y7264399D01*
X16471899Y6616698D01*
X16357600Y6502400D01*
X12001500D01*
X10591800Y7912100D01*
X10591799Y10235797D01*
X10426700Y10400897D01*
Y13652499D01*
X10553700Y13779500D01*
X16954500D01*
X17094200Y13639799D01*
D02*
G37*
G36*
X9182100Y12471400D02*
Y10795000D01*
X8839200Y10452100D01*
X8483600D01*
X8140700Y10795000D01*
Y12484100D01*
X8286750Y12630150D01*
X9023350D01*
X9182100Y12471400D01*
D02*
G37*
G36*
X10325100Y13500099D02*
X10325100Y10248900D01*
X10452100Y10121901D01*
Y9245600D01*
X10325100Y9118600D01*
X9575800D01*
X9461500Y9232900D01*
Y10121900D01*
X9588500Y10248900D01*
Y12280900D01*
X9194800Y12674600D01*
X8394700D01*
X8166100Y12903200D01*
Y13462000D01*
X8432800Y13728700D01*
X10096500D01*
X10325100Y13500099D01*
D02*
G37*
%LPC*%
G36*
X16610268Y9911080D02*
X16587532D01*
X16566527Y9902379D01*
X16550452Y9886303D01*
X16541750Y9865298D01*
Y9842562D01*
X16550452Y9821557D01*
X16566527Y9805481D01*
X16587532Y9796780D01*
X16610268D01*
X16631273Y9805481D01*
X16647350Y9821557D01*
X16656050Y9842562D01*
Y9865298D01*
X16647350Y9886303D01*
X16631273Y9902379D01*
X16610268Y9911080D01*
D02*
G37*
G36*
X15848268D02*
X15825533D01*
X15804527Y9902379D01*
X15788451Y9886303D01*
X15779750Y9865298D01*
Y9842562D01*
X15788451Y9821557D01*
X15804527Y9805481D01*
X15825533Y9796780D01*
X15848268D01*
X15869273Y9805481D01*
X15885349Y9821557D01*
X15894051Y9842562D01*
Y9865298D01*
X15885349Y9886303D01*
X15869273Y9902379D01*
X15848268Y9911080D01*
D02*
G37*
G36*
X13460667Y13759180D02*
X13437932D01*
X13416927Y13750479D01*
X13400851Y13734402D01*
X13392149Y13713399D01*
Y13690662D01*
X13400851Y13669656D01*
X13416927Y13653581D01*
X13437932Y13644881D01*
X13460667D01*
X13481673Y13653581D01*
X13497749Y13669656D01*
X13506450Y13690662D01*
Y13713399D01*
X13497749Y13734402D01*
X13481673Y13750479D01*
X13460667Y13759180D01*
D02*
G37*
G36*
X12749468D02*
X12726732D01*
X12705727Y13750479D01*
X12689651Y13734402D01*
X12680950Y13713399D01*
Y13690662D01*
X12689651Y13669656D01*
X12705727Y13653581D01*
X12726732Y13644881D01*
X12749468D01*
X12770473Y13653581D01*
X12786549Y13669656D01*
X12795250Y13690662D01*
Y13713399D01*
X12786549Y13734402D01*
X12770473Y13750479D01*
X12749468Y13759180D01*
D02*
G37*
G36*
X14248068Y12541250D02*
X14225333D01*
X14204327Y12532549D01*
X14188251Y12516473D01*
X14179550Y12495468D01*
Y12472732D01*
X14188251Y12451727D01*
X14204327Y12435651D01*
X14225333Y12426950D01*
X14248068D01*
X14269073Y12435651D01*
X14285149Y12451727D01*
X14293851Y12472732D01*
Y12495468D01*
X14285149Y12516473D01*
X14269073Y12532549D01*
X14248068Y12541250D01*
D02*
G37*
G36*
X11644568D02*
X11621832D01*
X11600827Y12532549D01*
X11584751Y12516473D01*
X11576050Y12495468D01*
Y12472732D01*
X11584751Y12451727D01*
X11600827Y12435651D01*
X11621832Y12426950D01*
X11644568D01*
X11665573Y12435651D01*
X11681649Y12451727D01*
X11690350Y12472732D01*
Y12495468D01*
X11681649Y12516473D01*
X11665573Y12532549D01*
X11644568Y12541250D01*
D02*
G37*
G36*
X12463718Y12345670D02*
X12440982D01*
X12419977Y12336969D01*
X12403901Y12320893D01*
X12395200Y12299888D01*
Y12277152D01*
X12403901Y12256147D01*
X12419977Y12240071D01*
X12440982Y12231370D01*
X12463718D01*
X12484723Y12240071D01*
X12500799Y12256147D01*
X12509500Y12277152D01*
Y12299888D01*
X12500799Y12320893D01*
X12484723Y12336969D01*
X12463718Y12345670D01*
D02*
G37*
G36*
X10971468Y12287250D02*
X10948732D01*
X10927727Y12278549D01*
X10911651Y12262473D01*
X10902950Y12241468D01*
Y12218732D01*
X10911651Y12197727D01*
X10927727Y12181651D01*
X10948732Y12172950D01*
X10971468D01*
X10992473Y12181651D01*
X11008549Y12197727D01*
X11017250Y12218732D01*
Y12241468D01*
X11008549Y12262473D01*
X10992473Y12278549D01*
X10971468Y12287250D01*
D02*
G37*
G36*
X10974569Y12065000D02*
X10951834D01*
X10930829Y12056299D01*
X10914752Y12040223D01*
X10906051Y12019218D01*
Y11996482D01*
X10914752Y11975477D01*
X10930829Y11959401D01*
X10951834Y11950700D01*
X10974569D01*
X10995574Y11959401D01*
X11011651Y11975477D01*
X11020351Y11996482D01*
Y12019218D01*
X11011651Y12040223D01*
X10995574Y12056299D01*
X10974569Y12065000D01*
D02*
G37*
G36*
X13428918Y11976100D02*
X13406181D01*
X13385178Y11967399D01*
X13369101Y11951323D01*
X13360400Y11930318D01*
Y11907582D01*
X13369101Y11886577D01*
X13385178Y11870501D01*
X13406181Y11861800D01*
X13428918D01*
X13449924Y11870501D01*
X13465999Y11886577D01*
X13474699Y11907582D01*
Y11930318D01*
X13465999Y11951323D01*
X13449924Y11967399D01*
X13428918Y11976100D01*
D02*
G37*
G36*
X13384468Y11436350D02*
X13361732D01*
X13340727Y11427649D01*
X13324651Y11411573D01*
X13315950Y11390568D01*
Y11367832D01*
X13324651Y11346827D01*
X13340727Y11330751D01*
X13361732Y11322050D01*
X13384468D01*
X13405473Y11330751D01*
X13421548Y11346827D01*
X13430251Y11367832D01*
Y11390568D01*
X13421548Y11411573D01*
X13405473Y11427649D01*
X13384468Y11436350D01*
D02*
G37*
G36*
X12368468D02*
X12345732D01*
X12324727Y11427649D01*
X12308651Y11411573D01*
X12299950Y11390568D01*
Y11367832D01*
X12308651Y11346827D01*
X12324727Y11330751D01*
X12345732Y11322050D01*
X12368468D01*
X12389473Y11330751D01*
X12405549Y11346827D01*
X12414250Y11367832D01*
Y11390568D01*
X12405549Y11411573D01*
X12389473Y11427649D01*
X12368468Y11436350D01*
D02*
G37*
G36*
X12292268Y11169650D02*
X12269532D01*
X12248527Y11160949D01*
X12232451Y11144873D01*
X12223750Y11123868D01*
Y11101132D01*
X12232451Y11080127D01*
X12248527Y11064051D01*
X12269532Y11055350D01*
X12292268D01*
X12313273Y11064051D01*
X12329349Y11080127D01*
X12338050Y11101132D01*
Y11123868D01*
X12329349Y11144873D01*
X12313273Y11160949D01*
X12292268Y11169650D01*
D02*
G37*
G36*
X12050968D02*
X12028232D01*
X12007227Y11160949D01*
X11991151Y11144873D01*
X11982450Y11123868D01*
Y11101132D01*
X11991151Y11080127D01*
X12007227Y11064051D01*
X12028232Y11055350D01*
X12050968D01*
X12071973Y11064051D01*
X12088049Y11080127D01*
X12096750Y11101132D01*
Y11123868D01*
X12088049Y11144873D01*
X12071973Y11160949D01*
X12050968Y11169650D01*
D02*
G37*
G36*
X12435778Y10864850D02*
X12413042D01*
X12392037Y10856149D01*
X12375961Y10840073D01*
X12367260Y10819068D01*
Y10796332D01*
X12375961Y10775327D01*
X12392037Y10759251D01*
X12413042Y10750550D01*
X12435778D01*
X12456783Y10759251D01*
X12472859Y10775327D01*
X12481560Y10796332D01*
Y10819068D01*
X12472859Y10840073D01*
X12456783Y10856149D01*
X12435778Y10864850D01*
D02*
G37*
G36*
X12292268D02*
X12269532D01*
X12248527Y10856149D01*
X12232451Y10840073D01*
X12223750Y10819068D01*
Y10796332D01*
X12232451Y10775327D01*
X12248527Y10759251D01*
X12269532Y10750550D01*
X12292268D01*
X12313273Y10759251D01*
X12329349Y10775327D01*
X12338050Y10796332D01*
Y10819068D01*
X12329349Y10840073D01*
X12313273Y10856149D01*
X12292268Y10864850D01*
D02*
G37*
G36*
X12050968D02*
X12028232D01*
X12007227Y10856149D01*
X11991151Y10840073D01*
X11982450Y10819068D01*
Y10796332D01*
X11991151Y10775327D01*
X12007227Y10759251D01*
X12028232Y10750550D01*
X12050968D01*
X12071973Y10759251D01*
X12088049Y10775327D01*
X12096750Y10796332D01*
Y10819068D01*
X12088049Y10840073D01*
X12071973Y10856149D01*
X12050968Y10864850D01*
D02*
G37*
G36*
Y10636250D02*
X12028232D01*
X12007227Y10627549D01*
X11991151Y10611473D01*
X11982450Y10590468D01*
Y10567732D01*
X11991151Y10546727D01*
X12007227Y10530651D01*
X12028232Y10521950D01*
X12050968D01*
X12071973Y10530651D01*
X12088049Y10546727D01*
X12096750Y10567732D01*
Y10590468D01*
X12088049Y10611473D01*
X12071973Y10627549D01*
X12050968Y10636250D01*
D02*
G37*
G36*
X12292268Y10623550D02*
X12269532D01*
X12248527Y10614849D01*
X12232451Y10598773D01*
X12223750Y10577768D01*
Y10555032D01*
X12232451Y10534027D01*
X12248527Y10517951D01*
X12269532Y10509250D01*
X12292268D01*
X12313273Y10517951D01*
X12329349Y10534027D01*
X12338050Y10555032D01*
Y10577768D01*
X12329349Y10598773D01*
X12313273Y10614849D01*
X12292268Y10623550D01*
D02*
G37*
G36*
X11897465Y10622818D02*
X11874730D01*
X11853725Y10614118D01*
X11837648Y10598041D01*
X11828947Y10577036D01*
Y10554300D01*
X11837648Y10533295D01*
X11853725Y10517219D01*
X11874730Y10508518D01*
X11897465D01*
X11918470Y10517219D01*
X11934547Y10533295D01*
X11943247Y10554300D01*
Y10577036D01*
X11934547Y10598041D01*
X11918470Y10614118D01*
X11897465Y10622818D01*
D02*
G37*
G36*
X12050968Y10420350D02*
X12028232D01*
X12007227Y10411649D01*
X11991151Y10395573D01*
X11982450Y10374568D01*
Y10351832D01*
X11991151Y10330827D01*
X12007227Y10314751D01*
X12028232Y10306050D01*
X12050968D01*
X12071973Y10314751D01*
X12088049Y10330827D01*
X12096750Y10351832D01*
Y10374568D01*
X12088049Y10395573D01*
X12071973Y10411649D01*
X12050968Y10420350D01*
D02*
G37*
G36*
X12419268Y10293350D02*
X12396532D01*
X12375527Y10284649D01*
X12359451Y10268573D01*
X12350750Y10247568D01*
Y10224832D01*
X12359451Y10203827D01*
X12375527Y10187751D01*
X12396532Y10179050D01*
X12419268D01*
X12440273Y10187751D01*
X12456349Y10203827D01*
X12465050Y10224832D01*
Y10247568D01*
X12456349Y10268573D01*
X12440273Y10284649D01*
X12419268Y10293350D01*
D02*
G37*
G36*
X12292268D02*
X12269532D01*
X12248527Y10284649D01*
X12232451Y10268573D01*
X12223750Y10247568D01*
Y10224832D01*
X12232451Y10203827D01*
X12248527Y10187751D01*
X12269532Y10179050D01*
X12292268D01*
X12313273Y10187751D01*
X12329349Y10203827D01*
X12338050Y10224832D01*
Y10247568D01*
X12329349Y10268573D01*
X12313273Y10284649D01*
X12292268Y10293350D01*
D02*
G37*
G36*
X12851068Y9874250D02*
X12828333D01*
X12807327Y9865549D01*
X12791251Y9849473D01*
X12782550Y9828468D01*
Y9805732D01*
X12791251Y9784727D01*
X12807327Y9768651D01*
X12828333Y9759950D01*
X12851068D01*
X12872073Y9768651D01*
X12888148Y9784727D01*
X12896851Y9805732D01*
Y9828468D01*
X12888148Y9849473D01*
X12872073Y9865549D01*
X12851068Y9874250D01*
D02*
G37*
G36*
X12419268Y9861550D02*
X12396532D01*
X12375527Y9852849D01*
X12359451Y9836773D01*
X12350750Y9815768D01*
Y9793032D01*
X12359451Y9772027D01*
X12375527Y9755951D01*
X12396532Y9747250D01*
X12419268D01*
X12440273Y9755951D01*
X12456349Y9772027D01*
X12465050Y9793032D01*
Y9815768D01*
X12456349Y9836773D01*
X12440273Y9852849D01*
X12419268Y9861550D01*
D02*
G37*
G36*
X12851068Y9607550D02*
X12828333D01*
X12807327Y9598849D01*
X12791251Y9582773D01*
X12782550Y9561768D01*
Y9539032D01*
X12791251Y9518027D01*
X12807327Y9501951D01*
X12828333Y9493250D01*
X12851068D01*
X12872073Y9501951D01*
X12888148Y9518027D01*
X12896851Y9539032D01*
Y9561768D01*
X12888148Y9582773D01*
X12872073Y9598849D01*
X12851068Y9607550D01*
D02*
G37*
G36*
X12114468Y8362950D02*
X12091732D01*
X12070727Y8354249D01*
X12054651Y8338173D01*
X12045950Y8317168D01*
Y8294432D01*
X12054651Y8273427D01*
X12070727Y8257351D01*
X12091732Y8248650D01*
X12114468D01*
X12135473Y8257351D01*
X12151549Y8273427D01*
X12160250Y8294432D01*
Y8317168D01*
X12151549Y8338173D01*
X12135473Y8354249D01*
X12114468Y8362950D01*
D02*
G37*
G36*
X12851068Y8261350D02*
X12828333D01*
X12807327Y8252649D01*
X12791251Y8236573D01*
X12782550Y8215568D01*
Y8192832D01*
X12791251Y8171827D01*
X12807327Y8155751D01*
X12828333Y8147050D01*
X12851068D01*
X12872073Y8155751D01*
X12888148Y8171827D01*
X12896851Y8192832D01*
Y8215568D01*
X12888148Y8236573D01*
X12872073Y8252649D01*
X12851068Y8261350D01*
D02*
G37*
G36*
X12584704Y7654600D02*
X12561296D01*
X12538686Y7648541D01*
X12518414Y7636838D01*
X12501862Y7620286D01*
X12490158Y7600014D01*
X12488440Y7593599D01*
X12484704Y7594600D01*
X12461296D01*
X12438686Y7588542D01*
X12418414Y7576838D01*
X12401862Y7560286D01*
X12390158Y7540014D01*
X12384100Y7517404D01*
Y7493996D01*
X12390158Y7471386D01*
X12401862Y7451114D01*
X12418414Y7434562D01*
X12438686Y7422858D01*
X12461296Y7416800D01*
X12484704D01*
X12488440Y7417801D01*
X12490158Y7411386D01*
X12501862Y7391114D01*
X12518414Y7374562D01*
X12538686Y7362859D01*
X12561296Y7356800D01*
X12584704D01*
X12607314Y7362859D01*
X12627586Y7374562D01*
X12644138Y7391114D01*
X12655842Y7411386D01*
X12657560Y7417801D01*
X12661296Y7416800D01*
X12684704D01*
X12707314Y7422858D01*
X12727586Y7434562D01*
X12744138Y7451114D01*
X12755842Y7471386D01*
X12761900Y7493996D01*
Y7517404D01*
X12755842Y7540014D01*
X12744138Y7560286D01*
X12727586Y7576838D01*
X12707314Y7588542D01*
X12684704Y7594600D01*
X12661296D01*
X12657560Y7593599D01*
X12655842Y7600014D01*
X12644138Y7620286D01*
X12627586Y7636838D01*
X12607314Y7648541D01*
X12584704Y7654600D01*
D02*
G37*
G36*
X13651167Y7515065D02*
X13628432D01*
X13607426Y7506364D01*
X13591351Y7490288D01*
X13582651Y7469283D01*
Y7446547D01*
X13591351Y7425542D01*
X13607426Y7409465D01*
X13628432Y7400765D01*
X13651167D01*
X13672173Y7409465D01*
X13688249Y7425542D01*
X13696950Y7446547D01*
Y7469283D01*
X13688249Y7490288D01*
X13672173Y7506364D01*
X13651167Y7515065D01*
D02*
G37*
G36*
X12863768Y7423150D02*
X12841032D01*
X12820027Y7414449D01*
X12803951Y7398373D01*
X12795250Y7377368D01*
Y7354632D01*
X12803951Y7333627D01*
X12820027Y7317551D01*
X12841032Y7308850D01*
X12863768D01*
X12884773Y7317551D01*
X12900848Y7333627D01*
X12909550Y7354632D01*
Y7377368D01*
X12900848Y7398373D01*
X12884773Y7414449D01*
X12863768Y7423150D01*
D02*
G37*
G36*
X14997368Y7321550D02*
X14974632D01*
X14953627Y7312849D01*
X14937550Y7296773D01*
X14928850Y7275768D01*
Y7253032D01*
X14937550Y7232027D01*
X14953627Y7215951D01*
X14974632Y7207250D01*
X14997368D01*
X15018373Y7215951D01*
X15034448Y7232027D01*
X15043150Y7253032D01*
Y7275768D01*
X15034448Y7296773D01*
X15018373Y7312849D01*
X14997368Y7321550D01*
D02*
G37*
G36*
X12978069Y7308850D02*
X12955331D01*
X12934328Y7300149D01*
X12918251Y7284073D01*
X12909550Y7263068D01*
Y7240332D01*
X12918251Y7219327D01*
X12934328Y7203251D01*
X12955331Y7194550D01*
X12978069D01*
X12999072Y7203251D01*
X13015149Y7219327D01*
X13023849Y7240332D01*
Y7263068D01*
X13015149Y7284073D01*
X12999072Y7300149D01*
X12978069Y7308850D01*
D02*
G37*
G36*
X9803068Y12287250D02*
X9780332D01*
X9759327Y12278549D01*
X9743251Y12262473D01*
X9734550Y12241468D01*
Y12218732D01*
X9743251Y12197727D01*
X9759327Y12181651D01*
X9780332Y12172950D01*
X9803068D01*
X9824073Y12181651D01*
X9840149Y12197727D01*
X9848850Y12218732D01*
Y12241468D01*
X9840149Y12262473D01*
X9824073Y12278549D01*
X9803068Y12287250D01*
D02*
G37*
G36*
Y12065000D02*
X9780332D01*
X9759327Y12056299D01*
X9743251Y12040223D01*
X9734550Y12019218D01*
Y11996482D01*
X9743251Y11975477D01*
X9759327Y11959401D01*
X9780332Y11950700D01*
X9803068D01*
X9824073Y11959401D01*
X9840149Y11975477D01*
X9848850Y11996482D01*
Y12019218D01*
X9840149Y12040223D01*
X9824073Y12056299D01*
X9803068Y12065000D01*
D02*
G37*
%LPD*%
D37*
X9785660Y6375400D02*
X10050317Y6640057D01*
X8318500Y6375400D02*
X9785660D01*
X8178800Y6515100D02*
X8318500Y6375400D01*
X8178800Y6515100D02*
Y9906000D01*
X9791700Y7454900D02*
X10033000Y7213600D01*
X10807700Y8737600D02*
X10822579Y8722721D01*
Y8701679D02*
Y8722721D01*
X10807700Y8686800D02*
X10822579Y8701679D01*
X9931400Y8737600D02*
X10807700D01*
X7556500Y12382500D02*
X7950200Y11988800D01*
X7543800Y12382500D02*
X7556500D01*
X7950200Y10820400D02*
Y11988800D01*
Y10820400D02*
X8394700Y10375900D01*
X8788400D02*
X9093200Y10071100D01*
X8394700Y10375900D02*
X8788400D01*
X9093200Y9385300D02*
Y10071100D01*
Y9385300D02*
X9791700Y8686800D01*
Y7454900D02*
Y8686800D01*
X8178800Y9906000D02*
X8432800Y10160000D01*
X7543800Y13017500D02*
Y13258800D01*
X8145800Y13860800D01*
X10269200D01*
X11315700Y12814301D02*
X11671300D01*
X10269200Y13860800D02*
X11315700Y12814301D01*
D44*
X8432800Y10160000D02*
D03*
Y9906000D02*
D03*
Y9652000D02*
D03*
Y9398000D02*
D03*
Y9144000D02*
D03*
Y8890000D02*
D03*
Y8636000D02*
D03*
Y8382000D02*
D03*
Y8128000D02*
D03*
Y7874000D02*
D03*
Y7620000D02*
D03*
Y7366000D02*
D03*
Y7112000D02*
D03*
Y6858000D02*
D03*
Y6604000D02*
D03*
X6908800D02*
D03*
Y6858000D02*
D03*
Y7112000D02*
D03*
Y7366000D02*
D03*
Y7620000D02*
D03*
Y7874000D02*
D03*
Y8128000D02*
D03*
Y8382000D02*
D03*
Y8636000D02*
D03*
Y8890000D02*
D03*
Y9144000D02*
D03*
Y9398000D02*
D03*
Y9652000D02*
D03*
Y9906000D02*
D03*
Y10160000D02*
D03*
D46*
X18135600Y8293100D02*
D03*
X6858000Y13525500D02*
D03*
Y5778500D02*
D03*
X17843500Y13525500D02*
D03*
X17602200Y5778500D02*
D03*
X18021300Y10160000D02*
D03*
X9461500Y5778500D02*
D03*
D47*
X9479900Y11151400D02*
D03*
X9279900D02*
D03*
X9529900Y8581400D02*
D03*
X9329900D02*
D03*
D48*
X19545300Y7370249D02*
D03*
Y5872749D02*
D03*
Y11459647D02*
D03*
Y9962149D02*
D03*
Y9414949D02*
D03*
Y7917449D02*
D03*
Y13504347D02*
D03*
Y12006849D02*
D03*
D49*
X18822800Y5877749D02*
D03*
Y6127749D02*
D03*
Y6377749D02*
D03*
Y6627749D02*
D03*
Y6877749D02*
D03*
Y7127749D02*
D03*
Y7377749D02*
D03*
X18572800Y5877749D02*
D03*
Y6127749D02*
D03*
Y6377749D02*
D03*
Y6627749D02*
D03*
Y6877749D02*
D03*
Y7127749D02*
D03*
Y7377749D02*
D03*
X18822803Y9967148D02*
D03*
Y10217150D02*
D03*
Y10467147D02*
D03*
Y10717149D02*
D03*
Y10967146D02*
D03*
Y11217148D02*
D03*
Y11467150D02*
D03*
X18572800Y9967148D02*
D03*
Y10217150D02*
D03*
Y10467147D02*
D03*
Y10717149D02*
D03*
Y10967146D02*
D03*
Y11217148D02*
D03*
Y11467150D02*
D03*
X18822800Y7922449D02*
D03*
Y8172449D02*
D03*
Y8422449D02*
D03*
Y8672449D02*
D03*
Y8922449D02*
D03*
Y9172449D02*
D03*
Y9422449D02*
D03*
X18572800Y7922449D02*
D03*
Y8172449D02*
D03*
Y8422449D02*
D03*
Y8672449D02*
D03*
Y8922449D02*
D03*
Y9172449D02*
D03*
Y9422449D02*
D03*
X18822803Y12011848D02*
D03*
Y12261850D02*
D03*
Y12511847D02*
D03*
Y12761849D02*
D03*
Y13011845D02*
D03*
Y13261848D02*
D03*
Y13511850D02*
D03*
X18572800Y12011848D02*
D03*
Y12261850D02*
D03*
Y12511847D02*
D03*
Y12761849D02*
D03*
Y13011845D02*
D03*
Y13261848D02*
D03*
Y13511850D02*
D03*
D50*
X6616700Y10160000D02*
D03*
X8724900D02*
D03*
D51*
X6616700Y9906000D02*
D03*
Y9652000D02*
D03*
Y9398000D02*
D03*
Y9144000D02*
D03*
Y8890000D02*
D03*
Y8636000D02*
D03*
Y8382000D02*
D03*
Y8128000D02*
D03*
Y7874000D02*
D03*
Y7620000D02*
D03*
Y7366000D02*
D03*
Y7112000D02*
D03*
Y6858000D02*
D03*
Y6604000D02*
D03*
X8724900Y9906000D02*
D03*
Y9652000D02*
D03*
Y9398000D02*
D03*
Y9144000D02*
D03*
Y8890000D02*
D03*
Y8636000D02*
D03*
Y8382000D02*
D03*
Y8128000D02*
D03*
Y7874000D02*
D03*
Y7620000D02*
D03*
Y7366000D02*
D03*
Y7112000D02*
D03*
Y6858000D02*
D03*
Y6604000D02*
D03*
D53*
X8674100Y12090400D02*
D03*
Y13208000D02*
D03*
D54*
X6725369Y11120947D02*
D03*
X17335500Y7239000D02*
D03*
X8216900Y5867400D02*
D03*
X8483600D02*
D03*
D55*
X7543800Y12382500D02*
D03*
Y12065000D02*
D03*
Y12700000D02*
D03*
Y11430000D02*
D03*
Y13017500D02*
D03*
Y11747500D02*
D03*
D56*
X12357100Y11379200D02*
D03*
X11886097Y10565668D02*
D03*
X12280900Y10566400D02*
D03*
X16979900Y7251700D02*
D03*
X13639799Y7457915D02*
D03*
X15646400D02*
D03*
X17590826D02*
D03*
X13373100Y9817100D02*
D03*
X10033000Y7797800D02*
D03*
X9575800Y7112000D02*
D03*
Y7874000D02*
D03*
Y7366000D02*
D03*
Y7620000D02*
D03*
X10039660Y6629400D02*
D03*
X9931400Y8737600D02*
D03*
X10033000Y7213600D02*
D03*
X13373100Y10934700D02*
D03*
Y11112500D02*
D03*
Y11379200D02*
D03*
X12560300Y11112500D02*
D03*
X12738100Y13702029D02*
D03*
X13449300D02*
D03*
X12452350Y12288520D02*
D03*
X15836900Y9853930D02*
D03*
X16598900D02*
D03*
X13766800Y9918700D02*
D03*
X13868401D02*
D03*
X13970000D02*
D03*
Y9817100D02*
D03*
X13868401D02*
D03*
X13766800D02*
D03*
Y9715500D02*
D03*
X13970000D02*
D03*
X13868401D02*
D03*
X12280900Y11112500D02*
D03*
X12839700Y9817100D02*
D03*
X13373100Y10426700D02*
D03*
Y10680700D02*
D03*
Y10807700D02*
D03*
X14236700Y12484100D02*
D03*
X9791700Y12230100D02*
D03*
X10960100D02*
D03*
X11633200Y12484100D02*
D03*
X12424410Y10807700D02*
D03*
X12280900D02*
D03*
X12039600Y10579100D02*
D03*
Y10807700D02*
D03*
X12839700Y9550400D02*
D03*
X12407900Y9804400D02*
D03*
Y10236200D02*
D03*
X12039600Y10363200D02*
D03*
X12280900Y10236200D02*
D03*
X13373100Y10172700D02*
D03*
X12039600Y11112500D02*
D03*
X9791700Y12007850D02*
D03*
X10963201D02*
D03*
X13417551Y11918950D02*
D03*
X13868401Y8813800D02*
D03*
X13970000D02*
D03*
X14236700Y11671300D02*
D03*
X17284700Y9017000D02*
D03*
X17183099D02*
D03*
X9715500Y9359900D02*
D03*
X7035800Y10896600D02*
D03*
X7340600Y11163300D02*
D03*
X17513300Y8115300D02*
D03*
X17183099Y8813800D02*
D03*
X17081500D02*
D03*
X17284700D02*
D03*
X17183099Y8915400D02*
D03*
X17284700D02*
D03*
X17081500D02*
D03*
Y9017000D02*
D03*
X17386301Y8813800D02*
D03*
Y9017000D02*
D03*
Y8915400D02*
D03*
X17513300Y12979401D02*
D03*
X17614900D02*
D03*
Y12877800D02*
D03*
X17513300D02*
D03*
X16370300Y6908800D02*
D03*
X11442700Y11010900D02*
D03*
Y10909300D02*
D03*
Y11112500D02*
D03*
X11341100D02*
D03*
Y10909300D02*
D03*
Y11010900D02*
D03*
X11544300Y10909300D02*
D03*
Y11010900D02*
D03*
Y11112500D02*
D03*
X11137900Y11010900D02*
D03*
Y10909300D02*
D03*
Y11112500D02*
D03*
X11036300D02*
D03*
Y10909300D02*
D03*
Y11010900D02*
D03*
X11239500Y10909300D02*
D03*
Y11010900D02*
D03*
Y11112500D02*
D03*
X8750300Y10553700D02*
D03*
Y10655300D02*
D03*
Y10756900D02*
D03*
Y11163300D02*
D03*
Y11061700D02*
D03*
Y10960100D02*
D03*
Y10858500D02*
D03*
X8547100Y11061700D02*
D03*
Y10655300D02*
D03*
Y10858500D02*
D03*
Y10960100D02*
D03*
Y11163300D02*
D03*
Y10756900D02*
D03*
Y10553700D02*
D03*
X8648700Y10858500D02*
D03*
Y10960100D02*
D03*
Y11061700D02*
D03*
Y11163300D02*
D03*
Y10756900D02*
D03*
Y10655300D02*
D03*
Y10553700D02*
D03*
X9817100Y9359900D02*
D03*
X10223500D02*
D03*
X10020300D02*
D03*
X9817100Y9969500D02*
D03*
X10020300Y9461500D02*
D03*
Y9563100D02*
D03*
X10223500Y9461500D02*
D03*
Y9563100D02*
D03*
X9817100Y9461500D02*
D03*
Y9563100D02*
D03*
X10223500Y9969500D02*
D03*
Y9867900D02*
D03*
Y9766300D02*
D03*
Y9664700D02*
D03*
X10020300Y9867900D02*
D03*
Y9766300D02*
D03*
Y9664700D02*
D03*
Y9969500D02*
D03*
X9817100Y9867900D02*
D03*
Y9766300D02*
D03*
Y9664700D02*
D03*
X10121900Y9359900D02*
D03*
X9918700Y9766300D02*
D03*
Y9664700D02*
D03*
X10121900Y9563100D02*
D03*
Y9969500D02*
D03*
Y9766300D02*
D03*
Y9664700D02*
D03*
Y9461500D02*
D03*
Y9867900D02*
D03*
X9715500Y9664700D02*
D03*
Y9766300D02*
D03*
Y9563100D02*
D03*
Y9461500D02*
D03*
X9918700Y9969500D02*
D03*
X9715500D02*
D03*
X9918700Y9563100D02*
D03*
Y9359900D02*
D03*
Y9461500D02*
D03*
X9715500Y9867900D02*
D03*
X9918700D02*
D03*
X14071600Y8813800D02*
D03*
X13766800D02*
D03*
Y8915400D02*
D03*
X13868401D02*
D03*
X13970000D02*
D03*
X14071600D02*
D03*
Y9017000D02*
D03*
X13970000D02*
D03*
X13868401D02*
D03*
X13766800D02*
D03*
X14706599Y12865100D02*
D03*
X14605000D02*
D03*
X11671300Y12814301D02*
D03*
X12382500Y6794502D02*
D03*
X12153900D02*
D03*
Y6908802D02*
D03*
X14097000Y8267700D02*
D03*
X14808200Y8191500D02*
D03*
X14160500Y7035800D02*
D03*
X14274800Y6921500D02*
D03*
X14389101Y7035800D02*
D03*
X14274800D02*
D03*
Y6807200D02*
D03*
X14160500Y6921500D02*
D03*
Y6807200D02*
D03*
X14389101D02*
D03*
Y6921500D02*
D03*
X15887700Y8077500D02*
D03*
X15659100D02*
D03*
X15773399D02*
D03*
X14986000Y7264400D02*
D03*
X14871700Y7378700D02*
D03*
X16141701Y7023100D02*
D03*
X16256000D02*
D03*
X16370300D02*
D03*
X16256000Y6908800D02*
D03*
X16141701D02*
D03*
Y6794500D02*
D03*
X16256000D02*
D03*
X16370300D02*
D03*
X12153900Y7023102D02*
D03*
X12268200D02*
D03*
X12382500D02*
D03*
Y6908802D02*
D03*
X12268200D02*
D03*
Y6794502D02*
D03*
X14605000Y13169901D02*
D03*
X14706599D02*
D03*
Y12966701D02*
D03*
Y13068300D02*
D03*
X14605000Y12966701D02*
D03*
Y13068300D02*
D03*
X15011400Y12966701D02*
D03*
X15113000D02*
D03*
X14808200Y13169901D02*
D03*
X15113000Y12865100D02*
D03*
X15011400D02*
D03*
X14909801D02*
D03*
X14808200D02*
D03*
X14909801Y13169901D02*
D03*
X15113000D02*
D03*
X15011400Y13068300D02*
D03*
X14909801Y12966701D02*
D03*
X15011400Y13169901D02*
D03*
X14808200Y13068300D02*
D03*
Y12966701D02*
D03*
X14909801Y13068300D02*
D03*
X15113000D02*
D03*
X16764000Y12979401D02*
D03*
X13881100Y8064499D02*
D03*
X13652499D02*
D03*
X13766800D02*
D03*
X17741901Y8115300D02*
D03*
X17627600D02*
D03*
X11671300Y13373100D02*
D03*
Y13093700D02*
D03*
Y13233400D02*
D03*
Y13512801D02*
D03*
Y13652499D02*
D03*
Y12953999D02*
D03*
X11811000Y12814301D02*
D03*
Y12953999D02*
D03*
Y13652499D02*
D03*
Y13512801D02*
D03*
Y13373100D02*
D03*
Y13233400D02*
D03*
Y13093700D02*
D03*
X12852400Y7366000D02*
D03*
X12839700Y8204200D02*
D03*
X12966701Y7251700D02*
D03*
X12103100Y8305800D02*
D03*
X16827499Y7378700D02*
D03*
X16090900Y8242300D02*
D03*
X16814799Y8166100D02*
D03*
D73*
X16660800Y7505700D02*
D03*
X16560800Y7565700D02*
D03*
Y7445700D02*
D03*
X16460800Y7505700D02*
D03*
X14679601D02*
D03*
X14579601Y7565700D02*
D03*
Y7445700D02*
D03*
X14479601Y7505700D02*
D03*
X12673000D02*
D03*
X12573000Y7565700D02*
D03*
Y7445700D02*
D03*
X12473000Y7505700D02*
D03*
%TF.MD5,461445bf7b9995dd2a732c35a0d5ef27*%
M02*
