%TF.GenerationSoftware,Altium Limited,Altium Designer,23.2.1 (34)*%
G04 Layer_Physical_Order=6*
G04 Layer_Color=16711680*
%FSLAX45Y45*%
%MOMM*%
%TF.SameCoordinates,BB813F71-6509-4A9A-A67D-B2EC92C530A4*%
%TF.FilePolarity,Positive*%
%TF.FileFunction,Copper,L6,Bot,Signal*%
%TF.Part,Single*%
G01*
G75*
%TA.AperFunction,SMDPad,CuDef*%
%ADD13R,0.85000X1.35000*%
%ADD15R,1.11760X1.44780*%
%ADD20R,0.96520X0.66040*%
%ADD30R,0.90000X0.70000*%
%TA.AperFunction,Conductor*%
%ADD37C,0.25400*%
%ADD39C,0.50800*%
%ADD40C,0.38100*%
%ADD42C,1.01600*%
%TA.AperFunction,ComponentPad*%
%ADD44C,1.80000*%
%ADD45R,1.80000X1.80000*%
%ADD46C,6.10000*%
%ADD47C,1.30000*%
%ADD48C,2.10000*%
%ADD49C,1.56000*%
%ADD50R,1.37000X1.37000*%
%ADD51C,1.37000*%
%ADD52C,0.50000*%
%ADD53C,9.50000*%
%ADD54C,2.03200*%
%TA.AperFunction,TestPad*%
%ADD55C,2.03200*%
%TA.AperFunction,ViaPad*%
%ADD56C,0.63500*%
%TA.AperFunction,SMDPad,CuDef*%
%ADD74R,0.80650X1.30822*%
%ADD75R,0.66040X0.96520*%
%ADD76R,0.81280X0.25400*%
%ADD77R,0.25400X0.81280*%
%ADD78R,2.64160X3.65760*%
%ADD79R,0.60960X0.55880*%
%ADD80R,0.55880X0.60960*%
%ADD81R,1.20000X1.20000*%
%ADD82R,0.80000X0.95000*%
%ADD83R,0.80000X0.90000*%
%TA.AperFunction,Conductor*%
%ADD84C,2.54000*%
%ADD85C,1.27000*%
%ADD86C,2.28600*%
G36*
X17500600Y12649200D02*
Y12319000D01*
X17424400Y12242800D01*
X16294099D01*
X16192500Y12344400D01*
Y13309599D01*
X16230600Y13347701D01*
X16802100D01*
X17500600Y12649200D01*
D02*
G37*
G36*
X13487399Y11226800D02*
Y9677400D01*
X13268857Y9458857D01*
X13202715Y9525000D01*
X13243355Y9565640D01*
X13298170D01*
Y9687560D01*
X13206731D01*
Y9602265D01*
X13171170Y9566705D01*
X13158470Y9571965D01*
Y9687560D01*
X13138647D01*
Y9757728D01*
X13158470D01*
Y9879648D01*
X13103654D01*
X13043398Y9939905D01*
Y10248900D01*
X13041426Y10258811D01*
X13035812Y10267212D01*
X12982256Y10320768D01*
X12973856Y10326382D01*
X12963943Y10328353D01*
X12830811D01*
X12828308Y10327856D01*
X12777470D01*
Y10285730D01*
X12736131D01*
Y10234892D01*
X12735634Y10232390D01*
X12736131Y10229888D01*
Y10179050D01*
X12786931D01*
Y10206492D01*
X12807384D01*
X12902702Y10111173D01*
Y9639300D01*
X12904674Y9629389D01*
X12910287Y9620988D01*
X13024588Y9506688D01*
X13032990Y9501074D01*
X13042900Y9499102D01*
X13155363D01*
X13219331Y9435133D01*
X13214471Y9423400D01*
X12852402Y9423399D01*
X12852400Y9423400D01*
X11950700D01*
X11734800Y9639300D01*
Y9982200D01*
X11734800Y10972800D01*
Y11226800D01*
X11772900Y11264900D01*
X12704582D01*
Y10984230D01*
X12706554Y10974319D01*
X12712168Y10965918D01*
X12714175Y10963910D01*
X12708915Y10951210D01*
X12631420D01*
Y10936468D01*
X12612460D01*
X12603480Y10945448D01*
Y10951210D01*
X12603480Y10963910D01*
Y11035030D01*
X12586198D01*
Y11061369D01*
X12592673Y11064051D01*
X12608749Y11080127D01*
X12617450Y11101132D01*
Y11123868D01*
X12608749Y11144873D01*
X12592673Y11160949D01*
X12571668Y11169650D01*
X12548932D01*
X12527927Y11160949D01*
X12511851Y11144873D01*
X12503150Y11123868D01*
Y11101132D01*
X12511851Y11080127D01*
X12527927Y11064051D01*
X12534402Y11061369D01*
Y11035030D01*
X12517120D01*
Y10972910D01*
X12504420Y10969058D01*
X12502412Y10972062D01*
X12443460Y11031015D01*
Y11101070D01*
X12338092D01*
X12338050Y11101132D01*
Y11123868D01*
X12329349Y11144873D01*
X12313273Y11160949D01*
X12292268Y11169650D01*
X12269532D01*
X12248527Y11160949D01*
X12232451Y11144873D01*
X12223750Y11123868D01*
Y11101132D01*
X12232451Y11080127D01*
X12248527Y11064051D01*
X12269532Y11055350D01*
X12292268D01*
X12298743Y11058032D01*
X12300688Y11056088D01*
X12309089Y11050474D01*
X12319000Y11048502D01*
X12321540D01*
Y11009630D01*
X12391595D01*
X12428122Y10973103D01*
X12423262Y10961370D01*
X12321540D01*
Y10941548D01*
X12239600D01*
Y10994700D01*
X12094200D01*
Y10849300D01*
X12223717D01*
X12226414Y10846450D01*
X12231012Y10836600D01*
X12223750Y10819068D01*
Y10796332D01*
X12232451Y10775327D01*
X12248527Y10759251D01*
X12264701Y10752551D01*
X12376123Y10641129D01*
X12370862Y10628429D01*
X12351984D01*
X12297276Y10683137D01*
X12288874Y10688751D01*
X12278964Y10690723D01*
X12223750D01*
Y10765790D01*
X12086590D01*
Y10595610D01*
X12217394D01*
X12226321Y10583975D01*
X12223750Y10577768D01*
Y10555032D01*
X12232451Y10534027D01*
X12248527Y10517951D01*
X12269532Y10509250D01*
X12292268D01*
X12313273Y10517951D01*
X12321944Y10526621D01*
X12442190D01*
X12444692Y10527119D01*
X12495530D01*
Y10577131D01*
Y10669270D01*
X12777470D01*
Y10627144D01*
X12824498D01*
X12827000Y10626647D01*
X12830811D01*
X12833311Y10627144D01*
X12884151D01*
Y10677944D01*
X12852898D01*
Y10718302D01*
X12890500D01*
X12900410Y10720274D01*
X12901849Y10721236D01*
X12910287Y10711712D01*
X12904674Y10703311D01*
X12902702Y10693400D01*
Y10602527D01*
X12878590Y10578416D01*
X12830811D01*
X12828308Y10577919D01*
X12777470D01*
Y10477106D01*
Y10377081D01*
X12828308D01*
X12830811Y10376584D01*
X12972481D01*
X13022910Y10326155D01*
X13031311Y10320541D01*
X13041222Y10318570D01*
X13067030D01*
Y10301287D01*
X13081772D01*
Y10255567D01*
X13067030D01*
Y10169208D01*
X13081772D01*
Y10118090D01*
X13067030D01*
Y9947910D01*
X13204190D01*
Y10118090D01*
X13133568D01*
Y10160227D01*
X13142548Y10169207D01*
X13148309D01*
X13161011Y10169208D01*
X13232130D01*
Y10255567D01*
X13217387D01*
Y10301287D01*
X13232130D01*
Y10319840D01*
X13266420D01*
Y10306368D01*
X13352780D01*
Y10387647D01*
X13266420D01*
Y10371635D01*
X13232130D01*
Y10387647D01*
X13161011D01*
X13150850Y10387648D01*
X13138150Y10387647D01*
X13067030D01*
Y10370365D01*
X13051949D01*
X13001520Y10420793D01*
X12993118Y10426407D01*
X12986543Y10427715D01*
X12982422Y10436291D01*
X12981947Y10441079D01*
X13005170Y10464302D01*
X13067030D01*
Y10429240D01*
X13158470D01*
Y10551160D01*
X13067030D01*
Y10516098D01*
X12994443D01*
X12984534Y10514126D01*
X12976131Y10508512D01*
X12946010Y10478391D01*
X12933276D01*
X12928017Y10491091D01*
X13054330Y10617405D01*
X13067030Y10612145D01*
Y10594340D01*
X13158470D01*
Y10716260D01*
X13067030D01*
Y10681198D01*
X13055600D01*
X13045689Y10679226D01*
X13037288Y10673612D01*
X12967198Y10603522D01*
X12954498Y10608783D01*
Y10682673D01*
X13053627Y10781802D01*
X13067030D01*
Y10764520D01*
X13148309D01*
Y10850880D01*
X13084688D01*
X13079828Y10862613D01*
X13103654Y10886440D01*
X13158470D01*
Y11008360D01*
X13067030D01*
Y10923065D01*
X13039394Y10895428D01*
X13027660Y10900288D01*
Y10961370D01*
X12905740D01*
Y10906555D01*
X12886993Y10887808D01*
X12875259Y10892668D01*
Y10961370D01*
X12789965D01*
X12756378Y10994957D01*
Y11264900D01*
X13449300D01*
X13487399Y11226800D01*
D02*
G37*
G36*
X9182100Y12471400D02*
Y10795000D01*
X8839200Y10452100D01*
X8483600D01*
X8140700Y10795000D01*
Y12484100D01*
X8286750Y12630150D01*
X9023350D01*
X9182100Y12471400D01*
D02*
G37*
G36*
X12830811Y10276558D02*
X12953217D01*
X12991602Y10238173D01*
Y9929178D01*
X12993575Y9919267D01*
X12999188Y9910865D01*
X13067030Y9843023D01*
Y9757728D01*
X13086852D01*
Y9687560D01*
X13067030D01*
Y9565640D01*
X13139081D01*
X13145869Y9552940D01*
X13144505Y9550898D01*
X13053627D01*
X12954498Y9650027D01*
Y10121900D01*
X12952525Y10131811D01*
X12946912Y10140212D01*
X12836423Y10250702D01*
X12828021Y10256316D01*
X12818111Y10258288D01*
X12786931D01*
Y10277056D01*
X12828308D01*
X12830811Y10276558D01*
D02*
G37*
G36*
X10883900Y13017500D02*
Y9867900D01*
X10261600Y9245600D01*
X9664700D01*
X9537700Y9372600D01*
Y10756900D01*
X9918700Y11137900D01*
X9918700Y12522200D01*
X9766300Y12674600D01*
X8280400D01*
X8153400Y12801601D01*
X8153400Y13474699D01*
X8407400Y13728700D01*
X10172700D01*
X10883900Y13017500D01*
D02*
G37*
G36*
X16694150Y7283450D02*
Y6604000D01*
X16668750Y6578600D01*
X16040100D01*
X16021049Y6597650D01*
Y7277100D01*
X16046449Y7302500D01*
X16675101D01*
X16694150Y7283450D01*
D02*
G37*
%LPC*%
G36*
X13384468Y11169650D02*
X13361732D01*
X13340727Y11160949D01*
X13324651Y11144873D01*
X13321970Y11138398D01*
X13023849D01*
X13013939Y11136426D01*
X13005537Y11130812D01*
X12983948Y11109222D01*
X12978500Y11101070D01*
X12905740D01*
Y11009630D01*
X13027660D01*
Y11073168D01*
X13028159Y11075670D01*
Y11080183D01*
X13034576Y11086602D01*
X13321970D01*
X13324651Y11080127D01*
X13340727Y11064051D01*
X13361732Y11055350D01*
X13384468D01*
X13405473Y11064051D01*
X13421548Y11080127D01*
X13430251Y11101132D01*
Y11123868D01*
X13421548Y11144873D01*
X13405473Y11160949D01*
X13384468Y11169650D01*
D02*
G37*
G36*
Y10864850D02*
X13361732D01*
X13340727Y10856149D01*
X13324651Y10840073D01*
X13315950Y10819068D01*
Y10796332D01*
X13324651Y10775327D01*
X13340727Y10759251D01*
X13361732Y10750550D01*
X13384468D01*
X13405473Y10759251D01*
X13421548Y10775327D01*
X13430251Y10796332D01*
Y10819068D01*
X13421548Y10840073D01*
X13405473Y10856149D01*
X13384468Y10864850D01*
D02*
G37*
G36*
X11959600Y10994700D02*
X11814200D01*
Y10849300D01*
X11860200D01*
Y10616800D01*
X11853725Y10614118D01*
X11837648Y10598041D01*
X11828947Y10577036D01*
Y10554300D01*
X11837648Y10533295D01*
X11853725Y10517219D01*
X11861003Y10514204D01*
Y10464800D01*
Y10308900D01*
X11814200D01*
Y10163500D01*
X11861003D01*
Y10067590D01*
X11862974Y10057679D01*
X11868588Y10049277D01*
X12000230Y9917635D01*
Y9845040D01*
X12091670D01*
Y9966960D01*
X12024155D01*
X11912798Y10078317D01*
Y10163500D01*
X11959600D01*
Y10308900D01*
X11912798D01*
Y10438902D01*
X12000230D01*
Y10404652D01*
X11991151Y10395573D01*
X11982450Y10374568D01*
Y10351832D01*
X11991151Y10330827D01*
X12007227Y10314751D01*
X12028232Y10306050D01*
X12050968D01*
X12071973Y10314751D01*
X12088049Y10330827D01*
X12090731Y10337302D01*
X12213417D01*
X12218678Y10324602D01*
X12202975Y10308900D01*
X12094200D01*
Y10200125D01*
X12047958Y10153882D01*
X12042344Y10145480D01*
X12040372Y10135570D01*
Y10132060D01*
X12000230D01*
Y10010140D01*
X12091670D01*
Y10088918D01*
X12092168Y10091420D01*
Y10124843D01*
X12130825Y10163500D01*
X12223465D01*
X12228725Y10150800D01*
X12209985Y10132060D01*
X12139930D01*
Y10010140D01*
X12231370D01*
Y10080195D01*
X12257052Y10105877D01*
X12268757Y10099621D01*
X12267702Y10094321D01*
Y9967527D01*
X12244070Y9943895D01*
X12231370Y9949155D01*
Y9966960D01*
X12139930D01*
Y9845040D01*
X12231370D01*
Y9880102D01*
X12242800D01*
X12252711Y9882074D01*
X12261112Y9887688D01*
X12308840Y9935415D01*
X12320967Y9931266D01*
X12321540Y9930809D01*
Y9866630D01*
X12356602D01*
Y9840110D01*
X12357975Y9833210D01*
X12350750Y9815768D01*
Y9793032D01*
X12359451Y9772027D01*
X12375527Y9755951D01*
X12396532Y9747250D01*
X12419268D01*
X12440273Y9755951D01*
X12456349Y9772027D01*
X12465050Y9793032D01*
Y9815768D01*
X12456349Y9836773D01*
X12440273Y9852849D01*
X12437664Y9853930D01*
X12440191Y9866630D01*
X12443460D01*
Y9958070D01*
X12332198D01*
X12321540Y9958070D01*
X12319498Y9969924D01*
Y9994476D01*
X12321540Y10006330D01*
X12443460D01*
Y10026152D01*
X12486640D01*
Y10006330D01*
X12608560D01*
X12616952Y9997106D01*
Y9967294D01*
X12608560Y9958070D01*
X12486640D01*
Y9866630D01*
X12608560D01*
Y9886452D01*
X12677140D01*
Y9866630D01*
X12799060D01*
Y9958070D01*
X12677140D01*
X12668748Y9967294D01*
Y10074001D01*
X12666776Y10083912D01*
X12661162Y10092313D01*
X12637391Y10116084D01*
Y10232390D01*
X12636894Y10234892D01*
Y10285730D01*
X12495530D01*
Y10377081D01*
Y10477894D01*
X12444692D01*
X12442190Y10478391D01*
X12319394D01*
X12309483Y10476420D01*
X12301081Y10470806D01*
X12219373Y10389098D01*
X12102300D01*
X12098081Y10394006D01*
X12091671Y10403840D01*
X12091670D01*
X12091670Y10403841D01*
Y10525760D01*
X12000230D01*
Y10490698D01*
X11912798D01*
Y10514869D01*
X11918470Y10517219D01*
X11934547Y10533295D01*
X11943247Y10554300D01*
Y10577036D01*
X11934547Y10598041D01*
X11918470Y10614118D01*
X11911995Y10616800D01*
Y10849300D01*
X11959600D01*
Y10994700D01*
D02*
G37*
%LPD*%
D13*
X9188500Y9144000D02*
D03*
X9353500D02*
D03*
D15*
X12155170Y10680700D02*
D03*
X11974830D02*
D03*
X13315950Y10033000D02*
D03*
X13135609D02*
D03*
D20*
X12382500Y11055350D02*
D03*
Y10915650D02*
D03*
X12814301Y11055350D02*
D03*
Y10915650D02*
D03*
X12966701Y11055350D02*
D03*
Y10915650D02*
D03*
X12382500Y9912350D02*
D03*
Y10052050D02*
D03*
X12547600Y9912350D02*
D03*
Y10052050D02*
D03*
X12738100D02*
D03*
Y9912350D02*
D03*
D30*
X11112500Y12096598D02*
D03*
Y12236597D02*
D03*
X9639300D02*
D03*
Y12096598D02*
D03*
D37*
X12280900Y11112500D02*
X12319000Y11074400D01*
X12966701Y11055350D02*
X12981940D01*
X13002260Y11075670D02*
Y11090910D01*
X13023849Y11112500D02*
X13363622D01*
X12981940Y11055350D02*
X13002260Y11075670D01*
Y11090910D02*
X13023849Y11112500D01*
X12730480Y10984230D02*
Y11435080D01*
X13214349Y11918950D02*
X13417551D01*
X12730480Y11435080D02*
X13214349Y11918950D01*
X12730480Y10984230D02*
X12799060Y10915650D01*
X12280900Y10566400D02*
X12291210D01*
X12305091Y10552519D01*
X11886097Y10565668D02*
X11886900Y10564865D01*
X12305091Y10552519D02*
X12442190D01*
X11886097Y10565668D02*
Y10921197D01*
X11886900Y10922000D01*
Y10464800D02*
Y10564865D01*
X9931400Y8737600D02*
X10007600Y8813800D01*
Y8924295D01*
X9829800Y8921348D02*
Y9144000D01*
X9353500D02*
X9829800D01*
X9832994Y6819900D02*
Y7172306D01*
X9639300Y7366000D02*
X9832994Y7172306D01*
X9753600Y7988300D02*
X9832994D01*
X9639300Y7874000D02*
X9753600Y7988300D01*
X9575800Y7874000D02*
X9639300D01*
X10003165Y7827635D02*
Y7988300D01*
Y7827635D02*
X10033000Y7797800D01*
X8724900Y9144000D02*
X9188500D01*
X9588500Y7366000D02*
X9639300D01*
X9588500Y7620000D02*
X9832994D01*
X10009825Y6659235D02*
Y6819900D01*
Y6659235D02*
X10039660Y6629400D01*
X10003165Y7243435D02*
X10033000Y7213600D01*
X10003165Y7243435D02*
Y7404100D01*
X9832994D02*
Y7620000D01*
Y7988300D02*
Y8204200D01*
X13674091Y9017000D02*
X13766800D01*
X13166090Y9525000D02*
X13674091Y9017000D01*
X12348820Y11074400D02*
X12364695Y11058525D01*
X12382500Y11055350D02*
X12484100Y10953750D01*
X12319000Y11074400D02*
X12348820D01*
X12370740Y11067110D02*
X12382500Y11055350D01*
X12661506Y10722610D02*
Y10831978D01*
X12674600Y10845072D01*
Y10918190D01*
X12843510Y10807700D02*
X12951460Y10915650D01*
X12761531Y10722610D02*
Y10780331D01*
X12788900Y10807700D02*
X12843510D01*
X12711519Y10722610D02*
Y10812869D01*
X12761531Y10780331D02*
X12788900Y10807700D01*
X12841879Y10744200D02*
X12890500D01*
X12827000Y10652544D02*
Y10729321D01*
X12841879Y10744200D01*
X12827000Y10652544D02*
X12830811D01*
X13013690Y10833100D02*
X13112750Y10932160D01*
X12890500Y10744200D02*
X12979401Y10833100D01*
X13013690D01*
X12951460Y10915650D02*
X12966701D01*
X12711519Y10812869D02*
X12778740Y10880090D01*
Y10895330D01*
X12799060Y10915650D01*
X12814301D01*
X12560300Y10910570D02*
X12684760D01*
X12928600Y9639300D02*
Y10121900D01*
X12818111Y10232390D02*
X12928600Y10121900D01*
Y9639300D02*
X13042900Y9525000D01*
X14230350Y12477749D02*
X14236700Y12484100D01*
X10210800Y13906500D02*
X11633200Y12484100D01*
X8077200Y13906500D02*
X10210800D01*
X12066270Y10135570D02*
X12166900Y10236200D01*
X12320270Y10148570D02*
X12407900Y10236200D01*
X12066270Y10091420D02*
Y10135570D01*
X12261850Y10147300D02*
X12306668D01*
X12333181Y10402481D02*
X12442190D01*
X12280900Y10286789D02*
X12346579Y10352468D01*
X12185650Y10464800D02*
Y10480040D01*
X12280900Y10236200D02*
Y10286789D01*
X12185650Y10464800D02*
X12256770D01*
X12166900Y10236200D02*
X12333181Y10402481D01*
X11886900Y10236200D02*
Y10464800D01*
X12045950D01*
X12039600Y10363200D02*
X12230100D01*
X12293600Y9956800D02*
Y10094321D01*
X12308479Y10109200D02*
X12322449D01*
X12293600Y10094321D02*
X12308479Y10109200D01*
X12322449D02*
X12323719Y10110470D01*
X12417488D01*
X12306668Y10147300D02*
X12307938Y10148570D01*
X12320270D01*
X12185650Y10071100D02*
X12261850Y10147300D01*
X11886900Y10067590D02*
Y10236200D01*
X12045950Y10071100D02*
X12066270Y10091420D01*
X11886900Y10067590D02*
X12033250Y9921240D01*
X12172950Y9906000D02*
X12242800D01*
X12293600Y9956800D01*
X12033250Y9906000D02*
Y9921240D01*
X13042900Y9525000D02*
X13166090D01*
X13112750Y9626600D02*
Y9818688D01*
X13252451Y9611360D02*
Y9626600D01*
X13166090Y9525000D02*
X13252451Y9611360D01*
X13112750Y9818688D02*
Y9833928D01*
X13107671Y10212387D02*
Y10344468D01*
Y10060940D02*
X13135609Y10033000D01*
X13107671Y10060940D02*
Y10209847D01*
X13252451Y9818688D02*
Y9833928D01*
X13315950Y9897428D01*
X12761531Y10232390D02*
X12818111D01*
X12738100Y10052050D02*
Y10125120D01*
X12547600Y10052050D02*
Y10131469D01*
X12611494Y10105357D02*
X12642850Y10074001D01*
X12711519Y10151701D02*
X12738100Y10125120D01*
X12711519Y10151701D02*
Y10232390D01*
X12547600Y10131469D02*
X12561481Y10145351D01*
Y10232390D01*
X12611494Y10105357D02*
Y10232390D01*
X13041222Y10344468D02*
X13107671D01*
X12983208Y10402481D02*
X13041222Y10344468D01*
X12963943Y10302456D02*
X13017500Y10248900D01*
X12902806Y10502506D02*
X13055600Y10655300D01*
X13252451Y10490200D02*
Y10655300D01*
X12994443Y10490200D02*
X13112750D01*
X12956737Y10452494D02*
X12994443Y10490200D01*
X13252451Y10868660D02*
Y10947400D01*
X12928600Y10591800D02*
Y10693400D01*
X12889319Y10552519D02*
X12928600Y10591800D01*
X12484100Y10871200D02*
X12509520Y10845780D01*
X12573020D02*
X12611494Y10807306D01*
X12509520Y10845780D02*
X12573020D01*
X12561481Y10722610D02*
Y10781119D01*
X12611494Y10722610D02*
Y10807306D01*
X12534920Y10807680D02*
X12561481Y10781119D01*
X13315950Y9897428D02*
Y10033000D01*
X13309599Y10039350D02*
X13315950Y10033000D01*
X13309599Y10039350D02*
Y10263187D01*
X13017500Y9929178D02*
Y10248900D01*
Y9929178D02*
X13112750Y9833928D01*
X12830811Y10302456D02*
X12963943D01*
X12830811Y10502506D02*
X12902806D01*
X12830811Y10402481D02*
X12983208D01*
X12830811Y10452494D02*
X12956737D01*
X13308330Y10345737D02*
X13309599Y10347007D01*
X13191490Y10344468D02*
X13192760Y10345737D01*
X13191490Y10212387D02*
Y10344468D01*
X13192760Y10345737D02*
X13308330D01*
X12382500Y10052050D02*
X12547600D01*
X12830811Y10552519D02*
X12889319D01*
X12511468Y10204450D02*
Y10232390D01*
X12417488Y10110470D02*
X12511468Y10204450D01*
X12442190Y10270490D02*
Y10302456D01*
X12407900Y10236200D02*
X12442190Y10270490D01*
X12346579Y10352468D02*
X12442190D01*
X12401333Y10652544D02*
X12442190D01*
X12424410Y10807680D02*
X12534920D01*
X12367260Y10759440D02*
X12404090Y10722610D01*
X12511468D01*
X12367260Y10759440D02*
Y10915650D01*
X12642850Y9912350D02*
X12738100D01*
X12642850D02*
Y10074001D01*
X12547600Y9912350D02*
X12642850D01*
X12382500Y9840110D02*
Y9912350D01*
Y9840110D02*
X12407900Y9814710D01*
Y9804400D02*
Y9814710D01*
X12560300Y10994390D02*
Y11074400D01*
X12484100Y10871200D02*
Y10953750D01*
X12166900Y10922000D02*
X12173250Y10915650D01*
X12367260D01*
X12282332Y10771545D02*
X12401333Y10652544D01*
X12282332Y10771545D02*
Y10797587D01*
X13209270Y10825480D02*
X13252451Y10868660D01*
X13191490Y10810240D02*
X13206731Y10825480D01*
X13209270D01*
X13191490Y10807700D02*
Y10810240D01*
X13112750Y10932160D02*
Y10947400D01*
X12039600Y10579100D02*
X12049910D01*
X12256770Y10464800D02*
X12294476Y10502506D01*
X12230100Y10363200D02*
X12319394Y10452494D01*
X12129409Y10536281D02*
X12185650Y10480040D01*
X12092729Y10536281D02*
X12129409D01*
X12032310Y10586390D02*
Y10598455D01*
X12049910Y10579100D02*
X12092729Y10536281D01*
X12032310Y10586390D02*
X12039600Y10579100D01*
X12341257Y10602531D02*
X12442190D01*
X11982450Y10648315D02*
Y10664825D01*
X12162790D02*
X12278964D01*
X11982450Y10648315D02*
X12032310Y10598455D01*
X12319394Y10452494D02*
X12442190D01*
X12278964Y10664825D02*
X12341257Y10602531D01*
X12294476Y10502506D02*
X12442190D01*
X13055600Y10655300D02*
X13112750D01*
X12928600Y10693400D02*
X13042900Y10807700D01*
X13252451Y10655300D02*
Y10744200D01*
X13191490Y10805160D02*
Y10807700D01*
X13042900D02*
X13107671D01*
X13191490Y10805160D02*
X13252451Y10744200D01*
X6908800Y8128000D02*
X7372100Y8591300D01*
X7340600Y9271000D02*
X7493000Y9423400D01*
X7277100Y9271000D02*
X7340600D01*
X7493000Y9423400D02*
Y11201400D01*
X7182100Y9176000D02*
X7277100Y9271000D01*
X7302500Y12458700D02*
X7543800Y12700000D01*
X7302500Y11391900D02*
Y12458700D01*
Y11391900D02*
X7493000Y11201400D01*
X7182100Y9171000D02*
Y9176000D01*
X7277100Y9371000D02*
Y10655300D01*
X7035800Y10896600D02*
X7277100Y10655300D01*
X7302500Y11125200D02*
X7340600Y11163300D01*
X7123700Y11125200D02*
X7302500D01*
X6725369Y11120947D02*
X6994447D01*
X6998700Y11125200D01*
X7372100Y8591300D02*
Y9171000D01*
X7899400Y11785600D02*
Y13728700D01*
X7543800Y11430000D02*
X7899400Y11785600D01*
Y13728700D02*
X8077200Y13906500D01*
D39*
X10962530Y12232530D02*
X11108432D01*
X11112500Y12236597D01*
X10960100Y12230100D02*
X10962530Y12232530D01*
X10965631Y12010280D02*
X11016182D01*
X11102500Y12096598D02*
X11112500D01*
X11016182Y12010280D02*
X11102500Y12096598D01*
X10963201Y12007850D02*
X10965631Y12010280D01*
X9789270D02*
X9791700Y12007850D01*
X9649300Y12096598D02*
X9735618Y12010280D01*
X9639300Y12096598D02*
X9649300D01*
X9735618Y12010280D02*
X9789270D01*
X9639300Y12236597D02*
X9643368Y12232530D01*
X9789270D02*
X9791700Y12230100D01*
X9643368Y12232530D02*
X9789270D01*
X9639300Y12236597D02*
X9642401Y12239699D01*
D40*
X10147300Y9144000D02*
X10198100Y9093200D01*
X10003165Y9144000D02*
X10147300D01*
X10198100Y8204200D02*
Y9093200D01*
X9779000Y6426200D02*
X10147300D01*
X9728200Y6477000D02*
Y7061200D01*
Y6477000D02*
X9779000Y6426200D01*
X9677400Y7112000D02*
X9728200Y7061200D01*
X10147300Y6426200D02*
X10198100Y6477000D01*
Y7137400D01*
X9575800Y7112000D02*
X9677400D01*
X10003165Y8204200D02*
X10198100D01*
Y7620000D02*
Y8204200D01*
Y7137400D02*
Y7620000D01*
X10003165D02*
X10198100D01*
X10009825Y7035800D02*
X10096500D01*
X10198100Y7137400D01*
D42*
X17513300Y8115300D02*
X17627600D01*
Y8432800D01*
X18402299Y9207500D01*
X17627600Y8115300D02*
X17741901D01*
X18402299Y9207500D02*
Y10546649D01*
X15011400Y8864600D02*
Y11417300D01*
X18402299Y10546649D02*
X18572800Y10717149D01*
X18387096Y11152850D02*
X18572800Y10967146D01*
X18387096Y11152850D02*
Y11826144D01*
X18572800Y12011848D01*
Y10717149D02*
Y10967146D01*
Y12761849D02*
Y13011845D01*
X17956079Y12419178D02*
X18230128D01*
X18572800Y12761849D01*
X17703500Y12166600D02*
X17956079Y12419178D01*
X15760699Y12166600D02*
X17703500D01*
X15011400Y11417300D02*
X15760699Y12166600D01*
X14211299Y8064499D02*
X15011400Y8864600D01*
X13881100Y8064499D02*
X14211299D01*
X17956850Y12169947D02*
X18230901D01*
X18572800Y12511847D01*
X17737602Y11950700D02*
X17956850Y12169947D01*
X16116299Y11950700D02*
X17737602D01*
X15417799Y11252200D02*
X16116299Y11950700D01*
X15417799Y8318800D02*
Y11252200D01*
Y8318800D02*
X15659100Y8077500D01*
X13766800Y8064499D02*
X13881100D01*
X13652499D02*
X13766800D01*
X15659100Y8077500D02*
X15773399D01*
X15887700D01*
D44*
X8432800Y10160000D02*
D03*
Y9906000D02*
D03*
Y9652000D02*
D03*
Y9398000D02*
D03*
Y9144000D02*
D03*
Y8890000D02*
D03*
Y8636000D02*
D03*
Y8382000D02*
D03*
Y8128000D02*
D03*
Y7874000D02*
D03*
Y7620000D02*
D03*
Y7366000D02*
D03*
Y7112000D02*
D03*
Y6858000D02*
D03*
Y6604000D02*
D03*
X6908800D02*
D03*
Y6858000D02*
D03*
Y7112000D02*
D03*
Y7366000D02*
D03*
Y7620000D02*
D03*
Y7874000D02*
D03*
Y8128000D02*
D03*
Y8382000D02*
D03*
Y8636000D02*
D03*
Y8890000D02*
D03*
Y9144000D02*
D03*
Y9398000D02*
D03*
Y9652000D02*
D03*
Y9906000D02*
D03*
D45*
Y10160000D02*
D03*
D46*
X18135600Y8293100D02*
D03*
X6858000Y13525500D02*
D03*
Y5778500D02*
D03*
X17843500Y13525500D02*
D03*
X17602200Y5778500D02*
D03*
X18021300Y10160000D02*
D03*
X9461500Y5778500D02*
D03*
D47*
X9479900Y11151400D02*
D03*
X9279900D02*
D03*
X9529900Y8581400D02*
D03*
X9329900D02*
D03*
D48*
X19545300Y7370249D02*
D03*
Y5872749D02*
D03*
Y11459647D02*
D03*
Y9962149D02*
D03*
Y9414949D02*
D03*
Y7917449D02*
D03*
Y13504347D02*
D03*
Y12006849D02*
D03*
D49*
X18822800Y5877749D02*
D03*
Y6127749D02*
D03*
Y6377749D02*
D03*
Y6627749D02*
D03*
Y6877749D02*
D03*
Y7127749D02*
D03*
Y7377749D02*
D03*
X18572800Y5877749D02*
D03*
Y6127749D02*
D03*
Y6377749D02*
D03*
Y6627749D02*
D03*
Y6877749D02*
D03*
Y7127749D02*
D03*
Y7377749D02*
D03*
X18822803Y9967148D02*
D03*
Y10217150D02*
D03*
Y10467147D02*
D03*
Y10717149D02*
D03*
Y10967146D02*
D03*
Y11217148D02*
D03*
Y11467150D02*
D03*
X18572800Y9967148D02*
D03*
Y10217150D02*
D03*
Y10467147D02*
D03*
Y10717149D02*
D03*
Y10967146D02*
D03*
Y11217148D02*
D03*
Y11467150D02*
D03*
X18822800Y7922449D02*
D03*
Y8172449D02*
D03*
Y8422449D02*
D03*
Y8672449D02*
D03*
Y8922449D02*
D03*
Y9172449D02*
D03*
Y9422449D02*
D03*
X18572800Y7922449D02*
D03*
Y8172449D02*
D03*
Y8422449D02*
D03*
Y8672449D02*
D03*
Y8922449D02*
D03*
Y9172449D02*
D03*
Y9422449D02*
D03*
X18822803Y12011848D02*
D03*
Y12261850D02*
D03*
Y12511847D02*
D03*
Y12761849D02*
D03*
Y13011845D02*
D03*
Y13261848D02*
D03*
Y13511850D02*
D03*
X18572800Y12011848D02*
D03*
Y12261850D02*
D03*
Y12511847D02*
D03*
Y12761849D02*
D03*
Y13011845D02*
D03*
Y13261848D02*
D03*
Y13511850D02*
D03*
D50*
X6616700Y10160000D02*
D03*
X8724900D02*
D03*
D51*
X6616700Y9906000D02*
D03*
Y9652000D02*
D03*
Y9398000D02*
D03*
Y9144000D02*
D03*
Y8890000D02*
D03*
Y8636000D02*
D03*
Y8382000D02*
D03*
Y8128000D02*
D03*
Y7874000D02*
D03*
Y7620000D02*
D03*
Y7366000D02*
D03*
Y7112000D02*
D03*
Y6858000D02*
D03*
Y6604000D02*
D03*
X8724900Y9906000D02*
D03*
Y9652000D02*
D03*
Y9398000D02*
D03*
Y9144000D02*
D03*
Y8890000D02*
D03*
Y8636000D02*
D03*
Y8382000D02*
D03*
Y8128000D02*
D03*
Y7874000D02*
D03*
Y7620000D02*
D03*
Y7366000D02*
D03*
Y7112000D02*
D03*
Y6858000D02*
D03*
Y6604000D02*
D03*
D52*
X16660800Y7505700D02*
D03*
X16560800Y7565700D02*
D03*
Y7445700D02*
D03*
X16460800Y7505700D02*
D03*
X14679601D02*
D03*
X14579601Y7565700D02*
D03*
Y7445700D02*
D03*
X14479601Y7505700D02*
D03*
X12673000D02*
D03*
X12573000Y7565700D02*
D03*
Y7445700D02*
D03*
X12473000Y7505700D02*
D03*
D53*
X8674100Y12090400D02*
D03*
Y13208000D02*
D03*
D54*
X6725369Y11120947D02*
D03*
X17335500Y7239000D02*
D03*
X8216900Y5867400D02*
D03*
X8483600D02*
D03*
D55*
X7543800Y12382500D02*
D03*
Y12065000D02*
D03*
Y12700000D02*
D03*
Y11430000D02*
D03*
Y13017500D02*
D03*
Y11747500D02*
D03*
D56*
X12357100Y11379200D02*
D03*
X11886097Y10565668D02*
D03*
X12280900Y10566400D02*
D03*
X16979900Y7251700D02*
D03*
X13639799Y7457915D02*
D03*
X15646400D02*
D03*
X17590826D02*
D03*
X13373100Y9817100D02*
D03*
X10033000Y7797800D02*
D03*
X9575800Y7112000D02*
D03*
Y7874000D02*
D03*
Y7366000D02*
D03*
Y7620000D02*
D03*
X10039660Y6629400D02*
D03*
X9931400Y8737600D02*
D03*
X10033000Y7213600D02*
D03*
X13373100Y10934700D02*
D03*
Y11112500D02*
D03*
Y11379200D02*
D03*
X12560300Y11112500D02*
D03*
X12738100Y13702029D02*
D03*
X13449300D02*
D03*
X12452350Y12288520D02*
D03*
X15836900Y9853930D02*
D03*
X16598900D02*
D03*
X13766800Y9918700D02*
D03*
X13868401D02*
D03*
X13970000D02*
D03*
Y9817100D02*
D03*
X13868401D02*
D03*
X13766800D02*
D03*
Y9715500D02*
D03*
X13970000D02*
D03*
X13868401D02*
D03*
X12280900Y11112500D02*
D03*
X12839700Y9817100D02*
D03*
X13373100Y10426700D02*
D03*
Y10680700D02*
D03*
Y10807700D02*
D03*
X14236700Y12484100D02*
D03*
X9791700Y12230100D02*
D03*
X10960100D02*
D03*
X11633200Y12484100D02*
D03*
X12424410Y10807700D02*
D03*
X12280900D02*
D03*
X12039600Y10579100D02*
D03*
Y10807700D02*
D03*
X12839700Y9550400D02*
D03*
X12407900Y9804400D02*
D03*
Y10236200D02*
D03*
X12039600Y10363200D02*
D03*
X12280900Y10236200D02*
D03*
X13373100Y10172700D02*
D03*
X12039600Y11112500D02*
D03*
X9791700Y12007850D02*
D03*
X10963201D02*
D03*
X13417551Y11918950D02*
D03*
X13868401Y8813800D02*
D03*
X13970000D02*
D03*
X14236700Y11671300D02*
D03*
X17284700Y9017000D02*
D03*
X17183099D02*
D03*
X9715500Y9359900D02*
D03*
X7035800Y10896600D02*
D03*
X7340600Y11163300D02*
D03*
X17513300Y8115300D02*
D03*
X17183099Y8813800D02*
D03*
X17081500D02*
D03*
X17284700D02*
D03*
X17183099Y8915400D02*
D03*
X17284700D02*
D03*
X17081500D02*
D03*
Y9017000D02*
D03*
X17386301Y8813800D02*
D03*
Y9017000D02*
D03*
Y8915400D02*
D03*
X17513300Y12979401D02*
D03*
X17614900D02*
D03*
Y12877800D02*
D03*
X17513300D02*
D03*
X16370300Y6908800D02*
D03*
X11442700Y11010900D02*
D03*
Y10909300D02*
D03*
Y11112500D02*
D03*
X11341100D02*
D03*
Y10909300D02*
D03*
Y11010900D02*
D03*
X11544300Y10909300D02*
D03*
Y11010900D02*
D03*
Y11112500D02*
D03*
X11137900Y11010900D02*
D03*
Y10909300D02*
D03*
Y11112500D02*
D03*
X11036300D02*
D03*
Y10909300D02*
D03*
Y11010900D02*
D03*
X11239500Y10909300D02*
D03*
Y11010900D02*
D03*
Y11112500D02*
D03*
X8750300Y10553700D02*
D03*
Y10655300D02*
D03*
Y10756900D02*
D03*
Y11163300D02*
D03*
Y11061700D02*
D03*
Y10960100D02*
D03*
Y10858500D02*
D03*
X8547100Y11061700D02*
D03*
Y10655300D02*
D03*
Y10858500D02*
D03*
Y10960100D02*
D03*
Y11163300D02*
D03*
Y10756900D02*
D03*
Y10553700D02*
D03*
X8648700Y10858500D02*
D03*
Y10960100D02*
D03*
Y11061700D02*
D03*
Y11163300D02*
D03*
Y10756900D02*
D03*
Y10655300D02*
D03*
Y10553700D02*
D03*
X9817100Y9359900D02*
D03*
X10223500D02*
D03*
X10020300D02*
D03*
X9817100Y9969500D02*
D03*
X10020300Y9461500D02*
D03*
Y9563100D02*
D03*
X10223500Y9461500D02*
D03*
Y9563100D02*
D03*
X9817100Y9461500D02*
D03*
Y9563100D02*
D03*
X10223500Y9969500D02*
D03*
Y9867900D02*
D03*
Y9766300D02*
D03*
Y9664700D02*
D03*
X10020300Y9867900D02*
D03*
Y9766300D02*
D03*
Y9664700D02*
D03*
Y9969500D02*
D03*
X9817100Y9867900D02*
D03*
Y9766300D02*
D03*
Y9664700D02*
D03*
X10121900Y9359900D02*
D03*
X9918700Y9766300D02*
D03*
Y9664700D02*
D03*
X10121900Y9563100D02*
D03*
Y9969500D02*
D03*
Y9766300D02*
D03*
Y9664700D02*
D03*
Y9461500D02*
D03*
Y9867900D02*
D03*
X9715500Y9664700D02*
D03*
Y9766300D02*
D03*
Y9563100D02*
D03*
Y9461500D02*
D03*
X9918700Y9969500D02*
D03*
X9715500D02*
D03*
X9918700Y9563100D02*
D03*
Y9359900D02*
D03*
Y9461500D02*
D03*
X9715500Y9867900D02*
D03*
X9918700D02*
D03*
X14071600Y8813800D02*
D03*
X13766800D02*
D03*
Y8915400D02*
D03*
X13868401D02*
D03*
X13970000D02*
D03*
X14071600D02*
D03*
Y9017000D02*
D03*
X13970000D02*
D03*
X13868401D02*
D03*
X13766800D02*
D03*
X14706599Y12865100D02*
D03*
X14605000D02*
D03*
X11671300Y12814301D02*
D03*
X12382500Y6794502D02*
D03*
X12153900D02*
D03*
Y6908802D02*
D03*
X14097000Y8267700D02*
D03*
X14808200Y8191500D02*
D03*
X14160500Y7035800D02*
D03*
X14274800Y6921500D02*
D03*
X14389101Y7035800D02*
D03*
X14274800D02*
D03*
Y6807200D02*
D03*
X14160500Y6921500D02*
D03*
Y6807200D02*
D03*
X14389101D02*
D03*
Y6921500D02*
D03*
X15887700Y8077500D02*
D03*
X15659100D02*
D03*
X15773399D02*
D03*
X14986000Y7264400D02*
D03*
X14871700Y7378700D02*
D03*
X16141701Y7023100D02*
D03*
X16256000D02*
D03*
X16370300D02*
D03*
X16256000Y6908800D02*
D03*
X16141701D02*
D03*
Y6794500D02*
D03*
X16256000D02*
D03*
X16370300D02*
D03*
X12153900Y7023102D02*
D03*
X12268200D02*
D03*
X12382500D02*
D03*
Y6908802D02*
D03*
X12268200D02*
D03*
Y6794502D02*
D03*
X14605000Y13169901D02*
D03*
X14706599D02*
D03*
Y12966701D02*
D03*
Y13068300D02*
D03*
X14605000Y12966701D02*
D03*
Y13068300D02*
D03*
X15011400Y12966701D02*
D03*
X15113000D02*
D03*
X14808200Y13169901D02*
D03*
X15113000Y12865100D02*
D03*
X15011400D02*
D03*
X14909801D02*
D03*
X14808200D02*
D03*
X14909801Y13169901D02*
D03*
X15113000D02*
D03*
X15011400Y13068300D02*
D03*
X14909801Y12966701D02*
D03*
X15011400Y13169901D02*
D03*
X14808200Y13068300D02*
D03*
Y12966701D02*
D03*
X14909801Y13068300D02*
D03*
X15113000D02*
D03*
X16764000Y12979401D02*
D03*
X13881100Y8064499D02*
D03*
X13652499D02*
D03*
X13766800D02*
D03*
X17741901Y8115300D02*
D03*
X17627600D02*
D03*
X11671300Y13373100D02*
D03*
Y13093700D02*
D03*
Y13233400D02*
D03*
Y13512801D02*
D03*
Y13652499D02*
D03*
Y12953999D02*
D03*
X11811000Y12814301D02*
D03*
Y12953999D02*
D03*
Y13652499D02*
D03*
Y13512801D02*
D03*
Y13373100D02*
D03*
Y13233400D02*
D03*
Y13093700D02*
D03*
X12852400Y7366000D02*
D03*
X12839700Y8204200D02*
D03*
X12966701Y7251700D02*
D03*
X12103100Y8305800D02*
D03*
X16827499Y7378700D02*
D03*
X16090900Y8242300D02*
D03*
X16814799Y8166100D02*
D03*
D74*
X9832994Y9144000D02*
D03*
X10003165D02*
D03*
X9832994Y6819900D02*
D03*
X10003165D02*
D03*
X9832994Y7035800D02*
D03*
X10003165D02*
D03*
X9832994Y8928100D02*
D03*
X10003165D02*
D03*
X9832994Y7988300D02*
D03*
X10003165D02*
D03*
X9832994Y8204200D02*
D03*
X10003165D02*
D03*
X9832994Y7620000D02*
D03*
X10003165D02*
D03*
X9832994Y7404100D02*
D03*
X10003165D02*
D03*
D75*
X12185650Y10464800D02*
D03*
X12045950D02*
D03*
X13252451Y10947400D02*
D03*
X13112750D02*
D03*
X13252451Y10655300D02*
D03*
X13112750D02*
D03*
X13252451Y10490200D02*
D03*
X13112750D02*
D03*
X13252451Y9818688D02*
D03*
X13112750D02*
D03*
Y9626600D02*
D03*
X13252451D02*
D03*
X12185650Y9906000D02*
D03*
X12045950D02*
D03*
X12185650Y10071100D02*
D03*
X12045950D02*
D03*
D76*
X12830811Y10652544D02*
D03*
Y10602531D02*
D03*
Y10552519D02*
D03*
Y10502506D02*
D03*
Y10452494D02*
D03*
Y10402481D02*
D03*
Y10352468D02*
D03*
Y10302456D02*
D03*
X12442190D02*
D03*
Y10352468D02*
D03*
Y10402481D02*
D03*
Y10452494D02*
D03*
Y10502506D02*
D03*
Y10552519D02*
D03*
Y10602531D02*
D03*
Y10652544D02*
D03*
D77*
X12761531Y10232390D02*
D03*
X12711519D02*
D03*
X12661506D02*
D03*
X12611494D02*
D03*
X12561481D02*
D03*
X12511468D02*
D03*
Y10722610D02*
D03*
X12561481D02*
D03*
X12611494D02*
D03*
X12661506D02*
D03*
X12711519D02*
D03*
X12761531D02*
D03*
D78*
X12636500Y10477500D02*
D03*
D79*
X12560300Y10994390D02*
D03*
Y10910570D02*
D03*
X12674600D02*
D03*
Y10994390D02*
D03*
X13309599Y10347007D02*
D03*
Y10263187D02*
D03*
D80*
X13107671Y10807700D02*
D03*
X13191490D02*
D03*
X13107671Y10344468D02*
D03*
X13191490D02*
D03*
X13107671Y10212387D02*
D03*
X13191490D02*
D03*
D81*
X11886900Y10236200D02*
D03*
X12166900D02*
D03*
X11886900Y10922000D02*
D03*
X12166900D02*
D03*
D82*
X7123700Y11125200D02*
D03*
X6998700D02*
D03*
D83*
X7372100Y9171000D02*
D03*
X7182100D02*
D03*
X7277100Y9371000D02*
D03*
D84*
X16256000Y6908800D02*
X16370300D01*
X17559151D01*
X16370300Y6794500D02*
Y6908800D01*
X16141701Y6794500D02*
X16256000D01*
X17559151Y6908800D02*
X18572800Y7922449D01*
D85*
X18430751Y6235700D02*
X18572800Y6377749D01*
Y6627749D01*
Y6877749D01*
X15468600Y6235700D02*
X18430751D01*
X18572800Y7127749D02*
Y7377749D01*
Y6877749D02*
Y7127749D01*
X13881100Y7823200D02*
Y8064499D01*
Y7823200D02*
X15468600Y6235700D01*
D86*
X18572800Y7922449D02*
Y8172449D01*
Y8422449D01*
%TF.MD5,b50578ee3bdfe1385907cf1d297c82b5*%
M02*
