%TF.GenerationSoftware,Altium Limited,Altium Designer,23.5.1 (21)*%
G04 Layer_Color=0*
%FSLAX45Y45*%
%MOMM*%
%TF.SameCoordinates,7A350176-D2D4-4FA0-928D-7306E9DA7793*%
%TF.FilePolarity,Positive*%
%TF.FileFunction,Plated,1,6,PTH,Drill*%
%TF.Part,Single*%
G01*
G75*
%TA.AperFunction,ComponentDrill*%
%ADD148C,0.30480*%
%ADD149C,1.02000*%
%ADD150C,1.02000*%
%ADD151C,0.80000*%
%ADD152C,0.90000*%
%ADD153C,3.70000*%
%ADD154C,0.80000*%
%ADD155C,1.70000*%
%ADD156C,1.20000*%
%ADD157C,6.20000*%
%ADD158C,1.01600*%
%TA.AperFunction,ViaDrill,NotFilled*%
%ADD159C,0.38100*%
%ADD160C,0.30480*%
%ADD161C,0.71120*%
D148*
X16660800Y7505700D02*
D03*
X16560800Y7565700D02*
D03*
Y7445700D02*
D03*
X16460800Y7505700D02*
D03*
X14479601D02*
D03*
X14579601Y7445700D02*
D03*
Y7565700D02*
D03*
X14679601Y7505700D02*
D03*
X12673000D02*
D03*
X12573000Y7565700D02*
D03*
Y7445700D02*
D03*
X12473000Y7505700D02*
D03*
D149*
X12268200Y13233400D02*
D03*
Y12979401D02*
D03*
Y12725400D02*
D03*
X6616700Y10160000D02*
D03*
Y9906000D02*
D03*
Y9652000D02*
D03*
Y9398000D02*
D03*
Y9144000D02*
D03*
Y8890000D02*
D03*
Y8636000D02*
D03*
Y8382000D02*
D03*
Y8128000D02*
D03*
Y7874000D02*
D03*
Y7620000D02*
D03*
Y7366000D02*
D03*
Y7112000D02*
D03*
Y6858000D02*
D03*
Y6604000D02*
D03*
X8724900Y10160000D02*
D03*
Y9906000D02*
D03*
Y9652000D02*
D03*
Y9398000D02*
D03*
Y9144000D02*
D03*
Y8890000D02*
D03*
Y8636000D02*
D03*
Y8382000D02*
D03*
Y8128000D02*
D03*
Y7874000D02*
D03*
Y7620000D02*
D03*
Y7366000D02*
D03*
Y7112000D02*
D03*
Y6858000D02*
D03*
Y6604000D02*
D03*
D150*
X12268200Y13792200D02*
D03*
X12522200D02*
D03*
X12776200D02*
D03*
D151*
X13358000Y8963900D02*
D03*
Y9163900D02*
D03*
X11988000Y8913900D02*
D03*
Y9113900D02*
D03*
D152*
X8432800Y10160000D02*
D03*
Y9906000D02*
D03*
Y9652000D02*
D03*
Y9398000D02*
D03*
Y9144000D02*
D03*
Y8890000D02*
D03*
Y8636000D02*
D03*
Y8382000D02*
D03*
Y8128000D02*
D03*
Y7874000D02*
D03*
Y7620000D02*
D03*
Y7366000D02*
D03*
Y7112000D02*
D03*
Y6858000D02*
D03*
Y6604000D02*
D03*
X6908800D02*
D03*
Y6858000D02*
D03*
Y7112000D02*
D03*
Y7366000D02*
D03*
Y7620000D02*
D03*
Y7874000D02*
D03*
Y8128000D02*
D03*
Y8382000D02*
D03*
Y8636000D02*
D03*
Y8890000D02*
D03*
Y9144000D02*
D03*
Y9398000D02*
D03*
Y9652000D02*
D03*
Y9906000D02*
D03*
Y10160000D02*
D03*
D153*
X18135600Y8293100D02*
D03*
X6858000Y13525500D02*
D03*
Y5778500D02*
D03*
X17843500Y13525500D02*
D03*
X17602200Y5778500D02*
D03*
X18021300Y10160000D02*
D03*
X9461500Y5778500D02*
D03*
D154*
X9479900Y11151400D02*
D03*
X9279900D02*
D03*
X9529900Y8581400D02*
D03*
X9329900D02*
D03*
D155*
X19545300Y7370249D02*
D03*
Y5872749D02*
D03*
Y11459647D02*
D03*
Y9962149D02*
D03*
Y9414949D02*
D03*
Y7917449D02*
D03*
Y13504347D02*
D03*
Y12006849D02*
D03*
D156*
X18822800Y5877749D02*
D03*
Y6127749D02*
D03*
Y6377749D02*
D03*
Y6627749D02*
D03*
Y6877749D02*
D03*
Y7127749D02*
D03*
Y7377749D02*
D03*
X18572800Y5877749D02*
D03*
Y6127749D02*
D03*
Y6377749D02*
D03*
Y6627749D02*
D03*
Y6877749D02*
D03*
Y7127749D02*
D03*
Y7377749D02*
D03*
X18822803Y9967148D02*
D03*
Y10217150D02*
D03*
Y10467147D02*
D03*
Y10717149D02*
D03*
Y10967146D02*
D03*
Y11217148D02*
D03*
Y11467150D02*
D03*
X18572800Y9967148D02*
D03*
Y10217150D02*
D03*
Y10467147D02*
D03*
Y10717149D02*
D03*
Y10967146D02*
D03*
Y11217148D02*
D03*
Y11467150D02*
D03*
X18822800Y7922449D02*
D03*
Y8172449D02*
D03*
Y8422449D02*
D03*
Y8672449D02*
D03*
Y8922449D02*
D03*
Y9172449D02*
D03*
Y9422449D02*
D03*
X18572800Y7922449D02*
D03*
Y8172449D02*
D03*
Y8422449D02*
D03*
Y8672449D02*
D03*
Y8922449D02*
D03*
Y9172449D02*
D03*
Y9422449D02*
D03*
X18822803Y12011848D02*
D03*
Y12261850D02*
D03*
Y12511847D02*
D03*
Y12761849D02*
D03*
Y13011845D02*
D03*
Y13261848D02*
D03*
Y13511850D02*
D03*
X18572800Y12011848D02*
D03*
Y12261850D02*
D03*
Y12511847D02*
D03*
Y12761849D02*
D03*
Y13011845D02*
D03*
Y13261848D02*
D03*
Y13511850D02*
D03*
D157*
X8674100Y12090400D02*
D03*
Y13208000D02*
D03*
D158*
X6725369Y11120947D02*
D03*
X7543800Y12382500D02*
D03*
Y12065000D02*
D03*
Y12700000D02*
D03*
Y11430000D02*
D03*
Y13017500D02*
D03*
Y11747500D02*
D03*
X17335500Y7239000D02*
D03*
X8216900Y5867400D02*
D03*
X8483600D02*
D03*
D159*
X14833600Y8864600D02*
D03*
Y9296400D02*
D03*
X14401801D02*
D03*
X13970000D02*
D03*
X17614900Y12979401D02*
D03*
X14084300Y8562340D02*
D03*
X16192500Y8712200D02*
D03*
X10363200Y8540750D02*
D03*
X10160000Y8369300D02*
D03*
X13970770Y8859060D02*
D03*
Y9758611D02*
D03*
X15756860Y12881706D02*
D03*
X14661018Y12714100D02*
D03*
X9318656Y6770378D02*
D03*
X9829800Y8737600D02*
D03*
X9832994Y8096250D02*
D03*
X10033000Y7213600D02*
D03*
X9613900Y7747000D02*
D03*
Y7848600D02*
D03*
X10121900Y9969500D02*
D03*
X8750300Y10655300D02*
D03*
Y11163300D02*
D03*
Y10960100D02*
D03*
Y10858500D02*
D03*
Y10756900D02*
D03*
Y11061700D02*
D03*
Y10553700D02*
D03*
X8648700Y10655300D02*
D03*
Y11163300D02*
D03*
Y10960100D02*
D03*
Y10553700D02*
D03*
Y10756900D02*
D03*
Y11061700D02*
D03*
Y10858500D02*
D03*
X8547100Y10655300D02*
D03*
Y11163300D02*
D03*
Y11061700D02*
D03*
Y10553700D02*
D03*
Y10858500D02*
D03*
Y10756900D02*
D03*
Y10960100D02*
D03*
X12017000Y11240538D02*
D03*
X15051674D02*
D03*
X12268200Y11887200D02*
D03*
X15341600D02*
D03*
X15159425Y12714100D02*
D03*
X7663700Y7754100D02*
D03*
X7652500Y7373100D02*
D03*
X7467600Y7569200D02*
D03*
X7848600Y7558000D02*
D03*
X7658100Y7563600D02*
D03*
X10172700Y8788400D02*
D03*
X16179800Y9461500D02*
D03*
Y9779000D02*
D03*
Y10096500D02*
D03*
X16192500Y8839200D02*
D03*
X13182600Y12329430D02*
D03*
X16256474Y12328758D02*
D03*
X13398500Y12329430D02*
D03*
X16472375Y12328758D02*
D03*
X16090900Y8242300D02*
D03*
X16256474Y13067628D02*
D03*
X16472375D02*
D03*
Y12698193D02*
D03*
X16256474D02*
D03*
X11633200Y12541250D02*
D03*
X13182600Y12698865D02*
D03*
X13398500D02*
D03*
Y13068300D02*
D03*
X13182600D02*
D03*
X16814799Y8166100D02*
D03*
X15887700Y8077500D02*
D03*
X14097000Y8267700D02*
D03*
X14808200Y8191500D02*
D03*
X12103100Y8305800D02*
D03*
X12839700Y8204200D02*
D03*
X9831566Y12047716D02*
D03*
X11544300Y10909300D02*
D03*
X11239500D02*
D03*
X11137900D02*
D03*
X11442700D02*
D03*
X11036300D02*
D03*
X11341100D02*
D03*
X10963201Y12007850D02*
D03*
X9791700Y12230100D02*
D03*
X10960100D02*
D03*
X10223500Y9969500D02*
D03*
Y9867900D02*
D03*
X16979900Y7251700D02*
D03*
X13639799Y7457915D02*
D03*
X15646400D02*
D03*
X17590826D02*
D03*
X10033000Y7797800D02*
D03*
X9715500Y9359900D02*
D03*
X7035800Y10896600D02*
D03*
X7340600Y11163300D02*
D03*
X17513300Y8115300D02*
D03*
Y12979401D02*
D03*
X17614900Y12877800D02*
D03*
X17513300D02*
D03*
X16370300Y6908800D02*
D03*
X11442700Y11010900D02*
D03*
Y11112500D02*
D03*
X11341100D02*
D03*
Y11010900D02*
D03*
X11544300D02*
D03*
Y11112500D02*
D03*
X11137900Y11010900D02*
D03*
Y11112500D02*
D03*
X11036300D02*
D03*
Y11010900D02*
D03*
X11239500D02*
D03*
Y11112500D02*
D03*
X9817100Y9359900D02*
D03*
X10223500D02*
D03*
X10020300D02*
D03*
X9817100Y9969500D02*
D03*
X10020300Y9461500D02*
D03*
Y9563100D02*
D03*
X10223500Y9461500D02*
D03*
Y9563100D02*
D03*
X9817100Y9461500D02*
D03*
Y9563100D02*
D03*
X10223500Y9766300D02*
D03*
Y9664700D02*
D03*
X10020300Y9867900D02*
D03*
Y9766300D02*
D03*
Y9664700D02*
D03*
Y9969500D02*
D03*
X9817100Y9867900D02*
D03*
Y9766300D02*
D03*
Y9664700D02*
D03*
X10121900Y9359900D02*
D03*
X9918700Y9766300D02*
D03*
Y9664700D02*
D03*
X10121900Y9563100D02*
D03*
Y9766300D02*
D03*
Y9664700D02*
D03*
Y9461500D02*
D03*
Y9867900D02*
D03*
X9715500Y9664700D02*
D03*
Y9766300D02*
D03*
Y9563100D02*
D03*
Y9461500D02*
D03*
X9918700Y9969500D02*
D03*
X9715500D02*
D03*
X9918700Y9563100D02*
D03*
Y9359900D02*
D03*
Y9461500D02*
D03*
X9715500Y9867900D02*
D03*
X9918700D02*
D03*
X11671300Y12814301D02*
D03*
X12382500Y6794502D02*
D03*
X12153900D02*
D03*
Y6908802D02*
D03*
X14160500Y7035800D02*
D03*
X14274800Y6921500D02*
D03*
X14389101Y7035800D02*
D03*
X14274800D02*
D03*
Y6807200D02*
D03*
X14160500Y6921500D02*
D03*
Y6807200D02*
D03*
X14389101D02*
D03*
Y6921500D02*
D03*
X15659100Y8077500D02*
D03*
X15773399D02*
D03*
X14986000Y7264400D02*
D03*
X14871700Y7378700D02*
D03*
X16141701Y7023100D02*
D03*
X16256000D02*
D03*
X16370300D02*
D03*
X16256000Y6908800D02*
D03*
X16141701D02*
D03*
Y6794500D02*
D03*
X16256000D02*
D03*
X16370300D02*
D03*
X12153900Y7023102D02*
D03*
X12268200D02*
D03*
X12382500D02*
D03*
Y6908802D02*
D03*
X12268200D02*
D03*
Y6794502D02*
D03*
X13881100Y8064499D02*
D03*
X13652499D02*
D03*
X13766800D02*
D03*
X17741901Y8115300D02*
D03*
X17627600D02*
D03*
X11671300Y13373100D02*
D03*
Y13093700D02*
D03*
Y13233400D02*
D03*
Y13512801D02*
D03*
Y13652499D02*
D03*
Y12953999D02*
D03*
X11811000Y12814301D02*
D03*
Y12953999D02*
D03*
Y13652499D02*
D03*
Y13512801D02*
D03*
Y13373100D02*
D03*
Y13233400D02*
D03*
Y13093700D02*
D03*
X12852400Y7366000D02*
D03*
X12966701Y7251700D02*
D03*
X16827499Y7378700D02*
D03*
D160*
X11811000Y8445500D02*
D03*
Y8572500D02*
D03*
X9180476Y6596593D02*
D03*
X9309100Y6654800D02*
D03*
X11810398Y12420600D02*
D03*
X12065000Y11887200D02*
D03*
X9017000Y9169400D02*
D03*
X8953500Y6692900D02*
D03*
X9677400Y6489700D02*
D03*
X10756643Y7048285D02*
D03*
X12901677Y8522957D02*
D03*
X12293600Y10756900D02*
D03*
X15343201Y10754676D02*
D03*
X13558450Y10255750D02*
D03*
Y9938250D02*
D03*
X12658900Y10255750D02*
D03*
Y9938250D02*
D03*
X15716901Y10255750D02*
D03*
Y9938250D02*
D03*
Y9620750D02*
D03*
Y9303250D02*
D03*
X16632326D02*
D03*
Y9620750D02*
D03*
Y9938250D02*
D03*
Y10255750D02*
D03*
X16922365Y12512227D02*
D03*
Y12881705D02*
D03*
X13848489Y12512877D02*
D03*
X12698860Y12882314D02*
D03*
X15845799Y10846300D02*
D03*
X15642599D02*
D03*
X15923100Y11239500D02*
D03*
Y11531600D02*
D03*
Y11633200D02*
D03*
Y11734800D02*
D03*
Y11836400D02*
D03*
Y11938000D02*
D03*
X15342368Y11439393D02*
D03*
X12865100Y11239500D02*
D03*
Y11531600D02*
D03*
Y11633200D02*
D03*
Y11734800D02*
D03*
Y11836400D02*
D03*
Y11938000D02*
D03*
X12623800Y12128500D02*
D03*
X14594299Y12092400D02*
D03*
X12584600Y10846300D02*
D03*
X12787800D02*
D03*
X12284367Y11439393D02*
D03*
D161*
X7505700Y7010400D02*
D03*
X8102600Y6591300D02*
D03*
%TF.MD5,04c58fb5f2ff8ef5a3d01dc8501ee6b6*%
M02*
