%TF.GenerationSoftware,Altium Limited,Altium Designer,23.5.1 (21)*%
G04 Layer_Physical_Order=3*
G04 Layer_Color=36540*
%FSLAX45Y45*%
%MOMM*%
%TF.SameCoordinates,7A350176-D2D4-4FA0-928D-7306E9DA7793*%
%TF.FilePolarity,Positive*%
%TF.FileFunction,Copper,L3,Inr,Signal*%
%TF.Part,Single*%
G01*
G75*
%TA.AperFunction,Conductor*%
%ADD41C,0.50800*%
%ADD42C,0.25400*%
%ADD43C,1.01600*%
%TA.AperFunction,ComponentPad*%
%ADD49C,1.55000*%
%ADD50R,1.55000X1.55000*%
%ADD51R,1.55000X1.55000*%
%ADD52C,1.30000*%
%ADD53C,1.80000*%
%ADD55C,6.10000*%
%ADD56C,2.10000*%
%ADD57C,1.56000*%
%ADD58R,1.37000X1.37000*%
%ADD59C,1.37000*%
%ADD60C,9.50000*%
%ADD61C,2.03200*%
%TA.AperFunction,TestPad*%
%ADD62C,2.03200*%
%TA.AperFunction,ViaPad*%
%ADD63C,0.88900*%
%ADD64C,0.63500*%
%ADD65C,1.27000*%
%TA.AperFunction,Conductor*%
%ADD85C,1.27000*%
%TA.AperFunction,ComponentPad*%
%ADD86C,1.52400*%
G36*
X7667164Y12805405D02*
X7662881Y12800294D01*
X7659065Y12794000D01*
X7655718Y12786522D01*
X7652839Y12777860D01*
X7650428Y12768013D01*
X7648485Y12756982D01*
X7647011Y12744767D01*
X7645465Y12716784D01*
X7645395Y12701016D01*
X7544816Y12801595D01*
X7560584Y12801665D01*
X7600782Y12804684D01*
X7611813Y12806628D01*
X7621660Y12809039D01*
X7630322Y12811919D01*
X7637800Y12815265D01*
X7644094Y12819081D01*
X7649204Y12823364D01*
X7667164Y12805405D01*
D02*
G37*
G36*
X11688809Y12576720D02*
X11686080Y12573844D01*
X11683690Y12571015D01*
X11681640Y12568231D01*
X11679928Y12565493D01*
X11678555Y12562800D01*
X11677521Y12560154D01*
X11676826Y12557553D01*
X11676470Y12554998D01*
X11676453Y12552489D01*
X11676775Y12550025D01*
X11644973Y12584113D01*
X11647394Y12583624D01*
X11649851Y12583480D01*
X11652346Y12583678D01*
X11654878Y12584220D01*
X11657447Y12585105D01*
X11660053Y12586333D01*
X11662696Y12587905D01*
X11665376Y12589820D01*
X11668094Y12592079D01*
X11670849Y12594680D01*
X11688809Y12576720D01*
D02*
G37*
G36*
X7645465Y12365716D02*
X7648485Y12325518D01*
X7650428Y12314487D01*
X7652839Y12304640D01*
X7655718Y12295978D01*
X7659065Y12288500D01*
X7662881Y12282206D01*
X7667164Y12277096D01*
X7649204Y12259136D01*
X7644094Y12263419D01*
X7637800Y12267235D01*
X7630322Y12270582D01*
X7621660Y12273461D01*
X7611813Y12275872D01*
X7600782Y12277815D01*
X7588567Y12279289D01*
X7560584Y12280835D01*
X7544816Y12280905D01*
X7645395Y12381484D01*
X7645465Y12365716D01*
D02*
G37*
G36*
X11022713Y12256792D02*
X11019247Y12253245D01*
X11011049Y12243835D01*
X11009049Y12241107D01*
X11007416Y12238585D01*
X11006149Y12236268D01*
X11005249Y12234155D01*
X11004715Y12232247D01*
X11004548Y12230544D01*
X10960544Y12274548D01*
X10962247Y12274715D01*
X10964155Y12275249D01*
X10966268Y12276149D01*
X10968585Y12277416D01*
X10971107Y12279049D01*
X10973835Y12281049D01*
X10979904Y12286148D01*
X10986792Y12292713D01*
X11022713Y12256792D01*
D02*
G37*
G36*
X10928356Y12198985D02*
X10927034Y12200071D01*
X10925308Y12201042D01*
X10923177Y12201900D01*
X10920643Y12202643D01*
X10917704Y12203271D01*
X10914362Y12203786D01*
X10906465Y12204471D01*
X10896952Y12204700D01*
Y12255500D01*
X10901911Y12255557D01*
X10914362Y12256414D01*
X10917704Y12256929D01*
X10920643Y12257557D01*
X10923177Y12258300D01*
X10925308Y12259158D01*
X10927034Y12260129D01*
X10928356Y12261215D01*
Y12198985D01*
D02*
G37*
G36*
X9824766Y12260129D02*
X9826492Y12259158D01*
X9828623Y12258300D01*
X9831157Y12257557D01*
X9834096Y12256929D01*
X9837438Y12256414D01*
X9845335Y12255729D01*
X9854848Y12255500D01*
Y12204700D01*
X9849889Y12204643D01*
X9837438Y12203786D01*
X9834096Y12203271D01*
X9831157Y12202643D01*
X9828623Y12201900D01*
X9826492Y12201042D01*
X9824766Y12200071D01*
X9823444Y12198985D01*
Y12261215D01*
X9824766Y12260129D01*
D02*
G37*
G36*
X7627556Y12125020D02*
X7658116Y12098731D01*
X7667290Y12092305D01*
X7675957Y12087047D01*
X7684118Y12082958D01*
X7691773Y12080037D01*
X7698921Y12078284D01*
X7705563Y12077700D01*
Y12052300D01*
X7698921Y12051716D01*
X7691773Y12049963D01*
X7684118Y12047042D01*
X7675957Y12042953D01*
X7667290Y12037695D01*
X7658116Y12031269D01*
X7648436Y12023674D01*
X7627556Y12004980D01*
X7616357Y11993880D01*
Y12136120D01*
X7627556Y12125020D01*
D02*
G37*
G36*
Y11807520D02*
X7658116Y11781231D01*
X7667290Y11774805D01*
X7675957Y11769547D01*
X7684118Y11765458D01*
X7691773Y11762537D01*
X7698921Y11760784D01*
X7705563Y11760200D01*
Y11734800D01*
X7698921Y11734216D01*
X7691773Y11732463D01*
X7684118Y11729542D01*
X7675957Y11725453D01*
X7667290Y11720195D01*
X7658116Y11713769D01*
X7648436Y11706174D01*
X7627556Y11687480D01*
X7616357Y11676380D01*
Y11818620D01*
X7627556Y11807520D01*
D02*
G37*
G36*
X7645465Y11413216D02*
X7648485Y11373018D01*
X7650428Y11361987D01*
X7652839Y11352140D01*
X7655718Y11343478D01*
X7659065Y11336000D01*
X7662881Y11329706D01*
X7667164Y11324596D01*
X7649204Y11306636D01*
X7644094Y11310919D01*
X7637800Y11314735D01*
X7630322Y11318082D01*
X7621660Y11320961D01*
X7611813Y11323372D01*
X7600782Y11325315D01*
X7588567Y11326789D01*
X7560584Y11328335D01*
X7544816Y11328405D01*
X7645395Y11428984D01*
X7645465Y11413216D01*
D02*
G37*
G36*
X18498482Y11310020D02*
X18503487Y11306793D01*
X18509280Y11303960D01*
X18515869Y11301521D01*
X18523248Y11299474D01*
X18531419Y11297822D01*
X18540382Y11296562D01*
X18560683Y11295223D01*
X18572020Y11295144D01*
X18494804Y11217928D01*
X18494725Y11229266D01*
X18493385Y11249567D01*
X18492126Y11258529D01*
X18490474Y11266700D01*
X18488428Y11274079D01*
X18485988Y11280667D01*
X18483154Y11286462D01*
X18479929Y11291466D01*
X18476309Y11295679D01*
X18494269Y11313639D01*
X18498482Y11310020D01*
D02*
G37*
G36*
X18510796Y10565486D02*
X18516376Y10561143D01*
X18522263Y10557322D01*
X18528455Y10554021D01*
X18534952Y10551240D01*
X18541756Y10548980D01*
X18548863Y10547240D01*
X18556276Y10546020D01*
X18563995Y10545322D01*
X18572020Y10545143D01*
X18494804Y10467927D01*
X18494624Y10475952D01*
X18493927Y10483671D01*
X18492706Y10491084D01*
X18490967Y10498192D01*
X18488707Y10504995D01*
X18485925Y10511492D01*
X18482625Y10517684D01*
X18478804Y10523571D01*
X18474461Y10529152D01*
X18469598Y10534427D01*
X18505521Y10570348D01*
X18510796Y10565486D01*
D02*
G37*
G36*
X13448199Y12103600D02*
Y10605000D01*
X13283099Y10439900D01*
X12000400D01*
X11809900Y10630400D01*
Y12040100D01*
X12025800Y12256000D01*
X13295799D01*
X13448199Y12103600D01*
D02*
G37*
G36*
X16547000Y12090900D02*
Y10592300D01*
X16381900Y10427200D01*
X15099200D01*
X14908701Y10617700D01*
Y12027400D01*
X15124600Y12243300D01*
X16394600D01*
X16547000Y12090900D01*
D02*
G37*
G36*
X6684847Y10182987D02*
X6685619Y10180828D01*
X6686904Y10178923D01*
X6688703Y10177272D01*
X6691017Y10175875D01*
X6693844Y10174732D01*
X6697186Y10173843D01*
X6701041Y10173208D01*
X6705411Y10172827D01*
X6710295Y10172700D01*
Y10147300D01*
X6705411Y10147173D01*
X6701041Y10146792D01*
X6697186Y10146157D01*
X6693844Y10145268D01*
X6691017Y10144125D01*
X6688703Y10142728D01*
X6686904Y10141077D01*
X6685619Y10139172D01*
X6684847Y10137013D01*
X6684590Y10134600D01*
Y10185400D01*
X6684847Y10182987D01*
D02*
G37*
G36*
X18901877Y10215921D02*
X18908311Y10185312D01*
X18910774Y10176940D01*
X18916177Y10162942D01*
X18919118Y10157315D01*
X18922217Y10152604D01*
X18925476Y10148809D01*
X18910249Y10128114D01*
X18905766Y10131967D01*
X18900610Y10135230D01*
X18894781Y10137905D01*
X18888280Y10139990D01*
X18881107Y10141487D01*
X18873260Y10142394D01*
X18864742Y10142713D01*
X18855550Y10142442D01*
X18845686Y10141582D01*
X18835149Y10140133D01*
X18900050Y10227954D01*
X18901877Y10215921D01*
D02*
G37*
G36*
X18572020Y10139154D02*
X18560683Y10139075D01*
X18540382Y10137736D01*
X18531419Y10136476D01*
X18523248Y10134824D01*
X18515869Y10132777D01*
X18509280Y10130338D01*
X18503487Y10127505D01*
X18498482Y10124278D01*
X18494269Y10120659D01*
X18476309Y10138619D01*
X18479929Y10142832D01*
X18483154Y10147836D01*
X18485988Y10153631D01*
X18488428Y10160219D01*
X18490474Y10167598D01*
X18492126Y10175769D01*
X18493385Y10184731D01*
X18494725Y10205032D01*
X18494804Y10216370D01*
X18572020Y10139154D01*
D02*
G37*
G36*
X6844527Y10097000D02*
X6834864Y10106557D01*
X6816725Y10122653D01*
X6808249Y10129192D01*
X6800169Y10134725D01*
X6792484Y10139252D01*
X6785194Y10142773D01*
X6778301Y10145288D01*
X6771803Y10146797D01*
X6765701Y10147300D01*
Y10172700D01*
X6771803Y10173203D01*
X6778301Y10174712D01*
X6785194Y10177227D01*
X6792484Y10180748D01*
X6800169Y10185275D01*
X6808249Y10190808D01*
X6816725Y10197347D01*
X6834864Y10213443D01*
X6844527Y10223000D01*
Y10097000D01*
D02*
G37*
G36*
X8675981Y9858050D02*
X8669167Y9864748D01*
X8656115Y9876027D01*
X8649877Y9880610D01*
X8643832Y9884487D01*
X8637979Y9887660D01*
X8632318Y9890128D01*
X8626849Y9891890D01*
X8621572Y9892947D01*
X8616488Y9893300D01*
Y9918700D01*
X8621572Y9919053D01*
X8626849Y9920110D01*
X8632318Y9921872D01*
X8637979Y9924340D01*
X8643832Y9927513D01*
X8649877Y9931390D01*
X8656115Y9935973D01*
X8662545Y9941260D01*
X8675981Y9953950D01*
Y9858050D01*
D02*
G37*
G36*
X6672433Y9947252D02*
X6685485Y9935973D01*
X6691723Y9931390D01*
X6697768Y9927513D01*
X6703621Y9924340D01*
X6709282Y9921872D01*
X6714751Y9920110D01*
X6720028Y9919053D01*
X6725112Y9918700D01*
Y9893300D01*
X6720028Y9892947D01*
X6714751Y9891890D01*
X6709282Y9890128D01*
X6703621Y9887660D01*
X6697768Y9884487D01*
X6691723Y9880610D01*
X6685485Y9876027D01*
X6679055Y9870740D01*
X6665619Y9858050D01*
Y9953950D01*
X6672433Y9947252D01*
D02*
G37*
G36*
X8506736Y9959443D02*
X8524875Y9943347D01*
X8533351Y9936808D01*
X8541431Y9931275D01*
X8549116Y9926748D01*
X8556406Y9923227D01*
X8563299Y9920712D01*
X8569797Y9919203D01*
X8575899Y9918700D01*
Y9893300D01*
X8569797Y9892797D01*
X8563299Y9891288D01*
X8556406Y9888773D01*
X8549116Y9885252D01*
X8541431Y9880725D01*
X8533351Y9875192D01*
X8524875Y9868653D01*
X8506736Y9852557D01*
X8497073Y9843000D01*
Y9969000D01*
X8506736Y9959443D01*
D02*
G37*
G36*
X6844527Y9843000D02*
X6834864Y9852557D01*
X6816725Y9868653D01*
X6808249Y9875192D01*
X6800169Y9880725D01*
X6792484Y9885252D01*
X6785194Y9888773D01*
X6778301Y9891288D01*
X6771803Y9892797D01*
X6765701Y9893300D01*
Y9918700D01*
X6771803Y9919203D01*
X6778301Y9920712D01*
X6785194Y9923227D01*
X6792484Y9926748D01*
X6800169Y9931275D01*
X6808249Y9936808D01*
X6816725Y9943347D01*
X6834864Y9959443D01*
X6844527Y9969000D01*
Y9843000D01*
D02*
G37*
G36*
X8675981Y9604050D02*
X8669167Y9610748D01*
X8656115Y9622027D01*
X8649877Y9626610D01*
X8643832Y9630487D01*
X8637979Y9633660D01*
X8632318Y9636128D01*
X8626849Y9637890D01*
X8621572Y9638947D01*
X8616488Y9639300D01*
Y9664700D01*
X8621572Y9665053D01*
X8626849Y9666110D01*
X8632318Y9667872D01*
X8637979Y9670340D01*
X8643832Y9673513D01*
X8649877Y9677390D01*
X8656115Y9681973D01*
X8662545Y9687260D01*
X8675981Y9699950D01*
Y9604050D01*
D02*
G37*
G36*
X6672433Y9693252D02*
X6685485Y9681973D01*
X6691723Y9677390D01*
X6697768Y9673513D01*
X6703621Y9670340D01*
X6709282Y9667872D01*
X6714751Y9666110D01*
X6720028Y9665053D01*
X6725112Y9664700D01*
Y9639300D01*
X6720028Y9638947D01*
X6714751Y9637890D01*
X6709282Y9636128D01*
X6703621Y9633660D01*
X6697768Y9630487D01*
X6691723Y9626610D01*
X6685485Y9622027D01*
X6679055Y9616740D01*
X6665619Y9604050D01*
Y9699950D01*
X6672433Y9693252D01*
D02*
G37*
G36*
X8506736Y9705443D02*
X8524875Y9689347D01*
X8533351Y9682808D01*
X8541431Y9677275D01*
X8549116Y9672748D01*
X8556406Y9669227D01*
X8563299Y9666712D01*
X8569797Y9665203D01*
X8575899Y9664700D01*
Y9639300D01*
X8569797Y9638797D01*
X8563299Y9637288D01*
X8556406Y9634773D01*
X8549116Y9631252D01*
X8541431Y9626725D01*
X8533351Y9621192D01*
X8524875Y9614653D01*
X8506736Y9598557D01*
X8497073Y9589000D01*
Y9715000D01*
X8506736Y9705443D01*
D02*
G37*
G36*
X8368527Y9589000D02*
X8358864Y9598557D01*
X8340725Y9614653D01*
X8332249Y9621192D01*
X8324169Y9626725D01*
X8316484Y9631252D01*
X8309194Y9634773D01*
X8302301Y9637288D01*
X8295803Y9638797D01*
X8289701Y9639300D01*
Y9664700D01*
X8295803Y9665203D01*
X8302301Y9666712D01*
X8309194Y9669227D01*
X8316484Y9672748D01*
X8324169Y9677275D01*
X8332249Y9682808D01*
X8340725Y9689347D01*
X8358864Y9705443D01*
X8368527Y9715000D01*
Y9589000D01*
D02*
G37*
G36*
X6982736Y9705443D02*
X7000875Y9689347D01*
X7009351Y9682808D01*
X7017431Y9677275D01*
X7025116Y9672748D01*
X7032406Y9669227D01*
X7039299Y9666712D01*
X7045797Y9665203D01*
X7051899Y9664700D01*
Y9639300D01*
X7045797Y9638797D01*
X7039299Y9637288D01*
X7032406Y9634773D01*
X7025116Y9631252D01*
X7017431Y9626725D01*
X7009351Y9621192D01*
X7000875Y9614653D01*
X6982736Y9598557D01*
X6973073Y9589000D01*
Y9715000D01*
X6982736Y9705443D01*
D02*
G37*
G36*
X6844527Y9589000D02*
X6834864Y9598557D01*
X6816725Y9614653D01*
X6808249Y9621192D01*
X6800169Y9626725D01*
X6792484Y9631252D01*
X6785194Y9634773D01*
X6778301Y9637288D01*
X6771803Y9638797D01*
X6765701Y9639300D01*
Y9664700D01*
X6771803Y9665203D01*
X6778301Y9666712D01*
X6785194Y9669227D01*
X6792484Y9672748D01*
X6800169Y9677275D01*
X6808249Y9682808D01*
X6816725Y9689347D01*
X6834864Y9705443D01*
X6844527Y9715000D01*
Y9589000D01*
D02*
G37*
G36*
X8675981Y9350050D02*
X8669167Y9356748D01*
X8656115Y9368027D01*
X8649877Y9372610D01*
X8643832Y9376487D01*
X8637979Y9379660D01*
X8632318Y9382128D01*
X8626849Y9383890D01*
X8621572Y9384947D01*
X8616488Y9385300D01*
Y9410700D01*
X8621572Y9411053D01*
X8626849Y9412110D01*
X8632318Y9413872D01*
X8637979Y9416340D01*
X8643832Y9419513D01*
X8649877Y9423390D01*
X8656115Y9427973D01*
X8662545Y9433260D01*
X8675981Y9445950D01*
Y9350050D01*
D02*
G37*
G36*
X6672433Y9439252D02*
X6685485Y9427973D01*
X6691723Y9423390D01*
X6697768Y9419513D01*
X6703621Y9416340D01*
X6709282Y9413872D01*
X6714751Y9412110D01*
X6720028Y9411053D01*
X6725112Y9410700D01*
Y9385300D01*
X6720028Y9384947D01*
X6714751Y9383890D01*
X6709282Y9382128D01*
X6703621Y9379660D01*
X6697768Y9376487D01*
X6691723Y9372610D01*
X6685485Y9368027D01*
X6679055Y9362740D01*
X6665619Y9350050D01*
Y9445950D01*
X6672433Y9439252D01*
D02*
G37*
G36*
X8506736Y9451443D02*
X8524875Y9435347D01*
X8533351Y9428808D01*
X8541431Y9423275D01*
X8549116Y9418748D01*
X8556406Y9415227D01*
X8563299Y9412712D01*
X8569797Y9411203D01*
X8575899Y9410700D01*
Y9385300D01*
X8569797Y9384797D01*
X8563299Y9383288D01*
X8556406Y9380773D01*
X8549116Y9377252D01*
X8541431Y9372725D01*
X8533351Y9367192D01*
X8524875Y9360653D01*
X8506736Y9344557D01*
X8497073Y9335000D01*
Y9461000D01*
X8506736Y9451443D01*
D02*
G37*
G36*
X6844527Y9335000D02*
X6834864Y9344557D01*
X6816725Y9360653D01*
X6808249Y9367192D01*
X6800169Y9372725D01*
X6792484Y9377252D01*
X6785194Y9380773D01*
X6778301Y9383288D01*
X6771803Y9384797D01*
X6765701Y9385300D01*
Y9410700D01*
X6771803Y9411203D01*
X6778301Y9412712D01*
X6785194Y9415227D01*
X6792484Y9418748D01*
X6800169Y9423275D01*
X6808249Y9428808D01*
X6816725Y9435347D01*
X6834864Y9451443D01*
X6844527Y9461000D01*
Y9335000D01*
D02*
G37*
G36*
X8675981Y9096050D02*
X8669167Y9102748D01*
X8656115Y9114027D01*
X8649877Y9118610D01*
X8643832Y9122487D01*
X8637979Y9125660D01*
X8632318Y9128128D01*
X8626849Y9129890D01*
X8621572Y9130947D01*
X8616488Y9131300D01*
Y9156700D01*
X8621572Y9157053D01*
X8626849Y9158110D01*
X8632318Y9159872D01*
X8637979Y9162340D01*
X8643832Y9165513D01*
X8649877Y9169390D01*
X8656115Y9173973D01*
X8662545Y9179260D01*
X8675981Y9191950D01*
Y9096050D01*
D02*
G37*
G36*
X6672433Y9185252D02*
X6685485Y9173973D01*
X6691723Y9169390D01*
X6697768Y9165513D01*
X6703621Y9162340D01*
X6709282Y9159872D01*
X6714751Y9158110D01*
X6720028Y9157053D01*
X6725112Y9156700D01*
Y9131300D01*
X6720028Y9130947D01*
X6714751Y9129890D01*
X6709282Y9128128D01*
X6703621Y9125660D01*
X6697768Y9122487D01*
X6691723Y9118610D01*
X6685485Y9114027D01*
X6679055Y9108740D01*
X6665619Y9096050D01*
Y9191950D01*
X6672433Y9185252D01*
D02*
G37*
G36*
X8506736Y9197443D02*
X8524875Y9181347D01*
X8533351Y9174808D01*
X8541431Y9169275D01*
X8549116Y9164748D01*
X8556406Y9161227D01*
X8563299Y9158712D01*
X8569797Y9157203D01*
X8575899Y9156700D01*
Y9131300D01*
X8569797Y9130797D01*
X8563299Y9129288D01*
X8556406Y9126773D01*
X8549116Y9123252D01*
X8541431Y9118725D01*
X8533351Y9113192D01*
X8524875Y9106653D01*
X8506736Y9090557D01*
X8497073Y9081000D01*
Y9207000D01*
X8506736Y9197443D01*
D02*
G37*
G36*
X6844527Y9081000D02*
X6834864Y9090557D01*
X6816725Y9106653D01*
X6808249Y9113192D01*
X6800169Y9118725D01*
X6792484Y9123252D01*
X6785194Y9126773D01*
X6778301Y9129288D01*
X6771803Y9130797D01*
X6765701Y9131300D01*
Y9156700D01*
X6771803Y9157203D01*
X6778301Y9158712D01*
X6785194Y9161227D01*
X6792484Y9164748D01*
X6800169Y9169275D01*
X6808249Y9174808D01*
X6816725Y9181347D01*
X6834864Y9197443D01*
X6844527Y9207000D01*
Y9081000D01*
D02*
G37*
G36*
X8675981Y8842050D02*
X8669167Y8848748D01*
X8656115Y8860027D01*
X8649877Y8864610D01*
X8643832Y8868487D01*
X8637979Y8871660D01*
X8632318Y8874128D01*
X8626849Y8875890D01*
X8621572Y8876947D01*
X8616488Y8877300D01*
Y8902700D01*
X8621572Y8903053D01*
X8626849Y8904110D01*
X8632318Y8905872D01*
X8637979Y8908340D01*
X8643832Y8911513D01*
X8649877Y8915390D01*
X8656115Y8919973D01*
X8662545Y8925260D01*
X8675981Y8937950D01*
Y8842050D01*
D02*
G37*
G36*
X6672433Y8931252D02*
X6685485Y8919973D01*
X6691723Y8915390D01*
X6697768Y8911513D01*
X6703621Y8908340D01*
X6709282Y8905872D01*
X6714751Y8904110D01*
X6720028Y8903053D01*
X6725112Y8902700D01*
Y8877300D01*
X6720028Y8876947D01*
X6714751Y8875890D01*
X6709282Y8874128D01*
X6703621Y8871660D01*
X6697768Y8868487D01*
X6691723Y8864610D01*
X6685485Y8860027D01*
X6679055Y8854740D01*
X6665619Y8842050D01*
Y8937950D01*
X6672433Y8931252D01*
D02*
G37*
G36*
X8506736Y8943443D02*
X8524875Y8927347D01*
X8533351Y8920808D01*
X8541431Y8915275D01*
X8549116Y8910748D01*
X8556406Y8907227D01*
X8563299Y8904712D01*
X8569797Y8903203D01*
X8575899Y8902700D01*
Y8877300D01*
X8569797Y8876797D01*
X8563299Y8875288D01*
X8556406Y8872773D01*
X8549116Y8869252D01*
X8541431Y8864725D01*
X8533351Y8859192D01*
X8524875Y8852653D01*
X8506736Y8836557D01*
X8497073Y8827000D01*
Y8953000D01*
X8506736Y8943443D01*
D02*
G37*
G36*
X6844527Y8827000D02*
X6834864Y8836557D01*
X6816725Y8852653D01*
X6808249Y8859192D01*
X6800169Y8864725D01*
X6792484Y8869252D01*
X6785194Y8872773D01*
X6778301Y8875288D01*
X6771803Y8876797D01*
X6765701Y8877300D01*
Y8902700D01*
X6771803Y8903203D01*
X6778301Y8904712D01*
X6785194Y8907227D01*
X6792484Y8910748D01*
X6800169Y8915275D01*
X6808249Y8920808D01*
X6816725Y8927347D01*
X6834864Y8943443D01*
X6844527Y8953000D01*
Y8827000D01*
D02*
G37*
G36*
X8675981Y8588050D02*
X8669167Y8594748D01*
X8656115Y8606027D01*
X8649877Y8610610D01*
X8643832Y8614487D01*
X8637979Y8617660D01*
X8632318Y8620128D01*
X8626849Y8621890D01*
X8621572Y8622947D01*
X8616488Y8623300D01*
Y8648700D01*
X8621572Y8649053D01*
X8626849Y8650110D01*
X8632318Y8651872D01*
X8637979Y8654340D01*
X8643832Y8657513D01*
X8649877Y8661390D01*
X8656115Y8665973D01*
X8662545Y8671260D01*
X8675981Y8683950D01*
Y8588050D01*
D02*
G37*
G36*
X6672433Y8677252D02*
X6685485Y8665973D01*
X6691723Y8661390D01*
X6697768Y8657513D01*
X6703621Y8654340D01*
X6709282Y8651872D01*
X6714751Y8650110D01*
X6720028Y8649053D01*
X6725112Y8648700D01*
Y8623300D01*
X6720028Y8622947D01*
X6714751Y8621890D01*
X6709282Y8620128D01*
X6703621Y8617660D01*
X6697768Y8614487D01*
X6691723Y8610610D01*
X6685485Y8606027D01*
X6679055Y8600740D01*
X6665619Y8588050D01*
Y8683950D01*
X6672433Y8677252D01*
D02*
G37*
G36*
X8506736Y8689443D02*
X8524875Y8673347D01*
X8533351Y8666808D01*
X8541431Y8661275D01*
X8549116Y8656748D01*
X8556406Y8653227D01*
X8563299Y8650712D01*
X8569797Y8649203D01*
X8575899Y8648700D01*
Y8623300D01*
X8569797Y8622797D01*
X8563299Y8621288D01*
X8556406Y8618773D01*
X8549116Y8615252D01*
X8541431Y8610725D01*
X8533351Y8605192D01*
X8524875Y8598653D01*
X8506736Y8582557D01*
X8497073Y8573000D01*
Y8699000D01*
X8506736Y8689443D01*
D02*
G37*
G36*
X6844527Y8573000D02*
X6834864Y8582557D01*
X6816725Y8598653D01*
X6808249Y8605192D01*
X6800169Y8610725D01*
X6792484Y8615252D01*
X6785194Y8618773D01*
X6778301Y8621288D01*
X6771803Y8622797D01*
X6765701Y8623300D01*
Y8648700D01*
X6771803Y8649203D01*
X6778301Y8650712D01*
X6785194Y8653227D01*
X6792484Y8656748D01*
X6800169Y8661275D01*
X6808249Y8666808D01*
X6816725Y8673347D01*
X6834864Y8689443D01*
X6844527Y8699000D01*
Y8573000D01*
D02*
G37*
G36*
X8793479Y8625761D02*
X8794732Y8608555D01*
X8795902Y8600904D01*
X8797436Y8593888D01*
X8799331Y8587506D01*
X8801589Y8581758D01*
X8804210Y8576645D01*
X8807193Y8572166D01*
X8810539Y8568321D01*
X8792579Y8550361D01*
X8788734Y8553707D01*
X8784255Y8556690D01*
X8779142Y8559311D01*
X8773394Y8561569D01*
X8767012Y8563464D01*
X8759996Y8564998D01*
X8752345Y8566168D01*
X8744059Y8566976D01*
X8725585Y8567503D01*
X8793397Y8635315D01*
X8793479Y8625761D01*
D02*
G37*
G36*
X11805891Y8547619D02*
X11804422Y8547800D01*
X11802897Y8547752D01*
X11801316Y8547474D01*
X11799679Y8546966D01*
X11797987Y8546228D01*
X11796238Y8545261D01*
X11794433Y8544064D01*
X11792573Y8542638D01*
X11790656Y8540982D01*
X11788684Y8539096D01*
X11774830Y8561164D01*
X11776763Y8563144D01*
X11781476Y8568571D01*
X11782686Y8570208D01*
X11784563Y8573226D01*
X11785230Y8574607D01*
X11785716Y8575902D01*
X11786022Y8577111D01*
X11805891Y8547619D01*
D02*
G37*
G36*
X8431900Y8546004D02*
X8418309Y8545930D01*
X8394102Y8544485D01*
X8383484Y8543115D01*
X8373858Y8541314D01*
X8365223Y8539081D01*
X8357579Y8536417D01*
X8350926Y8533320D01*
X8345264Y8529792D01*
X8340594Y8525833D01*
X8322633Y8543794D01*
X8326592Y8548464D01*
X8330120Y8554126D01*
X8333217Y8560779D01*
X8335881Y8568423D01*
X8338114Y8577058D01*
X8339915Y8586684D01*
X8341285Y8597302D01*
X8342730Y8621509D01*
X8342804Y8635100D01*
X8431900Y8546004D01*
D02*
G37*
G36*
X10398568Y8568366D02*
X10402221Y8565236D01*
X10405902Y8562473D01*
X10409612Y8560079D01*
X10413350Y8558054D01*
X10417116Y8556396D01*
X10420911Y8555107D01*
X10424735Y8554187D01*
X10428587Y8553634D01*
X10432467Y8553450D01*
Y8528050D01*
X10428587Y8527866D01*
X10424735Y8527313D01*
X10420911Y8526393D01*
X10417116Y8525104D01*
X10413350Y8523446D01*
X10409612Y8521421D01*
X10405902Y8519027D01*
X10402221Y8516264D01*
X10398568Y8513134D01*
X10394944Y8509635D01*
Y8571865D01*
X10398568Y8568366D01*
D02*
G37*
G36*
X12883537Y8505177D02*
X12882449Y8506142D01*
X12881180Y8507006D01*
X12879729Y8507768D01*
X12878091Y8508428D01*
X12876274Y8508987D01*
X12874272Y8509444D01*
X12872089Y8509800D01*
X12869722Y8510054D01*
X12864439Y8510257D01*
Y8535657D01*
X12867172Y8535708D01*
X12872089Y8536114D01*
X12874272Y8536470D01*
X12876274Y8536927D01*
X12878091Y8537486D01*
X12879729Y8538146D01*
X12881180Y8538908D01*
X12882449Y8539772D01*
X12883537Y8540737D01*
Y8505177D01*
D02*
G37*
G36*
X11792861Y8427720D02*
X11791773Y8428685D01*
X11790503Y8429549D01*
X11789051Y8430311D01*
X11787415Y8430971D01*
X11785597Y8431530D01*
X11783595Y8431987D01*
X11781412Y8432343D01*
X11779045Y8432597D01*
X11773763Y8432800D01*
Y8458200D01*
X11776495Y8458251D01*
X11781412Y8458657D01*
X11783595Y8459013D01*
X11785597Y8459470D01*
X11787415Y8460029D01*
X11789051Y8460689D01*
X11790503Y8461451D01*
X11791773Y8462315D01*
X11792861Y8463280D01*
Y8427720D01*
D02*
G37*
G36*
X10195368Y8396916D02*
X10199021Y8393786D01*
X10202702Y8391023D01*
X10206412Y8388629D01*
X10210150Y8386604D01*
X10213916Y8384946D01*
X10217711Y8383657D01*
X10221535Y8382737D01*
X10225387Y8382184D01*
X10229267Y8382000D01*
Y8356600D01*
X10225387Y8356416D01*
X10221535Y8355863D01*
X10217711Y8354943D01*
X10213916Y8353654D01*
X10210150Y8351996D01*
X10206412Y8349971D01*
X10202702Y8347577D01*
X10199021Y8344814D01*
X10195368Y8341684D01*
X10191744Y8338185D01*
Y8400415D01*
X10195368Y8396916D01*
D02*
G37*
G36*
X10128256Y8338185D02*
X10124632Y8341684D01*
X10120979Y8344814D01*
X10117298Y8347577D01*
X10113588Y8349971D01*
X10109850Y8351996D01*
X10106084Y8353654D01*
X10102289Y8354943D01*
X10098465Y8355863D01*
X10094613Y8356416D01*
X10090733Y8356600D01*
Y8382000D01*
X10094613Y8382184D01*
X10098465Y8382737D01*
X10102289Y8383657D01*
X10106084Y8384946D01*
X10109850Y8386604D01*
X10113588Y8388629D01*
X10117298Y8391023D01*
X10120979Y8393786D01*
X10124632Y8396916D01*
X10128256Y8400415D01*
Y8338185D01*
D02*
G37*
G36*
X8675981Y8334050D02*
X8669167Y8340748D01*
X8656115Y8352027D01*
X8649877Y8356610D01*
X8643832Y8360487D01*
X8637979Y8363660D01*
X8632318Y8366128D01*
X8626849Y8367890D01*
X8621572Y8368947D01*
X8616488Y8369300D01*
Y8394700D01*
X8621572Y8395053D01*
X8626849Y8396110D01*
X8632318Y8397872D01*
X8637979Y8400340D01*
X8643832Y8403513D01*
X8649877Y8407390D01*
X8656115Y8411973D01*
X8662545Y8417260D01*
X8675981Y8429950D01*
Y8334050D01*
D02*
G37*
G36*
X6672433Y8423252D02*
X6685485Y8411973D01*
X6691723Y8407390D01*
X6697768Y8403513D01*
X6703621Y8400340D01*
X6709282Y8397872D01*
X6714751Y8396110D01*
X6720028Y8395053D01*
X6725112Y8394700D01*
Y8369300D01*
X6720028Y8368947D01*
X6714751Y8367890D01*
X6709282Y8366128D01*
X6703621Y8363660D01*
X6697768Y8360487D01*
X6691723Y8356610D01*
X6685485Y8352027D01*
X6679055Y8346740D01*
X6665619Y8334050D01*
Y8429950D01*
X6672433Y8423252D01*
D02*
G37*
G36*
X8506736Y8435443D02*
X8524875Y8419347D01*
X8533351Y8412808D01*
X8541431Y8407275D01*
X8549116Y8402748D01*
X8556406Y8399227D01*
X8563299Y8396712D01*
X8569797Y8395203D01*
X8575899Y8394700D01*
Y8369300D01*
X8569797Y8368797D01*
X8563299Y8367288D01*
X8556406Y8364773D01*
X8549116Y8361252D01*
X8541431Y8356725D01*
X8533351Y8351192D01*
X8524875Y8344653D01*
X8506736Y8328557D01*
X8497073Y8319000D01*
Y8445000D01*
X8506736Y8435443D01*
D02*
G37*
G36*
X6844527Y8319000D02*
X6834864Y8328557D01*
X6816725Y8344653D01*
X6808249Y8351192D01*
X6800169Y8356725D01*
X6792484Y8361252D01*
X6785194Y8364773D01*
X6778301Y8367288D01*
X6771803Y8368797D01*
X6765701Y8369300D01*
Y8394700D01*
X6771803Y8395203D01*
X6778301Y8396712D01*
X6785194Y8399227D01*
X6792484Y8402748D01*
X6800169Y8407275D01*
X6808249Y8412808D01*
X6816725Y8419347D01*
X6834864Y8435443D01*
X6844527Y8445000D01*
Y8319000D01*
D02*
G37*
G36*
X8431900Y8292004D02*
X8418309Y8291930D01*
X8394102Y8290485D01*
X8383484Y8289115D01*
X8373858Y8287314D01*
X8365223Y8285081D01*
X8357579Y8282417D01*
X8350926Y8279320D01*
X8345264Y8275792D01*
X8340594Y8271833D01*
X8322633Y8289794D01*
X8326592Y8294464D01*
X8330120Y8300126D01*
X8333217Y8306779D01*
X8335881Y8314423D01*
X8338114Y8323058D01*
X8339915Y8332684D01*
X8341285Y8343302D01*
X8342730Y8367509D01*
X8342804Y8381100D01*
X8431900Y8292004D01*
D02*
G37*
G36*
X17595856Y8084185D02*
X17592232Y8087684D01*
X17588579Y8090814D01*
X17584898Y8093577D01*
X17581187Y8095971D01*
X17577451Y8097996D01*
X17573685Y8099654D01*
X17570450Y8100752D01*
X17567216Y8099654D01*
X17563451Y8097996D01*
X17559712Y8095971D01*
X17556001Y8093577D01*
X17552321Y8090814D01*
X17548668Y8087684D01*
X17545044Y8084185D01*
Y8146415D01*
X17548668Y8142916D01*
X17552321Y8139786D01*
X17556001Y8137023D01*
X17559712Y8134629D01*
X17563451Y8132604D01*
X17567216Y8130946D01*
X17570450Y8129848D01*
X17573685Y8130946D01*
X17577451Y8132604D01*
X17581187Y8134629D01*
X17584898Y8137023D01*
X17588579Y8139786D01*
X17592232Y8142916D01*
X17595856Y8146415D01*
Y8084185D01*
D02*
G37*
G36*
X17480713Y8085069D02*
X17477213Y8088632D01*
X17473665Y8091820D01*
X17470074Y8094633D01*
X17466438Y8097071D01*
X17462759Y8099133D01*
X17459035Y8100821D01*
X17455264Y8102134D01*
X17451450Y8103071D01*
X17447591Y8103634D01*
X17443687Y8103821D01*
X17444415Y8129221D01*
X17448273Y8129402D01*
X17452116Y8129944D01*
X17455946Y8130846D01*
X17459766Y8132110D01*
X17463573Y8133735D01*
X17467368Y8135721D01*
X17471150Y8138068D01*
X17474921Y8140776D01*
X17478677Y8143845D01*
X17482423Y8147276D01*
X17480713Y8085069D01*
D02*
G37*
G36*
X8675981Y8080050D02*
X8669167Y8086748D01*
X8656115Y8098027D01*
X8649877Y8102610D01*
X8643832Y8106487D01*
X8637979Y8109660D01*
X8632318Y8112128D01*
X8626849Y8113890D01*
X8621572Y8114947D01*
X8616488Y8115300D01*
Y8140700D01*
X8621572Y8141053D01*
X8626849Y8142110D01*
X8632318Y8143872D01*
X8637979Y8146340D01*
X8643832Y8149513D01*
X8649877Y8153390D01*
X8656115Y8157973D01*
X8662545Y8163260D01*
X8675981Y8175950D01*
Y8080050D01*
D02*
G37*
G36*
X6672433Y8169252D02*
X6685485Y8157973D01*
X6691723Y8153390D01*
X6697768Y8149513D01*
X6703621Y8146340D01*
X6709282Y8143872D01*
X6714751Y8142110D01*
X6720028Y8141053D01*
X6725112Y8140700D01*
Y8115300D01*
X6720028Y8114947D01*
X6714751Y8113890D01*
X6709282Y8112128D01*
X6703621Y8109660D01*
X6697768Y8106487D01*
X6691723Y8102610D01*
X6685485Y8098027D01*
X6679055Y8092740D01*
X6665619Y8080050D01*
Y8175950D01*
X6672433Y8169252D01*
D02*
G37*
G36*
X8506736Y8181443D02*
X8524875Y8165347D01*
X8533351Y8158808D01*
X8541431Y8153275D01*
X8549116Y8148748D01*
X8556406Y8145227D01*
X8563299Y8142712D01*
X8569797Y8141203D01*
X8575899Y8140700D01*
Y8115300D01*
X8569797Y8114797D01*
X8563299Y8113288D01*
X8556406Y8110773D01*
X8549116Y8107252D01*
X8541431Y8102725D01*
X8533351Y8097192D01*
X8524875Y8090653D01*
X8506736Y8074557D01*
X8497073Y8065000D01*
Y8191000D01*
X8506736Y8181443D01*
D02*
G37*
G36*
X6844527Y8065000D02*
X6834864Y8074557D01*
X6816725Y8090653D01*
X6808249Y8097192D01*
X6800169Y8102725D01*
X6792484Y8107252D01*
X6785194Y8110773D01*
X6778301Y8113288D01*
X6771803Y8114797D01*
X6765701Y8115300D01*
Y8140700D01*
X6771803Y8141203D01*
X6778301Y8142712D01*
X6785194Y8145227D01*
X6792484Y8148748D01*
X6800169Y8153275D01*
X6808249Y8158808D01*
X6816725Y8165347D01*
X6834864Y8181443D01*
X6844527Y8191000D01*
Y8065000D01*
D02*
G37*
G36*
X13615375Y8119845D02*
X13618489Y8117512D01*
X13621844Y8115460D01*
X13625439Y8113687D01*
X13629274Y8112196D01*
X13633350Y8110985D01*
X13637666Y8110055D01*
X13642223Y8109405D01*
X13647018Y8109036D01*
X13652055Y8108947D01*
X13608052Y8064944D01*
X13607964Y8069981D01*
X13607594Y8074777D01*
X13606944Y8079333D01*
X13606013Y8083649D01*
X13604803Y8087725D01*
X13603313Y8091560D01*
X13601540Y8095155D01*
X13599487Y8098510D01*
X13597154Y8101624D01*
X13594540Y8104498D01*
X13612502Y8122459D01*
X13615375Y8119845D01*
D02*
G37*
G36*
X15627356Y8046385D02*
X15623732Y8049884D01*
X15620079Y8053014D01*
X15616399Y8055776D01*
X15612688Y8058170D01*
X15608949Y8060196D01*
X15605183Y8061853D01*
X15601389Y8063142D01*
X15597565Y8064063D01*
X15593713Y8064616D01*
X15589833Y8064800D01*
Y8090200D01*
X15593713Y8090384D01*
X15597565Y8090936D01*
X15601389Y8091857D01*
X15605183Y8093146D01*
X15608949Y8094803D01*
X15612688Y8096829D01*
X15616399Y8099223D01*
X15620079Y8101985D01*
X15623732Y8105116D01*
X15627356Y8108615D01*
Y8046385D01*
D02*
G37*
G36*
X13652055Y8020052D02*
X13647018Y8019963D01*
X13642223Y8019594D01*
X13637666Y8018944D01*
X13633350Y8018013D01*
X13629274Y8016802D01*
X13625439Y8015311D01*
X13621844Y8013539D01*
X13618489Y8011486D01*
X13615375Y8009153D01*
X13612502Y8006540D01*
X13594540Y8024500D01*
X13597154Y8027374D01*
X13599487Y8030489D01*
X13601540Y8033843D01*
X13603313Y8037438D01*
X13604803Y8041274D01*
X13606013Y8045349D01*
X13606944Y8049665D01*
X13607594Y8054221D01*
X13607964Y8059018D01*
X13608052Y8064055D01*
X13652055Y8020052D01*
D02*
G37*
G36*
X8675981Y7826050D02*
X8669167Y7832748D01*
X8656115Y7844027D01*
X8649877Y7848610D01*
X8643832Y7852487D01*
X8637979Y7855660D01*
X8632318Y7858128D01*
X8626849Y7859890D01*
X8621572Y7860947D01*
X8616488Y7861300D01*
Y7886700D01*
X8621572Y7887053D01*
X8626849Y7888110D01*
X8632318Y7889872D01*
X8637979Y7892340D01*
X8643832Y7895513D01*
X8649877Y7899390D01*
X8656115Y7903973D01*
X8662545Y7909260D01*
X8675981Y7921950D01*
Y7826050D01*
D02*
G37*
G36*
X6672433Y7915252D02*
X6685485Y7903973D01*
X6691723Y7899390D01*
X6697768Y7895513D01*
X6703621Y7892340D01*
X6709282Y7889872D01*
X6714751Y7888110D01*
X6720028Y7887053D01*
X6725112Y7886700D01*
Y7861300D01*
X6720028Y7860947D01*
X6714751Y7859890D01*
X6709282Y7858128D01*
X6703621Y7855660D01*
X6697768Y7852487D01*
X6691723Y7848610D01*
X6685485Y7844027D01*
X6679055Y7838740D01*
X6665619Y7826050D01*
Y7921950D01*
X6672433Y7915252D01*
D02*
G37*
G36*
X8506736Y7927443D02*
X8524875Y7911347D01*
X8533351Y7904808D01*
X8541431Y7899275D01*
X8549116Y7894748D01*
X8556406Y7891227D01*
X8563299Y7888712D01*
X8569797Y7887203D01*
X8575899Y7886700D01*
Y7861300D01*
X8569797Y7860797D01*
X8563299Y7859288D01*
X8556406Y7856773D01*
X8549116Y7853252D01*
X8541431Y7848725D01*
X8533351Y7843192D01*
X8524875Y7836653D01*
X8506736Y7820557D01*
X8497073Y7811000D01*
Y7937000D01*
X8506736Y7927443D01*
D02*
G37*
G36*
X6844527Y7811000D02*
X6834864Y7820557D01*
X6816725Y7836653D01*
X6808249Y7843192D01*
X6800169Y7848725D01*
X6792484Y7853252D01*
X6785194Y7856773D01*
X6778301Y7859288D01*
X6771803Y7860797D01*
X6765701Y7861300D01*
Y7886700D01*
X6771803Y7887203D01*
X6778301Y7888712D01*
X6785194Y7891227D01*
X6792484Y7894748D01*
X6800169Y7899275D01*
X6808249Y7904808D01*
X6816725Y7911347D01*
X6834864Y7927443D01*
X6844527Y7937000D01*
Y7811000D01*
D02*
G37*
G36*
X10068368Y7825416D02*
X10072021Y7822286D01*
X10075702Y7819523D01*
X10079412Y7817129D01*
X10083150Y7815104D01*
X10086916Y7813446D01*
X10090711Y7812157D01*
X10094535Y7811237D01*
X10098387Y7810684D01*
X10102267Y7810500D01*
Y7785100D01*
X10098387Y7784916D01*
X10094535Y7784363D01*
X10090711Y7783443D01*
X10086916Y7782154D01*
X10083150Y7780496D01*
X10079412Y7778471D01*
X10075702Y7776077D01*
X10072021Y7773314D01*
X10068368Y7770184D01*
X10064744Y7766685D01*
Y7828915D01*
X10068368Y7825416D01*
D02*
G37*
G36*
X8675981Y7572050D02*
X8669167Y7578748D01*
X8656115Y7590027D01*
X8649877Y7594610D01*
X8643832Y7598487D01*
X8637979Y7601660D01*
X8632318Y7604128D01*
X8626849Y7605890D01*
X8621572Y7606947D01*
X8616488Y7607300D01*
Y7632700D01*
X8621572Y7633053D01*
X8626849Y7634110D01*
X8632318Y7635872D01*
X8637979Y7638340D01*
X8643832Y7641513D01*
X8649877Y7645390D01*
X8656115Y7649973D01*
X8662545Y7655260D01*
X8675981Y7667950D01*
Y7572050D01*
D02*
G37*
G36*
X6672433Y7661252D02*
X6685485Y7649973D01*
X6691723Y7645390D01*
X6697768Y7641513D01*
X6703621Y7638340D01*
X6709282Y7635872D01*
X6714751Y7634110D01*
X6720028Y7633053D01*
X6725112Y7632700D01*
Y7607300D01*
X6720028Y7606947D01*
X6714751Y7605890D01*
X6709282Y7604128D01*
X6703621Y7601660D01*
X6697768Y7598487D01*
X6691723Y7594610D01*
X6685485Y7590027D01*
X6679055Y7584740D01*
X6665619Y7572050D01*
Y7667950D01*
X6672433Y7661252D01*
D02*
G37*
G36*
X8506736Y7673443D02*
X8524875Y7657347D01*
X8533351Y7650808D01*
X8541431Y7645275D01*
X8549116Y7640748D01*
X8556406Y7637227D01*
X8563299Y7634712D01*
X8569797Y7633203D01*
X8575899Y7632700D01*
Y7607300D01*
X8569797Y7606797D01*
X8563299Y7605288D01*
X8556406Y7602773D01*
X8549116Y7599252D01*
X8541431Y7594725D01*
X8533351Y7589192D01*
X8524875Y7582653D01*
X8506736Y7566557D01*
X8497073Y7557000D01*
Y7683000D01*
X8506736Y7673443D01*
D02*
G37*
G36*
X6844527Y7557000D02*
X6834864Y7566557D01*
X6816725Y7582653D01*
X6808249Y7589192D01*
X6800169Y7594725D01*
X6792484Y7599252D01*
X6785194Y7602773D01*
X6778301Y7605288D01*
X6771803Y7606797D01*
X6765701Y7607300D01*
Y7632700D01*
X6771803Y7633203D01*
X6778301Y7634712D01*
X6785194Y7637227D01*
X6792484Y7640748D01*
X6800169Y7645275D01*
X6808249Y7650808D01*
X6816725Y7657347D01*
X6834864Y7673443D01*
X6844527Y7683000D01*
Y7557000D01*
D02*
G37*
G36*
X8675981Y7318050D02*
X8669167Y7324748D01*
X8656115Y7336027D01*
X8649877Y7340610D01*
X8643832Y7344487D01*
X8637979Y7347660D01*
X8632318Y7350128D01*
X8626849Y7351890D01*
X8621572Y7352947D01*
X8616488Y7353300D01*
Y7378700D01*
X8621572Y7379053D01*
X8626849Y7380110D01*
X8632318Y7381872D01*
X8637979Y7384340D01*
X8643832Y7387513D01*
X8649877Y7391390D01*
X8656115Y7395973D01*
X8662545Y7401260D01*
X8675981Y7413950D01*
Y7318050D01*
D02*
G37*
G36*
X6672433Y7407252D02*
X6685485Y7395973D01*
X6691723Y7391390D01*
X6697768Y7387513D01*
X6703621Y7384340D01*
X6709282Y7381872D01*
X6714751Y7380110D01*
X6720028Y7379053D01*
X6725112Y7378700D01*
Y7353300D01*
X6720028Y7352947D01*
X6714751Y7351890D01*
X6709282Y7350128D01*
X6703621Y7347660D01*
X6697768Y7344487D01*
X6691723Y7340610D01*
X6685485Y7336027D01*
X6679055Y7330740D01*
X6665619Y7318050D01*
Y7413950D01*
X6672433Y7407252D01*
D02*
G37*
G36*
X8506736Y7419443D02*
X8524875Y7403347D01*
X8533351Y7396808D01*
X8541431Y7391275D01*
X8549116Y7386748D01*
X8556406Y7383227D01*
X8563299Y7380712D01*
X8569797Y7379203D01*
X8575899Y7378700D01*
Y7353300D01*
X8569797Y7352797D01*
X8563299Y7351288D01*
X8556406Y7348773D01*
X8549116Y7345252D01*
X8541431Y7340725D01*
X8533351Y7335192D01*
X8524875Y7328653D01*
X8506736Y7312557D01*
X8497073Y7303000D01*
Y7429000D01*
X8506736Y7419443D01*
D02*
G37*
G36*
X6844527Y7303000D02*
X6834864Y7312557D01*
X6816725Y7328653D01*
X6808249Y7335192D01*
X6800169Y7340725D01*
X6792484Y7345252D01*
X6785194Y7348773D01*
X6778301Y7351288D01*
X6771803Y7352797D01*
X6765701Y7353300D01*
Y7378700D01*
X6771803Y7379203D01*
X6778301Y7380712D01*
X6785194Y7383227D01*
X6792484Y7386748D01*
X6800169Y7391275D01*
X6808249Y7396808D01*
X6816725Y7403347D01*
X6834864Y7419443D01*
X6844527Y7429000D01*
Y7303000D01*
D02*
G37*
G36*
X8675981Y7064050D02*
X8669167Y7070748D01*
X8656115Y7082027D01*
X8649877Y7086610D01*
X8643832Y7090487D01*
X8637979Y7093660D01*
X8632318Y7096128D01*
X8626849Y7097890D01*
X8621572Y7098947D01*
X8616488Y7099300D01*
Y7124700D01*
X8621572Y7125053D01*
X8626849Y7126110D01*
X8632318Y7127872D01*
X8637979Y7130340D01*
X8643832Y7133513D01*
X8649877Y7137390D01*
X8656115Y7141973D01*
X8662545Y7147260D01*
X8675981Y7159950D01*
Y7064050D01*
D02*
G37*
G36*
X6672433Y7153252D02*
X6685485Y7141973D01*
X6691723Y7137390D01*
X6697768Y7133513D01*
X6703621Y7130340D01*
X6709282Y7127872D01*
X6714751Y7126110D01*
X6720028Y7125053D01*
X6725112Y7124700D01*
Y7099300D01*
X6720028Y7098947D01*
X6714751Y7097890D01*
X6709282Y7096128D01*
X6703621Y7093660D01*
X6697768Y7090487D01*
X6691723Y7086610D01*
X6685485Y7082027D01*
X6679055Y7076740D01*
X6665619Y7064050D01*
Y7159950D01*
X6672433Y7153252D01*
D02*
G37*
G36*
X8506736Y7165443D02*
X8524875Y7149347D01*
X8533351Y7142808D01*
X8541431Y7137275D01*
X8549116Y7132748D01*
X8556406Y7129227D01*
X8563299Y7126712D01*
X8569797Y7125203D01*
X8575899Y7124700D01*
Y7099300D01*
X8569797Y7098797D01*
X8563299Y7097288D01*
X8556406Y7094773D01*
X8549116Y7091252D01*
X8541431Y7086725D01*
X8533351Y7081192D01*
X8524875Y7074653D01*
X8506736Y7058557D01*
X8497073Y7049000D01*
Y7175000D01*
X8506736Y7165443D01*
D02*
G37*
G36*
X6844527Y7049000D02*
X6834864Y7058557D01*
X6816725Y7074653D01*
X6808249Y7081192D01*
X6800169Y7086725D01*
X6792484Y7091252D01*
X6785194Y7094773D01*
X6778301Y7097288D01*
X6771803Y7098797D01*
X6765701Y7099300D01*
Y7124700D01*
X6771803Y7125203D01*
X6778301Y7126712D01*
X6785194Y7129227D01*
X6792484Y7132748D01*
X6800169Y7137275D01*
X6808249Y7142808D01*
X6816725Y7149347D01*
X6834864Y7165443D01*
X6844527Y7175000D01*
Y7049000D01*
D02*
G37*
G36*
X8675981Y6810050D02*
X8669167Y6816748D01*
X8656115Y6828027D01*
X8649877Y6832610D01*
X8643832Y6836487D01*
X8637979Y6839660D01*
X8632318Y6842128D01*
X8626849Y6843890D01*
X8621572Y6844947D01*
X8616488Y6845300D01*
Y6870700D01*
X8621572Y6871053D01*
X8626849Y6872110D01*
X8632318Y6873872D01*
X8637979Y6876340D01*
X8643832Y6879513D01*
X8649877Y6883390D01*
X8656115Y6887973D01*
X8662545Y6893260D01*
X8675981Y6905950D01*
Y6810050D01*
D02*
G37*
G36*
X6672433Y6899252D02*
X6685485Y6887973D01*
X6691723Y6883390D01*
X6697768Y6879513D01*
X6703621Y6876340D01*
X6709282Y6873872D01*
X6714751Y6872110D01*
X6720028Y6871053D01*
X6725112Y6870700D01*
Y6845300D01*
X6720028Y6844947D01*
X6714751Y6843890D01*
X6709282Y6842128D01*
X6703621Y6839660D01*
X6697768Y6836487D01*
X6691723Y6832610D01*
X6685485Y6828027D01*
X6679055Y6822740D01*
X6665619Y6810050D01*
Y6905950D01*
X6672433Y6899252D01*
D02*
G37*
G36*
X8506736Y6911443D02*
X8524875Y6895347D01*
X8533351Y6888808D01*
X8541431Y6883275D01*
X8549116Y6878748D01*
X8556406Y6875227D01*
X8563299Y6872712D01*
X8569797Y6871203D01*
X8575899Y6870700D01*
Y6845300D01*
X8569797Y6844797D01*
X8563299Y6843288D01*
X8556406Y6840773D01*
X8549116Y6837252D01*
X8541431Y6832725D01*
X8533351Y6827192D01*
X8524875Y6820653D01*
X8506736Y6804557D01*
X8497073Y6795000D01*
Y6921000D01*
X8506736Y6911443D01*
D02*
G37*
G36*
X6844527Y6795000D02*
X6834864Y6804557D01*
X6816725Y6820653D01*
X6808249Y6827192D01*
X6800169Y6832725D01*
X6792484Y6837252D01*
X6785194Y6840773D01*
X6778301Y6843288D01*
X6771803Y6844797D01*
X6765701Y6845300D01*
Y6870700D01*
X6771803Y6871203D01*
X6778301Y6872712D01*
X6785194Y6875227D01*
X6792484Y6878748D01*
X6800169Y6883275D01*
X6808249Y6888808D01*
X6816725Y6895347D01*
X6834864Y6911443D01*
X6844527Y6921000D01*
Y6795000D01*
D02*
G37*
G36*
X8675981Y6556050D02*
X8669167Y6562748D01*
X8656115Y6574027D01*
X8649877Y6578610D01*
X8643832Y6582487D01*
X8637979Y6585660D01*
X8632318Y6588128D01*
X8626849Y6589890D01*
X8621572Y6590947D01*
X8616488Y6591300D01*
Y6616700D01*
X8621572Y6617053D01*
X8626849Y6618110D01*
X8632318Y6619872D01*
X8637979Y6622340D01*
X8643832Y6625513D01*
X8649877Y6629390D01*
X8656115Y6633973D01*
X8662545Y6639260D01*
X8675981Y6651950D01*
Y6556050D01*
D02*
G37*
G36*
X6672433Y6645252D02*
X6685485Y6633973D01*
X6691723Y6629390D01*
X6697768Y6625513D01*
X6703621Y6622340D01*
X6709282Y6619872D01*
X6714751Y6618110D01*
X6720028Y6617053D01*
X6725112Y6616700D01*
Y6591300D01*
X6720028Y6590947D01*
X6714751Y6589890D01*
X6709282Y6588128D01*
X6703621Y6585660D01*
X6697768Y6582487D01*
X6691723Y6578610D01*
X6685485Y6574027D01*
X6679055Y6568740D01*
X6665619Y6556050D01*
Y6651950D01*
X6672433Y6645252D01*
D02*
G37*
G36*
X8506736Y6657443D02*
X8524875Y6641347D01*
X8533351Y6634808D01*
X8541431Y6629275D01*
X8549116Y6624748D01*
X8556406Y6621227D01*
X8563299Y6618712D01*
X8569797Y6617203D01*
X8575899Y6616700D01*
Y6591300D01*
X8569797Y6590797D01*
X8563299Y6589288D01*
X8556406Y6586773D01*
X8549116Y6583252D01*
X8541431Y6578725D01*
X8533351Y6573192D01*
X8524875Y6566653D01*
X8506736Y6550557D01*
X8497073Y6541000D01*
Y6667000D01*
X8506736Y6657443D01*
D02*
G37*
G36*
X6844527Y6541000D02*
X6834864Y6550557D01*
X6816725Y6566653D01*
X6808249Y6573192D01*
X6800169Y6578725D01*
X6792484Y6583252D01*
X6785194Y6586773D01*
X6778301Y6589288D01*
X6771803Y6590797D01*
X6765701Y6591300D01*
Y6616700D01*
X6771803Y6617203D01*
X6778301Y6618712D01*
X6785194Y6621227D01*
X6792484Y6624748D01*
X6800169Y6629275D01*
X6808249Y6634808D01*
X6816725Y6641347D01*
X6834864Y6657443D01*
X6844527Y6667000D01*
Y6541000D01*
D02*
G37*
G36*
X8230184Y6022521D02*
X8231937Y6015373D01*
X8234858Y6007718D01*
X8238947Y5999557D01*
X8244205Y5990890D01*
X8250631Y5981716D01*
X8258226Y5972036D01*
X8276920Y5951156D01*
X8288020Y5939957D01*
X8145780D01*
X8156880Y5951156D01*
X8183169Y5981716D01*
X8189595Y5990890D01*
X8194853Y5999557D01*
X8198942Y6007718D01*
X8201863Y6015373D01*
X8203616Y6022521D01*
X8204200Y6029163D01*
X8229600D01*
X8230184Y6022521D01*
D02*
G37*
G36*
X8383306Y5986481D02*
X8389600Y5982665D01*
X8397078Y5979318D01*
X8405740Y5976439D01*
X8415587Y5974028D01*
X8426618Y5972085D01*
X8438833Y5970611D01*
X8466816Y5969065D01*
X8482584Y5968995D01*
X8382005Y5868416D01*
X8381935Y5884184D01*
X8378915Y5924382D01*
X8376972Y5935413D01*
X8374561Y5945260D01*
X8371682Y5953922D01*
X8368335Y5961400D01*
X8364519Y5967694D01*
X8360236Y5972804D01*
X8378196Y5990764D01*
X8383306Y5986481D01*
D02*
G37*
%LPC*%
G36*
X12635168Y12185650D02*
X12612432D01*
X12591427Y12176949D01*
X12575351Y12160873D01*
X12566650Y12139868D01*
Y12117132D01*
X12575351Y12096127D01*
X12591427Y12080051D01*
X12612432Y12071350D01*
X12635168D01*
X12656173Y12080051D01*
X12672249Y12096127D01*
X12680950Y12117132D01*
Y12139868D01*
X12672249Y12160873D01*
X12656173Y12176949D01*
X12635168Y12185650D01*
D02*
G37*
G36*
X12076368Y11944350D02*
X12053632D01*
X12032627Y11935649D01*
X12016551Y11919573D01*
X12007850Y11898568D01*
Y11875832D01*
X12016551Y11854827D01*
X12032627Y11838751D01*
X12053632Y11830050D01*
X12076368D01*
X12097373Y11838751D01*
X12113449Y11854827D01*
X12122150Y11875832D01*
Y11898568D01*
X12113449Y11919573D01*
X12097373Y11935649D01*
X12076368Y11944350D01*
D02*
G37*
G36*
X12876468Y11995150D02*
X12853732D01*
X12832727Y11986449D01*
X12816650Y11970373D01*
X12807950Y11949368D01*
Y11926632D01*
X12816650Y11905627D01*
X12826781Y11895497D01*
X12831413Y11887200D01*
X12826781Y11878903D01*
X12816650Y11868773D01*
X12807950Y11847768D01*
Y11825032D01*
X12816650Y11804027D01*
X12826781Y11793897D01*
X12831413Y11785600D01*
X12826781Y11777303D01*
X12816650Y11767173D01*
X12807950Y11746168D01*
Y11723432D01*
X12816650Y11702427D01*
X12826781Y11692297D01*
X12831413Y11684000D01*
X12826781Y11675703D01*
X12816650Y11665573D01*
X12807950Y11644568D01*
Y11621832D01*
X12816650Y11600827D01*
X12826781Y11590697D01*
X12831413Y11582400D01*
X12826781Y11574103D01*
X12816650Y11563973D01*
X12807950Y11542968D01*
Y11520232D01*
X12816650Y11499227D01*
X12832727Y11483151D01*
X12853732Y11474450D01*
X12876468D01*
X12897473Y11483151D01*
X12913548Y11499227D01*
X12922250Y11520232D01*
Y11542968D01*
X12913548Y11563973D01*
X12903419Y11574103D01*
X12898785Y11582400D01*
X12903419Y11590697D01*
X12913548Y11600827D01*
X12922250Y11621832D01*
Y11644568D01*
X12913548Y11665573D01*
X12903419Y11675703D01*
X12898785Y11684000D01*
X12903419Y11692297D01*
X12913548Y11702427D01*
X12922250Y11723432D01*
Y11746168D01*
X12913548Y11767173D01*
X12903419Y11777303D01*
X12898785Y11785600D01*
X12903419Y11793897D01*
X12913548Y11804027D01*
X12922250Y11825032D01*
Y11847768D01*
X12913548Y11868773D01*
X12903419Y11878903D01*
X12898785Y11887200D01*
X12903419Y11895497D01*
X12913548Y11905627D01*
X12922250Y11926632D01*
Y11949368D01*
X12913548Y11970373D01*
X12897473Y11986449D01*
X12876468Y11995150D01*
D02*
G37*
G36*
Y11296650D02*
X12853732D01*
X12832727Y11287949D01*
X12816650Y11271873D01*
X12807950Y11250868D01*
Y11228132D01*
X12816650Y11207127D01*
X12832727Y11191051D01*
X12853732Y11182350D01*
X12876468D01*
X12897473Y11191051D01*
X12913548Y11207127D01*
X12922250Y11228132D01*
Y11250868D01*
X12913548Y11271873D01*
X12897473Y11287949D01*
X12876468Y11296650D01*
D02*
G37*
G36*
X12304968Y10814050D02*
X12282232D01*
X12261227Y10805349D01*
X12245151Y10789273D01*
X12236450Y10768268D01*
Y10745532D01*
X12245151Y10724527D01*
X12261227Y10708451D01*
X12282232Y10699750D01*
X12304968D01*
X12325973Y10708451D01*
X12342049Y10724527D01*
X12350750Y10745532D01*
Y10768268D01*
X12342049Y10789273D01*
X12325973Y10805349D01*
X12304968Y10814050D01*
D02*
G37*
G36*
X15934468Y11995150D02*
X15911732D01*
X15890727Y11986449D01*
X15874651Y11970373D01*
X15865950Y11949368D01*
Y11926632D01*
X15874651Y11905627D01*
X15884781Y11895497D01*
X15889413Y11887200D01*
X15884781Y11878903D01*
X15874651Y11868773D01*
X15865950Y11847768D01*
Y11825032D01*
X15874651Y11804027D01*
X15884781Y11793897D01*
X15889413Y11785600D01*
X15884781Y11777303D01*
X15874651Y11767173D01*
X15865950Y11746168D01*
Y11723432D01*
X15874651Y11702427D01*
X15884781Y11692297D01*
X15889413Y11684000D01*
X15884781Y11675703D01*
X15874651Y11665573D01*
X15865950Y11644568D01*
Y11621832D01*
X15874651Y11600827D01*
X15884781Y11590697D01*
X15889413Y11582400D01*
X15884781Y11574103D01*
X15874651Y11563973D01*
X15865950Y11542968D01*
Y11520232D01*
X15874651Y11499227D01*
X15890727Y11483151D01*
X15911732Y11474450D01*
X15934468D01*
X15955473Y11483151D01*
X15971548Y11499227D01*
X15980251Y11520232D01*
Y11542968D01*
X15971548Y11563973D01*
X15961420Y11574103D01*
X15956786Y11582400D01*
X15961420Y11590697D01*
X15971548Y11600827D01*
X15980251Y11621832D01*
Y11644568D01*
X15971548Y11665573D01*
X15961420Y11675703D01*
X15956786Y11684000D01*
X15961420Y11692297D01*
X15971548Y11702427D01*
X15980251Y11723432D01*
Y11746168D01*
X15971548Y11767173D01*
X15961420Y11777303D01*
X15956786Y11785600D01*
X15961420Y11793897D01*
X15971548Y11804027D01*
X15980251Y11825032D01*
Y11847768D01*
X15971548Y11868773D01*
X15961420Y11878903D01*
X15956786Y11887200D01*
X15961420Y11895497D01*
X15971548Y11905627D01*
X15980251Y11926632D01*
Y11949368D01*
X15971548Y11970373D01*
X15955473Y11986449D01*
X15934468Y11995150D01*
D02*
G37*
G36*
Y11296650D02*
X15911732D01*
X15890727Y11287949D01*
X15874651Y11271873D01*
X15865950Y11250868D01*
Y11228132D01*
X15874651Y11207127D01*
X15890727Y11191051D01*
X15911732Y11182350D01*
X15934468D01*
X15955473Y11191051D01*
X15971548Y11207127D01*
X15980251Y11228132D01*
Y11250868D01*
X15971548Y11271873D01*
X15955473Y11287949D01*
X15934468Y11296650D01*
D02*
G37*
G36*
X15354567Y10811826D02*
X15331831D01*
X15310828Y10803125D01*
X15294749Y10787049D01*
X15286050Y10766044D01*
Y10743308D01*
X15294749Y10722303D01*
X15310828Y10706226D01*
X15331831Y10697526D01*
X15354567D01*
X15375574Y10706226D01*
X15391649Y10722303D01*
X15400349Y10743308D01*
Y10766044D01*
X15391649Y10787049D01*
X15375574Y10803125D01*
X15354567Y10811826D01*
D02*
G37*
%LPD*%
D41*
X11810398Y12420600D02*
X17068800D01*
X11150600D02*
X11810398D01*
X10960100Y12230100D02*
X11150600Y12420600D01*
X17068800D02*
X18414999Y11074400D01*
X9795137Y12230100D02*
X10960100D01*
X18414999Y10624947D02*
Y11074400D01*
Y10624947D02*
X18572800Y10467147D01*
D42*
X9258300Y12458700D02*
X13068300Y8648700D01*
X15678149D01*
X15716251Y8610600D02*
X16586200D01*
X15678149Y8648700D02*
X15716251Y8610600D01*
X16586200D02*
X17080280Y8116521D01*
X10668000Y8369300D02*
X10744200Y8445500D01*
X11811000D01*
X10363200Y8540750D02*
X11772377D01*
X11804127Y8572500D01*
X11811000D01*
X10160000Y8369300D02*
X10668000D01*
X9994900D02*
X10160000D01*
X9487175Y8877025D02*
X9994900Y8369300D01*
X9487175Y8877025D02*
Y9677125D01*
X8636000Y10337800D02*
X8826500D01*
X7543800Y11430000D02*
X8636000Y10337800D01*
X8826500D02*
X9487175Y9677125D01*
X8991600Y7683500D02*
Y8369300D01*
X10172700Y6502400D02*
X17208501D01*
X8991600Y7683500D02*
X10172700Y6502400D01*
X8724900Y8636000D02*
X8991600Y8369300D01*
X8432800Y8636000D02*
X8724900D01*
X8797054Y8360646D02*
X8902700Y8255000D01*
Y7620000D02*
Y8255000D01*
Y7620000D02*
X10134600Y6388100D01*
X17310100D01*
X8724900Y8382000D02*
X8746254Y8360646D01*
X8797054D01*
X8432800Y8382000D02*
X8724900D01*
X6629400Y7112000D02*
X6908800D01*
X6629400Y6858000D02*
X6908800D01*
X6629400Y6604000D02*
X6908800D01*
X12813043Y8522957D02*
X12901677D01*
X13093700Y8458200D02*
X13258800D01*
X10109200Y11442700D02*
X13093700Y8458200D01*
X8369300Y11442700D02*
X10109200D01*
X13258800Y8458200D02*
X13652499Y8064499D01*
X8382000Y11544300D02*
X10118818D01*
X13141418Y8521700D02*
X13601700D01*
X10118818Y11544300D02*
X13141418Y8521700D01*
X9258300Y12458700D02*
Y13423900D01*
X14045900Y8077500D02*
X15659100D01*
X13601700Y8521700D02*
X14045900Y8077500D01*
X8407400Y11315700D02*
X10020300D01*
X12813043Y8522957D01*
X7543800Y11747500D02*
X7975600D01*
X8407400Y11315700D01*
X7747000Y12065000D02*
X8369300Y11442700D01*
X7543800Y12065000D02*
X7747000D01*
X7543800Y12382500D02*
X8382000Y11544300D01*
X8216900Y5867400D02*
Y8420100D01*
X8432800Y8636000D01*
X8280400Y6070600D02*
Y8229600D01*
X17204248Y12585700D02*
X18572800Y11217148D01*
X11633200Y12541250D02*
X11635379D01*
X11679829Y12585700D01*
X17204248D01*
X17080280Y8116521D02*
X17512079D01*
X17513300Y8115300D01*
X13385802Y7797800D02*
X13652499Y8064499D01*
X17513300Y8115300D02*
X17627600D01*
X18402299Y9804400D02*
Y10046650D01*
X18572800Y10217150D01*
X10033000Y7797800D02*
X13385802D01*
X8432800Y6604000D02*
X8724900D01*
X8432800Y6858000D02*
X8724900D01*
X8432800Y7112000D02*
X8724900D01*
X8432800Y7366000D02*
X8724900D01*
X8432800Y7620000D02*
X8724900D01*
X8432800Y7874000D02*
X8724900D01*
X8432800Y8128000D02*
X8724900D01*
X8432800Y8890000D02*
X8724900D01*
X8432800Y9144000D02*
X8724900D01*
X8432800Y9398000D02*
X8724900D01*
X8432800Y9652000D02*
X8724900D01*
X8432800Y9906000D02*
X8724900D01*
X6629400Y7366000D02*
X6908800D01*
X6629400Y7620000D02*
X6908800D01*
X6629400Y7874000D02*
X6908800D01*
X6629400Y8128000D02*
X6908800D01*
X6629400Y8382000D02*
X6908800D01*
X6629400Y8636000D02*
X6908800D01*
X6629400Y8890000D02*
X6908800D01*
X6629400Y9144000D02*
X6908800D01*
X6629400Y9398000D02*
X6908800D01*
X6629400Y9652000D02*
X6908800D01*
X6629400Y9906000D02*
X6908800D01*
X6629400Y10160000D02*
X6908800D01*
Y9652000D02*
X8432800D01*
X8280400Y6070600D02*
X8483600Y5867400D01*
X8280400Y8229600D02*
X8432800Y8382000D01*
X17310100Y6388100D02*
X18542000Y7620000D01*
X18897600D02*
X19113499Y7835900D01*
X18884900Y7759700D02*
X19011900Y7886700D01*
X18897600Y9613900D02*
X19011900Y9499600D01*
Y7886700D02*
Y9499600D01*
X18542000Y7620000D02*
X18897600D01*
X18465800Y7759700D02*
X18884900D01*
X17208501Y6502400D02*
X18465800Y7759700D01*
X18402299Y9804400D02*
X18592799Y9613900D01*
X18897600D01*
X18839174Y10217150D02*
X19113499Y9942824D01*
Y7835900D02*
Y9942824D01*
X18822803Y10217150D02*
X18839174D01*
X8036152Y13433652D02*
X8343900Y13741400D01*
X8036152Y13192352D02*
Y13433652D01*
X8343900Y13741400D02*
X8940800D01*
X7543800Y12700000D02*
X8036152Y13192352D01*
X8940800Y13741400D02*
X9258300Y13423900D01*
D43*
X17284700Y13512801D02*
X17741901Y13055600D01*
Y12842747D02*
Y13055600D01*
X12776200Y13572316D02*
Y13792200D01*
Y13572316D02*
X12835716Y13512801D01*
X17284700D01*
X16725900Y13322301D02*
X18376900Y11671300D01*
X12674600Y13322301D02*
X16725900D01*
X18376900Y11671300D02*
X18818764D01*
X12522200Y13474699D02*
X12674600Y13322301D01*
X12522200Y13474699D02*
Y13792200D01*
X18818764Y11671300D02*
X18964302Y11525761D01*
X17741901Y12842747D02*
X18572800Y12011848D01*
X18964302Y11123367D02*
Y11525761D01*
X18822803Y10981867D02*
X18964302Y11123367D01*
X18822803Y10967146D02*
Y10981867D01*
D49*
X12268200Y13233400D02*
D03*
Y12979401D02*
D03*
Y13792200D02*
D03*
X12522200D02*
D03*
D50*
X12268200Y12725400D02*
D03*
D51*
X12776200Y13792200D02*
D03*
D52*
X13358000Y8963900D02*
D03*
Y9163900D02*
D03*
X11988000Y8913900D02*
D03*
Y9113900D02*
D03*
X9479900Y11151400D02*
D03*
X9279900D02*
D03*
X9529900Y8581400D02*
D03*
X9329900D02*
D03*
D53*
X8432800Y10160000D02*
D03*
Y9906000D02*
D03*
Y9652000D02*
D03*
Y9398000D02*
D03*
Y9144000D02*
D03*
Y8890000D02*
D03*
Y8636000D02*
D03*
Y8382000D02*
D03*
Y8128000D02*
D03*
Y7874000D02*
D03*
Y7620000D02*
D03*
Y7366000D02*
D03*
Y7112000D02*
D03*
Y6858000D02*
D03*
Y6604000D02*
D03*
X6908800D02*
D03*
Y6858000D02*
D03*
Y7112000D02*
D03*
Y7366000D02*
D03*
Y7620000D02*
D03*
Y7874000D02*
D03*
Y8128000D02*
D03*
Y8382000D02*
D03*
Y8636000D02*
D03*
Y8890000D02*
D03*
Y9144000D02*
D03*
Y9398000D02*
D03*
Y9652000D02*
D03*
Y9906000D02*
D03*
Y10160000D02*
D03*
D55*
X18135600Y8293100D02*
D03*
X6858000Y13525500D02*
D03*
Y5778500D02*
D03*
X17843500Y13525500D02*
D03*
X17602200Y5778500D02*
D03*
X18021300Y10160000D02*
D03*
X9461500Y5778500D02*
D03*
D56*
X19545300Y7370249D02*
D03*
Y5872749D02*
D03*
Y11459647D02*
D03*
Y9962149D02*
D03*
Y9414949D02*
D03*
Y7917449D02*
D03*
Y13504347D02*
D03*
Y12006849D02*
D03*
D57*
X18822800Y5877749D02*
D03*
Y6127749D02*
D03*
Y6377749D02*
D03*
Y6627749D02*
D03*
Y6877749D02*
D03*
Y7127749D02*
D03*
Y7377749D02*
D03*
X18572800Y5877749D02*
D03*
Y6127749D02*
D03*
Y6377749D02*
D03*
Y6627749D02*
D03*
Y6877749D02*
D03*
Y7127749D02*
D03*
Y7377749D02*
D03*
X18822803Y9967148D02*
D03*
Y10217150D02*
D03*
Y10467147D02*
D03*
Y10717149D02*
D03*
Y10967146D02*
D03*
Y11217148D02*
D03*
Y11467150D02*
D03*
X18572800Y9967148D02*
D03*
Y10217150D02*
D03*
Y10467147D02*
D03*
Y10717149D02*
D03*
Y10967146D02*
D03*
Y11217148D02*
D03*
Y11467150D02*
D03*
X18822800Y7922449D02*
D03*
Y8172449D02*
D03*
Y8422449D02*
D03*
Y8672449D02*
D03*
Y8922449D02*
D03*
Y9172449D02*
D03*
Y9422449D02*
D03*
X18572800Y7922449D02*
D03*
Y8172449D02*
D03*
Y8422449D02*
D03*
Y8672449D02*
D03*
Y8922449D02*
D03*
Y9172449D02*
D03*
Y9422449D02*
D03*
X18822803Y12011848D02*
D03*
Y12261850D02*
D03*
Y12511847D02*
D03*
Y12761849D02*
D03*
Y13011845D02*
D03*
Y13261848D02*
D03*
Y13511850D02*
D03*
X18572800Y12011848D02*
D03*
Y12261850D02*
D03*
Y12511847D02*
D03*
Y12761849D02*
D03*
Y13011845D02*
D03*
Y13261848D02*
D03*
Y13511850D02*
D03*
D58*
X6616700Y10160000D02*
D03*
X8724900D02*
D03*
D59*
X6616700Y9906000D02*
D03*
Y9652000D02*
D03*
Y9398000D02*
D03*
Y9144000D02*
D03*
Y8890000D02*
D03*
Y8636000D02*
D03*
Y8382000D02*
D03*
Y8128000D02*
D03*
Y7874000D02*
D03*
Y7620000D02*
D03*
Y7366000D02*
D03*
Y7112000D02*
D03*
Y6858000D02*
D03*
Y6604000D02*
D03*
X8724900Y9906000D02*
D03*
Y9652000D02*
D03*
Y9398000D02*
D03*
Y9144000D02*
D03*
Y8890000D02*
D03*
Y8636000D02*
D03*
Y8382000D02*
D03*
Y8128000D02*
D03*
Y7874000D02*
D03*
Y7620000D02*
D03*
Y7366000D02*
D03*
Y7112000D02*
D03*
Y6858000D02*
D03*
Y6604000D02*
D03*
D60*
X8674100Y12090400D02*
D03*
Y13208000D02*
D03*
D61*
X6725369Y11120947D02*
D03*
X17335500Y7239000D02*
D03*
X8216900Y5867400D02*
D03*
X8483600D02*
D03*
D62*
X7543800Y12382500D02*
D03*
Y12065000D02*
D03*
Y12700000D02*
D03*
Y11430000D02*
D03*
Y13017500D02*
D03*
Y11747500D02*
D03*
D63*
X14833600Y8864600D02*
D03*
Y9296400D02*
D03*
X14401801D02*
D03*
X13970000D02*
D03*
X17614900Y12979401D02*
D03*
X14084300Y8562340D02*
D03*
X16192500Y8712200D02*
D03*
X10363200Y8540750D02*
D03*
X10160000Y8369300D02*
D03*
X13970770Y8859060D02*
D03*
Y9758611D02*
D03*
X15756860Y12881706D02*
D03*
X14661018Y12714100D02*
D03*
X9318656Y6770378D02*
D03*
X9829800Y8737600D02*
D03*
X9832994Y8096250D02*
D03*
X10033000Y7213600D02*
D03*
X9613900Y7747000D02*
D03*
Y7848600D02*
D03*
X10121900Y9969500D02*
D03*
X8750300Y10655300D02*
D03*
Y11163300D02*
D03*
Y10960100D02*
D03*
Y10858500D02*
D03*
Y10756900D02*
D03*
Y11061700D02*
D03*
Y10553700D02*
D03*
X8648700Y10655300D02*
D03*
Y11163300D02*
D03*
Y10960100D02*
D03*
Y10553700D02*
D03*
Y10756900D02*
D03*
Y11061700D02*
D03*
Y10858500D02*
D03*
X8547100Y10655300D02*
D03*
Y11163300D02*
D03*
Y11061700D02*
D03*
Y10553700D02*
D03*
Y10858500D02*
D03*
Y10756900D02*
D03*
Y10960100D02*
D03*
X12017000Y11240538D02*
D03*
X15051674D02*
D03*
X12268200Y11887200D02*
D03*
X15341600D02*
D03*
X15159425Y12714100D02*
D03*
X7663700Y7754100D02*
D03*
X7652500Y7373100D02*
D03*
X7467600Y7569200D02*
D03*
X7848600Y7558000D02*
D03*
X7658100Y7563600D02*
D03*
X10172700Y8788400D02*
D03*
X16179800Y9461500D02*
D03*
Y9779000D02*
D03*
Y10096500D02*
D03*
X16192500Y8839200D02*
D03*
X13182600Y12329430D02*
D03*
X16256474Y12328758D02*
D03*
X13398500Y12329430D02*
D03*
X16472375Y12328758D02*
D03*
X16090900Y8242300D02*
D03*
X16256474Y13067628D02*
D03*
X16472375D02*
D03*
Y12698193D02*
D03*
X16256474D02*
D03*
X11633200Y12541250D02*
D03*
X13182600Y12698865D02*
D03*
X13398500D02*
D03*
Y13068300D02*
D03*
X13182600D02*
D03*
X16814799Y8166100D02*
D03*
X15887700Y8077500D02*
D03*
X14097000Y8267700D02*
D03*
X14808200Y8191500D02*
D03*
X12103100Y8305800D02*
D03*
X12839700Y8204200D02*
D03*
X9831566Y12047716D02*
D03*
X11544300Y10909300D02*
D03*
X11239500D02*
D03*
X11137900D02*
D03*
X11442700D02*
D03*
X11036300D02*
D03*
X11341100D02*
D03*
X10963201Y12007850D02*
D03*
X9791700Y12230100D02*
D03*
X10960100D02*
D03*
X10223500Y9969500D02*
D03*
Y9867900D02*
D03*
X16979900Y7251700D02*
D03*
X13639799Y7457915D02*
D03*
X15646400D02*
D03*
X17590826D02*
D03*
X10033000Y7797800D02*
D03*
X9715500Y9359900D02*
D03*
X7035800Y10896600D02*
D03*
X7340600Y11163300D02*
D03*
X17513300Y8115300D02*
D03*
Y12979401D02*
D03*
X17614900Y12877800D02*
D03*
X17513300D02*
D03*
X16370300Y6908800D02*
D03*
X11442700Y11010900D02*
D03*
Y11112500D02*
D03*
X11341100D02*
D03*
Y11010900D02*
D03*
X11544300D02*
D03*
Y11112500D02*
D03*
X11137900Y11010900D02*
D03*
Y11112500D02*
D03*
X11036300D02*
D03*
Y11010900D02*
D03*
X11239500D02*
D03*
Y11112500D02*
D03*
X9817100Y9359900D02*
D03*
X10223500D02*
D03*
X10020300D02*
D03*
X9817100Y9969500D02*
D03*
X10020300Y9461500D02*
D03*
Y9563100D02*
D03*
X10223500Y9461500D02*
D03*
Y9563100D02*
D03*
X9817100Y9461500D02*
D03*
Y9563100D02*
D03*
X10223500Y9766300D02*
D03*
Y9664700D02*
D03*
X10020300Y9867900D02*
D03*
Y9766300D02*
D03*
Y9664700D02*
D03*
Y9969500D02*
D03*
X9817100Y9867900D02*
D03*
Y9766300D02*
D03*
Y9664700D02*
D03*
X10121900Y9359900D02*
D03*
X9918700Y9766300D02*
D03*
Y9664700D02*
D03*
X10121900Y9563100D02*
D03*
Y9766300D02*
D03*
Y9664700D02*
D03*
Y9461500D02*
D03*
Y9867900D02*
D03*
X9715500Y9664700D02*
D03*
Y9766300D02*
D03*
Y9563100D02*
D03*
Y9461500D02*
D03*
X9918700Y9969500D02*
D03*
X9715500D02*
D03*
X9918700Y9563100D02*
D03*
Y9359900D02*
D03*
Y9461500D02*
D03*
X9715500Y9867900D02*
D03*
X9918700D02*
D03*
X11671300Y12814301D02*
D03*
X12382500Y6794502D02*
D03*
X12153900D02*
D03*
Y6908802D02*
D03*
X14160500Y7035800D02*
D03*
X14274800Y6921500D02*
D03*
X14389101Y7035800D02*
D03*
X14274800D02*
D03*
Y6807200D02*
D03*
X14160500Y6921500D02*
D03*
Y6807200D02*
D03*
X14389101D02*
D03*
Y6921500D02*
D03*
X15659100Y8077500D02*
D03*
X15773399D02*
D03*
X14986000Y7264400D02*
D03*
X14871700Y7378700D02*
D03*
X16141701Y7023100D02*
D03*
X16256000D02*
D03*
X16370300D02*
D03*
X16256000Y6908800D02*
D03*
X16141701D02*
D03*
Y6794500D02*
D03*
X16256000D02*
D03*
X16370300D02*
D03*
X12153900Y7023102D02*
D03*
X12268200D02*
D03*
X12382500D02*
D03*
Y6908802D02*
D03*
X12268200D02*
D03*
Y6794502D02*
D03*
X13881100Y8064499D02*
D03*
X13652499D02*
D03*
X13766800D02*
D03*
X17741901Y8115300D02*
D03*
X17627600D02*
D03*
X11671300Y13373100D02*
D03*
Y13093700D02*
D03*
Y13233400D02*
D03*
Y13512801D02*
D03*
Y13652499D02*
D03*
Y12953999D02*
D03*
X11811000Y12814301D02*
D03*
Y12953999D02*
D03*
Y13652499D02*
D03*
Y13512801D02*
D03*
Y13373100D02*
D03*
Y13233400D02*
D03*
Y13093700D02*
D03*
X12852400Y7366000D02*
D03*
X12966701Y7251700D02*
D03*
X16827499Y7378700D02*
D03*
D64*
X11811000Y8445500D02*
D03*
Y8572500D02*
D03*
X9180476Y6596593D02*
D03*
X9309100Y6654800D02*
D03*
X11810398Y12420600D02*
D03*
X12065000Y11887200D02*
D03*
X9017000Y9169400D02*
D03*
X8953500Y6692900D02*
D03*
X9677400Y6489700D02*
D03*
X10756643Y7048285D02*
D03*
X12901677Y8522957D02*
D03*
X12293600Y10756900D02*
D03*
X15343201Y10754676D02*
D03*
X13558450Y10255750D02*
D03*
Y9938250D02*
D03*
X12658900Y10255750D02*
D03*
Y9938250D02*
D03*
X15716901Y10255750D02*
D03*
Y9938250D02*
D03*
Y9620750D02*
D03*
Y9303250D02*
D03*
X16632326D02*
D03*
Y9620750D02*
D03*
Y9938250D02*
D03*
Y10255750D02*
D03*
X16922365Y12512227D02*
D03*
Y12881705D02*
D03*
X13848489Y12512877D02*
D03*
X12698860Y12882314D02*
D03*
X15845799Y10846300D02*
D03*
X15642599D02*
D03*
X15923100Y11239500D02*
D03*
Y11531600D02*
D03*
Y11633200D02*
D03*
Y11734800D02*
D03*
Y11836400D02*
D03*
Y11938000D02*
D03*
X15342368Y11439393D02*
D03*
X12865100Y11239500D02*
D03*
Y11531600D02*
D03*
Y11633200D02*
D03*
Y11734800D02*
D03*
Y11836400D02*
D03*
Y11938000D02*
D03*
X12623800Y12128500D02*
D03*
X14594299Y12092400D02*
D03*
X12584600Y10846300D02*
D03*
X12787800D02*
D03*
X12284367Y11439393D02*
D03*
D65*
X7505700Y7010400D02*
D03*
X8102600Y6591300D02*
D03*
D85*
X13372000Y11354300D02*
X15023000D01*
D86*
X16660800Y7505700D02*
D03*
X16560800Y7565700D02*
D03*
Y7445700D02*
D03*
X16460800Y7505700D02*
D03*
X14479601D02*
D03*
X14579601Y7445700D02*
D03*
Y7565700D02*
D03*
X14679601Y7505700D02*
D03*
X12673000D02*
D03*
X12573000Y7565700D02*
D03*
Y7445700D02*
D03*
X12473000Y7505700D02*
D03*
%TF.MD5,6a3691c17589da0516fc3e263da2ca4b*%
M02*
