%TF.GenerationSoftware,Altium Limited,Altium Designer,23.5.1 (21)*%
G04 Layer_Color=128*
%FSLAX45Y45*%
%MOMM*%
%TF.SameCoordinates,77F376E6-C6B2-4CCA-B26E-6530BE00B4D6*%
%TF.FilePolarity,Positive*%
%TF.FileFunction,Paste,Bot*%
%TF.Part,Single*%
G01*
G75*
%TA.AperFunction,SMDPad,CuDef*%
%ADD16R,0.70000X0.90000*%
%ADD17R,1.25000X1.10000*%
%ADD19R,0.80000X0.95000*%
%ADD36R,0.90000X0.70000*%
%ADD87R,1.20620X0.95620*%
%ADD88R,1.01213X1.33108*%
%ADD89R,0.80650X1.30822*%
%ADD90R,0.85000X1.35000*%
%ADD91R,0.57000X1.40000*%
%ADD92C,1.80000*%
%ADD93R,0.95000X3.50000*%
%ADD94R,10.35000X9.00000*%
%ADD95R,0.80000X0.90000*%
G36*
X14939101Y12661600D02*
X15006599Y12594100D01*
X15006599Y12369100D01*
Y12365122D01*
X15003555Y12357771D01*
X14997929Y12352145D01*
X14990578Y12349100D01*
X14822623D01*
X14815271Y12352145D01*
X14809645Y12357771D01*
X14806599Y12365122D01*
Y12369100D01*
Y12594100D01*
X14874100Y12661600D01*
Y12784100D01*
X14939101D01*
Y12661600D01*
D02*
G37*
D16*
X7448700Y5676900D02*
D03*
X7308700D02*
D03*
D17*
X7629500Y5676900D02*
D03*
X7864500D02*
D03*
D19*
X7580400Y9169400D02*
D03*
X7710400D02*
D03*
X7123700Y11125200D02*
D03*
X6998700D02*
D03*
D36*
X11112500Y12096598D02*
D03*
Y12236597D02*
D03*
X9639300D02*
D03*
Y12096598D02*
D03*
D87*
X7404100Y6072697D02*
D03*
Y6277697D02*
D03*
X14510201Y12707200D02*
D03*
Y12502200D02*
D03*
D88*
X7912100Y6258952D02*
D03*
Y6110848D02*
D03*
X15297600Y12530648D02*
D03*
Y12678752D02*
D03*
D89*
X9835514Y8396926D02*
D03*
X10005686D02*
D03*
X9833614Y8600126D02*
D03*
X10003786D02*
D03*
X9832994Y9144000D02*
D03*
X10003165D02*
D03*
X9832994Y6819900D02*
D03*
X10003165D02*
D03*
X9832994Y7035800D02*
D03*
X10003165D02*
D03*
X9832994Y8928100D02*
D03*
X10003165D02*
D03*
X9832994Y7988300D02*
D03*
X10003165D02*
D03*
X9832994Y8204200D02*
D03*
X10003165D02*
D03*
X9832994Y7620000D02*
D03*
X10003165D02*
D03*
X9832994Y7404100D02*
D03*
X10003165D02*
D03*
D90*
X10433100Y7023100D02*
D03*
X10598100D02*
D03*
D91*
X14756599Y12714100D02*
D03*
X15056599D02*
D03*
D92*
X14906599Y12484100D02*
D03*
D93*
X7912100Y6588600D02*
D03*
X7404100D02*
D03*
D94*
X7658100Y7563600D02*
D03*
D95*
X7372100Y9171000D02*
D03*
X7182100D02*
D03*
X7277100Y9371000D02*
D03*
%TF.MD5,15d358765a2a4b28dabe798ccdaf4979*%
M02*
