%TF.GenerationSoftware,Altium Limited,Altium Designer,23.5.1 (21)*%
G04 Layer_Physical_Order=5*
G04 Layer_Color=128*
%FSLAX45Y45*%
%MOMM*%
%TF.SameCoordinates,1DABE7A7-8C02-4A6D-B465-D2BC1E63CDE6*%
%TF.FilePolarity,Negative*%
%TF.FileFunction,Copper,L5,Inr,Plane*%
%TF.Part,Single*%
G01*
G75*
%TA.AperFunction,ComponentPad*%
%ADD74C,2.03200*%
%TA.AperFunction,TestPad*%
%ADD75C,2.03200*%
%TA.AperFunction,NonConductor*%
%ADD79C,1.01600*%
%TA.AperFunction,ComponentPad*%
G04:AMPARAMS|DCode=80|XSize=2.3368mm|YSize=2.3368mm|CornerRadius=0mm|HoleSize=0mm|Usage=FLASHONLY|Rotation=0.000|XOffset=0mm|YOffset=0mm|HoleType=Round|Shape=Relief|Width=0.508mm|Gap=0.254mm|Entries=4|*
%AMTHD80*
7,0,0,2.33680,1.82880,0.50800,45*
%
%ADD80THD80*%
%ADD81C,2.03600*%
G04:AMPARAMS|DCode=82|XSize=3.052mm|YSize=3.052mm|CornerRadius=0mm|HoleSize=0mm|Usage=FLASHONLY|Rotation=0.000|XOffset=0mm|YOffset=0mm|HoleType=Round|Shape=Relief|Width=0.508mm|Gap=0.254mm|Entries=4|*
%AMTHD82*
7,0,0,3.05200,2.54400,0.50800,45*
%
%ADD82THD82*%
%ADD83C,1.81600*%
%ADD84C,1.91600*%
G04:AMPARAMS|DCode=85|XSize=2.932mm|YSize=2.932mm|CornerRadius=0mm|HoleSize=0mm|Usage=FLASHONLY|Rotation=0.000|XOffset=0mm|YOffset=0mm|HoleType=Round|Shape=Relief|Width=0.508mm|Gap=0.254mm|Entries=4|*
%AMTHD85*
7,0,0,2.93200,2.42400,0.50800,45*
%
%ADD85THD85*%
G04:AMPARAMS|DCode=86|XSize=5.732mm|YSize=5.732mm|CornerRadius=0mm|HoleSize=0mm|Usage=FLASHONLY|Rotation=0.000|XOffset=0mm|YOffset=0mm|HoleType=Round|Shape=Relief|Width=0.508mm|Gap=0.254mm|Entries=4|*
%AMTHD86*
7,0,0,5.73200,5.22400,0.50800,45*
%
%ADD86THD86*%
%ADD87C,2.71600*%
G04:AMPARAMS|DCode=88|XSize=3.232mm|YSize=3.232mm|CornerRadius=0mm|HoleSize=0mm|Usage=FLASHONLY|Rotation=0.000|XOffset=0mm|YOffset=0mm|HoleType=Round|Shape=Relief|Width=0.508mm|Gap=0.254mm|Entries=4|*
%AMTHD88*
7,0,0,3.23200,2.72400,0.50800,45*
%
%ADD88THD88*%
%ADD89C,2.21600*%
%ADD90C,7.21600*%
G04:AMPARAMS|DCode=91|XSize=8.232mm|YSize=8.232mm|CornerRadius=0mm|HoleSize=0mm|Usage=FLASHONLY|Rotation=0.000|XOffset=0mm|YOffset=0mm|HoleType=Round|Shape=Relief|Width=0.508mm|Gap=0.254mm|Entries=4|*
%AMTHD91*
7,0,0,8.23200,7.72400,0.50800,45*
%
%ADD91THD91*%
G04:AMPARAMS|DCode=92|XSize=3.048mm|YSize=3.048mm|CornerRadius=0mm|HoleSize=0mm|Usage=FLASHONLY|Rotation=0.000|XOffset=0mm|YOffset=0mm|HoleType=Round|Shape=Relief|Width=0.508mm|Gap=0.254mm|Entries=4|*
%AMTHD92*
7,0,0,3.04800,2.54000,0.50800,45*
%
%ADD92THD92*%
%TA.AperFunction,ViaPad*%
G04:AMPARAMS|DCode=93|XSize=2.413mm|YSize=2.413mm|CornerRadius=0mm|HoleSize=0mm|Usage=FLASHONLY|Rotation=0.000|XOffset=0mm|YOffset=0mm|HoleType=Round|Shape=Relief|Width=0.508mm|Gap=0.254mm|Entries=4|*
%AMTHD93*
7,0,0,2.41300,1.90500,0.50800,45*
%
%ADD93THD93*%
G04:AMPARAMS|DCode=94|XSize=2.3368mm|YSize=2.3368mm|CornerRadius=0mm|HoleSize=0mm|Usage=FLASHONLY|Rotation=0.000|XOffset=0mm|YOffset=0mm|HoleType=Round|Shape=Relief|Width=0.508mm|Gap=0.254mm|Entries=4|*
%AMTHD94*
7,0,0,2.33680,1.82880,0.50800,45*
%
%ADD94THD94*%
%ADD95C,1.39700*%
%ADD96C,1.32080*%
%ADD97C,1.72720*%
D74*
X8216900Y5867400D02*
D03*
X8483600D02*
D03*
D75*
X7543800Y12382500D02*
D03*
Y12065000D02*
D03*
Y12700000D02*
D03*
Y11430000D02*
D03*
Y13017500D02*
D03*
Y11747500D02*
D03*
D79*
X6832195Y13995401D02*
G03*
X6387696Y13550908I-5J-444494D01*
G01*
X19831050Y13550900D02*
G03*
X19386548Y13995399I-444500J0D01*
G01*
X19386549Y5314950D02*
G03*
X19831047Y5759447I1J444497D01*
G01*
X6387697Y5759458D02*
G03*
X6832195Y5314959I444497J-1D01*
G01*
X6387696Y13550908D02*
X6387697Y5759458D01*
X6832196Y13995401D02*
X19386549Y13995399D01*
X19831047Y5759447D02*
X19831050Y13550900D01*
X6832195Y5314959D02*
X19386549Y5314950D01*
D80*
X12231700Y7505700D02*
D03*
X12331700Y7445700D02*
D03*
Y7565700D02*
D03*
X12431700Y7505700D02*
D03*
X16660800D02*
D03*
X16560800Y7565700D02*
D03*
Y7445700D02*
D03*
X16460800Y7505700D02*
D03*
D81*
X12268200Y13233400D02*
D03*
Y12979401D02*
D03*
Y13792200D02*
D03*
X12522200D02*
D03*
X12776200D02*
D03*
X6616700Y10160000D02*
D03*
Y9906000D02*
D03*
Y9652000D02*
D03*
Y9144000D02*
D03*
Y8890000D02*
D03*
Y8636000D02*
D03*
Y8382000D02*
D03*
Y8128000D02*
D03*
Y7874000D02*
D03*
Y7620000D02*
D03*
Y7366000D02*
D03*
Y7112000D02*
D03*
Y6858000D02*
D03*
Y6604000D02*
D03*
X8724900Y10160000D02*
D03*
Y9652000D02*
D03*
Y9398000D02*
D03*
Y9144000D02*
D03*
Y8890000D02*
D03*
Y8636000D02*
D03*
Y8382000D02*
D03*
Y8128000D02*
D03*
Y7874000D02*
D03*
Y7620000D02*
D03*
Y7366000D02*
D03*
Y6858000D02*
D03*
Y6604000D02*
D03*
D82*
X12268200Y12725400D02*
D03*
X6616700Y9398000D02*
D03*
X8724900Y9906000D02*
D03*
Y7112000D02*
D03*
D83*
X13358000Y8963900D02*
D03*
Y9163900D02*
D03*
X11988000Y8913900D02*
D03*
Y9113900D02*
D03*
X9479900Y11151400D02*
D03*
X9279900D02*
D03*
X9529900Y8581400D02*
D03*
X9329900D02*
D03*
D84*
X8432800Y10160000D02*
D03*
Y9652000D02*
D03*
Y9398000D02*
D03*
Y9144000D02*
D03*
Y8890000D02*
D03*
Y8636000D02*
D03*
Y8382000D02*
D03*
Y8128000D02*
D03*
Y7874000D02*
D03*
Y7620000D02*
D03*
Y7366000D02*
D03*
Y6858000D02*
D03*
Y6604000D02*
D03*
X6908800D02*
D03*
Y6858000D02*
D03*
Y7112000D02*
D03*
Y7366000D02*
D03*
Y7620000D02*
D03*
Y7874000D02*
D03*
Y8128000D02*
D03*
Y8382000D02*
D03*
Y8636000D02*
D03*
Y8890000D02*
D03*
Y9144000D02*
D03*
Y9652000D02*
D03*
Y9906000D02*
D03*
Y10160000D02*
D03*
D85*
X8432800Y9906000D02*
D03*
Y7112000D02*
D03*
X6908800Y9398000D02*
D03*
D86*
X18135600Y8293100D02*
D03*
X6858000Y13525500D02*
D03*
Y5778500D02*
D03*
X17843500Y13525500D02*
D03*
X17602200Y5778500D02*
D03*
X18021300Y10160000D02*
D03*
X9461500Y5778500D02*
D03*
D87*
X19545300Y7370249D02*
D03*
Y5872749D02*
D03*
Y11459647D02*
D03*
Y9962149D02*
D03*
Y9414949D02*
D03*
Y7917449D02*
D03*
Y13504347D02*
D03*
Y12006849D02*
D03*
D88*
X18822800Y5877749D02*
D03*
Y6127749D02*
D03*
Y6377749D02*
D03*
Y6627749D02*
D03*
Y6877749D02*
D03*
Y7127749D02*
D03*
Y7377749D02*
D03*
X18822803Y9967148D02*
D03*
Y10467147D02*
D03*
Y10717149D02*
D03*
Y11217148D02*
D03*
Y11467150D02*
D03*
X18572800Y9967148D02*
D03*
X18822800Y7922449D02*
D03*
Y8172449D02*
D03*
Y8422449D02*
D03*
Y8672449D02*
D03*
Y8922449D02*
D03*
Y9172449D02*
D03*
Y9422449D02*
D03*
X18822803Y12011848D02*
D03*
Y12261850D02*
D03*
Y12511847D02*
D03*
Y12761849D02*
D03*
Y13011845D02*
D03*
Y13261848D02*
D03*
Y13511850D02*
D03*
D89*
X18572800Y5877749D02*
D03*
Y6127749D02*
D03*
Y6377749D02*
D03*
Y6627749D02*
D03*
Y6877749D02*
D03*
Y7127749D02*
D03*
Y7377749D02*
D03*
X18822803Y10217150D02*
D03*
Y10967146D02*
D03*
X18572800Y10217150D02*
D03*
Y10467147D02*
D03*
Y10717149D02*
D03*
Y10967146D02*
D03*
Y11217148D02*
D03*
Y11467150D02*
D03*
Y7922449D02*
D03*
Y8172449D02*
D03*
Y8422449D02*
D03*
Y8672449D02*
D03*
Y8922449D02*
D03*
Y9172449D02*
D03*
Y9422449D02*
D03*
Y12011848D02*
D03*
Y12261850D02*
D03*
Y12511847D02*
D03*
Y12761849D02*
D03*
Y13011845D02*
D03*
Y13261848D02*
D03*
Y13511850D02*
D03*
D90*
X8674100Y12090400D02*
D03*
D91*
Y13208000D02*
D03*
D92*
X6725369Y11120947D02*
D03*
X15125700Y13106400D02*
D03*
D93*
X14655800Y7975600D02*
D03*
X16090900Y8242300D02*
D03*
X14198599Y7327900D02*
D03*
X13398500Y7457915D02*
D03*
X12725400Y7251700D02*
D03*
X12611100Y7366000D02*
D03*
X12598400Y8204200D02*
D03*
X11861800Y8305800D02*
D03*
X10160000Y9509125D02*
D03*
X9601200D02*
D03*
X10020300D02*
D03*
X9880600D02*
D03*
X9740900D02*
D03*
X10299700D02*
D03*
X9740900Y9658349D02*
D03*
X9880600D02*
D03*
X10160000D02*
D03*
X10020300D02*
D03*
X10299700D02*
D03*
X9601200D02*
D03*
Y9807574D02*
D03*
X10160000D02*
D03*
X9740900D02*
D03*
X10020300D02*
D03*
X9880600D02*
D03*
X10299700D02*
D03*
Y9956799D02*
D03*
X9880600D02*
D03*
X9601200D02*
D03*
X9740900D02*
D03*
X10160000D02*
D03*
X10020300D02*
D03*
X13970770Y8859060D02*
D03*
Y9758611D02*
D03*
X15756860Y12881706D02*
D03*
X7663700Y7754100D02*
D03*
X7652500Y7373100D02*
D03*
X7467600Y7569200D02*
D03*
X7848600Y7558000D02*
D03*
X7658100Y7563600D02*
D03*
X16814799Y8166100D02*
D03*
X9017000Y9956799D02*
D03*
X16979900Y7251700D02*
D03*
X17590826Y7457915D02*
D03*
X9601200Y9359900D02*
D03*
X9740900D02*
D03*
X10299700D02*
D03*
X10020300D02*
D03*
X9017000Y9509125D02*
D03*
Y9807574D02*
D03*
X10160000Y9359900D02*
D03*
X9017000Y9658349D02*
D03*
Y9359900D02*
D03*
X9880600D02*
D03*
X16827499Y7378700D02*
D03*
D94*
X14427200Y7797800D02*
D03*
X15459302Y7921299D02*
D03*
X15691589D02*
D03*
X15952679Y7219989D02*
D03*
X13836151Y7331668D02*
D03*
Y7555802D02*
D03*
X9677400Y6489700D02*
D03*
X10756643Y7048285D02*
D03*
X13558450Y10255750D02*
D03*
Y9938250D02*
D03*
X12658900Y10255750D02*
D03*
Y9938250D02*
D03*
X15716901Y10255750D02*
D03*
Y9938250D02*
D03*
Y9620750D02*
D03*
Y9303250D02*
D03*
X16632326D02*
D03*
Y9620750D02*
D03*
Y9938250D02*
D03*
Y10255750D02*
D03*
X16922365Y12512227D02*
D03*
Y12881705D02*
D03*
X13848489Y12512877D02*
D03*
X12698860Y12882314D02*
D03*
X15923100Y11239500D02*
D03*
Y11531600D02*
D03*
Y11633200D02*
D03*
Y11734800D02*
D03*
Y11836400D02*
D03*
Y11938000D02*
D03*
X12865100Y11239500D02*
D03*
Y11531600D02*
D03*
Y11633200D02*
D03*
Y11734800D02*
D03*
Y11836400D02*
D03*
Y11938000D02*
D03*
D95*
X15544800Y7162800D02*
D03*
X15367000D02*
D03*
Y7302500D02*
D03*
X15544800D02*
D03*
Y7442200D02*
D03*
X15367000D02*
D03*
X14414500Y7086600D02*
D03*
X13411200Y8064499D02*
D03*
X13525500D02*
D03*
X13639799D02*
D03*
X14566901Y7759700D02*
D03*
X16192500Y8712200D02*
D03*
X14833600Y8864600D02*
D03*
Y9296400D02*
D03*
X14401801D02*
D03*
X13970000D02*
D03*
X17614900Y12979401D02*
D03*
X14084300Y8562340D02*
D03*
X10363200Y8540750D02*
D03*
X10160000Y8369300D02*
D03*
X14661018Y12714100D02*
D03*
X9318656Y6770378D02*
D03*
X9829800Y8737600D02*
D03*
X9832994Y8096250D02*
D03*
X10033000Y7213600D02*
D03*
X9613900Y7747000D02*
D03*
Y7848600D02*
D03*
X8864600Y10604500D02*
D03*
Y11239500D02*
D03*
Y10985500D02*
D03*
Y10858500D02*
D03*
Y10731500D02*
D03*
Y11112500D02*
D03*
X8737600Y10604500D02*
D03*
Y11239500D02*
D03*
Y10985500D02*
D03*
Y10731500D02*
D03*
Y11112500D02*
D03*
Y10858500D02*
D03*
X8610600Y10604500D02*
D03*
Y11239500D02*
D03*
Y11112500D02*
D03*
Y10858500D02*
D03*
Y10731500D02*
D03*
Y10985500D02*
D03*
X12017000Y11240538D02*
D03*
X15051674D02*
D03*
X12268200Y11887200D02*
D03*
X15341600D02*
D03*
X15159425Y12714100D02*
D03*
X10172700Y8788400D02*
D03*
X16179800Y9461500D02*
D03*
Y9779000D02*
D03*
Y10096500D02*
D03*
X16192500Y8839200D02*
D03*
X13182600Y12329430D02*
D03*
X16256474Y12328758D02*
D03*
X13398500Y12329430D02*
D03*
X16472375Y12328758D02*
D03*
X16256474Y13067628D02*
D03*
X16472375D02*
D03*
Y12698193D02*
D03*
X16256474D02*
D03*
X11633200Y12541250D02*
D03*
X13182600Y12698865D02*
D03*
X13398500D02*
D03*
Y13068300D02*
D03*
X13182600D02*
D03*
X9831566Y12047716D02*
D03*
X11569700Y10871200D02*
D03*
X11303000D02*
D03*
X11169650D02*
D03*
X11036300D02*
D03*
X11436350D02*
D03*
X10963201Y12007850D02*
D03*
X9791700Y12230100D02*
D03*
X10960100D02*
D03*
X10033000Y7797800D02*
D03*
X7035800Y10896600D02*
D03*
X7340600Y11163300D02*
D03*
X17513300Y8115300D02*
D03*
Y12979401D02*
D03*
X17614900Y12877800D02*
D03*
X17513300D02*
D03*
X11436350Y11125200D02*
D03*
Y10998200D02*
D03*
X11569700D02*
D03*
Y11125200D02*
D03*
X11169650Y10998200D02*
D03*
Y11125200D02*
D03*
X11036300D02*
D03*
Y10998200D02*
D03*
X11303000D02*
D03*
Y11125200D02*
D03*
X11671300Y12814301D02*
D03*
X17741901Y8115300D02*
D03*
X17627600D02*
D03*
X11671300Y13373100D02*
D03*
Y13093700D02*
D03*
Y13233400D02*
D03*
Y13512801D02*
D03*
Y13652499D02*
D03*
Y12953999D02*
D03*
X11811000Y12814301D02*
D03*
Y12953999D02*
D03*
Y13652499D02*
D03*
Y13512801D02*
D03*
Y13373100D02*
D03*
Y13233400D02*
D03*
Y13093700D02*
D03*
D96*
X9169400Y6604000D02*
D03*
X11811000Y8445500D02*
D03*
Y8572500D02*
D03*
X9309100Y6654800D02*
D03*
X11810398Y12420600D02*
D03*
X12065000Y11887200D02*
D03*
X9017000Y9169400D02*
D03*
X8953500Y6692900D02*
D03*
X12901677Y8522957D02*
D03*
X12293600Y10756900D02*
D03*
X15343201Y10754676D02*
D03*
X15845799Y10846300D02*
D03*
X15642599D02*
D03*
X15342368Y11439393D02*
D03*
X12623800Y12128500D02*
D03*
X14594299Y12092400D02*
D03*
X12584600Y10846300D02*
D03*
X12787800D02*
D03*
X12284367Y11439393D02*
D03*
D97*
X7505700Y7010400D02*
D03*
X8102600Y6591300D02*
D03*
%TF.MD5,70ad8087bbf0aaa04ea9ff9069398835*%
M02*
