%TF.GenerationSoftware,Altium Limited,Altium Designer,23.11.1 (41)*%
G04 Layer_Color=0*
%FSLAX45Y45*%
%MOMM*%
%TF.SameCoordinates,5032265D-FFA5-48D7-84AC-9FA15ADA4C2D*%
%TF.FilePolarity,Positive*%
%TF.FileFunction,Plated,1,2,PTH,Drill*%
%TF.Part,Single*%
G01*
G75*
%TA.AperFunction,ComponentDrill*%
%ADD46C,1.02000*%
%TA.AperFunction,ViaDrill,NotFilled*%
%ADD47C,0.38100*%
%ADD48C,0.50800*%
%ADD49C,0.88900*%
%ADD50C,0.63500*%
D46*
X-88900Y1308100D02*
D03*
X-850900D02*
D03*
X-596900D02*
D03*
X-342900D02*
D03*
X165100D02*
D03*
X419100D02*
D03*
X673100D02*
D03*
X927100D02*
D03*
D47*
X-990600Y-520700D02*
D03*
X-590095Y-371050D02*
D03*
X-1066800Y-330200D02*
D03*
X-292100Y-622300D02*
D03*
X552905Y-183150D02*
D03*
X-203200Y-1011200D02*
D03*
X406400Y-279400D02*
D03*
X-56695Y-91650D02*
D03*
X-577395Y-78950D02*
D03*
X-450395Y86150D02*
D03*
Y-40850D02*
D03*
D48*
X-221795Y898950D02*
D03*
X-56695D02*
D03*
X108405D02*
D03*
X273505D02*
D03*
X-31295Y-472650D02*
D03*
X298905Y-129750D02*
D03*
X438605Y733850D02*
D03*
X603705D02*
D03*
X438605Y898950D02*
D03*
X-386895D02*
D03*
X-31295Y-307550D02*
D03*
X133805Y-129750D02*
D03*
Y9950D02*
D03*
X298905D02*
D03*
X603705Y568750D02*
D03*
D49*
X-355600Y-1181100D02*
D03*
D50*
X-183695Y22650D02*
D03*
X-323395D02*
D03*
%TF.MD5,9a33728ff2a1afc3334ff42dfe8fe72a*%
M02*
