%TF.GenerationSoftware,Altium Limited,Altium Designer,23.11.1 (41)*%
G04 Layer_Color=8388736*
%FSLAX45Y45*%
%MOMM*%
%TF.SameCoordinates,5032265D-FFA5-48D7-84AC-9FA15ADA4C2D*%
%TF.FilePolarity,Negative*%
%TF.FileFunction,Soldermask,Top*%
%TF.Part,Single*%
G01*
G75*
%TA.AperFunction,SMDPad,CuDef*%
%ADD10R,0.75000X0.90000*%
%ADD13R,0.45000X0.25000*%
%ADD14C,0.84115*%
%ADD15C,1.19629*%
%ADD16R,0.25000X0.45000*%
%ADD18R,1.20651X1.06822*%
%ADD22R,2.70000X1.20000*%
%ADD23R,3.17500X4.95300*%
%TA.AperFunction,ComponentPad*%
%ADD26C,1.57000*%
%ADD27R,1.57000X1.57000*%
%TA.AperFunction,SMDPad,CuDef*%
%ADD35R,1.16840X0.86360*%
%ADD36R,1.65320X1.40320*%
%ADD37R,0.86360X1.16840*%
%ADD38R,1.25320X1.10320*%
%ADD39R,1.15320X1.00320*%
%ADD40R,0.85320X1.25320*%
%TA.AperFunction,ViaPad*%
%ADD41C,1.09220*%
%ADD42C,1.34620*%
%ADD43C,1.47320*%
%ADD44C,1.21920*%
G36*
X-140800Y-343300D02*
X-107800D01*
Y-368300D01*
X-140800D01*
Y-393300D01*
X-107800D01*
Y-418300D01*
X-140800D01*
Y-443300D01*
X-107800D01*
Y-468300D01*
X-140800D01*
Y-462800D01*
X-420800D01*
X-450800Y-437800D01*
Y-329800D01*
X-140800D01*
Y-343300D01*
D02*
G37*
G36*
X-107800Y-218300D02*
X-140800D01*
Y-243300D01*
X-107800D01*
Y-268300D01*
X-140800D01*
Y-292800D01*
X-450800D01*
Y-197800D01*
X-140800D01*
Y-193300D01*
X-107800D01*
Y-218300D01*
D02*
G37*
D10*
X-752800Y-520700D02*
D03*
X-872800D02*
D03*
D13*
X-495300Y-354800D02*
D03*
Y-454800D02*
D03*
Y-404800D02*
D03*
Y-304800D02*
D03*
Y-254800D02*
D03*
Y-204800D02*
D03*
D14*
X-286701Y-244531D02*
D03*
D15*
X-284749Y-396339D02*
D03*
D16*
X-437800Y-147300D02*
D03*
X-387800D02*
D03*
X-337800D02*
D03*
X-287800D02*
D03*
X-237800D02*
D03*
X-187800D02*
D03*
Y-512300D02*
D03*
X-237800D02*
D03*
X-287800D02*
D03*
X-337800D02*
D03*
X-387800D02*
D03*
X-437800D02*
D03*
D18*
X-908086Y-330200D02*
D03*
X-742914D02*
D03*
D22*
X558800Y-3000D02*
D03*
Y257000D02*
D03*
D23*
X203200Y520700D02*
D03*
X-698500D02*
D03*
D26*
X-88900Y1308100D02*
D03*
X-850900D02*
D03*
X-596900D02*
D03*
X-342900D02*
D03*
X165100D02*
D03*
X419100D02*
D03*
X673100D02*
D03*
D27*
X927100D02*
D03*
D35*
X-673100Y-857250D02*
D03*
Y-717550D02*
D03*
D36*
X-469900Y-938200D02*
D03*
Y-738200D02*
D03*
D37*
X-691199Y-133639D02*
D03*
X-830899D02*
D03*
X234950Y-457200D02*
D03*
X95250D02*
D03*
D38*
X-203200Y-854900D02*
D03*
Y-719900D02*
D03*
D39*
X-12700D02*
D03*
Y-854900D02*
D03*
D40*
X250100Y-279400D02*
D03*
X80100D02*
D03*
D41*
X-990600Y-520700D02*
D03*
X-590095Y-371050D02*
D03*
X-1066800Y-330200D02*
D03*
X-292100Y-622300D02*
D03*
X552905Y-183150D02*
D03*
X-203200Y-1011200D02*
D03*
X406400Y-279400D02*
D03*
X-56695Y-91650D02*
D03*
X-577395Y-78950D02*
D03*
X-450395Y86150D02*
D03*
Y-40850D02*
D03*
D42*
X-221795Y898950D02*
D03*
X-56695D02*
D03*
X108405D02*
D03*
X273505D02*
D03*
X-31295Y-472650D02*
D03*
X298905Y-129750D02*
D03*
X438605Y733850D02*
D03*
X603705D02*
D03*
X438605Y898950D02*
D03*
X-386895D02*
D03*
X-31295Y-307550D02*
D03*
X133805Y-129750D02*
D03*
Y9950D02*
D03*
X298905D02*
D03*
X603705Y568750D02*
D03*
D43*
X-355600Y-1181100D02*
D03*
D44*
X-183695Y22650D02*
D03*
X-323395D02*
D03*
%TF.MD5,9bded5f6a8f51aa388eb7b17c38f3de0*%
M02*
