%TF.GenerationSoftware,Altium Limited,Altium Designer,23.11.1 (41)*%
G04 Layer_Physical_Order=2*
G04 Layer_Color=16711680*
%FSLAX45Y45*%
%MOMM*%
%TF.SameCoordinates,5032265D-FFA5-48D7-84AC-9FA15ADA4C2D*%
%TF.FilePolarity,Positive*%
%TF.FileFunction,Copper,L2,Bot,Signal*%
%TF.Part,Single*%
G01*
G75*
%TA.AperFunction,Conductor*%
%ADD24C,0.25400*%
%TA.AperFunction,ComponentPad*%
%ADD26C,1.57000*%
%ADD27R,1.57000X1.57000*%
%TA.AperFunction,ViaPad*%
%ADD28C,0.88900*%
%ADD29C,1.14300*%
%ADD30C,1.27000*%
%ADD31C,1.01600*%
G36*
X1219200Y-1346200D02*
X-1193800D01*
Y1485900D01*
X1219200D01*
Y-1346200D01*
D02*
G37*
%LPC*%
G36*
X1003300Y1468518D02*
X1003299Y1468518D01*
X609600D01*
X601671Y1466941D01*
X594950Y1462450D01*
X594950Y1462449D01*
X531450Y1398950D01*
X526959Y1392229D01*
X525382Y1384300D01*
X525382Y1384299D01*
Y1342330D01*
X512682Y1340658D01*
X511185Y1346243D01*
X498176Y1368777D01*
X479777Y1387176D01*
X457243Y1400185D01*
X432110Y1406920D01*
X406090D01*
X380957Y1400185D01*
X358423Y1387176D01*
X340024Y1368777D01*
X327015Y1346243D01*
X320280Y1321110D01*
Y1295090D01*
X327015Y1269957D01*
X340024Y1247423D01*
X358423Y1229024D01*
X380957Y1216015D01*
X406090Y1209280D01*
X432110D01*
X457243Y1216015D01*
X479777Y1229024D01*
X498176Y1247423D01*
X511185Y1269957D01*
X512682Y1275542D01*
X525382Y1273870D01*
Y1219200D01*
X526959Y1211271D01*
X531450Y1204550D01*
X531451Y1204550D01*
X703182Y1032818D01*
X703182Y529282D01*
X359718Y185818D01*
X127001D01*
X127000Y185818D01*
X119072Y184241D01*
X112350Y179750D01*
X112350Y179749D01*
X23450Y90850D01*
X18959Y84129D01*
X17382Y76200D01*
X17382Y76199D01*
Y-68048D01*
X4682Y-70574D01*
X-1786Y-54960D01*
X-20006Y-36740D01*
X-43811Y-26880D01*
X-69579D01*
X-93384Y-36740D01*
X-111605Y-54960D01*
X-121465Y-78766D01*
Y-104533D01*
X-111605Y-128339D01*
X-93384Y-146559D01*
X-69579Y-156420D01*
X-43811D01*
X-20006Y-146559D01*
X-1786Y-128339D01*
X4682Y-112725D01*
X17382Y-115251D01*
Y-156518D01*
X-8582Y-182482D01*
X-88899D01*
X-88900Y-182482D01*
X-96828Y-184059D01*
X-103550Y-188550D01*
X-103550Y-188551D01*
X-154350Y-239350D01*
X-158841Y-246071D01*
X-160418Y-254000D01*
X-160418Y-254001D01*
Y-584200D01*
X-158841Y-592129D01*
X-154350Y-598850D01*
X-154349Y-598850D01*
X-128950Y-624250D01*
X-122229Y-628741D01*
X-114300Y-630318D01*
X-114299Y-630318D01*
X241299D01*
X241300Y-630318D01*
X249228Y-628741D01*
X255950Y-624250D01*
X255950Y-624249D01*
X382950Y-497250D01*
X387441Y-490529D01*
X389018Y-482600D01*
X389018Y-482599D01*
Y-332899D01*
X387441Y-324970D01*
X382950Y-318249D01*
X382949Y-318248D01*
X369054Y-304353D01*
X362348Y-288163D01*
Y-270637D01*
X369054Y-254447D01*
X381447Y-242054D01*
X397637Y-235348D01*
X415163D01*
X430084Y-241529D01*
X438012Y-243106D01*
X445941Y-241529D01*
X452662Y-237038D01*
X502785Y-186915D01*
X507276Y-180194D01*
X508041Y-176347D01*
X515559Y-158197D01*
X527952Y-145804D01*
X546103Y-138286D01*
X549949Y-137521D01*
X556670Y-133030D01*
X556670Y-133029D01*
X1081450Y391750D01*
X1085941Y398471D01*
X1087518Y406400D01*
X1087518Y406401D01*
Y1384300D01*
X1085941Y1392229D01*
X1081450Y1398950D01*
X1081449Y1398950D01*
X1017950Y1462450D01*
X1011229Y1466941D01*
X1003300Y1468518D01*
D02*
G37*
G36*
X178110Y1406920D02*
X152090D01*
X126957Y1400185D01*
X104423Y1387176D01*
X86024Y1368777D01*
X73015Y1346243D01*
X66280Y1321110D01*
Y1295090D01*
X73015Y1269957D01*
X86024Y1247423D01*
X104423Y1229024D01*
X126957Y1216015D01*
X152090Y1209280D01*
X178110D01*
X203243Y1216015D01*
X225777Y1229024D01*
X244176Y1247423D01*
X257185Y1269957D01*
X263920Y1295090D01*
Y1321110D01*
X257185Y1346243D01*
X244176Y1368777D01*
X225777Y1387176D01*
X203243Y1400185D01*
X178110Y1406920D01*
D02*
G37*
G36*
X-75890D02*
X-101910D01*
X-127043Y1400185D01*
X-149577Y1387176D01*
X-167976Y1368777D01*
X-180985Y1346243D01*
X-187720Y1321110D01*
Y1295090D01*
X-183106Y1277871D01*
X-696906Y764071D01*
X-704204Y753149D01*
X-706767Y740265D01*
Y-288045D01*
X-704204Y-300929D01*
X-696906Y-311851D01*
X-653613Y-355144D01*
X-654865Y-358166D01*
Y-383933D01*
X-653613Y-386956D01*
X-753691Y-487033D01*
X-934439D01*
X-935691Y-484011D01*
X-953911Y-465791D01*
X-977716Y-455930D01*
X-1003484D01*
X-1027289Y-465791D01*
X-1045509Y-484011D01*
X-1055370Y-507816D01*
Y-533584D01*
X-1045509Y-557389D01*
X-1027289Y-575609D01*
X-1003484Y-585470D01*
X-977716D01*
X-953911Y-575609D01*
X-935691Y-557389D01*
X-934439Y-554367D01*
X-739746D01*
X-726862Y-551804D01*
X-715939Y-544506D01*
X-606001Y-434568D01*
X-602979Y-435820D01*
X-577211D01*
X-553406Y-425959D01*
X-535186Y-407739D01*
X-525325Y-383933D01*
Y-358166D01*
X-535186Y-334360D01*
X-553406Y-316140D01*
X-577211Y-306280D01*
X-602979D01*
X-606001Y-307531D01*
X-639433Y-274099D01*
Y726320D01*
X-476078Y889675D01*
X-463240Y884552D01*
X-459086Y869048D01*
X-448887Y851383D01*
X-434463Y836959D01*
X-416797Y826760D01*
X-397094Y821480D01*
X-376696D01*
X-356993Y826760D01*
X-339327Y836959D01*
X-324904Y851383D01*
X-314704Y869048D01*
X-310919Y883176D01*
X-297771D01*
X-293986Y869048D01*
X-283787Y851383D01*
X-269363Y836959D01*
X-251697Y826760D01*
X-231994Y821480D01*
X-211596D01*
X-191893Y826760D01*
X-174227Y836959D01*
X-159804Y851383D01*
X-149604Y869048D01*
X-145819Y883176D01*
X-132671D01*
X-128886Y869048D01*
X-118687Y851383D01*
X-104263Y836959D01*
X-86597Y826760D01*
X-66894Y821480D01*
X-46496D01*
X-26793Y826760D01*
X-9127Y836959D01*
X5296Y851383D01*
X15496Y869048D01*
X19281Y883176D01*
X32429D01*
X36214Y869048D01*
X46413Y851383D01*
X60837Y836959D01*
X78503Y826760D01*
X98206Y821480D01*
X118604D01*
X138307Y826760D01*
X155973Y836959D01*
X170396Y851383D01*
X180596Y869048D01*
X184381Y883176D01*
X197529D01*
X201314Y869048D01*
X211513Y851383D01*
X225937Y836959D01*
X243603Y826760D01*
X263306Y821480D01*
X283704D01*
X303407Y826760D01*
X321073Y836959D01*
X335496Y851383D01*
X345696Y869048D01*
X349481Y883176D01*
X362629D01*
X366414Y869048D01*
X376613Y851383D01*
X391037Y836959D01*
X408703Y826760D01*
X422830Y822974D01*
Y809826D01*
X408703Y806041D01*
X391037Y795842D01*
X376613Y781418D01*
X366414Y763753D01*
X361135Y744050D01*
Y723651D01*
X366414Y703948D01*
X376613Y686283D01*
X391037Y671859D01*
X408703Y661660D01*
X428406Y656380D01*
X448804D01*
X468507Y661660D01*
X486173Y671859D01*
X500596Y686283D01*
X510796Y703948D01*
X514581Y718076D01*
X527729D01*
X531514Y703948D01*
X541713Y686283D01*
X556137Y671859D01*
X573803Y661660D01*
X587930Y657874D01*
Y644726D01*
X573803Y640941D01*
X556137Y630742D01*
X541713Y616318D01*
X531514Y598653D01*
X526235Y578950D01*
Y558551D01*
X531514Y538848D01*
X541713Y521183D01*
X556137Y506759D01*
X573803Y496560D01*
X593506Y491280D01*
X613904D01*
X633607Y496560D01*
X651273Y506759D01*
X665696Y521183D01*
X675896Y538848D01*
X681175Y558551D01*
Y578950D01*
X675896Y598653D01*
X665696Y616318D01*
X651273Y630742D01*
X633607Y640941D01*
X619480Y644726D01*
Y657874D01*
X633607Y661660D01*
X651273Y671859D01*
X665696Y686283D01*
X675896Y703948D01*
X681175Y723651D01*
Y744050D01*
X675896Y763753D01*
X665696Y781418D01*
X651273Y795842D01*
X633607Y806041D01*
X613904Y811320D01*
X593506D01*
X573803Y806041D01*
X556137Y795842D01*
X541713Y781418D01*
X531514Y763753D01*
X527729Y749625D01*
X514581D01*
X510796Y763753D01*
X500596Y781418D01*
X486173Y795842D01*
X468507Y806041D01*
X454380Y809826D01*
Y822974D01*
X468507Y826760D01*
X486173Y836959D01*
X500596Y851383D01*
X510796Y869048D01*
X516075Y888751D01*
Y909150D01*
X510796Y928853D01*
X500596Y946518D01*
X486173Y960942D01*
X468507Y971141D01*
X448804Y976420D01*
X428406D01*
X408703Y971141D01*
X391037Y960942D01*
X376613Y946518D01*
X366414Y928853D01*
X362629Y914725D01*
X349481D01*
X345696Y928853D01*
X335496Y946518D01*
X321073Y960942D01*
X303407Y971141D01*
X283704Y976420D01*
X263306D01*
X243603Y971141D01*
X225937Y960942D01*
X211513Y946518D01*
X201314Y928853D01*
X197529Y914725D01*
X184381D01*
X180596Y928853D01*
X170396Y946518D01*
X155973Y960942D01*
X138307Y971141D01*
X118604Y976420D01*
X98206D01*
X78503Y971141D01*
X60837Y960942D01*
X46413Y946518D01*
X36214Y928853D01*
X32429Y914725D01*
X19281D01*
X15496Y928853D01*
X5296Y946518D01*
X-9127Y960942D01*
X-26793Y971141D01*
X-46496Y976420D01*
X-66894D01*
X-86597Y971141D01*
X-104263Y960942D01*
X-118687Y946518D01*
X-128886Y928853D01*
X-132671Y914725D01*
X-145819D01*
X-149604Y928853D01*
X-159804Y946518D01*
X-174227Y960942D01*
X-191893Y971141D01*
X-211596Y976420D01*
X-231994D01*
X-251697Y971141D01*
X-269363Y960942D01*
X-283787Y946518D01*
X-293986Y928853D01*
X-297771Y914725D01*
X-310919D01*
X-314704Y928853D01*
X-324904Y946518D01*
X-339327Y960942D01*
X-356993Y971141D01*
X-372497Y975295D01*
X-377619Y988133D01*
X-141431Y1224322D01*
X-127043Y1216015D01*
X-101910Y1209280D01*
X-75890D01*
X-50757Y1216015D01*
X-28223Y1229024D01*
X-9824Y1247423D01*
X3185Y1269957D01*
X9920Y1295090D01*
Y1321110D01*
X3185Y1346243D01*
X-9824Y1368777D01*
X-28223Y1387176D01*
X-50757Y1400185D01*
X-75890Y1406920D01*
D02*
G37*
G36*
X-437511Y150920D02*
X-463279D01*
X-487084Y141060D01*
X-505305Y122840D01*
X-515165Y99034D01*
Y73267D01*
X-505305Y49461D01*
X-487084Y31241D01*
X-481675Y29000D01*
Y16300D01*
X-487084Y14060D01*
X-505305Y-4160D01*
X-515165Y-27966D01*
Y-53733D01*
X-505305Y-77539D01*
X-487084Y-95759D01*
X-463279Y-105620D01*
X-437511D01*
X-413706Y-95759D01*
X-395486Y-77539D01*
X-385625Y-53733D01*
Y-27966D01*
X-395486Y-4160D01*
X-413706Y14060D01*
X-419115Y16300D01*
Y29000D01*
X-413706Y31241D01*
X-395486Y49461D01*
X-385625Y73267D01*
Y99034D01*
X-395486Y122840D01*
X-413706Y141060D01*
X-437511Y150920D01*
D02*
G37*
G36*
X-344565Y-1097280D02*
X-366635D01*
X-387953Y-1102992D01*
X-407067Y-1114027D01*
X-422673Y-1129633D01*
X-433708Y-1148747D01*
X-439420Y-1170065D01*
Y-1192135D01*
X-433708Y-1213453D01*
X-422673Y-1232567D01*
X-407067Y-1248173D01*
X-387953Y-1259208D01*
X-366635Y-1264920D01*
X-344565D01*
X-323247Y-1259208D01*
X-304133Y-1248173D01*
X-288527Y-1232567D01*
X-277492Y-1213453D01*
X-271780Y-1192135D01*
Y-1170065D01*
X-277492Y-1148747D01*
X-288527Y-1129633D01*
X-304133Y-1114027D01*
X-323247Y-1102992D01*
X-344565Y-1097280D01*
D02*
G37*
%LPD*%
G36*
X1066800Y1384300D02*
Y406400D01*
X542020Y-118380D01*
X540021D01*
X516216Y-128241D01*
X497995Y-146461D01*
X488135Y-170266D01*
Y-172265D01*
X438012Y-222388D01*
X419284Y-214630D01*
X393516D01*
X369711Y-224491D01*
X351491Y-242711D01*
X341630Y-266516D01*
Y-292284D01*
X351491Y-316089D01*
X368300Y-332899D01*
Y-482600D01*
X241300Y-609600D01*
X-114300D01*
X-139700Y-584200D01*
Y-254000D01*
X-88900Y-203200D01*
X0D01*
X38100Y-165100D01*
Y76200D01*
X127000Y165100D01*
X368300D01*
X723900Y520700D01*
X723900Y1041400D01*
X546100Y1219200D01*
Y1384300D01*
X609600Y1447800D01*
X1003300D01*
X1066800Y1384300D01*
D02*
G37*
D24*
X-739746Y-520700D02*
X-590095Y-371050D01*
X-990600Y-520700D02*
X-739746D01*
X-673100Y-288045D02*
Y740265D01*
Y-288045D02*
X-590095Y-371050D01*
X-105265Y1308100D02*
X-88900D01*
X-673100Y740265D02*
X-105265Y1308100D01*
D26*
X-88900D02*
D03*
X-850900D02*
D03*
X-596900D02*
D03*
X-342900D02*
D03*
X165100D02*
D03*
X419100D02*
D03*
X673100D02*
D03*
D27*
X927100D02*
D03*
D28*
X-990600Y-520700D02*
D03*
X-590095Y-371050D02*
D03*
X-1066800Y-330200D02*
D03*
X-292100Y-622300D02*
D03*
X552905Y-183150D02*
D03*
X-203200Y-1011200D02*
D03*
X406400Y-279400D02*
D03*
X-56695Y-91650D02*
D03*
X-577395Y-78950D02*
D03*
X-450395Y86150D02*
D03*
Y-40850D02*
D03*
D29*
X-221795Y898950D02*
D03*
X-56695D02*
D03*
X108405D02*
D03*
X273505D02*
D03*
X-31295Y-472650D02*
D03*
X298905Y-129750D02*
D03*
X438605Y733850D02*
D03*
X603705D02*
D03*
X438605Y898950D02*
D03*
X-386895D02*
D03*
X-31295Y-307550D02*
D03*
X133805Y-129750D02*
D03*
Y9950D02*
D03*
X298905D02*
D03*
X603705Y568750D02*
D03*
D30*
X-355600Y-1181100D02*
D03*
D31*
X-183695Y22650D02*
D03*
X-323395D02*
D03*
%TF.MD5,e5effe314137cc7af6b88d1d0309fd49*%
M02*
