%TF.GenerationSoftware,Altium Limited,Altium Designer,23.11.1 (41)*%
G04 Layer_Color=8421504*
%FSLAX45Y45*%
%MOMM*%
%TF.SameCoordinates,5032265D-FFA5-48D7-84AC-9FA15ADA4C2D*%
%TF.FilePolarity,Positive*%
%TF.FileFunction,Paste,Top*%
%TF.Part,Single*%
G01*
G75*
%TA.AperFunction,SMDPad,CuDef*%
%ADD10R,0.75000X0.90000*%
%ADD11R,0.96520X0.66040*%
%ADD12R,1.45000X1.20000*%
%ADD13R,0.45000X0.25000*%
%ADD14C,0.84115*%
%ADD15C,1.19629*%
%ADD16R,0.25000X0.45000*%
%ADD17R,0.66040X0.96520*%
%ADD18R,1.20651X1.06822*%
%ADD19R,1.05000X0.90000*%
%ADD20R,0.95000X0.80000*%
%ADD21R,0.65000X1.05000*%
%ADD22R,2.70000X1.20000*%
%ADD23R,3.17500X4.95300*%
G36*
X-140800Y-343300D02*
X-107800D01*
Y-368300D01*
X-140800D01*
Y-393300D01*
X-107800D01*
Y-418300D01*
X-140800D01*
Y-443300D01*
X-107800D01*
Y-468300D01*
X-140800D01*
Y-462800D01*
X-420800D01*
X-450800Y-437800D01*
Y-329800D01*
X-140800D01*
Y-343300D01*
D02*
G37*
G36*
X-107800Y-218300D02*
X-140800D01*
Y-243300D01*
X-107800D01*
Y-268300D01*
X-140800D01*
Y-292800D01*
X-450800D01*
Y-197800D01*
X-140800D01*
Y-193300D01*
X-107800D01*
Y-218300D01*
D02*
G37*
D10*
X-752800Y-520700D02*
D03*
X-872800D02*
D03*
D11*
X-673100Y-857250D02*
D03*
Y-717550D02*
D03*
D12*
X-469900Y-938200D02*
D03*
Y-738200D02*
D03*
D13*
X-495300Y-354800D02*
D03*
Y-454800D02*
D03*
Y-404800D02*
D03*
Y-304800D02*
D03*
Y-254800D02*
D03*
Y-204800D02*
D03*
D14*
X-286701Y-244531D02*
D03*
D15*
X-284749Y-396339D02*
D03*
D16*
X-437800Y-147300D02*
D03*
X-387800D02*
D03*
X-337800D02*
D03*
X-287800D02*
D03*
X-237800D02*
D03*
X-187800D02*
D03*
Y-512300D02*
D03*
X-237800D02*
D03*
X-287800D02*
D03*
X-337800D02*
D03*
X-387800D02*
D03*
X-437800D02*
D03*
D17*
X-691199Y-133639D02*
D03*
X-830899D02*
D03*
X234950Y-457200D02*
D03*
X95250D02*
D03*
D18*
X-908086Y-330200D02*
D03*
X-742914D02*
D03*
D19*
X-203200Y-854900D02*
D03*
Y-719900D02*
D03*
D20*
X-12700D02*
D03*
Y-854900D02*
D03*
D21*
X250100Y-279400D02*
D03*
X80100D02*
D03*
D22*
X558800Y-3000D02*
D03*
Y257000D02*
D03*
D23*
X203200Y520700D02*
D03*
X-698500D02*
D03*
%TF.MD5,df107eac6a45aad79bee07e16d808e72*%
M02*
