%TF.GenerationSoftware,Altium Limited,Altium Designer,23.11.1 (41)*%
G04 Layer_Physical_Order=1*
G04 Layer_Color=255*
%FSLAX45Y45*%
%MOMM*%
%TF.SameCoordinates,5032265D-FFA5-48D7-84AC-9FA15ADA4C2D*%
%TF.FilePolarity,Positive*%
%TF.FileFunction,Copper,L1,Top,Signal*%
%TF.Part,Single*%
G01*
G75*
%TA.AperFunction,SMDPad,CuDef*%
%ADD10R,0.75000X0.90000*%
%ADD11R,0.96520X0.66040*%
%ADD12R,1.45000X1.20000*%
%ADD13R,0.45000X0.25000*%
%ADD14C,0.84115*%
%ADD15C,1.19629*%
%ADD16R,0.25000X0.45000*%
%ADD17R,0.66040X0.96520*%
%ADD18R,1.20651X1.06822*%
%ADD19R,1.05000X0.90000*%
%ADD20R,0.95000X0.80000*%
%ADD21R,0.65000X1.05000*%
%ADD22R,2.70000X1.20000*%
%ADD23R,3.17500X4.95300*%
%TA.AperFunction,Conductor*%
%ADD24C,0.25400*%
%ADD25C,0.50800*%
%TA.AperFunction,ComponentPad*%
%ADD26C,1.57000*%
%ADD27R,1.57000X1.57000*%
%TA.AperFunction,ViaPad*%
%ADD28C,0.88900*%
%ADD29C,1.14300*%
%ADD30C,1.27000*%
%ADD31C,1.01600*%
G36*
X1219200Y-1346200D02*
X-1193800D01*
Y1485900D01*
X1219200D01*
Y-1346200D01*
D02*
G37*
%LPC*%
G36*
X469900Y1468518D02*
X469899Y1468518D01*
X101600D01*
X93671Y1466941D01*
X86950Y1462450D01*
X86950Y1462449D01*
X23450Y1398950D01*
X18959Y1392229D01*
X17382Y1384300D01*
X17382Y1384299D01*
Y1342330D01*
X4682Y1340658D01*
X3185Y1346243D01*
X-9824Y1368777D01*
X-28223Y1387176D01*
X-50757Y1400185D01*
X-75890Y1406920D01*
X-101910D01*
X-127043Y1400185D01*
X-149577Y1387176D01*
X-167976Y1368777D01*
X-180985Y1346243D01*
X-187720Y1321110D01*
Y1295090D01*
X-180985Y1269957D01*
X-167976Y1247423D01*
X-149577Y1229024D01*
X-127043Y1216015D01*
X-101910Y1209280D01*
X-75890D01*
X-50757Y1216015D01*
X-28223Y1229024D01*
X-9824Y1247423D01*
X3185Y1269957D01*
X4682Y1275542D01*
X17382Y1273870D01*
Y1164282D01*
X-112931Y1033968D01*
X-831395D01*
X-839324Y1032391D01*
X-846045Y1027900D01*
X-846046Y1027900D01*
X-871445Y1002500D01*
X-875936Y995779D01*
X-877513Y987850D01*
X-877513Y987849D01*
Y848152D01*
X-877513Y848150D01*
X-875936Y840222D01*
X-871445Y833500D01*
X-871444Y833500D01*
X-857507Y819562D01*
X-862367Y807829D01*
X-867788D01*
X-867789Y807829D01*
X-875718Y806252D01*
X-882439Y801761D01*
X-941749Y742450D01*
X-941750Y742450D01*
X-946241Y735728D01*
X-947819Y727800D01*
X-947818Y727798D01*
X-947818Y229263D01*
X-947818Y229262D01*
X-946241Y221334D01*
X-941750Y214612D01*
X-941749Y214611D01*
X-743625Y16487D01*
X-825171Y-65059D01*
X-884239D01*
Y-202219D01*
X-777559D01*
Y-112671D01*
X-756272Y-91385D01*
X-744539Y-96245D01*
Y-202219D01*
X-691848D01*
X-599521Y-294546D01*
X-604937Y-307091D01*
X-626784Y-316140D01*
X-645005Y-334360D01*
X-649569Y-345380D01*
X-662269Y-342854D01*
Y-256469D01*
X-823559D01*
Y-403931D01*
X-771138D01*
Y-406832D01*
X-768575Y-419716D01*
X-761277Y-430638D01*
X-748268Y-443647D01*
X-753129Y-455380D01*
X-810620D01*
Y-455380D01*
X-814980D01*
Y-455380D01*
X-930620D01*
Y-471121D01*
X-943320Y-476381D01*
X-953911Y-465791D01*
X-977716Y-455930D01*
X-1003484D01*
X-1027289Y-465791D01*
X-1045509Y-484011D01*
X-1055370Y-507816D01*
Y-533584D01*
X-1045509Y-557389D01*
X-1027289Y-575609D01*
X-1003484Y-585470D01*
X-977716D01*
X-953911Y-575609D01*
X-943320Y-565019D01*
X-930620Y-570279D01*
Y-586020D01*
X-906467D01*
Y-672790D01*
X-903904Y-685674D01*
X-896606Y-696596D01*
X-741680Y-851522D01*
Y-910590D01*
X-652132D01*
X-600716Y-962006D01*
X-589794Y-969304D01*
X-576910Y-971867D01*
X-562720D01*
Y-1018520D01*
X-390906D01*
Y-1104697D01*
X-407067Y-1114027D01*
X-422673Y-1129633D01*
X-433708Y-1148747D01*
X-439420Y-1170065D01*
Y-1192135D01*
X-433708Y-1213453D01*
X-422673Y-1232567D01*
X-407067Y-1248173D01*
X-387953Y-1259208D01*
X-366635Y-1264920D01*
X-344565D01*
X-323247Y-1259208D01*
X-304133Y-1248173D01*
X-288527Y-1232567D01*
X-277492Y-1213453D01*
X-271780Y-1192135D01*
Y-1170065D01*
X-277492Y-1148747D01*
X-288527Y-1129633D01*
X-304133Y-1114027D01*
X-323247Y-1102992D01*
X-323572Y-1102905D01*
Y-608611D01*
X-326135Y-595727D01*
X-333433Y-584805D01*
X-354133Y-564105D01*
Y-512300D01*
X-354980Y-508041D01*
Y-483628D01*
X-270620D01*
Y-508041D01*
X-271467Y-512300D01*
Y-543997D01*
X-270620Y-548256D01*
Y-555120D01*
X-269254D01*
X-268904Y-556881D01*
X-261606Y-567804D01*
X-236867Y-592543D01*
Y-654580D01*
X-276020D01*
Y-785220D01*
X-130380D01*
Y-753567D01*
X-80520D01*
Y-780220D01*
X55120D01*
Y-659580D01*
X-80520D01*
Y-686233D01*
X-130380D01*
Y-654580D01*
X-169533D01*
Y-595827D01*
X-168413Y-594607D01*
X-156833Y-589468D01*
X-150164Y-593924D01*
X-137280Y-596486D01*
X144570D01*
X157454Y-593924D01*
X168377Y-586626D01*
X229222Y-525780D01*
X288290D01*
Y-388620D01*
X181610D01*
Y-478168D01*
X166256Y-493521D01*
X154523Y-488661D01*
Y-252631D01*
X180487Y-226668D01*
X375104D01*
X375105Y-226668D01*
X383033Y-225090D01*
X389755Y-220600D01*
X389755Y-220599D01*
X402455Y-207900D01*
X406946Y-201178D01*
X408523Y-193250D01*
X408523Y-193248D01*
Y60749D01*
X408523Y60750D01*
X407592Y65432D01*
X413039Y75109D01*
X415903Y78132D01*
X679904D01*
X679905Y78132D01*
X685869Y79319D01*
X702933Y62255D01*
Y-240055D01*
X121755Y-821233D01*
X55120D01*
Y-794580D01*
X-80520D01*
Y-915220D01*
X55120D01*
Y-888567D01*
X135700D01*
X148584Y-886004D01*
X159506Y-878706D01*
X760406Y-277806D01*
X767704Y-266884D01*
X770267Y-254000D01*
Y76200D01*
X767704Y89084D01*
X760406Y100006D01*
X734841Y125572D01*
X737146Y129022D01*
X738723Y136950D01*
X738723Y136952D01*
Y860850D01*
X737146Y868779D01*
X732655Y875500D01*
X732654Y875501D01*
X580255Y1027900D01*
X580254Y1027901D01*
X566818Y1041337D01*
Y1273870D01*
X579518Y1275542D01*
X581015Y1269957D01*
X594024Y1247423D01*
X612423Y1229024D01*
X634957Y1216015D01*
X660090Y1209280D01*
X686110D01*
X711243Y1216015D01*
X733777Y1229024D01*
X752176Y1247423D01*
X765185Y1269957D01*
X771920Y1295090D01*
Y1321110D01*
X765185Y1346243D01*
X752176Y1368777D01*
X733777Y1387176D01*
X711243Y1400185D01*
X686110Y1406920D01*
X660090D01*
X634957Y1400185D01*
X612423Y1387176D01*
X594024Y1368777D01*
X581015Y1346243D01*
X579518Y1340658D01*
X566818Y1342330D01*
Y1371599D01*
X566818Y1371600D01*
X565241Y1379529D01*
X560750Y1386250D01*
X484550Y1462450D01*
X477829Y1466941D01*
X469900Y1468518D01*
D02*
G37*
G36*
X1025920Y1406920D02*
X828280D01*
Y1209280D01*
X1025920D01*
Y1406920D01*
D02*
G37*
%LPD*%
G36*
X546100Y1371600D02*
Y1032755D01*
X565605Y1013250D01*
X718005Y860850D01*
Y136950D01*
X679905Y98850D01*
X6805D01*
X-259895Y365550D01*
Y543350D01*
X-513895Y797350D01*
X-805995D01*
X-856795Y848150D01*
Y987850D01*
X-831395Y1013250D01*
X-104350D01*
X38100Y1155700D01*
Y1384300D01*
X101600Y1447800D01*
X469900D01*
X546100Y1371600D01*
D02*
G37*
G36*
X-692778Y-32130D02*
X-684849Y-33707D01*
X-684848Y-33707D01*
X-541031D01*
X-515067Y-59671D01*
Y-131407D01*
X-534399Y-150739D01*
X-538890Y-157460D01*
X-540467Y-165389D01*
X-540467Y-165390D01*
Y-214436D01*
X-538890Y-222365D01*
X-538120Y-223517D01*
Y-237620D01*
X-524853D01*
X-521181Y-240074D01*
X-513252Y-241651D01*
X-513251Y-241651D01*
X-497541D01*
X-494278Y-242300D01*
X-492238D01*
X-490237Y-242698D01*
X-471661D01*
X-471621Y-242898D01*
X-471518Y-243053D01*
Y-271980D01*
X-490237D01*
X-495500Y-270933D01*
X-527910D01*
X-637212Y-161631D01*
Y-153959D01*
X-637859Y-150707D01*
Y-65059D01*
X-713353D01*
X-718213Y-53326D01*
X-695319Y-30432D01*
X-692778Y-32130D01*
D02*
G37*
G36*
X-820645Y782700D02*
X-813924Y778210D01*
X-805995Y776632D01*
X-805994Y776632D01*
X-522477D01*
X-280613Y534768D01*
Y365550D01*
X-279036Y357622D01*
X-278449Y356743D01*
Y355311D01*
X-275564Y352426D01*
X-274545Y350900D01*
X-274544Y350900D01*
X-7845Y84200D01*
X-6320Y83181D01*
X951Y75911D01*
Y56858D01*
X364Y55979D01*
X-1213Y48050D01*
X-1213Y48049D01*
Y-171968D01*
X-69258Y-240013D01*
X-78863Y-245558D01*
X-93287Y-259982D01*
X-98832Y-269586D01*
X-101438Y-272192D01*
X-120104D01*
X-122106Y-272591D01*
X-124146D01*
X-126031Y-273372D01*
X-128033Y-273770D01*
X-129729Y-274903D01*
X-131615Y-275684D01*
X-133058Y-277127D01*
X-134754Y-278261D01*
X-135888Y-279958D01*
X-137331Y-281401D01*
X-138111Y-283285D01*
X-139245Y-284982D01*
X-139643Y-286983D01*
X-140424Y-288869D01*
X-140739Y-290450D01*
X-140800D01*
Y-292800D01*
X-450800D01*
Y-236650D01*
X-452480Y-234970D01*
Y-221980D01*
X-490237D01*
X-495500Y-220933D01*
X-513252D01*
X-519749Y-214436D01*
Y-165389D01*
X-494349Y-139989D01*
Y-51089D01*
X-532449Y-12989D01*
X-684849D01*
X-927100Y229262D01*
X-927100Y727800D01*
X-867789Y787111D01*
X-825056D01*
X-820645Y782700D01*
D02*
G37*
G36*
X387805Y60750D02*
Y-193250D01*
X375105Y-205950D01*
X171905D01*
X133805Y-244050D01*
Y-523450D01*
X128102Y-529153D01*
X-80604D01*
X-146846Y-462910D01*
X-426346D01*
X-452480Y-436776D01*
Y-421980D01*
X-467276D01*
X-471846Y-417411D01*
X-518346D01*
Y-392410D01*
X-514403Y-388467D01*
X-495300D01*
X-491041Y-387620D01*
X-452480D01*
Y-383911D01*
X-451346D01*
Y-313966D01*
X-450800Y-313518D01*
X-140800D01*
X-132872Y-311941D01*
X-126150Y-307450D01*
X-121659Y-300728D01*
X-120104Y-292911D01*
X-92856D01*
X19505Y-180550D01*
Y48050D01*
X44905Y73450D01*
X375105D01*
X387805Y60750D01*
D02*
G37*
G36*
X-470620Y-555120D02*
X-430437D01*
X-425182Y-567820D01*
X-468306Y-610944D01*
X-475604Y-621866D01*
X-478167Y-634750D01*
Y-657880D01*
X-562720D01*
Y-818520D01*
X-390906D01*
Y-857880D01*
X-562720D01*
Y-886817D01*
X-575420Y-892078D01*
X-604520Y-862978D01*
Y-803910D01*
X-694068D01*
X-715354Y-782623D01*
X-710494Y-770890D01*
X-604520D01*
Y-664210D01*
X-694068D01*
X-719133Y-639145D01*
Y-586020D01*
X-694980D01*
Y-545967D01*
X-470620D01*
Y-555120D01*
D02*
G37*
%LPC*%
G36*
X-165100Y96919D02*
X-165101Y96918D01*
X-355600D01*
X-363528Y95341D01*
X-366221Y93542D01*
X-370250Y90850D01*
X-370250Y90849D01*
X-395650Y65450D01*
X-400141Y58729D01*
X-401718Y50800D01*
X-401718Y50799D01*
Y-104480D01*
X-400141Y-112408D01*
X-395650Y-119130D01*
X-388928Y-123621D01*
X-381000Y-125198D01*
X-375698D01*
Y-177082D01*
X-374121Y-185010D01*
X-369630Y-191732D01*
X-362909Y-196223D01*
X-354980Y-197800D01*
X-164381D01*
X-156454Y-196223D01*
X-149732Y-191732D01*
X-149731Y-191731D01*
X-125050Y-167050D01*
X-120559Y-160328D01*
X-118981Y-152400D01*
X-118982Y-152398D01*
Y-7503D01*
X-117422Y-4801D01*
X-112575Y13287D01*
Y32014D01*
X-117422Y50102D01*
X-119590Y53856D01*
X-120559Y58729D01*
X-122358Y61421D01*
X-125050Y65450D01*
X-125051Y65451D01*
X-150450Y90850D01*
X-157171Y95341D01*
X-165100Y96919D01*
D02*
G37*
%LPD*%
G36*
X-163657Y74758D02*
X-163657Y74757D01*
X-141142Y52242D01*
D01*
X-139700Y50800D01*
Y49308D01*
X-138617Y46693D01*
X-137532Y43498D01*
X-136728Y42105D01*
X-133293Y29286D01*
Y16015D01*
X-136728Y3196D01*
X-136924Y2856D01*
X-137363Y1562D01*
X-138123Y426D01*
X-138651Y-2233D01*
X-139522Y-4799D01*
X-139433Y-6162D01*
X-139700Y-7503D01*
Y-152400D01*
X-141142Y-153842D01*
X-141143Y-153843D01*
X-162939Y-175639D01*
D01*
X-164382Y-177082D01*
X-354980D01*
Y-175041D01*
Y-125198D01*
Y-104480D01*
X-381000D01*
Y-102439D01*
Y48761D01*
Y50800D01*
X-379557Y52243D01*
X-379557Y52243D01*
X-357042Y74758D01*
D01*
X-355600Y76200D01*
X-165100D01*
X-163657Y74758D01*
D02*
G37*
D10*
X-752800Y-520700D02*
D03*
X-872800D02*
D03*
D11*
X-673100Y-857250D02*
D03*
Y-717550D02*
D03*
D12*
X-469900Y-938200D02*
D03*
Y-738200D02*
D03*
D13*
X-495300Y-354800D02*
D03*
Y-454800D02*
D03*
Y-404800D02*
D03*
Y-304800D02*
D03*
Y-254800D02*
D03*
Y-204800D02*
D03*
D14*
X-286701Y-244531D02*
D03*
D15*
X-284749Y-396339D02*
D03*
D16*
X-437800Y-147300D02*
D03*
X-387800D02*
D03*
X-337800D02*
D03*
X-287800D02*
D03*
X-237800D02*
D03*
X-187800D02*
D03*
Y-512300D02*
D03*
X-237800D02*
D03*
X-287800D02*
D03*
X-337800D02*
D03*
X-387800D02*
D03*
X-437800D02*
D03*
D17*
X-691199Y-133639D02*
D03*
X-830899D02*
D03*
X234950Y-457200D02*
D03*
X95250D02*
D03*
D18*
X-908086Y-330200D02*
D03*
X-742914D02*
D03*
D19*
X-203200Y-854900D02*
D03*
Y-719900D02*
D03*
D20*
X-12700D02*
D03*
Y-854900D02*
D03*
D21*
X250100Y-279400D02*
D03*
X80100D02*
D03*
D22*
X558800Y-3000D02*
D03*
Y257000D02*
D03*
D23*
X203200Y520700D02*
D03*
X-698500D02*
D03*
D24*
X-990600Y-520700D02*
X-872800D01*
X-657860Y-857250D02*
X-576910Y-938200D01*
X-444500D01*
X-872800Y-672790D02*
Y-520700D01*
X-688340Y-857250D02*
X-673100D01*
X-872800Y-672790D02*
X-688340Y-857250D01*
X-673100D02*
X-657860D01*
X-572912Y-371050D02*
X-556663Y-354800D01*
X-590095Y-371050D02*
X-572912D01*
X-556663Y-354800D02*
X-495300D01*
X-1066800Y-330200D02*
X-908086D01*
X603705Y209095D02*
Y568750D01*
X-237800Y-543997D02*
X-203200Y-578597D01*
X-237800Y-543997D02*
Y-512300D01*
X-203200Y-719900D02*
Y-578597D01*
X-357239Y-1179461D02*
Y-608611D01*
X-387800Y-578050D02*
X-357239Y-608611D01*
Y-1179461D02*
X-355600Y-1181100D01*
X-830899Y-118399D02*
X-626350Y86150D01*
X-830899Y-133639D02*
Y-118399D01*
X-626350Y86150D02*
X-450395D01*
X-12700Y-854900D02*
X135700D01*
X736600Y-254000D02*
Y76200D01*
X135700Y-854900D02*
X736600Y-254000D01*
X603705Y209095D02*
X736600Y76200D01*
X-203200Y-1011200D02*
Y-854900D01*
X-387800Y-578050D02*
Y-512300D01*
X-444500Y-634750D02*
X-387800Y-578050D01*
X-444500Y-738200D02*
Y-634750D01*
X-744400Y-512300D02*
X-437800D01*
X-752800Y-520700D02*
X-744400Y-512300D01*
X-688340Y-717550D02*
X-673100D01*
X-752800Y-653090D02*
X-688340Y-717550D01*
X-752800Y-653090D02*
Y-520700D01*
X250100Y-279400D02*
X406400D01*
X552905Y-8895D02*
X558800Y-3000D01*
X-742914Y-330200D02*
X-737471Y-335643D01*
Y-406832D02*
Y-335643D01*
Y-406832D02*
X-689503Y-454800D01*
X-495300D01*
X-203200Y-719900D02*
X-12700D01*
X-187800Y-521900D02*
Y-512300D01*
X-187600Y-522100D02*
X-178000D01*
X-137280Y-562820D02*
X144570D01*
X-187800Y-521900D02*
X-187600Y-522100D01*
X-178000D02*
X-137280Y-562820D01*
X234950Y-472440D02*
Y-457200D01*
X144570Y-562820D02*
X234950Y-472440D01*
X-670879Y-175576D02*
X-541855Y-304600D01*
X-670879Y-175576D02*
Y-153959D01*
X-495500Y-304600D02*
X-495300Y-304800D01*
X-541855Y-304600D02*
X-495500D01*
X-691199Y-133639D02*
X-670879Y-153959D01*
X-527197Y-254600D02*
X-495500D01*
X-495300Y-254800D01*
X-577395Y-204402D02*
X-527197Y-254600D01*
X-577395Y-204402D02*
Y-78950D01*
D25*
X552905Y-183150D02*
Y-8895D01*
D26*
X-88900Y1308100D02*
D03*
X-850900D02*
D03*
X-596900D02*
D03*
X-342900D02*
D03*
X165100D02*
D03*
X419100D02*
D03*
X673100D02*
D03*
D27*
X927100D02*
D03*
D28*
X-990600Y-520700D02*
D03*
X-590095Y-371050D02*
D03*
X-1066800Y-330200D02*
D03*
X-292100Y-622300D02*
D03*
X552905Y-183150D02*
D03*
X-203200Y-1011200D02*
D03*
X406400Y-279400D02*
D03*
X-56695Y-91650D02*
D03*
X-577395Y-78950D02*
D03*
X-450395Y86150D02*
D03*
Y-40850D02*
D03*
D29*
X-221795Y898950D02*
D03*
X-56695D02*
D03*
X108405D02*
D03*
X273505D02*
D03*
X-31295Y-472650D02*
D03*
X298905Y-129750D02*
D03*
X438605Y733850D02*
D03*
X603705D02*
D03*
X438605Y898950D02*
D03*
X-386895D02*
D03*
X-31295Y-307550D02*
D03*
X133805Y-129750D02*
D03*
Y9950D02*
D03*
X298905D02*
D03*
X603705Y568750D02*
D03*
D30*
X-355600Y-1181100D02*
D03*
D31*
X-183695Y22650D02*
D03*
X-323395D02*
D03*
%TF.MD5,368675b8796f2226240142c5b382c9a0*%
M02*
