%TF.GenerationSoftware,Altium Limited,Altium Designer,23.11.1 (41)*%
G04 Layer_Color=65535*
%FSLAX45Y45*%
%MOMM*%
%TF.SameCoordinates,5032265D-FFA5-48D7-84AC-9FA15ADA4C2D*%
%TF.FilePolarity,Positive*%
%TF.FileFunction,Legend,Top*%
%TF.Part,Single*%
G01*
G75*
%TA.AperFunction,NonConductor*%
%ADD32C,0.25000*%
%ADD33C,0.25400*%
%ADD34C,0.20000*%
G36*
X-81954Y-1206502D02*
X-98398D01*
X-131285Y-1153122D01*
Y-1206502D01*
X-146465D01*
Y-1125209D01*
X-130611D01*
X-97133Y-1179770D01*
Y-1125209D01*
X-81954D01*
Y-1206502D01*
D02*
G37*
G36*
X172464Y-1140979D02*
X143033D01*
X140504Y-1154808D01*
X140588D01*
X140757Y-1154724D01*
X141010Y-1154555D01*
X141431Y-1154387D01*
X141853Y-1154218D01*
X142443Y-1153965D01*
X143792Y-1153459D01*
X145395Y-1153038D01*
X147250Y-1152616D01*
X149189Y-1152279D01*
X151213Y-1152194D01*
X151635D01*
X152225Y-1152279D01*
X152984D01*
X153827Y-1152447D01*
X154839Y-1152616D01*
X156020Y-1152869D01*
X157285Y-1153122D01*
X158634Y-1153544D01*
X160068Y-1154050D01*
X161501Y-1154640D01*
X163019Y-1155399D01*
X164537Y-1156242D01*
X165971Y-1157254D01*
X167489Y-1158435D01*
X168838Y-1159784D01*
X168922Y-1159868D01*
X169175Y-1160121D01*
X169512Y-1160543D01*
X169934Y-1161133D01*
X170524Y-1161892D01*
X171115Y-1162820D01*
X171789Y-1163832D01*
X172464Y-1165012D01*
X173139Y-1166361D01*
X173813Y-1167795D01*
X174404Y-1169397D01*
X174994Y-1171168D01*
X175415Y-1173023D01*
X175753Y-1174963D01*
X176006Y-1177071D01*
X176090Y-1179264D01*
Y-1179348D01*
Y-1179685D01*
Y-1180276D01*
X176006Y-1180950D01*
X175921Y-1181793D01*
X175753Y-1182890D01*
X175584Y-1183986D01*
X175331Y-1185251D01*
X175078Y-1186600D01*
X174656Y-1188034D01*
X174235Y-1189552D01*
X173645Y-1191070D01*
X172970Y-1192587D01*
X172211Y-1194105D01*
X171283Y-1195623D01*
X170271Y-1197141D01*
X170187Y-1197225D01*
X169934Y-1197563D01*
X169428Y-1198153D01*
X168838Y-1198828D01*
X167995Y-1199587D01*
X166983Y-1200514D01*
X165886Y-1201526D01*
X164537Y-1202454D01*
X163104Y-1203466D01*
X161417Y-1204478D01*
X159646Y-1205405D01*
X157622Y-1206164D01*
X155514Y-1206839D01*
X153237Y-1207429D01*
X150792Y-1207766D01*
X148262Y-1207851D01*
X147166D01*
X146407Y-1207766D01*
X145395Y-1207682D01*
X144298Y-1207513D01*
X143033Y-1207345D01*
X141769Y-1207092D01*
X140335Y-1206755D01*
X138817Y-1206417D01*
X137299Y-1205911D01*
X135781Y-1205321D01*
X134179Y-1204646D01*
X132745Y-1203803D01*
X131228Y-1202875D01*
X129878Y-1201863D01*
X129794Y-1201779D01*
X129541Y-1201610D01*
X129204Y-1201273D01*
X128782Y-1200767D01*
X128192Y-1200177D01*
X127601Y-1199418D01*
X126927Y-1198575D01*
X126168Y-1197563D01*
X125409Y-1196466D01*
X124734Y-1195202D01*
X123975Y-1193852D01*
X123301Y-1192419D01*
X122710Y-1190901D01*
X122204Y-1189214D01*
X121783Y-1187443D01*
X121446Y-1185588D01*
X136962Y-1183986D01*
Y-1184070D01*
Y-1184239D01*
X137046Y-1184492D01*
X137131Y-1184829D01*
X137299Y-1185841D01*
X137637Y-1187022D01*
X138142Y-1188371D01*
X138817Y-1189720D01*
X139745Y-1191070D01*
X140841Y-1192334D01*
X141010Y-1192503D01*
X141431Y-1192840D01*
X142106Y-1193262D01*
X143033Y-1193852D01*
X144130Y-1194443D01*
X145395Y-1194864D01*
X146913Y-1195202D01*
X148430Y-1195370D01*
X148936D01*
X149274Y-1195286D01*
X150117Y-1195202D01*
X151298Y-1194864D01*
X152563Y-1194443D01*
X153912Y-1193768D01*
X155261Y-1192756D01*
X155936Y-1192166D01*
X156610Y-1191491D01*
Y-1191407D01*
X156779Y-1191322D01*
X156948Y-1191070D01*
X157116Y-1190732D01*
X157454Y-1190311D01*
X157707Y-1189805D01*
X158044Y-1189214D01*
X158381Y-1188540D01*
X158634Y-1187696D01*
X158971Y-1186853D01*
X159309Y-1185841D01*
X159562Y-1184745D01*
X159730Y-1183564D01*
X159899Y-1182299D01*
X160068Y-1180950D01*
Y-1179517D01*
Y-1179432D01*
Y-1179179D01*
Y-1178842D01*
X159983Y-1178336D01*
Y-1177661D01*
X159899Y-1176987D01*
X159646Y-1175300D01*
X159224Y-1173529D01*
X158634Y-1171674D01*
X157791Y-1169903D01*
X157285Y-1169144D01*
X156695Y-1168385D01*
Y-1168301D01*
X156526Y-1168217D01*
X156104Y-1167795D01*
X155345Y-1167205D01*
X154333Y-1166446D01*
X153069Y-1165771D01*
X151551Y-1165181D01*
X149864Y-1164759D01*
X148936Y-1164591D01*
X147250D01*
X146828Y-1164675D01*
X146238Y-1164759D01*
X145479Y-1164928D01*
X144720Y-1165096D01*
X143877Y-1165349D01*
X142949Y-1165602D01*
X142022Y-1166024D01*
X141010Y-1166530D01*
X139998Y-1167036D01*
X138986Y-1167795D01*
X137889Y-1168554D01*
X136878Y-1169482D01*
X135866Y-1170493D01*
X123301Y-1168723D01*
X131312Y-1126390D01*
X172464D01*
Y-1140979D01*
D02*
G37*
G36*
X80462Y-1125294D02*
X81643D01*
X83076Y-1125378D01*
X84510Y-1125462D01*
X87546Y-1125715D01*
X90750Y-1126137D01*
X92184Y-1126390D01*
X93617Y-1126643D01*
X94967Y-1126980D01*
X96147Y-1127402D01*
X96231D01*
X96400Y-1127486D01*
X96737Y-1127655D01*
X97159Y-1127823D01*
X97665Y-1128076D01*
X98171Y-1128414D01*
X99520Y-1129173D01*
X101038Y-1130269D01*
X102640Y-1131618D01*
X104158Y-1133305D01*
X105592Y-1135244D01*
X105676Y-1135329D01*
X105761Y-1135497D01*
X105929Y-1135835D01*
X106182Y-1136256D01*
X106435Y-1136762D01*
X106772Y-1137353D01*
X107110Y-1138112D01*
X107447Y-1138955D01*
X107784Y-1139798D01*
X108037Y-1140810D01*
X108628Y-1143003D01*
X109049Y-1145448D01*
X109218Y-1146713D01*
Y-1148062D01*
Y-1148147D01*
Y-1148484D01*
Y-1148905D01*
X109134Y-1149580D01*
X109049Y-1150339D01*
X108965Y-1151267D01*
X108796Y-1152279D01*
X108543Y-1153375D01*
X107869Y-1155820D01*
X107447Y-1157085D01*
X106941Y-1158350D01*
X106351Y-1159615D01*
X105592Y-1160880D01*
X104749Y-1162061D01*
X103821Y-1163241D01*
X103737Y-1163326D01*
X103568Y-1163494D01*
X103231Y-1163832D01*
X102809Y-1164169D01*
X102219Y-1164675D01*
X101544Y-1165181D01*
X100701Y-1165771D01*
X99773Y-1166361D01*
X98761Y-1167036D01*
X97581Y-1167626D01*
X96231Y-1168301D01*
X94798Y-1168891D01*
X93196Y-1169397D01*
X91509Y-1169903D01*
X89738Y-1170325D01*
X87799Y-1170662D01*
X87883D01*
X88052Y-1170831D01*
X88305Y-1170999D01*
X88726Y-1171168D01*
X89654Y-1171843D01*
X90919Y-1172686D01*
X92268Y-1173698D01*
X93702Y-1174879D01*
X95220Y-1176143D01*
X96569Y-1177493D01*
X96653D01*
X96737Y-1177661D01*
X96906Y-1177914D01*
X97243Y-1178252D01*
X97581Y-1178673D01*
X98002Y-1179179D01*
X98424Y-1179770D01*
X99014Y-1180528D01*
X99689Y-1181372D01*
X100364Y-1182384D01*
X101122Y-1183396D01*
X101966Y-1184661D01*
X102809Y-1186010D01*
X103737Y-1187443D01*
X104749Y-1189046D01*
X105845Y-1190732D01*
X115796Y-1206502D01*
X96147D01*
X84341Y-1188793D01*
X84257Y-1188708D01*
X84088Y-1188371D01*
X83751Y-1187865D01*
X83329Y-1187275D01*
X82823Y-1186516D01*
X82233Y-1185673D01*
X80884Y-1183733D01*
X79450Y-1181709D01*
X78017Y-1179770D01*
X77342Y-1178926D01*
X76667Y-1178083D01*
X76161Y-1177408D01*
X75655Y-1176902D01*
X75571Y-1176818D01*
X75234Y-1176481D01*
X74812Y-1176059D01*
X74222Y-1175553D01*
X73463Y-1174963D01*
X72620Y-1174457D01*
X71692Y-1173951D01*
X70764Y-1173529D01*
X70680Y-1173445D01*
X70258Y-1173361D01*
X69668Y-1173192D01*
X68741Y-1173023D01*
X67560Y-1172855D01*
X66211Y-1172770D01*
X64440Y-1172602D01*
X59211D01*
Y-1206502D01*
X42768D01*
Y-1125209D01*
X79366D01*
X80462Y-1125294D01*
D02*
G37*
G36*
X-33296D02*
X-31778D01*
X-30261Y-1125378D01*
X-26972Y-1125547D01*
X-25285Y-1125631D01*
X-23767Y-1125715D01*
X-22249Y-1125884D01*
X-20900Y-1126053D01*
X-19720Y-1126221D01*
X-18792Y-1126474D01*
X-18708D01*
X-18455Y-1126559D01*
X-18117Y-1126643D01*
X-17611Y-1126896D01*
X-17021Y-1127065D01*
X-16346Y-1127402D01*
X-14660Y-1128161D01*
X-12889Y-1129257D01*
X-11877Y-1129932D01*
X-10865Y-1130606D01*
X-9937Y-1131450D01*
X-8926Y-1132377D01*
X-7998Y-1133389D01*
X-7070Y-1134485D01*
X-6986Y-1134570D01*
X-6902Y-1134738D01*
X-6649Y-1135076D01*
X-6311Y-1135582D01*
X-5974Y-1136172D01*
X-5552Y-1136931D01*
X-5131Y-1137774D01*
X-4709Y-1138702D01*
X-4288Y-1139798D01*
X-3866Y-1140979D01*
X-3444Y-1142328D01*
X-3107Y-1143677D01*
X-2770Y-1145195D01*
X-2517Y-1146797D01*
X-2432Y-1148484D01*
X-2348Y-1150255D01*
Y-1150339D01*
Y-1150592D01*
Y-1151014D01*
Y-1151520D01*
X-2432Y-1152110D01*
X-2517Y-1152869D01*
X-2601Y-1153712D01*
X-2685Y-1154640D01*
X-3023Y-1156664D01*
X-3529Y-1158772D01*
X-4203Y-1160880D01*
X-5131Y-1162904D01*
Y-1162988D01*
X-5215Y-1163157D01*
X-5384Y-1163410D01*
X-5637Y-1163747D01*
X-6227Y-1164675D01*
X-6986Y-1165771D01*
X-7998Y-1167120D01*
X-9179Y-1168385D01*
X-10528Y-1169735D01*
X-12046Y-1170915D01*
X-12130D01*
X-12214Y-1170999D01*
X-12467Y-1171168D01*
X-12720Y-1171337D01*
X-13564Y-1171843D01*
X-14660Y-1172433D01*
X-15925Y-1173108D01*
X-17358Y-1173698D01*
X-18876Y-1174288D01*
X-20478Y-1174710D01*
X-20563D01*
X-20731Y-1174794D01*
X-21069D01*
X-21575Y-1174879D01*
X-22165Y-1174963D01*
X-22924Y-1175047D01*
X-23767Y-1175132D01*
X-24779Y-1175216D01*
X-25875Y-1175384D01*
X-27140Y-1175469D01*
X-28574Y-1175553D01*
X-30092Y-1175637D01*
X-31694Y-1175722D01*
X-33465D01*
X-35405Y-1175806D01*
X-48054D01*
Y-1206502D01*
X-64498D01*
Y-1125209D01*
X-34646D01*
X-33296Y-1125294D01*
D02*
G37*
G36*
X-196134D02*
X-195206D01*
X-194110Y-1125378D01*
X-192929D01*
X-190399Y-1125631D01*
X-187870Y-1125884D01*
X-185340Y-1126306D01*
X-184243Y-1126559D01*
X-183147Y-1126812D01*
X-183063D01*
X-182810Y-1126896D01*
X-182473Y-1127065D01*
X-181967Y-1127233D01*
X-181376Y-1127486D01*
X-180617Y-1127739D01*
X-179858Y-1128076D01*
X-178931Y-1128498D01*
X-177076Y-1129594D01*
X-175052Y-1130859D01*
X-172944Y-1132462D01*
X-171004Y-1134317D01*
X-170920Y-1134401D01*
X-170751Y-1134570D01*
X-170498Y-1134823D01*
X-170161Y-1135244D01*
X-169739Y-1135750D01*
X-169233Y-1136425D01*
X-168643Y-1137100D01*
X-168052Y-1137943D01*
X-167462Y-1138870D01*
X-166788Y-1139882D01*
X-165523Y-1142075D01*
X-164258Y-1144689D01*
X-163161Y-1147472D01*
Y-1147556D01*
X-163077Y-1147809D01*
X-162908Y-1148231D01*
X-162740Y-1148821D01*
X-162571Y-1149580D01*
X-162318Y-1150508D01*
X-162065Y-1151604D01*
X-161812Y-1152785D01*
X-161559Y-1154134D01*
X-161306Y-1155567D01*
X-161053Y-1157170D01*
X-160885Y-1158856D01*
X-160716Y-1160627D01*
X-160547Y-1162567D01*
X-160463Y-1164591D01*
Y-1166699D01*
Y-1166783D01*
Y-1167120D01*
Y-1167711D01*
Y-1168385D01*
X-160547Y-1169229D01*
X-160632Y-1170240D01*
Y-1171421D01*
X-160800Y-1172602D01*
X-160885Y-1173951D01*
X-161053Y-1175300D01*
X-161559Y-1178252D01*
X-162150Y-1181119D01*
X-162993Y-1183986D01*
Y-1184070D01*
X-163161Y-1184408D01*
X-163330Y-1184829D01*
X-163583Y-1185420D01*
X-163836Y-1186178D01*
X-164258Y-1187106D01*
X-164679Y-1188034D01*
X-165185Y-1189130D01*
X-166450Y-1191407D01*
X-167968Y-1193768D01*
X-169655Y-1196129D01*
X-171679Y-1198322D01*
X-171763Y-1198406D01*
X-171847Y-1198490D01*
X-172100Y-1198743D01*
X-172438Y-1198996D01*
X-172859Y-1199334D01*
X-173449Y-1199755D01*
X-174040Y-1200177D01*
X-174714Y-1200683D01*
X-175558Y-1201189D01*
X-176401Y-1201695D01*
X-178341Y-1202791D01*
X-180617Y-1203887D01*
X-183232Y-1204815D01*
X-183316D01*
X-183485Y-1204899D01*
X-183822Y-1204984D01*
X-184243Y-1205068D01*
X-184749Y-1205237D01*
X-185424Y-1205321D01*
X-186183Y-1205490D01*
X-187026Y-1205658D01*
X-188038Y-1205827D01*
X-189134Y-1205996D01*
X-190315Y-1206080D01*
X-191664Y-1206249D01*
X-193014Y-1206333D01*
X-194531Y-1206417D01*
X-196049Y-1206502D01*
X-228600D01*
Y-1125209D01*
X-196977D01*
X-196134Y-1125294D01*
D02*
G37*
G36*
X284873Y-1146376D02*
X285801Y-1146460D01*
X286981Y-1146544D01*
X288246Y-1146713D01*
X289764Y-1147050D01*
X291366Y-1147388D01*
X293053Y-1147809D01*
X294824Y-1148400D01*
X296595Y-1149074D01*
X298450Y-1149917D01*
X300305Y-1150929D01*
X302076Y-1152110D01*
X303763Y-1153459D01*
X305449Y-1154977D01*
X305534Y-1155061D01*
X305787Y-1155399D01*
X306208Y-1155905D01*
X306798Y-1156579D01*
X307473Y-1157423D01*
X308148Y-1158435D01*
X308991Y-1159615D01*
X309750Y-1160964D01*
X310593Y-1162482D01*
X311352Y-1164169D01*
X312027Y-1165940D01*
X312701Y-1167964D01*
X313292Y-1169988D01*
X313713Y-1172180D01*
X313966Y-1174541D01*
X314051Y-1176987D01*
Y-1177155D01*
Y-1177577D01*
X313966Y-1178252D01*
X313882Y-1179179D01*
X313798Y-1180360D01*
X313629Y-1181625D01*
X313292Y-1183143D01*
X312954Y-1184745D01*
X312533Y-1186431D01*
X311942Y-1188202D01*
X311268Y-1190058D01*
X310425Y-1191913D01*
X309413Y-1193768D01*
X308232Y-1195623D01*
X306883Y-1197394D01*
X305365Y-1199081D01*
X305281Y-1199165D01*
X304943Y-1199418D01*
X304522Y-1199924D01*
X303847Y-1200430D01*
X303004Y-1201105D01*
X301992Y-1201863D01*
X300811Y-1202622D01*
X299462Y-1203466D01*
X297944Y-1204309D01*
X296342Y-1205068D01*
X294571Y-1205827D01*
X292631Y-1206502D01*
X290607Y-1207007D01*
X288415Y-1207429D01*
X286138Y-1207766D01*
X283777Y-1207851D01*
X283018D01*
X282428Y-1207766D01*
X281669D01*
X280825Y-1207682D01*
X279898Y-1207513D01*
X278802Y-1207429D01*
X277705Y-1207176D01*
X276440Y-1206923D01*
X273826Y-1206333D01*
X271128Y-1205405D01*
X269694Y-1204899D01*
X268345Y-1204225D01*
X268261Y-1204140D01*
X268008Y-1204056D01*
X267670Y-1203803D01*
X267164Y-1203550D01*
X266490Y-1203128D01*
X265815Y-1202707D01*
X264213Y-1201526D01*
X262442Y-1200008D01*
X260587Y-1198153D01*
X258816Y-1196045D01*
X257214Y-1193515D01*
Y-1193431D01*
X257045Y-1193178D01*
X256876Y-1192756D01*
X256623Y-1192250D01*
X256370Y-1191575D01*
X256033Y-1190732D01*
X255696Y-1189805D01*
X255358Y-1188708D01*
X254937Y-1187528D01*
X254599Y-1186178D01*
X254262Y-1184745D01*
X254009Y-1183227D01*
X253756Y-1181625D01*
X253588Y-1179938D01*
X253503Y-1178167D01*
X253419Y-1176312D01*
Y-1176228D01*
Y-1175975D01*
Y-1175553D01*
X253503Y-1174963D01*
Y-1174288D01*
X253588Y-1173445D01*
X253756Y-1172517D01*
X253925Y-1171505D01*
X254093Y-1170409D01*
X254346Y-1169229D01*
X255021Y-1166699D01*
X255949Y-1164000D01*
X256539Y-1162651D01*
X257214Y-1161302D01*
X257298Y-1161217D01*
X257382Y-1160964D01*
X257635Y-1160627D01*
X257888Y-1160121D01*
X258310Y-1159446D01*
X258816Y-1158772D01*
X259996Y-1157170D01*
X261514Y-1155399D01*
X263370Y-1153544D01*
X265562Y-1151773D01*
X268008Y-1150170D01*
X268092Y-1150086D01*
X268345Y-1150002D01*
X268682Y-1149833D01*
X269273Y-1149580D01*
X269863Y-1149243D01*
X270706Y-1148905D01*
X271549Y-1148568D01*
X272561Y-1148231D01*
X273658Y-1147894D01*
X274922Y-1147556D01*
X276187Y-1147219D01*
X277537Y-1146882D01*
X280488Y-1146460D01*
X282006Y-1146291D01*
X284199D01*
X284873Y-1146376D01*
D02*
G37*
G36*
X235541Y-1147556D02*
X246167D01*
Y-1159952D01*
X235541D01*
Y-1183817D01*
Y-1183902D01*
Y-1184155D01*
Y-1184492D01*
Y-1184998D01*
Y-1185504D01*
Y-1186178D01*
Y-1187612D01*
X235626Y-1189046D01*
Y-1190395D01*
X235710Y-1191070D01*
Y-1191575D01*
X235794Y-1191997D01*
Y-1192250D01*
Y-1192334D01*
X235879Y-1192419D01*
X236132Y-1192925D01*
X236469Y-1193599D01*
X237144Y-1194190D01*
X237228D01*
X237312Y-1194274D01*
X237565Y-1194443D01*
X237902Y-1194527D01*
X238746Y-1194864D01*
X239842Y-1194949D01*
X240264D01*
X240770Y-1194864D01*
X241444Y-1194780D01*
X242288Y-1194611D01*
X243384Y-1194358D01*
X244649Y-1194021D01*
X246082Y-1193515D01*
X247432Y-1205574D01*
X247347D01*
X247179Y-1205658D01*
X246841Y-1205743D01*
X246504Y-1205911D01*
X245914Y-1206080D01*
X245323Y-1206333D01*
X244649Y-1206502D01*
X243805Y-1206670D01*
X242035Y-1207092D01*
X239926Y-1207513D01*
X237650Y-1207766D01*
X235120Y-1207851D01*
X234445D01*
X233602Y-1207766D01*
X232590Y-1207682D01*
X231409Y-1207513D01*
X230144Y-1207260D01*
X228795Y-1206923D01*
X227530Y-1206502D01*
X227361Y-1206417D01*
X226940Y-1206249D01*
X226350Y-1205911D01*
X225675Y-1205490D01*
X224832Y-1204984D01*
X223988Y-1204393D01*
X223229Y-1203634D01*
X222555Y-1202875D01*
X222470Y-1202791D01*
X222302Y-1202454D01*
X222049Y-1201948D01*
X221712Y-1201273D01*
X221374Y-1200346D01*
X220953Y-1199334D01*
X220615Y-1198069D01*
X220362Y-1196719D01*
Y-1196551D01*
X220278Y-1196129D01*
Y-1195876D01*
X220194Y-1195455D01*
Y-1194949D01*
Y-1194358D01*
X220109Y-1193684D01*
Y-1192840D01*
X220025Y-1191997D01*
Y-1190985D01*
X219941Y-1189805D01*
Y-1188624D01*
Y-1187275D01*
Y-1185757D01*
Y-1159952D01*
X212773D01*
Y-1147556D01*
X219941D01*
Y-1135835D01*
X235541Y-1126727D01*
Y-1147556D01*
D02*
G37*
G36*
X210074Y-1224194D02*
X210749D01*
X211592Y-1224278D01*
X212520Y-1224362D01*
X214459Y-1224615D01*
X216736Y-1224953D01*
X219097Y-1225459D01*
X221459Y-1226133D01*
X219435Y-1236927D01*
X219266Y-1236843D01*
X218760Y-1236759D01*
X218085Y-1236590D01*
X217073Y-1236421D01*
X215977Y-1236253D01*
X214797Y-1236168D01*
X213447Y-1236000D01*
X211592D01*
X211002Y-1236084D01*
X210243Y-1236168D01*
X209484Y-1236421D01*
X208641Y-1236674D01*
X207882Y-1237096D01*
X207207Y-1237602D01*
X207123Y-1237686D01*
X206954Y-1237939D01*
X206785Y-1238361D01*
X206532Y-1238951D01*
X206195Y-1239794D01*
X206027Y-1240806D01*
X205858Y-1242156D01*
X205774Y-1243673D01*
Y-1247805D01*
X217411D01*
Y-1260033D01*
X205774D01*
Y-1306751D01*
X190173D01*
Y-1260033D01*
X181487D01*
Y-1247805D01*
X190173D01*
Y-1243420D01*
Y-1243336D01*
Y-1243083D01*
Y-1242746D01*
Y-1242240D01*
X190257Y-1241565D01*
Y-1240891D01*
X190342Y-1239288D01*
X190510Y-1237433D01*
X190847Y-1235662D01*
X191185Y-1233891D01*
X191438Y-1233132D01*
X191691Y-1232373D01*
Y-1232289D01*
X191775Y-1232205D01*
X192028Y-1231783D01*
X192450Y-1231109D01*
X193040Y-1230265D01*
X193799Y-1229338D01*
X194811Y-1228326D01*
X196076Y-1227398D01*
X197509Y-1226470D01*
X197594D01*
X197678Y-1226386D01*
X197931Y-1226218D01*
X198268Y-1226133D01*
X198690Y-1225880D01*
X199196Y-1225712D01*
X200461Y-1225290D01*
X202063Y-1224868D01*
X203918Y-1224447D01*
X205942Y-1224194D01*
X208303Y-1224109D01*
X209484D01*
X210074Y-1224194D01*
D02*
G37*
G36*
X77679Y-1239879D02*
X62079D01*
Y-1225459D01*
X77679D01*
Y-1239879D01*
D02*
G37*
G36*
X323495Y-1246625D02*
X323917D01*
X324507Y-1246709D01*
X325857Y-1246878D01*
X327459Y-1247300D01*
X329145Y-1247805D01*
X331001Y-1248480D01*
X332856Y-1249492D01*
X327965Y-1263153D01*
X327796Y-1263069D01*
X327290Y-1262732D01*
X326531Y-1262310D01*
X325604Y-1261804D01*
X324507Y-1261382D01*
X323242Y-1260961D01*
X321978Y-1260623D01*
X320713Y-1260539D01*
X320207D01*
X319532Y-1260623D01*
X318773Y-1260792D01*
X317930Y-1260961D01*
X317002Y-1261298D01*
X316075Y-1261804D01*
X315147Y-1262394D01*
X315063Y-1262479D01*
X314810Y-1262732D01*
X314388Y-1263238D01*
X313882Y-1263828D01*
X313292Y-1264755D01*
X312701Y-1265852D01*
X312111Y-1267285D01*
X311605Y-1268887D01*
Y-1268972D01*
X311521Y-1269140D01*
Y-1269393D01*
X311437Y-1269815D01*
X311352Y-1270405D01*
X311184Y-1271164D01*
X311099Y-1272092D01*
X311015Y-1273104D01*
X310846Y-1274369D01*
X310762Y-1275802D01*
X310678Y-1277405D01*
X310509Y-1279175D01*
X310425Y-1281199D01*
Y-1283476D01*
X310340Y-1285922D01*
Y-1288620D01*
Y-1306751D01*
X294740D01*
Y-1247805D01*
X309244D01*
Y-1256238D01*
X309328Y-1256154D01*
X309413Y-1255985D01*
X309581Y-1255648D01*
X309834Y-1255311D01*
X310509Y-1254214D01*
X311437Y-1253034D01*
X312448Y-1251685D01*
X313545Y-1250420D01*
X314725Y-1249239D01*
X315231Y-1248817D01*
X315822Y-1248396D01*
X315990Y-1248311D01*
X316328Y-1248143D01*
X317002Y-1247805D01*
X317845Y-1247468D01*
X318773Y-1247131D01*
X319954Y-1246794D01*
X321219Y-1246625D01*
X322568Y-1246541D01*
X323074D01*
X323495Y-1246625D01*
D02*
G37*
G36*
X-135586D02*
X-134574D01*
X-133394Y-1246709D01*
X-132129Y-1246878D01*
X-130780Y-1247047D01*
X-127828Y-1247468D01*
X-124877Y-1248227D01*
X-123443Y-1248649D01*
X-122094Y-1249155D01*
X-120829Y-1249829D01*
X-119648Y-1250504D01*
X-119564Y-1250588D01*
X-119395Y-1250673D01*
X-119058Y-1250926D01*
X-118721Y-1251263D01*
X-118215Y-1251685D01*
X-117624Y-1252191D01*
X-117034Y-1252781D01*
X-116444Y-1253455D01*
X-115769Y-1254214D01*
X-115095Y-1255058D01*
X-114336Y-1256070D01*
X-113745Y-1257082D01*
X-113071Y-1258178D01*
X-112480Y-1259443D01*
X-111974Y-1260708D01*
X-111468Y-1262141D01*
X-126141Y-1264840D01*
X-126226Y-1264671D01*
X-126310Y-1264249D01*
X-126563Y-1263659D01*
X-126985Y-1262900D01*
X-127491Y-1262057D01*
X-128081Y-1261214D01*
X-128840Y-1260370D01*
X-129768Y-1259611D01*
X-129852Y-1259527D01*
X-130274Y-1259358D01*
X-130864Y-1259021D01*
X-131707Y-1258684D01*
X-132719Y-1258346D01*
X-133984Y-1258009D01*
X-135502Y-1257841D01*
X-137188Y-1257756D01*
X-138200D01*
X-138706Y-1257841D01*
X-139297D01*
X-140562Y-1258009D01*
X-142079Y-1258178D01*
X-143513Y-1258515D01*
X-144862Y-1258937D01*
X-146043Y-1259527D01*
X-146127Y-1259611D01*
X-146296Y-1259780D01*
X-146549Y-1260033D01*
X-146886Y-1260370D01*
X-147223Y-1260792D01*
X-147476Y-1261298D01*
X-147645Y-1261973D01*
X-147729Y-1262647D01*
Y-1262732D01*
Y-1262900D01*
X-147645Y-1263238D01*
X-147561Y-1263659D01*
X-147392Y-1264081D01*
X-147055Y-1264587D01*
X-146718Y-1265008D01*
X-146212Y-1265514D01*
X-146127Y-1265599D01*
X-145959Y-1265683D01*
X-145706Y-1265767D01*
X-145368Y-1265936D01*
X-144862Y-1266105D01*
X-144272Y-1266358D01*
X-143597Y-1266611D01*
X-142754Y-1266948D01*
X-141742Y-1267285D01*
X-140562Y-1267623D01*
X-139212Y-1267960D01*
X-137610Y-1268466D01*
X-135924Y-1268887D01*
X-133900Y-1269393D01*
X-131707Y-1269899D01*
X-131538D01*
X-131201Y-1270068D01*
X-130527Y-1270152D01*
X-129683Y-1270405D01*
X-128671Y-1270658D01*
X-127491Y-1270996D01*
X-126226Y-1271417D01*
X-124877Y-1271839D01*
X-122009Y-1272851D01*
X-119142Y-1274031D01*
X-117793Y-1274706D01*
X-116528Y-1275381D01*
X-115347Y-1276055D01*
X-114336Y-1276814D01*
X-114251Y-1276899D01*
X-114083Y-1276983D01*
X-113914Y-1277236D01*
X-113577Y-1277573D01*
X-113239Y-1277995D01*
X-112818Y-1278501D01*
X-112312Y-1279091D01*
X-111890Y-1279850D01*
X-111468Y-1280609D01*
X-110962Y-1281452D01*
X-110541Y-1282464D01*
X-110203Y-1283476D01*
X-109866Y-1284572D01*
X-109613Y-1285753D01*
X-109529Y-1287102D01*
X-109445Y-1288452D01*
Y-1288536D01*
Y-1288789D01*
X-109529Y-1289211D01*
Y-1289801D01*
X-109613Y-1290475D01*
X-109782Y-1291319D01*
X-110035Y-1292162D01*
X-110288Y-1293174D01*
X-110625Y-1294270D01*
X-111131Y-1295366D01*
X-111637Y-1296463D01*
X-112312Y-1297643D01*
X-113071Y-1298824D01*
X-113998Y-1300005D01*
X-115095Y-1301185D01*
X-116275Y-1302281D01*
X-116359Y-1302366D01*
X-116612Y-1302534D01*
X-116950Y-1302787D01*
X-117540Y-1303209D01*
X-118215Y-1303631D01*
X-119142Y-1304137D01*
X-120154Y-1304643D01*
X-121335Y-1305149D01*
X-122600Y-1305739D01*
X-124118Y-1306245D01*
X-125720Y-1306751D01*
X-127575Y-1307172D01*
X-129515Y-1307594D01*
X-131623Y-1307847D01*
X-133815Y-1308016D01*
X-136261Y-1308100D01*
X-137441D01*
X-138285Y-1308016D01*
X-139297Y-1307931D01*
X-140477Y-1307847D01*
X-141742Y-1307678D01*
X-143176Y-1307510D01*
X-146212Y-1306919D01*
X-147814Y-1306498D01*
X-149416Y-1306076D01*
X-150934Y-1305486D01*
X-152452Y-1304896D01*
X-153970Y-1304137D01*
X-155319Y-1303293D01*
X-155403Y-1303209D01*
X-155656Y-1303040D01*
X-155994Y-1302787D01*
X-156415Y-1302450D01*
X-157006Y-1301944D01*
X-157680Y-1301354D01*
X-158355Y-1300595D01*
X-159114Y-1299836D01*
X-159873Y-1298993D01*
X-160632Y-1297981D01*
X-161391Y-1296884D01*
X-162150Y-1295704D01*
X-162824Y-1294439D01*
X-163414Y-1293090D01*
X-164005Y-1291656D01*
X-164426Y-1290138D01*
X-148826Y-1287777D01*
Y-1287861D01*
X-148741Y-1287946D01*
Y-1288199D01*
X-148657Y-1288536D01*
X-148404Y-1289295D01*
X-147982Y-1290307D01*
X-147476Y-1291403D01*
X-146718Y-1292584D01*
X-145874Y-1293680D01*
X-144862Y-1294608D01*
X-144694Y-1294692D01*
X-144272Y-1294945D01*
X-143597Y-1295366D01*
X-142585Y-1295704D01*
X-141405Y-1296125D01*
X-139887Y-1296547D01*
X-138200Y-1296800D01*
X-136261Y-1296884D01*
X-135249D01*
X-134743Y-1296800D01*
X-134153D01*
X-132803Y-1296631D01*
X-131370Y-1296378D01*
X-129852Y-1295957D01*
X-128418Y-1295451D01*
X-127153Y-1294692D01*
X-127069Y-1294608D01*
X-126816Y-1294439D01*
X-126479Y-1294102D01*
X-126057Y-1293596D01*
X-125720Y-1293005D01*
X-125383Y-1292331D01*
X-125130Y-1291487D01*
X-125045Y-1290560D01*
Y-1290475D01*
Y-1290222D01*
X-125130Y-1289969D01*
X-125214Y-1289548D01*
X-125551Y-1288536D01*
X-125804Y-1288030D01*
X-126226Y-1287608D01*
X-126310Y-1287524D01*
X-126479Y-1287440D01*
X-126816Y-1287187D01*
X-127238Y-1286934D01*
X-127997Y-1286596D01*
X-128840Y-1286259D01*
X-130021Y-1285922D01*
X-131370Y-1285584D01*
X-131454D01*
X-131538Y-1285500D01*
X-131876D01*
X-132213Y-1285416D01*
X-132635Y-1285331D01*
X-133141Y-1285163D01*
X-134406Y-1284910D01*
X-135924Y-1284488D01*
X-137610Y-1284067D01*
X-139465Y-1283561D01*
X-141405Y-1283055D01*
X-145537Y-1281874D01*
X-147561Y-1281199D01*
X-149416Y-1280525D01*
X-151187Y-1279934D01*
X-152873Y-1279260D01*
X-154223Y-1278585D01*
X-155319Y-1277911D01*
X-155403Y-1277826D01*
X-155572Y-1277658D01*
X-155994Y-1277405D01*
X-156415Y-1277067D01*
X-156921Y-1276561D01*
X-157511Y-1275971D01*
X-158102Y-1275296D01*
X-158776Y-1274453D01*
X-159451Y-1273610D01*
X-160041Y-1272598D01*
X-160632Y-1271502D01*
X-161138Y-1270321D01*
X-161559Y-1269056D01*
X-161897Y-1267707D01*
X-162150Y-1266189D01*
X-162234Y-1264671D01*
Y-1264587D01*
Y-1264334D01*
Y-1263912D01*
X-162150Y-1263406D01*
X-162065Y-1262732D01*
X-161897Y-1261973D01*
X-161728Y-1261129D01*
X-161475Y-1260202D01*
X-161138Y-1259190D01*
X-160800Y-1258178D01*
X-160294Y-1257082D01*
X-159704Y-1255985D01*
X-159029Y-1254889D01*
X-158186Y-1253793D01*
X-157259Y-1252781D01*
X-156247Y-1251769D01*
X-156162Y-1251685D01*
X-155994Y-1251516D01*
X-155572Y-1251263D01*
X-155066Y-1250926D01*
X-154476Y-1250588D01*
X-153632Y-1250082D01*
X-152705Y-1249661D01*
X-151609Y-1249155D01*
X-150428Y-1248649D01*
X-148994Y-1248227D01*
X-147476Y-1247721D01*
X-145790Y-1247384D01*
X-143935Y-1247047D01*
X-141995Y-1246794D01*
X-139803Y-1246625D01*
X-137526Y-1246541D01*
X-136345D01*
X-135586Y-1246625D01*
D02*
G37*
G36*
X511547Y-1306750D02*
X495103Y-1306751D01*
X462215Y-1253371D01*
Y-1306751D01*
X447036D01*
Y-1225459D01*
X462890D01*
X496368Y-1280019D01*
Y-1225459D01*
X511547Y-1225458D01*
Y-1306750D01*
D02*
G37*
G36*
X29022Y-1306751D02*
X15024D01*
X-8673Y-1247805D01*
X7687D01*
X18734Y-1277911D01*
X21938Y-1287946D01*
Y-1287861D01*
X22023Y-1287777D01*
X22107Y-1287355D01*
X22360Y-1286681D01*
X22613Y-1285922D01*
X22866Y-1285078D01*
X23119Y-1284235D01*
X23372Y-1283476D01*
X23541Y-1282886D01*
Y-1282802D01*
X23709Y-1282464D01*
X23794Y-1281958D01*
X24047Y-1281368D01*
X24300Y-1280609D01*
X24553Y-1279766D01*
X25227Y-1277911D01*
X36359Y-1247805D01*
X52381D01*
X29022Y-1306751D01*
D02*
G37*
G36*
X-175136D02*
X-189640D01*
Y-1298065D01*
X-189809Y-1298149D01*
X-189978Y-1298402D01*
X-190231Y-1298740D01*
X-190990Y-1299583D01*
X-191917Y-1300679D01*
X-193182Y-1301860D01*
X-194616Y-1303125D01*
X-196302Y-1304305D01*
X-198158Y-1305402D01*
X-198242D01*
X-198411Y-1305486D01*
X-198664Y-1305654D01*
X-199085Y-1305823D01*
X-199507Y-1305992D01*
X-200097Y-1306245D01*
X-201446Y-1306751D01*
X-203133Y-1307257D01*
X-204988Y-1307678D01*
X-207012Y-1308016D01*
X-209120Y-1308100D01*
X-209711D01*
X-210132Y-1308016D01*
X-210638D01*
X-211228Y-1307931D01*
X-212662Y-1307763D01*
X-214264Y-1307510D01*
X-216119Y-1307004D01*
X-217890Y-1306413D01*
X-219746Y-1305570D01*
X-219830D01*
X-219914Y-1305486D01*
X-220167Y-1305317D01*
X-220505Y-1305064D01*
X-221348Y-1304474D01*
X-222360Y-1303631D01*
X-223456Y-1302619D01*
X-224637Y-1301354D01*
X-225649Y-1299920D01*
X-226576Y-1298234D01*
Y-1298149D01*
X-226660Y-1297981D01*
X-226745Y-1297728D01*
X-226913Y-1297390D01*
X-227082Y-1296884D01*
X-227251Y-1296294D01*
X-227419Y-1295619D01*
X-227588Y-1294861D01*
X-227757Y-1293933D01*
X-227925Y-1293005D01*
X-228094Y-1291909D01*
X-228263Y-1290728D01*
X-228431Y-1289464D01*
X-228516Y-1288114D01*
X-228600Y-1286681D01*
Y-1285163D01*
Y-1247805D01*
X-212999D01*
Y-1274959D01*
Y-1275128D01*
Y-1275465D01*
Y-1276140D01*
Y-1276899D01*
Y-1277911D01*
X-212915Y-1279007D01*
Y-1280272D01*
Y-1281537D01*
X-212831Y-1284151D01*
X-212746Y-1285416D01*
X-212662Y-1286596D01*
X-212578Y-1287777D01*
X-212409Y-1288705D01*
X-212325Y-1289548D01*
X-212156Y-1290222D01*
X-212072Y-1290307D01*
X-211987Y-1290644D01*
X-211734Y-1291150D01*
X-211481Y-1291825D01*
X-211060Y-1292499D01*
X-210554Y-1293258D01*
X-209879Y-1293933D01*
X-209120Y-1294608D01*
X-209036Y-1294692D01*
X-208699Y-1294861D01*
X-208193Y-1295113D01*
X-207518Y-1295366D01*
X-206675Y-1295704D01*
X-205663Y-1295957D01*
X-204567Y-1296125D01*
X-203302Y-1296210D01*
X-202627D01*
X-201868Y-1296125D01*
X-200940Y-1295957D01*
X-199844Y-1295704D01*
X-198664Y-1295282D01*
X-197399Y-1294776D01*
X-196218Y-1294017D01*
X-196049Y-1293933D01*
X-195712Y-1293596D01*
X-195206Y-1293174D01*
X-194531Y-1292499D01*
X-193773Y-1291740D01*
X-193098Y-1290813D01*
X-192423Y-1289801D01*
X-191917Y-1288620D01*
Y-1288536D01*
X-191833Y-1288452D01*
Y-1288199D01*
X-191749Y-1287946D01*
X-191664Y-1287440D01*
X-191580Y-1286934D01*
X-191411Y-1286259D01*
X-191327Y-1285416D01*
X-191243Y-1284404D01*
X-191074Y-1283308D01*
X-190990Y-1281958D01*
X-190905Y-1280525D01*
X-190821Y-1278838D01*
Y-1276983D01*
X-190737Y-1274959D01*
Y-1272682D01*
Y-1247805D01*
X-175136D01*
Y-1306751D01*
D02*
G37*
G36*
X431520Y-1239204D02*
X387753D01*
Y-1257250D01*
X428484D01*
Y-1270996D01*
X387753D01*
Y-1293005D01*
X433037D01*
Y-1306751D01*
X371309D01*
Y-1225459D01*
X431520D01*
Y-1239204D01*
D02*
G37*
G36*
X119253Y-1246625D02*
X120181Y-1246709D01*
X121277D01*
X122542Y-1246878D01*
X124987Y-1247131D01*
X127601Y-1247637D01*
X130047Y-1248227D01*
X131143Y-1248649D01*
X132155Y-1249070D01*
X132240D01*
X132408Y-1249155D01*
X132661Y-1249323D01*
X132998Y-1249492D01*
X133926Y-1250082D01*
X135022Y-1250757D01*
X136203Y-1251685D01*
X137384Y-1252697D01*
X138480Y-1253961D01*
X139407Y-1255311D01*
Y-1255395D01*
X139492Y-1255479D01*
X139576Y-1255732D01*
X139745Y-1256070D01*
X139913Y-1256491D01*
X140082Y-1257082D01*
X140251Y-1257672D01*
X140504Y-1258431D01*
X140672Y-1259358D01*
X140841Y-1260370D01*
X141010Y-1261551D01*
X141178Y-1262816D01*
X141347Y-1264165D01*
X141431Y-1265683D01*
X141516Y-1267370D01*
Y-1269225D01*
X141263Y-1287440D01*
Y-1287524D01*
Y-1287777D01*
Y-1288199D01*
Y-1288705D01*
Y-1289379D01*
Y-1290054D01*
X141347Y-1291740D01*
X141431Y-1293680D01*
X141516Y-1295535D01*
X141684Y-1297306D01*
X141853Y-1298149D01*
X141937Y-1298908D01*
Y-1299077D01*
X142106Y-1299583D01*
X142275Y-1300257D01*
X142612Y-1301269D01*
X142949Y-1302450D01*
X143455Y-1303799D01*
X144045Y-1305233D01*
X144804Y-1306751D01*
X129372D01*
Y-1306666D01*
X129288Y-1306498D01*
X129119Y-1306076D01*
X128951Y-1305570D01*
X128698Y-1304980D01*
X128445Y-1304221D01*
X128192Y-1303293D01*
X127854Y-1302197D01*
Y-1302113D01*
X127770Y-1301944D01*
X127601Y-1301438D01*
X127433Y-1300848D01*
X127264Y-1300342D01*
X127180D01*
X127096Y-1300510D01*
X126590Y-1301016D01*
X125746Y-1301691D01*
X124734Y-1302534D01*
X123469Y-1303462D01*
X122036Y-1304390D01*
X120434Y-1305317D01*
X118747Y-1306160D01*
X118663D01*
X118578Y-1306245D01*
X118325Y-1306329D01*
X117988Y-1306498D01*
X117060Y-1306751D01*
X115796Y-1307088D01*
X114362Y-1307510D01*
X112760Y-1307763D01*
X110905Y-1308016D01*
X109049Y-1308100D01*
X108206D01*
X107531Y-1308016D01*
X106772Y-1307931D01*
X105929Y-1307847D01*
X104917Y-1307678D01*
X103821Y-1307510D01*
X101544Y-1306919D01*
X100364Y-1306498D01*
X99183Y-1305992D01*
X98002Y-1305486D01*
X96822Y-1304811D01*
X95725Y-1304052D01*
X94714Y-1303209D01*
X94629Y-1303125D01*
X94461Y-1302956D01*
X94208Y-1302703D01*
X93870Y-1302366D01*
X93533Y-1301860D01*
X93027Y-1301269D01*
X92605Y-1300595D01*
X92099Y-1299836D01*
X91593Y-1298993D01*
X91172Y-1298065D01*
X90328Y-1295872D01*
X89991Y-1294776D01*
X89738Y-1293511D01*
X89570Y-1292162D01*
X89485Y-1290813D01*
Y-1290728D01*
Y-1290560D01*
Y-1290307D01*
Y-1289969D01*
X89654Y-1289042D01*
X89823Y-1287861D01*
X90076Y-1286428D01*
X90497Y-1284994D01*
X91087Y-1283476D01*
X91846Y-1281958D01*
Y-1281874D01*
X91931Y-1281790D01*
X92268Y-1281284D01*
X92858Y-1280609D01*
X93533Y-1279681D01*
X94545Y-1278754D01*
X95641Y-1277742D01*
X96990Y-1276814D01*
X98508Y-1275971D01*
X98593D01*
X98677Y-1275887D01*
X98930Y-1275802D01*
X99352Y-1275634D01*
X99773Y-1275465D01*
X100279Y-1275212D01*
X100954Y-1274959D01*
X101713Y-1274706D01*
X102556Y-1274453D01*
X103484Y-1274116D01*
X104496Y-1273863D01*
X105592Y-1273526D01*
X106772Y-1273273D01*
X108122Y-1272935D01*
X109471Y-1272598D01*
X110989Y-1272345D01*
X111073D01*
X111495Y-1272261D01*
X112001Y-1272176D01*
X112760Y-1272008D01*
X113687Y-1271839D01*
X114699Y-1271586D01*
X115796Y-1271333D01*
X116976Y-1271080D01*
X119506Y-1270490D01*
X121951Y-1269815D01*
X123132Y-1269478D01*
X124313Y-1269140D01*
X125325Y-1268803D01*
X126168Y-1268466D01*
Y-1266948D01*
Y-1266864D01*
Y-1266779D01*
Y-1266526D01*
Y-1266189D01*
X126084Y-1265430D01*
X125915Y-1264418D01*
X125578Y-1263322D01*
X125240Y-1262310D01*
X124650Y-1261298D01*
X123891Y-1260455D01*
X123807Y-1260370D01*
X123469Y-1260117D01*
X122879Y-1259780D01*
X121951Y-1259443D01*
X120855Y-1259105D01*
X119337Y-1258768D01*
X118494Y-1258599D01*
X117566Y-1258515D01*
X116555Y-1258431D01*
X114784D01*
X114025Y-1258515D01*
X113097Y-1258599D01*
X112001Y-1258852D01*
X110905Y-1259105D01*
X109808Y-1259527D01*
X108881Y-1260117D01*
X108796Y-1260202D01*
X108459Y-1260455D01*
X108037Y-1260876D01*
X107531Y-1261467D01*
X106941Y-1262310D01*
X106266Y-1263322D01*
X105676Y-1264502D01*
X105086Y-1265936D01*
X91087Y-1263406D01*
Y-1263322D01*
X91172Y-1263069D01*
X91340Y-1262563D01*
X91509Y-1261973D01*
X91846Y-1261298D01*
X92184Y-1260455D01*
X92521Y-1259611D01*
X93027Y-1258599D01*
X94123Y-1256576D01*
X95557Y-1254467D01*
X97243Y-1252444D01*
X98255Y-1251600D01*
X99267Y-1250757D01*
X99352Y-1250673D01*
X99520Y-1250588D01*
X99858Y-1250335D01*
X100364Y-1250082D01*
X100954Y-1249745D01*
X101713Y-1249408D01*
X102640Y-1249070D01*
X103652Y-1248649D01*
X104749Y-1248227D01*
X106098Y-1247890D01*
X107531Y-1247552D01*
X109049Y-1247215D01*
X110736Y-1246962D01*
X112591Y-1246709D01*
X114531Y-1246625D01*
X116639Y-1246541D01*
X118325D01*
X119253Y-1246625D01*
D02*
G37*
G36*
X77679Y-1306751D02*
X62079D01*
Y-1247805D01*
X77679D01*
Y-1306751D01*
D02*
G37*
G36*
X253925Y-1246625D02*
X254852Y-1246709D01*
X256033Y-1246794D01*
X257298Y-1246962D01*
X258816Y-1247300D01*
X260418Y-1247637D01*
X262105Y-1248058D01*
X263876Y-1248649D01*
X265646Y-1249323D01*
X267502Y-1250167D01*
X269357Y-1251179D01*
X271128Y-1252359D01*
X272814Y-1253708D01*
X274501Y-1255226D01*
X274585Y-1255311D01*
X274838Y-1255648D01*
X275260Y-1256154D01*
X275850Y-1256829D01*
X276525Y-1257672D01*
X277199Y-1258684D01*
X278043Y-1259864D01*
X278802Y-1261214D01*
X279645Y-1262732D01*
X280404Y-1264418D01*
X281078Y-1266189D01*
X281753Y-1268213D01*
X282343Y-1270237D01*
X282765Y-1272429D01*
X283018Y-1274790D01*
X283102Y-1277236D01*
Y-1277405D01*
Y-1277826D01*
X283018Y-1278501D01*
X282934Y-1279428D01*
X282849Y-1280609D01*
X282681Y-1281874D01*
X282343Y-1283392D01*
X282006Y-1284994D01*
X281584Y-1286681D01*
X280994Y-1288452D01*
X280319Y-1290307D01*
X279476Y-1292162D01*
X278464Y-1294017D01*
X277284Y-1295872D01*
X275934Y-1297643D01*
X274417Y-1299330D01*
X274332Y-1299414D01*
X273995Y-1299667D01*
X273573Y-1300173D01*
X272899Y-1300679D01*
X272055Y-1301354D01*
X271043Y-1302113D01*
X269863Y-1302872D01*
X268514Y-1303715D01*
X266996Y-1304558D01*
X265393Y-1305317D01*
X263623Y-1306076D01*
X261683Y-1306751D01*
X259659Y-1307257D01*
X257467Y-1307678D01*
X255190Y-1308016D01*
X252829Y-1308100D01*
X252070D01*
X251479Y-1308016D01*
X250720D01*
X249877Y-1307931D01*
X248949Y-1307763D01*
X247853Y-1307678D01*
X246757Y-1307425D01*
X245492Y-1307172D01*
X242878Y-1306582D01*
X240179Y-1305654D01*
X238746Y-1305149D01*
X237397Y-1304474D01*
X237312Y-1304390D01*
X237059Y-1304305D01*
X236722Y-1304052D01*
X236216Y-1303799D01*
X235541Y-1303378D01*
X234867Y-1302956D01*
X233264Y-1301775D01*
X231494Y-1300257D01*
X229638Y-1298402D01*
X227867Y-1296294D01*
X226265Y-1293764D01*
Y-1293680D01*
X226097Y-1293427D01*
X225928Y-1293005D01*
X225675Y-1292499D01*
X225422Y-1291825D01*
X225085Y-1290981D01*
X224747Y-1290054D01*
X224410Y-1288958D01*
X223988Y-1287777D01*
X223651Y-1286428D01*
X223314Y-1284994D01*
X223061Y-1283476D01*
X222808Y-1281874D01*
X222639Y-1280187D01*
X222555Y-1278417D01*
X222470Y-1276561D01*
Y-1276477D01*
Y-1276224D01*
Y-1275802D01*
X222555Y-1275212D01*
Y-1274537D01*
X222639Y-1273694D01*
X222808Y-1272767D01*
X222976Y-1271755D01*
X223145Y-1270658D01*
X223398Y-1269478D01*
X224073Y-1266948D01*
X225000Y-1264249D01*
X225591Y-1262900D01*
X226265Y-1261551D01*
X226350Y-1261467D01*
X226434Y-1261214D01*
X226687Y-1260876D01*
X226940Y-1260370D01*
X227361Y-1259696D01*
X227867Y-1259021D01*
X229048Y-1257419D01*
X230566Y-1255648D01*
X232421Y-1253793D01*
X234614Y-1252022D01*
X237059Y-1250420D01*
X237144Y-1250335D01*
X237397Y-1250251D01*
X237734Y-1250082D01*
X238324Y-1249829D01*
X238914Y-1249492D01*
X239758Y-1249155D01*
X240601Y-1248817D01*
X241613Y-1248480D01*
X242709Y-1248143D01*
X243974Y-1247805D01*
X245239Y-1247468D01*
X246588Y-1247131D01*
X249540Y-1246709D01*
X251058Y-1246541D01*
X253250D01*
X253925Y-1246625D01*
D02*
G37*
G36*
X-72087D02*
X-71160Y-1246709D01*
X-70063Y-1246794D01*
X-68798Y-1246962D01*
X-67365Y-1247300D01*
X-65847Y-1247637D01*
X-64245Y-1248058D01*
X-62558Y-1248649D01*
X-60872Y-1249323D01*
X-59101Y-1250167D01*
X-57414Y-1251179D01*
X-55728Y-1252359D01*
X-54210Y-1253708D01*
X-52692Y-1255226D01*
X-52607Y-1255311D01*
X-52354Y-1255648D01*
X-52017Y-1256154D01*
X-51511Y-1256829D01*
X-50921Y-1257756D01*
X-50331Y-1258937D01*
X-49656Y-1260286D01*
X-48897Y-1261804D01*
X-48222Y-1263575D01*
X-47548Y-1265514D01*
X-46957Y-1267707D01*
X-46367Y-1270068D01*
X-45946Y-1272682D01*
X-45608Y-1275549D01*
X-45355Y-1278501D01*
Y-1281790D01*
X-84399D01*
Y-1281874D01*
Y-1282127D01*
Y-1282464D01*
X-84315Y-1282970D01*
X-84230Y-1283561D01*
X-84146Y-1284235D01*
X-83893Y-1285753D01*
X-83472Y-1287524D01*
X-82797Y-1289295D01*
X-81869Y-1291066D01*
X-80689Y-1292668D01*
X-80604D01*
X-80520Y-1292837D01*
X-80014Y-1293258D01*
X-79255Y-1293849D01*
X-78159Y-1294523D01*
X-76894Y-1295282D01*
X-75376Y-1295872D01*
X-73605Y-1296294D01*
X-72678Y-1296378D01*
X-71666Y-1296463D01*
X-71075D01*
X-70401Y-1296378D01*
X-69557Y-1296210D01*
X-68545Y-1295957D01*
X-67534Y-1295619D01*
X-66522Y-1295198D01*
X-65594Y-1294523D01*
X-65510Y-1294439D01*
X-65172Y-1294102D01*
X-64751Y-1293680D01*
X-64160Y-1292921D01*
X-63570Y-1292078D01*
X-62895Y-1290897D01*
X-62305Y-1289548D01*
X-61715Y-1288030D01*
X-46199Y-1290644D01*
Y-1290728D01*
X-46367Y-1290981D01*
X-46536Y-1291487D01*
X-46789Y-1292078D01*
X-47126Y-1292752D01*
X-47463Y-1293596D01*
X-47969Y-1294523D01*
X-48560Y-1295535D01*
X-49825Y-1297643D01*
X-51511Y-1299752D01*
X-53451Y-1301860D01*
X-54547Y-1302787D01*
X-55728Y-1303715D01*
X-55812Y-1303799D01*
X-55981Y-1303884D01*
X-56402Y-1304137D01*
X-56908Y-1304390D01*
X-57498Y-1304727D01*
X-58257Y-1305064D01*
X-59185Y-1305486D01*
X-60113Y-1305907D01*
X-61293Y-1306329D01*
X-62474Y-1306751D01*
X-63823Y-1307088D01*
X-65257Y-1307425D01*
X-66775Y-1307678D01*
X-68377Y-1307931D01*
X-70063Y-1308016D01*
X-71834Y-1308100D01*
X-72509D01*
X-73268Y-1308016D01*
X-74364Y-1307931D01*
X-75629Y-1307763D01*
X-77063Y-1307594D01*
X-78665Y-1307257D01*
X-80436Y-1306835D01*
X-82207Y-1306329D01*
X-84146Y-1305654D01*
X-86001Y-1304811D01*
X-87857Y-1303884D01*
X-89712Y-1302703D01*
X-91398Y-1301354D01*
X-93085Y-1299836D01*
X-94518Y-1298065D01*
X-94603Y-1297981D01*
X-94771Y-1297728D01*
X-95024Y-1297222D01*
X-95446Y-1296631D01*
X-95868Y-1295872D01*
X-96374Y-1294861D01*
X-96880Y-1293764D01*
X-97386Y-1292499D01*
X-97976Y-1291150D01*
X-98482Y-1289632D01*
X-98988Y-1287946D01*
X-99410Y-1286175D01*
X-99831Y-1284235D01*
X-100084Y-1282211D01*
X-100253Y-1280103D01*
X-100337Y-1277826D01*
Y-1277742D01*
Y-1277658D01*
Y-1277152D01*
X-100253Y-1276393D01*
Y-1275381D01*
X-100084Y-1274200D01*
X-99915Y-1272767D01*
X-99662Y-1271164D01*
X-99410Y-1269478D01*
X-98988Y-1267623D01*
X-98482Y-1265767D01*
X-97892Y-1263828D01*
X-97133Y-1261973D01*
X-96289Y-1260033D01*
X-95277Y-1258262D01*
X-94097Y-1256491D01*
X-92748Y-1254889D01*
X-92663Y-1254805D01*
X-92410Y-1254552D01*
X-91989Y-1254130D01*
X-91398Y-1253540D01*
X-90639Y-1252949D01*
X-89712Y-1252275D01*
X-88616Y-1251516D01*
X-87435Y-1250673D01*
X-86086Y-1249914D01*
X-84652Y-1249155D01*
X-83050Y-1248480D01*
X-81363Y-1247805D01*
X-79508Y-1247300D01*
X-77569Y-1246878D01*
X-75460Y-1246625D01*
X-73352Y-1246541D01*
X-72762D01*
X-72087Y-1246625D01*
D02*
G37*
G36*
X-840839Y-643889D02*
X-839827Y-643973D01*
X-838562Y-644058D01*
X-837044Y-644311D01*
X-835442Y-644564D01*
X-833671Y-644901D01*
X-831732Y-645407D01*
X-829792Y-645997D01*
X-827768Y-646672D01*
X-825744Y-647515D01*
X-823720Y-648527D01*
X-821781Y-649708D01*
X-819841Y-651057D01*
X-818070Y-652659D01*
X-817986Y-652743D01*
X-817818Y-652912D01*
X-817565Y-653165D01*
X-817143Y-653587D01*
X-816721Y-654177D01*
X-816131Y-654852D01*
X-815541Y-655611D01*
X-814950Y-656454D01*
X-814276Y-657466D01*
X-813601Y-658562D01*
X-812926Y-659827D01*
X-812168Y-661176D01*
X-811493Y-662610D01*
X-810903Y-664128D01*
X-810312Y-665814D01*
X-809722Y-667585D01*
X-825997Y-671464D01*
Y-671380D01*
X-826082Y-671211D01*
X-826166Y-670874D01*
X-826335Y-670452D01*
X-826503Y-669862D01*
X-826756Y-669272D01*
X-827347Y-667838D01*
X-828106Y-666236D01*
X-829202Y-664634D01*
X-830467Y-662947D01*
X-832069Y-661514D01*
X-832153Y-661429D01*
X-832238Y-661345D01*
X-832491Y-661176D01*
X-832912Y-660923D01*
X-833334Y-660670D01*
X-833840Y-660333D01*
X-835189Y-659658D01*
X-836791Y-658984D01*
X-838647Y-658393D01*
X-840755Y-657972D01*
X-841935Y-657803D01*
X-843959D01*
X-844634Y-657887D01*
X-845393Y-657972D01*
X-846236Y-658140D01*
X-847248Y-658309D01*
X-848344Y-658646D01*
X-849441Y-658984D01*
X-850621Y-659405D01*
X-851886Y-659911D01*
X-853151Y-660502D01*
X-854332Y-661261D01*
X-855512Y-662188D01*
X-856693Y-663116D01*
X-857789Y-664296D01*
X-857873Y-664381D01*
X-858042Y-664634D01*
X-858295Y-664971D01*
X-858632Y-665561D01*
X-859054Y-666236D01*
X-859560Y-667079D01*
X-860066Y-668175D01*
X-860572Y-669356D01*
X-861078Y-670705D01*
X-861584Y-672308D01*
X-862090Y-673994D01*
X-862511Y-675934D01*
X-862849Y-678042D01*
X-863102Y-680319D01*
X-863270Y-682764D01*
X-863355Y-685378D01*
Y-685547D01*
Y-686053D01*
Y-686812D01*
X-863270Y-687908D01*
X-863186Y-689173D01*
X-863102Y-690607D01*
X-862933Y-692209D01*
X-862680Y-693895D01*
X-862005Y-697437D01*
X-861584Y-699292D01*
X-861078Y-701063D01*
X-860403Y-702834D01*
X-859644Y-704436D01*
X-858801Y-705954D01*
X-857873Y-707304D01*
X-857789Y-707388D01*
X-857620Y-707557D01*
X-857283Y-707894D01*
X-856861Y-708316D01*
X-856271Y-708822D01*
X-855681Y-709328D01*
X-854838Y-709918D01*
X-853994Y-710508D01*
X-852982Y-711183D01*
X-851886Y-711773D01*
X-850705Y-712279D01*
X-849441Y-712785D01*
X-848091Y-713207D01*
X-846573Y-713544D01*
X-845055Y-713713D01*
X-843453Y-713797D01*
X-842779D01*
X-842357Y-713713D01*
X-841767Y-713628D01*
X-841092Y-713544D01*
X-839574Y-713291D01*
X-837803Y-712785D01*
X-835948Y-712026D01*
X-835020Y-711604D01*
X-834008Y-711014D01*
X-833165Y-710424D01*
X-832238Y-709665D01*
X-832153Y-709580D01*
X-832069Y-709496D01*
X-831816Y-709243D01*
X-831479Y-708906D01*
X-831057Y-708400D01*
X-830635Y-707894D01*
X-830129Y-707219D01*
X-829623Y-706460D01*
X-829033Y-705617D01*
X-828527Y-704605D01*
X-827937Y-703593D01*
X-827347Y-702328D01*
X-826841Y-701063D01*
X-826335Y-699630D01*
X-825829Y-698112D01*
X-825407Y-696510D01*
X-809469Y-701485D01*
Y-701654D01*
X-809638Y-702075D01*
X-809891Y-702750D01*
X-810144Y-703678D01*
X-810565Y-704774D01*
X-811071Y-706039D01*
X-811662Y-707472D01*
X-812421Y-708990D01*
X-813179Y-710592D01*
X-814107Y-712195D01*
X-815119Y-713881D01*
X-816215Y-715568D01*
X-817396Y-717170D01*
X-818745Y-718688D01*
X-820179Y-720121D01*
X-821697Y-721386D01*
X-821781Y-721471D01*
X-822118Y-721639D01*
X-822540Y-721977D01*
X-823215Y-722398D01*
X-824058Y-722904D01*
X-825070Y-723410D01*
X-826250Y-724001D01*
X-827600Y-724591D01*
X-829033Y-725181D01*
X-830720Y-725771D01*
X-832491Y-726277D01*
X-834430Y-726783D01*
X-836454Y-727205D01*
X-838562Y-727542D01*
X-840923Y-727711D01*
X-843285Y-727795D01*
X-843959D01*
X-844802Y-727711D01*
X-845983Y-727627D01*
X-847332Y-727458D01*
X-848935Y-727205D01*
X-850705Y-726868D01*
X-852645Y-726446D01*
X-854669Y-725856D01*
X-856861Y-725097D01*
X-859054Y-724169D01*
X-861246Y-723157D01*
X-863523Y-721892D01*
X-865716Y-720374D01*
X-867824Y-718688D01*
X-869848Y-716748D01*
X-869932Y-716580D01*
X-870270Y-716242D01*
X-870776Y-715568D01*
X-871450Y-714725D01*
X-872209Y-713628D01*
X-873137Y-712279D01*
X-874064Y-710677D01*
X-874992Y-708822D01*
X-876004Y-706798D01*
X-876931Y-704521D01*
X-877775Y-702075D01*
X-878618Y-699377D01*
X-879293Y-696425D01*
X-879799Y-693390D01*
X-880136Y-690016D01*
X-880220Y-686559D01*
Y-686475D01*
Y-686306D01*
Y-686053D01*
Y-685631D01*
X-880136Y-685210D01*
Y-684619D01*
Y-683945D01*
X-880052Y-683186D01*
X-879883Y-681499D01*
X-879630Y-679560D01*
X-879377Y-677367D01*
X-878871Y-675006D01*
X-878365Y-672561D01*
X-877690Y-669946D01*
X-876847Y-667332D01*
X-875835Y-664718D01*
X-874570Y-662188D01*
X-873221Y-659658D01*
X-871619Y-657297D01*
X-869764Y-655105D01*
X-869679Y-654936D01*
X-869258Y-654599D01*
X-868667Y-654093D01*
X-867824Y-653334D01*
X-866812Y-652490D01*
X-865547Y-651563D01*
X-864114Y-650467D01*
X-862427Y-649455D01*
X-860487Y-648358D01*
X-858464Y-647346D01*
X-856187Y-646419D01*
X-853741Y-645576D01*
X-851127Y-644817D01*
X-848344Y-644311D01*
X-845393Y-643889D01*
X-842273Y-643805D01*
X-841598D01*
X-840839Y-643889D01*
D02*
G37*
G36*
X-772027Y-644985D02*
X-771184D01*
X-770257Y-645154D01*
X-769160Y-645323D01*
X-767895Y-645491D01*
X-766546Y-645829D01*
X-765113Y-646166D01*
X-763595Y-646672D01*
X-762077Y-647262D01*
X-760559Y-648021D01*
X-759041Y-648864D01*
X-757523Y-649792D01*
X-756089Y-650973D01*
X-754740Y-652237D01*
X-754656Y-652322D01*
X-754487Y-652490D01*
X-754234Y-652828D01*
X-753813Y-653249D01*
X-753391Y-653840D01*
X-752885Y-654514D01*
X-752379Y-655273D01*
X-751873Y-656201D01*
X-751367Y-657128D01*
X-750777Y-658140D01*
X-749933Y-660417D01*
X-749512Y-661682D01*
X-749259Y-663031D01*
X-749090Y-664381D01*
X-749006Y-665730D01*
Y-665814D01*
Y-666236D01*
X-749090Y-666742D01*
X-749175Y-667501D01*
X-749343Y-668428D01*
X-749596Y-669440D01*
X-750018Y-670621D01*
X-750439Y-671886D01*
X-751114Y-673235D01*
X-751873Y-674584D01*
X-752801Y-676018D01*
X-753981Y-677452D01*
X-755330Y-678885D01*
X-756848Y-680234D01*
X-758704Y-681584D01*
X-760727Y-682849D01*
X-760643D01*
X-760390Y-682933D01*
X-760053Y-683017D01*
X-759547Y-683186D01*
X-758957Y-683354D01*
X-758282Y-683607D01*
X-756680Y-684198D01*
X-754909Y-685125D01*
X-753054Y-686222D01*
X-751283Y-687740D01*
X-750439Y-688583D01*
X-749596Y-689510D01*
X-749512Y-689595D01*
X-749428Y-689763D01*
X-749175Y-690016D01*
X-748922Y-690438D01*
X-748584Y-690944D01*
X-748247Y-691534D01*
X-747910Y-692209D01*
X-747488Y-693052D01*
X-747066Y-693895D01*
X-746729Y-694907D01*
X-746054Y-697016D01*
X-745548Y-699461D01*
X-745464Y-700726D01*
X-745380Y-702075D01*
Y-702160D01*
Y-702581D01*
X-745464Y-703087D01*
Y-703846D01*
X-745633Y-704774D01*
X-745801Y-705870D01*
X-746054Y-707051D01*
X-746392Y-708400D01*
X-746813Y-709749D01*
X-747319Y-711267D01*
X-747910Y-712701D01*
X-748669Y-714303D01*
X-749596Y-715821D01*
X-750608Y-717339D01*
X-751873Y-718857D01*
X-753222Y-720290D01*
X-753307Y-720374D01*
X-753560Y-720627D01*
X-753981Y-720965D01*
X-754656Y-721471D01*
X-755415Y-722061D01*
X-756342Y-722651D01*
X-757354Y-723326D01*
X-758619Y-724001D01*
X-759969Y-724760D01*
X-761402Y-725434D01*
X-763004Y-726024D01*
X-764775Y-726615D01*
X-766546Y-727121D01*
X-768486Y-727458D01*
X-770594Y-727711D01*
X-772702Y-727795D01*
X-773208D01*
X-773798Y-727711D01*
X-774557D01*
X-775485Y-727627D01*
X-776581Y-727458D01*
X-777762Y-727289D01*
X-779111Y-727036D01*
X-780545Y-726699D01*
X-782062Y-726277D01*
X-783580Y-725771D01*
X-785098Y-725097D01*
X-786616Y-724422D01*
X-788134Y-723579D01*
X-789568Y-722567D01*
X-791001Y-721471D01*
X-791086Y-721386D01*
X-791339Y-721218D01*
X-791676Y-720796D01*
X-792182Y-720290D01*
X-792688Y-719700D01*
X-793362Y-718941D01*
X-794037Y-718013D01*
X-794796Y-717001D01*
X-795471Y-715905D01*
X-796230Y-714640D01*
X-796904Y-713291D01*
X-797579Y-711773D01*
X-798169Y-710171D01*
X-798675Y-708484D01*
X-799097Y-706713D01*
X-799350Y-704858D01*
X-784255Y-703003D01*
Y-703087D01*
Y-703256D01*
X-784171Y-703593D01*
X-784086Y-703931D01*
X-784002Y-704436D01*
X-783833Y-705027D01*
X-783496Y-706292D01*
X-782990Y-707725D01*
X-782400Y-709159D01*
X-781556Y-710592D01*
X-780460Y-711857D01*
X-780292Y-712026D01*
X-779870Y-712363D01*
X-779195Y-712785D01*
X-778268Y-713375D01*
X-777171Y-713966D01*
X-775906Y-714387D01*
X-774389Y-714725D01*
X-772786Y-714893D01*
X-772280D01*
X-771943Y-714809D01*
X-771100Y-714725D01*
X-770004Y-714472D01*
X-768654Y-713966D01*
X-767305Y-713375D01*
X-765956Y-712448D01*
X-765281Y-711942D01*
X-764691Y-711267D01*
Y-711183D01*
X-764522Y-711098D01*
X-764185Y-710592D01*
X-763595Y-709749D01*
X-763004Y-708653D01*
X-762414Y-707304D01*
X-761824Y-705533D01*
X-761486Y-703593D01*
X-761318Y-701401D01*
Y-701316D01*
Y-701148D01*
Y-700810D01*
X-761402Y-700389D01*
Y-699883D01*
X-761486Y-699377D01*
X-761739Y-698028D01*
X-762077Y-696510D01*
X-762667Y-694992D01*
X-763426Y-693474D01*
X-764522Y-692040D01*
X-764691Y-691872D01*
X-765113Y-691534D01*
X-765787Y-690944D01*
X-766715Y-690269D01*
X-767811Y-689679D01*
X-769160Y-689089D01*
X-770678Y-688751D01*
X-772280Y-688583D01*
X-772786D01*
X-773461Y-688667D01*
X-774304Y-688751D01*
X-775316Y-688836D01*
X-776497Y-689089D01*
X-777846Y-689342D01*
X-779364Y-689763D01*
X-777677Y-677199D01*
X-776665D01*
X-776075Y-677114D01*
X-775485D01*
X-774051Y-676946D01*
X-772533Y-676608D01*
X-770931Y-676102D01*
X-769329Y-675428D01*
X-767980Y-674500D01*
X-767811Y-674331D01*
X-767474Y-673994D01*
X-766883Y-673319D01*
X-766293Y-672476D01*
X-765703Y-671380D01*
X-765113Y-670031D01*
X-764775Y-668513D01*
X-764607Y-666826D01*
Y-666742D01*
Y-666658D01*
Y-666152D01*
X-764691Y-665393D01*
X-764944Y-664465D01*
X-765197Y-663369D01*
X-765618Y-662272D01*
X-766209Y-661261D01*
X-767052Y-660249D01*
X-767136Y-660164D01*
X-767474Y-659827D01*
X-768064Y-659490D01*
X-768823Y-658984D01*
X-769751Y-658562D01*
X-770847Y-658140D01*
X-772196Y-657887D01*
X-773630Y-657803D01*
X-774304D01*
X-775063Y-657972D01*
X-775991Y-658140D01*
X-777003Y-658478D01*
X-778183Y-658984D01*
X-779364Y-659658D01*
X-780460Y-660586D01*
X-780545Y-660755D01*
X-780882Y-661092D01*
X-781388Y-661767D01*
X-781894Y-662610D01*
X-782484Y-663790D01*
X-783074Y-665140D01*
X-783496Y-666826D01*
X-783833Y-668681D01*
X-798169Y-666320D01*
Y-666236D01*
X-798085Y-665983D01*
X-798000Y-665646D01*
X-797916Y-665055D01*
X-797747Y-664465D01*
X-797579Y-663706D01*
X-797073Y-662020D01*
X-796483Y-660164D01*
X-795639Y-658225D01*
X-794796Y-656285D01*
X-793700Y-654514D01*
Y-654430D01*
X-793531Y-654346D01*
X-793362Y-654093D01*
X-793109Y-653755D01*
X-792435Y-652996D01*
X-791507Y-651984D01*
X-790327Y-650804D01*
X-788893Y-649708D01*
X-787206Y-648527D01*
X-785267Y-647515D01*
X-785183D01*
X-785014Y-647431D01*
X-784761Y-647262D01*
X-784339Y-647093D01*
X-783833Y-646925D01*
X-783159Y-646672D01*
X-782484Y-646419D01*
X-781725Y-646166D01*
X-779954Y-645744D01*
X-777846Y-645323D01*
X-775569Y-644985D01*
X-773124Y-644901D01*
X-772618D01*
X-772027Y-644985D01*
D02*
G37*
G36*
X32576Y1068015D02*
X17766D01*
X-11853Y1116089D01*
Y1068015D01*
X-25523D01*
Y1141227D01*
X-11245D01*
X18905Y1092090D01*
Y1141227D01*
X32576D01*
Y1068015D01*
D02*
G37*
G36*
X-115975D02*
X-131999D01*
X-158049Y1141227D01*
X-142100D01*
X-123569Y1087002D01*
X-105798Y1141227D01*
X-90001D01*
X-115975Y1068015D01*
D02*
G37*
G36*
X-164428Y1127025D02*
X-190933D01*
X-193212Y1114570D01*
X-193136D01*
X-192984Y1114646D01*
X-192756Y1114798D01*
X-192376Y1114950D01*
X-191997Y1115102D01*
X-191465Y1115329D01*
X-190250Y1115785D01*
X-188807Y1116165D01*
X-187136Y1116545D01*
X-185389Y1116848D01*
X-183567Y1116924D01*
X-183187D01*
X-182655Y1116848D01*
X-181972D01*
X-181212Y1116697D01*
X-180301Y1116545D01*
X-179238Y1116317D01*
X-178098Y1116089D01*
X-176883Y1115709D01*
X-175592Y1115254D01*
X-174301Y1114722D01*
X-172934Y1114038D01*
X-171567Y1113279D01*
X-170276Y1112368D01*
X-168909Y1111304D01*
X-167694Y1110089D01*
X-167618Y1110013D01*
X-167390Y1109785D01*
X-167086Y1109406D01*
X-166707Y1108874D01*
X-166175Y1108191D01*
X-165643Y1107355D01*
X-165036Y1106444D01*
X-164428Y1105381D01*
X-163821Y1104165D01*
X-163213Y1102874D01*
X-162681Y1101431D01*
X-162150Y1099837D01*
X-161770Y1098166D01*
X-161466Y1096419D01*
X-161238Y1094520D01*
X-161162Y1092546D01*
Y1092470D01*
Y1092166D01*
Y1091634D01*
X-161238Y1091027D01*
X-161314Y1090267D01*
X-161466Y1089280D01*
X-161618Y1088293D01*
X-161846Y1087154D01*
X-162074Y1085938D01*
X-162454Y1084647D01*
X-162833Y1083280D01*
X-163365Y1081913D01*
X-163972Y1080546D01*
X-164656Y1079179D01*
X-165491Y1077812D01*
X-166403Y1076445D01*
X-166479Y1076369D01*
X-166707Y1076065D01*
X-167162Y1075534D01*
X-167694Y1074926D01*
X-168453Y1074243D01*
X-169365Y1073407D01*
X-170352Y1072496D01*
X-171567Y1071661D01*
X-172858Y1070749D01*
X-174377Y1069838D01*
X-175972Y1069002D01*
X-177795Y1068319D01*
X-179693Y1067711D01*
X-181744Y1067180D01*
X-183946Y1066876D01*
X-186225Y1066800D01*
X-187212D01*
X-187895Y1066876D01*
X-188807Y1066952D01*
X-189794Y1067104D01*
X-190933Y1067256D01*
X-192073Y1067484D01*
X-193364Y1067787D01*
X-194731Y1068091D01*
X-196098Y1068547D01*
X-197465Y1069078D01*
X-198908Y1069686D01*
X-200199Y1070445D01*
X-201566Y1071281D01*
X-202781Y1072192D01*
X-202857Y1072268D01*
X-203085Y1072420D01*
X-203388Y1072724D01*
X-203768Y1073179D01*
X-204300Y1073711D01*
X-204831Y1074395D01*
X-205439Y1075154D01*
X-206123Y1076065D01*
X-206806Y1077053D01*
X-207414Y1078192D01*
X-208097Y1079407D01*
X-208705Y1080698D01*
X-209236Y1082065D01*
X-209692Y1083584D01*
X-210072Y1085179D01*
X-210376Y1086850D01*
X-196401Y1088293D01*
Y1088217D01*
Y1088065D01*
X-196325Y1087837D01*
X-196250Y1087533D01*
X-196098Y1086622D01*
X-195794Y1085559D01*
X-195338Y1084344D01*
X-194731Y1083128D01*
X-193895Y1081913D01*
X-192908Y1080774D01*
X-192756Y1080622D01*
X-192376Y1080318D01*
X-191769Y1079939D01*
X-190933Y1079407D01*
X-189946Y1078875D01*
X-188807Y1078496D01*
X-187440Y1078192D01*
X-186073Y1078040D01*
X-185617D01*
X-185313Y1078116D01*
X-184554Y1078192D01*
X-183491Y1078496D01*
X-182351Y1078875D01*
X-181136Y1079483D01*
X-179921Y1080394D01*
X-179314Y1080926D01*
X-178706Y1081534D01*
Y1081609D01*
X-178554Y1081685D01*
X-178402Y1081913D01*
X-178250Y1082217D01*
X-177947Y1082597D01*
X-177719Y1083052D01*
X-177415Y1083584D01*
X-177111Y1084192D01*
X-176883Y1084951D01*
X-176580Y1085711D01*
X-176276Y1086622D01*
X-176048Y1087609D01*
X-175896Y1088672D01*
X-175744Y1089812D01*
X-175592Y1091027D01*
Y1092318D01*
Y1092394D01*
Y1092622D01*
Y1092925D01*
X-175668Y1093381D01*
Y1093989D01*
X-175744Y1094596D01*
X-175972Y1096115D01*
X-176352Y1097710D01*
X-176883Y1099381D01*
X-177643Y1100976D01*
X-178098Y1101659D01*
X-178630Y1102343D01*
Y1102419D01*
X-178782Y1102495D01*
X-179162Y1102874D01*
X-179845Y1103406D01*
X-180757Y1104089D01*
X-181896Y1104697D01*
X-183263Y1105229D01*
X-184782Y1105608D01*
X-185617Y1105760D01*
X-187136D01*
X-187516Y1105684D01*
X-188047Y1105608D01*
X-188731Y1105457D01*
X-189414Y1105305D01*
X-190174Y1105077D01*
X-191009Y1104849D01*
X-191845Y1104469D01*
X-192756Y1104014D01*
X-193667Y1103558D01*
X-194579Y1102874D01*
X-195566Y1102191D01*
X-196477Y1101355D01*
X-197389Y1100444D01*
X-208705Y1102039D01*
X-201490Y1140164D01*
X-164428D01*
Y1127025D01*
D02*
G37*
G36*
X-39649Y1068015D02*
X-54458D01*
Y1141227D01*
X-39649D01*
Y1068015D01*
D02*
G37*
G36*
X205918D02*
X189894D01*
X163844Y1141227D01*
X179793D01*
X198324Y1087002D01*
X216095Y1141227D01*
X231892D01*
X205918Y1068015D01*
D02*
G37*
G36*
X377252Y1102722D02*
Y1102571D01*
Y1102115D01*
Y1101507D01*
Y1100596D01*
Y1099533D01*
X377177Y1098242D01*
Y1096951D01*
X377101Y1095508D01*
X376949Y1092394D01*
X376721Y1089356D01*
X376569Y1087837D01*
X376417Y1086470D01*
X376265Y1085255D01*
X376037Y1084116D01*
Y1084040D01*
X375961Y1083888D01*
X375885Y1083584D01*
X375810Y1083204D01*
X375658Y1082749D01*
X375506Y1082217D01*
X375050Y1080926D01*
X374442Y1079483D01*
X373607Y1077964D01*
X372696Y1076445D01*
X371557Y1074926D01*
Y1074850D01*
X371405Y1074774D01*
X370949Y1074319D01*
X370265Y1073635D01*
X369278Y1072800D01*
X368063Y1071812D01*
X366620Y1070825D01*
X364873Y1069914D01*
X362975Y1069002D01*
X362899D01*
X362747Y1068926D01*
X362443Y1068775D01*
X361987Y1068699D01*
X361456Y1068471D01*
X360848Y1068319D01*
X360089Y1068091D01*
X359177Y1067939D01*
X358266Y1067711D01*
X357203Y1067484D01*
X355988Y1067332D01*
X354772Y1067180D01*
X353405Y1067028D01*
X352038Y1066876D01*
X350519Y1066800D01*
X347937D01*
X347178Y1066876D01*
X346342D01*
X345355Y1066952D01*
X344216Y1067028D01*
X343001Y1067104D01*
X340419Y1067408D01*
X337761Y1067787D01*
X335254Y1068395D01*
X334039Y1068775D01*
X332976Y1069154D01*
X332900D01*
X332748Y1069306D01*
X332444Y1069382D01*
X332065Y1069610D01*
X331609Y1069838D01*
X331077Y1070142D01*
X329862Y1070825D01*
X328495Y1071736D01*
X327128Y1072876D01*
X325761Y1074091D01*
X324470Y1075458D01*
Y1075534D01*
X324318Y1075610D01*
X324166Y1075838D01*
X323938Y1076141D01*
X323407Y1076901D01*
X322799Y1077964D01*
X322116Y1079179D01*
X321432Y1080546D01*
X320825Y1081989D01*
X320369Y1083584D01*
Y1083660D01*
X320293Y1083888D01*
X320217Y1084268D01*
X320141Y1084799D01*
X320065Y1085407D01*
X319913Y1086242D01*
X319761Y1087154D01*
X319685Y1088293D01*
X319534Y1089508D01*
X319382Y1090875D01*
X319230Y1092394D01*
X319154Y1094065D01*
X319078Y1095887D01*
X319002Y1097862D01*
X318926Y1099988D01*
Y1102191D01*
Y1141227D01*
X333735D01*
Y1101507D01*
Y1101431D01*
Y1101128D01*
Y1100596D01*
Y1099988D01*
Y1099229D01*
Y1098394D01*
X333811Y1097406D01*
Y1096419D01*
X333887Y1094368D01*
X333963Y1092394D01*
X334039Y1091482D01*
X334115Y1090647D01*
X334191Y1089888D01*
X334267Y1089280D01*
Y1089204D01*
X334343Y1089052D01*
Y1088824D01*
X334495Y1088521D01*
X334723Y1087685D01*
X335178Y1086698D01*
X335786Y1085559D01*
X336545Y1084344D01*
X337533Y1083128D01*
X338748Y1082065D01*
X338824D01*
X338900Y1081989D01*
X339128Y1081837D01*
X339431Y1081685D01*
X339735Y1081458D01*
X340191Y1081230D01*
X341330Y1080774D01*
X342697Y1080242D01*
X344368Y1079863D01*
X346267Y1079559D01*
X348469Y1079407D01*
X349077D01*
X349532Y1079483D01*
X350064D01*
X350595Y1079559D01*
X352038Y1079711D01*
X353557Y1080015D01*
X355076Y1080470D01*
X356595Y1081078D01*
X357886Y1081913D01*
X358038Y1082065D01*
X358418Y1082369D01*
X358949Y1082901D01*
X359557Y1083660D01*
X360241Y1084571D01*
X360848Y1085635D01*
X361380Y1086850D01*
X361759Y1088217D01*
Y1088293D01*
Y1088369D01*
X361835Y1088597D01*
Y1088976D01*
X361911Y1089356D01*
X361987Y1089888D01*
X362063Y1090495D01*
X362139Y1091179D01*
Y1092014D01*
X362215Y1092925D01*
X362291Y1093913D01*
X362367Y1095052D01*
Y1096343D01*
X362443Y1097634D01*
Y1099077D01*
Y1100672D01*
Y1141227D01*
X377252D01*
Y1102722D01*
D02*
G37*
G36*
X445756Y1128848D02*
X424187D01*
Y1068015D01*
X409378D01*
Y1128848D01*
X387657D01*
Y1141227D01*
X445756D01*
Y1128848D01*
D02*
G37*
G36*
X273434Y1142366D02*
X274498Y1142290D01*
X275865Y1142138D01*
X277459Y1141911D01*
X279206Y1141607D01*
X281181Y1141151D01*
X283155Y1140620D01*
X285282Y1140012D01*
X287408Y1139177D01*
X289611Y1138189D01*
X291737Y1137050D01*
X293864Y1135683D01*
X295838Y1134088D01*
X297737Y1132341D01*
X297813Y1132190D01*
X298193Y1131886D01*
X298648Y1131278D01*
X299256Y1130519D01*
X300015Y1129455D01*
X300851Y1128240D01*
X301686Y1126797D01*
X302598Y1125127D01*
X303509Y1123228D01*
X304420Y1121101D01*
X305180Y1118823D01*
X305939Y1116393D01*
X306547Y1113659D01*
X307078Y1110773D01*
X307382Y1107735D01*
X307458Y1104469D01*
Y1104393D01*
Y1104241D01*
Y1104014D01*
Y1103710D01*
Y1103254D01*
X307382Y1102798D01*
X307306Y1101583D01*
X307154Y1100064D01*
X306926Y1098318D01*
X306623Y1096419D01*
X306243Y1094368D01*
X305711Y1092166D01*
X305104Y1089964D01*
X304344Y1087609D01*
X303357Y1085331D01*
X302294Y1083052D01*
X301003Y1080850D01*
X299484Y1078724D01*
X297813Y1076749D01*
X297737Y1076673D01*
X297357Y1076293D01*
X296826Y1075838D01*
X296066Y1075230D01*
X295079Y1074471D01*
X293940Y1073635D01*
X292573Y1072724D01*
X290978Y1071812D01*
X289231Y1070825D01*
X287256Y1069914D01*
X285206Y1069078D01*
X282852Y1068395D01*
X280421Y1067711D01*
X277763Y1067256D01*
X275029Y1066952D01*
X272067Y1066800D01*
X271384D01*
X270928Y1066876D01*
X270472D01*
X269333Y1066952D01*
X267966Y1067104D01*
X266371Y1067332D01*
X264625Y1067635D01*
X262726Y1068015D01*
X260675Y1068547D01*
X258549Y1069230D01*
X256422Y1070066D01*
X254220Y1070977D01*
X252093Y1072116D01*
X249967Y1073483D01*
X247992Y1075002D01*
X246094Y1076749D01*
X246018Y1076901D01*
X245714Y1077205D01*
X245182Y1077812D01*
X244575Y1078572D01*
X243891Y1079559D01*
X243056Y1080850D01*
X242220Y1082293D01*
X241309Y1083888D01*
X240398Y1085786D01*
X239562Y1087837D01*
X238727Y1090039D01*
X238043Y1092546D01*
X237436Y1095128D01*
X236904Y1097938D01*
X236600Y1100976D01*
X236525Y1104165D01*
Y1104317D01*
Y1104697D01*
Y1105229D01*
X236600Y1106064D01*
Y1106975D01*
X236676Y1108115D01*
X236828Y1109330D01*
X236980Y1110697D01*
X237132Y1112140D01*
X237360Y1113659D01*
X237968Y1116772D01*
X238803Y1119962D01*
X239259Y1121481D01*
X239866Y1122924D01*
Y1123000D01*
X240018Y1123152D01*
X240094Y1123456D01*
X240322Y1123835D01*
X240550Y1124367D01*
X240853Y1124899D01*
X241613Y1126266D01*
X242600Y1127785D01*
X243739Y1129455D01*
X245106Y1131202D01*
X246625Y1132873D01*
X246701Y1132949D01*
X246853Y1133101D01*
X247081Y1133329D01*
X247385Y1133632D01*
X247765Y1134012D01*
X248296Y1134392D01*
X249435Y1135379D01*
X250878Y1136442D01*
X252473Y1137582D01*
X254220Y1138569D01*
X256119Y1139480D01*
X256195D01*
X256422Y1139632D01*
X256802Y1139784D01*
X257334Y1139936D01*
X257941Y1140164D01*
X258777Y1140392D01*
X259612Y1140695D01*
X260675Y1140999D01*
X261739Y1141227D01*
X262954Y1141531D01*
X264245Y1141759D01*
X265612Y1141987D01*
X267055Y1142138D01*
X268650Y1142290D01*
X271839Y1142442D01*
X272903D01*
X273434Y1142366D01*
D02*
G37*
G36*
X-685319D02*
X-684180Y1142290D01*
X-682889Y1142138D01*
X-681370Y1141987D01*
X-679775Y1141759D01*
X-678105Y1141455D01*
X-676358Y1140999D01*
X-674611Y1140544D01*
X-672788Y1140012D01*
X-671042Y1139328D01*
X-669371Y1138569D01*
X-667776Y1137658D01*
X-666257Y1136670D01*
X-666181Y1136594D01*
X-665953Y1136442D01*
X-665498Y1136063D01*
X-665042Y1135607D01*
X-664434Y1135075D01*
X-663675Y1134316D01*
X-662915Y1133481D01*
X-662156Y1132569D01*
X-661320Y1131506D01*
X-660485Y1130367D01*
X-659650Y1129076D01*
X-658890Y1127633D01*
X-658131Y1126114D01*
X-657447Y1124519D01*
X-656840Y1122772D01*
X-656384Y1120949D01*
X-671042Y1118215D01*
Y1118291D01*
X-671118Y1118443D01*
X-671193Y1118747D01*
X-671345Y1119127D01*
X-671573Y1119582D01*
X-671801Y1120038D01*
X-672409Y1121253D01*
X-673168Y1122620D01*
X-674231Y1123987D01*
X-675446Y1125354D01*
X-676965Y1126645D01*
X-677041Y1126721D01*
X-677193Y1126797D01*
X-677421Y1126949D01*
X-677725Y1127177D01*
X-678181Y1127405D01*
X-678636Y1127633D01*
X-679244Y1127937D01*
X-679851Y1128240D01*
X-681446Y1128848D01*
X-683269Y1129304D01*
X-685319Y1129683D01*
X-687598Y1129835D01*
X-688053D01*
X-688509Y1129759D01*
X-689193D01*
X-690028Y1129683D01*
X-690939Y1129531D01*
X-692003Y1129304D01*
X-693142Y1129076D01*
X-694357Y1128772D01*
X-695648Y1128316D01*
X-696939Y1127861D01*
X-698230Y1127253D01*
X-699445Y1126570D01*
X-700736Y1125734D01*
X-701876Y1124747D01*
X-703015Y1123684D01*
X-703091Y1123608D01*
X-703243Y1123380D01*
X-703546Y1123076D01*
X-703926Y1122544D01*
X-704306Y1121861D01*
X-704838Y1121101D01*
X-705293Y1120190D01*
X-705825Y1119127D01*
X-706356Y1117912D01*
X-706888Y1116545D01*
X-707420Y1115026D01*
X-707799Y1113431D01*
X-708179Y1111608D01*
X-708483Y1109709D01*
X-708635Y1107659D01*
X-708711Y1105457D01*
Y1105305D01*
Y1104849D01*
X-708635Y1104241D01*
Y1103330D01*
X-708559Y1102267D01*
X-708407Y1100976D01*
X-708255Y1099609D01*
X-707951Y1098090D01*
X-707648Y1096571D01*
X-707268Y1094900D01*
X-706812Y1093305D01*
X-706281Y1091710D01*
X-705597Y1090115D01*
X-704838Y1088597D01*
X-703926Y1087154D01*
X-702939Y1085862D01*
X-702863Y1085786D01*
X-702635Y1085559D01*
X-702331Y1085255D01*
X-701876Y1084875D01*
X-701344Y1084344D01*
X-700585Y1083812D01*
X-699825Y1083204D01*
X-698914Y1082673D01*
X-697851Y1082065D01*
X-696711Y1081458D01*
X-695496Y1080926D01*
X-694129Y1080394D01*
X-692686Y1080015D01*
X-691167Y1079711D01*
X-689496Y1079483D01*
X-687826Y1079407D01*
X-686990D01*
X-686611Y1079483D01*
X-686079D01*
X-684864Y1079635D01*
X-683497Y1079863D01*
X-681902Y1080166D01*
X-680231Y1080546D01*
X-678484Y1081154D01*
X-678408D01*
X-678256Y1081230D01*
X-678029Y1081306D01*
X-677725Y1081458D01*
X-676813Y1081837D01*
X-675750Y1082369D01*
X-674459Y1083052D01*
X-673168Y1083812D01*
X-671725Y1084647D01*
X-670434Y1085635D01*
Y1094900D01*
X-687370D01*
Y1107279D01*
X-655473D01*
Y1078040D01*
X-655549Y1077964D01*
X-655700Y1077812D01*
X-655928Y1077584D01*
X-656308Y1077281D01*
X-656840Y1076901D01*
X-657447Y1076445D01*
X-658131Y1075914D01*
X-658890Y1075382D01*
X-659802Y1074774D01*
X-660865Y1074167D01*
X-661928Y1073483D01*
X-663143Y1072800D01*
X-664434Y1072116D01*
X-665877Y1071433D01*
X-667396Y1070825D01*
X-668991Y1070142D01*
X-669067D01*
X-669371Y1069990D01*
X-669826Y1069838D01*
X-670510Y1069610D01*
X-671345Y1069382D01*
X-672257Y1069078D01*
X-673320Y1068775D01*
X-674535Y1068471D01*
X-675826Y1068167D01*
X-677193Y1067863D01*
X-678712Y1067559D01*
X-680231Y1067332D01*
X-683497Y1066952D01*
X-685168Y1066876D01*
X-686838Y1066800D01*
X-687978D01*
X-688737Y1066876D01*
X-689724Y1066952D01*
X-690939Y1067028D01*
X-692231Y1067180D01*
X-693598Y1067408D01*
X-695116Y1067635D01*
X-696787Y1067939D01*
X-698382Y1068395D01*
X-700129Y1068851D01*
X-701800Y1069382D01*
X-703546Y1069990D01*
X-705217Y1070749D01*
X-706812Y1071585D01*
X-706888Y1071661D01*
X-707192Y1071812D01*
X-707648Y1072116D01*
X-708179Y1072496D01*
X-708939Y1072952D01*
X-709698Y1073559D01*
X-710609Y1074319D01*
X-711597Y1075078D01*
X-712660Y1075989D01*
X-713647Y1077053D01*
X-714786Y1078192D01*
X-715850Y1079407D01*
X-716837Y1080774D01*
X-717824Y1082141D01*
X-718812Y1083736D01*
X-719647Y1085331D01*
X-719723Y1085407D01*
X-719799Y1085711D01*
X-720027Y1086242D01*
X-720331Y1086926D01*
X-720634Y1087761D01*
X-721014Y1088748D01*
X-721394Y1089888D01*
X-721774Y1091103D01*
X-722153Y1092546D01*
X-722533Y1094065D01*
X-722913Y1095659D01*
X-723216Y1097330D01*
X-723520Y1099153D01*
X-723748Y1100976D01*
X-723824Y1102874D01*
X-723900Y1104849D01*
Y1105001D01*
Y1105381D01*
Y1105988D01*
X-723824Y1106748D01*
X-723748Y1107735D01*
X-723672Y1108950D01*
X-723520Y1110241D01*
X-723292Y1111684D01*
X-723065Y1113203D01*
X-722761Y1114798D01*
X-722305Y1116469D01*
X-721849Y1118215D01*
X-721318Y1119962D01*
X-720710Y1121709D01*
X-719951Y1123456D01*
X-719115Y1125127D01*
X-719039Y1125202D01*
X-718888Y1125506D01*
X-718584Y1125962D01*
X-718204Y1126570D01*
X-717748Y1127329D01*
X-717141Y1128164D01*
X-716381Y1129152D01*
X-715546Y1130139D01*
X-714635Y1131278D01*
X-713571Y1132341D01*
X-712432Y1133481D01*
X-711217Y1134620D01*
X-709850Y1135759D01*
X-708407Y1136822D01*
X-706812Y1137885D01*
X-705141Y1138797D01*
X-705065Y1138873D01*
X-704838Y1138949D01*
X-704382Y1139101D01*
X-703850Y1139404D01*
X-703167Y1139632D01*
X-702331Y1139936D01*
X-701420Y1140316D01*
X-700281Y1140620D01*
X-699066Y1140999D01*
X-697775Y1141303D01*
X-696332Y1141607D01*
X-694737Y1141911D01*
X-693142Y1142138D01*
X-691395Y1142290D01*
X-689496Y1142366D01*
X-687598Y1142442D01*
X-686307D01*
X-685319Y1142366D01*
D02*
G37*
G36*
X-583628Y1068015D02*
X-598437D01*
X-628056Y1116089D01*
Y1068015D01*
X-641726D01*
Y1141227D01*
X-627449D01*
X-597298Y1092090D01*
Y1141227D01*
X-583628D01*
Y1068015D01*
D02*
G37*
G36*
X-538820Y1141151D02*
X-537984D01*
X-536997Y1141075D01*
X-535934D01*
X-533655Y1140847D01*
X-531377Y1140620D01*
X-529099Y1140240D01*
X-528111Y1140012D01*
X-527124Y1139784D01*
X-527048D01*
X-526820Y1139708D01*
X-526516Y1139556D01*
X-526061Y1139404D01*
X-525529Y1139177D01*
X-524846Y1138949D01*
X-524162Y1138645D01*
X-523327Y1138265D01*
X-521656Y1137278D01*
X-519833Y1136139D01*
X-517934Y1134696D01*
X-516188Y1133025D01*
X-516112Y1132949D01*
X-515960Y1132797D01*
X-515732Y1132569D01*
X-515428Y1132190D01*
X-515048Y1131734D01*
X-514593Y1131126D01*
X-514061Y1130519D01*
X-513530Y1129759D01*
X-512998Y1128924D01*
X-512390Y1128012D01*
X-511251Y1126038D01*
X-510112Y1123684D01*
X-509125Y1121177D01*
Y1121101D01*
X-509049Y1120874D01*
X-508897Y1120494D01*
X-508745Y1119962D01*
X-508593Y1119279D01*
X-508365Y1118443D01*
X-508137Y1117456D01*
X-507910Y1116393D01*
X-507682Y1115178D01*
X-507454Y1113887D01*
X-507226Y1112444D01*
X-507074Y1110925D01*
X-506922Y1109330D01*
X-506770Y1107583D01*
X-506694Y1105760D01*
Y1103862D01*
Y1103786D01*
Y1103482D01*
Y1102950D01*
Y1102343D01*
X-506770Y1101583D01*
X-506846Y1100672D01*
Y1099609D01*
X-506998Y1098545D01*
X-507074Y1097330D01*
X-507226Y1096115D01*
X-507682Y1093457D01*
X-508213Y1090875D01*
X-508973Y1088293D01*
Y1088217D01*
X-509125Y1087913D01*
X-509277Y1087533D01*
X-509504Y1087002D01*
X-509732Y1086318D01*
X-510112Y1085483D01*
X-510492Y1084647D01*
X-510947Y1083660D01*
X-512087Y1081609D01*
X-513454Y1079483D01*
X-514973Y1077356D01*
X-516795Y1075382D01*
X-516871Y1075306D01*
X-516947Y1075230D01*
X-517175Y1075002D01*
X-517479Y1074774D01*
X-517859Y1074471D01*
X-518390Y1074091D01*
X-518922Y1073711D01*
X-519529Y1073255D01*
X-520289Y1072800D01*
X-521048Y1072344D01*
X-522795Y1071357D01*
X-524846Y1070369D01*
X-527200Y1069534D01*
X-527276D01*
X-527428Y1069458D01*
X-527731Y1069382D01*
X-528111Y1069306D01*
X-528567Y1069154D01*
X-529174Y1069078D01*
X-529858Y1068926D01*
X-530617Y1068775D01*
X-531529Y1068623D01*
X-532516Y1068471D01*
X-533579Y1068395D01*
X-534794Y1068243D01*
X-536010Y1068167D01*
X-537377Y1068091D01*
X-538744Y1068015D01*
X-568059D01*
Y1141227D01*
X-539579D01*
X-538820Y1141151D01*
D02*
G37*
G36*
X873421Y1066800D02*
X858611D01*
X828992Y1114874D01*
Y1066800D01*
X815322D01*
Y1140012D01*
X829600D01*
X859750Y1090875D01*
Y1140012D01*
X873421D01*
Y1066800D01*
D02*
G37*
G36*
X753274D02*
X737249D01*
X711200Y1140012D01*
X727149D01*
X745679Y1085786D01*
X763451Y1140012D01*
X779248D01*
X753274Y1066800D01*
D02*
G37*
G36*
X801196D02*
X786387D01*
Y1140012D01*
X801196D01*
Y1066800D01*
D02*
G37*
G36*
X-7177Y-611160D02*
Y-611329D01*
Y-611835D01*
Y-612509D01*
Y-613521D01*
Y-614702D01*
X-7261Y-616135D01*
Y-617569D01*
X-7345Y-619171D01*
X-7514Y-622629D01*
X-7767Y-626002D01*
X-7935Y-627688D01*
X-8104Y-629206D01*
X-8273Y-630556D01*
X-8526Y-631820D01*
Y-631905D01*
X-8610Y-632073D01*
X-8694Y-632411D01*
X-8779Y-632832D01*
X-8947Y-633338D01*
X-9116Y-633929D01*
X-9622Y-635362D01*
X-10297Y-636964D01*
X-11224Y-638651D01*
X-12236Y-640338D01*
X-13501Y-642024D01*
Y-642108D01*
X-13670Y-642193D01*
X-14176Y-642699D01*
X-14935Y-643458D01*
X-16031Y-644385D01*
X-17380Y-645482D01*
X-18982Y-646578D01*
X-20922Y-647590D01*
X-23030Y-648602D01*
X-23115D01*
X-23283Y-648686D01*
X-23620Y-648855D01*
X-24126Y-648939D01*
X-24717Y-649192D01*
X-25391Y-649361D01*
X-26235Y-649614D01*
X-27247Y-649782D01*
X-28259Y-650035D01*
X-29439Y-650288D01*
X-30788Y-650457D01*
X-32138Y-650626D01*
X-33656Y-650794D01*
X-35173Y-650963D01*
X-36860Y-651047D01*
X-39727D01*
X-40570Y-650963D01*
X-41498D01*
X-42594Y-650879D01*
X-43859Y-650794D01*
X-45208Y-650710D01*
X-48076Y-650373D01*
X-51027Y-649951D01*
X-53810Y-649276D01*
X-55159Y-648855D01*
X-56340Y-648433D01*
X-56424D01*
X-56593Y-648264D01*
X-56930Y-648180D01*
X-57352Y-647927D01*
X-57858Y-647674D01*
X-58448Y-647337D01*
X-59797Y-646578D01*
X-61315Y-645566D01*
X-62833Y-644301D01*
X-64351Y-642952D01*
X-65784Y-641434D01*
Y-641349D01*
X-65953Y-641265D01*
X-66122Y-641012D01*
X-66375Y-640675D01*
X-66965Y-639832D01*
X-67640Y-638651D01*
X-68399Y-637302D01*
X-69158Y-635784D01*
X-69832Y-634182D01*
X-70338Y-632411D01*
Y-632326D01*
X-70423Y-632073D01*
X-70507Y-631652D01*
X-70591Y-631061D01*
X-70675Y-630387D01*
X-70844Y-629459D01*
X-71013Y-628447D01*
X-71097Y-627182D01*
X-71266Y-625833D01*
X-71434Y-624315D01*
X-71603Y-622629D01*
X-71687Y-620773D01*
X-71772Y-618750D01*
X-71856Y-616557D01*
X-71940Y-614196D01*
Y-611750D01*
Y-568406D01*
X-55496D01*
Y-612509D01*
Y-612594D01*
Y-612931D01*
Y-613521D01*
Y-614196D01*
Y-615039D01*
Y-615967D01*
X-55412Y-617063D01*
Y-618159D01*
X-55328Y-620436D01*
X-55243Y-622629D01*
X-55159Y-623641D01*
X-55075Y-624568D01*
X-54990Y-625411D01*
X-54906Y-626086D01*
Y-626170D01*
X-54822Y-626339D01*
Y-626592D01*
X-54653Y-626929D01*
X-54400Y-627857D01*
X-53894Y-628953D01*
X-53220Y-630218D01*
X-52376Y-631567D01*
X-51280Y-632917D01*
X-49931Y-634097D01*
X-49846D01*
X-49762Y-634182D01*
X-49509Y-634350D01*
X-49172Y-634519D01*
X-48835Y-634772D01*
X-48329Y-635025D01*
X-47064Y-635531D01*
X-45546Y-636121D01*
X-43691Y-636543D01*
X-41582Y-636880D01*
X-39137Y-637049D01*
X-38462D01*
X-37956Y-636964D01*
X-37366D01*
X-36776Y-636880D01*
X-35173Y-636711D01*
X-33487Y-636374D01*
X-31800Y-635868D01*
X-30114Y-635194D01*
X-28680Y-634266D01*
X-28512Y-634097D01*
X-28090Y-633760D01*
X-27500Y-633170D01*
X-26825Y-632326D01*
X-26066Y-631314D01*
X-25391Y-630134D01*
X-24801Y-628785D01*
X-24379Y-627267D01*
Y-627182D01*
Y-627098D01*
X-24295Y-626845D01*
Y-626423D01*
X-24211Y-626002D01*
X-24126Y-625411D01*
X-24042Y-624737D01*
X-23958Y-623978D01*
Y-623050D01*
X-23873Y-622038D01*
X-23789Y-620942D01*
X-23705Y-619677D01*
Y-618244D01*
X-23620Y-616810D01*
Y-615208D01*
Y-613437D01*
Y-568406D01*
X-7177D01*
Y-611160D01*
D02*
G37*
G36*
X46540Y-649698D02*
X30940D01*
Y-591090D01*
X30855Y-591174D01*
X30518Y-591427D01*
X30096Y-591849D01*
X29422Y-592439D01*
X28579Y-593030D01*
X27651Y-593788D01*
X26470Y-594632D01*
X25205Y-595559D01*
X23772Y-596487D01*
X22254Y-597499D01*
X20567Y-598511D01*
X18797Y-599438D01*
X16941Y-600366D01*
X15002Y-601294D01*
X12894Y-602137D01*
X10785Y-602896D01*
Y-588729D01*
X10870D01*
X11038Y-588644D01*
X11376Y-588476D01*
X11882Y-588307D01*
X12388Y-588139D01*
X13062Y-587801D01*
X13821Y-587464D01*
X14749Y-587042D01*
X16688Y-586030D01*
X18965Y-584765D01*
X21411Y-583163D01*
X22676Y-582236D01*
X24025Y-581224D01*
X24109Y-581139D01*
X24362Y-580971D01*
X24699Y-580633D01*
X25205Y-580212D01*
X25796Y-579706D01*
X26470Y-579031D01*
X27145Y-578356D01*
X27904Y-577513D01*
X28747Y-576586D01*
X29590Y-575574D01*
X31193Y-573381D01*
X32626Y-570851D01*
X33301Y-569502D01*
X33807Y-568153D01*
X46540D01*
Y-649698D01*
D02*
G37*
G36*
X-986451Y-97789D02*
X-985439Y-97873D01*
X-984174Y-97958D01*
X-982656Y-98211D01*
X-981054Y-98464D01*
X-979283Y-98801D01*
X-977343Y-99307D01*
X-975404Y-99897D01*
X-973380Y-100572D01*
X-971356Y-101415D01*
X-969332Y-102427D01*
X-967393Y-103608D01*
X-965453Y-104957D01*
X-963682Y-106559D01*
X-963598Y-106643D01*
X-963429Y-106812D01*
X-963176Y-107065D01*
X-962754Y-107487D01*
X-962333Y-108077D01*
X-961743Y-108752D01*
X-961152Y-109511D01*
X-960562Y-110354D01*
X-959887Y-111366D01*
X-959213Y-112462D01*
X-958538Y-113727D01*
X-957779Y-115076D01*
X-957105Y-116510D01*
X-956514Y-118028D01*
X-955924Y-119714D01*
X-955334Y-121485D01*
X-971609Y-125364D01*
Y-125280D01*
X-971693Y-125111D01*
X-971778Y-124774D01*
X-971946Y-124352D01*
X-972115Y-123762D01*
X-972368Y-123172D01*
X-972958Y-121738D01*
X-973717Y-120136D01*
X-974813Y-118534D01*
X-976078Y-116847D01*
X-977681Y-115414D01*
X-977765Y-115329D01*
X-977849Y-115245D01*
X-978102Y-115076D01*
X-978524Y-114823D01*
X-978945Y-114570D01*
X-979451Y-114233D01*
X-980801Y-113558D01*
X-982403Y-112884D01*
X-984258Y-112293D01*
X-986366Y-111872D01*
X-987547Y-111703D01*
X-989571D01*
X-990245Y-111787D01*
X-991004Y-111872D01*
X-991848Y-112040D01*
X-992860Y-112209D01*
X-993956Y-112546D01*
X-995052Y-112884D01*
X-996233Y-113305D01*
X-997498Y-113811D01*
X-998763Y-114402D01*
X-999943Y-115161D01*
X-1001124Y-116088D01*
X-1002304Y-117016D01*
X-1003401Y-118196D01*
X-1003485Y-118281D01*
X-1003654Y-118534D01*
X-1003907Y-118871D01*
X-1004244Y-119461D01*
X-1004666Y-120136D01*
X-1005171Y-120979D01*
X-1005677Y-122075D01*
X-1006183Y-123256D01*
X-1006689Y-124605D01*
X-1007195Y-126208D01*
X-1007701Y-127894D01*
X-1008123Y-129834D01*
X-1008460Y-131942D01*
X-1008713Y-134219D01*
X-1008882Y-136664D01*
X-1008966Y-139278D01*
Y-139447D01*
Y-139953D01*
Y-140712D01*
X-1008882Y-141808D01*
X-1008798Y-143073D01*
X-1008713Y-144507D01*
X-1008545Y-146109D01*
X-1008292Y-147795D01*
X-1007617Y-151337D01*
X-1007195Y-153192D01*
X-1006689Y-154963D01*
X-1006015Y-156734D01*
X-1005256Y-158336D01*
X-1004413Y-159854D01*
X-1003485Y-161204D01*
X-1003401Y-161288D01*
X-1003232Y-161457D01*
X-1002895Y-161794D01*
X-1002473Y-162216D01*
X-1001883Y-162722D01*
X-1001292Y-163228D01*
X-1000449Y-163818D01*
X-999606Y-164408D01*
X-998594Y-165083D01*
X-997498Y-165673D01*
X-996317Y-166179D01*
X-995052Y-166685D01*
X-993703Y-167107D01*
X-992185Y-167444D01*
X-990667Y-167613D01*
X-989065Y-167697D01*
X-988390D01*
X-987969Y-167613D01*
X-987378Y-167528D01*
X-986704Y-167444D01*
X-985186Y-167191D01*
X-983415Y-166685D01*
X-981560Y-165926D01*
X-980632Y-165504D01*
X-979620Y-164914D01*
X-978777Y-164324D01*
X-977849Y-163565D01*
X-977765Y-163480D01*
X-977681Y-163396D01*
X-977428Y-163143D01*
X-977090Y-162806D01*
X-976669Y-162300D01*
X-976247Y-161794D01*
X-975741Y-161119D01*
X-975235Y-160360D01*
X-974645Y-159517D01*
X-974139Y-158505D01*
X-973548Y-157493D01*
X-972958Y-156228D01*
X-972452Y-154963D01*
X-971946Y-153530D01*
X-971440Y-152012D01*
X-971019Y-150410D01*
X-955081Y-155385D01*
Y-155554D01*
X-955249Y-155975D01*
X-955502Y-156650D01*
X-955755Y-157578D01*
X-956177Y-158674D01*
X-956683Y-159939D01*
X-957273Y-161372D01*
X-958032Y-162890D01*
X-958791Y-164492D01*
X-959719Y-166095D01*
X-960731Y-167781D01*
X-961827Y-169468D01*
X-963007Y-171070D01*
X-964357Y-172588D01*
X-965790Y-174021D01*
X-967308Y-175286D01*
X-967393Y-175371D01*
X-967730Y-175539D01*
X-968151Y-175877D01*
X-968826Y-176298D01*
X-969669Y-176804D01*
X-970681Y-177310D01*
X-971862Y-177901D01*
X-973211Y-178491D01*
X-974645Y-179081D01*
X-976331Y-179671D01*
X-978102Y-180177D01*
X-980042Y-180683D01*
X-982066Y-181105D01*
X-984174Y-181442D01*
X-986535Y-181611D01*
X-988896Y-181695D01*
X-989571D01*
X-990414Y-181611D01*
X-991595Y-181527D01*
X-992944Y-181358D01*
X-994546Y-181105D01*
X-996317Y-180768D01*
X-998257Y-180346D01*
X-1000280Y-179756D01*
X-1002473Y-178997D01*
X-1004666Y-178069D01*
X-1006858Y-177057D01*
X-1009135Y-175792D01*
X-1011327Y-174274D01*
X-1013436Y-172588D01*
X-1015459Y-170648D01*
X-1015544Y-170480D01*
X-1015881Y-170142D01*
X-1016387Y-169468D01*
X-1017062Y-168625D01*
X-1017821Y-167528D01*
X-1018748Y-166179D01*
X-1019676Y-164577D01*
X-1020603Y-162722D01*
X-1021615Y-160698D01*
X-1022543Y-158421D01*
X-1023386Y-155975D01*
X-1024230Y-153277D01*
X-1024904Y-150325D01*
X-1025410Y-147290D01*
X-1025748Y-143916D01*
X-1025832Y-140459D01*
Y-140375D01*
Y-140206D01*
Y-139953D01*
Y-139531D01*
X-1025748Y-139110D01*
Y-138519D01*
Y-137845D01*
X-1025663Y-137086D01*
X-1025495Y-135399D01*
X-1025242Y-133460D01*
X-1024989Y-131267D01*
X-1024483Y-128906D01*
X-1023977Y-126461D01*
X-1023302Y-123846D01*
X-1022459Y-121232D01*
X-1021447Y-118618D01*
X-1020182Y-116088D01*
X-1018833Y-113558D01*
X-1017230Y-111197D01*
X-1015375Y-109005D01*
X-1015291Y-108836D01*
X-1014869Y-108499D01*
X-1014279Y-107993D01*
X-1013436Y-107234D01*
X-1012424Y-106390D01*
X-1011159Y-105463D01*
X-1009725Y-104367D01*
X-1008039Y-103355D01*
X-1006099Y-102258D01*
X-1004075Y-101246D01*
X-1001798Y-100319D01*
X-999353Y-99476D01*
X-996739Y-98717D01*
X-993956Y-98211D01*
X-991004Y-97789D01*
X-987884Y-97705D01*
X-987210D01*
X-986451Y-97789D01*
D02*
G37*
G36*
X-904568Y-180346D02*
X-920169D01*
Y-121738D01*
X-920253Y-121822D01*
X-920590Y-122075D01*
X-921012Y-122497D01*
X-921687Y-123087D01*
X-922530Y-123678D01*
X-923458Y-124437D01*
X-924638Y-125280D01*
X-925903Y-126208D01*
X-927337Y-127135D01*
X-928855Y-128147D01*
X-930541Y-129159D01*
X-932312Y-130087D01*
X-934167Y-131014D01*
X-936107Y-131942D01*
X-938215Y-132785D01*
X-940323Y-133544D01*
Y-119377D01*
X-940239D01*
X-940070Y-119293D01*
X-939733Y-119124D01*
X-939227Y-118955D01*
X-938721Y-118787D01*
X-938046Y-118449D01*
X-937287Y-118112D01*
X-936360Y-117690D01*
X-934420Y-116678D01*
X-932143Y-115414D01*
X-929698Y-113811D01*
X-928433Y-112884D01*
X-927084Y-111872D01*
X-926999Y-111787D01*
X-926746Y-111619D01*
X-926409Y-111281D01*
X-925903Y-110860D01*
X-925313Y-110354D01*
X-924638Y-109679D01*
X-923964Y-109005D01*
X-923205Y-108161D01*
X-922361Y-107234D01*
X-921518Y-106222D01*
X-919916Y-104029D01*
X-918482Y-101499D01*
X-917808Y-100150D01*
X-917302Y-98801D01*
X-904568D01*
Y-180346D01*
D02*
G37*
G36*
X-625656Y-224789D02*
X-624644Y-224873D01*
X-623379Y-224958D01*
X-621861Y-225211D01*
X-620259Y-225464D01*
X-618488Y-225801D01*
X-616548Y-226307D01*
X-614609Y-226897D01*
X-612585Y-227572D01*
X-610561Y-228415D01*
X-608537Y-229427D01*
X-606598Y-230608D01*
X-604658Y-231957D01*
X-602887Y-233559D01*
X-602803Y-233643D01*
X-602634Y-233812D01*
X-602381Y-234065D01*
X-601960Y-234487D01*
X-601538Y-235077D01*
X-600948Y-235752D01*
X-600357Y-236511D01*
X-599767Y-237354D01*
X-599093Y-238366D01*
X-598418Y-239462D01*
X-597743Y-240727D01*
X-596984Y-242076D01*
X-596310Y-243510D01*
X-595719Y-245028D01*
X-595129Y-246714D01*
X-594539Y-248485D01*
X-610814Y-252364D01*
Y-252280D01*
X-610898Y-252111D01*
X-610983Y-251774D01*
X-611151Y-251352D01*
X-611320Y-250762D01*
X-611573Y-250172D01*
X-612163Y-248738D01*
X-612922Y-247136D01*
X-614019Y-245534D01*
X-615284Y-243847D01*
X-616886Y-242414D01*
X-616970Y-242329D01*
X-617054Y-242245D01*
X-617307Y-242076D01*
X-617729Y-241823D01*
X-618151Y-241570D01*
X-618657Y-241233D01*
X-620006Y-240558D01*
X-621608Y-239884D01*
X-623463Y-239293D01*
X-625572Y-238872D01*
X-626752Y-238703D01*
X-628776D01*
X-629451Y-238787D01*
X-630210Y-238872D01*
X-631053Y-239040D01*
X-632065Y-239209D01*
X-633161Y-239546D01*
X-634257Y-239884D01*
X-635438Y-240305D01*
X-636703Y-240811D01*
X-637968Y-241402D01*
X-639148Y-242161D01*
X-640329Y-243088D01*
X-641510Y-244016D01*
X-642606Y-245196D01*
X-642690Y-245281D01*
X-642859Y-245534D01*
X-643112Y-245871D01*
X-643449Y-246461D01*
X-643871Y-247136D01*
X-644377Y-247979D01*
X-644883Y-249075D01*
X-645389Y-250256D01*
X-645895Y-251605D01*
X-646401Y-253208D01*
X-646907Y-254894D01*
X-647328Y-256834D01*
X-647665Y-258942D01*
X-647918Y-261219D01*
X-648087Y-263664D01*
X-648171Y-266278D01*
Y-266447D01*
Y-266953D01*
Y-267712D01*
X-648087Y-268808D01*
X-648003Y-270073D01*
X-647918Y-271507D01*
X-647750Y-273109D01*
X-647497Y-274795D01*
X-646822Y-278337D01*
X-646401Y-280192D01*
X-645895Y-281963D01*
X-645220Y-283734D01*
X-644461Y-285336D01*
X-643618Y-286854D01*
X-642690Y-288204D01*
X-642606Y-288288D01*
X-642437Y-288457D01*
X-642100Y-288794D01*
X-641678Y-289216D01*
X-641088Y-289722D01*
X-640498Y-290228D01*
X-639654Y-290818D01*
X-638811Y-291408D01*
X-637799Y-292083D01*
X-636703Y-292673D01*
X-635522Y-293179D01*
X-634257Y-293685D01*
X-632908Y-294107D01*
X-631390Y-294444D01*
X-629872Y-294613D01*
X-628270Y-294697D01*
X-627595D01*
X-627174Y-294613D01*
X-626583Y-294528D01*
X-625909Y-294444D01*
X-624391Y-294191D01*
X-622620Y-293685D01*
X-620765Y-292926D01*
X-619837Y-292504D01*
X-618825Y-291914D01*
X-617982Y-291324D01*
X-617054Y-290565D01*
X-616970Y-290480D01*
X-616886Y-290396D01*
X-616633Y-290143D01*
X-616295Y-289806D01*
X-615874Y-289300D01*
X-615452Y-288794D01*
X-614946Y-288119D01*
X-614440Y-287360D01*
X-613850Y-286517D01*
X-613344Y-285505D01*
X-612754Y-284493D01*
X-612163Y-283228D01*
X-611657Y-281963D01*
X-611151Y-280530D01*
X-610645Y-279012D01*
X-610224Y-277410D01*
X-594286Y-282385D01*
Y-282554D01*
X-594454Y-282975D01*
X-594707Y-283650D01*
X-594960Y-284578D01*
X-595382Y-285674D01*
X-595888Y-286939D01*
X-596478Y-288372D01*
X-597237Y-289890D01*
X-597996Y-291492D01*
X-598924Y-293095D01*
X-599936Y-294781D01*
X-601032Y-296468D01*
X-602213Y-298070D01*
X-603562Y-299588D01*
X-604995Y-301021D01*
X-606513Y-302286D01*
X-606598Y-302371D01*
X-606935Y-302539D01*
X-607357Y-302877D01*
X-608031Y-303298D01*
X-608875Y-303804D01*
X-609887Y-304310D01*
X-611067Y-304901D01*
X-612416Y-305491D01*
X-613850Y-306081D01*
X-615536Y-306671D01*
X-617307Y-307177D01*
X-619247Y-307683D01*
X-621271Y-308105D01*
X-623379Y-308442D01*
X-625740Y-308611D01*
X-628101Y-308695D01*
X-628776D01*
X-629619Y-308611D01*
X-630800Y-308527D01*
X-632149Y-308358D01*
X-633751Y-308105D01*
X-635522Y-307768D01*
X-637462Y-307346D01*
X-639486Y-306756D01*
X-641678Y-305997D01*
X-643871Y-305069D01*
X-646063Y-304057D01*
X-648340Y-302792D01*
X-650533Y-301274D01*
X-652641Y-299588D01*
X-654665Y-297648D01*
X-654749Y-297480D01*
X-655086Y-297142D01*
X-655592Y-296468D01*
X-656267Y-295625D01*
X-657026Y-294528D01*
X-657953Y-293179D01*
X-658881Y-291577D01*
X-659809Y-289722D01*
X-660821Y-287698D01*
X-661748Y-285421D01*
X-662592Y-282975D01*
X-663435Y-280277D01*
X-664109Y-277325D01*
X-664615Y-274290D01*
X-664953Y-270916D01*
X-665037Y-267459D01*
Y-267375D01*
Y-267206D01*
Y-266953D01*
Y-266531D01*
X-664953Y-266110D01*
Y-265519D01*
Y-264845D01*
X-664868Y-264086D01*
X-664700Y-262399D01*
X-664447Y-260460D01*
X-664194Y-258267D01*
X-663688Y-255906D01*
X-663182Y-253461D01*
X-662507Y-250846D01*
X-661664Y-248232D01*
X-660652Y-245618D01*
X-659387Y-243088D01*
X-658038Y-240558D01*
X-656436Y-238197D01*
X-654580Y-236005D01*
X-654496Y-235836D01*
X-654074Y-235499D01*
X-653484Y-234993D01*
X-652641Y-234234D01*
X-651629Y-233390D01*
X-650364Y-232463D01*
X-648930Y-231367D01*
X-647244Y-230355D01*
X-645304Y-229258D01*
X-643280Y-228246D01*
X-641004Y-227319D01*
X-638558Y-226476D01*
X-635944Y-225717D01*
X-633161Y-225211D01*
X-630210Y-224789D01*
X-627089Y-224705D01*
X-626415D01*
X-625656Y-224789D01*
D02*
G37*
G36*
X-532389Y-241823D02*
X-561820D01*
X-564349Y-255653D01*
X-564265D01*
X-564096Y-255569D01*
X-563843Y-255400D01*
X-563422Y-255231D01*
X-563000Y-255063D01*
X-562410Y-254810D01*
X-561061Y-254304D01*
X-559458Y-253882D01*
X-557603Y-253461D01*
X-555664Y-253123D01*
X-553640Y-253039D01*
X-553218D01*
X-552628Y-253123D01*
X-551869D01*
X-551026Y-253292D01*
X-550014Y-253461D01*
X-548833Y-253713D01*
X-547568Y-253966D01*
X-546219Y-254388D01*
X-544785Y-254894D01*
X-543352Y-255484D01*
X-541834Y-256243D01*
X-540316Y-257087D01*
X-538882Y-258099D01*
X-537364Y-259279D01*
X-536015Y-260628D01*
X-535931Y-260713D01*
X-535678Y-260966D01*
X-535341Y-261387D01*
X-534919Y-261978D01*
X-534329Y-262737D01*
X-533738Y-263664D01*
X-533064Y-264676D01*
X-532389Y-265857D01*
X-531714Y-267206D01*
X-531040Y-268640D01*
X-530450Y-270242D01*
X-529859Y-272013D01*
X-529438Y-273868D01*
X-529100Y-275807D01*
X-528847Y-277916D01*
X-528763Y-280108D01*
Y-280192D01*
Y-280530D01*
Y-281120D01*
X-528847Y-281795D01*
X-528932Y-282638D01*
X-529100Y-283734D01*
X-529269Y-284831D01*
X-529522Y-286095D01*
X-529775Y-287445D01*
X-530197Y-288878D01*
X-530618Y-290396D01*
X-531208Y-291914D01*
X-531883Y-293432D01*
X-532642Y-294950D01*
X-533570Y-296468D01*
X-534582Y-297986D01*
X-534666Y-298070D01*
X-534919Y-298407D01*
X-535425Y-298998D01*
X-536015Y-299672D01*
X-536858Y-300431D01*
X-537870Y-301359D01*
X-538967Y-302371D01*
X-540316Y-303298D01*
X-541749Y-304310D01*
X-543436Y-305322D01*
X-545207Y-306250D01*
X-547231Y-307009D01*
X-549339Y-307683D01*
X-551616Y-308274D01*
X-554061Y-308611D01*
X-556591Y-308695D01*
X-557687D01*
X-558446Y-308611D01*
X-559458Y-308527D01*
X-560555Y-308358D01*
X-561820Y-308189D01*
X-563084Y-307936D01*
X-564518Y-307599D01*
X-566036Y-307262D01*
X-567554Y-306756D01*
X-569072Y-306166D01*
X-570674Y-305491D01*
X-572108Y-304648D01*
X-573625Y-303720D01*
X-574975Y-302708D01*
X-575059Y-302624D01*
X-575312Y-302455D01*
X-575649Y-302118D01*
X-576071Y-301612D01*
X-576661Y-301021D01*
X-577252Y-300263D01*
X-577926Y-299419D01*
X-578685Y-298407D01*
X-579444Y-297311D01*
X-580119Y-296046D01*
X-580878Y-294697D01*
X-581552Y-293263D01*
X-582143Y-291745D01*
X-582649Y-290059D01*
X-583070Y-288288D01*
X-583408Y-286433D01*
X-567891Y-284831D01*
Y-284915D01*
Y-285084D01*
X-567807Y-285336D01*
X-567723Y-285674D01*
X-567554Y-286686D01*
X-567217Y-287866D01*
X-566711Y-289216D01*
X-566036Y-290565D01*
X-565108Y-291914D01*
X-564012Y-293179D01*
X-563843Y-293348D01*
X-563422Y-293685D01*
X-562747Y-294107D01*
X-561820Y-294697D01*
X-560723Y-295287D01*
X-559458Y-295709D01*
X-557940Y-296046D01*
X-556423Y-296215D01*
X-555917D01*
X-555579Y-296130D01*
X-554736Y-296046D01*
X-553555Y-295709D01*
X-552290Y-295287D01*
X-550941Y-294613D01*
X-549592Y-293601D01*
X-548917Y-293010D01*
X-548243Y-292336D01*
Y-292251D01*
X-548074Y-292167D01*
X-547905Y-291914D01*
X-547737Y-291577D01*
X-547399Y-291155D01*
X-547146Y-290649D01*
X-546809Y-290059D01*
X-546472Y-289384D01*
X-546219Y-288541D01*
X-545882Y-287698D01*
X-545544Y-286686D01*
X-545291Y-285589D01*
X-545123Y-284409D01*
X-544954Y-283144D01*
X-544785Y-281795D01*
Y-280361D01*
Y-280277D01*
Y-280024D01*
Y-279687D01*
X-544870Y-279181D01*
Y-278506D01*
X-544954Y-277831D01*
X-545207Y-276145D01*
X-545629Y-274374D01*
X-546219Y-272519D01*
X-547062Y-270748D01*
X-547568Y-269989D01*
X-548158Y-269230D01*
Y-269146D01*
X-548327Y-269061D01*
X-548749Y-268640D01*
X-549508Y-268049D01*
X-550520Y-267290D01*
X-551785Y-266616D01*
X-553302Y-266025D01*
X-554989Y-265604D01*
X-555917Y-265435D01*
X-557603D01*
X-558025Y-265519D01*
X-558615Y-265604D01*
X-559374Y-265772D01*
X-560133Y-265941D01*
X-560976Y-266194D01*
X-561904Y-266447D01*
X-562831Y-266869D01*
X-563843Y-267375D01*
X-564855Y-267881D01*
X-565867Y-268640D01*
X-566964Y-269398D01*
X-567975Y-270326D01*
X-568987Y-271338D01*
X-581552Y-269567D01*
X-573541Y-227234D01*
X-532389D01*
Y-241823D01*
D02*
G37*
G36*
X-613944Y-993273D02*
X-629545D01*
Y-934665D01*
X-629629Y-934749D01*
X-629966Y-935002D01*
X-630388Y-935424D01*
X-631062Y-936014D01*
X-631906Y-936604D01*
X-632833Y-937363D01*
X-634014Y-938206D01*
X-635279Y-939134D01*
X-636712Y-940062D01*
X-638230Y-941074D01*
X-639917Y-942085D01*
X-641688Y-943013D01*
X-643543Y-943941D01*
X-645483Y-944868D01*
X-647591Y-945712D01*
X-649699Y-946471D01*
Y-932303D01*
X-649615D01*
X-649446Y-932219D01*
X-649109Y-932050D01*
X-648603Y-931882D01*
X-648097Y-931713D01*
X-647422Y-931376D01*
X-646663Y-931039D01*
X-645736Y-930617D01*
X-643796Y-929605D01*
X-641519Y-928340D01*
X-639074Y-926738D01*
X-637809Y-925810D01*
X-636459Y-924798D01*
X-636375Y-924714D01*
X-636122Y-924545D01*
X-635785Y-924208D01*
X-635279Y-923786D01*
X-634689Y-923280D01*
X-634014Y-922606D01*
X-633339Y-921931D01*
X-632580Y-921088D01*
X-631737Y-920160D01*
X-630894Y-919148D01*
X-629292Y-916956D01*
X-627858Y-914426D01*
X-627183Y-913077D01*
X-626677Y-911727D01*
X-613944D01*
Y-993273D01*
D02*
G37*
G36*
X-694561Y-912065D02*
X-693381D01*
X-691947Y-912149D01*
X-690514Y-912233D01*
X-687478Y-912486D01*
X-684273Y-912908D01*
X-682840Y-913161D01*
X-681406Y-913414D01*
X-680057Y-913751D01*
X-678876Y-914173D01*
X-678792D01*
X-678623Y-914257D01*
X-678286Y-914426D01*
X-677865Y-914595D01*
X-677359Y-914848D01*
X-676853Y-915185D01*
X-675503Y-915944D01*
X-673985Y-917040D01*
X-672383Y-918389D01*
X-670865Y-920076D01*
X-669432Y-922015D01*
X-669347Y-922100D01*
X-669263Y-922268D01*
X-669094Y-922606D01*
X-668841Y-923027D01*
X-668588Y-923533D01*
X-668251Y-924124D01*
X-667914Y-924883D01*
X-667577Y-925726D01*
X-667239Y-926569D01*
X-666986Y-927581D01*
X-666396Y-929774D01*
X-665974Y-932219D01*
X-665806Y-933484D01*
Y-934833D01*
Y-934918D01*
Y-935255D01*
Y-935677D01*
X-665890Y-936351D01*
X-665974Y-937110D01*
X-666059Y-938038D01*
X-666227Y-939050D01*
X-666480Y-940146D01*
X-667155Y-942591D01*
X-667577Y-943856D01*
X-668082Y-945121D01*
X-668673Y-946386D01*
X-669432Y-947651D01*
X-670275Y-948832D01*
X-671203Y-950012D01*
X-671287Y-950097D01*
X-671456Y-950265D01*
X-671793Y-950603D01*
X-672215Y-950940D01*
X-672805Y-951446D01*
X-673479Y-951952D01*
X-674323Y-952542D01*
X-675250Y-953132D01*
X-676262Y-953807D01*
X-677443Y-954397D01*
X-678792Y-955072D01*
X-680226Y-955662D01*
X-681828Y-956168D01*
X-683515Y-956674D01*
X-685285Y-957096D01*
X-687225Y-957433D01*
X-687141D01*
X-686972Y-957602D01*
X-686719Y-957770D01*
X-686297Y-957939D01*
X-685370Y-958614D01*
X-684105Y-959457D01*
X-682756Y-960469D01*
X-681322Y-961650D01*
X-679804Y-962915D01*
X-678455Y-964264D01*
X-678371D01*
X-678286Y-964432D01*
X-678118Y-964685D01*
X-677780Y-965023D01*
X-677443Y-965444D01*
X-677021Y-965950D01*
X-676600Y-966541D01*
X-676009Y-967300D01*
X-675335Y-968143D01*
X-674660Y-969155D01*
X-673901Y-970167D01*
X-673058Y-971432D01*
X-672215Y-972781D01*
X-671287Y-974214D01*
X-670275Y-975817D01*
X-669179Y-977503D01*
X-659228Y-993273D01*
X-678876D01*
X-690682Y-975564D01*
X-690767Y-975479D01*
X-690935Y-975142D01*
X-691273Y-974636D01*
X-691694Y-974046D01*
X-692200Y-973287D01*
X-692791Y-972444D01*
X-694140Y-970504D01*
X-695573Y-968480D01*
X-697007Y-966541D01*
X-697682Y-965697D01*
X-698356Y-964854D01*
X-698862Y-964179D01*
X-699368Y-963673D01*
X-699453Y-963589D01*
X-699790Y-963252D01*
X-700211Y-962830D01*
X-700802Y-962324D01*
X-701561Y-961734D01*
X-702404Y-961228D01*
X-703332Y-960722D01*
X-704259Y-960300D01*
X-704344Y-960216D01*
X-704765Y-960132D01*
X-705355Y-959963D01*
X-706283Y-959794D01*
X-707464Y-959626D01*
X-708813Y-959541D01*
X-710584Y-959373D01*
X-715812D01*
Y-993273D01*
X-732256D01*
Y-911980D01*
X-695658D01*
X-694561Y-912065D01*
D02*
G37*
G36*
X-293087Y-730436D02*
X-276727D01*
Y-745531D01*
X-293087D01*
Y-778756D01*
X-306664D01*
X-358273Y-743592D01*
Y-730436D01*
X-306748D01*
Y-720317D01*
X-293087D01*
Y-730436D01*
D02*
G37*
G36*
X-276727Y-801103D02*
X-294436Y-812909D01*
X-294521Y-812994D01*
X-294858Y-813162D01*
X-295364Y-813500D01*
X-295954Y-813921D01*
X-296713Y-814427D01*
X-297556Y-815017D01*
X-299496Y-816367D01*
X-301520Y-817800D01*
X-303459Y-819234D01*
X-304303Y-819908D01*
X-305146Y-820583D01*
X-305821Y-821089D01*
X-306327Y-821595D01*
X-306411Y-821679D01*
X-306748Y-822017D01*
X-307170Y-822438D01*
X-307676Y-823029D01*
X-308266Y-823788D01*
X-308772Y-824631D01*
X-309278Y-825558D01*
X-309700Y-826486D01*
X-309784Y-826570D01*
X-309868Y-826992D01*
X-310037Y-827582D01*
X-310206Y-828510D01*
X-310374Y-829690D01*
X-310459Y-831040D01*
X-310627Y-832811D01*
Y-838039D01*
X-276727D01*
Y-854483D01*
X-358020D01*
Y-817885D01*
X-357935Y-816788D01*
Y-815608D01*
X-357851Y-814174D01*
X-357767Y-812741D01*
X-357514Y-809705D01*
X-357092Y-806500D01*
X-356839Y-805067D01*
X-356586Y-803633D01*
X-356249Y-802284D01*
X-355827Y-801103D01*
Y-801019D01*
X-355743Y-800850D01*
X-355574Y-800513D01*
X-355405Y-800091D01*
X-355152Y-799585D01*
X-354815Y-799079D01*
X-354056Y-797730D01*
X-352960Y-796212D01*
X-351611Y-794610D01*
X-349924Y-793092D01*
X-347985Y-791659D01*
X-347900Y-791574D01*
X-347732Y-791490D01*
X-347394Y-791321D01*
X-346973Y-791068D01*
X-346467Y-790815D01*
X-345876Y-790478D01*
X-345117Y-790141D01*
X-344274Y-789803D01*
X-343431Y-789466D01*
X-342419Y-789213D01*
X-340226Y-788623D01*
X-337781Y-788201D01*
X-336516Y-788032D01*
X-335167D01*
X-335082D01*
X-334745D01*
X-334323D01*
X-333649Y-788117D01*
X-332890Y-788201D01*
X-331962Y-788285D01*
X-330950Y-788454D01*
X-329854Y-788707D01*
X-327409Y-789382D01*
X-326144Y-789803D01*
X-324879Y-790309D01*
X-323614Y-790900D01*
X-322349Y-791659D01*
X-321168Y-792502D01*
X-319988Y-793429D01*
X-319903Y-793514D01*
X-319735Y-793682D01*
X-319397Y-794020D01*
X-319060Y-794441D01*
X-318554Y-795032D01*
X-318048Y-795706D01*
X-317458Y-796550D01*
X-316868Y-797477D01*
X-316193Y-798489D01*
X-315603Y-799670D01*
X-314928Y-801019D01*
X-314338Y-802453D01*
X-313832Y-804055D01*
X-313326Y-805741D01*
X-312904Y-807512D01*
X-312567Y-809452D01*
Y-809367D01*
X-312398Y-809199D01*
X-312229Y-808946D01*
X-312061Y-808524D01*
X-311386Y-807597D01*
X-310543Y-806332D01*
X-309531Y-804982D01*
X-308350Y-803549D01*
X-307085Y-802031D01*
X-305736Y-800682D01*
Y-800597D01*
X-305568Y-800513D01*
X-305315Y-800344D01*
X-304977Y-800007D01*
X-304556Y-799670D01*
X-304050Y-799248D01*
X-303459Y-798826D01*
X-302700Y-798236D01*
X-301857Y-797562D01*
X-300845Y-796887D01*
X-299833Y-796128D01*
X-298568Y-795285D01*
X-297219Y-794441D01*
X-295786Y-793514D01*
X-294183Y-792502D01*
X-292497Y-791406D01*
X-276727Y-781455D01*
Y-801103D01*
D02*
G37*
G36*
X26597Y-923837D02*
X27440D01*
X28368Y-924006D01*
X29464Y-924174D01*
X30729Y-924343D01*
X32078Y-924680D01*
X33512Y-925018D01*
X35030Y-925524D01*
X36548Y-926114D01*
X38065Y-926873D01*
X39583Y-927716D01*
X41101Y-928644D01*
X42535Y-929824D01*
X43884Y-931089D01*
X43968Y-931174D01*
X44137Y-931342D01*
X44390Y-931680D01*
X44812Y-932101D01*
X45233Y-932692D01*
X45739Y-933366D01*
X46245Y-934125D01*
X46751Y-935053D01*
X47257Y-935980D01*
X47848Y-936992D01*
X48691Y-939269D01*
X49112Y-940534D01*
X49365Y-941883D01*
X49534Y-943233D01*
X49618Y-944582D01*
Y-944666D01*
Y-945088D01*
X49534Y-945594D01*
X49450Y-946353D01*
X49281Y-947280D01*
X49028Y-948292D01*
X48606Y-949473D01*
X48185Y-950738D01*
X47510Y-952087D01*
X46751Y-953436D01*
X45824Y-954870D01*
X44643Y-956303D01*
X43294Y-957737D01*
X41776Y-959086D01*
X39921Y-960435D01*
X37897Y-961700D01*
X37981D01*
X38234Y-961785D01*
X38571Y-961869D01*
X39077Y-962038D01*
X39668Y-962206D01*
X40342Y-962459D01*
X41945Y-963050D01*
X43715Y-963977D01*
X45571Y-965074D01*
X47342Y-966591D01*
X48185Y-967435D01*
X49028Y-968362D01*
X49112Y-968447D01*
X49197Y-968615D01*
X49450Y-968868D01*
X49703Y-969290D01*
X50040Y-969796D01*
X50377Y-970386D01*
X50715Y-971061D01*
X51136Y-971904D01*
X51558Y-972747D01*
X51895Y-973759D01*
X52570Y-975867D01*
X53076Y-978313D01*
X53160Y-979578D01*
X53244Y-980927D01*
Y-981011D01*
Y-981433D01*
X53160Y-981939D01*
Y-982698D01*
X52992Y-983626D01*
X52823Y-984722D01*
X52570Y-985903D01*
X52233Y-987252D01*
X51811Y-988601D01*
X51305Y-990119D01*
X50715Y-991553D01*
X49956Y-993155D01*
X49028Y-994673D01*
X48016Y-996191D01*
X46751Y-997708D01*
X45402Y-999142D01*
X45318Y-999226D01*
X45065Y-999479D01*
X44643Y-999817D01*
X43968Y-1000323D01*
X43209Y-1000913D01*
X42282Y-1001503D01*
X41270Y-1002178D01*
X40005Y-1002852D01*
X38656Y-1003611D01*
X37222Y-1004286D01*
X35620Y-1004876D01*
X33849Y-1005467D01*
X32078Y-1005973D01*
X30139Y-1006310D01*
X28030Y-1006563D01*
X25922Y-1006647D01*
X25416D01*
X24826Y-1006563D01*
X24067D01*
X23139Y-1006479D01*
X22043Y-1006310D01*
X20863Y-1006141D01*
X19513Y-1005888D01*
X18080Y-1005551D01*
X16562Y-1005129D01*
X15044Y-1004623D01*
X13526Y-1003949D01*
X12008Y-1003274D01*
X10490Y-1002431D01*
X9057Y-1001419D01*
X7623Y-1000323D01*
X7539Y-1000238D01*
X7286Y-1000070D01*
X6948Y-999648D01*
X6442Y-999142D01*
X5936Y-998552D01*
X5262Y-997793D01*
X4587Y-996865D01*
X3828Y-995853D01*
X3154Y-994757D01*
X2395Y-993492D01*
X1720Y-992143D01*
X1045Y-990625D01*
X455Y-989023D01*
X-51Y-987336D01*
X-472Y-985565D01*
X-725Y-983710D01*
X14369Y-981855D01*
Y-981939D01*
Y-982108D01*
X14454Y-982445D01*
X14538Y-982782D01*
X14622Y-983288D01*
X14791Y-983879D01*
X15128Y-985144D01*
X15634Y-986577D01*
X16225Y-988011D01*
X17068Y-989444D01*
X18164Y-990709D01*
X18333Y-990878D01*
X18754Y-991215D01*
X19429Y-991637D01*
X20357Y-992227D01*
X21453Y-992817D01*
X22718Y-993239D01*
X24236Y-993576D01*
X25838Y-993745D01*
X26344D01*
X26681Y-993661D01*
X27524Y-993576D01*
X28621Y-993323D01*
X29970Y-992817D01*
X31319Y-992227D01*
X32668Y-991300D01*
X33343Y-990794D01*
X33933Y-990119D01*
Y-990035D01*
X34102Y-989950D01*
X34439Y-989444D01*
X35030Y-988601D01*
X35620Y-987505D01*
X36210Y-986156D01*
X36801Y-984385D01*
X37138Y-982445D01*
X37307Y-980253D01*
Y-980168D01*
Y-980000D01*
Y-979662D01*
X37222Y-979241D01*
Y-978735D01*
X37138Y-978229D01*
X36885Y-976879D01*
X36548Y-975362D01*
X35957Y-973844D01*
X35198Y-972326D01*
X34102Y-970892D01*
X33933Y-970723D01*
X33512Y-970386D01*
X32837Y-969796D01*
X31910Y-969121D01*
X30813Y-968531D01*
X29464Y-967941D01*
X27946Y-967603D01*
X26344Y-967435D01*
X25838D01*
X25163Y-967519D01*
X24320Y-967603D01*
X23308Y-967688D01*
X22127Y-967941D01*
X20778Y-968194D01*
X19260Y-968615D01*
X20947Y-956050D01*
X21959D01*
X22549Y-955966D01*
X23139D01*
X24573Y-955797D01*
X26091Y-955460D01*
X27693Y-954954D01*
X29295Y-954280D01*
X30645Y-953352D01*
X30813Y-953183D01*
X31151Y-952846D01*
X31741Y-952171D01*
X32331Y-951328D01*
X32921Y-950232D01*
X33512Y-948883D01*
X33849Y-947365D01*
X34018Y-945678D01*
Y-945594D01*
Y-945509D01*
Y-945003D01*
X33933Y-944244D01*
X33680Y-943317D01*
X33427Y-942221D01*
X33006Y-941124D01*
X32415Y-940112D01*
X31572Y-939100D01*
X31488Y-939016D01*
X31151Y-938679D01*
X30560Y-938342D01*
X29801Y-937836D01*
X28874Y-937414D01*
X27777Y-936992D01*
X26428Y-936739D01*
X24995Y-936655D01*
X24320D01*
X23561Y-936824D01*
X22633Y-936992D01*
X21621Y-937330D01*
X20441Y-937836D01*
X19260Y-938510D01*
X18164Y-939438D01*
X18080Y-939606D01*
X17742Y-939944D01*
X17236Y-940618D01*
X16730Y-941462D01*
X16140Y-942642D01*
X15550Y-943992D01*
X15128Y-945678D01*
X14791Y-947533D01*
X455Y-945172D01*
Y-945088D01*
X539Y-944835D01*
X624Y-944497D01*
X708Y-943907D01*
X877Y-943317D01*
X1045Y-942558D01*
X1551Y-940871D01*
X2142Y-939016D01*
X2985Y-937077D01*
X3828Y-935137D01*
X4925Y-933366D01*
Y-933282D01*
X5093Y-933198D01*
X5262Y-932945D01*
X5515Y-932607D01*
X6189Y-931848D01*
X7117Y-930836D01*
X8298Y-929656D01*
X9731Y-928559D01*
X11418Y-927379D01*
X13357Y-926367D01*
X13442D01*
X13610Y-926283D01*
X13863Y-926114D01*
X14285Y-925945D01*
X14791Y-925777D01*
X15466Y-925524D01*
X16140Y-925271D01*
X16899Y-925018D01*
X18670Y-924596D01*
X20778Y-924174D01*
X23055Y-923837D01*
X25501Y-923753D01*
X26007D01*
X26597Y-923837D01*
D02*
G37*
G36*
X-40950Y-924090D02*
X-39769D01*
X-38336Y-924174D01*
X-36902Y-924259D01*
X-33866Y-924512D01*
X-30662Y-924933D01*
X-29228Y-925186D01*
X-27795Y-925439D01*
X-26445Y-925777D01*
X-25265Y-926198D01*
X-25181D01*
X-25012Y-926283D01*
X-24675Y-926451D01*
X-24253Y-926620D01*
X-23747Y-926873D01*
X-23241Y-927210D01*
X-21892Y-927969D01*
X-20374Y-929065D01*
X-18772Y-930415D01*
X-17254Y-932101D01*
X-15820Y-934041D01*
X-15736Y-934125D01*
X-15651Y-934294D01*
X-15483Y-934631D01*
X-15230Y-935053D01*
X-14977Y-935559D01*
X-14640Y-936149D01*
X-14302Y-936908D01*
X-13965Y-937751D01*
X-13628Y-938595D01*
X-13375Y-939606D01*
X-12784Y-941799D01*
X-12363Y-944244D01*
X-12194Y-945509D01*
Y-946859D01*
Y-946943D01*
Y-947280D01*
Y-947702D01*
X-12278Y-948377D01*
X-12363Y-949136D01*
X-12447Y-950063D01*
X-12616Y-951075D01*
X-12869Y-952171D01*
X-13543Y-954617D01*
X-13965Y-955882D01*
X-14471Y-957147D01*
X-15061Y-958412D01*
X-15820Y-959677D01*
X-16663Y-960857D01*
X-17591Y-962038D01*
X-17675Y-962122D01*
X-17844Y-962291D01*
X-18181Y-962628D01*
X-18603Y-962965D01*
X-19193Y-963471D01*
X-19868Y-963977D01*
X-20711Y-964568D01*
X-21639Y-965158D01*
X-22651Y-965832D01*
X-23831Y-966423D01*
X-25181Y-967097D01*
X-26614Y-967688D01*
X-28216Y-968194D01*
X-29903Y-968700D01*
X-31674Y-969121D01*
X-33613Y-969459D01*
X-33529D01*
X-33360Y-969627D01*
X-33107Y-969796D01*
X-32686Y-969965D01*
X-31758Y-970639D01*
X-30493Y-971482D01*
X-29144Y-972494D01*
X-27710Y-973675D01*
X-26192Y-974940D01*
X-24843Y-976289D01*
X-24759D01*
X-24675Y-976458D01*
X-24506Y-976711D01*
X-24169Y-977048D01*
X-23831Y-977470D01*
X-23410Y-977976D01*
X-22988Y-978566D01*
X-22398Y-979325D01*
X-21723Y-980168D01*
X-21048Y-981180D01*
X-20290Y-982192D01*
X-19446Y-983457D01*
X-18603Y-984806D01*
X-17675Y-986240D01*
X-16663Y-987842D01*
X-15567Y-989529D01*
X-5616Y-1005298D01*
X-25265D01*
X-37071Y-987589D01*
X-37155Y-987505D01*
X-37324Y-987167D01*
X-37661Y-986661D01*
X-38083Y-986071D01*
X-38589Y-985312D01*
X-39179Y-984469D01*
X-40528Y-982529D01*
X-41962Y-980506D01*
X-43395Y-978566D01*
X-44070Y-977723D01*
X-44745Y-976879D01*
X-45251Y-976205D01*
X-45757Y-975699D01*
X-45841Y-975615D01*
X-46178Y-975277D01*
X-46600Y-974856D01*
X-47190Y-974350D01*
X-47949Y-973759D01*
X-48792Y-973253D01*
X-49720Y-972747D01*
X-50648Y-972326D01*
X-50732Y-972241D01*
X-51154Y-972157D01*
X-51744Y-971988D01*
X-52671Y-971820D01*
X-53852Y-971651D01*
X-55201Y-971567D01*
X-56972Y-971398D01*
X-62201D01*
Y-1005298D01*
X-78644D01*
Y-924006D01*
X-42046D01*
X-40950Y-924090D01*
D02*
G37*
G36*
X422742Y-416512D02*
X423754Y-416596D01*
X424935Y-416765D01*
X426200Y-416933D01*
X427633Y-417271D01*
X429067Y-417608D01*
X430669Y-418030D01*
X432187Y-418536D01*
X433789Y-419126D01*
X435307Y-419885D01*
X436825Y-420812D01*
X438259Y-421740D01*
X439608Y-422921D01*
X439692Y-423005D01*
X439945Y-423174D01*
X440283Y-423595D01*
X440704Y-424101D01*
X441210Y-424692D01*
X441800Y-425451D01*
X442391Y-426378D01*
X443065Y-427390D01*
X443740Y-428486D01*
X444330Y-429667D01*
X444921Y-431016D01*
X445427Y-432450D01*
X445848Y-433968D01*
X446270Y-435570D01*
X446439Y-437256D01*
X446523Y-439027D01*
Y-439112D01*
Y-439280D01*
Y-439533D01*
Y-439955D01*
X446439Y-440461D01*
Y-441051D01*
X446270Y-442400D01*
X446017Y-444003D01*
X445680Y-445774D01*
X445174Y-447629D01*
X444499Y-449484D01*
Y-449568D01*
X444415Y-449737D01*
X444330Y-449990D01*
X444162Y-450327D01*
X443909Y-450833D01*
X443656Y-451339D01*
X442981Y-452604D01*
X442138Y-454206D01*
X441042Y-455977D01*
X439777Y-457832D01*
X438259Y-459856D01*
X438090Y-460025D01*
X437753Y-460531D01*
X436994Y-461374D01*
X436488Y-461880D01*
X435982Y-462470D01*
X435307Y-463229D01*
X434548Y-463988D01*
X433705Y-464832D01*
X432777Y-465759D01*
X431765Y-466771D01*
X430585Y-467867D01*
X429404Y-468964D01*
X428055Y-470229D01*
X427971Y-470313D01*
X427718Y-470482D01*
X427380Y-470903D01*
X426874Y-471325D01*
X426284Y-471831D01*
X425610Y-472506D01*
X424176Y-473855D01*
X422574Y-475373D01*
X421056Y-476891D01*
X420297Y-477565D01*
X419707Y-478240D01*
X419116Y-478746D01*
X418695Y-479252D01*
X418610Y-479336D01*
X418357Y-479589D01*
X418020Y-480011D01*
X417598Y-480601D01*
X417092Y-481276D01*
X416586Y-481950D01*
X415574Y-483468D01*
X446523D01*
Y-497973D01*
X391963D01*
Y-497888D01*
X392047Y-497635D01*
Y-497129D01*
X392131Y-496539D01*
X392300Y-495864D01*
X392469Y-495021D01*
X392637Y-494009D01*
X392975Y-492997D01*
X393228Y-491817D01*
X393649Y-490552D01*
X394492Y-487938D01*
X395673Y-485239D01*
X397191Y-482456D01*
X397275Y-482372D01*
X397444Y-482119D01*
X397697Y-481697D01*
X398119Y-481107D01*
X398625Y-480348D01*
X399299Y-479505D01*
X400142Y-478493D01*
X401070Y-477228D01*
X402166Y-475963D01*
X403431Y-474445D01*
X404865Y-472843D01*
X406467Y-471156D01*
X408238Y-469301D01*
X410262Y-467277D01*
X412370Y-465169D01*
X414731Y-462976D01*
X414816Y-462892D01*
X415153Y-462555D01*
X415743Y-462049D01*
X416418Y-461374D01*
X417261Y-460615D01*
X418189Y-459688D01*
X419201Y-458676D01*
X420297Y-457664D01*
X422489Y-455471D01*
X424598Y-453279D01*
X425610Y-452267D01*
X426368Y-451255D01*
X427127Y-450412D01*
X427633Y-449737D01*
Y-449653D01*
X427802Y-449484D01*
X427971Y-449231D01*
X428139Y-448894D01*
X428392Y-448472D01*
X428645Y-447966D01*
X429320Y-446701D01*
X429910Y-445268D01*
X430416Y-443665D01*
X430754Y-441979D01*
X430922Y-440208D01*
Y-440124D01*
Y-439955D01*
Y-439702D01*
Y-439365D01*
X430754Y-438437D01*
X430585Y-437256D01*
X430248Y-435992D01*
X429742Y-434642D01*
X428983Y-433377D01*
X428055Y-432197D01*
X427971Y-432112D01*
X427549Y-431775D01*
X426959Y-431269D01*
X426031Y-430763D01*
X424935Y-430257D01*
X423670Y-429751D01*
X422152Y-429414D01*
X420381Y-429330D01*
X419875D01*
X419538Y-429414D01*
X418695Y-429498D01*
X417598Y-429667D01*
X416333Y-430089D01*
X415069Y-430595D01*
X413804Y-431269D01*
X412623Y-432281D01*
X412539Y-432450D01*
X412201Y-432871D01*
X411695Y-433546D01*
X411105Y-434642D01*
X410599Y-435992D01*
X410262Y-436750D01*
X410009Y-437678D01*
X409756Y-438606D01*
X409587Y-439702D01*
X409419Y-440798D01*
X409334Y-442063D01*
X393818Y-440545D01*
Y-440377D01*
X393902Y-439955D01*
X393987Y-439280D01*
X394155Y-438437D01*
X394324Y-437341D01*
X394661Y-436160D01*
X394998Y-434811D01*
X395420Y-433377D01*
X395926Y-431859D01*
X396516Y-430342D01*
X397191Y-428824D01*
X398034Y-427306D01*
X398962Y-425872D01*
X399974Y-424439D01*
X401154Y-423174D01*
X402419Y-422077D01*
X402504Y-421993D01*
X402757Y-421824D01*
X403178Y-421571D01*
X403769Y-421150D01*
X404443Y-420728D01*
X405286Y-420307D01*
X406298Y-419801D01*
X407479Y-419210D01*
X408744Y-418704D01*
X410093Y-418198D01*
X411611Y-417777D01*
X413213Y-417271D01*
X414984Y-416933D01*
X416755Y-416680D01*
X418695Y-416512D01*
X420718Y-416427D01*
X421899D01*
X422742Y-416512D01*
D02*
G37*
G36*
X353172Y-416765D02*
X354352D01*
X355786Y-416849D01*
X357220Y-416933D01*
X360255Y-417186D01*
X363460Y-417608D01*
X364893Y-417861D01*
X366327Y-418114D01*
X367676Y-418451D01*
X368857Y-418873D01*
X368941D01*
X369110Y-418957D01*
X369447Y-419126D01*
X369869Y-419295D01*
X370375Y-419548D01*
X370881Y-419885D01*
X372230Y-420644D01*
X373748Y-421740D01*
X375350Y-423089D01*
X376868Y-424776D01*
X378302Y-426715D01*
X378386Y-426800D01*
X378470Y-426968D01*
X378639Y-427306D01*
X378892Y-427727D01*
X379145Y-428233D01*
X379482Y-428824D01*
X379819Y-429583D01*
X380157Y-430426D01*
X380494Y-431269D01*
X380747Y-432281D01*
X381337Y-434474D01*
X381759Y-436919D01*
X381928Y-438184D01*
Y-439533D01*
Y-439618D01*
Y-439955D01*
Y-440377D01*
X381843Y-441051D01*
X381759Y-441810D01*
X381675Y-442738D01*
X381506Y-443750D01*
X381253Y-444846D01*
X380578Y-447291D01*
X380157Y-448556D01*
X379651Y-449821D01*
X379060Y-451086D01*
X378302Y-452351D01*
X377458Y-453532D01*
X376531Y-454712D01*
X376446Y-454797D01*
X376278Y-454965D01*
X375940Y-455303D01*
X375519Y-455640D01*
X374928Y-456146D01*
X374254Y-456652D01*
X373410Y-457242D01*
X372483Y-457832D01*
X371471Y-458507D01*
X370290Y-459097D01*
X368941Y-459772D01*
X367508Y-460362D01*
X365905Y-460868D01*
X364219Y-461374D01*
X362448Y-461796D01*
X360508Y-462133D01*
X360593D01*
X360761Y-462302D01*
X361014Y-462470D01*
X361436Y-462639D01*
X362364Y-463314D01*
X363628Y-464157D01*
X364978Y-465169D01*
X366411Y-466350D01*
X367929Y-467615D01*
X369278Y-468964D01*
X369363D01*
X369447Y-469132D01*
X369616Y-469385D01*
X369953Y-469723D01*
X370290Y-470144D01*
X370712Y-470650D01*
X371134Y-471241D01*
X371724Y-472000D01*
X372399Y-472843D01*
X373073Y-473855D01*
X373832Y-474867D01*
X374675Y-476132D01*
X375519Y-477481D01*
X376446Y-478914D01*
X377458Y-480517D01*
X378554Y-482203D01*
X388505Y-497973D01*
X368857D01*
X357051Y-480264D01*
X356967Y-480179D01*
X356798Y-479842D01*
X356461Y-479336D01*
X356039Y-478746D01*
X355533Y-477987D01*
X354943Y-477144D01*
X353593Y-475204D01*
X352160Y-473180D01*
X350726Y-471241D01*
X350052Y-470397D01*
X349377Y-469554D01*
X348871Y-468879D01*
X348365Y-468373D01*
X348281Y-468289D01*
X347943Y-467952D01*
X347522Y-467530D01*
X346931Y-467024D01*
X346173Y-466434D01*
X345329Y-465928D01*
X344402Y-465422D01*
X343474Y-465000D01*
X343390Y-464916D01*
X342968Y-464832D01*
X342378Y-464663D01*
X341450Y-464494D01*
X340270Y-464326D01*
X338920Y-464241D01*
X337149Y-464073D01*
X331921D01*
Y-497973D01*
X315477D01*
Y-416680D01*
X352075D01*
X353172Y-416765D01*
D02*
G37*
G36*
X362137Y-140588D02*
X363149Y-140673D01*
X364414Y-140757D01*
X365932Y-141010D01*
X367534Y-141263D01*
X369305Y-141600D01*
X371245Y-142106D01*
X373184Y-142697D01*
X375208Y-143371D01*
X377232Y-144215D01*
X379256Y-145227D01*
X381196Y-146407D01*
X383135Y-147756D01*
X384906Y-149359D01*
X384990Y-149443D01*
X385159Y-149612D01*
X385412Y-149865D01*
X385834Y-150286D01*
X386255Y-150877D01*
X386846Y-151551D01*
X387436Y-152310D01*
X388026Y-153153D01*
X388701Y-154165D01*
X389375Y-155262D01*
X390050Y-156526D01*
X390809Y-157876D01*
X391484Y-159309D01*
X392074Y-160827D01*
X392664Y-162514D01*
X393254Y-164285D01*
X376979Y-168164D01*
Y-168079D01*
X376895Y-167911D01*
X376811Y-167573D01*
X376642Y-167152D01*
X376473Y-166562D01*
X376220Y-165971D01*
X375630Y-164538D01*
X374871Y-162935D01*
X373775Y-161333D01*
X372510Y-159647D01*
X370908Y-158213D01*
X370823Y-158129D01*
X370739Y-158044D01*
X370486Y-157876D01*
X370064Y-157623D01*
X369643Y-157370D01*
X369137Y-157032D01*
X367787Y-156358D01*
X366185Y-155683D01*
X364330Y-155093D01*
X362222Y-154671D01*
X361041Y-154503D01*
X359017D01*
X358343Y-154587D01*
X357584Y-154671D01*
X356740Y-154840D01*
X355729Y-155009D01*
X354632Y-155346D01*
X353536Y-155683D01*
X352355Y-156105D01*
X351090Y-156611D01*
X349826Y-157201D01*
X348645Y-157960D01*
X347464Y-158888D01*
X346284Y-159815D01*
X345188Y-160996D01*
X345103Y-161080D01*
X344935Y-161333D01*
X344682Y-161670D01*
X344344Y-162261D01*
X343923Y-162935D01*
X343417Y-163779D01*
X342911Y-164875D01*
X342405Y-166056D01*
X341899Y-167405D01*
X341393Y-169007D01*
X340887Y-170694D01*
X340465Y-172633D01*
X340128Y-174741D01*
X339875Y-177018D01*
X339706Y-179464D01*
X339622Y-182078D01*
Y-182247D01*
Y-182752D01*
Y-183511D01*
X339706Y-184608D01*
X339791Y-185873D01*
X339875Y-187306D01*
X340044Y-188908D01*
X340296Y-190595D01*
X340971Y-194137D01*
X341393Y-195992D01*
X341899Y-197763D01*
X342573Y-199534D01*
X343332Y-201136D01*
X344176Y-202654D01*
X345103Y-204003D01*
X345188Y-204087D01*
X345356Y-204256D01*
X345693Y-204593D01*
X346115Y-205015D01*
X346705Y-205521D01*
X347296Y-206027D01*
X348139Y-206617D01*
X348982Y-207208D01*
X349994Y-207882D01*
X351090Y-208473D01*
X352271Y-208978D01*
X353536Y-209484D01*
X354885Y-209906D01*
X356403Y-210243D01*
X357921Y-210412D01*
X359523Y-210496D01*
X360198D01*
X360620Y-210412D01*
X361210Y-210328D01*
X361884Y-210243D01*
X363402Y-209990D01*
X365173Y-209484D01*
X367028Y-208726D01*
X367956Y-208304D01*
X368968Y-207714D01*
X369811Y-207123D01*
X370739Y-206364D01*
X370823Y-206280D01*
X370908Y-206196D01*
X371161Y-205943D01*
X371498Y-205605D01*
X371919Y-205099D01*
X372341Y-204593D01*
X372847Y-203919D01*
X373353Y-203160D01*
X373943Y-202317D01*
X374449Y-201305D01*
X375040Y-200293D01*
X375630Y-199028D01*
X376136Y-197763D01*
X376642Y-196329D01*
X377148Y-194811D01*
X377569Y-193209D01*
X393507Y-198185D01*
Y-198353D01*
X393339Y-198775D01*
X393086Y-199449D01*
X392833Y-200377D01*
X392411Y-201473D01*
X391905Y-202738D01*
X391315Y-204172D01*
X390556Y-205690D01*
X389797Y-207292D01*
X388869Y-208894D01*
X387857Y-210581D01*
X386761Y-212267D01*
X385581Y-213870D01*
X384231Y-215387D01*
X382798Y-216821D01*
X381280Y-218086D01*
X381196Y-218170D01*
X380858Y-218339D01*
X380437Y-218676D01*
X379762Y-219098D01*
X378919Y-219604D01*
X377907Y-220110D01*
X376726Y-220700D01*
X375377Y-221290D01*
X373943Y-221881D01*
X372257Y-222471D01*
X370486Y-222977D01*
X368546Y-223483D01*
X366523Y-223905D01*
X364414Y-224242D01*
X362053Y-224411D01*
X359692Y-224495D01*
X359017D01*
X358174Y-224411D01*
X356993Y-224326D01*
X355644Y-224158D01*
X354042Y-223905D01*
X352271Y-223567D01*
X350332Y-223146D01*
X348308Y-222555D01*
X346115Y-221796D01*
X343923Y-220869D01*
X341730Y-219857D01*
X339453Y-218592D01*
X337261Y-217074D01*
X335152Y-215387D01*
X333129Y-213448D01*
X333044Y-213279D01*
X332707Y-212942D01*
X332201Y-212267D01*
X331526Y-211424D01*
X330767Y-210328D01*
X329840Y-208978D01*
X328912Y-207376D01*
X327985Y-205521D01*
X326973Y-203497D01*
X326045Y-201220D01*
X325202Y-198775D01*
X324359Y-196076D01*
X323684Y-193125D01*
X323178Y-190089D01*
X322841Y-186716D01*
X322756Y-183258D01*
Y-183174D01*
Y-183005D01*
Y-182752D01*
Y-182331D01*
X322841Y-181909D01*
Y-181319D01*
Y-180644D01*
X322925Y-179885D01*
X323094Y-178199D01*
X323347Y-176259D01*
X323600Y-174067D01*
X324106Y-171706D01*
X324611Y-169260D01*
X325286Y-166646D01*
X326129Y-164032D01*
X327141Y-161418D01*
X328406Y-158888D01*
X329755Y-156358D01*
X331358Y-153997D01*
X333213Y-151804D01*
X333297Y-151635D01*
X333719Y-151298D01*
X334309Y-150792D01*
X335152Y-150033D01*
X336164Y-149190D01*
X337429Y-148262D01*
X338863Y-147166D01*
X340549Y-146154D01*
X342489Y-145058D01*
X344513Y-144046D01*
X346790Y-143118D01*
X349235Y-142275D01*
X351849Y-141516D01*
X354632Y-141010D01*
X357584Y-140588D01*
X360704Y-140504D01*
X361378D01*
X362137Y-140588D01*
D02*
G37*
G36*
X432973Y-141685D02*
X433985Y-141769D01*
X435165Y-141938D01*
X436430Y-142106D01*
X437864Y-142444D01*
X439298Y-142781D01*
X440900Y-143203D01*
X442418Y-143709D01*
X444020Y-144299D01*
X445538Y-145058D01*
X447056Y-145985D01*
X448489Y-146913D01*
X449839Y-148094D01*
X449923Y-148178D01*
X450176Y-148347D01*
X450513Y-148768D01*
X450935Y-149274D01*
X451441Y-149865D01*
X452031Y-150624D01*
X452621Y-151551D01*
X453296Y-152563D01*
X453971Y-153659D01*
X454561Y-154840D01*
X455151Y-156189D01*
X455657Y-157623D01*
X456079Y-159141D01*
X456500Y-160743D01*
X456669Y-162429D01*
X456753Y-164200D01*
Y-164285D01*
Y-164453D01*
Y-164706D01*
Y-165128D01*
X456669Y-165634D01*
Y-166224D01*
X456500Y-167573D01*
X456248Y-169176D01*
X455910Y-170947D01*
X455404Y-172802D01*
X454730Y-174657D01*
Y-174741D01*
X454645Y-174910D01*
X454561Y-175163D01*
X454392Y-175500D01*
X454139Y-176006D01*
X453886Y-176512D01*
X453212Y-177777D01*
X452368Y-179379D01*
X451272Y-181150D01*
X450007Y-183005D01*
X448489Y-185029D01*
X448321Y-185198D01*
X447983Y-185704D01*
X447224Y-186547D01*
X446718Y-187053D01*
X446212Y-187644D01*
X445538Y-188402D01*
X444779Y-189161D01*
X443936Y-190005D01*
X443008Y-190932D01*
X441996Y-191944D01*
X440815Y-193041D01*
X439635Y-194137D01*
X438286Y-195402D01*
X438201Y-195486D01*
X437948Y-195655D01*
X437611Y-196076D01*
X437105Y-196498D01*
X436515Y-197004D01*
X435840Y-197679D01*
X434407Y-199028D01*
X432804Y-200546D01*
X431286Y-202064D01*
X430527Y-202738D01*
X429937Y-203413D01*
X429347Y-203919D01*
X428925Y-204425D01*
X428841Y-204509D01*
X428588Y-204762D01*
X428251Y-205184D01*
X427829Y-205774D01*
X427323Y-206449D01*
X426817Y-207123D01*
X425805Y-208641D01*
X456753D01*
Y-223146D01*
X402193D01*
Y-223061D01*
X402278Y-222808D01*
Y-222302D01*
X402362Y-221712D01*
X402531Y-221037D01*
X402699Y-220194D01*
X402868Y-219182D01*
X403205Y-218170D01*
X403458Y-216990D01*
X403880Y-215725D01*
X404723Y-213111D01*
X405904Y-210412D01*
X407422Y-207629D01*
X407506Y-207545D01*
X407675Y-207292D01*
X407928Y-206870D01*
X408349Y-206280D01*
X408855Y-205521D01*
X409530Y-204678D01*
X410373Y-203666D01*
X411301Y-202401D01*
X412397Y-201136D01*
X413662Y-199618D01*
X415095Y-198016D01*
X416698Y-196329D01*
X418469Y-194474D01*
X420492Y-192450D01*
X422601Y-190342D01*
X424962Y-188149D01*
X425046Y-188065D01*
X425383Y-187728D01*
X425974Y-187222D01*
X426648Y-186547D01*
X427492Y-185788D01*
X428419Y-184861D01*
X429431Y-183849D01*
X430527Y-182837D01*
X432720Y-180644D01*
X434828Y-178452D01*
X435840Y-177440D01*
X436599Y-176428D01*
X437358Y-175585D01*
X437864Y-174910D01*
Y-174826D01*
X438033Y-174657D01*
X438201Y-174404D01*
X438370Y-174067D01*
X438623Y-173645D01*
X438876Y-173139D01*
X439551Y-171874D01*
X440141Y-170441D01*
X440647Y-168838D01*
X440984Y-167152D01*
X441153Y-165381D01*
Y-165297D01*
Y-165128D01*
Y-164875D01*
Y-164538D01*
X440984Y-163610D01*
X440815Y-162429D01*
X440478Y-161165D01*
X439972Y-159815D01*
X439213Y-158550D01*
X438286Y-157370D01*
X438201Y-157285D01*
X437780Y-156948D01*
X437189Y-156442D01*
X436262Y-155936D01*
X435165Y-155430D01*
X433901Y-154924D01*
X432383Y-154587D01*
X430612Y-154503D01*
X430106D01*
X429769Y-154587D01*
X428925Y-154671D01*
X427829Y-154840D01*
X426564Y-155262D01*
X425299Y-155768D01*
X424034Y-156442D01*
X422854Y-157454D01*
X422769Y-157623D01*
X422432Y-158044D01*
X421926Y-158719D01*
X421336Y-159815D01*
X420830Y-161165D01*
X420492Y-161923D01*
X420239Y-162851D01*
X419986Y-163779D01*
X419818Y-164875D01*
X419649Y-165971D01*
X419565Y-167236D01*
X404048Y-165718D01*
Y-165550D01*
X404133Y-165128D01*
X404217Y-164453D01*
X404386Y-163610D01*
X404554Y-162514D01*
X404892Y-161333D01*
X405229Y-159984D01*
X405651Y-158550D01*
X406157Y-157032D01*
X406747Y-155515D01*
X407422Y-153997D01*
X408265Y-152479D01*
X409192Y-151045D01*
X410204Y-149612D01*
X411385Y-148347D01*
X412650Y-147250D01*
X412734Y-147166D01*
X412987Y-146997D01*
X413409Y-146744D01*
X413999Y-146323D01*
X414674Y-145901D01*
X415517Y-145480D01*
X416529Y-144974D01*
X417710Y-144383D01*
X418975Y-143877D01*
X420324Y-143371D01*
X421842Y-142950D01*
X423444Y-142444D01*
X425215Y-142106D01*
X426986Y-141853D01*
X428925Y-141685D01*
X430949Y-141600D01*
X432130D01*
X432973Y-141685D01*
D02*
G37*
G36*
X770923Y168911D02*
X771934Y168827D01*
X773199Y168742D01*
X774717Y168489D01*
X776320Y168236D01*
X778090Y167899D01*
X780030Y167393D01*
X781969Y166803D01*
X783993Y166128D01*
X786017Y165285D01*
X788041Y164273D01*
X789981Y163092D01*
X791920Y161743D01*
X793691Y160141D01*
X793775Y160057D01*
X793944Y159888D01*
X794197Y159635D01*
X794619Y159213D01*
X795040Y158623D01*
X795631Y157948D01*
X796221Y157189D01*
X796811Y156346D01*
X797486Y155334D01*
X798160Y154238D01*
X798835Y152973D01*
X799594Y151624D01*
X800269Y150190D01*
X800859Y148672D01*
X801449Y146986D01*
X802040Y145215D01*
X785764Y141336D01*
Y141420D01*
X785680Y141589D01*
X785596Y141926D01*
X785427Y142348D01*
X785258Y142938D01*
X785005Y143528D01*
X784415Y144962D01*
X783656Y146564D01*
X782560Y148166D01*
X781295Y149853D01*
X779693Y151286D01*
X779608Y151371D01*
X779524Y151455D01*
X779271Y151624D01*
X778849Y151877D01*
X778428Y152130D01*
X777922Y152467D01*
X776572Y153142D01*
X774970Y153816D01*
X773115Y154407D01*
X771007Y154828D01*
X769826Y154997D01*
X767802D01*
X767128Y154913D01*
X766369Y154828D01*
X765526Y154660D01*
X764514Y154491D01*
X763417Y154154D01*
X762321Y153816D01*
X761140Y153395D01*
X759876Y152889D01*
X758611Y152298D01*
X757430Y151539D01*
X756249Y150612D01*
X755069Y149684D01*
X753973Y148504D01*
X753888Y148419D01*
X753720Y148166D01*
X753467Y147829D01*
X753129Y147239D01*
X752708Y146564D01*
X752202Y145721D01*
X751696Y144625D01*
X751190Y143444D01*
X750684Y142095D01*
X750178Y140492D01*
X749672Y138806D01*
X749250Y136866D01*
X748913Y134758D01*
X748660Y132481D01*
X748491Y130036D01*
X748407Y127422D01*
Y127253D01*
Y126747D01*
Y125988D01*
X748491Y124892D01*
X748576Y123627D01*
X748660Y122193D01*
X748829Y120591D01*
X749082Y118905D01*
X749756Y115363D01*
X750178Y113508D01*
X750684Y111737D01*
X751358Y109966D01*
X752117Y108364D01*
X752961Y106846D01*
X753888Y105496D01*
X753973Y105412D01*
X754141Y105243D01*
X754479Y104906D01*
X754900Y104484D01*
X755490Y103978D01*
X756081Y103472D01*
X756924Y102882D01*
X757767Y102292D01*
X758779Y101617D01*
X759876Y101027D01*
X761056Y100521D01*
X762321Y100015D01*
X763670Y99593D01*
X765188Y99256D01*
X766706Y99087D01*
X768308Y99003D01*
X768983D01*
X769405Y99087D01*
X769995Y99172D01*
X770670Y99256D01*
X772187Y99509D01*
X773958Y100015D01*
X775814Y100774D01*
X776741Y101196D01*
X777753Y101786D01*
X778596Y102376D01*
X779524Y103135D01*
X779608Y103220D01*
X779693Y103304D01*
X779946Y103557D01*
X780283Y103894D01*
X780705Y104400D01*
X781126Y104906D01*
X781632Y105581D01*
X782138Y106340D01*
X782728Y107183D01*
X783234Y108195D01*
X783825Y109207D01*
X784415Y110472D01*
X784921Y111737D01*
X785427Y113170D01*
X785933Y114688D01*
X786355Y116290D01*
X802293Y111315D01*
Y111146D01*
X802124Y110725D01*
X801871Y110050D01*
X801618Y109122D01*
X801196Y108026D01*
X800690Y106761D01*
X800100Y105328D01*
X799341Y103810D01*
X798582Y102208D01*
X797654Y100605D01*
X796643Y98919D01*
X795546Y97232D01*
X794366Y95630D01*
X793016Y94112D01*
X791583Y92679D01*
X790065Y91414D01*
X789981Y91329D01*
X789643Y91161D01*
X789222Y90823D01*
X788547Y90402D01*
X787704Y89896D01*
X786692Y89390D01*
X785511Y88799D01*
X784162Y88209D01*
X782728Y87619D01*
X781042Y87029D01*
X779271Y86523D01*
X777331Y86017D01*
X775308Y85595D01*
X773199Y85258D01*
X770838Y85089D01*
X768477Y85005D01*
X767802D01*
X766959Y85089D01*
X765779Y85173D01*
X764429Y85342D01*
X762827Y85595D01*
X761056Y85932D01*
X759117Y86354D01*
X757093Y86944D01*
X754900Y87703D01*
X752708Y88631D01*
X750515Y89643D01*
X748238Y90908D01*
X746046Y92426D01*
X743938Y94112D01*
X741914Y96052D01*
X741829Y96220D01*
X741492Y96558D01*
X740986Y97232D01*
X740311Y98075D01*
X739552Y99172D01*
X738625Y100521D01*
X737697Y102123D01*
X736770Y103978D01*
X735758Y106002D01*
X734830Y108279D01*
X733987Y110725D01*
X733144Y113423D01*
X732469Y116375D01*
X731963Y119410D01*
X731626Y122784D01*
X731541Y126241D01*
Y126325D01*
Y126494D01*
Y126747D01*
Y127169D01*
X731626Y127590D01*
Y128181D01*
Y128855D01*
X731710Y129614D01*
X731879Y131301D01*
X732132Y133240D01*
X732385Y135433D01*
X732891Y137794D01*
X733397Y140239D01*
X734071Y142854D01*
X734914Y145468D01*
X735926Y148082D01*
X737191Y150612D01*
X738541Y153142D01*
X740143Y155503D01*
X741998Y157695D01*
X742082Y157864D01*
X742504Y158201D01*
X743094Y158707D01*
X743938Y159466D01*
X744949Y160310D01*
X746214Y161237D01*
X747648Y162333D01*
X749335Y163345D01*
X751274Y164442D01*
X753298Y165454D01*
X755575Y166381D01*
X758020Y167224D01*
X760634Y167983D01*
X763417Y168489D01*
X766369Y168911D01*
X769489Y168995D01*
X770164D01*
X770923Y168911D01*
D02*
G37*
G36*
X858539Y116375D02*
X868659D01*
Y102714D01*
X858539D01*
Y86354D01*
X843445D01*
Y102714D01*
X810219D01*
Y116290D01*
X845384Y167899D01*
X858539D01*
Y116375D01*
D02*
G37*
G36*
X-798237Y937127D02*
X-813838D01*
Y995735D01*
X-813922Y995651D01*
X-814259Y995398D01*
X-814681Y994976D01*
X-815356Y994386D01*
X-816199Y993796D01*
X-817127Y993037D01*
X-818307Y992194D01*
X-819572Y991266D01*
X-821006Y990338D01*
X-822524Y989326D01*
X-824210Y988315D01*
X-825981Y987387D01*
X-827836Y986459D01*
X-829776Y985532D01*
X-831884Y984688D01*
X-833992Y983929D01*
Y998097D01*
X-833908D01*
X-833739Y998181D01*
X-833402Y998350D01*
X-832896Y998518D01*
X-832390Y998687D01*
X-831715Y999024D01*
X-830956Y999361D01*
X-830029Y999783D01*
X-828089Y1000795D01*
X-825812Y1002060D01*
X-823367Y1003662D01*
X-822102Y1004590D01*
X-820753Y1005602D01*
X-820668Y1005686D01*
X-820415Y1005855D01*
X-820078Y1006192D01*
X-819572Y1006614D01*
X-818982Y1007120D01*
X-818307Y1007794D01*
X-817633Y1008469D01*
X-816874Y1009312D01*
X-816030Y1010240D01*
X-815187Y1011252D01*
X-813585Y1013444D01*
X-812151Y1015974D01*
X-811477Y1017323D01*
X-810971Y1018673D01*
X-798237D01*
Y937127D01*
D02*
G37*
G36*
X-887119Y950873D02*
X-846388D01*
Y937127D01*
X-903563D01*
Y1017745D01*
X-887119D01*
Y950873D01*
D02*
G37*
G36*
X-444965Y-1041249D02*
X-474395D01*
X-476925Y-1055078D01*
X-476841D01*
X-476672Y-1054994D01*
X-476419Y-1054825D01*
X-475998Y-1054657D01*
X-475576Y-1054488D01*
X-474986Y-1054235D01*
X-473636Y-1053729D01*
X-472034Y-1053308D01*
X-470179Y-1052886D01*
X-468239Y-1052549D01*
X-466215Y-1052464D01*
X-465794D01*
X-465204Y-1052549D01*
X-464445D01*
X-463601Y-1052717D01*
X-462589Y-1052886D01*
X-461409Y-1053139D01*
X-460144Y-1053392D01*
X-458795Y-1053813D01*
X-457361Y-1054319D01*
X-455927Y-1054910D01*
X-454410Y-1055669D01*
X-452892Y-1056512D01*
X-451458Y-1057524D01*
X-449940Y-1058705D01*
X-448591Y-1060054D01*
X-448507Y-1060138D01*
X-448254Y-1060391D01*
X-447916Y-1060813D01*
X-447495Y-1061403D01*
X-446904Y-1062162D01*
X-446314Y-1063090D01*
X-445639Y-1064102D01*
X-444965Y-1065282D01*
X-444290Y-1066631D01*
X-443616Y-1068065D01*
X-443025Y-1069667D01*
X-442435Y-1071438D01*
X-442013Y-1073293D01*
X-441676Y-1075233D01*
X-441423Y-1077341D01*
X-441339Y-1079534D01*
Y-1079618D01*
Y-1079955D01*
Y-1080545D01*
X-441423Y-1081220D01*
X-441507Y-1082063D01*
X-441676Y-1083160D01*
X-441845Y-1084256D01*
X-442098Y-1085521D01*
X-442351Y-1086870D01*
X-442772Y-1088304D01*
X-443194Y-1089822D01*
X-443784Y-1091339D01*
X-444459Y-1092857D01*
X-445218Y-1094375D01*
X-446145Y-1095893D01*
X-447157Y-1097411D01*
X-447242Y-1097495D01*
X-447495Y-1097833D01*
X-448001Y-1098423D01*
X-448591Y-1099098D01*
X-449434Y-1099857D01*
X-450446Y-1100784D01*
X-451542Y-1101796D01*
X-452892Y-1102724D01*
X-454325Y-1103736D01*
X-456012Y-1104748D01*
X-457783Y-1105675D01*
X-459807Y-1106434D01*
X-461915Y-1107109D01*
X-464192Y-1107699D01*
X-466637Y-1108036D01*
X-469167Y-1108121D01*
X-470263D01*
X-471022Y-1108036D01*
X-472034Y-1107952D01*
X-473130Y-1107783D01*
X-474395Y-1107615D01*
X-475660Y-1107362D01*
X-477094Y-1107024D01*
X-478612Y-1106687D01*
X-480130Y-1106181D01*
X-481647Y-1105591D01*
X-483250Y-1104916D01*
X-484683Y-1104073D01*
X-486201Y-1103145D01*
X-487550Y-1102133D01*
X-487635Y-1102049D01*
X-487888Y-1101880D01*
X-488225Y-1101543D01*
X-488647Y-1101037D01*
X-489237Y-1100447D01*
X-489827Y-1099688D01*
X-490502Y-1098845D01*
X-491261Y-1097833D01*
X-492020Y-1096736D01*
X-492694Y-1095472D01*
X-493453Y-1094122D01*
X-494128Y-1092689D01*
X-494718Y-1091171D01*
X-495224Y-1089484D01*
X-495646Y-1087713D01*
X-495983Y-1085858D01*
X-480467Y-1084256D01*
Y-1084340D01*
Y-1084509D01*
X-480383Y-1084762D01*
X-480298Y-1085099D01*
X-480130Y-1086111D01*
X-479792Y-1087292D01*
X-479286Y-1088641D01*
X-478612Y-1089990D01*
X-477684Y-1091339D01*
X-476588Y-1092604D01*
X-476419Y-1092773D01*
X-475998Y-1093110D01*
X-475323Y-1093532D01*
X-474395Y-1094122D01*
X-473299Y-1094713D01*
X-472034Y-1095134D01*
X-470516Y-1095472D01*
X-468998Y-1095640D01*
X-468492D01*
X-468155Y-1095556D01*
X-467312Y-1095472D01*
X-466131Y-1095134D01*
X-464866Y-1094713D01*
X-463517Y-1094038D01*
X-462168Y-1093026D01*
X-461493Y-1092436D01*
X-460818Y-1091761D01*
Y-1091677D01*
X-460650Y-1091592D01*
X-460481Y-1091339D01*
X-460313Y-1091002D01*
X-459975Y-1090580D01*
X-459722Y-1090075D01*
X-459385Y-1089484D01*
X-459048Y-1088810D01*
X-458795Y-1087966D01*
X-458457Y-1087123D01*
X-458120Y-1086111D01*
X-457867Y-1085015D01*
X-457698Y-1083834D01*
X-457530Y-1082569D01*
X-457361Y-1081220D01*
Y-1079787D01*
Y-1079702D01*
Y-1079449D01*
Y-1079112D01*
X-457445Y-1078606D01*
Y-1077931D01*
X-457530Y-1077257D01*
X-457783Y-1075570D01*
X-458204Y-1073799D01*
X-458795Y-1071944D01*
X-459638Y-1070173D01*
X-460144Y-1069414D01*
X-460734Y-1068655D01*
Y-1068571D01*
X-460903Y-1068487D01*
X-461324Y-1068065D01*
X-462083Y-1067475D01*
X-463095Y-1066716D01*
X-464360Y-1066041D01*
X-465878Y-1065451D01*
X-467565Y-1065029D01*
X-468492Y-1064860D01*
X-470179D01*
X-470601Y-1064945D01*
X-471191Y-1065029D01*
X-471950Y-1065198D01*
X-472709Y-1065366D01*
X-473552Y-1065619D01*
X-474480Y-1065872D01*
X-475407Y-1066294D01*
X-476419Y-1066800D01*
X-477431Y-1067306D01*
X-478443Y-1068065D01*
X-479539Y-1068824D01*
X-480551Y-1069751D01*
X-481563Y-1070763D01*
X-494128Y-1068993D01*
X-486117Y-1026660D01*
X-444965D01*
Y-1041249D01*
D02*
G37*
G36*
X-536967Y-1025564D02*
X-535786D01*
X-534352Y-1025648D01*
X-532919Y-1025732D01*
X-529883Y-1025985D01*
X-526679Y-1026407D01*
X-525245Y-1026660D01*
X-523812Y-1026913D01*
X-522462Y-1027250D01*
X-521282Y-1027672D01*
X-521197D01*
X-521029Y-1027756D01*
X-520691Y-1027925D01*
X-520270Y-1028093D01*
X-519764Y-1028346D01*
X-519258Y-1028684D01*
X-517909Y-1029443D01*
X-516391Y-1030539D01*
X-514788Y-1031888D01*
X-513270Y-1033575D01*
X-511837Y-1035514D01*
X-511753Y-1035599D01*
X-511668Y-1035767D01*
X-511500Y-1036105D01*
X-511247Y-1036526D01*
X-510994Y-1037032D01*
X-510656Y-1037623D01*
X-510319Y-1038381D01*
X-509982Y-1039225D01*
X-509644Y-1040068D01*
X-509391Y-1041080D01*
X-508801Y-1043272D01*
X-508379Y-1045718D01*
X-508211Y-1046983D01*
Y-1048332D01*
Y-1048416D01*
Y-1048754D01*
Y-1049175D01*
X-508295Y-1049850D01*
X-508379Y-1050609D01*
X-508464Y-1051537D01*
X-508632Y-1052549D01*
X-508885Y-1053645D01*
X-509560Y-1056090D01*
X-509982Y-1057355D01*
X-510488Y-1058620D01*
X-511078Y-1059885D01*
X-511837Y-1061150D01*
X-512680Y-1062331D01*
X-513608Y-1063511D01*
X-513692Y-1063596D01*
X-513861Y-1063764D01*
X-514198Y-1064102D01*
X-514620Y-1064439D01*
X-515210Y-1064945D01*
X-515885Y-1065451D01*
X-516728Y-1066041D01*
X-517656Y-1066631D01*
X-518667Y-1067306D01*
X-519848Y-1067896D01*
X-521197Y-1068571D01*
X-522631Y-1069161D01*
X-524233Y-1069667D01*
X-525920Y-1070173D01*
X-527691Y-1070595D01*
X-529630Y-1070932D01*
X-529546D01*
X-529377Y-1071101D01*
X-529124Y-1071269D01*
X-528703Y-1071438D01*
X-527775Y-1072113D01*
X-526510Y-1072956D01*
X-525161Y-1073968D01*
X-523727Y-1075148D01*
X-522209Y-1076413D01*
X-520860Y-1077763D01*
X-520776D01*
X-520691Y-1077931D01*
X-520523Y-1078184D01*
X-520185Y-1078522D01*
X-519848Y-1078943D01*
X-519426Y-1079449D01*
X-519005Y-1080039D01*
X-518415Y-1080798D01*
X-517740Y-1081642D01*
X-517065Y-1082654D01*
X-516306Y-1083666D01*
X-515463Y-1084931D01*
X-514620Y-1086280D01*
X-513692Y-1087713D01*
X-512680Y-1089316D01*
X-511584Y-1091002D01*
X-501633Y-1106771D01*
X-521282D01*
X-533088Y-1089063D01*
X-533172Y-1088978D01*
X-533341Y-1088641D01*
X-533678Y-1088135D01*
X-534100Y-1087545D01*
X-534605Y-1086786D01*
X-535196Y-1085942D01*
X-536545Y-1084003D01*
X-537979Y-1081979D01*
X-539412Y-1080039D01*
X-540087Y-1079196D01*
X-540761Y-1078353D01*
X-541267Y-1077678D01*
X-541773Y-1077172D01*
X-541858Y-1077088D01*
X-542195Y-1076751D01*
X-542617Y-1076329D01*
X-543207Y-1075823D01*
X-543966Y-1075233D01*
X-544809Y-1074727D01*
X-545737Y-1074221D01*
X-546664Y-1073799D01*
X-546749Y-1073715D01*
X-547170Y-1073631D01*
X-547761Y-1073462D01*
X-548688Y-1073293D01*
X-549869Y-1073125D01*
X-551218Y-1073040D01*
X-552989Y-1072872D01*
X-558217D01*
Y-1106771D01*
X-574661D01*
Y-1025479D01*
X-538063D01*
X-536967Y-1025564D01*
D02*
G37*
%LPC*%
G36*
X76752Y-1138955D02*
X59211D01*
Y-1159615D01*
X74138D01*
X75149Y-1159531D01*
X77511D01*
X80040Y-1159362D01*
X81305Y-1159278D01*
X82486Y-1159194D01*
X83582Y-1159109D01*
X84510Y-1159025D01*
X85353Y-1158856D01*
X86028Y-1158688D01*
X86196Y-1158603D01*
X86534Y-1158519D01*
X87040Y-1158266D01*
X87714Y-1157844D01*
X88473Y-1157423D01*
X89232Y-1156832D01*
X89991Y-1156073D01*
X90666Y-1155230D01*
X90750Y-1155146D01*
X90919Y-1154808D01*
X91172Y-1154218D01*
X91509Y-1153544D01*
X91846Y-1152616D01*
X92099Y-1151604D01*
X92268Y-1150423D01*
X92352Y-1149074D01*
Y-1148990D01*
Y-1148905D01*
Y-1148400D01*
X92268Y-1147641D01*
X92099Y-1146713D01*
X91846Y-1145701D01*
X91425Y-1144605D01*
X90919Y-1143509D01*
X90160Y-1142497D01*
X90076Y-1142412D01*
X89738Y-1142075D01*
X89232Y-1141653D01*
X88558Y-1141147D01*
X87714Y-1140641D01*
X86618Y-1140051D01*
X85353Y-1139629D01*
X83920Y-1139292D01*
X83835D01*
X83498Y-1139208D01*
X82739D01*
X82317Y-1139123D01*
X80968D01*
X80125Y-1139039D01*
X78017D01*
X76752Y-1138955D01*
D02*
G37*
G36*
X-37175D02*
X-48054D01*
Y-1162061D01*
X-36754D01*
X-35911Y-1161976D01*
X-34899D01*
X-33887Y-1161892D01*
X-31778Y-1161723D01*
X-29586Y-1161555D01*
X-28658Y-1161386D01*
X-27731Y-1161217D01*
X-26887Y-1161049D01*
X-26213Y-1160796D01*
X-26044Y-1160711D01*
X-25707Y-1160543D01*
X-25032Y-1160290D01*
X-24358Y-1159784D01*
X-23514Y-1159278D01*
X-22671Y-1158603D01*
X-21828Y-1157760D01*
X-21069Y-1156832D01*
X-20984Y-1156748D01*
X-20816Y-1156326D01*
X-20478Y-1155820D01*
X-20141Y-1155061D01*
X-19804Y-1154134D01*
X-19467Y-1153038D01*
X-19298Y-1151857D01*
X-19214Y-1150508D01*
Y-1150423D01*
Y-1150339D01*
Y-1150086D01*
Y-1149749D01*
X-19382Y-1148905D01*
X-19551Y-1147894D01*
X-19888Y-1146713D01*
X-20310Y-1145532D01*
X-20984Y-1144267D01*
X-21828Y-1143171D01*
X-21912Y-1143003D01*
X-22334Y-1142750D01*
X-22840Y-1142244D01*
X-23599Y-1141653D01*
X-24611Y-1141063D01*
X-25707Y-1140388D01*
X-26972Y-1139882D01*
X-28405Y-1139545D01*
X-28574D01*
X-28743Y-1139461D01*
X-28996D01*
X-29333Y-1139376D01*
X-29839D01*
X-30345Y-1139292D01*
X-31019Y-1139208D01*
X-31694D01*
X-32622Y-1139123D01*
X-33549D01*
X-34646Y-1139039D01*
X-35826D01*
X-37175Y-1138955D01*
D02*
G37*
G36*
X-201362D02*
X-212156D01*
Y-1192756D01*
X-198242D01*
X-197567Y-1192672D01*
X-196049D01*
X-194447Y-1192587D01*
X-192845Y-1192419D01*
X-191243Y-1192250D01*
X-190568Y-1192166D01*
X-189978Y-1191997D01*
X-189893D01*
X-189809Y-1191913D01*
X-189303Y-1191828D01*
X-188544Y-1191575D01*
X-187701Y-1191154D01*
X-186605Y-1190732D01*
X-185508Y-1190142D01*
X-184412Y-1189467D01*
X-183400Y-1188624D01*
X-183316Y-1188540D01*
X-182979Y-1188202D01*
X-182473Y-1187612D01*
X-181798Y-1186769D01*
X-181123Y-1185673D01*
X-180449Y-1184323D01*
X-179690Y-1182721D01*
X-179015Y-1180866D01*
Y-1180781D01*
X-178931Y-1180613D01*
X-178846Y-1180276D01*
X-178762Y-1179854D01*
X-178593Y-1179264D01*
X-178509Y-1178589D01*
X-178341Y-1177830D01*
X-178172Y-1176902D01*
X-178003Y-1175890D01*
X-177835Y-1174794D01*
X-177750Y-1173614D01*
X-177582Y-1172264D01*
X-177497Y-1170831D01*
X-177413Y-1169313D01*
X-177329Y-1167626D01*
Y-1165940D01*
Y-1165855D01*
Y-1165518D01*
Y-1165012D01*
Y-1164422D01*
X-177413Y-1163579D01*
Y-1162651D01*
X-177497Y-1161639D01*
Y-1160627D01*
X-177750Y-1158266D01*
X-178003Y-1155905D01*
X-178425Y-1153544D01*
X-178678Y-1152532D01*
X-179015Y-1151520D01*
Y-1151435D01*
X-179099Y-1151267D01*
X-179184Y-1151014D01*
X-179352Y-1150676D01*
X-179690Y-1149749D01*
X-180196Y-1148653D01*
X-180870Y-1147388D01*
X-181714Y-1146038D01*
X-182641Y-1144773D01*
X-183738Y-1143677D01*
X-183906Y-1143509D01*
X-184243Y-1143171D01*
X-184918Y-1142750D01*
X-185761Y-1142075D01*
X-186858Y-1141485D01*
X-188207Y-1140810D01*
X-189640Y-1140220D01*
X-191327Y-1139798D01*
X-191496D01*
X-191749Y-1139714D01*
X-192002Y-1139629D01*
X-192423D01*
X-192929Y-1139545D01*
X-193604Y-1139461D01*
X-194279Y-1139376D01*
X-195122Y-1139292D01*
X-196134Y-1139208D01*
X-197230Y-1139123D01*
X-198495D01*
X-199844Y-1139039D01*
X-201362Y-1138955D01*
D02*
G37*
G36*
X283693Y-1159025D02*
X283102D01*
X282681Y-1159109D01*
X282175Y-1159194D01*
X281584Y-1159278D01*
X280151Y-1159615D01*
X278549Y-1160205D01*
X276862Y-1161049D01*
X275934Y-1161555D01*
X275091Y-1162145D01*
X274248Y-1162904D01*
X273489Y-1163747D01*
X273405Y-1163832D01*
X273320Y-1164000D01*
X273152Y-1164253D01*
X272814Y-1164591D01*
X272561Y-1165096D01*
X272224Y-1165687D01*
X271802Y-1166361D01*
X271465Y-1167120D01*
X271043Y-1168048D01*
X270706Y-1169060D01*
X270284Y-1170156D01*
X270031Y-1171337D01*
X269778Y-1172602D01*
X269525Y-1174035D01*
X269441Y-1175469D01*
X269357Y-1177071D01*
Y-1177155D01*
Y-1177493D01*
Y-1177914D01*
X269441Y-1178505D01*
X269525Y-1179264D01*
X269610Y-1180107D01*
X269694Y-1181034D01*
X269863Y-1182046D01*
X270369Y-1184155D01*
X271128Y-1186431D01*
X271549Y-1187528D01*
X272140Y-1188540D01*
X272730Y-1189552D01*
X273489Y-1190479D01*
X273573Y-1190564D01*
X273658Y-1190648D01*
X273911Y-1190901D01*
X274248Y-1191238D01*
X275091Y-1191913D01*
X276356Y-1192756D01*
X277790Y-1193684D01*
X279561Y-1194358D01*
X281500Y-1194949D01*
X282596Y-1195033D01*
X283693Y-1195117D01*
X284283D01*
X284705Y-1195033D01*
X285211Y-1194949D01*
X285801Y-1194864D01*
X287234Y-1194527D01*
X288837Y-1194021D01*
X290523Y-1193178D01*
X291451Y-1192587D01*
X292294Y-1191997D01*
X293137Y-1191322D01*
X293896Y-1190479D01*
X293981Y-1190395D01*
X294065Y-1190226D01*
X294318Y-1189973D01*
X294571Y-1189636D01*
X294824Y-1189130D01*
X295246Y-1188540D01*
X295583Y-1187865D01*
X296004Y-1187022D01*
X296342Y-1186178D01*
X296763Y-1185167D01*
X297101Y-1184070D01*
X297354Y-1182805D01*
X297691Y-1181540D01*
X297860Y-1180107D01*
X297944Y-1178589D01*
X298028Y-1176987D01*
Y-1176902D01*
Y-1176565D01*
Y-1176143D01*
X297944Y-1175553D01*
Y-1174879D01*
X297775Y-1174035D01*
X297691Y-1173108D01*
X297522Y-1172096D01*
X297016Y-1169988D01*
X296257Y-1167795D01*
X295836Y-1166699D01*
X295246Y-1165687D01*
X294655Y-1164675D01*
X293896Y-1163747D01*
X293812Y-1163663D01*
X293728Y-1163579D01*
X293475Y-1163326D01*
X293137Y-1162988D01*
X292294Y-1162229D01*
X291113Y-1161386D01*
X289596Y-1160543D01*
X287825Y-1159784D01*
X285885Y-1159194D01*
X284789Y-1159109D01*
X283693Y-1159025D01*
D02*
G37*
G36*
X126168Y-1278585D02*
X125999Y-1278670D01*
X125578Y-1278754D01*
X124903Y-1279007D01*
X123807Y-1279260D01*
X122542Y-1279597D01*
X120855Y-1280019D01*
X118916Y-1280525D01*
X116639Y-1281031D01*
X116555D01*
X116386Y-1281115D01*
X116049Y-1281199D01*
X115627Y-1281284D01*
X115037Y-1281368D01*
X114446Y-1281537D01*
X113181Y-1281874D01*
X111748Y-1282296D01*
X110314Y-1282717D01*
X109049Y-1283223D01*
X108543Y-1283476D01*
X108122Y-1283729D01*
X107953Y-1283814D01*
X107616Y-1284067D01*
X107194Y-1284572D01*
X106604Y-1285163D01*
X106014Y-1286006D01*
X105592Y-1286934D01*
X105255Y-1288030D01*
X105086Y-1289211D01*
Y-1289379D01*
Y-1289716D01*
X105255Y-1290307D01*
X105423Y-1291066D01*
X105676Y-1291993D01*
X106098Y-1292921D01*
X106688Y-1293849D01*
X107531Y-1294776D01*
X107616Y-1294861D01*
X107953Y-1295113D01*
X108543Y-1295535D01*
X109218Y-1295957D01*
X110146Y-1296378D01*
X111158Y-1296800D01*
X112338Y-1297053D01*
X113687Y-1297137D01*
X114109D01*
X114446Y-1297053D01*
X115290Y-1296969D01*
X116302Y-1296800D01*
X117566Y-1296463D01*
X118916Y-1295957D01*
X120349Y-1295366D01*
X121783Y-1294439D01*
X121951Y-1294355D01*
X122289Y-1294017D01*
X122710Y-1293596D01*
X123301Y-1293005D01*
X123975Y-1292246D01*
X124566Y-1291403D01*
X125072Y-1290391D01*
X125493Y-1289295D01*
Y-1289211D01*
X125578Y-1288873D01*
X125746Y-1288367D01*
X125831Y-1287608D01*
X125999Y-1286512D01*
X126084Y-1285247D01*
X126168Y-1283645D01*
Y-1281705D01*
Y-1278585D01*
D02*
G37*
G36*
X252744Y-1259274D02*
X252154D01*
X251732Y-1259358D01*
X251226Y-1259443D01*
X250636Y-1259527D01*
X249202Y-1259864D01*
X247600Y-1260455D01*
X245914Y-1261298D01*
X244986Y-1261804D01*
X244143Y-1262394D01*
X243299Y-1263153D01*
X242541Y-1263996D01*
X242456Y-1264081D01*
X242372Y-1264249D01*
X242203Y-1264502D01*
X241866Y-1264840D01*
X241613Y-1265346D01*
X241276Y-1265936D01*
X240854Y-1266611D01*
X240517Y-1267370D01*
X240095Y-1268297D01*
X239758Y-1269309D01*
X239336Y-1270405D01*
X239083Y-1271586D01*
X238830Y-1272851D01*
X238577Y-1274284D01*
X238493Y-1275718D01*
X238408Y-1277320D01*
Y-1277405D01*
Y-1277742D01*
Y-1278164D01*
X238493Y-1278754D01*
X238577Y-1279513D01*
X238661Y-1280356D01*
X238746Y-1281284D01*
X238914Y-1282296D01*
X239420Y-1284404D01*
X240179Y-1286681D01*
X240601Y-1287777D01*
X241191Y-1288789D01*
X241782Y-1289801D01*
X242541Y-1290728D01*
X242625Y-1290813D01*
X242709Y-1290897D01*
X242962Y-1291150D01*
X243299Y-1291487D01*
X244143Y-1292162D01*
X245408Y-1293005D01*
X246841Y-1293933D01*
X248612Y-1294608D01*
X250552Y-1295198D01*
X251648Y-1295282D01*
X252744Y-1295366D01*
X253335D01*
X253756Y-1295282D01*
X254262Y-1295198D01*
X254852Y-1295113D01*
X256286Y-1294776D01*
X257888Y-1294270D01*
X259575Y-1293427D01*
X260502Y-1292837D01*
X261346Y-1292246D01*
X262189Y-1291572D01*
X262948Y-1290728D01*
X263032Y-1290644D01*
X263117Y-1290475D01*
X263370Y-1290222D01*
X263623Y-1289885D01*
X263876Y-1289379D01*
X264297Y-1288789D01*
X264634Y-1288114D01*
X265056Y-1287271D01*
X265393Y-1286428D01*
X265815Y-1285416D01*
X266152Y-1284320D01*
X266405Y-1283055D01*
X266743Y-1281790D01*
X266911Y-1280356D01*
X266996Y-1278838D01*
X267080Y-1277236D01*
Y-1277152D01*
Y-1276814D01*
Y-1276393D01*
X266996Y-1275802D01*
Y-1275128D01*
X266827Y-1274284D01*
X266743Y-1273357D01*
X266574Y-1272345D01*
X266068Y-1270237D01*
X265309Y-1268044D01*
X264887Y-1266948D01*
X264297Y-1265936D01*
X263707Y-1264924D01*
X262948Y-1263996D01*
X262864Y-1263912D01*
X262779Y-1263828D01*
X262526Y-1263575D01*
X262189Y-1263238D01*
X261346Y-1262479D01*
X260165Y-1261635D01*
X258647Y-1260792D01*
X256876Y-1260033D01*
X254937Y-1259443D01*
X253840Y-1259358D01*
X252744Y-1259274D01*
D02*
G37*
G36*
X-72425Y-1258431D02*
X-72931D01*
X-73268Y-1258515D01*
X-74195Y-1258599D01*
X-75376Y-1258937D01*
X-76725Y-1259358D01*
X-78159Y-1260033D01*
X-79508Y-1260961D01*
X-80183Y-1261551D01*
X-80857Y-1262226D01*
X-81026Y-1262394D01*
X-81363Y-1262900D01*
X-81954Y-1263743D01*
X-82544Y-1264840D01*
X-83134Y-1266273D01*
X-83640Y-1268044D01*
X-84062Y-1269984D01*
X-84146Y-1272261D01*
X-60787D01*
Y-1272176D01*
Y-1271923D01*
Y-1271586D01*
X-60872Y-1271164D01*
X-60956Y-1270574D01*
X-61040Y-1269899D01*
X-61293Y-1268466D01*
X-61715Y-1266779D01*
X-62390Y-1265093D01*
X-63233Y-1263406D01*
X-64329Y-1261973D01*
X-64498Y-1261804D01*
X-64919Y-1261382D01*
X-65678Y-1260876D01*
X-66606Y-1260202D01*
X-67787Y-1259527D01*
X-69136Y-1259021D01*
X-70738Y-1258599D01*
X-72425Y-1258431D01*
D02*
G37*
G36*
X271991Y1129835D02*
X271612D01*
X271080Y1129759D01*
X270472D01*
X269713Y1129607D01*
X268802Y1129531D01*
X267814Y1129304D01*
X266751Y1129076D01*
X265612Y1128696D01*
X264397Y1128316D01*
X263182Y1127785D01*
X261966Y1127177D01*
X260675Y1126494D01*
X259536Y1125582D01*
X258321Y1124671D01*
X257258Y1123532D01*
X257182Y1123456D01*
X257030Y1123228D01*
X256726Y1122848D01*
X256422Y1122317D01*
X255967Y1121709D01*
X255511Y1120874D01*
X254979Y1119886D01*
X254524Y1118823D01*
X253992Y1117532D01*
X253461Y1116165D01*
X253005Y1114570D01*
X252549Y1112899D01*
X252245Y1111077D01*
X251942Y1109026D01*
X251790Y1106899D01*
X251714Y1104621D01*
Y1104469D01*
Y1104089D01*
X251790Y1103406D01*
Y1102571D01*
X251866Y1101507D01*
X252018Y1100368D01*
X252169Y1099001D01*
X252397Y1097634D01*
X252701Y1096115D01*
X253081Y1094520D01*
X253536Y1093001D01*
X254144Y1091407D01*
X254752Y1089888D01*
X255511Y1088445D01*
X256422Y1087078D01*
X257410Y1085786D01*
X257486Y1085711D01*
X257713Y1085483D01*
X258017Y1085179D01*
X258473Y1084799D01*
X259005Y1084344D01*
X259688Y1083736D01*
X260523Y1083204D01*
X261435Y1082597D01*
X262422Y1081989D01*
X263485Y1081458D01*
X264701Y1080926D01*
X265992Y1080394D01*
X267359Y1080015D01*
X268802Y1079711D01*
X270396Y1079483D01*
X271991Y1079407D01*
X272371D01*
X272827Y1079483D01*
X273434D01*
X274194Y1079635D01*
X275105Y1079711D01*
X276092Y1079939D01*
X277156Y1080166D01*
X278295Y1080546D01*
X279434Y1080926D01*
X280649Y1081458D01*
X281864Y1082065D01*
X283079Y1082825D01*
X284295Y1083660D01*
X285510Y1084571D01*
X286573Y1085711D01*
X286649Y1085786D01*
X286801Y1086014D01*
X287105Y1086394D01*
X287484Y1086926D01*
X287864Y1087609D01*
X288396Y1088369D01*
X288927Y1089356D01*
X289459Y1090495D01*
X289991Y1091786D01*
X290446Y1093153D01*
X290978Y1094748D01*
X291358Y1096495D01*
X291737Y1098318D01*
X292041Y1100368D01*
X292193Y1102571D01*
X292269Y1104849D01*
Y1105001D01*
Y1105381D01*
Y1106064D01*
X292193Y1106899D01*
X292117Y1107963D01*
X291965Y1109178D01*
X291813Y1110469D01*
X291585Y1111912D01*
X291282Y1113431D01*
X290902Y1114950D01*
X290446Y1116469D01*
X289915Y1118064D01*
X289307Y1119582D01*
X288548Y1121025D01*
X287712Y1122392D01*
X286725Y1123608D01*
X286649Y1123684D01*
X286497Y1123911D01*
X286117Y1124215D01*
X285738Y1124595D01*
X285130Y1125051D01*
X284522Y1125582D01*
X283687Y1126114D01*
X282776Y1126721D01*
X281788Y1127329D01*
X280725Y1127861D01*
X279510Y1128392D01*
X278143Y1128848D01*
X276776Y1129228D01*
X275257Y1129607D01*
X273662Y1129759D01*
X271991Y1129835D01*
D02*
G37*
G36*
X-543528Y1128848D02*
X-553249D01*
Y1080394D01*
X-540718D01*
X-540111Y1080470D01*
X-538744D01*
X-537301Y1080546D01*
X-535858Y1080698D01*
X-534415Y1080850D01*
X-533807Y1080926D01*
X-533276Y1081078D01*
X-533200D01*
X-533124Y1081154D01*
X-532668Y1081230D01*
X-531984Y1081458D01*
X-531225Y1081837D01*
X-530238Y1082217D01*
X-529250Y1082749D01*
X-528263Y1083356D01*
X-527352Y1084116D01*
X-527276Y1084192D01*
X-526972Y1084495D01*
X-526516Y1085027D01*
X-525909Y1085786D01*
X-525301Y1086774D01*
X-524694Y1087989D01*
X-524010Y1089432D01*
X-523403Y1091103D01*
Y1091179D01*
X-523327Y1091331D01*
X-523251Y1091634D01*
X-523175Y1092014D01*
X-523023Y1092546D01*
X-522947Y1093153D01*
X-522795Y1093837D01*
X-522643Y1094672D01*
X-522491Y1095584D01*
X-522339Y1096571D01*
X-522263Y1097634D01*
X-522111Y1098849D01*
X-522036Y1100140D01*
X-521960Y1101507D01*
X-521884Y1103026D01*
Y1104545D01*
Y1104621D01*
Y1104925D01*
Y1105381D01*
Y1105912D01*
X-521960Y1106672D01*
Y1107507D01*
X-522036Y1108418D01*
Y1109330D01*
X-522263Y1111456D01*
X-522491Y1113583D01*
X-522871Y1115709D01*
X-523099Y1116621D01*
X-523403Y1117532D01*
Y1117608D01*
X-523479Y1117760D01*
X-523554Y1117988D01*
X-523706Y1118291D01*
X-524010Y1119127D01*
X-524466Y1120114D01*
X-525073Y1121253D01*
X-525833Y1122468D01*
X-526668Y1123608D01*
X-527656Y1124595D01*
X-527807Y1124747D01*
X-528111Y1125051D01*
X-528719Y1125430D01*
X-529478Y1126038D01*
X-530466Y1126570D01*
X-531681Y1127177D01*
X-532972Y1127709D01*
X-534491Y1128088D01*
X-534643D01*
X-534870Y1128164D01*
X-535098Y1128240D01*
X-535478D01*
X-535934Y1128316D01*
X-536541Y1128392D01*
X-537149Y1128468D01*
X-537908Y1128544D01*
X-538820Y1128620D01*
X-539807Y1128696D01*
X-540946D01*
X-542161Y1128772D01*
X-543528Y1128848D01*
D02*
G37*
G36*
X-698272Y-925726D02*
X-715812D01*
Y-946386D01*
X-700886D01*
X-699874Y-946302D01*
X-697513D01*
X-694983Y-946133D01*
X-693718Y-946049D01*
X-692538Y-945965D01*
X-691441Y-945880D01*
X-690514Y-945796D01*
X-689670Y-945627D01*
X-688996Y-945459D01*
X-688827Y-945374D01*
X-688490Y-945290D01*
X-687984Y-945037D01*
X-687309Y-944615D01*
X-686550Y-944194D01*
X-685791Y-943603D01*
X-685032Y-942844D01*
X-684358Y-942001D01*
X-684273Y-941917D01*
X-684105Y-941580D01*
X-683852Y-940989D01*
X-683515Y-940315D01*
X-683177Y-939387D01*
X-682924Y-938375D01*
X-682756Y-937194D01*
X-682671Y-935845D01*
Y-935761D01*
Y-935677D01*
Y-935171D01*
X-682756Y-934412D01*
X-682924Y-933484D01*
X-683177Y-932472D01*
X-683599Y-931376D01*
X-684105Y-930280D01*
X-684864Y-929268D01*
X-684948Y-929183D01*
X-685285Y-928846D01*
X-685791Y-928424D01*
X-686466Y-927918D01*
X-687309Y-927412D01*
X-688406Y-926822D01*
X-689670Y-926400D01*
X-691104Y-926063D01*
X-691188D01*
X-691526Y-925979D01*
X-692285D01*
X-692706Y-925895D01*
X-694056D01*
X-694899Y-925810D01*
X-697007D01*
X-698272Y-925726D01*
D02*
G37*
G36*
X-306748Y-745531D02*
X-334408D01*
X-306748Y-764168D01*
Y-745531D01*
D02*
G37*
G36*
X-334155Y-804898D02*
X-334239D01*
X-334323D01*
X-334829D01*
X-335588Y-804982D01*
X-336516Y-805151D01*
X-337528Y-805404D01*
X-338624Y-805826D01*
X-339720Y-806332D01*
X-340732Y-807091D01*
X-340817Y-807175D01*
X-341154Y-807512D01*
X-341576Y-808018D01*
X-342082Y-808693D01*
X-342588Y-809536D01*
X-343178Y-810632D01*
X-343600Y-811897D01*
X-343937Y-813331D01*
Y-813415D01*
X-344021Y-813753D01*
Y-814511D01*
X-344105Y-814933D01*
Y-816282D01*
X-344190Y-817126D01*
Y-819234D01*
X-344274Y-820499D01*
Y-838039D01*
X-323614D01*
Y-823113D01*
X-323698Y-822101D01*
Y-819740D01*
X-323867Y-817210D01*
X-323951Y-815945D01*
X-324035Y-814764D01*
X-324120Y-813668D01*
X-324204Y-812741D01*
X-324373Y-811897D01*
X-324541Y-811223D01*
X-324626Y-811054D01*
X-324710Y-810717D01*
X-324963Y-810211D01*
X-325385Y-809536D01*
X-325806Y-808777D01*
X-326397Y-808018D01*
X-327156Y-807259D01*
X-327999Y-806585D01*
X-328083Y-806500D01*
X-328420Y-806332D01*
X-329011Y-806079D01*
X-329685Y-805741D01*
X-330613Y-805404D01*
X-331625Y-805151D01*
X-332806Y-804982D01*
X-334155Y-804898D01*
D02*
G37*
G36*
X-44660Y-937751D02*
X-62201D01*
Y-958412D01*
X-47274D01*
X-46263Y-958327D01*
X-43901D01*
X-41372Y-958159D01*
X-40107Y-958074D01*
X-38926Y-957990D01*
X-37830Y-957906D01*
X-36902Y-957821D01*
X-36059Y-957653D01*
X-35384Y-957484D01*
X-35216Y-957400D01*
X-34878Y-957315D01*
X-34372Y-957062D01*
X-33698Y-956641D01*
X-32939Y-956219D01*
X-32180Y-955629D01*
X-31421Y-954870D01*
X-30746Y-954027D01*
X-30662Y-953942D01*
X-30493Y-953605D01*
X-30240Y-953015D01*
X-29903Y-952340D01*
X-29566Y-951412D01*
X-29313Y-950400D01*
X-29144Y-949220D01*
X-29060Y-947871D01*
Y-947786D01*
Y-947702D01*
Y-947196D01*
X-29144Y-946437D01*
X-29313Y-945509D01*
X-29566Y-944497D01*
X-29987Y-943401D01*
X-30493Y-942305D01*
X-31252Y-941293D01*
X-31336Y-941209D01*
X-31674Y-940871D01*
X-32180Y-940450D01*
X-32854Y-939944D01*
X-33698Y-939438D01*
X-34794Y-938847D01*
X-36059Y-938426D01*
X-37492Y-938089D01*
X-37577D01*
X-37914Y-938004D01*
X-38673D01*
X-39095Y-937920D01*
X-40444D01*
X-41287Y-937836D01*
X-43395D01*
X-44660Y-937751D01*
D02*
G37*
G36*
X349461Y-430426D02*
X331921D01*
Y-451086D01*
X346847D01*
X347859Y-451002D01*
X350220D01*
X352750Y-450833D01*
X354015Y-450749D01*
X355196Y-450665D01*
X356292Y-450580D01*
X357220Y-450496D01*
X358063Y-450327D01*
X358737Y-450159D01*
X358906Y-450074D01*
X359243Y-449990D01*
X359749Y-449737D01*
X360424Y-449315D01*
X361183Y-448894D01*
X361942Y-448303D01*
X362701Y-447544D01*
X363375Y-446701D01*
X363460Y-446617D01*
X363628Y-446280D01*
X363881Y-445689D01*
X364219Y-445015D01*
X364556Y-444087D01*
X364809Y-443075D01*
X364978Y-441894D01*
X365062Y-440545D01*
Y-440461D01*
Y-440377D01*
Y-439871D01*
X364978Y-439112D01*
X364809Y-438184D01*
X364556Y-437172D01*
X364134Y-436076D01*
X363628Y-434980D01*
X362869Y-433968D01*
X362785Y-433883D01*
X362448Y-433546D01*
X361942Y-433124D01*
X361267Y-432618D01*
X360424Y-432112D01*
X359328Y-431522D01*
X358063Y-431100D01*
X356629Y-430763D01*
X356545D01*
X356208Y-430679D01*
X355449D01*
X355027Y-430595D01*
X353678D01*
X352834Y-430510D01*
X350726D01*
X349461Y-430426D01*
D02*
G37*
G36*
X843445Y144034D02*
X824808Y116375D01*
X843445D01*
Y144034D01*
D02*
G37*
G36*
X-540677Y-1039225D02*
X-558217D01*
Y-1059885D01*
X-543291D01*
X-542279Y-1059801D01*
X-539918D01*
X-537388Y-1059632D01*
X-536123Y-1059548D01*
X-534943Y-1059463D01*
X-533847Y-1059379D01*
X-532919Y-1059295D01*
X-532076Y-1059126D01*
X-531401Y-1058957D01*
X-531232Y-1058873D01*
X-530895Y-1058789D01*
X-530389Y-1058536D01*
X-529714Y-1058114D01*
X-528956Y-1057693D01*
X-528197Y-1057102D01*
X-527438Y-1056343D01*
X-526763Y-1055500D01*
X-526679Y-1055416D01*
X-526510Y-1055078D01*
X-526257Y-1054488D01*
X-525920Y-1053813D01*
X-525582Y-1052886D01*
X-525329Y-1051874D01*
X-525161Y-1050693D01*
X-525076Y-1049344D01*
Y-1049260D01*
Y-1049175D01*
Y-1048669D01*
X-525161Y-1047911D01*
X-525329Y-1046983D01*
X-525582Y-1045971D01*
X-526004Y-1044875D01*
X-526510Y-1043778D01*
X-527269Y-1042767D01*
X-527353Y-1042682D01*
X-527691Y-1042345D01*
X-528197Y-1041923D01*
X-528871Y-1041417D01*
X-529714Y-1040911D01*
X-530811Y-1040321D01*
X-532076Y-1039899D01*
X-533509Y-1039562D01*
X-533594D01*
X-533931Y-1039478D01*
X-534690D01*
X-535111Y-1039393D01*
X-536461D01*
X-537304Y-1039309D01*
X-539412D01*
X-540677Y-1039225D01*
D02*
G37*
%LPD*%
D32*
X-425300Y-592300D02*
G03*
X-425300Y-592300I-12500J0D01*
G01*
X1145600Y1308100D02*
G03*
X1145600Y1308100I-12500J0D01*
G01*
D33*
X50800Y1041400D02*
X546100D01*
X50800Y1441600D02*
X546100D01*
Y1041400D02*
Y1441600D01*
X50800Y1041400D02*
Y1441600D01*
X546100Y1041400D02*
X1079500D01*
X546100Y1441600D02*
X1079500D01*
Y1041400D02*
Y1441600D01*
X546100Y1041400D02*
Y1441600D01*
X-228600Y1041400D02*
X50800D01*
X-228600Y1441600D02*
X50800D01*
Y1041400D02*
Y1441600D01*
X-228600Y1041400D02*
Y1441600D01*
X-996900Y1041400D02*
X-228600D01*
X-996900Y1441600D02*
X-228600D01*
Y1041400D02*
Y1441600D01*
X-996900Y1041400D02*
Y1441600D01*
X-444500Y-1270000D02*
X-266700D01*
X-444500Y-1092200D02*
X-266700D01*
Y-1270000D02*
Y-1092200D01*
X-444500Y-1270000D02*
Y-1092200D01*
D34*
X-900300Y-605700D02*
X-725300D01*
X-900300Y-435700D02*
X-725300D01*
X-517800Y-534800D02*
X-487800D01*
X-137800D02*
X-107800D01*
Y-155800D02*
Y-124800D01*
Y-534800D02*
Y-505800D01*
X-517800Y-124800D02*
X-487800D01*
X-137800D02*
X-107800D01*
X-517800Y-154800D02*
Y-124800D01*
Y-534800D02*
Y-504800D01*
X-968411Y-423611D02*
X-682589D01*
X-968411Y-236789D02*
X-682589D01*
X150100Y-321900D02*
X180100D01*
X150100Y-236900D02*
X180100D01*
X418800Y94500D02*
Y159500D01*
X698800Y94500D02*
Y159500D01*
X-762000Y805850D02*
Y1035050D01*
Y6350D02*
Y235550D01*
Y6350D02*
X266700D01*
Y805850D02*
Y1035050D01*
Y6350D02*
Y235550D01*
X-762000Y1035050D02*
X266700D01*
X-532400Y-848200D02*
Y-828200D01*
X-407400Y-848200D02*
Y-828200D01*
X1073100Y1174600D02*
Y1441600D01*
X-996900D02*
X1073100D01*
X-996900Y1174600D02*
Y1441600D01*
Y1174600D02*
X1073100D01*
%TF.MD5,91b200836ea8130f2610976f2df2dadb*%
M02*
