G04*
G04 #@! TF.GenerationSoftware,Altium Limited,Altium Designer,19.1.5 (86)*
G04*
G04 Layer_Color=65535*
%FSLAX25Y25*%
%MOIN*%
G70*
G01*
G75*
%ADD10C,0.00984*%
%ADD11C,0.00787*%
%ADD12C,0.01000*%
%ADD13C,0.00500*%
%ADD14C,0.00591*%
D10*
X186216Y182717D02*
G03*
X186216Y182717I-492J0D01*
G01*
D11*
X195634Y178772D02*
X196028D01*
X195634Y175228D02*
X196028D01*
X204303Y196272D02*
X204697D01*
X204303Y192728D02*
X204697D01*
X179185Y161500D02*
X209185D01*
Y171500D01*
X179185D02*
X209185D01*
X179185Y161500D02*
Y171500D01*
X204303Y185728D02*
X204697D01*
X204303Y189272D02*
X204697D01*
X179303Y181075D02*
X179697D01*
X179303Y177925D02*
X179697D01*
X182181Y184095D02*
Y195905D01*
X179819Y184095D02*
Y195905D01*
Y184095D02*
X182181D01*
X179819Y195905D02*
X182181D01*
X109839Y190228D02*
X111413D01*
X109839Y193772D02*
X111413D01*
X109339Y201228D02*
X110913D01*
X109339Y204772D02*
X110913D01*
X135303Y193075D02*
X135697D01*
X135303Y189925D02*
X135697D01*
X135303Y182575D02*
X135697D01*
X135303Y179425D02*
X135697D01*
X147343Y161622D02*
X148918D01*
X147343Y164378D02*
X148918D01*
X159843Y161622D02*
X161418D01*
X159843Y164378D02*
X161418D01*
D12*
X189134Y160500D02*
Y161500D01*
Y160500D02*
X191634Y158000D01*
X197500D01*
X200000Y160500D01*
Y161500D01*
D13*
X102726Y188850D02*
X105452D01*
X102726Y195150D02*
X105409D01*
X102726Y188850D02*
Y195150D01*
X102226Y199850D02*
X104952D01*
X102226Y206150D02*
X104909D01*
X102226Y199850D02*
Y206150D01*
X198686Y182001D02*
X199186Y181501D01*
X200185D01*
X200685Y182001D01*
Y184000D01*
X200185Y184500D01*
X199186D01*
X198686Y184000D01*
X197686Y182001D02*
X197186Y181501D01*
X196186D01*
X195687Y182001D01*
Y182501D01*
X196186Y183001D01*
X196686D01*
X196186D01*
X195687Y183500D01*
Y184000D01*
X196186Y184500D01*
X197186D01*
X197686Y184000D01*
X174500Y199999D02*
Y197500D01*
X175000Y197000D01*
X175999D01*
X176499Y197500D01*
Y199999D01*
X177499Y197000D02*
X178499D01*
X177999D01*
Y199999D01*
X177499Y199499D01*
X130500Y195500D02*
Y198499D01*
X132000D01*
X132499Y197999D01*
Y197000D01*
X132000Y196500D01*
X130500D01*
X131500D02*
X132499Y195500D01*
X135498Y198499D02*
X134499Y197999D01*
X133499Y197000D01*
Y196000D01*
X133999Y195500D01*
X134999D01*
X135498Y196000D01*
Y196500D01*
X134999Y197000D01*
X133499D01*
X153200Y198000D02*
Y200999D01*
X154700D01*
X155199Y200499D01*
Y199499D01*
X154700Y199000D01*
X153200D01*
X154200D02*
X155199Y198000D01*
X158198Y200999D02*
X156199D01*
Y199499D01*
X157199Y199999D01*
X157699D01*
X158198Y199499D01*
Y198500D01*
X157699Y198000D01*
X156699D01*
X156199Y198500D01*
X137630Y161000D02*
Y163999D01*
X139130D01*
X139630Y163499D01*
Y162499D01*
X139130Y162000D01*
X137630D01*
X138630D02*
X139630Y161000D01*
X142129D02*
Y163999D01*
X140629Y162499D01*
X142629D01*
X166130Y161500D02*
Y164499D01*
X167630D01*
X168130Y163999D01*
Y162999D01*
X167630Y162500D01*
X166130D01*
X167130D02*
X168130Y161500D01*
X169130Y163999D02*
X169629Y164499D01*
X170629D01*
X171129Y163999D01*
Y163499D01*
X170629Y162999D01*
X170129D01*
X170629D01*
X171129Y162500D01*
Y162000D01*
X170629Y161500D01*
X169629D01*
X169130Y162000D01*
X192500Y193100D02*
Y196099D01*
X194000D01*
X194499Y195599D01*
Y194599D01*
X194000Y194100D01*
X192500D01*
X193500D02*
X194499Y193100D01*
X197498D02*
X195499D01*
X197498Y195099D01*
Y195599D01*
X196999Y196099D01*
X195999D01*
X195499Y195599D01*
X130500Y185000D02*
Y187999D01*
X132000D01*
X132499Y187499D01*
Y186500D01*
X132000Y186000D01*
X130500D01*
X131500D02*
X132499Y185000D01*
X133499D02*
X134499D01*
X133999D01*
Y187999D01*
X133499Y187499D01*
X154130Y171999D02*
X153130D01*
X153630D01*
Y169500D01*
X153130Y169000D01*
X152630D01*
X152130Y169500D01*
X155130Y169000D02*
X156129D01*
X155629D01*
Y171999D01*
X155130Y171499D01*
X118500Y204499D02*
Y201500D01*
X120000D01*
X120499Y202000D01*
Y203999D01*
X120000Y204499D01*
X118500D01*
X123498Y201500D02*
X121499D01*
X123498Y203499D01*
Y203999D01*
X122999Y204499D01*
X121999D01*
X121499Y203999D01*
X119000Y193999D02*
Y191000D01*
X120500D01*
X120999Y191500D01*
Y193499D01*
X120500Y193999D01*
X119000D01*
X121999Y191000D02*
X122999D01*
X122499D01*
Y193999D01*
X121999Y193499D01*
X194499Y188999D02*
X194000Y189499D01*
X193000D01*
X192500Y188999D01*
Y187000D01*
X193000Y186500D01*
X194000D01*
X194499Y187000D01*
X197498Y186500D02*
X195499D01*
X197498Y188499D01*
Y188999D01*
X196999Y189499D01*
X195999D01*
X195499Y188999D01*
X188499Y180499D02*
X187999Y180999D01*
X187000D01*
X186500Y180499D01*
Y178500D01*
X187000Y178000D01*
X187999D01*
X188499Y178500D01*
X189499Y178000D02*
X190499D01*
X189999D01*
Y180999D01*
X189499Y180499D01*
D14*
X133661Y210480D02*
Y243748D01*
X166339Y210480D02*
Y243748D01*
X133661D02*
X166339D01*
M02*
