G04*
G04 #@! TF.GenerationSoftware,Altium Limited,Altium Designer,19.1.5 (86)*
G04*
G04 Layer_Color=8421504*
%FSLAX25Y25*%
%MOIN*%
G70*
G01*
G75*
%ADD15R,0.05512X0.02362*%
%ADD16R,0.04331X0.04331*%
%ADD17R,0.05512X0.00787*%
%ADD18R,0.03543X0.03937*%
%ADD19R,0.03937X0.02756*%
%ADD20R,0.04921X0.04331*%
%ADD21R,0.02756X0.03543*%
%ADD22R,0.04291X0.06299*%
%ADD23R,0.06299X0.06299*%
D15*
X148130Y170476D02*
D03*
D16*
X192288Y177000D02*
D03*
X199375D02*
D03*
X200957Y194500D02*
D03*
X208043D02*
D03*
Y187500D02*
D03*
X200957D02*
D03*
D17*
X148131Y169000D02*
D03*
X148130Y172051D02*
D03*
D18*
X176350Y179500D02*
D03*
X182650D02*
D03*
X138650Y191500D02*
D03*
X132350D02*
D03*
X138650Y181000D02*
D03*
X132350D02*
D03*
D19*
X185724Y186260D02*
D03*
Y190000D02*
D03*
Y193740D02*
D03*
X176276Y186260D02*
D03*
Y193740D02*
D03*
D20*
X115252Y192000D02*
D03*
X106000D02*
D03*
X114752Y203000D02*
D03*
X105500D02*
D03*
D21*
X151083Y163000D02*
D03*
X145178D02*
D03*
X163583Y163000D02*
D03*
X157678D02*
D03*
D22*
X155295Y191917D02*
D03*
X164390D02*
D03*
D23*
X159843Y180500D02*
D03*
M02*
