G04*
G04 #@! TF.GenerationSoftware,Altium Limited,Altium Designer,19.1.5 (86)*
G04*
G04 Layer_Physical_Order=2*
G04 Layer_Color=16711680*
%FSLAX25Y25*%
%MOIN*%
G70*
G01*
G75*
%ADD12C,0.01000*%
%ADD39R,0.05906X0.05906*%
%ADD40C,0.05906*%
%ADD41C,0.24016*%
%ADD42C,0.08268*%
%ADD43C,0.06142*%
%ADD44C,0.03200*%
G36*
X207000Y250500D02*
X207000Y250500D01*
X207985Y250500D01*
X209917Y250116D01*
X211737Y249362D01*
X213375Y248268D01*
X214768Y246875D01*
X215862Y245237D01*
X216616Y243417D01*
X217000Y241485D01*
X217000Y240500D01*
X217000Y164500D01*
X217000Y164500D01*
X217000Y163515D01*
X216616Y161583D01*
X215862Y159763D01*
X214768Y158125D01*
X213375Y156732D01*
X211737Y155638D01*
X209917Y154884D01*
X207985Y154500D01*
X207000Y154500D01*
X110000D01*
X110000Y154500D01*
X109015Y154500D01*
X107083Y154884D01*
X105263Y155638D01*
X103625Y156732D01*
X102233Y158125D01*
X101138Y159763D01*
X100384Y161583D01*
X100000Y163515D01*
X100000Y164500D01*
Y167869D01*
X100500Y167889D01*
X100612Y166459D01*
X101091Y164468D01*
X101874Y162576D01*
X102944Y160830D01*
X104274Y159274D01*
X105831Y157944D01*
X107576Y156874D01*
X109468Y156090D01*
X111459Y155613D01*
X113000Y155491D01*
Y168500D01*
Y181509D01*
X111459Y181387D01*
X109468Y180910D01*
X107576Y180126D01*
X105831Y179056D01*
X104274Y177726D01*
X102944Y176170D01*
X101874Y174424D01*
X101091Y172532D01*
X100612Y170541D01*
X100500Y169111D01*
X100000Y169131D01*
Y224369D01*
X100500Y224389D01*
X100612Y222959D01*
X101091Y220968D01*
X101874Y219076D01*
X102944Y217331D01*
X104274Y215774D01*
X105831Y214444D01*
X107576Y213374D01*
X109468Y212591D01*
X111459Y212113D01*
X113000Y211991D01*
Y225000D01*
Y238009D01*
X111459Y237887D01*
X109468Y237409D01*
X107576Y236626D01*
X105831Y235556D01*
X104274Y234226D01*
X102944Y232669D01*
X101874Y230924D01*
X101091Y229032D01*
X100612Y227041D01*
X100500Y225611D01*
X100000Y225631D01*
Y240500D01*
X100000Y241485D01*
X100384Y243417D01*
X101138Y245237D01*
X102232Y246875D01*
X103625Y248268D01*
X105263Y249362D01*
X107083Y250116D01*
X109015Y250500D01*
X110000Y250500D01*
X207000Y250500D01*
X207000Y250500D01*
D02*
G37*
%LPC*%
G36*
X159843Y236126D02*
X158554Y235957D01*
X157354Y235459D01*
X156324Y234668D01*
X155533Y233638D01*
X155036Y232438D01*
X154866Y231150D01*
X155036Y229862D01*
X155533Y228661D01*
X156324Y227631D01*
X157354Y226840D01*
X158554Y226343D01*
X159843Y226173D01*
X161130Y226343D01*
X162331Y226840D01*
X163361Y227631D01*
X164152Y228661D01*
X164649Y229862D01*
X164819Y231150D01*
X164649Y232438D01*
X164152Y233638D01*
X163361Y234668D01*
X162331Y235459D01*
X161130Y235957D01*
X159843Y236126D01*
D02*
G37*
G36*
X140157D02*
X138870Y235957D01*
X137669Y235459D01*
X136639Y234668D01*
X135848Y233638D01*
X135351Y232438D01*
X135181Y231150D01*
X135351Y229862D01*
X135848Y228661D01*
X136639Y227631D01*
X137669Y226840D01*
X138870Y226343D01*
X140157Y226173D01*
X141446Y226343D01*
X142646Y226840D01*
X143676Y227631D01*
X144467Y228661D01*
X144964Y229862D01*
X145134Y231150D01*
X144964Y232438D01*
X144467Y233638D01*
X143676Y234668D01*
X142646Y235459D01*
X141446Y235957D01*
X140157Y236126D01*
D02*
G37*
G36*
X198500Y238009D02*
Y225500D01*
X211009D01*
X210887Y227041D01*
X210409Y229032D01*
X209626Y230924D01*
X208556Y232669D01*
X207226Y234226D01*
X205669Y235556D01*
X203924Y236626D01*
X202032Y237409D01*
X200041Y237887D01*
X198500Y238009D01*
D02*
G37*
G36*
X197500D02*
X195959Y237887D01*
X193968Y237409D01*
X192076Y236626D01*
X190331Y235556D01*
X188774Y234226D01*
X187444Y232669D01*
X186374Y230924D01*
X185591Y229032D01*
X185113Y227041D01*
X184991Y225500D01*
X197500D01*
Y238009D01*
D02*
G37*
G36*
X114000D02*
Y225500D01*
X126509D01*
X126387Y227041D01*
X125909Y229032D01*
X125126Y230924D01*
X124056Y232669D01*
X122726Y234226D01*
X121169Y235556D01*
X119424Y236626D01*
X117532Y237409D01*
X115541Y237887D01*
X114000Y238009D01*
D02*
G37*
G36*
X211009Y224500D02*
X198500D01*
Y211991D01*
X200041Y212113D01*
X202032Y212591D01*
X203924Y213374D01*
X205669Y214444D01*
X207226Y215774D01*
X208556Y217331D01*
X209626Y219076D01*
X210409Y220968D01*
X210887Y222959D01*
X211009Y224500D01*
D02*
G37*
G36*
X197500D02*
X184991D01*
X185113Y222959D01*
X185591Y220968D01*
X186374Y219076D01*
X187444Y217331D01*
X188774Y215774D01*
X190331Y214444D01*
X192076Y213374D01*
X193968Y212591D01*
X195959Y212113D01*
X197500Y211991D01*
Y224500D01*
D02*
G37*
G36*
X126509D02*
X114000D01*
Y211991D01*
X115541Y212113D01*
X117532Y212591D01*
X119424Y213374D01*
X121169Y214444D01*
X122726Y215774D01*
X124056Y217331D01*
X125126Y219076D01*
X125909Y220968D01*
X126387Y222959D01*
X126509Y224500D01*
D02*
G37*
G36*
X106000Y210557D02*
Y208500D01*
X108057D01*
X108033Y208679D01*
X107771Y209311D01*
X107354Y209854D01*
X106811Y210271D01*
X106179Y210533D01*
X106000Y210557D01*
D02*
G37*
G36*
X105000D02*
X104821Y210533D01*
X104189Y210271D01*
X103646Y209854D01*
X103229Y209311D01*
X102967Y208679D01*
X102943Y208500D01*
X105000D01*
Y210557D01*
D02*
G37*
G36*
X108057Y207500D02*
X106000D01*
Y205443D01*
X106179Y205467D01*
X106811Y205729D01*
X107354Y206146D01*
X107771Y206689D01*
X108033Y207321D01*
X108057Y207500D01*
D02*
G37*
G36*
X105000D02*
X102943D01*
X102967Y207321D01*
X103229Y206689D01*
X103646Y206146D01*
X104189Y205729D01*
X104821Y205467D01*
X105000Y205443D01*
Y207500D01*
D02*
G37*
G36*
X150500Y207040D02*
Y203500D01*
X154040D01*
X153966Y204063D01*
X153556Y205053D01*
X152903Y205903D01*
X152053Y206556D01*
X151063Y206966D01*
X150500Y207040D01*
D02*
G37*
G36*
X149500D02*
X148937Y206966D01*
X147947Y206556D01*
X147097Y205903D01*
X146444Y205053D01*
X146034Y204063D01*
X145960Y203500D01*
X149500D01*
Y207040D01*
D02*
G37*
G36*
X140157Y206904D02*
X139147Y206771D01*
X138205Y206381D01*
X137397Y205761D01*
X136776Y204952D01*
X136386Y204011D01*
X136253Y203000D01*
X136386Y201990D01*
X136776Y201048D01*
X137397Y200239D01*
X138205Y199619D01*
X139147Y199229D01*
X140157Y199096D01*
X141168Y199229D01*
X142110Y199619D01*
X142918Y200239D01*
X143539Y201048D01*
X143929Y201990D01*
X144062Y203000D01*
X143929Y204011D01*
X143539Y204952D01*
X142918Y205761D01*
X142110Y206381D01*
X141168Y206771D01*
X140157Y206904D01*
D02*
G37*
G36*
X154040Y202500D02*
X150500D01*
Y198960D01*
X151063Y199034D01*
X152053Y199444D01*
X152903Y200097D01*
X153556Y200947D01*
X153966Y201937D01*
X154040Y202500D01*
D02*
G37*
G36*
X149500D02*
X145960D01*
X146034Y201937D01*
X146444Y200947D01*
X147097Y200097D01*
X147947Y199444D01*
X148937Y199034D01*
X149500Y198960D01*
Y202500D01*
D02*
G37*
G36*
X164771Y200557D02*
Y198500D01*
X166828D01*
X166805Y198679D01*
X166543Y199311D01*
X166126Y199854D01*
X165583Y200271D01*
X164950Y200533D01*
X164771Y200557D01*
D02*
G37*
G36*
X166828Y197500D02*
X164771D01*
Y195443D01*
X164950Y195467D01*
X165583Y195729D01*
X166126Y196146D01*
X166543Y196689D01*
X166805Y197321D01*
X166828Y197500D01*
D02*
G37*
G36*
X163771D02*
X161715D01*
X161738Y197321D01*
X162000Y196689D01*
X162417Y196146D01*
X162960Y195729D01*
X163593Y195467D01*
X163771Y195443D01*
Y197500D01*
D02*
G37*
G36*
X191000Y192557D02*
Y190500D01*
X193057D01*
X193033Y190679D01*
X192771Y191311D01*
X192354Y191854D01*
X191811Y192271D01*
X191179Y192533D01*
X191000Y192557D01*
D02*
G37*
G36*
X190000D02*
X189821Y192533D01*
X189189Y192271D01*
X188646Y191854D01*
X188229Y191311D01*
X187967Y190679D01*
X187943Y190500D01*
X190000D01*
Y192557D01*
D02*
G37*
G36*
X159843Y206904D02*
X158832Y206771D01*
X157890Y206381D01*
X157082Y205761D01*
X156461Y204952D01*
X156071Y204011D01*
X155938Y203000D01*
X156071Y201990D01*
X156461Y201048D01*
X157082Y200239D01*
X157890Y199619D01*
X158832Y199229D01*
X159843Y199096D01*
X160853Y199229D01*
X161556Y199520D01*
X161926Y199132D01*
X161738Y198679D01*
X161715Y198500D01*
X163771D01*
Y200557D01*
X163593Y200533D01*
X163397Y200452D01*
X163082Y200863D01*
X163224Y201048D01*
X163483Y201675D01*
X169951D01*
X186563Y185063D01*
X186993Y184775D01*
X187500Y184675D01*
X188499D01*
X188770Y184270D01*
X189564Y183739D01*
X190500Y183553D01*
X191436Y183739D01*
X192230Y184270D01*
X192761Y185064D01*
X192947Y186000D01*
X192761Y186936D01*
X192230Y187730D01*
X192407Y188214D01*
X192771Y188689D01*
X193033Y189321D01*
X193057Y189500D01*
X187943D01*
X187967Y189321D01*
X188229Y188689D01*
X188593Y188214D01*
X188750Y187784D01*
X188503Y187411D01*
X188005Y187370D01*
X171437Y203937D01*
X171007Y204225D01*
X170500Y204326D01*
X163483D01*
X163224Y204952D01*
X162603Y205761D01*
X161795Y206381D01*
X160853Y206771D01*
X159843Y206904D01*
D02*
G37*
G36*
X208150Y185057D02*
Y183000D01*
X210206D01*
X210183Y183179D01*
X209921Y183811D01*
X209504Y184354D01*
X208961Y184771D01*
X208328Y185033D01*
X208150Y185057D01*
D02*
G37*
G36*
X207150D02*
X206971Y185033D01*
X206338Y184771D01*
X205795Y184354D01*
X205379Y183811D01*
X205117Y183179D01*
X205093Y183000D01*
X207150D01*
Y185057D01*
D02*
G37*
G36*
X210206Y182000D02*
X208150D01*
Y179943D01*
X208328Y179967D01*
X208961Y180229D01*
X209504Y180646D01*
X209921Y181189D01*
X210183Y181821D01*
X210206Y182000D01*
D02*
G37*
G36*
X207150D02*
X205093D01*
X205117Y181821D01*
X205379Y181189D01*
X205795Y180646D01*
X206338Y180229D01*
X206971Y179967D01*
X207150Y179943D01*
Y182000D01*
D02*
G37*
G36*
X114000Y181509D02*
Y169000D01*
X126509D01*
X126387Y170541D01*
X125909Y172532D01*
X125126Y174424D01*
X124056Y176170D01*
X122726Y177726D01*
X121169Y179056D01*
X119424Y180126D01*
X117532Y180910D01*
X115541Y181387D01*
X114000Y181509D01*
D02*
G37*
G36*
X141630Y169557D02*
Y167500D01*
X143687D01*
X143664Y167679D01*
X143402Y168311D01*
X142985Y168854D01*
X142442Y169271D01*
X141809Y169533D01*
X141630Y169557D01*
D02*
G37*
G36*
X140630D02*
X140452Y169533D01*
X139819Y169271D01*
X139276Y168854D01*
X138859Y168311D01*
X138597Y167679D01*
X138574Y167500D01*
X140630D01*
Y169557D01*
D02*
G37*
G36*
X194685Y170421D02*
Y167000D01*
X198106D01*
X198036Y167532D01*
X197638Y168493D01*
X197004Y169319D01*
X196178Y169953D01*
X195217Y170351D01*
X194685Y170421D01*
D02*
G37*
G36*
X193685D02*
X193153Y170351D01*
X192192Y169953D01*
X191366Y169319D01*
X190732Y168493D01*
X190334Y167532D01*
X190264Y167000D01*
X193685D01*
Y170421D01*
D02*
G37*
G36*
X143687Y166500D02*
X141630D01*
Y164443D01*
X141809Y164467D01*
X142442Y164729D01*
X142985Y165146D01*
X143402Y165689D01*
X143664Y166321D01*
X143687Y166500D01*
D02*
G37*
G36*
X140630D02*
X138574D01*
X138597Y166321D01*
X138859Y165689D01*
X139276Y165146D01*
X139819Y164729D01*
X140452Y164467D01*
X140630Y164443D01*
Y166500D01*
D02*
G37*
G36*
X187938Y170253D02*
X180432D01*
Y162747D01*
X187938D01*
Y170253D01*
D02*
G37*
G36*
X204185Y170285D02*
X203205Y170156D01*
X202292Y169778D01*
X201508Y169176D01*
X200907Y168393D01*
X200529Y167480D01*
X200400Y166500D01*
X200529Y165520D01*
X200907Y164607D01*
X201508Y163823D01*
X202292Y163222D01*
X203205Y162844D01*
X204185Y162715D01*
X205165Y162844D01*
X206078Y163222D01*
X206861Y163823D01*
X207463Y164607D01*
X207841Y165520D01*
X207970Y166500D01*
X207841Y167480D01*
X207463Y168393D01*
X206861Y169176D01*
X206078Y169778D01*
X205165Y170156D01*
X204185Y170285D01*
D02*
G37*
G36*
X198106Y166000D02*
X194685D01*
Y162579D01*
X195217Y162649D01*
X196178Y163047D01*
X197004Y163681D01*
X197638Y164507D01*
X198036Y165468D01*
X198106Y166000D01*
D02*
G37*
G36*
X193685D02*
X190264D01*
X190334Y165468D01*
X190732Y164507D01*
X191366Y163681D01*
X192192Y163047D01*
X193153Y162649D01*
X193685Y162579D01*
Y166000D01*
D02*
G37*
G36*
X126509Y168000D02*
X114000D01*
Y155491D01*
X115541Y155613D01*
X117532Y156090D01*
X119424Y156874D01*
X121169Y157944D01*
X122726Y159274D01*
X124056Y160830D01*
X125126Y162576D01*
X125909Y164468D01*
X126387Y166459D01*
X126509Y168000D01*
D02*
G37*
%LPD*%
D12*
X187500Y186000D02*
X190500D01*
X170500Y203000D02*
X187500Y186000D01*
X159843Y203000D02*
X170500D01*
D39*
X184185Y166500D02*
D03*
D40*
X194185D02*
D03*
X204185D02*
D03*
D41*
X113500Y168500D02*
D03*
X198000Y225000D02*
D03*
X113500D02*
D03*
D42*
X140157Y231150D02*
D03*
X159843D02*
D03*
D43*
X140157Y203000D02*
D03*
X150000D02*
D03*
X159843D02*
D03*
D44*
X190500Y186000D02*
D03*
X105500Y208000D02*
D03*
X141130Y167000D02*
D03*
X164271Y198000D02*
D03*
X190500Y190000D02*
D03*
X207650Y182500D02*
D03*
M02*
