G04*
G04 #@! TF.GenerationSoftware,Altium Limited,Altium Designer,19.1.5 (86)*
G04*
G04 Layer_Color=8388736*
%FSLAX25Y25*%
%MOIN*%
G70*
G01*
G75*
%ADD24R,0.06299X0.04626*%
%ADD25R,0.05131X0.05131*%
%ADD26R,0.06312X0.01587*%
%ADD27R,0.04343X0.04737*%
%ADD28R,0.04737X0.03556*%
%ADD29R,0.05721X0.05131*%
%ADD30R,0.03556X0.04343*%
%ADD31R,0.05091X0.07099*%
%ADD32R,0.07099X0.07099*%
%ADD33R,0.06706X0.06706*%
%ADD34C,0.06706*%
%ADD35C,0.24816*%
%ADD36C,0.09068*%
%ADD37C,0.06942*%
%ADD38C,0.04000*%
D24*
X148130Y170526D02*
D03*
D25*
X192288Y177000D02*
D03*
X199375D02*
D03*
X200957Y194500D02*
D03*
X208043D02*
D03*
Y187500D02*
D03*
X200957D02*
D03*
D26*
X148131Y169000D02*
D03*
X148130Y172051D02*
D03*
D27*
X176350Y179500D02*
D03*
X182650D02*
D03*
X138650Y191500D02*
D03*
X132350D02*
D03*
X138650Y181000D02*
D03*
X132350D02*
D03*
D28*
X185724Y186260D02*
D03*
Y190000D02*
D03*
Y193740D02*
D03*
X176276Y186260D02*
D03*
Y193740D02*
D03*
D29*
X115252Y192000D02*
D03*
X106000D02*
D03*
X114752Y203000D02*
D03*
X105500D02*
D03*
D30*
X151083Y163000D02*
D03*
X145178D02*
D03*
X163583Y163000D02*
D03*
X157678D02*
D03*
D31*
X155295Y191917D02*
D03*
X164390D02*
D03*
D32*
X159843Y180500D02*
D03*
D33*
X184185Y166500D02*
D03*
D34*
X194185D02*
D03*
X204185D02*
D03*
D35*
X113500Y168500D02*
D03*
X198000Y225000D02*
D03*
X113500D02*
D03*
D36*
X140157Y231150D02*
D03*
X159843D02*
D03*
D37*
X140157Y203000D02*
D03*
X150000D02*
D03*
X159843D02*
D03*
D38*
X190500Y186000D02*
D03*
X105500Y208000D02*
D03*
X141130Y167000D02*
D03*
X164271Y198000D02*
D03*
X190500Y190000D02*
D03*
X207650Y182500D02*
D03*
M02*
