%TF.GenerationSoftware,Altium Limited,Altium Designer,22.5.1 (42)*%
G04 Layer_Color=32768*
%FSLAX45Y45*%
%MOMM*%
%TF.SameCoordinates,176CDB2E-7B72-45DB-8ACB-ACD3A9543041*%
%TF.FilePolarity,Positive*%
%TF.FileFunction,Other,Mechanical_15*%
%TF.Part,Single*%
G01*
G75*
%TA.AperFunction,NonConductor*%
%ADD38C,0.15240*%
%ADD39C,0.12700*%
%ADD48C,0.10000*%
%ADD52C,0.05000*%
G36*
X5333300Y1314999D02*
Y217001D01*
X6803300D01*
Y1314999D01*
X5333300D01*
D02*
G37*
G36*
X6494145Y2034540D02*
X6443980D01*
Y2461260D01*
X6554470D01*
Y2479040D01*
X6755130D01*
Y2461260D01*
X6865620D01*
Y2034540D01*
X6815455D01*
Y2016760D01*
X6668135D01*
Y2034540D01*
X6641465D01*
Y2016760D01*
X6494145D01*
Y2034540D01*
D02*
G37*
D38*
X6443980D02*
X6494145D01*
Y2016760D02*
Y2034540D01*
Y2016760D02*
X6641465D01*
Y2034540D01*
X6668135D01*
Y2016760D02*
Y2034540D01*
Y2016760D02*
X6815455D01*
Y2034540D01*
X6865620D01*
Y2461260D01*
X6755130D02*
X6865620D01*
X6755130D02*
Y2479040D01*
X6554470D02*
X6755130D01*
X6554470Y2461260D02*
Y2479040D01*
X6443980Y2461260D02*
X6554470D01*
X6443980Y2034540D02*
Y2461260D01*
D39*
X5333300Y217001D02*
X6803300D01*
Y1314999D01*
X5333300D02*
X6803300D01*
X5333300Y217001D02*
Y1314999D01*
D48*
X2395749Y731008D02*
Y831008D01*
X2345748Y781008D02*
X2445748D01*
X5750100Y5334000D02*
X5850100D01*
X5800100Y5284000D02*
Y5384000D01*
X5584200Y4687100D02*
Y4787100D01*
X5534200Y4737100D02*
X5634200D01*
X6016000Y4687100D02*
Y4787100D01*
X5966000Y4737100D02*
X6066000D01*
X5981700Y2210600D02*
Y2310600D01*
X5931700Y2260600D02*
X6031700D01*
X6604000Y1639100D02*
Y1739100D01*
X6554000Y1689100D02*
X6654000D01*
X6197600Y1639100D02*
Y1739100D01*
X6147600Y1689100D02*
X6247600D01*
X4670600Y3759200D02*
X4770600D01*
X4720600Y3709200D02*
Y3809200D01*
X3591100Y3822700D02*
X3691100D01*
X3641100Y3772700D02*
Y3872700D01*
X2395749Y3779008D02*
Y3879008D01*
X2345748Y3829008D02*
X2445748D01*
X2872200Y3911600D02*
X2962200D01*
X2917200Y3866600D02*
Y3956600D01*
X4072900Y3371300D02*
Y3461300D01*
X4027900Y3416300D02*
X4117900D01*
X4116800Y3759200D02*
X4206800D01*
X4161800Y3714200D02*
Y3804200D01*
X3075400Y3911600D02*
X3165400D01*
X3120400Y3866600D02*
Y3956600D01*
X3031500Y4158700D02*
Y4248700D01*
X2986500Y4203700D02*
X3076500D01*
X4320000Y3759200D02*
X4410000D01*
X4365000Y3714200D02*
Y3804200D01*
X1786149Y3491908D02*
Y3581909D01*
X1741148Y3536908D02*
X1831148D01*
X1830049Y3829008D02*
X1920049D01*
X1875049Y3784008D02*
Y3874009D01*
X1449049Y3638508D02*
X1539049D01*
X1494049Y3593508D02*
Y3683509D01*
X839449Y3638508D02*
X929449D01*
X884449Y3593508D02*
Y3683509D01*
X1786149Y4076108D02*
Y4166109D01*
X1741148Y4121108D02*
X1831148D01*
X1449048Y4019508D02*
X1539048D01*
X1494049Y3974508D02*
Y4064508D01*
X839448Y4019508D02*
X929448D01*
X884449Y3974508D02*
Y4064508D01*
X4250700Y4052100D02*
Y4152100D01*
X4200700Y4102100D02*
X4300700D01*
X3031500Y3556800D02*
Y3656800D01*
X2981500Y3606800D02*
X3081500D01*
X4771400Y4014000D02*
Y4114000D01*
X4721400Y4064000D02*
X4821400D01*
X4657100Y3404400D02*
Y3504400D01*
X4607100Y3454400D02*
X4707100D01*
X2612400Y4191800D02*
Y4291800D01*
X2562400Y4241800D02*
X2662400D01*
X2383800Y3366300D02*
Y3466300D01*
X2333800Y3416300D02*
X2433800D01*
X1189249Y3499608D02*
Y3599608D01*
X1139248Y3549608D02*
X1239248D01*
X1189249Y4058408D02*
Y4158408D01*
X1139248Y4108408D02*
X1239248D01*
X4027900Y368300D02*
X4117900D01*
X4072900Y323300D02*
Y413300D01*
X6660600Y1917700D02*
X6750600D01*
X6705600Y1872700D02*
Y1962700D01*
X6127200Y1905000D02*
X6217200D01*
X6172200Y1860000D02*
Y1950000D01*
X4027900Y4940300D02*
X4117900D01*
X4072900Y4895300D02*
Y4985300D01*
X4670600Y711200D02*
X4770600D01*
X4720600Y661200D02*
Y761200D01*
X3591100Y774700D02*
X3691100D01*
X3641100Y724700D02*
Y824700D01*
X2872200Y863600D02*
X2962200D01*
X2917200Y818600D02*
Y908600D01*
X4116800Y711200D02*
X4206800D01*
X4161800Y666200D02*
Y756200D01*
X3075400Y863600D02*
X3165400D01*
X3120400Y818600D02*
Y908600D01*
X3031500Y1110700D02*
Y1200700D01*
X2986500Y1155700D02*
X3076500D01*
X4320000Y711200D02*
X4410000D01*
X4365000Y666200D02*
Y756200D01*
X1786149Y443908D02*
Y533909D01*
X1741148Y488908D02*
X1831148D01*
X1830049Y781008D02*
X1920049D01*
X1875049Y736008D02*
Y826009D01*
X1449049Y590508D02*
X1539049D01*
X1494049Y545508D02*
Y635509D01*
X839449Y590508D02*
X929449D01*
X884449Y545508D02*
Y635509D01*
X1786149Y1028108D02*
Y1118109D01*
X1741148Y1073108D02*
X1831148D01*
X1449048Y971508D02*
X1539048D01*
X1494049Y926508D02*
Y1016508D01*
X839448Y971508D02*
X929448D01*
X884449Y926508D02*
Y1016508D01*
X4250700Y1004100D02*
Y1104100D01*
X4200700Y1054100D02*
X4300700D01*
X3031500Y508800D02*
Y608800D01*
X2981500Y558800D02*
X3081500D01*
X4771400Y966000D02*
Y1066000D01*
X4721400Y1016000D02*
X4821400D01*
X4657100Y356400D02*
Y456400D01*
X4607100Y406400D02*
X4707100D01*
X2612400Y1143800D02*
Y1243800D01*
X2562400Y1193800D02*
X2662400D01*
X2383800Y318300D02*
Y418300D01*
X2333800Y368300D02*
X2433800D01*
X1189249Y451608D02*
Y551608D01*
X1139248Y501608D02*
X1239248D01*
X1189249Y1010408D02*
Y1110408D01*
X1139248Y1060408D02*
X1239248D01*
X4670600Y5283200D02*
X4770600D01*
X4720600Y5233200D02*
Y5333200D01*
X3591100Y5346700D02*
X3691100D01*
X3641100Y5296700D02*
Y5396700D01*
X2345748Y5353008D02*
X2445748D01*
X2395749Y5303008D02*
Y5403008D01*
X2872200Y5435600D02*
X2962200D01*
X2917200Y5390600D02*
Y5480600D01*
X4116800Y5283200D02*
X4206800D01*
X4161800Y5238200D02*
Y5328200D01*
X3075400Y5435600D02*
X3165400D01*
X3120400Y5390600D02*
Y5480600D01*
X3031500Y5682700D02*
Y5772700D01*
X2986500Y5727700D02*
X3076500D01*
X4320000Y5283200D02*
X4410000D01*
X4365000Y5238200D02*
Y5328200D01*
X1786149Y5015908D02*
Y5105909D01*
X1741148Y5060908D02*
X1831148D01*
X1830049Y5353008D02*
X1920049D01*
X1875049Y5308008D02*
Y5398009D01*
X1449049Y5162508D02*
X1539049D01*
X1494049Y5117508D02*
Y5207509D01*
X839449Y5162508D02*
X929449D01*
X884449Y5117508D02*
Y5207509D01*
X1786149Y5600108D02*
Y5690109D01*
X1741148Y5645108D02*
X1831148D01*
X1449048Y5543508D02*
X1539048D01*
X1494049Y5498508D02*
Y5588508D01*
X839448Y5543508D02*
X929448D01*
X884449Y5498508D02*
Y5588508D01*
X4250700Y5576100D02*
Y5676100D01*
X4200700Y5626100D02*
X4300700D01*
X3031500Y5080800D02*
Y5180800D01*
X2981500Y5130800D02*
X3081500D01*
X4771400Y5538000D02*
Y5638000D01*
X4721400Y5588000D02*
X4821400D01*
X4657100Y4928400D02*
Y5028400D01*
X4607100Y4978400D02*
X4707100D01*
X2612400Y5715800D02*
Y5815800D01*
X2562400Y5765800D02*
X2662400D01*
X2383800Y4890300D02*
Y4990300D01*
X2333800Y4940300D02*
X2433800D01*
X1189249Y5023608D02*
Y5123608D01*
X1139248Y5073608D02*
X1239248D01*
X1189249Y5582408D02*
Y5682408D01*
X1139248Y5632408D02*
X1239248D01*
X1139248Y2584408D02*
X1239248D01*
X1189249Y2534408D02*
Y2634408D01*
X1139248Y2025608D02*
X1239248D01*
X1189249Y1975608D02*
Y2075608D01*
X2333800Y1892300D02*
X2433800D01*
X2383800Y1842300D02*
Y1942300D01*
X2562400Y2717800D02*
X2662400D01*
X2612400Y2667800D02*
Y2767800D01*
X4607100Y1930400D02*
X4707100D01*
X4657100Y1880400D02*
Y1980400D01*
X4721400Y2540000D02*
X4821400D01*
X4771400Y2490000D02*
Y2590000D01*
X2981500Y2082800D02*
X3081500D01*
X3031500Y2032800D02*
Y2132800D01*
X4200700Y2578100D02*
X4300700D01*
X4250700Y2528100D02*
Y2628100D01*
X884449Y2450508D02*
Y2540508D01*
X839448Y2495508D02*
X929448D01*
X1494049Y2450508D02*
Y2540508D01*
X1449048Y2495508D02*
X1539048D01*
X1741148Y2597108D02*
X1831148D01*
X1786149Y2552108D02*
Y2642109D01*
X884449Y2069508D02*
Y2159509D01*
X839449Y2114508D02*
X929449D01*
X1494049Y2069508D02*
Y2159509D01*
X1449049Y2114508D02*
X1539049D01*
X1875049Y2260008D02*
Y2350009D01*
X1830049Y2305008D02*
X1920049D01*
X1741148Y2012908D02*
X1831148D01*
X1786149Y1967908D02*
Y2057909D01*
X4365000Y2190200D02*
Y2280200D01*
X4320000Y2235200D02*
X4410000D01*
X2986500Y2679700D02*
X3076500D01*
X3031500Y2634700D02*
Y2724700D01*
X3120400Y2342600D02*
Y2432600D01*
X3075400Y2387600D02*
X3165400D01*
X4161800Y2190200D02*
Y2280200D01*
X4116800Y2235200D02*
X4206800D01*
X4027900Y1892300D02*
X4117900D01*
X4072900Y1847300D02*
Y1937300D01*
X2917200Y2342600D02*
Y2432600D01*
X2872200Y2387600D02*
X2962200D01*
X2395749Y2255008D02*
Y2355008D01*
X2345748Y2305008D02*
X2445748D01*
X3641100Y2248700D02*
Y2348700D01*
X3591100Y2298700D02*
X3691100D01*
X4720600Y2185200D02*
Y2285200D01*
X4670600Y2235200D02*
X4770600D01*
D52*
X1980748Y481008D02*
X2810749D01*
X1980748Y1081008D02*
X2810749D01*
Y481008D02*
Y1081008D01*
X1980748Y481008D02*
Y1081008D01*
X6215100Y4844000D02*
Y5824000D01*
X5385100Y4844000D02*
Y5824000D01*
Y4844000D02*
X6215100D01*
X5385100Y5824000D02*
X6215100D01*
X5389200Y4842100D02*
X5779200D01*
X5389200Y4632100D02*
X5779200D01*
X5389200D02*
Y4842100D01*
X5779200Y4632100D02*
Y4842100D01*
X5821000Y4632100D02*
X6211000D01*
X5821000Y4842100D02*
X6211000D01*
Y4632100D02*
Y4842100D01*
X5821000Y4632100D02*
Y4842100D01*
X5707700Y2425600D02*
X6255700D01*
X5707700Y2095600D02*
X6255700D01*
X5707700D02*
Y2425600D01*
X6255700Y2095600D02*
Y2425600D01*
X6409000Y1584100D02*
X6799000D01*
X6409000Y1794100D02*
X6799000D01*
Y1584100D02*
Y1794100D01*
X6409000Y1584100D02*
Y1794100D01*
X6002600Y1794100D02*
X6392600D01*
X6002600Y1584100D02*
X6392600D01*
X6002600D02*
Y1794100D01*
X6392600Y1584100D02*
Y1794100D01*
X4468100Y3564200D02*
Y3954200D01*
X4973100Y3564200D02*
Y3954200D01*
X4468100D02*
X4973100D01*
X4468100Y3564200D02*
X4973100D01*
X3226100Y3522700D02*
Y4122700D01*
X4056100Y3522700D02*
Y4122700D01*
X3226100D02*
X4056100D01*
X3226100Y3522700D02*
X4056100D01*
X1980748Y3529008D02*
X2810749D01*
X1980748Y4129008D02*
X2810749D01*
Y3529008D02*
Y4129008D01*
X1980748Y3529008D02*
Y4129008D01*
X2817200Y3721600D02*
Y4101600D01*
X3017200Y3721600D02*
Y4101600D01*
X2817200Y3721600D02*
X3017200D01*
X2817200Y4101600D02*
X3017200D01*
X3882900Y3316300D02*
X4262900D01*
X3882900Y3516300D02*
X4262900D01*
Y3316300D02*
Y3516300D01*
X3882900Y3316300D02*
Y3516300D01*
X4261800Y3569200D02*
Y3949200D01*
X4061800Y3569200D02*
Y3949200D01*
X4261800D01*
X4061800Y3569200D02*
X4261800D01*
X3220400Y3721600D02*
Y4101600D01*
X3020400Y3721600D02*
Y4101600D01*
X3220400D01*
X3020400Y3721600D02*
X3220400D01*
X2841500Y4303700D02*
X3221500D01*
X2841500Y4103700D02*
X3221500D01*
X2841500D02*
Y4303700D01*
X3221500Y4103700D02*
Y4303700D01*
X4465000Y3569200D02*
Y3949200D01*
X4265000Y3569200D02*
Y3949200D01*
X4465000D01*
X4265000Y3569200D02*
X4465000D01*
X1596148Y3636908D02*
X1976148D01*
X1596148Y3436909D02*
X1976148D01*
X1596148D02*
Y3636908D01*
X1976148Y3436909D02*
Y3636908D01*
X1975049Y3639008D02*
Y4019008D01*
X1775049Y3639008D02*
Y4019008D01*
X1975049D01*
X1775049Y3639008D02*
X1975049D01*
X1594049Y3448508D02*
Y3828508D01*
X1394049Y3448508D02*
Y3828508D01*
X1594049D01*
X1394049Y3448508D02*
X1594049D01*
X984449D02*
Y3828508D01*
X784449Y3448508D02*
Y3828508D01*
X984449D01*
X784449Y3448508D02*
X984449D01*
X1596148Y4221108D02*
X1976148D01*
X1596148Y4021109D02*
X1976148D01*
X1596148D02*
Y4221108D01*
X1976148Y4021109D02*
Y4221108D01*
X1394049Y3829508D02*
Y4209508D01*
X1594048Y3829508D02*
Y4209508D01*
X1394049Y3829508D02*
X1594048D01*
X1394049Y4209508D02*
X1594048D01*
X784449Y3829508D02*
Y4209508D01*
X984448Y3829508D02*
Y4209508D01*
X784449Y3829508D02*
X984448D01*
X784449Y4209508D02*
X984448D01*
X4055700Y4207100D02*
X4445700D01*
X4055700Y3997100D02*
X4445700D01*
X4055700D02*
Y4207100D01*
X4445700Y3997100D02*
Y4207100D01*
X2836500Y3501800D02*
X3226500D01*
X2836500Y3711800D02*
X3226500D01*
Y3501800D02*
Y3711800D01*
X2836500Y3501800D02*
Y3711800D01*
X4576400Y3959000D02*
X4966400D01*
X4576400Y4169000D02*
X4966400D01*
Y3959000D02*
Y4169000D01*
X4576400Y3959000D02*
Y4169000D01*
X4462100Y3349400D02*
X4852100D01*
X4462100Y3559400D02*
X4852100D01*
Y3349400D02*
Y3559400D01*
X4462100Y3349400D02*
Y3559400D01*
X2417400Y4136800D02*
X2807400D01*
X2417400Y4346800D02*
X2807400D01*
Y4136800D02*
Y4346800D01*
X2417400Y4136800D02*
Y4346800D01*
X2188800Y3311300D02*
X2578800D01*
X2188800Y3521300D02*
X2578800D01*
Y3311300D02*
Y3521300D01*
X2188800Y3311300D02*
Y3521300D01*
X994248Y3444608D02*
X1384248D01*
X994248Y3654608D02*
X1384248D01*
Y3444608D02*
Y3654608D01*
X994248Y3444608D02*
Y3654608D01*
Y4003408D02*
X1384248D01*
X994248Y4213408D02*
X1384248D01*
Y4003408D02*
Y4213408D01*
X994248Y4003408D02*
Y4213408D01*
X3882900Y268300D02*
Y468300D01*
X4262900Y268300D02*
Y468300D01*
X3882900D02*
X4262900D01*
X3882900Y268300D02*
X4262900D01*
X6515600Y1817700D02*
Y2017700D01*
X6895600Y1817700D02*
Y2017700D01*
X6515600D02*
X6895600D01*
X6515600Y1817700D02*
X6895600D01*
X6362200Y1805000D02*
Y2005000D01*
X5982200Y1805000D02*
Y2005000D01*
Y1805000D02*
X6362200D01*
X5982200Y2005000D02*
X6362200D01*
X3882900Y4840300D02*
Y5040300D01*
X4262900Y4840300D02*
Y5040300D01*
X3882900D02*
X4262900D01*
X3882900Y4840300D02*
X4262900D01*
X4468100Y516200D02*
Y906200D01*
X4973100Y516200D02*
Y906200D01*
X4468100D02*
X4973100D01*
X4468100Y516200D02*
X4973100D01*
X3226100Y474700D02*
Y1074700D01*
X4056100Y474700D02*
Y1074700D01*
X3226100D02*
X4056100D01*
X3226100Y474700D02*
X4056100D01*
X2817200Y673600D02*
Y1053600D01*
X3017200Y673600D02*
Y1053600D01*
X2817200Y673600D02*
X3017200D01*
X2817200Y1053600D02*
X3017200D01*
X4261800Y521200D02*
Y901200D01*
X4061800Y521200D02*
Y901200D01*
X4261800D01*
X4061800Y521200D02*
X4261800D01*
X3220400Y673600D02*
Y1053600D01*
X3020400Y673600D02*
Y1053600D01*
X3220400D01*
X3020400Y673600D02*
X3220400D01*
X2841500Y1255700D02*
X3221500D01*
X2841500Y1055700D02*
X3221500D01*
X2841500D02*
Y1255700D01*
X3221500Y1055700D02*
Y1255700D01*
X4465000Y521200D02*
Y901200D01*
X4265000Y521200D02*
Y901200D01*
X4465000D01*
X4265000Y521200D02*
X4465000D01*
X1596148Y588908D02*
X1976148D01*
X1596148Y388909D02*
X1976148D01*
X1596148D02*
Y588908D01*
X1976148Y388909D02*
Y588908D01*
X1975049Y591008D02*
Y971008D01*
X1775049Y591008D02*
Y971008D01*
X1975049D01*
X1775049Y591008D02*
X1975049D01*
X1594049Y400508D02*
Y780508D01*
X1394049Y400508D02*
Y780508D01*
X1594049D01*
X1394049Y400508D02*
X1594049D01*
X984449D02*
Y780508D01*
X784449Y400508D02*
Y780508D01*
X984449D01*
X784449Y400508D02*
X984449D01*
X1596148Y1173108D02*
X1976148D01*
X1596148Y973109D02*
X1976148D01*
X1596148D02*
Y1173108D01*
X1976148Y973109D02*
Y1173108D01*
X1394049Y781508D02*
Y1161508D01*
X1594048Y781508D02*
Y1161508D01*
X1394049Y781508D02*
X1594048D01*
X1394049Y1161508D02*
X1594048D01*
X784449Y781508D02*
Y1161508D01*
X984448Y781508D02*
Y1161508D01*
X784449Y781508D02*
X984448D01*
X784449Y1161508D02*
X984448D01*
X4055700Y1159100D02*
X4445700D01*
X4055700Y949100D02*
X4445700D01*
X4055700D02*
Y1159100D01*
X4445700Y949100D02*
Y1159100D01*
X2836500Y453800D02*
X3226500D01*
X2836500Y663800D02*
X3226500D01*
Y453800D02*
Y663800D01*
X2836500Y453800D02*
Y663800D01*
X4576400Y911000D02*
X4966400D01*
X4576400Y1121000D02*
X4966400D01*
Y911000D02*
Y1121000D01*
X4576400Y911000D02*
Y1121000D01*
X4462100Y301400D02*
X4852100D01*
X4462100Y511400D02*
X4852100D01*
Y301400D02*
Y511400D01*
X4462100Y301400D02*
Y511400D01*
X2417400Y1088800D02*
X2807400D01*
X2417400Y1298800D02*
X2807400D01*
Y1088800D02*
Y1298800D01*
X2417400Y1088800D02*
Y1298800D01*
X2188800Y263300D02*
X2578800D01*
X2188800Y473300D02*
X2578800D01*
Y263300D02*
Y473300D01*
X2188800Y263300D02*
Y473300D01*
X994248Y396608D02*
X1384248D01*
X994248Y606608D02*
X1384248D01*
Y396608D02*
Y606608D01*
X994248Y396608D02*
Y606608D01*
Y955408D02*
X1384248D01*
X994248Y1165408D02*
X1384248D01*
Y955408D02*
Y1165408D01*
X994248Y955408D02*
Y1165408D01*
X-500Y4627200D02*
X803500D01*
Y5431200D01*
X-500D02*
X803500D01*
X-500Y4627200D02*
Y5431200D01*
Y3408509D02*
Y4212508D01*
X803500D01*
Y3408509D02*
Y4212508D01*
X-500Y3408509D02*
X803500D01*
X-500Y1884509D02*
X803500D01*
Y2688508D01*
X-500D02*
X803500D01*
X-500Y1884509D02*
Y2688508D01*
Y704900D02*
Y1508900D01*
X803500D01*
Y704900D02*
Y1508900D01*
X-500Y704900D02*
X803500D01*
X6194200Y5609000D02*
X6998200D01*
X6194200Y4680000D02*
Y5609000D01*
Y4680000D02*
X6998200D01*
Y5609000D01*
Y3710800D02*
Y4639800D01*
X6194200Y3710800D02*
X6998200D01*
X6194200D02*
Y4639800D01*
X6998200D01*
X6194200Y3676600D02*
X6998200D01*
X6194200Y2747600D02*
Y3676600D01*
Y2747600D02*
X6998200D01*
Y3676600D01*
X4468100Y5088200D02*
Y5478200D01*
X4973100Y5088200D02*
Y5478200D01*
X4468100D02*
X4973100D01*
X4468100Y5088200D02*
X4973100D01*
X3226100Y5046700D02*
Y5646700D01*
X4056100Y5046700D02*
Y5646700D01*
X3226100D02*
X4056100D01*
X3226100Y5046700D02*
X4056100D01*
X1980748Y5053008D02*
Y5653008D01*
X2810749Y5053008D02*
Y5653008D01*
X1980748D02*
X2810749D01*
X1980748Y5053008D02*
X2810749D01*
X2817200Y5245600D02*
Y5625600D01*
X3017200Y5245600D02*
Y5625600D01*
X2817200Y5245600D02*
X3017200D01*
X2817200Y5625600D02*
X3017200D01*
X4261800Y5093200D02*
Y5473200D01*
X4061800Y5093200D02*
Y5473200D01*
X4261800D01*
X4061800Y5093200D02*
X4261800D01*
X3220400Y5245600D02*
Y5625600D01*
X3020400Y5245600D02*
Y5625600D01*
X3220400D01*
X3020400Y5245600D02*
X3220400D01*
X2841500Y5827700D02*
X3221500D01*
X2841500Y5627700D02*
X3221500D01*
X2841500D02*
Y5827700D01*
X3221500Y5627700D02*
Y5827700D01*
X4465000Y5093200D02*
Y5473200D01*
X4265000Y5093200D02*
Y5473200D01*
X4465000D01*
X4265000Y5093200D02*
X4465000D01*
X1596148Y5160908D02*
X1976148D01*
X1596148Y4960909D02*
X1976148D01*
X1596148D02*
Y5160908D01*
X1976148Y4960909D02*
Y5160908D01*
X1975049Y5163008D02*
Y5543008D01*
X1775049Y5163008D02*
Y5543008D01*
X1975049D01*
X1775049Y5163008D02*
X1975049D01*
X1594049Y4972508D02*
Y5352508D01*
X1394049Y4972508D02*
Y5352508D01*
X1594049D01*
X1394049Y4972508D02*
X1594049D01*
X984449D02*
Y5352508D01*
X784449Y4972508D02*
Y5352508D01*
X984449D01*
X784449Y4972508D02*
X984449D01*
X1596148Y5745108D02*
X1976148D01*
X1596148Y5545109D02*
X1976148D01*
X1596148D02*
Y5745108D01*
X1976148Y5545109D02*
Y5745108D01*
X1394049Y5353508D02*
Y5733508D01*
X1594048Y5353508D02*
Y5733508D01*
X1394049Y5353508D02*
X1594048D01*
X1394049Y5733508D02*
X1594048D01*
X784449Y5353508D02*
Y5733508D01*
X984448Y5353508D02*
Y5733508D01*
X784449Y5353508D02*
X984448D01*
X784449Y5733508D02*
X984448D01*
X4055700Y5731100D02*
X4445700D01*
X4055700Y5521100D02*
X4445700D01*
X4055700D02*
Y5731100D01*
X4445700Y5521100D02*
Y5731100D01*
X2836500Y5025800D02*
X3226500D01*
X2836500Y5235800D02*
X3226500D01*
Y5025800D02*
Y5235800D01*
X2836500Y5025800D02*
Y5235800D01*
X4576400Y5483000D02*
X4966400D01*
X4576400Y5693000D02*
X4966400D01*
Y5483000D02*
Y5693000D01*
X4576400Y5483000D02*
Y5693000D01*
X4462100Y4873400D02*
X4852100D01*
X4462100Y5083400D02*
X4852100D01*
Y4873400D02*
Y5083400D01*
X4462100Y4873400D02*
Y5083400D01*
X2417400Y5660800D02*
X2807400D01*
X2417400Y5870800D02*
X2807400D01*
Y5660800D02*
Y5870800D01*
X2417400Y5660800D02*
Y5870800D01*
X2188800Y4835300D02*
X2578800D01*
X2188800Y5045300D02*
X2578800D01*
Y4835300D02*
Y5045300D01*
X2188800Y4835300D02*
Y5045300D01*
X994248Y4968608D02*
X1384248D01*
X994248Y5178608D02*
X1384248D01*
Y4968608D02*
Y5178608D01*
X994248Y4968608D02*
Y5178608D01*
Y5527408D02*
X1384248D01*
X994248Y5737408D02*
X1384248D01*
Y5527408D02*
Y5737408D01*
X994248Y5527408D02*
Y5737408D01*
Y2479408D02*
Y2689408D01*
X1384248Y2479408D02*
Y2689408D01*
X994248D02*
X1384248D01*
X994248Y2479408D02*
X1384248D01*
X994248Y1920608D02*
Y2130608D01*
X1384248Y1920608D02*
Y2130608D01*
X994248D02*
X1384248D01*
X994248Y1920608D02*
X1384248D01*
X2188800Y1787300D02*
Y1997300D01*
X2578800Y1787300D02*
Y1997300D01*
X2188800D02*
X2578800D01*
X2188800Y1787300D02*
X2578800D01*
X2417400Y2612800D02*
Y2822800D01*
X2807400Y2612800D02*
Y2822800D01*
X2417400D02*
X2807400D01*
X2417400Y2612800D02*
X2807400D01*
X4462100Y1825400D02*
Y2035400D01*
X4852100Y1825400D02*
Y2035400D01*
X4462100D02*
X4852100D01*
X4462100Y1825400D02*
X4852100D01*
X4576400Y2435000D02*
Y2645000D01*
X4966400Y2435000D02*
Y2645000D01*
X4576400D02*
X4966400D01*
X4576400Y2435000D02*
X4966400D01*
X2836500Y1977800D02*
Y2187800D01*
X3226500Y1977800D02*
Y2187800D01*
X2836500D02*
X3226500D01*
X2836500Y1977800D02*
X3226500D01*
X4445700Y2473100D02*
Y2683100D01*
X4055700Y2473100D02*
Y2683100D01*
Y2473100D02*
X4445700D01*
X4055700Y2683100D02*
X4445700D01*
X784449Y2685508D02*
X984448D01*
X784449Y2305508D02*
X984448D01*
Y2685508D01*
X784449Y2305508D02*
Y2685508D01*
X1394049D02*
X1594048D01*
X1394049Y2305508D02*
X1594048D01*
Y2685508D01*
X1394049Y2305508D02*
Y2685508D01*
X1976148Y2497109D02*
Y2697108D01*
X1596148Y2497109D02*
Y2697108D01*
Y2497109D02*
X1976148D01*
X1596148Y2697108D02*
X1976148D01*
X784449Y1924508D02*
X984449D01*
X784449Y2304508D02*
X984449D01*
X784449Y1924508D02*
Y2304508D01*
X984449Y1924508D02*
Y2304508D01*
X1394049Y1924508D02*
X1594049D01*
X1394049Y2304508D02*
X1594049D01*
X1394049Y1924508D02*
Y2304508D01*
X1594049Y1924508D02*
Y2304508D01*
X1775049Y2115008D02*
X1975049D01*
X1775049Y2495008D02*
X1975049D01*
X1775049Y2115008D02*
Y2495008D01*
X1975049Y2115008D02*
Y2495008D01*
X1976148Y1912909D02*
Y2112908D01*
X1596148Y1912909D02*
Y2112908D01*
Y1912909D02*
X1976148D01*
X1596148Y2112908D02*
X1976148D01*
X4265000Y2045200D02*
X4465000D01*
X4265000Y2425200D02*
X4465000D01*
X4265000Y2045200D02*
Y2425200D01*
X4465000Y2045200D02*
Y2425200D01*
X3221500Y2579700D02*
Y2779700D01*
X2841500Y2579700D02*
Y2779700D01*
Y2579700D02*
X3221500D01*
X2841500Y2779700D02*
X3221500D01*
X3020400Y2197600D02*
X3220400D01*
X3020400Y2577600D02*
X3220400D01*
X3020400Y2197600D02*
Y2577600D01*
X3220400Y2197600D02*
Y2577600D01*
X4061800Y2045200D02*
X4261800D01*
X4061800Y2425200D02*
X4261800D01*
X4061800Y2045200D02*
Y2425200D01*
X4261800Y2045200D02*
Y2425200D01*
X3882900Y1792300D02*
Y1992300D01*
X4262900Y1792300D02*
Y1992300D01*
X3882900D02*
X4262900D01*
X3882900Y1792300D02*
X4262900D01*
X2817200Y2577600D02*
X3017200D01*
X2817200Y2197600D02*
X3017200D01*
Y2577600D01*
X2817200Y2197600D02*
Y2577600D01*
X1980748Y2005008D02*
X2810749D01*
X1980748Y2605008D02*
X2810749D01*
Y2005008D02*
Y2605008D01*
X1980748Y2005008D02*
Y2605008D01*
X3226100Y1998700D02*
X4056100D01*
X3226100Y2598700D02*
X4056100D01*
Y1998700D02*
Y2598700D01*
X3226100Y1998700D02*
Y2598700D01*
X4468100Y2040200D02*
X4973100D01*
X4468100Y2430200D02*
X4973100D01*
Y2040200D02*
Y2430200D01*
X4468100Y2040200D02*
Y2430200D01*
%TF.MD5,770c78d0b1db948f4da122852ab43998*%
M02*
