%TF.GenerationSoftware,Altium Limited,Altium Designer,22.5.1 (42)*%
G04 Layer_Color=16711935*
%FSLAX45Y45*%
%MOMM*%
%TF.SameCoordinates,176CDB2E-7B72-45DB-8ACB-ACD3A9543041*%
%TF.FilePolarity,Negative*%
%TF.FileFunction,Soldermask,Bot*%
%TF.Part,Single*%
G01*
G75*
%TA.AperFunction,ViaPad*%
%ADD27C,3.55600*%
%TA.AperFunction,ComponentPad*%
%ADD30R,1.00240X1.00240*%
%ADD31C,1.00240*%
%ADD32R,1.85240X1.85240*%
%ADD33C,1.85240*%
%ADD34C,1.75240*%
D27*
X317500Y5892800D02*
D03*
Y304800D02*
D03*
X6705600Y5892800D02*
D03*
D30*
X6426200Y4957000D02*
D03*
X571500Y5154200D02*
D03*
Y3935509D02*
D03*
Y2411509D02*
D03*
Y1231900D02*
D03*
X6426200Y3987800D02*
D03*
Y3024600D02*
D03*
D31*
X571500Y4904200D02*
D03*
Y5029200D02*
D03*
Y3810509D02*
D03*
Y3685509D02*
D03*
Y2161509D02*
D03*
Y2286509D02*
D03*
Y1106900D02*
D03*
Y981900D02*
D03*
X6426200Y5332000D02*
D03*
Y5207000D02*
D03*
Y5082000D02*
D03*
Y4112800D02*
D03*
Y4237800D02*
D03*
Y4362800D02*
D03*
Y3399600D02*
D03*
Y3274600D02*
D03*
Y3149600D02*
D03*
D32*
X5492300Y1016000D02*
D03*
D33*
Y766000D02*
D03*
Y516000D02*
D03*
D34*
X6210300Y1016000D02*
D03*
Y516001D02*
D03*
%TF.MD5,345d5fdb5c83d997dffbbba7ced6ab4a*%
M02*
