%TF.GenerationSoftware,Altium Limited,Altium Designer,22.5.1 (42)*%
G04 Layer_Color=8421504*
%FSLAX45Y45*%
%MOMM*%
%TF.SameCoordinates,176CDB2E-7B72-45DB-8ACB-ACD3A9543041*%
%TF.FilePolarity,Positive*%
%TF.FileFunction,Paste,Top*%
%TF.Part,Single*%
G01*
G75*
%TA.AperFunction,SMDPad,CuDef*%
%ADD10O,1.65000X0.65000*%
%ADD11R,1.30000X1.10000*%
%ADD12R,1.04000X0.38000*%
%ADD13O,1.15000X0.50000*%
%ADD14O,1.65000X0.50000*%
%ADD15R,1.00000X1.05000*%
%ADD16R,1.05000X1.00000*%
%ADD17R,0.96520X1.60020*%
%ADD18R,1.49860X1.47320*%
D10*
X2678248Y590508D02*
D03*
Y717508D02*
D03*
Y844508D02*
D03*
Y971508D02*
D03*
X2113249Y590508D02*
D03*
Y717508D02*
D03*
Y844508D02*
D03*
Y971508D02*
D03*
X6082600Y4953000D02*
D03*
Y5080000D02*
D03*
Y5207000D02*
D03*
Y5334000D02*
D03*
Y5461000D02*
D03*
Y5588000D02*
D03*
Y5715000D02*
D03*
X5517600Y4953000D02*
D03*
Y5080000D02*
D03*
Y5207000D02*
D03*
Y5334000D02*
D03*
Y5461000D02*
D03*
Y5588000D02*
D03*
Y5715000D02*
D03*
X2678248Y3638508D02*
D03*
Y3765508D02*
D03*
Y3892508D02*
D03*
Y4019508D02*
D03*
X2113249Y3638508D02*
D03*
Y3765508D02*
D03*
Y3892508D02*
D03*
Y4019508D02*
D03*
Y5543508D02*
D03*
Y5416508D02*
D03*
Y5289508D02*
D03*
Y5162508D02*
D03*
X2678248Y5543508D02*
D03*
Y5416508D02*
D03*
Y5289508D02*
D03*
Y5162508D02*
D03*
Y2114508D02*
D03*
Y2241508D02*
D03*
Y2368508D02*
D03*
Y2495508D02*
D03*
X2113249Y2114508D02*
D03*
Y2241508D02*
D03*
Y2368508D02*
D03*
Y2495508D02*
D03*
D11*
X5504200Y4737100D02*
D03*
X5664200D02*
D03*
X6096000D02*
D03*
X5936000D02*
D03*
X6684000Y1689100D02*
D03*
X6524000D02*
D03*
X6117600D02*
D03*
X6277600D02*
D03*
X4170700Y4102100D02*
D03*
X4330700D02*
D03*
X3111500Y3606800D02*
D03*
X2951500D02*
D03*
X4851400Y4064000D02*
D03*
X4691400D02*
D03*
X4737100Y3454400D02*
D03*
X4577100D02*
D03*
X2692400Y4241800D02*
D03*
X2532400D02*
D03*
X2463800Y3416300D02*
D03*
X2303800D02*
D03*
X1269248Y3549608D02*
D03*
X1109248D02*
D03*
X1269248Y4108408D02*
D03*
X1109248D02*
D03*
X4170700Y1054100D02*
D03*
X4330700D02*
D03*
X3111500Y558800D02*
D03*
X2951500D02*
D03*
X4851400Y1016000D02*
D03*
X4691400D02*
D03*
X4737100Y406400D02*
D03*
X4577100D02*
D03*
X2692400Y1193800D02*
D03*
X2532400D02*
D03*
X2463800Y368300D02*
D03*
X2303800D02*
D03*
X1269248Y501608D02*
D03*
X1109248D02*
D03*
X1269248Y1060408D02*
D03*
X1109248D02*
D03*
X4170700Y5626100D02*
D03*
X4330700D02*
D03*
X3111500Y5130800D02*
D03*
X2951500D02*
D03*
X4851400Y5588000D02*
D03*
X4691400D02*
D03*
X4737100Y4978400D02*
D03*
X4577100D02*
D03*
X2692400Y5765800D02*
D03*
X2532400D02*
D03*
X2463800Y4940300D02*
D03*
X2303800D02*
D03*
X1269248Y5073608D02*
D03*
X1109248D02*
D03*
X1269248Y5632408D02*
D03*
X1109248D02*
D03*
Y2584408D02*
D03*
X1269248D02*
D03*
X1109248Y2025608D02*
D03*
X1269248D02*
D03*
X2303800Y1892300D02*
D03*
X2463800D02*
D03*
X2532400Y2717800D02*
D03*
X2692400D02*
D03*
X4577100Y1930400D02*
D03*
X4737100D02*
D03*
X4691400Y2540000D02*
D03*
X4851400D02*
D03*
X2951500Y2082800D02*
D03*
X3111500D02*
D03*
X4330700Y2578100D02*
D03*
X4170700D02*
D03*
D12*
X5769700Y2358100D02*
D03*
Y2293100D02*
D03*
Y2228100D02*
D03*
Y2163100D02*
D03*
X6193700Y2358100D02*
D03*
Y2293100D02*
D03*
Y2228100D02*
D03*
Y2163100D02*
D03*
D13*
X4573100Y3856700D02*
D03*
Y3791700D02*
D03*
Y3726700D02*
D03*
Y3661700D02*
D03*
X4868100Y3856700D02*
D03*
Y3791700D02*
D03*
Y3726700D02*
D03*
Y3661700D02*
D03*
X4573100Y808700D02*
D03*
Y743700D02*
D03*
Y678700D02*
D03*
Y613700D02*
D03*
X4868100Y808700D02*
D03*
Y743700D02*
D03*
Y678700D02*
D03*
Y613700D02*
D03*
X4573100Y5380700D02*
D03*
Y5315700D02*
D03*
Y5250700D02*
D03*
Y5185700D02*
D03*
X4868100Y5380700D02*
D03*
Y5315700D02*
D03*
Y5250700D02*
D03*
Y5185700D02*
D03*
Y2137700D02*
D03*
Y2202700D02*
D03*
Y2267700D02*
D03*
Y2332700D02*
D03*
X4573100Y2137700D02*
D03*
Y2202700D02*
D03*
Y2267700D02*
D03*
Y2332700D02*
D03*
D14*
X3358600Y4044950D02*
D03*
Y3981450D02*
D03*
Y3917950D02*
D03*
Y3854450D02*
D03*
Y3790950D02*
D03*
Y3727450D02*
D03*
Y3663950D02*
D03*
Y3600450D02*
D03*
X3923600Y4044950D02*
D03*
Y3981450D02*
D03*
Y3917950D02*
D03*
Y3854450D02*
D03*
Y3790950D02*
D03*
Y3727450D02*
D03*
Y3663950D02*
D03*
Y3600450D02*
D03*
X3358600Y996950D02*
D03*
Y933450D02*
D03*
Y869950D02*
D03*
Y806450D02*
D03*
Y742950D02*
D03*
Y679450D02*
D03*
Y615950D02*
D03*
Y552450D02*
D03*
X3923600Y996950D02*
D03*
Y933450D02*
D03*
Y869950D02*
D03*
Y806450D02*
D03*
Y742950D02*
D03*
Y679450D02*
D03*
Y615950D02*
D03*
Y552450D02*
D03*
X3358600Y5568950D02*
D03*
Y5505450D02*
D03*
Y5441950D02*
D03*
Y5378450D02*
D03*
Y5314950D02*
D03*
Y5251450D02*
D03*
Y5187950D02*
D03*
Y5124450D02*
D03*
X3923600Y5568950D02*
D03*
Y5505450D02*
D03*
Y5441950D02*
D03*
Y5378450D02*
D03*
Y5314950D02*
D03*
Y5251450D02*
D03*
Y5187950D02*
D03*
Y5124450D02*
D03*
Y2076450D02*
D03*
Y2139950D02*
D03*
Y2203450D02*
D03*
Y2266950D02*
D03*
Y2330450D02*
D03*
Y2393950D02*
D03*
Y2457450D02*
D03*
Y2520950D02*
D03*
X3358600Y2076450D02*
D03*
Y2139950D02*
D03*
Y2203450D02*
D03*
Y2266950D02*
D03*
Y2330450D02*
D03*
Y2393950D02*
D03*
Y2457450D02*
D03*
Y2520950D02*
D03*
D15*
X2917200Y3824100D02*
D03*
Y3999100D02*
D03*
X4161800Y3846700D02*
D03*
Y3671700D02*
D03*
X3120400Y3999100D02*
D03*
Y3824100D02*
D03*
X4365000Y3846700D02*
D03*
Y3671700D02*
D03*
X1875049Y3916508D02*
D03*
Y3741508D02*
D03*
X1494049Y3726008D02*
D03*
Y3551008D02*
D03*
X884449Y3726008D02*
D03*
Y3551008D02*
D03*
X1494049Y3932008D02*
D03*
Y4107008D02*
D03*
X884449Y3932008D02*
D03*
Y4107008D02*
D03*
X2917200Y776100D02*
D03*
Y951100D02*
D03*
X4161800Y798700D02*
D03*
Y623700D02*
D03*
X3120400Y951100D02*
D03*
Y776100D02*
D03*
X4365000Y798700D02*
D03*
Y623700D02*
D03*
X1875049Y868508D02*
D03*
Y693508D02*
D03*
X1494049Y678008D02*
D03*
Y503008D02*
D03*
X884449Y678008D02*
D03*
Y503008D02*
D03*
X1494049Y884008D02*
D03*
Y1059008D02*
D03*
X884449Y884008D02*
D03*
Y1059008D02*
D03*
X2917200Y5348100D02*
D03*
Y5523100D02*
D03*
X4161800Y5370700D02*
D03*
Y5195700D02*
D03*
X3120400Y5523100D02*
D03*
Y5348100D02*
D03*
X4365000Y5370700D02*
D03*
Y5195700D02*
D03*
X1875049Y5440508D02*
D03*
Y5265508D02*
D03*
X1494049Y5250008D02*
D03*
Y5075008D02*
D03*
X884449Y5250008D02*
D03*
Y5075008D02*
D03*
X1494049Y5456008D02*
D03*
Y5631008D02*
D03*
X884449Y5456008D02*
D03*
Y5631008D02*
D03*
Y2583008D02*
D03*
Y2408008D02*
D03*
X1494049Y2583008D02*
D03*
Y2408008D02*
D03*
X884449Y2027008D02*
D03*
Y2202008D02*
D03*
X1494049Y2027008D02*
D03*
Y2202008D02*
D03*
X1875049Y2217508D02*
D03*
Y2392508D02*
D03*
X4365000Y2147700D02*
D03*
Y2322700D02*
D03*
X3120400Y2300100D02*
D03*
Y2475100D02*
D03*
X4161800Y2147700D02*
D03*
Y2322700D02*
D03*
X2917200Y2475100D02*
D03*
Y2300100D02*
D03*
D16*
X4160400Y3416300D02*
D03*
X3985400D02*
D03*
X2944000Y4203700D02*
D03*
X3119000D02*
D03*
X1698649Y3536908D02*
D03*
X1873649D02*
D03*
X1698649Y4121108D02*
D03*
X1873649D02*
D03*
X3985400Y368300D02*
D03*
X4160400D02*
D03*
X6618100Y1917700D02*
D03*
X6793100D02*
D03*
X6259700Y1905000D02*
D03*
X6084700D02*
D03*
X3985400Y4940300D02*
D03*
X4160400D02*
D03*
X2944000Y1155700D02*
D03*
X3119000D02*
D03*
X1698649Y488908D02*
D03*
X1873649D02*
D03*
X1698649Y1073108D02*
D03*
X1873649D02*
D03*
X2944000Y5727700D02*
D03*
X3119000D02*
D03*
X1698649Y5060908D02*
D03*
X1873649D02*
D03*
X1698649Y5645108D02*
D03*
X1873649D02*
D03*
Y2597108D02*
D03*
X1698649D02*
D03*
X1873649Y2012908D02*
D03*
X1698649D02*
D03*
X3119000Y2679700D02*
D03*
X2944000D02*
D03*
X3985400Y1892300D02*
D03*
X4160400D02*
D03*
D17*
X6741795Y2122170D02*
D03*
X6567805D02*
D03*
D18*
X6654800Y2379980D02*
D03*
%TF.MD5,4aa7af8fe22980929fa728e916c75b69*%
M02*
