%TF.GenerationSoftware,Altium Limited,Altium Designer,22.5.1 (42)*%
G04 Layer_Color=2752767*
%FSLAX45Y45*%
%MOMM*%
%TF.SameCoordinates,176CDB2E-7B72-45DB-8ACB-ACD3A9543041*%
%TF.FilePolarity,Positive*%
%TF.FileFunction,Drawing*%
%TF.Part,Single*%
G01*
G75*
%TA.AperFunction,NonConductor*%
%ADD39C,0.12700*%
%ADD60C,0.16933*%
D39*
X6426200Y4906200D02*
X6375400Y5007800D01*
X6477000D01*
X6426200Y4906200D01*
X571500Y4853400D02*
X520700Y4955000D01*
X622300D01*
X571500Y4853400D01*
Y4978400D02*
X520700Y5080000D01*
X622300D01*
X571500Y4978400D01*
Y5103400D02*
X520700Y5205000D01*
X622300D01*
X571500Y5103400D01*
Y3884709D02*
X520700Y3986309D01*
X622300D01*
X571500Y3884709D01*
Y3759709D02*
X520700Y3861309D01*
X622300D01*
X571500Y3759709D01*
Y3634709D02*
X520700Y3736309D01*
X622300D01*
X571500Y3634709D01*
Y2110709D02*
X520700Y2212309D01*
X622300D01*
X571500Y2110709D01*
Y2235709D02*
X520700Y2337309D01*
X622300D01*
X571500Y2235709D01*
Y2360709D02*
X520700Y2462309D01*
X622300D01*
X571500Y2360709D01*
Y1181100D02*
X520700Y1282700D01*
X622300D01*
X571500Y1181100D01*
Y1056100D02*
X520700Y1157700D01*
X622300D01*
X571500Y1056100D01*
Y931100D02*
X520700Y1032700D01*
X622300D01*
X571500Y931100D01*
X5441500Y965200D02*
X5466900Y1016000D01*
X5441500Y1066800D01*
X5492300Y1041400D01*
X5543100Y1066800D01*
X5517700Y1016000D01*
X5543100Y965200D01*
X5492300Y990600D01*
X5441500Y965200D01*
Y715200D02*
X5466900Y766000D01*
X5441500Y816800D01*
X5492300Y791400D01*
X5543100Y816800D01*
X5517700Y766000D01*
X5543100Y715200D01*
X5492300Y740600D01*
X5441500Y715200D01*
Y465200D02*
X5466900Y516000D01*
X5441500Y566800D01*
X5492300Y541400D01*
X5543100Y566800D01*
X5517700Y516000D01*
X5543100Y465200D01*
X5492300Y490600D01*
X5441500Y465200D01*
X6210300Y965200D02*
X6235700Y990600D01*
X6261100D01*
X6235700Y1016000D01*
X6261100Y1041400D01*
X6235700D01*
X6210300Y1066800D01*
X6184900Y1041400D01*
X6159500D01*
X6184900Y1016000D01*
X6159500Y990600D01*
X6184900D01*
X6210300Y965200D01*
Y465201D02*
X6235700Y490601D01*
X6261100D01*
X6235700Y516001D01*
X6261100Y541401D01*
X6235700D01*
X6210300Y566801D01*
X6184900Y541401D01*
X6159500D01*
X6184900Y516001D01*
X6159500Y490601D01*
X6184900D01*
X6210300Y465201D01*
X6426200Y5281200D02*
X6375400Y5382800D01*
X6477000D01*
X6426200Y5281200D01*
Y5156200D02*
X6375400Y5257800D01*
X6477000D01*
X6426200Y5156200D01*
Y5031200D02*
X6375400Y5132800D01*
X6477000D01*
X6426200Y5031200D01*
Y3937000D02*
X6375400Y4038600D01*
X6477000D01*
X6426200Y3937000D01*
Y4062000D02*
X6375400Y4163600D01*
X6477000D01*
X6426200Y4062000D01*
Y4187000D02*
X6375400Y4288600D01*
X6477000D01*
X6426200Y4187000D01*
Y4312000D02*
X6375400Y4413600D01*
X6477000D01*
X6426200Y4312000D01*
Y3348800D02*
X6375400Y3450400D01*
X6477000D01*
X6426200Y3348800D01*
Y3223800D02*
X6375400Y3325400D01*
X6477000D01*
X6426200Y3223800D01*
Y3098800D02*
X6375400Y3200400D01*
X6477000D01*
X6426200Y3098800D01*
Y2973800D02*
X6375400Y3075400D01*
X6477000D01*
X6426200Y2973800D01*
X292100Y5867400D02*
Y5842000D01*
X342900D01*
Y5867400D01*
X368300D01*
Y5918200D01*
X342900D01*
Y5943600D01*
X292100D01*
Y5918200D01*
X266700D01*
Y5867400D01*
X292100D01*
Y279400D02*
Y254000D01*
X342900D01*
Y279400D01*
X368300D01*
Y330200D01*
X342900D01*
Y355600D01*
X292100D01*
Y330200D01*
X266700D01*
Y279400D01*
X292100D01*
X6680200Y5867400D02*
Y5842000D01*
X6731000D01*
Y5867400D01*
X6756400D01*
Y5918200D01*
X6731000D01*
Y5943600D01*
X6680200D01*
Y5918200D01*
X6654800D01*
Y5867400D01*
X6680200D01*
D60*
X5588000Y1803400D02*
G03*
X5588000Y1803400I-50800J0D01*
G01*
X5283200Y736600D02*
G03*
X5283200Y736600I-50800J0D01*
G01*
X5410200Y1371600D02*
G03*
X5410200Y1371600I-50800J0D01*
G01*
X5177994Y854050D02*
G03*
X5177994Y854050I-50800J0D01*
G01*
X5067300Y749300D02*
G03*
X5067300Y749300I-50800J0D01*
G01*
X6375400Y2463800D02*
G03*
X6375400Y2463800I-50800J0D01*
G01*
X6451600Y1536700D02*
G03*
X6451600Y1536700I-50800J0D01*
G01*
X6094881Y2132481D02*
G03*
X6094881Y2132481I-50800J0D01*
G01*
X5290305Y2078296D02*
G03*
X5290305Y2078296I-50800J0D01*
G01*
X5283200Y3581400D02*
G03*
X5283200Y3581400I-50800J0D01*
G01*
X5562600Y4559300D02*
G03*
X5562600Y4559300I-50800J0D01*
G01*
X5854700Y4610100D02*
G03*
X5854700Y4610100I-50800J0D01*
G01*
X6134100Y5854700D02*
G03*
X6134100Y5854700I-50800J0D01*
G01*
X5740400Y5511800D02*
G03*
X5740400Y5511800I-50800J0D01*
G01*
X5930900Y1651000D02*
G03*
X5930900Y1651000I-50800J0D01*
G01*
X6489700Y1917700D02*
G03*
X6489700Y1917700I-50800J0D01*
G01*
X5080000Y5321300D02*
G03*
X5080000Y5321300I-50800J0D01*
G01*
X5181600Y5207000D02*
G03*
X5181600Y5207000I-50800J0D01*
G01*
X5283200Y5092700D02*
G03*
X5283200Y5092700I-50800J0D01*
G01*
X5174389Y2179896D02*
G03*
X5174389Y2179896I-50800J0D01*
G01*
X5066131Y2287162D02*
G03*
X5066131Y2287162I-50800J0D01*
G01*
X5181600Y3695700D02*
G03*
X5181600Y3695700I-50800J0D01*
G01*
X5080000Y3810000D02*
G03*
X5080000Y3810000I-50800J0D01*
G01*
X1079500Y3365500D02*
G03*
X1079500Y3365500I-50800J0D01*
G01*
Y4305300D02*
G03*
X1079500Y4305300I-50800J0D01*
G01*
Y3822700D02*
G03*
X1079500Y3822700I-50800J0D01*
G01*
X1409700Y3365500D02*
G03*
X1409700Y3365500I-50800J0D01*
G01*
Y3822700D02*
G03*
X1409700Y3822700I-50800J0D01*
G01*
Y4305300D02*
G03*
X1409700Y4305300I-50800J0D01*
G01*
X2044700Y3314700D02*
G03*
X2044700Y3314700I-50800J0D01*
G01*
Y4267200D02*
G03*
X2044700Y4267200I-50800J0D01*
G01*
X2197100Y3416300D02*
G03*
X2197100Y3416300I-50800J0D01*
G01*
X2425700Y4229100D02*
G03*
X2425700Y4229100I-50800J0D01*
G01*
X2730500Y3505200D02*
G03*
X2730500Y3505200I-50800J0D01*
G01*
X2997200Y3454400D02*
G03*
X2997200Y3454400I-50800J0D01*
G01*
X3416300Y3492500D02*
G03*
X3416300Y3492500I-50800J0D01*
G01*
X4457700Y3454400D02*
G03*
X4457700Y3454400I-50800J0D01*
G01*
X3695700Y3848100D02*
G03*
X3695700Y3848100I-50800J0D01*
G01*
X4485556Y3985877D02*
G03*
X4485556Y3985877I-50800J0D01*
G01*
X4752693Y3929540D02*
G03*
X4752693Y3929540I-50800J0D01*
G01*
X2197100Y368300D02*
G03*
X2197100Y368300I-50800J0D01*
G01*
X2044700Y1790700D02*
G03*
X2044700Y1790700I-50800J0D01*
G01*
Y2743200D02*
G03*
X2044700Y2743200I-50800J0D01*
G01*
Y5791200D02*
G03*
X2044700Y5791200I-50800J0D01*
G01*
Y4838700D02*
G03*
X2044700Y4838700I-50800J0D01*
G01*
X4752693Y881540D02*
G03*
X4752693Y881540I-50800J0D01*
G01*
X4757464Y2409022D02*
G03*
X4757464Y2409022I-50800J0D01*
G01*
X4753820Y5452908D02*
G03*
X4753820Y5452908I-50800J0D01*
G01*
X1079500Y774700D02*
G03*
X1079500Y774700I-50800J0D01*
G01*
Y1257300D02*
G03*
X1079500Y1257300I-50800J0D01*
G01*
Y2311400D02*
G03*
X1079500Y2311400I-50800J0D01*
G01*
Y2768600D02*
G03*
X1079500Y2768600I-50800J0D01*
G01*
Y1828800D02*
G03*
X1079500Y1828800I-50800J0D01*
G01*
Y317500D02*
G03*
X1079500Y317500I-50800J0D01*
G01*
Y4889500D02*
G03*
X1079500Y4889500I-50800J0D01*
G01*
Y5346700D02*
G03*
X1079500Y5346700I-50800J0D01*
G01*
X2997200Y406400D02*
G03*
X2997200Y406400I-50800J0D01*
G01*
X1409700Y1257300D02*
G03*
X1409700Y1257300I-50800J0D01*
G01*
Y2768600D02*
G03*
X1409700Y2768600I-50800J0D01*
G01*
Y317500D02*
G03*
X1409700Y317500I-50800J0D01*
G01*
X2730500Y457200D02*
G03*
X2730500Y457200I-50800J0D01*
G01*
X1409700Y774700D02*
G03*
X1409700Y774700I-50800J0D01*
G01*
X2425700Y1181100D02*
G03*
X2425700Y1181100I-50800J0D01*
G01*
X3416300Y444500D02*
G03*
X3416300Y444500I-50800J0D01*
G01*
X3695700Y800100D02*
G03*
X3695700Y800100I-50800J0D01*
G01*
X4457700Y406400D02*
G03*
X4457700Y406400I-50800J0D01*
G01*
X4485556Y937877D02*
G03*
X4485556Y937877I-50800J0D01*
G01*
Y5509877D02*
G03*
X4485556Y5509877I-50800J0D01*
G01*
X3695700Y5372100D02*
G03*
X3695700Y5372100I-50800J0D01*
G01*
X1409700Y5346700D02*
G03*
X1409700Y5346700I-50800J0D01*
G01*
X3416300Y5016500D02*
G03*
X3416300Y5016500I-50800J0D01*
G01*
X2997200Y4978400D02*
G03*
X2997200Y4978400I-50800J0D01*
G01*
X2425700Y5753100D02*
G03*
X2425700Y5753100I-50800J0D01*
G01*
X4457700Y4978400D02*
G03*
X4457700Y4978400I-50800J0D01*
G01*
X1409700Y4889500D02*
G03*
X1409700Y4889500I-50800J0D01*
G01*
X2197100Y4940300D02*
G03*
X2197100Y4940300I-50800J0D01*
G01*
X2730500Y5029200D02*
G03*
X2730500Y5029200I-50800J0D01*
G01*
X2197100Y1892300D02*
G03*
X2197100Y1892300I-50800J0D01*
G01*
X2425700Y2705100D02*
G03*
X2425700Y2705100I-50800J0D01*
G01*
X4457700Y1930400D02*
G03*
X4457700Y1930400I-50800J0D01*
G01*
X2997200D02*
G03*
X2997200Y1930400I-50800J0D01*
G01*
X4485556Y2461877D02*
G03*
X4485556Y2461877I-50800J0D01*
G01*
X1409700Y2298700D02*
G03*
X1409700Y2298700I-50800J0D01*
G01*
Y1841500D02*
G03*
X1409700Y1841500I-50800J0D01*
G01*
X2730500Y1981200D02*
G03*
X2730500Y1981200I-50800J0D01*
G01*
X3416300Y1968500D02*
G03*
X3416300Y1968500I-50800J0D01*
G01*
X3695700Y2324100D02*
G03*
X3695700Y2324100I-50800J0D01*
G01*
%TF.MD5,2aaeed00b9507fb9ac3d065ee56599a5*%
M02*
