%TF.GenerationSoftware,Altium Limited,Altium Designer,22.5.1 (42)*%
G04 Layer_Color=255*
%FSLAX45Y45*%
%MOMM*%
%TF.SameCoordinates,176CDB2E-7B72-45DB-8ACB-ACD3A9543041*%
%TF.FilePolarity,Positive*%
%TF.FileFunction,Pads,Bot*%
%TF.Part,Single*%
G01*
G75*
%TA.AperFunction,ComponentPad*%
%ADD21R,0.85000X0.85000*%
%ADD22C,0.85000*%
%ADD23R,1.70000X1.70000*%
%ADD24C,1.70000*%
%ADD25C,1.60000*%
D21*
X6426200Y4957000D02*
D03*
X571500Y5154200D02*
D03*
Y3935509D02*
D03*
Y2411509D02*
D03*
Y1231900D02*
D03*
X6426200Y3987800D02*
D03*
Y3024600D02*
D03*
D22*
X571500Y4904200D02*
D03*
Y5029200D02*
D03*
Y3810509D02*
D03*
Y3685509D02*
D03*
Y2161509D02*
D03*
Y2286509D02*
D03*
Y1106900D02*
D03*
Y981900D02*
D03*
X6426200Y5332000D02*
D03*
Y5207000D02*
D03*
Y5082000D02*
D03*
Y4112800D02*
D03*
Y4237800D02*
D03*
Y4362800D02*
D03*
Y3399600D02*
D03*
Y3274600D02*
D03*
Y3149600D02*
D03*
D23*
X5492300Y1016000D02*
D03*
D24*
Y766000D02*
D03*
Y516000D02*
D03*
D25*
X6210300Y1016000D02*
D03*
Y516001D02*
D03*
%TF.MD5,de193b0cb20da40481a005a83b038c62*%
M02*
