%TF.GenerationSoftware,Altium Limited,Altium Designer,22.5.1 (42)*%
G04 Layer_Physical_Order=1*
G04 Layer_Color=255*
%FSLAX45Y45*%
%MOMM*%
%TF.SameCoordinates,176CDB2E-7B72-45DB-8ACB-ACD3A9543041*%
%TF.FilePolarity,Positive*%
%TF.FileFunction,Copper,L1,Top,Signal*%
%TF.Part,Single*%
G01*
G75*
%TA.AperFunction,SMDPad,CuDef*%
%ADD10O,1.65000X0.65000*%
%ADD11R,1.30000X1.10000*%
%ADD12R,1.04000X0.38000*%
%ADD13O,1.15000X0.50000*%
%ADD14O,1.65000X0.50000*%
%ADD15R,1.00000X1.05000*%
%ADD16R,1.05000X1.00000*%
%ADD17R,0.96520X1.60020*%
%ADD18R,1.49860X1.47320*%
%TA.AperFunction,Conductor*%
%ADD19C,0.25400*%
%ADD20C,0.50800*%
%TA.AperFunction,ComponentPad*%
%ADD21R,0.85000X0.85000*%
%ADD22C,0.85000*%
%ADD23R,1.70000X1.70000*%
%ADD24C,1.70000*%
%ADD25C,1.60000*%
%TA.AperFunction,ViaPad*%
%ADD26C,1.27000*%
%ADD27C,3.55600*%
D10*
X2678248Y590508D02*
D03*
Y717508D02*
D03*
Y844508D02*
D03*
Y971508D02*
D03*
X2113249Y590508D02*
D03*
Y717508D02*
D03*
Y844508D02*
D03*
Y971508D02*
D03*
X6082600Y4953000D02*
D03*
Y5080000D02*
D03*
Y5207000D02*
D03*
Y5334000D02*
D03*
Y5461000D02*
D03*
Y5588000D02*
D03*
Y5715000D02*
D03*
X5517600Y4953000D02*
D03*
Y5080000D02*
D03*
Y5207000D02*
D03*
Y5334000D02*
D03*
Y5461000D02*
D03*
Y5588000D02*
D03*
Y5715000D02*
D03*
X2678248Y3638508D02*
D03*
Y3765508D02*
D03*
Y3892508D02*
D03*
Y4019508D02*
D03*
X2113249Y3638508D02*
D03*
Y3765508D02*
D03*
Y3892508D02*
D03*
Y4019508D02*
D03*
Y5543508D02*
D03*
Y5416508D02*
D03*
Y5289508D02*
D03*
Y5162508D02*
D03*
X2678248Y5543508D02*
D03*
Y5416508D02*
D03*
Y5289508D02*
D03*
Y5162508D02*
D03*
Y2114508D02*
D03*
Y2241508D02*
D03*
Y2368508D02*
D03*
Y2495508D02*
D03*
X2113249Y2114508D02*
D03*
Y2241508D02*
D03*
Y2368508D02*
D03*
Y2495508D02*
D03*
D11*
X5504200Y4737100D02*
D03*
X5664200D02*
D03*
X6096000D02*
D03*
X5936000D02*
D03*
X6684000Y1689100D02*
D03*
X6524000D02*
D03*
X6117600D02*
D03*
X6277600D02*
D03*
X4170700Y4102100D02*
D03*
X4330700D02*
D03*
X3111500Y3606800D02*
D03*
X2951500D02*
D03*
X4851400Y4064000D02*
D03*
X4691400D02*
D03*
X4737100Y3454400D02*
D03*
X4577100D02*
D03*
X2692400Y4241800D02*
D03*
X2532400D02*
D03*
X2463800Y3416300D02*
D03*
X2303800D02*
D03*
X1269248Y3549608D02*
D03*
X1109248D02*
D03*
X1269248Y4108408D02*
D03*
X1109248D02*
D03*
X4170700Y1054100D02*
D03*
X4330700D02*
D03*
X3111500Y558800D02*
D03*
X2951500D02*
D03*
X4851400Y1016000D02*
D03*
X4691400D02*
D03*
X4737100Y406400D02*
D03*
X4577100D02*
D03*
X2692400Y1193800D02*
D03*
X2532400D02*
D03*
X2463800Y368300D02*
D03*
X2303800D02*
D03*
X1269248Y501608D02*
D03*
X1109248D02*
D03*
X1269248Y1060408D02*
D03*
X1109248D02*
D03*
X4170700Y5626100D02*
D03*
X4330700D02*
D03*
X3111500Y5130800D02*
D03*
X2951500D02*
D03*
X4851400Y5588000D02*
D03*
X4691400D02*
D03*
X4737100Y4978400D02*
D03*
X4577100D02*
D03*
X2692400Y5765800D02*
D03*
X2532400D02*
D03*
X2463800Y4940300D02*
D03*
X2303800D02*
D03*
X1269248Y5073608D02*
D03*
X1109248D02*
D03*
X1269248Y5632408D02*
D03*
X1109248D02*
D03*
Y2584408D02*
D03*
X1269248D02*
D03*
X1109248Y2025608D02*
D03*
X1269248D02*
D03*
X2303800Y1892300D02*
D03*
X2463800D02*
D03*
X2532400Y2717800D02*
D03*
X2692400D02*
D03*
X4577100Y1930400D02*
D03*
X4737100D02*
D03*
X4691400Y2540000D02*
D03*
X4851400D02*
D03*
X2951500Y2082800D02*
D03*
X3111500D02*
D03*
X4330700Y2578100D02*
D03*
X4170700D02*
D03*
D12*
X5769700Y2358100D02*
D03*
Y2293100D02*
D03*
Y2228100D02*
D03*
Y2163100D02*
D03*
X6193700Y2358100D02*
D03*
Y2293100D02*
D03*
Y2228100D02*
D03*
Y2163100D02*
D03*
D13*
X4573100Y3856700D02*
D03*
Y3791700D02*
D03*
Y3726700D02*
D03*
Y3661700D02*
D03*
X4868100Y3856700D02*
D03*
Y3791700D02*
D03*
Y3726700D02*
D03*
Y3661700D02*
D03*
X4573100Y808700D02*
D03*
Y743700D02*
D03*
Y678700D02*
D03*
Y613700D02*
D03*
X4868100Y808700D02*
D03*
Y743700D02*
D03*
Y678700D02*
D03*
Y613700D02*
D03*
X4573100Y5380700D02*
D03*
Y5315700D02*
D03*
Y5250700D02*
D03*
Y5185700D02*
D03*
X4868100Y5380700D02*
D03*
Y5315700D02*
D03*
Y5250700D02*
D03*
Y5185700D02*
D03*
Y2137700D02*
D03*
Y2202700D02*
D03*
Y2267700D02*
D03*
Y2332700D02*
D03*
X4573100Y2137700D02*
D03*
Y2202700D02*
D03*
Y2267700D02*
D03*
Y2332700D02*
D03*
D14*
X3358600Y4044950D02*
D03*
Y3981450D02*
D03*
Y3917950D02*
D03*
Y3854450D02*
D03*
Y3790950D02*
D03*
Y3727450D02*
D03*
Y3663950D02*
D03*
Y3600450D02*
D03*
X3923600Y4044950D02*
D03*
Y3981450D02*
D03*
Y3917950D02*
D03*
Y3854450D02*
D03*
Y3790950D02*
D03*
Y3727450D02*
D03*
Y3663950D02*
D03*
Y3600450D02*
D03*
X3358600Y996950D02*
D03*
Y933450D02*
D03*
Y869950D02*
D03*
Y806450D02*
D03*
Y742950D02*
D03*
Y679450D02*
D03*
Y615950D02*
D03*
Y552450D02*
D03*
X3923600Y996950D02*
D03*
Y933450D02*
D03*
Y869950D02*
D03*
Y806450D02*
D03*
Y742950D02*
D03*
Y679450D02*
D03*
Y615950D02*
D03*
Y552450D02*
D03*
X3358600Y5568950D02*
D03*
Y5505450D02*
D03*
Y5441950D02*
D03*
Y5378450D02*
D03*
Y5314950D02*
D03*
Y5251450D02*
D03*
Y5187950D02*
D03*
Y5124450D02*
D03*
X3923600Y5568950D02*
D03*
Y5505450D02*
D03*
Y5441950D02*
D03*
Y5378450D02*
D03*
Y5314950D02*
D03*
Y5251450D02*
D03*
Y5187950D02*
D03*
Y5124450D02*
D03*
Y2076450D02*
D03*
Y2139950D02*
D03*
Y2203450D02*
D03*
Y2266950D02*
D03*
Y2330450D02*
D03*
Y2393950D02*
D03*
Y2457450D02*
D03*
Y2520950D02*
D03*
X3358600Y2076450D02*
D03*
Y2139950D02*
D03*
Y2203450D02*
D03*
Y2266950D02*
D03*
Y2330450D02*
D03*
Y2393950D02*
D03*
Y2457450D02*
D03*
Y2520950D02*
D03*
D15*
X2917200Y3824100D02*
D03*
Y3999100D02*
D03*
X4161800Y3846700D02*
D03*
Y3671700D02*
D03*
X3120400Y3999100D02*
D03*
Y3824100D02*
D03*
X4365000Y3846700D02*
D03*
Y3671700D02*
D03*
X1875049Y3916508D02*
D03*
Y3741508D02*
D03*
X1494049Y3726008D02*
D03*
Y3551008D02*
D03*
X884449Y3726008D02*
D03*
Y3551008D02*
D03*
X1494049Y3932008D02*
D03*
Y4107008D02*
D03*
X884449Y3932008D02*
D03*
Y4107008D02*
D03*
X2917200Y776100D02*
D03*
Y951100D02*
D03*
X4161800Y798700D02*
D03*
Y623700D02*
D03*
X3120400Y951100D02*
D03*
Y776100D02*
D03*
X4365000Y798700D02*
D03*
Y623700D02*
D03*
X1875049Y868508D02*
D03*
Y693508D02*
D03*
X1494049Y678008D02*
D03*
Y503008D02*
D03*
X884449Y678008D02*
D03*
Y503008D02*
D03*
X1494049Y884008D02*
D03*
Y1059008D02*
D03*
X884449Y884008D02*
D03*
Y1059008D02*
D03*
X2917200Y5348100D02*
D03*
Y5523100D02*
D03*
X4161800Y5370700D02*
D03*
Y5195700D02*
D03*
X3120400Y5523100D02*
D03*
Y5348100D02*
D03*
X4365000Y5370700D02*
D03*
Y5195700D02*
D03*
X1875049Y5440508D02*
D03*
Y5265508D02*
D03*
X1494049Y5250008D02*
D03*
Y5075008D02*
D03*
X884449Y5250008D02*
D03*
Y5075008D02*
D03*
X1494049Y5456008D02*
D03*
Y5631008D02*
D03*
X884449Y5456008D02*
D03*
Y5631008D02*
D03*
Y2583008D02*
D03*
Y2408008D02*
D03*
X1494049Y2583008D02*
D03*
Y2408008D02*
D03*
X884449Y2027008D02*
D03*
Y2202008D02*
D03*
X1494049Y2027008D02*
D03*
Y2202008D02*
D03*
X1875049Y2217508D02*
D03*
Y2392508D02*
D03*
X4365000Y2147700D02*
D03*
Y2322700D02*
D03*
X3120400Y2300100D02*
D03*
Y2475100D02*
D03*
X4161800Y2147700D02*
D03*
Y2322700D02*
D03*
X2917200Y2475100D02*
D03*
Y2300100D02*
D03*
D16*
X4160400Y3416300D02*
D03*
X3985400D02*
D03*
X2944000Y4203700D02*
D03*
X3119000D02*
D03*
X1698649Y3536908D02*
D03*
X1873649D02*
D03*
X1698649Y4121108D02*
D03*
X1873649D02*
D03*
X3985400Y368300D02*
D03*
X4160400D02*
D03*
X6618100Y1917700D02*
D03*
X6793100D02*
D03*
X6259700Y1905000D02*
D03*
X6084700D02*
D03*
X3985400Y4940300D02*
D03*
X4160400D02*
D03*
X2944000Y1155700D02*
D03*
X3119000D02*
D03*
X1698649Y488908D02*
D03*
X1873649D02*
D03*
X1698649Y1073108D02*
D03*
X1873649D02*
D03*
X2944000Y5727700D02*
D03*
X3119000D02*
D03*
X1698649Y5060908D02*
D03*
X1873649D02*
D03*
X1698649Y5645108D02*
D03*
X1873649D02*
D03*
Y2597108D02*
D03*
X1698649D02*
D03*
X1873649Y2012908D02*
D03*
X1698649D02*
D03*
X3119000Y2679700D02*
D03*
X2944000D02*
D03*
X3985400Y1892300D02*
D03*
X4160400D02*
D03*
D17*
X6741795Y2122170D02*
D03*
X6567805D02*
D03*
D18*
X6654800Y2379980D02*
D03*
D19*
X4624782Y1804200D02*
X5536400D01*
X5537200Y1803400D01*
X5346700Y1130300D02*
X5651500Y1435100D01*
X5144744Y445744D02*
X5346700Y647700D01*
Y1130300D01*
X5492300Y766000D02*
X5880100Y1153800D01*
Y1803400D01*
X5651500Y1435100D02*
Y2540000D01*
X4914319Y445744D02*
X5144744D01*
X4968200Y546100D02*
X5041900D01*
X5232400Y736600D01*
X4637482Y1243800D02*
X4765282Y1371600D01*
X5359400D01*
X4772500Y587563D02*
X4914319Y445744D01*
X5118100Y844955D02*
X5127194Y854050D01*
X5058584Y647700D02*
X5118100Y707216D01*
Y844955D01*
X4974416Y647700D02*
X5058584D01*
X4870000Y676800D02*
X4945316D01*
X4868100Y678700D02*
X4870000Y676800D01*
X5013700Y746500D02*
X5016500Y749300D01*
X4945316Y676800D02*
X4974416Y647700D01*
X4911964Y746500D02*
X5013700D01*
X4900600Y613700D02*
X4968200Y546100D01*
X4772500Y587563D02*
Y672879D01*
X4862763Y808700D02*
X4868100Y814036D01*
X5689600Y5511800D02*
X5689600D01*
X5617758Y5583642D02*
X5689600Y5511800D01*
X5517600Y5588000D02*
X5521958Y5583642D01*
X5617758D01*
X577693Y5035393D02*
X628493D01*
X715026Y5121926D01*
Y5459086D01*
X571500Y5029200D02*
X577693Y5035393D01*
X571500Y818457D02*
X884449Y505508D01*
X571500Y818457D02*
Y981900D01*
X884449Y503008D02*
Y505508D01*
X839057Y1106900D02*
X884449Y1061508D01*
X571500Y1106900D02*
X839057D01*
X884449Y1059008D02*
Y1061508D01*
X715026Y5459086D02*
X884449Y5628508D01*
Y5631008D01*
Y5072509D02*
Y5075008D01*
X571500Y4904200D02*
X716140D01*
X884449Y5072509D01*
X5238750Y5086350D02*
X5511250D01*
X5232400Y5092700D02*
X5238750Y5086350D01*
X5511250D02*
X5517600Y5080000D01*
X5130800Y5207000D02*
X5517600D01*
X5511250Y5327650D02*
X5517600Y5334000D01*
X5035550Y5327650D02*
X5511250D01*
X5029200Y5321300D02*
X5035550Y5327650D01*
X3111500Y2082800D02*
X3149600Y2120900D01*
X3215143D01*
X3234193Y2139950D01*
X3358600D01*
X6753300Y1955000D02*
Y2110665D01*
X6741795Y2122170D02*
X6753300Y2110665D01*
X4772500Y3635563D02*
X4979063Y3429000D01*
X5357531D02*
X5916331Y3987800D01*
X4979063Y3429000D02*
X5357531D01*
X5461000Y2082800D02*
Y2628900D01*
X4953663Y1930400D02*
X5308600D01*
X5461000Y2082800D01*
X4772500Y2111563D02*
X4953663Y1930400D01*
X5461000Y2628900D02*
X6106700Y3274600D01*
X5651500Y2540000D02*
X6136100Y3024600D01*
X6426200D01*
X6106700Y3274600D02*
X6426200D01*
X5008678Y2078296D02*
X5239505D01*
X4980900Y3581400D02*
X5232400D01*
X6578600Y3403600D02*
Y4112800D01*
X4772500Y5154916D02*
X5689616Y4237800D01*
X6426200D01*
X4772500Y5154916D02*
Y5244879D01*
X5504200Y4737100D02*
X5511800Y4729500D01*
Y4559300D02*
Y4729500D01*
X5828933Y5156667D02*
Y5524267D01*
X5517600Y5715000D02*
X5638200D01*
X5828933Y5524267D01*
X6426200Y4362800D02*
X6578600Y4210400D01*
Y4112800D02*
Y4210400D01*
X6515100Y3149600D02*
X6578600Y3213100D01*
Y2957233D02*
Y3213100D01*
X6516166Y4112800D02*
X6578600D01*
X6516166Y4112800D02*
X6516166Y4112800D01*
X6426200Y4112800D02*
X6516166D01*
X6518166Y3403600D02*
X6578600D01*
X6514166Y3399600D02*
X6518166Y3403600D01*
X6426200Y3399600D02*
X6514166D01*
X6578600Y3213100D02*
Y3403600D01*
X6426200Y3149600D02*
X6515100D01*
X6083300Y5715700D02*
Y5854700D01*
X6425200Y5333000D02*
X6426200Y5332000D01*
X6082600Y5715000D02*
X6083300Y5715700D01*
X6082600Y5334000D02*
X6083600Y5333000D01*
X6082600Y5207000D02*
X6426200D01*
X6082600Y5588000D02*
Y5715000D01*
X6083600Y5333000D02*
X6425200D01*
X5828933Y5156667D02*
X6032600Y4953000D01*
X4900600Y5185700D02*
X4993600Y5092700D01*
X6082600Y5080000D02*
X6083600Y5081000D01*
X6032600Y4953000D02*
X6082600D01*
Y4750500D02*
Y4953000D01*
Y4750500D02*
X6096000Y4737100D01*
X5800100D02*
X5936000D01*
X6083600Y5081000D02*
X6425200D01*
X6082600Y4953000D02*
X6422200D01*
X6425200Y5081000D02*
X6426200Y5082000D01*
X6422200Y4953000D02*
X6426200Y4957000D01*
X5517600Y4750500D02*
Y4953000D01*
X5504200Y4737100D02*
X5517600Y4750500D01*
X5800100Y4613900D02*
Y4737100D01*
X5664200D02*
X5800100D01*
Y4613900D02*
X5803900Y4610100D01*
X6044081Y2132481D02*
X6068382Y2156782D01*
X5809000Y2077700D02*
Y2156800D01*
X5802700Y2163100D02*
X5809000Y2156800D01*
X5769700Y2163100D02*
X5802700D01*
X5981700Y1905000D02*
X6084700D01*
X5809000Y2077700D02*
X5981700Y1905000D01*
X5880100Y1803400D02*
X5981700Y1905000D01*
X6479370Y2122170D02*
X6567805D01*
X6790600Y1917700D02*
X6793100D01*
X6438900D02*
X6618100D01*
X6262200Y1905000D02*
X6479370Y2122170D01*
X6753300Y1955000D02*
X6790600Y1917700D01*
X6674000Y1689100D02*
X6684000D01*
X6400800D02*
X6524000D01*
X6277600D02*
X6400800D01*
X6631700Y1731400D02*
X6674000Y1689100D01*
X6631700Y1731400D02*
Y1755282D01*
X6583582Y1803400D02*
X6631700Y1755282D01*
X5880100Y1803400D02*
X6583582D01*
X6187400Y2156800D02*
X6193700Y2163100D01*
X6154381Y2156782D02*
X6154400Y2156800D01*
X6068382Y2156782D02*
X6154381D01*
X6193700Y2163100D02*
Y2228100D01*
X6154400Y2156800D02*
X6187400D01*
X6259700Y1905000D02*
X6262200D01*
X6400800Y1536700D02*
Y1689100D01*
X6044081Y2132481D02*
Y2422714D01*
X6653530Y2379980D02*
X6654800D01*
X6193700Y2358100D02*
X6226700D01*
X6566650Y2293100D02*
X6653530Y2379980D01*
X6226700Y2358100D02*
X6324600Y2456000D01*
X6193700Y2293100D02*
X6566650D01*
X6324600Y2456000D02*
Y2463800D01*
X4911964Y5318500D02*
X5026400D01*
X4999816Y5207000D02*
X5130800D01*
X4868100Y5315700D02*
X4909163D01*
X4958016Y5248800D02*
X4999816Y5207000D01*
X4870000Y5248800D02*
X4958016D01*
X4909163Y5315700D02*
X4911964Y5318500D01*
X4968816Y3726700D02*
X4999816Y3695700D01*
X4909163Y743700D02*
X4911964Y746500D01*
X4870000Y2269600D02*
X4997769D01*
X4978920Y2179896D02*
X5123589D01*
X4956116Y2202700D02*
X4978920Y2179896D01*
X4997769Y2269600D02*
X5015331Y2287162D01*
X4949274Y2137700D02*
X5008678Y2078296D01*
X4900600Y3661700D02*
X4980900Y3581400D01*
X4993600Y5092700D02*
X5232400D01*
X5012800Y3793600D02*
X5029200Y3810000D01*
X4870000Y3793600D02*
X5012800D01*
X4868100Y3791700D02*
X4870000Y3793600D01*
X4868100Y2267700D02*
X4870000Y2269600D01*
X4868100Y613700D02*
X4900600D01*
X4999816Y3695700D02*
X5130800D01*
X1358900Y3822700D02*
X1494049D01*
X1492649Y4108408D02*
X1494049Y4107008D01*
Y3822700D02*
Y3932008D01*
Y4107008D02*
X1508149Y4121108D01*
X1698649D01*
X1873649D02*
X1964249D01*
X1875049Y3916508D02*
X2028533D01*
X1993900Y4267200D02*
X2002184D01*
X1964249Y4121108D02*
X2065849Y4019508D01*
X2002184Y4267200D02*
X2069884Y4334900D01*
X2028533Y3916508D02*
X2052533Y3892508D01*
X2065849Y4019508D02*
X2113249D01*
X2052533Y3892508D02*
X2113249D01*
X2146300Y3416300D02*
X2303800D01*
X2376082Y3517900D02*
X2411500Y3482482D01*
X2453800Y3416300D02*
X2463800D01*
X2473800D02*
X2516100Y3458600D01*
X2411500D02*
Y3482482D01*
Y3458600D02*
X2453800Y3416300D01*
X2519700Y4229100D02*
X2532400Y4241800D01*
X2613182Y4334900D02*
X2640100Y4307982D01*
Y4284100D02*
Y4307982D01*
Y4284100D02*
X2682400Y4241800D01*
X2678248Y4019508D02*
Y4227648D01*
X2692400Y4241800D01*
X2682400D02*
X2692400D01*
X2678248Y3892508D02*
X2728248D01*
X2692400Y4241800D02*
X2825719D01*
X2822692Y3986952D02*
Y4084891D01*
X2825719Y4241800D02*
X2875719Y4291800D01*
X2941500Y4203700D02*
X2944000D01*
X2917200Y3999100D02*
X3117600D01*
X2822692Y4084891D02*
X2941500Y4203700D01*
X3117600Y3999100D02*
X3119000Y4000500D01*
Y4203700D01*
X3120400Y3999100D02*
X3138050Y3981450D01*
X3208744Y3824100D02*
X3238694Y3854050D01*
X3138050Y3981450D02*
X3358600D01*
X3238694Y3854050D02*
X3358200D01*
X3358600Y3854450D01*
X2017082Y3517900D02*
X2376082D01*
X2069884Y4334900D02*
X2613182D01*
X2374900Y4229100D02*
X2519700D01*
X2728248Y3892508D02*
X2822692Y3986952D01*
X4233150Y3981050D02*
X4365000Y3849200D01*
X3971000Y4291800D02*
X4637482D01*
X4330700Y4102100D02*
X4340700D01*
X4434756Y4008044D01*
X4772500Y3635563D02*
Y3720879D01*
X4434756Y3985877D02*
Y4008044D01*
X4691400Y4064000D02*
X4701893Y4053507D01*
Y3929540D02*
Y4053507D01*
X4631737Y3789800D02*
X4684800Y3736737D01*
X4652779Y3840600D02*
X4772500Y3720879D01*
X4862763Y3856700D02*
X4868100Y3862036D01*
Y4047300D01*
Y3661700D02*
X4900600D01*
X884449Y4104508D02*
Y4107008D01*
X1107848D01*
X1109248Y4108408D01*
X1269248D02*
X1492649D01*
X571500Y3810509D02*
X587628D01*
X612567Y3832627D02*
X884449Y4104508D01*
X587628Y3810509D02*
X609746Y3832627D01*
X612567D01*
X2713016Y3328200D02*
X4624782D01*
X3358600Y3600450D02*
X3365500Y3593550D01*
Y3492500D02*
Y3593550D01*
X3358600Y3727450D02*
X3549607D01*
X3358600Y3790950D02*
X3560257D01*
X3617407Y3848100D01*
X3644900D01*
X3640916D02*
X3644900D01*
X3648884D02*
X3672393D01*
X3648884D02*
X3718734Y3917950D01*
X3549607Y3727450D02*
X3823457Y3453600D01*
X3672393Y3848100D02*
X3729543Y3790950D01*
X3644900Y3848100D02*
X3828650Y3664350D01*
X3729543Y3790950D02*
X3923600D01*
X3828650Y3664350D02*
X3923200D01*
X3823457Y3453600D02*
X3948100D01*
X3923200Y3664350D02*
X3923600Y3663950D01*
Y3600450D02*
Y3663950D01*
X3948100Y3453600D02*
X3985400Y3416300D01*
X3923600Y3727450D02*
X4108550D01*
X3923600Y3854450D02*
X4154050D01*
X4624782Y3328200D02*
X4684800Y3388218D01*
Y3412100D01*
X4108550Y3727450D02*
X4161800Y3674200D01*
X4154050Y3854450D02*
X4161800Y3846700D01*
X4160400Y3416300D02*
Y3670300D01*
X4161800Y3671700D01*
Y3674200D01*
Y3671700D02*
X4365000D01*
Y3844200D02*
Y3849200D01*
Y3844200D02*
X4480600Y3728600D01*
X4406900Y3454400D02*
X4577100D01*
X4480600Y3728600D02*
X4571200D01*
X4573100Y3726700D01*
Y3458400D02*
Y3661700D01*
Y3791700D02*
X4575000Y3789800D01*
X4573100Y3856700D02*
X4575000Y3854800D01*
X4573100Y3458400D02*
X4577100Y3454400D01*
X4575000Y3789800D02*
X4631737D01*
X4575000Y3854800D02*
X4632949D01*
X4647149Y3840600D01*
X4652779D01*
X4684800Y3412100D02*
X4727100Y3454400D01*
X2875719Y4291800D02*
X3971000D01*
X3358600Y3917950D02*
X3571066D01*
X3640916Y3848100D01*
X3718734Y3917950D02*
X3923600D01*
Y3981450D02*
X3924000Y3981050D01*
X4103550Y4044950D02*
X4160700Y4102100D01*
X3971000Y4291800D02*
X4160700Y4102100D01*
X3924000Y3981050D02*
X4233150D01*
X3358600Y4044950D02*
X4103550D01*
X2473800Y3416300D02*
X2624916D01*
X2516100Y3653360D02*
X2628248Y3765508D01*
X2678248D01*
X2679700Y3505200D02*
Y3637057D01*
X2917200Y3821600D02*
Y3824100D01*
X2946400Y3454400D02*
Y3601700D01*
X2951500Y3606800D01*
X2917200Y3821600D02*
X3011750Y3727050D01*
X3111500Y3606800D02*
X3153800Y3649100D01*
X3120400Y3824100D02*
X3208744D01*
X3011750Y3727050D02*
X3358200D01*
X3153800Y3649100D02*
X3219344D01*
X3234193Y3663950D01*
X3358600D01*
X3358200Y3727050D02*
X3358600Y3727450D01*
X2516100Y3458600D02*
Y3653360D01*
X2624916Y3416300D02*
X2713016Y3328200D01*
X2678248Y3638508D02*
X2679700Y3637057D01*
X884449Y3551008D02*
X1107848D01*
X571500Y3685509D02*
X752448D01*
X884449Y3553508D01*
Y3551008D02*
Y3553508D01*
X1269248Y3549608D02*
X1492649D01*
X1107848Y3551008D02*
X1109248Y3549608D01*
X1494049Y3726008D02*
Y3822700D01*
X1492649Y3549608D02*
X1494049Y3551008D01*
X1684549D01*
X1698649Y3536908D01*
X1358900Y3365500D02*
X1864682D01*
X2052533Y3765508D02*
X2113249D01*
X1873649Y3536908D02*
X1964249D01*
X1875049Y3741508D02*
X2028533D01*
X1964249Y3536908D02*
X2065849Y3638508D01*
X2028533Y3741508D02*
X2052533Y3765508D01*
X1864682Y3365500D02*
X2017082Y3517900D01*
X2065849Y3638508D02*
X2113249D01*
X4637482Y4291800D02*
X4799100Y4130182D01*
X4684800Y3496700D02*
Y3736737D01*
X4727100Y3454400D02*
X4737100D01*
X4841400Y4064000D02*
X4851400D01*
X4799100Y4106300D02*
Y4130182D01*
Y4106300D02*
X4841400Y4064000D01*
X5916331Y3987800D02*
X6426200D01*
X4868100Y3726700D02*
X4968816D01*
X4851400Y4064000D02*
X4868100Y4047300D01*
X4684800Y3496700D02*
X4727100Y3454400D01*
X2146300Y368300D02*
X2303800D01*
X609746Y2308627D02*
X612567D01*
X571500Y2286509D02*
X587628D01*
X609746Y2308627D01*
X612567D02*
X884449Y2580508D01*
X1993900Y1790700D02*
X2109382D01*
X3358600Y2520950D02*
X4103550D01*
X3358600Y996950D02*
X4103550D01*
X2682400Y1193800D02*
X2692400D01*
X2640100Y1236100D02*
X2682400Y1193800D01*
X2109382Y1790700D02*
X2640100Y1259982D01*
Y1236100D02*
Y1259982D01*
X6044081Y2422714D02*
X6578600Y2957233D01*
X4631737Y5313800D02*
X4684800Y5260737D01*
Y5020700D02*
X4727100Y4978400D01*
X2473800Y1892300D02*
X2624916D01*
X2713016Y1804200D01*
X4624782D01*
X4684800Y1864218D02*
Y1888100D01*
X4624782Y1804200D02*
X4684800Y1864218D01*
Y1888100D02*
X4727100Y1930400D01*
X4684800Y448700D02*
X4727100Y406400D01*
X4862763Y5380700D02*
X4868100Y5386036D01*
X4862763Y2332700D02*
X4868100Y2338036D01*
X3358600Y5568950D02*
X4103550D01*
X1993900Y2743200D02*
X2002184D01*
X2069884Y2810900D01*
X2613182D01*
X2640100Y2783982D01*
Y2760100D02*
Y2783982D01*
Y2760100D02*
X2682400Y2717800D01*
X2692400D01*
X1993900Y4267200D02*
Y4838700D01*
Y2743200D02*
Y3314700D01*
X1437193Y266700D02*
X2376082D01*
Y1993900D02*
X2411500Y1958482D01*
X2453800Y1892300D02*
X2463800D01*
X4727100Y4978400D02*
X4737100D01*
X2411500Y1934600D02*
X2453800Y1892300D01*
X2017082Y5041900D02*
X2376082D01*
X2017082Y1993900D02*
X2376082D01*
X4684800Y448700D02*
Y688737D01*
X4727100Y406400D02*
X4737100D01*
X1358900Y4889500D02*
X1864682D01*
X4631737Y2265800D02*
X4684800Y2212737D01*
X1358900Y1841500D02*
X1864682D01*
X1993900Y5791200D02*
X2002184D01*
X2069884Y5858900D01*
X2613181D01*
X2640100Y5808100D02*
X2682400Y5765800D01*
X2613181Y5858900D02*
X2640100Y5831982D01*
X2682400Y5765800D02*
X2692400D01*
X2640100Y5808100D02*
Y5831982D01*
X1864682Y4889500D02*
X2017082Y5041900D01*
X4684800Y1972700D02*
X4727100Y1930400D01*
X2453800Y4940300D02*
X2463800D01*
X2453800Y368300D02*
X2473800D01*
X4684800Y1972700D02*
Y2212737D01*
X2411500Y4982600D02*
X2453800Y4940300D01*
X2411500Y1934600D02*
Y1958482D01*
X1873649Y5060908D02*
X1964249D01*
X2065849Y5162508D01*
X4652779Y792600D02*
X4772500Y672879D01*
X4638579Y2330800D02*
X4772500Y2196879D01*
Y2111563D02*
Y2196879D01*
X4647149Y792600D02*
X4652779D01*
X4632949Y806800D02*
X4647149Y792600D01*
X4573100Y808700D02*
X4575000Y806800D01*
X4701893Y881540D02*
Y1005507D01*
X4691400Y1016000D02*
X4701893Y1005507D01*
X4575000Y806800D02*
X4632949D01*
X4868100Y814036D02*
Y999300D01*
X4851400Y1016000D02*
X4868100Y999300D01*
X4841400Y1016000D02*
X4851400D01*
X4691400Y2540000D02*
X4706664Y2524736D01*
Y2409022D02*
Y2524736D01*
X4575000Y2330800D02*
X4638579D01*
X4573100Y2332700D02*
X4575000Y2330800D01*
X4647645Y5364600D02*
X4652779D01*
X4575000Y5378800D02*
X4633445D01*
X4652779Y5364600D02*
X4772500Y5244879D01*
X4573100Y5380700D02*
X4575000Y5378800D01*
X4691400Y5588000D02*
X4703020Y5576380D01*
X4633445Y5378800D02*
X4647645Y5364600D01*
X4703020Y5452908D02*
Y5576380D01*
X4684800Y5020700D02*
Y5260737D01*
X4868100Y5185700D02*
X4900600D01*
X4631737Y741800D02*
X4684800Y688737D01*
X4575000Y5313800D02*
X4631737D01*
X4868100Y2137700D02*
X4949274D01*
X4868100Y2202700D02*
X4956116D01*
X4868100Y743700D02*
X4909163D01*
X4868100Y5250700D02*
X4870000Y5248800D01*
X2946400Y406400D02*
Y553700D01*
X1358900Y4305300D02*
Y4889500D01*
Y1257300D02*
Y1841500D01*
Y2768600D02*
Y3365500D01*
X1494049Y678008D02*
Y774700D01*
Y884008D01*
X1358900Y774700D02*
X1494049D01*
Y2202008D02*
Y2298700D01*
Y2408008D01*
X1358900Y2298700D02*
X1494049D01*
Y5250008D02*
Y5346700D01*
Y5456008D01*
X1358900Y5346700D02*
X1494049D01*
X752448Y2161509D02*
X884449Y2029508D01*
X571500Y2161509D02*
X752448D01*
X884449Y2027008D02*
Y2029508D01*
Y2580508D02*
Y2583008D01*
X3117600Y951100D02*
X3119000Y952500D01*
X2822692Y938952D02*
Y1036891D01*
X3119000Y952500D02*
Y1155700D01*
X2678248Y971508D02*
Y1179648D01*
X2822692Y1036891D02*
X2941500Y1155700D01*
X2944000D01*
X2678248Y1179648D02*
X2692400Y1193800D01*
X2825719D01*
X2875719Y1243800D01*
X1269248Y501608D02*
X1492649D01*
X1107848Y503008D02*
X1109248Y501608D01*
X884449Y503008D02*
X1107848D01*
X884449Y1059008D02*
X1107848D01*
X1109248Y1060408D01*
X1269248D02*
X1492649D01*
X2376082Y266700D02*
X2411500Y302118D01*
X1386393Y317500D02*
X1437193Y266700D01*
X2411500Y302118D02*
Y326000D01*
X2453800Y368300D01*
X1873649Y488908D02*
X1964249D01*
X1684549Y503008D02*
X1698649Y488908D01*
X2065849Y590508D02*
X2113249D01*
X1492649Y501608D02*
X1494049Y503008D01*
X1684549D01*
X1964249Y488908D02*
X2065849Y590508D01*
X1875049Y693508D02*
X2028533D01*
X2052533Y717508D01*
X2113249D01*
X2624916Y368300D02*
X2713016Y280200D01*
X2473800Y368300D02*
X2624916D01*
X2473800D02*
X2516100Y410600D01*
Y605360D01*
X2679700Y457200D02*
Y589057D01*
X3358600Y552450D02*
X3365500Y545550D01*
X2946400Y553700D02*
X2951500Y558800D01*
X3111500D02*
X3153800Y601100D01*
X2678248Y590508D02*
X2679700Y589057D01*
X3153800Y601100D02*
X3219344D01*
X3234193Y615950D01*
X3358600D01*
X2516100Y605360D02*
X2628248Y717508D01*
X3011750Y679050D02*
X3358200D01*
X3358600Y679450D01*
X2628248Y717508D02*
X2678248D01*
X2917200Y773600D02*
X3011750Y679050D01*
X2917200Y773600D02*
Y776100D01*
X3120400D02*
X3208744D01*
X2065849Y971508D02*
X2113249D01*
X2052533Y844508D02*
X2113249D01*
X2028533Y868508D02*
X2052533Y844508D01*
X1875049Y868508D02*
X2028533D01*
X1964249Y1073108D02*
X2065849Y971508D01*
X1494049Y1059008D02*
X1508149Y1073108D01*
X1698649D01*
X1873649D02*
X1964249D01*
X2374900Y1181100D02*
X2519700D01*
X2532400Y1193800D01*
X3208744Y776100D02*
X3238694Y806050D01*
X3358200D01*
X3358600Y806450D01*
X2678248Y844508D02*
X2728248D01*
X2822692Y938952D01*
X3138050Y933450D02*
X3358600D01*
X3120400Y951100D02*
X3138050Y933450D01*
X2917200Y951100D02*
X3117600D01*
X1358900Y317500D02*
X1386393D01*
X1492649Y1060408D02*
X1494049Y1059008D01*
X4624782Y280200D02*
X4684800Y340218D01*
Y364100D01*
X4406900Y406400D02*
X4577100D01*
X4573100Y410400D02*
X4577100Y406400D01*
X4573100Y410400D02*
Y613700D01*
X4571200Y680600D02*
X4573100Y678700D01*
X4480600Y680600D02*
X4571200D01*
X4575000Y741800D02*
X4631737D01*
X3358600Y742950D02*
X3560257D01*
X3823457Y405600D02*
X3948100D01*
X3365500Y444500D02*
Y545550D01*
X3549607Y679450D02*
X3823457Y405600D01*
X3923600Y552450D02*
Y615950D01*
X3923200Y616350D02*
X3923600Y615950D01*
X3828650Y616350D02*
X3923200D01*
X3358600Y679450D02*
X3549607D01*
X3644900Y800100D02*
X3828650Y616350D01*
X3729543Y742950D02*
X3923600D01*
X3648884Y800100D02*
X3672393D01*
X3617407D02*
X3644900D01*
X3640916D02*
X3644900D01*
X3648884D02*
X3718734Y869950D01*
X3571066D02*
X3640916Y800100D01*
X3358600Y869950D02*
X3571066D01*
X3718734D02*
X3923600D01*
X2875719Y1243800D02*
X3971000D01*
X3948100Y405600D02*
X3985400Y368300D01*
X4160400D02*
Y622300D01*
X4161800Y623700D01*
X4365000D01*
X4161800D02*
Y626200D01*
X4108550Y679450D02*
X4161800Y626200D01*
X3923600Y679450D02*
X4108550D01*
X4365000Y796200D02*
Y801200D01*
X4154050Y806450D02*
X4161800Y798700D01*
X3923600Y806450D02*
X4154050D01*
X4233150Y933050D02*
X4365000Y801200D01*
X3924000Y933050D02*
X4233150D01*
X3923600Y933450D02*
X3924000Y933050D01*
X4103550Y996950D02*
X4160700Y1054100D01*
X4330700D02*
X4340700D01*
X3971000Y1243800D02*
X4160700Y1054100D01*
X3971000Y1243800D02*
X4637482D01*
X4799100Y1058300D02*
X4841400Y1016000D01*
X4799100Y1058300D02*
Y1082182D01*
X4637482Y1243800D02*
X4799100Y1082182D01*
X4434756Y937877D02*
Y960044D01*
X4340700Y1054100D02*
X4434756Y960044D01*
X4684800Y364100D02*
X4727100Y406400D01*
X2376082Y5041900D02*
X2411500Y5006482D01*
X4573100Y743700D02*
X4575000Y741800D01*
X2713016Y280200D02*
X4624782D01*
X3672393Y800100D02*
X3729543Y742950D01*
X3560257D02*
X3617407Y800100D01*
X4365000Y796200D02*
X4480600Y680600D01*
X2052533Y5289508D02*
X2113249D01*
X2028533Y5265508D02*
X2052533Y5289508D01*
X1875049Y5265508D02*
X2028533D01*
X2052533Y5416508D02*
X2113249D01*
X1875049Y5440508D02*
X2028533D01*
X2052533Y5416508D01*
X2065849Y5543508D02*
X2113249D01*
X1964249Y5645108D02*
X2065849Y5543508D01*
X1508149Y5645108D02*
X1698649D01*
X2065849Y5162508D02*
X2113249D01*
X1684549Y5075008D02*
X1698649Y5060908D01*
X1494049Y5075008D02*
X1684549D01*
X1873649Y5645108D02*
X1964249D01*
X1492649Y5632408D02*
X1494049Y5631008D01*
X1269248Y5632408D02*
X1492649D01*
X1494049Y5631008D02*
X1508149Y5645108D01*
X1107848Y5631008D02*
X1109248Y5632408D01*
X1107848Y5075008D02*
X1109248Y5073608D01*
X1492649D02*
X1494049Y5075008D01*
X1269248Y5073608D02*
X1492649D01*
X2917200Y5345600D02*
X3011750Y5251050D01*
X3208744Y5348100D02*
X3238694Y5378050D01*
X3219344Y5173100D02*
X3234193Y5187950D01*
X2917200Y5345600D02*
Y5348100D01*
X3238694Y5378050D02*
X3358200D01*
X3120400Y5348100D02*
X3208744D01*
X3011750Y5251050D02*
X3358200D01*
X3234193Y5187950D02*
X3358600D01*
X3153800Y5173100D02*
X3219344D01*
X3365500Y5016500D02*
Y5117550D01*
X2946400Y4978400D02*
Y5125700D01*
X2951500Y5130800D01*
X3111500D02*
X3153800Y5173100D01*
X2678248Y5162508D02*
X2679700Y5161057D01*
Y5029200D02*
Y5161057D01*
X3948100Y4977600D02*
X3985400Y4940300D01*
X4160400D02*
Y5194300D01*
X4406900Y4978400D02*
X4577100D01*
X2713016Y4852200D02*
X4624782D01*
X3823457Y4977600D02*
X3948100D01*
X3549607Y5251450D02*
X3823457Y4977600D01*
X4480600Y5252600D02*
X4571200D01*
X4684800Y4936100D02*
X4727100Y4978400D01*
X4573100Y4982400D02*
X4577100Y4978400D01*
X4624782Y4852200D02*
X4684800Y4912218D01*
Y4936100D01*
X4573100Y4982400D02*
Y5185700D01*
X2628248Y5289508D02*
X2678248D01*
X2822692Y5510952D02*
Y5608892D01*
X2692400Y5765800D02*
X2825719D01*
X2678248Y5751648D02*
X2692400Y5765800D01*
X2822692Y5608892D02*
X2941500Y5727700D01*
X2678248Y5416508D02*
X2728248D01*
X2678248Y5543508D02*
Y5751648D01*
X2473800Y4940300D02*
X2516100Y4982600D01*
X2473800Y4940300D02*
X2624916D01*
X2516100Y5177360D02*
X2628248Y5289508D01*
X2519700Y5753100D02*
X2532400Y5765800D01*
X2374900Y5753100D02*
X2519700D01*
X2516100Y4982600D02*
Y5177360D01*
X4799100Y5630300D02*
Y5654182D01*
X4330700Y5626100D02*
X4340700D01*
X4103550Y5568950D02*
X4160700Y5626100D01*
X884449Y5631008D02*
X1107848D01*
X4851400Y5588000D02*
X4868100Y5571300D01*
Y5386036D02*
Y5571300D01*
X4841400Y5588000D02*
X4851400D01*
X4799100Y5630300D02*
X4841400Y5588000D01*
X4571200Y5252600D02*
X4573100Y5250700D01*
Y5315700D02*
X4575000Y5313800D01*
X4434756Y5509877D02*
Y5532044D01*
X2624916Y4940300D02*
X2713016Y4852200D01*
X2146300Y4940300D02*
X2303800D01*
X884449Y5075008D02*
X1107848D01*
X4637482Y5815800D02*
X4799100Y5654182D01*
X2825719Y5765800D02*
X2875719Y5815800D01*
X4340700Y5626100D02*
X4434756Y5532044D01*
X3971000Y5815800D02*
X4160700Y5626100D01*
X2875719Y5815800D02*
X3971000D01*
X2941500Y5727700D02*
X2944000D01*
X3971000Y5815800D02*
X4637482D01*
X2728248Y5416508D02*
X2822692Y5510952D01*
X3119000Y5524500D02*
Y5727700D01*
X3120400Y5523100D02*
X3138050Y5505450D01*
X2917200Y5523100D02*
X3117600D01*
X3119000Y5524500D01*
X3138050Y5505450D02*
X3358600D01*
X3617407Y5372100D02*
X3644900D01*
X3358600Y5314950D02*
X3560257D01*
X3648884Y5372100D02*
X3672393D01*
X3640916D02*
X3644900D01*
X3672393D02*
X3729543Y5314950D01*
X3644900Y5372100D02*
X3828650Y5188350D01*
X3560257Y5314950D02*
X3617407Y5372100D01*
X3358600Y5251450D02*
X3549607D01*
X3358200Y5251050D02*
X3358600Y5251450D01*
Y5124450D02*
X3365500Y5117550D01*
X4365000Y5368200D02*
Y5373200D01*
X4233150Y5505050D02*
X4365000Y5373200D01*
X3923600Y5505450D02*
X3924000Y5505050D01*
X4154050Y5378450D02*
X4161800Y5370700D01*
X3923600Y5378450D02*
X4154050D01*
X3924000Y5505050D02*
X4233150D01*
X3729543Y5314950D02*
X3923600D01*
X3718734Y5441950D02*
X3923600D01*
X3828650Y5188350D02*
X3923200D01*
X3923600Y5187950D01*
Y5124450D02*
Y5187950D01*
Y5251450D02*
X4108550D01*
X4365000Y5368200D02*
X4480600Y5252600D01*
X4161800Y5195700D02*
Y5198200D01*
X4160400Y5194300D02*
X4161800Y5195700D01*
X4108550Y5251450D02*
X4161800Y5198200D01*
Y5195700D02*
X4365000D01*
X3358200Y5378050D02*
X3358600Y5378450D01*
X3571066Y5441950D02*
X3640916Y5372100D01*
X3648884D02*
X3718734Y5441950D01*
X3358600D02*
X3571066D01*
X2146300Y1892300D02*
X2303800D01*
X2519700Y2705100D02*
X2532400Y2717800D01*
X2374900Y2705100D02*
X2519700D01*
X4406900Y1930400D02*
X4577100D01*
X4851400Y2540000D02*
X4868100Y2523300D01*
X4799100Y2582300D02*
Y2606182D01*
X2946400Y2077700D02*
X2951500Y2082800D01*
X2946400Y1930400D02*
Y2077700D01*
X4637482Y2767800D02*
X4799100Y2606182D01*
Y2582300D02*
X4841400Y2540000D01*
X3971000Y2767800D02*
X4637482D01*
X3971000D02*
X4160700Y2578100D01*
X2875719Y2767800D02*
X3971000D01*
X2825719Y2717800D02*
X2875719Y2767800D01*
X2692400Y2717800D02*
X2825719D01*
X4340700Y2578100D02*
X4434756Y2484044D01*
Y2461877D02*
Y2484044D01*
X4330700Y2578100D02*
X4340700D01*
X1107848Y2583008D02*
X1109248Y2584408D01*
X884449Y2583008D02*
X1107848D01*
X1492649Y2584408D02*
X1494049Y2583008D01*
X1508149Y2597108D01*
X1269248Y2584408D02*
X1492649D01*
X1508149Y2597108D02*
X1698649D01*
X884449Y2027008D02*
X1107848D01*
X1109248Y2025608D01*
X1492649D02*
X1494049Y2027008D01*
X1269248Y2025608D02*
X1492649D01*
X1494049Y2027008D02*
X1684549D01*
X1698649Y2012908D01*
X4365000Y2320200D02*
Y2325200D01*
X3117600Y2475100D02*
X3119000Y2476500D01*
Y2679700D01*
X4160400Y2146300D02*
X4161800Y2147700D01*
X4365000D01*
X4161800D02*
Y2150200D01*
X4160400Y1892300D02*
Y2146300D01*
X2917200Y2475100D02*
X3117600D01*
X2065849Y2495508D02*
X2113249D01*
X1964249Y2597108D02*
X2065849Y2495508D01*
X1873649Y2597108D02*
X1964249D01*
X2052533Y2368508D02*
X2113249D01*
X2028533Y2392508D02*
X2052533Y2368508D01*
X1875049Y2392508D02*
X2028533D01*
X2052533Y2241508D02*
X2113249D01*
X2028533Y2217508D02*
X2052533Y2241508D01*
X1875049Y2217508D02*
X2028533D01*
X2065849Y2114508D02*
X2113249D01*
X1964249Y2012908D02*
X2065849Y2114508D01*
X1873649Y2012908D02*
X1964249D01*
X2678248Y2495508D02*
Y2703648D01*
X2692400Y2717800D01*
X2941500Y2679700D02*
X2944000D01*
X2822692Y2560891D02*
X2941500Y2679700D01*
X2728248Y2368508D02*
X2822692Y2462952D01*
Y2560891D01*
X2678248Y2368508D02*
X2728248D01*
X2628248Y2241508D02*
X2678248D01*
X2516100Y2129360D02*
X2628248Y2241508D01*
X2516100Y1934600D02*
Y2129360D01*
X2473800Y1892300D02*
X2516100Y1934600D01*
X2678248Y2114508D02*
X2679700Y2113057D01*
Y1981200D02*
Y2113057D01*
X3120400Y2475100D02*
X3138050Y2457450D01*
X3358600D01*
X3358200Y2330050D02*
X3358600Y2330450D01*
X3238694Y2330050D02*
X3358200D01*
X3208744Y2300100D02*
X3238694Y2330050D01*
X3120400Y2300100D02*
X3208744D01*
X3358600Y2203450D02*
X3549607D01*
X3823457Y1929600D01*
X3358200Y2203050D02*
X3358600Y2203450D01*
X3948100Y1929600D02*
X3985400Y1892300D01*
X3823457Y1929600D02*
X3948100D01*
X2917200Y2297600D02*
X3011750Y2203050D01*
X2917200Y2297600D02*
Y2300100D01*
X3011750Y2203050D02*
X3358200D01*
X3365500Y1968500D02*
Y2069550D01*
X3358600Y2076450D02*
X3365500Y2069550D01*
X4103550Y2520950D02*
X4160700Y2578100D01*
X3924000Y2457050D02*
X4233150D01*
X3923600Y2457450D02*
X3924000Y2457050D01*
X4233150D02*
X4365000Y2325200D01*
X4154050Y2330450D02*
X4161800Y2322700D01*
X3923600Y2330450D02*
X4154050D01*
X3923600Y2203450D02*
X4108550D01*
X4161800Y2150200D01*
X3923200Y2140350D02*
X3923600Y2139950D01*
Y2076450D02*
Y2139950D01*
X3729543Y2266950D02*
X3923600D01*
X3718734Y2393950D02*
X3923600D01*
X3672393Y2324100D02*
X3729543Y2266950D01*
X3828650Y2140350D02*
X3923200D01*
X3648884Y2324100D02*
X3718734Y2393950D01*
X3640916Y2324100D02*
X3644900D01*
X3571066Y2393950D02*
X3640916Y2324100D01*
X3617407D02*
X3644900D01*
X3828650Y2140350D01*
X3560257Y2266950D02*
X3617407Y2324100D01*
X3648884D02*
X3672393D01*
X3358600Y2393950D02*
X3571066D01*
X3358600Y2266950D02*
X3560257D01*
X4575000Y2265800D02*
X4631737D01*
X4573100Y2267700D02*
X4575000Y2265800D01*
X4365000Y2320200D02*
X4480600Y2204600D01*
X4571200D01*
X4573100Y2202700D01*
Y1934400D02*
Y2137700D01*
Y1934400D02*
X4577100Y1930400D01*
X4841400Y2540000D02*
X4851400D01*
X4868100Y2338036D02*
Y2523300D01*
X2411500Y4982600D02*
Y5006482D01*
X4727100Y1930400D02*
X4737100D01*
X1864682Y1841500D02*
X2017082Y1993900D01*
D20*
X5492300Y516000D02*
X6157200Y1180900D01*
X1181100Y165100D02*
X5141400D01*
X5492300Y516000D01*
X6127600Y1689100D02*
X6157200Y1659500D01*
X6117600Y1689100D02*
X6127600D01*
X6157200Y1180900D02*
Y1659500D01*
X1022392Y3829008D02*
X1028700Y3822700D01*
X884449Y3829008D02*
X1022392D01*
X884449D02*
Y3932008D01*
Y3726008D02*
Y3829008D01*
X1028700Y2768600D02*
Y3365500D01*
Y1257300D02*
Y1828800D01*
Y317500D02*
X1181100Y165100D01*
X884449Y2305008D02*
Y2408008D01*
Y2202008D02*
Y2305008D01*
X1022308D01*
X1028700Y2311400D01*
X884449Y781008D02*
Y884008D01*
Y678008D02*
Y781008D01*
X1022392D01*
X1028700Y774700D01*
Y4305300D02*
Y4889500D01*
X884449Y5353008D02*
Y5456008D01*
Y5250008D02*
Y5353008D01*
X1022392D02*
X1028700Y5346700D01*
X884449Y5353008D02*
X1022392D01*
D21*
X6426200Y4957000D02*
D03*
X571500Y5154200D02*
D03*
Y3935509D02*
D03*
Y2411509D02*
D03*
Y1231900D02*
D03*
X6426200Y3987800D02*
D03*
Y3024600D02*
D03*
D22*
X571500Y4904200D02*
D03*
Y5029200D02*
D03*
Y3810509D02*
D03*
Y3685509D02*
D03*
Y2161509D02*
D03*
Y2286509D02*
D03*
Y1106900D02*
D03*
Y981900D02*
D03*
X6426200Y5332000D02*
D03*
Y5207000D02*
D03*
Y5082000D02*
D03*
Y4112800D02*
D03*
Y4237800D02*
D03*
Y4362800D02*
D03*
Y3399600D02*
D03*
Y3274600D02*
D03*
Y3149600D02*
D03*
D23*
X5492300Y1016000D02*
D03*
D24*
Y766000D02*
D03*
Y516000D02*
D03*
D25*
X6210300Y1016000D02*
D03*
Y516001D02*
D03*
D26*
X5537200Y1803400D02*
D03*
X5232400Y736600D02*
D03*
X5359400Y1371600D02*
D03*
X5127194Y854050D02*
D03*
X5016500Y749300D02*
D03*
X6324600Y2463800D02*
D03*
X6400800Y1536700D02*
D03*
X6044081Y2132481D02*
D03*
X5239505Y2078296D02*
D03*
X5232400Y3581400D02*
D03*
X5511800Y4559300D02*
D03*
X5803900Y4610100D02*
D03*
X6083300Y5854700D02*
D03*
X5689600Y5511800D02*
D03*
X5880100Y1651000D02*
D03*
X6438900Y1917700D02*
D03*
X5029200Y5321300D02*
D03*
X5130800Y5207000D02*
D03*
X5232400Y5092700D02*
D03*
X5123589Y2179896D02*
D03*
X5015331Y2287162D02*
D03*
X5130800Y3695700D02*
D03*
X5029200Y3810000D02*
D03*
X1028700Y3365500D02*
D03*
Y4305300D02*
D03*
Y3822700D02*
D03*
X1358900Y3365500D02*
D03*
Y3822700D02*
D03*
Y4305300D02*
D03*
X1993900Y3314700D02*
D03*
Y4267200D02*
D03*
X2146300Y3416300D02*
D03*
X2374900Y4229100D02*
D03*
X2679700Y3505200D02*
D03*
X2946400Y3454400D02*
D03*
X3365500Y3492500D02*
D03*
X4406900Y3454400D02*
D03*
X3644900Y3848100D02*
D03*
X4434756Y3985877D02*
D03*
X4701893Y3929540D02*
D03*
X2146300Y368300D02*
D03*
X1993900Y1790700D02*
D03*
Y2743200D02*
D03*
Y5791200D02*
D03*
Y4838700D02*
D03*
X4701893Y881540D02*
D03*
X4706664Y2409022D02*
D03*
X4703020Y5452908D02*
D03*
X1028700Y774700D02*
D03*
Y1257300D02*
D03*
Y2311400D02*
D03*
Y2768600D02*
D03*
Y1828800D02*
D03*
Y317500D02*
D03*
Y4889500D02*
D03*
Y5346700D02*
D03*
X2946400Y406400D02*
D03*
X1358900Y1257300D02*
D03*
Y2768600D02*
D03*
Y317500D02*
D03*
X2679700Y457200D02*
D03*
X1358900Y774700D02*
D03*
X2374900Y1181100D02*
D03*
X3365500Y444500D02*
D03*
X3644900Y800100D02*
D03*
X4406900Y406400D02*
D03*
X4434756Y937877D02*
D03*
Y5509877D02*
D03*
X3644900Y5372100D02*
D03*
X1358900Y5346700D02*
D03*
X3365500Y5016500D02*
D03*
X2946400Y4978400D02*
D03*
X2374900Y5753100D02*
D03*
X4406900Y4978400D02*
D03*
X1358900Y4889500D02*
D03*
X2146300Y4940300D02*
D03*
X2679700Y5029200D02*
D03*
X2146300Y1892300D02*
D03*
X2374900Y2705100D02*
D03*
X4406900Y1930400D02*
D03*
X2946400D02*
D03*
X4434756Y2461877D02*
D03*
X1358900Y2298700D02*
D03*
Y1841500D02*
D03*
X2679700Y1981200D02*
D03*
X3365500Y1968500D02*
D03*
X3644900Y2324100D02*
D03*
D27*
X317500Y5892800D02*
D03*
Y304800D02*
D03*
X6705600Y5892800D02*
D03*
%TF.MD5,64b1cad9ee65e3f06835b459a94f210f*%
M02*
