%TF.GenerationSoftware,Altium Limited,Altium Designer,24.1.2 (44)*%
G04 Layer_Physical_Order=2*
G04 Layer_Color=32768*
%FSLAX45Y45*%
%MOMM*%
%TF.SameCoordinates,12E9634C-A8E6-484A-B1C3-FEDB1742B245*%
%TF.FilePolarity,Negative*%
%TF.FileFunction,Copper,L2,Inr,Plane*%
%TF.Part,Single*%
G01*
G75*
%TA.AperFunction,ComponentPad*%
%ADD79C,2.03200*%
%TA.AperFunction,TestPad*%
%ADD80C,2.03200*%
%TA.AperFunction,NonConductor*%
%ADD88C,1.01600*%
%TA.AperFunction,ComponentPad*%
G04:AMPARAMS|DCode=89|XSize=3.814mm|YSize=3.814mm|CornerRadius=0mm|HoleSize=0mm|Usage=FLASHONLY|Rotation=0.000|XOffset=0mm|YOffset=0mm|HoleType=Round|Shape=Relief|Width=0.762mm|Gap=0.127mm|Entries=4|*
%AMTHD89*
7,0,0,3.81400,3.56000,0.76200,45*
%
%ADD89THD89*%
%ADD90C,2.03600*%
%ADD91C,7.21600*%
%ADD92C,2.21600*%
%ADD93C,2.71600*%
%ADD94C,1.91600*%
G04:AMPARAMS|DCode=95|XSize=3.694mm|YSize=3.694mm|CornerRadius=0mm|HoleSize=0mm|Usage=FLASHONLY|Rotation=0.000|XOffset=0mm|YOffset=0mm|HoleType=Round|Shape=Relief|Width=0.762mm|Gap=0.127mm|Entries=4|*
%AMTHD95*
7,0,0,3.69400,3.44000,0.76200,45*
%
%ADD95THD95*%
G04:AMPARAMS|DCode=96|XSize=6.494mm|YSize=6.494mm|CornerRadius=0mm|HoleSize=0mm|Usage=FLASHONLY|Rotation=0.000|XOffset=0mm|YOffset=0mm|HoleType=Round|Shape=Relief|Width=0.762mm|Gap=0.127mm|Entries=4|*
%AMTHD96*
7,0,0,6.49400,6.24000,0.76200,45*
%
%ADD96THD96*%
%ADD97C,1.81600*%
G04:AMPARAMS|DCode=98|XSize=3.81mm|YSize=3.81mm|CornerRadius=0mm|HoleSize=0mm|Usage=FLASHONLY|Rotation=0.000|XOffset=0mm|YOffset=0mm|HoleType=Round|Shape=Relief|Width=0.762mm|Gap=0.127mm|Entries=4|*
%AMTHD98*
7,0,0,3.81000,3.55600,0.76200,45*
%
%ADD98THD98*%
%TA.AperFunction,ViaPad*%
G04:AMPARAMS|DCode=99|XSize=3.175mm|YSize=3.175mm|CornerRadius=0mm|HoleSize=0mm|Usage=FLASHONLY|Rotation=0.000|XOffset=0mm|YOffset=0mm|HoleType=Round|Shape=Relief|Width=0.762mm|Gap=0.127mm|Entries=4|*
%AMTHD99*
7,0,0,3.17500,2.92100,0.76200,45*
%
%ADD99THD99*%
%ADD100C,1.39700*%
%ADD101C,1.72720*%
%ADD102C,1.65100*%
G04:AMPARAMS|DCode=103|XSize=2.994mm|YSize=2.994mm|CornerRadius=0mm|HoleSize=0mm|Usage=FLASHONLY|Rotation=0.000|XOffset=0mm|YOffset=0mm|HoleType=Round|Shape=Relief|Width=0.762mm|Gap=0.127mm|Entries=4|*
%AMTHD103*
7,0,0,2.99400,2.74000,0.76200,45*
%
%ADD103THD103*%
%ADD104C,1.52400*%
D79*
X8216900Y5867400D02*
D03*
X8483600D02*
D03*
D80*
X7543800Y12382500D02*
D03*
Y12065000D02*
D03*
Y12700000D02*
D03*
Y11430000D02*
D03*
Y13017500D02*
D03*
Y11747500D02*
D03*
D88*
X6832195Y13995401D02*
G03*
X6387696Y13550908I-5J-444494D01*
G01*
X19831050Y13550900D02*
G03*
X19386548Y13995399I-444500J0D01*
G01*
X19386549Y5314950D02*
G03*
X19831047Y5759447I1J444497D01*
G01*
X6387697Y5759458D02*
G03*
X6832195Y5314959I444497J-1D01*
G01*
X6387696Y13550908D02*
X6387697Y5759458D01*
X6832196Y13995401D02*
X19386549Y13995399D01*
X19831047Y5759447D02*
X19831050Y13550900D01*
X6832195Y5314959D02*
X19386549Y5314950D01*
D89*
X12065000Y13258800D02*
D03*
X6616700Y9398000D02*
D03*
X8724900Y9906000D02*
D03*
Y7112000D02*
D03*
D90*
X12065000Y13004800D02*
D03*
Y12750800D02*
D03*
X12382500Y13258800D02*
D03*
Y13004800D02*
D03*
Y12750800D02*
D03*
X6616700Y10160000D02*
D03*
Y9906000D02*
D03*
Y9652000D02*
D03*
Y9144000D02*
D03*
Y8890000D02*
D03*
Y8636000D02*
D03*
Y8382000D02*
D03*
Y8128000D02*
D03*
Y7874000D02*
D03*
Y7620000D02*
D03*
Y7366000D02*
D03*
Y7112000D02*
D03*
Y6858000D02*
D03*
Y6604000D02*
D03*
X8724900Y10160000D02*
D03*
Y9652000D02*
D03*
Y9398000D02*
D03*
Y9144000D02*
D03*
Y8890000D02*
D03*
Y8636000D02*
D03*
Y8382000D02*
D03*
Y8128000D02*
D03*
Y7874000D02*
D03*
Y7620000D02*
D03*
Y7366000D02*
D03*
Y6858000D02*
D03*
Y6604000D02*
D03*
D91*
X8674100Y12090400D02*
D03*
D92*
X18572803Y11467148D02*
D03*
Y11217148D02*
D03*
Y10967148D02*
D03*
Y10717148D02*
D03*
Y10467148D02*
D03*
Y10217148D02*
D03*
X18822803Y10967148D02*
D03*
Y10217148D02*
D03*
X18572803Y13511848D02*
D03*
Y13261848D02*
D03*
Y13011848D02*
D03*
Y12761848D02*
D03*
Y12511848D02*
D03*
Y12261848D02*
D03*
Y12011848D02*
D03*
X18572800Y9422449D02*
D03*
Y9172449D02*
D03*
Y8922449D02*
D03*
Y8672449D02*
D03*
Y8422449D02*
D03*
Y8172449D02*
D03*
Y7922449D02*
D03*
Y7377749D02*
D03*
Y7127749D02*
D03*
Y6877749D02*
D03*
Y6627749D02*
D03*
Y6377749D02*
D03*
Y6127749D02*
D03*
Y5877749D02*
D03*
D93*
X19545302Y9962148D02*
D03*
Y11459648D02*
D03*
Y12006848D02*
D03*
Y13504349D02*
D03*
X19545300Y7917449D02*
D03*
Y9414949D02*
D03*
Y5872749D02*
D03*
Y7370249D02*
D03*
D94*
X8432800Y10160000D02*
D03*
Y9652000D02*
D03*
Y9398000D02*
D03*
Y9144000D02*
D03*
Y8890000D02*
D03*
Y8636000D02*
D03*
Y8382000D02*
D03*
Y8128000D02*
D03*
Y7874000D02*
D03*
Y7620000D02*
D03*
Y7366000D02*
D03*
Y6858000D02*
D03*
Y6604000D02*
D03*
X6908800D02*
D03*
Y6858000D02*
D03*
Y7112000D02*
D03*
Y7366000D02*
D03*
Y7620000D02*
D03*
Y7874000D02*
D03*
Y8128000D02*
D03*
Y8382000D02*
D03*
Y8636000D02*
D03*
Y8890000D02*
D03*
Y9144000D02*
D03*
Y9652000D02*
D03*
Y9906000D02*
D03*
Y10160000D02*
D03*
D95*
X8432800Y9906000D02*
D03*
Y7112000D02*
D03*
X6908800Y9398000D02*
D03*
D96*
X6858000Y13525500D02*
D03*
Y5778500D02*
D03*
X17843500Y13525500D02*
D03*
X17602200Y5778500D02*
D03*
X18021300Y10160000D02*
D03*
X18135600Y8293100D02*
D03*
X9461500Y5778500D02*
D03*
D97*
X13358000Y8963900D02*
D03*
Y9163900D02*
D03*
X11988000Y8913900D02*
D03*
Y9113900D02*
D03*
X9479900Y11151400D02*
D03*
X9279900D02*
D03*
X9529900Y8581400D02*
D03*
X9329900D02*
D03*
D98*
X6725369Y11120947D02*
D03*
X15125700Y13106400D02*
D03*
D99*
X11493500Y8115300D02*
D03*
X10420350Y8064500D02*
D03*
X7848600Y7558000D02*
D03*
X17055943Y5984100D02*
D03*
X14935201Y8166100D02*
D03*
X11520011Y7533500D02*
D03*
X17055943Y8193900D02*
D03*
X11493500Y6045200D02*
D03*
Y6362700D02*
D03*
X11520011Y6644500D02*
D03*
X11492120Y7809120D02*
D03*
X10717611Y7597000D02*
D03*
X17276169Y6009100D02*
D03*
X17276169Y8168900D02*
D03*
X14935201Y6311900D02*
D03*
X14950044Y6581000D02*
D03*
Y7597000D02*
D03*
X14935043Y7874725D02*
D03*
X10722461Y6581000D02*
D03*
X13614482Y7195489D02*
D03*
X13843082Y7195489D02*
D03*
X13840541Y6982511D02*
D03*
X13611942Y6982511D02*
D03*
X11117711Y7438250D02*
D03*
X11044561Y6638550D02*
D03*
X11035111Y7165200D02*
D03*
X11039961Y7012800D02*
D03*
X11117711Y6739750D02*
D03*
X13665199Y9943621D02*
D03*
X14204794Y7349300D02*
D03*
X14338144Y6695300D02*
D03*
X14520743Y6542900D02*
D03*
X14518243Y6694975D02*
D03*
X14503244Y7000100D02*
D03*
X14520743Y7152500D02*
D03*
X14515894Y7304900D02*
D03*
X14503244Y7609700D02*
D03*
X13813290Y8674049D02*
D03*
X14130791D02*
D03*
X12649200Y13081000D02*
D03*
X12640850Y12696325D02*
D03*
X14160500Y12700000D02*
D03*
Y13068300D02*
D03*
Y12325350D02*
D03*
X15521672Y10105948D02*
D03*
X14908200Y12291813D02*
D03*
X18135600Y13258800D02*
D03*
X10657848Y9295900D02*
D03*
X18134052Y11252700D02*
D03*
X14617700Y13201649D02*
D03*
X17110193Y13070532D02*
D03*
X17107375Y12698236D02*
D03*
X14295529Y12515850D02*
D03*
X15502705D02*
D03*
X17107375Y12325350D02*
D03*
X16922365Y12512227D02*
D03*
X15571851Y12695696D02*
D03*
X15509798Y10414500D02*
D03*
X8075547Y5677540D02*
D03*
X7416800Y5930900D02*
D03*
X7778252Y5945106D02*
D03*
X15571851Y13065173D02*
D03*
X16817336Y9145770D02*
D03*
Y9463270D02*
D03*
Y9780770D02*
D03*
Y10098270D02*
D03*
Y10415770D02*
D03*
X15531889Y9143230D02*
D03*
Y9460730D02*
D03*
Y9778230D02*
D03*
X14375790Y10190857D02*
D03*
X13810750Y9943621D02*
D03*
X14128250D02*
D03*
X13743462Y10098270D02*
D03*
Y10415770D02*
D03*
X12473889Y9778230D02*
D03*
Y10095730D02*
D03*
Y10413230D02*
D03*
X9677400Y6489700D02*
D03*
X12017000Y11240538D02*
D03*
X7663700Y7754100D02*
D03*
X7652500Y7373100D02*
D03*
X7467600Y7569200D02*
D03*
X7658100Y7563600D02*
D03*
X16922365Y12881705D02*
D03*
D100*
X10033000Y7213600D02*
D03*
X10401300Y6527800D02*
D03*
X12890500Y7772400D02*
D03*
X8255000Y8559800D02*
D03*
X8267700Y8331200D02*
D03*
X11118034Y8126574D02*
D03*
X8166100Y9004300D02*
D03*
X11047811Y6478228D02*
D03*
X15138400Y11849100D02*
D03*
X12128500Y11811000D02*
D03*
X12065000Y11887200D02*
D03*
X9017000Y9169400D02*
D03*
X10730230Y8205470D02*
D03*
X11301811Y6517500D02*
D03*
X11098611Y7584300D02*
D03*
X11483333Y6800622D02*
D03*
X9170479Y6592207D02*
D03*
X12314378Y8805722D02*
D03*
X12395200Y8724900D02*
D03*
X10152000Y8369300D02*
D03*
X10363200Y8540750D02*
D03*
X15100143Y7444600D02*
D03*
X14763594Y7982726D02*
D03*
X14623894D02*
D03*
X10033000Y7797800D02*
D03*
X7175500Y8166100D02*
D03*
X9318656Y6770378D02*
D03*
X14896944Y6771500D02*
D03*
X16624144Y7089000D02*
D03*
X14503244Y7762100D02*
D03*
X9613900Y7747000D02*
D03*
X9609159Y7884352D02*
D03*
X8156301Y10073407D02*
D03*
X10152000Y8786791D02*
D03*
X9836150Y8096250D02*
D03*
X12890500Y8559800D02*
D03*
X13525500Y13068300D02*
D03*
X13309599D02*
D03*
X13525500Y12698865D02*
D03*
X13309599D02*
D03*
X13525500Y12325350D02*
D03*
X13309599D02*
D03*
X9791700Y12228336D02*
D03*
X10983736D02*
D03*
X10795000Y12573000D02*
D03*
X9639300D02*
D03*
X9309100Y6654800D02*
D03*
X15563982Y12209263D02*
D03*
X16472375Y12325350D02*
D03*
X12688534Y12347121D02*
D03*
X16256474Y12325350D02*
D03*
X17614900Y12979401D02*
D03*
X11810398Y12420600D02*
D03*
X14661018Y12714100D02*
D03*
X8953500Y6692900D02*
D03*
X9829800Y8737600D02*
D03*
X12293600Y10756900D02*
D03*
X15343201Y10754676D02*
D03*
X15159425Y12714100D02*
D03*
X16256474Y13067628D02*
D03*
X16472375D02*
D03*
Y12698193D02*
D03*
X16256474D02*
D03*
X12623800Y12128500D02*
D03*
X14594299Y12092400D02*
D03*
X7035800Y10896600D02*
D03*
X7340600Y11163300D02*
D03*
X17513300Y12979401D02*
D03*
X17614900Y12877800D02*
D03*
X17513300D02*
D03*
D101*
X8077200Y6591300D02*
D03*
X7505700Y7010400D02*
D03*
D102*
X16586200Y5651500D02*
D03*
X15813000Y5829300D02*
D03*
Y6057900D02*
D03*
X15698700Y5943600D02*
D03*
X12371300Y5880100D02*
D03*
X12257000Y5994400D02*
D03*
X12371300Y6108700D02*
D03*
X15897701Y8405437D02*
D03*
X15783400Y8291137D02*
D03*
X15897701Y8176837D02*
D03*
X12446000Y8102600D02*
D03*
X12331700Y8216900D02*
D03*
X12446000Y8331200D02*
D03*
X13562411Y8105000D02*
D03*
X13791011D02*
D03*
X13562411Y6073000D02*
D03*
X13448111Y6187300D02*
D03*
X13676711D02*
D03*
X13448111Y7990700D02*
D03*
X13676711D02*
D03*
X13791011Y6073000D02*
D03*
X17271844Y7203300D02*
D03*
Y6974700D02*
D03*
X17157544Y7089000D02*
D03*
X17043243Y7203300D02*
D03*
Y6974700D02*
D03*
X13995399Y8559800D02*
D03*
X10477500Y13665199D02*
D03*
Y13106400D02*
D03*
Y13385800D02*
D03*
Y12827000D02*
D03*
X14401801Y9296400D02*
D03*
X11671300Y12814301D02*
D03*
X14899863Y9296400D02*
D03*
Y8864600D02*
D03*
X16192500Y8890000D02*
D03*
Y8712200D02*
D03*
X16179800Y9779000D02*
D03*
Y9461500D02*
D03*
Y10096500D02*
D03*
X13970000Y9296400D02*
D03*
X11671300Y13373100D02*
D03*
Y13093700D02*
D03*
Y13652499D02*
D03*
X11836400Y12814301D02*
D03*
Y13652499D02*
D03*
Y13373100D02*
D03*
Y13093700D02*
D03*
D103*
X11771711Y7184000D02*
D03*
Y7089000D02*
D03*
Y6994000D02*
D03*
X15214444Y7184000D02*
D03*
Y7089000D02*
D03*
Y6994000D02*
D03*
D104*
X10337800Y12014200D02*
D03*
X11150600D02*
D03*
X11493500D02*
D03*
Y12357100D02*
D03*
X10337800D02*
D03*
X10020300Y11620500D02*
D03*
X10363200D02*
D03*
X9677400Y11379200D02*
D03*
Y11849100D02*
D03*
X9829800Y11620500D02*
D03*
X8686800Y11303000D02*
D03*
X8839200D02*
D03*
X8991600D02*
D03*
X8610600Y11163300D02*
D03*
X8763000D02*
D03*
X8915400D02*
D03*
X8763000Y10883900D02*
D03*
X8839200Y11023600D02*
D03*
X8915400Y10883900D02*
D03*
X8610600D02*
D03*
X8686800Y11023600D02*
D03*
X8991600D02*
D03*
X8763000Y10604500D02*
D03*
X8610600D02*
D03*
X8915400D02*
D03*
X8686800Y10744200D02*
D03*
X8991600D02*
D03*
X8839200D02*
D03*
%TF.MD5,263ed9871a399de226c55423e6c786cc*%
M02*
