%TF.GenerationSoftware,Altium Limited,Altium Designer,24.1.2 (44)*%
G04 Layer_Color=16711935*
%FSLAX45Y45*%
%MOMM*%
%TF.SameCoordinates,12E9634C-A8E6-484A-B1C3-FEDB1742B245*%
%TF.FilePolarity,Negative*%
%TF.FileFunction,Soldermask,Bot*%
%TF.Part,Single*%
G01*
G75*
%TA.AperFunction,ComponentPad*%
%ADD78C,1.30000*%
%TA.AperFunction,ViaPad*%
%ADD86C,0.50000*%
%TA.AperFunction,SMDPad,CuDef*%
%ADD108R,1.01213X1.33108*%
%ADD109R,0.80650X1.30822*%
%ADD110R,0.57000X1.40000*%
%ADD111C,1.80000*%
%ADD133R,1.16840X0.86360*%
%ADD138R,1.45320X1.30320*%
%ADD141R,1.05320X0.95320*%
%ADD143R,1.00320X1.15320*%
%ADD146R,0.95320X1.05320*%
%ADD148R,0.90320X1.10320*%
%TA.AperFunction,ComponentPad*%
%ADD149R,1.75320X1.75320*%
%ADD150C,1.75320*%
%ADD151C,9.70320*%
%ADD152C,1.76320*%
%ADD153C,2.30320*%
%ADD154R,1.57320X1.57320*%
%ADD155C,1.57320*%
%ADD156C,2.00320*%
%ADD157R,2.00320X2.00320*%
%ADD158C,6.30320*%
%ADD159C,2.23520*%
%TA.AperFunction,TestPad*%
%ADD160C,2.23520*%
%TA.AperFunction,ViaPad*%
%ADD161C,1.09220*%
%ADD162C,0.83820*%
%ADD163C,1.47320*%
%ADD164C,1.34620*%
%ADD165C,0.96520*%
%ADD166C,0.91440*%
%TA.AperFunction,SMDPad,CuDef*%
%ADD167R,1.00320X1.10320*%
%ADD168R,1.05320X1.55320*%
%ADD169R,1.15320X3.70320*%
%ADD170R,10.55320X9.20320*%
G36*
X14939101Y12661600D02*
X15006599Y12594100D01*
X15006599Y12369100D01*
Y12365122D01*
X15003555Y12357771D01*
X14997929Y12352145D01*
X14990578Y12349100D01*
X14822623D01*
X14815271Y12352145D01*
X14809645Y12357771D01*
X14806599Y12365122D01*
Y12369100D01*
Y12594100D01*
X14874100Y12661600D01*
Y12784100D01*
X14939101D01*
Y12661600D01*
D02*
G37*
D78*
X13358000Y8963900D02*
D03*
Y9163900D02*
D03*
X11988000Y8913900D02*
D03*
Y9113900D02*
D03*
X9479900Y11151400D02*
D03*
X9279900D02*
D03*
X9529900Y8581400D02*
D03*
X9329900D02*
D03*
D86*
X11771711Y7184000D02*
D03*
Y7089000D02*
D03*
Y6994000D02*
D03*
X15214444Y7184000D02*
D03*
Y7089000D02*
D03*
Y6994000D02*
D03*
D108*
X7912100Y6258952D02*
D03*
Y6110848D02*
D03*
X15297600Y12530648D02*
D03*
Y12678752D02*
D03*
D109*
X9835514Y8396926D02*
D03*
X10005686D02*
D03*
X9833614Y8600126D02*
D03*
X10003786D02*
D03*
X9832994Y9144000D02*
D03*
X10003165D02*
D03*
X9832994Y6819900D02*
D03*
X10003165D02*
D03*
X9832994Y7035800D02*
D03*
X10003165D02*
D03*
X9832994Y8928100D02*
D03*
X10003165D02*
D03*
X9832994Y7988300D02*
D03*
X10003165D02*
D03*
X9832994Y8204200D02*
D03*
X10003165D02*
D03*
X9832994Y7620000D02*
D03*
X10003165D02*
D03*
X9832994Y7404100D02*
D03*
X10003165D02*
D03*
D110*
X14756599Y12714100D02*
D03*
X15056599D02*
D03*
D111*
X14906599Y12484100D02*
D03*
D133*
X10985500Y12528550D02*
D03*
Y12388850D02*
D03*
X9639300Y12426950D02*
D03*
Y12287250D02*
D03*
X7404100Y6089650D02*
D03*
Y6229350D02*
D03*
X14516100Y12541250D02*
D03*
Y12680950D02*
D03*
D138*
X7629500Y5676900D02*
D03*
X7864500D02*
D03*
D141*
X18288000Y12320000D02*
D03*
Y12445000D02*
D03*
Y12889500D02*
D03*
Y12764500D02*
D03*
D143*
X7580400Y9169400D02*
D03*
X7710400D02*
D03*
X7123700Y11125200D02*
D03*
X6998700D02*
D03*
D146*
X18250900Y5877749D02*
D03*
X18375900D02*
D03*
Y13512801D02*
D03*
X18250900D02*
D03*
X18375900Y13261848D02*
D03*
X18250900D02*
D03*
X18375900Y6883400D02*
D03*
X18250900D02*
D03*
Y7378700D02*
D03*
X18375900D02*
D03*
X18250900Y11252200D02*
D03*
X18375900D02*
D03*
D148*
X7448700Y5676900D02*
D03*
X7308700D02*
D03*
D149*
X12065000Y13258800D02*
D03*
X12382500D02*
D03*
D150*
X12065000Y13004800D02*
D03*
Y12750800D02*
D03*
X12382500Y13004800D02*
D03*
Y12750800D02*
D03*
D151*
X8674100Y13208000D02*
D03*
Y12090400D02*
D03*
D152*
X18572803Y11467148D02*
D03*
Y11217148D02*
D03*
Y10967148D02*
D03*
Y10717148D02*
D03*
Y10467148D02*
D03*
Y10217148D02*
D03*
Y9967148D02*
D03*
X18822803Y11467148D02*
D03*
Y11217148D02*
D03*
Y10967148D02*
D03*
Y10717148D02*
D03*
Y10467148D02*
D03*
Y10217148D02*
D03*
Y9967148D02*
D03*
X18572803Y13511848D02*
D03*
Y13261848D02*
D03*
Y13011848D02*
D03*
Y12761848D02*
D03*
Y12511848D02*
D03*
Y12261848D02*
D03*
Y12011848D02*
D03*
X18822803Y13511848D02*
D03*
Y13261848D02*
D03*
Y13011848D02*
D03*
Y12761848D02*
D03*
Y12511848D02*
D03*
Y12261848D02*
D03*
Y12011848D02*
D03*
X18572800Y9422449D02*
D03*
Y9172449D02*
D03*
Y8922449D02*
D03*
Y8672449D02*
D03*
Y8422449D02*
D03*
Y8172449D02*
D03*
Y7922449D02*
D03*
X18822800Y9422449D02*
D03*
Y9172449D02*
D03*
Y8922449D02*
D03*
Y8672449D02*
D03*
Y8422449D02*
D03*
Y8172449D02*
D03*
Y7922449D02*
D03*
X18572800Y7377749D02*
D03*
Y7127749D02*
D03*
Y6877749D02*
D03*
Y6627749D02*
D03*
Y6377749D02*
D03*
Y6127749D02*
D03*
Y5877749D02*
D03*
X18822800Y7377749D02*
D03*
Y7127749D02*
D03*
Y6877749D02*
D03*
Y6627749D02*
D03*
Y6377749D02*
D03*
Y6127749D02*
D03*
Y5877749D02*
D03*
D153*
X19545302Y9962148D02*
D03*
Y11459648D02*
D03*
Y12006848D02*
D03*
Y13504349D02*
D03*
X19545300Y7917449D02*
D03*
Y9414949D02*
D03*
Y5872749D02*
D03*
Y7370249D02*
D03*
D154*
X6616700Y10160000D02*
D03*
X8724900D02*
D03*
D155*
X6616700Y9906000D02*
D03*
Y9652000D02*
D03*
Y9398000D02*
D03*
Y9144000D02*
D03*
Y8890000D02*
D03*
Y8636000D02*
D03*
Y8382000D02*
D03*
Y8128000D02*
D03*
Y7874000D02*
D03*
Y7620000D02*
D03*
Y7366000D02*
D03*
Y7112000D02*
D03*
Y6858000D02*
D03*
Y6604000D02*
D03*
X8724900Y9906000D02*
D03*
Y9652000D02*
D03*
Y9398000D02*
D03*
Y9144000D02*
D03*
Y8890000D02*
D03*
Y8636000D02*
D03*
Y8382000D02*
D03*
Y8128000D02*
D03*
Y7874000D02*
D03*
Y7620000D02*
D03*
Y7366000D02*
D03*
Y7112000D02*
D03*
Y6858000D02*
D03*
Y6604000D02*
D03*
D156*
X8432800Y10160000D02*
D03*
Y9906000D02*
D03*
Y9652000D02*
D03*
Y9398000D02*
D03*
Y9144000D02*
D03*
Y8890000D02*
D03*
Y8636000D02*
D03*
Y8382000D02*
D03*
Y8128000D02*
D03*
Y7874000D02*
D03*
Y7620000D02*
D03*
Y7366000D02*
D03*
Y7112000D02*
D03*
Y6858000D02*
D03*
Y6604000D02*
D03*
X6908800D02*
D03*
Y6858000D02*
D03*
Y7112000D02*
D03*
Y7366000D02*
D03*
Y7620000D02*
D03*
Y7874000D02*
D03*
Y8128000D02*
D03*
Y8382000D02*
D03*
Y8636000D02*
D03*
Y8890000D02*
D03*
Y9144000D02*
D03*
Y9398000D02*
D03*
Y9652000D02*
D03*
Y9906000D02*
D03*
D157*
Y10160000D02*
D03*
D158*
X6858000Y13525500D02*
D03*
Y5778500D02*
D03*
X17843500Y13525500D02*
D03*
X17602200Y5778500D02*
D03*
X18021300Y10160000D02*
D03*
X18135600Y8293100D02*
D03*
X9461500Y5778500D02*
D03*
D159*
X6725369Y11120947D02*
D03*
X15125700Y13106400D02*
D03*
X8216900Y5867400D02*
D03*
X8483600D02*
D03*
D160*
X7543800Y12382500D02*
D03*
Y12065000D02*
D03*
Y12700000D02*
D03*
Y11430000D02*
D03*
Y13017500D02*
D03*
Y11747500D02*
D03*
D161*
X11493500Y8115300D02*
D03*
X10420350Y8064500D02*
D03*
X10033000Y7213600D02*
D03*
X10401300Y6527800D02*
D03*
X12890500Y7772400D02*
D03*
X7848600Y7558000D02*
D03*
X11047811Y6478228D02*
D03*
X12268200Y11887200D02*
D03*
X17055943Y5984100D02*
D03*
X14935201Y8166100D02*
D03*
X11520011Y7533500D02*
D03*
X10730230Y8205470D02*
D03*
X17055943Y8193900D02*
D03*
X11493500Y6045200D02*
D03*
Y6362700D02*
D03*
X11520011Y6644500D02*
D03*
X11492120Y7809120D02*
D03*
X10717611Y7597000D02*
D03*
X17276169Y6009100D02*
D03*
X17276169Y8168900D02*
D03*
X14935201Y6311900D02*
D03*
X14950044Y6581000D02*
D03*
Y7597000D02*
D03*
X14935043Y7874725D02*
D03*
X10722461Y6581000D02*
D03*
X13614482Y7195489D02*
D03*
X13843082Y7195489D02*
D03*
X13840541Y6982511D02*
D03*
X13611942Y6982511D02*
D03*
X11301811Y6517500D02*
D03*
X11117711Y7438250D02*
D03*
X11098611Y7584300D02*
D03*
X11483333Y6800622D02*
D03*
X11044561Y6638550D02*
D03*
X11035111Y7165200D02*
D03*
X11039961Y7012800D02*
D03*
X11117711Y6739750D02*
D03*
X12314378Y8805722D02*
D03*
X12395200Y8724900D02*
D03*
X10152000Y8369300D02*
D03*
X10363200Y8540750D02*
D03*
X13665199Y9943621D02*
D03*
X15100143Y7444600D02*
D03*
X14763594Y7982726D02*
D03*
X14623894D02*
D03*
X10033000Y7797800D02*
D03*
X9318656Y6770378D02*
D03*
X14896944Y6771500D02*
D03*
X16624144Y7089000D02*
D03*
X14503244Y7762100D02*
D03*
X14204794Y7349300D02*
D03*
X14338144Y6695300D02*
D03*
X14520743Y6542900D02*
D03*
X14518243Y6694975D02*
D03*
X14503244Y7000100D02*
D03*
X14520743Y7152500D02*
D03*
X14515894Y7304900D02*
D03*
X14503244Y7609700D02*
D03*
X9613900Y7747000D02*
D03*
X9609159Y7884352D02*
D03*
X8156301Y10073407D02*
D03*
X10152000Y8786791D02*
D03*
X13813290Y8674049D02*
D03*
X14130791D02*
D03*
X9836150Y8096250D02*
D03*
X13525500Y13068300D02*
D03*
X12649200Y13081000D02*
D03*
X13309599Y13068300D02*
D03*
X13525500Y12698865D02*
D03*
X13309599D02*
D03*
X12640850Y12696325D02*
D03*
X14160500Y12700000D02*
D03*
Y13068300D02*
D03*
X13525500Y12325350D02*
D03*
X13309599D02*
D03*
X14160500D02*
D03*
X9791700Y12228336D02*
D03*
X10983736D02*
D03*
X10795000Y12573000D02*
D03*
X9639300D02*
D03*
X15521672Y10105948D02*
D03*
X14908200Y12291813D02*
D03*
X14617700Y13201649D02*
D03*
X17110193Y13070532D02*
D03*
X17107375Y12698236D02*
D03*
X15563982Y12209263D02*
D03*
X16472375Y12325350D02*
D03*
X14295529Y12515850D02*
D03*
X15502705D02*
D03*
X17107375Y12325350D02*
D03*
X12688534Y12347121D02*
D03*
X16256474Y12325350D02*
D03*
X15571851Y12695696D02*
D03*
X15509798Y10414500D02*
D03*
X8075547Y5677540D02*
D03*
X7416800Y5930900D02*
D03*
X7778252Y5945106D02*
D03*
X15571851Y13065173D02*
D03*
X16817336Y9145770D02*
D03*
Y9463270D02*
D03*
Y9780770D02*
D03*
Y10098270D02*
D03*
Y10415770D02*
D03*
X15531889Y9143230D02*
D03*
Y9460730D02*
D03*
Y9778230D02*
D03*
X14375790Y10190857D02*
D03*
X13810750Y9943621D02*
D03*
X14128250D02*
D03*
X13743462Y10098270D02*
D03*
Y10415770D02*
D03*
X12473889Y9778230D02*
D03*
Y10095730D02*
D03*
Y10413230D02*
D03*
X17614900Y12979401D02*
D03*
X14661018Y12714100D02*
D03*
X9829800Y8737600D02*
D03*
X12017000Y11240538D02*
D03*
X15051674D02*
D03*
X15341600Y11887200D02*
D03*
X15159425Y12714100D02*
D03*
X7663700Y7754100D02*
D03*
X7652500Y7373100D02*
D03*
X7467600Y7569200D02*
D03*
X7658100Y7563600D02*
D03*
X16256474Y13067628D02*
D03*
X16472375D02*
D03*
Y12698193D02*
D03*
X16256474D02*
D03*
X7035800Y10896600D02*
D03*
X7340600Y11163300D02*
D03*
X17513300Y12979401D02*
D03*
X17614900Y12877800D02*
D03*
X17513300D02*
D03*
D162*
X8255000Y8559800D02*
D03*
X8267700Y8331200D02*
D03*
X11118034Y8126574D02*
D03*
X8166100Y9004300D02*
D03*
X15138400Y11849100D02*
D03*
X12128500Y11811000D02*
D03*
X12065000Y11887200D02*
D03*
X9017000Y9169400D02*
D03*
X9170479Y6592207D02*
D03*
X12890500Y8559800D02*
D03*
X15796100Y11590020D02*
D03*
X15596100Y11890020D02*
D03*
Y11590020D02*
D03*
Y11290020D02*
D03*
X15796100Y11890020D02*
D03*
Y11290020D02*
D03*
X12738100D02*
D03*
Y11890020D02*
D03*
X12538100Y11290020D02*
D03*
Y11590020D02*
D03*
Y11890020D02*
D03*
X12738100Y11590020D02*
D03*
X9309100Y6654800D02*
D03*
X16922365Y12512227D02*
D03*
X11810398Y12420600D02*
D03*
X8953500Y6692900D02*
D03*
X9677400Y6489700D02*
D03*
X12293600Y10756900D02*
D03*
X15343201Y10754676D02*
D03*
X16922365Y12881705D02*
D03*
X15845799Y10846300D02*
D03*
X15642599D02*
D03*
X15923100Y11239500D02*
D03*
Y11531600D02*
D03*
Y11633200D02*
D03*
Y11734800D02*
D03*
Y11836400D02*
D03*
Y11938000D02*
D03*
X15342368Y11439393D02*
D03*
X12865100Y11239500D02*
D03*
Y11531600D02*
D03*
Y11633200D02*
D03*
Y11734800D02*
D03*
Y11836400D02*
D03*
Y11938000D02*
D03*
X12623800Y12128500D02*
D03*
X14594299Y12092400D02*
D03*
X12584600Y10846300D02*
D03*
X12787800D02*
D03*
X12284367Y11439393D02*
D03*
D163*
X8077200Y6591300D02*
D03*
X7505700Y7010400D02*
D03*
D164*
X16586200Y5651500D02*
D03*
X15813000Y5829300D02*
D03*
Y6057900D02*
D03*
X15698700Y5943600D02*
D03*
X12371300Y5880100D02*
D03*
X12257000Y5994400D02*
D03*
X12371300Y6108700D02*
D03*
X15897701Y8405437D02*
D03*
X15783400Y8291137D02*
D03*
X15897701Y8176837D02*
D03*
X12446000Y8102600D02*
D03*
X12331700Y8216900D02*
D03*
X12446000Y8331200D02*
D03*
X13562411Y8105000D02*
D03*
X13791011D02*
D03*
X13562411Y6073000D02*
D03*
X13448111Y6187300D02*
D03*
X13676711D02*
D03*
X13448111Y7990700D02*
D03*
X13676711D02*
D03*
X13791011Y6073000D02*
D03*
X17271844Y7203300D02*
D03*
Y6974700D02*
D03*
X17157544Y7089000D02*
D03*
X17043243Y7203300D02*
D03*
Y6974700D02*
D03*
X9944100Y9664700D02*
D03*
X10020300Y9525000D02*
D03*
X10096500Y9664700D02*
D03*
X9867900Y9525000D02*
D03*
X9791700Y9664700D02*
D03*
X9715500Y9525000D02*
D03*
X9029700Y9512300D02*
D03*
X13995399Y8559800D02*
D03*
X10337800Y12014200D02*
D03*
X11150600D02*
D03*
X11493500D02*
D03*
Y12357100D02*
D03*
X10477500Y13665199D02*
D03*
Y13106400D02*
D03*
Y13385800D02*
D03*
Y12827000D02*
D03*
X10337800Y12357100D02*
D03*
X10020300Y11620500D02*
D03*
X10363200D02*
D03*
X9677400Y11379200D02*
D03*
Y11849100D02*
D03*
X9829800Y11620500D02*
D03*
X9029700Y9791700D02*
D03*
X10464800Y10756900D02*
D03*
X10617200D02*
D03*
X10312400D02*
D03*
X10541000Y10617200D02*
D03*
X10236200D02*
D03*
X10388600D02*
D03*
X10236200Y10896600D02*
D03*
X10541000D02*
D03*
X10388600D02*
D03*
X9715500Y9804400D02*
D03*
X10020300D02*
D03*
X9867900D02*
D03*
X14401801Y9296400D02*
D03*
X11671300Y12814301D02*
D03*
X8686800Y11303000D02*
D03*
X8839200D02*
D03*
X8991600D02*
D03*
X8610600Y11163300D02*
D03*
X8763000D02*
D03*
X8915400D02*
D03*
X8763000Y10883900D02*
D03*
X8839200Y11023600D02*
D03*
X8915400Y10883900D02*
D03*
X8610600D02*
D03*
X8686800Y11023600D02*
D03*
X8991600D02*
D03*
X8763000Y10604500D02*
D03*
X8610600D02*
D03*
X8915400D02*
D03*
X8686800Y10744200D02*
D03*
X8991600D02*
D03*
X8839200D02*
D03*
X14899863Y9296400D02*
D03*
Y8864600D02*
D03*
X16192500Y8890000D02*
D03*
Y8712200D02*
D03*
X16179800Y9779000D02*
D03*
Y9461500D02*
D03*
Y10096500D02*
D03*
X13970000Y9296400D02*
D03*
X11671300Y13373100D02*
D03*
Y13093700D02*
D03*
Y13652499D02*
D03*
X11836400Y12814301D02*
D03*
Y13652499D02*
D03*
Y13373100D02*
D03*
Y13093700D02*
D03*
D165*
X18251401Y5994597D02*
D03*
X18135600Y13258800D02*
D03*
X18414999Y12890500D02*
D03*
X18275301Y12128500D02*
D03*
X10657848Y9295900D02*
D03*
X18134052Y11252700D02*
D03*
X18250400Y7261852D02*
D03*
Y6766552D02*
D03*
X18328648Y9626100D02*
D03*
X18250400Y13395952D02*
D03*
D166*
X7175500Y8166100D02*
D03*
D167*
X7277100Y9371000D02*
D03*
X7182100Y9171000D02*
D03*
X7372100D02*
D03*
D168*
X10407600Y8204200D02*
D03*
X10242600D02*
D03*
D169*
X7912100Y6588600D02*
D03*
X7404100D02*
D03*
D170*
X7658100Y7563600D02*
D03*
%TF.MD5,cd2eb42e5e88cf0ad70ecd8b7cc7b50b*%
M02*
