%TF.GenerationSoftware,Altium Limited,Altium Designer,23.6.0 (18)*%
G04 Layer_Color=16711935*
%FSLAX45Y45*%
%MOMM*%
%TF.SameCoordinates,DACBD49B-6CD5-42DE-81B8-5418E1F3F2F4*%
%TF.FilePolarity,Negative*%
%TF.FileFunction,Soldermask,Bot*%
%TF.Part,Single*%
G01*
G75*
%TA.AperFunction,ComponentPad*%
%ADD65C,1.30000*%
%TA.AperFunction,SMDPad,CuDef*%
%ADD105R,1.20620X0.95620*%
%ADD106R,1.01213X1.33108*%
%ADD107R,0.80650X1.30822*%
%ADD109R,0.57000X1.40000*%
%ADD110C,1.80000*%
%ADD122R,1.05320X0.95320*%
%ADD123R,1.10320X0.90320*%
%ADD128R,1.00320X1.15320*%
%ADD138R,0.95320X1.05320*%
%ADD139R,1.45320X1.30320*%
%ADD144R,0.90320X1.10320*%
%TA.AperFunction,ComponentPad*%
%ADD148C,1.75320*%
%ADD149R,1.75320X1.75320*%
%ADD150R,1.75320X1.75320*%
%ADD151C,2.00320*%
%ADD152R,2.00320X2.00320*%
%ADD153C,6.30320*%
%ADD154C,2.30320*%
%ADD155C,1.76320*%
%ADD156R,1.57320X1.57320*%
%ADD157C,1.57320*%
%ADD158C,9.70320*%
%ADD159C,2.23520*%
%TA.AperFunction,TestPad*%
%ADD160C,2.23520*%
%TA.AperFunction,ViaPad*%
%ADD161C,0.96520*%
%ADD162C,1.09220*%
%ADD163C,0.83820*%
%ADD164C,1.34620*%
%ADD165C,1.47320*%
%TA.AperFunction,SMDPad,CuDef*%
%ADD166R,1.05320X1.55320*%
%ADD167R,1.15320X3.70320*%
%ADD168R,10.55320X9.20320*%
%ADD169R,1.00320X1.10320*%
%TA.AperFunction,ViaPad*%
%ADD170C,0.71120*%
G36*
X14939101Y12661600D02*
X15006599Y12594100D01*
X15006599Y12369100D01*
Y12365122D01*
X15003555Y12357771D01*
X14997929Y12352145D01*
X14990578Y12349100D01*
X14822623D01*
X14815271Y12352145D01*
X14809645Y12357771D01*
X14806599Y12365122D01*
Y12369100D01*
Y12594100D01*
X14874100Y12661600D01*
Y12784100D01*
X14939101D01*
Y12661600D01*
D02*
G37*
D65*
X13358000Y8963900D02*
D03*
Y9163900D02*
D03*
X11988000Y8913900D02*
D03*
Y9113900D02*
D03*
X9479900Y11151400D02*
D03*
X9279900D02*
D03*
X9529900Y8581400D02*
D03*
X9329900D02*
D03*
D105*
X7404100Y6072697D02*
D03*
Y6277697D02*
D03*
X14510201Y12707200D02*
D03*
Y12502200D02*
D03*
D106*
X7912100Y6258952D02*
D03*
Y6110848D02*
D03*
X15297600Y12530648D02*
D03*
Y12678752D02*
D03*
D107*
X9835514Y8396926D02*
D03*
X10005686D02*
D03*
X9833614Y8600126D02*
D03*
X10003786D02*
D03*
X9832994Y9144000D02*
D03*
X10003165D02*
D03*
X9832994Y6819900D02*
D03*
X10003165D02*
D03*
X9832994Y7035800D02*
D03*
X10003165D02*
D03*
X9832994Y8928100D02*
D03*
X10003165D02*
D03*
X9832994Y7988300D02*
D03*
X10003165D02*
D03*
X9832994Y8204200D02*
D03*
X10003165D02*
D03*
X9832994Y7620000D02*
D03*
X10003165D02*
D03*
X9832994Y7404100D02*
D03*
X10003165D02*
D03*
D109*
X14756599Y12714100D02*
D03*
X15056599D02*
D03*
D110*
X14906599Y12484100D02*
D03*
D122*
X18288000Y12457700D02*
D03*
Y12332700D02*
D03*
Y12764500D02*
D03*
Y12889500D02*
D03*
D123*
X11112500Y12096598D02*
D03*
Y12236597D02*
D03*
X9639300D02*
D03*
Y12096598D02*
D03*
D128*
X7580400Y9169400D02*
D03*
X7710400D02*
D03*
X7123700Y11125200D02*
D03*
X6998700D02*
D03*
D138*
X18375900Y5877749D02*
D03*
X18250900D02*
D03*
X18377637Y6880509D02*
D03*
X18252637D02*
D03*
X18375900Y7377749D02*
D03*
X18250900D02*
D03*
X18375900Y11252200D02*
D03*
X18250900D02*
D03*
X18375900Y13261848D02*
D03*
X18250900D02*
D03*
X18375900Y13512801D02*
D03*
X18250900D02*
D03*
D139*
X7629500Y5676900D02*
D03*
X7864500D02*
D03*
D144*
X7448700Y5676900D02*
D03*
X7308700D02*
D03*
D148*
X12268200Y13233400D02*
D03*
Y12979401D02*
D03*
Y13792200D02*
D03*
X12522200D02*
D03*
D149*
X12268200Y12725400D02*
D03*
D150*
X12776200Y13792200D02*
D03*
D151*
X8432800Y10160000D02*
D03*
Y9906000D02*
D03*
Y9652000D02*
D03*
Y9398000D02*
D03*
Y9144000D02*
D03*
Y8890000D02*
D03*
Y8636000D02*
D03*
Y8382000D02*
D03*
Y8128000D02*
D03*
Y7874000D02*
D03*
Y7620000D02*
D03*
Y7366000D02*
D03*
Y7112000D02*
D03*
Y6858000D02*
D03*
Y6604000D02*
D03*
X6908800D02*
D03*
Y6858000D02*
D03*
Y7112000D02*
D03*
Y7366000D02*
D03*
Y7620000D02*
D03*
Y7874000D02*
D03*
Y8128000D02*
D03*
Y8382000D02*
D03*
Y8636000D02*
D03*
Y8890000D02*
D03*
Y9144000D02*
D03*
Y9398000D02*
D03*
Y9652000D02*
D03*
Y9906000D02*
D03*
D152*
Y10160000D02*
D03*
D153*
X18135600Y8293100D02*
D03*
X6858000Y13525500D02*
D03*
Y5778500D02*
D03*
X17843500Y13525500D02*
D03*
X17602200Y5778500D02*
D03*
X18021300Y10160000D02*
D03*
X9461500Y5778500D02*
D03*
D154*
X19545300Y7370249D02*
D03*
Y5872749D02*
D03*
Y11459647D02*
D03*
Y9962149D02*
D03*
Y9414949D02*
D03*
Y7917449D02*
D03*
Y13504347D02*
D03*
Y12006849D02*
D03*
D155*
X18822800Y5877749D02*
D03*
Y6127749D02*
D03*
Y6377749D02*
D03*
Y6627749D02*
D03*
Y6877749D02*
D03*
Y7127749D02*
D03*
Y7377749D02*
D03*
X18572800Y5877749D02*
D03*
Y6127749D02*
D03*
Y6377749D02*
D03*
Y6627749D02*
D03*
Y6877749D02*
D03*
Y7127749D02*
D03*
Y7377749D02*
D03*
X18822803Y9967148D02*
D03*
Y10217150D02*
D03*
Y10467147D02*
D03*
Y10717149D02*
D03*
Y10967146D02*
D03*
Y11217148D02*
D03*
Y11467150D02*
D03*
X18572800Y9967148D02*
D03*
Y10217150D02*
D03*
Y10467147D02*
D03*
Y10717149D02*
D03*
Y10967146D02*
D03*
Y11217148D02*
D03*
Y11467150D02*
D03*
X18822800Y7922449D02*
D03*
Y8172449D02*
D03*
Y8422449D02*
D03*
Y8672449D02*
D03*
Y8922449D02*
D03*
Y9172449D02*
D03*
Y9422449D02*
D03*
X18572800Y7922449D02*
D03*
Y8172449D02*
D03*
Y8422449D02*
D03*
Y8672449D02*
D03*
Y8922449D02*
D03*
Y9172449D02*
D03*
Y9422449D02*
D03*
X18822803Y12011848D02*
D03*
Y12261850D02*
D03*
Y12511847D02*
D03*
Y12761849D02*
D03*
Y13011845D02*
D03*
Y13261848D02*
D03*
Y13511850D02*
D03*
X18572800Y12011848D02*
D03*
Y12261850D02*
D03*
Y12511847D02*
D03*
Y12761849D02*
D03*
Y13011845D02*
D03*
Y13261848D02*
D03*
Y13511850D02*
D03*
D156*
X6616700Y10160000D02*
D03*
X8724900D02*
D03*
D157*
X6616700Y9906000D02*
D03*
Y9652000D02*
D03*
Y9398000D02*
D03*
Y9144000D02*
D03*
Y8890000D02*
D03*
Y8636000D02*
D03*
Y8382000D02*
D03*
Y8128000D02*
D03*
Y7874000D02*
D03*
Y7620000D02*
D03*
Y7366000D02*
D03*
Y7112000D02*
D03*
Y6858000D02*
D03*
Y6604000D02*
D03*
X8724900Y9906000D02*
D03*
Y9652000D02*
D03*
Y9398000D02*
D03*
Y9144000D02*
D03*
Y8890000D02*
D03*
Y8636000D02*
D03*
Y8382000D02*
D03*
Y8128000D02*
D03*
Y7874000D02*
D03*
Y7620000D02*
D03*
Y7366000D02*
D03*
Y7112000D02*
D03*
Y6858000D02*
D03*
Y6604000D02*
D03*
D158*
X8674100Y12090400D02*
D03*
Y13208000D02*
D03*
D159*
X6725369Y11120947D02*
D03*
X15125700Y13106400D02*
D03*
X8216900Y5867400D02*
D03*
X8483600D02*
D03*
D160*
X7543800Y12382500D02*
D03*
Y12065000D02*
D03*
Y12700000D02*
D03*
Y11430000D02*
D03*
Y13017500D02*
D03*
Y11747500D02*
D03*
D161*
X18328648Y9626100D02*
D03*
X18287500Y12215852D02*
D03*
X18250400Y7260901D02*
D03*
X10645148Y9295900D02*
D03*
X18134052Y11252700D02*
D03*
X18251401Y5994597D02*
D03*
X18252138Y6763662D02*
D03*
X18288499Y13006348D02*
D03*
X18250400Y13395952D02*
D03*
X18249899Y13144501D02*
D03*
D162*
X9836150Y8096250D02*
D03*
X9613900Y7747000D02*
D03*
X9609159Y7884352D02*
D03*
X10152000Y8786791D02*
D03*
X14617700Y13201649D02*
D03*
X17110193Y13070532D02*
D03*
X17107375Y12698236D02*
D03*
X14554201Y7747000D02*
D03*
X14630400Y6883400D02*
D03*
X14428157Y7100257D02*
D03*
X15563982Y12209263D02*
D03*
X16472375Y12325350D02*
D03*
X14033501D02*
D03*
X13182600D02*
D03*
X14295529Y12515850D02*
D03*
X15502705D02*
D03*
X17107375Y12325350D02*
D03*
X13398500D02*
D03*
X12688534Y12347121D02*
D03*
X16256474Y12325350D02*
D03*
X15571851Y12695696D02*
D03*
X13671220Y7666695D02*
D03*
X13670200Y7223476D02*
D03*
X13672501Y7439376D02*
D03*
X15509798Y10435322D02*
D03*
X15521672Y10105948D02*
D03*
X8075547Y5677540D02*
D03*
X7416800Y5930900D02*
D03*
X7778252Y5945106D02*
D03*
X14130791Y8674049D02*
D03*
X13813290D02*
D03*
X10420350Y8064500D02*
D03*
X12598400Y8204200D02*
D03*
X13398500Y8479790D02*
D03*
X16118631Y6858000D02*
D03*
Y7099300D02*
D03*
Y7340600D02*
D03*
X16116330Y7556500D02*
D03*
X14198599Y7327900D02*
D03*
X17794026Y7457915D02*
D03*
X17578127D02*
D03*
X17094200Y6705600D02*
D03*
Y6934200D02*
D03*
X15806133Y8086100D02*
D03*
X15577531D02*
D03*
X15348932D02*
D03*
X15571851Y13065173D02*
D03*
X16817336Y9145770D02*
D03*
Y9463270D02*
D03*
Y9780770D02*
D03*
Y10098270D02*
D03*
Y10415770D02*
D03*
X15531889Y9143230D02*
D03*
Y9460730D02*
D03*
Y9778230D02*
D03*
X14375790Y10190857D02*
D03*
X13665199Y9943621D02*
D03*
X13810750D02*
D03*
X14128250D02*
D03*
X13743462Y10098270D02*
D03*
Y10415770D02*
D03*
X12473889Y9778230D02*
D03*
Y10095730D02*
D03*
Y10413230D02*
D03*
X12513850Y12696325D02*
D03*
Y13065759D02*
D03*
X14033501Y12700000D02*
D03*
Y13068300D02*
D03*
X14909801Y12280900D02*
D03*
X16814799Y8166100D02*
D03*
X15963901Y8318500D02*
D03*
X11734800D02*
D03*
X14655800Y7975600D02*
D03*
X14427200Y7797800D02*
D03*
X13398500Y7457915D02*
D03*
X12839700Y6718300D02*
D03*
Y6946900D02*
D03*
X17614900Y12979401D02*
D03*
X10363200Y8540750D02*
D03*
X10152000Y8369300D02*
D03*
X14661018Y12714100D02*
D03*
X9318656Y6770378D02*
D03*
X9829800Y8737600D02*
D03*
X10033000Y7213600D02*
D03*
X12017000Y11240538D02*
D03*
X15051674D02*
D03*
X12268200Y11887200D02*
D03*
X15341600D02*
D03*
X15159425Y12714100D02*
D03*
X7663700Y7754100D02*
D03*
X7652500Y7373100D02*
D03*
X7467600Y7569200D02*
D03*
X7848600Y7558000D02*
D03*
X7658100Y7563600D02*
D03*
X16256474Y13067628D02*
D03*
X16472375D02*
D03*
Y12698193D02*
D03*
X16256474D02*
D03*
X11633200Y12541250D02*
D03*
X13182600Y12698865D02*
D03*
X13398500D02*
D03*
Y13068300D02*
D03*
X13182600D02*
D03*
X9831566Y12047716D02*
D03*
X11569700Y10871200D02*
D03*
X11303000D02*
D03*
X11169650Y10807700D02*
D03*
X11036300Y10871200D02*
D03*
X11436350Y10807700D02*
D03*
X10963201Y12007850D02*
D03*
X9791700Y12230100D02*
D03*
X10960100D02*
D03*
X10033000Y7797800D02*
D03*
X7035800Y10896600D02*
D03*
X7340600Y11163300D02*
D03*
X17513300Y12979401D02*
D03*
X17614900Y12877800D02*
D03*
X17513300D02*
D03*
X11436350Y11061700D02*
D03*
Y10934700D02*
D03*
X11569700Y10998200D02*
D03*
Y11125200D02*
D03*
X11169650Y10934700D02*
D03*
Y11061700D02*
D03*
X11036300Y11125200D02*
D03*
Y10998200D02*
D03*
X11303000D02*
D03*
Y11125200D02*
D03*
D163*
X9309100Y6654800D02*
D03*
X16922365Y12512227D02*
D03*
X9170479Y6592207D02*
D03*
X15544800Y7518400D02*
D03*
X15392400D02*
D03*
X15544800Y7175500D02*
D03*
X15379700D02*
D03*
X17741901Y8115300D02*
D03*
X17513300D02*
D03*
X13639799Y7886700D02*
D03*
Y8064499D02*
D03*
X11811000Y8445500D02*
D03*
Y8572500D02*
D03*
X11810398Y12420600D02*
D03*
X12065000Y11887200D02*
D03*
X9017000Y9169400D02*
D03*
X8953500Y6692900D02*
D03*
X9677400Y6489700D02*
D03*
X12901677Y8522957D02*
D03*
X12293600Y10756900D02*
D03*
X15343201Y10754676D02*
D03*
X16922365Y12881705D02*
D03*
X15845799Y10846300D02*
D03*
X15642599D02*
D03*
X15923100Y11239500D02*
D03*
Y11531600D02*
D03*
Y11633200D02*
D03*
Y11734800D02*
D03*
Y11836400D02*
D03*
Y11938000D02*
D03*
X15342368Y11439393D02*
D03*
X12865100Y11239500D02*
D03*
Y11531600D02*
D03*
Y11633200D02*
D03*
Y11734800D02*
D03*
Y11836400D02*
D03*
Y11938000D02*
D03*
X12623800Y12128500D02*
D03*
X14594299Y12092400D02*
D03*
X12584600Y10846300D02*
D03*
X12787800D02*
D03*
X12284367Y11439393D02*
D03*
D164*
X8839200Y11303000D02*
D03*
X8686800D02*
D03*
X8991600D02*
D03*
X14899863Y9296400D02*
D03*
X13995399Y8559800D02*
D03*
X14899863Y8864600D02*
D03*
X10223500Y9956800D02*
D03*
X10134600Y9779000D02*
D03*
X10223500Y9601200D02*
D03*
X10134600Y9423400D02*
D03*
X10045700Y9956800D02*
D03*
X9956800Y9779000D02*
D03*
X10045700Y9601200D02*
D03*
X9956800Y9423400D02*
D03*
X9867900Y9956800D02*
D03*
X9779000Y9779000D02*
D03*
X9867900Y9601200D02*
D03*
X9779000Y9423400D02*
D03*
X9690100Y9956800D02*
D03*
Y9601200D02*
D03*
X8978900Y9956800D02*
D03*
Y9601200D02*
D03*
X16192500Y8890000D02*
D03*
Y8712200D02*
D03*
X16179800Y9779000D02*
D03*
Y9461500D02*
D03*
Y10096500D02*
D03*
X8686800Y10744200D02*
D03*
X8839200D02*
D03*
X8991600D02*
D03*
X8686800Y11023600D02*
D03*
X8839200D02*
D03*
X8991600D02*
D03*
X14401801Y9296400D02*
D03*
X13970000D02*
D03*
X8915400Y10604500D02*
D03*
Y10883900D02*
D03*
Y11163300D02*
D03*
X8763000Y10604500D02*
D03*
Y11163300D02*
D03*
Y10883900D02*
D03*
X8610600Y10604500D02*
D03*
Y11163300D02*
D03*
Y10883900D02*
D03*
X11671300Y12814301D02*
D03*
Y13373100D02*
D03*
Y13093700D02*
D03*
Y13652499D02*
D03*
X11836400Y12814301D02*
D03*
Y13652499D02*
D03*
Y13373100D02*
D03*
Y13093700D02*
D03*
D165*
X7505700Y7010400D02*
D03*
X8102600Y6591300D02*
D03*
D166*
X10242600Y8204200D02*
D03*
X10407600D02*
D03*
D167*
X7912100Y6588600D02*
D03*
X7404100D02*
D03*
D168*
X7658100Y7563600D02*
D03*
D169*
X7372100Y9171000D02*
D03*
X7182100D02*
D03*
X7277100Y9371000D02*
D03*
D170*
X16446500Y7428000D02*
D03*
X16326500D02*
D03*
X16446500Y7558000D02*
D03*
X16556500D02*
D03*
X16556500Y7428000D02*
D03*
X16326500Y7558000D02*
D03*
X12230100Y7428000D02*
D03*
X12110100D02*
D03*
X12230100Y7558000D02*
D03*
X12340100D02*
D03*
X12340100Y7428000D02*
D03*
X12110100Y7558000D02*
D03*
%TF.MD5,b54fdada77ad7ffc91c775076b9875c1*%
M02*
