%TF.GenerationSoftware,Altium Limited,Altium Designer,23.6.0 (18)*%
G04 Layer_Physical_Order=3*
G04 Layer_Color=36540*
%FSLAX45Y45*%
%MOMM*%
%TF.SameCoordinates,DACBD49B-6CD5-42DE-81B8-5418E1F3F2F4*%
%TF.FilePolarity,Positive*%
%TF.FileFunction,Copper,L3,Inr,Signal*%
%TF.Part,Single*%
G01*
G75*
%TA.AperFunction,Conductor*%
%ADD55C,0.38100*%
%ADD56C,1.01600*%
%ADD57C,0.25400*%
%ADD59C,0.50800*%
%TA.AperFunction,ComponentPad*%
%ADD62C,1.55000*%
%ADD63R,1.55000X1.55000*%
%ADD64R,1.55000X1.55000*%
%ADD65C,1.30000*%
%ADD66C,1.80000*%
%ADD68C,6.10000*%
%ADD69C,2.10000*%
%ADD70C,1.56000*%
%ADD71R,1.37000X1.37000*%
%ADD72C,1.37000*%
%ADD73C,9.50000*%
%ADD74C,2.03200*%
%TA.AperFunction,TestPad*%
%ADD75C,2.03200*%
%TA.AperFunction,ViaPad*%
%ADD76C,0.76200*%
%ADD77C,0.88900*%
%ADD78C,0.63500*%
%ADD79C,1.14300*%
%ADD80C,0.50800*%
%ADD81C,1.27000*%
%TA.AperFunction,Conductor*%
%ADD104C,1.27000*%
G36*
X12575795Y13735748D02*
X12575208Y13733784D01*
X12574690Y13730962D01*
X12574242Y13727283D01*
X12573310Y13711089D01*
X12573000Y13687170D01*
X12471400D01*
X12471365Y13696002D01*
X12469192Y13733784D01*
X12468605Y13735748D01*
X12467950Y13736855D01*
X12576450D01*
X12575795Y13735748D01*
D02*
G37*
G36*
X12848380Y13713989D02*
X12843893Y13710941D01*
X12839934Y13705861D01*
X12836502Y13698749D01*
X12833598Y13689606D01*
X12831223Y13678429D01*
X12829376Y13665221D01*
X12828056Y13649982D01*
X12827000Y13613405D01*
X12725400D01*
X12725136Y13632709D01*
X12721177Y13678429D01*
X12718801Y13689606D01*
X12715898Y13698749D01*
X12712466Y13705861D01*
X12708507Y13710941D01*
X12704020Y13713989D01*
X12699005Y13715005D01*
X12853395D01*
X12848380Y13713989D01*
D02*
G37*
G36*
X7667164Y12805405D02*
X7662881Y12800294D01*
X7659065Y12794000D01*
X7655718Y12786522D01*
X7652839Y12777860D01*
X7650428Y12768013D01*
X7648485Y12756982D01*
X7647011Y12744767D01*
X7645465Y12716784D01*
X7645395Y12701016D01*
X7544816Y12801595D01*
X7560584Y12801665D01*
X7600782Y12804684D01*
X7611813Y12806628D01*
X7621660Y12809039D01*
X7630322Y12811919D01*
X7637800Y12815265D01*
X7644094Y12819081D01*
X7649204Y12823364D01*
X7667164Y12805405D01*
D02*
G37*
G36*
X11691989Y12579636D02*
X11689397Y12576790D01*
X11687061Y12573695D01*
X11684983Y12570351D01*
X11683162Y12566758D01*
X11681597Y12562916D01*
X11680290Y12558825D01*
X11679240Y12554484D01*
X11678447Y12549894D01*
X11677910Y12545055D01*
X11677631Y12539967D01*
X11635371Y12585647D01*
X11640349Y12585550D01*
X11645095Y12585755D01*
X11649610Y12586265D01*
X11653895Y12587078D01*
X11657949Y12588194D01*
X11661772Y12589613D01*
X11665365Y12591336D01*
X11668727Y12593363D01*
X11671858Y12595692D01*
X11674758Y12598325D01*
X11691989Y12579636D01*
D02*
G37*
G36*
X7645465Y12365716D02*
X7648485Y12325518D01*
X7650428Y12314487D01*
X7652839Y12304640D01*
X7655718Y12295978D01*
X7659065Y12288500D01*
X7662881Y12282206D01*
X7667164Y12277096D01*
X7649204Y12259136D01*
X7644094Y12263419D01*
X7637800Y12267235D01*
X7630322Y12270582D01*
X7621660Y12273461D01*
X7611813Y12275872D01*
X7600782Y12277815D01*
X7588567Y12279289D01*
X7560584Y12280835D01*
X7544816Y12280905D01*
X7645395Y12381484D01*
X7645465Y12365716D01*
D02*
G37*
G36*
X13448199Y12103600D02*
Y10605000D01*
X13283099Y10439900D01*
X12539057D01*
X12538979Y10440191D01*
X12529783Y10456119D01*
X12516778Y10469124D01*
X12500851Y10478320D01*
X12483085Y10483080D01*
X12464694D01*
X12446928Y10478320D01*
X12431001Y10469124D01*
X12417995Y10456119D01*
X12408800Y10440191D01*
X12408722Y10439900D01*
X12000400D01*
X11809900Y10630400D01*
Y12040100D01*
X12025800Y12256000D01*
X13171538D01*
X13173404Y12255500D01*
X13191795D01*
X13193661Y12256000D01*
X13295799D01*
X13448199Y12103600D01*
D02*
G37*
G36*
X11022713Y12256792D02*
X11019247Y12253245D01*
X11011049Y12243835D01*
X11009049Y12241107D01*
X11007416Y12238585D01*
X11006149Y12236268D01*
X11005249Y12234155D01*
X11004715Y12232247D01*
X11004548Y12230544D01*
X10960544Y12274548D01*
X10962247Y12274715D01*
X10964155Y12275249D01*
X10966268Y12276149D01*
X10968585Y12277416D01*
X10971107Y12279049D01*
X10973835Y12281049D01*
X10979904Y12286148D01*
X10986792Y12292713D01*
X11022713Y12256792D01*
D02*
G37*
G36*
X10928356Y12198985D02*
X10927034Y12200071D01*
X10925308Y12201042D01*
X10923177Y12201900D01*
X10920643Y12202643D01*
X10917704Y12203271D01*
X10914362Y12203786D01*
X10906465Y12204471D01*
X10896952Y12204700D01*
Y12255500D01*
X10901911Y12255557D01*
X10914362Y12256414D01*
X10917704Y12256929D01*
X10920643Y12257557D01*
X10923177Y12258300D01*
X10925308Y12259158D01*
X10927034Y12260129D01*
X10928356Y12261215D01*
Y12198985D01*
D02*
G37*
G36*
X9824766Y12260129D02*
X9826492Y12259158D01*
X9828623Y12258300D01*
X9831157Y12257557D01*
X9834096Y12256929D01*
X9837438Y12256414D01*
X9845335Y12255729D01*
X9854848Y12255500D01*
Y12204700D01*
X9849889Y12204643D01*
X9837438Y12203786D01*
X9834096Y12203271D01*
X9831157Y12202643D01*
X9828623Y12201900D01*
X9826492Y12201042D01*
X9824766Y12200071D01*
X9823444Y12198985D01*
Y12261215D01*
X9824766Y12260129D01*
D02*
G37*
G36*
X16547000Y12090900D02*
Y10592300D01*
X16381900Y10427200D01*
X15579648D01*
Y10444518D01*
X15574887Y10462283D01*
X15565691Y10478211D01*
X15552686Y10491216D01*
X15536758Y10500412D01*
X15518993Y10505172D01*
X15500603D01*
X15482835Y10500412D01*
X15466908Y10491216D01*
X15453905Y10478211D01*
X15444708Y10462283D01*
X15439948Y10444518D01*
Y10427200D01*
X15099200D01*
X14908701Y10617700D01*
Y12027400D01*
X15124600Y12243300D01*
X15489532D01*
X15497385Y12230600D01*
X15494131Y12218459D01*
Y12200067D01*
X15498892Y12182302D01*
X15508089Y12166374D01*
X15521094Y12153369D01*
X15537019Y12144173D01*
X15554787Y12139413D01*
X15573177D01*
X15590942Y12144173D01*
X15606870Y12153369D01*
X15619876Y12166374D01*
X15629071Y12182302D01*
X15633832Y12200067D01*
Y12218459D01*
X15630579Y12230600D01*
X15638431Y12243300D01*
X16394600D01*
X16547000Y12090900D01*
D02*
G37*
G36*
X18540083Y12116460D02*
X18568788Y12091142D01*
X18570680Y12090163D01*
X18572020Y12089844D01*
X18494804Y12012628D01*
X18494485Y12013968D01*
X18493506Y12015860D01*
X18491869Y12018305D01*
X18489571Y12021301D01*
X18482996Y12028950D01*
X18461932Y12050873D01*
X18533775Y12122715D01*
X18540083Y12116460D01*
D02*
G37*
G36*
X7627556Y12125020D02*
X7658116Y12098731D01*
X7667290Y12092305D01*
X7675957Y12087047D01*
X7684118Y12082958D01*
X7691773Y12080037D01*
X7698921Y12078284D01*
X7705563Y12077700D01*
Y12052300D01*
X7698921Y12051716D01*
X7691773Y12049963D01*
X7684118Y12047042D01*
X7675957Y12042953D01*
X7667290Y12037695D01*
X7658116Y12031269D01*
X7648436Y12023674D01*
X7627556Y12004980D01*
X7616357Y11993880D01*
Y12136120D01*
X7627556Y12125020D01*
D02*
G37*
G36*
Y11807520D02*
X7658116Y11781231D01*
X7667290Y11774805D01*
X7675957Y11769547D01*
X7684118Y11765458D01*
X7691773Y11762537D01*
X7698921Y11760784D01*
X7705563Y11760200D01*
Y11734800D01*
X7698921Y11734216D01*
X7691773Y11732463D01*
X7684118Y11729542D01*
X7675957Y11725453D01*
X7667290Y11720195D01*
X7658116Y11713769D01*
X7648436Y11706174D01*
X7627556Y11687480D01*
X7616357Y11676380D01*
Y11818620D01*
X7627556Y11807520D01*
D02*
G37*
G36*
X7645465Y11413216D02*
X7648485Y11373018D01*
X7650428Y11361987D01*
X7652839Y11352140D01*
X7655718Y11343478D01*
X7659065Y11336000D01*
X7662881Y11329706D01*
X7667164Y11324596D01*
X7649204Y11306636D01*
X7644094Y11310919D01*
X7637800Y11314735D01*
X7630322Y11318082D01*
X7621660Y11320961D01*
X7611813Y11323372D01*
X7600782Y11325315D01*
X7588567Y11326789D01*
X7560584Y11328335D01*
X7544816Y11328405D01*
X7645395Y11428984D01*
X7645465Y11413216D01*
D02*
G37*
G36*
X18498482Y11310020D02*
X18503487Y11306793D01*
X18509280Y11303960D01*
X18515869Y11301521D01*
X18523248Y11299474D01*
X18531419Y11297822D01*
X18540382Y11296562D01*
X18560683Y11295223D01*
X18572020Y11295144D01*
X18494804Y11217928D01*
X18494725Y11229266D01*
X18493385Y11249567D01*
X18492126Y11258529D01*
X18490474Y11266700D01*
X18488428Y11274079D01*
X18485988Y11280667D01*
X18483154Y11286462D01*
X18479929Y11291466D01*
X18476309Y11295679D01*
X18494269Y11313639D01*
X18498482Y11310020D01*
D02*
G37*
G36*
X18931639Y11018861D02*
X18925424Y11012558D01*
X18904520Y10988541D01*
X18902373Y10985237D01*
X18900902Y10982434D01*
X18900110Y10980131D01*
X18899995Y10978328D01*
X18813167Y11044548D01*
X18813602Y11044892D01*
X18814687Y11045896D01*
X18846800Y11077707D01*
X18931639Y11018861D01*
D02*
G37*
G36*
X18510796Y10565486D02*
X18516376Y10561143D01*
X18522263Y10557322D01*
X18528455Y10554021D01*
X18534952Y10551240D01*
X18541756Y10548980D01*
X18548863Y10547240D01*
X18556276Y10546020D01*
X18563995Y10545322D01*
X18572020Y10545143D01*
X18494804Y10467927D01*
X18494624Y10475952D01*
X18493927Y10483671D01*
X18492706Y10491084D01*
X18490967Y10498192D01*
X18488707Y10504995D01*
X18485925Y10511492D01*
X18482625Y10517684D01*
X18478804Y10523571D01*
X18474461Y10529152D01*
X18469598Y10534427D01*
X18505521Y10570348D01*
X18510796Y10565486D01*
D02*
G37*
G36*
X6684847Y10182987D02*
X6685619Y10180828D01*
X6686904Y10178923D01*
X6688703Y10177272D01*
X6691017Y10175875D01*
X6693844Y10174732D01*
X6697186Y10173843D01*
X6701041Y10173208D01*
X6705411Y10172827D01*
X6710295Y10172700D01*
Y10147300D01*
X6705411Y10147173D01*
X6701041Y10146792D01*
X6697186Y10146157D01*
X6693844Y10145268D01*
X6691017Y10144125D01*
X6688703Y10142728D01*
X6686904Y10141077D01*
X6685619Y10139172D01*
X6684847Y10137013D01*
X6684590Y10134600D01*
Y10185400D01*
X6684847Y10182987D01*
D02*
G37*
G36*
X18901877Y10215921D02*
X18908311Y10185312D01*
X18910774Y10176940D01*
X18916177Y10162942D01*
X18919118Y10157315D01*
X18922217Y10152604D01*
X18925476Y10148809D01*
X18910249Y10128114D01*
X18905766Y10131967D01*
X18900610Y10135230D01*
X18894781Y10137905D01*
X18888280Y10139990D01*
X18881107Y10141487D01*
X18873260Y10142394D01*
X18864742Y10142713D01*
X18855550Y10142442D01*
X18845686Y10141582D01*
X18835149Y10140133D01*
X18900050Y10227954D01*
X18901877Y10215921D01*
D02*
G37*
G36*
X18572020Y10139154D02*
X18560683Y10139075D01*
X18540382Y10137736D01*
X18531419Y10136476D01*
X18523248Y10134824D01*
X18515869Y10132777D01*
X18509280Y10130338D01*
X18503487Y10127505D01*
X18498482Y10124278D01*
X18494269Y10120659D01*
X18476309Y10138619D01*
X18479929Y10142832D01*
X18483154Y10147836D01*
X18485988Y10153631D01*
X18488428Y10160219D01*
X18490474Y10167598D01*
X18492126Y10175769D01*
X18493385Y10184731D01*
X18494725Y10205032D01*
X18494804Y10216370D01*
X18572020Y10139154D01*
D02*
G37*
G36*
X6844527Y10097000D02*
X6834864Y10106557D01*
X6816725Y10122653D01*
X6808249Y10129192D01*
X6800169Y10134725D01*
X6792484Y10139252D01*
X6785194Y10142773D01*
X6778301Y10145288D01*
X6771803Y10146797D01*
X6765701Y10147300D01*
Y10172700D01*
X6771803Y10173203D01*
X6778301Y10174712D01*
X6785194Y10177227D01*
X6792484Y10180748D01*
X6800169Y10185275D01*
X6808249Y10190808D01*
X6816725Y10197347D01*
X6834864Y10213443D01*
X6844527Y10223000D01*
Y10097000D01*
D02*
G37*
G36*
X8675981Y9858050D02*
X8669167Y9864748D01*
X8656115Y9876027D01*
X8649877Y9880610D01*
X8643832Y9884487D01*
X8637979Y9887660D01*
X8632318Y9890128D01*
X8626849Y9891890D01*
X8621572Y9892947D01*
X8616488Y9893300D01*
Y9918700D01*
X8621572Y9919053D01*
X8626849Y9920110D01*
X8632318Y9921872D01*
X8637979Y9924340D01*
X8643832Y9927513D01*
X8649877Y9931390D01*
X8656115Y9935973D01*
X8662545Y9941260D01*
X8675981Y9953950D01*
Y9858050D01*
D02*
G37*
G36*
X6672433Y9947252D02*
X6685485Y9935973D01*
X6691723Y9931390D01*
X6697768Y9927513D01*
X6703621Y9924340D01*
X6709282Y9921872D01*
X6714751Y9920110D01*
X6720028Y9919053D01*
X6725112Y9918700D01*
Y9893300D01*
X6720028Y9892947D01*
X6714751Y9891890D01*
X6709282Y9890128D01*
X6703621Y9887660D01*
X6697768Y9884487D01*
X6691723Y9880610D01*
X6685485Y9876027D01*
X6679055Y9870740D01*
X6665619Y9858050D01*
Y9953950D01*
X6672433Y9947252D01*
D02*
G37*
G36*
X8506736Y9959443D02*
X8524875Y9943347D01*
X8533351Y9936808D01*
X8541431Y9931275D01*
X8549116Y9926748D01*
X8556406Y9923227D01*
X8563299Y9920712D01*
X8569797Y9919203D01*
X8575899Y9918700D01*
Y9893300D01*
X8569797Y9892797D01*
X8563299Y9891288D01*
X8556406Y9888773D01*
X8549116Y9885252D01*
X8541431Y9880725D01*
X8533351Y9875192D01*
X8524875Y9868653D01*
X8506736Y9852557D01*
X8497073Y9843000D01*
Y9969000D01*
X8506736Y9959443D01*
D02*
G37*
G36*
X6844527Y9843000D02*
X6834864Y9852557D01*
X6816725Y9868653D01*
X6808249Y9875192D01*
X6800169Y9880725D01*
X6792484Y9885252D01*
X6785194Y9888773D01*
X6778301Y9891288D01*
X6771803Y9892797D01*
X6765701Y9893300D01*
Y9918700D01*
X6771803Y9919203D01*
X6778301Y9920712D01*
X6785194Y9923227D01*
X6792484Y9926748D01*
X6800169Y9931275D01*
X6808249Y9936808D01*
X6816725Y9943347D01*
X6834864Y9959443D01*
X6844527Y9969000D01*
Y9843000D01*
D02*
G37*
G36*
X8675981Y9604050D02*
X8669167Y9610748D01*
X8656115Y9622027D01*
X8649877Y9626610D01*
X8643832Y9630487D01*
X8637979Y9633660D01*
X8632318Y9636128D01*
X8626849Y9637890D01*
X8621572Y9638947D01*
X8616488Y9639300D01*
Y9664700D01*
X8621572Y9665053D01*
X8626849Y9666110D01*
X8632318Y9667872D01*
X8637979Y9670340D01*
X8643832Y9673513D01*
X8649877Y9677390D01*
X8656115Y9681973D01*
X8662545Y9687260D01*
X8675981Y9699950D01*
Y9604050D01*
D02*
G37*
G36*
X6672433Y9693252D02*
X6685485Y9681973D01*
X6691723Y9677390D01*
X6697768Y9673513D01*
X6703621Y9670340D01*
X6709282Y9667872D01*
X6714751Y9666110D01*
X6720028Y9665053D01*
X6725112Y9664700D01*
Y9639300D01*
X6720028Y9638947D01*
X6714751Y9637890D01*
X6709282Y9636128D01*
X6703621Y9633660D01*
X6697768Y9630487D01*
X6691723Y9626610D01*
X6685485Y9622027D01*
X6679055Y9616740D01*
X6665619Y9604050D01*
Y9699950D01*
X6672433Y9693252D01*
D02*
G37*
G36*
X8506736Y9705443D02*
X8524875Y9689347D01*
X8533351Y9682808D01*
X8541431Y9677275D01*
X8549116Y9672748D01*
X8556406Y9669227D01*
X8563299Y9666712D01*
X8569797Y9665203D01*
X8575899Y9664700D01*
Y9639300D01*
X8569797Y9638797D01*
X8563299Y9637288D01*
X8556406Y9634773D01*
X8549116Y9631252D01*
X8541431Y9626725D01*
X8533351Y9621192D01*
X8524875Y9614653D01*
X8506736Y9598557D01*
X8497073Y9589000D01*
Y9715000D01*
X8506736Y9705443D01*
D02*
G37*
G36*
X8368527Y9589000D02*
X8358864Y9598557D01*
X8340725Y9614653D01*
X8332249Y9621192D01*
X8324169Y9626725D01*
X8316484Y9631252D01*
X8309194Y9634773D01*
X8302301Y9637288D01*
X8295803Y9638797D01*
X8289701Y9639300D01*
Y9664700D01*
X8295803Y9665203D01*
X8302301Y9666712D01*
X8309194Y9669227D01*
X8316484Y9672748D01*
X8324169Y9677275D01*
X8332249Y9682808D01*
X8340725Y9689347D01*
X8358864Y9705443D01*
X8368527Y9715000D01*
Y9589000D01*
D02*
G37*
G36*
X6982736Y9705443D02*
X7000875Y9689347D01*
X7009351Y9682808D01*
X7017431Y9677275D01*
X7025116Y9672748D01*
X7032406Y9669227D01*
X7039299Y9666712D01*
X7045797Y9665203D01*
X7051899Y9664700D01*
Y9639300D01*
X7045797Y9638797D01*
X7039299Y9637288D01*
X7032406Y9634773D01*
X7025116Y9631252D01*
X7017431Y9626725D01*
X7009351Y9621192D01*
X7000875Y9614653D01*
X6982736Y9598557D01*
X6973073Y9589000D01*
Y9715000D01*
X6982736Y9705443D01*
D02*
G37*
G36*
X6844527Y9589000D02*
X6834864Y9598557D01*
X6816725Y9614653D01*
X6808249Y9621192D01*
X6800169Y9626725D01*
X6792484Y9631252D01*
X6785194Y9634773D01*
X6778301Y9637288D01*
X6771803Y9638797D01*
X6765701Y9639300D01*
Y9664700D01*
X6771803Y9665203D01*
X6778301Y9666712D01*
X6785194Y9669227D01*
X6792484Y9672748D01*
X6800169Y9677275D01*
X6808249Y9682808D01*
X6816725Y9689347D01*
X6834864Y9705443D01*
X6844527Y9715000D01*
Y9589000D01*
D02*
G37*
G36*
X8675981Y9350050D02*
X8669167Y9356748D01*
X8656115Y9368027D01*
X8649877Y9372610D01*
X8643832Y9376487D01*
X8637979Y9379660D01*
X8632318Y9382128D01*
X8626849Y9383890D01*
X8621572Y9384947D01*
X8616488Y9385300D01*
Y9410700D01*
X8621572Y9411053D01*
X8626849Y9412110D01*
X8632318Y9413872D01*
X8637979Y9416340D01*
X8643832Y9419513D01*
X8649877Y9423390D01*
X8656115Y9427973D01*
X8662545Y9433260D01*
X8675981Y9445950D01*
Y9350050D01*
D02*
G37*
G36*
X6672433Y9439252D02*
X6685485Y9427973D01*
X6691723Y9423390D01*
X6697768Y9419513D01*
X6703621Y9416340D01*
X6709282Y9413872D01*
X6714751Y9412110D01*
X6720028Y9411053D01*
X6725112Y9410700D01*
Y9385300D01*
X6720028Y9384947D01*
X6714751Y9383890D01*
X6709282Y9382128D01*
X6703621Y9379660D01*
X6697768Y9376487D01*
X6691723Y9372610D01*
X6685485Y9368027D01*
X6679055Y9362740D01*
X6665619Y9350050D01*
Y9445950D01*
X6672433Y9439252D01*
D02*
G37*
G36*
X8506736Y9451443D02*
X8524875Y9435347D01*
X8533351Y9428808D01*
X8541431Y9423275D01*
X8549116Y9418748D01*
X8556406Y9415227D01*
X8563299Y9412712D01*
X8569797Y9411203D01*
X8575899Y9410700D01*
Y9385300D01*
X8569797Y9384797D01*
X8563299Y9383288D01*
X8556406Y9380773D01*
X8549116Y9377252D01*
X8541431Y9372725D01*
X8533351Y9367192D01*
X8524875Y9360653D01*
X8506736Y9344557D01*
X8497073Y9335000D01*
Y9461000D01*
X8506736Y9451443D01*
D02*
G37*
G36*
X6844527Y9335000D02*
X6834864Y9344557D01*
X6816725Y9360653D01*
X6808249Y9367192D01*
X6800169Y9372725D01*
X6792484Y9377252D01*
X6785194Y9380773D01*
X6778301Y9383288D01*
X6771803Y9384797D01*
X6765701Y9385300D01*
Y9410700D01*
X6771803Y9411203D01*
X6778301Y9412712D01*
X6785194Y9415227D01*
X6792484Y9418748D01*
X6800169Y9423275D01*
X6808249Y9428808D01*
X6816725Y9435347D01*
X6834864Y9451443D01*
X6844527Y9461000D01*
Y9335000D01*
D02*
G37*
G36*
X8675981Y9096050D02*
X8669167Y9102748D01*
X8656115Y9114027D01*
X8649877Y9118610D01*
X8643832Y9122487D01*
X8637979Y9125660D01*
X8632318Y9128128D01*
X8626849Y9129890D01*
X8621572Y9130947D01*
X8616488Y9131300D01*
Y9156700D01*
X8621572Y9157053D01*
X8626849Y9158110D01*
X8632318Y9159872D01*
X8637979Y9162340D01*
X8643832Y9165513D01*
X8649877Y9169390D01*
X8656115Y9173973D01*
X8662545Y9179260D01*
X8675981Y9191950D01*
Y9096050D01*
D02*
G37*
G36*
X6672433Y9185252D02*
X6685485Y9173973D01*
X6691723Y9169390D01*
X6697768Y9165513D01*
X6703621Y9162340D01*
X6709282Y9159872D01*
X6714751Y9158110D01*
X6720028Y9157053D01*
X6725112Y9156700D01*
Y9131300D01*
X6720028Y9130947D01*
X6714751Y9129890D01*
X6709282Y9128128D01*
X6703621Y9125660D01*
X6697768Y9122487D01*
X6691723Y9118610D01*
X6685485Y9114027D01*
X6679055Y9108740D01*
X6665619Y9096050D01*
Y9191950D01*
X6672433Y9185252D01*
D02*
G37*
G36*
X8506736Y9197443D02*
X8524875Y9181347D01*
X8533351Y9174808D01*
X8541431Y9169275D01*
X8549116Y9164748D01*
X8556406Y9161227D01*
X8563299Y9158712D01*
X8569797Y9157203D01*
X8575899Y9156700D01*
Y9131300D01*
X8569797Y9130797D01*
X8563299Y9129288D01*
X8556406Y9126773D01*
X8549116Y9123252D01*
X8541431Y9118725D01*
X8533351Y9113192D01*
X8524875Y9106653D01*
X8506736Y9090557D01*
X8497073Y9081000D01*
Y9207000D01*
X8506736Y9197443D01*
D02*
G37*
G36*
X6844527Y9081000D02*
X6834864Y9090557D01*
X6816725Y9106653D01*
X6808249Y9113192D01*
X6800169Y9118725D01*
X6792484Y9123252D01*
X6785194Y9126773D01*
X6778301Y9129288D01*
X6771803Y9130797D01*
X6765701Y9131300D01*
Y9156700D01*
X6771803Y9157203D01*
X6778301Y9158712D01*
X6785194Y9161227D01*
X6792484Y9164748D01*
X6800169Y9169275D01*
X6808249Y9174808D01*
X6816725Y9181347D01*
X6834864Y9197443D01*
X6844527Y9207000D01*
Y9081000D01*
D02*
G37*
G36*
X8675981Y8842050D02*
X8669167Y8848748D01*
X8656115Y8860027D01*
X8649877Y8864610D01*
X8643832Y8868487D01*
X8637979Y8871660D01*
X8632318Y8874128D01*
X8626849Y8875890D01*
X8621572Y8876947D01*
X8616488Y8877300D01*
Y8902700D01*
X8621572Y8903053D01*
X8626849Y8904110D01*
X8632318Y8905872D01*
X8637979Y8908340D01*
X8643832Y8911513D01*
X8649877Y8915390D01*
X8656115Y8919973D01*
X8662545Y8925260D01*
X8675981Y8937950D01*
Y8842050D01*
D02*
G37*
G36*
X6672433Y8931252D02*
X6685485Y8919973D01*
X6691723Y8915390D01*
X6697768Y8911513D01*
X6703621Y8908340D01*
X6709282Y8905872D01*
X6714751Y8904110D01*
X6720028Y8903053D01*
X6725112Y8902700D01*
Y8877300D01*
X6720028Y8876947D01*
X6714751Y8875890D01*
X6709282Y8874128D01*
X6703621Y8871660D01*
X6697768Y8868487D01*
X6691723Y8864610D01*
X6685485Y8860027D01*
X6679055Y8854740D01*
X6665619Y8842050D01*
Y8937950D01*
X6672433Y8931252D01*
D02*
G37*
G36*
X8506736Y8943443D02*
X8524875Y8927347D01*
X8533351Y8920808D01*
X8541431Y8915275D01*
X8549116Y8910748D01*
X8556406Y8907227D01*
X8563299Y8904712D01*
X8569797Y8903203D01*
X8575899Y8902700D01*
Y8877300D01*
X8569797Y8876797D01*
X8563299Y8875288D01*
X8556406Y8872773D01*
X8549116Y8869252D01*
X8541431Y8864725D01*
X8533351Y8859192D01*
X8524875Y8852653D01*
X8506736Y8836557D01*
X8497073Y8827000D01*
Y8953000D01*
X8506736Y8943443D01*
D02*
G37*
G36*
X6844527Y8827000D02*
X6834864Y8836557D01*
X6816725Y8852653D01*
X6808249Y8859192D01*
X6800169Y8864725D01*
X6792484Y8869252D01*
X6785194Y8872773D01*
X6778301Y8875288D01*
X6771803Y8876797D01*
X6765701Y8877300D01*
Y8902700D01*
X6771803Y8903203D01*
X6778301Y8904712D01*
X6785194Y8907227D01*
X6792484Y8910748D01*
X6800169Y8915275D01*
X6808249Y8920808D01*
X6816725Y8927347D01*
X6834864Y8943443D01*
X6844527Y8953000D01*
Y8827000D01*
D02*
G37*
G36*
X8675981Y8588050D02*
X8669167Y8594748D01*
X8656115Y8606027D01*
X8649877Y8610610D01*
X8643832Y8614487D01*
X8637979Y8617660D01*
X8632318Y8620128D01*
X8626849Y8621890D01*
X8621572Y8622947D01*
X8616488Y8623300D01*
Y8648700D01*
X8621572Y8649053D01*
X8626849Y8650110D01*
X8632318Y8651872D01*
X8637979Y8654340D01*
X8643832Y8657513D01*
X8649877Y8661390D01*
X8656115Y8665973D01*
X8662545Y8671260D01*
X8675981Y8683950D01*
Y8588050D01*
D02*
G37*
G36*
X6672433Y8677252D02*
X6685485Y8665973D01*
X6691723Y8661390D01*
X6697768Y8657513D01*
X6703621Y8654340D01*
X6709282Y8651872D01*
X6714751Y8650110D01*
X6720028Y8649053D01*
X6725112Y8648700D01*
Y8623300D01*
X6720028Y8622947D01*
X6714751Y8621890D01*
X6709282Y8620128D01*
X6703621Y8617660D01*
X6697768Y8614487D01*
X6691723Y8610610D01*
X6685485Y8606027D01*
X6679055Y8600740D01*
X6665619Y8588050D01*
Y8683950D01*
X6672433Y8677252D01*
D02*
G37*
G36*
X8506736Y8689443D02*
X8524875Y8673347D01*
X8533351Y8666808D01*
X8541431Y8661275D01*
X8549116Y8656748D01*
X8556406Y8653227D01*
X8563299Y8650712D01*
X8569797Y8649203D01*
X8575899Y8648700D01*
Y8623300D01*
X8569797Y8622797D01*
X8563299Y8621288D01*
X8556406Y8618773D01*
X8549116Y8615252D01*
X8541431Y8610725D01*
X8533351Y8605192D01*
X8524875Y8598653D01*
X8506736Y8582557D01*
X8497073Y8573000D01*
Y8699000D01*
X8506736Y8689443D01*
D02*
G37*
G36*
X6844527Y8573000D02*
X6834864Y8582557D01*
X6816725Y8598653D01*
X6808249Y8605192D01*
X6800169Y8610725D01*
X6792484Y8615252D01*
X6785194Y8618773D01*
X6778301Y8621288D01*
X6771803Y8622797D01*
X6765701Y8623300D01*
Y8648700D01*
X6771803Y8649203D01*
X6778301Y8650712D01*
X6785194Y8653227D01*
X6792484Y8656748D01*
X6800169Y8661275D01*
X6808249Y8666808D01*
X6816725Y8673347D01*
X6834864Y8689443D01*
X6844527Y8699000D01*
Y8573000D01*
D02*
G37*
G36*
X8793479Y8625761D02*
X8794732Y8608555D01*
X8795902Y8600904D01*
X8797436Y8593888D01*
X8799331Y8587506D01*
X8801589Y8581758D01*
X8804210Y8576645D01*
X8807193Y8572166D01*
X8810539Y8568321D01*
X8792579Y8550361D01*
X8788734Y8553707D01*
X8784255Y8556690D01*
X8779142Y8559311D01*
X8773394Y8561569D01*
X8767012Y8563464D01*
X8759996Y8564998D01*
X8752345Y8566168D01*
X8744059Y8566976D01*
X8725585Y8567503D01*
X8793397Y8635315D01*
X8793479Y8625761D01*
D02*
G37*
G36*
X11804776Y8541366D02*
X11802468Y8541685D01*
X11800153Y8541719D01*
X11797830Y8541470D01*
X11795499Y8540936D01*
X11793161Y8540119D01*
X11790816Y8539017D01*
X11788462Y8537631D01*
X11786102Y8535961D01*
X11783733Y8534008D01*
X11781357Y8531770D01*
X11766409Y8552742D01*
X11768656Y8555092D01*
X11772523Y8559776D01*
X11774141Y8562109D01*
X11775549Y8564436D01*
X11776748Y8566758D01*
X11777736Y8569074D01*
X11778515Y8571384D01*
X11779083Y8573688D01*
X11779442Y8575987D01*
X11804776Y8541366D01*
D02*
G37*
G36*
X8431900Y8546004D02*
X8418309Y8545930D01*
X8394102Y8544485D01*
X8383484Y8543115D01*
X8373858Y8541314D01*
X8365223Y8539081D01*
X8357579Y8536417D01*
X8350926Y8533320D01*
X8345264Y8529792D01*
X8340594Y8525833D01*
X8322633Y8543794D01*
X8326592Y8548464D01*
X8330120Y8554126D01*
X8333217Y8560779D01*
X8335881Y8568423D01*
X8338114Y8577058D01*
X8339915Y8586684D01*
X8341285Y8597302D01*
X8342730Y8621509D01*
X8342804Y8635100D01*
X8431900Y8546004D01*
D02*
G37*
G36*
X12878912Y8563817D02*
X12881252Y8561881D01*
X12883630Y8560176D01*
X12886047Y8558701D01*
X12888504Y8557458D01*
X12890997Y8556446D01*
X12893530Y8555664D01*
X12896101Y8555114D01*
X12898711Y8554794D01*
X12901360Y8554705D01*
X12869930Y8523274D01*
X12869839Y8525922D01*
X12869521Y8528532D01*
X12868970Y8531103D01*
X12868188Y8533636D01*
X12867175Y8536130D01*
X12865932Y8538586D01*
X12864458Y8541003D01*
X12862753Y8543381D01*
X12860817Y8545722D01*
X12858650Y8548023D01*
X12876611Y8565984D01*
X12878912Y8563817D01*
D02*
G37*
G36*
X10398568Y8568366D02*
X10402221Y8565236D01*
X10405902Y8562473D01*
X10409612Y8560079D01*
X10413350Y8558054D01*
X10417116Y8556396D01*
X10420911Y8555107D01*
X10424735Y8554187D01*
X10428587Y8553634D01*
X10432467Y8553450D01*
Y8528050D01*
X10428587Y8527866D01*
X10424735Y8527313D01*
X10420911Y8526393D01*
X10417116Y8525104D01*
X10413350Y8523446D01*
X10409612Y8521421D01*
X10405902Y8519027D01*
X10402221Y8516264D01*
X10398568Y8513134D01*
X10394944Y8509635D01*
Y8571865D01*
X10398568Y8568366D01*
D02*
G37*
G36*
X11788326Y8423275D02*
X11786391Y8425085D01*
X11784319Y8426704D01*
X11782112Y8428133D01*
X11779768Y8429371D01*
X11777289Y8430419D01*
X11774673Y8431276D01*
X11771922Y8431943D01*
X11769034Y8432419D01*
X11766011Y8432705D01*
X11762851Y8432800D01*
Y8458200D01*
X11766011Y8458295D01*
X11769034Y8458581D01*
X11771922Y8459057D01*
X11774673Y8459724D01*
X11777289Y8460581D01*
X11779768Y8461629D01*
X11782112Y8462867D01*
X11784319Y8464296D01*
X11786391Y8465915D01*
X11788326Y8467725D01*
Y8423275D01*
D02*
G37*
G36*
X10187368Y8396916D02*
X10191021Y8393786D01*
X10194702Y8391023D01*
X10198412Y8388629D01*
X10202150Y8386604D01*
X10205916Y8384946D01*
X10209711Y8383657D01*
X10213535Y8382737D01*
X10217387Y8382184D01*
X10221267Y8382000D01*
Y8356600D01*
X10217387Y8356416D01*
X10213535Y8355863D01*
X10209711Y8354943D01*
X10205916Y8353654D01*
X10202150Y8351996D01*
X10198412Y8349971D01*
X10194702Y8347577D01*
X10191021Y8344814D01*
X10187368Y8341684D01*
X10183744Y8338185D01*
Y8400415D01*
X10187368Y8396916D01*
D02*
G37*
G36*
X10120256Y8338185D02*
X10116632Y8341684D01*
X10112979Y8344814D01*
X10109298Y8347577D01*
X10105588Y8349971D01*
X10101850Y8351996D01*
X10098084Y8353654D01*
X10094289Y8354943D01*
X10090465Y8355863D01*
X10086613Y8356416D01*
X10082733Y8356600D01*
Y8382000D01*
X10086613Y8382184D01*
X10090465Y8382737D01*
X10094289Y8383657D01*
X10098084Y8384946D01*
X10101850Y8386604D01*
X10105588Y8388629D01*
X10109298Y8391023D01*
X10112979Y8393786D01*
X10116632Y8396916D01*
X10120256Y8400415D01*
Y8338185D01*
D02*
G37*
G36*
X8675981Y8334050D02*
X8669167Y8340748D01*
X8656115Y8352027D01*
X8649877Y8356610D01*
X8643832Y8360487D01*
X8637979Y8363660D01*
X8632318Y8366128D01*
X8626849Y8367890D01*
X8621572Y8368947D01*
X8616488Y8369300D01*
Y8394700D01*
X8621572Y8395053D01*
X8626849Y8396110D01*
X8632318Y8397872D01*
X8637979Y8400340D01*
X8643832Y8403513D01*
X8649877Y8407390D01*
X8656115Y8411973D01*
X8662545Y8417260D01*
X8675981Y8429950D01*
Y8334050D01*
D02*
G37*
G36*
X6672433Y8423252D02*
X6685485Y8411973D01*
X6691723Y8407390D01*
X6697768Y8403513D01*
X6703621Y8400340D01*
X6709282Y8397872D01*
X6714751Y8396110D01*
X6720028Y8395053D01*
X6725112Y8394700D01*
Y8369300D01*
X6720028Y8368947D01*
X6714751Y8367890D01*
X6709282Y8366128D01*
X6703621Y8363660D01*
X6697768Y8360487D01*
X6691723Y8356610D01*
X6685485Y8352027D01*
X6679055Y8346740D01*
X6665619Y8334050D01*
Y8429950D01*
X6672433Y8423252D01*
D02*
G37*
G36*
X8506736Y8435443D02*
X8524875Y8419347D01*
X8533351Y8412808D01*
X8541431Y8407275D01*
X8549116Y8402748D01*
X8556406Y8399227D01*
X8563299Y8396712D01*
X8569797Y8395203D01*
X8575899Y8394700D01*
Y8369300D01*
X8569797Y8368797D01*
X8563299Y8367288D01*
X8556406Y8364773D01*
X8549116Y8361252D01*
X8541431Y8356725D01*
X8533351Y8351192D01*
X8524875Y8344653D01*
X8506736Y8328557D01*
X8497073Y8319000D01*
Y8445000D01*
X8506736Y8435443D01*
D02*
G37*
G36*
X6844527Y8319000D02*
X6834864Y8328557D01*
X6816725Y8344653D01*
X6808249Y8351192D01*
X6800169Y8356725D01*
X6792484Y8361252D01*
X6785194Y8364773D01*
X6778301Y8367288D01*
X6771803Y8368797D01*
X6765701Y8369300D01*
Y8394700D01*
X6771803Y8395203D01*
X6778301Y8396712D01*
X6785194Y8399227D01*
X6792484Y8402748D01*
X6800169Y8407275D01*
X6808249Y8412808D01*
X6816725Y8419347D01*
X6834864Y8435443D01*
X6844527Y8445000D01*
Y8319000D01*
D02*
G37*
G36*
X8431900Y8292004D02*
X8418309Y8291930D01*
X8394102Y8290485D01*
X8383484Y8289115D01*
X8373858Y8287314D01*
X8365223Y8285081D01*
X8357579Y8282417D01*
X8350926Y8279320D01*
X8345264Y8275792D01*
X8340594Y8271833D01*
X8322633Y8289794D01*
X8326592Y8294464D01*
X8330120Y8300126D01*
X8333217Y8306779D01*
X8335881Y8314423D01*
X8338114Y8323058D01*
X8339915Y8332684D01*
X8341285Y8343302D01*
X8342730Y8367509D01*
X8342804Y8381100D01*
X8431900Y8292004D01*
D02*
G37*
G36*
X17489787Y8093964D02*
X17487926Y8095837D01*
X17485921Y8097513D01*
X17483768Y8098991D01*
X17481471Y8100273D01*
X17479030Y8101357D01*
X17476443Y8102244D01*
X17473712Y8102934D01*
X17470836Y8103427D01*
X17467815Y8103723D01*
X17464648Y8103821D01*
X17465715Y8129221D01*
X17468867Y8129313D01*
X17471893Y8129588D01*
X17474792Y8130046D01*
X17477562Y8130687D01*
X17480203Y8131511D01*
X17482718Y8132519D01*
X17485104Y8133710D01*
X17487364Y8135084D01*
X17489494Y8136641D01*
X17491498Y8138381D01*
X17489787Y8093964D01*
D02*
G37*
G36*
X17719226Y8093075D02*
X17717291Y8094885D01*
X17715219Y8096504D01*
X17713013Y8097933D01*
X17710667Y8099171D01*
X17708189Y8100219D01*
X17705573Y8101076D01*
X17702821Y8101743D01*
X17699934Y8102219D01*
X17696912Y8102505D01*
X17693752Y8102600D01*
Y8128000D01*
X17696912Y8128095D01*
X17699934Y8128381D01*
X17702821Y8128857D01*
X17705573Y8129524D01*
X17708189Y8130381D01*
X17710667Y8131429D01*
X17713013Y8132667D01*
X17715219Y8134096D01*
X17717291Y8135715D01*
X17719226Y8137525D01*
Y8093075D01*
D02*
G37*
G36*
X17537909Y8135715D02*
X17539981Y8134096D01*
X17542188Y8132667D01*
X17544531Y8131429D01*
X17547011Y8130381D01*
X17549628Y8129524D01*
X17552377Y8128857D01*
X17555266Y8128381D01*
X17558289Y8128095D01*
X17561449Y8128000D01*
Y8102600D01*
X17558289Y8102505D01*
X17555266Y8102219D01*
X17552377Y8101743D01*
X17549628Y8101076D01*
X17547011Y8100219D01*
X17544531Y8099171D01*
X17542188Y8097933D01*
X17539981Y8096504D01*
X17537909Y8094885D01*
X17535974Y8093075D01*
Y8137525D01*
X17537909Y8135715D01*
D02*
G37*
G36*
X8675981Y8080050D02*
X8669167Y8086748D01*
X8656115Y8098027D01*
X8649877Y8102610D01*
X8643832Y8106487D01*
X8637979Y8109660D01*
X8632318Y8112128D01*
X8626849Y8113890D01*
X8621572Y8114947D01*
X8616488Y8115300D01*
Y8140700D01*
X8621572Y8141053D01*
X8626849Y8142110D01*
X8632318Y8143872D01*
X8637979Y8146340D01*
X8643832Y8149513D01*
X8649877Y8153390D01*
X8656115Y8157973D01*
X8662545Y8163260D01*
X8675981Y8175950D01*
Y8080050D01*
D02*
G37*
G36*
X6672433Y8169252D02*
X6685485Y8157973D01*
X6691723Y8153390D01*
X6697768Y8149513D01*
X6703621Y8146340D01*
X6709282Y8143872D01*
X6714751Y8142110D01*
X6720028Y8141053D01*
X6725112Y8140700D01*
Y8115300D01*
X6720028Y8114947D01*
X6714751Y8113890D01*
X6709282Y8112128D01*
X6703621Y8109660D01*
X6697768Y8106487D01*
X6691723Y8102610D01*
X6685485Y8098027D01*
X6679055Y8092740D01*
X6665619Y8080050D01*
Y8175950D01*
X6672433Y8169252D01*
D02*
G37*
G36*
X13627518Y8107527D02*
X13632079Y8103651D01*
X13634380Y8101948D01*
X13639024Y8099016D01*
X13641367Y8097786D01*
X13643723Y8096714D01*
X13646092Y8095799D01*
X13648476Y8095041D01*
X13609438Y8073784D01*
X13610023Y8076203D01*
X13610303Y8078614D01*
X13610271Y8081018D01*
X13609930Y8083414D01*
X13609280Y8085803D01*
X13608324Y8088184D01*
X13607057Y8090559D01*
X13605481Y8092925D01*
X13603596Y8095284D01*
X13601402Y8097635D01*
X13625258Y8109702D01*
X13627518Y8107527D01*
D02*
G37*
G36*
X8506736Y8181443D02*
X8524875Y8165347D01*
X8533351Y8158808D01*
X8541431Y8153275D01*
X8549116Y8148748D01*
X8556406Y8145227D01*
X8563299Y8142712D01*
X8569797Y8141203D01*
X8575899Y8140700D01*
Y8115300D01*
X8569797Y8114797D01*
X8563299Y8113288D01*
X8556406Y8110773D01*
X8549116Y8107252D01*
X8541431Y8102725D01*
X8533351Y8097192D01*
X8524875Y8090653D01*
X8506736Y8074557D01*
X8497073Y8065000D01*
Y8191000D01*
X8506736Y8181443D01*
D02*
G37*
G36*
X6844527Y8065000D02*
X6834864Y8074557D01*
X6816725Y8090653D01*
X6808249Y8097192D01*
X6800169Y8102725D01*
X6792484Y8107252D01*
X6785194Y8110773D01*
X6778301Y8113288D01*
X6771803Y8114797D01*
X6765701Y8115300D01*
Y8140700D01*
X6771803Y8141203D01*
X6778301Y8142712D01*
X6785194Y8145227D01*
X6792484Y8148748D01*
X6800169Y8153275D01*
X6808249Y8158808D01*
X6816725Y8165347D01*
X6834864Y8181443D01*
X6844527Y8191000D01*
Y8065000D01*
D02*
G37*
G36*
X13617126Y7864475D02*
X13615192Y7866285D01*
X13613120Y7867904D01*
X13610912Y7869333D01*
X13608568Y7870571D01*
X13606088Y7871619D01*
X13603473Y7872476D01*
X13600722Y7873143D01*
X13597833Y7873619D01*
X13594810Y7873905D01*
X13591650Y7874000D01*
Y7899400D01*
X13594810Y7899495D01*
X13597833Y7899781D01*
X13600722Y7900257D01*
X13603473Y7900924D01*
X13606088Y7901781D01*
X13608568Y7902829D01*
X13610912Y7904067D01*
X13613120Y7905496D01*
X13615192Y7907115D01*
X13617126Y7908925D01*
Y7864475D01*
D02*
G37*
G36*
X8675981Y7826050D02*
X8669167Y7832748D01*
X8656115Y7844027D01*
X8649877Y7848610D01*
X8643832Y7852487D01*
X8637979Y7855660D01*
X8632318Y7858128D01*
X8626849Y7859890D01*
X8621572Y7860947D01*
X8616488Y7861300D01*
Y7886700D01*
X8621572Y7887053D01*
X8626849Y7888110D01*
X8632318Y7889872D01*
X8637979Y7892340D01*
X8643832Y7895513D01*
X8649877Y7899390D01*
X8656115Y7903973D01*
X8662545Y7909260D01*
X8675981Y7921950D01*
Y7826050D01*
D02*
G37*
G36*
X6672433Y7915252D02*
X6685485Y7903973D01*
X6691723Y7899390D01*
X6697768Y7895513D01*
X6703621Y7892340D01*
X6709282Y7889872D01*
X6714751Y7888110D01*
X6720028Y7887053D01*
X6725112Y7886700D01*
Y7861300D01*
X6720028Y7860947D01*
X6714751Y7859890D01*
X6709282Y7858128D01*
X6703621Y7855660D01*
X6697768Y7852487D01*
X6691723Y7848610D01*
X6685485Y7844027D01*
X6679055Y7838740D01*
X6665619Y7826050D01*
Y7921950D01*
X6672433Y7915252D01*
D02*
G37*
G36*
X8506736Y7927443D02*
X8524875Y7911347D01*
X8533351Y7904808D01*
X8541431Y7899275D01*
X8549116Y7894748D01*
X8556406Y7891227D01*
X8563299Y7888712D01*
X8569797Y7887203D01*
X8575899Y7886700D01*
Y7861300D01*
X8569797Y7860797D01*
X8563299Y7859288D01*
X8556406Y7856773D01*
X8549116Y7853252D01*
X8541431Y7848725D01*
X8533351Y7843192D01*
X8524875Y7836653D01*
X8506736Y7820557D01*
X8497073Y7811000D01*
Y7937000D01*
X8506736Y7927443D01*
D02*
G37*
G36*
X6844527Y7811000D02*
X6834864Y7820557D01*
X6816725Y7836653D01*
X6808249Y7843192D01*
X6800169Y7848725D01*
X6792484Y7853252D01*
X6785194Y7856773D01*
X6778301Y7859288D01*
X6771803Y7860797D01*
X6765701Y7861300D01*
Y7886700D01*
X6771803Y7887203D01*
X6778301Y7888712D01*
X6785194Y7891227D01*
X6792484Y7894748D01*
X6800169Y7899275D01*
X6808249Y7904808D01*
X6816725Y7911347D01*
X6834864Y7927443D01*
X6844527Y7937000D01*
Y7811000D01*
D02*
G37*
G36*
X10068368Y7825416D02*
X10072021Y7822286D01*
X10075702Y7819523D01*
X10079412Y7817129D01*
X10083150Y7815104D01*
X10086916Y7813446D01*
X10090711Y7812157D01*
X10094535Y7811237D01*
X10098387Y7810684D01*
X10102267Y7810500D01*
Y7785100D01*
X10098387Y7784916D01*
X10094535Y7784363D01*
X10090711Y7783443D01*
X10086916Y7782154D01*
X10083150Y7780496D01*
X10079412Y7778471D01*
X10075702Y7776077D01*
X10072021Y7773314D01*
X10068368Y7770184D01*
X10064744Y7766685D01*
Y7828915D01*
X10068368Y7825416D01*
D02*
G37*
G36*
X14598779Y7743181D02*
X14599245Y7739816D01*
X14600043Y7736460D01*
X14601170Y7733112D01*
X14602634Y7729773D01*
X14604427Y7726444D01*
X14606554Y7723123D01*
X14609012Y7719811D01*
X14611804Y7716508D01*
X14614928Y7713214D01*
X14587987Y7686273D01*
X14584692Y7689396D01*
X14581389Y7692188D01*
X14578078Y7694646D01*
X14574756Y7696773D01*
X14571426Y7698567D01*
X14568088Y7700029D01*
X14564740Y7701158D01*
X14561385Y7701955D01*
X14558018Y7702420D01*
X14554645Y7702552D01*
X14598648Y7746555D01*
X14598779Y7743181D01*
D02*
G37*
G36*
X8675981Y7572050D02*
X8669167Y7578748D01*
X8656115Y7590027D01*
X8649877Y7594610D01*
X8643832Y7598487D01*
X8637979Y7601660D01*
X8632318Y7604128D01*
X8626849Y7605890D01*
X8621572Y7606947D01*
X8616488Y7607300D01*
Y7632700D01*
X8621572Y7633053D01*
X8626849Y7634110D01*
X8632318Y7635872D01*
X8637979Y7638340D01*
X8643832Y7641513D01*
X8649877Y7645390D01*
X8656115Y7649973D01*
X8662545Y7655260D01*
X8675981Y7667950D01*
Y7572050D01*
D02*
G37*
G36*
X6672433Y7661252D02*
X6685485Y7649973D01*
X6691723Y7645390D01*
X6697768Y7641513D01*
X6703621Y7638340D01*
X6709282Y7635872D01*
X6714751Y7634110D01*
X6720028Y7633053D01*
X6725112Y7632700D01*
Y7607300D01*
X6720028Y7606947D01*
X6714751Y7605890D01*
X6709282Y7604128D01*
X6703621Y7601660D01*
X6697768Y7598487D01*
X6691723Y7594610D01*
X6685485Y7590027D01*
X6679055Y7584740D01*
X6665619Y7572050D01*
Y7667950D01*
X6672433Y7661252D01*
D02*
G37*
G36*
X8506736Y7673443D02*
X8524875Y7657347D01*
X8533351Y7650808D01*
X8541431Y7645275D01*
X8549116Y7640748D01*
X8556406Y7637227D01*
X8563299Y7634712D01*
X8569797Y7633203D01*
X8575899Y7632700D01*
Y7607300D01*
X8569797Y7606797D01*
X8563299Y7605288D01*
X8556406Y7602773D01*
X8549116Y7599252D01*
X8541431Y7594725D01*
X8533351Y7589192D01*
X8524875Y7582653D01*
X8506736Y7566557D01*
X8497073Y7557000D01*
Y7683000D01*
X8506736Y7673443D01*
D02*
G37*
G36*
X6844527Y7557000D02*
X6834864Y7566557D01*
X6816725Y7582653D01*
X6808249Y7589192D01*
X6800169Y7594725D01*
X6792484Y7599252D01*
X6785194Y7602773D01*
X6778301Y7605288D01*
X6771803Y7606797D01*
X6765701Y7607300D01*
Y7632700D01*
X6771803Y7633203D01*
X6778301Y7634712D01*
X6785194Y7637227D01*
X6792484Y7640748D01*
X6800169Y7645275D01*
X6808249Y7650808D01*
X6816725Y7657347D01*
X6834864Y7673443D01*
X6844527Y7683000D01*
Y7557000D01*
D02*
G37*
G36*
X15405196Y7563389D02*
X15405481Y7560366D01*
X15405957Y7557478D01*
X15406624Y7554727D01*
X15407481Y7552111D01*
X15408530Y7549632D01*
X15409767Y7547288D01*
X15411195Y7545081D01*
X15412814Y7543009D01*
X15414626Y7541074D01*
X15370175D01*
X15371985Y7543009D01*
X15373604Y7545081D01*
X15375034Y7547288D01*
X15376271Y7549632D01*
X15377319Y7552111D01*
X15378175Y7554727D01*
X15378844Y7557478D01*
X15379318Y7560366D01*
X15379605Y7563389D01*
X15379700Y7566549D01*
X15405099D01*
X15405196Y7563389D01*
D02*
G37*
G36*
X8675981Y7318050D02*
X8669167Y7324748D01*
X8656115Y7336027D01*
X8649877Y7340610D01*
X8643832Y7344487D01*
X8637979Y7347660D01*
X8632318Y7350128D01*
X8626849Y7351890D01*
X8621572Y7352947D01*
X8616488Y7353300D01*
Y7378700D01*
X8621572Y7379053D01*
X8626849Y7380110D01*
X8632318Y7381872D01*
X8637979Y7384340D01*
X8643832Y7387513D01*
X8649877Y7391390D01*
X8656115Y7395973D01*
X8662545Y7401260D01*
X8675981Y7413950D01*
Y7318050D01*
D02*
G37*
G36*
X6672433Y7407252D02*
X6685485Y7395973D01*
X6691723Y7391390D01*
X6697768Y7387513D01*
X6703621Y7384340D01*
X6709282Y7381872D01*
X6714751Y7380110D01*
X6720028Y7379053D01*
X6725112Y7378700D01*
Y7353300D01*
X6720028Y7352947D01*
X6714751Y7351890D01*
X6709282Y7350128D01*
X6703621Y7347660D01*
X6697768Y7344487D01*
X6691723Y7340610D01*
X6685485Y7336027D01*
X6679055Y7330740D01*
X6665619Y7318050D01*
Y7413950D01*
X6672433Y7407252D01*
D02*
G37*
G36*
X8506736Y7419443D02*
X8524875Y7403347D01*
X8533351Y7396808D01*
X8541431Y7391275D01*
X8549116Y7386748D01*
X8556406Y7383227D01*
X8563299Y7380712D01*
X8569797Y7379203D01*
X8575899Y7378700D01*
Y7353300D01*
X8569797Y7352797D01*
X8563299Y7351288D01*
X8556406Y7348773D01*
X8549116Y7345252D01*
X8541431Y7340725D01*
X8533351Y7335192D01*
X8524875Y7328653D01*
X8506736Y7312557D01*
X8497073Y7303000D01*
Y7429000D01*
X8506736Y7419443D01*
D02*
G37*
G36*
X6844527Y7303000D02*
X6834864Y7312557D01*
X6816725Y7328653D01*
X6808249Y7335192D01*
X6800169Y7340725D01*
X6792484Y7345252D01*
X6785194Y7348773D01*
X6778301Y7351288D01*
X6771803Y7352797D01*
X6765701Y7353300D01*
Y7378700D01*
X6771803Y7379203D01*
X6778301Y7380712D01*
X6785194Y7383227D01*
X6792484Y7386748D01*
X6800169Y7391275D01*
X6808249Y7396808D01*
X6816725Y7403347D01*
X6834864Y7419443D01*
X6844527Y7429000D01*
Y7303000D01*
D02*
G37*
G36*
X8675981Y7064050D02*
X8669167Y7070748D01*
X8656115Y7082027D01*
X8649877Y7086610D01*
X8643832Y7090487D01*
X8637979Y7093660D01*
X8632318Y7096128D01*
X8626849Y7097890D01*
X8621572Y7098947D01*
X8616488Y7099300D01*
Y7124700D01*
X8621572Y7125053D01*
X8626849Y7126110D01*
X8632318Y7127872D01*
X8637979Y7130340D01*
X8643832Y7133513D01*
X8649877Y7137390D01*
X8656115Y7141973D01*
X8662545Y7147260D01*
X8675981Y7159950D01*
Y7064050D01*
D02*
G37*
G36*
X6672433Y7153252D02*
X6685485Y7141973D01*
X6691723Y7137390D01*
X6697768Y7133513D01*
X6703621Y7130340D01*
X6709282Y7127872D01*
X6714751Y7126110D01*
X6720028Y7125053D01*
X6725112Y7124700D01*
Y7099300D01*
X6720028Y7098947D01*
X6714751Y7097890D01*
X6709282Y7096128D01*
X6703621Y7093660D01*
X6697768Y7090487D01*
X6691723Y7086610D01*
X6685485Y7082027D01*
X6679055Y7076740D01*
X6665619Y7064050D01*
Y7159950D01*
X6672433Y7153252D01*
D02*
G37*
G36*
X8506736Y7165443D02*
X8524875Y7149347D01*
X8533351Y7142808D01*
X8541431Y7137275D01*
X8549116Y7132748D01*
X8556406Y7129227D01*
X8563299Y7126712D01*
X8569797Y7125203D01*
X8575899Y7124700D01*
Y7099300D01*
X8569797Y7098797D01*
X8563299Y7097288D01*
X8556406Y7094773D01*
X8549116Y7091252D01*
X8541431Y7086725D01*
X8533351Y7081192D01*
X8524875Y7074653D01*
X8506736Y7058557D01*
X8497073Y7049000D01*
Y7175000D01*
X8506736Y7165443D01*
D02*
G37*
G36*
X6844527Y7049000D02*
X6834864Y7058557D01*
X6816725Y7074653D01*
X6808249Y7081192D01*
X6800169Y7086725D01*
X6792484Y7091252D01*
X6785194Y7094773D01*
X6778301Y7097288D01*
X6771803Y7098797D01*
X6765701Y7099300D01*
Y7124700D01*
X6771803Y7125203D01*
X6778301Y7126712D01*
X6785194Y7129227D01*
X6792484Y7132748D01*
X6800169Y7137275D01*
X6808249Y7142808D01*
X6816725Y7149347D01*
X6834864Y7165443D01*
X6844527Y7175000D01*
Y7049000D01*
D02*
G37*
G36*
X14649571Y6945693D02*
X14649933Y6941384D01*
X14650536Y6937303D01*
X14651379Y6933451D01*
X14652466Y6929828D01*
X14653793Y6926434D01*
X14655362Y6923268D01*
X14657172Y6920332D01*
X14659222Y6917623D01*
X14661514Y6915144D01*
X14599284D01*
X14601578Y6917623D01*
X14603629Y6920332D01*
X14605438Y6923268D01*
X14607007Y6926434D01*
X14608334Y6929828D01*
X14609419Y6933451D01*
X14610265Y6937303D01*
X14610867Y6941384D01*
X14611229Y6945693D01*
X14611349Y6950231D01*
X14649451D01*
X14649571Y6945693D01*
D02*
G37*
G36*
X8675981Y6810050D02*
X8669167Y6816748D01*
X8656115Y6828027D01*
X8649877Y6832610D01*
X8643832Y6836487D01*
X8637979Y6839660D01*
X8632318Y6842128D01*
X8626849Y6843890D01*
X8621572Y6844947D01*
X8616488Y6845300D01*
Y6870700D01*
X8621572Y6871053D01*
X8626849Y6872110D01*
X8632318Y6873872D01*
X8637979Y6876340D01*
X8643832Y6879513D01*
X8649877Y6883390D01*
X8656115Y6887973D01*
X8662545Y6893260D01*
X8675981Y6905950D01*
Y6810050D01*
D02*
G37*
G36*
X6672433Y6899252D02*
X6685485Y6887973D01*
X6691723Y6883390D01*
X6697768Y6879513D01*
X6703621Y6876340D01*
X6709282Y6873872D01*
X6714751Y6872110D01*
X6720028Y6871053D01*
X6725112Y6870700D01*
Y6845300D01*
X6720028Y6844947D01*
X6714751Y6843890D01*
X6709282Y6842128D01*
X6703621Y6839660D01*
X6697768Y6836487D01*
X6691723Y6832610D01*
X6685485Y6828027D01*
X6679055Y6822740D01*
X6665619Y6810050D01*
Y6905950D01*
X6672433Y6899252D01*
D02*
G37*
G36*
X8506736Y6911443D02*
X8524875Y6895347D01*
X8533351Y6888808D01*
X8541431Y6883275D01*
X8549116Y6878748D01*
X8556406Y6875227D01*
X8563299Y6872712D01*
X8569797Y6871203D01*
X8575899Y6870700D01*
Y6845300D01*
X8569797Y6844797D01*
X8563299Y6843288D01*
X8556406Y6840773D01*
X8549116Y6837252D01*
X8541431Y6832725D01*
X8533351Y6827192D01*
X8524875Y6820653D01*
X8506736Y6804557D01*
X8497073Y6795000D01*
Y6921000D01*
X8506736Y6911443D01*
D02*
G37*
G36*
X6844527Y6795000D02*
X6834864Y6804557D01*
X6816725Y6820653D01*
X6808249Y6827192D01*
X6800169Y6832725D01*
X6792484Y6837252D01*
X6785194Y6840773D01*
X6778301Y6843288D01*
X6771803Y6844797D01*
X6765701Y6845300D01*
Y6870700D01*
X6771803Y6871203D01*
X6778301Y6872712D01*
X6785194Y6875227D01*
X6792484Y6878748D01*
X6800169Y6883275D01*
X6808249Y6888808D01*
X6816725Y6895347D01*
X6834864Y6911443D01*
X6844527Y6921000D01*
Y6795000D01*
D02*
G37*
G36*
X8675981Y6556050D02*
X8669167Y6562748D01*
X8656115Y6574027D01*
X8649877Y6578610D01*
X8643832Y6582487D01*
X8637979Y6585660D01*
X8632318Y6588128D01*
X8626849Y6589890D01*
X8621572Y6590947D01*
X8616488Y6591300D01*
Y6616700D01*
X8621572Y6617053D01*
X8626849Y6618110D01*
X8632318Y6619872D01*
X8637979Y6622340D01*
X8643832Y6625513D01*
X8649877Y6629390D01*
X8656115Y6633973D01*
X8662545Y6639260D01*
X8675981Y6651950D01*
Y6556050D01*
D02*
G37*
G36*
X6672433Y6645252D02*
X6685485Y6633973D01*
X6691723Y6629390D01*
X6697768Y6625513D01*
X6703621Y6622340D01*
X6709282Y6619872D01*
X6714751Y6618110D01*
X6720028Y6617053D01*
X6725112Y6616700D01*
Y6591300D01*
X6720028Y6590947D01*
X6714751Y6589890D01*
X6709282Y6588128D01*
X6703621Y6585660D01*
X6697768Y6582487D01*
X6691723Y6578610D01*
X6685485Y6574027D01*
X6679055Y6568740D01*
X6665619Y6556050D01*
Y6651950D01*
X6672433Y6645252D01*
D02*
G37*
G36*
X8506736Y6657443D02*
X8524875Y6641347D01*
X8533351Y6634808D01*
X8541431Y6629275D01*
X8549116Y6624748D01*
X8556406Y6621227D01*
X8563299Y6618712D01*
X8569797Y6617203D01*
X8575899Y6616700D01*
Y6591300D01*
X8569797Y6590797D01*
X8563299Y6589288D01*
X8556406Y6586773D01*
X8549116Y6583252D01*
X8541431Y6578725D01*
X8533351Y6573192D01*
X8524875Y6566653D01*
X8506736Y6550557D01*
X8497073Y6541000D01*
Y6667000D01*
X8506736Y6657443D01*
D02*
G37*
G36*
X6844527Y6541000D02*
X6834864Y6550557D01*
X6816725Y6566653D01*
X6808249Y6573192D01*
X6800169Y6578725D01*
X6792484Y6583252D01*
X6785194Y6586773D01*
X6778301Y6589288D01*
X6771803Y6590797D01*
X6765701Y6591300D01*
Y6616700D01*
X6771803Y6617203D01*
X6778301Y6618712D01*
X6785194Y6621227D01*
X6792484Y6624748D01*
X6800169Y6629275D01*
X6808249Y6634808D01*
X6816725Y6641347D01*
X6834864Y6657443D01*
X6844527Y6667000D01*
Y6541000D01*
D02*
G37*
G36*
X8230184Y6022521D02*
X8231937Y6015373D01*
X8234858Y6007718D01*
X8238947Y5999557D01*
X8244205Y5990890D01*
X8250631Y5981716D01*
X8258226Y5972036D01*
X8276920Y5951156D01*
X8288020Y5939957D01*
X8145780D01*
X8156880Y5951156D01*
X8183169Y5981716D01*
X8189595Y5990890D01*
X8194853Y5999557D01*
X8198942Y6007718D01*
X8201863Y6015373D01*
X8203616Y6022521D01*
X8204200Y6029163D01*
X8229600D01*
X8230184Y6022521D01*
D02*
G37*
G36*
X8383306Y5986481D02*
X8389600Y5982665D01*
X8397078Y5979318D01*
X8405740Y5976439D01*
X8415587Y5974028D01*
X8426618Y5972085D01*
X8438833Y5970611D01*
X8466816Y5969065D01*
X8482584Y5968995D01*
X8382005Y5868416D01*
X8381935Y5884184D01*
X8378915Y5924382D01*
X8376972Y5935413D01*
X8374561Y5945260D01*
X8371682Y5953922D01*
X8368335Y5961400D01*
X8364519Y5967694D01*
X8360236Y5972804D01*
X8378196Y5990764D01*
X8383306Y5986481D01*
D02*
G37*
%LPC*%
G36*
X12635168Y12185650D02*
X12612432D01*
X12591427Y12176949D01*
X12575351Y12160873D01*
X12566650Y12139868D01*
Y12117132D01*
X12575351Y12096127D01*
X12591427Y12080051D01*
X12612432Y12071350D01*
X12635168D01*
X12656173Y12080051D01*
X12672249Y12096127D01*
X12680950Y12117132D01*
Y12139868D01*
X12672249Y12160873D01*
X12656173Y12176949D01*
X12635168Y12185650D01*
D02*
G37*
G36*
X12076368Y11944350D02*
X12053632D01*
X12032627Y11935649D01*
X12016551Y11919573D01*
X12007850Y11898568D01*
Y11875832D01*
X12016551Y11854827D01*
X12032627Y11838751D01*
X12053632Y11830050D01*
X12076368D01*
X12097373Y11838751D01*
X12113449Y11854827D01*
X12122150Y11875832D01*
Y11898568D01*
X12113449Y11919573D01*
X12097373Y11935649D01*
X12076368Y11944350D01*
D02*
G37*
G36*
X12876468Y11995150D02*
X12853732D01*
X12832727Y11986449D01*
X12816650Y11970373D01*
X12807950Y11949368D01*
Y11926632D01*
X12816650Y11905627D01*
X12826781Y11895497D01*
X12831413Y11887200D01*
X12826781Y11878903D01*
X12816650Y11868773D01*
X12807950Y11847768D01*
Y11825032D01*
X12816650Y11804027D01*
X12826781Y11793897D01*
X12831413Y11785600D01*
X12826781Y11777303D01*
X12816650Y11767173D01*
X12807950Y11746168D01*
Y11723432D01*
X12816650Y11702427D01*
X12826781Y11692297D01*
X12831413Y11684000D01*
X12826781Y11675703D01*
X12816650Y11665573D01*
X12807950Y11644568D01*
Y11621832D01*
X12816650Y11600827D01*
X12826781Y11590697D01*
X12831413Y11582400D01*
X12826781Y11574103D01*
X12816650Y11563973D01*
X12807950Y11542968D01*
Y11520232D01*
X12816650Y11499227D01*
X12832727Y11483151D01*
X12853732Y11474450D01*
X12876468D01*
X12897473Y11483151D01*
X12913548Y11499227D01*
X12922250Y11520232D01*
Y11542968D01*
X12913548Y11563973D01*
X12903419Y11574103D01*
X12898785Y11582400D01*
X12903419Y11590697D01*
X12913548Y11600827D01*
X12922250Y11621832D01*
Y11644568D01*
X12913548Y11665573D01*
X12903419Y11675703D01*
X12898785Y11684000D01*
X12903419Y11692297D01*
X12913548Y11702427D01*
X12922250Y11723432D01*
Y11746168D01*
X12913548Y11767173D01*
X12903419Y11777303D01*
X12898785Y11785600D01*
X12903419Y11793897D01*
X12913548Y11804027D01*
X12922250Y11825032D01*
Y11847768D01*
X12913548Y11868773D01*
X12903419Y11878903D01*
X12898785Y11887200D01*
X12903419Y11895497D01*
X12913548Y11905627D01*
X12922250Y11926632D01*
Y11949368D01*
X12913548Y11970373D01*
X12897473Y11986449D01*
X12876468Y11995150D01*
D02*
G37*
G36*
Y11296650D02*
X12853732D01*
X12832727Y11287949D01*
X12816650Y11271873D01*
X12807950Y11250868D01*
Y11228132D01*
X12816650Y11207127D01*
X12832727Y11191051D01*
X12853732Y11182350D01*
X12876468D01*
X12897473Y11191051D01*
X12913548Y11207127D01*
X12922250Y11228132D01*
Y11250868D01*
X12913548Y11271873D01*
X12897473Y11287949D01*
X12876468Y11296650D01*
D02*
G37*
G36*
X12304968Y10814050D02*
X12282232D01*
X12261227Y10805349D01*
X12245151Y10789273D01*
X12236450Y10768268D01*
Y10745532D01*
X12245151Y10724527D01*
X12261227Y10708451D01*
X12282232Y10699750D01*
X12304968D01*
X12325973Y10708451D01*
X12342049Y10724527D01*
X12350750Y10745532D01*
Y10768268D01*
X12342049Y10789273D01*
X12325973Y10805349D01*
X12304968Y10814050D01*
D02*
G37*
G36*
X15934468Y11995150D02*
X15911732D01*
X15890727Y11986449D01*
X15874651Y11970373D01*
X15865950Y11949368D01*
Y11926632D01*
X15874651Y11905627D01*
X15884781Y11895497D01*
X15889413Y11887200D01*
X15884781Y11878903D01*
X15874651Y11868773D01*
X15865950Y11847768D01*
Y11825032D01*
X15874651Y11804027D01*
X15884781Y11793897D01*
X15889413Y11785600D01*
X15884781Y11777303D01*
X15874651Y11767173D01*
X15865950Y11746168D01*
Y11723432D01*
X15874651Y11702427D01*
X15884781Y11692297D01*
X15889413Y11684000D01*
X15884781Y11675703D01*
X15874651Y11665573D01*
X15865950Y11644568D01*
Y11621832D01*
X15874651Y11600827D01*
X15884781Y11590697D01*
X15889413Y11582400D01*
X15884781Y11574103D01*
X15874651Y11563973D01*
X15865950Y11542968D01*
Y11520232D01*
X15874651Y11499227D01*
X15890727Y11483151D01*
X15911732Y11474450D01*
X15934468D01*
X15955473Y11483151D01*
X15971548Y11499227D01*
X15980251Y11520232D01*
Y11542968D01*
X15971548Y11563973D01*
X15961420Y11574103D01*
X15956786Y11582400D01*
X15961420Y11590697D01*
X15971548Y11600827D01*
X15980251Y11621832D01*
Y11644568D01*
X15971548Y11665573D01*
X15961420Y11675703D01*
X15956786Y11684000D01*
X15961420Y11692297D01*
X15971548Y11702427D01*
X15980251Y11723432D01*
Y11746168D01*
X15971548Y11767173D01*
X15961420Y11777303D01*
X15956786Y11785600D01*
X15961420Y11793897D01*
X15971548Y11804027D01*
X15980251Y11825032D01*
Y11847768D01*
X15971548Y11868773D01*
X15961420Y11878903D01*
X15956786Y11887200D01*
X15961420Y11895497D01*
X15971548Y11905627D01*
X15980251Y11926632D01*
Y11949368D01*
X15971548Y11970373D01*
X15955473Y11986449D01*
X15934468Y11995150D01*
D02*
G37*
G36*
Y11296650D02*
X15911732D01*
X15890727Y11287949D01*
X15874651Y11271873D01*
X15865950Y11250868D01*
Y11228132D01*
X15874651Y11207127D01*
X15890727Y11191051D01*
X15911732Y11182350D01*
X15934468D01*
X15955473Y11191051D01*
X15971548Y11207127D01*
X15980251Y11228132D01*
Y11250868D01*
X15971548Y11271873D01*
X15955473Y11287949D01*
X15934468Y11296650D01*
D02*
G37*
G36*
X15354567Y10811826D02*
X15331831D01*
X15310828Y10803125D01*
X15294749Y10787049D01*
X15286050Y10766044D01*
Y10743308D01*
X15294749Y10722303D01*
X15310828Y10706226D01*
X15331831Y10697526D01*
X15354567D01*
X15375574Y10706226D01*
X15391649Y10722303D01*
X15400349Y10743308D01*
Y10766044D01*
X15391649Y10787049D01*
X15375574Y10803125D01*
X15354567Y10811826D01*
D02*
G37*
%LPD*%
D55*
X14630400Y6883400D02*
Y7670800D01*
X14554201Y7747000D02*
X14630400Y7670800D01*
D56*
X17284700Y13512801D02*
X18418600Y12378900D01*
Y12166048D02*
Y12378900D01*
Y12166048D02*
X18572800Y12011848D01*
X16662399Y13347701D02*
X18338800Y11671300D01*
X12522200Y13474699D02*
X12649200Y13347701D01*
X16662399D01*
X18338800Y11671300D02*
X18960689D01*
X19062700Y11221764D02*
Y11569289D01*
X18960689Y11671300D02*
X19062700Y11569289D01*
X18822803Y10981867D02*
X19062700Y11221764D01*
X12776200Y13572316D02*
Y13792200D01*
Y13572316D02*
X12835716Y13512801D01*
X17284700D01*
X12522200Y13474699D02*
Y13792200D01*
X18822803Y10967146D02*
Y10981867D01*
D57*
X18872200Y7696200D02*
X19062700Y7886700D01*
X18897600Y9613900D02*
X19062700Y9448800D01*
Y7886700D02*
Y9448800D01*
X18402299Y7696200D02*
X18872200D01*
X17139700Y6433601D02*
X18402299Y7696200D01*
X10139899Y6382801D02*
X17203201D01*
X18440401Y7620000D02*
X18897600D01*
X17203201Y6382801D02*
X18440401Y7620000D01*
X13258800Y8458200D02*
X13652499Y8064499D01*
X10241499Y6433601D02*
X17139700D01*
X8991600Y7683500D02*
X10241499Y6433601D01*
X8902700Y7620000D02*
X10139899Y6382801D01*
X17191548Y12598400D02*
X18572800Y11217148D01*
X11692793Y12598400D02*
X17191548D01*
X11633200Y12541250D02*
X11635643D01*
X11692793Y12598400D01*
X8280400Y11442700D02*
X9981934D01*
X12901677Y8522957D01*
X7975600Y11747500D02*
X8280400Y11442700D01*
X7759700Y12065000D02*
X8331200Y11493500D01*
X10058400D01*
X13093700Y8458200D01*
X13538200Y7886700D02*
X13639799D01*
X13449300Y7797800D02*
X13538200Y7886700D01*
X10033000Y7797800D02*
X13449300D01*
X14960300Y8077500D02*
X15392400Y7645400D01*
Y7513736D02*
Y7645400D01*
X9258300Y12458700D02*
X12953999Y8763000D01*
X15563850D02*
X15716251Y8610600D01*
X12953999Y8763000D02*
X15563850D01*
X8382000Y11544300D02*
X10100858D01*
X13034558Y8610600D02*
X13512801D01*
X10100858Y11544300D02*
X13034558Y8610600D01*
X13512801D02*
X14045900Y8077500D01*
X9455150Y8909050D02*
Y9709150D01*
Y8909050D02*
X9994900Y8369300D01*
X8826500Y10337800D02*
X9455150Y9709150D01*
X14045900Y8077500D02*
X14960300D01*
X15716251Y8610600D02*
X16586200D01*
X17080280Y8116521D01*
X7543800Y12065000D02*
X7759700D01*
X10668000Y8369300D02*
X10744200Y8445500D01*
X11811000D01*
X10363200Y8540750D02*
X11772377D01*
X11804127Y8572500D01*
X11811000D01*
X10160000Y8369300D02*
X10668000D01*
X9994900D02*
X10160000D01*
X8636000Y10337800D02*
X8826500D01*
X7543800Y11430000D02*
X8636000Y10337800D01*
X8991600Y7683500D02*
Y8369300D01*
X8724900Y8636000D02*
X8991600Y8369300D01*
X8432800Y8636000D02*
X8724900D01*
X8797054Y8360646D02*
X8902700Y8255000D01*
Y7620000D02*
Y8255000D01*
X8724900Y8382000D02*
X8746254Y8360646D01*
X8797054D01*
X8432800Y8382000D02*
X8724900D01*
X6629400Y7112000D02*
X6908800D01*
X6629400Y6858000D02*
X6908800D01*
X6629400Y6604000D02*
X6908800D01*
X13093700Y8458200D02*
X13258800D01*
X9258300Y12458700D02*
Y13423900D01*
X7543800Y11747500D02*
X7975600D01*
X7543800Y12382500D02*
X8382000Y11544300D01*
X8216900Y5867400D02*
Y8420100D01*
X8432800Y8636000D01*
X8280400Y6070600D02*
Y8229600D01*
X17080280Y8116521D02*
X17512079D01*
X17513300Y8115300D01*
X17741901D01*
X18402299Y9804400D02*
Y10046650D01*
X18572800Y10217150D01*
X8432800Y6604000D02*
X8724900D01*
X8432800Y6858000D02*
X8724900D01*
X8432800Y7112000D02*
X8724900D01*
X8432800Y7366000D02*
X8724900D01*
X8432800Y7620000D02*
X8724900D01*
X8432800Y7874000D02*
X8724900D01*
X8432800Y8128000D02*
X8724900D01*
X8432800Y8890000D02*
X8724900D01*
X8432800Y9144000D02*
X8724900D01*
X8432800Y9398000D02*
X8724900D01*
X8432800Y9652000D02*
X8724900D01*
X8432800Y9906000D02*
X8724900D01*
X6629400Y7366000D02*
X6908800D01*
X6629400Y7620000D02*
X6908800D01*
X6629400Y7874000D02*
X6908800D01*
X6629400Y8128000D02*
X6908800D01*
X6629400Y8382000D02*
X6908800D01*
X6629400Y8636000D02*
X6908800D01*
X6629400Y8890000D02*
X6908800D01*
X6629400Y9144000D02*
X6908800D01*
X6629400Y9398000D02*
X6908800D01*
X6629400Y9652000D02*
X6908800D01*
X6629400Y9906000D02*
X6908800D01*
X6629400Y10160000D02*
X6908800D01*
Y9652000D02*
X8432800D01*
X8280400Y6070600D02*
X8483600Y5867400D01*
X8280400Y8229600D02*
X8432800Y8382000D01*
X18897600Y7620000D02*
X19113499Y7835900D01*
X18402299Y9804400D02*
X18592799Y9613900D01*
X18897600D01*
X18839174Y10217150D02*
X19113499Y9942824D01*
Y7835900D02*
Y9942824D01*
X18822803Y10217150D02*
X18839174D01*
X8036152Y13433652D02*
X8343900Y13741400D01*
X8036152Y13192352D02*
Y13433652D01*
X8343900Y13741400D02*
X8940800D01*
X7543800Y12700000D02*
X8036152Y13192352D01*
X8940800Y13741400D02*
X9258300Y13423900D01*
D59*
X14185899Y12420600D02*
X17233900D01*
X11864634Y12471400D02*
X14135100D01*
X14185899Y12420600D01*
X11813834D02*
X11864634Y12471400D01*
X18414999Y10624947D02*
Y11239500D01*
X17233900Y12420600D02*
X18414999Y11239500D01*
X11150600Y12420600D02*
X11813834D01*
X10960100Y12230100D02*
X11150600Y12420600D01*
X9795137Y12230100D02*
X10960100D01*
X18414999Y10624947D02*
X18572800Y10467147D01*
D62*
X12268200Y13233400D02*
D03*
Y12979401D02*
D03*
Y13792200D02*
D03*
X12522200D02*
D03*
D63*
X12268200Y12725400D02*
D03*
D64*
X12776200Y13792200D02*
D03*
D65*
X13358000Y8963900D02*
D03*
Y9163900D02*
D03*
X11988000Y8913900D02*
D03*
Y9113900D02*
D03*
X9479900Y11151400D02*
D03*
X9279900D02*
D03*
X9529900Y8581400D02*
D03*
X9329900D02*
D03*
D66*
X8432800Y10160000D02*
D03*
Y9906000D02*
D03*
Y9652000D02*
D03*
Y9398000D02*
D03*
Y9144000D02*
D03*
Y8890000D02*
D03*
Y8636000D02*
D03*
Y8382000D02*
D03*
Y8128000D02*
D03*
Y7874000D02*
D03*
Y7620000D02*
D03*
Y7366000D02*
D03*
Y7112000D02*
D03*
Y6858000D02*
D03*
Y6604000D02*
D03*
X6908800D02*
D03*
Y6858000D02*
D03*
Y7112000D02*
D03*
Y7366000D02*
D03*
Y7620000D02*
D03*
Y7874000D02*
D03*
Y8128000D02*
D03*
Y8382000D02*
D03*
Y8636000D02*
D03*
Y8890000D02*
D03*
Y9144000D02*
D03*
Y9398000D02*
D03*
Y9652000D02*
D03*
Y9906000D02*
D03*
Y10160000D02*
D03*
D68*
X18135600Y8293100D02*
D03*
X6858000Y13525500D02*
D03*
Y5778500D02*
D03*
X17843500Y13525500D02*
D03*
X17602200Y5778500D02*
D03*
X18021300Y10160000D02*
D03*
X9461500Y5778500D02*
D03*
D69*
X19545300Y7370249D02*
D03*
Y5872749D02*
D03*
Y11459647D02*
D03*
Y9962149D02*
D03*
Y9414949D02*
D03*
Y7917449D02*
D03*
Y13504347D02*
D03*
Y12006849D02*
D03*
D70*
X18822800Y5877749D02*
D03*
Y6127749D02*
D03*
Y6377749D02*
D03*
Y6627749D02*
D03*
Y6877749D02*
D03*
Y7127749D02*
D03*
Y7377749D02*
D03*
X18572800Y5877749D02*
D03*
Y6127749D02*
D03*
Y6377749D02*
D03*
Y6627749D02*
D03*
Y6877749D02*
D03*
Y7127749D02*
D03*
Y7377749D02*
D03*
X18822803Y9967148D02*
D03*
Y10217150D02*
D03*
Y10467147D02*
D03*
Y10717149D02*
D03*
Y10967146D02*
D03*
Y11217148D02*
D03*
Y11467150D02*
D03*
X18572800Y9967148D02*
D03*
Y10217150D02*
D03*
Y10467147D02*
D03*
Y10717149D02*
D03*
Y10967146D02*
D03*
Y11217148D02*
D03*
Y11467150D02*
D03*
X18822800Y7922449D02*
D03*
Y8172449D02*
D03*
Y8422449D02*
D03*
Y8672449D02*
D03*
Y8922449D02*
D03*
Y9172449D02*
D03*
Y9422449D02*
D03*
X18572800Y7922449D02*
D03*
Y8172449D02*
D03*
Y8422449D02*
D03*
Y8672449D02*
D03*
Y8922449D02*
D03*
Y9172449D02*
D03*
Y9422449D02*
D03*
X18822803Y12011848D02*
D03*
Y12261850D02*
D03*
Y12511847D02*
D03*
Y12761849D02*
D03*
Y13011845D02*
D03*
Y13261848D02*
D03*
Y13511850D02*
D03*
X18572800Y12011848D02*
D03*
Y12261850D02*
D03*
Y12511847D02*
D03*
Y12761849D02*
D03*
Y13011845D02*
D03*
Y13261848D02*
D03*
Y13511850D02*
D03*
D71*
X6616700Y10160000D02*
D03*
X8724900D02*
D03*
D72*
X6616700Y9906000D02*
D03*
Y9652000D02*
D03*
Y9398000D02*
D03*
Y9144000D02*
D03*
Y8890000D02*
D03*
Y8636000D02*
D03*
Y8382000D02*
D03*
Y8128000D02*
D03*
Y7874000D02*
D03*
Y7620000D02*
D03*
Y7366000D02*
D03*
Y7112000D02*
D03*
Y6858000D02*
D03*
Y6604000D02*
D03*
X8724900Y9906000D02*
D03*
Y9652000D02*
D03*
Y9398000D02*
D03*
Y9144000D02*
D03*
Y8890000D02*
D03*
Y8636000D02*
D03*
Y8382000D02*
D03*
Y8128000D02*
D03*
Y7874000D02*
D03*
Y7620000D02*
D03*
Y7366000D02*
D03*
Y7112000D02*
D03*
Y6858000D02*
D03*
Y6604000D02*
D03*
D73*
X8674100Y12090400D02*
D03*
Y13208000D02*
D03*
D74*
X6725369Y11120947D02*
D03*
X15125700Y13106400D02*
D03*
X8216900Y5867400D02*
D03*
X8483600D02*
D03*
D75*
X7543800Y12382500D02*
D03*
Y12065000D02*
D03*
Y12700000D02*
D03*
Y11430000D02*
D03*
Y13017500D02*
D03*
Y11747500D02*
D03*
D76*
X18328648Y9626100D02*
D03*
X18287500Y12215852D02*
D03*
X18250400Y7260901D02*
D03*
X10645148Y9295900D02*
D03*
X18134052Y11252700D02*
D03*
X18251401Y5994597D02*
D03*
X18252138Y6763662D02*
D03*
X18288499Y13006348D02*
D03*
X18250400Y13395952D02*
D03*
X18249899Y13144501D02*
D03*
D77*
X9836150Y8096250D02*
D03*
X9613900Y7747000D02*
D03*
X9609159Y7884352D02*
D03*
X10152000Y8786791D02*
D03*
X14617700Y13201649D02*
D03*
X17110193Y13070532D02*
D03*
X17107375Y12698236D02*
D03*
X14554201Y7747000D02*
D03*
X14630400Y6883400D02*
D03*
X14428157Y7100257D02*
D03*
X15563982Y12209263D02*
D03*
X16472375Y12325350D02*
D03*
X14033501D02*
D03*
X13182600D02*
D03*
X14295529Y12515850D02*
D03*
X15502705D02*
D03*
X17107375Y12325350D02*
D03*
X13398500D02*
D03*
X12688534Y12347121D02*
D03*
X16256474Y12325350D02*
D03*
X15571851Y12695696D02*
D03*
X13671220Y7666695D02*
D03*
X13670200Y7223476D02*
D03*
X13672501Y7439376D02*
D03*
X15509798Y10435322D02*
D03*
X15521672Y10105948D02*
D03*
X8075547Y5677540D02*
D03*
X7416800Y5930900D02*
D03*
X7778252Y5945106D02*
D03*
X14130791Y8674049D02*
D03*
X13813290D02*
D03*
X10420350Y8064500D02*
D03*
X12598400Y8204200D02*
D03*
X13398500Y8479790D02*
D03*
X16118631Y6858000D02*
D03*
Y7099300D02*
D03*
Y7340600D02*
D03*
X16116330Y7556500D02*
D03*
X14198599Y7327900D02*
D03*
X17794026Y7457915D02*
D03*
X17578127D02*
D03*
X17094200Y6705600D02*
D03*
Y6934200D02*
D03*
X15806133Y8086100D02*
D03*
X15577531D02*
D03*
X15348932D02*
D03*
X15571851Y13065173D02*
D03*
X16817336Y9145770D02*
D03*
Y9463270D02*
D03*
Y9780770D02*
D03*
Y10098270D02*
D03*
Y10415770D02*
D03*
X15531889Y9143230D02*
D03*
Y9460730D02*
D03*
Y9778230D02*
D03*
X14375790Y10190857D02*
D03*
X13665199Y9943621D02*
D03*
X13810750D02*
D03*
X14128250D02*
D03*
X13743462Y10098270D02*
D03*
Y10415770D02*
D03*
X12473889Y9778230D02*
D03*
Y10095730D02*
D03*
Y10413230D02*
D03*
X12513850Y12696325D02*
D03*
Y13065759D02*
D03*
X14033501Y12700000D02*
D03*
Y13068300D02*
D03*
X14909801Y12280900D02*
D03*
X16814799Y8166100D02*
D03*
X15963901Y8318500D02*
D03*
X11734800D02*
D03*
X14655800Y7975600D02*
D03*
X14427200Y7797800D02*
D03*
X13398500Y7457915D02*
D03*
X12839700Y6718300D02*
D03*
Y6946900D02*
D03*
X17614900Y12979401D02*
D03*
X10363200Y8540750D02*
D03*
X10152000Y8369300D02*
D03*
X14661018Y12714100D02*
D03*
X9318656Y6770378D02*
D03*
X9829800Y8737600D02*
D03*
X10033000Y7213600D02*
D03*
X12017000Y11240538D02*
D03*
X15051674D02*
D03*
X12268200Y11887200D02*
D03*
X15341600D02*
D03*
X15159425Y12714100D02*
D03*
X7663700Y7754100D02*
D03*
X7652500Y7373100D02*
D03*
X7467600Y7569200D02*
D03*
X7848600Y7558000D02*
D03*
X7658100Y7563600D02*
D03*
X16256474Y13067628D02*
D03*
X16472375D02*
D03*
Y12698193D02*
D03*
X16256474D02*
D03*
X11633200Y12541250D02*
D03*
X13182600Y12698865D02*
D03*
X13398500D02*
D03*
Y13068300D02*
D03*
X13182600D02*
D03*
X9831566Y12047716D02*
D03*
X11569700Y10871200D02*
D03*
X11303000D02*
D03*
X11169650Y10807700D02*
D03*
X11036300Y10871200D02*
D03*
X11436350Y10807700D02*
D03*
X10963201Y12007850D02*
D03*
X9791700Y12230100D02*
D03*
X10960100D02*
D03*
X10033000Y7797800D02*
D03*
X7035800Y10896600D02*
D03*
X7340600Y11163300D02*
D03*
X17513300Y12979401D02*
D03*
X17614900Y12877800D02*
D03*
X17513300D02*
D03*
X11436350Y11061700D02*
D03*
Y10934700D02*
D03*
X11569700Y10998200D02*
D03*
Y11125200D02*
D03*
X11169650Y10934700D02*
D03*
Y11061700D02*
D03*
X11036300Y11125200D02*
D03*
Y10998200D02*
D03*
X11303000D02*
D03*
Y11125200D02*
D03*
D78*
X9309100Y6654800D02*
D03*
X16922365Y12512227D02*
D03*
X9170479Y6592207D02*
D03*
X15544800Y7518400D02*
D03*
X15392400D02*
D03*
X15544800Y7175500D02*
D03*
X15379700D02*
D03*
X17741901Y8115300D02*
D03*
X17513300D02*
D03*
X13639799Y7886700D02*
D03*
Y8064499D02*
D03*
X11811000Y8445500D02*
D03*
Y8572500D02*
D03*
X11810398Y12420600D02*
D03*
X12065000Y11887200D02*
D03*
X9017000Y9169400D02*
D03*
X8953500Y6692900D02*
D03*
X9677400Y6489700D02*
D03*
X12901677Y8522957D02*
D03*
X12293600Y10756900D02*
D03*
X15343201Y10754676D02*
D03*
X16922365Y12881705D02*
D03*
X15845799Y10846300D02*
D03*
X15642599D02*
D03*
X15923100Y11239500D02*
D03*
Y11531600D02*
D03*
Y11633200D02*
D03*
Y11734800D02*
D03*
Y11836400D02*
D03*
Y11938000D02*
D03*
X15342368Y11439393D02*
D03*
X12865100Y11239500D02*
D03*
Y11531600D02*
D03*
Y11633200D02*
D03*
Y11734800D02*
D03*
Y11836400D02*
D03*
Y11938000D02*
D03*
X12623800Y12128500D02*
D03*
X14594299Y12092400D02*
D03*
X12584600Y10846300D02*
D03*
X12787800D02*
D03*
X12284367Y11439393D02*
D03*
D79*
X8839200Y11303000D02*
D03*
X8686800D02*
D03*
X8991600D02*
D03*
X14899863Y9296400D02*
D03*
X13995399Y8559800D02*
D03*
X14899863Y8864600D02*
D03*
X10223500Y9956800D02*
D03*
X10134600Y9779000D02*
D03*
X10223500Y9601200D02*
D03*
X10134600Y9423400D02*
D03*
X10045700Y9956800D02*
D03*
X9956800Y9779000D02*
D03*
X10045700Y9601200D02*
D03*
X9956800Y9423400D02*
D03*
X9867900Y9956800D02*
D03*
X9779000Y9779000D02*
D03*
X9867900Y9601200D02*
D03*
X9779000Y9423400D02*
D03*
X9690100Y9956800D02*
D03*
Y9601200D02*
D03*
X8978900Y9956800D02*
D03*
Y9601200D02*
D03*
X16192500Y8890000D02*
D03*
Y8712200D02*
D03*
X16179800Y9779000D02*
D03*
Y9461500D02*
D03*
Y10096500D02*
D03*
X8686800Y10744200D02*
D03*
X8839200D02*
D03*
X8991600D02*
D03*
X8686800Y11023600D02*
D03*
X8839200D02*
D03*
X8991600D02*
D03*
X14401801Y9296400D02*
D03*
X13970000D02*
D03*
X8915400Y10604500D02*
D03*
Y10883900D02*
D03*
Y11163300D02*
D03*
X8763000Y10604500D02*
D03*
Y11163300D02*
D03*
Y10883900D02*
D03*
X8610600Y10604500D02*
D03*
Y11163300D02*
D03*
Y10883900D02*
D03*
X11671300Y12814301D02*
D03*
Y13373100D02*
D03*
Y13093700D02*
D03*
Y13652499D02*
D03*
X11836400Y12814301D02*
D03*
Y13652499D02*
D03*
Y13373100D02*
D03*
Y13093700D02*
D03*
D80*
X16446500Y7428000D02*
D03*
X16326500D02*
D03*
X16446500Y7558000D02*
D03*
X16556500D02*
D03*
X16556500Y7428000D02*
D03*
X16326500Y7558000D02*
D03*
X12230100Y7428000D02*
D03*
X12110100D02*
D03*
X12230100Y7558000D02*
D03*
X12340100D02*
D03*
X12340100Y7428000D02*
D03*
X12110100Y7558000D02*
D03*
D81*
X7505700Y7010400D02*
D03*
X8102600Y6591300D02*
D03*
D104*
X13347701Y10718800D02*
X14998700D01*
%TF.MD5,e0bfa5be97b5b339a2bbab30109d1cff*%
M02*
