%TF.GenerationSoftware,Altium Limited,Altium Designer,24.1.2 (44)*%
G04 Layer_Physical_Order=3*
G04 Layer_Color=36540*
%FSLAX45Y45*%
%MOMM*%
%TF.SameCoordinates,12E9634C-A8E6-484A-B1C3-FEDB1742B245*%
%TF.FilePolarity,Positive*%
%TF.FileFunction,Copper,L3,Inr,Signal*%
%TF.Part,Single*%
G01*
G75*
%TA.AperFunction,Conductor*%
%ADD59C,0.25400*%
%ADD61C,1.01600*%
%ADD64C,0.50800*%
%TA.AperFunction,ComponentPad*%
%ADD68R,1.55000X1.55000*%
%ADD69C,1.55000*%
%ADD70C,9.50000*%
%ADD71C,1.56000*%
%ADD72C,2.10000*%
%ADD73R,1.37000X1.37000*%
%ADD74C,1.37000*%
%ADD75C,1.80000*%
%ADD77C,6.10000*%
%ADD78C,1.30000*%
%ADD79C,2.03200*%
%TA.AperFunction,TestPad*%
%ADD80C,2.03200*%
%TA.AperFunction,ViaPad*%
%ADD81C,0.88900*%
%ADD82C,0.63500*%
%ADD83C,1.27000*%
%ADD84C,1.14300*%
%ADD85C,0.76200*%
%ADD86C,0.50000*%
%ADD87C,0.71120*%
G36*
X12531537Y13335995D02*
X12511391Y13315134D01*
X12479720Y13277739D01*
X12468194Y13261206D01*
X12459543Y13246117D01*
X12453765Y13232469D01*
X12450861Y13220265D01*
X12450830Y13209505D01*
X12453674Y13200186D01*
X12459390Y13192311D01*
X12316011Y13335690D01*
X12323886Y13329974D01*
X12333204Y13327130D01*
X12343965Y13327161D01*
X12356169Y13330064D01*
X12369817Y13335843D01*
X12384906Y13344495D01*
X12401439Y13356020D01*
X12419415Y13370419D01*
X12459695Y13407837D01*
X12531537Y13335995D01*
D02*
G37*
G36*
X12492313Y12981279D02*
X12433371Y12896536D01*
X12427106Y12902718D01*
X12403369Y12923537D01*
X12400139Y12925682D01*
X12397415Y12927155D01*
X12395197Y12927956D01*
X12393485Y12928082D01*
X12459422Y13014249D01*
X12492313Y12981279D01*
D02*
G37*
G36*
X11950700Y13652499D02*
Y12788900D01*
X11849100Y12687300D01*
X9359900D01*
X9296400Y12750800D01*
Y13677901D01*
X9499600Y13881100D01*
X11722100D01*
X11950700Y13652499D01*
D02*
G37*
G36*
X11595100Y12369800D02*
X11595100Y11836400D01*
Y11442700D01*
X11430000Y11277600D01*
X11036300D01*
X10845800Y11087100D01*
X9994900D01*
X9944100Y11137900D01*
Y12484100D01*
X10109200Y12649200D01*
X10762537D01*
X10765285Y12636500D01*
X10752111Y12628894D01*
X10739106Y12615889D01*
X10729910Y12599961D01*
X10725150Y12582196D01*
Y12563804D01*
X10729910Y12546039D01*
X10739106Y12530111D01*
X10752111Y12517106D01*
X10768039Y12507910D01*
X10785804Y12503150D01*
X10804196D01*
X10821961Y12507910D01*
X10837889Y12517106D01*
X10850894Y12530111D01*
X10860090Y12546039D01*
X10864850Y12563804D01*
Y12582196D01*
X10860090Y12599961D01*
X10850894Y12615889D01*
X10837889Y12628894D01*
X10824715Y12636500D01*
X10827463Y12649200D01*
X11315700D01*
X11595100Y12369800D01*
D02*
G37*
G36*
X7645465Y12365716D02*
X7648485Y12325518D01*
X7650428Y12314487D01*
X7652839Y12304640D01*
X7655718Y12295978D01*
X7659065Y12288500D01*
X7662881Y12282206D01*
X7667164Y12277096D01*
X7649204Y12259136D01*
X7644094Y12263419D01*
X7637800Y12267235D01*
X7630322Y12270582D01*
X7621660Y12273461D01*
X7611813Y12275872D01*
X7600782Y12277815D01*
X7588567Y12279289D01*
X7560584Y12280835D01*
X7544816Y12280905D01*
X7645395Y12381484D01*
X7645465Y12365716D01*
D02*
G37*
G36*
X18540083Y12116459D02*
X18568788Y12091142D01*
X18570680Y12090163D01*
X18572021Y12089844D01*
X18494806Y12012626D01*
X18494487Y12013967D01*
X18493507Y12015859D01*
X18491870Y12018303D01*
X18489572Y12021299D01*
X18482999Y12028948D01*
X18461935Y12050871D01*
X18533775Y12122714D01*
X18540083Y12116459D01*
D02*
G37*
G36*
X7645465Y12048216D02*
X7648485Y12008018D01*
X7650428Y11996987D01*
X7652839Y11987140D01*
X7655718Y11978478D01*
X7659065Y11971000D01*
X7662881Y11964706D01*
X7667164Y11959596D01*
X7649204Y11941636D01*
X7644094Y11945919D01*
X7637800Y11949735D01*
X7630322Y11953082D01*
X7621660Y11955961D01*
X7611813Y11958372D01*
X7600782Y11960315D01*
X7588567Y11961789D01*
X7560584Y11963335D01*
X7544816Y11963405D01*
X7645395Y12063984D01*
X7645465Y12048216D01*
D02*
G37*
G36*
Y11730716D02*
X7648485Y11690518D01*
X7650428Y11679487D01*
X7652839Y11669640D01*
X7655718Y11660978D01*
X7659065Y11653500D01*
X7662881Y11647206D01*
X7667164Y11642096D01*
X7649204Y11624136D01*
X7644094Y11628419D01*
X7637800Y11632235D01*
X7630322Y11635582D01*
X7621660Y11638461D01*
X7611813Y11640872D01*
X7600782Y11642815D01*
X7588567Y11644289D01*
X7560584Y11645835D01*
X7544816Y11645905D01*
X7645395Y11746484D01*
X7645465Y11730716D01*
D02*
G37*
G36*
X7443506Y11549081D02*
X7449800Y11545265D01*
X7457278Y11541918D01*
X7465940Y11539039D01*
X7475787Y11536628D01*
X7486818Y11534685D01*
X7499033Y11533211D01*
X7527016Y11531665D01*
X7542784Y11531595D01*
X7442205Y11431016D01*
X7442135Y11446784D01*
X7439115Y11486982D01*
X7437172Y11498013D01*
X7434761Y11507860D01*
X7431882Y11516522D01*
X7428535Y11524000D01*
X7424719Y11530294D01*
X7420436Y11535404D01*
X7438396Y11553364D01*
X7443506Y11549081D01*
D02*
G37*
G36*
X7627556Y11490020D02*
X7658116Y11463731D01*
X7667290Y11457305D01*
X7675957Y11452047D01*
X7684118Y11447958D01*
X7691773Y11445037D01*
X7698921Y11443284D01*
X7705563Y11442700D01*
Y11417300D01*
X7698921Y11416716D01*
X7691773Y11414963D01*
X7684118Y11412042D01*
X7675957Y11407953D01*
X7667290Y11402695D01*
X7658116Y11396269D01*
X7648436Y11388674D01*
X7627556Y11369980D01*
X7616357Y11358880D01*
Y11501120D01*
X7627556Y11490020D01*
D02*
G37*
G36*
X18498482Y11310019D02*
X18503487Y11306792D01*
X18509282Y11303959D01*
X18515871Y11301520D01*
X18523248Y11299474D01*
X18531419Y11297821D01*
X18540382Y11296562D01*
X18560683Y11295223D01*
X18572021Y11295144D01*
X18494806Y11217927D01*
X18494727Y11229265D01*
X18493387Y11249565D01*
X18492128Y11258528D01*
X18490475Y11266699D01*
X18488429Y11274078D01*
X18485989Y11280666D01*
X18483156Y11286461D01*
X18479930Y11291465D01*
X18476311Y11295677D01*
X18494270Y11313638D01*
X18498482Y11310019D01*
D02*
G37*
G36*
X18931639Y11018862D02*
X18925426Y11012558D01*
X18904520Y10988541D01*
X18902373Y10985238D01*
X18900903Y10982435D01*
X18900111Y10980131D01*
X18899997Y10978328D01*
X18813168Y11044551D01*
X18813602Y11044895D01*
X18814688Y11045899D01*
X18846802Y11077709D01*
X18931639Y11018862D01*
D02*
G37*
G36*
X18510796Y10565486D02*
X18516376Y10561143D01*
X18522263Y10557322D01*
X18528455Y10554021D01*
X18534952Y10551240D01*
X18541756Y10548980D01*
X18548863Y10547240D01*
X18556276Y10546021D01*
X18563995Y10545322D01*
X18572020Y10545144D01*
X18494806Y10467926D01*
X18494627Y10475950D01*
X18493929Y10483669D01*
X18492709Y10491083D01*
X18490968Y10498191D01*
X18488708Y10504994D01*
X18485927Y10511491D01*
X18482626Y10517683D01*
X18478806Y10523570D01*
X18474461Y10529151D01*
X18469600Y10534426D01*
X18505521Y10570348D01*
X18510796Y10565486D01*
D02*
G37*
G36*
X6684847Y10182987D02*
X6685619Y10180828D01*
X6686904Y10178923D01*
X6688703Y10177272D01*
X6691017Y10175875D01*
X6693844Y10174732D01*
X6697186Y10173843D01*
X6701041Y10173208D01*
X6705411Y10172827D01*
X6710295Y10172700D01*
Y10147300D01*
X6705411Y10147173D01*
X6701041Y10146792D01*
X6697186Y10146157D01*
X6693844Y10145268D01*
X6691017Y10144125D01*
X6688703Y10142728D01*
X6686904Y10141077D01*
X6685619Y10139172D01*
X6684847Y10137013D01*
X6684590Y10134600D01*
Y10185400D01*
X6684847Y10182987D01*
D02*
G37*
G36*
X18901877Y10215920D02*
X18908311Y10185311D01*
X18910776Y10176939D01*
X18916177Y10162941D01*
X18919119Y10157314D01*
X18922218Y10152604D01*
X18925476Y10148808D01*
X18910249Y10128113D01*
X18905766Y10131966D01*
X18900610Y10135229D01*
X18894781Y10137904D01*
X18888281Y10139989D01*
X18881108Y10141485D01*
X18873260Y10142393D01*
X18864743Y10142711D01*
X18855551Y10142440D01*
X18845686Y10141580D01*
X18835152Y10140132D01*
X18900050Y10227954D01*
X18901877Y10215920D01*
D02*
G37*
G36*
X18572018Y10139152D02*
X18560681Y10139073D01*
X18540381Y10137735D01*
X18531419Y10136476D01*
X18523248Y10134823D01*
X18515868Y10132777D01*
X18509280Y10130337D01*
X18503485Y10127505D01*
X18498482Y10124278D01*
X18494269Y10120658D01*
X18476309Y10138620D01*
X18479929Y10142832D01*
X18483154Y10147836D01*
X18485988Y10153631D01*
X18488428Y10160219D01*
X18490474Y10167598D01*
X18492126Y10175769D01*
X18493387Y10184732D01*
X18494727Y10205033D01*
X18494806Y10216371D01*
X18572018Y10139152D01*
D02*
G37*
G36*
X6844527Y10097000D02*
X6834864Y10106557D01*
X6816725Y10122653D01*
X6808249Y10129192D01*
X6800169Y10134725D01*
X6792484Y10139252D01*
X6785194Y10142773D01*
X6778301Y10145288D01*
X6771803Y10146797D01*
X6765701Y10147300D01*
Y10172700D01*
X6771803Y10173203D01*
X6778301Y10174712D01*
X6785194Y10177227D01*
X6792484Y10180748D01*
X6800169Y10185275D01*
X6808249Y10190808D01*
X6816725Y10197347D01*
X6834864Y10213443D01*
X6844527Y10223000D01*
Y10097000D01*
D02*
G37*
G36*
X8675981Y9858050D02*
X8669167Y9864748D01*
X8656115Y9876027D01*
X8649877Y9880610D01*
X8643832Y9884487D01*
X8637979Y9887660D01*
X8632318Y9890128D01*
X8626849Y9891890D01*
X8621572Y9892947D01*
X8616488Y9893300D01*
Y9918700D01*
X8621572Y9919053D01*
X8626849Y9920110D01*
X8632318Y9921872D01*
X8637979Y9924340D01*
X8643832Y9927513D01*
X8649877Y9931390D01*
X8656115Y9935973D01*
X8662545Y9941260D01*
X8675981Y9953950D01*
Y9858050D01*
D02*
G37*
G36*
X6672433Y9947252D02*
X6685485Y9935973D01*
X6691723Y9931390D01*
X6697768Y9927513D01*
X6703621Y9924340D01*
X6709282Y9921872D01*
X6714751Y9920110D01*
X6720028Y9919053D01*
X6725112Y9918700D01*
Y9893300D01*
X6720028Y9892947D01*
X6714751Y9891890D01*
X6709282Y9890128D01*
X6703621Y9887660D01*
X6697768Y9884487D01*
X6691723Y9880610D01*
X6685485Y9876027D01*
X6679055Y9870740D01*
X6665619Y9858050D01*
Y9953950D01*
X6672433Y9947252D01*
D02*
G37*
G36*
X8506736Y9959443D02*
X8524875Y9943347D01*
X8533351Y9936808D01*
X8541431Y9931275D01*
X8549116Y9926748D01*
X8556406Y9923227D01*
X8563299Y9920712D01*
X8569797Y9919203D01*
X8575899Y9918700D01*
Y9893300D01*
X8569797Y9892797D01*
X8563299Y9891288D01*
X8556406Y9888773D01*
X8549116Y9885252D01*
X8541431Y9880725D01*
X8533351Y9875192D01*
X8524875Y9868653D01*
X8506736Y9852557D01*
X8497073Y9843000D01*
Y9969000D01*
X8506736Y9959443D01*
D02*
G37*
G36*
X6844527Y9843000D02*
X6834864Y9852557D01*
X6816725Y9868653D01*
X6808249Y9875192D01*
X6800169Y9880725D01*
X6792484Y9885252D01*
X6785194Y9888773D01*
X6778301Y9891288D01*
X6771803Y9892797D01*
X6765701Y9893300D01*
Y9918700D01*
X6771803Y9919203D01*
X6778301Y9920712D01*
X6785194Y9923227D01*
X6792484Y9926748D01*
X6800169Y9931275D01*
X6808249Y9936808D01*
X6816725Y9943347D01*
X6834864Y9959443D01*
X6844527Y9969000D01*
Y9843000D01*
D02*
G37*
G36*
X8675981Y9604050D02*
X8669167Y9610748D01*
X8656115Y9622027D01*
X8649877Y9626610D01*
X8643832Y9630487D01*
X8637979Y9633660D01*
X8632318Y9636128D01*
X8626849Y9637890D01*
X8621572Y9638947D01*
X8616488Y9639300D01*
Y9664700D01*
X8621572Y9665053D01*
X8626849Y9666110D01*
X8632318Y9667872D01*
X8637979Y9670340D01*
X8643832Y9673513D01*
X8649877Y9677390D01*
X8656115Y9681973D01*
X8662545Y9687260D01*
X8675981Y9699950D01*
Y9604050D01*
D02*
G37*
G36*
X6672433Y9693252D02*
X6685485Y9681973D01*
X6691723Y9677390D01*
X6697768Y9673513D01*
X6703621Y9670340D01*
X6709282Y9667872D01*
X6714751Y9666110D01*
X6720028Y9665053D01*
X6725112Y9664700D01*
Y9639300D01*
X6720028Y9638947D01*
X6714751Y9637890D01*
X6709282Y9636128D01*
X6703621Y9633660D01*
X6697768Y9630487D01*
X6691723Y9626610D01*
X6685485Y9622027D01*
X6679055Y9616740D01*
X6665619Y9604050D01*
Y9699950D01*
X6672433Y9693252D01*
D02*
G37*
G36*
X8506736Y9705443D02*
X8524875Y9689347D01*
X8533351Y9682808D01*
X8541431Y9677275D01*
X8549116Y9672748D01*
X8556406Y9669227D01*
X8563299Y9666712D01*
X8569797Y9665203D01*
X8575899Y9664700D01*
Y9639300D01*
X8569797Y9638797D01*
X8563299Y9637288D01*
X8556406Y9634773D01*
X8549116Y9631252D01*
X8541431Y9626725D01*
X8533351Y9621192D01*
X8524875Y9614653D01*
X8506736Y9598557D01*
X8497073Y9589000D01*
Y9715000D01*
X8506736Y9705443D01*
D02*
G37*
G36*
X8368527Y9589000D02*
X8358864Y9598557D01*
X8340725Y9614653D01*
X8332249Y9621192D01*
X8324169Y9626725D01*
X8316484Y9631252D01*
X8309194Y9634773D01*
X8302301Y9637288D01*
X8295803Y9638797D01*
X8289701Y9639300D01*
Y9664700D01*
X8295803Y9665203D01*
X8302301Y9666712D01*
X8309194Y9669227D01*
X8316484Y9672748D01*
X8324169Y9677275D01*
X8332249Y9682808D01*
X8340725Y9689347D01*
X8358864Y9705443D01*
X8368527Y9715000D01*
Y9589000D01*
D02*
G37*
G36*
X6982736Y9705443D02*
X7000875Y9689347D01*
X7009351Y9682808D01*
X7017431Y9677275D01*
X7025116Y9672748D01*
X7032406Y9669227D01*
X7039299Y9666712D01*
X7045797Y9665203D01*
X7051899Y9664700D01*
Y9639300D01*
X7045797Y9638797D01*
X7039299Y9637288D01*
X7032406Y9634773D01*
X7025116Y9631252D01*
X7017431Y9626725D01*
X7009351Y9621192D01*
X7000875Y9614653D01*
X6982736Y9598557D01*
X6973073Y9589000D01*
Y9715000D01*
X6982736Y9705443D01*
D02*
G37*
G36*
X6844527Y9589000D02*
X6834864Y9598557D01*
X6816725Y9614653D01*
X6808249Y9621192D01*
X6800169Y9626725D01*
X6792484Y9631252D01*
X6785194Y9634773D01*
X6778301Y9637288D01*
X6771803Y9638797D01*
X6765701Y9639300D01*
Y9664700D01*
X6771803Y9665203D01*
X6778301Y9666712D01*
X6785194Y9669227D01*
X6792484Y9672748D01*
X6800169Y9677275D01*
X6808249Y9682808D01*
X6816725Y9689347D01*
X6834864Y9705443D01*
X6844527Y9715000D01*
Y9589000D01*
D02*
G37*
G36*
X8675981Y9350050D02*
X8669167Y9356748D01*
X8656115Y9368027D01*
X8649877Y9372610D01*
X8643832Y9376487D01*
X8637979Y9379660D01*
X8632318Y9382128D01*
X8626849Y9383890D01*
X8621572Y9384947D01*
X8616488Y9385300D01*
Y9410700D01*
X8621572Y9411053D01*
X8626849Y9412110D01*
X8632318Y9413872D01*
X8637979Y9416340D01*
X8643832Y9419513D01*
X8649877Y9423390D01*
X8656115Y9427973D01*
X8662545Y9433260D01*
X8675981Y9445950D01*
Y9350050D01*
D02*
G37*
G36*
X6672433Y9439252D02*
X6685485Y9427973D01*
X6691723Y9423390D01*
X6697768Y9419513D01*
X6703621Y9416340D01*
X6709282Y9413872D01*
X6714751Y9412110D01*
X6720028Y9411053D01*
X6725112Y9410700D01*
Y9385300D01*
X6720028Y9384947D01*
X6714751Y9383890D01*
X6709282Y9382128D01*
X6703621Y9379660D01*
X6697768Y9376487D01*
X6691723Y9372610D01*
X6685485Y9368027D01*
X6679055Y9362740D01*
X6665619Y9350050D01*
Y9445950D01*
X6672433Y9439252D01*
D02*
G37*
G36*
X8506736Y9451443D02*
X8524875Y9435347D01*
X8533351Y9428808D01*
X8541431Y9423275D01*
X8549116Y9418748D01*
X8556406Y9415227D01*
X8563299Y9412712D01*
X8569797Y9411203D01*
X8575899Y9410700D01*
Y9385300D01*
X8569797Y9384797D01*
X8563299Y9383288D01*
X8556406Y9380773D01*
X8549116Y9377252D01*
X8541431Y9372725D01*
X8533351Y9367192D01*
X8524875Y9360653D01*
X8506736Y9344557D01*
X8497073Y9335000D01*
Y9461000D01*
X8506736Y9451443D01*
D02*
G37*
G36*
X6844527Y9335000D02*
X6834864Y9344557D01*
X6816725Y9360653D01*
X6808249Y9367192D01*
X6800169Y9372725D01*
X6792484Y9377252D01*
X6785194Y9380773D01*
X6778301Y9383288D01*
X6771803Y9384797D01*
X6765701Y9385300D01*
Y9410700D01*
X6771803Y9411203D01*
X6778301Y9412712D01*
X6785194Y9415227D01*
X6792484Y9418748D01*
X6800169Y9423275D01*
X6808249Y9428808D01*
X6816725Y9435347D01*
X6834864Y9451443D01*
X6844527Y9461000D01*
Y9335000D01*
D02*
G37*
G36*
X8675981Y9096050D02*
X8669167Y9102748D01*
X8656115Y9114027D01*
X8649877Y9118610D01*
X8643832Y9122487D01*
X8637979Y9125660D01*
X8632318Y9128128D01*
X8626849Y9129890D01*
X8621572Y9130947D01*
X8616488Y9131300D01*
Y9156700D01*
X8621572Y9157053D01*
X8626849Y9158110D01*
X8632318Y9159872D01*
X8637979Y9162340D01*
X8643832Y9165513D01*
X8649877Y9169390D01*
X8656115Y9173973D01*
X8662545Y9179260D01*
X8675981Y9191950D01*
Y9096050D01*
D02*
G37*
G36*
X6672433Y9185252D02*
X6685485Y9173973D01*
X6691723Y9169390D01*
X6697768Y9165513D01*
X6703621Y9162340D01*
X6709282Y9159872D01*
X6714751Y9158110D01*
X6720028Y9157053D01*
X6725112Y9156700D01*
Y9131300D01*
X6720028Y9130947D01*
X6714751Y9129890D01*
X6709282Y9128128D01*
X6703621Y9125660D01*
X6697768Y9122487D01*
X6691723Y9118610D01*
X6685485Y9114027D01*
X6679055Y9108740D01*
X6665619Y9096050D01*
Y9191950D01*
X6672433Y9185252D01*
D02*
G37*
G36*
X8506736Y9197443D02*
X8524875Y9181347D01*
X8533351Y9174808D01*
X8541431Y9169275D01*
X8549116Y9164748D01*
X8556406Y9161227D01*
X8563299Y9158712D01*
X8569797Y9157203D01*
X8575899Y9156700D01*
Y9131300D01*
X8569797Y9130797D01*
X8563299Y9129288D01*
X8556406Y9126773D01*
X8549116Y9123252D01*
X8541431Y9118725D01*
X8533351Y9113192D01*
X8524875Y9106653D01*
X8506736Y9090557D01*
X8497073Y9081000D01*
Y9207000D01*
X8506736Y9197443D01*
D02*
G37*
G36*
X6844527Y9081000D02*
X6834864Y9090557D01*
X6816725Y9106653D01*
X6808249Y9113192D01*
X6800169Y9118725D01*
X6792484Y9123252D01*
X6785194Y9126773D01*
X6778301Y9129288D01*
X6771803Y9130797D01*
X6765701Y9131300D01*
Y9156700D01*
X6771803Y9157203D01*
X6778301Y9158712D01*
X6785194Y9161227D01*
X6792484Y9164748D01*
X6800169Y9169275D01*
X6808249Y9174808D01*
X6816725Y9181347D01*
X6834864Y9197443D01*
X6844527Y9207000D01*
Y9081000D01*
D02*
G37*
G36*
X8675981Y8842050D02*
X8669167Y8848748D01*
X8656115Y8860027D01*
X8649877Y8864610D01*
X8643832Y8868487D01*
X8637979Y8871660D01*
X8632318Y8874128D01*
X8626849Y8875890D01*
X8621572Y8876947D01*
X8616488Y8877300D01*
Y8902700D01*
X8621572Y8903053D01*
X8626849Y8904110D01*
X8632318Y8905872D01*
X8637979Y8908340D01*
X8643832Y8911513D01*
X8649877Y8915390D01*
X8656115Y8919973D01*
X8662545Y8925260D01*
X8675981Y8937950D01*
Y8842050D01*
D02*
G37*
G36*
X6672433Y8931252D02*
X6685485Y8919973D01*
X6691723Y8915390D01*
X6697768Y8911513D01*
X6703621Y8908340D01*
X6709282Y8905872D01*
X6714751Y8904110D01*
X6720028Y8903053D01*
X6725112Y8902700D01*
Y8877300D01*
X6720028Y8876947D01*
X6714751Y8875890D01*
X6709282Y8874128D01*
X6703621Y8871660D01*
X6697768Y8868487D01*
X6691723Y8864610D01*
X6685485Y8860027D01*
X6679055Y8854740D01*
X6665619Y8842050D01*
Y8937950D01*
X6672433Y8931252D01*
D02*
G37*
G36*
X8506736Y8943443D02*
X8524875Y8927347D01*
X8533351Y8920808D01*
X8541431Y8915275D01*
X8549116Y8910748D01*
X8556406Y8907227D01*
X8563299Y8904712D01*
X8569797Y8903203D01*
X8575899Y8902700D01*
Y8877300D01*
X8569797Y8876797D01*
X8563299Y8875288D01*
X8556406Y8872773D01*
X8549116Y8869252D01*
X8541431Y8864725D01*
X8533351Y8859192D01*
X8524875Y8852653D01*
X8506736Y8836557D01*
X8497073Y8827000D01*
Y8953000D01*
X8506736Y8943443D01*
D02*
G37*
G36*
X6844527Y8827000D02*
X6834864Y8836557D01*
X6816725Y8852653D01*
X6808249Y8859192D01*
X6800169Y8864725D01*
X6792484Y8869252D01*
X6785194Y8872773D01*
X6778301Y8875288D01*
X6771803Y8876797D01*
X6765701Y8877300D01*
Y8902700D01*
X6771803Y8903203D01*
X6778301Y8904712D01*
X6785194Y8907227D01*
X6792484Y8910748D01*
X6800169Y8915275D01*
X6808249Y8920808D01*
X6816725Y8927347D01*
X6834864Y8943443D01*
X6844527Y8953000D01*
Y8827000D01*
D02*
G37*
G36*
X12282634Y8774607D02*
X12279010Y8778106D01*
X12275357Y8781237D01*
X12271676Y8783999D01*
X12267966Y8786393D01*
X12264228Y8788419D01*
X12260461Y8790076D01*
X12256666Y8791365D01*
X12252843Y8792286D01*
X12248991Y8792838D01*
X12245111Y8793022D01*
Y8818422D01*
X12248991Y8818606D01*
X12252843Y8819159D01*
X12256666Y8820080D01*
X12260461Y8821369D01*
X12264228Y8823026D01*
X12267966Y8825052D01*
X12271676Y8827446D01*
X12275357Y8830208D01*
X12279010Y8833338D01*
X12282634Y8836837D01*
Y8774607D01*
D02*
G37*
G36*
X8675981Y8588050D02*
X8669167Y8594748D01*
X8656115Y8606027D01*
X8649877Y8610610D01*
X8643832Y8614487D01*
X8637979Y8617660D01*
X8632318Y8620128D01*
X8626849Y8621890D01*
X8621572Y8622947D01*
X8616488Y8623300D01*
Y8648700D01*
X8621572Y8649053D01*
X8626849Y8650110D01*
X8632318Y8651872D01*
X8637979Y8654340D01*
X8643832Y8657513D01*
X8649877Y8661390D01*
X8656115Y8665973D01*
X8662545Y8671260D01*
X8675981Y8683950D01*
Y8588050D01*
D02*
G37*
G36*
X6672433Y8677252D02*
X6685485Y8665973D01*
X6691723Y8661390D01*
X6697768Y8657513D01*
X6703621Y8654340D01*
X6709282Y8651872D01*
X6714751Y8650110D01*
X6720028Y8649053D01*
X6725112Y8648700D01*
Y8623300D01*
X6720028Y8622947D01*
X6714751Y8621890D01*
X6709282Y8620128D01*
X6703621Y8617660D01*
X6697768Y8614487D01*
X6691723Y8610610D01*
X6685485Y8606027D01*
X6679055Y8600740D01*
X6665619Y8588050D01*
Y8683950D01*
X6672433Y8677252D01*
D02*
G37*
G36*
X8506736Y8689443D02*
X8524875Y8673347D01*
X8533351Y8666808D01*
X8541431Y8661275D01*
X8549116Y8656748D01*
X8556406Y8653227D01*
X8563299Y8650712D01*
X8569797Y8649203D01*
X8575899Y8648700D01*
Y8623300D01*
X8569797Y8622797D01*
X8563299Y8621288D01*
X8556406Y8618773D01*
X8549116Y8615252D01*
X8541431Y8610725D01*
X8533351Y8605192D01*
X8524875Y8598653D01*
X8506736Y8582557D01*
X8497073Y8573000D01*
Y8699000D01*
X8506736Y8689443D01*
D02*
G37*
G36*
X6844527Y8573000D02*
X6834864Y8582557D01*
X6816725Y8598653D01*
X6808249Y8605192D01*
X6800169Y8610725D01*
X6792484Y8615252D01*
X6785194Y8618773D01*
X6778301Y8621288D01*
X6771803Y8622797D01*
X6765701Y8623300D01*
Y8648700D01*
X6771803Y8649203D01*
X6778301Y8650712D01*
X6785194Y8653227D01*
X6792484Y8656748D01*
X6800169Y8661275D01*
X6808249Y8666808D01*
X6816725Y8673347D01*
X6834864Y8689443D01*
X6844527Y8699000D01*
Y8573000D01*
D02*
G37*
G36*
X12867735Y8600660D02*
X12870074Y8598724D01*
X12872453Y8597019D01*
X12874870Y8595545D01*
X12877327Y8594301D01*
X12879820Y8593289D01*
X12882353Y8592508D01*
X12884924Y8591957D01*
X12887534Y8591637D01*
X12890182Y8591548D01*
X12858752Y8560117D01*
X12858662Y8562766D01*
X12858344Y8565375D01*
X12857793Y8567947D01*
X12857011Y8570479D01*
X12856000Y8572973D01*
X12854755Y8575429D01*
X12853281Y8577846D01*
X12851576Y8580225D01*
X12849640Y8582565D01*
X12847473Y8584866D01*
X12865434Y8602827D01*
X12867735Y8600660D01*
D02*
G37*
G36*
X8793479Y8625761D02*
X8794732Y8608555D01*
X8795902Y8600904D01*
X8797436Y8593888D01*
X8799331Y8587506D01*
X8801589Y8581758D01*
X8804210Y8576645D01*
X8807193Y8572166D01*
X8810539Y8568321D01*
X8792579Y8550361D01*
X8788734Y8553707D01*
X8784255Y8556690D01*
X8779142Y8559311D01*
X8773394Y8561569D01*
X8767012Y8563464D01*
X8759996Y8564998D01*
X8752345Y8566168D01*
X8744059Y8566976D01*
X8725585Y8567503D01*
X8793397Y8635315D01*
X8793479Y8625761D01*
D02*
G37*
G36*
X10398568Y8568366D02*
X10402221Y8565236D01*
X10405902Y8562473D01*
X10409612Y8560079D01*
X10413350Y8558054D01*
X10417116Y8556396D01*
X10420911Y8555107D01*
X10424735Y8554187D01*
X10428587Y8553634D01*
X10432467Y8553450D01*
Y8528050D01*
X10428587Y8527866D01*
X10424735Y8527313D01*
X10420911Y8526393D01*
X10417116Y8525104D01*
X10413350Y8523446D01*
X10409612Y8521421D01*
X10405902Y8519027D01*
X10402221Y8516264D01*
X10398568Y8513134D01*
X10394944Y8509635D01*
Y8571865D01*
X10398568Y8568366D01*
D02*
G37*
G36*
X10187368Y8396916D02*
X10191021Y8393786D01*
X10194702Y8391023D01*
X10198412Y8388629D01*
X10202150Y8386604D01*
X10205916Y8384946D01*
X10209711Y8383657D01*
X10213535Y8382737D01*
X10217387Y8382184D01*
X10221267Y8382000D01*
Y8356600D01*
X10217387Y8356416D01*
X10213535Y8355863D01*
X10209711Y8354943D01*
X10205916Y8353654D01*
X10202150Y8351996D01*
X10198412Y8349971D01*
X10194702Y8347577D01*
X10191021Y8344814D01*
X10187368Y8341684D01*
X10183744Y8338185D01*
Y8400415D01*
X10187368Y8396916D01*
D02*
G37*
G36*
X10120256Y8338185D02*
X10116632Y8341684D01*
X10112979Y8344814D01*
X10109298Y8347577D01*
X10105588Y8349971D01*
X10101850Y8351996D01*
X10098084Y8353654D01*
X10094289Y8354943D01*
X10090465Y8355863D01*
X10086613Y8356416D01*
X10082733Y8356600D01*
Y8382000D01*
X10086613Y8382184D01*
X10090465Y8382737D01*
X10094289Y8383657D01*
X10098084Y8384946D01*
X10101850Y8386604D01*
X10105588Y8388629D01*
X10109298Y8391023D01*
X10112979Y8393786D01*
X10116632Y8396916D01*
X10120256Y8400415D01*
Y8338185D01*
D02*
G37*
G36*
X8675981Y8334050D02*
X8669167Y8340748D01*
X8656115Y8352027D01*
X8649877Y8356610D01*
X8643832Y8360487D01*
X8637979Y8363660D01*
X8632318Y8366128D01*
X8626849Y8367890D01*
X8621572Y8368947D01*
X8616488Y8369300D01*
Y8394700D01*
X8621572Y8395053D01*
X8626849Y8396110D01*
X8632318Y8397872D01*
X8637979Y8400340D01*
X8643832Y8403513D01*
X8649877Y8407390D01*
X8656115Y8411973D01*
X8662545Y8417260D01*
X8675981Y8429950D01*
Y8334050D01*
D02*
G37*
G36*
X6672433Y8423252D02*
X6685485Y8411973D01*
X6691723Y8407390D01*
X6697768Y8403513D01*
X6703621Y8400340D01*
X6709282Y8397872D01*
X6714751Y8396110D01*
X6720028Y8395053D01*
X6725112Y8394700D01*
Y8369300D01*
X6720028Y8368947D01*
X6714751Y8367890D01*
X6709282Y8366128D01*
X6703621Y8363660D01*
X6697768Y8360487D01*
X6691723Y8356610D01*
X6685485Y8352027D01*
X6679055Y8346740D01*
X6665619Y8334050D01*
Y8429950D01*
X6672433Y8423252D01*
D02*
G37*
G36*
X8506736Y8435443D02*
X8524875Y8419347D01*
X8533351Y8412808D01*
X8541431Y8407275D01*
X8549116Y8402748D01*
X8556406Y8399227D01*
X8563299Y8396712D01*
X8569797Y8395203D01*
X8575899Y8394700D01*
Y8369300D01*
X8569797Y8368797D01*
X8563299Y8367288D01*
X8556406Y8364773D01*
X8549116Y8361252D01*
X8541431Y8356725D01*
X8533351Y8351192D01*
X8524875Y8344653D01*
X8506736Y8328557D01*
X8497073Y8319000D01*
Y8445000D01*
X8506736Y8435443D01*
D02*
G37*
G36*
X6844527Y8319000D02*
X6834864Y8328557D01*
X6816725Y8344653D01*
X6808249Y8351192D01*
X6800169Y8356725D01*
X6792484Y8361252D01*
X6785194Y8364773D01*
X6778301Y8367288D01*
X6771803Y8368797D01*
X6765701Y8369300D01*
Y8394700D01*
X6771803Y8395203D01*
X6778301Y8396712D01*
X6785194Y8399227D01*
X6792484Y8402748D01*
X6800169Y8407275D01*
X6808249Y8412808D01*
X6816725Y8419347D01*
X6834864Y8435443D01*
X6844527Y8445000D01*
Y8319000D01*
D02*
G37*
G36*
X8431900Y8292004D02*
X8418309Y8291930D01*
X8394102Y8290485D01*
X8383484Y8289115D01*
X8373858Y8287314D01*
X8365223Y8285081D01*
X8357579Y8282417D01*
X8350926Y8279320D01*
X8345264Y8275792D01*
X8340594Y8271833D01*
X8322633Y8289794D01*
X8326592Y8294464D01*
X8330120Y8300126D01*
X8333217Y8306779D01*
X8335881Y8314423D01*
X8338114Y8323058D01*
X8339915Y8332684D01*
X8341285Y8343302D01*
X8342730Y8367509D01*
X8342804Y8381100D01*
X8431900Y8292004D01*
D02*
G37*
G36*
X8675981Y8080050D02*
X8669167Y8086748D01*
X8656115Y8098027D01*
X8649877Y8102610D01*
X8643832Y8106487D01*
X8637979Y8109660D01*
X8632318Y8112128D01*
X8626849Y8113890D01*
X8621572Y8114947D01*
X8616488Y8115300D01*
Y8140700D01*
X8621572Y8141053D01*
X8626849Y8142110D01*
X8632318Y8143872D01*
X8637979Y8146340D01*
X8643832Y8149513D01*
X8649877Y8153390D01*
X8656115Y8157973D01*
X8662545Y8163260D01*
X8675981Y8175950D01*
Y8080050D01*
D02*
G37*
G36*
X6672433Y8169252D02*
X6685485Y8157973D01*
X6691723Y8153390D01*
X6697768Y8149513D01*
X6703621Y8146340D01*
X6709282Y8143872D01*
X6714751Y8142110D01*
X6720028Y8141053D01*
X6725112Y8140700D01*
Y8115300D01*
X6720028Y8114947D01*
X6714751Y8113890D01*
X6709282Y8112128D01*
X6703621Y8109660D01*
X6697768Y8106487D01*
X6691723Y8102610D01*
X6685485Y8098027D01*
X6679055Y8092740D01*
X6665619Y8080050D01*
Y8175950D01*
X6672433Y8169252D01*
D02*
G37*
G36*
X8506736Y8181443D02*
X8524875Y8165347D01*
X8533351Y8158808D01*
X8541431Y8153275D01*
X8549116Y8148748D01*
X8556406Y8145227D01*
X8563299Y8142712D01*
X8569797Y8141203D01*
X8575899Y8140700D01*
Y8115300D01*
X8569797Y8114797D01*
X8563299Y8113288D01*
X8556406Y8110773D01*
X8549116Y8107252D01*
X8541431Y8102725D01*
X8533351Y8097192D01*
X8524875Y8090653D01*
X8506736Y8074557D01*
X8497073Y8065000D01*
Y8191000D01*
X8506736Y8181443D01*
D02*
G37*
G36*
X6844527Y8065000D02*
X6834864Y8074557D01*
X6816725Y8090653D01*
X6808249Y8097192D01*
X6800169Y8102725D01*
X6792484Y8107252D01*
X6785194Y8110773D01*
X6778301Y8113288D01*
X6771803Y8114797D01*
X6765701Y8115300D01*
Y8140700D01*
X6771803Y8141203D01*
X6778301Y8142712D01*
X6785194Y8145227D01*
X6792484Y8148748D01*
X6800169Y8153275D01*
X6808249Y8158808D01*
X6816725Y8165347D01*
X6834864Y8181443D01*
X6844527Y8191000D01*
Y8065000D01*
D02*
G37*
G36*
X13521597Y8064995D02*
X13516289Y8070183D01*
X13505930Y8078921D01*
X13500880Y8082470D01*
X13495917Y8085474D01*
X13491040Y8087931D01*
X13486250Y8089843D01*
X13481548Y8091208D01*
X13476930Y8092027D01*
X13472400Y8092300D01*
Y8117700D01*
X13476930Y8117973D01*
X13481548Y8118792D01*
X13486250Y8120157D01*
X13491040Y8122069D01*
X13495917Y8124526D01*
X13500880Y8127530D01*
X13505930Y8131079D01*
X13511066Y8135175D01*
X13516289Y8139817D01*
X13521597Y8145005D01*
Y8064995D01*
D02*
G37*
G36*
X13407298Y7950695D02*
X13401988Y7955883D01*
X13391629Y7964621D01*
X13386580Y7968170D01*
X13381616Y7971174D01*
X13376740Y7973631D01*
X13371950Y7975543D01*
X13367247Y7976908D01*
X13362630Y7977727D01*
X13358099Y7978000D01*
Y8003400D01*
X13362630Y8003673D01*
X13367247Y8004492D01*
X13371950Y8005857D01*
X13376740Y8007769D01*
X13381616Y8010226D01*
X13386580Y8013230D01*
X13391629Y8016779D01*
X13396765Y8020875D01*
X13401988Y8025517D01*
X13407298Y8030705D01*
Y7950695D01*
D02*
G37*
G36*
X14668430Y7977244D02*
X14668799Y7972448D01*
X14669449Y7967892D01*
X14670380Y7963576D01*
X14671590Y7959500D01*
X14673082Y7955665D01*
X14674854Y7952070D01*
X14676906Y7948715D01*
X14679239Y7945601D01*
X14681853Y7942727D01*
X14663892Y7924766D01*
X14661018Y7927380D01*
X14657904Y7929713D01*
X14654549Y7931765D01*
X14650954Y7933538D01*
X14647119Y7935029D01*
X14643044Y7936240D01*
X14638728Y7937170D01*
X14634171Y7937820D01*
X14629375Y7938189D01*
X14624338Y7938278D01*
X14668341Y7982281D01*
X14668430Y7977244D01*
D02*
G37*
G36*
X8675981Y7826050D02*
X8669167Y7832748D01*
X8656115Y7844027D01*
X8649877Y7848610D01*
X8643832Y7852487D01*
X8637979Y7855660D01*
X8632318Y7858128D01*
X8626849Y7859890D01*
X8621572Y7860947D01*
X8616488Y7861300D01*
Y7886700D01*
X8621572Y7887053D01*
X8626849Y7888110D01*
X8632318Y7889872D01*
X8637979Y7892340D01*
X8643832Y7895513D01*
X8649877Y7899390D01*
X8656115Y7903973D01*
X8662545Y7909260D01*
X8675981Y7921950D01*
Y7826050D01*
D02*
G37*
G36*
X6672433Y7915252D02*
X6685485Y7903973D01*
X6691723Y7899390D01*
X6697768Y7895513D01*
X6703621Y7892340D01*
X6709282Y7889872D01*
X6714751Y7888110D01*
X6720028Y7887053D01*
X6725112Y7886700D01*
Y7861300D01*
X6720028Y7860947D01*
X6714751Y7859890D01*
X6709282Y7858128D01*
X6703621Y7855660D01*
X6697768Y7852487D01*
X6691723Y7848610D01*
X6685485Y7844027D01*
X6679055Y7838740D01*
X6665619Y7826050D01*
Y7921950D01*
X6672433Y7915252D01*
D02*
G37*
G36*
X8506736Y7927443D02*
X8524875Y7911347D01*
X8533351Y7904808D01*
X8541431Y7899275D01*
X8549116Y7894748D01*
X8556406Y7891227D01*
X8563299Y7888712D01*
X8569797Y7887203D01*
X8575899Y7886700D01*
Y7861300D01*
X8569797Y7860797D01*
X8563299Y7859288D01*
X8556406Y7856773D01*
X8549116Y7853252D01*
X8541431Y7848725D01*
X8533351Y7843192D01*
X8524875Y7836653D01*
X8506736Y7820557D01*
X8497073Y7811000D01*
Y7937000D01*
X8506736Y7927443D01*
D02*
G37*
G36*
X6844527Y7811000D02*
X6834864Y7820557D01*
X6816725Y7836653D01*
X6808249Y7843192D01*
X6800169Y7848725D01*
X6792484Y7853252D01*
X6785194Y7856773D01*
X6778301Y7859288D01*
X6771803Y7860797D01*
X6765701Y7861300D01*
Y7886700D01*
X6771803Y7887203D01*
X6778301Y7888712D01*
X6785194Y7891227D01*
X6792484Y7894748D01*
X6800169Y7899275D01*
X6808249Y7904808D01*
X6816725Y7911347D01*
X6834864Y7927443D01*
X6844527Y7937000D01*
Y7811000D01*
D02*
G37*
G36*
X14466119Y7817446D02*
X14469234Y7815113D01*
X14472588Y7813060D01*
X14476183Y7811288D01*
X14480019Y7809797D01*
X14484093Y7808586D01*
X14488409Y7807655D01*
X14492966Y7807006D01*
X14497762Y7806636D01*
X14502798Y7806548D01*
X14458797Y7762545D01*
X14458707Y7767581D01*
X14458337Y7772378D01*
X14457687Y7776934D01*
X14456758Y7781250D01*
X14455547Y7785326D01*
X14454054Y7789161D01*
X14452283Y7792756D01*
X14450230Y7796111D01*
X14447897Y7799225D01*
X14445284Y7802099D01*
X14463245Y7820060D01*
X14466119Y7817446D01*
D02*
G37*
G36*
X14547780Y7756619D02*
X14548149Y7751822D01*
X14548799Y7747266D01*
X14549728Y7742950D01*
X14550940Y7738875D01*
X14552432Y7735039D01*
X14554204Y7731444D01*
X14556256Y7728089D01*
X14558589Y7724975D01*
X14561203Y7722101D01*
X14543242Y7704141D01*
X14540369Y7706754D01*
X14537254Y7709087D01*
X14533899Y7711140D01*
X14530304Y7712912D01*
X14526469Y7714403D01*
X14522394Y7715614D01*
X14518079Y7716545D01*
X14513521Y7717194D01*
X14508725Y7717564D01*
X14503688Y7717652D01*
X14547691Y7761656D01*
X14547780Y7756619D01*
D02*
G37*
G36*
X8675981Y7572050D02*
X8669167Y7578748D01*
X8656115Y7590027D01*
X8649877Y7594610D01*
X8643832Y7598487D01*
X8637979Y7601660D01*
X8632318Y7604128D01*
X8626849Y7605890D01*
X8621572Y7606947D01*
X8616488Y7607300D01*
Y7632700D01*
X8621572Y7633053D01*
X8626849Y7634110D01*
X8632318Y7635872D01*
X8637979Y7638340D01*
X8643832Y7641513D01*
X8649877Y7645390D01*
X8656115Y7649973D01*
X8662545Y7655260D01*
X8675981Y7667950D01*
Y7572050D01*
D02*
G37*
G36*
X6672433Y7661252D02*
X6685485Y7649973D01*
X6691723Y7645390D01*
X6697768Y7641513D01*
X6703621Y7638340D01*
X6709282Y7635872D01*
X6714751Y7634110D01*
X6720028Y7633053D01*
X6725112Y7632700D01*
Y7607300D01*
X6720028Y7606947D01*
X6714751Y7605890D01*
X6709282Y7604128D01*
X6703621Y7601660D01*
X6697768Y7598487D01*
X6691723Y7594610D01*
X6685485Y7590027D01*
X6679055Y7584740D01*
X6665619Y7572050D01*
Y7667950D01*
X6672433Y7661252D01*
D02*
G37*
G36*
X8506736Y7673443D02*
X8524875Y7657347D01*
X8533351Y7650808D01*
X8541431Y7645275D01*
X8549116Y7640748D01*
X8556406Y7637227D01*
X8563299Y7634712D01*
X8569797Y7633203D01*
X8575899Y7632700D01*
Y7607300D01*
X8569797Y7606797D01*
X8563299Y7605288D01*
X8556406Y7602773D01*
X8549116Y7599252D01*
X8541431Y7594725D01*
X8533351Y7589192D01*
X8524875Y7582653D01*
X8506736Y7566557D01*
X8497073Y7557000D01*
Y7683000D01*
X8506736Y7673443D01*
D02*
G37*
G36*
X6844527Y7557000D02*
X6834864Y7566557D01*
X6816725Y7582653D01*
X6808249Y7589192D01*
X6800169Y7594725D01*
X6792484Y7599252D01*
X6785194Y7602773D01*
X6778301Y7605288D01*
X6771803Y7606797D01*
X6765701Y7607300D01*
Y7632700D01*
X6771803Y7633203D01*
X6778301Y7634712D01*
X6785194Y7637227D01*
X6792484Y7640748D01*
X6800169Y7645275D01*
X6808249Y7650808D01*
X6816725Y7657347D01*
X6834864Y7673443D01*
X6844527Y7683000D01*
Y7557000D01*
D02*
G37*
G36*
X11133979Y7611916D02*
X11137632Y7608786D01*
X11141313Y7606023D01*
X11145023Y7603629D01*
X11148761Y7601604D01*
X11152528Y7599946D01*
X11156323Y7598657D01*
X11160146Y7597737D01*
X11163998Y7597184D01*
X11167878Y7597000D01*
Y7571600D01*
X11163998Y7571416D01*
X11160146Y7570863D01*
X11156323Y7569943D01*
X11152528Y7568654D01*
X11148761Y7566996D01*
X11145023Y7564971D01*
X11141313Y7562577D01*
X11137632Y7559814D01*
X11133979Y7556684D01*
X11130355Y7553185D01*
Y7615415D01*
X11133979Y7611916D01*
D02*
G37*
G36*
X15113028Y7509987D02*
X15113580Y7506135D01*
X15114500Y7502311D01*
X15115790Y7498516D01*
X15117447Y7494750D01*
X15119473Y7491012D01*
X15121867Y7487302D01*
X15124629Y7483621D01*
X15127760Y7479968D01*
X15131259Y7476344D01*
X15069029D01*
X15072527Y7479968D01*
X15075658Y7483621D01*
X15078419Y7487302D01*
X15080814Y7491012D01*
X15082840Y7494750D01*
X15084497Y7498516D01*
X15085786Y7502311D01*
X15086707Y7506135D01*
X15087259Y7509987D01*
X15087444Y7513867D01*
X15112843D01*
X15113028Y7509987D01*
D02*
G37*
G36*
X8675981Y7318050D02*
X8669167Y7324748D01*
X8656115Y7336027D01*
X8649877Y7340610D01*
X8643832Y7344487D01*
X8637979Y7347660D01*
X8632318Y7350128D01*
X8626849Y7351890D01*
X8621572Y7352947D01*
X8616488Y7353300D01*
Y7378700D01*
X8621572Y7379053D01*
X8626849Y7380110D01*
X8632318Y7381872D01*
X8637979Y7384340D01*
X8643832Y7387513D01*
X8649877Y7391390D01*
X8656115Y7395973D01*
X8662545Y7401260D01*
X8675981Y7413950D01*
Y7318050D01*
D02*
G37*
G36*
X6672433Y7407252D02*
X6685485Y7395973D01*
X6691723Y7391390D01*
X6697768Y7387513D01*
X6703621Y7384340D01*
X6709282Y7381872D01*
X6714751Y7380110D01*
X6720028Y7379053D01*
X6725112Y7378700D01*
Y7353300D01*
X6720028Y7352947D01*
X6714751Y7351890D01*
X6709282Y7350128D01*
X6703621Y7347660D01*
X6697768Y7344487D01*
X6691723Y7340610D01*
X6685485Y7336027D01*
X6679055Y7330740D01*
X6665619Y7318050D01*
Y7413950D01*
X6672433Y7407252D01*
D02*
G37*
G36*
X8506736Y7419443D02*
X8524875Y7403347D01*
X8533351Y7396808D01*
X8541431Y7391275D01*
X8549116Y7386748D01*
X8556406Y7383227D01*
X8563299Y7380712D01*
X8569797Y7379203D01*
X8575899Y7378700D01*
Y7353300D01*
X8569797Y7352797D01*
X8563299Y7351288D01*
X8556406Y7348773D01*
X8549116Y7345252D01*
X8541431Y7340725D01*
X8533351Y7335192D01*
X8524875Y7328653D01*
X8506736Y7312557D01*
X8497073Y7303000D01*
Y7429000D01*
X8506736Y7419443D01*
D02*
G37*
G36*
X6844527Y7303000D02*
X6834864Y7312557D01*
X6816725Y7328653D01*
X6808249Y7335192D01*
X6800169Y7340725D01*
X6792484Y7345252D01*
X6785194Y7348773D01*
X6778301Y7351288D01*
X6771803Y7352797D01*
X6765701Y7353300D01*
Y7378700D01*
X6771803Y7379203D01*
X6778301Y7380712D01*
X6785194Y7383227D01*
X6792484Y7386748D01*
X6800169Y7391275D01*
X6808249Y7396808D01*
X6816725Y7403347D01*
X6834864Y7419443D01*
X6844527Y7429000D01*
Y7303000D01*
D02*
G37*
G36*
X16587019Y7144346D02*
X16590134Y7142013D01*
X16593488Y7139960D01*
X16597083Y7138188D01*
X16600919Y7136697D01*
X16604993Y7135486D01*
X16609309Y7134555D01*
X16613866Y7133906D01*
X16618661Y7133536D01*
X16623698Y7133448D01*
X16579697Y7089445D01*
X16579607Y7094481D01*
X16579237Y7099278D01*
X16578587Y7103834D01*
X16577658Y7108150D01*
X16576447Y7112226D01*
X16574956Y7116061D01*
X16573183Y7119656D01*
X16571130Y7123011D01*
X16568797Y7126125D01*
X16566183Y7128999D01*
X16584145Y7146960D01*
X16587019Y7144346D01*
D02*
G37*
G36*
X8675981Y7064050D02*
X8669167Y7070748D01*
X8656115Y7082027D01*
X8649877Y7086610D01*
X8643832Y7090487D01*
X8637979Y7093660D01*
X8632318Y7096128D01*
X8626849Y7097890D01*
X8621572Y7098947D01*
X8616488Y7099300D01*
Y7124700D01*
X8621572Y7125053D01*
X8626849Y7126110D01*
X8632318Y7127872D01*
X8637979Y7130340D01*
X8643832Y7133513D01*
X8649877Y7137390D01*
X8656115Y7141973D01*
X8662545Y7147260D01*
X8675981Y7159950D01*
Y7064050D01*
D02*
G37*
G36*
X6672433Y7153252D02*
X6685485Y7141973D01*
X6691723Y7137390D01*
X6697768Y7133513D01*
X6703621Y7130340D01*
X6709282Y7127872D01*
X6714751Y7126110D01*
X6720028Y7125053D01*
X6725112Y7124700D01*
Y7099300D01*
X6720028Y7098947D01*
X6714751Y7097890D01*
X6709282Y7096128D01*
X6703621Y7093660D01*
X6697768Y7090487D01*
X6691723Y7086610D01*
X6685485Y7082027D01*
X6679055Y7076740D01*
X6665619Y7064050D01*
Y7159950D01*
X6672433Y7153252D01*
D02*
G37*
G36*
X8506736Y7165443D02*
X8524875Y7149347D01*
X8533351Y7142808D01*
X8541431Y7137275D01*
X8549116Y7132748D01*
X8556406Y7129227D01*
X8563299Y7126712D01*
X8569797Y7125203D01*
X8575899Y7124700D01*
Y7099300D01*
X8569797Y7098797D01*
X8563299Y7097288D01*
X8556406Y7094773D01*
X8549116Y7091252D01*
X8541431Y7086725D01*
X8533351Y7081192D01*
X8524875Y7074653D01*
X8506736Y7058557D01*
X8497073Y7049000D01*
Y7175000D01*
X8506736Y7165443D01*
D02*
G37*
G36*
X6844527Y7049000D02*
X6834864Y7058557D01*
X6816725Y7074653D01*
X6808249Y7081192D01*
X6800169Y7086725D01*
X6792484Y7091252D01*
X6785194Y7094773D01*
X6778301Y7097288D01*
X6771803Y7098797D01*
X6765701Y7099300D01*
Y7124700D01*
X6771803Y7125203D01*
X6778301Y7126712D01*
X6785194Y7129227D01*
X6792484Y7132748D01*
X6800169Y7137275D01*
X6808249Y7142808D01*
X6816725Y7149347D01*
X6834864Y7165443D01*
X6844527Y7175000D01*
Y7049000D01*
D02*
G37*
G36*
X8675981Y6810050D02*
X8669167Y6816748D01*
X8656115Y6828027D01*
X8649877Y6832610D01*
X8643832Y6836487D01*
X8637979Y6839660D01*
X8632318Y6842128D01*
X8626849Y6843890D01*
X8621572Y6844947D01*
X8616488Y6845300D01*
Y6870700D01*
X8621572Y6871053D01*
X8626849Y6872110D01*
X8632318Y6873872D01*
X8637979Y6876340D01*
X8643832Y6879513D01*
X8649877Y6883390D01*
X8656115Y6887973D01*
X8662545Y6893260D01*
X8675981Y6905950D01*
Y6810050D01*
D02*
G37*
G36*
X6672433Y6899252D02*
X6685485Y6887973D01*
X6691723Y6883390D01*
X6697768Y6879513D01*
X6703621Y6876340D01*
X6709282Y6873872D01*
X6714751Y6872110D01*
X6720028Y6871053D01*
X6725112Y6870700D01*
Y6845300D01*
X6720028Y6844947D01*
X6714751Y6843890D01*
X6709282Y6842128D01*
X6703621Y6839660D01*
X6697768Y6836487D01*
X6691723Y6832610D01*
X6685485Y6828027D01*
X6679055Y6822740D01*
X6665619Y6810050D01*
Y6905950D01*
X6672433Y6899252D01*
D02*
G37*
G36*
X8506736Y6911443D02*
X8524875Y6895347D01*
X8533351Y6888808D01*
X8541431Y6883275D01*
X8549116Y6878748D01*
X8556406Y6875227D01*
X8563299Y6872712D01*
X8569797Y6871203D01*
X8575899Y6870700D01*
Y6845300D01*
X8569797Y6844797D01*
X8563299Y6843288D01*
X8556406Y6840773D01*
X8549116Y6837252D01*
X8541431Y6832725D01*
X8533351Y6827192D01*
X8524875Y6820653D01*
X8506736Y6804557D01*
X8497073Y6795000D01*
Y6921000D01*
X8506736Y6911443D01*
D02*
G37*
G36*
X6844527Y6795000D02*
X6834864Y6804557D01*
X6816725Y6820653D01*
X6808249Y6827192D01*
X6800169Y6832725D01*
X6792484Y6837252D01*
X6785194Y6840773D01*
X6778301Y6843288D01*
X6771803Y6844797D01*
X6765701Y6845300D01*
Y6870700D01*
X6771803Y6871203D01*
X6778301Y6872712D01*
X6785194Y6875227D01*
X6792484Y6878748D01*
X6800169Y6883275D01*
X6808249Y6888808D01*
X6816725Y6895347D01*
X6834864Y6911443D01*
X6844527Y6921000D01*
Y6795000D01*
D02*
G37*
G36*
X11482889Y6756174D02*
X11477852Y6756086D01*
X11473056Y6755716D01*
X11468499Y6755067D01*
X11464183Y6754136D01*
X11460108Y6752925D01*
X11456272Y6751434D01*
X11452678Y6749662D01*
X11449323Y6747609D01*
X11446209Y6745276D01*
X11443334Y6742663D01*
X11425374Y6760623D01*
X11427988Y6763497D01*
X11430321Y6766612D01*
X11432373Y6769966D01*
X11434145Y6773561D01*
X11435637Y6777397D01*
X11436848Y6781472D01*
X11437778Y6785788D01*
X11438428Y6790344D01*
X11438797Y6795141D01*
X11438886Y6800178D01*
X11482889Y6756174D01*
D02*
G37*
G36*
X8675981Y6556050D02*
X8669167Y6562748D01*
X8656115Y6574027D01*
X8649877Y6578610D01*
X8643832Y6582487D01*
X8637979Y6585660D01*
X8632318Y6588128D01*
X8626849Y6589890D01*
X8621572Y6590947D01*
X8616488Y6591300D01*
Y6616700D01*
X8621572Y6617053D01*
X8626849Y6618110D01*
X8632318Y6619872D01*
X8637979Y6622340D01*
X8643832Y6625513D01*
X8649877Y6629390D01*
X8656115Y6633973D01*
X8662545Y6639260D01*
X8675981Y6651950D01*
Y6556050D01*
D02*
G37*
G36*
X6672433Y6645252D02*
X6685485Y6633973D01*
X6691723Y6629390D01*
X6697768Y6625513D01*
X6703621Y6622340D01*
X6709282Y6619872D01*
X6714751Y6618110D01*
X6720028Y6617053D01*
X6725112Y6616700D01*
Y6591300D01*
X6720028Y6590947D01*
X6714751Y6589890D01*
X6709282Y6588128D01*
X6703621Y6585660D01*
X6697768Y6582487D01*
X6691723Y6578610D01*
X6685485Y6574027D01*
X6679055Y6568740D01*
X6665619Y6556050D01*
Y6651950D01*
X6672433Y6645252D01*
D02*
G37*
G36*
X11314695Y6582887D02*
X11315248Y6579035D01*
X11316169Y6575211D01*
X11317458Y6571416D01*
X11319115Y6567650D01*
X11321141Y6563912D01*
X11323535Y6560202D01*
X11326297Y6556521D01*
X11329427Y6552868D01*
X11332926Y6549244D01*
X11270696D01*
X11274195Y6552868D01*
X11277326Y6556521D01*
X11280088Y6560202D01*
X11282482Y6563912D01*
X11284508Y6567650D01*
X11286165Y6571416D01*
X11287454Y6575211D01*
X11288375Y6579035D01*
X11288927Y6582887D01*
X11289111Y6586767D01*
X11314511D01*
X11314695Y6582887D01*
D02*
G37*
G36*
X8506736Y6657443D02*
X8524875Y6641347D01*
X8533351Y6634808D01*
X8541431Y6629275D01*
X8549116Y6624748D01*
X8556406Y6621227D01*
X8563299Y6618712D01*
X8569797Y6617203D01*
X8575899Y6616700D01*
Y6591300D01*
X8569797Y6590797D01*
X8563299Y6589288D01*
X8556406Y6586773D01*
X8549116Y6583252D01*
X8541431Y6578725D01*
X8533351Y6573192D01*
X8524875Y6566653D01*
X8506736Y6550557D01*
X8497073Y6541000D01*
Y6667000D01*
X8506736Y6657443D01*
D02*
G37*
G36*
X6844527Y6541000D02*
X6834864Y6550557D01*
X6816725Y6566653D01*
X6808249Y6573192D01*
X6800169Y6578725D01*
X6792484Y6583252D01*
X6785194Y6586773D01*
X6778301Y6589288D01*
X6771803Y6590797D01*
X6765701Y6591300D01*
Y6616700D01*
X6771803Y6617203D01*
X6778301Y6618712D01*
X6785194Y6621227D01*
X6792484Y6624748D01*
X6800169Y6629275D01*
X6808249Y6634808D01*
X6816725Y6641347D01*
X6834864Y6657443D01*
X6844527Y6667000D01*
Y6541000D01*
D02*
G37*
G36*
X11092348Y6472746D02*
X11092717Y6467950D01*
X11093367Y6463393D01*
X11094297Y6459078D01*
X11095508Y6455002D01*
X11096999Y6451167D01*
X11098772Y6447572D01*
X11100824Y6444217D01*
X11103157Y6441103D01*
X11105771Y6438229D01*
X11087810Y6420268D01*
X11084936Y6422882D01*
X11081822Y6425215D01*
X11078467Y6427267D01*
X11074872Y6429039D01*
X11071037Y6430531D01*
X11066961Y6431742D01*
X11062645Y6432672D01*
X11058089Y6433322D01*
X11053293Y6433691D01*
X11048256Y6433780D01*
X11092259Y6477783D01*
X11092348Y6472746D01*
D02*
G37*
G36*
X13396840Y6256918D02*
X13400684Y6254232D01*
X13404974Y6251872D01*
X13409714Y6249837D01*
X13414900Y6248126D01*
X13420534Y6246741D01*
X13426613Y6245680D01*
X13433142Y6244944D01*
X13440117Y6244533D01*
X13447540Y6244447D01*
X13390964Y6187872D01*
X13390878Y6195294D01*
X13389731Y6208798D01*
X13388670Y6214879D01*
X13387285Y6220512D01*
X13385574Y6225698D01*
X13383539Y6230436D01*
X13381178Y6234727D01*
X13378494Y6238571D01*
X13375484Y6241967D01*
X13393443Y6259928D01*
X13396840Y6256918D01*
D02*
G37*
G36*
X8383306Y5986481D02*
X8389600Y5982665D01*
X8397078Y5979318D01*
X8405740Y5976439D01*
X8415587Y5974028D01*
X8426618Y5972085D01*
X8438833Y5970611D01*
X8466816Y5969065D01*
X8482584Y5968995D01*
X8382005Y5868416D01*
X8381935Y5884184D01*
X8378915Y5924382D01*
X8376972Y5935413D01*
X8374561Y5945260D01*
X8371682Y5953922D01*
X8368335Y5961400D01*
X8364519Y5967694D01*
X8360236Y5972804D01*
X8378196Y5990764D01*
X8383306Y5986481D01*
D02*
G37*
D59*
X10139750Y7691050D02*
X10991861D01*
X11098611Y7584300D01*
X10033000Y7797800D02*
X10139750Y7691050D01*
X12268200Y7772400D02*
X12890500D01*
X11438750Y6942950D02*
X12268200Y7772400D01*
X10985629Y6942950D02*
X11438750D01*
X10570478Y6527800D02*
X10985629Y6942950D01*
X10401300Y6527800D02*
X10570478D01*
X8166100Y8369300D02*
X8432800Y8636000D01*
X8166100Y5966312D02*
Y8369300D01*
Y5966312D02*
X8216900Y5915512D01*
Y5867400D02*
Y5915512D01*
X11047811Y6478228D02*
X11239539Y6286500D01*
X16214818Y5727700D02*
X18183318Y7696200D01*
X10947400Y5727700D02*
X16214818D01*
X8991600Y7683500D02*
X10947400Y5727700D01*
X11239539Y6286500D02*
X13348911D01*
X13448111Y6187300D01*
X13654744Y8610600D02*
X14503244Y7762100D01*
X13446899Y8105000D02*
X13562411D01*
X11150600Y10401300D02*
X13446899Y8105000D01*
X11461700Y7584300D02*
X11868100Y7990700D01*
X11098611Y7584300D02*
X11461700D01*
X11868100Y7990700D02*
X13448111D01*
X11301811Y6619100D02*
X11483333Y6800622D01*
X11301811Y6517500D02*
Y6619100D01*
X10363200Y8540750D02*
X10373684Y8551234D01*
X14261336Y12598400D02*
X17191548D01*
X18572800Y11217148D01*
X14235936Y12573000D02*
X14261336Y12598400D01*
X12331700Y12573000D02*
X14235936Y12573000D01*
X12230100Y12674600D02*
Y13474699D01*
Y12674600D02*
X12331700Y12573000D01*
X11772900Y13931900D02*
X12230100Y13474699D01*
X8077200Y13931900D02*
X11772900D01*
X7340600Y11633200D02*
X7543800Y11430000D01*
X7340600Y13195300D02*
X8077200Y13931900D01*
X7543800Y11430000D02*
X7734300D01*
X7340600Y11633200D02*
Y13195300D01*
X9220200Y9144000D02*
Y9944100D01*
Y9144000D02*
X9994900Y8369300D01*
X8864600Y10299700D02*
X9220200Y9944100D01*
X9994900Y8369300D02*
X10152000D01*
X7734300Y11430000D02*
X7924800Y11239500D01*
Y10787033D02*
Y11239500D01*
X8412133Y10299700D02*
X8864600D01*
X7924800Y10787033D02*
X8412133Y10299700D01*
X10952022Y8805722D02*
X12314378D01*
X10687050Y8540750D02*
X10952022Y8805722D01*
X10925082Y8724900D02*
X12395200D01*
X10569482Y8369300D02*
X10925082Y8724900D01*
X10152000Y8369300D02*
X10569482D01*
X10363200Y8540750D02*
X10687050D01*
X14998544Y7673200D02*
X15100143Y7571600D01*
Y7444600D02*
Y7571600D01*
X14933418Y7673200D02*
X14998544D01*
X14623894Y7982726D02*
X14933418Y7673200D01*
X14909644Y7355700D02*
X16357443D01*
X14503244Y7762100D02*
X14909644Y7355700D01*
X16357443D02*
X16624144Y7089000D01*
X8026400Y10829116D02*
Y11582400D01*
Y10829116D02*
X8454216Y10401300D01*
X7543800Y12065000D02*
X8026400Y11582400D01*
X8454216Y10401300D02*
X11150600D01*
X16294099Y5689600D02*
X18224500Y7620000D01*
X10833100Y5689600D02*
X16294099D01*
X18224500Y7620000D02*
X18897600D01*
X18183318Y7696200D02*
X18872200D01*
X8991600Y7683500D02*
Y8369300D01*
X8902700Y7620000D02*
X10833100Y5689600D01*
X8902700Y7620000D02*
Y8255000D01*
X8746254Y8360646D02*
X8797054D01*
X8902700Y8255000D01*
X8724900Y8636000D02*
X8991600Y8369300D01*
X11099800Y10350500D02*
X12890500Y8559800D01*
X8433174Y10350500D02*
X11099800D01*
X13034558Y8610600D02*
X13654744D01*
X7543800Y11747500D02*
X7975600Y11315700D01*
Y10808074D02*
Y11315700D01*
Y10808074D02*
X8433174Y10350500D01*
X8077200Y10850158D02*
Y11849100D01*
X7543800Y12382500D02*
X8077200Y11849100D01*
Y10850158D02*
X8475258Y10452100D01*
X19062700Y7886700D02*
Y9448800D01*
X19113499Y7835900D02*
Y9942824D01*
X18897600Y9613900D02*
X19062700Y9448800D01*
X18592799Y9613900D02*
X18897600D01*
X18839174Y10217150D02*
X19113499Y9942824D01*
X18822803Y10217150D02*
X18839174D01*
X18897600Y7620000D02*
X19113499Y7835900D01*
X18872200Y7696200D02*
X19062700Y7886700D01*
X11193058Y10452100D02*
X13034558Y8610600D01*
X8475258Y10452100D02*
X11193058D01*
X8432800Y8636000D02*
X8724900D01*
Y8382000D02*
X8746254Y8360646D01*
X8432800Y8382000D02*
X8724900D01*
X6629400Y7112000D02*
X6908800D01*
X6629400Y6858000D02*
X6908800D01*
X6629400Y6604000D02*
X6908800D01*
X8280400Y6070600D02*
Y8229600D01*
X18402299Y9804400D02*
Y10046650D01*
X18572800Y10217150D01*
X8432800Y6604000D02*
X8724900D01*
X8432800Y6858000D02*
X8724900D01*
X8432800Y7112000D02*
X8724900D01*
X8432800Y7366000D02*
X8724900D01*
X8432800Y7620000D02*
X8724900D01*
X8432800Y7874000D02*
X8724900D01*
X8432800Y8128000D02*
X8724900D01*
X8432800Y8890000D02*
X8724900D01*
X8432800Y9144000D02*
X8724900D01*
X8432800Y9398000D02*
X8724900D01*
X8432800Y9652000D02*
X8724900D01*
X8432800Y9906000D02*
X8724900D01*
X6629400Y7366000D02*
X6908800D01*
X6629400Y7620000D02*
X6908800D01*
X6629400Y7874000D02*
X6908800D01*
X6629400Y8128000D02*
X6908800D01*
X6629400Y8382000D02*
X6908800D01*
X6629400Y8636000D02*
X6908800D01*
X6629400Y8890000D02*
X6908800D01*
X6629400Y9144000D02*
X6908800D01*
X6629400Y9398000D02*
X6908800D01*
X6629400Y9652000D02*
X6908800D01*
X6629400Y9906000D02*
X6908800D01*
X6629400Y10160000D02*
X6908800D01*
Y9652000D02*
X8432800D01*
X8280400Y6070600D02*
X8483600Y5867400D01*
X8280400Y8229600D02*
X8432800Y8382000D01*
X18402299Y9804400D02*
X18592799Y9613900D01*
D61*
X12382500Y13258800D02*
X12636500Y13512801D01*
X12382500Y13004800D02*
X12396950D01*
X12498550Y12903200D01*
X12712700D01*
X13157201Y13347701D01*
X16662399Y13347701D01*
X18338800Y11671300D01*
X18960689D01*
X19062700Y11569289D01*
Y11221764D02*
Y11569289D01*
X18822803Y10981867D02*
X19062700Y11221764D01*
X18822803Y10967146D02*
Y10981867D01*
X12636500Y13512801D02*
X17284700D01*
X18418600Y12378900D01*
Y12166048D02*
Y12378900D01*
Y12166048D02*
X18572800Y12011848D01*
D64*
X11864634Y12471400D02*
X14135100D01*
X11810398Y12420600D02*
X11813834D01*
X11864634Y12471400D01*
X18414999Y10624947D02*
X18572800Y10467147D01*
X14185899Y12420600D02*
X17233900D01*
X14135100Y12471400D02*
X14185899Y12420600D01*
X18414999Y10624947D02*
Y11239500D01*
X17233900Y12420600D02*
X18414999Y11239500D01*
D68*
X12065000Y13258800D02*
D03*
X12382500D02*
D03*
D69*
X12065000Y13004800D02*
D03*
Y12750800D02*
D03*
X12382500Y13004800D02*
D03*
Y12750800D02*
D03*
D70*
X8674100Y13208000D02*
D03*
Y12090400D02*
D03*
D71*
X18572803Y11467148D02*
D03*
Y11217148D02*
D03*
Y10967148D02*
D03*
Y10717148D02*
D03*
Y10467148D02*
D03*
Y10217148D02*
D03*
Y9967148D02*
D03*
X18822803Y11467148D02*
D03*
Y11217148D02*
D03*
Y10967148D02*
D03*
Y10717148D02*
D03*
Y10467148D02*
D03*
Y10217148D02*
D03*
Y9967148D02*
D03*
X18572803Y13511848D02*
D03*
Y13261848D02*
D03*
Y13011848D02*
D03*
Y12761848D02*
D03*
Y12511848D02*
D03*
Y12261848D02*
D03*
Y12011848D02*
D03*
X18822803Y13511848D02*
D03*
Y13261848D02*
D03*
Y13011848D02*
D03*
Y12761848D02*
D03*
Y12511848D02*
D03*
Y12261848D02*
D03*
Y12011848D02*
D03*
X18572800Y9422449D02*
D03*
Y9172449D02*
D03*
Y8922449D02*
D03*
Y8672449D02*
D03*
Y8422449D02*
D03*
Y8172449D02*
D03*
Y7922449D02*
D03*
X18822800Y9422449D02*
D03*
Y9172449D02*
D03*
Y8922449D02*
D03*
Y8672449D02*
D03*
Y8422449D02*
D03*
Y8172449D02*
D03*
Y7922449D02*
D03*
X18572800Y7377749D02*
D03*
Y7127749D02*
D03*
Y6877749D02*
D03*
Y6627749D02*
D03*
Y6377749D02*
D03*
Y6127749D02*
D03*
Y5877749D02*
D03*
X18822800Y7377749D02*
D03*
Y7127749D02*
D03*
Y6877749D02*
D03*
Y6627749D02*
D03*
Y6377749D02*
D03*
Y6127749D02*
D03*
Y5877749D02*
D03*
D72*
X19545302Y9962148D02*
D03*
Y11459648D02*
D03*
Y12006848D02*
D03*
Y13504349D02*
D03*
X19545300Y7917449D02*
D03*
Y9414949D02*
D03*
Y5872749D02*
D03*
Y7370249D02*
D03*
D73*
X6616700Y10160000D02*
D03*
X8724900D02*
D03*
D74*
X6616700Y9906000D02*
D03*
Y9652000D02*
D03*
Y9398000D02*
D03*
Y9144000D02*
D03*
Y8890000D02*
D03*
Y8636000D02*
D03*
Y8382000D02*
D03*
Y8128000D02*
D03*
Y7874000D02*
D03*
Y7620000D02*
D03*
Y7366000D02*
D03*
Y7112000D02*
D03*
Y6858000D02*
D03*
Y6604000D02*
D03*
X8724900Y9906000D02*
D03*
Y9652000D02*
D03*
Y9398000D02*
D03*
Y9144000D02*
D03*
Y8890000D02*
D03*
Y8636000D02*
D03*
Y8382000D02*
D03*
Y8128000D02*
D03*
Y7874000D02*
D03*
Y7620000D02*
D03*
Y7366000D02*
D03*
Y7112000D02*
D03*
Y6858000D02*
D03*
Y6604000D02*
D03*
D75*
X8432800Y10160000D02*
D03*
Y9906000D02*
D03*
Y9652000D02*
D03*
Y9398000D02*
D03*
Y9144000D02*
D03*
Y8890000D02*
D03*
Y8636000D02*
D03*
Y8382000D02*
D03*
Y8128000D02*
D03*
Y7874000D02*
D03*
Y7620000D02*
D03*
Y7366000D02*
D03*
Y7112000D02*
D03*
Y6858000D02*
D03*
Y6604000D02*
D03*
X6908800D02*
D03*
Y6858000D02*
D03*
Y7112000D02*
D03*
Y7366000D02*
D03*
Y7620000D02*
D03*
Y7874000D02*
D03*
Y8128000D02*
D03*
Y8382000D02*
D03*
Y8636000D02*
D03*
Y8890000D02*
D03*
Y9144000D02*
D03*
Y9398000D02*
D03*
Y9652000D02*
D03*
Y9906000D02*
D03*
Y10160000D02*
D03*
D77*
X6858000Y13525500D02*
D03*
Y5778500D02*
D03*
X17843500Y13525500D02*
D03*
X17602200Y5778500D02*
D03*
X18021300Y10160000D02*
D03*
X18135600Y8293100D02*
D03*
X9461500Y5778500D02*
D03*
D78*
X13358000Y8963900D02*
D03*
Y9163900D02*
D03*
X11988000Y8913900D02*
D03*
Y9113900D02*
D03*
X9479900Y11151400D02*
D03*
X9279900D02*
D03*
X9529900Y8581400D02*
D03*
X9329900D02*
D03*
D79*
X6725369Y11120947D02*
D03*
X15125700Y13106400D02*
D03*
X8216900Y5867400D02*
D03*
X8483600D02*
D03*
D80*
X7543800Y12382500D02*
D03*
Y12065000D02*
D03*
Y12700000D02*
D03*
Y11430000D02*
D03*
Y13017500D02*
D03*
Y11747500D02*
D03*
D81*
X11493500Y8115300D02*
D03*
X10420350Y8064500D02*
D03*
X10033000Y7213600D02*
D03*
X10401300Y6527800D02*
D03*
X12890500Y7772400D02*
D03*
X7848600Y7558000D02*
D03*
X11047811Y6478228D02*
D03*
X12268200Y11887200D02*
D03*
X17055943Y5984100D02*
D03*
X14935201Y8166100D02*
D03*
X11520011Y7533500D02*
D03*
X10730230Y8205470D02*
D03*
X17055943Y8193900D02*
D03*
X11493500Y6045200D02*
D03*
Y6362700D02*
D03*
X11520011Y6644500D02*
D03*
X11492120Y7809120D02*
D03*
X10717611Y7597000D02*
D03*
X17276169Y6009100D02*
D03*
X17276169Y8168900D02*
D03*
X14935201Y6311900D02*
D03*
X14950044Y6581000D02*
D03*
Y7597000D02*
D03*
X14935043Y7874725D02*
D03*
X10722461Y6581000D02*
D03*
X13614482Y7195489D02*
D03*
X13843082Y7195489D02*
D03*
X13840541Y6982511D02*
D03*
X13611942Y6982511D02*
D03*
X11301811Y6517500D02*
D03*
X11117711Y7438250D02*
D03*
X11098611Y7584300D02*
D03*
X11483333Y6800622D02*
D03*
X11044561Y6638550D02*
D03*
X11035111Y7165200D02*
D03*
X11039961Y7012800D02*
D03*
X11117711Y6739750D02*
D03*
X12314378Y8805722D02*
D03*
X12395200Y8724900D02*
D03*
X10152000Y8369300D02*
D03*
X10363200Y8540750D02*
D03*
X13665199Y9943621D02*
D03*
X15100143Y7444600D02*
D03*
X14763594Y7982726D02*
D03*
X14623894D02*
D03*
X10033000Y7797800D02*
D03*
X9318656Y6770378D02*
D03*
X14896944Y6771500D02*
D03*
X16624144Y7089000D02*
D03*
X14503244Y7762100D02*
D03*
X14204794Y7349300D02*
D03*
X14338144Y6695300D02*
D03*
X14520743Y6542900D02*
D03*
X14518243Y6694975D02*
D03*
X14503244Y7000100D02*
D03*
X14520743Y7152500D02*
D03*
X14515894Y7304900D02*
D03*
X14503244Y7609700D02*
D03*
X9613900Y7747000D02*
D03*
X9609159Y7884352D02*
D03*
X8156301Y10073407D02*
D03*
X10152000Y8786791D02*
D03*
X13813290Y8674049D02*
D03*
X14130791D02*
D03*
X9836150Y8096250D02*
D03*
X13525500Y13068300D02*
D03*
X12649200Y13081000D02*
D03*
X13309599Y13068300D02*
D03*
X13525500Y12698865D02*
D03*
X13309599D02*
D03*
X12640850Y12696325D02*
D03*
X14160500Y12700000D02*
D03*
Y13068300D02*
D03*
X13525500Y12325350D02*
D03*
X13309599D02*
D03*
X14160500D02*
D03*
X9791700Y12228336D02*
D03*
X10983736D02*
D03*
X10795000Y12573000D02*
D03*
X9639300D02*
D03*
X15521672Y10105948D02*
D03*
X14908200Y12291813D02*
D03*
X14617700Y13201649D02*
D03*
X17110193Y13070532D02*
D03*
X17107375Y12698236D02*
D03*
X15563982Y12209263D02*
D03*
X16472375Y12325350D02*
D03*
X14295529Y12515850D02*
D03*
X15502705D02*
D03*
X17107375Y12325350D02*
D03*
X12688534Y12347121D02*
D03*
X16256474Y12325350D02*
D03*
X15571851Y12695696D02*
D03*
X15509798Y10414500D02*
D03*
X8075547Y5677540D02*
D03*
X7416800Y5930900D02*
D03*
X7778252Y5945106D02*
D03*
X15571851Y13065173D02*
D03*
X16817336Y9145770D02*
D03*
Y9463270D02*
D03*
Y9780770D02*
D03*
Y10098270D02*
D03*
Y10415770D02*
D03*
X15531889Y9143230D02*
D03*
Y9460730D02*
D03*
Y9778230D02*
D03*
X14375790Y10190857D02*
D03*
X13810750Y9943621D02*
D03*
X14128250D02*
D03*
X13743462Y10098270D02*
D03*
Y10415770D02*
D03*
X12473889Y9778230D02*
D03*
Y10095730D02*
D03*
Y10413230D02*
D03*
X17614900Y12979401D02*
D03*
X14661018Y12714100D02*
D03*
X9829800Y8737600D02*
D03*
X12017000Y11240538D02*
D03*
X15051674D02*
D03*
X15341600Y11887200D02*
D03*
X15159425Y12714100D02*
D03*
X7663700Y7754100D02*
D03*
X7652500Y7373100D02*
D03*
X7467600Y7569200D02*
D03*
X7658100Y7563600D02*
D03*
X16256474Y13067628D02*
D03*
X16472375D02*
D03*
Y12698193D02*
D03*
X16256474D02*
D03*
X7035800Y10896600D02*
D03*
X7340600Y11163300D02*
D03*
X17513300Y12979401D02*
D03*
X17614900Y12877800D02*
D03*
X17513300D02*
D03*
D82*
X8255000Y8559800D02*
D03*
X8267700Y8331200D02*
D03*
X11118034Y8126574D02*
D03*
X8166100Y9004300D02*
D03*
X15138400Y11849100D02*
D03*
X12128500Y11811000D02*
D03*
X12065000Y11887200D02*
D03*
X9017000Y9169400D02*
D03*
X9170479Y6592207D02*
D03*
X12890500Y8559800D02*
D03*
X15796100Y11590020D02*
D03*
X15596100Y11890020D02*
D03*
Y11590020D02*
D03*
Y11290020D02*
D03*
X15796100Y11890020D02*
D03*
Y11290020D02*
D03*
X12738100D02*
D03*
Y11890020D02*
D03*
X12538100Y11290020D02*
D03*
Y11590020D02*
D03*
Y11890020D02*
D03*
X12738100Y11590020D02*
D03*
X9309100Y6654800D02*
D03*
X16922365Y12512227D02*
D03*
X11810398Y12420600D02*
D03*
X8953500Y6692900D02*
D03*
X9677400Y6489700D02*
D03*
X12293600Y10756900D02*
D03*
X15343201Y10754676D02*
D03*
X16922365Y12881705D02*
D03*
X15845799Y10846300D02*
D03*
X15642599D02*
D03*
X15923100Y11239500D02*
D03*
Y11531600D02*
D03*
Y11633200D02*
D03*
Y11734800D02*
D03*
Y11836400D02*
D03*
Y11938000D02*
D03*
X15342368Y11439393D02*
D03*
X12865100Y11239500D02*
D03*
Y11531600D02*
D03*
Y11633200D02*
D03*
Y11734800D02*
D03*
Y11836400D02*
D03*
Y11938000D02*
D03*
X12623800Y12128500D02*
D03*
X14594299Y12092400D02*
D03*
X12584600Y10846300D02*
D03*
X12787800D02*
D03*
X12284367Y11439393D02*
D03*
D83*
X8077200Y6591300D02*
D03*
X7505700Y7010400D02*
D03*
D84*
X16586200Y5651500D02*
D03*
X15813000Y5829300D02*
D03*
Y6057900D02*
D03*
X15698700Y5943600D02*
D03*
X12371300Y5880100D02*
D03*
X12257000Y5994400D02*
D03*
X12371300Y6108700D02*
D03*
X15897701Y8405437D02*
D03*
X15783400Y8291137D02*
D03*
X15897701Y8176837D02*
D03*
X12446000Y8102600D02*
D03*
X12331700Y8216900D02*
D03*
X12446000Y8331200D02*
D03*
X13562411Y8105000D02*
D03*
X13791011D02*
D03*
X13562411Y6073000D02*
D03*
X13448111Y6187300D02*
D03*
X13676711D02*
D03*
X13448111Y7990700D02*
D03*
X13676711D02*
D03*
X13791011Y6073000D02*
D03*
X17271844Y7203300D02*
D03*
Y6974700D02*
D03*
X17157544Y7089000D02*
D03*
X17043243Y7203300D02*
D03*
Y6974700D02*
D03*
X9944100Y9664700D02*
D03*
X10020300Y9525000D02*
D03*
X10096500Y9664700D02*
D03*
X9867900Y9525000D02*
D03*
X9791700Y9664700D02*
D03*
X9715500Y9525000D02*
D03*
X9029700Y9512300D02*
D03*
X13995399Y8559800D02*
D03*
X10337800Y12014200D02*
D03*
X11150600D02*
D03*
X11493500D02*
D03*
Y12357100D02*
D03*
X10477500Y13665199D02*
D03*
Y13106400D02*
D03*
Y13385800D02*
D03*
Y12827000D02*
D03*
X10337800Y12357100D02*
D03*
X10020300Y11620500D02*
D03*
X10363200D02*
D03*
X9677400Y11379200D02*
D03*
Y11849100D02*
D03*
X9829800Y11620500D02*
D03*
X9029700Y9791700D02*
D03*
X10464800Y10756900D02*
D03*
X10617200D02*
D03*
X10312400D02*
D03*
X10541000Y10617200D02*
D03*
X10236200D02*
D03*
X10388600D02*
D03*
X10236200Y10896600D02*
D03*
X10541000D02*
D03*
X10388600D02*
D03*
X9715500Y9804400D02*
D03*
X10020300D02*
D03*
X9867900D02*
D03*
X14401801Y9296400D02*
D03*
X11671300Y12814301D02*
D03*
X8686800Y11303000D02*
D03*
X8839200D02*
D03*
X8991600D02*
D03*
X8610600Y11163300D02*
D03*
X8763000D02*
D03*
X8915400D02*
D03*
X8763000Y10883900D02*
D03*
X8839200Y11023600D02*
D03*
X8915400Y10883900D02*
D03*
X8610600D02*
D03*
X8686800Y11023600D02*
D03*
X8991600D02*
D03*
X8763000Y10604500D02*
D03*
X8610600D02*
D03*
X8915400D02*
D03*
X8686800Y10744200D02*
D03*
X8991600D02*
D03*
X8839200D02*
D03*
X14899863Y9296400D02*
D03*
Y8864600D02*
D03*
X16192500Y8890000D02*
D03*
Y8712200D02*
D03*
X16179800Y9779000D02*
D03*
Y9461500D02*
D03*
Y10096500D02*
D03*
X13970000Y9296400D02*
D03*
X11671300Y13373100D02*
D03*
Y13093700D02*
D03*
Y13652499D02*
D03*
X11836400Y12814301D02*
D03*
Y13652499D02*
D03*
Y13373100D02*
D03*
Y13093700D02*
D03*
D85*
X18251401Y5994597D02*
D03*
X18135600Y13258800D02*
D03*
X18414999Y12890500D02*
D03*
X18275301Y12128500D02*
D03*
X10657848Y9295900D02*
D03*
X18134052Y11252700D02*
D03*
X18250400Y7261852D02*
D03*
Y6766552D02*
D03*
X18328648Y9626100D02*
D03*
X18250400Y13395952D02*
D03*
D86*
X11771711Y7184000D02*
D03*
Y7089000D02*
D03*
Y6994000D02*
D03*
X15214444Y7184000D02*
D03*
Y7089000D02*
D03*
Y6994000D02*
D03*
D87*
X7175500Y8166100D02*
D03*
%TF.MD5,ce40b27a2e99fcad567ea27bfbba4b79*%
M02*
