%TF.GenerationSoftware,Altium Limited,Altium Designer,24.1.2 (44)*%
G04 Layer_Physical_Order=4*
G04 Layer_Color=16440176*
%FSLAX45Y45*%
%MOMM*%
%TF.SameCoordinates,12E9634C-A8E6-484A-B1C3-FEDB1742B245*%
%TF.FilePolarity,Positive*%
%TF.FileFunction,Copper,L4,Inr,Signal*%
%TF.Part,Single*%
G01*
G75*
%TA.AperFunction,Conductor*%
%ADD59C,0.25400*%
%ADD60C,0.63500*%
%TA.AperFunction,ComponentPad*%
%ADD68R,1.55000X1.55000*%
%ADD69C,1.55000*%
%ADD70C,9.50000*%
%ADD71C,1.56000*%
%ADD72C,2.10000*%
%ADD73R,1.37000X1.37000*%
%ADD74C,1.37000*%
%ADD75C,1.80000*%
%ADD77C,6.10000*%
%ADD78C,1.30000*%
%ADD79C,2.03200*%
%TA.AperFunction,TestPad*%
%ADD80C,2.03200*%
%TA.AperFunction,ViaPad*%
%ADD81C,0.88900*%
%ADD82C,0.63500*%
%ADD83C,1.27000*%
%ADD84C,1.14300*%
%ADD85C,0.76200*%
%ADD86C,0.50000*%
%ADD87C,0.71120*%
%TA.AperFunction,Conductor*%
%ADD105C,1.52400*%
G36*
X10467956Y13721547D02*
X10420973Y13656786D01*
X10400533Y13711507D01*
X10415558Y13732402D01*
X10467956Y13721547D01*
D02*
G37*
G36*
X10532873Y13648737D02*
X10532356Y13642192D01*
X10532297Y13636018D01*
X10532696Y13630220D01*
X10533552Y13624794D01*
X10534867Y13619740D01*
X10536639Y13615060D01*
X10538869Y13610753D01*
X10541557Y13606819D01*
X10544702Y13603258D01*
X10523807Y13588232D01*
X10520660Y13591037D01*
X10516996Y13593672D01*
X10512815Y13596140D01*
X10508118Y13598436D01*
X10502904Y13600565D01*
X10497174Y13602524D01*
X10484163Y13605936D01*
X10476882Y13607388D01*
X10469085Y13608673D01*
X10533847Y13655656D01*
X10532873Y13648737D01*
D02*
G37*
G36*
X10403123Y13422075D02*
X10400576Y13417664D01*
X10394950Y13396667D01*
Y13374931D01*
X10400576Y13353937D01*
X10411444Y13335114D01*
X10426813Y13319743D01*
X10445637Y13308876D01*
X10466632Y13303250D01*
X10488368D01*
X10509363Y13308876D01*
X10513775Y13311423D01*
X10528300Y13296896D01*
Y13187056D01*
X10515600Y13179723D01*
X10509363Y13183324D01*
X10488368Y13188950D01*
X10466632D01*
X10445637Y13183324D01*
X10426813Y13172456D01*
X10411444Y13157088D01*
X10400576Y13138263D01*
X10394950Y13117268D01*
Y13095532D01*
X10400576Y13074538D01*
X10411444Y13055713D01*
X10426813Y13040344D01*
X10445637Y13029475D01*
X10466632Y13023849D01*
X10488368D01*
X10509363Y13029475D01*
X10515600Y13033076D01*
X10528300Y13025745D01*
Y12907655D01*
X10515600Y12900323D01*
X10509363Y12903925D01*
X10488368Y12909550D01*
X10466632D01*
X10445637Y12903925D01*
X10426813Y12893056D01*
X10411444Y12877687D01*
X10400576Y12858862D01*
X10394950Y12837868D01*
Y12816132D01*
X10400576Y12795137D01*
X10411444Y12776313D01*
X10426813Y12760944D01*
X10445637Y12750076D01*
X10466632Y12744450D01*
X10488368D01*
X10509363Y12750076D01*
X10515600Y12753677D01*
X10528300Y12746344D01*
X10528300Y9321799D01*
X10325100Y9118600D01*
X9575800D01*
X9246347Y9448053D01*
Y10058400D01*
X9245600Y10062153D01*
Y10426700D01*
X9588500Y10769600D01*
Y11338925D01*
X9590169Y11339981D01*
X9607115Y11335838D01*
X9611344Y11328513D01*
X9626713Y11313144D01*
X9645537Y11302276D01*
X9666532Y11296650D01*
X9688268D01*
X9709263Y11302276D01*
X9728087Y11313144D01*
X9743456Y11328513D01*
X9754324Y11347337D01*
X9759950Y11368332D01*
Y11390068D01*
X9754324Y11411063D01*
X9743456Y11429887D01*
X9728087Y11445256D01*
X9709263Y11456124D01*
X9688268Y11461750D01*
X9666532D01*
X9645537Y11456124D01*
X9626713Y11445256D01*
X9611344Y11429887D01*
X9607115Y11422562D01*
X9590169Y11418419D01*
X9588500Y11419475D01*
Y11808825D01*
X9590169Y11809881D01*
X9607115Y11805738D01*
X9611344Y11798413D01*
X9626713Y11783044D01*
X9645537Y11772176D01*
X9666532Y11766550D01*
X9688268D01*
X9709263Y11772176D01*
X9728087Y11783044D01*
X9743456Y11798413D01*
X9754324Y11817237D01*
X9759950Y11838232D01*
Y11859968D01*
X9754324Y11880963D01*
X9743456Y11899787D01*
X9728087Y11915156D01*
X9709263Y11926024D01*
X9688268Y11931650D01*
X9666532D01*
X9645537Y11926024D01*
X9626713Y11915156D01*
X9611344Y11899787D01*
X9607115Y11892462D01*
X9590169Y11888319D01*
X9588500Y11889375D01*
Y12280900D01*
X9194800Y12674600D01*
X8394700D01*
X8166100Y12903200D01*
Y13462000D01*
X8432800Y13728700D01*
X10096500D01*
X10403123Y13422075D01*
D02*
G37*
G36*
X7557084Y13172621D02*
X7558837Y13165472D01*
X7561758Y13157819D01*
X7565847Y13149657D01*
X7571105Y13140990D01*
X7577531Y13131816D01*
X7585126Y13122136D01*
X7603820Y13101256D01*
X7614920Y13090057D01*
X7472680D01*
X7483780Y13101256D01*
X7510069Y13131816D01*
X7516495Y13140990D01*
X7521753Y13149657D01*
X7525842Y13157819D01*
X7528763Y13165472D01*
X7530516Y13172621D01*
X7531100Y13179263D01*
X7556500D01*
X7557084Y13172621D01*
D02*
G37*
G36*
X17522432Y13639799D02*
X17529897Y13629526D01*
X17521236Y13602869D01*
X17513100Y13551503D01*
Y13499496D01*
X17521236Y13448131D01*
X17537308Y13398669D01*
X17560918Y13352333D01*
X17591486Y13310258D01*
X17628259Y13273485D01*
X17670332Y13242917D01*
X17716670Y13219307D01*
X17766132Y13203236D01*
X17817497Y13195100D01*
X17869502D01*
X17920869Y13203236D01*
X17970329Y13219307D01*
X18016667Y13242917D01*
X18058742Y13273485D01*
X18060367Y13275111D01*
X18064867Y13273698D01*
X18072099Y13268883D01*
Y13246169D01*
X18081767Y13222830D01*
X18099631Y13204967D01*
X18122969Y13195300D01*
X18148232D01*
X18171570Y13204967D01*
X18189433Y13222830D01*
X18199100Y13246169D01*
Y13271431D01*
X18189433Y13294769D01*
X18171570Y13312633D01*
X18148232Y13322301D01*
X18122969D01*
X18118668Y13320518D01*
X18110497Y13330881D01*
X18126083Y13352333D01*
X18149693Y13398669D01*
X18165764Y13448131D01*
X18173900Y13499496D01*
Y13551503D01*
X18165764Y13602869D01*
X18157103Y13629526D01*
X18164568Y13639799D01*
X18592801Y13639799D01*
X18669000Y13563599D01*
Y13220700D01*
X18592799Y13144501D01*
X18516600D01*
X18453101Y13081000D01*
Y12957198D01*
X18440401Y12948711D01*
X18427631Y12953999D01*
X18402370D01*
X18379030Y12944333D01*
X18361166Y12926469D01*
X18351500Y12903131D01*
Y12877869D01*
X18361166Y12854530D01*
X18379030Y12836667D01*
X18402370Y12827000D01*
X18427631D01*
X18440401Y12832289D01*
X18453101Y12823804D01*
Y12433300D01*
X18503900Y12382500D01*
X18618201D01*
X18669000Y12331700D01*
Y12192000D01*
X18605499Y12128500D01*
X18465800D01*
X17653001Y11315702D01*
X17652997Y9893306D01*
X17983205Y9563100D01*
X18314809D01*
X18316017Y9562600D01*
X18341280D01*
X18342487Y9563100D01*
X18630901D01*
X18694400Y9499600D01*
Y8610600D01*
X18618201Y8534400D01*
X18361555D01*
X18350841Y8545115D01*
X18308768Y8575683D01*
X18262430Y8599293D01*
X18212968Y8615364D01*
X18161603Y8623500D01*
X18109596D01*
X18058231Y8615364D01*
X18008771Y8599293D01*
X17962433Y8575683D01*
X17920358Y8545115D01*
X17909644Y8534400D01*
X17805400D01*
X17462500Y8191500D01*
X17342427D01*
X17341258Y8195861D01*
X17332063Y8211789D01*
X17319058Y8224794D01*
X17303130Y8233990D01*
X17285364Y8238750D01*
X17266972D01*
X17249208Y8233990D01*
X17233279Y8224794D01*
X17220274Y8211789D01*
X17211079Y8195861D01*
X17209911Y8191500D01*
X17125793D01*
Y8203096D01*
X17121033Y8220861D01*
X17111838Y8236789D01*
X17098833Y8249794D01*
X17082906Y8258990D01*
X17065138Y8263750D01*
X17046748D01*
X17028983Y8258990D01*
X17013055Y8249794D01*
X17000050Y8236789D01*
X16990854Y8220861D01*
X16986095Y8203096D01*
Y8191500D01*
X16419626D01*
X16058414Y8552712D01*
X16050012Y8558326D01*
X16040102Y8560298D01*
X15626080D01*
X15616170Y8558326D01*
X15607768Y8552712D01*
X15246556Y8191500D01*
X15000708D01*
X15000290Y8193061D01*
X14991093Y8208989D01*
X14978088Y8221994D01*
X14962161Y8231190D01*
X14944395Y8235950D01*
X14926004D01*
X14908240Y8231190D01*
X14892311Y8221994D01*
X14879306Y8208989D01*
X14870110Y8193061D01*
X14869691Y8191500D01*
X13906500D01*
X13322301Y8775699D01*
Y8866729D01*
X13335001Y8876474D01*
X13346098Y8873500D01*
X13369901D01*
X13392892Y8879660D01*
X13413507Y8891562D01*
X13430338Y8908393D01*
X13442239Y8929007D01*
X13448399Y8951998D01*
Y8975801D01*
X13442239Y8998793D01*
X13430338Y9019407D01*
X13413507Y9036238D01*
X13392892Y9048139D01*
X13369901Y9054300D01*
X13346098D01*
X13339752Y9052599D01*
X13328568Y9061180D01*
Y9066619D01*
X13339752Y9075201D01*
X13346098Y9073500D01*
X13369901D01*
X13392892Y9079661D01*
X13413507Y9091562D01*
X13430338Y9108393D01*
X13442239Y9129007D01*
X13448399Y9151998D01*
Y9175801D01*
X13442239Y9198793D01*
X13430338Y9219407D01*
X13413507Y9236238D01*
X13392892Y9248139D01*
X13369901Y9254300D01*
X13346098D01*
X13335001Y9251326D01*
X13322301Y9261071D01*
X13322299Y10033800D01*
X13668684Y10380185D01*
X13684557Y10378096D01*
X13687567Y10372881D01*
X13700572Y10359876D01*
X13716499Y10350681D01*
X13734265Y10345920D01*
X13752657D01*
X13770422Y10350681D01*
X13786349Y10359876D01*
X13799355Y10372881D01*
X13808551Y10388809D01*
X13813310Y10406575D01*
Y10424966D01*
X13808551Y10442731D01*
X13799355Y10458659D01*
X13786349Y10471664D01*
X13781136Y10474675D01*
X13779047Y10490546D01*
X15097589Y11809089D01*
X15106027Y11800651D01*
X15127032Y11791950D01*
X15149768D01*
X15170773Y11800651D01*
X15186848Y11816727D01*
X15195551Y11837732D01*
Y11860468D01*
X15186848Y11881473D01*
X15178410Y11889911D01*
X15353500Y12065000D01*
X16713200D01*
X17195799Y12547600D01*
Y13449300D01*
X17386301Y13639799D01*
X17522432D01*
D02*
G37*
G36*
X7645465Y12683216D02*
X7648485Y12643018D01*
X7650428Y12631987D01*
X7652839Y12622140D01*
X7655718Y12613478D01*
X7659065Y12606000D01*
X7662881Y12599706D01*
X7667164Y12594596D01*
X7649204Y12576636D01*
X7644094Y12580919D01*
X7637800Y12584735D01*
X7630322Y12588082D01*
X7621660Y12590961D01*
X7611813Y12593372D01*
X7600782Y12595315D01*
X7588567Y12596789D01*
X7560584Y12598335D01*
X7544816Y12598405D01*
X7645395Y12698984D01*
X7645465Y12683216D01*
D02*
G37*
G36*
X17094200Y13639799D02*
Y13138560D01*
X17083232Y13135622D01*
X17067303Y13126427D01*
X17054298Y13113422D01*
X17045103Y13097493D01*
X17040343Y13079729D01*
Y13061336D01*
X17045103Y13043571D01*
X17054298Y13027643D01*
X17067303Y13014638D01*
X17083232Y13005441D01*
X17094200Y13002502D01*
Y12767020D01*
X17080414Y12763326D01*
X17064487Y12754130D01*
X17051482Y12741125D01*
X17042285Y12725197D01*
X17037524Y12707432D01*
Y12689040D01*
X17042285Y12671275D01*
X17051482Y12655347D01*
X17064487Y12642342D01*
X17080414Y12633146D01*
X17094200Y12629453D01*
Y12598400D01*
X16990858Y12495059D01*
X16981734Y12499725D01*
X16979515Y12501676D01*
Y12523595D01*
X16970815Y12544600D01*
X16954738Y12560676D01*
X16933733Y12569377D01*
X16910997D01*
X16889992Y12560676D01*
X16873915Y12544600D01*
X16865215Y12523595D01*
Y12500859D01*
X16873915Y12479854D01*
X16889992Y12463777D01*
X16910997Y12455077D01*
X16932916D01*
X16934866Y12452858D01*
X16939532Y12443733D01*
X16687801Y12192000D01*
X15640022D01*
X15633832Y12200067D01*
Y12218459D01*
X15629071Y12236224D01*
X15619876Y12252152D01*
X15606870Y12265157D01*
X15590942Y12274353D01*
X15573177Y12279113D01*
X15554787D01*
X15537019Y12274353D01*
X15521094Y12265157D01*
X15508089Y12252152D01*
X15498892Y12236224D01*
X15494131Y12218459D01*
Y12200067D01*
X15487941Y12192000D01*
X15391425D01*
X13233400Y10000254D01*
Y8785860D01*
X13824667Y8194592D01*
X13818094Y8183205D01*
X13801878Y8187550D01*
X13780144D01*
X13759148Y8181924D01*
X13740324Y8171056D01*
X13724956Y8155687D01*
X13714087Y8136863D01*
X13708461Y8115868D01*
Y8094132D01*
X13712386Y8079490D01*
X13702222Y8069327D01*
X13687579Y8073250D01*
X13665843D01*
X13651201Y8069327D01*
X13641039Y8079490D01*
X13644962Y8094132D01*
Y8115868D01*
X13639336Y8136863D01*
X13628468Y8155687D01*
X13613098Y8171056D01*
X13594273Y8181924D01*
X13573279Y8187550D01*
X13551543D01*
X13530548Y8181924D01*
X13511725Y8171056D01*
X13496355Y8155687D01*
X13485487Y8136863D01*
X13479861Y8115868D01*
Y8094132D01*
X13483784Y8079490D01*
X13473622Y8069327D01*
X13458978Y8073250D01*
X13437244D01*
X13416248Y8067624D01*
X13397424Y8056756D01*
X13382056Y8041387D01*
X13371187Y8022563D01*
X13365561Y8001568D01*
Y7979832D01*
X13371187Y7958837D01*
X13382056Y7940013D01*
X13397424Y7924644D01*
X13416248Y7913776D01*
X13437244Y7908150D01*
X13458978D01*
X13479974Y7913776D01*
X13498798Y7924644D01*
X13514168Y7940013D01*
X13525035Y7958837D01*
X13530661Y7979832D01*
Y8001568D01*
X13526738Y8016210D01*
X13536900Y8026374D01*
X13551543Y8022450D01*
X13573279D01*
X13587923Y8026374D01*
X13598085Y8016210D01*
X13594160Y8001568D01*
Y7979832D01*
X13599786Y7958837D01*
X13610655Y7940013D01*
X13626025Y7924644D01*
X13644849Y7913776D01*
X13665843Y7908150D01*
X13687579D01*
X13708574Y7913776D01*
X13727399Y7924644D01*
X13742767Y7940013D01*
X13753635Y7958837D01*
X13759261Y7979832D01*
Y8001568D01*
X13755338Y8016210D01*
X13765501Y8026374D01*
X13780144Y8022450D01*
X13801878D01*
X13822874Y8028076D01*
X13841698Y8038944D01*
X13857068Y8054313D01*
X13867935Y8073137D01*
X13873561Y8094132D01*
Y8115868D01*
X13869215Y8132083D01*
X13880603Y8138657D01*
X13916660Y8102600D01*
X14905486D01*
X14908240Y8101010D01*
X14926004Y8096250D01*
X14944395D01*
X14962161Y8101010D01*
X14964915Y8102600D01*
X15194281D01*
X15626080Y8534400D01*
X16040102D01*
X16471901Y8102600D01*
X17253725D01*
X17266972Y8099050D01*
X17285364D01*
X17298613Y8102600D01*
X17856200D01*
X17866180Y8101814D01*
X17883585Y8077859D01*
X17920358Y8041085D01*
X17962433Y8010517D01*
X18008771Y7986907D01*
X18058231Y7970836D01*
X18109596Y7962700D01*
X18161603D01*
X18212968Y7970836D01*
X18262430Y7986907D01*
X18308768Y8010517D01*
X18350841Y8041085D01*
X18387614Y8077859D01*
X18418182Y8119933D01*
X18441792Y8166270D01*
X18457864Y8215731D01*
X18466000Y8267097D01*
Y8319103D01*
X18457864Y8370469D01*
X18441792Y8419930D01*
X18418182Y8466267D01*
X18396725Y8495802D01*
X18403197Y8508502D01*
X18618201D01*
X18620702Y8509000D01*
X18669000D01*
X18707100Y8470900D01*
Y7683500D01*
X18317349Y7293750D01*
X18304893Y7296227D01*
X18304233Y7297822D01*
X18286369Y7315685D01*
X18263031Y7325352D01*
X18237769D01*
X18214430Y7315685D01*
X18196567Y7297822D01*
X18186900Y7274483D01*
Y7249221D01*
X18196567Y7225882D01*
X18214044Y7208405D01*
X18216393Y7205515D01*
X18218503Y7194903D01*
X17361667Y6338067D01*
X16997438D01*
X16974231Y6335012D01*
X16952605Y6326054D01*
X16934035Y6311804D01*
X16522797Y5900566D01*
X16508546Y5881995D01*
X16499588Y5860369D01*
X16496533Y5837162D01*
Y5727700D01*
X11163300D01*
X10591800Y6299199D01*
Y6368552D01*
X11178761D01*
X11188672Y6370524D01*
X11197074Y6376138D01*
X11273897Y6452961D01*
X11274850Y6452410D01*
X11292615Y6447650D01*
X11311007D01*
X11328772Y6452410D01*
X11344700Y6461606D01*
X11357705Y6474611D01*
X11366901Y6490539D01*
X11371661Y6508304D01*
Y6526696D01*
X11366901Y6544461D01*
X11357705Y6560389D01*
X11344700Y6573394D01*
X11328772Y6582590D01*
X11311007Y6587350D01*
X11292615D01*
X11274850Y6582590D01*
X11258922Y6573394D01*
X11245917Y6560389D01*
X11236721Y6544461D01*
X11231961Y6526696D01*
Y6508304D01*
X11236721Y6490539D01*
X11237272Y6489585D01*
X11168034Y6420348D01*
X11106675D01*
X11101414Y6433048D01*
X11103705Y6435339D01*
X11112901Y6451266D01*
X11117661Y6469032D01*
Y6487423D01*
X11112901Y6505189D01*
X11103705Y6521116D01*
X11090700Y6534122D01*
X11074772Y6543317D01*
X11057007Y6548078D01*
X11038615D01*
X11020850Y6543317D01*
X11004922Y6534122D01*
X10991917Y6521116D01*
X10982721Y6505189D01*
X10977961Y6487423D01*
Y6469032D01*
X10974712Y6464798D01*
X10620848D01*
X10591800Y6493846D01*
X10591800Y9256234D01*
X10601961Y9259308D01*
X10604500Y9259445D01*
X10621878Y9242067D01*
X10645217Y9232400D01*
X10670479D01*
X10693818Y9242067D01*
X10711681Y9259930D01*
X10721348Y9283269D01*
Y9308531D01*
X10711681Y9331870D01*
X10693818Y9349733D01*
X10670479Y9359400D01*
X10645217D01*
X10621878Y9349733D01*
X10604500Y9332354D01*
X10601961Y9332491D01*
X10591800Y9335566D01*
X10591799Y10235797D01*
Y10551257D01*
X10607056Y10566513D01*
X10617924Y10585337D01*
X10623550Y10606332D01*
Y10628068D01*
X10617924Y10649063D01*
X10610657Y10661650D01*
X10617907Y10674350D01*
X10628068D01*
X10649063Y10679976D01*
X10667887Y10690844D01*
X10683256Y10706213D01*
X10694124Y10725037D01*
X10699750Y10746032D01*
Y10767768D01*
X10694124Y10788763D01*
X10683256Y10807587D01*
X10667887Y10822956D01*
X10649063Y10833824D01*
X10628068Y10839450D01*
X10617907D01*
X10610657Y10852150D01*
X10617924Y10864737D01*
X10623550Y10885732D01*
Y10907468D01*
X10617924Y10928463D01*
X10607056Y10947287D01*
X10591799Y10962543D01*
Y13334999D01*
X11036300Y13779500D01*
X16954500Y13779500D01*
X17094200Y13639799D01*
D02*
G37*
G36*
X7646568Y12374053D02*
X7652682Y12332573D01*
X7655276Y12321333D01*
X7658149Y12311387D01*
X7661300Y12302734D01*
X7664729Y12295375D01*
X7668437Y12289309D01*
X7672423Y12284538D01*
X7656069Y12264971D01*
X7650700Y12269481D01*
X7644252Y12273353D01*
X7636724Y12276589D01*
X7628116Y12279187D01*
X7618428Y12281148D01*
X7607660Y12282471D01*
X7595813Y12283158D01*
X7582886Y12283207D01*
X7553792Y12281393D01*
X7645087Y12390468D01*
X7646568Y12374053D01*
D02*
G37*
G36*
X7645465Y12048216D02*
X7648485Y12008018D01*
X7650428Y11996987D01*
X7652839Y11987140D01*
X7655718Y11978478D01*
X7659065Y11971000D01*
X7662881Y11964706D01*
X7667164Y11959596D01*
X7649204Y11941636D01*
X7644094Y11945919D01*
X7637800Y11949735D01*
X7630322Y11953082D01*
X7621660Y11955961D01*
X7611813Y11958372D01*
X7600782Y11960315D01*
X7588567Y11961789D01*
X7560584Y11963335D01*
X7544816Y11963405D01*
X7645395Y12063984D01*
X7645465Y12048216D01*
D02*
G37*
G36*
X9550400Y12103101D02*
Y11225338D01*
X9538667Y11220478D01*
X9535407Y11223738D01*
X9514793Y11235639D01*
X9491801Y11241800D01*
X9467999D01*
X9445007Y11235639D01*
X9424393Y11223738D01*
X9407562Y11206907D01*
X9395661Y11186293D01*
X9389500Y11163301D01*
Y11139498D01*
X9395661Y11116507D01*
X9407562Y11095893D01*
X9424393Y11079062D01*
X9445007Y11067160D01*
X9467999Y11061000D01*
X9491801D01*
X9514793Y11067160D01*
X9535407Y11079062D01*
X9538667Y11082322D01*
X9550400Y11077461D01*
Y10782300D01*
X9220200Y10452100D01*
X8483600D01*
X8140700Y10795000D01*
Y12484100D01*
X8286750Y12630150D01*
X9023350D01*
X9550400Y12103101D01*
D02*
G37*
G36*
X8503326Y10217062D02*
X8509832Y10211750D01*
X8516593Y10207062D01*
X8523606Y10203000D01*
X8530873Y10199563D01*
X8538394Y10196750D01*
X8546169Y10194563D01*
X8554197Y10193000D01*
X8562478Y10192062D01*
X8571014Y10191750D01*
Y10128250D01*
X8562478Y10127938D01*
X8554197Y10127000D01*
X8546169Y10125437D01*
X8538394Y10123250D01*
X8530873Y10120437D01*
X8523606Y10117000D01*
X8516593Y10112938D01*
X8509832Y10108250D01*
X8503326Y10102938D01*
X8497073Y10097000D01*
Y10223000D01*
X8503326Y10217062D01*
D02*
G37*
G36*
X8657010Y10096500D02*
X8656372Y10102532D01*
X8654457Y10107930D01*
X8651267Y10112692D01*
X8646801Y10116820D01*
X8641058Y10120312D01*
X8634040Y10123170D01*
X8625745Y10125392D01*
X8616175Y10126980D01*
X8605328Y10127933D01*
X8593205Y10128250D01*
Y10191750D01*
X8605328Y10192068D01*
X8616175Y10193020D01*
X8625745Y10194607D01*
X8634040Y10196830D01*
X8641058Y10199688D01*
X8646801Y10203180D01*
X8651267Y10207308D01*
X8654457Y10212070D01*
X8656372Y10217467D01*
X8657010Y10223500D01*
Y10096500D01*
D02*
G37*
G36*
X8431900Y10070004D02*
X8423280Y10069781D01*
X8414923Y10068937D01*
X8406828Y10067472D01*
X8398996Y10065385D01*
X8391426Y10062677D01*
X8384120Y10059347D01*
X8377075Y10055397D01*
X8370294Y10050825D01*
X8363775Y10045632D01*
X8357519Y10039818D01*
X8312618Y10084719D01*
X8318432Y10090975D01*
X8323625Y10097494D01*
X8328197Y10104275D01*
X8332147Y10111320D01*
X8335477Y10118626D01*
X8338185Y10126196D01*
X8340272Y10134028D01*
X8341737Y10142123D01*
X8342581Y10150480D01*
X8342804Y10159100D01*
X8431900Y10070004D01*
D02*
G37*
G36*
X10186380Y8815627D02*
X10190171Y8812578D01*
X10193969Y8809888D01*
X10197774Y8807556D01*
X10201586Y8805584D01*
X10205405Y8803969D01*
X10209232Y8802714D01*
X10213065Y8801817D01*
X10216906Y8801279D01*
X10220754Y8801100D01*
X10221714Y8775700D01*
X10217804Y8775512D01*
X10213943Y8774946D01*
X10210132Y8774003D01*
X10206371Y8772683D01*
X10202660Y8770986D01*
X10198998Y8768912D01*
X10195386Y8766461D01*
X10191824Y8763633D01*
X10188312Y8760428D01*
X10184849Y8756845D01*
X10182596Y8819034D01*
X10186380Y8815627D01*
D02*
G37*
G36*
X10385950Y8502563D02*
X10382049Y8500033D01*
X10378558Y8497334D01*
X10375478Y8494466D01*
X10372808Y8491431D01*
X10370550Y8488227D01*
X10368702Y8484855D01*
X10367264Y8481315D01*
X10366238Y8477607D01*
X10365621Y8473730D01*
X10365416Y8469685D01*
X10340016Y8476155D01*
X10339871Y8479762D01*
X10339434Y8483480D01*
X10338708Y8487309D01*
X10337690Y8491250D01*
X10336381Y8495303D01*
X10334782Y8499468D01*
X10330710Y8508131D01*
X10328238Y8512630D01*
X10325476Y8517241D01*
X10385950Y8502563D01*
D02*
G37*
G36*
X7188322Y8217262D02*
X7188688Y8213979D01*
X7189297Y8210800D01*
X7190151Y8207727D01*
X7191248Y8204759D01*
X7192589Y8201896D01*
X7194174Y8199138D01*
X7196003Y8196485D01*
X7198076Y8193938D01*
X7200392Y8191495D01*
X7150608D01*
X7152924Y8193938D01*
X7154997Y8196485D01*
X7156826Y8199138D01*
X7158411Y8201896D01*
X7159752Y8204759D01*
X7160849Y8207727D01*
X7161703Y8210800D01*
X7162312Y8213979D01*
X7162678Y8217262D01*
X7162800Y8220651D01*
X7188200D01*
X7188322Y8217262D01*
D02*
G37*
G36*
X9995875Y7268946D02*
X9998989Y7266613D01*
X10002344Y7264560D01*
X10005939Y7262788D01*
X10009774Y7261297D01*
X10013850Y7260086D01*
X10018166Y7259155D01*
X10022722Y7258506D01*
X10027519Y7258136D01*
X10032555Y7258048D01*
X9988552Y7214044D01*
X9988464Y7219081D01*
X9988094Y7223878D01*
X9987445Y7228434D01*
X9986514Y7232750D01*
X9985303Y7236826D01*
X9983812Y7240661D01*
X9982040Y7244256D01*
X9979987Y7247611D01*
X9977654Y7250725D01*
X9975041Y7253599D01*
X9993001Y7271559D01*
X9995875Y7268946D01*
D02*
G37*
G36*
X7593977Y7053776D02*
X7589237Y7048856D01*
X7581264Y7039447D01*
X7578032Y7034957D01*
X7575303Y7030612D01*
X7573076Y7026409D01*
X7571352Y7022350D01*
X7570131Y7018435D01*
X7569413Y7014663D01*
X7569197Y7011035D01*
X7506335Y7073897D01*
X7509963Y7074113D01*
X7513735Y7074831D01*
X7517650Y7076052D01*
X7521709Y7077776D01*
X7525912Y7080003D01*
X7530257Y7082732D01*
X7534747Y7085964D01*
X7539380Y7089699D01*
X7549076Y7098677D01*
X7593977Y7053776D01*
D02*
G37*
G36*
X17170599Y6147000D02*
X17074927Y6051327D01*
X17065138Y6053950D01*
X17046748D01*
X17028983Y6049190D01*
X17013055Y6039994D01*
X17000050Y6026989D01*
X16990854Y6011061D01*
X16986095Y5993296D01*
Y5974904D01*
X16988716Y5965116D01*
X16751300Y5727700D01*
X16675867D01*
Y5800020D01*
X17034579Y6158733D01*
X17165739D01*
X17170599Y6147000D01*
D02*
G37*
%LPC*%
G36*
X9648496Y12642850D02*
X9630104D01*
X9612339Y12638090D01*
X9596411Y12628894D01*
X9583406Y12615889D01*
X9574210Y12599961D01*
X9569450Y12582196D01*
Y12563804D01*
X9574210Y12546039D01*
X9583406Y12530111D01*
X9596411Y12517106D01*
X9612339Y12507910D01*
X9630104Y12503150D01*
X9648496D01*
X9666261Y12507910D01*
X9682189Y12517106D01*
X9695194Y12530111D01*
X9704390Y12546039D01*
X9709150Y12563804D01*
Y12582196D01*
X9704390Y12599961D01*
X9695194Y12615889D01*
X9682189Y12628894D01*
X9666261Y12638090D01*
X9648496Y12642850D01*
D02*
G37*
G36*
X10348668Y12439650D02*
X10326932D01*
X10305937Y12434024D01*
X10287113Y12423156D01*
X10271744Y12407787D01*
X10260876Y12388963D01*
X10255250Y12367968D01*
Y12346232D01*
X10260876Y12325237D01*
X10271744Y12306413D01*
X10287113Y12291044D01*
X10305937Y12280176D01*
X10326932Y12274550D01*
X10348668D01*
X10369663Y12280176D01*
X10388487Y12291044D01*
X10403856Y12306413D01*
X10414724Y12325237D01*
X10420350Y12346232D01*
Y12367968D01*
X10414724Y12388963D01*
X10403856Y12407787D01*
X10388487Y12423156D01*
X10369663Y12434024D01*
X10348668Y12439650D01*
D02*
G37*
G36*
X9800896Y12298186D02*
X9782504D01*
X9764739Y12293426D01*
X9748811Y12284230D01*
X9735806Y12271225D01*
X9726610Y12255297D01*
X9721850Y12237532D01*
Y12219140D01*
X9726610Y12201375D01*
X9735806Y12185447D01*
X9748811Y12172442D01*
X9764739Y12163246D01*
X9782504Y12158486D01*
X9800896D01*
X9818661Y12163246D01*
X9834589Y12172442D01*
X9847594Y12185447D01*
X9856790Y12201375D01*
X9861550Y12219140D01*
Y12237532D01*
X9856790Y12255297D01*
X9847594Y12271225D01*
X9834589Y12284230D01*
X9818661Y12293426D01*
X9800896Y12298186D01*
D02*
G37*
G36*
X10348668Y12096750D02*
X10326932D01*
X10305937Y12091124D01*
X10287113Y12080256D01*
X10271744Y12064887D01*
X10260876Y12046063D01*
X10255250Y12025068D01*
Y12003332D01*
X10260876Y11982337D01*
X10271744Y11963513D01*
X10287113Y11948144D01*
X10305937Y11937276D01*
X10326932Y11931650D01*
X10348668D01*
X10369663Y11937276D01*
X10388487Y11948144D01*
X10403856Y11963513D01*
X10414724Y11982337D01*
X10420350Y12003332D01*
Y12025068D01*
X10414724Y12046063D01*
X10403856Y12064887D01*
X10388487Y12080256D01*
X10369663Y12091124D01*
X10348668Y12096750D01*
D02*
G37*
G36*
X10374068Y11703050D02*
X10352332D01*
X10331337Y11697424D01*
X10312513Y11686556D01*
X10297144Y11671187D01*
X10286276Y11652363D01*
X10280650Y11631368D01*
Y11609632D01*
X10286276Y11588637D01*
X10297144Y11569813D01*
X10312513Y11554444D01*
X10331337Y11543576D01*
X10352332Y11537950D01*
X10374068D01*
X10395063Y11543576D01*
X10413887Y11554444D01*
X10429256Y11569813D01*
X10440124Y11588637D01*
X10445750Y11609632D01*
Y11631368D01*
X10440124Y11652363D01*
X10429256Y11671187D01*
X10413887Y11686556D01*
X10395063Y11697424D01*
X10374068Y11703050D01*
D02*
G37*
G36*
X10031168D02*
X10009432D01*
X9988437Y11697424D01*
X9969613Y11686556D01*
X9954244Y11671187D01*
X9943376Y11652363D01*
X9937750Y11631368D01*
Y11609632D01*
X9943376Y11588637D01*
X9954244Y11569813D01*
X9969613Y11554444D01*
X9988437Y11543576D01*
X10009432Y11537950D01*
X10031168D01*
X10052163Y11543576D01*
X10070987Y11554444D01*
X10086356Y11569813D01*
X10097224Y11588637D01*
X10102850Y11609632D01*
Y11631368D01*
X10097224Y11652363D01*
X10086356Y11671187D01*
X10070987Y11686556D01*
X10052163Y11697424D01*
X10031168Y11703050D01*
D02*
G37*
G36*
X9840668D02*
X9818932D01*
X9797937Y11697424D01*
X9779113Y11686556D01*
X9763744Y11671187D01*
X9752876Y11652363D01*
X9747250Y11631368D01*
Y11609632D01*
X9752876Y11588637D01*
X9763744Y11569813D01*
X9779113Y11554444D01*
X9797937Y11543576D01*
X9818932Y11537950D01*
X9840668D01*
X9861663Y11543576D01*
X9880487Y11554444D01*
X9895856Y11569813D01*
X9906724Y11588637D01*
X9912350Y11609632D01*
Y11631368D01*
X9906724Y11652363D01*
X9895856Y11671187D01*
X9880487Y11686556D01*
X9861663Y11697424D01*
X9840668Y11703050D01*
D02*
G37*
G36*
X18263031Y13459451D02*
X18237769D01*
X18214430Y13449785D01*
X18196567Y13431921D01*
X18186900Y13408583D01*
Y13383321D01*
X18196567Y13359982D01*
X18214430Y13342119D01*
X18237769Y13332452D01*
X18263031D01*
X18286369Y13342119D01*
X18304233Y13359982D01*
X18313901Y13383321D01*
Y13408583D01*
X18304233Y13431921D01*
X18286369Y13449785D01*
X18263031Y13459451D01*
D02*
G37*
G36*
X17116571Y12395200D02*
X17098180D01*
X17080414Y12390440D01*
X17064487Y12381244D01*
X17051482Y12368239D01*
X17042285Y12352311D01*
X17037524Y12334546D01*
Y12316154D01*
X17042285Y12298389D01*
X17051482Y12282461D01*
X17064487Y12269456D01*
X17080414Y12260260D01*
X17098180Y12255500D01*
X17116571D01*
X17134335Y12260260D01*
X17150264Y12269456D01*
X17163269Y12282461D01*
X17172466Y12298389D01*
X17177225Y12316154D01*
Y12334546D01*
X17172466Y12352311D01*
X17163269Y12368239D01*
X17150264Y12381244D01*
X17134335Y12390440D01*
X17116571Y12395200D01*
D02*
G37*
G36*
X18287930Y12192000D02*
X18262669D01*
X18239330Y12182333D01*
X18221468Y12164470D01*
X18211800Y12141131D01*
Y12115869D01*
X18221468Y12092530D01*
X18239330Y12074667D01*
X18262669Y12065000D01*
X18287930D01*
X18311270Y12074667D01*
X18329134Y12092530D01*
X18338800Y12115869D01*
Y12141131D01*
X18329134Y12164470D01*
X18311270Y12182333D01*
X18287930Y12192000D01*
D02*
G37*
G36*
X15807468Y11947170D02*
X15784732D01*
X15763727Y11938469D01*
X15747650Y11922393D01*
X15738950Y11901388D01*
Y11878652D01*
X15747650Y11857647D01*
X15763727Y11841570D01*
X15784732Y11832870D01*
X15807468D01*
X15828473Y11841570D01*
X15844550Y11857647D01*
X15853250Y11878652D01*
Y11901388D01*
X15844550Y11922393D01*
X15828473Y11938469D01*
X15807468Y11947170D01*
D02*
G37*
G36*
X15607468D02*
X15584732D01*
X15563727Y11938469D01*
X15547650Y11922393D01*
X15538950Y11901388D01*
Y11878652D01*
X15547650Y11857647D01*
X15563727Y11841570D01*
X15584732Y11832870D01*
X15607468D01*
X15628473Y11841570D01*
X15644550Y11857647D01*
X15653250Y11878652D01*
Y11901388D01*
X15644550Y11922393D01*
X15628473Y11938469D01*
X15607468Y11947170D01*
D02*
G37*
G36*
X15350797Y11957050D02*
X15332404D01*
X15314639Y11952290D01*
X15298711Y11943094D01*
X15285706Y11930089D01*
X15276511Y11914161D01*
X15271750Y11896396D01*
Y11878004D01*
X15276511Y11860239D01*
X15285706Y11844311D01*
X15298711Y11831306D01*
X15314639Y11822110D01*
X15332404Y11817350D01*
X15350797D01*
X15368561Y11822110D01*
X15384489Y11831306D01*
X15397495Y11844311D01*
X15406689Y11860239D01*
X15411450Y11878004D01*
Y11896396D01*
X15406689Y11914161D01*
X15397495Y11930089D01*
X15384489Y11943094D01*
X15368561Y11952290D01*
X15350797Y11957050D01*
D02*
G37*
G36*
X15807468Y11647170D02*
X15784732D01*
X15763727Y11638469D01*
X15747650Y11622393D01*
X15738950Y11601388D01*
Y11578652D01*
X15747650Y11557647D01*
X15763727Y11541571D01*
X15784732Y11532870D01*
X15807468D01*
X15828473Y11541571D01*
X15844550Y11557647D01*
X15853250Y11578652D01*
Y11601388D01*
X15844550Y11622393D01*
X15828473Y11638469D01*
X15807468Y11647170D01*
D02*
G37*
G36*
X15607468D02*
X15584732D01*
X15563727Y11638469D01*
X15547650Y11622393D01*
X15538950Y11601388D01*
Y11578652D01*
X15547650Y11557647D01*
X15563727Y11541571D01*
X15584732Y11532870D01*
X15607468D01*
X15628473Y11541571D01*
X15644550Y11557647D01*
X15653250Y11578652D01*
Y11601388D01*
X15644550Y11622393D01*
X15628473Y11638469D01*
X15607468Y11647170D01*
D02*
G37*
G36*
X15934468Y11995150D02*
X15911732D01*
X15890727Y11986449D01*
X15874651Y11970373D01*
X15865950Y11949368D01*
Y11926632D01*
X15874651Y11905627D01*
X15884781Y11895497D01*
X15889413Y11887200D01*
X15884781Y11878903D01*
X15874651Y11868773D01*
X15865950Y11847768D01*
Y11825032D01*
X15874651Y11804027D01*
X15884781Y11793897D01*
X15889413Y11785600D01*
X15884781Y11777303D01*
X15874651Y11767173D01*
X15865950Y11746168D01*
Y11723432D01*
X15874651Y11702427D01*
X15884781Y11692297D01*
X15889413Y11684000D01*
X15884781Y11675703D01*
X15874651Y11665573D01*
X15865950Y11644568D01*
Y11621832D01*
X15874651Y11600827D01*
X15884781Y11590697D01*
X15889413Y11582400D01*
X15884781Y11574103D01*
X15874651Y11563973D01*
X15865950Y11542968D01*
Y11520232D01*
X15874651Y11499227D01*
X15890727Y11483151D01*
X15911732Y11474450D01*
X15934468D01*
X15955473Y11483151D01*
X15971548Y11499227D01*
X15980251Y11520232D01*
Y11542968D01*
X15971548Y11563973D01*
X15961420Y11574103D01*
X15956786Y11582400D01*
X15961420Y11590697D01*
X15971548Y11600827D01*
X15980251Y11621832D01*
Y11644568D01*
X15971548Y11665573D01*
X15961420Y11675703D01*
X15956786Y11684000D01*
X15961420Y11692297D01*
X15971548Y11702427D01*
X15980251Y11723432D01*
Y11746168D01*
X15971548Y11767173D01*
X15961420Y11777303D01*
X15956786Y11785600D01*
X15961420Y11793897D01*
X15971548Y11804027D01*
X15980251Y11825032D01*
Y11847768D01*
X15971548Y11868773D01*
X15961420Y11878903D01*
X15956786Y11887200D01*
X15961420Y11895497D01*
X15971548Y11905627D01*
X15980251Y11926632D01*
Y11949368D01*
X15971548Y11970373D01*
X15955473Y11986449D01*
X15934468Y11995150D01*
D02*
G37*
G36*
X15353735Y11496543D02*
X15331000D01*
X15309995Y11487843D01*
X15293916Y11471766D01*
X15285217Y11450761D01*
Y11428025D01*
X15293916Y11407020D01*
X15309995Y11390944D01*
X15331000Y11382243D01*
X15353735D01*
X15374741Y11390944D01*
X15390816Y11407020D01*
X15399516Y11428025D01*
Y11450761D01*
X15390816Y11471766D01*
X15374741Y11487843D01*
X15353735Y11496543D01*
D02*
G37*
G36*
X15807468Y11347170D02*
X15784732D01*
X15763727Y11338470D01*
X15747650Y11322393D01*
X15738950Y11301388D01*
Y11278652D01*
X15747650Y11257647D01*
X15763727Y11241571D01*
X15784732Y11232870D01*
X15807468D01*
X15828473Y11241571D01*
X15844550Y11257647D01*
X15853250Y11278652D01*
Y11301388D01*
X15844550Y11322393D01*
X15828473Y11338470D01*
X15807468Y11347170D01*
D02*
G37*
G36*
X15607468D02*
X15584732D01*
X15563727Y11338470D01*
X15547650Y11322393D01*
X15538950Y11301388D01*
Y11278652D01*
X15547650Y11257647D01*
X15563727Y11241571D01*
X15584732Y11232870D01*
X15607468D01*
X15628473Y11241571D01*
X15644550Y11257647D01*
X15653250Y11278652D01*
Y11301388D01*
X15644550Y11322393D01*
X15628473Y11338470D01*
X15607468Y11347170D01*
D02*
G37*
G36*
X15934468Y11296650D02*
X15911732D01*
X15890727Y11287949D01*
X15874651Y11271873D01*
X15865950Y11250868D01*
Y11228132D01*
X15874651Y11207127D01*
X15890727Y11191051D01*
X15911732Y11182350D01*
X15934468D01*
X15955473Y11191051D01*
X15971548Y11207127D01*
X15980251Y11228132D01*
Y11250868D01*
X15971548Y11271873D01*
X15955473Y11287949D01*
X15934468Y11296650D01*
D02*
G37*
G36*
X15060870Y11310388D02*
X15042479D01*
X15024713Y11305628D01*
X15008786Y11296432D01*
X14995781Y11283427D01*
X14986584Y11267499D01*
X14981824Y11249734D01*
Y11231343D01*
X14986584Y11213577D01*
X14995781Y11197649D01*
X15008786Y11184644D01*
X15024713Y11175449D01*
X15042479Y11170688D01*
X15060870D01*
X15078636Y11175449D01*
X15094563Y11184644D01*
X15107568Y11197649D01*
X15116763Y11213577D01*
X15121524Y11231343D01*
Y11249734D01*
X15116763Y11267499D01*
X15107568Y11283427D01*
X15094563Y11296432D01*
X15078636Y11305628D01*
X15060870Y11310388D01*
D02*
G37*
G36*
X15857169Y10903450D02*
X15834431D01*
X15813428Y10894750D01*
X15797350Y10878673D01*
X15788651Y10857668D01*
Y10834932D01*
X15797350Y10813927D01*
X15813428Y10797851D01*
X15834431Y10789150D01*
X15857169D01*
X15878172Y10797851D01*
X15894249Y10813927D01*
X15902950Y10834932D01*
Y10857668D01*
X15894249Y10878673D01*
X15878172Y10894750D01*
X15857169Y10903450D01*
D02*
G37*
G36*
X15653967D02*
X15631232D01*
X15610226Y10894750D01*
X15594150Y10878673D01*
X15585451Y10857668D01*
Y10834932D01*
X15594150Y10813927D01*
X15610226Y10797851D01*
X15631232Y10789150D01*
X15653967D01*
X15674973Y10797851D01*
X15691049Y10813927D01*
X15699750Y10834932D01*
Y10857668D01*
X15691049Y10878673D01*
X15674973Y10894750D01*
X15653967Y10903450D01*
D02*
G37*
G36*
X15354567Y10811826D02*
X15331831D01*
X15310828Y10803125D01*
X15294749Y10787049D01*
X15286050Y10766044D01*
Y10743308D01*
X15294749Y10722303D01*
X15310828Y10706226D01*
X15331831Y10697526D01*
X15354567D01*
X15375574Y10706226D01*
X15391649Y10722303D01*
X15400349Y10743308D01*
Y10766044D01*
X15391649Y10787049D01*
X15375574Y10803125D01*
X15354567Y10811826D01*
D02*
G37*
G36*
X16826532Y10485620D02*
X16808141D01*
X16790375Y10480860D01*
X16774448Y10471664D01*
X16761443Y10458659D01*
X16752246Y10442731D01*
X16747485Y10424966D01*
Y10406575D01*
X16752246Y10388809D01*
X16761443Y10372881D01*
X16774448Y10359876D01*
X16790375Y10350681D01*
X16808141Y10345920D01*
X16826532D01*
X16844296Y10350681D01*
X16860225Y10359876D01*
X16873230Y10372881D01*
X16882426Y10388809D01*
X16887186Y10406575D01*
Y10424966D01*
X16882426Y10442731D01*
X16873230Y10458659D01*
X16860225Y10471664D01*
X16844296Y10480860D01*
X16826532Y10485620D01*
D02*
G37*
G36*
X15518993Y10484350D02*
X15500603D01*
X15482835Y10479590D01*
X15466908Y10470394D01*
X15453905Y10457389D01*
X15444708Y10441461D01*
X15439948Y10423696D01*
Y10405304D01*
X15444708Y10387539D01*
X15453905Y10371611D01*
X15466908Y10358606D01*
X15482835Y10349410D01*
X15500603Y10344650D01*
X15518993D01*
X15536758Y10349410D01*
X15552686Y10358606D01*
X15565691Y10371611D01*
X15574887Y10387539D01*
X15579648Y10405304D01*
Y10423696D01*
X15574887Y10441461D01*
X15565691Y10457389D01*
X15552686Y10470394D01*
X15536758Y10479590D01*
X15518993Y10484350D01*
D02*
G37*
G36*
X14384987Y10260707D02*
X14366595D01*
X14348830Y10255947D01*
X14332903Y10246751D01*
X14319897Y10233746D01*
X14310703Y10217818D01*
X14305940Y10200053D01*
Y10181661D01*
X14310703Y10163896D01*
X14319897Y10147968D01*
X14332903Y10134963D01*
X14348830Y10125767D01*
X14366595Y10121007D01*
X14384987D01*
X14402753Y10125767D01*
X14418680Y10134963D01*
X14431685Y10147968D01*
X14440881Y10163896D01*
X14445641Y10181661D01*
Y10200053D01*
X14440881Y10217818D01*
X14431685Y10233746D01*
X14418680Y10246751D01*
X14402753Y10255947D01*
X14384987Y10260707D01*
D02*
G37*
G36*
X15530869Y10175798D02*
X15512476D01*
X15494711Y10171037D01*
X15478783Y10161841D01*
X15465778Y10148836D01*
X15456583Y10132909D01*
X15451822Y10115143D01*
Y10096752D01*
X15456583Y10078986D01*
X15465778Y10063059D01*
X15478783Y10050054D01*
X15494711Y10040858D01*
X15512476Y10036098D01*
X15530869D01*
X15548633Y10040858D01*
X15564561Y10050054D01*
X15577567Y10063059D01*
X15586761Y10078986D01*
X15591522Y10096752D01*
Y10115143D01*
X15586761Y10132909D01*
X15577567Y10148836D01*
X15564561Y10161841D01*
X15548633Y10171037D01*
X15530869Y10175798D01*
D02*
G37*
G36*
X16826532Y10168120D02*
X16808141D01*
X16790375Y10163360D01*
X16774448Y10154164D01*
X16761443Y10141159D01*
X16752246Y10125231D01*
X16747485Y10107466D01*
Y10089075D01*
X16752246Y10071309D01*
X16761443Y10055381D01*
X16774448Y10042376D01*
X16790375Y10033181D01*
X16808141Y10028420D01*
X16826532D01*
X16844296Y10033181D01*
X16860225Y10042376D01*
X16873230Y10055381D01*
X16882426Y10071309D01*
X16887186Y10089075D01*
Y10107466D01*
X16882426Y10125231D01*
X16873230Y10141159D01*
X16860225Y10154164D01*
X16844296Y10163360D01*
X16826532Y10168120D01*
D02*
G37*
G36*
X13752657D02*
X13734265D01*
X13716499Y10163360D01*
X13700572Y10154164D01*
X13687567Y10141159D01*
X13678371Y10125231D01*
X13673611Y10107466D01*
Y10089075D01*
X13678371Y10071309D01*
X13687567Y10055381D01*
X13700572Y10042376D01*
X13716499Y10033181D01*
X13734265Y10028420D01*
X13752657D01*
X13770422Y10033181D01*
X13786349Y10042376D01*
X13799355Y10055381D01*
X13808551Y10071309D01*
X13813310Y10089075D01*
Y10107466D01*
X13808551Y10125231D01*
X13799355Y10141159D01*
X13786349Y10154164D01*
X13770422Y10163360D01*
X13752657Y10168120D01*
D02*
G37*
G36*
X13819945Y10013471D02*
X13801553D01*
X13783789Y10008711D01*
X13767860Y9999515D01*
X13754855Y9986510D01*
X13745660Y9970582D01*
X13744550Y9966436D01*
X13731401D01*
X13730290Y9970582D01*
X13721094Y9986510D01*
X13708089Y9999515D01*
X13692162Y10008711D01*
X13674396Y10013471D01*
X13656004D01*
X13638239Y10008711D01*
X13622311Y9999515D01*
X13609306Y9986510D01*
X13600110Y9970582D01*
X13595351Y9952817D01*
Y9934425D01*
X13600110Y9916660D01*
X13609306Y9900732D01*
X13622311Y9887727D01*
X13638239Y9878531D01*
X13656004Y9873771D01*
X13674396D01*
X13692162Y9878531D01*
X13708089Y9887727D01*
X13721094Y9900732D01*
X13730290Y9916660D01*
X13731401Y9920806D01*
X13744550D01*
X13745660Y9916660D01*
X13754855Y9900732D01*
X13767860Y9887727D01*
X13783789Y9878531D01*
X13801553Y9873771D01*
X13819945D01*
X13837711Y9878531D01*
X13853639Y9887727D01*
X13866644Y9900732D01*
X13875839Y9916660D01*
X13880600Y9934425D01*
Y9952817D01*
X13875839Y9970582D01*
X13866644Y9986510D01*
X13853639Y9999515D01*
X13837711Y10008711D01*
X13819945Y10013471D01*
D02*
G37*
G36*
X14137445D02*
X14119054D01*
X14101289Y10008711D01*
X14085361Y9999515D01*
X14072356Y9986510D01*
X14063161Y9970582D01*
X14058400Y9952817D01*
Y9934425D01*
X14063161Y9916660D01*
X14072356Y9900732D01*
X14085361Y9887727D01*
X14101289Y9878531D01*
X14119054Y9873771D01*
X14137445D01*
X14155211Y9878531D01*
X14171140Y9887727D01*
X14184145Y9900732D01*
X14193340Y9916660D01*
X14198100Y9934425D01*
Y9952817D01*
X14193340Y9970582D01*
X14184145Y9986510D01*
X14171140Y9999515D01*
X14155211Y10008711D01*
X14137445Y10013471D01*
D02*
G37*
G36*
X16826532Y9850620D02*
X16808141D01*
X16790375Y9845860D01*
X16774448Y9836664D01*
X16761443Y9823659D01*
X16752246Y9807731D01*
X16747485Y9789966D01*
Y9771575D01*
X16752246Y9753809D01*
X16761443Y9737881D01*
X16774448Y9724876D01*
X16790375Y9715681D01*
X16808141Y9710920D01*
X16826532D01*
X16844296Y9715681D01*
X16860225Y9724876D01*
X16873230Y9737881D01*
X16882426Y9753809D01*
X16887186Y9771575D01*
Y9789966D01*
X16882426Y9807731D01*
X16873230Y9823659D01*
X16860225Y9836664D01*
X16844296Y9845860D01*
X16826532Y9850620D01*
D02*
G37*
G36*
X15541086Y9848080D02*
X15522694D01*
X15504929Y9843320D01*
X15489001Y9834124D01*
X15475996Y9821119D01*
X15466800Y9805191D01*
X15462041Y9787426D01*
Y9769034D01*
X15466800Y9751269D01*
X15475996Y9735341D01*
X15489001Y9722336D01*
X15504929Y9713140D01*
X15522694Y9708380D01*
X15541086D01*
X15558852Y9713140D01*
X15574779Y9722336D01*
X15587784Y9735341D01*
X15596980Y9751269D01*
X15601740Y9769034D01*
Y9787426D01*
X15596980Y9805191D01*
X15587784Y9821119D01*
X15574779Y9834124D01*
X15558852Y9843320D01*
X15541086Y9848080D01*
D02*
G37*
G36*
X16826532Y9533120D02*
X16808141D01*
X16790375Y9528360D01*
X16774448Y9519164D01*
X16761443Y9506159D01*
X16752246Y9490231D01*
X16747485Y9472466D01*
Y9454075D01*
X16752246Y9436309D01*
X16761443Y9420381D01*
X16774448Y9407376D01*
X16790375Y9398181D01*
X16808141Y9393420D01*
X16826532D01*
X16844296Y9398181D01*
X16860225Y9407376D01*
X16873230Y9420381D01*
X16882426Y9436309D01*
X16887186Y9454075D01*
Y9472466D01*
X16882426Y9490231D01*
X16873230Y9506159D01*
X16860225Y9519164D01*
X16844296Y9528360D01*
X16826532Y9533120D01*
D02*
G37*
G36*
X15541086Y9530580D02*
X15522694D01*
X15504929Y9525820D01*
X15489001Y9516624D01*
X15475996Y9503619D01*
X15466800Y9487691D01*
X15462041Y9469926D01*
Y9451534D01*
X15466800Y9433769D01*
X15475996Y9417841D01*
X15489001Y9404836D01*
X15504929Y9395640D01*
X15522694Y9390880D01*
X15541086D01*
X15558852Y9395640D01*
X15574779Y9404836D01*
X15587784Y9417841D01*
X15596980Y9433769D01*
X15601740Y9451534D01*
Y9469926D01*
X15596980Y9487691D01*
X15587784Y9503619D01*
X15574779Y9516624D01*
X15558852Y9525820D01*
X15541086Y9530580D01*
D02*
G37*
G36*
X16826532Y9215620D02*
X16808141D01*
X16790375Y9210860D01*
X16774448Y9201664D01*
X16761443Y9188659D01*
X16752246Y9172731D01*
X16747485Y9154966D01*
Y9136575D01*
X16752246Y9118809D01*
X16761443Y9102881D01*
X16774448Y9089876D01*
X16790375Y9080681D01*
X16808141Y9075920D01*
X16826532D01*
X16844296Y9080681D01*
X16860225Y9089876D01*
X16873230Y9102881D01*
X16882426Y9118809D01*
X16887186Y9136575D01*
Y9154966D01*
X16882426Y9172731D01*
X16873230Y9188659D01*
X16860225Y9201664D01*
X16844296Y9210860D01*
X16826532Y9215620D01*
D02*
G37*
G36*
X15541086Y9213080D02*
X15522694D01*
X15504929Y9208320D01*
X15489001Y9199124D01*
X15475996Y9186119D01*
X15466800Y9170191D01*
X15462041Y9152426D01*
Y9134034D01*
X15466800Y9116269D01*
X15475996Y9100341D01*
X15489001Y9087336D01*
X15504929Y9078140D01*
X15522694Y9073380D01*
X15541086D01*
X15558852Y9078140D01*
X15574779Y9087336D01*
X15587784Y9100341D01*
X15596980Y9116269D01*
X15601740Y9134034D01*
Y9152426D01*
X15596980Y9170191D01*
X15587784Y9186119D01*
X15574779Y9199124D01*
X15558852Y9208320D01*
X15541086Y9213080D01*
D02*
G37*
G36*
X14139986Y8743899D02*
X14121594D01*
X14103828Y8739139D01*
X14087901Y8729943D01*
X14074896Y8716938D01*
X14065700Y8701011D01*
X14060941Y8683245D01*
Y8664854D01*
X14065700Y8647088D01*
X14074896Y8631161D01*
X14087901Y8618155D01*
X14103828Y8608960D01*
X14121594Y8604199D01*
X14139986D01*
X14157751Y8608960D01*
X14173679Y8618155D01*
X14186684Y8631161D01*
X14195880Y8647088D01*
X14200639Y8664854D01*
Y8683245D01*
X14195880Y8701011D01*
X14186684Y8716938D01*
X14173679Y8729943D01*
X14157751Y8739139D01*
X14139986Y8743899D01*
D02*
G37*
G36*
X13822485D02*
X13804094D01*
X13786330Y8739139D01*
X13770401Y8729943D01*
X13757396Y8716938D01*
X13748199Y8701011D01*
X13743440Y8683245D01*
Y8664854D01*
X13748199Y8647088D01*
X13757396Y8631161D01*
X13770401Y8618155D01*
X13786330Y8608960D01*
X13804094Y8604199D01*
X13822485D01*
X13840251Y8608960D01*
X13856178Y8618155D01*
X13869183Y8631161D01*
X13878380Y8647088D01*
X13883141Y8664854D01*
Y8683245D01*
X13878380Y8701011D01*
X13869183Y8716938D01*
X13856178Y8729943D01*
X13840251Y8739139D01*
X13822485Y8743899D01*
D02*
G37*
G36*
X12485400Y13361700D02*
X12279600D01*
Y13155901D01*
X12485400D01*
Y13361700D01*
D02*
G37*
G36*
X12167900D02*
X11962100D01*
Y13155901D01*
X12167900D01*
Y13361700D01*
D02*
G37*
G36*
X14626897Y13271500D02*
X14608504D01*
X14590739Y13266740D01*
X14574811Y13257544D01*
X14561806Y13244539D01*
X14552609Y13228612D01*
X14547850Y13210846D01*
Y13192455D01*
X14552609Y13174689D01*
X14561806Y13158762D01*
X14574811Y13145757D01*
X14590739Y13136560D01*
X14608504Y13131799D01*
X14626897D01*
X14644661Y13136560D01*
X14660590Y13145757D01*
X14673595Y13158762D01*
X14682790Y13174689D01*
X14687550Y13192455D01*
Y13210846D01*
X14682790Y13228612D01*
X14673595Y13244539D01*
X14660590Y13257544D01*
X14644661Y13266740D01*
X14626897Y13271500D01*
D02*
G37*
G36*
X12658396Y13150850D02*
X12640004D01*
X12622239Y13146091D01*
X12606311Y13136894D01*
X12593306Y13123889D01*
X12584110Y13107961D01*
X12579350Y13090196D01*
Y13071803D01*
X12584110Y13054039D01*
X12593306Y13038110D01*
X12606311Y13025105D01*
X12622239Y13015910D01*
X12640004Y13011150D01*
X12658396D01*
X12676161Y13015910D01*
X12692089Y13025105D01*
X12705094Y13038110D01*
X12714290Y13054039D01*
X12719050Y13071803D01*
Y13090196D01*
X12714290Y13107961D01*
X12705094Y13123889D01*
X12692089Y13136894D01*
X12676161Y13146091D01*
X12658396Y13150850D01*
D02*
G37*
G36*
X14169696Y13138150D02*
X14151305D01*
X14133539Y13133389D01*
X14117612Y13124194D01*
X14104607Y13111189D01*
X14095410Y13095261D01*
X14090649Y13077496D01*
Y13059103D01*
X14095410Y13041339D01*
X14104607Y13025410D01*
X14117612Y13012405D01*
X14133539Y13003210D01*
X14151305Y12998450D01*
X14169696D01*
X14187460Y13003210D01*
X14203389Y13012405D01*
X14216394Y13025410D01*
X14225591Y13041339D01*
X14230350Y13059103D01*
Y13077496D01*
X14225591Y13095261D01*
X14216394Y13111189D01*
X14203389Y13124194D01*
X14187460Y13133389D01*
X14169696Y13138150D01*
D02*
G37*
G36*
X15581047Y13135023D02*
X15562656D01*
X15544890Y13130264D01*
X15528963Y13121068D01*
X15515958Y13108063D01*
X15506761Y13092136D01*
X15502000Y13074370D01*
Y13055978D01*
X15506761Y13038213D01*
X15515958Y13022285D01*
X15528963Y13009280D01*
X15544890Y13000084D01*
X15562656Y12995325D01*
X15581047D01*
X15598811Y13000084D01*
X15614740Y13009280D01*
X15627745Y13022285D01*
X15636942Y13038213D01*
X15641701Y13055978D01*
Y13074370D01*
X15636942Y13092136D01*
X15627745Y13108063D01*
X15614740Y13121068D01*
X15598811Y13130264D01*
X15581047Y13135023D01*
D02*
G37*
G36*
X15142419Y13233400D02*
X15108980D01*
X15076680Y13224745D01*
X15047720Y13208025D01*
X15024075Y13184380D01*
X15007355Y13155420D01*
X14998700Y13123120D01*
Y13089680D01*
X15007355Y13057381D01*
X15024075Y13028419D01*
X15047720Y13004774D01*
X15076680Y12988055D01*
X15108980Y12979401D01*
X15142419D01*
X15174719Y12988055D01*
X15203680Y13004774D01*
X15227325Y13028419D01*
X15244044Y13057381D01*
X15252699Y13089680D01*
Y13123120D01*
X15244044Y13155420D01*
X15227325Y13184380D01*
X15203680Y13208025D01*
X15174719Y13224745D01*
X15142419Y13233400D01*
D02*
G37*
G36*
X12396047Y13107700D02*
X12368953D01*
X12342782Y13100688D01*
X12319318Y13087140D01*
X12300160Y13067982D01*
X12286612Y13044518D01*
X12279600Y13018347D01*
Y12991254D01*
X12286612Y12965082D01*
X12300160Y12941618D01*
X12319318Y12922459D01*
X12342782Y12908913D01*
X12368953Y12901900D01*
X12396047D01*
X12422218Y12908913D01*
X12445682Y12922459D01*
X12464840Y12941618D01*
X12478388Y12965082D01*
X12485400Y12991254D01*
Y13018347D01*
X12478388Y13044518D01*
X12464840Y13067982D01*
X12445682Y13087140D01*
X12422218Y13100688D01*
X12396047Y13107700D01*
D02*
G37*
G36*
X12078547D02*
X12051453D01*
X12025282Y13100688D01*
X12001818Y13087140D01*
X11982660Y13067982D01*
X11969112Y13044518D01*
X11962100Y13018347D01*
Y12991254D01*
X11969112Y12965082D01*
X11982660Y12941618D01*
X12001818Y12922459D01*
X12025282Y12908913D01*
X12051453Y12901900D01*
X12078547D01*
X12104718Y12908913D01*
X12128182Y12922459D01*
X12147340Y12941618D01*
X12160888Y12965082D01*
X12167900Y12991254D01*
Y13018347D01*
X12160888Y13044518D01*
X12147340Y13067982D01*
X12128182Y13087140D01*
X12104718Y13100688D01*
X12078547Y13107700D01*
D02*
G37*
G36*
X16933733Y12938855D02*
X16910997D01*
X16889992Y12930154D01*
X16873915Y12914078D01*
X16865215Y12893073D01*
Y12870337D01*
X16873915Y12849332D01*
X16889992Y12833257D01*
X16910997Y12824554D01*
X16933733D01*
X16954738Y12833257D01*
X16970815Y12849332D01*
X16979515Y12870337D01*
Y12893073D01*
X16970815Y12914078D01*
X16954738Y12930154D01*
X16933733Y12938855D01*
D02*
G37*
G36*
X12396047Y12853700D02*
X12368953D01*
X12342782Y12846687D01*
X12319318Y12833141D01*
X12300160Y12813982D01*
X12286612Y12790518D01*
X12279600Y12764347D01*
Y12737253D01*
X12286612Y12711082D01*
X12300160Y12687618D01*
X12319318Y12668460D01*
X12342782Y12654912D01*
X12368953Y12647900D01*
X12396047D01*
X12422218Y12654912D01*
X12445682Y12668460D01*
X12464840Y12687618D01*
X12478388Y12711082D01*
X12485400Y12737253D01*
Y12764347D01*
X12478388Y12790518D01*
X12464840Y12813982D01*
X12445682Y12833141D01*
X12422218Y12846687D01*
X12396047Y12853700D01*
D02*
G37*
G36*
X12078547D02*
X12051453D01*
X12025282Y12846687D01*
X12001818Y12833141D01*
X11982660Y12813982D01*
X11969112Y12790518D01*
X11962100Y12764347D01*
Y12737253D01*
X11969112Y12711082D01*
X11982660Y12687618D01*
X12001818Y12668460D01*
X12025282Y12654912D01*
X12051453Y12647900D01*
X12078547D01*
X12104718Y12654912D01*
X12128182Y12668460D01*
X12147340Y12687618D01*
X12160888Y12711082D01*
X12167900Y12737253D01*
Y12764347D01*
X12160888Y12790518D01*
X12147340Y12813982D01*
X12128182Y12833141D01*
X12104718Y12846687D01*
X12078547Y12853700D01*
D02*
G37*
G36*
X14670215Y12783950D02*
X14651823D01*
X14634058Y12779190D01*
X14618130Y12769994D01*
X14605125Y12756989D01*
X14595929Y12741061D01*
X14591170Y12723296D01*
Y12704904D01*
X14595929Y12687139D01*
X14605125Y12671211D01*
X14618130Y12658206D01*
X14634058Y12649010D01*
X14651823Y12644250D01*
X14670215D01*
X14687981Y12649010D01*
X14703908Y12658206D01*
X14716913Y12671211D01*
X14726109Y12687139D01*
X14730869Y12704904D01*
Y12723296D01*
X14726109Y12741061D01*
X14716913Y12756989D01*
X14703908Y12769994D01*
X14687981Y12779190D01*
X14670215Y12783950D01*
D02*
G37*
G36*
X14169696Y12769850D02*
X14151305D01*
X14133539Y12765090D01*
X14117612Y12755894D01*
X14104607Y12742889D01*
X14095410Y12726961D01*
X14090649Y12709196D01*
Y12690804D01*
X14095410Y12673039D01*
X14104607Y12657111D01*
X14117612Y12644106D01*
X14133539Y12634910D01*
X14151305Y12630150D01*
X14169696D01*
X14187460Y12634910D01*
X14203389Y12644106D01*
X14216394Y12657111D01*
X14225591Y12673039D01*
X14230350Y12690804D01*
Y12709196D01*
X14225591Y12726961D01*
X14216394Y12742889D01*
X14203389Y12755894D01*
X14187460Y12765090D01*
X14169696Y12769850D01*
D02*
G37*
G36*
X12650046Y12766175D02*
X12631654D01*
X12613889Y12761415D01*
X12597961Y12752219D01*
X12584956Y12739214D01*
X12575760Y12723286D01*
X12571000Y12705521D01*
Y12687129D01*
X12575760Y12669364D01*
X12584956Y12653436D01*
X12597961Y12640431D01*
X12613889Y12631235D01*
X12631654Y12626475D01*
X12650046D01*
X12667811Y12631235D01*
X12683739Y12640431D01*
X12696744Y12653436D01*
X12705940Y12669364D01*
X12710700Y12687129D01*
Y12705521D01*
X12705940Y12723286D01*
X12696744Y12739214D01*
X12683739Y12752219D01*
X12667811Y12761415D01*
X12650046Y12766175D01*
D02*
G37*
G36*
X15581047Y12765546D02*
X15562656D01*
X15544890Y12760786D01*
X15528963Y12751590D01*
X15515958Y12738585D01*
X15506761Y12722657D01*
X15502000Y12704892D01*
Y12686500D01*
X15506761Y12668735D01*
X15515958Y12652807D01*
X15528963Y12639802D01*
X15544890Y12630606D01*
X15562656Y12625846D01*
X15581047D01*
X15598811Y12630606D01*
X15614740Y12639802D01*
X15627745Y12652807D01*
X15636942Y12668735D01*
X15641701Y12686500D01*
Y12704892D01*
X15636942Y12722657D01*
X15627745Y12738585D01*
X15614740Y12751590D01*
X15598811Y12760786D01*
X15581047Y12765546D01*
D02*
G37*
G36*
X10804196Y12642850D02*
X10785804D01*
X10768039Y12638090D01*
X10752111Y12628894D01*
X10739106Y12615889D01*
X10729910Y12599961D01*
X10725150Y12582196D01*
Y12563804D01*
X10729910Y12546039D01*
X10739106Y12530111D01*
X10752111Y12517106D01*
X10768039Y12507910D01*
X10785804Y12503150D01*
X10804196D01*
X10821961Y12507910D01*
X10837889Y12517106D01*
X10850894Y12530111D01*
X10860090Y12546039D01*
X10864850Y12563804D01*
Y12582196D01*
X10860090Y12599961D01*
X10850894Y12615889D01*
X10837889Y12628894D01*
X10821961Y12638090D01*
X10804196Y12642850D01*
D02*
G37*
G36*
X15511900Y12585700D02*
X15493509D01*
X15475745Y12580940D01*
X15459816Y12571744D01*
X15446811Y12558739D01*
X15437614Y12542811D01*
X15432855Y12525046D01*
Y12506654D01*
X15437614Y12488889D01*
X15446811Y12472961D01*
X15459816Y12459956D01*
X15475745Y12450760D01*
X15493509Y12446000D01*
X15511900D01*
X15529666Y12450760D01*
X15545593Y12459956D01*
X15558598Y12472961D01*
X15567795Y12488889D01*
X15572556Y12506654D01*
Y12525046D01*
X15567795Y12542811D01*
X15558598Y12558739D01*
X15545593Y12571744D01*
X15529666Y12580940D01*
X15511900Y12585700D01*
D02*
G37*
G36*
X14304726D02*
X14286334D01*
X14268568Y12580940D01*
X14252641Y12571744D01*
X14239635Y12558739D01*
X14230440Y12542811D01*
X14225679Y12525046D01*
Y12506654D01*
X14230440Y12488889D01*
X14239635Y12472961D01*
X14252641Y12459956D01*
X14268568Y12450760D01*
X14286334Y12446000D01*
X14304726D01*
X14322491Y12450760D01*
X14338419Y12459956D01*
X14351424Y12472961D01*
X14360619Y12488889D01*
X14365379Y12506654D01*
Y12525046D01*
X14360619Y12542811D01*
X14351424Y12558739D01*
X14338419Y12571744D01*
X14322491Y12580940D01*
X14304726Y12585700D01*
D02*
G37*
G36*
X11821765Y12477750D02*
X11799030D01*
X11778025Y12469049D01*
X11761948Y12452973D01*
X11753248Y12431968D01*
Y12409232D01*
X11761948Y12388227D01*
X11778025Y12372151D01*
X11799030Y12363450D01*
X11821765D01*
X11842770Y12372151D01*
X11858847Y12388227D01*
X11867548Y12409232D01*
Y12431968D01*
X11858847Y12452973D01*
X11842770Y12469049D01*
X11821765Y12477750D01*
D02*
G37*
G36*
X12697730Y12416971D02*
X12679338D01*
X12661573Y12412211D01*
X12645645Y12403015D01*
X12632640Y12390010D01*
X12623444Y12374082D01*
X12618684Y12356317D01*
Y12337925D01*
X12623444Y12320160D01*
X12632640Y12304232D01*
X12645645Y12291227D01*
X12661573Y12282031D01*
X12679338Y12277271D01*
X12697730D01*
X12715495Y12282031D01*
X12731423Y12291227D01*
X12744428Y12304232D01*
X12753624Y12320160D01*
X12758384Y12337925D01*
Y12356317D01*
X12753624Y12374082D01*
X12744428Y12390010D01*
X12731423Y12403015D01*
X12715495Y12412211D01*
X12697730Y12416971D01*
D02*
G37*
G36*
X11504368Y12439650D02*
X11482632D01*
X11461637Y12434024D01*
X11442813Y12423156D01*
X11427444Y12407787D01*
X11416576Y12388963D01*
X11410950Y12367968D01*
Y12346232D01*
X11416576Y12325237D01*
X11427444Y12306413D01*
X11442813Y12291044D01*
X11461637Y12280176D01*
X11482632Y12274550D01*
X11504368D01*
X11525363Y12280176D01*
X11544187Y12291044D01*
X11559556Y12306413D01*
X11570424Y12325237D01*
X11576050Y12346232D01*
Y12367968D01*
X11570424Y12388963D01*
X11559556Y12407787D01*
X11544187Y12423156D01*
X11525363Y12434024D01*
X11504368Y12439650D01*
D02*
G37*
G36*
X14169696Y12395200D02*
X14151305D01*
X14133539Y12390440D01*
X14117612Y12381244D01*
X14104607Y12368239D01*
X14095410Y12352311D01*
X14090649Y12334546D01*
Y12316154D01*
X14095410Y12298389D01*
X14104607Y12282461D01*
X14117612Y12269456D01*
X14133539Y12260260D01*
X14151305Y12255500D01*
X14169696D01*
X14187460Y12260260D01*
X14203389Y12269456D01*
X14216394Y12282461D01*
X14225591Y12298389D01*
X14230350Y12316154D01*
Y12334546D01*
X14225591Y12352311D01*
X14216394Y12368239D01*
X14203389Y12381244D01*
X14187460Y12390440D01*
X14169696Y12395200D01*
D02*
G37*
G36*
X14917397Y12361663D02*
X14899004D01*
X14881239Y12356903D01*
X14865311Y12347707D01*
X14852306Y12334702D01*
X14843111Y12318774D01*
X14838350Y12301009D01*
Y12282617D01*
X14843111Y12264852D01*
X14852306Y12248924D01*
X14865311Y12235919D01*
X14881239Y12226723D01*
X14899004Y12221963D01*
X14917397D01*
X14935161Y12226723D01*
X14951089Y12235919D01*
X14964095Y12248924D01*
X14973289Y12264852D01*
X14978050Y12282617D01*
Y12301009D01*
X14973289Y12318774D01*
X14964095Y12334702D01*
X14951089Y12347707D01*
X14935161Y12356903D01*
X14917397Y12361663D01*
D02*
G37*
G36*
X10992932Y12298186D02*
X10974540D01*
X10956775Y12293426D01*
X10940847Y12284230D01*
X10927842Y12271225D01*
X10918646Y12255297D01*
X10913886Y12237532D01*
Y12219140D01*
X10918646Y12201375D01*
X10927842Y12185447D01*
X10940847Y12172442D01*
X10956775Y12163246D01*
X10974540Y12158486D01*
X10992932D01*
X11010697Y12163246D01*
X11026625Y12172442D01*
X11039630Y12185447D01*
X11048826Y12201375D01*
X11053586Y12219140D01*
Y12237532D01*
X11048826Y12255297D01*
X11039630Y12271225D01*
X11026625Y12284230D01*
X11010697Y12293426D01*
X10992932Y12298186D01*
D02*
G37*
G36*
X12635168Y12185650D02*
X12612432D01*
X12591427Y12176949D01*
X12575351Y12160873D01*
X12566650Y12139868D01*
Y12117132D01*
X12575351Y12096127D01*
X12591427Y12080051D01*
X12612432Y12071350D01*
X12635168D01*
X12656173Y12080051D01*
X12672249Y12096127D01*
X12680950Y12117132D01*
Y12139868D01*
X12672249Y12160873D01*
X12656173Y12176949D01*
X12635168Y12185650D01*
D02*
G37*
G36*
X14605669Y12149550D02*
X14582932D01*
X14561926Y12140849D01*
X14545851Y12124773D01*
X14537151Y12103768D01*
Y12081032D01*
X14545851Y12060027D01*
X14561926Y12043951D01*
X14582932Y12035250D01*
X14605669D01*
X14626672Y12043951D01*
X14642749Y12060027D01*
X14651450Y12081032D01*
Y12103768D01*
X14642749Y12124773D01*
X14626672Y12140849D01*
X14605669Y12149550D01*
D02*
G37*
G36*
X11504368Y12096750D02*
X11482632D01*
X11461637Y12091124D01*
X11442813Y12080256D01*
X11427444Y12064887D01*
X11416576Y12046063D01*
X11410950Y12025068D01*
Y12003332D01*
X11416576Y11982337D01*
X11427444Y11963513D01*
X11442813Y11948144D01*
X11461637Y11937276D01*
X11482632Y11931650D01*
X11504368D01*
X11525363Y11937276D01*
X11544187Y11948144D01*
X11559556Y11963513D01*
X11570424Y11982337D01*
X11576050Y12003332D01*
Y12025068D01*
X11570424Y12046063D01*
X11559556Y12064887D01*
X11544187Y12080256D01*
X11525363Y12091124D01*
X11504368Y12096750D01*
D02*
G37*
G36*
X11161468D02*
X11139732D01*
X11118737Y12091124D01*
X11099913Y12080256D01*
X11084544Y12064887D01*
X11073676Y12046063D01*
X11068050Y12025068D01*
Y12003332D01*
X11073676Y11982337D01*
X11084544Y11963513D01*
X11099913Y11948144D01*
X11118737Y11937276D01*
X11139732Y11931650D01*
X11161468D01*
X11182463Y11937276D01*
X11201287Y11948144D01*
X11216656Y11963513D01*
X11227524Y11982337D01*
X11233150Y12003332D01*
Y12025068D01*
X11227524Y12046063D01*
X11216656Y12064887D01*
X11201287Y12080256D01*
X11182463Y12091124D01*
X11161468Y12096750D01*
D02*
G37*
G36*
X12749468Y11947170D02*
X12726732D01*
X12705727Y11938469D01*
X12689651Y11922393D01*
X12680950Y11901388D01*
Y11878652D01*
X12689651Y11857647D01*
X12705727Y11841570D01*
X12726732Y11832870D01*
X12749468D01*
X12770473Y11841570D01*
X12786549Y11857647D01*
X12795250Y11878652D01*
Y11901388D01*
X12786549Y11922393D01*
X12770473Y11938469D01*
X12749468Y11947170D01*
D02*
G37*
G36*
X12549468D02*
X12526732D01*
X12505727Y11938469D01*
X12489650Y11922393D01*
X12480950Y11901388D01*
Y11878652D01*
X12489650Y11857647D01*
X12505727Y11841570D01*
X12526732Y11832870D01*
X12549468D01*
X12570473Y11841570D01*
X12586549Y11857647D01*
X12595250Y11878652D01*
Y11901388D01*
X12586549Y11922393D01*
X12570473Y11938469D01*
X12549468Y11947170D01*
D02*
G37*
G36*
X12277396Y11957050D02*
X12259004D01*
X12241239Y11952290D01*
X12225311Y11943094D01*
X12212306Y11930089D01*
X12203110Y11914161D01*
X12198350Y11896396D01*
Y11878004D01*
X12203110Y11860239D01*
X12212306Y11844311D01*
X12225311Y11831306D01*
X12241239Y11822110D01*
X12259004Y11817350D01*
X12277396D01*
X12295161Y11822110D01*
X12311089Y11831306D01*
X12324094Y11844311D01*
X12333290Y11860239D01*
X12338050Y11878004D01*
Y11896396D01*
X12333290Y11914161D01*
X12324094Y11930089D01*
X12311089Y11943094D01*
X12295161Y11952290D01*
X12277396Y11957050D01*
D02*
G37*
G36*
X12076368Y11944350D02*
X12053632D01*
X12032627Y11935649D01*
X12016551Y11919573D01*
X12007850Y11898568D01*
Y11875832D01*
X12016551Y11854827D01*
X12032627Y11838751D01*
X12053632Y11830050D01*
X12066217D01*
X12071350Y11822368D01*
Y11799632D01*
X12080051Y11778627D01*
X12096127Y11762551D01*
X12117132Y11753850D01*
X12139868D01*
X12160873Y11762551D01*
X12176949Y11778627D01*
X12185650Y11799632D01*
Y11822368D01*
X12176949Y11843373D01*
X12160873Y11859449D01*
X12139868Y11868150D01*
X12127283D01*
X12122150Y11875832D01*
Y11898568D01*
X12113449Y11919573D01*
X12097373Y11935649D01*
X12076368Y11944350D01*
D02*
G37*
G36*
X12749468Y11647170D02*
X12726732D01*
X12705727Y11638469D01*
X12689651Y11622393D01*
X12680950Y11601388D01*
Y11578652D01*
X12689651Y11557647D01*
X12705727Y11541571D01*
X12726732Y11532870D01*
X12749468D01*
X12770473Y11541571D01*
X12786549Y11557647D01*
X12795250Y11578652D01*
Y11601388D01*
X12786549Y11622393D01*
X12770473Y11638469D01*
X12749468Y11647170D01*
D02*
G37*
G36*
X12549468D02*
X12526732D01*
X12505727Y11638469D01*
X12489650Y11622393D01*
X12480950Y11601388D01*
Y11578652D01*
X12489650Y11557647D01*
X12505727Y11541571D01*
X12526732Y11532870D01*
X12549468D01*
X12570473Y11541571D01*
X12586549Y11557647D01*
X12595250Y11578652D01*
Y11601388D01*
X12586549Y11622393D01*
X12570473Y11638469D01*
X12549468Y11647170D01*
D02*
G37*
G36*
X12876468Y11995150D02*
X12853732D01*
X12832727Y11986449D01*
X12816650Y11970373D01*
X12807950Y11949368D01*
Y11926632D01*
X12816650Y11905627D01*
X12826781Y11895497D01*
X12831413Y11887200D01*
X12826781Y11878903D01*
X12816650Y11868773D01*
X12807950Y11847768D01*
Y11825032D01*
X12816650Y11804027D01*
X12826781Y11793897D01*
X12831413Y11785600D01*
X12826781Y11777303D01*
X12816650Y11767173D01*
X12807950Y11746168D01*
Y11723432D01*
X12816650Y11702427D01*
X12826781Y11692297D01*
X12831413Y11684000D01*
X12826781Y11675703D01*
X12816650Y11665573D01*
X12807950Y11644568D01*
Y11621832D01*
X12816650Y11600827D01*
X12826781Y11590697D01*
X12831413Y11582400D01*
X12826781Y11574103D01*
X12816650Y11563973D01*
X12807950Y11542968D01*
Y11520232D01*
X12816650Y11499227D01*
X12832727Y11483151D01*
X12853732Y11474450D01*
X12876468D01*
X12897473Y11483151D01*
X12913548Y11499227D01*
X12922250Y11520232D01*
Y11542968D01*
X12913548Y11563973D01*
X12903419Y11574103D01*
X12898785Y11582400D01*
X12903419Y11590697D01*
X12913548Y11600827D01*
X12922250Y11621832D01*
Y11644568D01*
X12913548Y11665573D01*
X12903419Y11675703D01*
X12898785Y11684000D01*
X12903419Y11692297D01*
X12913548Y11702427D01*
X12922250Y11723432D01*
Y11746168D01*
X12913548Y11767173D01*
X12903419Y11777303D01*
X12898785Y11785600D01*
X12903419Y11793897D01*
X12913548Y11804027D01*
X12922250Y11825032D01*
Y11847768D01*
X12913548Y11868773D01*
X12903419Y11878903D01*
X12898785Y11887200D01*
X12903419Y11895497D01*
X12913548Y11905627D01*
X12922250Y11926632D01*
Y11949368D01*
X12913548Y11970373D01*
X12897473Y11986449D01*
X12876468Y11995150D01*
D02*
G37*
G36*
X12295735Y11496543D02*
X12272999D01*
X12251994Y11487843D01*
X12235917Y11471766D01*
X12227217Y11450761D01*
Y11428025D01*
X12235917Y11407020D01*
X12251994Y11390944D01*
X12272999Y11382243D01*
X12295735D01*
X12316740Y11390944D01*
X12332816Y11407020D01*
X12341517Y11428025D01*
Y11450761D01*
X12332816Y11471766D01*
X12316740Y11487843D01*
X12295735Y11496543D01*
D02*
G37*
G36*
X12749468Y11347170D02*
X12726732D01*
X12705727Y11338470D01*
X12689651Y11322393D01*
X12680950Y11301388D01*
Y11278652D01*
X12689651Y11257647D01*
X12705727Y11241571D01*
X12726732Y11232870D01*
X12749468D01*
X12770473Y11241571D01*
X12786549Y11257647D01*
X12795250Y11278652D01*
Y11301388D01*
X12786549Y11322393D01*
X12770473Y11338470D01*
X12749468Y11347170D01*
D02*
G37*
G36*
X12549468D02*
X12526732D01*
X12505727Y11338470D01*
X12489650Y11322393D01*
X12480950Y11301388D01*
Y11278652D01*
X12489650Y11257647D01*
X12505727Y11241571D01*
X12526732Y11232870D01*
X12549468D01*
X12570473Y11241571D01*
X12586549Y11257647D01*
X12595250Y11278652D01*
Y11301388D01*
X12586549Y11322393D01*
X12570473Y11338470D01*
X12549468Y11347170D01*
D02*
G37*
G36*
X12876468Y11296650D02*
X12853732D01*
X12832727Y11287949D01*
X12816650Y11271873D01*
X12807950Y11250868D01*
Y11228132D01*
X12816650Y11207127D01*
X12832727Y11191051D01*
X12853732Y11182350D01*
X12876468D01*
X12897473Y11191051D01*
X12913548Y11207127D01*
X12922250Y11228132D01*
Y11250868D01*
X12913548Y11271873D01*
X12897473Y11287949D01*
X12876468Y11296650D01*
D02*
G37*
G36*
X12026196Y11310388D02*
X12007804D01*
X11990039Y11305628D01*
X11974111Y11296432D01*
X11961106Y11283427D01*
X11951910Y11267499D01*
X11947150Y11249734D01*
Y11231343D01*
X11951910Y11213577D01*
X11961106Y11197649D01*
X11974111Y11184644D01*
X11990039Y11175449D01*
X12007804Y11170688D01*
X12026196D01*
X12043961Y11175449D01*
X12059889Y11184644D01*
X12072894Y11197649D01*
X12082090Y11213577D01*
X12086850Y11231343D01*
Y11249734D01*
X12082090Y11267499D01*
X12072894Y11283427D01*
X12059889Y11296432D01*
X12043961Y11305628D01*
X12026196Y11310388D01*
D02*
G37*
G36*
X12799168Y10903450D02*
X12776432D01*
X12755427Y10894750D01*
X12739350Y10878673D01*
X12730650Y10857668D01*
Y10834932D01*
X12739350Y10813927D01*
X12755427Y10797851D01*
X12776432Y10789150D01*
X12799168D01*
X12820174Y10797851D01*
X12836249Y10813927D01*
X12844949Y10834932D01*
Y10857668D01*
X12836249Y10878673D01*
X12820174Y10894750D01*
X12799168Y10903450D01*
D02*
G37*
G36*
X12595968D02*
X12573232D01*
X12552227Y10894750D01*
X12536150Y10878673D01*
X12527450Y10857668D01*
Y10834932D01*
X12536150Y10813927D01*
X12552227Y10797851D01*
X12573232Y10789150D01*
X12595968D01*
X12616973Y10797851D01*
X12633049Y10813927D01*
X12641750Y10834932D01*
Y10857668D01*
X12633049Y10878673D01*
X12616973Y10894750D01*
X12595968Y10903450D01*
D02*
G37*
G36*
X12304968Y10814050D02*
X12282232D01*
X12261227Y10805349D01*
X12245151Y10789273D01*
X12236450Y10768268D01*
Y10745532D01*
X12245151Y10724527D01*
X12261227Y10708451D01*
X12282232Y10699750D01*
X12304968D01*
X12325973Y10708451D01*
X12342049Y10724527D01*
X12350750Y10745532D01*
Y10768268D01*
X12342049Y10789273D01*
X12325973Y10805349D01*
X12304968Y10814050D01*
D02*
G37*
G36*
X12483085Y10483080D02*
X12464694D01*
X12446928Y10478320D01*
X12431001Y10469124D01*
X12417995Y10456119D01*
X12408800Y10440191D01*
X12404039Y10422426D01*
Y10404034D01*
X12408800Y10386269D01*
X12417995Y10370341D01*
X12431001Y10357336D01*
X12446928Y10348140D01*
X12464694Y10343380D01*
X12483085D01*
X12500851Y10348140D01*
X12516778Y10357336D01*
X12529783Y10370341D01*
X12538979Y10386269D01*
X12543739Y10404034D01*
Y10422426D01*
X12538979Y10440191D01*
X12529783Y10456119D01*
X12516778Y10469124D01*
X12500851Y10478320D01*
X12483085Y10483080D01*
D02*
G37*
G36*
Y10165580D02*
X12464694D01*
X12446928Y10160820D01*
X12431001Y10151624D01*
X12417995Y10138619D01*
X12408800Y10122691D01*
X12404039Y10104926D01*
Y10086534D01*
X12408800Y10068769D01*
X12417995Y10052841D01*
X12431001Y10039836D01*
X12446928Y10030640D01*
X12464694Y10025880D01*
X12483085D01*
X12500851Y10030640D01*
X12516778Y10039836D01*
X12529783Y10052841D01*
X12538979Y10068769D01*
X12543739Y10086534D01*
Y10104926D01*
X12538979Y10122691D01*
X12529783Y10138619D01*
X12516778Y10151624D01*
X12500851Y10160820D01*
X12483085Y10165580D01*
D02*
G37*
G36*
Y9848080D02*
X12464694D01*
X12446928Y9843320D01*
X12431001Y9834124D01*
X12417995Y9821119D01*
X12408800Y9805191D01*
X12404039Y9787426D01*
Y9769034D01*
X12408800Y9751269D01*
X12417995Y9735341D01*
X12431001Y9722336D01*
X12446928Y9713140D01*
X12464694Y9708380D01*
X12483085D01*
X12500851Y9713140D01*
X12516778Y9722336D01*
X12529783Y9735341D01*
X12538979Y9751269D01*
X12543739Y9769034D01*
Y9787426D01*
X12538979Y9805191D01*
X12529783Y9821119D01*
X12516778Y9834124D01*
X12500851Y9843320D01*
X12483085Y9848080D01*
D02*
G37*
G36*
X11999902Y9204300D02*
X11976099D01*
X11953107Y9198139D01*
X11932493Y9186238D01*
X11915662Y9169407D01*
X11903761Y9148793D01*
X11897600Y9125801D01*
Y9101998D01*
X11903761Y9079007D01*
X11915662Y9058393D01*
X11932493Y9041562D01*
X11953107Y9029660D01*
X11976099Y9023500D01*
X11999902D01*
X12022893Y9029660D01*
X12043507Y9041562D01*
X12060338Y9058393D01*
X12072240Y9079007D01*
X12078400Y9101998D01*
Y9125801D01*
X12072240Y9148793D01*
X12060338Y9169407D01*
X12043507Y9186238D01*
X12022893Y9198139D01*
X11999902Y9204300D01*
D02*
G37*
G36*
Y9004300D02*
X11976099D01*
X11953107Y8998139D01*
X11932493Y8986238D01*
X11915662Y8969407D01*
X11903761Y8948793D01*
X11897600Y8925801D01*
Y8901998D01*
X11903761Y8879007D01*
X11915662Y8858393D01*
X11932493Y8841562D01*
X11953107Y8829661D01*
X11976099Y8823500D01*
X11999902D01*
X12022893Y8829661D01*
X12043507Y8841562D01*
X12060338Y8858393D01*
X12072240Y8879007D01*
X12078400Y8901998D01*
Y8925801D01*
X12072240Y8948793D01*
X12060338Y8969407D01*
X12043507Y8986238D01*
X12022893Y8998139D01*
X11999902Y9004300D01*
D02*
G37*
G36*
X12323574Y8875572D02*
X12305182D01*
X12287417Y8870812D01*
X12271489Y8861616D01*
X12258484Y8848611D01*
X12249288Y8832683D01*
X12244528Y8814918D01*
Y8796526D01*
X12249288Y8778761D01*
X12258484Y8762833D01*
X12271489Y8749828D01*
X12287417Y8740633D01*
X12305182Y8735872D01*
X12313281D01*
X12323801Y8734324D01*
X12325350Y8723804D01*
Y8715704D01*
X12330110Y8697939D01*
X12339306Y8682011D01*
X12352311Y8669006D01*
X12368239Y8659810D01*
X12386004Y8655050D01*
X12404396D01*
X12422161Y8659810D01*
X12438089Y8669006D01*
X12451094Y8682011D01*
X12460290Y8697939D01*
X12465050Y8715704D01*
Y8734096D01*
X12460290Y8751861D01*
X12451094Y8767789D01*
X12438089Y8780794D01*
X12422161Y8789990D01*
X12404396Y8794750D01*
X12396296D01*
X12385776Y8796299D01*
X12384228Y8806819D01*
Y8814918D01*
X12379467Y8832683D01*
X12370272Y8848611D01*
X12357267Y8861616D01*
X12341339Y8870812D01*
X12323574Y8875572D01*
D02*
G37*
G36*
X12901868Y8616950D02*
X12879132D01*
X12858127Y8608249D01*
X12842052Y8592173D01*
X12833350Y8571168D01*
Y8548432D01*
X12842052Y8527427D01*
X12858127Y8511351D01*
X12879132Y8502650D01*
X12901868D01*
X12922873Y8511351D01*
X12938950Y8527427D01*
X12947650Y8548432D01*
Y8571168D01*
X12938950Y8592173D01*
X12922873Y8608249D01*
X12901868Y8616950D01*
D02*
G37*
G36*
X10739426Y8275320D02*
X10721034D01*
X10703269Y8270560D01*
X10687341Y8261364D01*
X10674336Y8248359D01*
X10665140Y8232431D01*
X10660380Y8214666D01*
Y8196274D01*
X10665140Y8178509D01*
X10674336Y8162581D01*
X10687341Y8149576D01*
X10703269Y8140380D01*
X10721034Y8135620D01*
X10739426D01*
X10757191Y8140380D01*
X10773119Y8149576D01*
X10786124Y8162581D01*
X10795320Y8178509D01*
X10800080Y8196274D01*
Y8214666D01*
X10795320Y8232431D01*
X10786124Y8248359D01*
X10773119Y8261364D01*
X10757191Y8270560D01*
X10739426Y8275320D01*
D02*
G37*
G36*
X11129402Y8183724D02*
X11106666D01*
X11085661Y8175024D01*
X11069585Y8158947D01*
X11060884Y8137942D01*
Y8115206D01*
X11069585Y8094201D01*
X11085661Y8078125D01*
X11106666Y8069424D01*
X11129402D01*
X11150407Y8078125D01*
X11166484Y8094201D01*
X11175184Y8115206D01*
Y8137942D01*
X11166484Y8158947D01*
X11150407Y8175024D01*
X11129402Y8183724D01*
D02*
G37*
G36*
X11502696Y8185150D02*
X11484304D01*
X11466539Y8180390D01*
X11450611Y8171194D01*
X11437606Y8158189D01*
X11428410Y8142261D01*
X11423650Y8124496D01*
Y8106104D01*
X11428410Y8088339D01*
X11437606Y8072411D01*
X11450611Y8059406D01*
X11466539Y8050210D01*
X11484304Y8045450D01*
X11502696D01*
X11520461Y8050210D01*
X11536389Y8059406D01*
X11549394Y8072411D01*
X11558590Y8088339D01*
X11563350Y8106104D01*
Y8124496D01*
X11558590Y8142261D01*
X11549394Y8158189D01*
X11536389Y8171194D01*
X11520461Y8180390D01*
X11502696Y8185150D01*
D02*
G37*
G36*
X14633089Y8052576D02*
X14614697D01*
X14596931Y8047816D01*
X14581004Y8038620D01*
X14567999Y8025615D01*
X14558804Y8009687D01*
X14554044Y7991922D01*
Y7973530D01*
X14558804Y7955765D01*
X14567999Y7939837D01*
X14581004Y7926832D01*
X14596931Y7917636D01*
X14614697Y7912876D01*
X14633089D01*
X14650854Y7917636D01*
X14666782Y7926832D01*
X14679788Y7939837D01*
X14688983Y7955765D01*
X14693744Y7973530D01*
Y7991922D01*
X14688983Y8009687D01*
X14679788Y8025615D01*
X14666782Y8038620D01*
X14650854Y8047816D01*
X14633089Y8052576D01*
D02*
G37*
G36*
X14944238Y7944575D02*
X14925848D01*
X14908083Y7939815D01*
X14892155Y7930619D01*
X14879150Y7917614D01*
X14869954Y7901687D01*
X14865195Y7883921D01*
Y7865530D01*
X14869954Y7847764D01*
X14879150Y7831837D01*
X14892155Y7818831D01*
X14908083Y7809636D01*
X14925848Y7804875D01*
X14944238D01*
X14962006Y7809636D01*
X14977933Y7818831D01*
X14990938Y7831837D01*
X15000133Y7847764D01*
X15004893Y7865530D01*
Y7883921D01*
X15000133Y7901687D01*
X14990938Y7917614D01*
X14977933Y7930619D01*
X14962006Y7939815D01*
X14944238Y7944575D01*
D02*
G37*
G36*
X11501316Y7878970D02*
X11482924D01*
X11465159Y7874210D01*
X11449231Y7865014D01*
X11436226Y7852009D01*
X11427030Y7836081D01*
X11422270Y7818316D01*
Y7799924D01*
X11427030Y7782159D01*
X11436226Y7766231D01*
X11449231Y7753226D01*
X11465159Y7744030D01*
X11482924Y7739270D01*
X11501316D01*
X11519081Y7744030D01*
X11535009Y7753226D01*
X11548014Y7766231D01*
X11557210Y7782159D01*
X11561970Y7799924D01*
Y7818316D01*
X11557210Y7836081D01*
X11548014Y7852009D01*
X11535009Y7865014D01*
X11519081Y7874210D01*
X11501316Y7878970D01*
D02*
G37*
G36*
X12899696Y7842250D02*
X12881303D01*
X12863539Y7837490D01*
X12847610Y7828294D01*
X12834605Y7815289D01*
X12825410Y7799361D01*
X12820650Y7781596D01*
Y7763204D01*
X12825410Y7745439D01*
X12834605Y7729511D01*
X12847610Y7716506D01*
X12863539Y7707310D01*
X12881303Y7702550D01*
X12899696D01*
X12917461Y7707310D01*
X12933389Y7716506D01*
X12946394Y7729511D01*
X12955589Y7745439D01*
X12960350Y7763204D01*
Y7781596D01*
X12955589Y7799361D01*
X12946394Y7815289D01*
X12933389Y7828294D01*
X12917461Y7837490D01*
X12899696Y7842250D01*
D02*
G37*
G36*
X14512439Y7831950D02*
X14494048D01*
X14476282Y7827190D01*
X14460355Y7817994D01*
X14447350Y7804989D01*
X14438155Y7789061D01*
X14433394Y7771296D01*
Y7752904D01*
X14438155Y7735139D01*
X14447350Y7719211D01*
X14460355Y7706206D01*
X14476282Y7697010D01*
X14494048Y7692250D01*
X14512439D01*
X14530205Y7697010D01*
X14546132Y7706206D01*
X14559138Y7719211D01*
X14568333Y7735139D01*
X14573094Y7752904D01*
Y7771296D01*
X14568333Y7789061D01*
X14559138Y7804989D01*
X14546132Y7817994D01*
X14530205Y7827190D01*
X14512439Y7831950D01*
D02*
G37*
G36*
Y7679550D02*
X14494048D01*
X14476282Y7674790D01*
X14460355Y7665594D01*
X14447350Y7652589D01*
X14438155Y7636661D01*
X14433394Y7618896D01*
Y7600504D01*
X14438155Y7582739D01*
X14447350Y7566811D01*
X14460355Y7553806D01*
X14476282Y7544610D01*
X14494048Y7539850D01*
X14512439D01*
X14530205Y7544610D01*
X14546132Y7553806D01*
X14559138Y7566811D01*
X14568333Y7582739D01*
X14573094Y7600504D01*
Y7618896D01*
X14568333Y7636661D01*
X14559138Y7652589D01*
X14546132Y7665594D01*
X14530205Y7674790D01*
X14512439Y7679550D01*
D02*
G37*
G36*
X14959239Y7666850D02*
X14940848D01*
X14923082Y7662090D01*
X14907155Y7652894D01*
X14894150Y7639889D01*
X14884953Y7623961D01*
X14880194Y7606196D01*
Y7587804D01*
X14884953Y7570039D01*
X14894150Y7554111D01*
X14907155Y7541106D01*
X14923082Y7531910D01*
X14940848Y7527150D01*
X14959239D01*
X14977005Y7531910D01*
X14992932Y7541106D01*
X15005937Y7554111D01*
X15015134Y7570039D01*
X15019894Y7587804D01*
Y7606196D01*
X15015134Y7623961D01*
X15005937Y7639889D01*
X14992932Y7652894D01*
X14977005Y7662090D01*
X14959239Y7666850D01*
D02*
G37*
G36*
X10726807D02*
X10708415D01*
X10690650Y7662090D01*
X10674722Y7652894D01*
X10661717Y7639889D01*
X10652521Y7623961D01*
X10647761Y7606196D01*
Y7587804D01*
X10652521Y7570039D01*
X10661717Y7554111D01*
X10674722Y7541106D01*
X10690650Y7531910D01*
X10708415Y7527150D01*
X10726807D01*
X10744572Y7531910D01*
X10760500Y7541106D01*
X10773505Y7554111D01*
X10782701Y7570039D01*
X10787461Y7587804D01*
Y7606196D01*
X10782701Y7623961D01*
X10773505Y7639889D01*
X10760500Y7652894D01*
X10744572Y7662090D01*
X10726807Y7666850D01*
D02*
G37*
G36*
X11529207Y7603350D02*
X11510815D01*
X11493050Y7598590D01*
X11477122Y7589394D01*
X11464117Y7576389D01*
X11454921Y7560461D01*
X11450161Y7542696D01*
Y7524304D01*
X11454921Y7506539D01*
X11464117Y7490611D01*
X11477122Y7477606D01*
X11493050Y7468410D01*
X11510815Y7463650D01*
X11529207D01*
X11546972Y7468410D01*
X11562900Y7477606D01*
X11575905Y7490611D01*
X11585101Y7506539D01*
X11589861Y7524304D01*
Y7542696D01*
X11585101Y7560461D01*
X11575905Y7576389D01*
X11562900Y7589394D01*
X11546972Y7598590D01*
X11529207Y7603350D01*
D02*
G37*
G36*
X15109338Y7514450D02*
X15090948D01*
X15073183Y7509690D01*
X15057256Y7500494D01*
X15044250Y7487489D01*
X15035054Y7471561D01*
X15030293Y7453796D01*
Y7435404D01*
X15035054Y7417639D01*
X15044250Y7401711D01*
X15057256Y7388706D01*
X15073183Y7379510D01*
X15090948Y7374750D01*
X15109338D01*
X15127106Y7379510D01*
X15143031Y7388706D01*
X15156038Y7401711D01*
X15165233Y7417639D01*
X15169994Y7435404D01*
Y7453796D01*
X15165233Y7471561D01*
X15156038Y7487489D01*
X15143031Y7500494D01*
X15127106Y7509690D01*
X15109338Y7514450D01*
D02*
G37*
G36*
X11107807Y7654150D02*
X11089415D01*
X11071650Y7649390D01*
X11055722Y7640194D01*
X11042717Y7627189D01*
X11033521Y7611261D01*
X11028761Y7593496D01*
Y7575104D01*
X11033521Y7557339D01*
X11042717Y7541411D01*
X11055722Y7528406D01*
X11071650Y7519210D01*
X11086851Y7515137D01*
X11088671Y7509630D01*
X11088943Y7507385D01*
X11088589Y7502092D01*
X11074822Y7494144D01*
X11061817Y7481139D01*
X11052622Y7465211D01*
X11047861Y7447446D01*
Y7429054D01*
X11052622Y7411289D01*
X11061817Y7395361D01*
X11074822Y7382356D01*
X11090750Y7373160D01*
X11108516Y7368400D01*
X11126907D01*
X11144672Y7373160D01*
X11160600Y7382356D01*
X11173605Y7395361D01*
X11182801Y7411289D01*
X11187561Y7429054D01*
Y7447446D01*
X11182801Y7465211D01*
X11173605Y7481139D01*
X11160600Y7494144D01*
X11144672Y7503340D01*
X11129472Y7507413D01*
X11127652Y7512920D01*
X11127380Y7515165D01*
X11127733Y7520458D01*
X11141500Y7528406D01*
X11154505Y7541411D01*
X11163701Y7557339D01*
X11168461Y7575104D01*
Y7593496D01*
X11163701Y7611261D01*
X11154505Y7627189D01*
X11141500Y7640194D01*
X11125572Y7649390D01*
X11107807Y7654150D01*
D02*
G37*
G36*
X14213989Y7419150D02*
X14195598D01*
X14177832Y7414390D01*
X14161905Y7405194D01*
X14148900Y7392189D01*
X14139703Y7376261D01*
X14134944Y7358496D01*
Y7340104D01*
X14139703Y7322339D01*
X14148900Y7306411D01*
X14161905Y7293406D01*
X14177832Y7284210D01*
X14195598Y7279450D01*
X14213989D01*
X14231755Y7284210D01*
X14247682Y7293406D01*
X14260687Y7306411D01*
X14269884Y7322339D01*
X14274644Y7340104D01*
Y7358496D01*
X14269884Y7376261D01*
X14260687Y7392189D01*
X14247682Y7405194D01*
X14231755Y7414390D01*
X14213989Y7419150D01*
D02*
G37*
G36*
X14525089Y7374750D02*
X14506699D01*
X14488931Y7369990D01*
X14473006Y7360794D01*
X14460001Y7347789D01*
X14450804Y7331861D01*
X14446043Y7314096D01*
Y7295704D01*
X14450804Y7277939D01*
X14460001Y7262011D01*
X14473006Y7249006D01*
X14488931Y7239810D01*
X14506699Y7235050D01*
X14525089D01*
X14542854Y7239810D01*
X14558781Y7249006D01*
X14571786Y7262011D01*
X14580983Y7277939D01*
X14585744Y7295704D01*
Y7314096D01*
X14580983Y7331861D01*
X14571786Y7347789D01*
X14558781Y7360794D01*
X14542854Y7369990D01*
X14525089Y7374750D01*
D02*
G37*
G36*
X17282710Y7285850D02*
X17260976D01*
X17239981Y7280224D01*
X17221156Y7269356D01*
X17205788Y7253987D01*
X17194919Y7235163D01*
X17189294Y7214168D01*
Y7192432D01*
X17193217Y7177790D01*
X17183054Y7167627D01*
X17168411Y7171550D01*
X17146677D01*
X17132033Y7167627D01*
X17121870Y7177790D01*
X17125793Y7192432D01*
Y7214168D01*
X17120168Y7235163D01*
X17109300Y7253987D01*
X17093930Y7269356D01*
X17075107Y7280224D01*
X17054111Y7285850D01*
X17032376D01*
X17011382Y7280224D01*
X16992557Y7269356D01*
X16977187Y7253987D01*
X16966319Y7235163D01*
X16960693Y7214168D01*
Y7192432D01*
X16966319Y7171437D01*
X16977187Y7152613D01*
X16992557Y7137244D01*
X17011382Y7126376D01*
X17032376Y7120750D01*
X17054111D01*
X17068755Y7124674D01*
X17078917Y7114510D01*
X17074994Y7099868D01*
Y7078132D01*
X17078917Y7063490D01*
X17068755Y7053327D01*
X17054111Y7057250D01*
X17032376D01*
X17011382Y7051624D01*
X16992557Y7040756D01*
X16977187Y7025387D01*
X16966319Y7006563D01*
X16960693Y6985568D01*
Y6963832D01*
X16966319Y6942837D01*
X16977187Y6924013D01*
X16992557Y6908644D01*
X17011382Y6897776D01*
X17032376Y6892150D01*
X17054111D01*
X17075107Y6897776D01*
X17093930Y6908644D01*
X17109300Y6924013D01*
X17120168Y6942837D01*
X17125793Y6963832D01*
Y6985568D01*
X17121870Y7000210D01*
X17132033Y7010374D01*
X17146677Y7006450D01*
X17168411D01*
X17183054Y7010374D01*
X17193217Y7000210D01*
X17189294Y6985568D01*
Y6963832D01*
X17194919Y6942837D01*
X17205788Y6924013D01*
X17221156Y6908644D01*
X17239981Y6897776D01*
X17260976Y6892150D01*
X17282710D01*
X17303706Y6897776D01*
X17322530Y6908644D01*
X17337900Y6924013D01*
X17348769Y6942837D01*
X17354395Y6963832D01*
Y6985568D01*
X17348769Y7006563D01*
X17337900Y7025387D01*
X17322530Y7040756D01*
X17303706Y7051624D01*
X17282710Y7057250D01*
X17260976D01*
X17246333Y7053327D01*
X17236169Y7063490D01*
X17240094Y7078132D01*
Y7099868D01*
X17236169Y7114510D01*
X17246333Y7124674D01*
X17260976Y7120750D01*
X17282710D01*
X17303706Y7126376D01*
X17322530Y7137244D01*
X17337900Y7152613D01*
X17348769Y7171437D01*
X17354395Y7192432D01*
Y7214168D01*
X17348769Y7235163D01*
X17337900Y7253987D01*
X17322530Y7269356D01*
X17303706Y7280224D01*
X17282710Y7285850D01*
D02*
G37*
G36*
X13852277Y7265339D02*
X13833887D01*
X13816119Y7260579D01*
X13800192Y7251383D01*
X13787189Y7238378D01*
X13777992Y7222450D01*
X13773232Y7204685D01*
Y7186293D01*
X13777992Y7168528D01*
X13787189Y7152600D01*
X13800192Y7139595D01*
X13816119Y7130399D01*
X13833887Y7125639D01*
X13852277D01*
X13870042Y7130399D01*
X13885970Y7139595D01*
X13898976Y7152600D01*
X13908171Y7168528D01*
X13912932Y7186293D01*
Y7204685D01*
X13908171Y7222450D01*
X13898976Y7238378D01*
X13885970Y7251383D01*
X13870042Y7260579D01*
X13852277Y7265339D01*
D02*
G37*
G36*
X13623677Y7265339D02*
X13605286D01*
X13587520Y7260579D01*
X13571593Y7251383D01*
X13558588Y7238378D01*
X13549393Y7222450D01*
X13544632Y7204685D01*
Y7186293D01*
X13549393Y7168528D01*
X13558588Y7152600D01*
X13571593Y7139595D01*
X13587520Y7130399D01*
X13605286Y7125639D01*
X13623677D01*
X13641443Y7130399D01*
X13657370Y7139595D01*
X13670377Y7152600D01*
X13679572Y7168528D01*
X13684332Y7186293D01*
Y7204685D01*
X13679572Y7222450D01*
X13670377Y7238378D01*
X13657370Y7251383D01*
X13641443Y7260579D01*
X13623677Y7265339D01*
D02*
G37*
G36*
X11044307Y7235050D02*
X11025915D01*
X11008150Y7230290D01*
X10992222Y7221094D01*
X10979217Y7208089D01*
X10970021Y7192161D01*
X10965261Y7174396D01*
Y7156004D01*
X10970021Y7138239D01*
X10979217Y7122311D01*
X10992222Y7109306D01*
X11008150Y7100110D01*
X11025915Y7095350D01*
X11044307D01*
X11062072Y7100110D01*
X11078000Y7109306D01*
X11091005Y7122311D01*
X11100201Y7138239D01*
X11104961Y7156004D01*
Y7174396D01*
X11100201Y7192161D01*
X11091005Y7208089D01*
X11078000Y7221094D01*
X11062072Y7230290D01*
X11044307Y7235050D01*
D02*
G37*
G36*
X14529939Y7222350D02*
X14511548D01*
X14493782Y7217590D01*
X14477853Y7208394D01*
X14464848Y7195389D01*
X14455653Y7179461D01*
X14450893Y7161696D01*
Y7143304D01*
X14455653Y7125539D01*
X14464848Y7109611D01*
X14477853Y7096606D01*
X14493782Y7087410D01*
X14511548Y7082650D01*
X14529939D01*
X14547704Y7087410D01*
X14563632Y7096606D01*
X14576637Y7109611D01*
X14585834Y7125539D01*
X14590593Y7143304D01*
Y7161696D01*
X14585834Y7179461D01*
X14576637Y7195389D01*
X14563632Y7208394D01*
X14547704Y7217590D01*
X14529939Y7222350D01*
D02*
G37*
G36*
X16633339Y7158850D02*
X16614948D01*
X16597182Y7154090D01*
X16581255Y7144894D01*
X16568250Y7131889D01*
X16559055Y7115961D01*
X16554294Y7098196D01*
Y7079804D01*
X16559055Y7062039D01*
X16568250Y7046111D01*
X16581255Y7033106D01*
X16597182Y7023910D01*
X16614948Y7019150D01*
X16633339D01*
X16651105Y7023910D01*
X16667032Y7033106D01*
X16680038Y7046111D01*
X16689233Y7062039D01*
X16693994Y7079804D01*
Y7098196D01*
X16689233Y7115961D01*
X16680038Y7131889D01*
X16667032Y7144894D01*
X16651105Y7154090D01*
X16633339Y7158850D01*
D02*
G37*
G36*
X15224469Y7234400D02*
X15204417D01*
X15185893Y7226727D01*
X15171716Y7212549D01*
X15164044Y7194025D01*
Y7173975D01*
X15171716Y7155451D01*
X15182924Y7144243D01*
X15184761Y7136500D01*
X15182924Y7128757D01*
X15171716Y7117549D01*
X15164044Y7099025D01*
Y7078975D01*
X15171716Y7060451D01*
X15182924Y7049243D01*
X15184761Y7041500D01*
X15182924Y7033757D01*
X15171716Y7022549D01*
X15164044Y7004025D01*
Y6983975D01*
X15171716Y6965451D01*
X15185893Y6951273D01*
X15204417Y6943600D01*
X15224469D01*
X15242993Y6951273D01*
X15257170Y6965451D01*
X15264844Y6983975D01*
Y7004025D01*
X15257170Y7022549D01*
X15245963Y7033757D01*
X15244125Y7041500D01*
X15245963Y7049243D01*
X15257170Y7060451D01*
X15264844Y7078975D01*
Y7099025D01*
X15257170Y7117549D01*
X15245963Y7128757D01*
X15244125Y7136500D01*
X15245963Y7144243D01*
X15257170Y7155451D01*
X15264844Y7173975D01*
Y7194025D01*
X15257170Y7212549D01*
X15242993Y7226727D01*
X15224469Y7234400D01*
D02*
G37*
G36*
X11781736D02*
X11761686D01*
X11743162Y7226727D01*
X11728984Y7212549D01*
X11721311Y7194025D01*
Y7173975D01*
X11728984Y7155451D01*
X11740192Y7144243D01*
X11742029Y7136500D01*
X11740192Y7128757D01*
X11728984Y7117549D01*
X11721311Y7099025D01*
Y7078975D01*
X11728984Y7060451D01*
X11740192Y7049243D01*
X11742029Y7041500D01*
X11740192Y7033757D01*
X11728984Y7022549D01*
X11721311Y7004025D01*
Y6983975D01*
X11728984Y6965451D01*
X11743162Y6951273D01*
X11761686Y6943600D01*
X11781736D01*
X11800261Y6951273D01*
X11814438Y6965451D01*
X11822111Y6983975D01*
Y7004025D01*
X11814438Y7022549D01*
X11803231Y7033757D01*
X11801393Y7041500D01*
X11803231Y7049243D01*
X11814438Y7060451D01*
X11822111Y7078975D01*
Y7099025D01*
X11814438Y7117549D01*
X11803231Y7128757D01*
X11801393Y7136500D01*
X11803231Y7144243D01*
X11814438Y7155451D01*
X11822111Y7173975D01*
Y7194025D01*
X11814438Y7212549D01*
X11800261Y7226727D01*
X11781736Y7234400D01*
D02*
G37*
G36*
X11049157Y7082650D02*
X11030765D01*
X11013000Y7077890D01*
X10997072Y7068694D01*
X10984067Y7055689D01*
X10974871Y7039761D01*
X10970111Y7021996D01*
Y7003604D01*
X10974871Y6985839D01*
X10984067Y6969911D01*
X10997072Y6956906D01*
X11013000Y6947710D01*
X11030765Y6942950D01*
X11049157D01*
X11066922Y6947710D01*
X11082850Y6956906D01*
X11095855Y6969911D01*
X11105051Y6985839D01*
X11109811Y7003604D01*
Y7021996D01*
X11105051Y7039761D01*
X11095855Y7055689D01*
X11082850Y7068694D01*
X11066922Y7077890D01*
X11049157Y7082650D01*
D02*
G37*
G36*
X14512439Y7069950D02*
X14494048D01*
X14476282Y7065190D01*
X14460355Y7055994D01*
X14447350Y7042989D01*
X14438155Y7027061D01*
X14433394Y7009296D01*
Y6990904D01*
X14438155Y6973139D01*
X14447350Y6957211D01*
X14460355Y6944206D01*
X14476282Y6935010D01*
X14494048Y6930250D01*
X14512439D01*
X14530205Y6935010D01*
X14546132Y6944206D01*
X14559138Y6957211D01*
X14568333Y6973139D01*
X14573094Y6990904D01*
Y7009296D01*
X14568333Y7027061D01*
X14559138Y7042989D01*
X14546132Y7055994D01*
X14530205Y7065190D01*
X14512439Y7069950D01*
D02*
G37*
G36*
X13621136Y7052361D02*
X13602745D01*
X13584979Y7047601D01*
X13569052Y7038405D01*
X13556047Y7025400D01*
X13546851Y7009472D01*
X13542091Y6991707D01*
Y6973315D01*
X13546851Y6955550D01*
X13556047Y6939622D01*
X13569052Y6926617D01*
X13584979Y6917422D01*
X13602745Y6912661D01*
X13621136D01*
X13638902Y6917422D01*
X13654829Y6926617D01*
X13667834Y6939622D01*
X13677031Y6955550D01*
X13681792Y6973315D01*
Y6991707D01*
X13677031Y7009472D01*
X13667834Y7025400D01*
X13654829Y7038405D01*
X13638902Y7047601D01*
X13621136Y7052361D01*
D02*
G37*
G36*
X13849738Y7052361D02*
X13831345D01*
X13813580Y7047601D01*
X13797652Y7038405D01*
X13784647Y7025400D01*
X13775452Y7009472D01*
X13770691Y6991707D01*
Y6973315D01*
X13775452Y6955550D01*
X13784647Y6939622D01*
X13797652Y6926617D01*
X13813580Y6917421D01*
X13831345Y6912661D01*
X13849738D01*
X13867502Y6917421D01*
X13883430Y6926617D01*
X13896436Y6939622D01*
X13905630Y6955550D01*
X13910391Y6973315D01*
Y6991707D01*
X13905630Y7009472D01*
X13896436Y7025400D01*
X13883430Y7038405D01*
X13867502Y7047601D01*
X13849738Y7052361D01*
D02*
G37*
G36*
X11492529Y6870472D02*
X11474138D01*
X11456372Y6865712D01*
X11440444Y6856516D01*
X11427439Y6843511D01*
X11418244Y6827583D01*
X11413483Y6809818D01*
Y6791426D01*
X11418244Y6773661D01*
X11427439Y6757733D01*
X11440444Y6744728D01*
X11456372Y6735532D01*
X11474138Y6730772D01*
X11492529D01*
X11510294Y6735532D01*
X11526222Y6744728D01*
X11539227Y6757733D01*
X11548423Y6773661D01*
X11553183Y6791426D01*
Y6809818D01*
X11548423Y6827583D01*
X11539227Y6843511D01*
X11526222Y6856516D01*
X11510294Y6865712D01*
X11492529Y6870472D01*
D02*
G37*
G36*
X14347339Y6765150D02*
X14328947D01*
X14311182Y6760390D01*
X14295255Y6751194D01*
X14282249Y6738189D01*
X14273055Y6722261D01*
X14268294Y6704496D01*
Y6686104D01*
X14273055Y6668339D01*
X14282249Y6652411D01*
X14295255Y6639406D01*
X14311182Y6630210D01*
X14328947Y6625450D01*
X14347339D01*
X14365105Y6630210D01*
X14381032Y6639406D01*
X14394038Y6652411D01*
X14403233Y6668339D01*
X14407994Y6686104D01*
Y6704496D01*
X14403233Y6722261D01*
X14394038Y6738189D01*
X14381032Y6751194D01*
X14365105Y6760390D01*
X14347339Y6765150D01*
D02*
G37*
G36*
X11529207Y6714350D02*
X11510815D01*
X11493050Y6709590D01*
X11477122Y6700394D01*
X11464117Y6687389D01*
X11454921Y6671461D01*
X11450161Y6653696D01*
Y6635304D01*
X11454921Y6617539D01*
X11464117Y6601611D01*
X11477122Y6588606D01*
X11493050Y6579410D01*
X11510815Y6574650D01*
X11529207D01*
X11546972Y6579410D01*
X11562900Y6588606D01*
X11575905Y6601611D01*
X11585101Y6617539D01*
X11589861Y6635304D01*
Y6653696D01*
X11585101Y6671461D01*
X11575905Y6687389D01*
X11562900Y6700394D01*
X11546972Y6709590D01*
X11529207Y6714350D01*
D02*
G37*
G36*
X11126907Y6809600D02*
X11108516D01*
X11090750Y6804840D01*
X11074822Y6795644D01*
X11061817Y6782639D01*
X11052622Y6766711D01*
X11047861Y6748946D01*
Y6730554D01*
X11050395Y6721100D01*
X11041200Y6708400D01*
X11035365D01*
X11017600Y6703640D01*
X11001672Y6694444D01*
X10988667Y6681439D01*
X10979471Y6665511D01*
X10974711Y6647746D01*
Y6629354D01*
X10979471Y6611589D01*
X10988667Y6595661D01*
X11001672Y6582656D01*
X11017600Y6573460D01*
X11035365Y6568700D01*
X11053757D01*
X11071522Y6573460D01*
X11087450Y6582656D01*
X11100455Y6595661D01*
X11109651Y6611589D01*
X11114411Y6629354D01*
Y6647746D01*
X11111878Y6657200D01*
X11121072Y6669900D01*
X11126907D01*
X11144672Y6674660D01*
X11160600Y6683856D01*
X11173605Y6696861D01*
X11182801Y6712789D01*
X11187561Y6730554D01*
Y6748946D01*
X11182801Y6766711D01*
X11173605Y6782639D01*
X11160600Y6795644D01*
X11144672Y6804840D01*
X11126907Y6809600D01*
D02*
G37*
G36*
X14959239Y6650850D02*
X14940848D01*
X14923082Y6646090D01*
X14907155Y6636894D01*
X14894150Y6623889D01*
X14884953Y6607961D01*
X14880194Y6590196D01*
Y6571804D01*
X14884953Y6554039D01*
X14894150Y6538111D01*
X14907155Y6525106D01*
X14923082Y6515910D01*
X14940848Y6511150D01*
X14959239D01*
X14977005Y6515910D01*
X14992932Y6525106D01*
X15005937Y6538111D01*
X15015134Y6554039D01*
X15019894Y6571804D01*
Y6590196D01*
X15015134Y6607961D01*
X15005937Y6623889D01*
X14992932Y6636894D01*
X14977005Y6646090D01*
X14959239Y6650850D01*
D02*
G37*
G36*
X10731657D02*
X10713265D01*
X10695500Y6646090D01*
X10679572Y6636894D01*
X10666567Y6623889D01*
X10657371Y6607961D01*
X10652611Y6590196D01*
Y6571804D01*
X10657371Y6554039D01*
X10666567Y6538111D01*
X10679572Y6525106D01*
X10695500Y6515910D01*
X10713265Y6511150D01*
X10731657D01*
X10749422Y6515910D01*
X10765350Y6525106D01*
X10778355Y6538111D01*
X10787551Y6554039D01*
X10792311Y6571804D01*
Y6590196D01*
X10787551Y6607961D01*
X10778355Y6623889D01*
X10765350Y6636894D01*
X10749422Y6646090D01*
X10731657Y6650850D01*
D02*
G37*
G36*
X14527438Y6764825D02*
X14509048D01*
X14491283Y6760064D01*
X14475356Y6750869D01*
X14462350Y6737864D01*
X14453154Y6721936D01*
X14448393Y6704170D01*
Y6685779D01*
X14453154Y6668014D01*
X14462350Y6652086D01*
X14475356Y6639081D01*
X14491283Y6629885D01*
X14509048Y6625125D01*
X14510762D01*
X14511546Y6612750D01*
X14493782Y6607990D01*
X14477853Y6598794D01*
X14464848Y6585789D01*
X14455653Y6569861D01*
X14450893Y6552096D01*
Y6533704D01*
X14455653Y6515939D01*
X14464848Y6500011D01*
X14477853Y6487006D01*
X14493782Y6477810D01*
X14511548Y6473050D01*
X14529939D01*
X14547704Y6477810D01*
X14563632Y6487006D01*
X14576637Y6500011D01*
X14585834Y6515939D01*
X14590593Y6533704D01*
Y6552096D01*
X14585834Y6569861D01*
X14576637Y6585789D01*
X14563632Y6598794D01*
X14547704Y6607990D01*
X14529939Y6612750D01*
X14528226D01*
X14527440Y6625125D01*
X14545206Y6629885D01*
X14561131Y6639081D01*
X14574136Y6652086D01*
X14583333Y6668014D01*
X14588094Y6685779D01*
Y6704170D01*
X14583333Y6721936D01*
X14574136Y6737864D01*
X14561131Y6750869D01*
X14545206Y6760064D01*
X14527438Y6764825D01*
D02*
G37*
G36*
X11502696Y6432550D02*
X11484304D01*
X11466539Y6427790D01*
X11450611Y6418594D01*
X11437606Y6405589D01*
X11428410Y6389661D01*
X11423650Y6371896D01*
Y6353504D01*
X11428410Y6335739D01*
X11437606Y6319811D01*
X11450611Y6306806D01*
X11466539Y6297610D01*
X11484304Y6292850D01*
X11502696D01*
X11520461Y6297610D01*
X11536389Y6306806D01*
X11549394Y6319811D01*
X11558590Y6335739D01*
X11563350Y6353504D01*
Y6371896D01*
X11558590Y6389661D01*
X11549394Y6405589D01*
X11536389Y6418594D01*
X11520461Y6427790D01*
X11502696Y6432550D01*
D02*
G37*
G36*
X14944395Y6381750D02*
X14926004D01*
X14908240Y6376990D01*
X14892311Y6367794D01*
X14879306Y6354789D01*
X14870110Y6338861D01*
X14865350Y6321096D01*
Y6302704D01*
X14870110Y6284939D01*
X14879306Y6269011D01*
X14892311Y6256006D01*
X14908240Y6246810D01*
X14926004Y6242050D01*
X14944395D01*
X14962161Y6246810D01*
X14978088Y6256006D01*
X14991093Y6269011D01*
X15000290Y6284939D01*
X15005051Y6302704D01*
Y6321096D01*
X15000290Y6338861D01*
X14991093Y6354789D01*
X14978088Y6367794D01*
X14962161Y6376990D01*
X14944395Y6381750D01*
D02*
G37*
G36*
X13687579Y6269850D02*
X13665843D01*
X13644849Y6264224D01*
X13626025Y6253356D01*
X13610655Y6237987D01*
X13599786Y6219163D01*
X13594160Y6198168D01*
Y6176432D01*
X13598085Y6161790D01*
X13587923Y6151627D01*
X13573279Y6155550D01*
X13551543D01*
X13536900Y6151627D01*
X13526738Y6161790D01*
X13530661Y6176432D01*
Y6198168D01*
X13525035Y6219163D01*
X13514168Y6237987D01*
X13498798Y6253356D01*
X13479974Y6264224D01*
X13458978Y6269850D01*
X13437244D01*
X13416248Y6264224D01*
X13397424Y6253356D01*
X13382056Y6237987D01*
X13371187Y6219163D01*
X13365561Y6198168D01*
Y6176432D01*
X13371187Y6155437D01*
X13382056Y6136613D01*
X13397424Y6121244D01*
X13416248Y6110376D01*
X13437244Y6104750D01*
X13458978D01*
X13473622Y6108674D01*
X13483784Y6098510D01*
X13479861Y6083868D01*
Y6062132D01*
X13485487Y6041137D01*
X13496355Y6022313D01*
X13511725Y6006944D01*
X13530548Y5996076D01*
X13551543Y5990450D01*
X13573279D01*
X13594273Y5996076D01*
X13613098Y6006944D01*
X13628468Y6022313D01*
X13639336Y6041137D01*
X13644962Y6062132D01*
Y6083868D01*
X13641039Y6098510D01*
X13651201Y6108674D01*
X13665843Y6104750D01*
X13687579D01*
X13702222Y6108674D01*
X13712386Y6098510D01*
X13708461Y6083868D01*
Y6062132D01*
X13714087Y6041137D01*
X13724956Y6022313D01*
X13740324Y6006944D01*
X13759148Y5996076D01*
X13780144Y5990450D01*
X13801878D01*
X13822874Y5996076D01*
X13841698Y6006944D01*
X13857068Y6022313D01*
X13867935Y6041137D01*
X13873561Y6062132D01*
Y6083868D01*
X13867935Y6104863D01*
X13857068Y6123687D01*
X13841698Y6139056D01*
X13822874Y6149924D01*
X13801878Y6155550D01*
X13780144D01*
X13765501Y6151627D01*
X13755338Y6161790D01*
X13759261Y6176432D01*
Y6198168D01*
X13753635Y6219163D01*
X13742767Y6237987D01*
X13727399Y6253356D01*
X13708574Y6264224D01*
X13687579Y6269850D01*
D02*
G37*
G36*
X11502696Y6115050D02*
X11484304D01*
X11466539Y6110290D01*
X11450611Y6101094D01*
X11437606Y6088089D01*
X11428410Y6072161D01*
X11423650Y6054396D01*
Y6036004D01*
X11428410Y6018239D01*
X11437606Y6002311D01*
X11450611Y5989306D01*
X11466539Y5980110D01*
X11484304Y5975350D01*
X11502696D01*
X11520461Y5980110D01*
X11536389Y5989306D01*
X11549394Y6002311D01*
X11558590Y6018239D01*
X11563350Y6036004D01*
Y6054396D01*
X11558590Y6072161D01*
X11549394Y6088089D01*
X11536389Y6101094D01*
X11520461Y6110290D01*
X11502696Y6115050D01*
D02*
G37*
G36*
X9291801Y11241800D02*
X9267998D01*
X9245007Y11235639D01*
X9224393Y11223738D01*
X9207562Y11206907D01*
X9195661Y11186293D01*
X9189500Y11163301D01*
Y11139498D01*
X9195661Y11116507D01*
X9207562Y11095893D01*
X9224393Y11079062D01*
X9245007Y11067160D01*
X9267998Y11061000D01*
X9291801D01*
X9314793Y11067160D01*
X9335407Y11079062D01*
X9352238Y11095893D01*
X9364139Y11116507D01*
X9370300Y11139498D01*
Y11163301D01*
X9364139Y11186293D01*
X9352238Y11206907D01*
X9335407Y11223738D01*
X9314793Y11235639D01*
X9291801Y11241800D01*
D02*
G37*
%LPD*%
D59*
X11001182Y6438900D02*
X11040510Y6478228D01*
X10610121Y6438900D02*
X11001182D01*
X10444221Y6604800D02*
X10610121Y6438900D01*
X11040510Y6478228D02*
X11047811D01*
X10337800Y7388491D02*
Y8098693D01*
X9541516Y6592207D02*
X10337800Y7388491D01*
X10352716Y8530266D02*
X10363200Y8540750D01*
X10352716Y8113609D02*
Y8530266D01*
X10337800Y8098693D02*
X10352716Y8113609D01*
X9170479Y6592207D02*
X9541516D01*
X9722185Y7524415D02*
X10033000Y7213600D01*
X8953500Y6692900D02*
X9160189Y6486211D01*
X9593089D02*
X9711678Y6604800D01*
X9160189Y6486211D02*
X9593089D01*
X9796322Y6527800D02*
X10401300D01*
X9701072Y6432550D02*
X9796322Y6527800D01*
X9711678Y6604800D02*
X10444221D01*
X8407452Y6394450D02*
X11178761D01*
X11301811Y6517500D01*
X8229600Y6644000D02*
X8441050Y6432550D01*
X9701072D01*
X8191500Y6610402D02*
X8407452Y6394450D01*
X8229600Y6644000D02*
Y7805278D01*
X8210550Y7824328D02*
X8229600Y7805278D01*
X8210550Y7824328D02*
Y8354872D01*
X8255000Y8399322D01*
Y8559800D01*
X8191500Y6610402D02*
Y7789496D01*
X8166100Y7814896D02*
Y9004300D01*
Y7814896D02*
X8191500Y7789496D01*
X8915400Y9271000D02*
X9017000Y9169400D01*
X8877300Y9194800D02*
X9220200Y8851900D01*
X8915400Y9271000D02*
Y10285915D01*
X8877300Y9194800D02*
Y10265681D01*
X8863515Y10337800D02*
X8915400Y10285915D01*
X8843281Y10299700D02*
X8877300Y10265681D01*
X9220200Y8851900D02*
X9598118D01*
X9722185Y8727833D01*
X7175500Y8166100D02*
Y9664700D01*
X7810500Y10299700D01*
Y11798300D01*
X7543800Y12065000D02*
X7810500Y11798300D01*
X7988300Y10807700D02*
X8458200Y10337800D01*
X7988300Y10807700D02*
Y12255500D01*
X7543800Y12700000D02*
X7988300Y12255500D01*
X8442418Y10299700D02*
X8843281D01*
X7950200Y10791918D02*
X8442418Y10299700D01*
X8458200Y10337800D02*
X8863515D01*
X7950200Y10791918D02*
Y11988800D01*
X9722185Y7524415D02*
Y8727833D01*
X7556500Y12382500D02*
X7950200Y11988800D01*
X10152000Y8786791D02*
X10153609Y8788400D01*
X10706100D02*
X11252200Y8242300D01*
X10153609Y8788400D02*
X10706100D01*
X11252200Y7327900D02*
Y8242300D01*
X10269200Y13860800D02*
X11315700Y12814301D01*
X11671300D01*
X7543800Y12382500D02*
X7556500D01*
X7543800Y13017500D02*
Y13258800D01*
X8145800Y13860800D01*
X10269200D01*
D60*
X8077200Y6430023D02*
Y6591300D01*
X8195323Y6311900D02*
X10718800D01*
X8077200Y6430023D02*
X8195323Y6311900D01*
X10718800D02*
X11150600Y5880100D01*
X8051800Y7556500D02*
Y9779000D01*
X7505700Y7010400D02*
X8051800Y7556500D01*
Y9779000D02*
X8432800Y10160000D01*
X11150600Y5880100D02*
X12371300D01*
X8432800Y10160000D02*
X8724900D01*
D68*
X12065000Y13258800D02*
D03*
X12382500D02*
D03*
D69*
X12065000Y13004800D02*
D03*
Y12750800D02*
D03*
X12382500Y13004800D02*
D03*
Y12750800D02*
D03*
D70*
X8674100Y13208000D02*
D03*
Y12090400D02*
D03*
D71*
X18572803Y11467148D02*
D03*
Y11217148D02*
D03*
Y10967148D02*
D03*
Y10717148D02*
D03*
Y10467148D02*
D03*
Y10217148D02*
D03*
Y9967148D02*
D03*
X18822803Y11467148D02*
D03*
Y11217148D02*
D03*
Y10967148D02*
D03*
Y10717148D02*
D03*
Y10467148D02*
D03*
Y10217148D02*
D03*
Y9967148D02*
D03*
X18572803Y13511848D02*
D03*
Y13261848D02*
D03*
Y13011848D02*
D03*
Y12761848D02*
D03*
Y12511848D02*
D03*
Y12261848D02*
D03*
Y12011848D02*
D03*
X18822803Y13511848D02*
D03*
Y13261848D02*
D03*
Y13011848D02*
D03*
Y12761848D02*
D03*
Y12511848D02*
D03*
Y12261848D02*
D03*
Y12011848D02*
D03*
X18572800Y9422449D02*
D03*
Y9172449D02*
D03*
Y8922449D02*
D03*
Y8672449D02*
D03*
Y8422449D02*
D03*
Y8172449D02*
D03*
Y7922449D02*
D03*
X18822800Y9422449D02*
D03*
Y9172449D02*
D03*
Y8922449D02*
D03*
Y8672449D02*
D03*
Y8422449D02*
D03*
Y8172449D02*
D03*
Y7922449D02*
D03*
X18572800Y7377749D02*
D03*
Y7127749D02*
D03*
Y6877749D02*
D03*
Y6627749D02*
D03*
Y6377749D02*
D03*
Y6127749D02*
D03*
Y5877749D02*
D03*
X18822800Y7377749D02*
D03*
Y7127749D02*
D03*
Y6877749D02*
D03*
Y6627749D02*
D03*
Y6377749D02*
D03*
Y6127749D02*
D03*
Y5877749D02*
D03*
D72*
X19545302Y9962148D02*
D03*
Y11459648D02*
D03*
Y12006848D02*
D03*
Y13504349D02*
D03*
X19545300Y7917449D02*
D03*
Y9414949D02*
D03*
Y5872749D02*
D03*
Y7370249D02*
D03*
D73*
X6616700Y10160000D02*
D03*
X8724900D02*
D03*
D74*
X6616700Y9906000D02*
D03*
Y9652000D02*
D03*
Y9398000D02*
D03*
Y9144000D02*
D03*
Y8890000D02*
D03*
Y8636000D02*
D03*
Y8382000D02*
D03*
Y8128000D02*
D03*
Y7874000D02*
D03*
Y7620000D02*
D03*
Y7366000D02*
D03*
Y7112000D02*
D03*
Y6858000D02*
D03*
Y6604000D02*
D03*
X8724900Y9906000D02*
D03*
Y9652000D02*
D03*
Y9398000D02*
D03*
Y9144000D02*
D03*
Y8890000D02*
D03*
Y8636000D02*
D03*
Y8382000D02*
D03*
Y8128000D02*
D03*
Y7874000D02*
D03*
Y7620000D02*
D03*
Y7366000D02*
D03*
Y7112000D02*
D03*
Y6858000D02*
D03*
Y6604000D02*
D03*
D75*
X8432800Y10160000D02*
D03*
Y9906000D02*
D03*
Y9652000D02*
D03*
Y9398000D02*
D03*
Y9144000D02*
D03*
Y8890000D02*
D03*
Y8636000D02*
D03*
Y8382000D02*
D03*
Y8128000D02*
D03*
Y7874000D02*
D03*
Y7620000D02*
D03*
Y7366000D02*
D03*
Y7112000D02*
D03*
Y6858000D02*
D03*
Y6604000D02*
D03*
X6908800D02*
D03*
Y6858000D02*
D03*
Y7112000D02*
D03*
Y7366000D02*
D03*
Y7620000D02*
D03*
Y7874000D02*
D03*
Y8128000D02*
D03*
Y8382000D02*
D03*
Y8636000D02*
D03*
Y8890000D02*
D03*
Y9144000D02*
D03*
Y9398000D02*
D03*
Y9652000D02*
D03*
Y9906000D02*
D03*
Y10160000D02*
D03*
D77*
X6858000Y13525500D02*
D03*
Y5778500D02*
D03*
X17843500Y13525500D02*
D03*
X17602200Y5778500D02*
D03*
X18021300Y10160000D02*
D03*
X18135600Y8293100D02*
D03*
X9461500Y5778500D02*
D03*
D78*
X13358000Y8963900D02*
D03*
Y9163900D02*
D03*
X11988000Y8913900D02*
D03*
Y9113900D02*
D03*
X9479900Y11151400D02*
D03*
X9279900D02*
D03*
X9529900Y8581400D02*
D03*
X9329900D02*
D03*
D79*
X6725369Y11120947D02*
D03*
X15125700Y13106400D02*
D03*
X8216900Y5867400D02*
D03*
X8483600D02*
D03*
D80*
X7543800Y12382500D02*
D03*
Y12065000D02*
D03*
Y12700000D02*
D03*
Y11430000D02*
D03*
Y13017500D02*
D03*
Y11747500D02*
D03*
D81*
X11493500Y8115300D02*
D03*
X10420350Y8064500D02*
D03*
X10033000Y7213600D02*
D03*
X10401300Y6527800D02*
D03*
X12890500Y7772400D02*
D03*
X7848600Y7558000D02*
D03*
X11047811Y6478228D02*
D03*
X12268200Y11887200D02*
D03*
X17055943Y5984100D02*
D03*
X14935201Y8166100D02*
D03*
X11520011Y7533500D02*
D03*
X10730230Y8205470D02*
D03*
X17055943Y8193900D02*
D03*
X11493500Y6045200D02*
D03*
Y6362700D02*
D03*
X11520011Y6644500D02*
D03*
X11492120Y7809120D02*
D03*
X10717611Y7597000D02*
D03*
X17276169Y6009100D02*
D03*
X17276169Y8168900D02*
D03*
X14935201Y6311900D02*
D03*
X14950044Y6581000D02*
D03*
Y7597000D02*
D03*
X14935043Y7874725D02*
D03*
X10722461Y6581000D02*
D03*
X13614482Y7195489D02*
D03*
X13843082Y7195489D02*
D03*
X13840541Y6982511D02*
D03*
X13611942Y6982511D02*
D03*
X11301811Y6517500D02*
D03*
X11117711Y7438250D02*
D03*
X11098611Y7584300D02*
D03*
X11483333Y6800622D02*
D03*
X11044561Y6638550D02*
D03*
X11035111Y7165200D02*
D03*
X11039961Y7012800D02*
D03*
X11117711Y6739750D02*
D03*
X12314378Y8805722D02*
D03*
X12395200Y8724900D02*
D03*
X10152000Y8369300D02*
D03*
X10363200Y8540750D02*
D03*
X13665199Y9943621D02*
D03*
X15100143Y7444600D02*
D03*
X14763594Y7982726D02*
D03*
X14623894D02*
D03*
X10033000Y7797800D02*
D03*
X9318656Y6770378D02*
D03*
X14896944Y6771500D02*
D03*
X16624144Y7089000D02*
D03*
X14503244Y7762100D02*
D03*
X14204794Y7349300D02*
D03*
X14338144Y6695300D02*
D03*
X14520743Y6542900D02*
D03*
X14518243Y6694975D02*
D03*
X14503244Y7000100D02*
D03*
X14520743Y7152500D02*
D03*
X14515894Y7304900D02*
D03*
X14503244Y7609700D02*
D03*
X9613900Y7747000D02*
D03*
X9609159Y7884352D02*
D03*
X8156301Y10073407D02*
D03*
X10152000Y8786791D02*
D03*
X13813290Y8674049D02*
D03*
X14130791D02*
D03*
X9836150Y8096250D02*
D03*
X13525500Y13068300D02*
D03*
X12649200Y13081000D02*
D03*
X13309599Y13068300D02*
D03*
X13525500Y12698865D02*
D03*
X13309599D02*
D03*
X12640850Y12696325D02*
D03*
X14160500Y12700000D02*
D03*
Y13068300D02*
D03*
X13525500Y12325350D02*
D03*
X13309599D02*
D03*
X14160500D02*
D03*
X9791700Y12228336D02*
D03*
X10983736D02*
D03*
X10795000Y12573000D02*
D03*
X9639300D02*
D03*
X15521672Y10105948D02*
D03*
X14908200Y12291813D02*
D03*
X14617700Y13201649D02*
D03*
X17110193Y13070532D02*
D03*
X17107375Y12698236D02*
D03*
X15563982Y12209263D02*
D03*
X16472375Y12325350D02*
D03*
X14295529Y12515850D02*
D03*
X15502705D02*
D03*
X17107375Y12325350D02*
D03*
X12688534Y12347121D02*
D03*
X16256474Y12325350D02*
D03*
X15571851Y12695696D02*
D03*
X15509798Y10414500D02*
D03*
X8075547Y5677540D02*
D03*
X7416800Y5930900D02*
D03*
X7778252Y5945106D02*
D03*
X15571851Y13065173D02*
D03*
X16817336Y9145770D02*
D03*
Y9463270D02*
D03*
Y9780770D02*
D03*
Y10098270D02*
D03*
Y10415770D02*
D03*
X15531889Y9143230D02*
D03*
Y9460730D02*
D03*
Y9778230D02*
D03*
X14375790Y10190857D02*
D03*
X13810750Y9943621D02*
D03*
X14128250D02*
D03*
X13743462Y10098270D02*
D03*
Y10415770D02*
D03*
X12473889Y9778230D02*
D03*
Y10095730D02*
D03*
Y10413230D02*
D03*
X17614900Y12979401D02*
D03*
X14661018Y12714100D02*
D03*
X9829800Y8737600D02*
D03*
X12017000Y11240538D02*
D03*
X15051674D02*
D03*
X15341600Y11887200D02*
D03*
X15159425Y12714100D02*
D03*
X7663700Y7754100D02*
D03*
X7652500Y7373100D02*
D03*
X7467600Y7569200D02*
D03*
X7658100Y7563600D02*
D03*
X16256474Y13067628D02*
D03*
X16472375D02*
D03*
Y12698193D02*
D03*
X16256474D02*
D03*
X7035800Y10896600D02*
D03*
X7340600Y11163300D02*
D03*
X17513300Y12979401D02*
D03*
X17614900Y12877800D02*
D03*
X17513300D02*
D03*
D82*
X8255000Y8559800D02*
D03*
X8267700Y8331200D02*
D03*
X11118034Y8126574D02*
D03*
X8166100Y9004300D02*
D03*
X15138400Y11849100D02*
D03*
X12128500Y11811000D02*
D03*
X12065000Y11887200D02*
D03*
X9017000Y9169400D02*
D03*
X9170479Y6592207D02*
D03*
X12890500Y8559800D02*
D03*
X15796100Y11590020D02*
D03*
X15596100Y11890020D02*
D03*
Y11590020D02*
D03*
Y11290020D02*
D03*
X15796100Y11890020D02*
D03*
Y11290020D02*
D03*
X12738100D02*
D03*
Y11890020D02*
D03*
X12538100Y11290020D02*
D03*
Y11590020D02*
D03*
Y11890020D02*
D03*
X12738100Y11590020D02*
D03*
X9309100Y6654800D02*
D03*
X16922365Y12512227D02*
D03*
X11810398Y12420600D02*
D03*
X8953500Y6692900D02*
D03*
X9677400Y6489700D02*
D03*
X12293600Y10756900D02*
D03*
X15343201Y10754676D02*
D03*
X16922365Y12881705D02*
D03*
X15845799Y10846300D02*
D03*
X15642599D02*
D03*
X15923100Y11239500D02*
D03*
Y11531600D02*
D03*
Y11633200D02*
D03*
Y11734800D02*
D03*
Y11836400D02*
D03*
Y11938000D02*
D03*
X15342368Y11439393D02*
D03*
X12865100Y11239500D02*
D03*
Y11531600D02*
D03*
Y11633200D02*
D03*
Y11734800D02*
D03*
Y11836400D02*
D03*
Y11938000D02*
D03*
X12623800Y12128500D02*
D03*
X14594299Y12092400D02*
D03*
X12584600Y10846300D02*
D03*
X12787800D02*
D03*
X12284367Y11439393D02*
D03*
D83*
X8077200Y6591300D02*
D03*
X7505700Y7010400D02*
D03*
D84*
X16586200Y5651500D02*
D03*
X15813000Y5829300D02*
D03*
Y6057900D02*
D03*
X15698700Y5943600D02*
D03*
X12371300Y5880100D02*
D03*
X12257000Y5994400D02*
D03*
X12371300Y6108700D02*
D03*
X15897701Y8405437D02*
D03*
X15783400Y8291137D02*
D03*
X15897701Y8176837D02*
D03*
X12446000Y8102600D02*
D03*
X12331700Y8216900D02*
D03*
X12446000Y8331200D02*
D03*
X13562411Y8105000D02*
D03*
X13791011D02*
D03*
X13562411Y6073000D02*
D03*
X13448111Y6187300D02*
D03*
X13676711D02*
D03*
X13448111Y7990700D02*
D03*
X13676711D02*
D03*
X13791011Y6073000D02*
D03*
X17271844Y7203300D02*
D03*
Y6974700D02*
D03*
X17157544Y7089000D02*
D03*
X17043243Y7203300D02*
D03*
Y6974700D02*
D03*
X9944100Y9664700D02*
D03*
X10020300Y9525000D02*
D03*
X10096500Y9664700D02*
D03*
X9867900Y9525000D02*
D03*
X9791700Y9664700D02*
D03*
X9715500Y9525000D02*
D03*
X9029700Y9512300D02*
D03*
X13995399Y8559800D02*
D03*
X10337800Y12014200D02*
D03*
X11150600D02*
D03*
X11493500D02*
D03*
Y12357100D02*
D03*
X10477500Y13665199D02*
D03*
Y13106400D02*
D03*
Y13385800D02*
D03*
Y12827000D02*
D03*
X10337800Y12357100D02*
D03*
X10020300Y11620500D02*
D03*
X10363200D02*
D03*
X9677400Y11379200D02*
D03*
Y11849100D02*
D03*
X9829800Y11620500D02*
D03*
X9029700Y9791700D02*
D03*
X10464800Y10756900D02*
D03*
X10617200D02*
D03*
X10312400D02*
D03*
X10541000Y10617200D02*
D03*
X10236200D02*
D03*
X10388600D02*
D03*
X10236200Y10896600D02*
D03*
X10541000D02*
D03*
X10388600D02*
D03*
X9715500Y9804400D02*
D03*
X10020300D02*
D03*
X9867900D02*
D03*
X14401801Y9296400D02*
D03*
X11671300Y12814301D02*
D03*
X8686800Y11303000D02*
D03*
X8839200D02*
D03*
X8991600D02*
D03*
X8610600Y11163300D02*
D03*
X8763000D02*
D03*
X8915400D02*
D03*
X8763000Y10883900D02*
D03*
X8839200Y11023600D02*
D03*
X8915400Y10883900D02*
D03*
X8610600D02*
D03*
X8686800Y11023600D02*
D03*
X8991600D02*
D03*
X8763000Y10604500D02*
D03*
X8610600D02*
D03*
X8915400D02*
D03*
X8686800Y10744200D02*
D03*
X8991600D02*
D03*
X8839200D02*
D03*
X14899863Y9296400D02*
D03*
Y8864600D02*
D03*
X16192500Y8890000D02*
D03*
Y8712200D02*
D03*
X16179800Y9779000D02*
D03*
Y9461500D02*
D03*
Y10096500D02*
D03*
X13970000Y9296400D02*
D03*
X11671300Y13373100D02*
D03*
Y13093700D02*
D03*
Y13652499D02*
D03*
X11836400Y12814301D02*
D03*
Y13652499D02*
D03*
Y13373100D02*
D03*
Y13093700D02*
D03*
D85*
X18251401Y5994597D02*
D03*
X18135600Y13258800D02*
D03*
X18414999Y12890500D02*
D03*
X18275301Y12128500D02*
D03*
X10657848Y9295900D02*
D03*
X18134052Y11252700D02*
D03*
X18250400Y7261852D02*
D03*
Y6766552D02*
D03*
X18328648Y9626100D02*
D03*
X18250400Y13395952D02*
D03*
D86*
X11771711Y7184000D02*
D03*
Y7089000D02*
D03*
Y6994000D02*
D03*
X15214444Y7184000D02*
D03*
Y7089000D02*
D03*
Y6994000D02*
D03*
D87*
X7175500Y8166100D02*
D03*
D105*
X16586200Y5837162D02*
X16997438Y6248400D01*
X16586200Y5651500D02*
Y5837162D01*
X18443451Y6248400D02*
X18572800Y6377749D01*
X16997438Y6248400D02*
X18443451D01*
X18572800Y7127749D02*
Y7377749D01*
Y6877749D02*
Y7127749D01*
Y6627749D02*
Y6877749D01*
Y6377749D02*
Y6627749D01*
%TF.MD5,bc86ec203ab070b180036d1842e8f333*%
M02*
