%TF.GenerationSoftware,Altium Limited,Altium Designer,24.1.2 (44)*%
G04 Layer_Color=8421504*
%FSLAX45Y45*%
%MOMM*%
%TF.SameCoordinates,12E9634C-A8E6-484A-B1C3-FEDB1742B245*%
%TF.FilePolarity,Positive*%
%TF.FileFunction,Paste,Top*%
%TF.Part,Single*%
G01*
G75*
%TA.AperFunction,SMDPad,CuDef*%
%ADD10R,1.00000X0.60000*%
%ADD11C,0.45000*%
G04:AMPARAMS|DCode=12|XSize=0.8mm|YSize=0.25mm|CornerRadius=0.05mm|HoleSize=0mm|Usage=FLASHONLY|Rotation=180.000|XOffset=0mm|YOffset=0mm|HoleType=Round|Shape=RoundedRectangle|*
%AMROUNDEDRECTD12*
21,1,0.80000,0.15000,0,0,180.0*
21,1,0.70000,0.25000,0,0,180.0*
1,1,0.10000,-0.35000,0.07500*
1,1,0.10000,0.35000,0.07500*
1,1,0.10000,0.35000,-0.07500*
1,1,0.10000,-0.35000,-0.07500*
%
%ADD12ROUNDEDRECTD12*%
G04:AMPARAMS|DCode=13|XSize=0.25mm|YSize=0.75mm|CornerRadius=0.05mm|HoleSize=0mm|Usage=FLASHONLY|Rotation=180.000|XOffset=0mm|YOffset=0mm|HoleType=Round|Shape=RoundedRectangle|*
%AMROUNDEDRECTD13*
21,1,0.25000,0.65000,0,0,180.0*
21,1,0.15000,0.75000,0,0,180.0*
1,1,0.10000,-0.07500,0.32500*
1,1,0.10000,0.07500,0.32500*
1,1,0.10000,0.07500,-0.32500*
1,1,0.10000,-0.07500,-0.32500*
%
%ADD13ROUNDEDRECTD13*%
G04:AMPARAMS|DCode=14|XSize=0.25mm|YSize=0.8mm|CornerRadius=0.05mm|HoleSize=0mm|Usage=FLASHONLY|Rotation=180.000|XOffset=0mm|YOffset=0mm|HoleType=Round|Shape=RoundedRectangle|*
%AMROUNDEDRECTD14*
21,1,0.25000,0.70000,0,0,180.0*
21,1,0.15000,0.80000,0,0,180.0*
1,1,0.10000,-0.07500,0.35000*
1,1,0.10000,0.07500,0.35000*
1,1,0.10000,0.07500,-0.35000*
1,1,0.10000,-0.07500,-0.35000*
%
%ADD14ROUNDEDRECTD14*%
G04:AMPARAMS|DCode=15|XSize=0.4mm|YSize=0.8mm|CornerRadius=0.05mm|HoleSize=0mm|Usage=FLASHONLY|Rotation=180.000|XOffset=0mm|YOffset=0mm|HoleType=Round|Shape=RoundedRectangle|*
%AMROUNDEDRECTD15*
21,1,0.40000,0.70000,0,0,180.0*
21,1,0.30000,0.80000,0,0,180.0*
1,1,0.10000,-0.15000,0.35000*
1,1,0.10000,0.15000,0.35000*
1,1,0.10000,0.15000,-0.35000*
1,1,0.10000,-0.15000,-0.35000*
%
%ADD15ROUNDEDRECTD15*%
%ADD17R,1.35000X1.10000*%
%ADD18R,1.70000X0.95000*%
%ADD19R,3.12400X3.25100*%
%ADD20R,1.00620X0.55620*%
%ADD21R,0.66040X0.96520*%
%ADD22R,0.70000X0.85000*%
%ADD23R,0.55620X1.00620*%
%ADD24R,0.60000X0.80000*%
%ADD25R,1.00000X1.60000*%
%ADD26R,1.10000X2.05000*%
%ADD27R,1.25000X3.50000*%
%ADD28R,1.20000X1.20000*%
%ADD29R,1.60000X1.50000*%
%ADD30R,0.85000X0.95000*%
%ADD32R,1.15000X1.05000*%
%ADD33R,0.96520X0.66040*%
%ADD34R,1.50273X2.80415*%
%ADD35R,1.65100X2.18440*%
%ADD36R,10.66800X9.01700*%
%ADD37R,1.25700X3.42900*%
%ADD38R,4.86000X3.36000*%
%ADD39R,1.40000X1.39000*%
%ADD40R,1.25000X1.10000*%
%ADD41R,1.10000X1.25000*%
%ADD42C,0.71120*%
%ADD43R,2.40000X2.40000*%
%ADD44R,2.00000X2.90000*%
%ADD45R,0.85000X0.75000*%
G04:AMPARAMS|DCode=46|XSize=1.95543mm|YSize=0.42077mm|CornerRadius=0.21038mm|HoleSize=0mm|Usage=FLASHONLY|Rotation=90.000|XOffset=0mm|YOffset=0mm|HoleType=Round|Shape=RoundedRectangle|*
%AMROUNDEDRECTD46*
21,1,1.95543,0.00000,0,0,90.0*
21,1,1.53467,0.42077,0,0,90.0*
1,1,0.42077,0.00000,0.76733*
1,1,0.42077,0.00000,-0.76733*
1,1,0.42077,0.00000,-0.76733*
1,1,0.42077,0.00000,0.76733*
%
%ADD46ROUNDEDRECTD46*%
%ADD47R,0.42077X1.95543*%
%ADD48R,0.90000X0.70000*%
%ADD49R,0.93108X0.81213*%
%ADD50R,0.80000X0.95000*%
%ADD51R,0.80000X1.00000*%
%ADD52R,0.95000X1.05000*%
%ADD53R,0.75000X0.85000*%
%ADD54R,2.05000X1.10000*%
%TA.AperFunction,BGAPad,CuDef*%
%ADD55R,0.55000X0.55000*%
%TA.AperFunction,SMDPad,CuDef*%
%ADD56R,3.50000X1.25000*%
%ADD57R,1.40000X1.10000*%
%ADD58R,0.70000X0.90000*%
%TA.AperFunction,NonConductor*%
%ADD171R,2.45000X2.28000*%
%ADD172R,2.45000X2.28000*%
%ADD173R,2.28000X2.45000*%
G36*
X15069444Y7359000D02*
X15070438D01*
X15072276Y7358239D01*
X15073682Y7356832D01*
X15074445Y7354995D01*
Y7354000D01*
X15074445D01*
X15074443Y7284000D01*
X15074445Y7283005D01*
X15073683Y7281167D01*
X15072276Y7279761D01*
X15070438Y7279000D01*
X15069443Y7279000D01*
X15069444D01*
X14999443Y7279000D01*
X14998450Y7279000D01*
X14996611Y7279761D01*
X14995206Y7281168D01*
X14994443Y7283005D01*
X14994444Y7284000D01*
Y7284000D01*
X14994443Y7314000D01*
X14994443Y7314995D01*
X14995204Y7316832D01*
X14996611Y7318239D01*
X14998450Y7319000D01*
X14999443Y7319000D01*
X14999443Y7319000D01*
X15024443D01*
X15026395Y7319192D01*
X15029999Y7320685D01*
X15032758Y7323444D01*
X15034251Y7327049D01*
X15034444Y7329000D01*
X15034444Y7329000D01*
Y7354000D01*
Y7354994D01*
X15035205Y7356832D01*
X15036610Y7358239D01*
X15038449Y7359000D01*
X15039442D01*
X15039444Y7359000D01*
X15069444Y7359000D01*
D02*
G37*
G36*
X11626711D02*
X11627706D01*
X11629543Y7358239D01*
X11630950Y7356832D01*
X11631711Y7354995D01*
Y7354000D01*
X11631712D01*
X11631711Y7284000D01*
X11631711Y7283005D01*
X11630950Y7281167D01*
X11629544Y7279761D01*
X11627706Y7279000D01*
X11626711Y7279000D01*
X11626711D01*
X11556711Y7279000D01*
X11555717Y7279000D01*
X11553879Y7279761D01*
X11552472Y7281168D01*
X11551711Y7283005D01*
X11551711Y7284000D01*
Y7284000D01*
X11551711Y7314000D01*
X11551711Y7314995D01*
X11552472Y7316832D01*
X11553879Y7318239D01*
X11555717Y7319000D01*
X11556711Y7319000D01*
X11556711Y7319000D01*
X11581711D01*
X11583662Y7319192D01*
X11587267Y7320685D01*
X11590026Y7323444D01*
X11591519Y7327049D01*
X11591711Y7329000D01*
X11591711Y7329000D01*
Y7354000D01*
Y7354994D01*
X11592473Y7356832D01*
X11593879Y7358239D01*
X11595717Y7359000D01*
X11596711D01*
X11596711Y7359000D01*
X11626711Y7359000D01*
D02*
G37*
G36*
X15389442D02*
X15390437D01*
X15392276Y7358239D01*
X15393681Y7356832D01*
X15394443Y7354994D01*
Y7354000D01*
X15394443Y7329000D01*
X15394635Y7327049D01*
X15396127Y7323444D01*
X15398888Y7320685D01*
X15402492Y7319192D01*
X15404443Y7319000D01*
X15429443D01*
Y7319000D01*
X15430438Y7319000D01*
X15432275Y7318239D01*
X15433682Y7316832D01*
X15434444Y7314995D01*
X15434444Y7314000D01*
Y7284000D01*
X15434444Y7284000D01*
X15434444Y7283005D01*
X15433682Y7281168D01*
X15432275Y7279761D01*
X15430438Y7279000D01*
X15429443Y7279000D01*
X15359444Y7279000D01*
X15359444Y7279000D01*
X15358449Y7279000D01*
X15356612Y7279761D01*
X15355203Y7281167D01*
X15354443Y7283005D01*
X15354443Y7284000D01*
X15354443Y7354000D01*
Y7354995D01*
X15355203Y7356832D01*
X15356612Y7358239D01*
X15358449Y7359000D01*
X15359444D01*
X15389442Y7359000D01*
Y7359000D01*
D02*
G37*
G36*
X11946711D02*
X11947706D01*
X11949543Y7358239D01*
X11950950Y7356832D01*
X11951711Y7354994D01*
Y7354000D01*
X11951711Y7329000D01*
X11951903Y7327049D01*
X11953396Y7323444D01*
X11956155Y7320685D01*
X11959760Y7319192D01*
X11961711Y7319000D01*
X11986711D01*
Y7319000D01*
X11987706Y7319000D01*
X11989543Y7318239D01*
X11990950Y7316832D01*
X11991711Y7314995D01*
X11991711Y7314000D01*
Y7284000D01*
X11991711Y7284000D01*
X11991711Y7283005D01*
X11990950Y7281168D01*
X11989543Y7279761D01*
X11987706Y7279000D01*
X11986711Y7279000D01*
X11916711Y7279000D01*
X11916711Y7279000D01*
X11915717Y7279000D01*
X11913879Y7279761D01*
X11912472Y7281167D01*
X11911711Y7283005D01*
X11911711Y7284000D01*
X11911711Y7354000D01*
Y7354995D01*
X11912472Y7356832D01*
X11913879Y7358239D01*
X11915717Y7359000D01*
X11916711D01*
X11946711Y7359000D01*
Y7359000D01*
D02*
G37*
G36*
X15277277Y7204239D02*
X15278682Y7202832D01*
X15279443Y7200994D01*
Y7200000D01*
X15279443D01*
X15279443Y7104000D01*
Y7103005D01*
X15278682Y7101168D01*
X15277277Y7099761D01*
X15275438Y7099000D01*
X15153448D01*
X15151611Y7099761D01*
X15150204Y7101168D01*
X15149445Y7103005D01*
Y7104000D01*
X15149443D01*
X15149445Y7200000D01*
Y7200994D01*
X15150204Y7202832D01*
X15151611Y7204239D01*
X15153448Y7205000D01*
X15275438D01*
X15277277Y7204239D01*
D02*
G37*
G36*
X11834543D02*
X11835950Y7202832D01*
X11836711Y7200994D01*
Y7200000D01*
X11836711D01*
X11836711Y7104000D01*
Y7103005D01*
X11835950Y7101168D01*
X11834543Y7099761D01*
X11832706Y7099000D01*
X11710717D01*
X11708879Y7099761D01*
X11707472Y7101168D01*
X11706711Y7103005D01*
Y7104000D01*
X11706711D01*
X11706711Y7200000D01*
Y7200994D01*
X11707472Y7202832D01*
X11708879Y7204239D01*
X11710717Y7205000D01*
X11832706D01*
X11834543Y7204239D01*
D02*
G37*
G36*
X15277277Y7078239D02*
X15278682Y7076832D01*
X15279443Y7074994D01*
Y7074000D01*
X15279443D01*
X15279443Y6978000D01*
Y6977005D01*
X15278682Y6975168D01*
X15277277Y6973761D01*
X15275438Y6973000D01*
X15153448D01*
X15151611Y6973761D01*
X15150204Y6975168D01*
X15149445Y6977005D01*
Y6978000D01*
X15149443D01*
X15149445Y7074000D01*
Y7074994D01*
X15150204Y7076832D01*
X15151611Y7078239D01*
X15153448Y7079000D01*
X15275438D01*
X15277277Y7078239D01*
D02*
G37*
G36*
X11834543D02*
X11835950Y7076832D01*
X11836711Y7074994D01*
Y7074000D01*
X11836711D01*
X11836711Y6978000D01*
Y6977005D01*
X11835950Y6975168D01*
X11834543Y6973761D01*
X11832706Y6973000D01*
X11710717D01*
X11708879Y6973761D01*
X11707472Y6975168D01*
X11706711Y6977005D01*
Y6978000D01*
X11706711D01*
X11706711Y7074000D01*
Y7074994D01*
X11707472Y7076832D01*
X11708879Y7078239D01*
X11710717Y7079000D01*
X11832706D01*
X11834543Y7078239D01*
D02*
G37*
G36*
X15429443Y6899000D02*
X15430438Y6899000D01*
X15432275Y6898239D01*
X15433682Y6896832D01*
X15434444Y6894994D01*
X15434444Y6894000D01*
X15434444D01*
X15434444Y6864000D01*
Y6863006D01*
X15433682Y6861168D01*
X15432275Y6859761D01*
X15430438Y6859000D01*
X15429443D01*
X15429443Y6859000D01*
X15404443Y6859000D01*
X15402492Y6858808D01*
X15398888Y6857315D01*
X15396127Y6854556D01*
X15394635Y6850951D01*
X15394443Y6849000D01*
Y6849000D01*
X15394443Y6824000D01*
Y6823005D01*
X15393681Y6821168D01*
X15392276Y6819761D01*
X15390437Y6819000D01*
X15358449D01*
X15356612Y6819761D01*
X15355203Y6821168D01*
X15354443Y6823005D01*
Y6824000D01*
Y6824000D01*
X15354443Y6894000D01*
X15354443Y6894995D01*
X15355203Y6896833D01*
X15356612Y6898239D01*
X15358449Y6899000D01*
X15359444Y6899000D01*
X15359444Y6899000D01*
X15429443Y6899000D01*
D02*
G37*
G36*
X15072276Y6898239D02*
X15073683Y6896833D01*
X15074445Y6894995D01*
X15074443Y6894000D01*
X15074445Y6824000D01*
X15074445Y6824000D01*
Y6823005D01*
X15073682Y6821168D01*
X15072276Y6819761D01*
X15070438Y6819000D01*
X15038449D01*
X15036610Y6819761D01*
X15035205Y6821168D01*
X15034444Y6823005D01*
Y6824000D01*
Y6849000D01*
X15034444D01*
X15034251Y6850951D01*
X15032758Y6854556D01*
X15029999Y6857315D01*
X15026395Y6858808D01*
X15024443Y6859000D01*
X14999443D01*
X14998450Y6859000D01*
X14996611Y6859761D01*
X14995204Y6861167D01*
X14994443Y6863005D01*
X14994443Y6864000D01*
X14994444Y6894000D01*
X14994443Y6894994D01*
X14995206Y6896832D01*
X14996611Y6898239D01*
X14998450Y6899000D01*
X14999443Y6899000D01*
X15069444Y6899000D01*
X15069443Y6899000D01*
X15070438Y6899000D01*
X15072276Y6898239D01*
D02*
G37*
G36*
X11986711Y6899000D02*
X11987706Y6899000D01*
X11989543Y6898239D01*
X11990950Y6896832D01*
X11991711Y6894994D01*
X11991711Y6894000D01*
X11991711D01*
X11991711Y6864000D01*
Y6863006D01*
X11990950Y6861168D01*
X11989543Y6859761D01*
X11987706Y6859000D01*
X11986711D01*
X11986711Y6859000D01*
X11961711Y6859000D01*
X11959760Y6858808D01*
X11956155Y6857315D01*
X11953396Y6854556D01*
X11951903Y6850951D01*
X11951711Y6849000D01*
Y6849000D01*
X11951711Y6824000D01*
Y6823005D01*
X11950950Y6821168D01*
X11949543Y6819761D01*
X11947706Y6819000D01*
X11915717D01*
X11913879Y6819761D01*
X11912472Y6821168D01*
X11911711Y6823005D01*
Y6824000D01*
Y6824000D01*
X11911711Y6894000D01*
X11911711Y6894995D01*
X11912472Y6896833D01*
X11913879Y6898239D01*
X11915717Y6899000D01*
X11916711Y6899000D01*
X11916711Y6899000D01*
X11986711Y6899000D01*
D02*
G37*
G36*
X11629544Y6898239D02*
X11630950Y6896833D01*
X11631711Y6894995D01*
X11631711Y6894000D01*
X11631712Y6824000D01*
X11631711Y6824000D01*
Y6823005D01*
X11630950Y6821168D01*
X11629543Y6819761D01*
X11627706Y6819000D01*
X11595717D01*
X11593879Y6819761D01*
X11592473Y6821168D01*
X11591711Y6823005D01*
Y6824000D01*
Y6849000D01*
X11591711D01*
X11591519Y6850951D01*
X11590026Y6854556D01*
X11587267Y6857315D01*
X11583662Y6858808D01*
X11581711Y6859000D01*
X11556711D01*
X11555717Y6859000D01*
X11553879Y6859761D01*
X11552472Y6861167D01*
X11551711Y6863005D01*
X11551711Y6864000D01*
X11551711Y6894000D01*
X11551711Y6894994D01*
X11552472Y6896832D01*
X11553879Y6898239D01*
X11555717Y6899000D01*
X11556711Y6899000D01*
X11626711Y6899000D01*
X11626711Y6899000D01*
X11627706Y6899000D01*
X11629544Y6898239D01*
D02*
G37*
D10*
X7748300Y9493000D02*
D03*
Y9303000D02*
D03*
X7988300Y9398000D02*
D03*
Y8686800D02*
D03*
Y9042400D02*
D03*
X7748300Y8947400D02*
D03*
Y9137400D02*
D03*
Y8591800D02*
D03*
Y8781800D02*
D03*
X7988300Y8331200D02*
D03*
X7748300Y8236200D02*
D03*
Y8426200D02*
D03*
D11*
X11936711Y6874000D02*
D03*
X11606711Y7304000D02*
D03*
Y6874000D02*
D03*
X11936711Y7304000D02*
D03*
X15379443Y6874000D02*
D03*
X15049445Y7304000D02*
D03*
Y6874000D02*
D03*
X15379443Y7304000D02*
D03*
D12*
X11951711Y6951500D02*
D03*
Y7014000D02*
D03*
Y7089000D02*
D03*
Y7164000D02*
D03*
Y7226500D02*
D03*
X11591711Y7239000D02*
D03*
Y7189000D02*
D03*
Y7139000D02*
D03*
Y7089000D02*
D03*
Y7039000D02*
D03*
Y6989000D02*
D03*
Y6939000D02*
D03*
X15394443Y6951500D02*
D03*
Y7014000D02*
D03*
Y7089000D02*
D03*
Y7164000D02*
D03*
Y7226500D02*
D03*
X15034444Y7239000D02*
D03*
Y7189000D02*
D03*
Y7139000D02*
D03*
Y7089000D02*
D03*
Y7039000D02*
D03*
Y6989000D02*
D03*
Y6939000D02*
D03*
D13*
X11854211Y7321500D02*
D03*
Y6856500D02*
D03*
X15296944Y7321500D02*
D03*
Y6856500D02*
D03*
D14*
X11719211Y7319000D02*
D03*
X11669211D02*
D03*
Y6859000D02*
D03*
X11719211D02*
D03*
X15161945Y7319000D02*
D03*
X15111945D02*
D03*
Y6859000D02*
D03*
X15161945D02*
D03*
D15*
X11776711Y7319000D02*
D03*
Y6859000D02*
D03*
X15219444Y7319000D02*
D03*
Y6859000D02*
D03*
D17*
X13613211Y6797501D02*
D03*
Y6467501D02*
D03*
Y7380499D02*
D03*
Y7710499D02*
D03*
X17055943Y8079500D02*
D03*
Y7749500D02*
D03*
Y6098500D02*
D03*
Y6428500D02*
D03*
D18*
X13841811Y7380499D02*
D03*
Y7660499D02*
D03*
Y6797501D02*
D03*
Y6517501D02*
D03*
X17276169Y8054500D02*
D03*
Y7774500D02*
D03*
X17276169Y6123500D02*
D03*
Y6403500D02*
D03*
D19*
X13298260Y7660500D02*
D03*
X12404161D02*
D03*
X13298260Y6517500D02*
D03*
X12404161D02*
D03*
X16752715Y7660500D02*
D03*
X15858615D02*
D03*
X16752715Y6517500D02*
D03*
X15858614D02*
D03*
D20*
X12114611Y7184300D02*
D03*
Y7349300D02*
D03*
Y6993700D02*
D03*
Y6828700D02*
D03*
X15594688Y6917500D02*
D03*
Y6752500D02*
D03*
X15594688Y7260500D02*
D03*
Y7425500D02*
D03*
D21*
X11130361Y7165200D02*
D03*
X11270061D02*
D03*
X10812861Y6771500D02*
D03*
X10952561D02*
D03*
X11270061Y6200000D02*
D03*
X11130361D02*
D03*
X10952561Y6390500D02*
D03*
X10812861D02*
D03*
X11270061Y7978000D02*
D03*
X11130361D02*
D03*
X10952561Y7406500D02*
D03*
X10812861D02*
D03*
X10952561Y7787500D02*
D03*
X10812861D02*
D03*
Y7597000D02*
D03*
X10952561D02*
D03*
X14204794Y7762100D02*
D03*
X14344495D02*
D03*
Y7457300D02*
D03*
X14204794D02*
D03*
X14344495Y7609700D02*
D03*
X14204794D02*
D03*
X14763594Y7874726D02*
D03*
X14623894D02*
D03*
X14763594Y7457300D02*
D03*
X14623894D02*
D03*
Y7304900D02*
D03*
X14763594D02*
D03*
D22*
X11139811Y6638550D02*
D03*
X11264811D02*
D03*
X14751244Y6847700D02*
D03*
X14636244D02*
D03*
D23*
X11282711Y6835000D02*
D03*
X11117711D02*
D03*
X11282711Y7343000D02*
D03*
X11117711D02*
D03*
X14776244Y7609700D02*
D03*
X14611244D02*
D03*
Y7000100D02*
D03*
X14776244D02*
D03*
D24*
X11135211Y7012800D02*
D03*
X11265211D02*
D03*
X10817711Y6581000D02*
D03*
X10947711D02*
D03*
X14628743Y7152500D02*
D03*
X14758743D02*
D03*
Y6542900D02*
D03*
X14628743D02*
D03*
D25*
X11634411Y6644500D02*
D03*
X11934411D02*
D03*
X11634411Y7533500D02*
D03*
X11934411D02*
D03*
X15064444Y7597000D02*
D03*
X15364442D02*
D03*
X15064444Y6581000D02*
D03*
X15364442D02*
D03*
D26*
X11607900Y6045200D02*
D03*
X11937900D02*
D03*
X11607900Y6362700D02*
D03*
X11937900D02*
D03*
X11607900Y8115300D02*
D03*
X11937900D02*
D03*
X11607900Y7810500D02*
D03*
X11937900D02*
D03*
X13558450Y9779500D02*
D03*
X13228452D02*
D03*
X15049445Y7874725D02*
D03*
X15379443D02*
D03*
X15049600Y8166100D02*
D03*
X15379601D02*
D03*
X15049600Y6019800D02*
D03*
X15379601D02*
D03*
X15049600Y6311900D02*
D03*
X15379601D02*
D03*
X13228452Y10097000D02*
D03*
X13558450D02*
D03*
X13228452Y10414500D02*
D03*
X13558450D02*
D03*
X16302325Y9144500D02*
D03*
X16632326D02*
D03*
X16302325Y9462000D02*
D03*
X16632326D02*
D03*
X16302325Y9779500D02*
D03*
X16632326D02*
D03*
X16302325Y10097000D02*
D03*
X16632326D02*
D03*
X16302325Y10414500D02*
D03*
X16632326D02*
D03*
X16046899Y9144500D02*
D03*
X15716901D02*
D03*
X16046899Y9462000D02*
D03*
X15716901D02*
D03*
X16046899Y9779500D02*
D03*
X15716901D02*
D03*
X16046899Y10097000D02*
D03*
X15716901D02*
D03*
X16046899Y10414500D02*
D03*
X15716901D02*
D03*
X12988901Y9779500D02*
D03*
X12658900D02*
D03*
X12988901Y10097000D02*
D03*
X12658900D02*
D03*
X12988901Y10414500D02*
D03*
X12658900D02*
D03*
D27*
X12973000Y9083900D02*
D03*
X12773000D02*
D03*
X12573000D02*
D03*
X12373000D02*
D03*
D28*
X14144493Y6847700D02*
D03*
X14344495D02*
D03*
D29*
X14244493Y7172700D02*
D03*
D30*
X14626244Y6694975D02*
D03*
X14761244D02*
D03*
D32*
X7141300Y8382000D02*
D03*
X7311300D02*
D03*
Y8636000D02*
D03*
X7141300D02*
D03*
D33*
X7556500Y9353150D02*
D03*
Y9492850D02*
D03*
Y8997550D02*
D03*
Y9137250D02*
D03*
Y8641950D02*
D03*
Y8781650D02*
D03*
Y8286350D02*
D03*
Y8426050D02*
D03*
X7175500Y7512050D02*
D03*
Y7372350D02*
D03*
D34*
X12825861Y13067030D02*
D03*
X13115900D02*
D03*
X13975490Y13067030D02*
D03*
X13685451D02*
D03*
X13975490Y12328159D02*
D03*
X13685451D02*
D03*
X12825861Y12697595D02*
D03*
X13115900D02*
D03*
X13975490Y12697595D02*
D03*
X13685451D02*
D03*
X16632326Y12327488D02*
D03*
X16922365D02*
D03*
X16632326Y12696966D02*
D03*
X16922365D02*
D03*
X16632326Y13066444D02*
D03*
X16922365D02*
D03*
X16046899Y13066444D02*
D03*
X15756860D02*
D03*
X16046899Y12696966D02*
D03*
X15756860D02*
D03*
D35*
X7950200Y12882880D02*
D03*
Y12542520D02*
D03*
D36*
X9893300Y13284200D02*
D03*
X11049000D02*
D03*
D37*
X10147300Y12293600D02*
D03*
X9639300D02*
D03*
X11303000D02*
D03*
X10795000D02*
D03*
D38*
X10215301Y11852199D02*
D03*
X10215300Y11388800D02*
D03*
D39*
X9817101Y11944199D02*
D03*
Y11760199D02*
D03*
X9817100Y11480800D02*
D03*
Y11296800D02*
D03*
D40*
X6962800Y13017500D02*
D03*
X6727800D02*
D03*
X6962800Y11430000D02*
D03*
X6727800D02*
D03*
X6962800Y11747500D02*
D03*
X6727800D02*
D03*
X6962800Y12065000D02*
D03*
X6727800D02*
D03*
X6962800Y12382500D02*
D03*
X6727800D02*
D03*
X6962800Y12700000D02*
D03*
X6727800D02*
D03*
D41*
X14452600Y12998601D02*
D03*
Y13233601D02*
D03*
D42*
X17208475Y5410000D02*
D03*
X17589500Y6477000D02*
D03*
X17297400Y12509500D02*
D03*
X17576801Y11925300D02*
D03*
X14376401Y10299700D02*
D03*
X13868401Y10629900D02*
D03*
X16941800Y10604500D02*
D03*
X17208501Y12153900D02*
D03*
X14185899Y12128500D02*
D03*
X11976100Y12420600D02*
D03*
X11760200Y10960100D02*
D03*
Y11125200D02*
D03*
X14770100Y11039500D02*
D03*
X15379700Y12357100D02*
D03*
X14503400Y12556481D02*
D03*
X8255000Y10680700D02*
D03*
X9753600Y8223250D02*
D03*
X9855200Y7785100D02*
D03*
X9422648Y7848600D02*
D03*
X9093200D02*
D03*
X9310633Y7591220D02*
D03*
X10023725Y6654800D02*
D03*
X9906000D02*
D03*
X10642600Y9550400D02*
D03*
D43*
X16804700Y10998700D02*
D03*
Y11778700D02*
D03*
X13743500Y10998700D02*
D03*
Y11778700D02*
D03*
D44*
X17564700Y11388700D02*
D03*
X14503500D02*
D03*
D45*
X18211800Y9625600D02*
D03*
Y9500600D02*
D03*
X10541000Y9295400D02*
D03*
Y9170400D02*
D03*
D46*
X9107000Y7031238D02*
D03*
X9172000D02*
D03*
X9237000D02*
D03*
X9302000D02*
D03*
X9367000D02*
D03*
X9432000D02*
D03*
X9497000D02*
D03*
X9562000D02*
D03*
Y6456162D02*
D03*
X9497000D02*
D03*
X9432000D02*
D03*
X9367000D02*
D03*
X9302000D02*
D03*
X9237000D02*
D03*
X9172000D02*
D03*
D47*
X9107000D02*
D03*
D48*
X14655800Y12858600D02*
D03*
Y12998599D02*
D03*
X12484100Y12376300D02*
D03*
Y12236300D02*
D03*
D49*
X12042501Y10749975D02*
D03*
X12150606D02*
D03*
X15079675D02*
D03*
X15187781D02*
D03*
D50*
X12037000Y10935200D02*
D03*
X12167000D02*
D03*
Y11692526D02*
D03*
X12037000D02*
D03*
X15074174D02*
D03*
X15204175D02*
D03*
X15074174Y10935200D02*
D03*
X15204175D02*
D03*
D51*
X12167000Y11127926D02*
D03*
X12017000D02*
D03*
X15204173D02*
D03*
X15054173D02*
D03*
D52*
X12159500Y11350651D02*
D03*
X12014500D02*
D03*
X15196674D02*
D03*
X15051674D02*
D03*
D53*
X12169500Y11544800D02*
D03*
X12044500D02*
D03*
X15081674D02*
D03*
X15206674D02*
D03*
D54*
X14129520Y9428611D02*
D03*
Y9758611D02*
D03*
X13812019Y9428611D02*
D03*
Y9758611D02*
D03*
X14129520Y9189060D02*
D03*
Y8859060D02*
D03*
X13812019Y9189060D02*
D03*
Y8859060D02*
D03*
D55*
X16346899Y12039500D02*
D03*
Y11939500D02*
D03*
Y11739500D02*
D03*
Y11639500D02*
D03*
Y11439500D02*
D03*
Y11339500D02*
D03*
Y11139500D02*
D03*
Y11039500D02*
D03*
Y10839500D02*
D03*
Y10739500D02*
D03*
X16246899Y12039500D02*
D03*
Y11939500D02*
D03*
Y11739500D02*
D03*
Y11639500D02*
D03*
Y11439500D02*
D03*
Y11339500D02*
D03*
Y11139500D02*
D03*
Y11039500D02*
D03*
Y10839500D02*
D03*
Y10739500D02*
D03*
X16146899Y12039500D02*
D03*
Y11939500D02*
D03*
Y11739500D02*
D03*
Y11639500D02*
D03*
Y11439500D02*
D03*
Y11339500D02*
D03*
Y11139500D02*
D03*
Y11039500D02*
D03*
Y10839500D02*
D03*
Y10739500D02*
D03*
X16046899Y12039500D02*
D03*
Y11939500D02*
D03*
Y11739500D02*
D03*
Y11639500D02*
D03*
Y11439500D02*
D03*
Y11339500D02*
D03*
Y11139500D02*
D03*
Y11039500D02*
D03*
Y10839500D02*
D03*
Y10739500D02*
D03*
X15946899Y11439500D02*
D03*
Y11339500D02*
D03*
X15846899Y12039500D02*
D03*
Y11939500D02*
D03*
Y11839500D02*
D03*
Y11739500D02*
D03*
Y11639500D02*
D03*
Y11539500D02*
D03*
Y11439500D02*
D03*
Y11339500D02*
D03*
Y11239500D02*
D03*
Y11139500D02*
D03*
Y11039500D02*
D03*
Y10939500D02*
D03*
Y10739500D02*
D03*
X15746899Y12039500D02*
D03*
Y11939500D02*
D03*
Y11839500D02*
D03*
Y11739500D02*
D03*
Y11639500D02*
D03*
Y11539500D02*
D03*
Y11439500D02*
D03*
Y11339500D02*
D03*
Y11239500D02*
D03*
Y11139500D02*
D03*
Y11039500D02*
D03*
Y10939500D02*
D03*
Y10739500D02*
D03*
X15646899Y12039500D02*
D03*
Y11939500D02*
D03*
Y11839500D02*
D03*
Y11739500D02*
D03*
Y11639500D02*
D03*
Y11539500D02*
D03*
Y11439500D02*
D03*
Y11339500D02*
D03*
Y11239500D02*
D03*
Y11139500D02*
D03*
Y11039500D02*
D03*
Y10939500D02*
D03*
X15546899Y12039500D02*
D03*
Y11939500D02*
D03*
Y11839500D02*
D03*
Y11739500D02*
D03*
Y11639500D02*
D03*
Y11539500D02*
D03*
Y11439500D02*
D03*
Y11339500D02*
D03*
Y11239500D02*
D03*
Y11139500D02*
D03*
Y11039500D02*
D03*
Y10939500D02*
D03*
Y10839500D02*
D03*
Y10739500D02*
D03*
X15446899Y12039500D02*
D03*
Y11939500D02*
D03*
Y11839500D02*
D03*
Y11739500D02*
D03*
Y11639500D02*
D03*
Y11539500D02*
D03*
Y11439500D02*
D03*
Y11339500D02*
D03*
Y11239500D02*
D03*
Y11139500D02*
D03*
Y11039500D02*
D03*
Y10939500D02*
D03*
Y10839500D02*
D03*
Y10739500D02*
D03*
X13288901Y12039500D02*
D03*
Y11939500D02*
D03*
Y11739500D02*
D03*
Y11639500D02*
D03*
Y11439500D02*
D03*
Y11339500D02*
D03*
Y11139500D02*
D03*
Y11039500D02*
D03*
Y10839500D02*
D03*
Y10739500D02*
D03*
X13188901Y12039500D02*
D03*
Y11939500D02*
D03*
Y11739500D02*
D03*
Y11639500D02*
D03*
Y11439500D02*
D03*
Y11339500D02*
D03*
Y11139500D02*
D03*
Y11039500D02*
D03*
Y10839500D02*
D03*
Y10739500D02*
D03*
X13088901Y12039500D02*
D03*
Y11939500D02*
D03*
Y11739500D02*
D03*
Y11639500D02*
D03*
Y11439500D02*
D03*
Y11339500D02*
D03*
Y11139500D02*
D03*
Y11039500D02*
D03*
Y10839500D02*
D03*
Y10739500D02*
D03*
X12988901Y12039500D02*
D03*
Y11939500D02*
D03*
Y11739500D02*
D03*
Y11639500D02*
D03*
Y11439500D02*
D03*
Y11339500D02*
D03*
Y11139500D02*
D03*
Y11039500D02*
D03*
Y10839500D02*
D03*
Y10739500D02*
D03*
X12888901Y11439500D02*
D03*
Y11339500D02*
D03*
X12788900Y12039500D02*
D03*
Y11939500D02*
D03*
Y11839500D02*
D03*
Y11739500D02*
D03*
Y11639500D02*
D03*
Y11539500D02*
D03*
Y11439500D02*
D03*
Y11339500D02*
D03*
Y11239500D02*
D03*
Y11139500D02*
D03*
Y11039500D02*
D03*
Y10939500D02*
D03*
Y10739500D02*
D03*
X12688900Y12039500D02*
D03*
Y11939500D02*
D03*
Y11839500D02*
D03*
Y11739500D02*
D03*
Y11639500D02*
D03*
Y11539500D02*
D03*
Y11439500D02*
D03*
Y11339500D02*
D03*
Y11239500D02*
D03*
Y11139500D02*
D03*
Y11039500D02*
D03*
Y10939500D02*
D03*
Y10739500D02*
D03*
X12588900Y12039500D02*
D03*
Y11939500D02*
D03*
Y11839500D02*
D03*
Y11739500D02*
D03*
Y11639500D02*
D03*
Y11539500D02*
D03*
Y11439500D02*
D03*
Y11339500D02*
D03*
Y11239500D02*
D03*
Y11139500D02*
D03*
Y11039500D02*
D03*
Y10939500D02*
D03*
X12488900Y12039500D02*
D03*
Y11939500D02*
D03*
Y11839500D02*
D03*
Y11739500D02*
D03*
Y11639500D02*
D03*
Y11539500D02*
D03*
Y11439500D02*
D03*
Y11339500D02*
D03*
Y11239500D02*
D03*
Y11139500D02*
D03*
Y11039500D02*
D03*
Y10939500D02*
D03*
Y10839500D02*
D03*
Y10739500D02*
D03*
X12388900Y12039500D02*
D03*
Y11939500D02*
D03*
Y11839500D02*
D03*
Y11739500D02*
D03*
Y11639500D02*
D03*
Y11539500D02*
D03*
Y11439500D02*
D03*
Y11339500D02*
D03*
Y11239500D02*
D03*
Y11139500D02*
D03*
Y11039500D02*
D03*
Y10939500D02*
D03*
Y10839500D02*
D03*
Y10739500D02*
D03*
D56*
X9359900Y8966400D02*
D03*
Y9166400D02*
D03*
Y9366400D02*
D03*
Y9566400D02*
D03*
Y9766400D02*
D03*
Y9966400D02*
D03*
Y10166400D02*
D03*
Y10366400D02*
D03*
Y10566400D02*
D03*
Y10766400D02*
D03*
D57*
X7035800Y11050200D02*
D03*
Y11200200D02*
D03*
D58*
X7156303Y13017500D02*
D03*
X7296302D02*
D03*
X7156303Y12700000D02*
D03*
X7296302D02*
D03*
X7156303Y12382500D02*
D03*
X7296302D02*
D03*
X7156303Y12065000D02*
D03*
X7296302D02*
D03*
X7156303Y11747500D02*
D03*
X7296302D02*
D03*
X7156303Y11430000D02*
D03*
X7296302D02*
D03*
D171*
X13358000Y9197900D02*
D03*
Y8929900D02*
D03*
X11988000Y8879900D02*
D03*
D172*
Y9147900D02*
D03*
D173*
X9513900Y11151400D02*
D03*
X9245900D02*
D03*
X9563899Y8581401D02*
D03*
X9295900Y8581401D02*
D03*
%TF.MD5,98038db72bbb2d097e985c0cb8a8500b*%
M02*
