%TF.GenerationSoftware,Altium Limited,Altium Designer,22.5.1 (42)*%
G04 Layer_Color=128*
%FSLAX45Y45*%
%MOMM*%
%TF.SameCoordinates,176CDB2E-7B72-45DB-8ACB-ACD3A9543041*%
%TF.FilePolarity,Positive*%
%TF.FileFunction,Drillmap*%
%TF.Part,Single*%
G01*
G75*
%TA.AperFunction,NonConductor*%
%ADD39C,0.12700*%
D39*
X6401200Y4957000D02*
X6451200D01*
X6426200Y4932000D02*
Y4982000D01*
X546500Y4904200D02*
X596500D01*
X571500Y4879200D02*
Y4929200D01*
X546500Y5029200D02*
X596500D01*
X571500Y5004200D02*
Y5054200D01*
X546500Y5154200D02*
X596500D01*
X571500Y5129200D02*
Y5179200D01*
X546500Y3935509D02*
X596500D01*
X571500Y3910509D02*
Y3960508D01*
X546500Y3810509D02*
X596500D01*
X571500Y3785509D02*
Y3835508D01*
X546500Y3685509D02*
X596500D01*
X571500Y3660509D02*
Y3710508D01*
X546500Y2161509D02*
X596500D01*
X571500Y2136509D02*
Y2186508D01*
X546500Y2286509D02*
X596500D01*
X571500Y2261509D02*
Y2311508D01*
X546500Y2411509D02*
X596500D01*
X571500Y2386509D02*
Y2436508D01*
X546500Y1231900D02*
X596500D01*
X571500Y1206900D02*
Y1256900D01*
X546500Y1106900D02*
X596500D01*
X571500Y1081900D02*
Y1131900D01*
X546500Y981900D02*
X596500D01*
X571500Y956900D02*
Y1006900D01*
X5432300Y1016000D02*
X5552300D01*
X5492300Y956000D02*
Y1076000D01*
X5432300Y766000D02*
X5552300D01*
X5492300Y706000D02*
Y826000D01*
X5432300Y516000D02*
X5552300D01*
X5492300Y456000D02*
Y576000D01*
X6130300Y1016000D02*
X6290300D01*
X6210300Y936000D02*
Y1096000D01*
X6130300Y516001D02*
X6290300D01*
X6210300Y436001D02*
Y596001D01*
X6401200Y5332000D02*
X6451200D01*
X6426200Y5307000D02*
Y5357000D01*
X6401200Y5207000D02*
X6451200D01*
X6426200Y5182000D02*
Y5232000D01*
X6401200Y5082000D02*
X6451200D01*
X6426200Y5057000D02*
Y5107000D01*
X6401200Y3987800D02*
X6451200D01*
X6426200Y3962800D02*
Y4012800D01*
X6401200Y4112800D02*
X6451200D01*
X6426200Y4087800D02*
Y4137800D01*
X6401200Y4237800D02*
X6451200D01*
X6426200Y4212800D02*
Y4262800D01*
X6401200Y4362800D02*
X6451200D01*
X6426200Y4337800D02*
Y4387800D01*
X6401200Y3399600D02*
X6451200D01*
X6426200Y3374600D02*
Y3424600D01*
X6401200Y3274600D02*
X6451200D01*
X6426200Y3249600D02*
Y3299600D01*
X6401200Y3149600D02*
X6451200D01*
X6426200Y3124600D02*
Y3174600D01*
X6401200Y3024600D02*
X6451200D01*
X6426200Y2999600D02*
Y3049600D01*
X5501640Y1803400D02*
X5572760D01*
X5537200Y1767840D02*
Y1838960D01*
X5196840Y736600D02*
X5267960D01*
X5232400Y701040D02*
Y772160D01*
X5323840Y1371600D02*
X5394960D01*
X5359400Y1336040D02*
Y1407160D01*
X5091634Y854050D02*
X5162754D01*
X5127194Y818490D02*
Y889610D01*
X4980940Y749300D02*
X5052060D01*
X5016500Y713740D02*
Y784860D01*
X6289040Y2463800D02*
X6360160D01*
X6324600Y2428240D02*
Y2499360D01*
X6365240Y1536700D02*
X6436360D01*
X6400800Y1501140D02*
Y1572260D01*
X6008521Y2132481D02*
X6079641D01*
X6044081Y2096921D02*
Y2168041D01*
X139700Y5892800D02*
X495300D01*
X317500Y5715000D02*
Y6070600D01*
X139700Y304800D02*
X495300D01*
X317500Y127000D02*
Y482600D01*
X6527800Y5892800D02*
X6883400D01*
X6705600Y5715000D02*
Y6070600D01*
X5203945Y2078296D02*
X5275065D01*
X5239505Y2042736D02*
Y2113856D01*
X5196840Y3581400D02*
X5267960D01*
X5232400Y3545840D02*
Y3616960D01*
X5476240Y4559300D02*
X5547360D01*
X5511800Y4523740D02*
Y4594860D01*
X5768340Y4610100D02*
X5839460D01*
X5803900Y4574540D02*
Y4645660D01*
X6047740Y5854700D02*
X6118860D01*
X6083300Y5819140D02*
Y5890260D01*
X5654040Y5511800D02*
X5725160D01*
X5689600Y5476240D02*
Y5547360D01*
X5844540Y1651000D02*
X5915660D01*
X5880100Y1615440D02*
Y1686560D01*
X6403340Y1917700D02*
X6474460D01*
X6438900Y1882140D02*
Y1953260D01*
X4993640Y5321300D02*
X5064760D01*
X5029200Y5285740D02*
Y5356860D01*
X5095240Y5207000D02*
X5166360D01*
X5130800Y5171440D02*
Y5242560D01*
X5196840Y5092700D02*
X5267960D01*
X5232400Y5057140D02*
Y5128260D01*
X5088029Y2179896D02*
X5159149D01*
X5123589Y2144336D02*
Y2215456D01*
X4979771Y2287162D02*
X5050891D01*
X5015331Y2251602D02*
Y2322722D01*
X5095240Y3695700D02*
X5166360D01*
X5130800Y3660140D02*
Y3731260D01*
X4993640Y3810000D02*
X5064760D01*
X5029200Y3774440D02*
Y3845560D01*
X993140Y3365500D02*
X1064260D01*
X1028700Y3329940D02*
Y3401060D01*
X993140Y4305300D02*
X1064260D01*
X1028700Y4269740D02*
Y4340860D01*
X993140Y3822700D02*
X1064260D01*
X1028700Y3787140D02*
Y3858260D01*
X1323340Y3365500D02*
X1394460D01*
X1358900Y3329940D02*
Y3401060D01*
X1323340Y3822700D02*
X1394460D01*
X1358900Y3787140D02*
Y3858260D01*
X1323340Y4305300D02*
X1394460D01*
X1358900Y4269740D02*
Y4340860D01*
X1958340Y3314700D02*
X2029460D01*
X1993900Y3279140D02*
Y3350260D01*
X1958340Y4267200D02*
X2029460D01*
X1993900Y4231640D02*
Y4302760D01*
X2110740Y3416300D02*
X2181860D01*
X2146300Y3380740D02*
Y3451860D01*
X2339340Y4229100D02*
X2410460D01*
X2374900Y4193540D02*
Y4264660D01*
X2644140Y3505200D02*
X2715260D01*
X2679700Y3469640D02*
Y3540760D01*
X2910840Y3454400D02*
X2981960D01*
X2946400Y3418840D02*
Y3489960D01*
X3329940Y3492500D02*
X3401060D01*
X3365500Y3456940D02*
Y3528060D01*
X4371340Y3454400D02*
X4442460D01*
X4406900Y3418840D02*
Y3489960D01*
X3609340Y3848100D02*
X3680460D01*
X3644900Y3812540D02*
Y3883660D01*
X4399196Y3985877D02*
X4470316D01*
X4434756Y3950317D02*
Y4021437D01*
X4666333Y3929540D02*
X4737453D01*
X4701893Y3893980D02*
Y3965100D01*
X2110740Y368300D02*
X2181860D01*
X2146300Y332740D02*
Y403860D01*
X1958340Y1790700D02*
X2029460D01*
X1993900Y1755140D02*
Y1826260D01*
X1958340Y2743200D02*
X2029460D01*
X1993900Y2707640D02*
Y2778760D01*
X1958340Y5791200D02*
X2029460D01*
X1993900Y5755640D02*
Y5826760D01*
X1958340Y4838700D02*
X2029460D01*
X1993900Y4803140D02*
Y4874260D01*
X4666333Y881540D02*
X4737453D01*
X4701893Y845980D02*
Y917100D01*
X4671104Y2409022D02*
X4742224D01*
X4706664Y2373462D02*
Y2444582D01*
X4667460Y5452908D02*
X4738580D01*
X4703020Y5417348D02*
Y5488468D01*
X993140Y774700D02*
X1064260D01*
X1028700Y739140D02*
Y810260D01*
X993140Y1257300D02*
X1064260D01*
X1028700Y1221740D02*
Y1292860D01*
X993140Y2311400D02*
X1064260D01*
X1028700Y2275840D02*
Y2346960D01*
X993140Y2768600D02*
X1064260D01*
X1028700Y2733040D02*
Y2804160D01*
X993140Y1828800D02*
X1064260D01*
X1028700Y1793240D02*
Y1864360D01*
X993140Y317500D02*
X1064260D01*
X1028700Y281940D02*
Y353060D01*
X993140Y4889500D02*
X1064260D01*
X1028700Y4853940D02*
Y4925060D01*
X993140Y5346700D02*
X1064260D01*
X1028700Y5311140D02*
Y5382260D01*
X2910840Y406400D02*
X2981960D01*
X2946400Y370840D02*
Y441960D01*
X1323340Y1257300D02*
X1394460D01*
X1358900Y1221740D02*
Y1292860D01*
X1323340Y2768600D02*
X1394460D01*
X1358900Y2733040D02*
Y2804160D01*
X1323340Y317500D02*
X1394460D01*
X1358900Y281940D02*
Y353060D01*
X2644140Y457200D02*
X2715260D01*
X2679700Y421640D02*
Y492760D01*
X1323340Y774700D02*
X1394460D01*
X1358900Y739140D02*
Y810260D01*
X2339340Y1181100D02*
X2410460D01*
X2374900Y1145540D02*
Y1216660D01*
X3329940Y444500D02*
X3401060D01*
X3365500Y408940D02*
Y480060D01*
X3609340Y800100D02*
X3680460D01*
X3644900Y764540D02*
Y835660D01*
X4371340Y406400D02*
X4442460D01*
X4406900Y370840D02*
Y441960D01*
X4399196Y937877D02*
X4470316D01*
X4434756Y902317D02*
Y973437D01*
X4399196Y5509877D02*
X4470316D01*
X4434756Y5474317D02*
Y5545437D01*
X3609340Y5372100D02*
X3680460D01*
X3644900Y5336540D02*
Y5407660D01*
X1323340Y5346700D02*
X1394460D01*
X1358900Y5311140D02*
Y5382260D01*
X3329940Y5016500D02*
X3401060D01*
X3365500Y4980940D02*
Y5052060D01*
X2910840Y4978400D02*
X2981960D01*
X2946400Y4942840D02*
Y5013960D01*
X2339340Y5753100D02*
X2410460D01*
X2374900Y5717540D02*
Y5788660D01*
X4371340Y4978400D02*
X4442460D01*
X4406900Y4942840D02*
Y5013960D01*
X1323340Y4889500D02*
X1394460D01*
X1358900Y4853940D02*
Y4925060D01*
X2110740Y4940300D02*
X2181860D01*
X2146300Y4904740D02*
Y4975860D01*
X2644140Y5029200D02*
X2715260D01*
X2679700Y4993640D02*
Y5064760D01*
X2110740Y1892300D02*
X2181860D01*
X2146300Y1856740D02*
Y1927860D01*
X2339340Y2705100D02*
X2410460D01*
X2374900Y2669540D02*
Y2740660D01*
X4371340Y1930400D02*
X4442460D01*
X4406900Y1894840D02*
Y1965960D01*
X2910840Y1930400D02*
X2981960D01*
X2946400Y1894840D02*
Y1965960D01*
X4399196Y2461877D02*
X4470316D01*
X4434756Y2426317D02*
Y2497437D01*
X1323340Y2298700D02*
X1394460D01*
X1358900Y2263140D02*
Y2334260D01*
X1323340Y1841500D02*
X1394460D01*
X1358900Y1805940D02*
Y1877060D01*
X2644140Y1981200D02*
X2715260D01*
X2679700Y1945640D02*
Y2016760D01*
X3329940Y1968500D02*
X3401060D01*
X3365500Y1932940D02*
Y2004060D01*
X3609340Y2324100D02*
X3680460D01*
X3644900Y2288540D02*
Y2359660D01*
%TF.MD5,65985bcad697e80a2bb5043b8e0195a4*%
M02*
