%TF.GenerationSoftware,Altium Limited,Altium Designer,22.5.1 (42)*%
G04 Layer_Color=16711935*
%FSLAX45Y45*%
%MOMM*%
%TF.SameCoordinates,176CDB2E-7B72-45DB-8ACB-ACD3A9543041*%
%TF.FilePolarity,Positive*%
%TF.FileFunction,Other,Mechanical_13*%
%TF.Part,Single*%
G01*
G75*
%TA.AperFunction,NonConductor*%
%ADD39C,0.12700*%
%ADD48C,0.10000*%
%ADD49C,0.00000*%
%ADD50C,0.02540*%
D39*
X541500Y5384200D02*
X571500Y5334200D01*
X601500Y5384200D01*
X541500D02*
X601500D01*
X126500Y4754200D02*
X676500D01*
Y5304200D01*
X126500D02*
X676500D01*
X126500Y4754200D02*
Y5304200D01*
Y3535509D02*
Y4085508D01*
X676500D01*
Y3535509D02*
Y4085508D01*
X126500Y3535509D02*
X676500D01*
X541500Y4165509D02*
X601500D01*
X571500Y4115508D02*
X601500Y4165509D01*
X541500D02*
X571500Y4115508D01*
X541500Y2641509D02*
X571500Y2591508D01*
X601500Y2641509D01*
X541500D02*
X601500D01*
X126500Y2011509D02*
X676500D01*
Y2561508D01*
X126500D02*
X676500D01*
X126500Y2011509D02*
Y2561508D01*
Y831900D02*
Y1381900D01*
X676500D01*
Y831900D02*
Y1381900D01*
X126500Y831900D02*
X676500D01*
X541500Y1461900D02*
X601500D01*
X571500Y1411900D02*
X601500Y1461900D01*
X541500D02*
X571500Y1411900D01*
X5428800Y1365799D02*
X5492300Y1213399D01*
X5428800Y1365799D02*
X5555800D01*
X5492300Y1213399D02*
X5555800Y1365799D01*
X6676300Y344001D02*
Y1187999D01*
X5460300D02*
X6676300D01*
X5460300Y344001D02*
Y1187999D01*
Y344001D02*
X6676300D01*
X6426200Y4777000D02*
X6456200Y4727000D01*
X6396200D02*
X6426200Y4777000D01*
X6396200Y4727000D02*
X6456200D01*
X6321200Y5482000D02*
X6871200D01*
X6321200Y4807000D02*
Y5482000D01*
Y4807000D02*
X6871200D01*
Y5482000D01*
Y3837800D02*
Y4512800D01*
X6321200Y3837800D02*
X6871200D01*
X6321200D02*
Y4512800D01*
X6871200D01*
X6396200Y3757800D02*
X6456200D01*
X6396200D02*
X6426200Y3807800D01*
X6456200Y3757800D01*
X6426200Y2844600D02*
X6456200Y2794600D01*
X6396200D02*
X6426200Y2844600D01*
X6396200Y2794600D02*
X6456200D01*
X6321200Y3549600D02*
X6871200D01*
X6321200Y2874600D02*
Y3549600D01*
Y2874600D02*
X6871200D01*
Y3549600D01*
D48*
X2335748Y941008D02*
G03*
X2335748Y941008I-50000J0D01*
G01*
X5960100Y4984000D02*
G03*
X5960100Y4984000I-50000J0D01*
G01*
X6091700Y2200600D02*
G03*
X6091700Y2200600I-50000J0D01*
G01*
X3581100Y3982700D02*
G03*
X3581100Y3982700I-50000J0D01*
G01*
X2335748Y3989008D02*
G03*
X2335748Y3989008I-50000J0D01*
G01*
X3581100Y934700D02*
G03*
X3581100Y934700I-50000J0D01*
G01*
Y5506700D02*
G03*
X3581100Y5506700I-50000J0D01*
G01*
X2335748Y5513008D02*
G03*
X2335748Y5513008I-50000J0D01*
G01*
Y2465008D02*
G03*
X2335748Y2465008I-50000J0D01*
G01*
X3581100Y2458700D02*
G03*
X3581100Y2458700I-50000J0D01*
G01*
X2195748Y531008D02*
X2595748D01*
X2195748Y1031008D02*
X2595748D01*
Y531008D02*
Y1031008D01*
X2195748Y531008D02*
Y1031008D01*
X6000100Y4894000D02*
Y5774000D01*
X5600100Y4894000D02*
Y5774000D01*
Y4894000D02*
X6000100D01*
X5600100Y5774000D02*
X6000100D01*
X5494200Y4787100D02*
X5674200D01*
X5494200Y4687100D02*
X5674200D01*
X5494200D02*
Y4787100D01*
X5674200Y4687100D02*
Y4787100D01*
X5926000Y4687100D02*
X6106000D01*
X5926000Y4787100D02*
X6106000D01*
Y4687100D02*
Y4787100D01*
X5926000Y4687100D02*
Y4787100D01*
X5826700Y2415600D02*
X6136700D01*
X5826700Y2105600D02*
X6136700D01*
X5826700D02*
Y2415600D01*
X6136700Y2105600D02*
Y2415600D01*
X6514000Y1639100D02*
X6694000D01*
X6514000Y1739100D02*
X6694000D01*
Y1639100D02*
Y1739100D01*
X6514000Y1639100D02*
Y1739100D01*
X6107600Y1739100D02*
X6287600D01*
X6107600Y1639100D02*
X6287600D01*
X6107600D02*
Y1739100D01*
X6287600Y1639100D02*
Y1739100D01*
X4630600Y3614200D02*
Y3904200D01*
X4810600Y3614200D02*
Y3904200D01*
X4630600D02*
X4810600D01*
X4630600Y3614200D02*
X4810600D01*
X3441100Y3572700D02*
Y4072700D01*
X3841100Y3572700D02*
Y4072700D01*
X3441100D02*
X3841100D01*
X3441100Y3572700D02*
X3841100D01*
X2195748Y3579008D02*
X2595748D01*
X2195748Y4079008D02*
X2595748D01*
Y3579008D02*
Y4079008D01*
X2195748Y3579008D02*
Y4079008D01*
X2872200Y3826600D02*
Y3996600D01*
X2962200Y3826600D02*
Y3996600D01*
X2872200Y3826600D02*
X2962200D01*
X2872200Y3996600D02*
X2962200D01*
X3987900Y3371300D02*
X4157900D01*
X3987900Y3461300D02*
X4157900D01*
Y3371300D02*
Y3461300D01*
X3987900Y3371300D02*
Y3461300D01*
X4206800Y3674200D02*
Y3844200D01*
X4116800Y3674200D02*
Y3844200D01*
X4206800D01*
X4116800Y3674200D02*
X4206800D01*
X3165400Y3826600D02*
Y3996600D01*
X3075400Y3826600D02*
Y3996600D01*
X3165400D01*
X3075400Y3826600D02*
X3165400D01*
X2946500Y4248700D02*
X3116500D01*
X2946500Y4158700D02*
X3116500D01*
X2946500D02*
Y4248700D01*
X3116500Y4158700D02*
Y4248700D01*
X4410000Y3674200D02*
Y3844200D01*
X4320000Y3674200D02*
Y3844200D01*
X4410000D01*
X4320000Y3674200D02*
X4410000D01*
X1701148Y3581909D02*
X1871148D01*
X1701148Y3491908D02*
X1871148D01*
X1701148D02*
Y3581909D01*
X1871148Y3491908D02*
Y3581909D01*
X1920049Y3744009D02*
Y3914008D01*
X1830049Y3744009D02*
Y3914008D01*
X1920049D01*
X1830049Y3744009D02*
X1920049D01*
X1539049Y3553509D02*
Y3723508D01*
X1449049Y3553509D02*
Y3723508D01*
X1539049D01*
X1449049Y3553509D02*
X1539049D01*
X929449D02*
Y3723508D01*
X839449Y3553509D02*
Y3723508D01*
X929449D01*
X839449Y3553509D02*
X929449D01*
X1701148Y4166109D02*
X1871148D01*
X1701148Y4076108D02*
X1871148D01*
X1701148D02*
Y4166109D01*
X1871148Y4076108D02*
Y4166109D01*
X1449048Y3934508D02*
Y4104508D01*
X1539048Y3934508D02*
Y4104508D01*
X1449048Y3934508D02*
X1539048D01*
X1449048Y4104508D02*
X1539048D01*
X839448Y3934508D02*
Y4104508D01*
X929448Y3934508D02*
Y4104508D01*
X839448Y3934508D02*
X929448D01*
X839448Y4104508D02*
X929448D01*
X4160700Y4152100D02*
X4340700D01*
X4160700Y4052100D02*
X4340700D01*
X4160700D02*
Y4152100D01*
X4340700Y4052100D02*
Y4152100D01*
X2941500Y3556800D02*
X3121500D01*
X2941500Y3656800D02*
X3121500D01*
Y3556800D02*
Y3656800D01*
X2941500Y3556800D02*
Y3656800D01*
X4681400Y4014000D02*
X4861400D01*
X4681400Y4114000D02*
X4861400D01*
Y4014000D02*
Y4114000D01*
X4681400Y4014000D02*
Y4114000D01*
X4567100Y3404400D02*
X4747100D01*
X4567100Y3504400D02*
X4747100D01*
Y3404400D02*
Y3504400D01*
X4567100Y3404400D02*
Y3504400D01*
X2522400Y4191800D02*
X2702400D01*
X2522400Y4291800D02*
X2702400D01*
Y4191800D02*
Y4291800D01*
X2522400Y4191800D02*
Y4291800D01*
X2293800Y3366300D02*
X2473800D01*
X2293800Y3466300D02*
X2473800D01*
Y3366300D02*
Y3466300D01*
X2293800Y3366300D02*
Y3466300D01*
X1099248Y3499608D02*
X1279248D01*
X1099248Y3599608D02*
X1279248D01*
Y3499608D02*
Y3599608D01*
X1099248Y3499608D02*
Y3599608D01*
Y4058408D02*
X1279248D01*
X1099248Y4158408D02*
X1279248D01*
Y4058408D02*
Y4158408D01*
X1099248Y4058408D02*
Y4158408D01*
X3987900Y323300D02*
Y413300D01*
X4157900Y323300D02*
Y413300D01*
X3987900D02*
X4157900D01*
X3987900Y323300D02*
X4157900D01*
X6620600Y1872700D02*
Y1962700D01*
X6790600Y1872700D02*
Y1962700D01*
X6620600D02*
X6790600D01*
X6620600Y1872700D02*
X6790600D01*
X6257200Y1860000D02*
Y1950000D01*
X6087200Y1860000D02*
Y1950000D01*
Y1860000D02*
X6257200D01*
X6087200Y1950000D02*
X6257200D01*
X3987900Y4895300D02*
Y4985300D01*
X4157900Y4895300D02*
Y4985300D01*
X3987900D02*
X4157900D01*
X3987900Y4895300D02*
X4157900D01*
X4630600Y566200D02*
Y856200D01*
X4810600Y566200D02*
Y856200D01*
X4630600D02*
X4810600D01*
X4630600Y566200D02*
X4810600D01*
X3441100Y524700D02*
Y1024700D01*
X3841100Y524700D02*
Y1024700D01*
X3441100D02*
X3841100D01*
X3441100Y524700D02*
X3841100D01*
X2872200Y778600D02*
Y948600D01*
X2962200Y778600D02*
Y948600D01*
X2872200Y778600D02*
X2962200D01*
X2872200Y948600D02*
X2962200D01*
X4206800Y626200D02*
Y796200D01*
X4116800Y626200D02*
Y796200D01*
X4206800D01*
X4116800Y626200D02*
X4206800D01*
X3165400Y778600D02*
Y948600D01*
X3075400Y778600D02*
Y948600D01*
X3165400D01*
X3075400Y778600D02*
X3165400D01*
X2946500Y1200700D02*
X3116500D01*
X2946500Y1110700D02*
X3116500D01*
X2946500D02*
Y1200700D01*
X3116500Y1110700D02*
Y1200700D01*
X4410000Y626200D02*
Y796200D01*
X4320000Y626200D02*
Y796200D01*
X4410000D01*
X4320000Y626200D02*
X4410000D01*
X1701148Y533909D02*
X1871148D01*
X1701148Y443908D02*
X1871148D01*
X1701148D02*
Y533909D01*
X1871148Y443908D02*
Y533909D01*
X1920049Y696009D02*
Y866008D01*
X1830049Y696009D02*
Y866008D01*
X1920049D01*
X1830049Y696009D02*
X1920049D01*
X1539049Y505509D02*
Y675508D01*
X1449049Y505509D02*
Y675508D01*
X1539049D01*
X1449049Y505509D02*
X1539049D01*
X929449D02*
Y675508D01*
X839449Y505509D02*
Y675508D01*
X929449D01*
X839449Y505509D02*
X929449D01*
X1701148Y1118109D02*
X1871148D01*
X1701148Y1028108D02*
X1871148D01*
X1701148D02*
Y1118109D01*
X1871148Y1028108D02*
Y1118109D01*
X1449048Y886508D02*
Y1056508D01*
X1539048Y886508D02*
Y1056508D01*
X1449048Y886508D02*
X1539048D01*
X1449048Y1056508D02*
X1539048D01*
X839448Y886508D02*
Y1056508D01*
X929448Y886508D02*
Y1056508D01*
X839448Y886508D02*
X929448D01*
X839448Y1056508D02*
X929448D01*
X4160700Y1104100D02*
X4340700D01*
X4160700Y1004100D02*
X4340700D01*
X4160700D02*
Y1104100D01*
X4340700Y1004100D02*
Y1104100D01*
X2941500Y508800D02*
X3121500D01*
X2941500Y608800D02*
X3121500D01*
Y508800D02*
Y608800D01*
X2941500Y508800D02*
Y608800D01*
X4681400Y966000D02*
X4861400D01*
X4681400Y1066000D02*
X4861400D01*
Y966000D02*
Y1066000D01*
X4681400Y966000D02*
Y1066000D01*
X4567100Y356400D02*
X4747100D01*
X4567100Y456400D02*
X4747100D01*
Y356400D02*
Y456400D01*
X4567100Y356400D02*
Y456400D01*
X2522400Y1143800D02*
X2702400D01*
X2522400Y1243800D02*
X2702400D01*
Y1143800D02*
Y1243800D01*
X2522400Y1143800D02*
Y1243800D01*
X2293800Y318300D02*
X2473800D01*
X2293800Y418300D02*
X2473800D01*
Y318300D02*
Y418300D01*
X2293800Y318300D02*
Y418300D01*
X1099248Y451608D02*
X1279248D01*
X1099248Y551608D02*
X1279248D01*
Y451608D02*
Y551608D01*
X1099248Y451608D02*
Y551608D01*
Y1010408D02*
X1279248D01*
X1099248Y1110408D02*
X1279248D01*
Y1010408D02*
Y1110408D01*
X1099248Y1010408D02*
Y1110408D01*
X4630600Y5138200D02*
Y5428200D01*
X4810600Y5138200D02*
Y5428200D01*
X4630600D02*
X4810600D01*
X4630600Y5138200D02*
X4810600D01*
X3441100Y5096700D02*
Y5596700D01*
X3841100Y5096700D02*
Y5596700D01*
X3441100D02*
X3841100D01*
X3441100Y5096700D02*
X3841100D01*
X2195748Y5103008D02*
Y5603008D01*
X2595748Y5103008D02*
Y5603008D01*
X2195748D02*
X2595748D01*
X2195748Y5103008D02*
X2595748D01*
X2872200Y5350600D02*
Y5520600D01*
X2962200Y5350600D02*
Y5520600D01*
X2872200Y5350600D02*
X2962200D01*
X2872200Y5520600D02*
X2962200D01*
X4206800Y5198200D02*
Y5368200D01*
X4116800Y5198200D02*
Y5368200D01*
X4206800D01*
X4116800Y5198200D02*
X4206800D01*
X3165400Y5350600D02*
Y5520600D01*
X3075400Y5350600D02*
Y5520600D01*
X3165400D01*
X3075400Y5350600D02*
X3165400D01*
X2946500Y5772700D02*
X3116500D01*
X2946500Y5682700D02*
X3116500D01*
X2946500D02*
Y5772700D01*
X3116500Y5682700D02*
Y5772700D01*
X4410000Y5198200D02*
Y5368200D01*
X4320000Y5198200D02*
Y5368200D01*
X4410000D01*
X4320000Y5198200D02*
X4410000D01*
X1701148Y5105909D02*
X1871148D01*
X1701148Y5015908D02*
X1871148D01*
X1701148D02*
Y5105909D01*
X1871148Y5015908D02*
Y5105909D01*
X1920049Y5268009D02*
Y5438008D01*
X1830049Y5268009D02*
Y5438008D01*
X1920049D01*
X1830049Y5268009D02*
X1920049D01*
X1539049Y5077509D02*
Y5247508D01*
X1449049Y5077509D02*
Y5247508D01*
X1539049D01*
X1449049Y5077509D02*
X1539049D01*
X929449D02*
Y5247508D01*
X839449Y5077509D02*
Y5247508D01*
X929449D01*
X839449Y5077509D02*
X929449D01*
X1701148Y5690109D02*
X1871148D01*
X1701148Y5600108D02*
X1871148D01*
X1701148D02*
Y5690109D01*
X1871148Y5600108D02*
Y5690109D01*
X1449048Y5458508D02*
Y5628508D01*
X1539048Y5458508D02*
Y5628508D01*
X1449048Y5458508D02*
X1539048D01*
X1449048Y5628508D02*
X1539048D01*
X839448Y5458508D02*
Y5628508D01*
X929448Y5458508D02*
Y5628508D01*
X839448Y5458508D02*
X929448D01*
X839448Y5628508D02*
X929448D01*
X4160700Y5676100D02*
X4340700D01*
X4160700Y5576100D02*
X4340700D01*
X4160700D02*
Y5676100D01*
X4340700Y5576100D02*
Y5676100D01*
X2941500Y5080800D02*
X3121500D01*
X2941500Y5180800D02*
X3121500D01*
Y5080800D02*
Y5180800D01*
X2941500Y5080800D02*
Y5180800D01*
X4681400Y5538000D02*
X4861400D01*
X4681400Y5638000D02*
X4861400D01*
Y5538000D02*
Y5638000D01*
X4681400Y5538000D02*
Y5638000D01*
X4567100Y4928400D02*
X4747100D01*
X4567100Y5028400D02*
X4747100D01*
Y4928400D02*
Y5028400D01*
X4567100Y4928400D02*
Y5028400D01*
X2522400Y5715800D02*
X2702400D01*
X2522400Y5815800D02*
X2702400D01*
Y5715800D02*
Y5815800D01*
X2522400Y5715800D02*
Y5815800D01*
X2293800Y4890300D02*
X2473800D01*
X2293800Y4990300D02*
X2473800D01*
Y4890300D02*
Y4990300D01*
X2293800Y4890300D02*
Y4990300D01*
X1099248Y5023608D02*
X1279248D01*
X1099248Y5123608D02*
X1279248D01*
Y5023608D02*
Y5123608D01*
X1099248Y5023608D02*
Y5123608D01*
Y5582408D02*
X1279248D01*
X1099248Y5682408D02*
X1279248D01*
Y5582408D02*
Y5682408D01*
X1099248Y5582408D02*
Y5682408D01*
Y2534408D02*
Y2634408D01*
X1279248Y2534408D02*
Y2634408D01*
X1099248D02*
X1279248D01*
X1099248Y2534408D02*
X1279248D01*
X1099248Y1975608D02*
Y2075608D01*
X1279248Y1975608D02*
Y2075608D01*
X1099248D02*
X1279248D01*
X1099248Y1975608D02*
X1279248D01*
X2293800Y1842300D02*
Y1942300D01*
X2473800Y1842300D02*
Y1942300D01*
X2293800D02*
X2473800D01*
X2293800Y1842300D02*
X2473800D01*
X2522400Y2667800D02*
Y2767800D01*
X2702400Y2667800D02*
Y2767800D01*
X2522400D02*
X2702400D01*
X2522400Y2667800D02*
X2702400D01*
X4567100Y1880400D02*
Y1980400D01*
X4747100Y1880400D02*
Y1980400D01*
X4567100D02*
X4747100D01*
X4567100Y1880400D02*
X4747100D01*
X4681400Y2490000D02*
Y2590000D01*
X4861400Y2490000D02*
Y2590000D01*
X4681400D02*
X4861400D01*
X4681400Y2490000D02*
X4861400D01*
X2941500Y2032800D02*
Y2132800D01*
X3121500Y2032800D02*
Y2132800D01*
X2941500D02*
X3121500D01*
X2941500Y2032800D02*
X3121500D01*
X4340700Y2528100D02*
Y2628100D01*
X4160700Y2528100D02*
Y2628100D01*
Y2528100D02*
X4340700D01*
X4160700Y2628100D02*
X4340700D01*
X839448Y2580508D02*
X929448D01*
X839448Y2410508D02*
X929448D01*
Y2580508D01*
X839448Y2410508D02*
Y2580508D01*
X1449048D02*
X1539048D01*
X1449048Y2410508D02*
X1539048D01*
Y2580508D01*
X1449048Y2410508D02*
Y2580508D01*
X1871148Y2552108D02*
Y2642109D01*
X1701148Y2552108D02*
Y2642109D01*
Y2552108D02*
X1871148D01*
X1701148Y2642109D02*
X1871148D01*
X839449Y2029509D02*
X929449D01*
X839449Y2199508D02*
X929449D01*
X839449Y2029509D02*
Y2199508D01*
X929449Y2029509D02*
Y2199508D01*
X1449049Y2029509D02*
X1539049D01*
X1449049Y2199508D02*
X1539049D01*
X1449049Y2029509D02*
Y2199508D01*
X1539049Y2029509D02*
Y2199508D01*
X1830049Y2220009D02*
X1920049D01*
X1830049Y2390008D02*
X1920049D01*
X1830049Y2220009D02*
Y2390008D01*
X1920049Y2220009D02*
Y2390008D01*
X1871148Y1967908D02*
Y2057909D01*
X1701148Y1967908D02*
Y2057909D01*
Y1967908D02*
X1871148D01*
X1701148Y2057909D02*
X1871148D01*
X4320000Y2150200D02*
X4410000D01*
X4320000Y2320200D02*
X4410000D01*
X4320000Y2150200D02*
Y2320200D01*
X4410000Y2150200D02*
Y2320200D01*
X3116500Y2634700D02*
Y2724700D01*
X2946500Y2634700D02*
Y2724700D01*
Y2634700D02*
X3116500D01*
X2946500Y2724700D02*
X3116500D01*
X3075400Y2302600D02*
X3165400D01*
X3075400Y2472600D02*
X3165400D01*
X3075400Y2302600D02*
Y2472600D01*
X3165400Y2302600D02*
Y2472600D01*
X4116800Y2150200D02*
X4206800D01*
X4116800Y2320200D02*
X4206800D01*
X4116800Y2150200D02*
Y2320200D01*
X4206800Y2150200D02*
Y2320200D01*
X3987900Y1847300D02*
Y1937300D01*
X4157900Y1847300D02*
Y1937300D01*
X3987900D02*
X4157900D01*
X3987900Y1847300D02*
X4157900D01*
X2872200Y2472600D02*
X2962200D01*
X2872200Y2302600D02*
X2962200D01*
Y2472600D01*
X2872200Y2302600D02*
Y2472600D01*
X2195748Y2055008D02*
X2595748D01*
X2195748Y2555008D02*
X2595748D01*
Y2055008D02*
Y2555008D01*
X2195748Y2055008D02*
Y2555008D01*
X3441100Y2048700D02*
X3841100D01*
X3441100Y2548700D02*
X3841100D01*
Y2048700D02*
Y2548700D01*
X3441100Y2048700D02*
Y2548700D01*
X4630600Y2090200D02*
X4810600D01*
X4630600Y2380200D02*
X4810600D01*
Y2090200D02*
Y2380200D01*
X4630600Y2090200D02*
Y2380200D01*
D49*
X6580505Y2085340D02*
G03*
X6580505Y2085340I-12700J0D01*
G01*
D50*
X6469380Y2059940D02*
X6840220D01*
X6469380Y2435860D02*
X6840220D01*
Y2059940D02*
Y2435860D01*
X6469380Y2059940D02*
Y2435860D01*
X6790055Y2057400D02*
Y2059940D01*
X6693535Y2057400D02*
X6790055D01*
X6693535D02*
Y2059940D01*
X6790055D01*
X6616065Y2057400D02*
Y2059940D01*
X6519545Y2057400D02*
X6616065D01*
X6519545D02*
Y2059940D01*
X6616065D01*
X6579870Y2435860D02*
Y2438400D01*
X6729730D01*
Y2435860D02*
Y2438400D01*
X6579870Y2435860D02*
X6729730D01*
%TF.MD5,f9a47e7fa13cb05877ad0f86515ffd8c*%
M02*
