%TF.GenerationSoftware,Altium Limited,Altium Designer,22.5.1 (42)*%
G04 Layer_Physical_Order=2*
G04 Layer_Color=16711680*
%FSLAX45Y45*%
%MOMM*%
%TF.SameCoordinates,176CDB2E-7B72-45DB-8ACB-ACD3A9543041*%
%TF.FilePolarity,Positive*%
%TF.FileFunction,Copper,L2,Bot,Signal*%
%TF.Part,Single*%
G01*
G75*
%TA.AperFunction,Conductor*%
%ADD19C,0.25400*%
%ADD20C,0.50800*%
%TA.AperFunction,ComponentPad*%
%ADD21R,0.85000X0.85000*%
%ADD22C,0.85000*%
%ADD23R,1.70000X1.70000*%
%ADD24C,1.70000*%
%ADD25C,1.60000*%
%TA.AperFunction,ViaPad*%
%ADD26C,1.27000*%
%ADD27C,3.55600*%
%TA.AperFunction,Conductor*%
%ADD28R,1.27000X0.88900*%
%ADD29R,5.96900X1.27000*%
G36*
X7023100Y2641600D02*
X5398247D01*
Y4390809D01*
X5482541Y4475104D01*
X5500096Y4470400D01*
X5523504D01*
X5546114Y4476458D01*
X5566386Y4488162D01*
X5582938Y4504714D01*
X5594642Y4524986D01*
X5600700Y4547596D01*
Y4571004D01*
X5594642Y4593614D01*
X5582938Y4613886D01*
X5566386Y4630438D01*
X5546114Y4642142D01*
X5523504Y4648200D01*
X5500096D01*
X5477486Y4642142D01*
X5457214Y4630438D01*
X5440662Y4613886D01*
X5428958Y4593614D01*
X5422900Y4571004D01*
Y4547596D01*
X5427604Y4530041D01*
X5345733Y4448170D01*
X5334000Y4453031D01*
Y6083300D01*
X6602093D01*
X6605946Y6070600D01*
X6576068Y6050636D01*
X6547764Y6022332D01*
X6525526Y5989051D01*
X6510209Y5952071D01*
X6502400Y5912813D01*
Y5872787D01*
X6510209Y5833529D01*
X6525526Y5796549D01*
X6547764Y5763268D01*
X6576068Y5734964D01*
X6609349Y5712726D01*
X6646329Y5697409D01*
X6685587Y5689600D01*
X6725613D01*
X6764871Y5697409D01*
X6801851Y5712726D01*
X6835132Y5734964D01*
X6863436Y5763268D01*
X6885674Y5796549D01*
X6900991Y5833529D01*
X6908800Y5872787D01*
Y5912813D01*
X6900991Y5952071D01*
X6885674Y5989051D01*
X6863436Y6022332D01*
X6835132Y6050636D01*
X6805254Y6070600D01*
X6809107Y6083300D01*
X7023100D01*
Y2641600D01*
D02*
G37*
G36*
X4940300Y5333004D02*
Y5309596D01*
Y4622800D01*
X0D01*
Y6083300D01*
X213993D01*
X217846Y6070600D01*
X187968Y6050636D01*
X159664Y6022332D01*
X137426Y5989051D01*
X122109Y5952071D01*
X114300Y5912813D01*
Y5872787D01*
X122109Y5833529D01*
X137426Y5796549D01*
X159664Y5763268D01*
X187968Y5734964D01*
X221249Y5712726D01*
X258229Y5697409D01*
X297487Y5689600D01*
X337513D01*
X376771Y5697409D01*
X413751Y5712726D01*
X447032Y5734964D01*
X475336Y5763268D01*
X497574Y5796549D01*
X512891Y5833529D01*
X520700Y5872787D01*
Y5912813D01*
X512891Y5952071D01*
X497574Y5989051D01*
X475336Y6022332D01*
X447032Y6050636D01*
X417154Y6070600D01*
X421007Y6083300D01*
X4940300D01*
Y5333004D01*
D02*
G37*
G36*
Y3821704D02*
Y3798296D01*
Y3100660D01*
X0D01*
Y4561160D01*
X4940300D01*
Y3821704D01*
D02*
G37*
G36*
Y2335005D02*
X4932489Y2321476D01*
X4926431Y2298865D01*
Y2275458D01*
X4932489Y2252847D01*
X4940300Y2239318D01*
Y1574800D01*
X0D01*
Y3035300D01*
X4940300D01*
Y2335005D01*
D02*
G37*
G36*
X7023100Y63500D02*
X5334000D01*
Y1275939D01*
X5344076Y1283670D01*
X5347696Y1282700D01*
X5371104D01*
X5393714Y1288758D01*
X5413986Y1300462D01*
X5430538Y1317014D01*
X5442242Y1337286D01*
X5448300Y1359896D01*
Y1383304D01*
X5443596Y1400859D01*
X5654891Y1612153D01*
X5799875D01*
X5808962Y1596414D01*
X5825514Y1579862D01*
X5845786Y1568158D01*
X5868396Y1562100D01*
X5891804D01*
X5914414Y1568158D01*
X5934686Y1579862D01*
X5951238Y1596414D01*
X5962942Y1616686D01*
X5969000Y1639296D01*
Y1662704D01*
X5962942Y1685314D01*
X5951238Y1705586D01*
X5934686Y1722138D01*
X5914414Y1733842D01*
X5891804Y1739900D01*
X5868396D01*
X5845786Y1733842D01*
X5825514Y1722138D01*
X5808962Y1705586D01*
X5799875Y1689847D01*
X5638800D01*
X5623934Y1686889D01*
X5611331Y1678469D01*
X5409980Y1477117D01*
X5398247Y1481977D01*
Y2578100D01*
X7023100D01*
Y63500D01*
D02*
G37*
G36*
X4940300Y795118D02*
X4933658Y783614D01*
X4927600Y761004D01*
Y737596D01*
X4933658Y714986D01*
X4940300Y703482D01*
Y50800D01*
X0D01*
Y1511300D01*
X4940300D01*
Y795118D01*
D02*
G37*
%LPC*%
G36*
X6096000Y5943333D02*
Y5867400D01*
X6171933D01*
X6166142Y5889014D01*
X6154438Y5909286D01*
X6137886Y5925838D01*
X6117614Y5937542D01*
X6096000Y5943333D01*
D02*
G37*
G36*
X6070600D02*
X6048986Y5937542D01*
X6028714Y5925838D01*
X6012162Y5909286D01*
X6000458Y5889014D01*
X5994667Y5867400D01*
X6070600D01*
Y5943333D01*
D02*
G37*
G36*
X6171933Y5842000D02*
X6096000D01*
Y5766067D01*
X6117614Y5771858D01*
X6137886Y5783562D01*
X6154438Y5800114D01*
X6166142Y5820386D01*
X6171933Y5842000D01*
D02*
G37*
G36*
X6070600D02*
X5994667D01*
X6000458Y5820386D01*
X6012162Y5800114D01*
X6028714Y5783562D01*
X6048986Y5771858D01*
X6070600Y5766067D01*
Y5842000D01*
D02*
G37*
G36*
X5702300Y5600433D02*
Y5524500D01*
X5778233D01*
X5772442Y5546114D01*
X5760738Y5566386D01*
X5744186Y5582938D01*
X5723914Y5594642D01*
X5702300Y5600433D01*
D02*
G37*
G36*
X5676900D02*
X5655286Y5594642D01*
X5635014Y5582938D01*
X5618462Y5566386D01*
X5606758Y5546114D01*
X5600967Y5524500D01*
X5676900D01*
Y5600433D01*
D02*
G37*
G36*
X5778233Y5499100D02*
X5702300D01*
Y5423167D01*
X5723914Y5428958D01*
X5744186Y5440662D01*
X5760738Y5457214D01*
X5772442Y5477486D01*
X5778233Y5499100D01*
D02*
G37*
G36*
X5676900D02*
X5600967D01*
X5606758Y5477486D01*
X5618462Y5457214D01*
X5635014Y5440662D01*
X5655286Y5428958D01*
X5676900Y5423167D01*
Y5499100D01*
D02*
G37*
G36*
X6435139Y5399900D02*
X6417261D01*
X6399992Y5395273D01*
X6384508Y5386334D01*
X6371866Y5373692D01*
X6362927Y5358208D01*
X6358300Y5340939D01*
Y5323061D01*
X6362927Y5305792D01*
X6371866Y5290308D01*
X6384508Y5277666D01*
X6387654Y5275850D01*
Y5263150D01*
X6384508Y5261334D01*
X6371866Y5248692D01*
X6362927Y5233208D01*
X6358300Y5215939D01*
Y5198061D01*
X6362927Y5180792D01*
X6371866Y5165308D01*
X6384508Y5152666D01*
X6387654Y5150850D01*
Y5138150D01*
X6384508Y5136334D01*
X6371866Y5123692D01*
X6362927Y5108208D01*
X6358300Y5090939D01*
Y5073061D01*
X6362927Y5055792D01*
X6371866Y5040308D01*
X6374575Y5037600D01*
X6369314Y5024900D01*
X6358300D01*
Y4889100D01*
X6494100D01*
Y5024900D01*
X6483086D01*
X6477825Y5037600D01*
X6480534Y5040308D01*
X6489473Y5055792D01*
X6494100Y5073061D01*
Y5090939D01*
X6489473Y5108208D01*
X6480534Y5123692D01*
X6467892Y5136334D01*
X6464746Y5138150D01*
Y5150850D01*
X6467892Y5152666D01*
X6480534Y5165308D01*
X6489473Y5180792D01*
X6494100Y5198061D01*
Y5215939D01*
X6489473Y5233208D01*
X6480534Y5248692D01*
X6467892Y5261334D01*
X6464746Y5263150D01*
Y5275850D01*
X6467892Y5277666D01*
X6480534Y5290308D01*
X6489473Y5305792D01*
X6494100Y5323061D01*
Y5340939D01*
X6489473Y5358208D01*
X6480534Y5373692D01*
X6467892Y5386334D01*
X6452408Y5395273D01*
X6435139Y5399900D01*
D02*
G37*
G36*
X5816600Y4698733D02*
Y4622800D01*
X5892533D01*
X5886742Y4644414D01*
X5875038Y4664686D01*
X5858486Y4681238D01*
X5838214Y4692942D01*
X5816600Y4698733D01*
D02*
G37*
G36*
X5791200D02*
X5769586Y4692942D01*
X5749314Y4681238D01*
X5732762Y4664686D01*
X5721058Y4644414D01*
X5715267Y4622800D01*
X5791200D01*
Y4698733D01*
D02*
G37*
G36*
X5892533Y4597400D02*
X5816600D01*
Y4521467D01*
X5838214Y4527258D01*
X5858486Y4538962D01*
X5875038Y4555514D01*
X5886742Y4575786D01*
X5892533Y4597400D01*
D02*
G37*
G36*
X5791200D02*
X5715267D01*
X5721058Y4575786D01*
X5732762Y4555514D01*
X5749314Y4538962D01*
X5769586Y4527258D01*
X5791200Y4521467D01*
Y4597400D01*
D02*
G37*
G36*
X6435139Y4430700D02*
X6417261D01*
X6399992Y4426073D01*
X6384508Y4417134D01*
X6371866Y4404492D01*
X6362927Y4389008D01*
X6358300Y4371739D01*
Y4353861D01*
X6362927Y4336592D01*
X6371866Y4321108D01*
X6384508Y4308466D01*
X6387654Y4306650D01*
Y4293950D01*
X6384508Y4292134D01*
X6371866Y4279492D01*
X6362927Y4264008D01*
X6358300Y4246739D01*
Y4228861D01*
X6362927Y4211592D01*
X6371866Y4196108D01*
X6384508Y4183466D01*
X6387654Y4181650D01*
Y4168950D01*
X6384508Y4167134D01*
X6371866Y4154492D01*
X6362927Y4139008D01*
X6358300Y4121739D01*
Y4103861D01*
X6362927Y4086592D01*
X6371866Y4071108D01*
X6374575Y4068400D01*
X6369314Y4055700D01*
X6358300D01*
Y3919900D01*
X6494100D01*
Y4055700D01*
X6483086D01*
X6477825Y4068400D01*
X6480534Y4071108D01*
X6489473Y4086592D01*
X6494100Y4103861D01*
Y4121739D01*
X6489473Y4139008D01*
X6480534Y4154492D01*
X6467892Y4167134D01*
X6464746Y4168950D01*
Y4181650D01*
X6467892Y4183466D01*
X6480534Y4196108D01*
X6489473Y4211592D01*
X6494100Y4228861D01*
Y4246739D01*
X6489473Y4264008D01*
X6480534Y4279492D01*
X6467892Y4292134D01*
X6464746Y4293950D01*
Y4306650D01*
X6467892Y4308466D01*
X6480534Y4321108D01*
X6489473Y4336592D01*
X6494100Y4353861D01*
Y4371739D01*
X6489473Y4389008D01*
X6480534Y4404492D01*
X6467892Y4417134D01*
X6452408Y4426073D01*
X6435139Y4430700D01*
D02*
G37*
G36*
Y3467500D02*
X6417261D01*
X6399992Y3462873D01*
X6384508Y3453934D01*
X6371866Y3441292D01*
X6362927Y3425808D01*
X6358300Y3408539D01*
Y3390661D01*
X6362927Y3373392D01*
X6371866Y3357908D01*
X6384508Y3345266D01*
X6387654Y3343450D01*
Y3330750D01*
X6384508Y3328934D01*
X6371866Y3316292D01*
X6362927Y3300808D01*
X6358300Y3283539D01*
Y3265661D01*
X6362927Y3248392D01*
X6371866Y3232908D01*
X6384508Y3220266D01*
X6387654Y3218450D01*
Y3205750D01*
X6384508Y3203934D01*
X6371866Y3191292D01*
X6362927Y3175808D01*
X6358300Y3158539D01*
Y3140661D01*
X6362927Y3123392D01*
X6371866Y3107908D01*
X6374575Y3105200D01*
X6369314Y3092500D01*
X6358300D01*
Y2956700D01*
X6494100D01*
Y3092500D01*
X6483086D01*
X6477825Y3105200D01*
X6480534Y3107908D01*
X6489473Y3123392D01*
X6494100Y3140661D01*
Y3158539D01*
X6489473Y3175808D01*
X6480534Y3191292D01*
X6467892Y3203934D01*
X6464746Y3205750D01*
Y3218450D01*
X6467892Y3220266D01*
X6480534Y3232908D01*
X6489473Y3248392D01*
X6494100Y3265661D01*
Y3283539D01*
X6489473Y3300808D01*
X6480534Y3316292D01*
X6467892Y3328934D01*
X6464746Y3330750D01*
Y3343450D01*
X6467892Y3345266D01*
X6480534Y3357908D01*
X6489473Y3373392D01*
X6494100Y3390661D01*
Y3408539D01*
X6489473Y3425808D01*
X6480534Y3441292D01*
X6467892Y3453934D01*
X6452408Y3462873D01*
X6435139Y3467500D01*
D02*
G37*
G36*
X2387600Y5841733D02*
Y5765800D01*
X2463533D01*
X2457742Y5787414D01*
X2446038Y5807686D01*
X2429486Y5824238D01*
X2409214Y5835942D01*
X2387600Y5841733D01*
D02*
G37*
G36*
X2362200D02*
X2340586Y5835942D01*
X2320314Y5824238D01*
X2303762Y5807686D01*
X2292058Y5787414D01*
X2286267Y5765800D01*
X2362200D01*
Y5841733D01*
D02*
G37*
G36*
X2463533Y5740400D02*
X2387600D01*
Y5664467D01*
X2409214Y5670258D01*
X2429486Y5681962D01*
X2446038Y5698514D01*
X2457742Y5718786D01*
X2463533Y5740400D01*
D02*
G37*
G36*
X2362200D02*
X2286267D01*
X2292058Y5718786D01*
X2303762Y5698514D01*
X2320314Y5681962D01*
X2340586Y5670258D01*
X2362200Y5664467D01*
Y5740400D01*
D02*
G37*
G36*
X4447456Y5598510D02*
Y5522577D01*
X4523389D01*
X4517598Y5544191D01*
X4505894Y5564463D01*
X4489342Y5581015D01*
X4469070Y5592719D01*
X4447456Y5598510D01*
D02*
G37*
G36*
X4422056D02*
X4400442Y5592719D01*
X4380170Y5581015D01*
X4363618Y5564463D01*
X4351915Y5544191D01*
X4346123Y5522577D01*
X4422056D01*
Y5598510D01*
D02*
G37*
G36*
X4715720Y5541541D02*
Y5465608D01*
X4791653D01*
X4785862Y5487222D01*
X4774158Y5507494D01*
X4757606Y5524046D01*
X4737334Y5535750D01*
X4715720Y5541541D01*
D02*
G37*
G36*
X4690320D02*
X4668706Y5535750D01*
X4648434Y5524046D01*
X4631883Y5507494D01*
X4620179Y5487222D01*
X4614387Y5465608D01*
X4690320D01*
Y5541541D01*
D02*
G37*
G36*
X4523389Y5497177D02*
X4447456D01*
Y5421244D01*
X4469070Y5427035D01*
X4489342Y5438739D01*
X4505894Y5455291D01*
X4517598Y5475563D01*
X4523389Y5497177D01*
D02*
G37*
G36*
X4422056D02*
X4346123D01*
X4351915Y5475563D01*
X4363618Y5455291D01*
X4380170Y5438739D01*
X4400442Y5427035D01*
X4422056Y5421244D01*
Y5497177D01*
D02*
G37*
G36*
X3657600Y5460733D02*
Y5384800D01*
X3733533D01*
X3727742Y5406414D01*
X3716038Y5426686D01*
X3699486Y5443238D01*
X3679214Y5454942D01*
X3657600Y5460733D01*
D02*
G37*
G36*
X3632200D02*
X3610586Y5454942D01*
X3590314Y5443238D01*
X3573762Y5426686D01*
X3562058Y5406414D01*
X3556267Y5384800D01*
X3632200D01*
Y5460733D01*
D02*
G37*
G36*
X4791653Y5440208D02*
X4715720D01*
Y5364275D01*
X4737334Y5370066D01*
X4757606Y5381770D01*
X4774158Y5398322D01*
X4785862Y5418594D01*
X4791653Y5440208D01*
D02*
G37*
G36*
X4690320D02*
X4614387D01*
X4620179Y5418594D01*
X4631883Y5398322D01*
X4648434Y5381770D01*
X4668706Y5370066D01*
X4690320Y5364275D01*
Y5440208D01*
D02*
G37*
G36*
X3733533Y5359400D02*
X3657600D01*
Y5283467D01*
X3679214Y5289258D01*
X3699486Y5300962D01*
X3716038Y5317514D01*
X3727742Y5337786D01*
X3733533Y5359400D01*
D02*
G37*
G36*
X3632200D02*
X3556267D01*
X3562058Y5337786D01*
X3573762Y5317514D01*
X3590314Y5300962D01*
X3610586Y5289258D01*
X3632200Y5283467D01*
Y5359400D01*
D02*
G37*
G36*
X639400Y5222100D02*
X584199D01*
Y5166901D01*
X639400D01*
Y5222100D01*
D02*
G37*
G36*
X558799D02*
X503600D01*
Y5166901D01*
X558799D01*
Y5222100D01*
D02*
G37*
G36*
X2692400Y5117833D02*
Y5041900D01*
X2768333D01*
X2762542Y5063514D01*
X2750838Y5083786D01*
X2734286Y5100338D01*
X2714014Y5112042D01*
X2692400Y5117833D01*
D02*
G37*
G36*
X2667000D02*
X2645386Y5112042D01*
X2625114Y5100338D01*
X2608562Y5083786D01*
X2596858Y5063514D01*
X2591067Y5041900D01*
X2667000D01*
Y5117833D01*
D02*
G37*
G36*
X3378200Y5105133D02*
Y5029200D01*
X3454133D01*
X3448342Y5050814D01*
X3436638Y5071086D01*
X3420086Y5087638D01*
X3399814Y5099342D01*
X3378200Y5105133D01*
D02*
G37*
G36*
X3352800D02*
X3331186Y5099342D01*
X3310914Y5087638D01*
X3294362Y5071086D01*
X3282658Y5050814D01*
X3276867Y5029200D01*
X3352800D01*
Y5105133D01*
D02*
G37*
G36*
X4419600Y5067033D02*
Y4991100D01*
X4495533D01*
X4489742Y5012714D01*
X4478038Y5032986D01*
X4461486Y5049538D01*
X4441214Y5061242D01*
X4419600Y5067033D01*
D02*
G37*
G36*
X4394200D02*
X4372586Y5061242D01*
X4352314Y5049538D01*
X4335762Y5032986D01*
X4324058Y5012714D01*
X4318267Y4991100D01*
X4394200D01*
Y5067033D01*
D02*
G37*
G36*
X2959100D02*
Y4991100D01*
X3035033D01*
X3029242Y5012714D01*
X3017538Y5032986D01*
X3000986Y5049538D01*
X2980714Y5061242D01*
X2959100Y5067033D01*
D02*
G37*
G36*
X2933700D02*
X2912086Y5061242D01*
X2891814Y5049538D01*
X2875262Y5032986D01*
X2863558Y5012714D01*
X2857767Y4991100D01*
X2933700D01*
Y5067033D01*
D02*
G37*
G36*
X2159000Y5028933D02*
Y4953000D01*
X2234933D01*
X2229142Y4974614D01*
X2217438Y4994886D01*
X2200886Y5011438D01*
X2180614Y5023142D01*
X2159000Y5028933D01*
D02*
G37*
G36*
X2133600D02*
X2111986Y5023142D01*
X2091714Y5011438D01*
X2075162Y4994886D01*
X2063458Y4974614D01*
X2057667Y4953000D01*
X2133600D01*
Y5028933D01*
D02*
G37*
G36*
X2768333Y5016500D02*
X2692400D01*
Y4940567D01*
X2714014Y4946358D01*
X2734286Y4958062D01*
X2750838Y4974614D01*
X2762542Y4994886D01*
X2768333Y5016500D01*
D02*
G37*
G36*
X2667000D02*
X2591067D01*
X2596858Y4994886D01*
X2608562Y4974614D01*
X2625114Y4958062D01*
X2645386Y4946358D01*
X2667000Y4940567D01*
Y5016500D01*
D02*
G37*
G36*
X3454133Y5003800D02*
X3378200D01*
Y4927867D01*
X3399814Y4933658D01*
X3420086Y4945362D01*
X3436638Y4961914D01*
X3448342Y4982186D01*
X3454133Y5003800D01*
D02*
G37*
G36*
X3352800D02*
X3276867D01*
X3282658Y4982186D01*
X3294362Y4961914D01*
X3310914Y4945362D01*
X3331186Y4933658D01*
X3352800Y4927867D01*
Y5003800D01*
D02*
G37*
G36*
X4495533Y4965700D02*
X4419600D01*
Y4889767D01*
X4441214Y4895558D01*
X4461486Y4907262D01*
X4478038Y4923814D01*
X4489742Y4944086D01*
X4495533Y4965700D01*
D02*
G37*
G36*
X4394200D02*
X4318267D01*
X4324058Y4944086D01*
X4335762Y4923814D01*
X4352314Y4907262D01*
X4372586Y4895558D01*
X4394200Y4889767D01*
Y4965700D01*
D02*
G37*
G36*
X3035033D02*
X2959100D01*
Y4889767D01*
X2980714Y4895558D01*
X3000986Y4907262D01*
X3017538Y4923814D01*
X3029242Y4944086D01*
X3035033Y4965700D01*
D02*
G37*
G36*
X2933700D02*
X2857767D01*
X2863558Y4944086D01*
X2875262Y4923814D01*
X2891814Y4907262D01*
X2912086Y4895558D01*
X2933700Y4889767D01*
Y4965700D01*
D02*
G37*
G36*
X2234933Y4927600D02*
X2159000D01*
Y4851667D01*
X2180614Y4857458D01*
X2200886Y4869162D01*
X2217438Y4885714D01*
X2229142Y4905986D01*
X2234933Y4927600D01*
D02*
G37*
G36*
X2005604Y5880100D02*
X1982196D01*
X1959586Y5874042D01*
X1939314Y5862338D01*
X1922762Y5845786D01*
X1911058Y5825514D01*
X1905000Y5802904D01*
Y5779496D01*
X1911058Y5756886D01*
X1922762Y5736614D01*
X1939314Y5720062D01*
X1955053Y5710975D01*
Y4918925D01*
X1939314Y4909838D01*
X1922762Y4893286D01*
X1911058Y4873014D01*
X1905000Y4850404D01*
Y4826996D01*
X1911058Y4804386D01*
X1922762Y4784114D01*
X1939314Y4767562D01*
X1959586Y4755858D01*
X1982196Y4749800D01*
X2005604D01*
X2028214Y4755858D01*
X2048486Y4767562D01*
X2065038Y4784114D01*
X2076742Y4804386D01*
X2082800Y4826996D01*
Y4850404D01*
X2079245Y4863670D01*
X2090632Y4870245D01*
X2091714Y4869162D01*
X2111986Y4857458D01*
X2133600Y4851667D01*
Y4927600D01*
X2057667D01*
X2060955Y4915330D01*
X2049568Y4908755D01*
X2048486Y4909838D01*
X2032747Y4918925D01*
Y5710975D01*
X2048486Y5720062D01*
X2065038Y5736614D01*
X2076742Y5756886D01*
X2082800Y5779496D01*
Y5802904D01*
X2076742Y5825514D01*
X2065038Y5845786D01*
X2048486Y5862338D01*
X2028214Y5874042D01*
X2005604Y5880100D01*
D02*
G37*
G36*
X639400Y5141501D02*
X571499D01*
X503600D01*
Y5086300D01*
X514614D01*
X519875Y5073600D01*
X517166Y5070892D01*
X508227Y5055408D01*
X503600Y5038139D01*
Y5020261D01*
X508227Y5002992D01*
X517166Y4987508D01*
X529808Y4974866D01*
X532954Y4973050D01*
Y4960350D01*
X529808Y4958534D01*
X517166Y4945892D01*
X508227Y4930408D01*
X503600Y4913139D01*
Y4895261D01*
X508227Y4877992D01*
X517166Y4862508D01*
X529808Y4849866D01*
X545292Y4840927D01*
X562561Y4836300D01*
X580439D01*
X597708Y4840927D01*
X613192Y4849866D01*
X625834Y4862508D01*
X634773Y4877992D01*
X639400Y4895261D01*
Y4913139D01*
X634773Y4930408D01*
X625834Y4945892D01*
X613192Y4958534D01*
X610046Y4960350D01*
Y4973050D01*
X613192Y4974866D01*
X625834Y4987508D01*
X634773Y5002992D01*
X639400Y5020261D01*
Y5038139D01*
X634773Y5055408D01*
X625834Y5070892D01*
X623125Y5073600D01*
X628386Y5086300D01*
X639400D01*
Y5141501D01*
D02*
G37*
G36*
X1370604Y5435600D02*
X1347196D01*
X1324586Y5429542D01*
X1304314Y5417838D01*
X1287762Y5401286D01*
X1276058Y5381014D01*
X1270000Y5358404D01*
Y5334996D01*
X1276058Y5312386D01*
X1287762Y5292114D01*
X1304314Y5275562D01*
X1320053Y5266475D01*
Y4969725D01*
X1304314Y4960638D01*
X1287762Y4944086D01*
X1276058Y4923814D01*
X1270000Y4901204D01*
Y4877796D01*
X1276058Y4855186D01*
X1287762Y4834914D01*
X1304314Y4818362D01*
X1324586Y4806658D01*
X1347196Y4800600D01*
X1370604D01*
X1393214Y4806658D01*
X1413486Y4818362D01*
X1430038Y4834914D01*
X1441742Y4855186D01*
X1447800Y4877796D01*
Y4901204D01*
X1441742Y4923814D01*
X1430038Y4944086D01*
X1413486Y4960638D01*
X1397747Y4969725D01*
Y5266475D01*
X1413486Y5275562D01*
X1430038Y5292114D01*
X1441742Y5312386D01*
X1447800Y5334996D01*
Y5358404D01*
X1441742Y5381014D01*
X1430038Y5401286D01*
X1413486Y5417838D01*
X1393214Y5429542D01*
X1370604Y5435600D01*
D02*
G37*
G36*
X1040404D02*
X1016996D01*
X994386Y5429542D01*
X974114Y5417838D01*
X957562Y5401286D01*
X945858Y5381014D01*
X939800Y5358404D01*
Y5334996D01*
X945858Y5312386D01*
X957562Y5292114D01*
X974114Y5275562D01*
X976905Y5273951D01*
Y4962249D01*
X974114Y4960638D01*
X957562Y4944086D01*
X945858Y4923814D01*
X939800Y4901204D01*
Y4877796D01*
X945858Y4855186D01*
X957562Y4834914D01*
X974114Y4818362D01*
X994386Y4806658D01*
X1016996Y4800600D01*
X1040404D01*
X1063014Y4806658D01*
X1083286Y4818362D01*
X1099838Y4834914D01*
X1111542Y4855186D01*
X1117600Y4877796D01*
Y4901204D01*
X1111542Y4923814D01*
X1099838Y4944086D01*
X1083286Y4960638D01*
X1080495Y4962249D01*
Y5273951D01*
X1083286Y5275562D01*
X1099838Y5292114D01*
X1111542Y5312386D01*
X1117600Y5334996D01*
Y5358404D01*
X1111542Y5381014D01*
X1099838Y5401286D01*
X1083286Y5417838D01*
X1063014Y5429542D01*
X1040404Y5435600D01*
D02*
G37*
G36*
X2387600Y4317733D02*
Y4241800D01*
X2463533D01*
X2457742Y4263414D01*
X2446038Y4283686D01*
X2429486Y4300238D01*
X2409214Y4311942D01*
X2387600Y4317733D01*
D02*
G37*
G36*
X2362200D02*
X2340586Y4311942D01*
X2320314Y4300238D01*
X2303762Y4283686D01*
X2292058Y4263414D01*
X2286267Y4241800D01*
X2362200D01*
Y4317733D01*
D02*
G37*
G36*
X2463533Y4216400D02*
X2387600D01*
Y4140467D01*
X2409214Y4146258D01*
X2429486Y4157962D01*
X2446038Y4174514D01*
X2457742Y4194786D01*
X2463533Y4216400D01*
D02*
G37*
G36*
X2362200D02*
X2286267D01*
X2292058Y4194786D01*
X2303762Y4174514D01*
X2320314Y4157962D01*
X2340586Y4146258D01*
X2362200Y4140467D01*
Y4216400D01*
D02*
G37*
G36*
X4447456Y4074510D02*
Y3998577D01*
X4523389D01*
X4517598Y4020191D01*
X4505894Y4040463D01*
X4489342Y4057015D01*
X4469070Y4068719D01*
X4447456Y4074510D01*
D02*
G37*
G36*
X4422056D02*
X4400442Y4068719D01*
X4380170Y4057015D01*
X4363618Y4040463D01*
X4351915Y4020191D01*
X4346123Y3998577D01*
X4422056D01*
Y4074510D01*
D02*
G37*
G36*
X639400Y4003409D02*
X584200D01*
Y3948209D01*
X639400D01*
Y4003409D01*
D02*
G37*
G36*
X558800D02*
X503600D01*
Y3948209D01*
X558800D01*
Y4003409D01*
D02*
G37*
G36*
X4714593Y4018173D02*
Y3942240D01*
X4790526D01*
X4784735Y3963854D01*
X4773031Y3984126D01*
X4756479Y4000678D01*
X4736207Y4012381D01*
X4714593Y4018173D01*
D02*
G37*
G36*
X4689193D02*
X4667579Y4012381D01*
X4647307Y4000678D01*
X4630756Y3984126D01*
X4619052Y3963854D01*
X4613260Y3942240D01*
X4689193D01*
Y4018173D01*
D02*
G37*
G36*
X4523389Y3973177D02*
X4447456D01*
Y3897244D01*
X4469070Y3903035D01*
X4489342Y3914739D01*
X4505894Y3931291D01*
X4517598Y3951563D01*
X4523389Y3973177D01*
D02*
G37*
G36*
X4422056D02*
X4346123D01*
X4351915Y3951563D01*
X4363618Y3931291D01*
X4380170Y3914739D01*
X4400442Y3903035D01*
X4422056Y3897244D01*
Y3973177D01*
D02*
G37*
G36*
X3657600Y3936733D02*
Y3860800D01*
X3733533D01*
X3727742Y3882414D01*
X3716038Y3902686D01*
X3699486Y3919238D01*
X3679214Y3930942D01*
X3657600Y3936733D01*
D02*
G37*
G36*
X3632200D02*
X3610586Y3930942D01*
X3590314Y3919238D01*
X3573762Y3902686D01*
X3562058Y3882414D01*
X3556267Y3860800D01*
X3632200D01*
Y3936733D01*
D02*
G37*
G36*
X4790526Y3916840D02*
X4714593D01*
Y3840907D01*
X4736207Y3846698D01*
X4756479Y3858402D01*
X4773031Y3874954D01*
X4784735Y3895226D01*
X4790526Y3916840D01*
D02*
G37*
G36*
X4689193D02*
X4613260D01*
X4619052Y3895226D01*
X4630756Y3874954D01*
X4647307Y3858402D01*
X4667579Y3846698D01*
X4689193Y3840907D01*
Y3916840D01*
D02*
G37*
G36*
X3733533Y3835400D02*
X3657600D01*
Y3759467D01*
X3679214Y3765258D01*
X3699486Y3776962D01*
X3716038Y3793514D01*
X3727742Y3813786D01*
X3733533Y3835400D01*
D02*
G37*
G36*
X3632200D02*
X3556267D01*
X3562058Y3813786D01*
X3573762Y3793514D01*
X3590314Y3776962D01*
X3610586Y3765258D01*
X3632200Y3759467D01*
Y3835400D01*
D02*
G37*
G36*
X639400Y3922809D02*
X571500D01*
X503600D01*
Y3867608D01*
X514614D01*
X519875Y3854908D01*
X517166Y3852200D01*
X508227Y3836717D01*
X503600Y3819448D01*
Y3801569D01*
X508227Y3784300D01*
X517166Y3768817D01*
X529808Y3756175D01*
X532954Y3754359D01*
Y3741659D01*
X529808Y3739842D01*
X517166Y3727200D01*
X508227Y3711717D01*
X503600Y3694448D01*
Y3676569D01*
X508227Y3659300D01*
X517166Y3643817D01*
X529808Y3631175D01*
X545292Y3622236D01*
X562561Y3617608D01*
X580439D01*
X597708Y3622236D01*
X613192Y3631175D01*
X625834Y3643817D01*
X634773Y3659300D01*
X639400Y3676569D01*
Y3694448D01*
X634773Y3711717D01*
X625834Y3727200D01*
X613192Y3739842D01*
X610046Y3741659D01*
Y3754359D01*
X613192Y3756175D01*
X625834Y3768817D01*
X634773Y3784300D01*
X639400Y3801569D01*
Y3819448D01*
X634773Y3836717D01*
X625834Y3852200D01*
X623125Y3854908D01*
X628386Y3867608D01*
X639400D01*
Y3922809D01*
D02*
G37*
G36*
X2692400Y3593833D02*
Y3517900D01*
X2768333D01*
X2762542Y3539514D01*
X2750838Y3559786D01*
X2734286Y3576338D01*
X2714014Y3588042D01*
X2692400Y3593833D01*
D02*
G37*
G36*
X2667000D02*
X2645386Y3588042D01*
X2625114Y3576338D01*
X2608562Y3559786D01*
X2596858Y3539514D01*
X2591067Y3517900D01*
X2667000D01*
Y3593833D01*
D02*
G37*
G36*
X3378200Y3581133D02*
Y3505200D01*
X3454133D01*
X3448342Y3526814D01*
X3436638Y3547086D01*
X3420086Y3563638D01*
X3399814Y3575342D01*
X3378200Y3581133D01*
D02*
G37*
G36*
X3352800D02*
X3331186Y3575342D01*
X3310914Y3563638D01*
X3294362Y3547086D01*
X3282658Y3526814D01*
X3276867Y3505200D01*
X3352800D01*
Y3581133D01*
D02*
G37*
G36*
X4419600Y3543033D02*
Y3467100D01*
X4495533D01*
X4489742Y3488714D01*
X4478038Y3508986D01*
X4461486Y3525538D01*
X4441214Y3537242D01*
X4419600Y3543033D01*
D02*
G37*
G36*
X4394200D02*
X4372586Y3537242D01*
X4352314Y3525538D01*
X4335762Y3508986D01*
X4324058Y3488714D01*
X4318267Y3467100D01*
X4394200D01*
Y3543033D01*
D02*
G37*
G36*
X2959100D02*
Y3467100D01*
X3035033D01*
X3029242Y3488714D01*
X3017538Y3508986D01*
X3000986Y3525538D01*
X2980714Y3537242D01*
X2959100Y3543033D01*
D02*
G37*
G36*
X2933700D02*
X2912086Y3537242D01*
X2891814Y3525538D01*
X2875262Y3508986D01*
X2863558Y3488714D01*
X2857767Y3467100D01*
X2933700D01*
Y3543033D01*
D02*
G37*
G36*
X2159000Y3504933D02*
Y3429000D01*
X2234933D01*
X2229142Y3450614D01*
X2217438Y3470886D01*
X2200886Y3487438D01*
X2180614Y3499142D01*
X2159000Y3504933D01*
D02*
G37*
G36*
X2133600D02*
X2111986Y3499142D01*
X2091714Y3487438D01*
X2075162Y3470886D01*
X2063458Y3450614D01*
X2057667Y3429000D01*
X2133600D01*
Y3504933D01*
D02*
G37*
G36*
X2768333Y3492500D02*
X2692400D01*
Y3416567D01*
X2714014Y3422358D01*
X2734286Y3434062D01*
X2750838Y3450614D01*
X2762542Y3470886D01*
X2768333Y3492500D01*
D02*
G37*
G36*
X2667000D02*
X2591067D01*
X2596858Y3470886D01*
X2608562Y3450614D01*
X2625114Y3434062D01*
X2645386Y3422358D01*
X2667000Y3416567D01*
Y3492500D01*
D02*
G37*
G36*
X3454133Y3479800D02*
X3378200D01*
Y3403867D01*
X3399814Y3409658D01*
X3420086Y3421362D01*
X3436638Y3437914D01*
X3448342Y3458186D01*
X3454133Y3479800D01*
D02*
G37*
G36*
X3352800D02*
X3276867D01*
X3282658Y3458186D01*
X3294362Y3437914D01*
X3310914Y3421362D01*
X3331186Y3409658D01*
X3352800Y3403867D01*
Y3479800D01*
D02*
G37*
G36*
X4495533Y3441700D02*
X4419600D01*
Y3365767D01*
X4441214Y3371558D01*
X4461486Y3383262D01*
X4478038Y3399814D01*
X4489742Y3420086D01*
X4495533Y3441700D01*
D02*
G37*
G36*
X4394200D02*
X4318267D01*
X4324058Y3420086D01*
X4335762Y3399814D01*
X4352314Y3383262D01*
X4372586Y3371558D01*
X4394200Y3365767D01*
Y3441700D01*
D02*
G37*
G36*
X3035033D02*
X2959100D01*
Y3365767D01*
X2980714Y3371558D01*
X3000986Y3383262D01*
X3017538Y3399814D01*
X3029242Y3420086D01*
X3035033Y3441700D01*
D02*
G37*
G36*
X2933700D02*
X2857767D01*
X2863558Y3420086D01*
X2875262Y3399814D01*
X2891814Y3383262D01*
X2912086Y3371558D01*
X2933700Y3365767D01*
Y3441700D01*
D02*
G37*
G36*
X2234933Y3403600D02*
X2159000D01*
Y3327667D01*
X2180614Y3333458D01*
X2200886Y3345162D01*
X2217438Y3361714D01*
X2229142Y3381986D01*
X2234933Y3403600D01*
D02*
G37*
G36*
X2005604Y4356100D02*
X1982196D01*
X1959586Y4350042D01*
X1939314Y4338338D01*
X1922762Y4321786D01*
X1911058Y4301514D01*
X1905000Y4278904D01*
Y4255496D01*
X1911058Y4232886D01*
X1922762Y4212614D01*
X1939314Y4196062D01*
X1955053Y4186975D01*
Y3394925D01*
X1939314Y3385838D01*
X1922762Y3369286D01*
X1911058Y3349014D01*
X1905000Y3326404D01*
Y3302996D01*
X1911058Y3280386D01*
X1922762Y3260114D01*
X1939314Y3243562D01*
X1959586Y3231858D01*
X1982196Y3225800D01*
X2005604D01*
X2028214Y3231858D01*
X2048486Y3243562D01*
X2065038Y3260114D01*
X2076742Y3280386D01*
X2082800Y3302996D01*
Y3326404D01*
X2079245Y3339670D01*
X2090632Y3346245D01*
X2091714Y3345162D01*
X2111986Y3333458D01*
X2133600Y3327667D01*
Y3403600D01*
X2057667D01*
X2060955Y3391330D01*
X2049568Y3384755D01*
X2048486Y3385838D01*
X2032747Y3394925D01*
Y4186975D01*
X2048486Y4196062D01*
X2065038Y4212614D01*
X2076742Y4232886D01*
X2082800Y4255496D01*
Y4278904D01*
X2076742Y4301514D01*
X2065038Y4321786D01*
X2048486Y4338338D01*
X2028214Y4350042D01*
X2005604Y4356100D01*
D02*
G37*
G36*
X1370604Y4394200D02*
X1347196D01*
X1324586Y4388142D01*
X1304314Y4376438D01*
X1287762Y4359886D01*
X1276058Y4339614D01*
X1270000Y4317004D01*
Y4293596D01*
X1276058Y4270986D01*
X1287762Y4250714D01*
X1304314Y4234162D01*
X1320053Y4225075D01*
Y3902925D01*
X1304314Y3893838D01*
X1287762Y3877286D01*
X1276058Y3857014D01*
X1270000Y3834404D01*
Y3810996D01*
X1276058Y3788386D01*
X1287762Y3768114D01*
X1304314Y3751562D01*
X1320053Y3742475D01*
Y3445725D01*
X1304314Y3436638D01*
X1287762Y3420086D01*
X1276058Y3399814D01*
X1270000Y3377204D01*
Y3353796D01*
X1276058Y3331186D01*
X1287762Y3310914D01*
X1304314Y3294362D01*
X1324586Y3282658D01*
X1347196Y3276600D01*
X1370604D01*
X1393214Y3282658D01*
X1413486Y3294362D01*
X1430038Y3310914D01*
X1441742Y3331186D01*
X1447800Y3353796D01*
Y3377204D01*
X1441742Y3399814D01*
X1430038Y3420086D01*
X1413486Y3436638D01*
X1397747Y3445725D01*
Y3742475D01*
X1413486Y3751562D01*
X1430038Y3768114D01*
X1441742Y3788386D01*
X1447800Y3810996D01*
Y3834404D01*
X1441742Y3857014D01*
X1430038Y3877286D01*
X1413486Y3893838D01*
X1397747Y3902925D01*
Y4225075D01*
X1413486Y4234162D01*
X1430038Y4250714D01*
X1441742Y4270986D01*
X1447800Y4293596D01*
Y4317004D01*
X1441742Y4339614D01*
X1430038Y4359886D01*
X1413486Y4376438D01*
X1393214Y4388142D01*
X1370604Y4394200D01*
D02*
G37*
G36*
X1040404D02*
X1016996D01*
X994386Y4388142D01*
X974114Y4376438D01*
X957562Y4359886D01*
X945858Y4339614D01*
X939800Y4317004D01*
Y4293596D01*
X945858Y4270986D01*
X957562Y4250714D01*
X974114Y4234162D01*
X976905Y4232551D01*
Y3895449D01*
X974114Y3893838D01*
X957562Y3877286D01*
X945858Y3857014D01*
X939800Y3834404D01*
Y3810996D01*
X945858Y3788386D01*
X957562Y3768114D01*
X974114Y3751562D01*
X976905Y3749951D01*
Y3438249D01*
X974114Y3436638D01*
X957562Y3420086D01*
X945858Y3399814D01*
X939800Y3377204D01*
Y3353796D01*
X945858Y3331186D01*
X957562Y3310914D01*
X974114Y3294362D01*
X994386Y3282658D01*
X1016996Y3276600D01*
X1040404D01*
X1063014Y3282658D01*
X1083286Y3294362D01*
X1099838Y3310914D01*
X1111542Y3331186D01*
X1117600Y3353796D01*
Y3377204D01*
X1111542Y3399814D01*
X1099838Y3420086D01*
X1083286Y3436638D01*
X1080495Y3438249D01*
Y3749951D01*
X1083286Y3751562D01*
X1099838Y3768114D01*
X1111542Y3788386D01*
X1117600Y3810996D01*
Y3834404D01*
X1111542Y3857014D01*
X1099838Y3877286D01*
X1083286Y3893838D01*
X1080495Y3895449D01*
Y4232551D01*
X1083286Y4234162D01*
X1099838Y4250714D01*
X1111542Y4270986D01*
X1117600Y4293596D01*
Y4317004D01*
X1111542Y4339614D01*
X1099838Y4359886D01*
X1083286Y4376438D01*
X1063014Y4388142D01*
X1040404Y4394200D01*
D02*
G37*
G36*
X2387600Y2793733D02*
Y2717800D01*
X2463533D01*
X2457742Y2739414D01*
X2446038Y2759686D01*
X2429486Y2776238D01*
X2409214Y2787942D01*
X2387600Y2793733D01*
D02*
G37*
G36*
X2362200D02*
X2340586Y2787942D01*
X2320314Y2776238D01*
X2303762Y2759686D01*
X2292058Y2739414D01*
X2286267Y2717800D01*
X2362200D01*
Y2793733D01*
D02*
G37*
G36*
X2463533Y2692400D02*
X2387600D01*
Y2616467D01*
X2409214Y2622258D01*
X2429486Y2633962D01*
X2446038Y2650514D01*
X2457742Y2670786D01*
X2463533Y2692400D01*
D02*
G37*
G36*
X2362200D02*
X2286267D01*
X2292058Y2670786D01*
X2303762Y2650514D01*
X2320314Y2633962D01*
X2340586Y2622258D01*
X2362200Y2616467D01*
Y2692400D01*
D02*
G37*
G36*
X4447456Y2550510D02*
Y2474577D01*
X4523389D01*
X4517598Y2496191D01*
X4505894Y2516463D01*
X4489342Y2533015D01*
X4469070Y2544719D01*
X4447456Y2550510D01*
D02*
G37*
G36*
X4422056D02*
X4400442Y2544719D01*
X4380170Y2533015D01*
X4363618Y2516463D01*
X4351915Y2496191D01*
X4346123Y2474577D01*
X4422056D01*
Y2550510D01*
D02*
G37*
G36*
X639400Y2479409D02*
X584200D01*
Y2424209D01*
X639400D01*
Y2479409D01*
D02*
G37*
G36*
X558800D02*
X503600D01*
Y2424209D01*
X558800D01*
Y2479409D01*
D02*
G37*
G36*
X4719364Y2497655D02*
Y2421722D01*
X4795297D01*
X4789505Y2443336D01*
X4777801Y2463607D01*
X4761250Y2480159D01*
X4740978Y2491863D01*
X4719364Y2497655D01*
D02*
G37*
G36*
X4693964D02*
X4672350Y2491863D01*
X4652078Y2480159D01*
X4635526Y2463607D01*
X4623822Y2443336D01*
X4618031Y2421722D01*
X4693964D01*
Y2497655D01*
D02*
G37*
G36*
X4523389Y2449177D02*
X4447456D01*
Y2373244D01*
X4469070Y2379035D01*
X4489342Y2390739D01*
X4505894Y2407291D01*
X4517598Y2427563D01*
X4523389Y2449177D01*
D02*
G37*
G36*
X4422056D02*
X4346123D01*
X4351915Y2427563D01*
X4363618Y2407291D01*
X4380170Y2390739D01*
X4400442Y2379035D01*
X4422056Y2373244D01*
Y2449177D01*
D02*
G37*
G36*
X3657600Y2412733D02*
Y2336800D01*
X3733533D01*
X3727742Y2358414D01*
X3716038Y2378686D01*
X3699486Y2395238D01*
X3679214Y2406942D01*
X3657600Y2412733D01*
D02*
G37*
G36*
X3632200D02*
X3610586Y2406942D01*
X3590314Y2395238D01*
X3573762Y2378686D01*
X3562058Y2358414D01*
X3556267Y2336800D01*
X3632200D01*
Y2412733D01*
D02*
G37*
G36*
X4795297Y2396322D02*
X4719364D01*
Y2320389D01*
X4740978Y2326180D01*
X4761250Y2337884D01*
X4777801Y2354436D01*
X4789505Y2374707D01*
X4795297Y2396322D01*
D02*
G37*
G36*
X4693964D02*
X4618031D01*
X4623822Y2374707D01*
X4635526Y2354436D01*
X4652078Y2337884D01*
X4672350Y2326180D01*
X4693964Y2320389D01*
Y2396322D01*
D02*
G37*
G36*
X3733533Y2311400D02*
X3657600D01*
Y2235467D01*
X3679214Y2241258D01*
X3699486Y2252962D01*
X3716038Y2269514D01*
X3727742Y2289786D01*
X3733533Y2311400D01*
D02*
G37*
G36*
X3632200D02*
X3556267D01*
X3562058Y2289786D01*
X3573762Y2269514D01*
X3590314Y2252962D01*
X3610586Y2241258D01*
X3632200Y2235467D01*
Y2311400D01*
D02*
G37*
G36*
X639400Y2398809D02*
X571500D01*
X503600D01*
Y2343608D01*
X514614D01*
X519875Y2330908D01*
X517166Y2328200D01*
X508227Y2312717D01*
X503600Y2295448D01*
Y2277569D01*
X508227Y2260300D01*
X517166Y2244817D01*
X529808Y2232175D01*
X532954Y2230359D01*
Y2217659D01*
X529808Y2215842D01*
X517166Y2203200D01*
X508227Y2187717D01*
X503600Y2170448D01*
Y2152569D01*
X508227Y2135300D01*
X517166Y2119817D01*
X529808Y2107175D01*
X545292Y2098236D01*
X562561Y2093608D01*
X580439D01*
X597708Y2098236D01*
X613192Y2107175D01*
X625834Y2119817D01*
X634773Y2135300D01*
X639400Y2152569D01*
Y2170448D01*
X634773Y2187717D01*
X625834Y2203200D01*
X613192Y2215842D01*
X610046Y2217659D01*
Y2230359D01*
X613192Y2232175D01*
X625834Y2244817D01*
X634773Y2260300D01*
X639400Y2277569D01*
Y2295448D01*
X634773Y2312717D01*
X625834Y2328200D01*
X623125Y2330908D01*
X628386Y2343608D01*
X639400D01*
Y2398809D01*
D02*
G37*
G36*
X2692400Y2069833D02*
Y1993900D01*
X2768333D01*
X2762542Y2015514D01*
X2750838Y2035786D01*
X2734286Y2052338D01*
X2714014Y2064042D01*
X2692400Y2069833D01*
D02*
G37*
G36*
X2667000D02*
X2645386Y2064042D01*
X2625114Y2052338D01*
X2608562Y2035786D01*
X2596858Y2015514D01*
X2591067Y1993900D01*
X2667000D01*
Y2069833D01*
D02*
G37*
G36*
X3378200Y2057133D02*
Y1981200D01*
X3454133D01*
X3448342Y2002814D01*
X3436638Y2023086D01*
X3420086Y2039638D01*
X3399814Y2051342D01*
X3378200Y2057133D01*
D02*
G37*
G36*
X3352800D02*
X3331186Y2051342D01*
X3310914Y2039638D01*
X3294362Y2023086D01*
X3282658Y2002814D01*
X3276867Y1981200D01*
X3352800D01*
Y2057133D01*
D02*
G37*
G36*
X4419600Y2019033D02*
Y1943100D01*
X4495533D01*
X4489742Y1964714D01*
X4478038Y1984986D01*
X4461486Y2001538D01*
X4441214Y2013242D01*
X4419600Y2019033D01*
D02*
G37*
G36*
X4394200D02*
X4372586Y2013242D01*
X4352314Y2001538D01*
X4335762Y1984986D01*
X4324058Y1964714D01*
X4318267Y1943100D01*
X4394200D01*
Y2019033D01*
D02*
G37*
G36*
X2959100D02*
Y1943100D01*
X3035033D01*
X3029242Y1964714D01*
X3017538Y1984986D01*
X3000986Y2001538D01*
X2980714Y2013242D01*
X2959100Y2019033D01*
D02*
G37*
G36*
X2933700D02*
X2912086Y2013242D01*
X2891814Y2001538D01*
X2875262Y1984986D01*
X2863558Y1964714D01*
X2857767Y1943100D01*
X2933700D01*
Y2019033D01*
D02*
G37*
G36*
X2159000Y1980933D02*
Y1905000D01*
X2234933D01*
X2229142Y1926614D01*
X2217438Y1946886D01*
X2200886Y1963438D01*
X2180614Y1975142D01*
X2159000Y1980933D01*
D02*
G37*
G36*
X2133600D02*
X2111986Y1975142D01*
X2091714Y1963438D01*
X2075162Y1946886D01*
X2063458Y1926614D01*
X2057667Y1905000D01*
X2133600D01*
Y1980933D01*
D02*
G37*
G36*
X2768333Y1968500D02*
X2692400D01*
Y1892567D01*
X2714014Y1898358D01*
X2734286Y1910062D01*
X2750838Y1926614D01*
X2762542Y1946886D01*
X2768333Y1968500D01*
D02*
G37*
G36*
X2667000D02*
X2591067D01*
X2596858Y1946886D01*
X2608562Y1926614D01*
X2625114Y1910062D01*
X2645386Y1898358D01*
X2667000Y1892567D01*
Y1968500D01*
D02*
G37*
G36*
X3454133Y1955800D02*
X3378200D01*
Y1879867D01*
X3399814Y1885658D01*
X3420086Y1897362D01*
X3436638Y1913914D01*
X3448342Y1934186D01*
X3454133Y1955800D01*
D02*
G37*
G36*
X3352800D02*
X3276867D01*
X3282658Y1934186D01*
X3294362Y1913914D01*
X3310914Y1897362D01*
X3331186Y1885658D01*
X3352800Y1879867D01*
Y1955800D01*
D02*
G37*
G36*
X4495533Y1917700D02*
X4419600D01*
Y1841767D01*
X4441214Y1847558D01*
X4461486Y1859262D01*
X4478038Y1875814D01*
X4489742Y1896086D01*
X4495533Y1917700D01*
D02*
G37*
G36*
X4394200D02*
X4318267D01*
X4324058Y1896086D01*
X4335762Y1875814D01*
X4352314Y1859262D01*
X4372586Y1847558D01*
X4394200Y1841767D01*
Y1917700D01*
D02*
G37*
G36*
X3035033D02*
X2959100D01*
Y1841767D01*
X2980714Y1847558D01*
X3000986Y1859262D01*
X3017538Y1875814D01*
X3029242Y1896086D01*
X3035033Y1917700D01*
D02*
G37*
G36*
X2933700D02*
X2857767D01*
X2863558Y1896086D01*
X2875262Y1875814D01*
X2891814Y1859262D01*
X2912086Y1847558D01*
X2933700Y1841767D01*
Y1917700D01*
D02*
G37*
G36*
X2234933Y1879600D02*
X2159000D01*
Y1803667D01*
X2180614Y1809458D01*
X2200886Y1821162D01*
X2217438Y1837714D01*
X2229142Y1857986D01*
X2234933Y1879600D01*
D02*
G37*
G36*
X2005604Y2832100D02*
X1982196D01*
X1959586Y2826042D01*
X1939314Y2814338D01*
X1922762Y2797786D01*
X1911058Y2777514D01*
X1905000Y2754904D01*
Y2731496D01*
X1911058Y2708886D01*
X1922762Y2688614D01*
X1939314Y2672062D01*
X1955053Y2662975D01*
Y1870925D01*
X1939314Y1861838D01*
X1922762Y1845286D01*
X1911058Y1825014D01*
X1905000Y1802404D01*
Y1778996D01*
X1911058Y1756386D01*
X1922762Y1736114D01*
X1939314Y1719562D01*
X1959586Y1707858D01*
X1982196Y1701800D01*
X2005604D01*
X2028214Y1707858D01*
X2048486Y1719562D01*
X2065038Y1736114D01*
X2076742Y1756386D01*
X2082800Y1778996D01*
Y1802404D01*
X2079245Y1815670D01*
X2090632Y1822245D01*
X2091714Y1821162D01*
X2111986Y1809458D01*
X2133600Y1803667D01*
Y1879600D01*
X2057667D01*
X2060955Y1867330D01*
X2049568Y1860755D01*
X2048486Y1861838D01*
X2032747Y1870925D01*
Y2662975D01*
X2048486Y2672062D01*
X2065038Y2688614D01*
X2076742Y2708886D01*
X2082800Y2731496D01*
Y2754904D01*
X2076742Y2777514D01*
X2065038Y2797786D01*
X2048486Y2814338D01*
X2028214Y2826042D01*
X2005604Y2832100D01*
D02*
G37*
G36*
X1370604Y2857500D02*
X1347196D01*
X1324586Y2851442D01*
X1304314Y2839738D01*
X1287762Y2823186D01*
X1276058Y2802914D01*
X1270000Y2780304D01*
Y2756896D01*
X1276058Y2734286D01*
X1287762Y2714014D01*
X1304314Y2697462D01*
X1320053Y2688375D01*
Y2378925D01*
X1304314Y2369838D01*
X1287762Y2353286D01*
X1276058Y2333014D01*
X1270000Y2310404D01*
Y2286996D01*
X1276058Y2264386D01*
X1287762Y2244114D01*
X1304314Y2227562D01*
X1320053Y2218475D01*
Y1921725D01*
X1304314Y1912638D01*
X1287762Y1896086D01*
X1276058Y1875814D01*
X1270000Y1853204D01*
Y1829796D01*
X1276058Y1807186D01*
X1287762Y1786914D01*
X1304314Y1770362D01*
X1324586Y1758658D01*
X1347196Y1752600D01*
X1370604D01*
X1393214Y1758658D01*
X1413486Y1770362D01*
X1430038Y1786914D01*
X1441742Y1807186D01*
X1447800Y1829796D01*
Y1853204D01*
X1441742Y1875814D01*
X1430038Y1896086D01*
X1413486Y1912638D01*
X1397747Y1921725D01*
Y2218475D01*
X1413486Y2227562D01*
X1430038Y2244114D01*
X1441742Y2264386D01*
X1447800Y2286996D01*
Y2310404D01*
X1441742Y2333014D01*
X1430038Y2353286D01*
X1413486Y2369838D01*
X1397747Y2378925D01*
Y2688375D01*
X1413486Y2697462D01*
X1430038Y2714014D01*
X1441742Y2734286D01*
X1447800Y2756896D01*
Y2780304D01*
X1441742Y2802914D01*
X1430038Y2823186D01*
X1413486Y2839738D01*
X1393214Y2851442D01*
X1370604Y2857500D01*
D02*
G37*
G36*
X1040404D02*
X1016996D01*
X994386Y2851442D01*
X974114Y2839738D01*
X957562Y2823186D01*
X945858Y2802914D01*
X939800Y2780304D01*
Y2756896D01*
X945858Y2734286D01*
X957562Y2714014D01*
X974114Y2697462D01*
X976905Y2695851D01*
Y2384149D01*
X974114Y2382538D01*
X957562Y2365986D01*
X945858Y2345714D01*
X939800Y2323104D01*
Y2299696D01*
X945858Y2277086D01*
X957562Y2256814D01*
X974114Y2240262D01*
X976905Y2238651D01*
Y1901549D01*
X974114Y1899938D01*
X957562Y1883386D01*
X945858Y1863114D01*
X939800Y1840504D01*
Y1817096D01*
X945858Y1794486D01*
X957562Y1774214D01*
X974114Y1757662D01*
X994386Y1745958D01*
X1016996Y1739900D01*
X1040404D01*
X1063014Y1745958D01*
X1083286Y1757662D01*
X1099838Y1774214D01*
X1111542Y1794486D01*
X1117600Y1817096D01*
Y1840504D01*
X1111542Y1863114D01*
X1099838Y1883386D01*
X1083286Y1899938D01*
X1080495Y1901549D01*
Y2238651D01*
X1083286Y2240262D01*
X1099838Y2256814D01*
X1111542Y2277086D01*
X1117600Y2299696D01*
Y2323104D01*
X1111542Y2345714D01*
X1099838Y2365986D01*
X1083286Y2382538D01*
X1080495Y2384149D01*
Y2695851D01*
X1083286Y2697462D01*
X1099838Y2714014D01*
X1111542Y2734286D01*
X1117600Y2756896D01*
Y2780304D01*
X1111542Y2802914D01*
X1099838Y2823186D01*
X1083286Y2839738D01*
X1063014Y2851442D01*
X1040404Y2857500D01*
D02*
G37*
G36*
X6337300Y2552433D02*
Y2476500D01*
X6413233D01*
X6407442Y2498114D01*
X6395738Y2518386D01*
X6379186Y2534938D01*
X6358914Y2546642D01*
X6337300Y2552433D01*
D02*
G37*
G36*
X6311900D02*
X6290286Y2546642D01*
X6270014Y2534938D01*
X6253462Y2518386D01*
X6241758Y2498114D01*
X6235967Y2476500D01*
X6311900D01*
Y2552433D01*
D02*
G37*
G36*
X6413233Y2451100D02*
X6337300D01*
Y2375167D01*
X6358914Y2380958D01*
X6379186Y2392662D01*
X6395738Y2409214D01*
X6407442Y2429486D01*
X6413233Y2451100D01*
D02*
G37*
G36*
X6311900D02*
X6235967D01*
X6241758Y2429486D01*
X6253462Y2409214D01*
X6270014Y2392662D01*
X6290286Y2380958D01*
X6311900Y2375167D01*
Y2451100D01*
D02*
G37*
G36*
X6055785Y2221381D02*
X6032378D01*
X6009767Y2215323D01*
X5989496Y2203619D01*
X5972944Y2187067D01*
X5961240Y2166796D01*
X5955181Y2144185D01*
Y2120778D01*
X5959885Y2103223D01*
X5698909Y1842247D01*
X5617425D01*
X5608338Y1857986D01*
X5591786Y1874538D01*
X5571514Y1886242D01*
X5548904Y1892300D01*
X5525496D01*
X5502886Y1886242D01*
X5482614Y1874538D01*
X5466062Y1857986D01*
X5454358Y1837714D01*
X5448300Y1815104D01*
Y1791696D01*
X5454358Y1769086D01*
X5466062Y1748814D01*
X5482614Y1732262D01*
X5502886Y1720558D01*
X5525496Y1714500D01*
X5548904D01*
X5571514Y1720558D01*
X5591786Y1732262D01*
X5608338Y1748814D01*
X5617425Y1764553D01*
X5715000D01*
X5729866Y1767511D01*
X5742469Y1775931D01*
X6014823Y2048285D01*
X6032378Y2043581D01*
X6055785D01*
X6078396Y2049640D01*
X6098667Y2061344D01*
X6115219Y2077896D01*
X6126923Y2098167D01*
X6132981Y2120778D01*
Y2144185D01*
X6126923Y2166796D01*
X6115219Y2187067D01*
X6098667Y2203619D01*
X6078396Y2215323D01*
X6055785Y2221381D01*
D02*
G37*
G36*
X6451600Y2006333D02*
Y1930400D01*
X6527533D01*
X6521742Y1952014D01*
X6510038Y1972286D01*
X6493486Y1988838D01*
X6473214Y2000542D01*
X6451600Y2006333D01*
D02*
G37*
G36*
X6426200D02*
X6404586Y2000542D01*
X6384314Y1988838D01*
X6367762Y1972286D01*
X6356058Y1952014D01*
X6350267Y1930400D01*
X6426200D01*
Y2006333D01*
D02*
G37*
G36*
X6527533Y1905000D02*
X6451600D01*
Y1829067D01*
X6473214Y1834858D01*
X6493486Y1846562D01*
X6510038Y1863114D01*
X6521742Y1883386D01*
X6527533Y1905000D01*
D02*
G37*
G36*
X6426200D02*
X6350267D01*
X6356058Y1883386D01*
X6367762Y1863114D01*
X6384314Y1846562D01*
X6404586Y1834858D01*
X6426200Y1829067D01*
Y1905000D01*
D02*
G37*
G36*
X6413500Y1625333D02*
Y1549400D01*
X6489433D01*
X6483642Y1571014D01*
X6471938Y1591286D01*
X6455386Y1607838D01*
X6435114Y1619542D01*
X6413500Y1625333D01*
D02*
G37*
G36*
X6388100D02*
X6366486Y1619542D01*
X6346214Y1607838D01*
X6329662Y1591286D01*
X6317958Y1571014D01*
X6312167Y1549400D01*
X6388100D01*
Y1625333D01*
D02*
G37*
G36*
X6489433Y1524000D02*
X6413500D01*
Y1448067D01*
X6435114Y1453858D01*
X6455386Y1465562D01*
X6471938Y1482114D01*
X6483642Y1502386D01*
X6489433Y1524000D01*
D02*
G37*
G36*
X6388100D02*
X6312167D01*
X6317958Y1502386D01*
X6329662Y1482114D01*
X6346214Y1465562D01*
X6366486Y1453858D01*
X6388100Y1448067D01*
Y1524000D01*
D02*
G37*
G36*
X5602700Y1126400D02*
X5505000D01*
Y1028700D01*
X5602700D01*
Y1126400D01*
D02*
G37*
G36*
X5479600D02*
X5381900D01*
Y1028700D01*
X5479600D01*
Y1126400D01*
D02*
G37*
G36*
X6224176Y1121400D02*
X6196424D01*
X6169617Y1114217D01*
X6145583Y1100341D01*
X6125959Y1080717D01*
X6112083Y1056683D01*
X6104900Y1029876D01*
Y1002124D01*
X6112083Y975317D01*
X6125959Y951283D01*
X6145583Y931659D01*
X6169617Y917783D01*
X6196424Y910600D01*
X6224176D01*
X6250983Y917783D01*
X6275017Y931659D01*
X6294641Y951283D01*
X6308517Y975317D01*
X6315700Y1002124D01*
Y1029876D01*
X6308517Y1056683D01*
X6294641Y1080717D01*
X6275017Y1100341D01*
X6250983Y1114217D01*
X6224176Y1121400D01*
D02*
G37*
G36*
X5602700Y1003300D02*
X5505000D01*
Y905600D01*
X5602700D01*
Y1003300D01*
D02*
G37*
G36*
X5479600D02*
X5381900D01*
Y905600D01*
X5479600D01*
Y1003300D01*
D02*
G37*
G36*
X5506834Y876400D02*
X5477766D01*
X5449687Y868876D01*
X5424513Y854342D01*
X5403958Y833787D01*
X5389424Y808613D01*
X5381900Y780534D01*
Y751466D01*
X5389424Y723387D01*
X5403958Y698213D01*
X5424513Y677658D01*
X5449687Y663124D01*
X5477766Y655600D01*
X5506834D01*
X5534913Y663124D01*
X5560087Y677658D01*
X5580642Y698213D01*
X5595176Y723387D01*
X5602700Y751466D01*
Y780534D01*
X5595176Y808613D01*
X5580642Y833787D01*
X5560087Y854342D01*
X5534913Y868876D01*
X5506834Y876400D01*
D02*
G37*
G36*
X6224176Y621401D02*
X6196424D01*
X6169617Y614218D01*
X6145583Y600342D01*
X6125959Y580718D01*
X6112083Y556684D01*
X6104900Y529877D01*
Y502125D01*
X6112083Y475318D01*
X6125959Y451284D01*
X6145583Y431660D01*
X6169617Y417784D01*
X6196424Y410601D01*
X6224176D01*
X6250983Y417784D01*
X6275017Y431660D01*
X6294641Y451284D01*
X6308517Y475318D01*
X6315700Y502125D01*
Y529877D01*
X6308517Y556684D01*
X6294641Y580718D01*
X6275017Y600342D01*
X6250983Y614218D01*
X6224176Y621401D01*
D02*
G37*
G36*
X5506834Y626400D02*
X5477766D01*
X5449687Y618876D01*
X5424513Y604342D01*
X5403958Y583787D01*
X5389424Y558613D01*
X5381900Y530534D01*
Y501466D01*
X5389424Y473387D01*
X5403958Y448213D01*
X5424513Y427658D01*
X5449687Y413124D01*
X5477766Y405600D01*
X5506834D01*
X5534913Y413124D01*
X5560087Y427658D01*
X5580642Y448213D01*
X5595176Y473387D01*
X5602700Y501466D01*
Y530534D01*
X5595176Y558613D01*
X5580642Y583787D01*
X5560087Y604342D01*
X5534913Y618876D01*
X5506834Y626400D01*
D02*
G37*
G36*
X639400Y1299800D02*
X584200D01*
Y1244600D01*
X639400D01*
Y1299800D01*
D02*
G37*
G36*
X558800D02*
X503600D01*
Y1244600D01*
X558800D01*
Y1299800D01*
D02*
G37*
G36*
X2387600Y1269733D02*
Y1193800D01*
X2463533D01*
X2457742Y1215414D01*
X2446038Y1235686D01*
X2429486Y1252238D01*
X2409214Y1263942D01*
X2387600Y1269733D01*
D02*
G37*
G36*
X2362200D02*
X2340586Y1263942D01*
X2320314Y1252238D01*
X2303762Y1235686D01*
X2292058Y1215414D01*
X2286267Y1193800D01*
X2362200D01*
Y1269733D01*
D02*
G37*
G36*
X2463533Y1168400D02*
X2387600D01*
Y1092467D01*
X2409214Y1098258D01*
X2429486Y1109962D01*
X2446038Y1126514D01*
X2457742Y1146786D01*
X2463533Y1168400D01*
D02*
G37*
G36*
X2362200D02*
X2286267D01*
X2292058Y1146786D01*
X2303762Y1126514D01*
X2320314Y1109962D01*
X2340586Y1098258D01*
X2362200Y1092467D01*
Y1168400D01*
D02*
G37*
G36*
X4447456Y1026510D02*
Y950577D01*
X4523389D01*
X4517598Y972191D01*
X4505894Y992463D01*
X4489342Y1009015D01*
X4469070Y1020719D01*
X4447456Y1026510D01*
D02*
G37*
G36*
X4422056D02*
X4400442Y1020719D01*
X4380170Y1009015D01*
X4363618Y992463D01*
X4351915Y972191D01*
X4346123Y950577D01*
X4422056D01*
Y1026510D01*
D02*
G37*
G36*
X639400Y1219200D02*
X571500D01*
X503600D01*
Y1164000D01*
X514614D01*
X519875Y1151300D01*
X517166Y1148592D01*
X508227Y1133108D01*
X503600Y1115839D01*
Y1097961D01*
X508227Y1080692D01*
X517166Y1065208D01*
X529808Y1052566D01*
X532954Y1050750D01*
Y1038050D01*
X529808Y1036234D01*
X517166Y1023592D01*
X508227Y1008108D01*
X503600Y990839D01*
Y972961D01*
X508227Y955692D01*
X517166Y940208D01*
X529808Y927566D01*
X545292Y918627D01*
X562561Y914000D01*
X580439D01*
X597708Y918627D01*
X613192Y927566D01*
X625834Y940208D01*
X634773Y955692D01*
X639400Y972961D01*
Y990839D01*
X634773Y1008108D01*
X625834Y1023592D01*
X613192Y1036234D01*
X610046Y1038050D01*
Y1050750D01*
X613192Y1052566D01*
X625834Y1065208D01*
X634773Y1080692D01*
X639400Y1097961D01*
Y1115839D01*
X634773Y1133108D01*
X625834Y1148592D01*
X623125Y1151300D01*
X628386Y1164000D01*
X639400D01*
Y1219200D01*
D02*
G37*
G36*
X4714593Y970173D02*
Y894240D01*
X4790526D01*
X4784735Y915854D01*
X4773031Y936126D01*
X4756479Y952678D01*
X4736207Y964381D01*
X4714593Y970173D01*
D02*
G37*
G36*
X4689193D02*
X4667579Y964381D01*
X4647307Y952678D01*
X4630756Y936126D01*
X4619052Y915854D01*
X4613260Y894240D01*
X4689193D01*
Y970173D01*
D02*
G37*
G36*
X4523389Y925177D02*
X4447456D01*
Y849244D01*
X4469070Y855035D01*
X4489342Y866739D01*
X4505894Y883291D01*
X4517598Y903563D01*
X4523389Y925177D01*
D02*
G37*
G36*
X4422056D02*
X4346123D01*
X4351915Y903563D01*
X4363618Y883291D01*
X4380170Y866739D01*
X4400442Y855035D01*
X4422056Y849244D01*
Y925177D01*
D02*
G37*
G36*
X3657600Y888733D02*
Y812800D01*
X3733533D01*
X3727742Y834414D01*
X3716038Y854686D01*
X3699486Y871238D01*
X3679214Y882942D01*
X3657600Y888733D01*
D02*
G37*
G36*
X3632200D02*
X3610586Y882942D01*
X3590314Y871238D01*
X3573762Y854686D01*
X3562058Y834414D01*
X3556267Y812800D01*
X3632200D01*
Y888733D01*
D02*
G37*
G36*
X4790526Y868840D02*
X4714593D01*
Y792907D01*
X4736207Y798698D01*
X4756479Y810402D01*
X4773031Y826954D01*
X4784735Y847226D01*
X4790526Y868840D01*
D02*
G37*
G36*
X4689193D02*
X4613260D01*
X4619052Y847226D01*
X4630756Y826954D01*
X4647307Y810402D01*
X4667579Y798698D01*
X4689193Y792907D01*
Y868840D01*
D02*
G37*
G36*
X3733533Y787400D02*
X3657600D01*
Y711467D01*
X3679214Y717258D01*
X3699486Y728962D01*
X3716038Y745514D01*
X3727742Y765786D01*
X3733533Y787400D01*
D02*
G37*
G36*
X3632200D02*
X3556267D01*
X3562058Y765786D01*
X3573762Y745514D01*
X3590314Y728962D01*
X3610586Y717258D01*
X3632200Y711467D01*
Y787400D01*
D02*
G37*
G36*
X2692400Y545833D02*
Y469900D01*
X2768333D01*
X2762542Y491514D01*
X2750838Y511786D01*
X2734286Y528338D01*
X2714014Y540042D01*
X2692400Y545833D01*
D02*
G37*
G36*
X2667000D02*
X2645386Y540042D01*
X2625114Y528338D01*
X2608562Y511786D01*
X2596858Y491514D01*
X2591067Y469900D01*
X2667000D01*
Y545833D01*
D02*
G37*
G36*
X3378200Y533133D02*
Y457200D01*
X3454133D01*
X3448342Y478814D01*
X3436638Y499086D01*
X3420086Y515638D01*
X3399814Y527342D01*
X3378200Y533133D01*
D02*
G37*
G36*
X3352800D02*
X3331186Y527342D01*
X3310914Y515638D01*
X3294362Y499086D01*
X3282658Y478814D01*
X3276867Y457200D01*
X3352800D01*
Y533133D01*
D02*
G37*
G36*
X4419600Y495033D02*
Y419100D01*
X4495533D01*
X4489742Y440714D01*
X4478038Y460986D01*
X4461486Y477538D01*
X4441214Y489242D01*
X4419600Y495033D01*
D02*
G37*
G36*
X4394200D02*
X4372586Y489242D01*
X4352314Y477538D01*
X4335762Y460986D01*
X4324058Y440714D01*
X4318267Y419100D01*
X4394200D01*
Y495033D01*
D02*
G37*
G36*
X2959100D02*
Y419100D01*
X3035033D01*
X3029242Y440714D01*
X3017538Y460986D01*
X3000986Y477538D01*
X2980714Y489242D01*
X2959100Y495033D01*
D02*
G37*
G36*
X2933700D02*
X2912086Y489242D01*
X2891814Y477538D01*
X2875262Y460986D01*
X2863558Y440714D01*
X2857767Y419100D01*
X2933700D01*
Y495033D01*
D02*
G37*
G36*
X2159000Y456933D02*
Y381000D01*
X2234933D01*
X2229142Y402614D01*
X2217438Y422886D01*
X2200886Y439438D01*
X2180614Y451142D01*
X2159000Y456933D01*
D02*
G37*
G36*
X2133600D02*
X2111986Y451142D01*
X2091714Y439438D01*
X2075162Y422886D01*
X2063458Y402614D01*
X2057667Y381000D01*
X2133600D01*
Y456933D01*
D02*
G37*
G36*
X2768333Y444500D02*
X2692400D01*
Y368567D01*
X2714014Y374358D01*
X2734286Y386062D01*
X2750838Y402614D01*
X2762542Y422886D01*
X2768333Y444500D01*
D02*
G37*
G36*
X2667000D02*
X2591067D01*
X2596858Y422886D01*
X2608562Y402614D01*
X2625114Y386062D01*
X2645386Y374358D01*
X2667000Y368567D01*
Y444500D01*
D02*
G37*
G36*
X3454133Y431800D02*
X3378200D01*
Y355867D01*
X3399814Y361658D01*
X3420086Y373362D01*
X3436638Y389914D01*
X3448342Y410186D01*
X3454133Y431800D01*
D02*
G37*
G36*
X3352800D02*
X3276867D01*
X3282658Y410186D01*
X3294362Y389914D01*
X3310914Y373362D01*
X3331186Y361658D01*
X3352800Y355867D01*
Y431800D01*
D02*
G37*
G36*
X4495533Y393700D02*
X4419600D01*
Y317767D01*
X4441214Y323558D01*
X4461486Y335262D01*
X4478038Y351814D01*
X4489742Y372086D01*
X4495533Y393700D01*
D02*
G37*
G36*
X4394200D02*
X4318267D01*
X4324058Y372086D01*
X4335762Y351814D01*
X4352314Y335262D01*
X4372586Y323558D01*
X4394200Y317767D01*
Y393700D01*
D02*
G37*
G36*
X3035033D02*
X2959100D01*
Y317767D01*
X2980714Y323558D01*
X3000986Y335262D01*
X3017538Y351814D01*
X3029242Y372086D01*
X3035033Y393700D01*
D02*
G37*
G36*
X2933700D02*
X2857767D01*
X2863558Y372086D01*
X2875262Y351814D01*
X2891814Y335262D01*
X2912086Y323558D01*
X2933700Y317767D01*
Y393700D01*
D02*
G37*
G36*
X2234933Y355600D02*
X2159000D01*
Y279667D01*
X2180614Y285458D01*
X2200886Y297162D01*
X2217438Y313714D01*
X2229142Y333986D01*
X2234933Y355600D01*
D02*
G37*
G36*
X2133600D02*
X2057667D01*
X2063458Y333986D01*
X2075162Y313714D01*
X2091714Y297162D01*
X2111986Y285458D01*
X2133600Y279667D01*
Y355600D01*
D02*
G37*
G36*
X1370604Y1346200D02*
X1347196D01*
X1324586Y1340142D01*
X1304314Y1328438D01*
X1287762Y1311886D01*
X1276058Y1291614D01*
X1270000Y1269004D01*
Y1245596D01*
X1276058Y1222986D01*
X1287762Y1202714D01*
X1304314Y1186162D01*
X1320053Y1177075D01*
Y854925D01*
X1304314Y845838D01*
X1287762Y829286D01*
X1276058Y809014D01*
X1270000Y786404D01*
Y762996D01*
X1276058Y740386D01*
X1287762Y720114D01*
X1304314Y703562D01*
X1320053Y694475D01*
Y397725D01*
X1304314Y388638D01*
X1287762Y372086D01*
X1276058Y351814D01*
X1270000Y329204D01*
Y305796D01*
X1276058Y283186D01*
X1287762Y262914D01*
X1304314Y246362D01*
X1324586Y234658D01*
X1347196Y228600D01*
X1370604D01*
X1393214Y234658D01*
X1413486Y246362D01*
X1430038Y262914D01*
X1441742Y283186D01*
X1447800Y305796D01*
Y329204D01*
X1441742Y351814D01*
X1430038Y372086D01*
X1413486Y388638D01*
X1397747Y397725D01*
Y694475D01*
X1413486Y703562D01*
X1430038Y720114D01*
X1441742Y740386D01*
X1447800Y762996D01*
Y786404D01*
X1441742Y809014D01*
X1430038Y829286D01*
X1413486Y845838D01*
X1397747Y854925D01*
Y1177075D01*
X1413486Y1186162D01*
X1430038Y1202714D01*
X1441742Y1222986D01*
X1447800Y1245596D01*
Y1269004D01*
X1441742Y1291614D01*
X1430038Y1311886D01*
X1413486Y1328438D01*
X1393214Y1340142D01*
X1370604Y1346200D01*
D02*
G37*
G36*
X1040404D02*
X1016996D01*
X994386Y1340142D01*
X974114Y1328438D01*
X957562Y1311886D01*
X945858Y1291614D01*
X939800Y1269004D01*
Y1245596D01*
X945858Y1222986D01*
X957562Y1202714D01*
X974114Y1186162D01*
X976905Y1184551D01*
Y847449D01*
X974114Y845838D01*
X957562Y829286D01*
X945858Y809014D01*
X939800Y786404D01*
Y762996D01*
X945858Y740386D01*
X957562Y720114D01*
X974114Y703562D01*
X976905Y701951D01*
Y390249D01*
X974114Y388638D01*
X957562Y372086D01*
X945858Y351814D01*
X939800Y329204D01*
Y305796D01*
X945858Y283186D01*
X957562Y262914D01*
X974114Y246362D01*
X994386Y234658D01*
X1016996Y228600D01*
X1040404D01*
X1063014Y234658D01*
X1083286Y246362D01*
X1099838Y262914D01*
X1111542Y283186D01*
X1117600Y305796D01*
Y329204D01*
X1111542Y351814D01*
X1099838Y372086D01*
X1083286Y388638D01*
X1080495Y390249D01*
Y701951D01*
X1083286Y703562D01*
X1099838Y720114D01*
X1111542Y740386D01*
X1117600Y762996D01*
Y786404D01*
X1111542Y809014D01*
X1099838Y829286D01*
X1083286Y845838D01*
X1080495Y847449D01*
Y1184551D01*
X1083286Y1186162D01*
X1099838Y1202714D01*
X1111542Y1222986D01*
X1117600Y1245596D01*
Y1269004D01*
X1111542Y1291614D01*
X1099838Y1311886D01*
X1083286Y1328438D01*
X1063014Y1340142D01*
X1040404Y1346200D01*
D02*
G37*
G36*
X337513Y508000D02*
X297487D01*
X258229Y500191D01*
X221249Y484874D01*
X187968Y462636D01*
X159664Y434332D01*
X137426Y401051D01*
X122109Y364071D01*
X114300Y324813D01*
Y284787D01*
X122109Y245529D01*
X137426Y208549D01*
X159664Y175268D01*
X187968Y146964D01*
X221249Y124726D01*
X258229Y109409D01*
X297487Y101600D01*
X337513D01*
X376771Y109409D01*
X413751Y124726D01*
X447032Y146964D01*
X475336Y175268D01*
X497574Y208549D01*
X512891Y245529D01*
X520700Y284787D01*
Y324813D01*
X512891Y364071D01*
X497574Y401051D01*
X475336Y434332D01*
X447032Y462636D01*
X413751Y484874D01*
X376771Y500191D01*
X337513Y508000D01*
D02*
G37*
%LPD*%
D19*
X5537200Y1803400D02*
X5715000D01*
X6044081Y2132481D01*
X5235952Y740152D02*
Y2068756D01*
X5242499Y2075303D01*
X5232400Y736600D02*
X5235952Y740152D01*
X5359400Y1371600D02*
Y4406900D01*
Y1371600D02*
X5638800Y1651000D01*
X5880100D01*
X5125392Y2174488D02*
X5127194Y2176291D01*
X5125392Y855852D02*
Y2174488D01*
Y855852D02*
X5127194Y854050D01*
X5015331Y2287162D02*
X5015915Y2286577D01*
X5123589Y2179896D02*
X5127194Y2176291D01*
X5015915Y749885D02*
X5016500Y749300D01*
X5015915Y749885D02*
Y2286577D01*
X5130800Y3695700D02*
Y5207000D01*
Y3668207D02*
Y3695700D01*
X5359400Y4406900D02*
X5511800Y4559300D01*
X5235952Y2081849D02*
Y3577848D01*
X5232400Y3581400D02*
X5235952Y3577848D01*
Y2081849D02*
X5242499Y2075303D01*
X5029200Y3810000D02*
Y5321300D01*
X5232400Y3581400D02*
Y5092700D01*
X5022265Y2291765D02*
Y3803065D01*
X5016500Y2286000D02*
X5022265Y2291765D01*
X5127194Y3664602D02*
X5130800Y3668207D01*
X5127194Y2193494D02*
Y3664602D01*
X5118593Y2184893D02*
X5127194Y2193494D01*
X5022265Y3803065D02*
X5029200Y3810000D01*
X1993900Y3314700D02*
Y4267200D01*
X1358900Y3365500D02*
Y4305300D01*
X1993900Y1790700D02*
Y2743200D01*
X1358900Y317500D02*
Y1257300D01*
Y1841500D02*
Y2768600D01*
X1993900Y4838700D02*
Y5791200D01*
X1358900Y4889500D02*
Y5346700D01*
D20*
X1028700Y3822700D02*
Y4305300D01*
Y3365500D02*
Y3822700D01*
Y317500D02*
Y774700D01*
Y1257300D01*
Y1828800D02*
Y2311400D01*
Y2768600D01*
Y4889500D02*
Y5346700D01*
D21*
X6426200Y4957000D02*
D03*
X571500Y5154200D02*
D03*
Y3935509D02*
D03*
Y2411509D02*
D03*
Y1231900D02*
D03*
X6426200Y3987800D02*
D03*
Y3024600D02*
D03*
D22*
X571500Y4904200D02*
D03*
Y5029200D02*
D03*
Y3810509D02*
D03*
Y3685509D02*
D03*
Y2161509D02*
D03*
Y2286509D02*
D03*
Y1106900D02*
D03*
Y981900D02*
D03*
X6426200Y5332000D02*
D03*
Y5207000D02*
D03*
Y5082000D02*
D03*
Y4112800D02*
D03*
Y4237800D02*
D03*
Y4362800D02*
D03*
Y3399600D02*
D03*
Y3274600D02*
D03*
Y3149600D02*
D03*
D23*
X5492300Y1016000D02*
D03*
D24*
Y766000D02*
D03*
Y516000D02*
D03*
D25*
X6210300Y1016000D02*
D03*
Y516001D02*
D03*
D26*
X5537200Y1803400D02*
D03*
X5232400Y736600D02*
D03*
X5359400Y1371600D02*
D03*
X5127194Y854050D02*
D03*
X5016500Y749300D02*
D03*
X6324600Y2463800D02*
D03*
X6400800Y1536700D02*
D03*
X6044081Y2132481D02*
D03*
X5239505Y2078296D02*
D03*
X5232400Y3581400D02*
D03*
X5511800Y4559300D02*
D03*
X5803900Y4610100D02*
D03*
X6083300Y5854700D02*
D03*
X5689600Y5511800D02*
D03*
X5880100Y1651000D02*
D03*
X6438900Y1917700D02*
D03*
X5029200Y5321300D02*
D03*
X5130800Y5207000D02*
D03*
X5232400Y5092700D02*
D03*
X5123589Y2179896D02*
D03*
X5015331Y2287162D02*
D03*
X5130800Y3695700D02*
D03*
X5029200Y3810000D02*
D03*
X1028700Y3365500D02*
D03*
Y4305300D02*
D03*
Y3822700D02*
D03*
X1358900Y3365500D02*
D03*
Y3822700D02*
D03*
Y4305300D02*
D03*
X1993900Y3314700D02*
D03*
Y4267200D02*
D03*
X2146300Y3416300D02*
D03*
X2374900Y4229100D02*
D03*
X2679700Y3505200D02*
D03*
X2946400Y3454400D02*
D03*
X3365500Y3492500D02*
D03*
X4406900Y3454400D02*
D03*
X3644900Y3848100D02*
D03*
X4434756Y3985877D02*
D03*
X4701893Y3929540D02*
D03*
X2146300Y368300D02*
D03*
X1993900Y1790700D02*
D03*
Y2743200D02*
D03*
Y5791200D02*
D03*
Y4838700D02*
D03*
X4701893Y881540D02*
D03*
X4706664Y2409022D02*
D03*
X4703020Y5452908D02*
D03*
X1028700Y774700D02*
D03*
Y1257300D02*
D03*
Y2311400D02*
D03*
Y2768600D02*
D03*
Y1828800D02*
D03*
Y317500D02*
D03*
Y4889500D02*
D03*
Y5346700D02*
D03*
X2946400Y406400D02*
D03*
X1358900Y1257300D02*
D03*
Y2768600D02*
D03*
Y317500D02*
D03*
X2679700Y457200D02*
D03*
X1358900Y774700D02*
D03*
X2374900Y1181100D02*
D03*
X3365500Y444500D02*
D03*
X3644900Y800100D02*
D03*
X4406900Y406400D02*
D03*
X4434756Y937877D02*
D03*
Y5509877D02*
D03*
X3644900Y5372100D02*
D03*
X1358900Y5346700D02*
D03*
X3365500Y5016500D02*
D03*
X2946400Y4978400D02*
D03*
X2374900Y5753100D02*
D03*
X4406900Y4978400D02*
D03*
X1358900Y4889500D02*
D03*
X2146300Y4940300D02*
D03*
X2679700Y5029200D02*
D03*
X2146300Y1892300D02*
D03*
X2374900Y2705100D02*
D03*
X4406900Y1930400D02*
D03*
X2946400D02*
D03*
X4434756Y2461877D02*
D03*
X1358900Y2298700D02*
D03*
Y1841500D02*
D03*
X2679700Y1981200D02*
D03*
X3365500Y1968500D02*
D03*
X3644900Y2324100D02*
D03*
D27*
X317500Y5892800D02*
D03*
Y304800D02*
D03*
X6705600Y5892800D02*
D03*
D28*
X6743700Y2609850D02*
D03*
X2933700Y1543050D02*
D03*
Y3067050D02*
D03*
Y4591050D02*
D03*
D29*
X5175250Y254000D02*
D03*
%TF.MD5,36d7b8b70b5917bb86175ce5d921e3ca*%
M02*
