G04*
G04 #@! TF.GenerationSoftware,Altium Limited,Altium Designer,19.1.7 (138)*
G04*
G04 Layer_Physical_Order=2*
G04 Layer_Color=32768*
%FSLAX25Y25*%
%MOIN*%
G70*
G01*
G75*
%ADD92C,0.04000*%
%ADD99C,0.08000*%
%ADD106C,0.28409*%
%ADD107C,0.15811*%
%ADD108C,0.11087*%
G04:AMPARAMS|DCode=109|XSize=102.866mil|YSize=102.866mil|CornerRadius=0mil|HoleSize=0mil|Usage=FLASHONLY|Rotation=0.000|XOffset=0mil|YOffset=0mil|HoleType=Round|Shape=Relief|Width=30mil|Gap=6mil|Entries=4|*
%AMTHD109*
7,0,0,0.10287,0.09087,0.03000,45*
%
%ADD109THD109*%
%ADD110C,0.08724*%
G04:AMPARAMS|DCode=111|XSize=79.244mil|YSize=79.244mil|CornerRadius=0mil|HoleSize=0mil|Usage=FLASHONLY|Rotation=0.000|XOffset=0mil|YOffset=0mil|HoleType=Round|Shape=Relief|Width=30mil|Gap=6mil|Entries=4|*
%AMTHD111*
7,0,0,0.07924,0.06724,0.03000,45*
%
%ADD111THD111*%
%ADD112C,0.10693*%
G04:AMPARAMS|DCode=113|XSize=72mil|YSize=72mil|CornerRadius=0mil|HoleSize=0mil|Usage=FLASHONLY|Rotation=0.000|XOffset=0mil|YOffset=0mil|HoleType=Round|Shape=Relief|Width=30mil|Gap=6mil|Entries=4|*
%AMTHD113*
7,0,0,0.07200,0.06000,0.03000,45*
%
%ADD113THD113*%
G04:AMPARAMS|DCode=114|XSize=177.669mil|YSize=177.669mil|CornerRadius=0mil|HoleSize=0mil|Usage=FLASHONLY|Rotation=0.000|XOffset=0mil|YOffset=0mil|HoleType=Round|Shape=Relief|Width=30mil|Gap=6mil|Entries=4|*
%AMTHD114*
7,0,0,0.17767,0.16567,0.03000,45*
%
%ADD114THD114*%
G04:AMPARAMS|DCode=115|XSize=42mil|YSize=42mil|CornerRadius=0mil|HoleSize=0mil|Usage=FLASHONLY|Rotation=0.000|XOffset=0mil|YOffset=0mil|HoleType=Round|Shape=Relief|Width=30mil|Gap=6mil|Entries=4|*
%AMTHD115*
7,0,0,0.04200,0.03000,0.03000,45*
%
%ADD115THD115*%
%ADD116C,0.05500*%
G04:AMPARAMS|DCode=117|XSize=47mil|YSize=47mil|CornerRadius=0mil|HoleSize=0mil|Usage=FLASHONLY|Rotation=0.000|XOffset=0mil|YOffset=0mil|HoleType=Round|Shape=Relief|Width=30mil|Gap=6mil|Entries=4|*
%AMTHD117*
7,0,0,0.04700,0.03500,0.03000,45*
%
%ADD117THD117*%
%ADD118C,0.05600*%
G04:AMPARAMS|DCode=119|XSize=48mil|YSize=48mil|CornerRadius=0mil|HoleSize=0mil|Usage=FLASHONLY|Rotation=0.000|XOffset=0mil|YOffset=0mil|HoleType=Round|Shape=Relief|Width=30mil|Gap=6mil|Entries=4|*
%AMTHD119*
7,0,0,0.04800,0.03600,0.03000,45*
%
%ADD119THD119*%
D92*
X59000Y117500D02*
G03*
X76500Y100000I17500J-0D01*
G01*
X76500Y441750D02*
G03*
X59000Y424250I-0J-17500D01*
G01*
X535250Y424250D02*
G03*
X517750Y441750I-17500J0D01*
G01*
X517750Y100000D02*
G03*
X535250Y117500I0J17500D01*
G01*
X59000Y424250D02*
X59000Y117500D01*
X76500Y441750D02*
X517750Y441750D01*
X535250Y117500D02*
X535250Y424250D01*
X76500Y100000D02*
X517750Y100000D01*
D99*
X424250Y243378D02*
D03*
Y254750D02*
D03*
X479500Y175611D02*
D03*
X250850Y405750D02*
D03*
X479500Y139000D02*
D03*
Y188500D02*
D03*
Y163500D02*
D03*
Y151500D02*
D03*
D106*
X125000Y322250D02*
D03*
Y366250D02*
D03*
D107*
X82250Y133750D02*
D03*
X198000Y133858D02*
D03*
X155000D02*
D03*
X284000D02*
D03*
X241000D02*
D03*
X369500D02*
D03*
X327000D02*
D03*
X453500D02*
D03*
X411500D02*
D03*
D108*
X82250Y184144D02*
D03*
X198000Y184252D02*
D03*
X155000D02*
D03*
X284000D02*
D03*
X241000D02*
D03*
X369500D02*
D03*
X327000D02*
D03*
X453500D02*
D03*
X411500D02*
D03*
D109*
X82250Y162490D02*
D03*
X198000Y162598D02*
D03*
X155000D02*
D03*
X284000D02*
D03*
X241000D02*
D03*
X369500D02*
D03*
X327000D02*
D03*
X453500D02*
D03*
X411500D02*
D03*
D110*
X478213Y329252D02*
D03*
Y319409D02*
D03*
Y309567D02*
D03*
Y299724D02*
D03*
Y289882D02*
D03*
Y280039D02*
D03*
X488055Y309567D02*
D03*
Y299724D02*
D03*
Y280039D02*
D03*
X478657Y413519D02*
D03*
Y403677D02*
D03*
Y393834D02*
D03*
Y383992D02*
D03*
Y374149D02*
D03*
Y364307D02*
D03*
Y354464D02*
D03*
D111*
X478213Y270197D02*
D03*
X488055Y329252D02*
D03*
Y319409D02*
D03*
Y289882D02*
D03*
Y270197D02*
D03*
X488500Y413519D02*
D03*
Y403677D02*
D03*
Y393834D02*
D03*
Y383992D02*
D03*
Y374149D02*
D03*
Y364307D02*
D03*
Y354464D02*
D03*
D112*
X516500Y270000D02*
D03*
Y328957D02*
D03*
X516945Y354268D02*
D03*
Y413224D02*
D03*
D113*
X118500Y153500D02*
D03*
Y142000D02*
D03*
D114*
X461000Y424250D02*
D03*
X76500D02*
D03*
X517750Y117500D02*
D03*
X117500D02*
D03*
D115*
X274894Y302941D02*
D03*
X270170D02*
D03*
X274894Y308059D02*
D03*
X279225D02*
D03*
X279225Y302941D02*
D03*
X270170Y308059D02*
D03*
X269338Y385309D02*
D03*
X278393Y380191D02*
D03*
X278393Y385309D02*
D03*
X274063D02*
D03*
X269338Y380191D02*
D03*
X274063D02*
D03*
X340000Y366441D02*
D03*
X335276D02*
D03*
X340000Y371559D02*
D03*
X344331D02*
D03*
X344331Y366441D02*
D03*
X335276Y371559D02*
D03*
X334776Y304059D02*
D03*
X343831Y298941D02*
D03*
X343831Y304059D02*
D03*
X334776Y298941D02*
D03*
X339500D02*
D03*
Y304059D02*
D03*
D116*
X451250Y228000D02*
D03*
X470250Y275342D02*
D03*
X443250Y282250D02*
D03*
X436091Y278250D02*
D03*
X435500Y393834D02*
D03*
Y356000D02*
D03*
Y317250D02*
D03*
X89767Y220250D02*
D03*
X179057Y387247D02*
D03*
X179342Y416090D02*
D03*
X86318Y315988D02*
D03*
X95750Y296831D02*
D03*
X353016Y238694D02*
D03*
X297000Y267500D02*
D03*
X378292Y275342D02*
D03*
X314774Y258750D02*
D03*
X327050Y249500D02*
D03*
X371534Y275153D02*
D03*
X353351Y246506D02*
D03*
X359095D02*
D03*
X266809Y258750D02*
D03*
X288233D02*
D03*
X262914Y244477D02*
D03*
X296632Y262007D02*
D03*
X278883Y258750D02*
D03*
X315089Y250328D02*
D03*
X310281D02*
D03*
X322791Y241776D02*
D03*
X323067Y246500D02*
D03*
X299200Y235924D02*
D03*
X340750Y229500D02*
D03*
X340693Y238357D02*
D03*
X198143Y245395D02*
D03*
X202643Y245407D02*
D03*
X207143D02*
D03*
X211643Y245395D02*
D03*
X236143Y245500D02*
D03*
X231643Y245512D02*
D03*
X227143D02*
D03*
X222643Y245500D02*
D03*
X398973Y230250D02*
D03*
X383973D02*
D03*
X373000Y293000D02*
D03*
X389675Y331699D02*
D03*
Y327108D02*
D03*
Y322565D02*
D03*
X385282Y331699D02*
D03*
Y327108D02*
D03*
Y322565D02*
D03*
X317107Y321956D02*
D03*
Y326500D02*
D03*
Y331091D02*
D03*
X321500Y321956D02*
D03*
Y326500D02*
D03*
Y331091D02*
D03*
X472000Y247500D02*
D03*
X437802Y245177D02*
D03*
X466614Y227012D02*
D03*
X473500Y229000D02*
D03*
X502500Y253000D02*
D03*
Y199500D02*
D03*
X405616Y259750D02*
D03*
Y235494D02*
D03*
X222500Y231070D02*
D03*
X218500Y231000D02*
D03*
X212910Y231137D02*
D03*
X237127Y231070D02*
D03*
X197860Y231012D02*
D03*
X193360Y231000D02*
D03*
X202360Y231012D02*
D03*
X206860Y231000D02*
D03*
X198143Y223433D02*
D03*
X202643D02*
D03*
X193643Y223421D02*
D03*
X207143D02*
D03*
X231643Y223526D02*
D03*
X218143D02*
D03*
X227143Y223538D02*
D03*
X222643D02*
D03*
X231360Y231105D02*
D03*
X226860Y231117D02*
D03*
X198143Y227012D02*
D03*
X202643D02*
D03*
X193643Y227000D02*
D03*
X207143D02*
D03*
X231643Y227105D02*
D03*
X218143D02*
D03*
X227143Y227117D02*
D03*
X222643D02*
D03*
X227000Y253512D02*
D03*
X222500Y249488D02*
D03*
X227000Y249500D02*
D03*
X231500D02*
D03*
Y253512D02*
D03*
X222500Y253500D02*
D03*
X236000D02*
D03*
Y249488D02*
D03*
X211500Y249383D02*
D03*
Y253395D02*
D03*
X198000D02*
D03*
X207000Y253407D02*
D03*
Y249395D02*
D03*
X202500D02*
D03*
X198000Y249383D02*
D03*
X202500Y253407D02*
D03*
X111000Y289488D02*
D03*
X120000Y289500D02*
D03*
Y285488D02*
D03*
X115500D02*
D03*
X111000Y285476D02*
D03*
X115500Y289500D02*
D03*
X120000Y280988D02*
D03*
X115500D02*
D03*
X111000Y280976D02*
D03*
X120000Y276988D02*
D03*
X115500D02*
D03*
X111000Y276976D02*
D03*
X138500Y289488D02*
D03*
X134000D02*
D03*
X129500Y289476D02*
D03*
X138500Y285476D02*
D03*
X134000D02*
D03*
X129500Y285465D02*
D03*
X138500Y280988D02*
D03*
X134000D02*
D03*
X129500Y280976D02*
D03*
X138500Y276976D02*
D03*
X134000D02*
D03*
X129500Y276965D02*
D03*
X170500Y276976D02*
D03*
X175000Y276988D02*
D03*
X179500D02*
D03*
X170500Y280988D02*
D03*
X175000Y281000D02*
D03*
X179500D02*
D03*
X170500Y285476D02*
D03*
X175000Y285488D02*
D03*
X179500D02*
D03*
X170500Y289488D02*
D03*
X175000Y289500D02*
D03*
X179500D02*
D03*
X152000Y276988D02*
D03*
X156500Y277000D02*
D03*
X161000D02*
D03*
X152000Y280988D02*
D03*
X156500Y281000D02*
D03*
X161000D02*
D03*
X156500Y289512D02*
D03*
X152000Y285488D02*
D03*
X156500Y285500D02*
D03*
X161000D02*
D03*
Y289512D02*
D03*
X152000Y289500D02*
D03*
D117*
X279774Y418750D02*
D03*
X95750Y281000D02*
D03*
X296738Y284622D02*
D03*
X287000Y294639D02*
D03*
X287116Y298254D02*
D03*
Y301911D02*
D03*
X286547Y328500D02*
D03*
X333469Y263086D02*
D03*
X266809Y265157D02*
D03*
X313939Y235818D02*
D03*
X328507Y232872D02*
D03*
X351565Y392001D02*
D03*
X286149Y405750D02*
D03*
X373851Y230250D02*
D03*
X391351Y230250D02*
D03*
X364000Y283592D02*
D03*
X354000Y296828D02*
D03*
Y299898D02*
D03*
X266000Y250328D02*
D03*
X457222Y251000D02*
D03*
X443386Y226114D02*
D03*
X393851Y252703D02*
D03*
X152000Y246012D02*
D03*
X161000Y246024D02*
D03*
Y242012D02*
D03*
X156500D02*
D03*
X152000Y242000D02*
D03*
X156500Y246024D02*
D03*
X161000Y237512D02*
D03*
X156500D02*
D03*
X152000Y237500D02*
D03*
X161000Y233512D02*
D03*
X156500D02*
D03*
X152000Y233500D02*
D03*
X179500Y246012D02*
D03*
X175000D02*
D03*
X170500Y246000D02*
D03*
X179500Y242000D02*
D03*
X175000D02*
D03*
X170500Y241988D02*
D03*
X179500Y237512D02*
D03*
X175000D02*
D03*
X170500Y237500D02*
D03*
X179500Y233500D02*
D03*
X175000D02*
D03*
X170500Y233488D02*
D03*
X129500Y233476D02*
D03*
X134000Y233488D02*
D03*
X138500D02*
D03*
X129500Y237488D02*
D03*
X134000Y237500D02*
D03*
X138500D02*
D03*
X129500Y241976D02*
D03*
X134000Y241988D02*
D03*
X138500D02*
D03*
X129500Y245988D02*
D03*
X134000Y246000D02*
D03*
X138500D02*
D03*
X111000Y233488D02*
D03*
X115500Y233500D02*
D03*
X120000D02*
D03*
X111000Y237488D02*
D03*
X115500Y237500D02*
D03*
X120000D02*
D03*
X115500Y246012D02*
D03*
X111000Y241988D02*
D03*
X115500Y242000D02*
D03*
X120000D02*
D03*
Y246012D02*
D03*
X111000Y246000D02*
D03*
D118*
X84531Y329458D02*
D03*
X80172D02*
D03*
X75933D02*
D03*
Y333553D02*
D03*
X84531Y333553D02*
D03*
X80172Y333553D02*
D03*
X84531Y337690D02*
D03*
X80172D02*
D03*
X75933D02*
D03*
D119*
X361482Y352000D02*
D03*
X286080Y371559D02*
D03*
X293917Y358250D02*
D03*
X293542Y366441D02*
D03*
X354143Y357406D02*
D03*
X361482Y356000D02*
D03*
M02*
