G04*
G04 #@! TF.GenerationSoftware,Altium Limited,Altium Designer,19.1.7 (138)*
G04*
G04 Layer_Physical_Order=4*
G04 Layer_Color=16711680*
%FSLAX25Y25*%
%MOIN*%
G70*
G01*
G75*
%ADD14C,0.01000*%
%ADD20C,0.03000*%
%ADD92C,0.04000*%
%ADD94C,0.02000*%
%ADD96C,0.37402*%
%ADD97C,0.13780*%
%ADD98C,0.11024*%
%ADD99C,0.08000*%
%ADD100C,0.06142*%
%ADD101C,0.08268*%
%ADD102C,0.24016*%
%ADD103C,0.02000*%
%ADD104C,0.03000*%
%ADD105C,0.03200*%
%ADD122R,0.03937X0.03937*%
G36*
X88555Y344026D02*
X89440Y343660D01*
X90237Y343127D01*
X90914Y342450D01*
X91446Y341653D01*
X91813Y340768D01*
X92000Y339828D01*
X92000Y339349D01*
X92000Y339349D01*
X92000Y181750D01*
X92000Y181070D01*
X91735Y179736D01*
X91214Y178479D01*
X90459Y177348D01*
X89497Y176387D01*
X88366Y175631D01*
X87109Y175111D01*
X85775Y174845D01*
X85095Y174845D01*
X70766Y174845D01*
X70124D01*
X68865Y175096D01*
X67679Y175587D01*
X66612Y176300D01*
X65705Y177207D01*
X64991Y178275D01*
X64500Y179460D01*
X64250Y180719D01*
Y181361D01*
Y181361D01*
Y339198D01*
X64250Y339692D01*
X64443Y340661D01*
X64821Y341574D01*
X65370Y342395D01*
X66068Y343094D01*
X66890Y343642D01*
X67802Y344021D01*
X68771Y344213D01*
X69265Y344213D01*
X69265Y344213D01*
X87136D01*
X87615Y344213D01*
X88555Y344026D01*
D02*
G37*
G36*
X138688Y340712D02*
X140053Y340146D01*
X141281Y339326D01*
X142326Y338281D01*
X143146Y337053D01*
X143712Y335688D01*
X144000Y334239D01*
X144000Y333500D01*
X144000Y333500D01*
Y304000D01*
X144034Y303314D01*
X144301Y301968D01*
X144826Y300700D01*
X145589Y299559D01*
X146559Y298589D01*
X147700Y297827D01*
X148968Y297301D01*
X150314Y297034D01*
X151000Y297000D01*
X151000D01*
X182000Y297000D01*
X182443Y297000D01*
X183313Y296827D01*
X184132Y296488D01*
X184869Y295995D01*
X185495Y295369D01*
X185988Y294632D01*
X186327Y293813D01*
X186500Y292943D01*
X186500Y292500D01*
X186500Y292500D01*
X186500Y274403D01*
X186500Y274040D01*
X186358Y273329D01*
X186081Y272659D01*
X185678Y272056D01*
X185165Y271543D01*
X184562Y271140D01*
X183892Y270862D01*
X183180Y270720D01*
X182817Y270721D01*
X107780D01*
X107457Y270721D01*
X106823Y270847D01*
X106226Y271094D01*
X105689Y271453D01*
X105232Y271909D01*
X104873Y272447D01*
X104626Y273043D01*
X104500Y273677D01*
X104500Y274000D01*
X104500Y274000D01*
Y334000D01*
X104500Y334689D01*
X104769Y336042D01*
X105297Y337316D01*
X106063Y338462D01*
X107038Y339437D01*
X108184Y340203D01*
X109458Y340731D01*
X110810Y341000D01*
X111500Y341000D01*
X111500Y341000D01*
X136500Y341000D01*
X137239Y341000D01*
X138688Y340712D01*
D02*
G37*
G36*
X390375Y333885D02*
X390921Y333659D01*
X391412Y333330D01*
X391830Y332912D01*
X392159Y332421D01*
X392385Y331875D01*
X392500Y331295D01*
X392500Y331000D01*
X392500Y331000D01*
X392500Y322500D01*
X392500Y322155D01*
X392366Y321479D01*
X392102Y320842D01*
X391719Y320269D01*
X391231Y319781D01*
X390658Y319398D01*
X390021Y319134D01*
X389345Y319000D01*
X389000Y319000D01*
X389000D01*
X316500Y319000D01*
X316003D01*
X315084Y319381D01*
X314381Y320084D01*
X314000Y321003D01*
X314000Y321500D01*
X314000D01*
X314000Y331000D01*
X314000Y331295D01*
X314115Y331875D01*
X314341Y332421D01*
X314670Y332912D01*
X315088Y333330D01*
X315579Y333659D01*
X316125Y333885D01*
X316705Y334000D01*
X317000Y334000D01*
X317000Y334000D01*
X389500Y334000D01*
X389795Y334000D01*
X390375Y333885D01*
D02*
G37*
G36*
X178000Y251500D02*
X178523Y251500D01*
X179550Y251296D01*
X180516Y250895D01*
X181386Y250314D01*
X182126Y249574D01*
X182708Y248704D01*
X183108Y247737D01*
X183312Y246711D01*
X183312Y246187D01*
X183312D01*
X183313Y228203D01*
X183313Y226815D01*
X182950Y224063D01*
X182232Y221382D01*
X181170Y218818D01*
X179782Y216414D01*
X178092Y214212D01*
X176129Y212249D01*
X173927Y210559D01*
X171524Y209171D01*
X168959Y208109D01*
X166278Y207391D01*
X163526Y207029D01*
X162138Y207029D01*
X162138Y207029D01*
X162138Y207029D01*
X161083Y206994D01*
X158990Y206718D01*
X156951Y206172D01*
X155000Y205364D01*
X153172Y204309D01*
X151497Y203024D01*
X150005Y201531D01*
X148720Y199856D01*
X147664Y198028D01*
X146856Y196078D01*
X146310Y194039D01*
X146035Y191946D01*
X146000Y190890D01*
Y180600D01*
X146044Y179711D01*
X146391Y177967D01*
X147071Y176324D01*
X148059Y174845D01*
X149317Y173588D01*
X150795Y172600D01*
X152438Y171919D01*
X154183Y171572D01*
X155072Y171529D01*
X464971Y171528D01*
X465467Y171529D01*
X466438Y171335D01*
X467353Y170956D01*
X468177Y170406D01*
X468877Y169705D01*
X469428Y168882D01*
X469807Y167967D01*
X470000Y166995D01*
X470000Y166500D01*
X470000Y166500D01*
X470000Y166500D01*
Y103029D01*
X115471Y103029D01*
X114654Y103029D01*
X113033Y103242D01*
X111454Y103665D01*
X109944Y104291D01*
X108528Y105108D01*
X107231Y106103D01*
X106075Y107259D01*
X105079Y108556D01*
X104262Y109972D01*
X103637Y111483D01*
X103213Y113062D01*
X103000Y114683D01*
X103000Y115500D01*
X103000Y115500D01*
Y247500D01*
Y247894D01*
X103154Y248667D01*
X103455Y249395D01*
X103893Y250050D01*
X104450Y250607D01*
X105105Y251045D01*
X105833Y251346D01*
X106606Y251500D01*
X107000Y251500D01*
X107000Y251500D01*
X178000Y251500D01*
D02*
G37*
G36*
X155150Y386933D02*
X156653Y386310D01*
X158006Y385406D01*
X159156Y384256D01*
X160060Y382903D01*
X160683Y381400D01*
X161000Y379804D01*
X161000Y378991D01*
X161000Y378991D01*
X161000Y375500D01*
X161032Y374177D01*
X161292Y371543D01*
X161808Y368947D01*
X162576Y366415D01*
X163589Y363969D01*
X164837Y361635D01*
X166307Y359435D01*
X167986Y357389D01*
X169858Y355518D01*
X171903Y353839D01*
X174104Y352368D01*
X176438Y351121D01*
X178883Y350108D01*
X181416Y349340D01*
X184011Y348823D01*
X186645Y348564D01*
X187969Y348532D01*
X187969D01*
X223468Y348532D01*
X224650Y348532D01*
X226994Y348223D01*
X229277Y347611D01*
X231461Y346707D01*
X233508Y345525D01*
X235383Y344086D01*
X237055Y342415D01*
X238494Y340539D01*
X239675Y338492D01*
X240580Y336309D01*
X241192Y334025D01*
X241500Y331682D01*
X241500Y330500D01*
X241500Y330500D01*
X241500Y248512D01*
X241500Y248018D01*
X241307Y247050D01*
X240930Y246138D01*
X240381Y245317D01*
X239683Y244619D01*
X238862Y244070D01*
X237950Y243692D01*
X236982Y243500D01*
X236488Y243500D01*
X197687D01*
X197029Y243500D01*
X195737Y243757D01*
X194520Y244261D01*
X193424Y244993D01*
X192493Y245924D01*
X191761Y247020D01*
X191257Y248237D01*
X191000Y249529D01*
X191000Y250187D01*
Y250187D01*
X191000Y296500D01*
X190967Y297180D01*
X190701Y298515D01*
X190181Y299772D01*
X189425Y300904D01*
X188463Y301866D01*
X187331Y302622D01*
X186074Y303142D01*
X184739Y303408D01*
X184059Y303441D01*
X184059Y303441D01*
X155234Y303441D01*
X154620Y303441D01*
X153416Y303680D01*
X152281Y304150D01*
X151260Y304833D01*
X150392Y305701D01*
X149709Y306722D01*
X149240Y307857D01*
X149000Y309061D01*
X149000Y309675D01*
Y309675D01*
X149000Y333683D01*
X148971Y334554D01*
X148744Y336281D01*
X148293Y337963D01*
X147627Y339573D01*
X146756Y341081D01*
X145695Y342463D01*
X144464Y343695D01*
X143082Y344755D01*
X141573Y345626D01*
X139964Y346293D01*
X138281Y346744D01*
X136554Y346971D01*
X135683Y347000D01*
X135683Y347000D01*
X121499Y347000D01*
X120385Y347000D01*
X118176Y347291D01*
X116023Y347868D01*
X113964Y348721D01*
X112035Y349835D01*
X110267Y351192D01*
X108691Y352768D01*
X107334Y354536D01*
X106220Y356466D01*
X105368Y358524D01*
X104791Y360677D01*
X104500Y362886D01*
Y364001D01*
X104500D01*
X104500Y368750D01*
X104500Y369963D01*
X104816Y372367D01*
X105444Y374709D01*
X106372Y376950D01*
X107585Y379050D01*
X109061Y380974D01*
X110776Y382689D01*
X112700Y384165D01*
X114800Y385378D01*
X117041Y386306D01*
X119383Y386933D01*
X121787Y387250D01*
X123000D01*
X123000Y387250D01*
X152741Y387250D01*
X153554Y387250D01*
X155150Y386933D01*
D02*
G37*
G36*
X208622Y236240D02*
X208867Y235994D01*
X209000Y235673D01*
X209000Y235500D01*
X209000Y235500D01*
Y230500D01*
X209038Y230110D01*
X209337Y229389D01*
X209889Y228837D01*
X210610Y228538D01*
X211000Y228500D01*
X211000Y228500D01*
X214500Y228500D01*
X214890Y228538D01*
X215611Y228837D01*
X216163Y229389D01*
X216461Y230110D01*
X216500Y230500D01*
X216500Y230500D01*
Y235000D01*
Y235199D01*
X216652Y235566D01*
X216933Y235847D01*
X217301Y236000D01*
X217500Y236000D01*
X217500Y236000D01*
X231500Y236000D01*
X231975Y236000D01*
X232854Y235636D01*
X233526Y234964D01*
X233890Y234085D01*
X233890Y233610D01*
X233890Y233610D01*
Y229110D01*
X233930Y228698D01*
X234245Y227938D01*
X234827Y227356D01*
X235588Y227041D01*
X236000Y227000D01*
X236000D01*
X416000Y227000D01*
X417016Y227000D01*
X419030Y226735D01*
X420993Y226209D01*
X422870Y225431D01*
X424630Y224415D01*
X426242Y223179D01*
X427678Y221742D01*
X428915Y220130D01*
X429931Y218370D01*
X430709Y216493D01*
X431235Y214530D01*
X431500Y212516D01*
X431500Y211500D01*
X431500Y211500D01*
X431540Y210290D01*
X431855Y207891D01*
X432482Y205553D01*
X433408Y203318D01*
X434618Y201222D01*
X436091Y199302D01*
X437802Y197591D01*
X439722Y196118D01*
X441818Y194908D01*
X444053Y193982D01*
X446391Y193356D01*
X448790Y193040D01*
X450000Y193000D01*
X450000D01*
X455500Y193000D01*
X455943D01*
X456813Y192827D01*
X457631Y192488D01*
X458369Y191995D01*
X458995Y191369D01*
X459488Y190631D01*
X459827Y189813D01*
X460000Y188943D01*
X460000Y188500D01*
X460000Y188500D01*
X460000Y179500D01*
Y178958D01*
X459789Y177896D01*
X459374Y176895D01*
X458772Y175994D01*
X458006Y175228D01*
X457105Y174626D01*
X456104Y174211D01*
X455042Y174000D01*
X155500D01*
X154811Y174000D01*
X153458Y174269D01*
X152184Y174797D01*
X151038Y175563D01*
X150063Y176538D01*
X149297Y177684D01*
X148769Y178958D01*
X148500Y180310D01*
X148500Y181000D01*
Y181000D01*
X148500Y191439D01*
Y192295D01*
X148723Y193993D01*
X149167Y195647D01*
X149822Y197228D01*
X150678Y198711D01*
X151720Y200069D01*
X152931Y201280D01*
X154289Y202322D01*
X155772Y203178D01*
X157353Y203833D01*
X159007Y204276D01*
X160705Y204500D01*
X161561D01*
X161561Y204500D01*
X167500Y204500D01*
X168653Y204528D01*
X170948Y204754D01*
X173210Y205204D01*
X175417Y205874D01*
X177548Y206756D01*
X179581Y207843D01*
X181499Y209125D01*
X183282Y210588D01*
X184912Y212218D01*
X186375Y214001D01*
X187657Y215919D01*
X188744Y217952D01*
X189626Y220083D01*
X190296Y222290D01*
X190746Y224552D01*
X190972Y226847D01*
X191000Y228000D01*
X191000Y228000D01*
Y233361D01*
Y233657D01*
X191116Y234239D01*
X191343Y234787D01*
X191672Y235281D01*
X192092Y235700D01*
X192585Y236030D01*
X193133Y236257D01*
X193715Y236373D01*
X194012Y236373D01*
X194012Y236373D01*
X208127Y236373D01*
X208301D01*
X208622Y236240D01*
D02*
G37*
%LPC*%
G36*
X85095Y174845D02*
X85095D01*
D01*
X85095D01*
D02*
G37*
G36*
X453500Y141585D02*
X451993Y141437D01*
X450543Y140997D01*
X449207Y140283D01*
X448036Y139322D01*
X447075Y138151D01*
X446361Y136815D01*
X445922Y135366D01*
X445773Y133858D01*
X445922Y132351D01*
X446361Y130901D01*
X447075Y129565D01*
X448036Y128394D01*
X449207Y127434D01*
X450543Y126719D01*
X451993Y126280D01*
X453500Y126131D01*
X455008Y126280D01*
X456457Y126719D01*
X457793Y127434D01*
X458964Y128394D01*
X459925Y129565D01*
X460639Y130901D01*
X461079Y132351D01*
X461227Y133858D01*
X461079Y135366D01*
X460639Y136815D01*
X459925Y138151D01*
X458964Y139322D01*
X457793Y140283D01*
X456457Y140997D01*
X455008Y141437D01*
X453500Y141585D01*
D02*
G37*
G36*
X411500D02*
X409993Y141437D01*
X408543Y140997D01*
X407207Y140283D01*
X406036Y139322D01*
X405075Y138151D01*
X404361Y136815D01*
X403922Y135366D01*
X403773Y133858D01*
X403922Y132351D01*
X404361Y130901D01*
X405075Y129565D01*
X406036Y128394D01*
X407207Y127434D01*
X408543Y126719D01*
X409993Y126280D01*
X411500Y126131D01*
X413007Y126280D01*
X414457Y126719D01*
X415793Y127434D01*
X416964Y128394D01*
X417925Y129565D01*
X418639Y130901D01*
X419078Y132351D01*
X419227Y133858D01*
X419078Y135366D01*
X418639Y136815D01*
X417925Y138151D01*
X416964Y139322D01*
X415793Y140283D01*
X414457Y140997D01*
X413007Y141437D01*
X411500Y141585D01*
D02*
G37*
G36*
X369500D02*
X367992Y141437D01*
X366543Y140997D01*
X365207Y140283D01*
X364036Y139322D01*
X363075Y138151D01*
X362361Y136815D01*
X361922Y135366D01*
X361773Y133858D01*
X361922Y132351D01*
X362361Y130901D01*
X363075Y129565D01*
X364036Y128394D01*
X365207Y127434D01*
X366543Y126719D01*
X367992Y126280D01*
X369500Y126131D01*
X371007Y126280D01*
X372457Y126719D01*
X373793Y127434D01*
X374964Y128394D01*
X375925Y129565D01*
X376639Y130901D01*
X377079Y132351D01*
X377227Y133858D01*
X377079Y135366D01*
X376639Y136815D01*
X375925Y138151D01*
X374964Y139322D01*
X373793Y140283D01*
X372457Y140997D01*
X371007Y141437D01*
X369500Y141585D01*
D02*
G37*
G36*
X327000D02*
X325493Y141437D01*
X324043Y140997D01*
X322707Y140283D01*
X321536Y139322D01*
X320575Y138151D01*
X319861Y136815D01*
X319422Y135366D01*
X319273Y133858D01*
X319422Y132351D01*
X319861Y130901D01*
X320575Y129565D01*
X321536Y128394D01*
X322707Y127434D01*
X324043Y126719D01*
X325493Y126280D01*
X327000Y126131D01*
X328507Y126280D01*
X329957Y126719D01*
X331293Y127434D01*
X332464Y128394D01*
X333425Y129565D01*
X334139Y130901D01*
X334578Y132351D01*
X334727Y133858D01*
X334578Y135366D01*
X334139Y136815D01*
X333425Y138151D01*
X332464Y139322D01*
X331293Y140283D01*
X329957Y140997D01*
X328507Y141437D01*
X327000Y141585D01*
D02*
G37*
G36*
X284000D02*
X282492Y141437D01*
X281043Y140997D01*
X279707Y140283D01*
X278536Y139322D01*
X277575Y138151D01*
X276861Y136815D01*
X276421Y135366D01*
X276273Y133858D01*
X276421Y132351D01*
X276861Y130901D01*
X277575Y129565D01*
X278536Y128394D01*
X279707Y127434D01*
X281043Y126719D01*
X282492Y126280D01*
X284000Y126131D01*
X285507Y126280D01*
X286957Y126719D01*
X288293Y127434D01*
X289464Y128394D01*
X290425Y129565D01*
X291139Y130901D01*
X291579Y132351D01*
X291727Y133858D01*
X291579Y135366D01*
X291139Y136815D01*
X290425Y138151D01*
X289464Y139322D01*
X288293Y140283D01*
X286957Y140997D01*
X285507Y141437D01*
X284000Y141585D01*
D02*
G37*
G36*
X241000D02*
X239493Y141437D01*
X238043Y140997D01*
X236707Y140283D01*
X235536Y139322D01*
X234575Y138151D01*
X233861Y136815D01*
X233421Y135366D01*
X233273Y133858D01*
X233421Y132351D01*
X233861Y130901D01*
X234575Y129565D01*
X235536Y128394D01*
X236707Y127434D01*
X238043Y126719D01*
X239493Y126280D01*
X241000Y126131D01*
X242508Y126280D01*
X243957Y126719D01*
X245293Y127434D01*
X246464Y128394D01*
X247425Y129565D01*
X248139Y130901D01*
X248579Y132351D01*
X248727Y133858D01*
X248579Y135366D01*
X248139Y136815D01*
X247425Y138151D01*
X246464Y139322D01*
X245293Y140283D01*
X243957Y140997D01*
X242508Y141437D01*
X241000Y141585D01*
D02*
G37*
G36*
X198000D02*
X196493Y141437D01*
X195043Y140997D01*
X193707Y140283D01*
X192536Y139322D01*
X191575Y138151D01*
X190861Y136815D01*
X190421Y135366D01*
X190273Y133858D01*
X190421Y132351D01*
X190861Y130901D01*
X191575Y129565D01*
X192536Y128394D01*
X193707Y127434D01*
X195043Y126719D01*
X196493Y126280D01*
X198000Y126131D01*
X199507Y126280D01*
X200957Y126719D01*
X202293Y127434D01*
X203464Y128394D01*
X204425Y129565D01*
X205139Y130901D01*
X205578Y132351D01*
X205727Y133858D01*
X205578Y135366D01*
X205139Y136815D01*
X204425Y138151D01*
X203464Y139322D01*
X202293Y140283D01*
X200957Y140997D01*
X199507Y141437D01*
X198000Y141585D01*
D02*
G37*
G36*
X155000D02*
X153492Y141437D01*
X152043Y140997D01*
X150707Y140283D01*
X149536Y139322D01*
X148575Y138151D01*
X147861Y136815D01*
X147422Y135366D01*
X147273Y133858D01*
X147422Y132351D01*
X147861Y130901D01*
X148575Y129565D01*
X149536Y128394D01*
X150707Y127434D01*
X152043Y126719D01*
X153492Y126280D01*
X155000Y126131D01*
X156508Y126280D01*
X157957Y126719D01*
X159293Y127434D01*
X160464Y128394D01*
X161425Y129565D01*
X162139Y130901D01*
X162578Y132351D01*
X162727Y133858D01*
X162578Y135366D01*
X162139Y136815D01*
X161425Y138151D01*
X160464Y139322D01*
X159293Y140283D01*
X157957Y140997D01*
X156508Y141437D01*
X155000Y141585D01*
D02*
G37*
%LPD*%
D14*
X179057Y387247D02*
Y415805D01*
X179342Y416090D01*
X187152Y423900D01*
X434100D01*
X448658Y409342D01*
X434763Y425500D02*
X449321Y410942D01*
X144250Y425500D02*
X434763D01*
X95750Y377000D02*
X144250Y425500D01*
X461826Y231800D02*
X466614Y227012D01*
X450090Y231800D02*
X461826D01*
X450040Y231750D02*
X450090Y231800D01*
X418914Y231750D02*
X450040D01*
X95750Y296831D02*
Y377000D01*
X449321Y410942D02*
X467065D01*
X448658Y409342D02*
X467727D01*
X481535Y423150D01*
X467065Y410942D02*
X480872Y424750D01*
X481535Y423150D02*
X494837D01*
X499150Y418837D01*
Y314400D02*
Y418837D01*
X489250Y304500D02*
X499150Y314400D01*
X484500Y304500D02*
X489250D01*
X483000Y303000D02*
X484500Y304500D01*
X483000Y294669D02*
Y303000D01*
X478213Y289882D02*
X483000Y294669D01*
X495500Y424750D02*
X500750Y419500D01*
X480872Y424750D02*
X495500D01*
X500750Y312419D02*
Y419500D01*
X488055Y299724D02*
X500750Y312419D01*
X385200Y282250D02*
X443250D01*
X378292Y275342D02*
X385200Y282250D01*
X429113Y234113D02*
X437802Y242802D01*
X419101Y234113D02*
X429113D01*
X410781Y242433D02*
X419101Y234113D01*
X298586Y266250D02*
X375000D01*
X297336Y267500D02*
X298586Y266250D01*
X297000Y267500D02*
X297336D01*
X375000Y266250D02*
X378292Y269542D01*
Y275342D01*
X278883Y258750D02*
X287304Y250328D01*
X310281D01*
Y254257D01*
X314774Y258750D01*
X323067Y246500D02*
X349397D01*
X352191Y243706D01*
X360295Y249306D02*
X367168Y242433D01*
X356151Y249306D02*
X360295D01*
X352191Y243706D02*
X356954D01*
X356009Y242106D02*
X364365Y233750D01*
X323121Y242106D02*
X356009D01*
X353351Y246506D02*
X356151Y249306D01*
X359095Y246506D02*
X364968Y240633D01*
X356954Y243706D02*
X365110Y235550D01*
X367168Y242433D02*
X410781D01*
X365110Y235550D02*
X393673D01*
X364365Y233750D02*
X380473D01*
X266809Y258750D02*
X270066Y262007D01*
X285500D01*
X288233Y259274D01*
Y258750D02*
Y259274D01*
X261890Y245500D02*
X262914Y244477D01*
X236143Y245500D02*
X261890D01*
X191369Y241677D02*
X318244D01*
X190623Y239877D02*
X320892D01*
X318244Y241677D02*
X323067Y246500D01*
X320892Y239877D02*
X322791Y241776D01*
X323121Y242106D01*
X340693Y229557D02*
X340750Y229500D01*
X340693Y229557D02*
Y238357D01*
X410031Y240633D02*
X418914Y231750D01*
X364968Y240633D02*
X410031D01*
X475890Y311360D02*
X477350Y309900D01*
X185182Y245318D02*
X190623Y239877D01*
X187016Y246030D02*
X191369Y241677D01*
X437802Y242802D02*
Y245177D01*
X148356Y261500D02*
X175046D01*
X145000Y264856D02*
X148356Y261500D01*
X145000Y264856D02*
Y273677D01*
X175046Y261500D02*
X187016Y249530D01*
X145000Y248264D02*
Y254436D01*
X148064Y257500D01*
X151856D01*
Y246012D02*
X152000D01*
X159856Y257500D02*
X176500D01*
X187016Y246030D02*
Y249530D01*
X176500Y257500D02*
X185182Y248818D01*
Y245318D02*
Y248818D01*
X393673Y235550D02*
X398973Y230250D01*
X380473Y233750D02*
X383973Y230250D01*
X237127Y231070D02*
Y235579D01*
X234648Y238059D02*
X237127Y235579D01*
X215887Y238059D02*
X234648D01*
X212910Y235082D02*
X215887Y238059D01*
X212910Y231137D02*
Y235082D01*
D20*
X451250Y224864D02*
Y228000D01*
Y224864D02*
X453500Y222614D01*
Y184252D02*
Y222614D01*
X461876Y283717D02*
X470250Y275342D01*
X461876Y283717D02*
Y303073D01*
X478213Y319409D01*
D92*
X151856Y257500D02*
X159856D01*
D94*
X442322Y297428D02*
X488350Y251400D01*
Y241400D02*
Y251400D01*
X442322Y297428D02*
Y387013D01*
X435500Y296250D02*
X482500Y249250D01*
X438750Y296750D02*
X485750Y249750D01*
X482500Y191500D02*
Y249250D01*
X438750Y296750D02*
Y315833D01*
X435500Y296250D02*
Y317250D01*
X485750Y181861D02*
Y249750D01*
X479500Y196854D02*
Y248573D01*
X449823Y278250D02*
X479500Y248573D01*
X436091Y278250D02*
X449823D01*
X473500Y190854D02*
X479500Y196854D01*
Y188500D02*
X482500Y191500D01*
X473500Y157500D02*
Y190854D01*
Y157500D02*
X479500Y151500D01*
X435500Y356000D02*
X438800Y352700D01*
Y315883D02*
Y352700D01*
X438750Y315833D02*
X438800Y315883D01*
X435500Y393834D02*
X442322Y387013D01*
X488350Y241400D02*
X489750Y240000D01*
Y173750D02*
Y240000D01*
X479500Y163500D02*
X489750Y173750D01*
X479500Y175611D02*
X485750Y181861D01*
D96*
X125000Y322250D02*
D03*
Y366250D02*
D03*
D97*
X82250Y133750D02*
D03*
X198000Y133858D02*
D03*
X155000D02*
D03*
X284000D02*
D03*
X241000D02*
D03*
X369500D02*
D03*
X327000D02*
D03*
X453500D02*
D03*
X411500D02*
D03*
D98*
X82250Y184144D02*
D03*
Y162490D02*
D03*
X198000Y162598D02*
D03*
Y184252D02*
D03*
X155000Y162598D02*
D03*
Y184252D02*
D03*
X284000Y162598D02*
D03*
Y184252D02*
D03*
X241000Y162598D02*
D03*
Y184252D02*
D03*
X369500Y162598D02*
D03*
Y184252D02*
D03*
X327000Y162598D02*
D03*
Y184252D02*
D03*
X453500Y162598D02*
D03*
Y184252D02*
D03*
X411500Y162598D02*
D03*
Y184252D02*
D03*
D99*
X424250Y243378D02*
D03*
Y254750D02*
D03*
X479500Y175611D02*
D03*
X250850Y405750D02*
D03*
X118500Y153500D02*
D03*
X479500Y139000D02*
D03*
X118500Y142000D02*
D03*
X479500Y188500D02*
D03*
Y163500D02*
D03*
Y151500D02*
D03*
D100*
X478213Y329252D02*
D03*
Y319409D02*
D03*
Y309567D02*
D03*
Y299724D02*
D03*
Y289882D02*
D03*
Y280039D02*
D03*
Y270197D02*
D03*
X488055Y329252D02*
D03*
Y319409D02*
D03*
Y309567D02*
D03*
Y299724D02*
D03*
Y289882D02*
D03*
Y280039D02*
D03*
Y270197D02*
D03*
X478657Y413519D02*
D03*
Y403677D02*
D03*
Y393834D02*
D03*
Y383992D02*
D03*
Y374149D02*
D03*
Y364307D02*
D03*
Y354464D02*
D03*
X488500Y413519D02*
D03*
Y403677D02*
D03*
Y393834D02*
D03*
Y383992D02*
D03*
Y374149D02*
D03*
Y364307D02*
D03*
Y354464D02*
D03*
D101*
X516500Y270000D02*
D03*
Y328957D02*
D03*
X516945Y354268D02*
D03*
Y413224D02*
D03*
D102*
X461000Y424250D02*
D03*
X76500D02*
D03*
X517750Y117500D02*
D03*
X117500D02*
D03*
D103*
X274894Y302941D02*
D03*
X270170D02*
D03*
X274894Y308059D02*
D03*
X279225D02*
D03*
X279225Y302941D02*
D03*
X270170Y308059D02*
D03*
X269338Y385309D02*
D03*
X278393Y380191D02*
D03*
X278393Y385309D02*
D03*
X274063D02*
D03*
X269338Y380191D02*
D03*
X274063D02*
D03*
X340000Y366441D02*
D03*
X335276D02*
D03*
X340000Y371559D02*
D03*
X344331D02*
D03*
X344331Y366441D02*
D03*
X335276Y371559D02*
D03*
X334776Y304059D02*
D03*
X343831Y298941D02*
D03*
X343831Y304059D02*
D03*
X334776Y298941D02*
D03*
X339500D02*
D03*
Y304059D02*
D03*
D104*
X451250Y228000D02*
D03*
X470250Y275342D02*
D03*
X443250Y282250D02*
D03*
X436091Y278250D02*
D03*
X435500Y393834D02*
D03*
Y356000D02*
D03*
Y317250D02*
D03*
X89767Y220250D02*
D03*
X279774Y418750D02*
D03*
X179057Y387247D02*
D03*
X179342Y416090D02*
D03*
X95750Y281000D02*
D03*
X86318Y315988D02*
D03*
X95750Y296831D02*
D03*
X296738Y284622D02*
D03*
X287000Y294639D02*
D03*
X287116Y298254D02*
D03*
Y301911D02*
D03*
X286547Y328500D02*
D03*
X353016Y238694D02*
D03*
X297000Y267500D02*
D03*
X378292Y275342D02*
D03*
X314774Y258750D02*
D03*
X333469Y263086D02*
D03*
X327050Y249500D02*
D03*
X371534Y275153D02*
D03*
X353351Y246506D02*
D03*
X359095D02*
D03*
X266809Y258750D02*
D03*
X288233D02*
D03*
X266809Y265157D02*
D03*
X262914Y244477D02*
D03*
X296632Y262007D02*
D03*
X278883Y258750D02*
D03*
X315089Y250328D02*
D03*
X310281D02*
D03*
X322791Y241776D02*
D03*
X323067Y246500D02*
D03*
X313939Y235818D02*
D03*
X299200Y235924D02*
D03*
X328507Y232872D02*
D03*
X340750Y229500D02*
D03*
X351565Y392001D02*
D03*
X286149Y405750D02*
D03*
X340693Y238357D02*
D03*
X373851Y230250D02*
D03*
X198143Y245395D02*
D03*
X202643Y245407D02*
D03*
X207143D02*
D03*
X211643Y245395D02*
D03*
X236143Y245500D02*
D03*
X231643Y245512D02*
D03*
X227143D02*
D03*
X222643Y245500D02*
D03*
X398973Y230250D02*
D03*
X383973D02*
D03*
X391351D02*
D03*
X364000Y283592D02*
D03*
X354000Y296828D02*
D03*
Y299898D02*
D03*
X373000Y293000D02*
D03*
X389675Y331699D02*
D03*
Y327108D02*
D03*
Y322565D02*
D03*
X385282Y331699D02*
D03*
Y327108D02*
D03*
Y322565D02*
D03*
X317107Y321956D02*
D03*
Y326500D02*
D03*
Y331091D02*
D03*
X321500Y321956D02*
D03*
Y326500D02*
D03*
Y331091D02*
D03*
X266000Y250328D02*
D03*
X457222Y251000D02*
D03*
X472000Y247500D02*
D03*
X437802Y245177D02*
D03*
X466614Y227012D02*
D03*
X473500Y229000D02*
D03*
X443386Y226114D02*
D03*
X502500Y253000D02*
D03*
Y199500D02*
D03*
X405616Y259750D02*
D03*
Y235494D02*
D03*
X393851Y252703D02*
D03*
X222500Y231070D02*
D03*
X218500Y231000D02*
D03*
X212910Y231137D02*
D03*
X237127Y231070D02*
D03*
X197860Y231012D02*
D03*
X193360Y231000D02*
D03*
X202360Y231012D02*
D03*
X206860Y231000D02*
D03*
X198143Y223433D02*
D03*
X202643D02*
D03*
X193643Y223421D02*
D03*
X207143D02*
D03*
X231643Y223526D02*
D03*
X218143D02*
D03*
X227143Y223538D02*
D03*
X222643D02*
D03*
X231360Y231105D02*
D03*
X226860Y231117D02*
D03*
X198143Y227012D02*
D03*
X202643D02*
D03*
X193643Y227000D02*
D03*
X207143D02*
D03*
X231643Y227105D02*
D03*
X218143D02*
D03*
X227143Y227117D02*
D03*
X222643D02*
D03*
X227000Y253512D02*
D03*
X222500Y249488D02*
D03*
X227000Y249500D02*
D03*
X231500D02*
D03*
Y253512D02*
D03*
X222500Y253500D02*
D03*
X236000D02*
D03*
Y249488D02*
D03*
X211500Y249383D02*
D03*
Y253395D02*
D03*
X198000D02*
D03*
X207000Y253407D02*
D03*
Y249395D02*
D03*
X202500D02*
D03*
X198000Y249383D02*
D03*
X202500Y253407D02*
D03*
X111000Y289488D02*
D03*
X120000Y289500D02*
D03*
Y285488D02*
D03*
X115500D02*
D03*
X111000Y285476D02*
D03*
X115500Y289500D02*
D03*
X120000Y280988D02*
D03*
X115500D02*
D03*
X111000Y280976D02*
D03*
X120000Y276988D02*
D03*
X115500D02*
D03*
X111000Y276976D02*
D03*
X138500Y289488D02*
D03*
X134000D02*
D03*
X129500Y289476D02*
D03*
X138500Y285476D02*
D03*
X134000D02*
D03*
X129500Y285465D02*
D03*
X138500Y280988D02*
D03*
X134000D02*
D03*
X129500Y280976D02*
D03*
X138500Y276976D02*
D03*
X134000D02*
D03*
X129500Y276965D02*
D03*
X170500Y276976D02*
D03*
X175000Y276988D02*
D03*
X179500D02*
D03*
X170500Y280988D02*
D03*
X175000Y281000D02*
D03*
X179500D02*
D03*
X170500Y285476D02*
D03*
X175000Y285488D02*
D03*
X179500D02*
D03*
X170500Y289488D02*
D03*
X175000Y289500D02*
D03*
X179500D02*
D03*
X152000Y276988D02*
D03*
X156500Y277000D02*
D03*
X161000D02*
D03*
X152000Y280988D02*
D03*
X156500Y281000D02*
D03*
X161000D02*
D03*
X156500Y289512D02*
D03*
X152000Y285488D02*
D03*
X156500Y285500D02*
D03*
X161000D02*
D03*
Y289512D02*
D03*
X152000Y289500D02*
D03*
Y246012D02*
D03*
X161000Y246024D02*
D03*
Y242012D02*
D03*
X156500D02*
D03*
X152000Y242000D02*
D03*
X156500Y246024D02*
D03*
X161000Y237512D02*
D03*
X156500D02*
D03*
X152000Y237500D02*
D03*
X161000Y233512D02*
D03*
X156500D02*
D03*
X152000Y233500D02*
D03*
X179500Y246012D02*
D03*
X175000D02*
D03*
X170500Y246000D02*
D03*
X179500Y242000D02*
D03*
X175000D02*
D03*
X170500Y241988D02*
D03*
X179500Y237512D02*
D03*
X175000D02*
D03*
X170500Y237500D02*
D03*
X179500Y233500D02*
D03*
X175000D02*
D03*
X170500Y233488D02*
D03*
X129500Y233476D02*
D03*
X134000Y233488D02*
D03*
X138500D02*
D03*
X129500Y237488D02*
D03*
X134000Y237500D02*
D03*
X138500D02*
D03*
X129500Y241976D02*
D03*
X134000Y241988D02*
D03*
X138500D02*
D03*
X129500Y245988D02*
D03*
X134000Y246000D02*
D03*
X138500D02*
D03*
X111000Y233488D02*
D03*
X115500Y233500D02*
D03*
X120000D02*
D03*
X111000Y237488D02*
D03*
X115500Y237500D02*
D03*
X120000D02*
D03*
X115500Y246012D02*
D03*
X111000Y241988D02*
D03*
X115500Y242000D02*
D03*
X120000D02*
D03*
Y246012D02*
D03*
X111000Y246000D02*
D03*
D105*
X84531Y329458D02*
D03*
X80172D02*
D03*
X75933D02*
D03*
Y333553D02*
D03*
X84531Y333553D02*
D03*
X80172Y333553D02*
D03*
X84531Y337690D02*
D03*
X80172D02*
D03*
X75933D02*
D03*
X361482Y352000D02*
D03*
X286080Y371559D02*
D03*
X293917Y358250D02*
D03*
X293542Y366441D02*
D03*
X354143Y357406D02*
D03*
X361482Y356000D02*
D03*
D122*
X159856Y257500D02*
D03*
X151856D02*
D03*
M02*
