%TF.GenerationSoftware,Altium Limited,Altium Designer,23.4.1 (23)*%
G04 Layer_Color=32896*
%FSLAX45Y45*%
%MOMM*%
%TF.SameCoordinates,D7948EBF-BAFE-4555-BCF9-67E6E8CB6B5E*%
%TF.FilePolarity,Positive*%
%TF.FileFunction,Legend,Bot*%
%TF.Part,Single*%
G01*
G75*
%TA.AperFunction,NonConductor*%
%ADD41C,0.25000*%
%ADD42C,0.25400*%
%ADD43C,0.20000*%
G36*
X3695699Y7384037D02*
X3501799D01*
Y8178801D01*
X3695699D01*
Y7384037D01*
D02*
G37*
G36*
X9538705Y7275923D02*
X9559870Y7274159D01*
X9581035Y7268868D01*
X9598673Y7263577D01*
X9614547Y7258285D01*
X9625130Y7254758D01*
X9632185Y7251230D01*
X9635712Y7249466D01*
X9655114Y7238884D01*
X9672752Y7230065D01*
X9686862Y7221246D01*
X9697444Y7212427D01*
X9706263Y7205372D01*
X9711555Y7200081D01*
X9715082Y7198317D01*
X9716846Y7196553D01*
X9734484Y7178915D01*
X9746830Y7164805D01*
X9755649Y7154222D01*
X9759177Y7152459D01*
Y7157750D01*
X9760940Y7166569D01*
X9762704Y7173624D01*
X9764468Y7175388D01*
X9767995Y7185970D01*
X9771523Y7193025D01*
X9773287Y7198317D01*
Y7200081D01*
X9778578Y7210663D01*
X9780342Y7212427D01*
Y7214191D01*
X9782106Y7207136D01*
X9783869Y7198317D01*
X9794452Y7180679D01*
X9808562Y7163041D01*
X9822673Y7145404D01*
X9838546Y7129530D01*
X9852657Y7117183D01*
X9861476Y7108364D01*
X9863239Y7104837D01*
X9865003D01*
X9866767Y7103073D01*
X9870294Y7104837D01*
X9872058Y7106600D01*
Y7117183D01*
Y7120711D01*
Y7122474D01*
X9870294Y7129530D01*
X9868531Y7136585D01*
X9866767Y7141876D01*
Y7143640D01*
X9865003Y7152459D01*
X9863239Y7161278D01*
X9859712Y7166569D01*
Y7168333D01*
X9856184Y7177152D01*
X9854420Y7182443D01*
X9852657Y7184207D01*
Y7185970D01*
X9849129Y7191262D01*
Y7193025D01*
X9865003Y7177152D01*
X9879113Y7159514D01*
X9903806Y7126002D01*
X9921444Y7092490D01*
X9933790Y7062506D01*
X9942609Y7037813D01*
X9947901Y7016648D01*
X9949664Y7009593D01*
X9951428Y7004301D01*
Y7000774D01*
Y6999010D01*
Y6986664D01*
Y6981372D01*
Y6979609D01*
X9974357Y6965498D01*
X9993759Y6953152D01*
X10002578Y6947861D01*
X10007869Y6944333D01*
X10011397Y6942569D01*
X10013160Y6940806D01*
X10034326Y6970790D01*
X10055491Y6999010D01*
X10076656Y7023703D01*
X10096058Y7046632D01*
X10111932Y7064270D01*
X10126042Y7078380D01*
X10133097Y7085435D01*
X10136625Y7088963D01*
X10159554Y7111892D01*
X10182483Y7131293D01*
X10201884Y7148931D01*
X10217758Y7161278D01*
X10231869Y7171860D01*
X10242451Y7180679D01*
X10249506Y7184207D01*
X10251270Y7185970D01*
X10286546Y7207136D01*
X10302420Y7217719D01*
X10318294Y7224774D01*
X10330640Y7231829D01*
X10339459Y7237120D01*
X10346514Y7238884D01*
X10348278Y7240648D01*
X10365916Y7247703D01*
X10380026Y7254758D01*
X10390608Y7258285D01*
X10399427Y7261813D01*
X10406482Y7265341D01*
X10411774Y7267104D01*
X10415301D01*
X10425884Y7268868D01*
X10432939Y7270632D01*
X10438230Y7272396D01*
X10439994D01*
X10424120Y7252994D01*
X10411774Y7231829D01*
X10401191Y7207136D01*
X10394136Y7184207D01*
X10388845Y7161278D01*
X10385317Y7143640D01*
Y7136585D01*
X10383553Y7133057D01*
Y7129530D01*
Y7127766D01*
X10380026Y7090727D01*
X10374734Y7055451D01*
X10372971Y7021939D01*
X10369443Y6991955D01*
X10367679Y6967262D01*
Y6947861D01*
X10365916Y6940806D01*
Y6935514D01*
Y6931987D01*
Y6930223D01*
X10362388Y6896711D01*
X10357097Y6866727D01*
X10351805Y6843798D01*
X10344750Y6824397D01*
X10339459Y6810286D01*
X10335931Y6799704D01*
X10332404Y6794412D01*
X10330640Y6792649D01*
X10321821Y6778538D01*
X10318294Y6773247D01*
Y6771483D01*
X10348278Y6782066D01*
X10362388Y6787357D01*
X10376498Y6790885D01*
X10387081Y6792649D01*
X10395900Y6794412D01*
X10401191Y6796176D01*
X10402955D01*
X10372971Y6764428D01*
X10358860Y6750318D01*
X10348278Y6736208D01*
X10339459Y6723861D01*
X10332404Y6715042D01*
X10328876Y6707987D01*
X10327112Y6706224D01*
X10364152Y6704460D01*
X10381789Y6702696D01*
X10397663Y6700932D01*
X10411774Y6697405D01*
X10422356Y6695641D01*
X10429411Y6693877D01*
X10431175D01*
X10408246Y6676239D01*
X10390608Y6656838D01*
X10376498Y6637436D01*
X10365916Y6619799D01*
X10358860Y6603925D01*
X10355333Y6591578D01*
X10351805Y6582759D01*
Y6579232D01*
Y6577468D01*
Y6573940D01*
X10357097Y6577468D01*
X10365916D01*
X10385317Y6573940D01*
X10394136Y6572177D01*
X10401191Y6570413D01*
X10405160Y6567767D01*
X10408246Y6566885D01*
X10406482D01*
X10405160Y6567767D01*
X10395900Y6570413D01*
X10387081Y6568649D01*
X10378262Y6566885D01*
X10372971Y6565121D01*
X10371207Y6563358D01*
X10362388Y6558066D01*
X10357097Y6551011D01*
X10355333Y6543956D01*
X10353569Y6542192D01*
X10365916Y6510444D01*
X10378262Y6478696D01*
X10390608Y6450476D01*
X10401191Y6425783D01*
X10411774Y6402854D01*
X10418829Y6386980D01*
X10424120Y6376397D01*
X10425884Y6374634D01*
Y6372870D01*
X10455868Y6307610D01*
X10469978Y6277626D01*
X10480561Y6249406D01*
X10491144Y6226476D01*
X10498199Y6207075D01*
X10499962Y6200020D01*
X10501726Y6194729D01*
X10503490Y6192965D01*
Y6191201D01*
X10510545Y6170036D01*
X10517600Y6152398D01*
X10524655Y6134760D01*
X10528183Y6125941D01*
X10529947Y6120650D01*
X10533474Y6117122D01*
Y6115359D01*
X10544057Y6094193D01*
X10551112Y6080083D01*
X10558167Y6069500D01*
X10559931Y6067737D01*
Y6065973D01*
X10568750Y6055390D01*
X10579332Y6041280D01*
X10588151Y6030697D01*
X10589915Y6028934D01*
X10591679Y6027170D01*
X10605789Y6009532D01*
X10616372Y5995422D01*
X10625191Y5986603D01*
X10626954Y5984839D01*
X10626955Y5983075D01*
X10635773Y5970729D01*
X10641065Y5958383D01*
X10644592Y5949564D01*
X10646356Y5947800D01*
Y5946036D01*
X10607553Y5981312D01*
X10595206Y5991894D01*
X10586388Y5997186D01*
X10579332Y6000713D01*
X10575805Y6002477D01*
X10570514D01*
Y6000713D01*
Y5997186D01*
X10572277Y5991894D01*
X10574041Y5988367D01*
X10575805Y5986603D01*
X10579333Y5979548D01*
X10582860Y5970729D01*
X10586388Y5965438D01*
X10588152Y5961910D01*
X10593443Y5951327D01*
X10598734Y5942509D01*
X10602262Y5937217D01*
X10604026Y5935453D01*
X10612844Y5916052D01*
X10619900Y5896650D01*
X10625191Y5879013D01*
X10628718Y5861375D01*
X10630482Y5847265D01*
X10632246Y5836682D01*
Y5829627D01*
Y5826099D01*
Y5822572D01*
Y5820808D01*
Y5819044D01*
X10623427Y5831391D01*
X10616372Y5840210D01*
X10611081Y5847265D01*
X10609317Y5849028D01*
X10602262Y5857847D01*
X10596970Y5863139D01*
X10591679Y5864902D01*
X10588152Y5866666D01*
X10584624Y5863139D01*
Y5861375D01*
Y5854320D01*
Y5843737D01*
Y5822572D01*
Y5811989D01*
Y5803170D01*
Y5797879D01*
Y5796115D01*
X10586388Y5760840D01*
Y5744966D01*
X10588152Y5730855D01*
Y5720273D01*
Y5711454D01*
Y5706163D01*
Y5704399D01*
X10591679Y5676178D01*
X10595207Y5653249D01*
X10598734Y5635612D01*
X10600498Y5621501D01*
X10604026Y5612682D01*
X10607553Y5605627D01*
X10609317Y5602100D01*
Y5600336D01*
X10584624Y5623265D01*
X10581096Y5587990D01*
X10575805Y5554478D01*
X10568750Y5522730D01*
X10559931Y5492746D01*
X10552876Y5466289D01*
X10544057Y5441596D01*
X10533474Y5418667D01*
X10524656Y5399266D01*
X10515837Y5381628D01*
X10507018Y5365754D01*
X10499963Y5351644D01*
X10492908Y5341061D01*
X10487616Y5332242D01*
X10482325Y5326951D01*
X10480561Y5323423D01*
X10478797Y5321659D01*
X10461160Y5302258D01*
X10443522Y5284620D01*
X10406483Y5254636D01*
X10369443Y5229943D01*
X10334168Y5212305D01*
X10302420Y5198195D01*
X10288310Y5192904D01*
X10277727Y5189376D01*
X10267144Y5185849D01*
X10260089Y5184085D01*
X10256562Y5182321D01*
X10254798D01*
X10224814Y5177030D01*
X10196593Y5173502D01*
X10138389Y5169974D01*
X10083712Y5171738D01*
X10057255Y5173502D01*
X10032562Y5177030D01*
X10011397Y5178793D01*
X9990231Y5182321D01*
X9972594Y5185848D01*
X9956720Y5189376D01*
X9946137Y5192904D01*
X9935554Y5194667D01*
X9930263Y5196431D01*
X9928499D01*
X9896751Y5205250D01*
X9866767Y5215833D01*
X9840311Y5226415D01*
X9813854Y5236998D01*
X9790925Y5247581D01*
X9769759Y5259927D01*
X9750358Y5270510D01*
X9732720Y5281092D01*
X9716846Y5289911D01*
X9702736Y5298730D01*
X9692153Y5307549D01*
X9681571Y5314604D01*
X9674516Y5319895D01*
X9669224Y5325187D01*
X9667460Y5326950D01*
X9665697Y5328714D01*
X9635713Y5355171D01*
X9605728Y5381628D01*
X9577508Y5404557D01*
X9552815Y5425722D01*
X9529886Y5441596D01*
X9512248Y5455706D01*
X9506957Y5459234D01*
X9501666Y5462761D01*
X9499902Y5466289D01*
X9498138D01*
X9480500Y5475108D01*
X9462862Y5483927D01*
X9455807Y5485690D01*
X9452280Y5489218D01*
X9448752Y5490982D01*
X9446988D01*
X9434642Y5494509D01*
X9424059Y5499801D01*
X9415241Y5501564D01*
X9411713Y5503328D01*
X9376437Y5513911D01*
X9342926Y5524493D01*
X9311178Y5531548D01*
X9281194Y5538604D01*
X9252973Y5543895D01*
X9226516Y5547422D01*
X9203587Y5550950D01*
X9180658Y5552714D01*
X9159493Y5554478D01*
X9104816D01*
X9095997Y5552714D01*
X9090706D01*
X9143619Y5559769D01*
X9168312Y5561533D01*
X9189477Y5563296D01*
X9208879D01*
X9222989Y5565060D01*
X9318233D01*
X9304123Y5572115D01*
X9290012Y5577407D01*
X9279430Y5580934D01*
X9277666Y5582698D01*
X9275902D01*
X9224753Y5596808D01*
X9171839Y5605627D01*
X9118926Y5609155D01*
X9069540D01*
X9048375Y5607391D01*
X9027210D01*
X9009572Y5605627D01*
X8993698Y5603863D01*
X8981352Y5602100D01*
X8970769D01*
X8965478Y5600336D01*
X8963714D01*
X8993698Y5617974D01*
X9023682Y5635611D01*
X9051903Y5649721D01*
X9076596Y5662068D01*
X9097761Y5672651D01*
X9113635Y5679706D01*
X9124217Y5684997D01*
X9125981Y5686761D01*
X9127745D01*
X9187713Y5707926D01*
X9251209Y5723800D01*
X9311178Y5734383D01*
X9339398Y5737910D01*
X9367619Y5741438D01*
X9392311Y5743202D01*
X9417004Y5744965D01*
X9436406D01*
X9454044Y5746729D01*
X9489319D01*
X9526358Y5748493D01*
X9556343Y5755548D01*
X9581035Y5766131D01*
X9598673Y5776713D01*
X9612783Y5787296D01*
X9623366Y5797879D01*
X9628657Y5804934D01*
X9630421Y5806698D01*
X9611020Y5794351D01*
X9591618Y5787296D01*
X9573980Y5783768D01*
X9538705D01*
X9526358Y5787296D01*
X9519303Y5789060D01*
X9522831D01*
X9531650Y5790824D01*
X9538705Y5796115D01*
X9549287Y5801406D01*
X9566925Y5815516D01*
X9586327Y5833154D01*
X9603965Y5850792D01*
X9618075Y5864902D01*
X9626894Y5877249D01*
X9628657Y5879012D01*
X9630421Y5880776D01*
X9623366Y5877249D01*
X9616311Y5873721D01*
X9612783Y5871957D01*
X9611020D01*
X9596909Y5864902D01*
X9582799Y5861375D01*
X9573980Y5859611D01*
X9570453D01*
X9577508Y5861375D01*
X9582799Y5866666D01*
X9593382Y5877249D01*
X9600437Y5887831D01*
X9603965Y5889595D01*
Y5891359D01*
X9612783Y5914288D01*
X9618075Y5935453D01*
X9621602Y5944272D01*
Y5951327D01*
X9623366Y5954855D01*
Y5956619D01*
Y5968965D01*
Y5974256D01*
Y5976020D01*
X9621602Y5995422D01*
X9619838Y6013059D01*
X9618074Y6020114D01*
Y6025406D01*
X9616311Y6028933D01*
Y6030697D01*
X9596909Y6073028D01*
X9577508Y6115358D01*
X9558106Y6152398D01*
X9538705Y6185909D01*
X9521067Y6214130D01*
X9514012Y6226476D01*
X9508720Y6235295D01*
X9503429Y6244114D01*
X9499901Y6249405D01*
X9496374Y6252933D01*
Y6254697D01*
X9471681Y6256460D01*
X9448752Y6261752D01*
X9425823Y6270571D01*
X9404658Y6279390D01*
X9367618Y6304082D01*
X9334107Y6330539D01*
X9307650Y6356996D01*
X9297067Y6367578D01*
X9286485Y6378161D01*
X9279429Y6388744D01*
X9274138Y6395799D01*
X9272374Y6399326D01*
X9270611Y6401090D01*
X9247682Y6434602D01*
X9238863Y6448712D01*
X9230044Y6461058D01*
X9221225Y6471641D01*
X9215934Y6478696D01*
X9212406Y6483988D01*
X9210642Y6485751D01*
X9201823Y6478696D01*
X9198296Y6475169D01*
X9173603Y6450476D01*
X9150674Y6432838D01*
X9140091Y6425783D01*
X9133036Y6420492D01*
X9127745Y6416964D01*
X9125981Y6415200D01*
X9080123Y6394035D01*
X9057194Y6385216D01*
X9037792Y6378161D01*
X9021918Y6372870D01*
X9007808Y6369342D01*
X9000753Y6365815D01*
X8997225D01*
X9009572Y6374633D01*
X9021918Y6385216D01*
X9030737Y6395799D01*
X9037792Y6404618D01*
X9044847Y6413437D01*
X9048375Y6420492D01*
X9050139Y6425783D01*
X9051902Y6427547D01*
X9055430Y6439893D01*
X9057194Y6452240D01*
X9058957Y6459295D01*
Y6462822D01*
X9036028Y6455767D01*
X9016627Y6446948D01*
X8998989Y6436366D01*
X8984879Y6427547D01*
X8972532Y6416964D01*
X8963714Y6408145D01*
X8958422Y6402854D01*
X8956658Y6401090D01*
X8944312Y6383452D01*
X8935493Y6365815D01*
X8930202Y6349941D01*
X8924911Y6334067D01*
X8923147Y6319956D01*
X8921383Y6309374D01*
Y6302319D01*
Y6300555D01*
Y6297027D01*
Y6293500D01*
Y6289972D01*
Y6288208D01*
X8912564Y6321720D01*
X8905509Y6355232D01*
X8900218Y6386980D01*
X8896690Y6415200D01*
X8894926Y6438129D01*
X8893163Y6457531D01*
Y6464586D01*
Y6469877D01*
Y6471641D01*
Y6473405D01*
X8894926Y6519263D01*
X8896690Y6538665D01*
X8900218Y6558066D01*
X8901981Y6572176D01*
X8905509Y6584523D01*
X8907273Y6593342D01*
Y6595105D01*
X8917855Y6633908D01*
X8923147Y6653310D01*
X8930202Y6669184D01*
X8933729Y6681530D01*
X8939021Y6692113D01*
X8940785Y6699168D01*
X8942548Y6700932D01*
X8944312Y6702696D01*
Y6704460D01*
Y6706223D01*
X8947840Y6711515D01*
X8949603Y6713278D01*
X8937257Y6746790D01*
X8931966Y6759137D01*
X8928438Y6773247D01*
X8923147Y6799703D01*
X8921383Y6812050D01*
X8919619Y6822633D01*
X8917855Y6829688D01*
Y6831451D01*
X8912564Y6873782D01*
Y6894947D01*
Y6914349D01*
Y6930223D01*
Y6942569D01*
Y6949624D01*
Y6953152D01*
X8914328Y6979609D01*
X8919619Y7004301D01*
X8924911Y7030758D01*
X8930202Y7053687D01*
X8937257Y7073089D01*
X8942548Y7088963D01*
X8946076Y7099545D01*
X8947840Y7101309D01*
Y7103073D01*
X8960186Y7133057D01*
X8976060Y7163041D01*
X8991934Y7189498D01*
X9006044Y7212427D01*
X9020154Y7231829D01*
X9030737Y7245939D01*
X9037792Y7254758D01*
X9041320Y7258285D01*
X9094233Y7254758D01*
X9143619Y7251230D01*
X9191241Y7245939D01*
X9233571Y7240647D01*
X9252973Y7237120D01*
X9268847Y7235356D01*
X9282957Y7231829D01*
X9297067Y7230065D01*
X9305886Y7228301D01*
X9312941D01*
X9318233Y7226537D01*
X9319996D01*
X9337634Y7221246D01*
X9367618Y7215955D01*
X9395839Y7208899D01*
X9422295Y7201844D01*
X9445224Y7196553D01*
X9466390Y7191262D01*
X9480500Y7187734D01*
X9491083Y7185970D01*
X9492846Y7184207D01*
X9494610D01*
X9526358Y7173624D01*
X9540468Y7168333D01*
X9551051Y7163041D01*
X9561634Y7159514D01*
X9568689Y7155986D01*
X9573980Y7154222D01*
X9575744D01*
X9589854Y7148931D01*
X9603964Y7143640D01*
X9614547Y7140112D01*
X9616311Y7138348D01*
X9618074D01*
X9623366Y7147167D01*
X9625130Y7148931D01*
Y7150695D01*
X9623366Y7159514D01*
X9619838Y7170096D01*
X9609256Y7187734D01*
X9603964Y7194789D01*
X9600437Y7201844D01*
X9596909Y7205372D01*
X9595145Y7207136D01*
X9584563Y7219482D01*
X9575744Y7228301D01*
X9559870Y7244175D01*
X9551051Y7251230D01*
X9547523Y7254758D01*
X9535177Y7263577D01*
X9524594Y7272395D01*
X9517539Y7275923D01*
X9515775Y7277687D01*
X9538705Y7275923D01*
D02*
G37*
G36*
X8556281Y7485812D02*
X8591557Y7450537D01*
X8626832Y7415261D01*
X8663872Y7379985D01*
X8699147Y7348238D01*
X8736186Y7318253D01*
X8771462Y7291797D01*
X8804974Y7265340D01*
X8836722Y7242411D01*
X8864942Y7221246D01*
X8891399Y7203608D01*
X8912564Y7189498D01*
X8931966Y7177152D01*
X8944312Y7168333D01*
X8953131Y7163041D01*
X8956658Y7161278D01*
X8947840Y7140112D01*
X8939021Y7124238D01*
X8937257Y7117183D01*
X8933729Y7111892D01*
X8931966Y7108364D01*
Y7106600D01*
X8896690Y7134821D01*
X8859651Y7166569D01*
X8822612Y7200081D01*
X8787336Y7233592D01*
X8718549Y7302379D01*
X8686801Y7337655D01*
X8655053Y7371167D01*
X8626832Y7401151D01*
X8602140Y7431135D01*
X8579210Y7457592D01*
X8559809Y7480521D01*
X8543935Y7498158D01*
X8533352Y7512269D01*
X8524533Y7521088D01*
X8522769Y7524615D01*
X8556281Y7485812D01*
D02*
G37*
G36*
X10207176Y7173624D02*
X10205412Y7168333D01*
X10159554Y7126002D01*
X10124278Y7094254D01*
X10108404Y7080144D01*
X10094294Y7064270D01*
X10081948Y7051923D01*
X10073129Y7041341D01*
X10066074Y7034286D01*
X10064310Y7032522D01*
X10048436Y7014884D01*
X10036089Y6999010D01*
X10025507Y6984900D01*
X10020215Y6974317D01*
X10016688Y6965498D01*
X10014924Y6960207D01*
X10013160Y6956680D01*
Y6954916D01*
X9960247Y6986664D01*
Y6995483D01*
Y6997246D01*
Y6999010D01*
X9958483Y7014884D01*
X9956719Y7028994D01*
X9954956Y7037813D01*
X9953192Y7039577D01*
Y7041341D01*
Y7046632D01*
X9954956Y7053687D01*
X9960247Y7060742D01*
X9965538Y7069561D01*
X9970830Y7076616D01*
X9976121Y7083671D01*
X9979649Y7087199D01*
X9981412Y7088963D01*
X9993759Y7103073D01*
X10009633Y7118947D01*
X10041381Y7147167D01*
X10055491Y7159514D01*
X10067837Y7168333D01*
X10074892Y7175388D01*
X10078420Y7177152D01*
X10127806Y7215955D01*
X10150735Y7233592D01*
X10171900Y7249466D01*
X10191302Y7261813D01*
X10207176Y7272395D01*
X10215995Y7279451D01*
X10217758Y7281214D01*
X10219522D01*
X10207176Y7173624D01*
D02*
G37*
G36*
X10459396Y6591578D02*
X10521128Y6547484D01*
X10551112Y6526318D01*
X10577569Y6503389D01*
X10604025Y6482224D01*
X10626954Y6462822D01*
X10648120Y6443421D01*
X10667521Y6425783D01*
X10683395Y6409909D01*
X10697505Y6395799D01*
X10708088Y6385216D01*
X10715143Y6376397D01*
X10720434Y6371106D01*
X10722198Y6369342D01*
X10748655Y6339358D01*
X10775112Y6307610D01*
X10828025Y6238823D01*
X10875647Y6171799D01*
X10898576Y6138288D01*
X10919741Y6106540D01*
X10939143Y6076556D01*
X10956780Y6048335D01*
X10970891Y6023642D01*
X10985001Y6002477D01*
X10995584Y5984839D01*
X11002639Y5970729D01*
X11007930Y5963674D01*
X11009694Y5960146D01*
X11043206Y5901942D01*
X11074954Y5847265D01*
X11106702Y5792588D01*
X11136686Y5741438D01*
X11166670Y5692052D01*
X11194890Y5642667D01*
X11223111Y5596808D01*
X11249568Y5552714D01*
X11274260Y5510383D01*
X11298953Y5469817D01*
X11321882Y5431014D01*
X11344811Y5395738D01*
X11365977Y5360462D01*
X11387142Y5326951D01*
X11406544Y5295203D01*
X11424181Y5266982D01*
X11441819Y5238762D01*
X11459457Y5214069D01*
X11473567Y5189376D01*
X11487677Y5168211D01*
X11501788Y5147046D01*
X11512370Y5129408D01*
X11522953Y5111770D01*
X11533535Y5097660D01*
X11542354Y5083550D01*
X11549409Y5072967D01*
X11556465Y5062384D01*
X11561756Y5055329D01*
X11568811Y5044747D01*
X11570575Y5041219D01*
X11530008Y5095896D01*
X11512370Y5118825D01*
X11491205Y5141754D01*
X11470040Y5166447D01*
X11448874Y5189376D01*
X11429473Y5210542D01*
X11413599Y5226416D01*
X11403016Y5236998D01*
X11401252Y5238762D01*
X11399489Y5240526D01*
X11365977Y5274037D01*
X11330701Y5307549D01*
X11297189Y5339297D01*
X11267205Y5367518D01*
X11240749Y5392210D01*
X11228402Y5402793D01*
X11219583Y5411612D01*
X11210764Y5418667D01*
X11205473Y5423958D01*
X11201946Y5425722D01*
X11200182Y5427486D01*
X11156087Y5464525D01*
X11110229Y5498037D01*
X11064371Y5531549D01*
X11020277Y5559769D01*
X11000875Y5572116D01*
X10983237Y5584462D01*
X10967363Y5595045D01*
X10953253Y5603864D01*
X10942671Y5610919D01*
X10933852Y5616210D01*
X10928560Y5617974D01*
X10926797Y5619738D01*
X10866828Y5655013D01*
X10808624Y5684997D01*
X10752183Y5711454D01*
X10727490Y5723800D01*
X10702797Y5734383D01*
X10681632Y5743202D01*
X10662230Y5752021D01*
X10644592Y5759076D01*
X10628718Y5764367D01*
X10616372Y5769659D01*
X10607553Y5773186D01*
X10602262Y5774950D01*
X10600498D01*
Y5783769D01*
Y5785532D01*
Y5787296D01*
Y5796115D01*
Y5799643D01*
Y5815517D01*
Y5827863D01*
Y5836682D01*
Y5838446D01*
X10609317Y5826099D01*
X10614608Y5817280D01*
X10618136Y5813753D01*
X10619900Y5811989D01*
X10621663Y5808462D01*
X10626955Y5806698D01*
X10630482Y5804934D01*
X10634010D01*
X10641065Y5808462D01*
X10644592Y5813753D01*
X10646356Y5817280D01*
Y5819044D01*
Y5826099D01*
Y5829627D01*
X10642829Y5863139D01*
X10641065Y5877249D01*
X10637537Y5891359D01*
X10634010Y5901942D01*
X10632246Y5908997D01*
X10628718Y5914288D01*
Y5916052D01*
X10676340Y5905469D01*
X10720435Y5894887D01*
X10762765Y5882540D01*
X10799805Y5870194D01*
X10817442Y5864902D01*
X10831553Y5859611D01*
X10845663Y5856084D01*
X10856245Y5850792D01*
X10865064Y5849028D01*
X10872119Y5845501D01*
X10875647Y5843737D01*
X10877411D01*
X10847427Y5896650D01*
X10815679Y5947800D01*
X10782167Y5998949D01*
X10746891Y6046571D01*
X10711616Y6092430D01*
X10674576Y6136524D01*
X10639301Y6177091D01*
X10604025Y6214130D01*
X10572277Y6247642D01*
X10542293Y6277626D01*
X10514073Y6305846D01*
X10491144Y6327012D01*
X10469978Y6344649D01*
X10455868Y6358760D01*
X10447049Y6365815D01*
X10443522Y6369342D01*
X10441758Y6371106D01*
Y6372870D01*
X10439994Y6376397D01*
X10438230Y6379925D01*
Y6381689D01*
X10424120Y6411673D01*
X10411774Y6439893D01*
X10401191Y6468114D01*
X10390608Y6491043D01*
X10381789Y6512208D01*
X10376498Y6528082D01*
X10372971Y6538665D01*
X10371207Y6542192D01*
Y6545720D01*
Y6547484D01*
X10378262Y6551011D01*
X10385317Y6552775D01*
X10408246D01*
X10415301Y6554539D01*
X10418829Y6558066D01*
X10420593Y6559830D01*
Y6561594D01*
X10424120Y6565121D01*
Y6566885D01*
X10422356Y6573940D01*
X10418829Y6579232D01*
X10415301Y6580995D01*
X10413537Y6582759D01*
X10397663Y6588051D01*
X10383553Y6591578D01*
X10372971Y6595106D01*
X10369443D01*
X10376498Y6610980D01*
X10381789Y6623326D01*
X10388845Y6630381D01*
X10390608Y6633909D01*
X10459396Y6591578D01*
D02*
G37*
G36*
X9607492Y5963674D02*
Y5960146D01*
Y5958382D01*
X9603965Y5937217D01*
X9598673Y5919579D01*
X9595146Y5912524D01*
X9593382Y5907233D01*
X9591618Y5905469D01*
Y5903705D01*
X9586327Y5894886D01*
X9582799Y5887831D01*
X9573980Y5879012D01*
X9570453Y5875485D01*
X9568689Y5873721D01*
X9563398D01*
X9556343Y5871957D01*
X9552815Y5866666D01*
X9551051Y5861375D01*
Y5859611D01*
Y5854320D01*
X9552815Y5850792D01*
X9554579Y5847264D01*
X9556343D01*
X9485792Y5838446D01*
X9417004Y5827863D01*
X9348217Y5815516D01*
X9279430Y5803170D01*
X9214170Y5789060D01*
X9148910Y5773186D01*
X9088942Y5759076D01*
X9032501Y5744965D01*
X8979588Y5730855D01*
X8931966Y5718509D01*
X8889635Y5706162D01*
X8854360Y5695580D01*
X8838486Y5690288D01*
X8824376Y5686761D01*
X8813793Y5683233D01*
X8803210Y5679706D01*
X8796155Y5677942D01*
X8790864Y5676178D01*
X8787336Y5674414D01*
X8785572D01*
X8709730Y5647957D01*
X8635652Y5621501D01*
X8561573Y5591517D01*
X8491022Y5561532D01*
X8420471Y5531548D01*
X8353447Y5499800D01*
X8289951Y5469816D01*
X8231747Y5441596D01*
X8177070Y5413375D01*
X8127684Y5388682D01*
X8083590Y5365753D01*
X8065952Y5355171D01*
X8048314Y5344588D01*
X8032440Y5335769D01*
X8018330Y5328714D01*
X8005983Y5321659D01*
X7995401Y5316368D01*
X7988346Y5311076D01*
X7983054Y5309312D01*
X7979527Y5305785D01*
X7977763D01*
X8062424Y5365753D01*
X8078298Y5378100D01*
X8095936Y5388682D01*
X8134739Y5415139D01*
X8175306Y5439832D01*
X8214109Y5462761D01*
X8249385Y5483926D01*
X8263495Y5492745D01*
X8277605Y5501564D01*
X8288188Y5506855D01*
X8297007Y5512147D01*
X8302298Y5513910D01*
X8304062Y5515674D01*
X8364030Y5549186D01*
X8425762Y5580934D01*
X8485731Y5610918D01*
X8513951Y5625028D01*
X8540408Y5639139D01*
X8565100Y5651485D01*
X8586266Y5662068D01*
X8607431Y5670887D01*
X8623305Y5679705D01*
X8637415Y5686761D01*
X8647998Y5692052D01*
X8655053Y5693816D01*
X8656817Y5695579D01*
X8732659Y5729091D01*
X8808502Y5762603D01*
X8884344Y5790824D01*
X8921383Y5804934D01*
X8954895Y5817280D01*
X8986643Y5827863D01*
X9016627Y5838446D01*
X9043084Y5847264D01*
X9064249Y5854320D01*
X9083651Y5861375D01*
X9095997Y5864902D01*
X9104816Y5868430D01*
X9108343D01*
X9203587Y5894886D01*
X9293540Y5917815D01*
X9337634Y5928398D01*
X9378201Y5935453D01*
X9417004Y5944272D01*
X9454044Y5949563D01*
X9487555Y5956619D01*
X9517540Y5960146D01*
X9543996Y5963674D01*
X9565161Y5967201D01*
X9582799Y5968965D01*
X9596909Y5970729D01*
X9603965Y5972492D01*
X9607492D01*
Y5963674D01*
D02*
G37*
G36*
X4006278Y6921500D02*
X3502914D01*
Y7353300D01*
X4006278D01*
Y6921500D01*
D02*
G37*
G36*
X5845995Y6878404D02*
X5847543Y6878263D01*
X5849021Y6878052D01*
X5850358Y6877770D01*
X5851694Y6877419D01*
X5852891Y6877067D01*
X5853946Y6876645D01*
X5855001Y6876222D01*
X5855916Y6875800D01*
X5856690Y6875378D01*
X5857393Y6875026D01*
X5857956Y6874675D01*
X5858378Y6874393D01*
X5858730Y6874182D01*
X5858941Y6874041D01*
X5859012Y6873971D01*
X5860067Y6873056D01*
X5860982Y6872071D01*
X5861826Y6870946D01*
X5862530Y6869750D01*
X5863163Y6868553D01*
X5863726Y6867287D01*
X5864218Y6866091D01*
X5864640Y6864895D01*
X5864992Y6863769D01*
X5865274Y6862714D01*
X5865485Y6861729D01*
X5865625Y6860884D01*
X5865766Y6860181D01*
X5865836Y6859618D01*
X5865907Y6859337D01*
Y6859196D01*
X5853524Y6858000D01*
X5853453Y6858985D01*
X5853313Y6859899D01*
X5852961Y6861518D01*
X5852539Y6862854D01*
X5852117Y6863910D01*
X5851624Y6864754D01*
X5851272Y6865317D01*
X5850991Y6865598D01*
X5850920Y6865739D01*
X5850006Y6866513D01*
X5848950Y6867146D01*
X5847895Y6867568D01*
X5846910Y6867850D01*
X5845995Y6867991D01*
X5845292Y6868131D01*
X5844659D01*
X5843251Y6868061D01*
X5842055Y6867780D01*
X5841000Y6867428D01*
X5840085Y6867006D01*
X5839382Y6866583D01*
X5838889Y6866232D01*
X5838537Y6865950D01*
X5838467Y6865880D01*
X5837693Y6864965D01*
X5837130Y6863910D01*
X5836779Y6862854D01*
X5836497Y6861869D01*
X5836356Y6860884D01*
X5836216Y6860181D01*
Y6859899D01*
Y6859688D01*
Y6859548D01*
Y6859477D01*
X5836356Y6858070D01*
X5836638Y6856663D01*
X5837060Y6855397D01*
X5837482Y6854271D01*
X5837975Y6853286D01*
X5838397Y6852512D01*
X5838608Y6852230D01*
X5838678Y6852019D01*
X5838819Y6851949D01*
Y6851879D01*
X5839241Y6851316D01*
X5839804Y6850612D01*
X5840507Y6849838D01*
X5841211Y6849064D01*
X5842900Y6847305D01*
X5844729Y6845546D01*
X5845573Y6844702D01*
X5846418Y6843858D01*
X5847121Y6843154D01*
X5847825Y6842521D01*
X5848388Y6842028D01*
X5848810Y6841606D01*
X5849091Y6841325D01*
X5849162Y6841255D01*
X5851061Y6839496D01*
X5852750Y6837807D01*
X5854368Y6836189D01*
X5855775Y6834711D01*
X5857042Y6833374D01*
X5858167Y6832038D01*
X5859223Y6830912D01*
X5860067Y6829857D01*
X5860841Y6828872D01*
X5861474Y6828098D01*
X5862037Y6827324D01*
X5862459Y6826761D01*
X5862741Y6826339D01*
X5863022Y6825987D01*
X5863092Y6825776D01*
X5863163Y6825705D01*
X5864359Y6823524D01*
X5865274Y6821343D01*
X5866047Y6819232D01*
X5866610Y6817333D01*
X5866821Y6816489D01*
X5866962Y6815715D01*
X5867103Y6815011D01*
X5867244Y6814448D01*
X5867314Y6813956D01*
Y6813604D01*
X5867384Y6813393D01*
Y6813322D01*
X5823762D01*
Y6824861D01*
X5848528D01*
X5847684Y6826057D01*
X5847262Y6826620D01*
X5846910Y6827183D01*
X5846558Y6827605D01*
X5846277Y6827957D01*
X5846066Y6828168D01*
X5845995Y6828238D01*
X5845644Y6828590D01*
X5845221Y6829083D01*
X5844729Y6829575D01*
X5844166Y6830138D01*
X5842970Y6831334D01*
X5841704Y6832530D01*
X5840507Y6833656D01*
X5839945Y6834148D01*
X5839452Y6834571D01*
X5839100Y6834922D01*
X5838819Y6835204D01*
X5838608Y6835344D01*
X5838537Y6835415D01*
X5837482Y6836400D01*
X5836497Y6837314D01*
X5835582Y6838229D01*
X5834738Y6839003D01*
X5834035Y6839777D01*
X5833331Y6840410D01*
X5832768Y6841043D01*
X5832205Y6841606D01*
X5831431Y6842521D01*
X5830798Y6843154D01*
X5830517Y6843576D01*
X5830376Y6843717D01*
X5829180Y6845335D01*
X5828124Y6846883D01*
X5827280Y6848290D01*
X5826577Y6849486D01*
X5826084Y6850542D01*
X5825873Y6850964D01*
X5825662Y6851316D01*
X5825521Y6851597D01*
X5825451Y6851879D01*
X5825381Y6851949D01*
Y6852019D01*
X5824818Y6853497D01*
X5824466Y6854974D01*
X5824184Y6856382D01*
X5823973Y6857718D01*
X5823833Y6858774D01*
Y6859266D01*
X5823762Y6859618D01*
Y6859970D01*
Y6860181D01*
Y6860322D01*
Y6860392D01*
X5823833Y6861799D01*
X5823973Y6863136D01*
X5824255Y6864402D01*
X5824607Y6865669D01*
X5825029Y6866794D01*
X5825521Y6867850D01*
X5826014Y6868835D01*
X5826506Y6869679D01*
X5827069Y6870523D01*
X5827562Y6871227D01*
X5828054Y6871860D01*
X5828476Y6872353D01*
X5828828Y6872705D01*
X5829109Y6873056D01*
X5829250Y6873197D01*
X5829321Y6873267D01*
X5830376Y6874182D01*
X5831572Y6874956D01*
X5832768Y6875660D01*
X5833964Y6876293D01*
X5835231Y6876785D01*
X5836497Y6877207D01*
X5837693Y6877559D01*
X5838889Y6877841D01*
X5840015Y6878052D01*
X5841070Y6878192D01*
X5841985Y6878333D01*
X5842759Y6878404D01*
X5843463Y6878474D01*
X5844377D01*
X5845995Y6878404D01*
D02*
G37*
G36*
X5928525Y6813322D02*
X5904181D01*
X5902141Y6813393D01*
X5898694D01*
X5897216Y6813463D01*
X5895950D01*
X5894824Y6813533D01*
X5893839D01*
X5893065Y6813604D01*
X5892361D01*
X5891798Y6813674D01*
X5891376D01*
X5891025Y6813745D01*
X5890673D01*
X5888773Y6814026D01*
X5887084Y6814448D01*
X5885537Y6814941D01*
X5884270Y6815504D01*
X5883285Y6815996D01*
X5882863Y6816207D01*
X5882511Y6816348D01*
X5882230Y6816559D01*
X5882019Y6816700D01*
X5881948Y6816770D01*
X5881878D01*
X5880612Y6817755D01*
X5879486Y6818881D01*
X5878501Y6820006D01*
X5877727Y6821062D01*
X5877094Y6821976D01*
X5876601Y6822750D01*
X5876460Y6823032D01*
X5876320Y6823243D01*
X5876249Y6823384D01*
Y6823454D01*
X5875546Y6825072D01*
X5875053Y6826620D01*
X5874631Y6828027D01*
X5874420Y6829364D01*
X5874279Y6830490D01*
X5874209Y6830982D01*
X5874139Y6831334D01*
Y6831686D01*
Y6831897D01*
Y6832038D01*
Y6832108D01*
Y6833163D01*
X5874279Y6834148D01*
X5874631Y6836048D01*
X5875194Y6837666D01*
X5875757Y6839144D01*
X5876038Y6839707D01*
X5876320Y6840270D01*
X5876601Y6840762D01*
X5876883Y6841184D01*
X5877094Y6841466D01*
X5877234Y6841677D01*
X5877305Y6841817D01*
X5877375Y6841888D01*
X5878642Y6843365D01*
X5880119Y6844561D01*
X5881667Y6845617D01*
X5883074Y6846391D01*
X5884411Y6847024D01*
X5884974Y6847235D01*
X5885466Y6847446D01*
X5885888Y6847587D01*
X5886170Y6847727D01*
X5886381Y6847798D01*
X5886451D01*
X5884974Y6848572D01*
X5883637Y6849486D01*
X5882511Y6850471D01*
X5881526Y6851386D01*
X5880752Y6852230D01*
X5880189Y6852864D01*
X5880049Y6853145D01*
X5879908Y6853356D01*
X5879767Y6853426D01*
Y6853497D01*
X5878923Y6854974D01*
X5878360Y6856382D01*
X5877938Y6857789D01*
X5877586Y6859125D01*
X5877445Y6860251D01*
X5877375Y6860673D01*
Y6861095D01*
X5877305Y6861447D01*
Y6861658D01*
Y6861799D01*
Y6861869D01*
X5877375Y6863417D01*
X5877586Y6864824D01*
X5877938Y6866161D01*
X5878290Y6867287D01*
X5878712Y6868202D01*
X5878993Y6868905D01*
X5879134Y6869116D01*
X5879275Y6869327D01*
X5879345Y6869398D01*
Y6869468D01*
X5880119Y6870664D01*
X5880963Y6871720D01*
X5881808Y6872634D01*
X5882582Y6873479D01*
X5883285Y6874041D01*
X5883848Y6874534D01*
X5884200Y6874815D01*
X5884270Y6874886D01*
X5884341D01*
X5885466Y6875589D01*
X5886662Y6876152D01*
X5887788Y6876645D01*
X5888843Y6876996D01*
X5889758Y6877278D01*
X5890462Y6877419D01*
X5890743Y6877489D01*
X5890954Y6877559D01*
X5891095D01*
X5891869Y6877700D01*
X5892643Y6877770D01*
X5894472Y6877981D01*
X5896372Y6878122D01*
X5898271Y6878192D01*
X5899116D01*
X5899960Y6878263D01*
X5928525D01*
Y6813322D01*
D02*
G37*
G36*
X5955543Y6836189D02*
Y6834782D01*
X5955613Y6833515D01*
X5955684Y6832319D01*
X5955824Y6831264D01*
X5955965Y6830279D01*
X5956106Y6829434D01*
X5956317Y6828660D01*
X5956457Y6828027D01*
X5956598Y6827464D01*
X5956809Y6826972D01*
X5956950Y6826620D01*
X5957091Y6826268D01*
X5957231Y6826057D01*
X5957302Y6825916D01*
X5957372Y6825776D01*
X5958146Y6824931D01*
X5959131Y6824369D01*
X5960116Y6823946D01*
X5961171Y6823595D01*
X5962086Y6823454D01*
X5962860Y6823384D01*
X5963141Y6823313D01*
X5963564D01*
X5964338Y6823384D01*
X5965112Y6823454D01*
X5966378Y6823876D01*
X5967504Y6824439D01*
X5968418Y6825072D01*
X5969122Y6825705D01*
X5969614Y6826198D01*
X5969966Y6826620D01*
X5970037Y6826690D01*
Y6826761D01*
X5970318Y6827253D01*
X5970529Y6827746D01*
X5970881Y6829012D01*
X5971162Y6830279D01*
X5971373Y6831615D01*
X5971514Y6832812D01*
X5971584Y6833304D01*
Y6833797D01*
X5971655Y6834148D01*
Y6834500D01*
Y6834641D01*
Y6834711D01*
X5984038Y6833304D01*
X5983967Y6831404D01*
X5983827Y6829645D01*
X5983545Y6827957D01*
X5983194Y6826409D01*
X5982842Y6825002D01*
X5982420Y6823735D01*
X5981927Y6822539D01*
X5981435Y6821484D01*
X5980942Y6820569D01*
X5980450Y6819725D01*
X5980027Y6819021D01*
X5979676Y6818459D01*
X5979324Y6818036D01*
X5979042Y6817755D01*
X5978902Y6817544D01*
X5978831Y6817474D01*
X5977776Y6816559D01*
X5976721Y6815715D01*
X5975524Y6815011D01*
X5974328Y6814378D01*
X5973062Y6813885D01*
X5971866Y6813463D01*
X5970670Y6813111D01*
X5969474Y6812830D01*
X5968348Y6812548D01*
X5967363Y6812408D01*
X5966448Y6812267D01*
X5965604Y6812197D01*
X5964971D01*
X5964478Y6812126D01*
X5964056D01*
X5962579Y6812197D01*
X5961101Y6812267D01*
X5959764Y6812408D01*
X5958498Y6812689D01*
X5957372Y6812900D01*
X5956246Y6813182D01*
X5955261Y6813533D01*
X5954347Y6813815D01*
X5953573Y6814167D01*
X5952869Y6814448D01*
X5952236Y6814730D01*
X5951743Y6815011D01*
X5951321Y6815222D01*
X5951040Y6815363D01*
X5950899Y6815433D01*
X5950829Y6815504D01*
X5949914Y6816207D01*
X5949070Y6816911D01*
X5947663Y6818388D01*
X5946467Y6819936D01*
X5945482Y6821343D01*
X5944778Y6822680D01*
X5944497Y6823243D01*
X5944286Y6823735D01*
X5944145Y6824087D01*
X5944004Y6824369D01*
X5943934Y6824580D01*
Y6824650D01*
X5943652Y6825494D01*
X5943441Y6826409D01*
X5943089Y6828449D01*
X5942808Y6830490D01*
X5942667Y6832460D01*
X5942597Y6833374D01*
X5942527Y6834289D01*
Y6835063D01*
X5942456Y6835696D01*
Y6836259D01*
Y6836681D01*
Y6836963D01*
Y6837033D01*
Y6878263D01*
X5955543D01*
Y6836189D01*
D02*
G37*
G36*
X3440717Y8553748D02*
X3441209Y8552693D01*
X3442405Y8550723D01*
X3443672Y8548964D01*
X3445009Y8547416D01*
X3445642Y8546712D01*
X3446205Y8546150D01*
X3446697Y8545587D01*
X3447190Y8545165D01*
X3447541Y8544813D01*
X3447823Y8544602D01*
X3448034Y8544461D01*
X3448104Y8544391D01*
X3450215Y8542843D01*
X3452185Y8541576D01*
X3453944Y8540521D01*
X3455492Y8539747D01*
X3456196Y8539395D01*
X3456829Y8539114D01*
X3457321Y8538903D01*
X3457814Y8538692D01*
X3458166Y8538551D01*
X3458447Y8538481D01*
X3458588Y8538410D01*
X3458658D01*
Y8527083D01*
X3456969Y8527716D01*
X3455351Y8528349D01*
X3453733Y8529053D01*
X3452255Y8529826D01*
X3450848Y8530600D01*
X3449512Y8531374D01*
X3448315Y8532148D01*
X3447190Y8532922D01*
X3446134Y8533626D01*
X3445290Y8534329D01*
X3444446Y8534963D01*
X3443813Y8535455D01*
X3443320Y8535877D01*
X3442898Y8536229D01*
X3442687Y8536440D01*
X3442616Y8536510D01*
Y8489722D01*
X3430163D01*
Y8554874D01*
X3440295D01*
X3440717Y8553748D01*
D02*
G37*
G36*
X3524724Y8489722D02*
X3500380D01*
X3498340Y8489793D01*
X3494892D01*
X3493415Y8489863D01*
X3492148D01*
X3491023Y8489933D01*
X3490038D01*
X3489264Y8490004D01*
X3488560D01*
X3487997Y8490074D01*
X3487575D01*
X3487223Y8490145D01*
X3486872D01*
X3484972Y8490426D01*
X3483283Y8490848D01*
X3481735Y8491341D01*
X3480469Y8491904D01*
X3479484Y8492396D01*
X3479062Y8492607D01*
X3478710Y8492748D01*
X3478429Y8492959D01*
X3478218Y8493100D01*
X3478147Y8493170D01*
X3478077D01*
X3476810Y8494155D01*
X3475685Y8495281D01*
X3474700Y8496406D01*
X3473926Y8497462D01*
X3473293Y8498376D01*
X3472800Y8499150D01*
X3472659Y8499432D01*
X3472519Y8499643D01*
X3472448Y8499784D01*
Y8499854D01*
X3471745Y8501472D01*
X3471252Y8503020D01*
X3470830Y8504427D01*
X3470619Y8505764D01*
X3470478Y8506890D01*
X3470408Y8507382D01*
X3470337Y8507734D01*
Y8508086D01*
Y8508297D01*
Y8508438D01*
Y8508508D01*
Y8509563D01*
X3470478Y8510548D01*
X3470830Y8512448D01*
X3471393Y8514066D01*
X3471956Y8515544D01*
X3472237Y8516107D01*
X3472519Y8516670D01*
X3472800Y8517162D01*
X3473081Y8517584D01*
X3473293Y8517866D01*
X3473433Y8518077D01*
X3473504Y8518217D01*
X3473574Y8518288D01*
X3474840Y8519765D01*
X3476318Y8520961D01*
X3477866Y8522017D01*
X3479273Y8522791D01*
X3480610Y8523424D01*
X3481173Y8523635D01*
X3481665Y8523846D01*
X3482087Y8523987D01*
X3482369Y8524127D01*
X3482580Y8524198D01*
X3482650D01*
X3481173Y8524972D01*
X3479836Y8525886D01*
X3478710Y8526871D01*
X3477725Y8527786D01*
X3476951Y8528630D01*
X3476388Y8529264D01*
X3476248Y8529545D01*
X3476107Y8529756D01*
X3475966Y8529826D01*
Y8529897D01*
X3475122Y8531374D01*
X3474559Y8532782D01*
X3474137Y8534189D01*
X3473785Y8535525D01*
X3473644Y8536651D01*
X3473574Y8537073D01*
Y8537495D01*
X3473504Y8537847D01*
Y8538058D01*
Y8538199D01*
Y8538269D01*
X3473574Y8539817D01*
X3473785Y8541224D01*
X3474137Y8542561D01*
X3474489Y8543687D01*
X3474911Y8544602D01*
X3475192Y8545305D01*
X3475333Y8545516D01*
X3475474Y8545727D01*
X3475544Y8545798D01*
Y8545868D01*
X3476318Y8547064D01*
X3477162Y8548120D01*
X3478007Y8549034D01*
X3478780Y8549879D01*
X3479484Y8550441D01*
X3480047Y8550934D01*
X3480399Y8551215D01*
X3480469Y8551286D01*
X3480539D01*
X3481665Y8551989D01*
X3482861Y8552552D01*
X3483987Y8553045D01*
X3485042Y8553396D01*
X3485957Y8553678D01*
X3486661Y8553819D01*
X3486942Y8553889D01*
X3487153Y8553959D01*
X3487294D01*
X3488068Y8554100D01*
X3488842Y8554170D01*
X3490671Y8554381D01*
X3492571Y8554522D01*
X3494470Y8554592D01*
X3495315D01*
X3496159Y8554663D01*
X3524724D01*
Y8489722D01*
D02*
G37*
G36*
X3551742Y8512589D02*
Y8511182D01*
X3551812Y8509915D01*
X3551882Y8508719D01*
X3552023Y8507664D01*
X3552164Y8506679D01*
X3552305Y8505834D01*
X3552516Y8505060D01*
X3552656Y8504427D01*
X3552797Y8503864D01*
X3553008Y8503372D01*
X3553149Y8503020D01*
X3553290Y8502668D01*
X3553430Y8502457D01*
X3553501Y8502316D01*
X3553571Y8502176D01*
X3554345Y8501331D01*
X3555330Y8500769D01*
X3556315Y8500346D01*
X3557370Y8499995D01*
X3558285Y8499854D01*
X3559059Y8499784D01*
X3559340Y8499713D01*
X3559763D01*
X3560536Y8499784D01*
X3561310Y8499854D01*
X3562577Y8500276D01*
X3563703Y8500839D01*
X3564617Y8501472D01*
X3565321Y8502105D01*
X3565813Y8502598D01*
X3566165Y8503020D01*
X3566235Y8503090D01*
Y8503161D01*
X3566517Y8503653D01*
X3566728Y8504146D01*
X3567080Y8505412D01*
X3567361Y8506679D01*
X3567572Y8508015D01*
X3567713Y8509212D01*
X3567783Y8509704D01*
Y8510197D01*
X3567854Y8510548D01*
Y8510900D01*
Y8511041D01*
Y8511111D01*
X3580237Y8509704D01*
X3580166Y8507804D01*
X3580026Y8506045D01*
X3579744Y8504357D01*
X3579392Y8502809D01*
X3579041Y8501402D01*
X3578618Y8500135D01*
X3578126Y8498939D01*
X3577633Y8497884D01*
X3577141Y8496969D01*
X3576648Y8496125D01*
X3576226Y8495421D01*
X3575874Y8494859D01*
X3575523Y8494436D01*
X3575241Y8494155D01*
X3575101Y8493944D01*
X3575030Y8493874D01*
X3573975Y8492959D01*
X3572919Y8492115D01*
X3571723Y8491411D01*
X3570527Y8490778D01*
X3569261Y8490285D01*
X3568065Y8489863D01*
X3566869Y8489511D01*
X3565673Y8489230D01*
X3564547Y8488948D01*
X3563562Y8488808D01*
X3562647Y8488667D01*
X3561803Y8488597D01*
X3561170D01*
X3560677Y8488526D01*
X3560255D01*
X3558777Y8488597D01*
X3557300Y8488667D01*
X3555963Y8488808D01*
X3554697Y8489089D01*
X3553571Y8489300D01*
X3552445Y8489582D01*
X3551460Y8489933D01*
X3550546Y8490215D01*
X3549772Y8490567D01*
X3549068Y8490848D01*
X3548435Y8491130D01*
X3547942Y8491411D01*
X3547520Y8491622D01*
X3547239Y8491763D01*
X3547098Y8491833D01*
X3547028Y8491904D01*
X3546113Y8492607D01*
X3545269Y8493311D01*
X3543862Y8494788D01*
X3542666Y8496336D01*
X3541680Y8497743D01*
X3540977Y8499080D01*
X3540695Y8499643D01*
X3540484Y8500135D01*
X3540344Y8500487D01*
X3540203Y8500769D01*
X3540133Y8500980D01*
Y8501050D01*
X3539851Y8501894D01*
X3539640Y8502809D01*
X3539288Y8504849D01*
X3539007Y8506890D01*
X3538866Y8508860D01*
X3538796Y8509774D01*
X3538725Y8510689D01*
Y8511463D01*
X3538655Y8512096D01*
Y8512659D01*
Y8513081D01*
Y8513363D01*
Y8513433D01*
Y8554663D01*
X3551742D01*
Y8512589D01*
D02*
G37*
G36*
X4427181Y6188734D02*
X4426089Y6163992D01*
X4427321Y6164783D01*
X4427902Y6165179D01*
X4428480Y6165506D01*
X4428917Y6165839D01*
X4429281Y6166105D01*
X4429501Y6166306D01*
X4429574Y6166373D01*
X4429941Y6166709D01*
X4430452Y6167109D01*
X4430965Y6167580D01*
X4431553Y6168117D01*
X4432800Y6169259D01*
X4434051Y6170472D01*
X4435229Y6171617D01*
X4435746Y6172158D01*
X4436189Y6172631D01*
X4436556Y6172967D01*
X4436849Y6173236D01*
X4436999Y6173440D01*
X4437073Y6173508D01*
X4438103Y6174519D01*
X4439060Y6175462D01*
X4440014Y6176336D01*
X4440825Y6177145D01*
X4441629Y6177814D01*
X4442293Y6178489D01*
X4442950Y6179023D01*
X4443537Y6179561D01*
X4444485Y6180293D01*
X4445146Y6180898D01*
X4445580Y6181161D01*
X4445727Y6181295D01*
X4447396Y6182419D01*
X4448989Y6183405D01*
X4450432Y6184186D01*
X4451658Y6184836D01*
X4452734Y6185282D01*
X4453165Y6185474D01*
X4453526Y6185669D01*
X4453813Y6185797D01*
X4454098Y6185855D01*
X4454171Y6185923D01*
X4454241Y6185919D01*
X4455742Y6186417D01*
X4457234Y6186703D01*
X4458652Y6186922D01*
X4459997Y6187074D01*
X4461057Y6187168D01*
X4461549Y6187146D01*
X4461904Y6187201D01*
X4462255Y6187185D01*
X4462466Y6187176D01*
X4462607Y6187170D01*
X4462677Y6187167D01*
X4464080Y6187034D01*
X4465409Y6186835D01*
X4466662Y6186498D01*
X4467912Y6186090D01*
X4469018Y6185619D01*
X4470050Y6185081D01*
X4471013Y6184545D01*
X4471834Y6184016D01*
X4472653Y6183416D01*
X4473334Y6182893D01*
X4473945Y6182373D01*
X4474419Y6181930D01*
X4474754Y6181563D01*
X4475093Y6181266D01*
X4475228Y6181119D01*
X4475295Y6181046D01*
X4476162Y6179951D01*
X4476883Y6178722D01*
X4477533Y6177496D01*
X4478113Y6176273D01*
X4478549Y6174987D01*
X4478915Y6173703D01*
X4479213Y6172492D01*
X4479442Y6171285D01*
X4479603Y6170151D01*
X4479697Y6169091D01*
X4479797Y6168171D01*
X4479833Y6167394D01*
X4479873Y6166688D01*
X4479832Y6165775D01*
X4479691Y6164161D01*
X4479482Y6162621D01*
X4479206Y6161154D01*
X4478866Y6159831D01*
X4478455Y6158511D01*
X4478051Y6157332D01*
X4477583Y6156296D01*
X4477114Y6155260D01*
X4476652Y6154365D01*
X4476197Y6153610D01*
X4475814Y6152923D01*
X4475438Y6152376D01*
X4475138Y6151967D01*
X4474912Y6151625D01*
X4474762Y6151420D01*
X4474688Y6151353D01*
X4473728Y6150339D01*
X4472704Y6149469D01*
X4471542Y6148675D01*
X4470316Y6148025D01*
X4469093Y6147445D01*
X4467803Y6146938D01*
X4466586Y6146499D01*
X4465373Y6146130D01*
X4464233Y6145828D01*
X4463166Y6145593D01*
X4462172Y6145426D01*
X4461323Y6145323D01*
X4460614Y6145213D01*
X4460048Y6145168D01*
X4459764Y6145110D01*
X4459624Y6145116D01*
X4458975Y6157540D01*
X4459962Y6157567D01*
X4460882Y6157667D01*
X4462514Y6157947D01*
X4463868Y6158310D01*
X4464941Y6158685D01*
X4465806Y6159140D01*
X4466384Y6159466D01*
X4466678Y6159735D01*
X4466821Y6159799D01*
X4467635Y6160679D01*
X4468314Y6161705D01*
X4468782Y6162741D01*
X4469107Y6163713D01*
X4469288Y6164620D01*
X4469459Y6165317D01*
X4469487Y6165950D01*
X4469479Y6167358D01*
X4469251Y6168566D01*
X4468946Y6169636D01*
X4468564Y6170568D01*
X4468174Y6171289D01*
X4467844Y6171797D01*
X4467578Y6172161D01*
X4467511Y6172234D01*
X4466632Y6173048D01*
X4465602Y6173657D01*
X4464563Y6174055D01*
X4463592Y6174379D01*
X4462614Y6174563D01*
X4461917Y6174735D01*
X4461636Y6174747D01*
X4461425Y6174757D01*
X4461284Y6174763D01*
X4461214Y6174766D01*
X4459802Y6174687D01*
X4458384Y6174468D01*
X4457100Y6174102D01*
X4455957Y6173730D01*
X4454951Y6173282D01*
X4454159Y6172894D01*
X4453869Y6172696D01*
X4453655Y6172635D01*
X4453578Y6172497D01*
X4453508Y6172500D01*
X4452927Y6172103D01*
X4452199Y6171572D01*
X4451395Y6170903D01*
X4450591Y6170235D01*
X4448759Y6168625D01*
X4446921Y6166875D01*
X4446041Y6166069D01*
X4445160Y6165263D01*
X4444426Y6164591D01*
X4443762Y6163916D01*
X4443245Y6163375D01*
X4442805Y6162972D01*
X4442512Y6162703D01*
X4442438Y6162636D01*
X4440597Y6160816D01*
X4438836Y6159204D01*
X4437148Y6157658D01*
X4435610Y6156318D01*
X4434218Y6155111D01*
X4432833Y6154046D01*
X4431662Y6153041D01*
X4430570Y6152244D01*
X4429552Y6151514D01*
X4428751Y6150916D01*
X4427953Y6150388D01*
X4427372Y6149991D01*
X4426938Y6149728D01*
X4426574Y6149463D01*
X4426360Y6149402D01*
X4426287Y6149334D01*
X4424055Y6148236D01*
X4421836Y6147418D01*
X4419693Y6146738D01*
X4417770Y6146259D01*
X4416917Y6146086D01*
X4416138Y6145980D01*
X4415429Y6145870D01*
X4414860Y6145754D01*
X4414365Y6145706D01*
X4414014Y6145721D01*
X4413800Y6145660D01*
X4413730Y6145663D01*
X4415653Y6189243D01*
X4427181Y6188734D01*
D02*
G37*
G36*
X4427844Y6138350D02*
X4428055Y6138340D01*
X4428125Y6138337D01*
X4429177Y6138220D01*
X4430228Y6138104D01*
X4432034Y6137531D01*
X4433552Y6136830D01*
X4434857Y6136068D01*
X4435403Y6135692D01*
X4435880Y6135319D01*
X4436286Y6134949D01*
X4436555Y6134655D01*
X4436823Y6134361D01*
X4437025Y6134141D01*
X4437092Y6134068D01*
X4437160Y6133994D01*
X4437758Y6133193D01*
X4438277Y6132185D01*
X4438796Y6131176D01*
X4439241Y6130099D01*
X4440123Y6127737D01*
X4440797Y6125453D01*
X4441099Y6124313D01*
X4441336Y6123316D01*
X4441574Y6122320D01*
X4441751Y6121538D01*
X4441930Y6120825D01*
X4442049Y6120327D01*
X4442107Y6120043D01*
X4442101Y6119902D01*
X4442445Y6118126D01*
X4442725Y6116494D01*
X4443085Y6115070D01*
X4443313Y6113863D01*
X4443615Y6112722D01*
X4443856Y6111796D01*
X4444100Y6110940D01*
X4444283Y6110298D01*
X4444469Y6109727D01*
X4444658Y6109226D01*
X4444783Y6108868D01*
X4444911Y6108580D01*
X4444972Y6108366D01*
X4445036Y6108223D01*
X4445103Y6108149D01*
X4445436Y6107712D01*
X4445846Y6107412D01*
X4446188Y6107186D01*
X4446533Y6107030D01*
X4446811Y6106947D01*
X4447089Y6106864D01*
X4447230Y6106858D01*
X4447300Y6106855D01*
X4447865Y6106901D01*
X4448364Y6107020D01*
X4448795Y6107212D01*
X4449158Y6107477D01*
X4449452Y6107746D01*
X4449742Y6107945D01*
X4449819Y6108082D01*
X4449893Y6108149D01*
X4450425Y6109041D01*
X4450823Y6110080D01*
X4451086Y6111266D01*
X4451347Y6112381D01*
X4451464Y6113432D01*
X4451571Y6114273D01*
X4451606Y6115046D01*
X4451594Y6116385D01*
X4451509Y6117656D01*
X4451272Y6118652D01*
X4451098Y6119505D01*
X4450848Y6120220D01*
X4450585Y6120655D01*
X4450460Y6121012D01*
X4450393Y6121086D01*
X4449791Y6121816D01*
X4449187Y6122477D01*
X4448506Y6123000D01*
X4447821Y6123453D01*
X4447201Y6123762D01*
X4446719Y6123994D01*
X4446443Y6124148D01*
X4446303Y6124154D01*
X4449000Y6135796D01*
X4451145Y6134927D01*
X4452107Y6134391D01*
X4452929Y6133862D01*
X4453748Y6133262D01*
X4454496Y6132666D01*
X4455174Y6132072D01*
X4455785Y6131552D01*
X4456252Y6130968D01*
X4456726Y6130525D01*
X4457126Y6130014D01*
X4457461Y6129647D01*
X4457657Y6129286D01*
X4457858Y6129066D01*
X4457993Y6128920D01*
X4457990Y6128849D01*
X4458512Y6127911D01*
X4458957Y6126835D01*
X4459332Y6125762D01*
X4459631Y6124551D01*
X4460091Y6122207D01*
X4460340Y6119872D01*
X4460431Y6118741D01*
X4460528Y6117751D01*
X4460558Y6116834D01*
X4460521Y6115990D01*
X4460563Y6115355D01*
X4460523Y6114441D01*
X4460372Y6112616D01*
X4460157Y6110936D01*
X4459875Y6109328D01*
X4459599Y6107862D01*
X4459188Y6106542D01*
X4458784Y6105362D01*
X4458383Y6104253D01*
X4457918Y6103288D01*
X4457459Y6102463D01*
X4457073Y6101705D01*
X4456694Y6101088D01*
X4456321Y6100611D01*
X4456091Y6100199D01*
X4455868Y6099927D01*
X4455721Y6099793D01*
X4455648Y6099726D01*
X4454837Y6098916D01*
X4453963Y6098251D01*
X4453091Y6097655D01*
X4452153Y6097133D01*
X4451288Y6096678D01*
X4450428Y6096364D01*
X4448787Y6095873D01*
X4448005Y6095697D01*
X4447366Y6095584D01*
X4446727Y6095471D01*
X4446232Y6095423D01*
X4445737Y6095374D01*
X4445455Y6095387D01*
X4445245Y6095396D01*
X4445174Y6095399D01*
X4443982Y6095522D01*
X4442794Y6095715D01*
X4441752Y6096043D01*
X4440713Y6096441D01*
X4439818Y6096903D01*
X4438926Y6097436D01*
X4438175Y6097962D01*
X4437496Y6098555D01*
X4436885Y6099075D01*
X4436345Y6099592D01*
X4435875Y6100106D01*
X4435542Y6100543D01*
X4435276Y6100907D01*
X4435078Y6101197D01*
X4434943Y6101344D01*
X4434876Y6101417D01*
X4434421Y6102282D01*
X4433909Y6103432D01*
X4433472Y6104719D01*
X4432972Y6106150D01*
X4432548Y6107718D01*
X4432128Y6109356D01*
X4431283Y6112563D01*
X4430933Y6114198D01*
X4430647Y6115689D01*
X4430354Y6117040D01*
X4430126Y6118248D01*
X4429958Y6119241D01*
X4429782Y6120024D01*
X4429724Y6120308D01*
X4429733Y6120519D01*
X4429666Y6120592D01*
X4429669Y6120662D01*
X4429437Y6121800D01*
X4429197Y6122726D01*
X4428947Y6123441D01*
X4428690Y6124016D01*
X4428495Y6124376D01*
X4428296Y6124667D01*
X4428232Y6124810D01*
X4428165Y6124884D01*
X4427826Y6125181D01*
X4427417Y6125481D01*
X4426723Y6125722D01*
X4426375Y6125808D01*
X4426097Y6125891D01*
X4425956Y6125897D01*
X4425886Y6125900D01*
X4425110Y6125864D01*
X4424468Y6125681D01*
X4423893Y6125425D01*
X4423389Y6125165D01*
X4423025Y6124900D01*
X4422731Y6124631D01*
X4422581Y6124426D01*
X4422508Y6124359D01*
X4421902Y6123400D01*
X4421431Y6122294D01*
X4421026Y6121114D01*
X4420763Y6119929D01*
X4420576Y6118881D01*
X4420554Y6118389D01*
X4420465Y6117970D01*
X4420431Y6117197D01*
X4420433Y6115647D01*
X4420585Y6114302D01*
X4420813Y6113095D01*
X4421121Y6112095D01*
X4421439Y6111307D01*
X4421695Y6110732D01*
X4421893Y6110442D01*
X4421958Y6110298D01*
X4422693Y6109420D01*
X4423509Y6108751D01*
X4424398Y6108148D01*
X4425293Y6107686D01*
X4426051Y6107300D01*
X4426744Y6107058D01*
X4427163Y6106969D01*
X4427230Y6106896D01*
X4427301Y6106893D01*
X4424853Y6094535D01*
X4423674Y6094940D01*
X4422498Y6095414D01*
X4421465Y6095953D01*
X4420506Y6096559D01*
X4419550Y6097234D01*
X4418731Y6097834D01*
X4417986Y6098501D01*
X4417241Y6099168D01*
X4416633Y6099758D01*
X4416095Y6100345D01*
X4415695Y6100856D01*
X4415292Y6101296D01*
X4415030Y6101730D01*
X4414831Y6102021D01*
X4414697Y6102167D01*
X4414630Y6102241D01*
X4413976Y6103396D01*
X4413464Y6104546D01*
X4413027Y6105833D01*
X4412591Y6107120D01*
X4412000Y6109681D01*
X4411687Y6112160D01*
X4411596Y6113291D01*
X4411499Y6114281D01*
X4411472Y6115268D01*
X4411436Y6116044D01*
X4411397Y6116751D01*
X4411437Y6117664D01*
X4411591Y6119559D01*
X4411812Y6121380D01*
X4412098Y6123058D01*
X4412447Y6124592D01*
X4412861Y6125982D01*
X4413341Y6127299D01*
X4413816Y6128475D01*
X4414284Y6129511D01*
X4414746Y6130406D01*
X4415205Y6131231D01*
X4415658Y6131915D01*
X4416034Y6132462D01*
X4416334Y6132871D01*
X4416557Y6133143D01*
X4416707Y6133348D01*
X4416781Y6133415D01*
X4417738Y6134359D01*
X4418686Y6135092D01*
X4419634Y6135825D01*
X4420645Y6136414D01*
X4421581Y6136865D01*
X4422513Y6137247D01*
X4423443Y6137558D01*
X4424298Y6137802D01*
X4425084Y6138049D01*
X4425793Y6138158D01*
X4426502Y6138268D01*
X4427068Y6138313D01*
X4427493Y6138365D01*
X4427844Y6138350D01*
D02*
G37*
G36*
X4423615Y6084026D02*
X4424983Y6083121D01*
X4426141Y6082224D01*
X4427302Y6081399D01*
X4428325Y6080649D01*
X4429281Y6079973D01*
X4430097Y6079303D01*
X4430845Y6078707D01*
X4431526Y6078184D01*
X4432070Y6077737D01*
X4432543Y6077294D01*
X4432950Y6076924D01*
X4433289Y6076627D01*
X4433490Y6076407D01*
X4433695Y6076257D01*
X4433829Y6076110D01*
X4434837Y6075009D01*
X4435839Y6073768D01*
X4436700Y6072532D01*
X4437423Y6071374D01*
X4438083Y6070358D01*
X4438541Y6069564D01*
X4438739Y6069273D01*
X4438800Y6069059D01*
X4438934Y6068912D01*
X4438931Y6068842D01*
X4439281Y6070376D01*
X4439697Y6071837D01*
X4440178Y6073153D01*
X4440656Y6074400D01*
X4441200Y6075573D01*
X4441739Y6076606D01*
X4442271Y6077498D01*
X4442871Y6078317D01*
X4443397Y6079068D01*
X4443917Y6079679D01*
X4444363Y6080223D01*
X4444737Y6080699D01*
X4445104Y6081035D01*
X4445324Y6081237D01*
X4445471Y6081371D01*
X4445544Y6081438D01*
X4446492Y6082171D01*
X4447504Y6082760D01*
X4448513Y6083279D01*
X4449589Y6083725D01*
X4450592Y6084103D01*
X4451591Y6084411D01*
X4453581Y6084816D01*
X4454434Y6084990D01*
X4455283Y6085093D01*
X4455989Y6085132D01*
X4456625Y6085175D01*
X4457120Y6085223D01*
X4457472Y6085208D01*
X4457753Y6085195D01*
X4457823Y6085192D01*
X4459926Y6084959D01*
X4461811Y6084594D01*
X4463547Y6084024D01*
X4465001Y6083467D01*
X4465621Y6083158D01*
X4466241Y6082849D01*
X4466724Y6082616D01*
X4467133Y6082316D01*
X4467478Y6082160D01*
X4467683Y6082010D01*
X4467818Y6081863D01*
X4467888Y6081860D01*
X4469385Y6080668D01*
X4470664Y6079343D01*
X4471666Y6078102D01*
X4472527Y6076867D01*
X4473110Y6075714D01*
X4473302Y6075283D01*
X4473494Y6074852D01*
X4473619Y6074494D01*
X4473751Y6074277D01*
X4473815Y6074133D01*
X4473812Y6074063D01*
X4474053Y6073137D01*
X4474287Y6072070D01*
X4474516Y6070863D01*
X4474603Y6069662D01*
X4474846Y6067186D01*
X4474945Y6064646D01*
X4474966Y6063519D01*
X4474986Y6062391D01*
X4474943Y6061407D01*
X4474976Y6060560D01*
X4473685Y6031320D01*
X4408808Y6034184D01*
X4409385Y6047258D01*
X4436447Y6046063D01*
X4436633Y6050281D01*
X4436551Y6051622D01*
X4436531Y6052750D01*
X4436430Y6053670D01*
X4436321Y6054379D01*
X4436202Y6054877D01*
X4436147Y6055232D01*
X4436080Y6055305D01*
X4435833Y6056091D01*
X4435442Y6056812D01*
X4435052Y6057534D01*
X4434584Y6058118D01*
X4434184Y6058628D01*
X4433922Y6059063D01*
X4433650Y6059286D01*
X4433583Y6059359D01*
X4433180Y6059800D01*
X4432636Y6060246D01*
X4432025Y6060766D01*
X4431347Y6061359D01*
X4429850Y6062553D01*
X4428286Y6063819D01*
X4426787Y6064941D01*
X4426176Y6065461D01*
X4425559Y6065841D01*
X4425082Y6066214D01*
X4424743Y6066511D01*
X4424468Y6066664D01*
X4424401Y6066737D01*
X4410692Y6076850D01*
X4411384Y6092524D01*
X4423615Y6084026D01*
D02*
G37*
G36*
X5506456Y6193587D02*
X5506328Y6180501D01*
X5479241Y6180766D01*
X5479200Y6176545D01*
X5479328Y6175206D01*
X5479387Y6174080D01*
X5479519Y6173164D01*
X5479652Y6172459D01*
X5479788Y6171965D01*
X5479855Y6171613D01*
X5479925Y6171542D01*
X5480199Y6170765D01*
X5480614Y6170058D01*
X5481029Y6169350D01*
X5481516Y6168782D01*
X5481934Y6168286D01*
X5482211Y6167861D01*
X5482490Y6167647D01*
X5482560Y6167576D01*
X5482978Y6167149D01*
X5483537Y6166722D01*
X5484165Y6166223D01*
X5484863Y6165653D01*
X5486400Y6164513D01*
X5488006Y6163301D01*
X5489544Y6162230D01*
X5490172Y6161732D01*
X5490802Y6161374D01*
X5491291Y6161017D01*
X5491640Y6160732D01*
X5491920Y6160589D01*
X5491990Y6160518D01*
X5506038Y6150882D01*
X5505885Y6135192D01*
X5493369Y6143266D01*
X5491970Y6144124D01*
X5490782Y6144980D01*
X5489594Y6145765D01*
X5488545Y6146479D01*
X5487567Y6147122D01*
X5486728Y6147763D01*
X5485960Y6148334D01*
X5485261Y6148833D01*
X5484703Y6149261D01*
X5484214Y6149688D01*
X5483796Y6150044D01*
X5483447Y6150329D01*
X5483238Y6150542D01*
X5483028Y6150684D01*
X5482889Y6150827D01*
X5481843Y6151892D01*
X5480800Y6153099D01*
X5479897Y6154304D01*
X5479134Y6155437D01*
X5478440Y6156429D01*
X5477955Y6157207D01*
X5477747Y6157491D01*
X5477679Y6157703D01*
X5477539Y6157845D01*
X5477540Y6157915D01*
X5477244Y6156370D01*
X5476877Y6154896D01*
X5476442Y6153563D01*
X5476008Y6152301D01*
X5475503Y6151110D01*
X5475001Y6150059D01*
X5474499Y6149149D01*
X5473928Y6148311D01*
X5473428Y6147542D01*
X5472929Y6146914D01*
X5472502Y6146355D01*
X5472145Y6145866D01*
X5471790Y6145517D01*
X5471577Y6145308D01*
X5471435Y6145169D01*
X5471364Y6145099D01*
X5470441Y6144334D01*
X5469450Y6143711D01*
X5468460Y6143158D01*
X5467400Y6142676D01*
X5466411Y6142263D01*
X5465422Y6141921D01*
X5463448Y6141448D01*
X5462601Y6141245D01*
X5461755Y6141112D01*
X5461051Y6141049D01*
X5460417Y6140985D01*
X5459924Y6140919D01*
X5459573Y6140923D01*
X5459291Y6140925D01*
X5459221Y6140926D01*
X5457112Y6141088D01*
X5455215Y6141388D01*
X5453461Y6141897D01*
X5451988Y6142404D01*
X5451357Y6142692D01*
X5450727Y6142979D01*
X5450237Y6143195D01*
X5449817Y6143481D01*
X5449467Y6143625D01*
X5449257Y6143768D01*
X5449118Y6143910D01*
X5449048Y6143910D01*
X5447511Y6145051D01*
X5446186Y6146331D01*
X5445143Y6147537D01*
X5444240Y6148742D01*
X5443618Y6149874D01*
X5443411Y6150298D01*
X5443204Y6150722D01*
X5443067Y6151075D01*
X5442928Y6151288D01*
X5442859Y6151429D01*
X5442860Y6151500D01*
X5442587Y6152417D01*
X5442316Y6153475D01*
X5442046Y6154674D01*
X5441917Y6155871D01*
X5441590Y6158337D01*
X5441403Y6160872D01*
X5441344Y6161998D01*
X5441285Y6163125D01*
X5441294Y6164110D01*
X5441232Y6164955D01*
X5441518Y6194222D01*
X5506456Y6193587D01*
D02*
G37*
G36*
X5493684Y6132357D02*
X5494876Y6131923D01*
X5495927Y6131420D01*
X5496906Y6130848D01*
X5497885Y6130205D01*
X5498724Y6129634D01*
X5499491Y6128993D01*
X5500259Y6128352D01*
X5500887Y6127783D01*
X5501444Y6127215D01*
X5501861Y6126718D01*
X5502279Y6126292D01*
X5502557Y6125867D01*
X5502765Y6125583D01*
X5502904Y6125441D01*
X5502974Y6125370D01*
X5503666Y6124238D01*
X5504218Y6123107D01*
X5504698Y6121835D01*
X5505178Y6120564D01*
X5505857Y6118025D01*
X5506255Y6115558D01*
X5506385Y6114431D01*
X5506516Y6113445D01*
X5506577Y6112459D01*
X5506639Y6111684D01*
X5506703Y6110980D01*
X5506694Y6110066D01*
X5506605Y6108167D01*
X5506447Y6106339D01*
X5506219Y6104652D01*
X5505922Y6103107D01*
X5505557Y6101704D01*
X5505122Y6100371D01*
X5504688Y6099179D01*
X5504255Y6098128D01*
X5503824Y6097217D01*
X5503394Y6096377D01*
X5502965Y6095678D01*
X5502608Y6095119D01*
X5502322Y6094699D01*
X5502108Y6094420D01*
X5501966Y6094210D01*
X5501895Y6094140D01*
X5500970Y6093164D01*
X5500048Y6092400D01*
X5499126Y6091635D01*
X5498135Y6091011D01*
X5497215Y6090527D01*
X5496297Y6090114D01*
X5495378Y6089771D01*
X5494532Y6089498D01*
X5493755Y6089225D01*
X5493050Y6089091D01*
X5492345Y6088957D01*
X5491781Y6088892D01*
X5491359Y6088826D01*
X5491007Y6088829D01*
X5490796Y6088831D01*
X5490725Y6088832D01*
X5489671Y6088913D01*
X5488616Y6088993D01*
X5486792Y6089504D01*
X5485250Y6090152D01*
X5483920Y6090869D01*
X5483361Y6091226D01*
X5482872Y6091582D01*
X5482453Y6091938D01*
X5482174Y6092223D01*
X5481896Y6092507D01*
X5481687Y6092720D01*
X5481617Y6092791D01*
X5481548Y6092862D01*
X5480922Y6093642D01*
X5480369Y6094632D01*
X5479816Y6095623D01*
X5479333Y6096683D01*
X5478371Y6099014D01*
X5477619Y6101273D01*
X5477278Y6102403D01*
X5477007Y6103390D01*
X5476735Y6104378D01*
X5476531Y6105154D01*
X5476327Y6105860D01*
X5476191Y6106353D01*
X5476124Y6106635D01*
X5476125Y6106776D01*
X5475720Y6108539D01*
X5475384Y6110161D01*
X5474976Y6111572D01*
X5474706Y6112771D01*
X5474365Y6113900D01*
X5474093Y6114817D01*
X5473820Y6115664D01*
X5473615Y6116299D01*
X5473409Y6116864D01*
X5473203Y6117359D01*
X5473066Y6117712D01*
X5472928Y6117995D01*
X5472860Y6118207D01*
X5472791Y6118348D01*
X5472721Y6118419D01*
X5472373Y6118845D01*
X5471954Y6119130D01*
X5471604Y6119345D01*
X5471254Y6119489D01*
X5470973Y6119562D01*
X5470692Y6119635D01*
X5470552Y6119636D01*
X5470481Y6119637D01*
X5469918Y6119572D01*
X5469424Y6119436D01*
X5469000Y6119230D01*
X5468645Y6118951D01*
X5468361Y6118673D01*
X5468077Y6118465D01*
X5468006Y6118325D01*
X5467935Y6118255D01*
X5467433Y6117345D01*
X5467071Y6116293D01*
X5466849Y6115099D01*
X5466626Y6113976D01*
X5466546Y6112921D01*
X5466467Y6112077D01*
X5466459Y6111303D01*
X5466517Y6109966D01*
X5466645Y6108698D01*
X5466917Y6107711D01*
X5467120Y6106864D01*
X5467394Y6106158D01*
X5467672Y6105733D01*
X5467809Y6105380D01*
X5467879Y6105309D01*
X5468505Y6104599D01*
X5469132Y6103960D01*
X5469831Y6103460D01*
X5470530Y6103031D01*
X5471160Y6102744D01*
X5471651Y6102528D01*
X5471931Y6102385D01*
X5472072Y6102383D01*
X5469776Y6090655D01*
X5467602Y6091450D01*
X5466622Y6091953D01*
X5465783Y6092453D01*
X5464944Y6093024D01*
X5464176Y6093595D01*
X5463478Y6094165D01*
X5462849Y6094663D01*
X5462362Y6095231D01*
X5461874Y6095658D01*
X5461456Y6096154D01*
X5461108Y6096510D01*
X5460900Y6096863D01*
X5460691Y6097076D01*
X5460552Y6097219D01*
X5460553Y6097289D01*
X5459999Y6098209D01*
X5459517Y6099269D01*
X5459105Y6100329D01*
X5458765Y6101528D01*
X5458225Y6103855D01*
X5457896Y6106181D01*
X5457766Y6107308D01*
X5457635Y6108294D01*
X5457574Y6109209D01*
X5457582Y6110054D01*
X5457518Y6110687D01*
X5457527Y6111602D01*
X5457615Y6113430D01*
X5457772Y6115118D01*
X5457999Y6116734D01*
X5458225Y6118209D01*
X5458589Y6119542D01*
X5458953Y6120735D01*
X5459315Y6121857D01*
X5459747Y6122838D01*
X5460178Y6123678D01*
X5460537Y6124449D01*
X5460895Y6125078D01*
X5461252Y6125567D01*
X5461467Y6125987D01*
X5461681Y6126267D01*
X5461823Y6126406D01*
X5461894Y6126476D01*
X5462676Y6127313D01*
X5463527Y6128008D01*
X5464377Y6128633D01*
X5465298Y6129187D01*
X5466147Y6129671D01*
X5466994Y6130014D01*
X5468618Y6130561D01*
X5469394Y6130765D01*
X5470029Y6130899D01*
X5470663Y6131034D01*
X5471156Y6131099D01*
X5471649Y6131165D01*
X5471931Y6131162D01*
X5472142Y6131160D01*
X5472212Y6131159D01*
X5473408Y6131077D01*
X5474602Y6130925D01*
X5475655Y6130633D01*
X5476707Y6130271D01*
X5477617Y6129840D01*
X5478527Y6129339D01*
X5479296Y6128839D01*
X5479994Y6128269D01*
X5480623Y6127770D01*
X5481181Y6127272D01*
X5481668Y6126775D01*
X5482016Y6126349D01*
X5482294Y6125995D01*
X5482502Y6125711D01*
X5482642Y6125569D01*
X5482711Y6125498D01*
X5483195Y6124649D01*
X5483747Y6123518D01*
X5484227Y6122247D01*
X5484776Y6120834D01*
X5485254Y6119282D01*
X5485730Y6117659D01*
X5486684Y6114483D01*
X5487091Y6112861D01*
X5487428Y6111380D01*
X5487767Y6110040D01*
X5488036Y6108841D01*
X5488238Y6107854D01*
X5488441Y6107078D01*
X5488509Y6106796D01*
X5488507Y6106585D01*
X5488577Y6106514D01*
X5488576Y6106443D01*
X5488846Y6105315D01*
X5489119Y6104397D01*
X5489393Y6103691D01*
X5489669Y6103126D01*
X5489877Y6102772D01*
X5490085Y6102488D01*
X5490154Y6102347D01*
X5490224Y6102276D01*
X5490573Y6101991D01*
X5490992Y6101705D01*
X5491694Y6101487D01*
X5492045Y6101414D01*
X5492325Y6101341D01*
X5492466Y6101339D01*
X5492536Y6101339D01*
X5493311Y6101401D01*
X5493946Y6101606D01*
X5494512Y6101882D01*
X5495007Y6102159D01*
X5495362Y6102437D01*
X5495646Y6102715D01*
X5495789Y6102925D01*
X5495860Y6102995D01*
X5496432Y6103974D01*
X5496865Y6105096D01*
X5497229Y6106288D01*
X5497452Y6107482D01*
X5497603Y6108536D01*
X5497607Y6109029D01*
X5497682Y6109450D01*
X5497690Y6110224D01*
X5497634Y6111772D01*
X5497436Y6113111D01*
X5497167Y6114310D01*
X5496824Y6115298D01*
X5496480Y6116076D01*
X5496204Y6116641D01*
X5495996Y6116925D01*
X5495927Y6117066D01*
X5495161Y6117918D01*
X5494323Y6118560D01*
X5493414Y6119131D01*
X5492504Y6119562D01*
X5491733Y6119922D01*
X5491032Y6120140D01*
X5490610Y6120214D01*
X5490541Y6120285D01*
X5490470Y6120286D01*
X5492492Y6132720D01*
X5493684Y6132357D01*
D02*
G37*
G36*
X5467958Y6077445D02*
X5467308Y6075763D01*
X5466659Y6074151D01*
X5465940Y6072540D01*
X5465151Y6071070D01*
X5464363Y6069670D01*
X5463577Y6068341D01*
X5462791Y6067152D01*
X5462006Y6066034D01*
X5461292Y6064986D01*
X5460580Y6064149D01*
X5459939Y6063310D01*
X5459440Y6062682D01*
X5459013Y6062194D01*
X5458657Y6061775D01*
X5458444Y6061566D01*
X5458373Y6061496D01*
X5505159Y6061039D01*
X5505037Y6048586D01*
X5439889Y6049223D01*
X5439988Y6059354D01*
X5441118Y6059765D01*
X5442178Y6060248D01*
X5444160Y6061425D01*
X5445931Y6062674D01*
X5447492Y6063995D01*
X5448201Y6064621D01*
X5448770Y6065179D01*
X5449337Y6065666D01*
X5449764Y6066154D01*
X5450120Y6066502D01*
X5450333Y6066782D01*
X5450476Y6066991D01*
X5450547Y6067061D01*
X5452116Y6069157D01*
X5453401Y6071114D01*
X5454474Y6072863D01*
X5455263Y6074403D01*
X5455622Y6075103D01*
X5455909Y6075734D01*
X5456125Y6076224D01*
X5456341Y6076714D01*
X5456485Y6077065D01*
X5456558Y6077345D01*
X5456630Y6077485D01*
X5456631Y6077556D01*
X5467958Y6077445D01*
D02*
G37*
%LPC*%
G36*
X3650127Y7965433D02*
X3633644D01*
Y7936692D01*
X3552599D01*
Y7965433D01*
D01*
Y7888087D01*
D01*
Y7917039D01*
X3633644D01*
Y7888087D01*
X3552599D01*
X3650127D01*
Y7965433D01*
D02*
G37*
G36*
X3552599Y7884600D02*
Y7863150D01*
X3574789Y7854591D01*
Y7815601D01*
X3552599Y7807465D01*
Y7786649D01*
X3650127Y7824583D01*
Y7848357D01*
Y7845504D01*
X3552599Y7884600D01*
D02*
G37*
G36*
X3582397Y7779887D02*
X3552599D01*
Y7698208D01*
X3650127D01*
Y7741108D01*
X3650022Y7742376D01*
Y7743644D01*
X3649916Y7746497D01*
X3649705Y7749350D01*
X3649388Y7752097D01*
X3649282Y7753259D01*
X3649071Y7754422D01*
Y7754633D01*
X3648965Y7754950D01*
X3648859Y7755373D01*
X3648648Y7756429D01*
X3648225Y7757803D01*
X3647697Y7759388D01*
X3646957Y7761078D01*
X3646112Y7762875D01*
X3645055Y7764565D01*
Y7764671D01*
X3644950Y7764777D01*
X3644527Y7765305D01*
X3643787Y7766150D01*
X3642942Y7767207D01*
X3641674Y7768369D01*
X3640301Y7769637D01*
X3638716Y7770905D01*
X3636919Y7772068D01*
X3636814D01*
X3636708Y7772173D01*
X3636391Y7772385D01*
X3636074Y7772596D01*
X3635017Y7773018D01*
X3633644Y7773652D01*
X3631953Y7774181D01*
X3629945Y7774709D01*
X3627832Y7775026D01*
X3625508Y7775132D01*
X3625402D01*
X3625191D01*
X3624874D01*
X3624345Y7775026D01*
X3623711D01*
X3623077Y7774920D01*
X3621387Y7774709D01*
X3619379Y7774181D01*
X3617266Y7773547D01*
X3615153Y7772701D01*
X3612934Y7771434D01*
X3612828D01*
X3612722Y7771222D01*
X3612405Y7771011D01*
X3611983Y7770800D01*
X3611032Y7769954D01*
X3609764Y7768792D01*
X3608390Y7767313D01*
X3606911Y7765622D01*
X3605537Y7763614D01*
X3604375Y7761395D01*
Y7761501D01*
X3604269Y7761818D01*
X3604058Y7762241D01*
X3603846Y7762875D01*
X3603529Y7763614D01*
X3603213Y7764460D01*
X3602262Y7766467D01*
X3601099Y7768581D01*
X3599514Y7770905D01*
X3597718Y7773124D01*
X3595499Y7775026D01*
X3595393Y7775132D01*
X3595182Y7775237D01*
X3594865Y7775449D01*
X3594442Y7775766D01*
X3593808Y7776188D01*
X3593069Y7776611D01*
X3592223Y7777034D01*
X3591378Y7777456D01*
X3589159Y7778302D01*
X3586729Y7779147D01*
X3583876Y7779675D01*
X3582397Y7779887D01*
D02*
G37*
G36*
X3650127Y7688170D02*
D01*
X3552599Y7653301D01*
Y7632168D01*
X3650127Y7597405D01*
X3552599D01*
X3650127D01*
Y7688170D01*
D02*
G37*
%LPD*%
G36*
X3627410Y7834832D02*
X3591272Y7821624D01*
Y7848357D01*
X3627410Y7834832D01*
D02*
G37*
G36*
X3579121Y7779781D02*
X3578381Y7779675D01*
X3576691Y7779464D01*
X3574683Y7779147D01*
X3572570Y7778513D01*
X3570245Y7777773D01*
X3567815Y7776717D01*
X3567709D01*
X3567498Y7776611D01*
X3567181Y7776400D01*
X3566758Y7776188D01*
X3565596Y7775449D01*
X3564222Y7774498D01*
X3562638Y7773335D01*
X3560947Y7771856D01*
X3559256Y7770166D01*
X3557777Y7768264D01*
Y7768158D01*
X3557671Y7768052D01*
X3557460Y7767735D01*
X3557143Y7767313D01*
X3556932Y7766784D01*
X3556615Y7766150D01*
X3555875Y7764671D01*
X3555030Y7762769D01*
X3554290Y7760444D01*
X3553656Y7757909D01*
X3553233Y7755056D01*
Y7754527D01*
X3553128Y7753999D01*
Y7753365D01*
X3553022Y7752520D01*
Y7751463D01*
X3552916Y7750301D01*
Y7748821D01*
X3552811Y7747131D01*
Y7745229D01*
X3552705Y7743010D01*
Y7737832D01*
X3552599Y7734768D01*
Y7779887D01*
X3579649D01*
X3579121Y7779781D01*
D02*
G37*
G36*
X3624345Y7755901D02*
X3625296Y7755690D01*
X3626459Y7755373D01*
X3627727Y7754950D01*
X3628889Y7754316D01*
X3630051Y7753471D01*
X3630157Y7753365D01*
X3630474Y7753048D01*
X3631002Y7752414D01*
X3631530Y7751569D01*
X3632164Y7750512D01*
X3632693Y7749244D01*
X3633115Y7747765D01*
X3633432Y7745969D01*
Y7745652D01*
X3633538Y7745335D01*
Y7744384D01*
X3633644Y7743644D01*
Y7741848D01*
X3633749Y7740580D01*
Y7737727D01*
X3633855Y7735930D01*
Y7717862D01*
X3611349D01*
Y7736881D01*
X3611454Y7739312D01*
Y7741636D01*
X3611560Y7742693D01*
Y7743644D01*
X3611666Y7744489D01*
Y7745335D01*
X3611771Y7745969D01*
X3611983Y7746919D01*
X3612300Y7747976D01*
X3612722Y7749244D01*
X3613356Y7750618D01*
X3614096Y7751886D01*
X3615047Y7753048D01*
X3615153Y7753154D01*
X3615575Y7753471D01*
X3616209Y7753999D01*
X3617160Y7754527D01*
X3618217Y7755056D01*
X3619590Y7755584D01*
X3621070Y7755901D01*
X3622760Y7756007D01*
X3622972D01*
X3623500D01*
X3624345Y7755901D01*
D02*
G37*
G36*
X3583348Y7759493D02*
X3584299Y7759282D01*
X3585461Y7759071D01*
X3586729Y7758648D01*
X3587997Y7758120D01*
X3589159Y7757380D01*
X3589265Y7757275D01*
X3589688Y7756958D01*
X3590216Y7756535D01*
X3590850Y7755795D01*
X3591589Y7754950D01*
X3592329Y7753893D01*
X3592963Y7752625D01*
X3593597Y7751252D01*
X3593703Y7751040D01*
Y7750829D01*
X3593808Y7750406D01*
X3593914Y7749878D01*
X3594020Y7749244D01*
X3594231Y7748504D01*
X3594337Y7747553D01*
X3594442Y7746497D01*
X3594654Y7745229D01*
X3594759Y7743750D01*
X3594865Y7742165D01*
X3594971Y7740368D01*
Y7738361D01*
X3595076Y7736142D01*
Y7717862D01*
X3569083D01*
Y7739523D01*
X3569189Y7741742D01*
Y7744067D01*
X3569294Y7746285D01*
X3569400Y7747236D01*
Y7748187D01*
X3569506Y7748927D01*
X3569611Y7749561D01*
Y7749772D01*
X3569823Y7750301D01*
X3570034Y7751146D01*
X3570457Y7752097D01*
X3570985Y7753259D01*
X3571619Y7754422D01*
X3572464Y7755690D01*
X3573521Y7756746D01*
X3573627Y7756852D01*
X3574049Y7757169D01*
X3574789Y7757697D01*
X3575740Y7758226D01*
X3576902Y7758648D01*
X3578276Y7759177D01*
X3579966Y7759493D01*
X3581763Y7759599D01*
X3581974D01*
X3582502D01*
X3583348Y7759493D01*
D02*
G37*
G36*
X3650127Y7618643D02*
X3577959Y7643369D01*
X3650127Y7667249D01*
Y7618643D01*
D02*
G37*
%LPC*%
G36*
X9058957Y7155986D02*
X9051902Y7147167D01*
X9050231Y7144568D01*
X9048375Y7143640D01*
X9047018Y7139569D01*
X9050231Y7144568D01*
X9051902Y7145404D01*
Y7147167D01*
X9055430Y7148931D01*
X9058957Y7155986D01*
D02*
G37*
G36*
X9047018Y7139569D02*
X9036028Y7122474D01*
X9021918Y7097782D01*
X9011336Y7074853D01*
X9004280Y7053687D01*
X8998989Y7034286D01*
X8993698Y7020175D01*
X8991934Y7011357D01*
Y7007829D01*
X8988406Y6981372D01*
X8986643Y6956680D01*
X8988406Y6933750D01*
Y6914349D01*
X8990170Y6896711D01*
X8993698Y6884365D01*
X8995462Y6877310D01*
Y6873782D01*
X9002517Y6850853D01*
X9009572Y6829688D01*
X9018391Y6808522D01*
X9027210Y6789121D01*
X9036028Y6773247D01*
X9043084Y6760900D01*
X9046611Y6753845D01*
X9048375Y6750318D01*
X9062485Y6727389D01*
X9076595Y6706223D01*
X9088942Y6688586D01*
X9099524Y6672712D01*
X9110107Y6660365D01*
X9117162Y6651546D01*
X9122453Y6644491D01*
X9124217Y6642727D01*
X9152438Y6610979D01*
X9166548Y6596869D01*
X9178894Y6584523D01*
X9189477Y6573940D01*
X9198296Y6565121D01*
X9203587Y6559830D01*
X9205351Y6558066D01*
X9221225Y6543956D01*
X9233571Y6531609D01*
X9244154Y6522791D01*
X9252973Y6515736D01*
X9258264Y6510444D01*
X9263556Y6506917D01*
X9265319Y6503389D01*
X9267083D01*
X9277666Y6494570D01*
X9284721Y6487515D01*
X9290012Y6483988D01*
X9291776Y6482224D01*
X9288248Y6506917D01*
Y6531609D01*
X9291776Y6554539D01*
X9295303Y6575704D01*
X9298831Y6595105D01*
X9304122Y6609216D01*
X9305886Y6618035D01*
X9307650Y6621562D01*
X9318233Y6649782D01*
X9328815Y6676239D01*
X9341162Y6699168D01*
X9351744Y6720334D01*
X9360563Y6736208D01*
X9367618Y6748554D01*
X9372910Y6755609D01*
X9374673Y6759137D01*
X9406421Y6803231D01*
X9422295Y6822633D01*
X9436406Y6842034D01*
X9450516Y6856144D01*
X9461098Y6868491D01*
X9468154Y6877310D01*
X9469917Y6879073D01*
X9489319Y6900239D01*
X9505193Y6917876D01*
X9519303Y6931987D01*
X9529886Y6944333D01*
X9538705Y6951388D01*
X9543996Y6958443D01*
X9547523Y6960207D01*
X9549287Y6961971D01*
X9563397Y6976081D01*
X9573980Y6984900D01*
X9581035Y6990191D01*
X9582799Y6991955D01*
X9549287Y6965498D01*
X9517539Y6942569D01*
X9487555Y6917876D01*
X9459335Y6896711D01*
X9434642Y6875546D01*
X9409949Y6856144D01*
X9388784Y6836743D01*
X9367618Y6819105D01*
X9332343Y6787357D01*
X9302359Y6759137D01*
X9279429Y6732680D01*
X9260028Y6711515D01*
X9244154Y6693877D01*
X9233571Y6679767D01*
X9226516Y6667420D01*
X9221225Y6658601D01*
X9217697Y6651546D01*
X9215934Y6646255D01*
Y6644491D01*
Y6642727D01*
X9184186Y6681530D01*
X9155965Y6716806D01*
X9131272Y6750318D01*
X9111871Y6780302D01*
X9095997Y6803231D01*
X9085414Y6822633D01*
X9081887Y6829688D01*
X9078359Y6834979D01*
X9076595Y6836743D01*
Y6838507D01*
X9060721Y6872018D01*
X9048375Y6902002D01*
X9037792Y6928459D01*
X9032501Y6951388D01*
X9028973Y6969026D01*
X9027210Y6983136D01*
X9025446Y6990191D01*
Y6993719D01*
X9023682Y7016648D01*
Y7036049D01*
X9025446Y7051923D01*
Y7066034D01*
X9027210Y7076616D01*
Y7085435D01*
X9028973Y7088963D01*
Y7090726D01*
X9036028Y7113656D01*
X9043084Y7131293D01*
X9046611Y7138348D01*
X9047018Y7139569D01*
D02*
G37*
G36*
X9563397Y6864963D02*
X9529886Y6834979D01*
X9498138Y6803231D01*
X9471681Y6771483D01*
X9448752Y6743263D01*
X9431114Y6718570D01*
X9417004Y6699168D01*
X9413476Y6692113D01*
X9409949Y6686822D01*
X9406421Y6683294D01*
Y6681530D01*
X9387020Y6642727D01*
X9371146Y6607452D01*
X9360563Y6575704D01*
X9353508Y6545720D01*
X9349981Y6522791D01*
X9348217Y6505153D01*
Y6498098D01*
Y6492806D01*
Y6491043D01*
Y6489279D01*
X9349981Y6473405D01*
X9353508Y6459295D01*
X9364091Y6434602D01*
X9378201Y6415200D01*
X9395839Y6401090D01*
X9411713Y6390507D01*
X9425823Y6383452D01*
X9436406Y6379925D01*
X9438169Y6378161D01*
X9439933D01*
X9471681Y6372870D01*
X9501665Y6371106D01*
X9531649Y6372870D01*
X9556342Y6378161D01*
X9577508Y6383452D01*
X9593382Y6388744D01*
X9603964Y6392271D01*
X9605728Y6394035D01*
X9607492D01*
X9637476Y6408145D01*
X9663933Y6424019D01*
X9686862Y6439893D01*
X9706263Y6455767D01*
X9720373Y6468114D01*
X9732720Y6480460D01*
X9739775Y6487515D01*
X9741539Y6489279D01*
X9760940Y6512208D01*
X9778578Y6535137D01*
X9794452Y6559830D01*
X9808562Y6580995D01*
X9820909Y6600397D01*
X9829728Y6614507D01*
X9836783Y6625090D01*
X9838546Y6628617D01*
X9854420Y6656838D01*
X9866767Y6681530D01*
X9877350Y6700932D01*
X9886168Y6716806D01*
X9891460Y6729152D01*
X9894987Y6736208D01*
X9898515Y6741499D01*
Y6743263D01*
X9905570Y6766192D01*
X9912625Y6782066D01*
X9914389Y6792648D01*
X9916153Y6796176D01*
X9896751Y6759137D01*
X9877350Y6727389D01*
X9866767Y6711515D01*
X9857948Y6697404D01*
X9849129Y6685058D01*
X9842074Y6674475D01*
X9836783Y6667420D01*
X9835019Y6665656D01*
X9803271Y6626853D01*
X9789161Y6609216D01*
X9775051Y6593342D01*
X9762704Y6579231D01*
X9753885Y6568649D01*
X9746830Y6561594D01*
X9745066Y6559830D01*
X9725665Y6540428D01*
X9706263Y6524554D01*
X9686862Y6510444D01*
X9667460Y6499862D01*
X9651586Y6491043D01*
X9639240Y6483988D01*
X9632185Y6480460D01*
X9628657Y6478696D01*
X9603964Y6469877D01*
X9579271Y6464586D01*
X9558106Y6461058D01*
X9508720D01*
X9501665Y6462822D01*
X9498138D01*
X9484028Y6466350D01*
X9471681Y6471641D01*
X9452280Y6485751D01*
X9438169Y6503389D01*
X9429350Y6524554D01*
X9424059Y6547483D01*
Y6570413D01*
X9427587Y6596869D01*
X9432878Y6621562D01*
X9441697Y6648019D01*
X9450516Y6670948D01*
X9459335Y6693877D01*
X9468154Y6713278D01*
X9476972Y6730916D01*
X9482264Y6743263D01*
X9487555Y6750318D01*
X9489319Y6753845D01*
X9501665Y6773247D01*
X9514012Y6790885D01*
X9522831Y6804995D01*
X9531649Y6817341D01*
X9538705Y6829688D01*
X9545760Y6838507D01*
X9554579Y6850853D01*
X9559870Y6859672D01*
X9561634Y6863199D01*
X9563397Y6864963D01*
D02*
G37*
G36*
X9960247Y6889656D02*
X9958483D01*
X9990231Y6854380D01*
X10020215Y6817341D01*
X10044908Y6782066D01*
X10067837Y6748554D01*
X10087239Y6715042D01*
X10104877Y6683294D01*
X10118987Y6653310D01*
X10131333Y6625090D01*
X10140152Y6598633D01*
X10148971Y6575704D01*
X10154262Y6554539D01*
X10159554Y6536901D01*
X10163081Y6522791D01*
X10164845Y6512208D01*
X10166609Y6505153D01*
Y6503389D01*
X10170136Y6468114D01*
Y6432838D01*
X10166609Y6401090D01*
X10161317Y6369342D01*
X10154262Y6339358D01*
X10145444Y6311137D01*
X10136625Y6284681D01*
X10126042Y6261752D01*
X10115459Y6238823D01*
X10104877Y6219421D01*
X10096058Y6203547D01*
X10087239Y6189437D01*
X10078420Y6178854D01*
X10073129Y6170035D01*
X10069601Y6164744D01*
X10067837Y6162980D01*
X10044908Y6134760D01*
X10021979Y6108303D01*
X9997286Y6083610D01*
X9974357Y6062445D01*
X9954956Y6044807D01*
X9939082Y6032461D01*
X9928499Y6023642D01*
X9926735Y6020114D01*
X9924972D01*
X9894987Y5998949D01*
X9868531Y5981311D01*
X9847366Y5967201D01*
X9829728Y5956619D01*
X9817381Y5947800D01*
X9808563Y5942508D01*
X9803271Y5940745D01*
X9801507Y5938981D01*
X9776815Y5926634D01*
X9757413Y5917815D01*
X9750358Y5914288D01*
X9745067Y5912524D01*
X9744345Y5911803D01*
X9741539Y5910760D01*
X9743303D01*
X9744345Y5911803D01*
X9803271Y5933689D01*
X9859712Y5956619D01*
X9910862Y5981311D01*
X9956719Y6006004D01*
X9999050Y6030697D01*
X10034326Y6053626D01*
X10067837Y6078319D01*
X10096058Y6099484D01*
X10118987Y6120650D01*
X10140152Y6140051D01*
X10156026Y6157689D01*
X10170136Y6173563D01*
X10178955Y6184146D01*
X10186010Y6194728D01*
X10189538Y6200020D01*
X10191302Y6201783D01*
X10214231Y6242350D01*
X10231869Y6281153D01*
X10245979Y6314665D01*
X10256561Y6344649D01*
X10261853Y6369342D01*
X10267144Y6386980D01*
Y6394035D01*
X10268908Y6399327D01*
Y6401090D01*
Y6402854D01*
X10283018Y6394035D01*
X10295364Y6385216D01*
X10323585Y6360523D01*
X10348278Y6330539D01*
X10371207Y6300555D01*
X10390608Y6272335D01*
X10399427Y6259988D01*
X10404719Y6249406D01*
X10411774Y6238823D01*
X10415301Y6231768D01*
X10417065Y6228240D01*
X10418829Y6226476D01*
X10441758Y6178855D01*
X10452341Y6157689D01*
X10461159Y6138288D01*
X10468215Y6120650D01*
X10473506Y6108304D01*
X10477033Y6099485D01*
X10478797Y6095957D01*
X10459396Y6161217D01*
X10438230Y6222949D01*
X10413537Y6282917D01*
X10388845Y6339358D01*
X10364152Y6394035D01*
X10337695Y6443421D01*
X10311238Y6489279D01*
X10284782Y6533374D01*
X10260089Y6570413D01*
X10237160Y6605688D01*
X10217758Y6633908D01*
X10198357Y6658601D01*
X10184247Y6678003D01*
X10171900Y6692113D01*
X10164845Y6700932D01*
X10163081Y6704460D01*
X10122514Y6750318D01*
X10083711Y6787357D01*
X10048436Y6819105D01*
X10018452Y6845562D01*
X9993759Y6864963D01*
X9974357Y6879073D01*
X9967302Y6884365D01*
X9962011Y6887892D01*
X9960247Y6889656D01*
D02*
G37*
G36*
X9976121Y6780302D02*
X9969066Y6741499D01*
X9965538Y6725625D01*
X9960247Y6707987D01*
X9953192Y6690349D01*
X9947901Y6672712D01*
X9940845Y6658601D01*
X9937318Y6646255D01*
X9933790Y6639200D01*
X9932027Y6635672D01*
X9907334Y6589814D01*
X9894987Y6568649D01*
X9882641Y6549247D01*
X9872058Y6533373D01*
X9863239Y6519263D01*
X9857948Y6512208D01*
X9856184Y6508680D01*
X9836783Y6483988D01*
X9815617Y6461058D01*
X9792688Y6441657D01*
X9771523Y6422255D01*
X9750358Y6406381D01*
X9734484Y6395799D01*
X9723901Y6388744D01*
X9722137Y6385216D01*
X9720373D01*
X9685098Y6364051D01*
X9649822Y6348177D01*
X9614547Y6332303D01*
X9582799Y6321720D01*
X9554579Y6312901D01*
X9543996Y6309374D01*
X9533413Y6305846D01*
X9524594Y6304082D01*
X9519303Y6302319D01*
X9515775Y6300555D01*
X9531649D01*
X9545760Y6302319D01*
X9551051D01*
X9565161Y6304082D01*
X9581035Y6305846D01*
X9612783Y6312901D01*
X9625130Y6314665D01*
X9635712Y6318193D01*
X9644531Y6319956D01*
X9646295D01*
X9690389Y6332303D01*
X9709791Y6337594D01*
X9729192Y6342885D01*
X9745066Y6348177D01*
X9757413Y6351704D01*
X9764468Y6355232D01*
X9767995D01*
X9790925Y6364051D01*
X9813854Y6376397D01*
X9835019Y6386980D01*
X9854420Y6399326D01*
X9870294Y6409909D01*
X9882641Y6418728D01*
X9889696Y6424019D01*
X9893224Y6425783D01*
X9914389Y6445184D01*
X9933790Y6464586D01*
X9949664Y6482224D01*
X9963775Y6499862D01*
X9974357Y6513972D01*
X9981412Y6526318D01*
X9986704Y6533373D01*
X9988467Y6536901D01*
X9995523Y6503389D01*
X9997286Y6489279D01*
X9999050Y6473405D01*
Y6441657D01*
Y6427547D01*
Y6416964D01*
Y6409909D01*
Y6406381D01*
X9993759Y6360523D01*
X9990231Y6339358D01*
X9986704Y6319956D01*
X9983176Y6302319D01*
X9979649Y6289972D01*
X9977885Y6281153D01*
Y6277626D01*
X9969066Y6251169D01*
X9958483Y6224712D01*
X9947901Y6200020D01*
X9935554Y6177091D01*
X9923208Y6157689D01*
X9914389Y6143579D01*
X9907334Y6132996D01*
X9905570Y6131232D01*
Y6129469D01*
X9884405Y6101248D01*
X9859712Y6073028D01*
X9836783Y6050099D01*
X9813854Y6028933D01*
X9794452Y6011296D01*
X9778578Y5997185D01*
X9767995Y5990130D01*
X9766820Y5987778D01*
X9792688Y6000713D01*
X9815617Y6013059D01*
X9838546Y6027170D01*
X9847365Y6032461D01*
X9854420Y6037752D01*
X9859712Y6041280D01*
X9861476Y6043044D01*
X9889696Y6067736D01*
X9916153Y6092429D01*
X9928499Y6103012D01*
X9937318Y6111831D01*
X9942609Y6117122D01*
X9944373Y6118886D01*
X9960247Y6136524D01*
X9974357Y6154161D01*
X9988467Y6173563D01*
X9999050Y6191201D01*
X10009633Y6207075D01*
X10016688Y6219421D01*
X10020215Y6226476D01*
X10021979Y6230004D01*
X10043145Y6281153D01*
X10050200Y6304082D01*
X10057255Y6327011D01*
X10060782Y6344649D01*
X10064310Y6360523D01*
X10067837Y6369342D01*
Y6372870D01*
X10071365Y6402854D01*
Y6434602D01*
X10069601Y6464586D01*
X10067837Y6494570D01*
X10064310Y6519263D01*
X10062546Y6538665D01*
X10060782Y6545720D01*
X10059018Y6551011D01*
Y6554539D01*
Y6556302D01*
X10050200Y6596869D01*
X10037853Y6637436D01*
X10023743Y6674475D01*
X10009633Y6707987D01*
X9997286Y6737971D01*
X9990231Y6750318D01*
X9986704Y6760900D01*
X9981412Y6769719D01*
X9977885Y6775011D01*
X9976121Y6778538D01*
Y6780302D01*
D02*
G37*
G36*
X9766820Y5987778D02*
X9764468Y5986603D01*
X9766232D01*
X9766820Y5987778D01*
D02*
G37*
G36*
X3676986Y7173118D02*
X3657333D01*
Y7129796D01*
X3617497Y7173118D01*
X3590976D01*
X3627852Y7135185D01*
X3589074Y7075591D01*
X3614539D01*
X3641483Y7121343D01*
X3657333Y7104965D01*
Y7075591D01*
X3676986D01*
Y7173118D01*
D02*
G37*
G36*
X3581149Y7120286D02*
X3544378D01*
Y7101584D01*
X3581149D01*
Y7120286D01*
D02*
G37*
G36*
X3733516Y7174703D02*
X3732671D01*
X3731826Y7174598D01*
X3730558Y7174492D01*
X3729078Y7174386D01*
X3727282Y7174175D01*
X3725274Y7173858D01*
X3723161Y7173330D01*
X3720942Y7172802D01*
X3718618Y7172062D01*
X3716187Y7171217D01*
X3713757Y7170160D01*
X3711327Y7168998D01*
X3708897Y7167518D01*
X3706678Y7165933D01*
X3704459Y7164031D01*
X3704353Y7163926D01*
X3704142Y7163714D01*
X3703825Y7163397D01*
X3703402Y7162869D01*
X3702768Y7162235D01*
X3702134Y7161495D01*
X3701500Y7160544D01*
X3700655Y7159488D01*
X3699915Y7158220D01*
X3699070Y7156952D01*
X3698225Y7155473D01*
X3697379Y7153888D01*
X3696640Y7152091D01*
X3695794Y7150295D01*
X3695055Y7148287D01*
X3694421Y7146174D01*
X3713863Y7141525D01*
Y7141631D01*
X3713968Y7141842D01*
X3714074Y7142265D01*
X3714180Y7142793D01*
X3714391Y7143427D01*
X3714708Y7144167D01*
X3715448Y7145857D01*
X3716399Y7147759D01*
X3717667Y7149767D01*
X3719252Y7151669D01*
X3721154Y7153465D01*
X3721259Y7153571D01*
X3721365Y7153676D01*
X3721682Y7153888D01*
X3722105Y7154205D01*
X3722633Y7154522D01*
X3723267Y7154839D01*
X3724852Y7155684D01*
X3726859Y7156529D01*
X3729078Y7157163D01*
X3731614Y7157692D01*
X3734467Y7157903D01*
X3735524D01*
X3736264Y7157797D01*
X3737215Y7157692D01*
X3738271Y7157480D01*
X3739433Y7157269D01*
X3740701Y7156952D01*
X3742075Y7156529D01*
X3743554Y7156001D01*
X3745034Y7155367D01*
X3746513Y7154627D01*
X3747992Y7153676D01*
X3749366Y7152620D01*
X3750845Y7151457D01*
X3752113Y7150084D01*
X3752219Y7149978D01*
X3752430Y7149767D01*
X3752747Y7149238D01*
X3753170Y7148604D01*
X3753698Y7147759D01*
X3754226Y7146702D01*
X3754860Y7145435D01*
X3755389Y7143955D01*
X3756023Y7142370D01*
X3756657Y7140468D01*
X3757185Y7138461D01*
X3757713Y7136136D01*
X3758136Y7133600D01*
X3758453Y7130959D01*
X3758664Y7128000D01*
X3758770Y7124830D01*
Y7124619D01*
Y7123985D01*
Y7123034D01*
X3758664Y7121871D01*
X3758559Y7120286D01*
X3758453Y7118596D01*
X3758242Y7116694D01*
X3757925Y7114581D01*
X3757185Y7110248D01*
X3756657Y7108135D01*
X3756023Y7105916D01*
X3755283Y7103803D01*
X3754332Y7101901D01*
X3753381Y7100105D01*
X3752219Y7098520D01*
X3752113Y7098414D01*
X3751902Y7098203D01*
X3751479Y7097780D01*
X3751057Y7097252D01*
X3750317Y7096723D01*
X3749577Y7096089D01*
X3748626Y7095350D01*
X3747570Y7094610D01*
X3746407Y7093870D01*
X3745034Y7093131D01*
X3743660Y7092497D01*
X3742075Y7091969D01*
X3740490Y7091440D01*
X3738694Y7091018D01*
X3736792Y7090806D01*
X3734890Y7090701D01*
X3734150D01*
X3733622Y7090806D01*
X3732882D01*
X3732143Y7091018D01*
X3730241Y7091335D01*
X3728127Y7091969D01*
X3725908Y7092814D01*
X3723690Y7094082D01*
X3722527Y7094821D01*
X3721471Y7095667D01*
X3721365Y7095772D01*
X3721259Y7095878D01*
X3720942Y7096195D01*
X3720520Y7096618D01*
X3720097Y7097146D01*
X3719569Y7097780D01*
X3718935Y7098625D01*
X3718301Y7099471D01*
X3717667Y7100527D01*
X3716927Y7101690D01*
X3716293Y7102958D01*
X3715553Y7104437D01*
X3714919Y7105916D01*
X3714285Y7107607D01*
X3713757Y7109509D01*
X3713229Y7111411D01*
X3694104Y7105494D01*
Y7105282D01*
X3694315Y7104754D01*
X3694526Y7104014D01*
X3694949Y7102852D01*
X3695477Y7101584D01*
X3696006Y7099999D01*
X3696745Y7098308D01*
X3697591Y7096512D01*
X3698541Y7094610D01*
X3699598Y7092603D01*
X3700866Y7090595D01*
X3702134Y7088693D01*
X3703613Y7086685D01*
X3705198Y7084889D01*
X3706889Y7083198D01*
X3708791Y7081613D01*
X3708897Y7081508D01*
X3709214Y7081296D01*
X3709848Y7080874D01*
X3710587Y7080451D01*
X3711644Y7079817D01*
X3712806Y7079183D01*
X3714180Y7078444D01*
X3715870Y7077810D01*
X3717561Y7077070D01*
X3719569Y7076330D01*
X3721682Y7075696D01*
X3724007Y7075062D01*
X3726437Y7074640D01*
X3729078Y7074217D01*
X3731826Y7074006D01*
X3734679Y7073900D01*
X3735524D01*
X3736581Y7074006D01*
X3737954Y7074111D01*
X3739539Y7074323D01*
X3741441Y7074640D01*
X3743660Y7074957D01*
X3745985Y7075591D01*
X3748415Y7076225D01*
X3751057Y7077176D01*
X3753698Y7078232D01*
X3756340Y7079500D01*
X3758981Y7080979D01*
X3761623Y7082776D01*
X3764159Y7084783D01*
X3766589Y7087108D01*
X3766695Y7087214D01*
X3767117Y7087742D01*
X3767751Y7088482D01*
X3768491Y7089538D01*
X3769442Y7090912D01*
X3770499Y7092497D01*
X3771661Y7094399D01*
X3772823Y7096618D01*
X3773986Y7099048D01*
X3775148Y7101795D01*
X3776205Y7104754D01*
X3777156Y7108029D01*
X3777895Y7111516D01*
X3778529Y7115215D01*
X3778952Y7119124D01*
X3779057Y7123351D01*
Y7125041D01*
X3778952Y7125675D01*
X3778846Y7127366D01*
X3778635Y7129374D01*
X3778423Y7131804D01*
X3778001Y7134445D01*
X3777473Y7137193D01*
X3776839Y7140257D01*
X3775993Y7143321D01*
X3775042Y7146491D01*
X3773774Y7149661D01*
X3772401Y7152725D01*
X3770710Y7155684D01*
X3768808Y7158537D01*
X3766589Y7161178D01*
X3766483Y7161284D01*
X3765955Y7161812D01*
X3765321Y7162446D01*
X3764265Y7163292D01*
X3762997Y7164348D01*
X3761517Y7165511D01*
X3759721Y7166673D01*
X3757713Y7167941D01*
X3755494Y7169209D01*
X3752958Y7170477D01*
X3750317Y7171534D01*
X3747358Y7172590D01*
X3744188Y7173435D01*
X3740807Y7174175D01*
X3737215Y7174598D01*
X3733516Y7174703D01*
D02*
G37*
G36*
X3964815Y7173118D02*
X3928889D01*
X3927198Y7173013D01*
X3925508D01*
X3923606Y7172907D01*
X3919591Y7172802D01*
X3917689Y7172590D01*
X3915787Y7172485D01*
X3913990Y7172379D01*
X3912405Y7172168D01*
X3911032Y7171851D01*
X3909869Y7171639D01*
X3909764D01*
X3909447Y7171534D01*
X3909024Y7171428D01*
X3908496Y7171217D01*
X3907756Y7170900D01*
X3906911Y7170583D01*
X3905009Y7169632D01*
X3902790Y7168364D01*
X3900465Y7166673D01*
X3899197Y7165616D01*
X3898035Y7164560D01*
X3896873Y7163397D01*
X3895816Y7162024D01*
X3895711Y7161918D01*
X3895605Y7161707D01*
X3895288Y7161284D01*
X3894971Y7160756D01*
X3894443Y7160016D01*
X3894020Y7159065D01*
X3893492Y7158114D01*
X3892963Y7156952D01*
X3892435Y7155578D01*
X3891907Y7154205D01*
X3891378Y7152620D01*
X3890956Y7150929D01*
X3890639Y7149133D01*
X3890322Y7147231D01*
X3890216Y7145118D01*
X3890110Y7143004D01*
Y7141525D01*
X3890216Y7140785D01*
X3890322Y7139834D01*
X3890427Y7138883D01*
X3890533Y7137721D01*
X3890956Y7135396D01*
X3891484Y7132861D01*
X3892329Y7130325D01*
X3893386Y7127894D01*
Y7127789D01*
X3893492Y7127683D01*
X3893703Y7127366D01*
X3894020Y7126943D01*
X3894654Y7125781D01*
X3895605Y7124407D01*
X3896873Y7122928D01*
X3898246Y7121343D01*
X3899937Y7119758D01*
X3901733Y7118279D01*
X3901839D01*
X3901945Y7118173D01*
X3902579Y7117751D01*
X3903530Y7117117D01*
X3904903Y7116377D01*
X3906383Y7115637D01*
X3908073Y7114898D01*
X3909975Y7114264D01*
X3911877Y7113735D01*
X3911983D01*
X3912194Y7113630D01*
X3912617D01*
X3913145Y7113524D01*
X3913885Y7113418D01*
X3914836Y7113313D01*
X3915892Y7113207D01*
X3917055Y7113101D01*
X3918428Y7112890D01*
X3920013Y7112784D01*
X3921704Y7112679D01*
X3923500Y7112573D01*
X3925508Y7112467D01*
X3927621D01*
X3929946Y7112362D01*
X3945161D01*
Y7075591D01*
X3964815D01*
Y7173118D01*
D02*
G37*
G36*
X3845943D02*
X3825021D01*
X3785926Y7075591D01*
X3807375D01*
X3815934Y7097780D01*
X3854924D01*
X3863060Y7075591D01*
X3883876D01*
X3845943Y7173118D01*
D02*
G37*
%LPD*%
G36*
X3945161Y7128845D02*
X3931531D01*
X3930474Y7128951D01*
X3928044Y7129057D01*
X3925508Y7129162D01*
X3922972Y7129479D01*
X3921704Y7129691D01*
X3920647Y7129796D01*
X3919696Y7130113D01*
X3918851Y7130325D01*
X3918640Y7130430D01*
X3918217Y7130642D01*
X3917477Y7130959D01*
X3916632Y7131487D01*
X3915681Y7132227D01*
X3914624Y7133072D01*
X3913568Y7134023D01*
X3912722Y7135185D01*
X3912617Y7135291D01*
X3912405Y7135819D01*
X3911983Y7136453D01*
X3911560Y7137404D01*
X3911137Y7138461D01*
X3910715Y7139729D01*
X3910503Y7141208D01*
X3910398Y7142793D01*
Y7142899D01*
Y7143004D01*
Y7143638D01*
X3910609Y7144695D01*
X3910820Y7145857D01*
X3911137Y7147231D01*
X3911771Y7148710D01*
X3912511Y7150189D01*
X3913568Y7151563D01*
X3913673Y7151669D01*
X3914096Y7152091D01*
X3914836Y7152725D01*
X3915787Y7153465D01*
X3916843Y7154205D01*
X3918217Y7154839D01*
X3919802Y7155473D01*
X3921493Y7155895D01*
X3921704D01*
X3922232Y7156001D01*
X3922655Y7156107D01*
X3923183D01*
X3923817Y7156212D01*
X3924557Y7156318D01*
X3925508D01*
X3926564Y7156424D01*
X3927727D01*
X3928995Y7156529D01*
X3930368D01*
X3931953Y7156635D01*
X3945161D01*
Y7128845D01*
D02*
G37*
G36*
X3848901Y7114264D02*
X3822168D01*
X3835693Y7150401D01*
X3848901Y7114264D01*
D02*
G37*
%LPC*%
G36*
X5915439Y6867428D02*
X5903408D01*
X5902211Y6867357D01*
X5900312D01*
X5899468Y6867287D01*
X5898271D01*
X5897779Y6867217D01*
X5897146D01*
X5896935Y6867146D01*
X5896724D01*
X5895527Y6866935D01*
X5894542Y6866654D01*
X5893698Y6866302D01*
X5892995Y6865880D01*
X5892432Y6865528D01*
X5892010Y6865176D01*
X5891798Y6864965D01*
X5891728Y6864895D01*
X5891165Y6864121D01*
X5890743Y6863347D01*
X5890462Y6862503D01*
X5890251Y6861729D01*
X5890110Y6861095D01*
X5890040Y6860533D01*
Y6860181D01*
Y6860040D01*
X5890110Y6858914D01*
X5890321Y6857929D01*
X5890673Y6857015D01*
X5891025Y6856311D01*
X5891376Y6855678D01*
X5891728Y6855256D01*
X5891939Y6854974D01*
X5892010Y6854904D01*
X5892783Y6854271D01*
X5893628Y6853778D01*
X5894542Y6853356D01*
X5895387Y6853075D01*
X5896090Y6852864D01*
X5896724Y6852723D01*
X5897146Y6852653D01*
X5897709D01*
X5898271Y6852582D01*
X5898905D01*
X5899608Y6852512D01*
X5901156D01*
X5902774Y6852441D01*
X5915439D01*
Y6867428D01*
D02*
G37*
G36*
Y6841606D02*
X5903267D01*
X5901789Y6841536D01*
X5900453D01*
X5899256Y6841466D01*
X5898201Y6841395D01*
X5897216Y6841325D01*
X5896372Y6841184D01*
X5895668Y6841114D01*
X5895035Y6841043D01*
X5894542Y6840903D01*
X5894120Y6840832D01*
X5893769Y6840762D01*
X5893487Y6840692D01*
X5893346D01*
X5893206Y6840621D01*
X5892291Y6840199D01*
X5891447Y6839777D01*
X5890743Y6839285D01*
X5890180Y6838792D01*
X5889688Y6838370D01*
X5889406Y6838018D01*
X5889195Y6837737D01*
X5889125Y6837666D01*
X5888632Y6836892D01*
X5888281Y6836048D01*
X5887999Y6835204D01*
X5887858Y6834430D01*
X5887718Y6833797D01*
X5887647Y6833234D01*
Y6832882D01*
Y6832741D01*
X5887718Y6831545D01*
X5887929Y6830419D01*
X5888281Y6829505D01*
X5888562Y6828731D01*
X5888914Y6828098D01*
X5889266Y6827605D01*
X5889477Y6827324D01*
X5889547Y6827253D01*
X5890251Y6826550D01*
X5891095Y6825987D01*
X5891869Y6825565D01*
X5892643Y6825213D01*
X5893276Y6824931D01*
X5893839Y6824791D01*
X5894191Y6824650D01*
X5894331D01*
X5894754Y6824580D01*
X5895246Y6824509D01*
X5895879D01*
X5896512Y6824439D01*
X5897990Y6824369D01*
X5899538D01*
X5901015Y6824298D01*
X5915439D01*
Y6841606D01*
D02*
G37*
G36*
X3511638Y8543828D02*
X3499606D01*
X3498410Y8543757D01*
X3496511D01*
X3495666Y8543687D01*
X3494470D01*
X3493978Y8543617D01*
X3493345D01*
X3493133Y8543546D01*
X3492922D01*
X3491726Y8543335D01*
X3490741Y8543054D01*
X3489897Y8542702D01*
X3489193Y8542280D01*
X3488631Y8541928D01*
X3488208Y8541576D01*
X3487997Y8541365D01*
X3487927Y8541295D01*
X3487364Y8540521D01*
X3486942Y8539747D01*
X3486661Y8538903D01*
X3486449Y8538129D01*
X3486309Y8537495D01*
X3486238Y8536933D01*
Y8536581D01*
Y8536440D01*
X3486309Y8535314D01*
X3486520Y8534329D01*
X3486872Y8533415D01*
X3487223Y8532711D01*
X3487575Y8532078D01*
X3487927Y8531656D01*
X3488138Y8531374D01*
X3488208Y8531304D01*
X3488982Y8530671D01*
X3489827Y8530178D01*
X3490741Y8529756D01*
X3491586Y8529475D01*
X3492289Y8529264D01*
X3492922Y8529123D01*
X3493345Y8529053D01*
X3493907D01*
X3494470Y8528982D01*
X3495103D01*
X3495807Y8528912D01*
X3497355D01*
X3498973Y8528841D01*
X3511638D01*
Y8543828D01*
D02*
G37*
G36*
Y8518006D02*
X3499466D01*
X3497988Y8517936D01*
X3496651D01*
X3495455Y8517866D01*
X3494400Y8517795D01*
X3493415Y8517725D01*
X3492571Y8517584D01*
X3491867Y8517514D01*
X3491234Y8517443D01*
X3490741Y8517303D01*
X3490319Y8517232D01*
X3489967Y8517162D01*
X3489686Y8517092D01*
X3489545D01*
X3489405Y8517021D01*
X3488490Y8516599D01*
X3487646Y8516177D01*
X3486942Y8515685D01*
X3486379Y8515192D01*
X3485887Y8514770D01*
X3485605Y8514418D01*
X3485394Y8514137D01*
X3485324Y8514066D01*
X3484831Y8513292D01*
X3484479Y8512448D01*
X3484198Y8511604D01*
X3484057Y8510830D01*
X3483917Y8510197D01*
X3483846Y8509634D01*
Y8509282D01*
Y8509141D01*
X3483917Y8507945D01*
X3484128Y8506819D01*
X3484479Y8505905D01*
X3484761Y8505131D01*
X3485113Y8504498D01*
X3485464Y8504005D01*
X3485676Y8503724D01*
X3485746Y8503653D01*
X3486449Y8502950D01*
X3487294Y8502387D01*
X3488068Y8501965D01*
X3488842Y8501613D01*
X3489475Y8501331D01*
X3490038Y8501191D01*
X3490390Y8501050D01*
X3490530D01*
X3490952Y8500980D01*
X3491445Y8500909D01*
X3492078D01*
X3492711Y8500839D01*
X3494189Y8500769D01*
X3495737D01*
X3497214Y8500698D01*
X3511638D01*
Y8518006D01*
D02*
G37*
G36*
X4456384Y6071734D02*
X4455326Y6071710D01*
X4454336Y6071613D01*
X4453483Y6071439D01*
X4452771Y6071259D01*
X4452196Y6071003D01*
X4451765Y6070811D01*
X4451478Y6070683D01*
X4451405Y6070615D01*
X4450677Y6070084D01*
X4450090Y6069547D01*
X4449570Y6068936D01*
X4449190Y6068319D01*
X4448887Y6067839D01*
X4448658Y6067427D01*
X4448575Y6067149D01*
X4448499Y6067011D01*
X4448337Y6066525D01*
X4448165Y6065829D01*
X4448060Y6065059D01*
X4447953Y6064218D01*
X4447729Y6062327D01*
X4447498Y6060294D01*
X4447414Y6058397D01*
X4447307Y6057556D01*
X4446779Y6045607D01*
X4463297Y6044878D01*
X4463918Y6058936D01*
X4463891Y6059923D01*
X4463965Y6061610D01*
X4463926Y6062316D01*
X4463973Y6063370D01*
X4463918Y6063725D01*
X4463943Y6064287D01*
X4463885Y6064571D01*
X4463888Y6064642D01*
X4463657Y6065779D01*
X4463352Y6066848D01*
X4463038Y6067707D01*
X4462577Y6068432D01*
X4462250Y6069010D01*
X4461914Y6069377D01*
X4461645Y6069670D01*
X4461578Y6069744D01*
X4460759Y6070343D01*
X4459934Y6070802D01*
X4459107Y6071191D01*
X4458272Y6071439D01*
X4457505Y6071614D01*
X4456946Y6071709D01*
X4456524Y6071728D01*
X4456454Y6071731D01*
X4456384Y6071734D01*
D02*
G37*
G36*
X5452366Y6181029D02*
X5452228Y6166958D01*
X5452289Y6165972D01*
X5452272Y6164284D01*
X5452336Y6163579D01*
X5452325Y6162524D01*
X5452392Y6162172D01*
X5452387Y6161609D01*
X5452454Y6161327D01*
X5452454Y6161256D01*
X5452724Y6160128D01*
X5453066Y6159069D01*
X5453409Y6158221D01*
X5453895Y6157513D01*
X5454241Y6156947D01*
X5454589Y6156592D01*
X5454868Y6156307D01*
X5454938Y6156236D01*
X5455776Y6155665D01*
X5456616Y6155235D01*
X5457457Y6154875D01*
X5458299Y6154655D01*
X5459072Y6154507D01*
X5459634Y6154431D01*
X5460056Y6154427D01*
X5460127Y6154427D01*
X5460197Y6154426D01*
X5461253Y6154486D01*
X5462240Y6154617D01*
X5463086Y6154820D01*
X5463791Y6155024D01*
X5464357Y6155300D01*
X5464781Y6155507D01*
X5465064Y6155645D01*
X5465135Y6155714D01*
X5465844Y6156270D01*
X5466412Y6156828D01*
X5466911Y6157456D01*
X5467269Y6158086D01*
X5467555Y6158576D01*
X5467770Y6158996D01*
X5467844Y6159276D01*
X5467915Y6159416D01*
X5468061Y6159907D01*
X5468209Y6160610D01*
X5468286Y6161383D01*
X5468365Y6162226D01*
X5468524Y6164125D01*
X5468685Y6166164D01*
X5468704Y6168063D01*
X5468782Y6168907D01*
X5468899Y6180867D01*
X5452366Y6181029D01*
D02*
G37*
%LPD*%
D41*
X6816400Y6040800D02*
G03*
X6816400Y6040800I-12500J0D01*
G01*
X3576800Y8084800D02*
G03*
X3576800Y8084800I-12500J0D01*
G01*
D42*
X5381047Y5875600D02*
Y6345500D01*
X4555547Y5875600D02*
Y6345500D01*
X4352347Y5875600D02*
Y6345500D01*
X3526847Y5875600D02*
Y6345500D01*
D43*
X5845900Y6088300D02*
X7158900D01*
X5845900Y6753300D02*
X7158900D01*
X2876800Y5926800D02*
Y8195800D01*
X3489800Y5926800D02*
X3501800D01*
X2876800D02*
X2888800D01*
X3501800D02*
Y8439800D01*
X3439800D02*
X3501800D01*
%TF.MD5,1f0a2ed65a562ebb2d4366dff8891ddd*%
M02*
