%TF.GenerationSoftware,Altium Limited,Altium Designer,23.4.1 (23)*%
G04 Layer_Physical_Order=1*
G04 Layer_Color=255*
%FSLAX45Y45*%
%MOMM*%
%TF.SameCoordinates,D7948EBF-BAFE-4555-BCF9-67E6E8CB6B5E*%
%TF.FilePolarity,Positive*%
%TF.FileFunction,Copper,L1,Top,Signal*%
%TF.Part,Single*%
G01*
G75*
%TA.AperFunction,SMDPad,CuDef*%
%ADD10R,2.00000X2.00000*%
%ADD11R,2.15000X5.50000*%
%ADD12R,0.50000X0.85001*%
%ADD13R,0.60000X0.80000*%
%ADD14R,0.70000X0.90000*%
%ADD15R,1.40000X1.10000*%
%ADD16R,0.65000X1.45000*%
%ADD17R,4.86000X3.36000*%
%TA.AperFunction,SMDPad,SMDef*%
%ADD18R,1.49860X0.91440*%
%TA.AperFunction,SMDPad,CuDef*%
%ADD19R,0.23000X0.70000*%
%ADD20R,0.80000X0.90000*%
%ADD21R,0.90000X0.70000*%
%ADD22R,0.75000X0.90000*%
%ADD23R,1.00000X0.90000*%
G04:AMPARAMS|DCode=24|XSize=1.1mm|YSize=0.6mm|CornerRadius=0.051mm|HoleSize=0mm|Usage=FLASHONLY|Rotation=180.000|XOffset=0mm|YOffset=0mm|HoleType=Round|Shape=RoundedRectangle|*
%AMROUNDEDRECTD24*
21,1,1.10000,0.49800,0,0,180.0*
21,1,0.99800,0.60000,0,0,180.0*
1,1,0.10200,-0.49900,0.24900*
1,1,0.10200,0.49900,0.24900*
1,1,0.10200,0.49900,-0.24900*
1,1,0.10200,-0.49900,-0.24900*
%
%ADD24ROUNDEDRECTD24*%
%ADD25R,0.95000X0.80000*%
%ADD26R,1.40000X1.39000*%
%ADD27R,0.90000X1.00000*%
%TA.AperFunction,Conductor*%
%ADD28C,0.17780*%
%ADD29C,0.25400*%
%ADD30C,0.50800*%
%ADD31C,0.76200*%
%TA.AperFunction,ComponentPad*%
%ADD32C,1.30000*%
%ADD33C,2.80000*%
%ADD34C,3.50000*%
%ADD35C,6.10000*%
%TA.AperFunction,ViaPad*%
%ADD36C,0.76200*%
%ADD37C,1.27000*%
G36*
X7766800Y8438400D02*
X7848161Y8357039D01*
Y7320732D01*
X7791829Y7264400D01*
X5384799D01*
X5333561Y7315639D01*
Y8362199D01*
X5409761Y8438400D01*
X7766800Y8438400D01*
D02*
G37*
G36*
X11709400Y7086600D02*
X12509500Y7086600D01*
X12611100Y6985000D01*
Y6934199D01*
X12611100D01*
X12611099Y4648200D01*
X12471399Y4508500D01*
X4025900D01*
X3962400Y4572000D01*
Y5816600D01*
X4051300Y5905500D01*
X5638800D01*
X5727700Y5994400D01*
Y6819900D01*
X5727700Y7099300D01*
X5816599Y7188199D01*
X6235700Y7188200D01*
X6235700Y6934200D01*
X6388100D01*
Y7188200D01*
X6870700D01*
Y6934200D01*
X7023100Y6934200D01*
Y7188200D01*
X7505700D01*
Y6934200D01*
X7658100D01*
Y7188200D01*
X8407400D01*
Y6934200D01*
X8864600D01*
Y7188200D01*
X11607800D01*
X11709400Y7086600D01*
D02*
G37*
G36*
X3886200Y5854700D02*
Y5397500D01*
Y4572000D01*
X3822700Y4508500D01*
X2806700D01*
X2717800Y4597400D01*
Y5842000D01*
X2781300Y5905500D01*
X3835400D01*
X3886200Y5854700D01*
D02*
G37*
G36*
X11184692Y8395804D02*
X11186278Y8395275D01*
X11188217Y8394746D01*
X11190333Y8393865D01*
X11192448Y8392631D01*
X11194387Y8390868D01*
X11194563Y8390692D01*
X11195268Y8389987D01*
X11195974Y8388929D01*
X11197031Y8387343D01*
X11197913Y8385580D01*
X11198794Y8383465D01*
X11199323Y8381173D01*
X11199499Y8378529D01*
Y8378176D01*
Y8377295D01*
X11199323Y8376061D01*
X11198794Y8374298D01*
X11198265Y8372535D01*
X11197384Y8370420D01*
X11196150Y8368305D01*
X11194387Y8366366D01*
X11194211Y8366190D01*
X11193506Y8365661D01*
X11192448Y8364779D01*
X11190862Y8363898D01*
X11189099Y8363017D01*
X11186983Y8362135D01*
X11184692Y8361606D01*
X11182048Y8361430D01*
X11180814D01*
X11179580Y8361783D01*
X11177817Y8362135D01*
X11176054Y8362664D01*
X11173939Y8363545D01*
X11171824Y8364779D01*
X11169885Y8366366D01*
X11169708Y8366542D01*
X11169180Y8367247D01*
X11168298Y8368305D01*
X11167417Y8369891D01*
X11166535Y8371654D01*
X11165654Y8373593D01*
X11165125Y8376061D01*
X11164949Y8378529D01*
Y8378881D01*
Y8379763D01*
X11165302Y8381173D01*
X11165654Y8382759D01*
X11166183Y8384698D01*
X11167064Y8386814D01*
X11168298Y8388929D01*
X11169885Y8390868D01*
X11170061Y8391044D01*
X11170766Y8391750D01*
X11171824Y8392455D01*
X11173410Y8393512D01*
X11175173Y8394394D01*
X11177112Y8395275D01*
X11179580Y8395804D01*
X11182048Y8395980D01*
X11183282D01*
X11184692Y8395804D01*
D02*
G37*
G36*
X11592242Y8348386D02*
X11593652Y8348033D01*
X11595239Y8347681D01*
X11596825Y8346975D01*
X11598588Y8345918D01*
X11599998Y8344684D01*
X11600174Y8344508D01*
X11600527Y8343979D01*
X11601232Y8343097D01*
X11601937Y8341863D01*
X11602466Y8340277D01*
X11603171Y8338514D01*
X11603524Y8336223D01*
X11603700Y8333755D01*
Y8333402D01*
Y8332521D01*
X11603524Y8331111D01*
X11603171Y8329524D01*
X11602819Y8327585D01*
X11602113Y8325646D01*
X11601232Y8323707D01*
X11599998Y8322121D01*
X11599822Y8321944D01*
X11599293Y8321415D01*
X11598588Y8320887D01*
X11597530Y8320181D01*
X11596296Y8319300D01*
X11594886Y8318771D01*
X11593123Y8318242D01*
X11591361Y8318066D01*
X11590303D01*
X11589245Y8318242D01*
X11587835Y8318595D01*
X11586249Y8318948D01*
X11584486Y8319653D01*
X11582723Y8320534D01*
X11580960Y8321768D01*
X11580784Y8321944D01*
X11580255Y8322297D01*
X11579550Y8323002D01*
X11578669Y8323707D01*
X11577082Y8325117D01*
X11576377Y8325646D01*
X11575848Y8325999D01*
X11575672Y8326175D01*
X11575143Y8326351D01*
X11574438Y8326527D01*
X11573380Y8326704D01*
X11572852D01*
X11572147Y8326527D01*
X11571441Y8326351D01*
X11569326Y8325646D01*
X11568268Y8325117D01*
X11567211Y8324236D01*
X11567035Y8324060D01*
X11566506Y8323531D01*
X11565624Y8322649D01*
X11564567Y8321415D01*
X11563509Y8319829D01*
X11562275Y8318066D01*
X11561217Y8315775D01*
X11560160Y8313307D01*
Y8313130D01*
X11559983Y8312778D01*
X11559807Y8312249D01*
X11559631Y8311368D01*
X11559278Y8310486D01*
X11559102Y8309252D01*
X11558750Y8307842D01*
X11558397Y8306256D01*
X11557692Y8302730D01*
X11557163Y8298676D01*
X11556811Y8294269D01*
X11556634Y8289509D01*
Y8265360D01*
X11556811Y8259190D01*
Y8258837D01*
Y8258132D01*
Y8257075D01*
X11556987Y8255664D01*
Y8254254D01*
X11557163Y8253020D01*
X11557339Y8251786D01*
X11557516Y8250905D01*
Y8250729D01*
X11557692Y8250376D01*
X11558044Y8249847D01*
X11558397Y8249142D01*
X11559631Y8247556D01*
X11561394Y8246322D01*
X11561570D01*
X11561923Y8246146D01*
X11562628Y8245793D01*
X11563509Y8245617D01*
X11564743Y8245264D01*
X11566329Y8245088D01*
X11568268Y8244912D01*
X11570384Y8244735D01*
Y8240857D01*
X11513799D01*
Y8244735D01*
X11514152D01*
X11514857Y8244912D01*
X11516091Y8245088D01*
X11517501Y8245440D01*
X11518911Y8245793D01*
X11520498Y8246498D01*
X11521908Y8247379D01*
X11522966Y8248437D01*
X11523142Y8248613D01*
X11523318Y8249142D01*
X11523671Y8250200D01*
X11524199Y8251786D01*
X11524376Y8252844D01*
X11524728Y8254078D01*
X11524905Y8255488D01*
X11525081Y8257075D01*
X11525257Y8258837D01*
Y8260776D01*
X11525433Y8263068D01*
Y8265536D01*
Y8323354D01*
Y8323531D01*
Y8323707D01*
Y8324765D01*
Y8326351D01*
X11525257Y8328114D01*
Y8330053D01*
X11525081Y8331992D01*
X11524728Y8333578D01*
X11524376Y8334812D01*
Y8334989D01*
X11524199Y8335341D01*
X11524023Y8335870D01*
X11523671Y8336575D01*
X11522613Y8338162D01*
X11521203Y8339396D01*
X11521026D01*
X11520850Y8339748D01*
X11520321Y8339924D01*
X11519440Y8340277D01*
X11518559Y8340629D01*
X11517148Y8340982D01*
X11515562Y8341335D01*
X11513799Y8341687D01*
Y8345565D01*
X11556634D01*
Y8321592D01*
X11556811Y8321768D01*
X11557163Y8322297D01*
X11557692Y8323178D01*
X11558397Y8324236D01*
X11559278Y8325470D01*
X11560336Y8327056D01*
X11562804Y8330405D01*
X11565624Y8333931D01*
X11568621Y8337457D01*
X11570207Y8339219D01*
X11571794Y8340629D01*
X11573380Y8342040D01*
X11574791Y8343097D01*
X11574967D01*
X11575143Y8343274D01*
X11576201Y8343979D01*
X11577611Y8344860D01*
X11579726Y8345918D01*
X11582018Y8346799D01*
X11584662Y8347681D01*
X11587306Y8348386D01*
X11590127Y8348562D01*
X11591184D01*
X11592242Y8348386D01*
D02*
G37*
G36*
X11273359D02*
X11274769D01*
X11276355Y8348209D01*
X11278118Y8347857D01*
X11279881Y8347504D01*
X11283935Y8346623D01*
X11288342Y8345036D01*
X11292397Y8343097D01*
X11294512Y8341687D01*
X11296275Y8340277D01*
X11296451D01*
X11296627Y8339924D01*
X11297861Y8338867D01*
X11299271Y8337104D01*
X11301210Y8334989D01*
X11302973Y8332345D01*
X11304383Y8329172D01*
X11305617Y8325822D01*
X11305793Y8324060D01*
X11305970Y8322121D01*
Y8321768D01*
Y8321063D01*
X11305793Y8319829D01*
X11305441Y8318419D01*
X11305088Y8316832D01*
X11304383Y8315069D01*
X11303326Y8313483D01*
X11302092Y8311897D01*
X11301915Y8311720D01*
X11301387Y8311368D01*
X11300505Y8310663D01*
X11299448Y8310134D01*
X11297861Y8309429D01*
X11296098Y8308724D01*
X11294159Y8308371D01*
X11291868Y8308195D01*
X11290810D01*
X11289576Y8308371D01*
X11287990Y8308724D01*
X11286403Y8309252D01*
X11284464Y8309957D01*
X11282701Y8311015D01*
X11280939Y8312425D01*
X11280762Y8312602D01*
X11280233Y8313307D01*
X11279528Y8314364D01*
X11278647Y8316127D01*
X11277766Y8318242D01*
X11277061Y8320887D01*
X11276355Y8324236D01*
X11275827Y8328114D01*
Y8328466D01*
X11275650Y8329348D01*
X11275474Y8330582D01*
X11275121Y8331992D01*
X11274064Y8335341D01*
X11273359Y8336751D01*
X11272477Y8337985D01*
X11272301Y8338162D01*
X11272125Y8338514D01*
X11271596Y8338867D01*
X11270891Y8339396D01*
X11268952Y8340453D01*
X11267718Y8340629D01*
X11266484Y8340806D01*
X11265603D01*
X11264545Y8340453D01*
X11263311Y8340101D01*
X11261901Y8339396D01*
X11260314Y8338338D01*
X11258904Y8336928D01*
X11257318Y8334989D01*
Y8334812D01*
X11257141Y8334636D01*
X11256789Y8334107D01*
X11256436Y8333402D01*
X11256084Y8332521D01*
X11255555Y8331287D01*
X11255026Y8330053D01*
X11254497Y8328466D01*
X11253968Y8326704D01*
X11253440Y8324765D01*
X11252911Y8322649D01*
X11252558Y8320358D01*
X11252206Y8317714D01*
X11251853Y8314893D01*
X11251677Y8311897D01*
Y8308724D01*
Y8308547D01*
Y8308018D01*
Y8307313D01*
Y8306256D01*
X11251853Y8304845D01*
Y8303259D01*
X11252029Y8301496D01*
X11252206Y8299557D01*
X11252734Y8295327D01*
X11253616Y8290567D01*
X11254673Y8285455D01*
X11256260Y8280343D01*
Y8280167D01*
X11256436Y8279814D01*
X11256789Y8279109D01*
X11257141Y8278228D01*
X11257670Y8276994D01*
X11258199Y8275760D01*
X11259609Y8272763D01*
X11261548Y8269590D01*
X11263664Y8266241D01*
X11266308Y8263244D01*
X11269128Y8260424D01*
X11269481Y8260248D01*
X11270186Y8259719D01*
X11271596Y8258837D01*
X11273182Y8258132D01*
X11275298Y8257251D01*
X11277766Y8256370D01*
X11280586Y8255841D01*
X11283583Y8255664D01*
X11284464D01*
X11285522Y8255841D01*
X11286932Y8256017D01*
X11288518Y8256193D01*
X11290281Y8256722D01*
X11292044Y8257251D01*
X11293983Y8258132D01*
X11294159Y8258309D01*
X11294864Y8258661D01*
X11295922Y8259366D01*
X11297332Y8260424D01*
X11298919Y8261658D01*
X11301034Y8263421D01*
X11303149Y8265360D01*
X11305617Y8267828D01*
X11309143Y8265183D01*
Y8265007D01*
X11308790Y8264655D01*
X11308438Y8263773D01*
X11307733Y8262892D01*
X11307027Y8261834D01*
X11306146Y8260424D01*
X11304031Y8257427D01*
X11301387Y8254078D01*
X11298214Y8250552D01*
X11294688Y8247203D01*
X11290634Y8244383D01*
X11290457D01*
X11290105Y8244030D01*
X11289576Y8243854D01*
X11288695Y8243325D01*
X11287813Y8242796D01*
X11286579Y8242267D01*
X11283583Y8241034D01*
X11280233Y8239800D01*
X11276179Y8238742D01*
X11271948Y8238037D01*
X11267365Y8237684D01*
X11266484D01*
X11265426Y8237861D01*
X11263840D01*
X11262077Y8238213D01*
X11260138Y8238566D01*
X11257846Y8238918D01*
X11255379Y8239623D01*
X11252734Y8240505D01*
X11249914Y8241562D01*
X11247270Y8242796D01*
X11244449Y8244383D01*
X11241629Y8246146D01*
X11238985Y8248261D01*
X11236341Y8250552D01*
X11233873Y8253373D01*
X11233697Y8253549D01*
X11233344Y8254078D01*
X11232815Y8254959D01*
X11231934Y8256193D01*
X11231052Y8257780D01*
X11229995Y8259543D01*
X11228937Y8261658D01*
X11227703Y8263949D01*
X11226646Y8266594D01*
X11225412Y8269590D01*
X11224354Y8272587D01*
X11223473Y8275936D01*
X11222591Y8279462D01*
X11222062Y8283340D01*
X11221710Y8287218D01*
X11221534Y8291272D01*
Y8291448D01*
Y8292154D01*
Y8293388D01*
X11221710Y8294798D01*
X11221886Y8296737D01*
X11222062Y8298852D01*
X11222415Y8301320D01*
X11222944Y8303964D01*
X11223473Y8306785D01*
X11224354Y8309781D01*
X11225235Y8312954D01*
X11226293Y8316127D01*
X11227527Y8319300D01*
X11229113Y8322473D01*
X11230876Y8325646D01*
X11232815Y8328819D01*
X11232992Y8328995D01*
X11233520Y8329700D01*
X11234225Y8330582D01*
X11235283Y8331992D01*
X11236693Y8333402D01*
X11238456Y8334989D01*
X11240395Y8336928D01*
X11242687Y8338690D01*
X11245331Y8340453D01*
X11248151Y8342392D01*
X11251148Y8343979D01*
X11254673Y8345565D01*
X11258199Y8346799D01*
X11262077Y8347681D01*
X11266308Y8348386D01*
X11270715Y8348562D01*
X11272301D01*
X11273359Y8348386D01*
D02*
G37*
G36*
X11146616Y8388577D02*
X11146264D01*
X11145206Y8388224D01*
X11143620Y8387695D01*
X11141681Y8386990D01*
X11139389Y8385756D01*
X11136921Y8384170D01*
X11134277Y8382231D01*
X11131809Y8379586D01*
X11131633Y8379234D01*
X11131280Y8378881D01*
X11130928Y8378353D01*
X11130399Y8377647D01*
X11129870Y8376766D01*
X11129165Y8375708D01*
X11128284Y8374298D01*
X11127402Y8372712D01*
X11126345Y8370773D01*
X11125111Y8368657D01*
X11123877Y8366190D01*
X11122643Y8363545D01*
X11121056Y8360372D01*
X11119470Y8357023D01*
X11117883Y8353321D01*
X11065706Y8237508D01*
X11062004D01*
X11010002Y8358081D01*
X11009826Y8358257D01*
X11009650Y8358962D01*
X11009121Y8360196D01*
X11008416Y8361606D01*
X11007711Y8363193D01*
X11006829Y8365132D01*
X11004890Y8369539D01*
X11002775Y8373946D01*
X11001717Y8376061D01*
X11000836Y8378176D01*
X10999778Y8379939D01*
X10998897Y8381526D01*
X10998192Y8382759D01*
X10997487Y8383641D01*
X10997310Y8383817D01*
X10996782Y8384346D01*
X10996077Y8384875D01*
X10994843Y8385756D01*
X10993256Y8386638D01*
X10991141Y8387343D01*
X10988497Y8388048D01*
X10985500Y8388577D01*
Y8392631D01*
X11057949D01*
Y8388577D01*
X11054071D01*
X11052309Y8388400D01*
X11050193Y8388224D01*
X11048078Y8387871D01*
X11045786Y8387519D01*
X11043671Y8386814D01*
X11042085Y8385932D01*
X11041908D01*
X11041732Y8385580D01*
X11040851Y8384698D01*
X11039969Y8383112D01*
X11039793Y8382231D01*
X11039617Y8380997D01*
Y8380644D01*
X11039793Y8379763D01*
X11039969Y8378176D01*
X11040498Y8376237D01*
Y8376061D01*
X11040674Y8375708D01*
X11041027Y8374827D01*
X11041556Y8373417D01*
X11042437Y8371478D01*
X11042790Y8370244D01*
X11043319Y8369010D01*
X11044024Y8367423D01*
X11044729Y8365661D01*
X11045610Y8363722D01*
X11046491Y8361606D01*
X11078750Y8285984D01*
X11108717Y8353321D01*
Y8353498D01*
X11108893Y8353850D01*
X11109246Y8354555D01*
X11109598Y8355260D01*
X11110480Y8357376D01*
X11111537Y8359844D01*
X11112771Y8362664D01*
X11113829Y8365308D01*
X11114710Y8367600D01*
X11115063Y8368657D01*
X11115415Y8369539D01*
Y8369715D01*
X11115592Y8370244D01*
X11115768Y8371125D01*
X11116121Y8372007D01*
X11116473Y8374298D01*
X11116649Y8376766D01*
Y8376942D01*
Y8377295D01*
Y8378000D01*
X11116473Y8378705D01*
X11115944Y8380644D01*
X11114887Y8382583D01*
Y8382759D01*
X11114534Y8383112D01*
X11113653Y8384170D01*
X11111890Y8385404D01*
X11109598Y8386638D01*
X11109422Y8386814D01*
X11108717Y8386990D01*
X11107659Y8387343D01*
X11106249Y8387695D01*
X11104486Y8388048D01*
X11102195Y8388224D01*
X11099727Y8388577D01*
X11096906D01*
Y8392631D01*
X11146616D01*
Y8388577D01*
D02*
G37*
G36*
X12515399Y8341687D02*
X12515223D01*
X12514518Y8341511D01*
X12513637Y8341335D01*
X12512579Y8340982D01*
X12511169Y8340453D01*
X12509935Y8339748D01*
X12508525Y8338867D01*
X12507291Y8337809D01*
X12507114Y8337633D01*
X12506762Y8337104D01*
X12505881Y8336047D01*
X12504999Y8334460D01*
X12504294Y8333402D01*
X12503589Y8332169D01*
X12502884Y8330582D01*
X12502002Y8328996D01*
X12501121Y8327056D01*
X12500063Y8324941D01*
X12499006Y8322473D01*
X12497948Y8319829D01*
X12463045Y8237685D01*
X12457933D01*
X12422502Y8318772D01*
Y8318948D01*
X12422149Y8319477D01*
X12421973Y8320182D01*
X12421444Y8321239D01*
X12420915Y8322297D01*
X12420387Y8323707D01*
X12418976Y8326704D01*
X12417390Y8330053D01*
X12415627Y8333050D01*
X12414922Y8334460D01*
X12414041Y8335694D01*
X12413336Y8336752D01*
X12412630Y8337633D01*
X12412454Y8337809D01*
X12412102Y8338162D01*
X12411573Y8338691D01*
X12410691Y8339220D01*
X12409634Y8339925D01*
X12408400Y8340630D01*
X12406813Y8341159D01*
X12405051Y8341687D01*
Y8345565D01*
X12460578D01*
Y8341687D01*
X12459696D01*
X12458815Y8341511D01*
X12457757D01*
X12455289Y8340806D01*
X12454232Y8340453D01*
X12453350Y8339748D01*
X12453174Y8339572D01*
X12452998Y8339220D01*
X12452469Y8338691D01*
X12452116Y8337986D01*
X12451059Y8336047D01*
X12450882Y8334989D01*
X12450706Y8333755D01*
Y8333579D01*
Y8332874D01*
X12451059Y8331816D01*
X12451411Y8330229D01*
X12451940Y8328114D01*
X12452821Y8325294D01*
X12454055Y8322121D01*
X12455642Y8318066D01*
X12472917Y8278757D01*
X12486666Y8312602D01*
Y8312778D01*
X12486843Y8313307D01*
X12487195Y8314012D01*
X12487548Y8315070D01*
X12488077Y8316304D01*
X12488429Y8317538D01*
X12489663Y8320711D01*
X12490721Y8324236D01*
X12491602Y8327585D01*
X12492307Y8330758D01*
X12492484Y8332169D01*
Y8333402D01*
Y8333579D01*
Y8333931D01*
X12492307Y8334636D01*
X12492131Y8335518D01*
X12491426Y8337281D01*
X12490897Y8338162D01*
X12490016Y8339043D01*
X12489839Y8339220D01*
X12489487Y8339396D01*
X12488958Y8339748D01*
X12488077Y8340277D01*
X12486843Y8340630D01*
X12485256Y8341159D01*
X12483493Y8341511D01*
X12481202Y8341687D01*
Y8345565D01*
X12515399D01*
Y8341687D01*
D02*
G37*
G36*
X12044214D02*
X12044037D01*
X12043332Y8341511D01*
X12042451Y8341335D01*
X12041217Y8340982D01*
X12039807Y8340277D01*
X12038397Y8339572D01*
X12036986Y8338691D01*
X12035752Y8337457D01*
X12035576Y8337281D01*
X12035224Y8336575D01*
X12034871Y8336047D01*
X12034342Y8335341D01*
X12033813Y8334460D01*
X12033285Y8333226D01*
X12032579Y8331992D01*
X12031698Y8330229D01*
X12030817Y8328467D01*
X12029759Y8326175D01*
X12028701Y8323707D01*
X12027467Y8320887D01*
X12026234Y8317714D01*
X12024823Y8314188D01*
X11995033Y8236627D01*
X11994856Y8236274D01*
X11994504Y8235393D01*
X11993975Y8233983D01*
X11993270Y8232044D01*
X11992212Y8229752D01*
X11991155Y8227108D01*
X11989921Y8224288D01*
X11988687Y8221291D01*
X11985866Y8215298D01*
X11984456Y8212301D01*
X11983222Y8209480D01*
X11981812Y8206836D01*
X11980402Y8204545D01*
X11979168Y8202606D01*
X11978110Y8201019D01*
Y8200843D01*
X11977758Y8200667D01*
X11976700Y8199609D01*
X11975113Y8198022D01*
X11972822Y8196260D01*
X11970178Y8194497D01*
X11966828Y8192910D01*
X11963127Y8191853D01*
X11961011Y8191677D01*
X11958896Y8191500D01*
X11958015D01*
X11957310Y8191677D01*
X11955723Y8191853D01*
X11953432Y8192205D01*
X11951140Y8192910D01*
X11948496Y8193792D01*
X11946028Y8195202D01*
X11943736Y8196965D01*
X11943560Y8197141D01*
X11942855Y8197846D01*
X11941974Y8199080D01*
X11940916Y8200490D01*
X11939858Y8202429D01*
X11938977Y8204545D01*
X11938272Y8207013D01*
X11938096Y8209657D01*
Y8210009D01*
Y8210714D01*
X11938272Y8211948D01*
X11938624Y8213535D01*
X11938977Y8215121D01*
X11939682Y8216884D01*
X11940740Y8218823D01*
X11941974Y8220410D01*
X11942150Y8220586D01*
X11942679Y8221115D01*
X11943560Y8221820D01*
X11944794Y8222525D01*
X11946204Y8223230D01*
X11947791Y8223935D01*
X11949730Y8224464D01*
X11951845Y8224640D01*
X11952726D01*
X11953784Y8224464D01*
X11955018Y8224288D01*
X11956428Y8223759D01*
X11957838Y8223230D01*
X11959249Y8222349D01*
X11960659Y8221115D01*
X11960835Y8220938D01*
X11961188Y8220410D01*
X11961716Y8219528D01*
X11962422Y8218470D01*
X11963127Y8216884D01*
X11963656Y8214945D01*
X11964184Y8212830D01*
X11964361Y8210186D01*
Y8210009D01*
Y8209480D01*
Y8208775D01*
X11964537Y8207894D01*
X11964889Y8205955D01*
X11965066Y8205074D01*
X11965418Y8204545D01*
X11965595Y8204368D01*
X11965947Y8204016D01*
X11966828Y8203487D01*
X11967886Y8203311D01*
X11968415D01*
X11968944Y8203487D01*
X11969649Y8203663D01*
X11970354Y8204192D01*
X11971412Y8204721D01*
X11972469Y8205602D01*
X11973527Y8206660D01*
X11973703Y8206836D01*
X11974232Y8207718D01*
X11975290Y8209128D01*
X11975819Y8210009D01*
X11976524Y8211067D01*
X11977229Y8212477D01*
X11977934Y8214064D01*
X11978815Y8215826D01*
X11979697Y8217765D01*
X11980754Y8219881D01*
X11981812Y8222525D01*
X11982870Y8225169D01*
X11983927Y8228166D01*
X11987277Y8236803D01*
X11953608Y8314188D01*
Y8314365D01*
X11953255Y8314893D01*
X11952903Y8315775D01*
X11952374Y8317009D01*
X11951669Y8318419D01*
X11950964Y8320005D01*
X11949377Y8323531D01*
X11947614Y8327233D01*
X11945675Y8330758D01*
X11944794Y8332345D01*
X11943913Y8333755D01*
X11943031Y8334989D01*
X11942326Y8335870D01*
X11942150Y8336047D01*
X11941621Y8336575D01*
X11940916Y8337281D01*
X11939858Y8338162D01*
X11938624Y8339220D01*
X11937038Y8340101D01*
X11935451Y8340982D01*
X11933512Y8341687D01*
Y8345565D01*
X11989216D01*
Y8341687D01*
X11988334D01*
X11987453Y8341511D01*
X11986219Y8341335D01*
X11983575Y8340630D01*
X11982517Y8340101D01*
X11981459Y8339396D01*
X11981283D01*
X11981107Y8339043D01*
X11980402Y8338162D01*
X11979520Y8336575D01*
X11979344Y8335694D01*
X11979168Y8334813D01*
Y8334636D01*
X11979344Y8333931D01*
X11979520Y8332874D01*
X11979873Y8331111D01*
X11980578Y8328819D01*
X11981636Y8325823D01*
X11982165Y8324236D01*
X11982870Y8322297D01*
X11983751Y8320182D01*
X11984809Y8317890D01*
X12002613Y8276818D01*
X12014776Y8308548D01*
Y8308724D01*
X12015128Y8309253D01*
X12015481Y8310134D01*
X12015833Y8311368D01*
X12016362Y8312778D01*
X12016891Y8314365D01*
X12018125Y8317890D01*
X12019359Y8321768D01*
X12020416Y8325646D01*
X12021121Y8329348D01*
X12021474Y8330758D01*
Y8332169D01*
Y8332345D01*
Y8332874D01*
X12021298Y8333579D01*
X12021121Y8334636D01*
X12020769Y8335694D01*
X12020240Y8336752D01*
X12019535Y8337809D01*
X12018654Y8338867D01*
X12018477Y8339043D01*
X12018125Y8339220D01*
X12017420Y8339748D01*
X12016538Y8340101D01*
X12015128Y8340630D01*
X12013542Y8341159D01*
X12011426Y8341511D01*
X12008958Y8341687D01*
Y8345565D01*
X12044214D01*
Y8341687D01*
D02*
G37*
G36*
X12211147Y8292330D02*
X12235473Y8316304D01*
X12235649Y8316480D01*
X12235826Y8316656D01*
X12236707Y8317538D01*
X12237941Y8318772D01*
X12239527Y8320358D01*
X12241114Y8322121D01*
X12242700Y8323884D01*
X12243934Y8325646D01*
X12244816Y8327056D01*
X12244992Y8327233D01*
X12245168Y8327585D01*
X12245521Y8328290D01*
X12245873Y8329172D01*
X12246402Y8331111D01*
X12246755Y8332345D01*
Y8333402D01*
Y8333579D01*
Y8333931D01*
X12246579Y8334460D01*
X12246402Y8335165D01*
X12245697Y8336928D01*
X12245168Y8337809D01*
X12244287Y8338514D01*
X12244111Y8338691D01*
X12243758Y8338867D01*
X12243053Y8339220D01*
X12242172Y8339748D01*
X12240761Y8340277D01*
X12239175Y8340806D01*
X12237060Y8341335D01*
X12234592Y8341687D01*
Y8345565D01*
X12281481D01*
Y8341687D01*
X12281129D01*
X12280423Y8341511D01*
X12279013D01*
X12277427Y8341159D01*
X12275664Y8340806D01*
X12273725Y8340101D01*
X12271610Y8339396D01*
X12269671Y8338338D01*
X12269494Y8338162D01*
X12268613Y8337633D01*
X12267203Y8336575D01*
X12265264Y8334989D01*
X12264030Y8333931D01*
X12262620Y8332697D01*
X12261033Y8331287D01*
X12259270Y8329701D01*
X12257155Y8327938D01*
X12255040Y8325823D01*
X12252572Y8323531D01*
X12249928Y8320887D01*
X12238646Y8309605D01*
X12263148Y8273645D01*
X12263325Y8273469D01*
X12263854Y8272763D01*
X12264559Y8271530D01*
X12265440Y8270119D01*
X12266674Y8268533D01*
X12267908Y8266594D01*
X12270905Y8262363D01*
X12273901Y8257956D01*
X12275488Y8255841D01*
X12276898Y8253902D01*
X12278132Y8252315D01*
X12279190Y8250729D01*
X12280071Y8249671D01*
X12280776Y8248966D01*
X12280952Y8248790D01*
X12281481Y8248437D01*
X12282363Y8247732D01*
X12283420Y8247027D01*
X12284830Y8246322D01*
X12286593Y8245617D01*
X12288356Y8245088D01*
X12290471Y8244736D01*
Y8240858D01*
X12236354D01*
Y8244736D01*
X12237588D01*
X12238470Y8244912D01*
X12240233Y8245264D01*
X12240938Y8245617D01*
X12241643Y8245970D01*
X12241819Y8246146D01*
X12242524Y8246851D01*
X12243053Y8247909D01*
X12243229Y8248966D01*
Y8249143D01*
Y8249495D01*
X12243053Y8250200D01*
X12242700Y8251082D01*
X12241995Y8252315D01*
X12241290Y8254078D01*
X12240056Y8256017D01*
X12238470Y8258485D01*
X12217846Y8288981D01*
X12211147Y8282282D01*
Y8263597D01*
Y8263421D01*
Y8263068D01*
Y8262539D01*
Y8261658D01*
X12211323Y8259543D01*
X12211500Y8257075D01*
X12211676Y8254607D01*
X12212028Y8252139D01*
X12212557Y8250024D01*
X12212910Y8249143D01*
X12213262Y8248437D01*
X12213439Y8248261D01*
X12213791Y8247909D01*
X12214320Y8247380D01*
X12215378Y8246851D01*
X12216612Y8246146D01*
X12218198Y8245617D01*
X12220137Y8245088D01*
X12222605Y8244736D01*
Y8240858D01*
X12168488D01*
Y8244736D01*
X12168841D01*
X12169546Y8244912D01*
X12170780Y8245088D01*
X12172190Y8245441D01*
X12173600Y8245970D01*
X12175187Y8246675D01*
X12176597Y8247732D01*
X12177831Y8248966D01*
X12178007Y8249143D01*
X12178183Y8249495D01*
X12178536Y8250376D01*
X12178889Y8251787D01*
X12179241Y8253549D01*
Y8254783D01*
X12179417Y8256194D01*
X12179594Y8257780D01*
X12179770Y8259543D01*
Y8261482D01*
Y8263597D01*
Y8369892D01*
Y8370068D01*
Y8370420D01*
Y8370949D01*
Y8371831D01*
X12179594Y8373770D01*
X12179417Y8376238D01*
X12179241Y8378705D01*
X12178889Y8381173D01*
X12178183Y8383289D01*
X12177831Y8383994D01*
X12177478Y8384699D01*
X12177302Y8384875D01*
X12177126Y8385228D01*
X12176421Y8385756D01*
X12175539Y8386285D01*
X12174305Y8386990D01*
X12172719Y8387695D01*
X12170780Y8388224D01*
X12168488Y8388753D01*
Y8392631D01*
X12211147D01*
Y8292330D01*
D02*
G37*
G36*
X11714754Y8249319D02*
X11748599D01*
X11750538Y8249495D01*
X11752653D01*
X11754945Y8249671D01*
X11759704Y8249848D01*
X11764464Y8250376D01*
X11766755Y8250729D01*
X11768871Y8250905D01*
X11770633Y8251434D01*
X11772396Y8251787D01*
X11772572D01*
X11772925Y8251963D01*
X11773630Y8252315D01*
X11774688Y8252668D01*
X11775745Y8253021D01*
X11777156Y8253726D01*
X11780152Y8255136D01*
X11783678Y8257251D01*
X11787556Y8259719D01*
X11791434Y8262892D01*
X11795136Y8266594D01*
X11795312Y8266770D01*
X11795488Y8267123D01*
X11796017Y8267651D01*
X11796722Y8268533D01*
X11797427Y8269767D01*
X11798485Y8271001D01*
X11799366Y8272587D01*
X11800424Y8274350D01*
X11801482Y8276289D01*
X11802716Y8278581D01*
X11803773Y8280872D01*
X11804831Y8283516D01*
X11805889Y8286337D01*
X11806946Y8289157D01*
X11807828Y8292330D01*
X11808533Y8295679D01*
X11812940D01*
X11806770Y8240858D01*
X11667864Y8240857D01*
X11757060Y8384346D01*
X11730266D01*
X11727622Y8384170D01*
X11724625D01*
X11721805Y8383994D01*
X11719337Y8383817D01*
X11718279Y8383641D01*
X11717398Y8383465D01*
X11717045D01*
X11715988Y8383112D01*
X11714578Y8382760D01*
X11712638Y8382231D01*
X11710347Y8381349D01*
X11707879Y8380468D01*
X11705235Y8379234D01*
X11702591Y8377647D01*
X11702238Y8377471D01*
X11701533Y8376942D01*
X11700123Y8375885D01*
X11698536Y8374651D01*
X11696774Y8373064D01*
X11694835Y8370949D01*
X11692896Y8368834D01*
X11691133Y8366190D01*
X11690957Y8365837D01*
X11690428Y8364956D01*
X11689546Y8363369D01*
X11688665Y8361254D01*
X11687431Y8358610D01*
X11686373Y8355613D01*
X11685139Y8352087D01*
X11684082Y8348033D01*
X11680027D01*
X11684082Y8392631D01*
X11803949Y8392631D01*
X11714754Y8249319D01*
D02*
G37*
G36*
X11197736Y8262539D02*
Y8262363D01*
Y8262010D01*
Y8261482D01*
Y8260776D01*
X11197913Y8258837D01*
X11198089Y8256546D01*
X11198265Y8254078D01*
X11198794Y8251610D01*
X11199323Y8249671D01*
X11199852Y8248790D01*
X11200204Y8248085D01*
X11200380Y8247908D01*
X11200733Y8247556D01*
X11201438Y8247203D01*
X11202496Y8246498D01*
X11203906Y8245969D01*
X11205669Y8245440D01*
X11207784Y8244912D01*
X11210428Y8244735D01*
Y8240857D01*
X11153667D01*
Y8244735D01*
X11154020D01*
X11154725Y8244912D01*
X11155959Y8245088D01*
X11157545Y8245264D01*
X11159308Y8245793D01*
X11160895Y8246498D01*
X11162657Y8247556D01*
X11164068Y8248790D01*
X11164244Y8248966D01*
X11164420Y8249319D01*
X11164773Y8250200D01*
X11165302Y8251434D01*
X11165654Y8253197D01*
X11166007Y8255664D01*
X11166183Y8257075D01*
Y8258661D01*
X11166359Y8260600D01*
Y8262539D01*
Y8323707D01*
Y8323883D01*
Y8324236D01*
Y8324765D01*
Y8325470D01*
X11166183Y8327409D01*
X11166007Y8329700D01*
X11165654Y8331992D01*
X11165302Y8334460D01*
X11164596Y8336399D01*
X11164244Y8337280D01*
X11163715Y8337985D01*
X11163539Y8338162D01*
X11163186Y8338514D01*
X11162481Y8339043D01*
X11161423Y8339572D01*
X11160190Y8340277D01*
X11158427Y8340806D01*
X11156311Y8341335D01*
X11153667Y8341687D01*
Y8345565D01*
X11197736D01*
Y8262539D01*
D02*
G37*
G36*
X12108907Y8348386D02*
X12110141D01*
X12111727Y8348210D01*
X12115077Y8347857D01*
X12118778Y8346976D01*
X12122656Y8345918D01*
X12126535Y8344332D01*
X12130060Y8342216D01*
X12130236D01*
X12130413Y8341864D01*
X12131470Y8341159D01*
X12132880Y8339748D01*
X12134643Y8338162D01*
X12136582Y8336047D01*
X12138521Y8333755D01*
X12140108Y8331111D01*
X12141342Y8328467D01*
Y8328290D01*
X12141518Y8327409D01*
X12141694Y8326880D01*
X12141871Y8325999D01*
X12142047Y8325117D01*
X12142223Y8324060D01*
Y8322650D01*
X12142399Y8321063D01*
X12142576Y8319300D01*
X12142752Y8317361D01*
Y8315070D01*
X12142928Y8312602D01*
Y8309781D01*
Y8306785D01*
Y8266241D01*
Y8265889D01*
Y8265184D01*
Y8263950D01*
Y8262539D01*
X12143104Y8260953D01*
Y8259543D01*
X12143281Y8258133D01*
X12143457Y8257251D01*
X12143633Y8256899D01*
X12143810Y8256194D01*
X12144338Y8255312D01*
X12145044Y8254607D01*
X12145220Y8254431D01*
X12145925Y8254255D01*
X12146630Y8253902D01*
X12147688Y8253726D01*
X12148216D01*
X12148745Y8253902D01*
X12149450Y8254255D01*
X12150332Y8254783D01*
X12151389Y8255488D01*
X12152447Y8256546D01*
X12153505Y8257956D01*
X12157030Y8255136D01*
Y8254960D01*
X12156854Y8254783D01*
X12156149Y8253726D01*
X12154915Y8252315D01*
X12153505Y8250553D01*
X12151742Y8248614D01*
X12149803Y8246675D01*
X12147688Y8244736D01*
X12145396Y8243149D01*
X12145044Y8242973D01*
X12144338Y8242620D01*
X12143104Y8241915D01*
X12141518Y8241386D01*
X12139403Y8240681D01*
X12137111Y8239976D01*
X12134643Y8239624D01*
X12131823Y8239447D01*
X12130413D01*
X12128650Y8239624D01*
X12126711Y8239976D01*
X12124419Y8240505D01*
X12122128Y8241210D01*
X12119836Y8242091D01*
X12117721Y8243502D01*
X12117544Y8243678D01*
X12117016Y8244383D01*
X12116134Y8245264D01*
X12115077Y8246675D01*
X12114019Y8248437D01*
X12113138Y8250729D01*
X12112256Y8253373D01*
X12111727Y8256370D01*
X12111551Y8256194D01*
X12110846Y8255665D01*
X12109788Y8254783D01*
X12108554Y8253726D01*
X12106792Y8252492D01*
X12104853Y8251082D01*
X12102561Y8249495D01*
X12100269Y8247909D01*
X12097625Y8246322D01*
X12094981Y8244736D01*
X12091984Y8243325D01*
X12089164Y8242091D01*
X12086167Y8241034D01*
X12083171Y8240152D01*
X12080174Y8239624D01*
X12077354Y8239447D01*
X12077001D01*
X12075943Y8239624D01*
X12074181Y8239800D01*
X12072065Y8240152D01*
X12069774Y8240858D01*
X12067306Y8241915D01*
X12064662Y8243325D01*
X12062370Y8245264D01*
X12062194Y8245617D01*
X12061489Y8246322D01*
X12060607Y8247556D01*
X12059550Y8249319D01*
X12058316Y8251434D01*
X12057434Y8253902D01*
X12056729Y8256722D01*
X12056553Y8259895D01*
Y8260072D01*
Y8260424D01*
Y8261129D01*
X12056729Y8262011D01*
X12056906Y8262892D01*
X12057082Y8264126D01*
X12057787Y8267123D01*
X12059021Y8270472D01*
X12059902Y8272235D01*
X12060960Y8273997D01*
X12062018Y8275936D01*
X12063428Y8277699D01*
X12065014Y8279638D01*
X12066777Y8281401D01*
X12066953Y8281577D01*
X12067306Y8281930D01*
X12068011Y8282459D01*
X12068892Y8283164D01*
X12070126Y8284045D01*
X12071889Y8285279D01*
X12073828Y8286689D01*
X12076296Y8288100D01*
X12079116Y8289862D01*
X12082289Y8291801D01*
X12085991Y8293917D01*
X12090045Y8296208D01*
X12094629Y8298500D01*
X12099917Y8301144D01*
X12105558Y8303964D01*
X12111727Y8306785D01*
Y8317361D01*
Y8317538D01*
Y8317890D01*
Y8318419D01*
Y8319300D01*
Y8321239D01*
X12111551Y8323707D01*
X12111375Y8326175D01*
X12111199Y8328643D01*
X12110846Y8330758D01*
X12110493Y8331463D01*
X12110317Y8332169D01*
Y8332345D01*
X12110141Y8332697D01*
X12109788Y8333226D01*
X12109259Y8334108D01*
X12108554Y8334989D01*
X12107673Y8335870D01*
X12106615Y8336752D01*
X12105381Y8337633D01*
X12105205Y8337809D01*
X12104853Y8337986D01*
X12103971Y8338338D01*
X12103090Y8338867D01*
X12101856Y8339396D01*
X12100622Y8339748D01*
X12099035Y8339925D01*
X12097449Y8340101D01*
X12096215D01*
X12094981Y8339925D01*
X12093218Y8339748D01*
X12091279Y8339220D01*
X12089340Y8338691D01*
X12087401Y8337809D01*
X12085462Y8336752D01*
X12085286D01*
X12084933Y8336399D01*
X12084052Y8335518D01*
X12082994Y8333931D01*
X12082642Y8333050D01*
X12082466Y8331992D01*
Y8331816D01*
Y8331640D01*
X12082642Y8331111D01*
X12082818Y8330406D01*
X12083171Y8329524D01*
X12083876Y8328643D01*
X12084581Y8327409D01*
X12085639Y8326175D01*
X12085815Y8325999D01*
X12086344Y8325294D01*
X12087049Y8324412D01*
X12087754Y8323178D01*
X12088459Y8321768D01*
X12089164Y8320358D01*
X12089693Y8318595D01*
X12089869Y8317009D01*
Y8316832D01*
Y8316127D01*
X12089693Y8315070D01*
X12089340Y8313660D01*
X12088811Y8312249D01*
X12088106Y8310663D01*
X12087225Y8309076D01*
X12085815Y8307490D01*
X12085639Y8307314D01*
X12085110Y8306961D01*
X12084228Y8306256D01*
X12082994Y8305727D01*
X12081408Y8305022D01*
X12079645Y8304317D01*
X12077530Y8303964D01*
X12075062Y8303788D01*
X12073828D01*
X12072594Y8303964D01*
X12071008Y8304317D01*
X12069069Y8304846D01*
X12067130Y8305551D01*
X12065190Y8306608D01*
X12063251Y8308019D01*
X12063075Y8308195D01*
X12062546Y8308724D01*
X12061841Y8309605D01*
X12060960Y8310839D01*
X12060078Y8312249D01*
X12059373Y8314012D01*
X12058845Y8315775D01*
X12058668Y8317890D01*
Y8318066D01*
Y8318243D01*
X12058845Y8319300D01*
X12059021Y8320887D01*
X12059550Y8322826D01*
X12060255Y8325117D01*
X12061312Y8327762D01*
X12062899Y8330582D01*
X12065014Y8333226D01*
X12065367Y8333579D01*
X12066248Y8334460D01*
X12067658Y8335694D01*
X12069597Y8337457D01*
X12072065Y8339220D01*
X12075062Y8341159D01*
X12078587Y8342921D01*
X12082642Y8344508D01*
X12082818D01*
X12083171Y8344684D01*
X12083699Y8344860D01*
X12084581Y8345213D01*
X12085639Y8345389D01*
X12086872Y8345742D01*
X12089869Y8346623D01*
X12093571Y8347328D01*
X12097449Y8347857D01*
X12101856Y8348386D01*
X12106439Y8348562D01*
X12107849D01*
X12108907Y8348386D01*
D02*
G37*
G36*
X11879748D02*
X11880982D01*
X11882569Y8348210D01*
X11885918Y8347857D01*
X11889620Y8346976D01*
X11893498Y8345918D01*
X11897376Y8344332D01*
X11900901Y8342216D01*
X11901078D01*
X11901254Y8341864D01*
X11902311Y8341159D01*
X11903722Y8339748D01*
X11905484Y8338162D01*
X11907423Y8336047D01*
X11909363Y8333755D01*
X11910949Y8331111D01*
X11912183Y8328467D01*
Y8328290D01*
X11912359Y8327409D01*
X11912535Y8326880D01*
X11912712Y8325999D01*
X11912888Y8325117D01*
X11913064Y8324060D01*
Y8322650D01*
X11913241Y8321063D01*
X11913417Y8319300D01*
X11913593Y8317361D01*
Y8315070D01*
X11913769Y8312602D01*
Y8309781D01*
Y8306785D01*
Y8266241D01*
Y8265889D01*
Y8265184D01*
Y8263950D01*
Y8262539D01*
X11913946Y8260953D01*
Y8259543D01*
X11914122Y8258133D01*
X11914298Y8257251D01*
X11914475Y8256899D01*
X11914651Y8256194D01*
X11915180Y8255312D01*
X11915885Y8254607D01*
X11916061Y8254431D01*
X11916766Y8254255D01*
X11917471Y8253902D01*
X11918529Y8253726D01*
X11919058D01*
X11919587Y8253902D01*
X11920292Y8254255D01*
X11921173Y8254783D01*
X11922231Y8255488D01*
X11923288Y8256546D01*
X11924346Y8257956D01*
X11927871Y8255136D01*
Y8254960D01*
X11927695Y8254783D01*
X11926990Y8253726D01*
X11925756Y8252315D01*
X11924346Y8250553D01*
X11922583Y8248614D01*
X11920644Y8246675D01*
X11918529Y8244736D01*
X11916237Y8243149D01*
X11915885Y8242973D01*
X11915180Y8242620D01*
X11913946Y8241915D01*
X11912359Y8241386D01*
X11910244Y8240681D01*
X11907952Y8239976D01*
X11905484Y8239624D01*
X11902664Y8239447D01*
X11901254D01*
X11899491Y8239624D01*
X11897552Y8239976D01*
X11895260Y8240505D01*
X11892969Y8241210D01*
X11890677Y8242091D01*
X11888562Y8243502D01*
X11888386Y8243678D01*
X11887857Y8244383D01*
X11886975Y8245264D01*
X11885918Y8246675D01*
X11884860Y8248437D01*
X11883979Y8250729D01*
X11883097Y8253373D01*
X11882569Y8256370D01*
X11882392Y8256194D01*
X11881687Y8255665D01*
X11880630Y8254783D01*
X11879396Y8253726D01*
X11877633Y8252492D01*
X11875694Y8251082D01*
X11873402Y8249495D01*
X11871111Y8247909D01*
X11868466Y8246322D01*
X11865822Y8244736D01*
X11862826Y8243325D01*
X11860005Y8242091D01*
X11857009Y8241034D01*
X11854012Y8240152D01*
X11851015Y8239624D01*
X11848195Y8239447D01*
X11847842D01*
X11846785Y8239624D01*
X11845022Y8239800D01*
X11842906Y8240152D01*
X11840615Y8240858D01*
X11838147Y8241915D01*
X11835503Y8243325D01*
X11833211Y8245264D01*
X11833035Y8245617D01*
X11832330Y8246322D01*
X11831449Y8247556D01*
X11830391Y8249319D01*
X11829157Y8251434D01*
X11828276Y8253902D01*
X11827570Y8256722D01*
X11827394Y8259895D01*
Y8260072D01*
Y8260424D01*
Y8261129D01*
X11827570Y8262011D01*
X11827747Y8262892D01*
X11827923Y8264126D01*
X11828628Y8267123D01*
X11829862Y8270472D01*
X11830743Y8272235D01*
X11831801Y8273997D01*
X11832859Y8275936D01*
X11834269Y8277699D01*
X11835855Y8279638D01*
X11837618Y8281401D01*
X11837794Y8281577D01*
X11838147Y8281930D01*
X11838852Y8282459D01*
X11839733Y8283164D01*
X11840967Y8284045D01*
X11842730Y8285279D01*
X11844669Y8286689D01*
X11847137Y8288100D01*
X11849958Y8289862D01*
X11853130Y8291801D01*
X11856832Y8293917D01*
X11860887Y8296208D01*
X11865470Y8298500D01*
X11870758Y8301144D01*
X11876399Y8303964D01*
X11882569Y8306785D01*
Y8317361D01*
Y8317538D01*
Y8317890D01*
Y8318419D01*
Y8319300D01*
Y8321239D01*
X11882392Y8323707D01*
X11882216Y8326175D01*
X11882040Y8328643D01*
X11881687Y8330758D01*
X11881335Y8331463D01*
X11881158Y8332169D01*
Y8332345D01*
X11880982Y8332697D01*
X11880630Y8333226D01*
X11880101Y8334108D01*
X11879396Y8334989D01*
X11878514Y8335870D01*
X11877457Y8336752D01*
X11876223Y8337633D01*
X11876046Y8337809D01*
X11875694Y8337986D01*
X11874812Y8338338D01*
X11873931Y8338867D01*
X11872697Y8339396D01*
X11871463Y8339748D01*
X11869877Y8339925D01*
X11868290Y8340101D01*
X11867056D01*
X11865822Y8339925D01*
X11864060Y8339748D01*
X11862121Y8339220D01*
X11860182Y8338691D01*
X11858242Y8337809D01*
X11856303Y8336752D01*
X11856127D01*
X11855775Y8336399D01*
X11854893Y8335518D01*
X11853836Y8333931D01*
X11853483Y8333050D01*
X11853307Y8331992D01*
Y8331816D01*
Y8331640D01*
X11853483Y8331111D01*
X11853659Y8330406D01*
X11854012Y8329524D01*
X11854717Y8328643D01*
X11855422Y8327409D01*
X11856480Y8326175D01*
X11856656Y8325999D01*
X11857185Y8325294D01*
X11857890Y8324412D01*
X11858595Y8323178D01*
X11859300Y8321768D01*
X11860005Y8320358D01*
X11860534Y8318595D01*
X11860710Y8317009D01*
Y8316832D01*
Y8316127D01*
X11860534Y8315070D01*
X11860182Y8313660D01*
X11859653Y8312249D01*
X11858948Y8310663D01*
X11858066Y8309076D01*
X11856656Y8307490D01*
X11856480Y8307314D01*
X11855951Y8306961D01*
X11855070Y8306256D01*
X11853836Y8305727D01*
X11852249Y8305022D01*
X11850486Y8304317D01*
X11848371Y8303964D01*
X11845903Y8303788D01*
X11844669D01*
X11843435Y8303964D01*
X11841849Y8304317D01*
X11839910Y8304846D01*
X11837971Y8305551D01*
X11836032Y8306608D01*
X11834093Y8308019D01*
X11833916Y8308195D01*
X11833388Y8308724D01*
X11832682Y8309605D01*
X11831801Y8310839D01*
X11830920Y8312249D01*
X11830215Y8314012D01*
X11829686Y8315775D01*
X11829509Y8317890D01*
Y8318066D01*
Y8318243D01*
X11829686Y8319300D01*
X11829862Y8320887D01*
X11830391Y8322826D01*
X11831096Y8325117D01*
X11832154Y8327762D01*
X11833740Y8330582D01*
X11835855Y8333226D01*
X11836208Y8333579D01*
X11837089Y8334460D01*
X11838500Y8335694D01*
X11840439Y8337457D01*
X11842906Y8339220D01*
X11845903Y8341159D01*
X11849429Y8342921D01*
X11853483Y8344508D01*
X11853659D01*
X11854012Y8344684D01*
X11854541Y8344860D01*
X11855422Y8345213D01*
X11856480Y8345389D01*
X11857714Y8345742D01*
X11860710Y8346623D01*
X11864412Y8347328D01*
X11868290Y8347857D01*
X11872697Y8348386D01*
X11877280Y8348562D01*
X11878690D01*
X11879748Y8348386D01*
D02*
G37*
G36*
X11363788Y8345565D02*
X11388643D01*
Y8334636D01*
X11363788D01*
Y8269767D01*
Y8269590D01*
Y8269414D01*
Y8268356D01*
Y8266770D01*
X11363965Y8265007D01*
Y8263068D01*
X11364141Y8261129D01*
X11364317Y8259366D01*
X11364493Y8258132D01*
Y8257956D01*
X11364670Y8257780D01*
X11365199Y8256546D01*
X11366080Y8255312D01*
X11367490Y8253902D01*
X11367666D01*
X11367843Y8253725D01*
X11368724Y8253197D01*
X11369958Y8252491D01*
X11371368Y8252315D01*
X11371721D01*
X11372602Y8252491D01*
X11374012Y8252844D01*
X11375775Y8253725D01*
X11377890Y8254959D01*
X11378948Y8256017D01*
X11380182Y8257075D01*
X11381416Y8258309D01*
X11382474Y8259719D01*
X11383707Y8261482D01*
X11384941Y8263421D01*
X11388467Y8260953D01*
X11388291Y8260776D01*
X11388114Y8260071D01*
X11387409Y8259014D01*
X11386704Y8257604D01*
X11385647Y8256017D01*
X11384589Y8254078D01*
X11383002Y8252139D01*
X11381416Y8250200D01*
X11379477Y8248261D01*
X11377185Y8246322D01*
X11374894Y8244383D01*
X11372250Y8242796D01*
X11369253Y8241386D01*
X11366080Y8240328D01*
X11362731Y8239623D01*
X11359029Y8239447D01*
X11358147D01*
X11357442Y8239623D01*
X11355503Y8239800D01*
X11353212Y8240152D01*
X11350568Y8240857D01*
X11347747Y8241739D01*
X11344927Y8243149D01*
X11342283Y8244912D01*
X11341930Y8245088D01*
X11341225Y8245793D01*
X11339991Y8247027D01*
X11338581Y8248437D01*
X11337171Y8250376D01*
X11335584Y8252491D01*
X11334350Y8254783D01*
X11333469Y8257251D01*
Y8257427D01*
X11333293Y8258132D01*
X11333116Y8259366D01*
Y8260248D01*
X11332940Y8261305D01*
X11332764Y8262539D01*
Y8263949D01*
X11332587Y8265712D01*
Y8267651D01*
Y8269767D01*
X11332411Y8272234D01*
Y8274879D01*
Y8277875D01*
Y8334636D01*
X11318838D01*
Y8338514D01*
X11319014Y8338690D01*
X11319543Y8339043D01*
X11320248Y8339572D01*
X11321130Y8340277D01*
X11322363Y8341158D01*
X11323774Y8342216D01*
X11327123Y8344860D01*
X11330825Y8347857D01*
X11334703Y8351382D01*
X11338757Y8355260D01*
X11342635Y8359315D01*
X11342811Y8359491D01*
X11343164Y8359844D01*
X11343693Y8360372D01*
X11344398Y8361254D01*
X11345279Y8362311D01*
X11346161Y8363545D01*
X11347395Y8364956D01*
X11348629Y8366542D01*
X11351273Y8370244D01*
X11354269Y8374474D01*
X11357266Y8379058D01*
X11360086Y8383993D01*
X11363788D01*
Y8345565D01*
D02*
G37*
G36*
X12347585Y8348386D02*
X12348819D01*
X12350229Y8348210D01*
X12351815Y8348033D01*
X12353578Y8347681D01*
X12357456Y8346799D01*
X12361863Y8345565D01*
X12366270Y8343803D01*
X12370677Y8341511D01*
X12370853D01*
X12371206Y8341159D01*
X12371734Y8340806D01*
X12372616Y8340277D01*
X12374731Y8338514D01*
X12377375Y8336399D01*
X12380196Y8333579D01*
X12383192Y8330053D01*
X12386013Y8325999D01*
X12388481Y8321416D01*
Y8321239D01*
X12388833Y8320887D01*
X12389010Y8320182D01*
X12389538Y8319124D01*
X12389891Y8317890D01*
X12390420Y8316480D01*
X12390949Y8314893D01*
X12391654Y8312954D01*
X12392182Y8311015D01*
X12392711Y8308724D01*
X12393769Y8303964D01*
X12394474Y8298676D01*
X12394650Y8293035D01*
Y8292859D01*
Y8291978D01*
Y8290920D01*
X12394474Y8289333D01*
X12394298Y8287394D01*
X12394122Y8285103D01*
X12393769Y8282635D01*
X12393240Y8279991D01*
X12391830Y8273997D01*
X12390949Y8271001D01*
X12389891Y8267828D01*
X12388657Y8264655D01*
X12387070Y8261658D01*
X12385308Y8258485D01*
X12383369Y8255665D01*
X12383192Y8255488D01*
X12382664Y8254960D01*
X12381958Y8254078D01*
X12380901Y8252844D01*
X12379491Y8251434D01*
X12377728Y8250024D01*
X12375789Y8248437D01*
X12373497Y8246675D01*
X12371029Y8245088D01*
X12368209Y8243325D01*
X12365036Y8241915D01*
X12361687Y8240505D01*
X12357985Y8239271D01*
X12354107Y8238390D01*
X12350053Y8237861D01*
X12345646Y8237685D01*
X12344588D01*
X12343354Y8237861D01*
X12341768D01*
X12339829Y8238213D01*
X12337537Y8238566D01*
X12335069Y8239095D01*
X12332425Y8239800D01*
X12329428Y8240681D01*
X12326608Y8241739D01*
X12323435Y8242973D01*
X12320438Y8244559D01*
X12317618Y8246498D01*
X12314797Y8248614D01*
X12311977Y8251258D01*
X12309509Y8254078D01*
X12309333Y8254255D01*
X12308980Y8254783D01*
X12308275Y8255841D01*
X12307570Y8257075D01*
X12306512Y8258661D01*
X12305455Y8260424D01*
X12304397Y8262716D01*
X12303163Y8265184D01*
X12301929Y8267828D01*
X12300872Y8270824D01*
X12299814Y8273997D01*
X12298756Y8277347D01*
X12298051Y8280872D01*
X12297346Y8284574D01*
X12296993Y8288452D01*
X12296817Y8292506D01*
Y8292683D01*
Y8293564D01*
X12296993Y8294622D01*
Y8296384D01*
X12297170Y8298324D01*
X12297522Y8300615D01*
X12297875Y8303083D01*
X12298404Y8305903D01*
X12299109Y8308900D01*
X12299990Y8312073D01*
X12301048Y8315246D01*
X12302282Y8318595D01*
X12303692Y8321944D01*
X12305455Y8325294D01*
X12307394Y8328643D01*
X12309685Y8331816D01*
X12309862Y8331992D01*
X12310214Y8332521D01*
X12311096Y8333402D01*
X12312153Y8334460D01*
X12313387Y8335694D01*
X12314974Y8337104D01*
X12316913Y8338691D01*
X12319028Y8340277D01*
X12321496Y8341687D01*
X12324140Y8343274D01*
X12326960Y8344684D01*
X12330133Y8345918D01*
X12333659Y8346976D01*
X12337361Y8347857D01*
X12341239Y8348386D01*
X12345293Y8348562D01*
X12346703D01*
X12347585Y8348386D01*
D02*
G37*
G36*
X11449987Y8348386D02*
X11451221D01*
X11452631Y8348209D01*
X11454218Y8348033D01*
X11455981Y8347681D01*
X11459859Y8346799D01*
X11464266Y8345565D01*
X11468673Y8343802D01*
X11473079Y8341511D01*
X11473256D01*
X11473608Y8341158D01*
X11474137Y8340806D01*
X11475018Y8340277D01*
X11477134Y8338514D01*
X11479778Y8336399D01*
X11482598Y8333578D01*
X11485595Y8330053D01*
X11488415Y8325999D01*
X11490883Y8321415D01*
Y8321239D01*
X11491236Y8320887D01*
X11491412Y8320181D01*
X11491941Y8319124D01*
X11492293Y8317890D01*
X11492822Y8316480D01*
X11493351Y8314893D01*
X11494056Y8312954D01*
X11494585Y8311015D01*
X11495114Y8308724D01*
X11496172Y8303964D01*
X11496877Y8298676D01*
X11497053Y8293035D01*
Y8292859D01*
Y8291977D01*
Y8290920D01*
X11496877Y8289333D01*
X11496700Y8287394D01*
X11496524Y8285103D01*
X11496172Y8282635D01*
X11495643Y8279991D01*
X11494233Y8273997D01*
X11493351Y8271000D01*
X11492293Y8267828D01*
X11491060Y8264655D01*
X11489473Y8261658D01*
X11487710Y8258485D01*
X11485771Y8255664D01*
X11485595Y8255488D01*
X11485066Y8254959D01*
X11484361Y8254078D01*
X11483303Y8252844D01*
X11481893Y8251434D01*
X11480130Y8250024D01*
X11478191Y8248437D01*
X11475900Y8246674D01*
X11473432Y8245088D01*
X11470612Y8243325D01*
X11467439Y8241915D01*
X11464089Y8240505D01*
X11460388Y8239271D01*
X11456509Y8238389D01*
X11452455Y8237861D01*
X11448048Y8237684D01*
X11446991D01*
X11445757Y8237861D01*
X11444170D01*
X11442231Y8238213D01*
X11439940Y8238566D01*
X11437472Y8239095D01*
X11434828Y8239800D01*
X11431831Y8240681D01*
X11429010Y8241739D01*
X11425837Y8242973D01*
X11422841Y8244559D01*
X11420020Y8246498D01*
X11417200Y8248613D01*
X11414380Y8251258D01*
X11411912Y8254078D01*
X11411735Y8254254D01*
X11411383Y8254783D01*
X11410678Y8255841D01*
X11409973Y8257075D01*
X11408915Y8258661D01*
X11407857Y8260424D01*
X11406800Y8262716D01*
X11405566Y8265183D01*
X11404332Y8267828D01*
X11403274Y8270824D01*
X11402216Y8273997D01*
X11401159Y8277346D01*
X11400454Y8280872D01*
X11399749Y8284574D01*
X11399396Y8288452D01*
X11399220Y8292506D01*
Y8292682D01*
Y8293564D01*
X11399396Y8294621D01*
Y8296384D01*
X11399572Y8298323D01*
X11399925Y8300615D01*
X11400277Y8303083D01*
X11400806Y8305903D01*
X11401511Y8308900D01*
X11402393Y8312073D01*
X11403450Y8315246D01*
X11404684Y8318595D01*
X11406095Y8321944D01*
X11407857Y8325293D01*
X11409796Y8328643D01*
X11412088Y8331816D01*
X11412264Y8331992D01*
X11412617Y8332521D01*
X11413498Y8333402D01*
X11414556Y8334460D01*
X11415790Y8335694D01*
X11417376Y8337104D01*
X11419315Y8338690D01*
X11421431Y8340277D01*
X11423898Y8341687D01*
X11426543Y8343274D01*
X11429363Y8344684D01*
X11432536Y8345918D01*
X11436061Y8346975D01*
X11439763Y8347857D01*
X11443641Y8348386D01*
X11447696Y8348562D01*
X11449106D01*
X11449987Y8348386D01*
D02*
G37*
%LPC*%
G36*
X7014301Y6641200D02*
X6990499D01*
X6967507Y6635039D01*
X6946893Y6623138D01*
X6930062Y6606307D01*
X6918161Y6585693D01*
X6912000Y6562701D01*
Y6538899D01*
X6918161Y6515907D01*
X6930062Y6495293D01*
X6946893Y6478462D01*
X6967507Y6466561D01*
X6990499Y6460400D01*
X7014301D01*
X7037293Y6466561D01*
X7057907Y6478462D01*
X7074738Y6495293D01*
X7086639Y6515907D01*
X7092800Y6538899D01*
Y6562701D01*
X7086639Y6585693D01*
X7074738Y6606307D01*
X7057907Y6623138D01*
X7037293Y6635039D01*
X7014301Y6641200D01*
D02*
G37*
G36*
X6014301Y6591200D02*
X5990499D01*
X5967507Y6585039D01*
X5946893Y6573138D01*
X5930062Y6556307D01*
X5918161Y6535693D01*
X5912000Y6512701D01*
Y6488899D01*
X5918161Y6465907D01*
X5930062Y6445293D01*
X5946893Y6428462D01*
X5967507Y6416561D01*
X5990499Y6410400D01*
X6014301D01*
X6037293Y6416561D01*
X6057907Y6428462D01*
X6074738Y6445293D01*
X6086639Y6465907D01*
X6092800Y6488899D01*
Y6512701D01*
X6086639Y6535693D01*
X6074738Y6556307D01*
X6057907Y6573138D01*
X6037293Y6585039D01*
X6014301Y6591200D01*
D02*
G37*
G36*
X7014301Y6441200D02*
X6990499D01*
X6967507Y6435039D01*
X6946893Y6423138D01*
X6930062Y6406307D01*
X6918161Y6385693D01*
X6912000Y6362702D01*
Y6338899D01*
X6918161Y6315907D01*
X6930062Y6295293D01*
X6946893Y6278462D01*
X6967507Y6266561D01*
X6990499Y6260400D01*
X7014301D01*
X7037293Y6266561D01*
X7057907Y6278462D01*
X7074738Y6295293D01*
X7086639Y6315907D01*
X7092800Y6338899D01*
Y6362702D01*
X7086639Y6385693D01*
X7074738Y6406307D01*
X7057907Y6423138D01*
X7037293Y6435039D01*
X7014301Y6441200D01*
D02*
G37*
G36*
X6014301Y6391200D02*
X5990499D01*
X5967507Y6385039D01*
X5946893Y6373138D01*
X5930062Y6356307D01*
X5918161Y6335693D01*
X5912000Y6312701D01*
Y6288899D01*
X5918161Y6265907D01*
X5930062Y6245293D01*
X5946893Y6228462D01*
X5967507Y6216561D01*
X5990499Y6210400D01*
X6014301D01*
X6037293Y6216561D01*
X6057907Y6228462D01*
X6074738Y6245293D01*
X6086639Y6265907D01*
X6092800Y6288899D01*
Y6312701D01*
X6086639Y6335693D01*
X6074738Y6356307D01*
X6057907Y6373138D01*
X6037293Y6385039D01*
X6014301Y6391200D01*
D02*
G37*
G36*
X11991003Y5940400D02*
X11938997D01*
X11887631Y5932264D01*
X11838170Y5916194D01*
X11791833Y5892584D01*
X11749759Y5862015D01*
X11712985Y5825241D01*
X11682417Y5783168D01*
X11658807Y5736830D01*
X11642736Y5687369D01*
X11634600Y5636003D01*
Y5583997D01*
X11642736Y5532631D01*
X11658807Y5483171D01*
X11682417Y5436833D01*
X11712985Y5394759D01*
X11749759Y5357985D01*
X11791833Y5327417D01*
X11838170Y5303807D01*
X11887631Y5287736D01*
X11938997Y5279600D01*
X11991003D01*
X12042369Y5287736D01*
X12091830Y5303807D01*
X12138167Y5327417D01*
X12180241Y5357985D01*
X12217015Y5394759D01*
X12247583Y5436833D01*
X12271193Y5483171D01*
X12287264Y5532631D01*
X12295400Y5583997D01*
Y5636003D01*
X12287264Y5687369D01*
X12271193Y5736830D01*
X12247583Y5783168D01*
X12217015Y5825241D01*
X12180241Y5862015D01*
X12138167Y5892584D01*
X12091830Y5916194D01*
X12042369Y5932264D01*
X11991003Y5940400D01*
D02*
G37*
G36*
X12111727Y8299381D02*
X12111551D01*
X12111199Y8299029D01*
X12110493Y8298676D01*
X12109436Y8297971D01*
X12108378Y8297266D01*
X12107144Y8296384D01*
X12104147Y8294269D01*
X12100798Y8291801D01*
X12097449Y8288981D01*
X12094276Y8285808D01*
X12091456Y8282459D01*
X12091279Y8282282D01*
X12090751Y8281401D01*
X12090045Y8280167D01*
X12089340Y8278757D01*
X12088635Y8276818D01*
X12087930Y8274879D01*
X12087401Y8272587D01*
X12087225Y8270296D01*
Y8270119D01*
Y8269414D01*
X12087401Y8268533D01*
X12087754Y8267299D01*
X12088106Y8265889D01*
X12088635Y8264302D01*
X12089517Y8262892D01*
X12090751Y8261306D01*
X12090927Y8261129D01*
X12091279Y8260777D01*
X12091984Y8260424D01*
X12092866Y8259895D01*
X12093923Y8259190D01*
X12095334Y8258838D01*
X12096920Y8258485D01*
X12098683Y8258309D01*
X12098859D01*
X12099741Y8258485D01*
X12100798Y8258661D01*
X12102385Y8259014D01*
X12104324Y8259895D01*
X12106615Y8260953D01*
X12109083Y8262363D01*
X12111727Y8264479D01*
Y8299381D01*
D02*
G37*
G36*
X11882569D02*
X11882392D01*
X11882040Y8299029D01*
X11881335Y8298676D01*
X11880277Y8297971D01*
X11879219Y8297266D01*
X11877985Y8296384D01*
X11874989Y8294269D01*
X11871639Y8291801D01*
X11868290Y8288981D01*
X11865117Y8285808D01*
X11862297Y8282459D01*
X11862121Y8282282D01*
X11861592Y8281401D01*
X11860887Y8280167D01*
X11860182Y8278757D01*
X11859476Y8276818D01*
X11858771Y8274879D01*
X11858242Y8272587D01*
X11858066Y8270296D01*
Y8270119D01*
Y8269414D01*
X11858242Y8268533D01*
X11858595Y8267299D01*
X11858948Y8265889D01*
X11859476Y8264302D01*
X11860358Y8262892D01*
X11861592Y8261306D01*
X11861768Y8261129D01*
X11862121Y8260777D01*
X11862826Y8260424D01*
X11863707Y8259895D01*
X11864765Y8259190D01*
X11866175Y8258838D01*
X11867761Y8258485D01*
X11869524Y8258309D01*
X11869700D01*
X11870582Y8258485D01*
X11871639Y8258661D01*
X11873226Y8259014D01*
X11875165Y8259895D01*
X11877457Y8260953D01*
X11879924Y8262363D01*
X11882569Y8264479D01*
Y8299381D01*
D02*
G37*
G36*
X12345822Y8340806D02*
X12344941D01*
X12343883Y8340630D01*
X12342473Y8340277D01*
X12341062Y8339748D01*
X12339300Y8338867D01*
X12337713Y8337809D01*
X12336127Y8336399D01*
X12335950Y8336223D01*
X12335422Y8335518D01*
X12334717Y8334460D01*
X12334011Y8332697D01*
X12333130Y8330406D01*
X12332601Y8328996D01*
X12332249Y8327409D01*
X12331720Y8325646D01*
X12331367Y8323707D01*
X12331191Y8321592D01*
X12330838Y8319300D01*
Y8319124D01*
Y8318772D01*
X12330662Y8318066D01*
Y8317009D01*
X12330486Y8315599D01*
Y8314188D01*
X12330310Y8312249D01*
Y8310134D01*
X12330133Y8307842D01*
X12329957Y8305198D01*
Y8302202D01*
X12329781Y8299029D01*
Y8295679D01*
X12329604Y8291978D01*
Y8288100D01*
Y8284045D01*
Y8283869D01*
Y8283516D01*
Y8282811D01*
Y8281930D01*
Y8280872D01*
Y8279638D01*
X12329781Y8276818D01*
X12329957Y8273292D01*
X12330133Y8269591D01*
X12331015Y8261658D01*
Y8261306D01*
X12331191Y8260424D01*
X12331544Y8259014D01*
X12332072Y8257251D01*
X12332777Y8255136D01*
X12333835Y8253197D01*
X12334893Y8251258D01*
X12336303Y8249495D01*
X12336479Y8249319D01*
X12337008Y8248790D01*
X12337889Y8248261D01*
X12338947Y8247556D01*
X12340357Y8246675D01*
X12341944Y8246146D01*
X12343530Y8245617D01*
X12345469Y8245441D01*
X12346351D01*
X12347232Y8245617D01*
X12348290Y8245793D01*
X12349700Y8246146D01*
X12351110Y8246498D01*
X12352520Y8247203D01*
X12353754Y8248085D01*
X12353931Y8248261D01*
X12354459Y8248790D01*
X12355165Y8249671D01*
X12356222Y8250905D01*
X12357104Y8252492D01*
X12358161Y8254255D01*
X12358866Y8256370D01*
X12359571Y8258838D01*
Y8259014D01*
X12359748Y8259367D01*
Y8260072D01*
X12359924Y8260953D01*
X12360100Y8262363D01*
X12360277Y8263950D01*
X12360453Y8265889D01*
X12360805Y8268180D01*
X12360982Y8270824D01*
X12361158Y8273997D01*
X12361334Y8277523D01*
X12361510Y8281401D01*
X12361687Y8285808D01*
Y8290744D01*
X12361863Y8296032D01*
Y8301849D01*
Y8302025D01*
Y8302730D01*
Y8303612D01*
Y8305022D01*
Y8306432D01*
X12361687Y8308195D01*
Y8312249D01*
X12361334Y8316656D01*
X12360982Y8320887D01*
X12360805Y8323002D01*
X12360453Y8324765D01*
X12360100Y8326528D01*
X12359748Y8327938D01*
X12359571Y8328290D01*
X12359395Y8329172D01*
X12358866Y8330406D01*
X12358161Y8331992D01*
X12357280Y8333579D01*
X12356222Y8335341D01*
X12354812Y8336928D01*
X12353402Y8338338D01*
X12353225Y8338514D01*
X12352873Y8338691D01*
X12352344Y8339043D01*
X12351463Y8339572D01*
X12350405Y8340101D01*
X12348995Y8340453D01*
X12347585Y8340630D01*
X12345822Y8340806D01*
D02*
G37*
G36*
X11448224Y8340806D02*
X11447343D01*
X11446285Y8340629D01*
X11444875Y8340277D01*
X11443465Y8339748D01*
X11441702Y8338867D01*
X11440116Y8337809D01*
X11438529Y8336399D01*
X11438353Y8336223D01*
X11437824Y8335517D01*
X11437119Y8334460D01*
X11436414Y8332697D01*
X11435533Y8330405D01*
X11435004Y8328995D01*
X11434651Y8327409D01*
X11434122Y8325646D01*
X11433770Y8323707D01*
X11433594Y8321592D01*
X11433241Y8319300D01*
Y8319124D01*
Y8318771D01*
X11433065Y8318066D01*
Y8317009D01*
X11432888Y8315598D01*
Y8314188D01*
X11432712Y8312249D01*
Y8310134D01*
X11432536Y8307842D01*
X11432360Y8305198D01*
Y8302201D01*
X11432183Y8299028D01*
Y8295679D01*
X11432007Y8291977D01*
Y8288099D01*
Y8284045D01*
Y8283869D01*
Y8283516D01*
Y8282811D01*
Y8281930D01*
Y8280872D01*
Y8279638D01*
X11432183Y8276818D01*
X11432360Y8273292D01*
X11432536Y8269590D01*
X11433417Y8261658D01*
Y8261305D01*
X11433594Y8260424D01*
X11433946Y8259014D01*
X11434475Y8257251D01*
X11435180Y8255136D01*
X11436238Y8253197D01*
X11437295Y8251258D01*
X11438706Y8249495D01*
X11438882Y8249319D01*
X11439411Y8248790D01*
X11440292Y8248261D01*
X11441350Y8247556D01*
X11442760Y8246674D01*
X11444346Y8246146D01*
X11445933Y8245617D01*
X11447872Y8245440D01*
X11448753D01*
X11449635Y8245617D01*
X11450692Y8245793D01*
X11452103Y8246146D01*
X11453513Y8246498D01*
X11454923Y8247203D01*
X11456157Y8248085D01*
X11456333Y8248261D01*
X11456862Y8248790D01*
X11457567Y8249671D01*
X11458625Y8250905D01*
X11459506Y8252491D01*
X11460564Y8254254D01*
X11461269Y8256370D01*
X11461974Y8258837D01*
Y8259014D01*
X11462150Y8259366D01*
Y8260071D01*
X11462327Y8260953D01*
X11462503Y8262363D01*
X11462679Y8263949D01*
X11462855Y8265888D01*
X11463208Y8268180D01*
X11463384Y8270824D01*
X11463561Y8273997D01*
X11463737Y8277523D01*
X11463913Y8281401D01*
X11464089Y8285808D01*
Y8290743D01*
X11464266Y8296032D01*
Y8301849D01*
Y8302025D01*
Y8302730D01*
Y8303612D01*
Y8305022D01*
Y8306432D01*
X11464089Y8308195D01*
Y8312249D01*
X11463737Y8316656D01*
X11463384Y8320887D01*
X11463208Y8323002D01*
X11462855Y8324765D01*
X11462503Y8326527D01*
X11462150Y8327938D01*
X11461974Y8328290D01*
X11461798Y8329172D01*
X11461269Y8330405D01*
X11460564Y8331992D01*
X11459682Y8333578D01*
X11458625Y8335341D01*
X11457215Y8336928D01*
X11455804Y8338338D01*
X11455628Y8338514D01*
X11455276Y8338690D01*
X11454747Y8339043D01*
X11453865Y8339572D01*
X11452808Y8340101D01*
X11451397Y8340453D01*
X11449987Y8340629D01*
X11448224Y8340806D01*
D02*
G37*
%LPD*%
D10*
X8699500Y7134200D02*
D03*
Y6734200D02*
D03*
D11*
X8028400Y8153400D02*
D03*
X7643400D02*
D03*
D12*
X6311900Y7126500D02*
D03*
X6184900D02*
D03*
X6057900D02*
D03*
X5930900D02*
D03*
X7200900Y7124700D02*
D03*
X7327900D02*
D03*
X7454900D02*
D03*
X6565900Y7126850D02*
D03*
X6692900D02*
D03*
X6819900D02*
D03*
X6946900D02*
D03*
X7581900Y7124700D02*
D03*
D13*
X5930900Y7708900D02*
D03*
X6057900D02*
D03*
X6184900D02*
D03*
X6311900D02*
D03*
X6946900Y7709250D02*
D03*
X6819900D02*
D03*
X6692900D02*
D03*
X6565900D02*
D03*
X7581900Y7707100D02*
D03*
X7454900D02*
D03*
X7327900D02*
D03*
X7200900D02*
D03*
D14*
X8685600Y8445500D02*
D03*
X8535600D02*
D03*
X8698300Y7442200D02*
D03*
X8548300D02*
D03*
X8851900Y8445500D02*
D03*
X9001900D02*
D03*
D15*
X8026400Y7720400D02*
D03*
X9029700Y7822000D02*
D03*
X4353000Y7848200D02*
D03*
Y7998200D02*
D03*
X4635500Y7849800D02*
D03*
Y7999800D02*
D03*
X9029700Y7672000D02*
D03*
X8026400Y7570400D02*
D03*
D16*
X8674100Y7647300D02*
D03*
X8420100D02*
D03*
X8547100Y8202300D02*
D03*
X8801100D02*
D03*
X8674100D02*
D03*
X8420100D02*
D03*
X8547100Y7647300D02*
D03*
X8801100D02*
D03*
D17*
X4208200Y5438700D02*
D03*
D18*
X10515600Y7975600D02*
D03*
D19*
X10595600Y7870600D02*
D03*
X10555600D02*
D03*
X10515600D02*
D03*
X10475600D02*
D03*
X10435600D02*
D03*
Y8080600D02*
D03*
X10475600D02*
D03*
X10515600D02*
D03*
X10555600D02*
D03*
X10595600D02*
D03*
D20*
X4604000Y7470800D02*
D03*
X4794000D02*
D03*
X4699000Y7670800D02*
D03*
X4184900Y7469200D02*
D03*
X4374900D02*
D03*
X4279900Y7669200D02*
D03*
D21*
X10515600Y8406200D02*
D03*
Y8256200D02*
D03*
D22*
X10677200Y7632700D02*
D03*
X10557200D02*
D03*
X9334900Y7986700D02*
D03*
X9454900D02*
D03*
D23*
X10185400Y8055600D02*
D03*
Y7895600D02*
D03*
D24*
X9645900Y7891700D02*
D03*
Y7986700D02*
D03*
Y8081700D02*
D03*
X9905900D02*
D03*
Y7986700D02*
D03*
Y7891700D02*
D03*
D25*
X4356100Y8179800D02*
D03*
Y8304800D02*
D03*
X4635500D02*
D03*
Y8179800D02*
D03*
D26*
X3810000Y5530700D02*
D03*
Y5346700D02*
D03*
D27*
X9627300Y7681900D02*
D03*
X9467300D02*
D03*
D28*
X10287000Y8191500D02*
X10452100D01*
X10475600Y8168000D01*
X10555600Y8080600D02*
Y8168000D01*
X10579100Y8191500D02*
X10642600D01*
X10555600Y8168000D02*
X10579100Y8191500D01*
X10475600Y8080600D02*
Y8168000D01*
X10515600Y7870600D02*
Y7975600D01*
X10541000D02*
X10595600Y7921000D01*
Y7870600D02*
Y7921000D01*
X10185400Y7747000D02*
X10452100D01*
X10475600Y7770500D01*
Y7870600D01*
X10570210Y8001000D02*
X10595600Y8026390D01*
X10566400Y8001000D02*
X10570210D01*
X10595600Y8026390D02*
Y8080600D01*
X10435600Y7870600D02*
Y7924810D01*
X10460990Y7950200D01*
X10464800D01*
X10515600Y8080600D02*
Y8255000D01*
X10555600Y7634600D02*
Y7870600D01*
D29*
X8026400Y7429500D02*
Y7570400D01*
X8026400Y7570400D02*
X8026400Y7570400D01*
X7581900Y7010400D02*
Y7124700D01*
X6311900Y7010400D02*
Y7126500D01*
X6946900Y7010400D02*
Y7126850D01*
X8535600Y8213800D02*
X8547100Y8202300D01*
X8535600Y8213800D02*
Y8445500D01*
X8674100Y8202300D02*
X8685600Y8213800D01*
Y8445500D01*
X8674100Y8039100D02*
Y8202300D01*
X10210400Y8080600D02*
X10424100D01*
X10185400Y8055600D02*
X10210400Y8080600D01*
X10185400Y7678420D02*
Y7747000D01*
X10231120Y7632700D02*
X10557200D01*
X10185400Y7678420D02*
X10231120Y7632700D01*
X5080000Y6108700D02*
Y6426200D01*
X4305300Y7694600D02*
Y7805900D01*
X4348000Y7848600D01*
X4279900Y7669200D02*
X4305300Y7694600D01*
X4348000Y7848600D02*
X4356100D01*
X4651700D02*
X4673600Y7826700D01*
Y7696200D02*
Y7826700D01*
Y7696200D02*
X4699000Y7670800D01*
X4584700Y7179858D02*
X4794000Y7389158D01*
Y7470800D01*
X4374900Y7389659D02*
X4584700Y7179858D01*
X4374900Y7389659D02*
Y7469200D01*
X4584700Y6921500D02*
Y7179858D01*
Y6921500D02*
X5080000Y6426200D01*
X4184900Y6703880D02*
Y7469200D01*
Y6703880D02*
X4881680Y6007100D01*
X10180400Y7891700D02*
X10180950Y7891150D01*
X4356100Y8305800D02*
Y8470900D01*
X4495800Y8610600D01*
X4634500Y8305800D02*
Y8471900D01*
X4495800Y8610600D02*
X4634500Y8471900D01*
Y8305800D02*
X4635500Y8304800D01*
X9935400Y8077200D02*
X10163800D01*
X9906700Y7987500D02*
X10044900D01*
X9232900Y7810500D02*
Y7884700D01*
X10044900Y7987500D02*
X10045700Y7988300D01*
X10163800Y8077200D02*
X10185400Y8055600D01*
X10731500Y7975600D02*
Y8318500D01*
Y7687000D02*
Y7975600D01*
X10541000D02*
X10731500D01*
X10515600D02*
X10541000D01*
X9232900Y7884700D02*
X9334900Y7986700D01*
X9361500Y7681900D02*
X9467300D01*
X9232900Y7810500D02*
X9361500Y7681900D01*
X9454900Y7894347D02*
X9486900Y7862346D01*
X9454900Y7894347D02*
Y7986700D01*
X9486900Y7848600D02*
Y7862346D01*
X9905900Y7891700D02*
X9930900D01*
X10185400Y7747000D02*
Y7895600D01*
X9001900Y8445500D02*
X9257100D01*
X9625400Y8077200D01*
X4353000Y8175700D02*
X4356100Y8178800D01*
X4353000Y7998200D02*
Y8175700D01*
X4635500Y7999800D02*
Y8178800D01*
X4635500Y8178800D02*
X4635500Y8178800D01*
X9905900Y7986700D02*
X9906700Y7987500D01*
X9625400Y8077200D02*
X9652000D01*
X10677200Y7640200D02*
X10702000Y7665000D01*
X10709500D01*
X10731500Y7687000D01*
X10677200Y7632700D02*
Y7640200D01*
X10643800Y8406200D02*
X10731500Y8318500D01*
X10515600Y8406200D02*
X10643800D01*
X8801100Y8384700D02*
X8851900Y8435500D01*
X8801100Y8202300D02*
Y8384700D01*
X8851900Y8435500D02*
Y8445500D01*
X8853100Y8422800D02*
Y8432800D01*
X10185400Y8077200D02*
X10188800Y8080600D01*
X4635500Y7999800D02*
X4664000Y8028300D01*
D30*
X8698300Y7135400D02*
X8699500Y7134200D01*
X8696300Y7137400D02*
X8698300Y7135400D01*
X8483600Y7137400D02*
X8696300D01*
X4953000Y8280400D02*
X5283200Y8610600D01*
X4751642Y7566600D02*
X4953000Y7767958D01*
Y8280400D01*
X5283200Y8610600D02*
X9352000D01*
X9885400Y8077200D01*
X8761800Y7198900D02*
X8763000Y7197700D01*
X8667800Y6765900D02*
X8699500D01*
X8698300Y7135400D02*
Y7442200D01*
X7697400Y7720400D02*
X8026400D01*
X8177600D01*
X8280400Y7823200D01*
X8674100D01*
Y7647300D02*
Y7823200D01*
X9029700D01*
X8255000Y7442200D02*
X8420100Y7607300D01*
Y7647300D01*
X8255000Y6832600D02*
Y7442200D01*
X9905900Y7891700D02*
Y7986700D01*
X10637740Y8186640D02*
X10642600Y8191500D01*
X4597400Y7469200D02*
X4694800Y7566600D01*
X4751642D01*
X4597400Y7467600D02*
Y7469200D01*
X9885400Y8077200D02*
X9906000D01*
X9905900Y8077300D02*
Y8081700D01*
Y8077300D02*
X9906000Y8077200D01*
X4353000Y7998200D02*
X4354550Y7999750D01*
X9626950Y7681550D02*
X9627300Y7681900D01*
X9626950Y7518750D02*
Y7681550D01*
X9626600Y7518400D02*
X9626950Y7518750D01*
X8801100Y7658100D02*
Y7664900D01*
X8808200Y7672000D02*
X9029700D01*
X8801100Y7664900D02*
X8808200Y7672000D01*
X9016750Y7659050D02*
X9029700Y7672000D01*
X8039100Y8204200D02*
X8041000Y8202300D01*
X8420100D01*
X8547700Y7442800D02*
X8548300Y7442200D01*
X8547700Y7442800D02*
Y7644800D01*
X8547100Y7645400D02*
X8547700Y7644800D01*
X9454900Y7986700D02*
X9645900D01*
X9627300Y7887100D02*
X9631900Y7891700D01*
X9645900D01*
X9627300Y7681900D02*
Y7887100D01*
D31*
X8039100Y8153400D02*
X8041000Y8151500D01*
D32*
X6002400Y6300800D02*
D03*
Y6500800D02*
D03*
X7002400Y6550800D02*
D03*
Y6350800D02*
D03*
X3039300Y8283300D02*
D03*
X3239300D02*
D03*
X3089300Y6083300D02*
D03*
X3289300D02*
D03*
D33*
X12090400Y4273300D02*
D03*
Y4823300D02*
D03*
X11099800Y4819700D02*
D03*
Y4269700D02*
D03*
X10109200Y4819700D02*
D03*
Y4269700D02*
D03*
X9118600Y4819700D02*
D03*
Y4269700D02*
D03*
X8128000Y4819700D02*
D03*
Y4269700D02*
D03*
X7137400Y4819700D02*
D03*
Y4269700D02*
D03*
X6146800Y4819700D02*
D03*
Y4269700D02*
D03*
X5156200Y4819700D02*
D03*
Y4269700D02*
D03*
X4165600Y4819700D02*
D03*
Y4269700D02*
D03*
D34*
X12090400Y3543300D02*
D03*
X11099800Y3539700D02*
D03*
X10109200D02*
D03*
X9118600D02*
D03*
X8128000D02*
D03*
X7137400D02*
D03*
X6146800D02*
D03*
X5156200D02*
D03*
X4165600D02*
D03*
D35*
X11850700Y7476900D02*
D03*
X11965000Y5610000D02*
D03*
X3290900Y3095400D02*
D03*
D36*
X10287000Y8191500D02*
D03*
X8026400Y7429500D02*
D03*
X8483600Y7137400D02*
D03*
X6946900Y7010400D02*
D03*
X6311900D02*
D03*
X7581900D02*
D03*
X8674100Y8039100D02*
D03*
X5080000Y6108700D02*
D03*
X4876800Y6007100D02*
D03*
X4495800Y8610600D02*
D03*
X10045700Y7988300D02*
D03*
X9232900Y7810500D02*
D03*
X9486900Y7848600D02*
D03*
X10185400Y7747000D02*
D03*
X10642600Y8191500D02*
D03*
X9626600Y7518400D02*
D03*
X10731500Y7975600D02*
D03*
D37*
X6807200Y6845300D02*
D03*
X5664200Y7581900D02*
D03*
X5473700D02*
D03*
X5664200Y7759700D02*
D03*
X5473700D02*
D03*
X5664200Y7937500D02*
D03*
X5473700D02*
D03*
X5664200Y8115300D02*
D03*
X5473700D02*
D03*
X5664200Y8293100D02*
D03*
X5473700D02*
D03*
X3479800Y5029200D02*
D03*
X3302000D02*
D03*
X3124200D02*
D03*
Y4673600D02*
D03*
Y4851400D02*
D03*
X3302000D02*
D03*
Y4673600D02*
D03*
X3479800D02*
D03*
Y4851400D02*
D03*
%TF.MD5,ade9e1699eabead9d7606aad864848ab*%
M02*
