G04*
G04 #@! TF.GenerationSoftware,Altium Limited,Altium Designer,18.1.9 (240)*
G04*
G04 Layer_Color=16711935*
%FSLAX25Y25*%
%MOIN*%
G70*
G01*
G75*
%ADD89O,0.04934X0.05721*%
%ADD90O,0.05623X0.08280*%
%ADD91C,0.06706*%
%ADD92R,0.06706X0.06706*%
%ADD93C,0.09068*%
%ADD94C,0.06942*%
%ADD95C,0.08800*%
%ADD96C,0.00800*%
%ADD97C,0.07493*%
%ADD98C,0.24816*%
%ADD99C,0.04000*%
D89*
X461610Y117303D02*
D03*
X444091D02*
D03*
X305333Y118581D02*
D03*
X287813D02*
D03*
D90*
X468943Y105000D02*
D03*
X436758D02*
D03*
X312665Y106278D02*
D03*
X280480D02*
D03*
D91*
X390823Y237252D02*
D03*
Y227252D02*
D03*
X380823Y237252D02*
D03*
D92*
Y227252D02*
D03*
D93*
X222287Y338000D02*
D03*
X271500D02*
D03*
X365000D02*
D03*
X394528D02*
D03*
X187350Y190000D02*
D03*
Y219528D02*
D03*
X416709Y338000D02*
D03*
X436394D02*
D03*
X343000D02*
D03*
X293787D02*
D03*
D94*
X271500Y309555D02*
D03*
X261658D02*
D03*
X251815D02*
D03*
X241972D02*
D03*
X232130D02*
D03*
X222287D02*
D03*
X271500Y299713D02*
D03*
X261658D02*
D03*
X251815D02*
D03*
X241972D02*
D03*
X232130D02*
D03*
X222287D02*
D03*
X560815Y309732D02*
D03*
X580500Y299890D02*
D03*
X570657D02*
D03*
X560815D02*
D03*
X570657Y309732D02*
D03*
X580500D02*
D03*
X365000Y309850D02*
D03*
X374843D02*
D03*
X384685D02*
D03*
X394528D02*
D03*
X215500Y190000D02*
D03*
Y199843D02*
D03*
Y209685D02*
D03*
Y219528D02*
D03*
X416709Y309850D02*
D03*
X426551D02*
D03*
X436394D02*
D03*
X293787Y299713D02*
D03*
X303630D02*
D03*
X313472D02*
D03*
X323315D02*
D03*
X333157D02*
D03*
X343000D02*
D03*
X293787Y309555D02*
D03*
X303630D02*
D03*
X313472D02*
D03*
X323315D02*
D03*
X333157D02*
D03*
X343000D02*
D03*
X487850Y299890D02*
D03*
Y309732D02*
D03*
X458323D02*
D03*
X478008Y299890D02*
D03*
X468165D02*
D03*
X458323D02*
D03*
X468165Y309732D02*
D03*
X478008D02*
D03*
D95*
X539000Y155537D02*
D03*
X562500Y155612D02*
D03*
X586000Y155537D02*
D03*
X609500Y155596D02*
D03*
D96*
X580500Y338000D02*
D03*
X560815D02*
D03*
D97*
X487850D02*
D03*
X458323D02*
D03*
D98*
X603000Y335000D02*
D03*
X192000D02*
D03*
X603037Y117500D02*
D03*
X192000D02*
D03*
D99*
X301500Y106278D02*
D03*
X292000D02*
D03*
X457500Y105000D02*
D03*
X448323D02*
D03*
M02*
