G04*
G04 #@! TF.GenerationSoftware,Altium Limited,Altium Designer,18.1.9 (240)*
G04*
G04 Layer_Physical_Order=1*
G04 Layer_Color=255*
%FSLAX25Y25*%
%MOIN*%
G70*
G01*
G75*
%ADD13C,0.01000*%
%ADD18C,0.03000*%
%ADD21R,0.03543X0.02756*%
%ADD22R,0.04921X0.04331*%
%ADD23O,0.05512X0.01772*%
%ADD24R,0.02756X0.03543*%
%ADD25R,0.06200X0.11100*%
%ADD26R,0.03740X0.06693*%
%ADD27R,0.09055X0.14173*%
%ADD28R,0.10236X0.04724*%
%ADD29R,0.06693X0.03740*%
%ADD30R,0.07874X0.07087*%
G04:AMPARAMS|DCode=31|XSize=94.49mil|YSize=122.05mil|CornerRadius=1.89mil|HoleSize=0mil|Usage=FLASHONLY|Rotation=270.000|XOffset=0mil|YOffset=0mil|HoleType=Round|Shape=RoundedRectangle|*
%AMROUNDEDRECTD31*
21,1,0.09449,0.11827,0,0,270.0*
21,1,0.09071,0.12205,0,0,270.0*
1,1,0.00378,-0.05913,-0.04535*
1,1,0.00378,-0.05913,0.04535*
1,1,0.00378,0.05913,0.04535*
1,1,0.00378,0.05913,-0.04535*
%
%ADD31ROUNDEDRECTD31*%
G04:AMPARAMS|DCode=32|XSize=23.62mil|YSize=57.09mil|CornerRadius=2.01mil|HoleSize=0mil|Usage=FLASHONLY|Rotation=0.000|XOffset=0mil|YOffset=0mil|HoleType=Round|Shape=RoundedRectangle|*
%AMROUNDEDRECTD32*
21,1,0.02362,0.05307,0,0,0.0*
21,1,0.01961,0.05709,0,0,0.0*
1,1,0.00402,0.00980,-0.02653*
1,1,0.00402,-0.00980,-0.02653*
1,1,0.00402,-0.00980,0.02653*
1,1,0.00402,0.00980,0.02653*
%
%ADD32ROUNDEDRECTD32*%
%ADD33R,0.07284X0.13386*%
%ADD34O,0.08661X0.02756*%
%ADD35R,0.06299X0.06299*%
%ADD36R,0.06299X0.04291*%
%ADD37R,0.06600X0.01400*%
%ADD38R,0.10236X0.03740*%
%ADD39R,0.19134X0.13228*%
%ADD40R,0.05512X0.05472*%
%ADD41R,0.07087X0.08268*%
%ADD42R,0.03543X0.03150*%
%ADD43R,0.02559X0.02756*%
%ADD44R,0.34449X0.20472*%
%ADD79R,0.03347X0.01102*%
%ADD80R,0.12756X0.21571*%
%ADD81R,0.02559X0.02480*%
%ADD82C,0.01700*%
%ADD83C,0.08268*%
%ADD84C,0.06142*%
%ADD85C,0.02000*%
%ADD86C,0.06693*%
%ADD87C,0.08000*%
%ADD88C,0.37402*%
%ADD89C,0.11024*%
%ADD90C,0.24016*%
%ADD91C,0.03000*%
G36*
X256000Y384000D02*
X414000Y384000D01*
X414000Y384000D01*
X414497Y384000D01*
X415416Y383619D01*
X416119Y382916D01*
X416500Y381997D01*
Y381500D01*
X416500Y379500D01*
X416500D01*
X416500Y379102D01*
X416195Y378367D01*
X415633Y377804D01*
X414898Y377500D01*
X414500Y377500D01*
X320000Y377500D01*
X320000Y377500D01*
X319117Y377471D01*
X317366Y377240D01*
X315661Y376783D01*
X314029Y376108D01*
X312500Y375225D01*
X311099Y374150D01*
X309850Y372901D01*
X308775Y371500D01*
X307892Y369971D01*
X307216Y368339D01*
X306759Y366634D01*
X306529Y364883D01*
X306500Y364000D01*
X306500Y361500D01*
X293917D01*
Y366278D01*
X251000D01*
X251000Y379000D01*
Y379000D01*
X251000Y379492D01*
X251192Y380458D01*
X251569Y381368D01*
X252116Y382187D01*
X252812Y382884D01*
X253631Y383431D01*
X254541Y383808D01*
X255507Y384000D01*
X256000Y384000D01*
D02*
G37*
G36*
X426078Y364828D02*
X426078Y364279D01*
X425864Y363201D01*
X425443Y362186D01*
X424833Y361272D01*
X424056Y360495D01*
X423142Y359885D01*
X422127Y359464D01*
X421049Y359250D01*
X420500Y359250D01*
X420500Y359250D01*
X419985Y359225D01*
X418976Y359024D01*
X418025Y358630D01*
X417169Y358058D01*
X416442Y357331D01*
X415870Y356475D01*
X415476Y355524D01*
X415275Y354515D01*
X415250Y354000D01*
Y354000D01*
X415250Y340750D01*
X408876Y340750D01*
X408445Y340750D01*
X407599Y340918D01*
X406803Y341248D01*
X406086Y341727D01*
X405477Y342336D01*
X404998Y343053D01*
X404668Y343849D01*
X404500Y344695D01*
X404500Y345126D01*
X404500Y345126D01*
X404500Y347750D01*
X404471Y348349D01*
X404237Y349523D01*
X403779Y350630D01*
X403113Y351626D01*
X402266Y352473D01*
X401270Y353138D01*
X400164Y353597D01*
X398989Y353830D01*
X398390Y353860D01*
X398390Y353860D01*
X388840Y353860D01*
X388750Y368000D01*
X399750D01*
X400167Y368021D01*
X400984Y368183D01*
X401753Y368502D01*
X402446Y368965D01*
X403035Y369554D01*
X403498Y370247D01*
X403817Y371016D01*
X403979Y371833D01*
X404000Y372250D01*
X404000Y372250D01*
X404000Y372595D01*
X404135Y373271D01*
X404398Y373908D01*
X404781Y374481D01*
X405269Y374969D01*
X405842Y375352D01*
X406479Y375616D01*
X407155Y375750D01*
X407500Y375750D01*
X407500Y375750D01*
X419500Y375750D01*
X419988Y375798D01*
X420889Y376171D01*
X421579Y376861D01*
X421952Y377762D01*
X422000Y378250D01*
X422000Y378250D01*
X422000Y384000D01*
X426078D01*
X426078Y364828D01*
D02*
G37*
G36*
X156416Y372119D02*
X157119Y371416D01*
X157500Y370497D01*
X157500Y370000D01*
X157500Y370000D01*
Y352266D01*
X157518Y351900D01*
X157661Y351182D01*
X157941Y350506D01*
X158348Y349897D01*
X158865Y349379D01*
X159474Y348973D01*
X160151Y348692D01*
X160869Y348550D01*
X161235Y348532D01*
X161235D01*
X223468Y348532D01*
X224650Y348532D01*
X226994Y348223D01*
X229277Y347611D01*
X231461Y346707D01*
X233508Y345525D01*
X235383Y344086D01*
X237054Y342414D01*
X238493Y340539D01*
X239675Y338492D01*
X240580Y336309D01*
X241192Y334025D01*
X241500Y331682D01*
X241500Y330500D01*
X241500Y330500D01*
X241500Y243331D01*
Y242806D01*
X241295Y241776D01*
X240893Y240806D01*
X240310Y239933D01*
X239567Y239190D01*
X238694Y238607D01*
X237724Y238205D01*
X236694Y238000D01*
X236169D01*
Y238000D01*
X216652Y238000D01*
X198184Y238000D01*
X197477Y238000D01*
X196089Y238276D01*
X194781Y238818D01*
X193605Y239604D01*
X192604Y240604D01*
X191818Y241781D01*
X191276Y243089D01*
X191000Y244477D01*
X191000Y245184D01*
X191000Y245184D01*
X191000Y296500D01*
X190967Y297180D01*
X190701Y298515D01*
X190181Y299772D01*
X189425Y300903D01*
X188462Y301866D01*
X187331Y302621D01*
X186074Y303142D01*
X184739Y303408D01*
X184059Y303441D01*
X184059Y303441D01*
X155234Y303441D01*
X154620Y303441D01*
X153416Y303680D01*
X152281Y304150D01*
X151260Y304833D01*
X150392Y305701D01*
X149709Y306722D01*
X149240Y307857D01*
X149000Y309061D01*
X149000Y309675D01*
Y309675D01*
X149000Y340303D01*
X148968Y340959D01*
X148712Y342247D01*
X148209Y343460D01*
X147480Y344551D01*
X146551Y345480D01*
X145460Y346209D01*
X144247Y346711D01*
X142959Y346968D01*
X142303Y347000D01*
X142303Y347000D01*
X136000Y347000D01*
X135705Y347000D01*
X135125Y347115D01*
X134579Y347341D01*
X134088Y347670D01*
X133670Y348088D01*
X133341Y348579D01*
X133115Y349125D01*
X133000Y349704D01*
X133000Y350000D01*
Y350000D01*
Y359000D01*
Y359497D01*
X133381Y360416D01*
X134084Y361119D01*
X135003Y361500D01*
X135500D01*
X135500Y361500D01*
X144500Y361500D01*
X144988Y361548D01*
X145889Y361921D01*
X146579Y362611D01*
X146952Y363512D01*
X147000Y364000D01*
X147000Y364000D01*
X147000Y369500D01*
Y369795D01*
X147115Y370375D01*
X147341Y370921D01*
X147670Y371412D01*
X148088Y371830D01*
X148579Y372159D01*
X149125Y372385D01*
X149704Y372500D01*
X150000D01*
X150000Y372500D01*
X155000Y372500D01*
X155497Y372500D01*
X156416Y372119D01*
D02*
G37*
G36*
X361319Y354000D02*
X316274Y354000D01*
X316274Y354000D01*
X315983Y353971D01*
X315444Y353748D01*
X315032Y353336D01*
X314809Y352798D01*
X314780Y352506D01*
X314780D01*
Y352405D01*
X314703Y352219D01*
X314561Y352077D01*
X314375Y352000D01*
X310024D01*
X310024Y363489D01*
X310024Y363489D01*
X310024Y363933D01*
X310198Y364805D01*
X310538Y365626D01*
X311032Y366364D01*
X311660Y366993D01*
X312399Y367487D01*
X313220Y367827D01*
X314092Y368000D01*
X314536Y368000D01*
X361319Y368000D01*
Y354000D01*
D02*
G37*
G36*
X161000Y369500D02*
X244278Y369500D01*
X244278Y369500D01*
X244595Y369500D01*
X245217Y369376D01*
X245804Y369133D01*
X246332Y368781D01*
X246781Y368332D01*
X247133Y367804D01*
X247376Y367218D01*
X247500Y366595D01*
X247500Y366278D01*
X247500Y366278D01*
X247516Y365956D01*
X247641Y365326D01*
X247887Y364732D01*
X248244Y364198D01*
X248698Y363744D01*
X249233Y363387D01*
X249826Y363141D01*
X250456Y363016D01*
X250778Y363000D01*
X283000Y363000D01*
D01*
X289811Y363000D01*
X289948D01*
X290201Y362895D01*
X290395Y362701D01*
X290500Y362448D01*
X290500Y362311D01*
X290500Y362311D01*
Y352000D01*
X288528D01*
X288055Y352000D01*
X287180Y352362D01*
X286511Y353032D01*
X286149Y353906D01*
Y354380D01*
X286149Y354380D01*
X286117Y354696D01*
X285875Y355280D01*
X285428Y355727D01*
X284844Y355969D01*
X284528Y356000D01*
X284528Y356000D01*
X283000D01*
Y356000D01*
X276000Y356000D01*
X276000Y356000D01*
X274774Y355960D01*
X272343Y355640D01*
X269975Y355005D01*
X267710Y354067D01*
X265586Y352841D01*
X263641Y351348D01*
X261907Y349615D01*
X260415Y347670D01*
X259189Y345546D01*
X258251Y343281D01*
X257616Y340913D01*
X257296Y338482D01*
X257256Y337256D01*
X257256Y305516D01*
Y305516D01*
X257295Y304730D01*
X257601Y303189D01*
X258202Y301737D01*
X259075Y300431D01*
X260187Y299320D01*
X261493Y298446D01*
X262945Y297845D01*
X264486Y297539D01*
X265272Y297500D01*
X267906Y297500D01*
X267906Y297500D01*
X268124Y297500D01*
X268526Y297334D01*
X268834Y297026D01*
X269000Y296623D01*
X269000Y296406D01*
X269000Y292000D01*
X269000Y292000D01*
X269000Y291801D01*
X268848Y291434D01*
X268566Y291152D01*
X268199Y291000D01*
X268000Y291000D01*
X268000Y291000D01*
X267902Y290990D01*
X267722Y290916D01*
X267584Y290778D01*
X267510Y290598D01*
X267500Y290500D01*
Y285500D01*
Y285500D01*
X267529Y285207D01*
X267753Y284667D01*
X268167Y284253D01*
X268707Y284029D01*
X269000Y284000D01*
X272350D01*
X272672Y284032D01*
X273267Y284278D01*
X273722Y284733D01*
X273968Y285328D01*
X274000Y285650D01*
X274000Y288256D01*
X274000Y288506D01*
X274191Y288967D01*
X274544Y289321D01*
X275006Y289512D01*
X275256Y289512D01*
X275256Y289512D01*
X275380Y289524D01*
X275611Y289619D01*
X275787Y289795D01*
X275882Y290025D01*
X275894Y290150D01*
X275894Y296574D01*
X275894Y296828D01*
X276088Y297296D01*
X276446Y297654D01*
X276914Y297848D01*
X277167Y297848D01*
X277167Y297848D01*
X277432Y297848D01*
X277922Y297645D01*
X278297Y297270D01*
X278500Y296780D01*
X278500Y296515D01*
X278500Y291500D01*
Y291500D01*
X278529Y291207D01*
X278753Y290667D01*
X279167Y290253D01*
X279707Y290029D01*
X280000Y290000D01*
X281500Y290000D01*
X281500Y290000D01*
X281898Y290000D01*
X282633Y289696D01*
X283196Y289133D01*
X283500Y288398D01*
X283500Y288000D01*
X283500Y282544D01*
Y282544D01*
X283530Y282238D01*
X283764Y281673D01*
X284197Y281241D01*
X284762Y281007D01*
X285068Y280976D01*
X324476D01*
X325018Y281003D01*
X326080Y281214D01*
X327080Y281628D01*
X327981Y282230D01*
X328746Y282996D01*
X329348Y283896D01*
X329762Y284896D01*
X329973Y285959D01*
X330000Y286500D01*
X330000Y294500D01*
X333500D01*
X333500Y288575D01*
Y288575D01*
X333536Y288206D01*
X333819Y287525D01*
X334340Y287003D01*
X335021Y286721D01*
X335390Y286685D01*
X338185D01*
X338539Y286720D01*
X339193Y286991D01*
X339694Y287492D01*
X339965Y288146D01*
X340000Y288500D01*
X340000Y294500D01*
X343831D01*
X343831Y288769D01*
X343831Y288769D01*
X343865Y288424D01*
X344129Y287786D01*
X344617Y287298D01*
X345254Y287034D01*
X345599Y287000D01*
X358500Y287000D01*
X358500Y287000D01*
X358699Y287000D01*
X359066Y286848D01*
X359348Y286566D01*
X359500Y286199D01*
X359500Y286000D01*
X359500Y277500D01*
X359500Y277500D01*
Y276746D01*
X359303Y275252D01*
X358913Y273795D01*
X358336Y272403D01*
X357582Y271097D01*
X356665Y269901D01*
X355599Y268835D01*
X354403Y267918D01*
X353097Y267164D01*
X351704Y266587D01*
X350248Y266197D01*
X348754Y266000D01*
X255500D01*
X254746Y266000D01*
X253252Y266197D01*
X251795Y266587D01*
X250403Y267164D01*
X249097Y267918D01*
X247901Y268835D01*
X246835Y269901D01*
X245918Y271097D01*
X245164Y272403D01*
X244587Y273796D01*
X244197Y275252D01*
X244000Y276746D01*
X244000Y277500D01*
X244000Y331017D01*
X244000Y331016D01*
X243959Y332258D01*
X243635Y334720D01*
X242993Y337118D01*
X242043Y339413D01*
X240801Y341563D01*
X239290Y343533D01*
X237534Y345289D01*
X235564Y346801D01*
X233414Y348042D01*
X231119Y348992D01*
X228721Y349635D01*
X226259Y349959D01*
X225018Y350000D01*
X163500Y350000D01*
X163500Y350000D01*
X163155Y350000D01*
X162479Y350134D01*
X161842Y350398D01*
X161269Y350781D01*
X160781Y351269D01*
X160398Y351842D01*
X160134Y352479D01*
X160000Y353155D01*
Y353500D01*
X160000Y368500D01*
Y368500D01*
X160000Y368699D01*
X160152Y369066D01*
X160433Y369348D01*
X160801Y369500D01*
X161000Y369500D01*
D02*
G37*
G36*
X138725Y340714D02*
X140080Y340152D01*
X141300Y339337D01*
X142337Y338300D01*
X143152Y337080D01*
X143714Y335725D01*
X144000Y334286D01*
X144000Y333553D01*
X144000Y333553D01*
X144000Y303800D01*
X144033Y303133D01*
X144293Y301826D01*
X144803Y300594D01*
X145543Y299486D01*
X146486Y298544D01*
X147594Y297803D01*
X148826Y297293D01*
X150133Y297033D01*
X150800Y297000D01*
X150800Y297000D01*
X182097Y297000D01*
X182531Y297000D01*
X183381Y296831D01*
X184183Y296499D01*
X184904Y296017D01*
X185517Y295404D01*
X185999Y294683D01*
X186331Y293881D01*
X186500Y293031D01*
X186500Y292597D01*
X186500Y292597D01*
X186500Y274357D01*
X186500Y273999D01*
X186360Y273296D01*
X186086Y272635D01*
X185688Y272039D01*
X185182Y271532D01*
X184586Y271134D01*
X183924Y270860D01*
X183222Y270721D01*
X182863Y270721D01*
X182863D01*
X107780Y270721D01*
X107457D01*
X106823Y270847D01*
X106226Y271094D01*
X105689Y271453D01*
X105232Y271909D01*
X104873Y272447D01*
X104626Y273043D01*
X104500Y273677D01*
Y274000D01*
X104500D01*
Y334000D01*
Y334689D01*
X104769Y336042D01*
X105297Y337316D01*
X106063Y338462D01*
X107038Y339437D01*
X108184Y340203D01*
X109458Y340731D01*
X110810Y341000D01*
X111500D01*
X111500Y341000D01*
X124000Y341000D01*
X136553Y341000D01*
X137286Y341000D01*
X138725Y340714D01*
D02*
G37*
G36*
X305165Y340659D02*
X304181D01*
Y341683D01*
X305165D01*
Y340659D01*
D02*
G37*
G36*
X296307D02*
X295323D01*
Y341683D01*
X296307D01*
Y340659D01*
D02*
G37*
G36*
X399350Y312228D02*
X393500Y312228D01*
X393500Y312228D01*
X393465Y312894D01*
X393189Y314196D01*
X392647Y315412D01*
X391865Y316490D01*
X390876Y317381D01*
X389724Y318047D01*
X388458Y318460D01*
X387134Y318600D01*
X386468Y318566D01*
X386077Y318566D01*
X385311Y318718D01*
X384589Y319017D01*
X383939Y319451D01*
X383386Y320004D01*
X382951Y320654D01*
X382652Y321376D01*
X382500Y322143D01*
X382500Y322534D01*
Y331810D01*
X382500Y331810D01*
X382500Y332272D01*
X382680Y333178D01*
X383034Y334031D01*
X383547Y334800D01*
X384200Y335453D01*
X384968Y335966D01*
X385822Y336320D01*
X386728Y336500D01*
X387190Y336500D01*
X399500Y336500D01*
X399350Y312228D01*
D02*
G37*
G36*
X320968Y334032D02*
X321340Y334032D01*
X322070Y333887D01*
X322758Y333602D01*
X323377Y333188D01*
X323903Y332662D01*
X324317Y332043D01*
X324602Y331355D01*
X324747Y330625D01*
X324747Y330253D01*
X324747Y323004D01*
X324747Y323004D01*
Y322638D01*
X324604Y321920D01*
X324324Y321244D01*
X323918Y320635D01*
X323400Y320117D01*
X322791Y319711D01*
X322115Y319431D01*
X321397Y319288D01*
X321031D01*
X321031Y319288D01*
X320734Y319273D01*
X320151Y319157D01*
X319602Y318930D01*
X319108Y318600D01*
X318688Y318180D01*
X318358Y317686D01*
X318130Y317137D01*
X318015Y316554D01*
X318000Y316257D01*
X318000Y289644D01*
X318000Y289644D01*
Y289219D01*
X317834Y288385D01*
X317509Y287599D01*
X317036Y286893D01*
X316435Y286291D01*
X315728Y285819D01*
X314943Y285494D01*
X314109Y285328D01*
X310671D01*
X308849Y285367D01*
X308849D01*
X308567Y285373D01*
X308014Y285493D01*
X307495Y285718D01*
X307029Y286039D01*
X306633Y286443D01*
X306323Y286916D01*
X306109Y287440D01*
X306000Y287995D01*
X306000Y288278D01*
X306000Y321158D01*
Y321487D01*
X306128Y322133D01*
X306380Y322741D01*
X306746Y323288D01*
X307212Y323754D01*
X307759Y324120D01*
X308367Y324372D01*
X309013Y324500D01*
X309342D01*
X309342Y324500D01*
X309775Y324521D01*
X310624Y324690D01*
X311424Y325021D01*
X312144Y325501D01*
X312757Y326113D01*
X313238Y326832D01*
X313571Y327631D01*
X313741Y328480D01*
X313763Y328913D01*
X313764Y329527D01*
X313764Y329527D01*
X313765Y329971D01*
X313939Y330841D01*
X314280Y331662D01*
X314774Y332399D01*
X315403Y333027D01*
X316142Y333520D01*
X316962Y333859D01*
X317833Y334032D01*
X318277Y334032D01*
X320968Y334032D01*
X320968Y334032D01*
D02*
G37*
G36*
X292000Y310500D02*
X288475D01*
X288475Y310500D01*
X288460Y310794D01*
X288346Y311371D01*
X288121Y311914D01*
X287794Y312403D01*
X287378Y312819D01*
X286889Y313146D01*
X286346Y313371D01*
X285769Y313486D01*
X285475Y313500D01*
X282414Y313500D01*
X282394Y319000D01*
X285197Y319000D01*
D01*
X285197D01*
X285197D01*
X285518Y319016D01*
X286149Y319141D01*
X286742Y319387D01*
X287277Y319744D01*
X287731Y320198D01*
X288088Y320733D01*
X288334Y321326D01*
X288459Y321956D01*
X288475Y322278D01*
X292000Y322278D01*
Y310500D01*
D02*
G37*
G36*
X375500Y318000D02*
X376189Y318000D01*
X377542Y317731D01*
X378816Y317203D01*
X379962Y316437D01*
X380937Y315462D01*
X381703Y314316D01*
X382231Y313042D01*
X382500Y311689D01*
X382500Y311000D01*
X382500Y311000D01*
X382500Y302733D01*
X382520Y302318D01*
X382682Y301504D01*
X383000Y300738D01*
X383461Y300048D01*
X384048Y299461D01*
X384738Y299000D01*
X385504Y298682D01*
X386318Y298520D01*
X386733Y298500D01*
X386733D01*
X398500Y298500D01*
X398798Y298500D01*
X399350Y298272D01*
X399772Y297850D01*
X400000Y297298D01*
X400000Y297000D01*
X400000Y297000D01*
X400000Y264500D01*
Y264102D01*
X399695Y263367D01*
X399133Y262805D01*
X398398Y262500D01*
X398000Y262500D01*
X393500D01*
X392909Y262500D01*
X391750Y262731D01*
X390658Y263183D01*
X389675Y263840D01*
X388840Y264675D01*
X388183Y265658D01*
X387731Y266750D01*
X387500Y267909D01*
X387500Y268500D01*
Y268500D01*
X387500Y278730D01*
X387475Y279237D01*
X387278Y280230D01*
X386890Y281165D01*
X386327Y282007D01*
X385611Y282723D01*
X384769Y283286D01*
X383834Y283674D01*
X382840Y283871D01*
X382334Y283896D01*
X382334Y283896D01*
X374251Y283896D01*
X373931Y283896D01*
X373303Y284021D01*
X372711Y284266D01*
X372179Y284622D01*
X371726Y285075D01*
X371370Y285607D01*
X371125Y286199D01*
X371000Y286827D01*
Y287147D01*
Y287147D01*
X371000Y307000D01*
X370971Y307293D01*
X370747Y307833D01*
X370333Y308247D01*
X369793Y308471D01*
X369500Y308500D01*
X369500Y308500D01*
X369049D01*
X368216Y308845D01*
X367578Y309483D01*
X367233Y310316D01*
Y310767D01*
Y310767D01*
X367233Y315733D01*
Y316184D01*
X367579Y317017D01*
X368216Y317655D01*
X369049Y318000D01*
X369500Y318000D01*
X369500Y318000D01*
X375500Y318000D01*
D02*
G37*
G36*
X353000Y309899D02*
X347000D01*
Y315000D01*
X349500Y315000D01*
X349890Y315038D01*
X350611Y315337D01*
X351163Y315889D01*
X351462Y316610D01*
X351500Y317000D01*
X351500Y317000D01*
X353000Y317000D01*
Y309899D01*
D02*
G37*
G36*
X438500Y330500D02*
X438545Y329593D01*
X438898Y327815D01*
X439592Y326140D01*
X440600Y324632D01*
X441882Y323350D01*
X443390Y322342D01*
X445065Y321648D01*
X446843Y321294D01*
X447750Y321250D01*
X447750Y321250D01*
X470664Y321250D01*
X471052Y321250D01*
X471813Y321099D01*
X472529Y320802D01*
X473174Y320371D01*
X473722Y319823D01*
X474153Y319178D01*
X474450Y318461D01*
X474601Y317701D01*
X474601Y317313D01*
X474601Y317313D01*
X474601Y316913D01*
X474445Y316128D01*
X474139Y315388D01*
X473694Y314723D01*
X473128Y314157D01*
X472463Y313712D01*
X471723Y313406D01*
X470938Y313250D01*
X470538Y313250D01*
X447750Y313250D01*
X446868Y313207D01*
X445137Y312862D01*
X443507Y312187D01*
X442040Y311207D01*
X440793Y309960D01*
X439813Y308493D01*
X439138Y306863D01*
X438793Y305132D01*
X438750Y304250D01*
X438750Y301497D01*
X432250D01*
Y336750D01*
X438500D01*
Y330500D01*
D02*
G37*
G36*
X439022Y297250D02*
X439062Y296422D01*
X439386Y294799D01*
X440019Y293269D01*
X440939Y291893D01*
X442109Y290722D01*
X443486Y289803D01*
X445015Y289169D01*
X446639Y288846D01*
X447466Y288805D01*
X460444D01*
X460444Y288805D01*
X460745Y288805D01*
X461336Y288688D01*
X461892Y288458D01*
X462392Y288123D01*
X462818Y287698D01*
X463152Y287197D01*
X463383Y286641D01*
X463500Y286051D01*
Y285750D01*
X463500Y285092D01*
X463500Y285092D01*
X463500Y284787D01*
X463381Y284190D01*
X463148Y283627D01*
X462810Y283121D01*
X462379Y282690D01*
X461873Y282352D01*
X461310Y282119D01*
X460713Y282000D01*
X460408Y282000D01*
X447520Y282000D01*
X447520Y282000D01*
X446677Y281959D01*
X445025Y281630D01*
X443469Y280985D01*
X442069Y280049D01*
X440878Y278858D01*
X439942Y277458D01*
X439297Y275902D01*
X438969Y274250D01*
X438927Y273407D01*
X438927Y262731D01*
X439022Y262615D01*
X424896Y262615D01*
X424896D01*
X424419Y262615D01*
X423539Y262980D01*
X422865Y263654D01*
X422500Y264534D01*
X422500Y265011D01*
X422500Y292704D01*
X422500Y293142D01*
X422671Y294001D01*
X423006Y294810D01*
X423492Y295538D01*
X424111Y296157D01*
X424839Y296643D01*
X425649Y296978D01*
X426508Y297149D01*
X426945Y297149D01*
X439022Y297250D01*
Y297250D01*
D02*
G37*
G36*
X470883Y376171D02*
X471824Y376171D01*
X473691Y375925D01*
X475511Y375438D01*
X477251Y374717D01*
X478882Y373776D01*
X480376Y372629D01*
X481708Y371297D01*
X482854Y369803D01*
X483796Y368172D01*
X484517Y366432D01*
X485004Y364613D01*
X485250Y362745D01*
Y361804D01*
X485250D01*
X485250Y340500D01*
X485250Y297284D01*
X485250Y296665D01*
X485008Y295451D01*
X484535Y294307D01*
X483847Y293278D01*
X482972Y292403D01*
X481943Y291715D01*
X480799Y291242D01*
X479585Y291000D01*
X478966Y291000D01*
X478966Y291000D01*
X468750Y291000D01*
X468331Y291000D01*
X467510Y291163D01*
X466737Y291484D01*
X466041Y291949D01*
X465449Y292541D01*
X464984Y293237D01*
X464663Y294010D01*
X464500Y294831D01*
Y295250D01*
X464500Y295250D01*
X464500Y304446D01*
Y305190D01*
X464790Y306649D01*
X465360Y308024D01*
X466186Y309261D01*
X467239Y310314D01*
X468476Y311140D01*
X469850Y311710D01*
X471310Y312000D01*
X472054D01*
X472054Y312000D01*
X472465Y312020D01*
X473272Y312181D01*
X474032Y312495D01*
X474716Y312952D01*
X475297Y313534D01*
X475754Y314218D01*
X476069Y314978D01*
X476230Y315785D01*
X476250Y316196D01*
X476250Y316196D01*
Y324500D01*
X476213Y325262D01*
X475915Y326756D01*
X475332Y328164D01*
X474486Y329430D01*
X473409Y330507D01*
X472142Y331354D01*
X470734Y331937D01*
X469240Y332234D01*
X468478Y332272D01*
X468478Y332272D01*
X457228Y332272D01*
X456295Y332272D01*
X454464Y332636D01*
X452739Y333350D01*
X451186Y334388D01*
X449866Y335708D01*
X448829Y337260D01*
X448114Y338985D01*
X447750Y340816D01*
X447750Y341750D01*
Y341750D01*
Y376171D01*
X470883Y376171D01*
D02*
G37*
G36*
X280882Y306516D02*
X280882Y306516D01*
X280921Y306122D01*
X281222Y305396D01*
X281778Y304840D01*
X282505Y304539D01*
X282898Y304500D01*
X296382Y304500D01*
X296382Y304500D01*
X296738Y304500D01*
X297437Y304361D01*
X298096Y304088D01*
X298688Y303692D01*
X299192Y303188D01*
X299588Y302596D01*
X299861Y301938D01*
X300000Y301239D01*
Y300882D01*
X300000Y286655D01*
X299999Y286654D01*
X299999Y286234D01*
X299836Y285411D01*
X299514Y284635D01*
X299048Y283937D01*
X298454Y283343D01*
X297756Y282876D01*
X296980Y282555D01*
X296156Y282391D01*
X295736D01*
X291104Y282391D01*
X291104D01*
X290686Y282391D01*
X289912Y282712D01*
X289320Y283304D01*
X289000Y284077D01*
X289000Y284496D01*
X289000Y287644D01*
X289000D01*
X288985Y287942D01*
X288869Y288528D01*
X288641Y289079D01*
X288309Y289575D01*
X287887Y289997D01*
X287391Y290328D01*
X286840Y290557D01*
X286255Y290673D01*
X285956Y290688D01*
X283613Y290688D01*
X283613D01*
X283344Y290688D01*
X282817Y290793D01*
X282320Y290999D01*
X281872Y291297D01*
X281492Y291678D01*
X281193Y292125D01*
X280987Y292622D01*
X280882Y293150D01*
X280882Y293419D01*
Y298960D01*
X280882Y298960D01*
X280845Y299335D01*
X280558Y300028D01*
X280028Y300558D01*
X279335Y300845D01*
X278960Y300882D01*
X278960Y307000D01*
X280882D01*
X280882Y306516D01*
D02*
G37*
G36*
X345500Y304352D02*
X345546Y303881D01*
X345907Y303011D01*
X346573Y302344D01*
X347443Y301984D01*
X347914Y301938D01*
X362562D01*
X362562Y301937D01*
X362944Y301938D01*
X363693Y301789D01*
X364398Y301497D01*
X365032Y301073D01*
X365572Y300533D01*
X365996Y299898D01*
X366288Y299193D01*
X366437Y298445D01*
X366437Y298063D01*
X366437Y284563D01*
Y284563D01*
X366449Y284441D01*
X366543Y284215D01*
X366715Y284042D01*
X366941Y283949D01*
X367063Y283937D01*
X367063Y283937D01*
X367174Y283937D01*
X367380Y283852D01*
X367537Y283695D01*
X367622Y283489D01*
X367622Y283378D01*
X367622Y275122D01*
X367622Y275122D01*
Y274858D01*
X367420Y274371D01*
X367047Y273997D01*
X366559Y273796D01*
X366296D01*
X363681Y273796D01*
X363347D01*
X362729Y274051D01*
X362256Y274524D01*
X362000Y275142D01*
Y275476D01*
X362000Y285000D01*
X362000Y285000D01*
X361985Y285294D01*
X361871Y285871D01*
X361646Y286414D01*
X361319Y286903D01*
X360903Y287319D01*
X360414Y287646D01*
X359871Y287871D01*
X359294Y287985D01*
X359000Y288000D01*
X345756Y288000D01*
X345756Y293744D01*
X345756D01*
X345741Y294046D01*
X345623Y294639D01*
X345392Y295198D01*
X345056Y295700D01*
X344629Y296128D01*
X344126Y296464D01*
X343567Y296695D01*
X342975Y296813D01*
X342672Y296828D01*
X342500Y296828D01*
Y305500D01*
X345500D01*
Y304352D01*
D02*
G37*
G36*
X183000Y251500D02*
X183394D01*
X184167Y251346D01*
X184895Y251045D01*
X185550Y250607D01*
X186107Y250050D01*
X186545Y249395D01*
X186846Y248667D01*
X186986Y247963D01*
X187000Y247503D01*
Y247500D01*
X187000Y247500D01*
X187000Y247500D01*
X187000Y225500D01*
X187000Y224287D01*
X186683Y221883D01*
X186056Y219541D01*
X185128Y217300D01*
X183915Y215200D01*
X182439Y213276D01*
X180724Y211561D01*
X178800Y210085D01*
X176700Y208872D01*
X174459Y207944D01*
X172117Y207316D01*
X169712Y207000D01*
X168994Y207000D01*
X168500Y207000D01*
X168500Y207000D01*
X168500Y207000D01*
X162262Y207000D01*
X161198Y206965D01*
X159090Y206688D01*
X157035Y206137D01*
X155069Y205323D01*
X153227Y204259D01*
X151540Y202964D01*
X150036Y201460D01*
X148740Y199773D01*
X147677Y197930D01*
X146863Y195965D01*
X146312Y193910D01*
X146035Y191801D01*
X146000Y190738D01*
X146000D01*
X146000Y190738D01*
X146000Y180791D01*
X146045Y179880D01*
X146400Y178094D01*
X147097Y176411D01*
X148109Y174897D01*
X149397Y173609D01*
X150911Y172597D01*
X152594Y171900D01*
X154380Y171545D01*
X155291Y171500D01*
X155291Y171500D01*
X465000Y171500D01*
X465492D01*
X466458Y171308D01*
X467368Y170931D01*
X468187Y170384D01*
X468884Y169687D01*
X469431Y168868D01*
X469808Y167958D01*
X470000Y166992D01*
Y166500D01*
X470000Y166500D01*
X470000Y166500D01*
Y103000D01*
X114681D01*
X113056Y103214D01*
X111473Y103638D01*
X109959Y104265D01*
X108540Y105084D01*
X107240Y106082D01*
X106082Y107240D01*
X105084Y108540D01*
X104265Y109959D01*
X103638Y111473D01*
X103214Y113056D01*
X103000Y114681D01*
Y115500D01*
X103000D01*
X103000Y247500D01*
X103000Y247894D01*
X103154Y248667D01*
X103455Y249395D01*
X103893Y250050D01*
X104450Y250607D01*
X105105Y251045D01*
X105833Y251346D01*
X106606Y251500D01*
X107000Y251500D01*
X107000Y251500D01*
X183000Y251500D01*
D02*
G37*
G36*
X208622Y236240D02*
X208867Y235994D01*
X209000Y235673D01*
X209000Y235500D01*
X209000Y235500D01*
Y230500D01*
X209038Y230110D01*
X209337Y229389D01*
X209889Y228837D01*
X210610Y228538D01*
X211000Y228500D01*
X211000Y228500D01*
X214500Y228500D01*
X214890Y228538D01*
X215611Y228837D01*
X216163Y229389D01*
X216461Y230110D01*
X216500Y230500D01*
X216500Y230500D01*
Y235000D01*
Y235199D01*
X216652Y235566D01*
X216933Y235848D01*
X217301Y236000D01*
X217499D01*
X217500Y236000D01*
X231500Y236000D01*
X231975Y236000D01*
X232854Y235636D01*
X233526Y234964D01*
X233890Y234085D01*
X233890Y233610D01*
X233890Y233610D01*
Y229008D01*
X233928Y228616D01*
X234228Y227892D01*
X234782Y227338D01*
X235506Y227039D01*
X235898Y227000D01*
X235898D01*
X416000Y227000D01*
X417016Y227000D01*
X419030Y226735D01*
X420993Y226209D01*
X422870Y225431D01*
X424630Y224415D01*
X426242Y223179D01*
X427678Y221742D01*
X428915Y220130D01*
X429931Y218370D01*
X430709Y216493D01*
X431235Y214530D01*
X431500Y212516D01*
X431500Y211500D01*
X431500Y211500D01*
X431540Y210290D01*
X431855Y207891D01*
X432482Y205553D01*
X433408Y203318D01*
X434618Y201222D01*
X436091Y199302D01*
X437802Y197591D01*
X439722Y196118D01*
X441818Y194908D01*
X444053Y193982D01*
X446391Y193356D01*
X448790Y193040D01*
X450000Y193000D01*
X450000D01*
X455500Y193000D01*
X455943Y193000D01*
X456813Y192827D01*
X457632Y192488D01*
X458369Y191995D01*
X458995Y191369D01*
X459488Y190631D01*
X459827Y189813D01*
X460000Y188943D01*
X460000Y188500D01*
X460000Y188500D01*
X460000Y179500D01*
X460000Y178958D01*
X459789Y177896D01*
X459374Y176895D01*
X458772Y175994D01*
X458006Y175228D01*
X457105Y174626D01*
X456104Y174211D01*
X455042Y174000D01*
X454500Y174000D01*
X454500D01*
X155500Y174000D01*
X154811Y174000D01*
X153458Y174269D01*
X152184Y174797D01*
X151038Y175563D01*
X150063Y176538D01*
X149297Y177684D01*
X148769Y178958D01*
X148500Y180310D01*
X148500Y181000D01*
Y181000D01*
X148500Y191500D01*
Y192352D01*
X148722Y194042D01*
X149163Y195688D01*
X149816Y197262D01*
X150668Y198738D01*
X151705Y200090D01*
X152910Y201295D01*
X154262Y202332D01*
X155738Y203184D01*
X157312Y203836D01*
X158958Y204278D01*
X160648Y204500D01*
X161500D01*
X161500Y204500D01*
X167500D01*
X168653Y204528D01*
X170948Y204754D01*
X173210Y205204D01*
X175417Y205874D01*
X177548Y206756D01*
X179581Y207843D01*
X181499Y209125D01*
X183282Y210588D01*
X184912Y212218D01*
X186375Y214001D01*
X187657Y215919D01*
X188744Y217952D01*
X189626Y220083D01*
X190296Y222290D01*
X190746Y224552D01*
X190972Y226847D01*
X191000Y228000D01*
X191000Y228000D01*
X191000Y233441D01*
Y233730D01*
X191113Y234296D01*
X191334Y234830D01*
X191655Y235310D01*
X192063Y235718D01*
X192543Y236039D01*
X193077Y236260D01*
X193643Y236373D01*
X193932Y236373D01*
X208127Y236373D01*
X208301D01*
X208622Y236240D01*
D02*
G37*
%LPC*%
G36*
X275894Y296574D02*
Y296574D01*
D01*
Y296574D01*
D02*
G37*
G36*
X274000Y288256D02*
Y288256D01*
D01*
Y288256D01*
D02*
G37*
G36*
X470538Y313250D02*
X470538D01*
D01*
X470538D01*
D02*
G37*
G36*
X422500Y292704D02*
Y292704D01*
D01*
Y292704D01*
D02*
G37*
G36*
X460947Y354000D02*
Y347575D01*
X460981Y346882D01*
X461251Y345521D01*
X461782Y344240D01*
X462552Y343087D01*
X463533Y342106D01*
X464686Y341335D01*
X465968Y340805D01*
X467328Y340534D01*
X468021Y340500D01*
X468022Y340500D01*
X475526D01*
X475526Y347484D01*
X475494Y348123D01*
X475245Y349375D01*
X474756Y350555D01*
X474047Y351618D01*
X473143Y352521D01*
X472081Y353231D01*
X470901Y353719D01*
X469648Y353969D01*
X469010Y354000D01*
X469010Y354000D01*
X460947Y354000D01*
X460947Y354000D01*
D02*
G37*
G36*
X453500Y140596D02*
X452185Y140467D01*
X450921Y140083D01*
X449757Y139461D01*
X448736Y138623D01*
X447898Y137602D01*
X447275Y136437D01*
X446891Y135173D01*
X446762Y133858D01*
X446891Y132544D01*
X447275Y131280D01*
X447898Y130115D01*
X448736Y129094D01*
X449757Y128256D01*
X450921Y127633D01*
X452185Y127250D01*
X453500Y127120D01*
X454814Y127250D01*
X456078Y127633D01*
X457243Y128256D01*
X458264Y129094D01*
X459102Y130115D01*
X459725Y131280D01*
X460109Y132544D01*
X460238Y133858D01*
X460109Y135173D01*
X459725Y136437D01*
X459102Y137602D01*
X458264Y138623D01*
X457243Y139461D01*
X456078Y140083D01*
X454814Y140467D01*
X453500Y140596D01*
D02*
G37*
G36*
X411500D02*
X410185Y140467D01*
X408921Y140083D01*
X407757Y139461D01*
X406736Y138623D01*
X405898Y137602D01*
X405275Y136437D01*
X404891Y135173D01*
X404762Y133858D01*
X404891Y132544D01*
X405275Y131280D01*
X405898Y130115D01*
X406736Y129094D01*
X407757Y128256D01*
X408921Y127633D01*
X410185Y127250D01*
X411500Y127120D01*
X412815Y127250D01*
X414079Y127633D01*
X415243Y128256D01*
X416264Y129094D01*
X417102Y130115D01*
X417725Y131280D01*
X418109Y132544D01*
X418238Y133858D01*
X418109Y135173D01*
X417725Y136437D01*
X417102Y137602D01*
X416264Y138623D01*
X415243Y139461D01*
X414079Y140083D01*
X412815Y140467D01*
X411500Y140596D01*
D02*
G37*
G36*
X369500D02*
X368185Y140467D01*
X366921Y140083D01*
X365757Y139461D01*
X364736Y138623D01*
X363898Y137602D01*
X363275Y136437D01*
X362892Y135173D01*
X362762Y133858D01*
X362892Y132544D01*
X363275Y131280D01*
X363898Y130115D01*
X364736Y129094D01*
X365757Y128256D01*
X366921Y127633D01*
X368185Y127250D01*
X369500Y127120D01*
X370814Y127250D01*
X372078Y127633D01*
X373243Y128256D01*
X374265Y129094D01*
X375102Y130115D01*
X375725Y131280D01*
X376109Y132544D01*
X376238Y133858D01*
X376109Y135173D01*
X375725Y136437D01*
X375102Y137602D01*
X374265Y138623D01*
X373243Y139461D01*
X372078Y140083D01*
X370814Y140467D01*
X369500Y140596D01*
D02*
G37*
G36*
X327000D02*
X325686Y140467D01*
X324422Y140083D01*
X323257Y139461D01*
X322235Y138623D01*
X321398Y137602D01*
X320775Y136437D01*
X320392Y135173D01*
X320262Y133858D01*
X320392Y132544D01*
X320775Y131280D01*
X321398Y130115D01*
X322235Y129094D01*
X323257Y128256D01*
X324422Y127633D01*
X325686Y127250D01*
X327000Y127120D01*
X328314Y127250D01*
X329578Y127633D01*
X330743Y128256D01*
X331765Y129094D01*
X332602Y130115D01*
X333225Y131280D01*
X333609Y132544D01*
X333738Y133858D01*
X333609Y135173D01*
X333225Y136437D01*
X332602Y137602D01*
X331765Y138623D01*
X330743Y139461D01*
X329578Y140083D01*
X328314Y140467D01*
X327000Y140596D01*
D02*
G37*
G36*
X284000D02*
X282685Y140467D01*
X281421Y140083D01*
X280257Y139461D01*
X279236Y138623D01*
X278398Y137602D01*
X277775Y136437D01*
X277392Y135173D01*
X277262Y133858D01*
X277392Y132544D01*
X277775Y131280D01*
X278398Y130115D01*
X279236Y129094D01*
X280257Y128256D01*
X281421Y127633D01*
X282685Y127250D01*
X284000Y127120D01*
X285314Y127250D01*
X286578Y127633D01*
X287743Y128256D01*
X288765Y129094D01*
X289602Y130115D01*
X290225Y131280D01*
X290609Y132544D01*
X290738Y133858D01*
X290609Y135173D01*
X290225Y136437D01*
X289602Y137602D01*
X288765Y138623D01*
X287743Y139461D01*
X286578Y140083D01*
X285314Y140467D01*
X284000Y140596D01*
D02*
G37*
G36*
X241000D02*
X239686Y140467D01*
X238422Y140083D01*
X237257Y139461D01*
X236235Y138623D01*
X235398Y137602D01*
X234775Y136437D01*
X234391Y135173D01*
X234262Y133858D01*
X234391Y132544D01*
X234775Y131280D01*
X235398Y130115D01*
X236235Y129094D01*
X237257Y128256D01*
X238422Y127633D01*
X239686Y127250D01*
X241000Y127120D01*
X242315Y127250D01*
X243579Y127633D01*
X244743Y128256D01*
X245764Y129094D01*
X246602Y130115D01*
X247225Y131280D01*
X247608Y132544D01*
X247738Y133858D01*
X247608Y135173D01*
X247225Y136437D01*
X246602Y137602D01*
X245764Y138623D01*
X244743Y139461D01*
X243579Y140083D01*
X242315Y140467D01*
X241000Y140596D01*
D02*
G37*
G36*
X198000D02*
X196686Y140467D01*
X195422Y140083D01*
X194257Y139461D01*
X193236Y138623D01*
X192398Y137602D01*
X191775Y136437D01*
X191392Y135173D01*
X191262Y133858D01*
X191392Y132544D01*
X191775Y131280D01*
X192398Y130115D01*
X193236Y129094D01*
X194257Y128256D01*
X195422Y127633D01*
X196686Y127250D01*
X198000Y127120D01*
X199314Y127250D01*
X200578Y127633D01*
X201743Y128256D01*
X202765Y129094D01*
X203602Y130115D01*
X204225Y131280D01*
X204608Y132544D01*
X204738Y133858D01*
X204608Y135173D01*
X204225Y136437D01*
X203602Y137602D01*
X202765Y138623D01*
X201743Y139461D01*
X200578Y140083D01*
X199314Y140467D01*
X198000Y140596D01*
D02*
G37*
G36*
X155000D02*
X153685Y140467D01*
X152421Y140083D01*
X151257Y139461D01*
X150235Y138623D01*
X149398Y137602D01*
X148775Y136437D01*
X148391Y135173D01*
X148262Y133858D01*
X148391Y132544D01*
X148775Y131280D01*
X149398Y130115D01*
X150235Y129094D01*
X151257Y128256D01*
X152421Y127633D01*
X153685Y127250D01*
X155000Y127120D01*
X156315Y127250D01*
X157579Y127633D01*
X158743Y128256D01*
X159765Y129094D01*
X160602Y130115D01*
X161225Y131280D01*
X161609Y132544D01*
X161738Y133858D01*
X161609Y135173D01*
X161225Y136437D01*
X160602Y137602D01*
X159765Y138623D01*
X158743Y139461D01*
X157579Y140083D01*
X156315Y140467D01*
X155000Y140596D01*
D02*
G37*
%LPD*%
D13*
X411000Y367240D02*
X411500Y367740D01*
X332300Y303889D02*
X337111D01*
X339500Y301500D02*
X344500Y306500D01*
X302952Y331091D02*
X317107D01*
X300855Y333188D02*
X302952Y331091D01*
X266500Y333188D02*
X300855D01*
X264638Y331327D02*
X266500Y333188D01*
X264638Y329000D02*
Y331327D01*
X278398Y349520D02*
X278587Y349331D01*
X278398Y353067D02*
X284197D01*
X278398Y349520D02*
Y353067D01*
X278256Y343000D02*
X282928D01*
X278256Y339000D02*
X281474D01*
X326167Y350882D02*
Y351700D01*
X473500Y139000D02*
X479500D01*
X471500Y141000D02*
X473500Y139000D01*
X471500Y141000D02*
Y179368D01*
X466616Y184252D02*
X471500Y179368D01*
X295236Y234988D02*
X295260Y234964D01*
X287500Y234988D02*
X295236D01*
X266977Y237000D02*
X273327D01*
X259500Y244477D02*
X266977Y237000D01*
X342355Y230645D02*
X342500Y230500D01*
X342355Y230645D02*
Y235599D01*
X341582Y236373D02*
X342355Y235599D01*
X337700Y236373D02*
X341582D01*
X295815Y243500D02*
X295874Y243441D01*
X301000D01*
X315500Y233512D02*
Y236373D01*
Y233512D02*
X319512Y229500D01*
X323422D01*
X333306Y244050D02*
X337700D01*
X328737Y239481D02*
X333306Y244050D01*
X328737Y229500D02*
Y239481D01*
X320676Y238932D02*
X322607Y237000D01*
X315500Y238932D02*
X320676D01*
X277181Y242000D02*
X279681Y244500D01*
X273327Y242000D02*
X277181D01*
X280983Y234988D02*
X287500D01*
X278971Y237000D02*
X280983Y234988D01*
X273327Y237000D02*
X278971D01*
X479500Y139000D02*
X482256Y141756D01*
X487500D01*
X367622Y230500D02*
X367622Y230500D01*
Y234547D01*
X352622Y230500D02*
X352622Y230500D01*
X352622Y230500D02*
Y234547D01*
X360000Y230500D02*
X362622Y233122D01*
X326000Y312228D02*
X332000D01*
X344500Y323328D02*
X345172Y324000D01*
X344500Y306500D02*
Y323328D01*
X345172Y324000D02*
X347256D01*
X325949Y316184D02*
X329244Y319479D01*
Y320000D01*
X332000Y315320D02*
X334756Y318076D01*
X332000Y312228D02*
Y315320D01*
X356890Y340390D02*
Y361000D01*
X348500Y332000D02*
X356890Y340390D01*
X345756Y332000D02*
X348500D01*
X336744Y337500D02*
X340244D01*
X336500Y337256D02*
X336744Y337500D01*
X336244Y337000D02*
X336500Y337256D01*
X333256Y337000D02*
X336244D01*
X304673Y335929D02*
Y340659D01*
X304244Y335500D02*
X304673Y335929D01*
X309756Y342394D02*
X309988Y342626D01*
X309756Y335500D02*
Y342394D01*
Y335500D02*
X309756Y335500D01*
X314561D01*
X316061Y337000D01*
X327744D01*
Y332000D02*
Y337000D01*
X340244Y332000D02*
X340244Y332000D01*
X333256Y332000D02*
X340244D01*
X340244Y332000D02*
X340256D01*
X345756Y337500D01*
X345512Y349500D02*
X348377D01*
X340000Y349500D02*
X340000Y349500D01*
X334756Y349500D02*
X340000D01*
X334756Y344000D02*
Y349500D01*
X326167Y350882D02*
X327549Y349500D01*
X329244D01*
X323256Y344719D02*
Y348748D01*
X318430Y349314D02*
X318500Y349244D01*
X315444Y349314D02*
X318430D01*
X314662Y348532D02*
X315444Y349314D01*
X309988Y348532D02*
X314662D01*
X315119Y344719D02*
X317744D01*
X313274Y346563D02*
X315119Y344719D01*
X309988Y346563D02*
X313274D01*
X328461Y344000D02*
X329244D01*
X325000Y340539D02*
X328461Y344000D01*
X316242Y340539D02*
X325000D01*
X312187Y344595D02*
X316242Y340539D01*
X309988Y344595D02*
X312187D01*
X286764Y350500D02*
X290500D01*
X284197Y353067D02*
X286764Y350500D01*
X284500Y348532D02*
X290500D01*
X266000Y250328D02*
X267672Y252000D01*
X273327D01*
X283886Y246012D02*
X287500D01*
X277898Y252000D02*
X283886Y246012D01*
X273327Y252000D02*
X277898D01*
X269159Y344000D02*
X272744D01*
Y349000D01*
Y339000D02*
Y344000D01*
X286374Y346446D02*
X290383D01*
X282928Y343000D02*
X286374Y346446D01*
X278256Y343000D02*
Y344000D01*
X281474Y339000D02*
X287068Y344595D01*
X290500D01*
X290383Y346446D02*
X290500Y346563D01*
X347000Y318744D02*
X347256Y319000D01*
X347000Y312228D02*
Y318744D01*
X341744Y319000D02*
X342000Y318744D01*
Y312228D02*
Y318744D01*
X339674Y324000D02*
X341744D01*
X338000Y322326D02*
X339674Y324000D01*
X338000Y317000D02*
Y322326D01*
X337000Y316000D02*
X338000Y317000D01*
X337000Y312228D02*
Y316000D01*
X329047Y325000D02*
X329244Y324803D01*
Y320000D02*
Y324803D01*
X334756Y320000D02*
Y324803D01*
X334953Y325000D01*
X334756Y318076D02*
Y320000D01*
X326000Y311953D02*
Y312228D01*
X337111Y303889D02*
X339500Y301500D01*
X330142Y306047D02*
X332300Y303889D01*
X326000Y306047D02*
X330142D01*
X261000Y323500D02*
X261000Y323500D01*
X264638D01*
X283150Y328500D02*
X286547D01*
X283150Y320475D02*
Y323500D01*
X282394Y319720D02*
X283150Y320475D01*
X282394Y316228D02*
Y319720D01*
X277394Y316228D02*
Y323256D01*
X277638Y323500D01*
X275006Y328500D02*
X277638D01*
X273984Y327478D02*
X275006Y328500D01*
X273984Y321280D02*
Y327478D01*
X272394Y319690D02*
X273984Y321280D01*
X272394Y316228D02*
Y319690D01*
X264638Y323500D02*
Y329000D01*
X270150Y323500D02*
Y329000D01*
Y322044D02*
Y323500D01*
X267394Y319288D02*
X270150Y322044D01*
X267394Y316228D02*
Y319288D01*
X264638Y316228D02*
X267394D01*
X262866Y318000D02*
X264638Y316228D01*
X260894Y318000D02*
X262866D01*
X270170Y308059D02*
X272335D01*
X263000D02*
X270170D01*
X272335D02*
X274894Y305500D01*
X260894Y310165D02*
X263000Y308059D01*
X260894Y310165D02*
Y312488D01*
X272394Y303000D02*
X274894Y305500D01*
X272394Y294772D02*
Y303000D01*
Y291290D02*
Y294772D01*
X270382Y289278D02*
X272394Y291290D01*
X270382Y287000D02*
Y289278D01*
X197626Y378000D02*
X203500D01*
X188374Y378000D02*
X188374Y378000D01*
X182256Y378000D02*
X188374D01*
X176744Y378000D02*
X176744Y378000D01*
X168500Y378000D02*
X176744D01*
X168500Y364000D02*
Y378000D01*
Y364000D02*
X170000Y362500D01*
X453500Y184252D02*
X466616D01*
X479500Y175000D02*
X482256Y177756D01*
X487500D01*
X479500Y163500D02*
X482256Y166256D01*
X487500D01*
X479500Y151500D02*
X482256Y154256D01*
X487500D01*
Y136244D02*
X490618D01*
X493374Y139000D01*
X487500Y148744D02*
X490618D01*
X493374Y151500D01*
X487500Y160744D02*
X490118D01*
X493374Y164000D01*
X487500Y172244D02*
X490618D01*
X493374Y175000D01*
X459287Y267000D02*
X459390D01*
X450627Y258340D02*
X459287Y267000D01*
X441795Y258340D02*
X450627D01*
X427754Y244300D02*
X441795Y258340D01*
X399700Y244300D02*
X427754D01*
X390000Y254000D02*
X399700Y244300D01*
X469232Y264272D02*
Y267000D01*
X461500Y256540D02*
X469232Y264272D01*
X442540Y256540D02*
X461500D01*
X428500Y242500D02*
X442540Y256540D01*
X390000Y242500D02*
X428500D01*
X322773Y251727D02*
X327744Y246756D01*
X315500Y251727D02*
X322773D01*
X321853Y246609D02*
X322000Y246756D01*
X315500Y246609D02*
X321853D01*
X301000Y248953D02*
X308303D01*
X311627Y244050D02*
X315500D01*
X310500Y245177D02*
X311627Y244050D01*
X310500Y245177D02*
Y246756D01*
X308303Y248953D02*
X310500Y246756D01*
X300744Y238697D02*
Y243185D01*
Y233500D02*
Y238697D01*
Y243185D02*
X301000Y243441D01*
X310671Y236373D02*
X315500D01*
X307798Y233500D02*
X310671Y236373D01*
X306256Y233500D02*
X307798D01*
X306256Y243185D02*
X306441Y243000D01*
X306000Y243441D02*
X306256Y243185D01*
Y238697D02*
Y243185D01*
X306441Y243000D02*
X309500D01*
X311009Y241491D01*
X315500D01*
X306256Y238697D02*
X306491Y238932D01*
X315500D01*
X457222Y251000D02*
X460947D01*
X466614Y245177D02*
Y250844D01*
X437802Y245177D02*
X443386D01*
Y242618D02*
Y245177D01*
X466614Y227012D02*
Y229823D01*
X470118Y232382D02*
X473500Y229000D01*
X466614Y232382D02*
X470118D01*
X466614Y234941D02*
X471882D01*
X477000Y229823D01*
X439422Y240059D02*
X443386D01*
X432100Y232737D02*
X439422Y240059D01*
X432100Y223187D02*
Y232737D01*
Y223187D02*
X450787Y204500D01*
X480618D01*
X439409Y237500D02*
X443386D01*
X433900Y231991D02*
X439409Y237500D01*
X433900Y223932D02*
Y231991D01*
Y223932D02*
X446832Y211000D01*
X480618D01*
X439395Y234941D02*
X443386D01*
X435700Y231246D02*
X439395Y234941D01*
X435700Y224678D02*
Y231246D01*
Y224678D02*
X442878Y217500D01*
X480618D01*
X439382Y232382D02*
X443386D01*
X437500Y230500D02*
X439382Y232382D01*
X437500Y225423D02*
Y230500D01*
Y225423D02*
X442423Y220500D01*
X464000D01*
X467000Y223500D01*
X480618D01*
X480295Y229823D02*
X480618Y229500D01*
X477000Y229823D02*
X480295D01*
X480618Y236000D02*
X480618Y236000D01*
X477000Y236000D02*
X480618D01*
X475500Y237500D02*
X477000Y236000D01*
X466614Y237500D02*
X475500D01*
X473524Y242000D02*
X480618D01*
X471583Y240059D02*
X473524Y242000D01*
X466614Y240059D02*
X471583D01*
X466614Y242618D02*
X471500D01*
X477382Y248500D01*
X480618D01*
X493248Y204500D02*
X493248Y204500D01*
X486130Y204500D02*
X493248D01*
Y211000D02*
X493248Y211000D01*
X486130Y211000D02*
X493248D01*
X493150Y217500D02*
X493248Y217402D01*
X486130Y217500D02*
X493150D01*
X486130Y223500D02*
X486130Y223500D01*
X493248D01*
X493248Y229500D02*
X493248Y229500D01*
X486130Y229500D02*
X493248D01*
Y236000D02*
X493248Y236000D01*
X486130Y236000D02*
X493248D01*
Y242000D02*
X493248Y242000D01*
X486130Y242000D02*
X493248D01*
Y248500D02*
X493248Y248500D01*
X486130Y248500D02*
X493248D01*
X386622Y245878D02*
X390000Y242500D01*
X379756Y245878D02*
X386622D01*
X387378Y251378D02*
X390000Y254000D01*
X379756Y251378D02*
X387378D01*
X374244Y259980D02*
X374265Y260000D01*
X374244Y256378D02*
Y259980D01*
Y235765D02*
X374265Y235744D01*
X374244Y235765D02*
Y240378D01*
X379756D02*
X379756Y240378D01*
Y245878D01*
X379756Y251378D02*
X379756Y251378D01*
X379756Y251378D02*
Y256378D01*
X374122Y251500D02*
X374244Y251378D01*
X371731Y251500D02*
X374122D01*
X370500Y252731D02*
X371731Y251500D01*
X370500Y252731D02*
Y255500D01*
X369460Y256540D02*
X370500Y255500D01*
X366437Y256540D02*
X369460D01*
X371731Y245878D02*
X374244D01*
X368549Y249060D02*
X371731Y245878D01*
X366437Y249060D02*
X368549D01*
X365977Y257000D02*
X366437Y256540D01*
X352256Y257000D02*
X365977D01*
X356440Y249060D02*
X366437D01*
X353500Y252000D02*
X356440Y249060D01*
X352256Y252000D02*
X353500D01*
X362347Y252800D02*
X362500Y252953D01*
X358563Y252800D02*
X362347D01*
X362622Y233122D02*
Y234547D01*
X357622D02*
X362622D01*
X352622Y240059D02*
X352622Y240059D01*
X357622D01*
X367622D02*
X367622Y240059D01*
X362622Y240059D02*
X367622D01*
X362622D02*
Y241491D01*
X360672Y243441D02*
X362622Y241491D01*
X349185Y243441D02*
X360672D01*
X347000Y241256D02*
X349185Y243441D01*
X348307Y235744D02*
X352622Y240059D01*
X347000Y235744D02*
X348307D01*
X344756D02*
X347000D01*
X341568Y238932D02*
X344756Y235744D01*
X337700Y238932D02*
X341568D01*
X346765Y241491D02*
X347000Y241256D01*
X337700Y241491D02*
X346765D01*
X344831Y252000D02*
X346744D01*
X341999Y249168D02*
X344831Y252000D01*
X337700Y249168D02*
X341999D01*
X343960Y257000D02*
X346744D01*
X342500Y255540D02*
X343960Y257000D01*
X342500Y252500D02*
Y255540D01*
X341727Y251727D02*
X342500Y252500D01*
X337700Y251727D02*
X341727D01*
X300000Y259500D02*
Y261000D01*
X298953Y262047D02*
X300000Y261000D01*
X293917Y262047D02*
X298953D01*
X300000Y254000D02*
Y255500D01*
X298953Y252953D02*
X300000Y254000D01*
X293917Y252953D02*
X298953D01*
X293465Y262500D02*
X293917Y262047D01*
X258500Y262500D02*
X293465D01*
X257256Y261256D02*
X258500Y262500D01*
X257256Y258500D02*
Y261256D01*
X247744Y258500D02*
X251744D01*
X245500Y256256D02*
X247744Y258500D01*
X245500Y248667D02*
Y256256D01*
Y248667D02*
X247167Y247000D01*
X251673D01*
X281500Y258500D02*
X282500Y257500D01*
X269256Y258500D02*
X281500D01*
X263500Y258256D02*
X263744Y258500D01*
X263500Y254000D02*
Y258256D01*
X261500Y252000D02*
X263500Y254000D01*
X251673Y252000D02*
X261500D01*
X248917Y225782D02*
X249000Y225699D01*
X248917Y225782D02*
Y231000D01*
X254429D02*
Y234244D01*
X251673Y237000D02*
X254429Y234244D01*
X248500Y242000D02*
X251673D01*
X240732Y234232D02*
X248500Y242000D01*
X237000Y234232D02*
X240732D01*
X212500Y231137D02*
Y234232D01*
Y231137D02*
X212910D01*
X237127Y231070D02*
Y234104D01*
X237000Y234232D02*
X237127Y234104D01*
D18*
X498500Y117500D02*
X502626Y121626D01*
Y139000D01*
X337000Y299000D02*
X339500Y301500D01*
X337000Y290772D02*
Y299000D01*
X117500Y370000D02*
X117661Y370161D01*
X139500D01*
X502626Y164000D02*
Y175000D01*
Y151500D02*
Y164000D01*
Y139000D02*
Y151500D01*
X502500Y253000D02*
X502500Y253000D01*
Y248500D02*
Y253000D01*
X502500Y199500D02*
X502500Y199500D01*
Y204500D01*
Y242000D02*
Y248500D01*
Y236000D02*
Y242000D01*
Y229500D02*
Y236000D01*
Y223500D02*
Y229500D01*
Y217402D02*
Y223500D01*
Y211000D02*
Y217402D01*
Y204500D02*
Y211000D01*
D21*
X487500Y177756D02*
D03*
Y172244D02*
D03*
Y166256D02*
D03*
Y160744D02*
D03*
Y154256D02*
D03*
Y148744D02*
D03*
Y141756D02*
D03*
Y136244D02*
D03*
X318500Y349244D02*
D03*
Y354756D02*
D03*
X326000Y311953D02*
D03*
Y306047D02*
D03*
X260894Y318000D02*
D03*
Y312488D02*
D03*
X301000Y248953D02*
D03*
Y243441D02*
D03*
X306000Y243441D02*
D03*
Y248953D02*
D03*
X352622Y234547D02*
D03*
Y240059D02*
D03*
X347000Y241256D02*
D03*
Y235744D02*
D03*
X367622Y234547D02*
D03*
Y240059D02*
D03*
X362622Y240059D02*
D03*
Y234547D02*
D03*
X357622Y240059D02*
D03*
Y234547D02*
D03*
D22*
X502626Y175000D02*
D03*
X493374D02*
D03*
X502626Y164000D02*
D03*
X493374D02*
D03*
X502626Y151500D02*
D03*
X493374D02*
D03*
X502626Y139000D02*
D03*
X493374D02*
D03*
X502500Y204500D02*
D03*
X493248D02*
D03*
X502500Y211000D02*
D03*
X493248D02*
D03*
X502500Y217402D02*
D03*
X493248D02*
D03*
X502500Y223500D02*
D03*
X493248D02*
D03*
X502500Y229500D02*
D03*
X493248D02*
D03*
X502500Y236000D02*
D03*
X493248D02*
D03*
X502500Y242000D02*
D03*
X493248D02*
D03*
X502500Y248500D02*
D03*
X493248D02*
D03*
X197626Y378000D02*
D03*
X188374D02*
D03*
D23*
X466614Y229823D02*
D03*
Y232382D02*
D03*
Y234941D02*
D03*
Y237500D02*
D03*
Y240059D02*
D03*
Y242618D02*
D03*
Y245177D02*
D03*
X443386Y229823D02*
D03*
Y232382D02*
D03*
Y234941D02*
D03*
Y237500D02*
D03*
Y240059D02*
D03*
Y242618D02*
D03*
Y245177D02*
D03*
D24*
X480618Y248500D02*
D03*
X486130D02*
D03*
X480618Y242000D02*
D03*
X486130D02*
D03*
X480618Y236000D02*
D03*
X486130D02*
D03*
X480618Y229500D02*
D03*
X486130D02*
D03*
X480618Y223500D02*
D03*
X486130D02*
D03*
X480618Y217500D02*
D03*
X486130D02*
D03*
X480618Y211000D02*
D03*
X486130D02*
D03*
X480618Y204500D02*
D03*
X486130D02*
D03*
X466458Y251000D02*
D03*
X460947D02*
D03*
X278256Y349000D02*
D03*
X272744D02*
D03*
X278256Y344000D02*
D03*
X272744D02*
D03*
X278256Y339000D02*
D03*
X272744D02*
D03*
X317744Y344719D02*
D03*
X323256D02*
D03*
X329244Y344000D02*
D03*
X334756D02*
D03*
X329244Y349500D02*
D03*
X334756D02*
D03*
X340000Y349500D02*
D03*
X345512D02*
D03*
X345756Y337500D02*
D03*
X340244D02*
D03*
X340244Y332000D02*
D03*
X345756D02*
D03*
X341744Y324000D02*
D03*
X347256D02*
D03*
X341744Y319000D02*
D03*
X347256D02*
D03*
X329244Y320000D02*
D03*
X334756D02*
D03*
X329047Y325000D02*
D03*
X334953D02*
D03*
X333256Y332000D02*
D03*
X327744D02*
D03*
X277638Y328500D02*
D03*
X283150D02*
D03*
X277638Y323500D02*
D03*
X283150D02*
D03*
X264638Y329000D02*
D03*
X270150D02*
D03*
X264638Y323500D02*
D03*
X270150D02*
D03*
X275894Y287000D02*
D03*
X270382D02*
D03*
X248917Y231000D02*
D03*
X254429D02*
D03*
X257256Y258500D02*
D03*
X251744D02*
D03*
X269256D02*
D03*
X263744D02*
D03*
X306256Y238697D02*
D03*
X300744D02*
D03*
X306256Y233500D02*
D03*
X300744D02*
D03*
X176744Y378000D02*
D03*
X182256D02*
D03*
X304244Y335500D02*
D03*
X309756D02*
D03*
X327744Y337000D02*
D03*
X333256D02*
D03*
X379756Y240378D02*
D03*
X374244D02*
D03*
X374244Y245878D02*
D03*
X379756D02*
D03*
X374244Y251378D02*
D03*
X379756D02*
D03*
X379756Y256378D02*
D03*
X374244D02*
D03*
X346744Y252000D02*
D03*
X352256D02*
D03*
X346744Y257000D02*
D03*
X352256D02*
D03*
D25*
X397000Y268000D02*
D03*
Y292000D02*
D03*
X436000D02*
D03*
Y268000D02*
D03*
X396500Y307000D02*
D03*
Y331000D02*
D03*
X435500D02*
D03*
Y307000D02*
D03*
X412250Y346250D02*
D03*
Y370250D02*
D03*
X451250D02*
D03*
Y346250D02*
D03*
D26*
X412988Y380500D02*
D03*
X424012D02*
D03*
X280882Y285500D02*
D03*
X291906D02*
D03*
X308906Y299000D02*
D03*
X297882D02*
D03*
X308906Y290500D02*
D03*
X297882D02*
D03*
X353988Y278000D02*
D03*
X365012D02*
D03*
X374000Y289000D02*
D03*
X362976D02*
D03*
X362988Y297500D02*
D03*
X374012D02*
D03*
D27*
X356890Y361000D02*
D03*
X393110D02*
D03*
D28*
X256000Y358480D02*
D03*
Y368520D02*
D03*
X269000Y358480D02*
D03*
Y368520D02*
D03*
D29*
X279500Y358000D02*
D03*
Y369024D02*
D03*
X355000Y284976D02*
D03*
Y296000D02*
D03*
D30*
X373000Y313500D02*
D03*
X355283D02*
D03*
D31*
X339500Y301500D02*
D03*
X274894Y305500D02*
D03*
D32*
X347000Y312228D02*
D03*
X342000D02*
D03*
X337000D02*
D03*
X332000D02*
D03*
X347000Y290772D02*
D03*
X342000D02*
D03*
X337000D02*
D03*
X332000D02*
D03*
X267394Y294772D02*
D03*
X272394D02*
D03*
X277394D02*
D03*
X282394D02*
D03*
X267394Y316228D02*
D03*
X272394D02*
D03*
X277394D02*
D03*
X282394D02*
D03*
D33*
X291969Y317000D02*
D03*
X313819D02*
D03*
D34*
X273327Y237000D02*
D03*
Y242000D02*
D03*
Y247000D02*
D03*
Y252000D02*
D03*
X251673Y237000D02*
D03*
Y242000D02*
D03*
Y247000D02*
D03*
Y252000D02*
D03*
D35*
X282500Y257500D02*
D03*
D36*
X293917Y252953D02*
D03*
Y262047D02*
D03*
D37*
X337700Y251727D02*
D03*
Y249168D02*
D03*
Y246609D02*
D03*
Y244050D02*
D03*
Y241491D02*
D03*
Y238932D02*
D03*
Y236373D02*
D03*
X315500Y236373D02*
D03*
Y238932D02*
D03*
Y241491D02*
D03*
Y244050D02*
D03*
Y246609D02*
D03*
Y249168D02*
D03*
Y251727D02*
D03*
D38*
X287500Y246012D02*
D03*
Y234988D02*
D03*
D39*
X170000Y362500D02*
D03*
D40*
X154323Y366122D02*
D03*
Y358878D02*
D03*
D41*
X139500Y352839D02*
D03*
Y370161D02*
D03*
D42*
X358563Y252800D02*
D03*
X366437Y256540D02*
D03*
Y249060D02*
D03*
D43*
X323422Y229500D02*
D03*
X328737D02*
D03*
D44*
X165500Y282000D02*
D03*
Y239480D02*
D03*
X124500Y282000D02*
D03*
Y239480D02*
D03*
D79*
X309988Y342626D02*
D03*
Y344595D02*
D03*
Y346563D02*
D03*
Y348532D02*
D03*
Y350500D02*
D03*
Y352468D02*
D03*
Y354437D02*
D03*
Y356405D02*
D03*
Y358374D02*
D03*
Y360343D02*
D03*
Y362311D02*
D03*
X290500D02*
D03*
Y360343D02*
D03*
Y358374D02*
D03*
Y356405D02*
D03*
Y354437D02*
D03*
Y352468D02*
D03*
Y350500D02*
D03*
Y348532D02*
D03*
Y346563D02*
D03*
Y344595D02*
D03*
Y342626D02*
D03*
D80*
X300244Y352468D02*
D03*
D81*
X222000Y255768D02*
D03*
X227000D02*
D03*
X232000D02*
D03*
X237000D02*
D03*
Y234232D02*
D03*
X232000D02*
D03*
X227000D02*
D03*
X222000D02*
D03*
X197500Y255768D02*
D03*
X202500D02*
D03*
X207500D02*
D03*
X212500D02*
D03*
Y234232D02*
D03*
X207500D02*
D03*
X202500D02*
D03*
X197500D02*
D03*
D82*
X466458Y251000D02*
X466614Y250844D01*
X469677Y245177D02*
X472000Y247500D01*
X466614Y245177D02*
X469677D01*
X443386Y226114D02*
Y229823D01*
D83*
X497400Y346342D02*
D03*
Y316815D02*
D03*
D84*
X469250Y346342D02*
D03*
Y336500D02*
D03*
Y326658D02*
D03*
Y316815D02*
D03*
X469232Y275342D02*
D03*
Y285185D02*
D03*
X459390Y295028D02*
D03*
Y285185D02*
D03*
Y275342D02*
D03*
X469232Y295028D02*
D03*
Y265500D02*
D03*
X459390D02*
D03*
D85*
X304894Y360219D02*
D03*
Y357119D02*
D03*
Y354018D02*
D03*
Y350919D02*
D03*
Y347818D02*
D03*
Y344719D02*
D03*
X301794Y360219D02*
D03*
Y357119D02*
D03*
Y354018D02*
D03*
Y350919D02*
D03*
Y347818D02*
D03*
Y344719D02*
D03*
X298694Y360219D02*
D03*
Y357119D02*
D03*
Y354018D02*
D03*
Y350919D02*
D03*
Y347818D02*
D03*
Y344719D02*
D03*
X295594Y360219D02*
D03*
Y357119D02*
D03*
Y354018D02*
D03*
Y350919D02*
D03*
Y347818D02*
D03*
Y344719D02*
D03*
X334776Y304059D02*
D03*
X343831Y298941D02*
D03*
X343831Y304059D02*
D03*
X334776Y298941D02*
D03*
X339500D02*
D03*
Y304059D02*
D03*
X274894Y302941D02*
D03*
X270170D02*
D03*
X274894Y308059D02*
D03*
X279225D02*
D03*
X279225Y302941D02*
D03*
X270170Y308059D02*
D03*
D86*
X497500Y295028D02*
D03*
Y265500D02*
D03*
D87*
X390000Y254000D02*
D03*
X168500Y378000D02*
D03*
X118500Y153500D02*
D03*
X479500Y139000D02*
D03*
X118500Y142000D02*
D03*
X479500Y175000D02*
D03*
Y163500D02*
D03*
X390000Y242500D02*
D03*
X479500Y151500D02*
D03*
D88*
X124000Y322500D02*
D03*
X168000D02*
D03*
D89*
X198000Y162598D02*
D03*
Y184252D02*
D03*
X155000Y162598D02*
D03*
Y184252D02*
D03*
X284000Y162598D02*
D03*
Y184252D02*
D03*
X241000Y162598D02*
D03*
Y184252D02*
D03*
X369500Y162598D02*
D03*
Y184252D02*
D03*
X327000Y162598D02*
D03*
Y184252D02*
D03*
X453500Y162598D02*
D03*
Y184252D02*
D03*
X411500Y162598D02*
D03*
Y184252D02*
D03*
D90*
X498500Y370000D02*
D03*
X117500D02*
D03*
X498500Y117500D02*
D03*
X117500D02*
D03*
D91*
X406250Y372000D02*
D03*
X278398Y353067D02*
D03*
X326167Y351700D02*
D03*
X284500Y357500D02*
D03*
X425030Y265153D02*
D03*
X429423D02*
D03*
X425030Y269697D02*
D03*
X429423D02*
D03*
X425030Y274288D02*
D03*
X429423D02*
D03*
X425538Y283540D02*
D03*
Y288084D02*
D03*
Y292675D02*
D03*
X429931Y283540D02*
D03*
Y288084D02*
D03*
Y292675D02*
D03*
X295260Y234964D02*
D03*
X259500Y244477D02*
D03*
X342500Y230500D02*
D03*
X295815Y243500D02*
D03*
X322607Y237000D02*
D03*
X279681Y244500D02*
D03*
X198143Y245395D02*
D03*
X202643Y245407D02*
D03*
X207143D02*
D03*
X211643Y245395D02*
D03*
X236143Y245500D02*
D03*
X231643Y245512D02*
D03*
X227143D02*
D03*
X222643Y245500D02*
D03*
X367622Y230500D02*
D03*
X352622D02*
D03*
X360000D02*
D03*
X389366Y379750D02*
D03*
X393956D02*
D03*
X398500D02*
D03*
X255754Y379893D02*
D03*
X260345D02*
D03*
X264888D02*
D03*
X255754Y375500D02*
D03*
X260345D02*
D03*
X264888D02*
D03*
X296738Y284622D02*
D03*
X287000Y294639D02*
D03*
X287116Y298254D02*
D03*
Y301911D02*
D03*
X364000Y283592D02*
D03*
X354000Y296828D02*
D03*
Y299898D02*
D03*
X373000Y293000D02*
D03*
X325949Y316184D02*
D03*
X389675Y331699D02*
D03*
Y327108D02*
D03*
Y322565D02*
D03*
X385282Y331699D02*
D03*
Y327108D02*
D03*
Y322565D02*
D03*
X317107Y321956D02*
D03*
Y326500D02*
D03*
Y331091D02*
D03*
X321500Y321956D02*
D03*
Y326500D02*
D03*
Y331091D02*
D03*
X336500Y337256D02*
D03*
X348377Y349500D02*
D03*
X323256Y348748D02*
D03*
X284500Y348532D02*
D03*
X266000Y250328D02*
D03*
X269159Y344000D02*
D03*
X261000Y323500D02*
D03*
X286547Y328500D02*
D03*
X203500Y378000D02*
D03*
X327744Y246756D02*
D03*
X322000D02*
D03*
X457222Y251000D02*
D03*
X472000Y247500D02*
D03*
X437802Y245177D02*
D03*
X466614Y227012D02*
D03*
X473500Y229000D02*
D03*
X443386Y226114D02*
D03*
X502500Y253000D02*
D03*
Y199500D02*
D03*
X374265Y260000D02*
D03*
Y235744D02*
D03*
X362500Y252953D02*
D03*
X300000Y259500D02*
D03*
Y255500D02*
D03*
X222500Y231070D02*
D03*
X218500Y231000D02*
D03*
X212910Y231137D02*
D03*
X237127Y231070D02*
D03*
X197860Y231012D02*
D03*
X193360Y231000D02*
D03*
X202360Y231012D02*
D03*
X206860Y231000D02*
D03*
X198143Y223433D02*
D03*
X202643D02*
D03*
X193643Y223421D02*
D03*
X207143D02*
D03*
X231643Y223526D02*
D03*
X218143D02*
D03*
X227143Y223538D02*
D03*
X222643D02*
D03*
X231360Y231105D02*
D03*
X226860Y231117D02*
D03*
X198143Y227012D02*
D03*
X202643D02*
D03*
X193643Y227000D02*
D03*
X207143D02*
D03*
X231643Y227105D02*
D03*
X218143D02*
D03*
X227143Y227117D02*
D03*
X222643D02*
D03*
X227000Y253512D02*
D03*
X222500Y249488D02*
D03*
X227000Y249500D02*
D03*
X231500D02*
D03*
Y253512D02*
D03*
X222500Y253500D02*
D03*
X236000D02*
D03*
Y249488D02*
D03*
X211500Y249383D02*
D03*
Y253395D02*
D03*
X198000D02*
D03*
X207000Y253407D02*
D03*
Y249395D02*
D03*
X202500D02*
D03*
X198000Y249383D02*
D03*
X202500Y253407D02*
D03*
X111000Y289488D02*
D03*
X120000Y289500D02*
D03*
Y285488D02*
D03*
X115500D02*
D03*
X111000Y285476D02*
D03*
X115500Y289500D02*
D03*
X120000Y280988D02*
D03*
X115500D02*
D03*
X111000Y280976D02*
D03*
X120000Y276988D02*
D03*
X115500D02*
D03*
X111000Y276976D02*
D03*
X138500Y289488D02*
D03*
X134000D02*
D03*
X129500Y289476D02*
D03*
X138500Y285476D02*
D03*
X134000D02*
D03*
X129500Y285465D02*
D03*
X138500Y280988D02*
D03*
X134000D02*
D03*
X129500Y280976D02*
D03*
X138500Y276976D02*
D03*
X134000D02*
D03*
X129500Y276965D02*
D03*
X170500Y276976D02*
D03*
X175000Y276988D02*
D03*
X179500D02*
D03*
X170500Y280988D02*
D03*
X175000Y281000D02*
D03*
X179500D02*
D03*
X170500Y285476D02*
D03*
X175000Y285488D02*
D03*
X179500D02*
D03*
X170500Y289488D02*
D03*
X175000Y289500D02*
D03*
X179500D02*
D03*
X152000Y276988D02*
D03*
X156500Y277000D02*
D03*
X161000D02*
D03*
X152000Y280988D02*
D03*
X156500Y281000D02*
D03*
X161000D02*
D03*
X156500Y289512D02*
D03*
X152000Y285488D02*
D03*
X156500Y285500D02*
D03*
X161000D02*
D03*
Y289512D02*
D03*
X152000Y289500D02*
D03*
Y246012D02*
D03*
X161000Y246024D02*
D03*
Y242012D02*
D03*
X156500D02*
D03*
X152000Y242000D02*
D03*
X156500Y246024D02*
D03*
X161000Y237512D02*
D03*
X156500D02*
D03*
X152000Y237500D02*
D03*
X161000Y233512D02*
D03*
X156500D02*
D03*
X152000Y233500D02*
D03*
X179500Y246012D02*
D03*
X175000D02*
D03*
X170500Y246000D02*
D03*
X179500Y242000D02*
D03*
X175000D02*
D03*
X170500Y241988D02*
D03*
X179500Y237512D02*
D03*
X175000D02*
D03*
X170500Y237500D02*
D03*
X179500Y233500D02*
D03*
X175000D02*
D03*
X170500Y233488D02*
D03*
X129500Y233476D02*
D03*
X134000Y233488D02*
D03*
X138500D02*
D03*
X129500Y237488D02*
D03*
X134000Y237500D02*
D03*
X138500D02*
D03*
X129500Y241976D02*
D03*
X134000Y241988D02*
D03*
X138500D02*
D03*
X129500Y245988D02*
D03*
X134000Y246000D02*
D03*
X138500D02*
D03*
X111000Y233488D02*
D03*
X115500Y233500D02*
D03*
X120000D02*
D03*
X111000Y237488D02*
D03*
X115500Y237500D02*
D03*
X120000D02*
D03*
X115500Y246012D02*
D03*
X111000Y241988D02*
D03*
X115500Y242000D02*
D03*
X120000D02*
D03*
Y246012D02*
D03*
X111000Y246000D02*
D03*
M02*
