G04*
G04 #@! TF.GenerationSoftware,Altium Limited,Altium Designer,19.1.7 (138)*
G04*
G04 Layer_Physical_Order=1*
G04 Layer_Color=255*
%FSLAX25Y25*%
%MOIN*%
G70*
G01*
G75*
%ADD11C,0.01000*%
%ADD19C,0.03000*%
%ADD20R,0.02559X0.01575*%
%ADD21R,0.03543X0.03937*%
%ADD22R,0.03150X0.03543*%
%ADD23R,0.04921X0.04331*%
%ADD24R,0.03937X0.03543*%
%ADD25R,0.03543X0.02756*%
%ADD26R,0.02756X0.03543*%
%ADD27R,0.06600X0.01400*%
%ADD28R,0.06200X0.11100*%
%ADD29R,0.07874X0.07087*%
%ADD30R,0.03740X0.06693*%
G04:AMPARAMS|DCode=31|XSize=94.49mil|YSize=122.05mil|CornerRadius=1.89mil|HoleSize=0mil|Usage=FLASHONLY|Rotation=270.000|XOffset=0mil|YOffset=0mil|HoleType=Round|Shape=RoundedRectangle|*
%AMROUNDEDRECTD31*
21,1,0.09449,0.11827,0,0,270.0*
21,1,0.09071,0.12205,0,0,270.0*
1,1,0.00378,-0.05913,-0.04535*
1,1,0.00378,-0.05913,0.04535*
1,1,0.00378,0.05913,0.04535*
1,1,0.00378,0.05913,-0.04535*
%
%ADD31ROUNDEDRECTD31*%
G04:AMPARAMS|DCode=32|XSize=23.62mil|YSize=57.09mil|CornerRadius=2.01mil|HoleSize=0mil|Usage=FLASHONLY|Rotation=0.000|XOffset=0mil|YOffset=0mil|HoleType=Round|Shape=RoundedRectangle|*
%AMROUNDEDRECTD32*
21,1,0.02362,0.05307,0,0,0.0*
21,1,0.01961,0.05709,0,0,0.0*
1,1,0.00402,0.00980,-0.02653*
1,1,0.00402,-0.00980,-0.02653*
1,1,0.00402,-0.00980,0.02653*
1,1,0.00402,0.00980,0.02653*
%
%ADD32ROUNDEDRECTD32*%
%ADD33R,0.22441X0.22173*%
%ADD34R,0.10236X0.04173*%
G04:AMPARAMS|DCode=35|XSize=17.72mil|YSize=55.12mil|CornerRadius=1.95mil|HoleSize=0mil|Usage=FLASHONLY|Rotation=90.000|XOffset=0mil|YOffset=0mil|HoleType=Round|Shape=RoundedRectangle|*
%AMROUNDEDRECTD35*
21,1,0.01772,0.05122,0,0,90.0*
21,1,0.01382,0.05512,0,0,90.0*
1,1,0.00390,0.02561,0.00691*
1,1,0.00390,0.02561,-0.00691*
1,1,0.00390,-0.02561,-0.00691*
1,1,0.00390,-0.02561,0.00691*
%
%ADD35ROUNDEDRECTD35*%
%ADD36R,0.10236X0.04724*%
%ADD38R,0.07284X0.13386*%
%ADD39O,0.08661X0.02756*%
%ADD40R,0.06693X0.03740*%
%ADD41R,0.19134X0.13228*%
%ADD42R,0.05512X0.05472*%
%ADD43R,0.07087X0.08268*%
%ADD44R,0.03543X0.03150*%
%ADD45R,0.02559X0.02756*%
%ADD46R,0.34449X0.20472*%
%ADD52R,0.02756X0.00906*%
%ADD83R,0.03600X0.05900*%
%ADD84R,0.02559X0.02480*%
%ADD85C,0.00800*%
%ADD86C,0.04000*%
%ADD87C,0.01700*%
%ADD88C,0.08000*%
%ADD89C,0.06142*%
%ADD90C,0.08661*%
%ADD91C,0.11024*%
%ADD92C,0.13780*%
%ADD93C,0.37402*%
%ADD94C,0.08268*%
%ADD95C,0.24016*%
%ADD96C,0.03000*%
%ADD97C,0.02000*%
%ADD98C,0.03200*%
G36*
X399500Y412000D02*
X399749Y412000D01*
X400208Y411810D01*
X400560Y411458D01*
X400750Y410999D01*
Y410750D01*
X400750Y386930D01*
X400750Y386929D01*
Y386595D01*
X400494Y385978D01*
X400022Y385506D01*
X399405Y385250D01*
X399070D01*
X391750Y385250D01*
X390974Y385250D01*
X389453Y385553D01*
X388019Y386146D01*
X386729Y387008D01*
X385632Y388106D01*
X384770Y389395D01*
X384176Y390829D01*
X383874Y392351D01*
Y393126D01*
X383874Y395093D01*
X383874Y395093D01*
X383855Y395476D01*
X383705Y396228D01*
X383412Y396935D01*
X382987Y397572D01*
X382445Y398113D01*
X381809Y398539D01*
X381101Y398832D01*
X380350Y398981D01*
X379967Y399000D01*
X325754D01*
X325754Y399000D01*
X324740Y398950D01*
X322750Y398554D01*
X320875Y397778D01*
X319188Y396650D01*
X317753Y395215D01*
X316625Y393528D01*
X315849Y391653D01*
X315453Y389663D01*
X315403Y388649D01*
X315403Y355586D01*
X315403Y355586D01*
X315403Y355117D01*
X315044Y354251D01*
X314381Y353587D01*
X313514Y353228D01*
X313045Y353228D01*
X308817Y353228D01*
X308817D01*
X308405Y353228D01*
X307644Y353544D01*
X307061Y354126D01*
X306746Y354887D01*
X306746Y355299D01*
Y377058D01*
X306746Y377058D01*
X306717Y377356D01*
X306489Y377907D01*
X306067Y378329D01*
X305517Y378557D01*
X305218Y378586D01*
X304500Y378586D01*
X304500D01*
X304192Y378586D01*
X303623Y378822D01*
X303188Y379257D01*
X302952Y379826D01*
X302952Y380134D01*
Y387965D01*
X302952Y389146D01*
X303183Y391496D01*
X303644Y393812D01*
X304330Y396072D01*
X305233Y398254D01*
X306347Y400337D01*
X307659Y402300D01*
X309157Y404125D01*
X310826Y405795D01*
X312652Y407294D01*
X314616Y408605D01*
X316698Y409719D01*
X318880Y410622D01*
X321140Y411308D01*
X323456Y411768D01*
X325806Y412000D01*
X326987Y412000D01*
X399500Y412000D01*
X399500Y412000D01*
D02*
G37*
G36*
X233970Y397000D02*
X233970Y397000D01*
X235494Y397000D01*
X238517Y396602D01*
X241461Y395813D01*
X244278Y394647D01*
X246918Y393123D01*
X249336Y391267D01*
X251492Y389111D01*
X253347Y386693D01*
X254871Y384053D01*
X256038Y381237D01*
X256827Y378292D01*
X257225Y375270D01*
X257225Y373745D01*
X257225Y370744D01*
Y370744D01*
X257239Y370451D01*
X257354Y369875D01*
X257578Y369333D01*
X257904Y368845D01*
X258319Y368430D01*
X258807Y368104D01*
X259350Y367879D01*
X259925Y367764D01*
X260219Y367750D01*
X279218Y367750D01*
X279218Y367750D01*
X279666Y367750D01*
X280493Y367407D01*
X281126Y366774D01*
X281469Y365947D01*
X281469Y365499D01*
X281469Y351099D01*
Y351099D01*
X281490Y350885D01*
X281654Y350488D01*
X281957Y350185D01*
X282354Y350021D01*
X282568Y350000D01*
X322563Y350000D01*
X322563D01*
X323289Y350036D01*
X324713Y350319D01*
X326054Y350874D01*
X327261Y351681D01*
X328288Y352708D01*
X329094Y353915D01*
X329650Y355256D01*
X329933Y356680D01*
X329969Y357406D01*
X329969Y360500D01*
D01*
Y360500D01*
Y360500D01*
X329969Y360749D01*
X330159Y361208D01*
X330511Y361560D01*
X330970Y361750D01*
X331219Y361750D01*
X333672Y361750D01*
X333671Y361750D01*
X333920Y361750D01*
X334380Y361560D01*
X334731Y361208D01*
X334922Y360749D01*
X334922Y360500D01*
X334922Y354797D01*
Y354797D01*
X334956Y354447D01*
X335224Y353799D01*
X335720Y353303D01*
X336368Y353035D01*
X336719Y353000D01*
X338468Y353000D01*
X338761Y353029D01*
X339302Y353253D01*
X339716Y353667D01*
X339940Y354208D01*
X339969Y354501D01*
X339969Y360680D01*
D01*
Y360680D01*
Y360680D01*
X339969Y360893D01*
X340131Y361286D01*
X340432Y361587D01*
X340826Y361750D01*
X341038Y361750D01*
X343345Y361750D01*
X343345Y361750D01*
X343679Y361750D01*
X344296Y361494D01*
X344769Y361022D01*
X345025Y360404D01*
X345025Y360070D01*
X345025Y355625D01*
Y355624D01*
X345056Y355308D01*
X345299Y354722D01*
X345747Y354274D01*
X346332Y354031D01*
X346649Y354000D01*
X348219Y354000D01*
X348219Y354000D01*
X348467Y354000D01*
X348927Y353810D01*
X349278Y353458D01*
X349469Y352999D01*
X349469Y352750D01*
X349469Y350000D01*
X349469Y339000D01*
X349469Y339000D01*
X349469Y338503D01*
X349088Y337584D01*
X348385Y336881D01*
X347466Y336500D01*
X346969Y336500D01*
X268245Y336500D01*
X268244Y336500D01*
X267524Y336476D01*
X266095Y336288D01*
X264702Y335915D01*
X263370Y335364D01*
X262122Y334643D01*
X260979Y333765D01*
X259959Y332746D01*
X259082Y331603D01*
X258361Y330354D01*
X257809Y329022D01*
X257436Y327630D01*
X257248Y326201D01*
X257225Y325480D01*
X257225Y305516D01*
Y305516D01*
X257263Y304730D01*
X257570Y303189D01*
X258171Y301737D01*
X259044Y300430D01*
X260155Y299319D01*
X261462Y298446D01*
X262914Y297845D01*
X264455Y297538D01*
X265241Y297500D01*
X267875Y297500D01*
X267875Y297500D01*
X268092Y297500D01*
X268495Y297334D01*
X268803Y297026D01*
X268969Y296624D01*
X268969Y296406D01*
X268969Y292000D01*
X268969Y292000D01*
X268969Y291801D01*
X268816Y291434D01*
X268535Y291152D01*
X268168Y291000D01*
X267969Y291000D01*
X267969Y291000D01*
X267871Y290990D01*
X267691Y290916D01*
X267553Y290778D01*
X267478Y290598D01*
X267469Y290500D01*
Y285500D01*
Y285500D01*
X267497Y285207D01*
X267721Y284666D01*
X268135Y284252D01*
X268676Y284029D01*
X268969Y284000D01*
X272319D01*
X272641Y284031D01*
X273236Y284277D01*
X273692Y284732D01*
X273938Y285328D01*
X273969Y285650D01*
X273969Y288256D01*
X273969Y288256D01*
X273968Y288506D01*
X274159Y288968D01*
X274513Y289322D01*
X274975Y289512D01*
X275225Y289512D01*
X275225Y289512D01*
X275349Y289524D01*
X275580Y289618D01*
X275756Y289795D01*
X275851Y290025D01*
X275863Y290150D01*
X275863Y296574D01*
X275863Y296574D01*
X275862Y296828D01*
X276056Y297296D01*
X276414Y297655D01*
X276883Y297848D01*
X277136Y297848D01*
X277136Y297848D01*
X277401Y297848D01*
X277891Y297645D01*
X278267Y297270D01*
X278469Y296780D01*
X278469Y296515D01*
X278469Y291500D01*
Y291500D01*
X278497Y291207D01*
X278721Y290666D01*
X279135Y290252D01*
X279676Y290029D01*
X279969Y290000D01*
X281469Y290000D01*
X281469Y290000D01*
X281867Y290000D01*
X282602Y289696D01*
X283165Y289133D01*
X283469Y288398D01*
X283469Y288000D01*
X283469Y282544D01*
Y282544D01*
X283499Y282238D01*
X283733Y281673D01*
X284165Y281240D01*
X284731Y281006D01*
X285036Y280976D01*
X324445D01*
X324445Y280976D01*
X324987Y281003D01*
X326049Y281213D01*
X327050Y281628D01*
X327950Y282229D01*
X328716Y282995D01*
X329317Y283896D01*
X329732Y284896D01*
X329942Y285959D01*
X329969Y286500D01*
X329969Y294500D01*
X333469D01*
X333469Y288575D01*
Y288575D01*
X333505Y288206D01*
X333787Y287525D01*
X334309Y287003D01*
X334990Y286721D01*
X335359Y286685D01*
X338154D01*
X338508Y286719D01*
X339163Y286990D01*
X339664Y287491D01*
X339934Y288146D01*
X339969Y288500D01*
X339969Y294500D01*
X343799D01*
X343799Y288769D01*
Y288769D01*
X343833Y288423D01*
X344097Y287786D01*
X344585Y287298D01*
X345223Y287034D01*
X345568Y287000D01*
X358469Y287000D01*
X358469Y287000D01*
X358668Y287000D01*
X359036Y286848D01*
X359317Y286567D01*
X359469Y286199D01*
X359469Y286000D01*
X359469Y279043D01*
X359469Y279043D01*
X359469Y278325D01*
X359189Y276916D01*
X358639Y275589D01*
X357840Y274394D01*
X356825Y273378D01*
X355630Y272580D01*
X354303Y272030D01*
X352894Y271750D01*
X352175Y271750D01*
X271355Y271750D01*
Y271750D01*
X270009Y271750D01*
X267332Y272014D01*
X264692Y272539D01*
X262118Y273320D01*
X259632Y274349D01*
X257259Y275618D01*
X255021Y277113D01*
X252941Y278820D01*
X251039Y280722D01*
X249332Y282802D01*
X247837Y285040D01*
X246568Y287413D01*
X245539Y289899D01*
X244758Y292474D01*
X244233Y295113D01*
X243969Y297791D01*
Y299136D01*
X243969Y335251D01*
X243968Y335250D01*
X243936Y336215D01*
X243685Y338128D01*
X243186Y339991D01*
X242448Y341774D01*
X241483Y343445D01*
X240309Y344975D01*
X238945Y346340D01*
X237414Y347514D01*
X235743Y348479D01*
X233961Y349217D01*
X232097Y349717D01*
X230184Y349968D01*
X229220Y350000D01*
X217812D01*
X217089Y350000D01*
X215670Y350282D01*
X214334Y350836D01*
X213131Y351640D01*
X212108Y352663D01*
X211304Y353866D01*
X210751Y355202D01*
X210469Y356621D01*
X210469Y357345D01*
X210469Y376250D01*
X210468Y376250D01*
X210426Y377107D01*
X210092Y378789D01*
X209435Y380374D01*
X208483Y381801D01*
X207270Y383014D01*
X205843Y383967D01*
X204259Y384623D01*
X202576Y384958D01*
X201719Y385000D01*
X195969Y385000D01*
X195969Y385000D01*
X195460D01*
X194462Y385199D01*
X193522Y385588D01*
X192675Y386154D01*
X191956Y386873D01*
X191391Y387719D01*
X191001Y388659D01*
X190803Y389657D01*
Y390166D01*
Y393834D01*
X190803Y393833D01*
X190803Y394145D01*
X190924Y394757D01*
X191163Y395333D01*
X191509Y395852D01*
X191950Y396293D01*
X192469Y396640D01*
X193045Y396879D01*
X193657Y397000D01*
X193969Y397000D01*
X210469Y397000D01*
X233970Y397000D01*
D02*
G37*
G36*
X287354Y396072D02*
X288116Y396072D01*
X289610Y395775D01*
X291018Y395192D01*
X292285Y394345D01*
X293362Y393268D01*
X294208Y392001D01*
X294791Y390594D01*
X295089Y389100D01*
X295089Y388338D01*
X295089Y388338D01*
X295089Y381087D01*
X287500Y385250D01*
X287500Y386164D01*
X287480Y386572D01*
X287321Y387371D01*
X287009Y388124D01*
X286556Y388801D01*
X285980Y389377D01*
X285303Y389830D01*
X284550Y390142D01*
X283751Y390301D01*
X283343Y390321D01*
X283343Y390321D01*
X280028Y390321D01*
Y396072D01*
X287354Y396072D01*
D02*
G37*
G36*
X398937Y374877D02*
X399627Y374187D01*
X400000Y373286D01*
X400000Y372798D01*
X400000Y341400D01*
X400000Y341400D01*
X400000Y341139D01*
X399898Y340627D01*
X399698Y340145D01*
X399408Y339711D01*
X399039Y339342D01*
X398605Y339052D01*
X398123Y338853D01*
X397611Y338751D01*
X397350D01*
X381186Y338751D01*
X381186Y338751D01*
X381042Y338737D01*
X380777Y338627D01*
X380574Y338423D01*
X380464Y338158D01*
X380450Y338015D01*
Y336958D01*
X373617D01*
X373617Y362484D01*
X373617Y362484D01*
X373586Y362795D01*
X373348Y363368D01*
X372909Y363808D01*
X372336Y364045D01*
X372025Y364076D01*
X371453Y364076D01*
X371453Y364076D01*
X371264D01*
X370913Y364221D01*
X370645Y364489D01*
X370500Y364840D01*
X370500Y365029D01*
Y373576D01*
X370500Y373576D01*
X370500Y373909D01*
X370755Y374524D01*
X371226Y374995D01*
X371841Y375250D01*
X372174Y375250D01*
X397548Y375250D01*
X397548Y375250D01*
X398036Y375250D01*
X398937Y374877D01*
D02*
G37*
G36*
X156416Y372119D02*
X157119Y371416D01*
X157500Y370497D01*
X157500Y370000D01*
X157500Y370000D01*
Y352266D01*
X157518Y351900D01*
X157661Y351182D01*
X157941Y350506D01*
X158348Y349897D01*
X158865Y349379D01*
X159474Y348973D01*
X160151Y348692D01*
X160869Y348550D01*
X161235Y348532D01*
X161235D01*
X223468Y348532D01*
X224650Y348532D01*
X226994Y348223D01*
X229277Y347611D01*
X231461Y346707D01*
X233508Y345525D01*
X235383Y344086D01*
X237054Y342414D01*
X238493Y340539D01*
X239675Y338492D01*
X240580Y336309D01*
X241192Y334025D01*
X241500Y331682D01*
X241500Y330500D01*
X241500Y330500D01*
X241500Y243331D01*
Y242806D01*
X241295Y241776D01*
X240893Y240806D01*
X240310Y239933D01*
X239567Y239190D01*
X238694Y238607D01*
X237724Y238205D01*
X236694Y238000D01*
X236169D01*
Y238000D01*
X216652Y238000D01*
X198184Y238000D01*
X197477Y238000D01*
X196089Y238276D01*
X194781Y238818D01*
X193605Y239604D01*
X192604Y240604D01*
X191818Y241781D01*
X191276Y243089D01*
X191000Y244477D01*
X191000Y245184D01*
X191000Y245184D01*
X191000Y296500D01*
X190967Y297180D01*
X190701Y298515D01*
X190181Y299772D01*
X189425Y300903D01*
X188462Y301866D01*
X187331Y302621D01*
X186074Y303142D01*
X184739Y303408D01*
X184059Y303441D01*
X184059Y303441D01*
X155234Y303441D01*
X154620Y303441D01*
X153416Y303680D01*
X152281Y304150D01*
X151260Y304833D01*
X150392Y305701D01*
X149709Y306722D01*
X149240Y307857D01*
X149000Y309061D01*
X149000Y309675D01*
Y309675D01*
X149000Y340303D01*
X148968Y340959D01*
X148712Y342247D01*
X148209Y343460D01*
X147480Y344551D01*
X146551Y345480D01*
X145460Y346209D01*
X144247Y346711D01*
X142959Y346968D01*
X142303Y347000D01*
X142303Y347000D01*
X136000Y347000D01*
X135705Y347000D01*
X135125Y347115D01*
X134579Y347341D01*
X134088Y347670D01*
X133670Y348088D01*
X133341Y348579D01*
X133115Y349125D01*
X133000Y349704D01*
X133000Y350000D01*
Y350000D01*
Y359000D01*
Y359497D01*
X133381Y360416D01*
X134084Y361119D01*
X135003Y361500D01*
X135500D01*
X135500Y361500D01*
X144500Y361500D01*
X144988Y361548D01*
X145889Y361921D01*
X146579Y362611D01*
X146952Y363512D01*
X147000Y364000D01*
X147000Y364000D01*
X147000Y369500D01*
Y369795D01*
X147115Y370375D01*
X147341Y370921D01*
X147670Y371412D01*
X148088Y371830D01*
X148579Y372159D01*
X149125Y372385D01*
X149704Y372500D01*
X150000D01*
X150000Y372500D01*
X155000Y372500D01*
X155497Y372500D01*
X156416Y372119D01*
D02*
G37*
G36*
X355969Y382356D02*
X355969Y382356D01*
X356476Y382356D01*
X357469Y382158D01*
X358405Y381771D01*
X359247Y381208D01*
X359963Y380492D01*
X360526Y379650D01*
X360913Y378714D01*
X361111Y377721D01*
Y377214D01*
Y368228D01*
X353883D01*
X353883Y374833D01*
X353883D01*
X353841Y375256D01*
X353518Y376037D01*
X352920Y376635D01*
X352139Y376958D01*
X351716Y377000D01*
X347250Y377000D01*
X347500Y382356D01*
X355969Y382356D01*
D02*
G37*
G36*
X177750Y366797D02*
X162000D01*
Y376500D01*
X177750D01*
Y366797D01*
D02*
G37*
G36*
X281569Y382750D02*
X282078Y382750D01*
X283078Y382551D01*
X284019Y382161D01*
X284867Y381595D01*
X285587Y380874D01*
X286153Y380027D01*
X286543Y379086D01*
X286742Y378086D01*
Y377577D01*
X286742Y376620D01*
X286742Y376619D01*
X286763Y376190D01*
X286930Y375349D01*
X287259Y374557D01*
X287735Y373844D01*
X288342Y373238D01*
X289055Y372761D01*
X289847Y372433D01*
X290688Y372266D01*
X291117Y372245D01*
X299060D01*
X299060Y372245D01*
X299444Y372245D01*
X300195Y372095D01*
X300904Y371802D01*
X301541Y371376D01*
X302083Y370834D01*
X302509Y370197D01*
X302802Y369488D01*
X302952Y368736D01*
X302952Y368353D01*
X302952Y354805D01*
X302952Y354805D01*
X302952Y354479D01*
X302825Y353841D01*
X302576Y353239D01*
X302214Y352698D01*
X301754Y352238D01*
X301213Y351876D01*
X300611Y351627D01*
X299973Y351500D01*
X299647Y351500D01*
X287437D01*
X287437Y351500D01*
X287055Y351500D01*
X286350Y351792D01*
X285810Y352332D01*
X285518Y353037D01*
X285518Y353418D01*
X285518Y365272D01*
X285518Y365271D01*
X285501Y365622D01*
X285364Y366309D01*
X285096Y366956D01*
X284707Y367538D01*
X284212Y368034D01*
X283630Y368423D01*
X282983Y368691D01*
X282296Y368827D01*
X281945Y368845D01*
X280906Y368845D01*
X280905D01*
X280662Y368845D01*
X280212Y369031D01*
X279868Y369375D01*
X279681Y369825D01*
X279681Y370069D01*
Y375571D01*
X279681Y375571D01*
X279634Y376052D01*
X279266Y376940D01*
X278586Y377620D01*
X277698Y377988D01*
X277217Y378036D01*
X276416Y378036D01*
Y382750D01*
X281569D01*
X281569Y382750D01*
D02*
G37*
G36*
X138725Y340714D02*
X140080Y340152D01*
X141300Y339337D01*
X142337Y338300D01*
X143152Y337080D01*
X143714Y335725D01*
X144000Y334286D01*
X144000Y333553D01*
X144000Y333553D01*
X144000Y303800D01*
X144033Y303133D01*
X144293Y301826D01*
X144803Y300594D01*
X145543Y299486D01*
X146486Y298544D01*
X147594Y297803D01*
X148826Y297293D01*
X150133Y297033D01*
X150800Y297000D01*
X150800Y297000D01*
X182097Y297000D01*
X182531Y297000D01*
X183381Y296831D01*
X184183Y296499D01*
X184904Y296017D01*
X185517Y295404D01*
X185999Y294683D01*
X186331Y293881D01*
X186500Y293031D01*
X186500Y292597D01*
X186500Y292597D01*
X186500Y274357D01*
X186500Y273999D01*
X186360Y273296D01*
X186086Y272635D01*
X185688Y272039D01*
X185182Y271532D01*
X184586Y271134D01*
X183924Y270860D01*
X183222Y270721D01*
X182863Y270721D01*
X182863D01*
X107780Y270721D01*
X107457D01*
X106823Y270847D01*
X106226Y271094D01*
X105689Y271453D01*
X105232Y271909D01*
X104873Y272447D01*
X104626Y273043D01*
X104500Y273677D01*
Y274000D01*
X104500D01*
Y334000D01*
Y334689D01*
X104769Y336042D01*
X105297Y337316D01*
X106063Y338462D01*
X107038Y339437D01*
X108184Y340203D01*
X109458Y340731D01*
X110810Y341000D01*
X111500D01*
X111500Y341000D01*
X124000Y341000D01*
X136553Y341000D01*
X137286Y341000D01*
X138725Y340714D01*
D02*
G37*
G36*
X399350Y312228D02*
X393500Y312228D01*
X393500Y312228D01*
X393465Y312894D01*
X393189Y314196D01*
X392647Y315412D01*
X391865Y316490D01*
X390876Y317381D01*
X389724Y318047D01*
X388458Y318460D01*
X387134Y318600D01*
X386468Y318566D01*
X386077Y318566D01*
X385311Y318718D01*
X384589Y319017D01*
X383939Y319451D01*
X383386Y320004D01*
X382951Y320654D01*
X382652Y321376D01*
X382500Y322143D01*
X382500Y322534D01*
Y331810D01*
X382500Y331810D01*
X382500Y332272D01*
X382680Y333178D01*
X383034Y334031D01*
X383547Y334800D01*
X384200Y335453D01*
X384968Y335966D01*
X385822Y336320D01*
X386728Y336500D01*
X387190Y336500D01*
X399500Y336500D01*
X399350Y312228D01*
D02*
G37*
G36*
X346169Y369000D02*
X346169Y369000D01*
X346607Y369000D01*
X347465Y368829D01*
X348273Y368494D01*
X349001Y368008D01*
X349619Y367390D01*
X350106Y366662D01*
X350440Y365854D01*
X350611Y364996D01*
Y364558D01*
X350611Y363517D01*
X350611Y363517D01*
X350625Y363233D01*
X350736Y362677D01*
X350953Y362153D01*
X351268Y361682D01*
X351669Y361281D01*
X352140Y360966D01*
X352664Y360749D01*
X353220Y360638D01*
X353504Y360624D01*
X363671D01*
X363671Y360624D01*
X364300Y360624D01*
X365535Y360379D01*
X366699Y359897D01*
X367746Y359197D01*
X368636Y358307D01*
X369335Y357260D01*
X369817Y356097D01*
X370063Y354862D01*
Y354232D01*
X370063Y338666D01*
X370063Y338666D01*
X370063Y338349D01*
X369939Y337729D01*
X369697Y337144D01*
X369346Y336618D01*
X368898Y336170D01*
X368372Y335819D01*
X367787Y335576D01*
X367167Y335453D01*
X366850Y335453D01*
X355237Y335453D01*
X355237Y335453D01*
X354956Y335453D01*
X354403Y335563D01*
X353883Y335778D01*
X353415Y336091D01*
X353016Y336490D01*
X352703Y336958D01*
X352488Y337478D01*
X352378Y338031D01*
X352378Y338312D01*
X352378Y352507D01*
X352378Y352507D01*
X352365Y352776D01*
X352260Y353303D01*
X352054Y353800D01*
X351755Y354247D01*
X351375Y354627D01*
X350928Y354926D01*
X350431Y355132D01*
X349904Y355237D01*
X349635Y355250D01*
X346614Y355250D01*
X346473D01*
X346213Y355358D01*
X346014Y355557D01*
X345907Y355817D01*
X345907Y355957D01*
X345907Y361494D01*
X345907Y362393D01*
X345907Y362393D01*
X345871Y362755D01*
X345594Y363425D01*
X345082Y363937D01*
X344412Y364214D01*
X344050Y364250D01*
X343543Y364250D01*
Y369000D01*
X346169Y369000D01*
D02*
G37*
G36*
X320968Y334032D02*
X321340Y334032D01*
X322070Y333887D01*
X322758Y333602D01*
X323377Y333188D01*
X323903Y332662D01*
X324317Y332043D01*
X324602Y331355D01*
X324747Y330625D01*
X324747Y330253D01*
X324747Y323004D01*
X324747Y323004D01*
Y322638D01*
X324604Y321920D01*
X324324Y321244D01*
X323918Y320635D01*
X323400Y320117D01*
X322791Y319711D01*
X322115Y319431D01*
X321397Y319288D01*
X321031D01*
X321031Y319288D01*
X320734Y319273D01*
X320151Y319157D01*
X319602Y318930D01*
X319108Y318600D01*
X318688Y318180D01*
X318358Y317686D01*
X318130Y317137D01*
X318015Y316554D01*
X318000Y316257D01*
X318000Y289644D01*
X318000Y289644D01*
Y289219D01*
X317834Y288385D01*
X317509Y287599D01*
X317036Y286893D01*
X316435Y286291D01*
X315728Y285819D01*
X314943Y285494D01*
X314109Y285328D01*
X310671D01*
X308849Y285367D01*
X308849D01*
X308567Y285373D01*
X308014Y285493D01*
X307495Y285718D01*
X307029Y286039D01*
X306633Y286443D01*
X306323Y286916D01*
X306109Y287440D01*
X306000Y287995D01*
X306000Y288278D01*
X306000Y321158D01*
Y321487D01*
X306128Y322133D01*
X306380Y322741D01*
X306746Y323288D01*
X307212Y323754D01*
X307759Y324120D01*
X308367Y324372D01*
X309013Y324500D01*
X309342D01*
X309342Y324500D01*
X309775Y324521D01*
X310624Y324690D01*
X311424Y325021D01*
X312144Y325501D01*
X312757Y326113D01*
X313238Y326832D01*
X313571Y327631D01*
X313741Y328480D01*
X313763Y328913D01*
X313764Y329527D01*
X313764Y329527D01*
X313765Y329971D01*
X313939Y330841D01*
X314280Y331662D01*
X314774Y332399D01*
X315403Y333027D01*
X316142Y333520D01*
X316962Y333859D01*
X317833Y334032D01*
X318277Y334032D01*
X320968Y334032D01*
X320968Y334032D01*
D02*
G37*
G36*
X292000Y310500D02*
X288475D01*
X288475Y310500D01*
X288460Y310794D01*
X288346Y311371D01*
X288121Y311914D01*
X287794Y312403D01*
X287378Y312819D01*
X286889Y313146D01*
X286346Y313371D01*
X285769Y313486D01*
X285475Y313500D01*
X282414Y313500D01*
X282394Y319000D01*
X285197Y319000D01*
D01*
X285197D01*
X285197D01*
X285518Y319016D01*
X286149Y319141D01*
X286742Y319387D01*
X287277Y319744D01*
X287731Y320198D01*
X288088Y320733D01*
X288334Y321326D01*
X288459Y321956D01*
X288475Y322278D01*
X292000Y322278D01*
Y310500D01*
D02*
G37*
G36*
X375500Y318000D02*
X376189Y318000D01*
X377542Y317731D01*
X378816Y317203D01*
X379962Y316437D01*
X380937Y315462D01*
X381703Y314316D01*
X382231Y313042D01*
X382500Y311689D01*
X382500Y311000D01*
X382500Y311000D01*
X382500Y302733D01*
X382520Y302318D01*
X382682Y301504D01*
X383000Y300738D01*
X383461Y300048D01*
X384048Y299461D01*
X384738Y299000D01*
X385504Y298682D01*
X386318Y298520D01*
X386733Y298500D01*
X386733D01*
X398500Y298500D01*
X398798Y298500D01*
X399350Y298272D01*
X399772Y297850D01*
X400000Y297298D01*
X400000Y297000D01*
X400000Y297000D01*
X400000Y264500D01*
Y264102D01*
X399695Y263367D01*
X399133Y262805D01*
X398398Y262500D01*
X398000Y262500D01*
X393500D01*
X392909Y262500D01*
X391750Y262731D01*
X390658Y263183D01*
X389675Y263840D01*
X388840Y264675D01*
X388183Y265658D01*
X387731Y266750D01*
X387500Y267909D01*
X387500Y268500D01*
Y268500D01*
X387500Y278730D01*
X387475Y279237D01*
X387278Y280230D01*
X386890Y281165D01*
X386327Y282007D01*
X385611Y282723D01*
X384769Y283286D01*
X383834Y283674D01*
X382840Y283871D01*
X382334Y283896D01*
X382334Y283896D01*
X374251Y283896D01*
X373931Y283896D01*
X373303Y284021D01*
X372711Y284266D01*
X372179Y284622D01*
X371726Y285075D01*
X371370Y285607D01*
X371125Y286199D01*
X371000Y286827D01*
Y287147D01*
Y287147D01*
X371000Y307000D01*
X370971Y307293D01*
X370747Y307833D01*
X370333Y308247D01*
X369793Y308471D01*
X369500Y308500D01*
X369500Y308500D01*
X369049D01*
X368216Y308845D01*
X367578Y309483D01*
X367233Y310316D01*
Y310767D01*
Y310767D01*
X367233Y315733D01*
Y316184D01*
X367579Y317017D01*
X368216Y317655D01*
X369049Y318000D01*
X369500Y318000D01*
X369500Y318000D01*
X375500Y318000D01*
D02*
G37*
G36*
X353000Y309899D02*
X347000D01*
Y315000D01*
X349500Y315000D01*
X349890Y315038D01*
X350611Y315337D01*
X351163Y315889D01*
X351462Y316610D01*
X351500Y317000D01*
X351500Y317000D01*
X353000Y317000D01*
Y309899D01*
D02*
G37*
G36*
X439022Y297250D02*
X439062Y296422D01*
X439386Y294799D01*
X440019Y293269D01*
X440939Y291893D01*
X442109Y290722D01*
X443486Y289803D01*
X445015Y289169D01*
X446639Y288846D01*
X447466Y288805D01*
X460444D01*
X460444Y288805D01*
X460745Y288805D01*
X461336Y288688D01*
X461892Y288458D01*
X462392Y288123D01*
X462818Y287698D01*
X463152Y287197D01*
X463383Y286641D01*
X463500Y286051D01*
Y285750D01*
X463500Y285092D01*
X463500Y285092D01*
X463500Y284787D01*
X463381Y284190D01*
X463148Y283627D01*
X462810Y283121D01*
X462379Y282690D01*
X461873Y282352D01*
X461310Y282119D01*
X460713Y282000D01*
X460408Y282000D01*
X447520Y282000D01*
X447520Y282000D01*
X446677Y281959D01*
X445025Y281630D01*
X443469Y280985D01*
X442069Y280049D01*
X440878Y278858D01*
X439942Y277458D01*
X439297Y275902D01*
X438969Y274250D01*
X438927Y273407D01*
X438927Y262731D01*
X439022Y262615D01*
X424896Y262615D01*
X424896D01*
X424419Y262615D01*
X423539Y262980D01*
X422865Y263654D01*
X422500Y264534D01*
X422500Y265011D01*
X422500Y292704D01*
X422500Y293142D01*
X422671Y294001D01*
X423006Y294810D01*
X423492Y295538D01*
X424111Y296157D01*
X424839Y296643D01*
X425649Y296978D01*
X426508Y297149D01*
X426945Y297149D01*
X439022Y297250D01*
Y297250D01*
D02*
G37*
G36*
X280882Y306516D02*
X280882Y306516D01*
X280921Y306122D01*
X281222Y305396D01*
X281778Y304840D01*
X282505Y304539D01*
X282898Y304500D01*
X296382Y304500D01*
X296382Y304500D01*
X296738Y304500D01*
X297437Y304361D01*
X298096Y304088D01*
X298688Y303692D01*
X299192Y303188D01*
X299588Y302596D01*
X299861Y301938D01*
X300000Y301239D01*
Y300882D01*
X300000Y286655D01*
X299999Y286654D01*
X299999Y286234D01*
X299836Y285411D01*
X299514Y284635D01*
X299048Y283937D01*
X298454Y283343D01*
X297756Y282876D01*
X296980Y282555D01*
X296156Y282391D01*
X295736D01*
X291104Y282391D01*
X291104D01*
X290686Y282391D01*
X289912Y282712D01*
X289320Y283304D01*
X289000Y284077D01*
X289000Y284496D01*
X289000Y287644D01*
X289000D01*
X288985Y287942D01*
X288869Y288528D01*
X288641Y289079D01*
X288309Y289575D01*
X287887Y289997D01*
X287391Y290328D01*
X286840Y290557D01*
X286255Y290673D01*
X285956Y290688D01*
X283613Y290688D01*
X283613D01*
X283344Y290688D01*
X282817Y290793D01*
X282320Y290999D01*
X281872Y291297D01*
X281492Y291678D01*
X281193Y292125D01*
X280987Y292622D01*
X280882Y293150D01*
X280882Y293419D01*
Y298960D01*
X280882Y298960D01*
X280845Y299335D01*
X280558Y300028D01*
X280028Y300558D01*
X279335Y300845D01*
X278960Y300882D01*
X278960Y307000D01*
X280882D01*
X280882Y306516D01*
D02*
G37*
G36*
X345500Y304352D02*
X345546Y303881D01*
X345907Y303011D01*
X346573Y302344D01*
X347443Y301984D01*
X347914Y301938D01*
X362562D01*
X362562Y301937D01*
X362944Y301938D01*
X363693Y301789D01*
X364398Y301497D01*
X365032Y301073D01*
X365572Y300533D01*
X365996Y299898D01*
X366288Y299193D01*
X366437Y298445D01*
X366437Y298063D01*
X366437Y284563D01*
Y284563D01*
X366449Y284441D01*
X366543Y284215D01*
X366715Y284042D01*
X366941Y283949D01*
X367063Y283937D01*
X367063Y283937D01*
X367174Y283937D01*
X367380Y283852D01*
X367537Y283695D01*
X367622Y283489D01*
X367622Y283378D01*
X367622Y275122D01*
X367622Y275122D01*
Y274858D01*
X367420Y274371D01*
X367047Y273997D01*
X366559Y273796D01*
X366296D01*
X363681Y273796D01*
X363347D01*
X362729Y274051D01*
X362256Y274524D01*
X362000Y275142D01*
Y275476D01*
X362000Y285000D01*
X362000Y285000D01*
X361985Y285294D01*
X361871Y285871D01*
X361646Y286414D01*
X361319Y286903D01*
X360903Y287319D01*
X360414Y287646D01*
X359871Y287871D01*
X359294Y287985D01*
X359000Y288000D01*
X345756Y288000D01*
X345756Y293744D01*
X345756D01*
X345741Y294046D01*
X345623Y294639D01*
X345392Y295198D01*
X345056Y295700D01*
X344629Y296128D01*
X344126Y296464D01*
X343567Y296695D01*
X342975Y296813D01*
X342672Y296828D01*
X342500Y296828D01*
Y305500D01*
X345500D01*
Y304352D01*
D02*
G37*
G36*
X183000Y251500D02*
X183394D01*
X184167Y251346D01*
X184895Y251045D01*
X185550Y250607D01*
X186107Y250050D01*
X186545Y249395D01*
X186846Y248667D01*
X186986Y247963D01*
X187000Y247503D01*
Y247500D01*
X187000Y247500D01*
X187000Y247500D01*
X187000Y225500D01*
X187000Y224287D01*
X186683Y221883D01*
X186056Y219541D01*
X185128Y217300D01*
X183915Y215200D01*
X182439Y213276D01*
X180724Y211561D01*
X178800Y210085D01*
X176700Y208872D01*
X174459Y207944D01*
X172117Y207316D01*
X169712Y207000D01*
X168994Y207000D01*
X168500Y207000D01*
X168500Y207000D01*
X168500Y207000D01*
X162262Y207000D01*
X161198Y206965D01*
X159090Y206688D01*
X157035Y206137D01*
X155069Y205323D01*
X153227Y204259D01*
X151540Y202964D01*
X150036Y201460D01*
X148740Y199773D01*
X147677Y197930D01*
X146863Y195965D01*
X146312Y193910D01*
X146035Y191801D01*
X146000Y190738D01*
X146000D01*
X146000Y190738D01*
X146000Y180791D01*
X146045Y179880D01*
X146400Y178094D01*
X147097Y176411D01*
X148109Y174897D01*
X149397Y173609D01*
X150911Y172597D01*
X152594Y171900D01*
X154380Y171545D01*
X155291Y171500D01*
X155291Y171500D01*
X465000Y171500D01*
X465492D01*
X466458Y171308D01*
X467368Y170931D01*
X468187Y170384D01*
X468884Y169687D01*
X469431Y168868D01*
X469808Y167958D01*
X470000Y166992D01*
Y166500D01*
X470000Y166500D01*
X470000Y166500D01*
Y103000D01*
X114681D01*
X113056Y103214D01*
X111473Y103638D01*
X109959Y104265D01*
X108540Y105084D01*
X107240Y106082D01*
X106082Y107240D01*
X105084Y108540D01*
X104265Y109959D01*
X103638Y111473D01*
X103214Y113056D01*
X103000Y114681D01*
Y115500D01*
X103000D01*
X103000Y247500D01*
X103000Y247894D01*
X103154Y248667D01*
X103455Y249395D01*
X103893Y250050D01*
X104450Y250607D01*
X105105Y251045D01*
X105833Y251346D01*
X106606Y251500D01*
X107000Y251500D01*
X107000Y251500D01*
X183000Y251500D01*
D02*
G37*
G36*
X208622Y236240D02*
X208867Y235994D01*
X209000Y235673D01*
X209000Y235500D01*
X209000Y235500D01*
Y230500D01*
X209038Y230110D01*
X209337Y229389D01*
X209889Y228837D01*
X210610Y228538D01*
X211000Y228500D01*
X211000Y228500D01*
X214500Y228500D01*
X214890Y228538D01*
X215611Y228837D01*
X216163Y229389D01*
X216461Y230110D01*
X216500Y230500D01*
X216500Y230500D01*
Y235000D01*
Y235199D01*
X216652Y235566D01*
X216933Y235848D01*
X217301Y236000D01*
X217499D01*
X217500Y236000D01*
X231500Y236000D01*
X231975Y236000D01*
X232854Y235636D01*
X233526Y234964D01*
X233890Y234085D01*
X233890Y233610D01*
X233890Y233610D01*
Y229008D01*
X233928Y228616D01*
X234228Y227892D01*
X234782Y227338D01*
X235506Y227039D01*
X235898Y227000D01*
X235898D01*
X416000Y227000D01*
X417016Y227000D01*
X419030Y226735D01*
X420993Y226209D01*
X422870Y225431D01*
X424630Y224415D01*
X426242Y223179D01*
X427678Y221742D01*
X428915Y220130D01*
X429931Y218370D01*
X430709Y216493D01*
X431235Y214530D01*
X431500Y212516D01*
X431500Y211500D01*
X431500Y211500D01*
X431540Y210290D01*
X431855Y207891D01*
X432482Y205553D01*
X433408Y203318D01*
X434618Y201222D01*
X436091Y199302D01*
X437802Y197591D01*
X439722Y196118D01*
X441818Y194908D01*
X444053Y193982D01*
X446391Y193356D01*
X448790Y193040D01*
X450000Y193000D01*
X450000D01*
X455500Y193000D01*
X455943Y193000D01*
X456813Y192827D01*
X457632Y192488D01*
X458369Y191995D01*
X458995Y191369D01*
X459488Y190631D01*
X459827Y189813D01*
X460000Y188943D01*
X460000Y188500D01*
X460000Y188500D01*
X460000Y179500D01*
X460000Y178958D01*
X459789Y177896D01*
X459374Y176895D01*
X458772Y175994D01*
X458006Y175228D01*
X457105Y174626D01*
X456104Y174211D01*
X455042Y174000D01*
X454500Y174000D01*
X454500D01*
X155500Y174000D01*
X154811Y174000D01*
X153458Y174269D01*
X152184Y174797D01*
X151038Y175563D01*
X150063Y176538D01*
X149297Y177684D01*
X148769Y178958D01*
X148500Y180310D01*
X148500Y181000D01*
Y181000D01*
X148500Y191500D01*
Y192352D01*
X148722Y194042D01*
X149163Y195688D01*
X149816Y197262D01*
X150668Y198738D01*
X151705Y200090D01*
X152910Y201295D01*
X154262Y202332D01*
X155738Y203184D01*
X157312Y203836D01*
X158958Y204278D01*
X160648Y204500D01*
X161500D01*
X161500Y204500D01*
X167500D01*
X168653Y204528D01*
X170948Y204754D01*
X173210Y205204D01*
X175417Y205874D01*
X177548Y206756D01*
X179581Y207843D01*
X181499Y209125D01*
X183282Y210588D01*
X184912Y212218D01*
X186375Y214001D01*
X187657Y215919D01*
X188744Y217952D01*
X189626Y220083D01*
X190296Y222290D01*
X190746Y224552D01*
X190972Y226847D01*
X191000Y228000D01*
X191000Y228000D01*
X191000Y233441D01*
Y233730D01*
X191113Y234296D01*
X191334Y234830D01*
X191655Y235310D01*
X192063Y235718D01*
X192543Y236039D01*
X193077Y236260D01*
X193643Y236373D01*
X193932Y236373D01*
X208127Y236373D01*
X208301D01*
X208622Y236240D01*
D02*
G37*
%LPC*%
G36*
X338468Y353000D02*
D01*
X338468D01*
X338468D01*
D02*
G37*
G36*
X422500Y292704D02*
Y292704D01*
D01*
Y292704D01*
D02*
G37*
G36*
X453500Y141585D02*
X451993Y141437D01*
X450543Y140997D01*
X449207Y140283D01*
X448036Y139322D01*
X447075Y138151D01*
X446361Y136815D01*
X445922Y135366D01*
X445773Y133858D01*
X445922Y132351D01*
X446361Y130901D01*
X447075Y129565D01*
X448036Y128394D01*
X449207Y127434D01*
X450543Y126719D01*
X451993Y126280D01*
X453500Y126131D01*
X455008Y126280D01*
X456457Y126719D01*
X457793Y127434D01*
X458964Y128394D01*
X459925Y129565D01*
X460639Y130901D01*
X461079Y132351D01*
X461227Y133858D01*
X461079Y135366D01*
X460639Y136815D01*
X459925Y138151D01*
X458964Y139322D01*
X457793Y140283D01*
X456457Y140997D01*
X455008Y141437D01*
X453500Y141585D01*
D02*
G37*
G36*
X411500D02*
X409993Y141437D01*
X408543Y140997D01*
X407207Y140283D01*
X406036Y139322D01*
X405075Y138151D01*
X404361Y136815D01*
X403922Y135366D01*
X403773Y133858D01*
X403922Y132351D01*
X404361Y130901D01*
X405075Y129565D01*
X406036Y128394D01*
X407207Y127434D01*
X408543Y126719D01*
X409993Y126280D01*
X411500Y126131D01*
X413007Y126280D01*
X414457Y126719D01*
X415793Y127434D01*
X416964Y128394D01*
X417925Y129565D01*
X418639Y130901D01*
X419078Y132351D01*
X419227Y133858D01*
X419078Y135366D01*
X418639Y136815D01*
X417925Y138151D01*
X416964Y139322D01*
X415793Y140283D01*
X414457Y140997D01*
X413007Y141437D01*
X411500Y141585D01*
D02*
G37*
G36*
X369500D02*
X367992Y141437D01*
X366543Y140997D01*
X365207Y140283D01*
X364036Y139322D01*
X363075Y138151D01*
X362361Y136815D01*
X361922Y135366D01*
X361773Y133858D01*
X361922Y132351D01*
X362361Y130901D01*
X363075Y129565D01*
X364036Y128394D01*
X365207Y127434D01*
X366543Y126719D01*
X367992Y126280D01*
X369500Y126131D01*
X371007Y126280D01*
X372457Y126719D01*
X373793Y127434D01*
X374964Y128394D01*
X375925Y129565D01*
X376639Y130901D01*
X377079Y132351D01*
X377227Y133858D01*
X377079Y135366D01*
X376639Y136815D01*
X375925Y138151D01*
X374964Y139322D01*
X373793Y140283D01*
X372457Y140997D01*
X371007Y141437D01*
X369500Y141585D01*
D02*
G37*
G36*
X327000D02*
X325493Y141437D01*
X324043Y140997D01*
X322707Y140283D01*
X321536Y139322D01*
X320575Y138151D01*
X319861Y136815D01*
X319422Y135366D01*
X319273Y133858D01*
X319422Y132351D01*
X319861Y130901D01*
X320575Y129565D01*
X321536Y128394D01*
X322707Y127434D01*
X324043Y126719D01*
X325493Y126280D01*
X327000Y126131D01*
X328507Y126280D01*
X329957Y126719D01*
X331293Y127434D01*
X332464Y128394D01*
X333425Y129565D01*
X334139Y130901D01*
X334578Y132351D01*
X334727Y133858D01*
X334578Y135366D01*
X334139Y136815D01*
X333425Y138151D01*
X332464Y139322D01*
X331293Y140283D01*
X329957Y140997D01*
X328507Y141437D01*
X327000Y141585D01*
D02*
G37*
G36*
X284000D02*
X282492Y141437D01*
X281043Y140997D01*
X279707Y140283D01*
X278536Y139322D01*
X277575Y138151D01*
X276861Y136815D01*
X276421Y135366D01*
X276273Y133858D01*
X276421Y132351D01*
X276861Y130901D01*
X277575Y129565D01*
X278536Y128394D01*
X279707Y127434D01*
X281043Y126719D01*
X282492Y126280D01*
X284000Y126131D01*
X285507Y126280D01*
X286957Y126719D01*
X288293Y127434D01*
X289464Y128394D01*
X290425Y129565D01*
X291139Y130901D01*
X291579Y132351D01*
X291727Y133858D01*
X291579Y135366D01*
X291139Y136815D01*
X290425Y138151D01*
X289464Y139322D01*
X288293Y140283D01*
X286957Y140997D01*
X285507Y141437D01*
X284000Y141585D01*
D02*
G37*
G36*
X241000D02*
X239493Y141437D01*
X238043Y140997D01*
X236707Y140283D01*
X235536Y139322D01*
X234575Y138151D01*
X233861Y136815D01*
X233421Y135366D01*
X233273Y133858D01*
X233421Y132351D01*
X233861Y130901D01*
X234575Y129565D01*
X235536Y128394D01*
X236707Y127434D01*
X238043Y126719D01*
X239493Y126280D01*
X241000Y126131D01*
X242508Y126280D01*
X243957Y126719D01*
X245293Y127434D01*
X246464Y128394D01*
X247425Y129565D01*
X248139Y130901D01*
X248579Y132351D01*
X248727Y133858D01*
X248579Y135366D01*
X248139Y136815D01*
X247425Y138151D01*
X246464Y139322D01*
X245293Y140283D01*
X243957Y140997D01*
X242508Y141437D01*
X241000Y141585D01*
D02*
G37*
G36*
X198000D02*
X196493Y141437D01*
X195043Y140997D01*
X193707Y140283D01*
X192536Y139322D01*
X191575Y138151D01*
X190861Y136815D01*
X190421Y135366D01*
X190273Y133858D01*
X190421Y132351D01*
X190861Y130901D01*
X191575Y129565D01*
X192536Y128394D01*
X193707Y127434D01*
X195043Y126719D01*
X196493Y126280D01*
X198000Y126131D01*
X199507Y126280D01*
X200957Y126719D01*
X202293Y127434D01*
X203464Y128394D01*
X204425Y129565D01*
X205139Y130901D01*
X205578Y132351D01*
X205727Y133858D01*
X205578Y135366D01*
X205139Y136815D01*
X204425Y138151D01*
X203464Y139322D01*
X202293Y140283D01*
X200957Y140997D01*
X199507Y141437D01*
X198000Y141585D01*
D02*
G37*
G36*
X155000D02*
X153492Y141437D01*
X152043Y140997D01*
X150707Y140283D01*
X149536Y139322D01*
X148575Y138151D01*
X147861Y136815D01*
X147422Y135366D01*
X147273Y133858D01*
X147422Y132351D01*
X147861Y130901D01*
X148575Y129565D01*
X149536Y128394D01*
X150707Y127434D01*
X152043Y126719D01*
X153492Y126280D01*
X155000Y126131D01*
X156508Y126280D01*
X157957Y126719D01*
X159293Y127434D01*
X160464Y128394D01*
X161425Y129565D01*
X162139Y130901D01*
X162578Y132351D01*
X162727Y133858D01*
X162578Y135366D01*
X162139Y136815D01*
X161425Y138151D01*
X160464Y139322D01*
X159293Y140283D01*
X157957Y140997D01*
X156508Y141437D01*
X155000Y141585D01*
D02*
G37*
%LPD*%
D11*
X353004Y238682D02*
X353016Y238694D01*
X346851Y238682D02*
X353004D01*
X292266Y264696D02*
X294196D01*
X292137Y264566D02*
X292266Y264696D01*
X294196D02*
X297000Y267500D01*
X365012Y278000D02*
Y278630D01*
X366382Y280000D01*
X371684D01*
X377983D02*
X378292Y279691D01*
Y275342D02*
Y279691D01*
Y272025D02*
Y275342D01*
Y272025D02*
X379051Y271266D01*
X321247Y253713D02*
Y257138D01*
X320017Y258367D02*
X321247Y257138D01*
X315157Y258367D02*
X320017D01*
X314774Y258750D02*
X315157Y258367D01*
X333469Y263086D02*
Y263627D01*
X333042Y264054D02*
X333469Y263627D01*
X333042Y264054D02*
Y268158D01*
X325584D02*
X326163Y268738D01*
X319628Y268158D02*
X325584D01*
X310376Y264102D02*
Y268158D01*
Y264102D02*
X312891Y261587D01*
X324987D01*
X327050Y249500D02*
Y250041D01*
X327887Y250878D01*
Y252873D01*
X328727Y253713D01*
X371534Y271304D02*
Y275153D01*
Y271304D02*
X371571Y271266D01*
X365012Y276524D02*
Y278000D01*
X363642Y275153D02*
X365012Y276524D01*
X363378Y275153D02*
X363642D01*
X362792Y274568D02*
X363378Y275153D01*
X362792Y267863D02*
Y274568D01*
X356333Y268023D02*
X356493Y267863D01*
X349263Y268023D02*
X356333D01*
X340011Y264716D02*
Y268023D01*
Y264716D02*
X341335Y263392D01*
X375311D01*
X353204Y246359D02*
X353351Y246506D01*
X346851Y251477D02*
X354124D01*
X359095Y246506D01*
X261658Y258750D02*
X266809D01*
X261550Y258858D02*
X261658Y258750D01*
X288233D02*
X288774D01*
X289473Y259448D01*
X292137D01*
X289011Y262007D02*
X292137D01*
X286452Y264566D02*
X289011Y262007D01*
X296632Y255099D02*
Y262007D01*
X294928Y253395D02*
X296632Y255099D01*
X290944Y253395D02*
X294928D01*
X278883Y255823D02*
Y258750D01*
Y255823D02*
X281312Y253395D01*
X284644D01*
X347598Y391750D02*
X351565D01*
X339500Y301500D02*
X344500Y306500D01*
X332300Y303889D02*
X337111D01*
X326000Y306047D02*
X330142D01*
X261000Y257650D02*
X261550Y257100D01*
Y249941D02*
Y257100D01*
Y249941D02*
X269155Y242336D01*
X442540Y256540D02*
X461500D01*
X428500Y242500D02*
X442540Y256540D01*
X461500D02*
X469232Y264272D01*
Y267000D01*
X450627Y258340D02*
X459287Y267000D01*
X441795Y258340D02*
X450627D01*
X459287Y267000D02*
X459390D01*
X437204Y253750D02*
X441795Y258340D01*
X421351Y253750D02*
X437204D01*
X269155Y242336D02*
X272991D01*
X273327Y242000D01*
X259044Y226847D02*
Y245500D01*
X257544Y247000D02*
X259044Y245500D01*
X251673Y247000D02*
X257544D01*
X270390Y237000D02*
X273327D01*
X262914Y244477D02*
X270390Y237000D01*
X287500Y229800D02*
Y235480D01*
X273327Y237000D02*
X278971D01*
X251673Y247000D02*
Y252000D01*
X292137Y262007D02*
X296632D01*
X282567Y259448D02*
X284066D01*
X281869Y258750D02*
X282567Y259448D01*
X278883Y258750D02*
X281869D01*
X279567Y264566D02*
X284066D01*
X278883Y265250D02*
X279567Y264566D01*
X284066D02*
X286452D01*
X302014Y248166D02*
Y254413D01*
X302850Y255250D01*
X297756Y245808D02*
X298514Y246566D01*
X302014D01*
X297756Y242806D02*
Y245808D01*
X309255Y235818D02*
X313939D01*
X309150Y235924D02*
X309255Y235818D01*
X299200Y235924D02*
X302850D01*
X288586Y228714D02*
X339964D01*
X340750Y229500D01*
X287500Y229800D02*
X288586Y228714D01*
X297756Y237368D02*
X299200Y235924D01*
X297756Y237368D02*
Y242806D01*
X298366Y243416D01*
X302014D01*
X328507Y232872D02*
X331625D01*
X331994Y233241D01*
X280983Y234988D02*
X287008D01*
X287500Y235480D01*
X332250Y248694D02*
X339645D01*
X339654Y248703D01*
X419457Y242250D02*
X421351D01*
X417335Y240128D02*
X419457Y242250D01*
X411107Y240128D02*
X417335D01*
X417250Y253750D02*
X421351D01*
X414628Y251128D02*
X417250Y253750D01*
X411107Y251128D02*
X414628D01*
X421601Y242500D02*
X428500D01*
X421351Y242250D02*
X421601Y242500D01*
X331534Y329688D02*
X372308D01*
X329244Y327398D02*
X331534Y329688D01*
X329244Y325000D02*
Y327398D01*
X376866Y317203D02*
Y325131D01*
X372308Y329688D02*
X376866Y325131D01*
X373348Y317203D02*
X376866D01*
X329244Y320000D02*
Y325000D01*
X197195Y367500D02*
Y376500D01*
X470250Y390500D02*
X475500Y385250D01*
Y301295D02*
Y385250D01*
X469232Y295028D02*
X475500Y301295D01*
X351565Y391750D02*
Y392001D01*
X264638Y408250D02*
Y410622D01*
X266016Y412000D01*
X294209D01*
X309559Y396650D01*
X329194Y395942D02*
X329580Y396328D01*
X329194Y393456D02*
Y395942D01*
X328994Y393256D02*
X329194Y393456D01*
X329580Y396328D02*
X352188D01*
X360772Y387744D01*
X378179D01*
X379962Y385961D01*
Y372597D02*
Y385961D01*
X448649Y357451D02*
X449000Y357100D01*
X491413Y186835D02*
X493079Y188500D01*
X447516Y337766D02*
X448649D01*
X445000Y335250D02*
X447516Y337766D01*
X442250Y324250D02*
Y327924D01*
X483586Y191256D02*
X487500D01*
X480830Y188500D02*
X483586Y191256D01*
X479500Y188500D02*
X480830D01*
X493079D02*
X493374D01*
X491413Y186539D02*
Y186835D01*
X490618Y185744D02*
X491413Y186539D01*
X487500Y185744D02*
X490618D01*
X479500Y175611D02*
X481213D01*
X483586Y177984D01*
X487500D01*
Y172472D02*
X490618D01*
X491961Y173815D01*
Y175482D01*
X493374Y176895D01*
X337500Y369000D02*
X340000D01*
X326407D02*
X337500D01*
X324892Y370515D02*
X326407Y369000D01*
X324892Y370515D02*
Y373783D01*
X324676Y374000D02*
X324892Y373783D01*
X324676Y379512D02*
X324892Y379728D01*
X332500D01*
X328994Y387744D02*
Y393256D01*
X334506Y387744D02*
Y393256D01*
X332500Y379728D02*
Y384053D01*
X333713Y385266D01*
Y386951D01*
X334506Y387744D01*
X339500Y391750D02*
X342086D01*
X338362Y390612D02*
X339500Y391750D01*
X338362Y385309D02*
Y390612D01*
X337500Y384448D02*
X338362Y385309D01*
X337500Y379728D02*
Y384448D01*
X347500Y386309D02*
X347691Y386500D01*
X347500Y379728D02*
Y386309D01*
X342180Y386500D02*
X342500Y386180D01*
Y379728D02*
Y386180D01*
X264638Y402850D02*
X264738Y402750D01*
X264638Y402850D02*
Y408250D01*
X282006Y405750D02*
X286149D01*
X281563Y400307D02*
X282006Y400750D01*
X281563Y393478D02*
Y400307D01*
X276494Y400750D02*
X276563Y400681D01*
Y393478D02*
Y400681D01*
X273984Y405750D02*
X276494D01*
X273000Y404766D02*
X273984Y405750D01*
X273000Y399000D02*
Y404766D01*
X271563Y397563D02*
X273000Y399000D01*
X271563Y393478D02*
Y397563D01*
X270150Y402850D02*
X270250Y402750D01*
X270150Y402850D02*
Y408250D01*
X266772Y397247D02*
X269627Y400102D01*
Y402127D01*
X270250Y402750D01*
X266772Y393688D02*
Y397247D01*
X266563Y393478D02*
X266772Y393688D01*
X266340Y393256D02*
X266563Y393478D01*
X259113Y393256D02*
X266340D01*
X261264Y382750D02*
X274063D01*
X259113Y384901D02*
X261264Y382750D01*
X259113Y384901D02*
Y387744D01*
X233903Y404000D02*
X240886D01*
X217121D02*
X224651D01*
X217121Y404000D02*
Y404000D01*
X211500Y394000D02*
Y404000D01*
X170000Y362500D02*
X181693D01*
X185315Y366122D01*
X187685D01*
X196072D02*
X197195Y367244D01*
X193197Y366122D02*
X196072D01*
X346851Y238682D02*
Y241241D01*
X337596Y238348D02*
X340592D01*
X337506Y238438D02*
X337596Y238348D01*
X344251Y236123D02*
X346851D01*
X342650Y234522D02*
X344251Y236123D01*
X338384Y234513D02*
X342549D01*
X337506Y233635D02*
X338384Y234513D01*
X337506Y233241D02*
Y233635D01*
X337250Y238694D02*
X337506Y238438D01*
X337250Y238694D02*
Y243182D01*
X302952Y331091D02*
X317107D01*
X300855Y333188D02*
X302952Y331091D01*
X266500Y333188D02*
X300855D01*
X264638Y331327D02*
X266500Y333188D01*
X264638Y329000D02*
Y331327D01*
X473500Y139000D02*
X479500D01*
X471500Y141000D02*
X473500Y139000D01*
X471500Y141000D02*
Y179368D01*
X466616Y184252D02*
X471500Y179368D01*
X373706Y230395D02*
X373851Y230250D01*
X373706Y230395D02*
Y235349D01*
X372933Y236123D02*
X373706Y235349D01*
X369051Y236123D02*
X372933D01*
X346851Y233262D02*
Y236123D01*
Y233262D02*
X350863Y229250D01*
X354773D01*
X364657Y243800D02*
X369051D01*
X360088Y239231D02*
X364657Y243800D01*
X360088Y229250D02*
Y239231D01*
X278971Y237000D02*
X280983Y234988D01*
X479500Y139000D02*
X482256Y141756D01*
X487500D01*
X398973Y230250D02*
X398973Y230250D01*
Y234297D01*
X383973Y230250D02*
X383973Y230250D01*
X383973Y230250D02*
Y234297D01*
X391351Y230250D02*
X393973Y232872D01*
X326000Y312228D02*
X332000D01*
X344500Y323328D02*
X345172Y324000D01*
X344500Y306500D02*
Y323328D01*
X345172Y324000D02*
X347256D01*
X332000Y315320D02*
X334756Y318076D01*
X332000Y312228D02*
Y315320D01*
X266000Y250328D02*
X267672Y252000D01*
X273327D01*
X283886Y246012D02*
X287500D01*
X277898Y252000D02*
X283886Y246012D01*
X273327Y252000D02*
X277898D01*
X347000Y318744D02*
X347256Y319000D01*
X347000Y312228D02*
Y318744D01*
X341744Y319000D02*
X342000Y318744D01*
Y312228D02*
Y318744D01*
X339674Y324000D02*
X341744D01*
X338000Y322326D02*
X339674Y324000D01*
X338000Y317000D02*
Y322326D01*
X337000Y316000D02*
X338000Y317000D01*
X337000Y312228D02*
Y316000D01*
X334756Y320000D02*
Y324803D01*
X334953Y325000D01*
X334756Y318076D02*
Y320000D01*
X326000Y311953D02*
Y312228D01*
X337111Y303889D02*
X339500Y301500D01*
X330142Y306047D02*
X332300Y303889D01*
X261000Y323500D02*
X261000Y323500D01*
X264638D01*
X283150Y328500D02*
X286547D01*
X283150Y320475D02*
Y323500D01*
X282394Y319720D02*
X283150Y320475D01*
X282394Y316228D02*
Y319720D01*
X277394Y316228D02*
Y323256D01*
X277638Y323500D01*
X275006Y328500D02*
X277638D01*
X273984Y327478D02*
X275006Y328500D01*
X273984Y321280D02*
Y327478D01*
X272394Y319690D02*
X273984Y321280D01*
X272394Y316228D02*
Y319690D01*
X264638Y323500D02*
Y329000D01*
X270150Y323500D02*
Y329000D01*
Y322044D02*
Y323500D01*
X267394Y319288D02*
X270150Y322044D01*
X267394Y316228D02*
Y319288D01*
X264638Y316228D02*
X267394D01*
X262866Y318000D02*
X264638Y316228D01*
X260894Y318000D02*
X262866D01*
X270170Y308059D02*
X272335D01*
X263000D02*
X270170D01*
X272335D02*
X274894Y305500D01*
X260894Y310165D02*
X263000Y308059D01*
X260894Y310165D02*
Y312488D01*
X272394Y303000D02*
X274894Y305500D01*
X272394Y294772D02*
Y303000D01*
Y291290D02*
Y294772D01*
X270382Y289278D02*
X272394Y291290D01*
X270382Y287000D02*
Y289278D01*
X453500Y184252D02*
X466616D01*
X479500Y163500D02*
X482256Y166256D01*
X487500D01*
X479500Y151500D02*
X482256Y154256D01*
X487500D01*
Y136244D02*
X490618D01*
X493374Y139000D01*
X487500Y148744D02*
X490618D01*
X493374Y151500D01*
X487500Y160744D02*
X490118D01*
X493374Y164000D01*
X346851Y246359D02*
X353204D01*
X342978Y243800D02*
X346851D01*
X341851Y244927D02*
X342978Y243800D01*
X341851Y244927D02*
Y246506D01*
X339654Y248703D02*
X341851Y246506D01*
X331994Y238438D02*
Y242926D01*
Y233241D02*
Y238438D01*
Y242926D02*
X332250Y243182D01*
X337250Y243182D02*
X337691Y242741D01*
X457222Y251000D02*
X460947D01*
X466614Y245177D02*
Y250844D01*
X437802Y245177D02*
X443386D01*
Y242618D02*
Y245177D01*
X466614Y227012D02*
Y229823D01*
X470118Y232382D02*
X473500Y229000D01*
X466614Y232382D02*
X470118D01*
X466614Y234941D02*
X471882D01*
X477000Y229823D01*
X439422Y240059D02*
X443386D01*
X432100Y232737D02*
X439422Y240059D01*
X432100Y223187D02*
Y232737D01*
Y223187D02*
X450787Y204500D01*
X480618D01*
X439409Y237500D02*
X443386D01*
X433900Y231991D02*
X439409Y237500D01*
X433900Y223932D02*
Y231991D01*
Y223932D02*
X446832Y211000D01*
X480618D01*
X439395Y234941D02*
X443386D01*
X435700Y231246D02*
X439395Y234941D01*
X435700Y224678D02*
Y231246D01*
Y224678D02*
X442878Y217500D01*
X480618D01*
X439382Y232382D02*
X443386D01*
X437500Y230500D02*
X439382Y232382D01*
X437500Y225423D02*
Y230500D01*
Y225423D02*
X442423Y220500D01*
X464000D01*
X467000Y223500D01*
X480618D01*
X480295Y229823D02*
X480618Y229500D01*
X477000Y229823D02*
X480295D01*
X480618Y236000D02*
X480618Y236000D01*
X477000Y236000D02*
X480618D01*
X475500Y237500D02*
X477000Y236000D01*
X466614Y237500D02*
X475500D01*
X473524Y242000D02*
X480618D01*
X471583Y240059D02*
X473524Y242000D01*
X466614Y240059D02*
X471583D01*
X466614Y242618D02*
X471500D01*
X477382Y248500D01*
X480618D01*
X493248Y204500D02*
X493248Y204500D01*
X486130Y204500D02*
X493248D01*
Y211000D02*
X493248Y211000D01*
X486130Y211000D02*
X493248D01*
X493150Y217500D02*
X493248Y217402D01*
X486130Y217500D02*
X493150D01*
X486130Y223500D02*
X486130Y223500D01*
X493248D01*
X493248Y229500D02*
X493248Y229500D01*
X486130Y229500D02*
X493248D01*
Y236000D02*
X493248Y236000D01*
X486130Y236000D02*
X493248D01*
Y242000D02*
X493248Y242000D01*
X486130Y242000D02*
X493248D01*
Y248500D02*
X493248Y248500D01*
X486130Y248500D02*
X493248D01*
X405595Y259730D02*
X405616Y259750D01*
X405595Y256128D02*
Y259730D01*
Y235514D02*
X405616Y235494D01*
X405595Y235514D02*
Y240128D01*
X411107D02*
X411107Y240128D01*
Y245628D01*
X411107Y251128D02*
X411107Y251128D01*
X411107Y251128D02*
Y256128D01*
X405473Y251250D02*
X405595Y251128D01*
X403082Y251250D02*
X405473D01*
X401851Y252481D02*
X403082Y251250D01*
X401851Y252481D02*
Y255250D01*
X400811Y256290D02*
X401851Y255250D01*
X397788Y256290D02*
X400811D01*
X403082Y245628D02*
X405595D01*
X399900Y248810D02*
X403082Y245628D01*
X397788Y248810D02*
X399900D01*
X397328Y256750D02*
X397788Y256290D01*
X383607Y256750D02*
X397328D01*
X387791Y248810D02*
X397788D01*
X384851Y251750D02*
X387791Y248810D01*
X383607Y251750D02*
X384851D01*
X393699Y252550D02*
X393851Y252703D01*
X389914Y252550D02*
X393699D01*
X393973Y232872D02*
Y234297D01*
X388973D02*
X393973D01*
X383973Y239809D02*
X383973Y239809D01*
X388973D01*
X398973D02*
X398973Y239809D01*
X393973Y239809D02*
X398973D01*
X393973D02*
Y241241D01*
X392023Y243191D02*
X393973Y241241D01*
X380536Y243191D02*
X392023D01*
X378351Y241006D02*
X380536Y243191D01*
X379658Y235494D02*
X383973Y239809D01*
X378351Y235494D02*
X379658D01*
X376107D02*
X378351D01*
X372919Y238682D02*
X376107Y235494D01*
X369051Y238682D02*
X372919D01*
X378116Y241241D02*
X378351Y241006D01*
X369051Y241241D02*
X378116D01*
X376182Y251750D02*
X378095D01*
X373350Y248918D02*
X376182Y251750D01*
X369051Y248918D02*
X373350D01*
X375311Y256750D02*
X378095D01*
X373851Y255290D02*
X375311Y256750D01*
X373851Y252250D02*
Y255290D01*
X373078Y251477D02*
X373851Y252250D01*
X369051Y251477D02*
X373078D01*
X248917Y225782D02*
X249000Y225699D01*
X248917Y225782D02*
Y231000D01*
X254429D02*
Y234244D01*
X251673Y237000D02*
X254429Y234244D01*
X248500Y242000D02*
X251673D01*
X240732Y234232D02*
X248500Y242000D01*
X237000Y234232D02*
X240732D01*
X212500Y231137D02*
Y234232D01*
Y231137D02*
X212910D01*
X237127Y231070D02*
Y234104D01*
X237000Y234232D02*
X237127Y234104D01*
D19*
X337500Y358272D02*
Y369000D01*
X337000Y299000D02*
X339500Y301500D01*
X337000Y290772D02*
Y299000D01*
X502626Y188069D02*
X503500Y188943D01*
X271563Y380250D02*
X274063Y382750D01*
X271563Y372022D02*
Y380250D01*
X139500Y377107D02*
X143152D01*
X135500D02*
X139500D01*
Y370161D02*
Y377107D01*
X451750Y285900D02*
Y310441D01*
X459390Y318081D01*
X502626Y176895D02*
Y188069D01*
Y164000D02*
Y176895D01*
X276563Y363500D02*
Y372022D01*
Y363500D02*
X277833D01*
X266563Y366441D02*
Y372022D01*
X498500Y117500D02*
X502626Y121626D01*
Y139000D01*
Y151500D02*
Y164000D01*
Y139000D02*
Y151500D01*
X502500Y253000D02*
X502500Y253000D01*
Y248500D02*
Y253000D01*
X502500Y199500D02*
X502500Y199500D01*
Y204500D01*
Y242000D02*
Y248500D01*
Y236000D02*
Y242000D01*
Y229500D02*
Y236000D01*
Y223500D02*
Y229500D01*
Y217402D02*
Y223500D01*
Y211000D02*
Y217402D01*
Y204500D02*
Y211000D01*
D20*
X284066Y264566D02*
D03*
Y262007D02*
D03*
Y259448D02*
D03*
X292137D02*
D03*
Y262007D02*
D03*
Y264566D02*
D03*
D21*
X371684Y280000D02*
D03*
X377983D02*
D03*
X362792Y267863D02*
D03*
X356493D02*
D03*
X333042Y268158D02*
D03*
X326743D02*
D03*
X290944Y253395D02*
D03*
X284644D02*
D03*
X309150Y235924D02*
D03*
X302850D02*
D03*
X271825Y265157D02*
D03*
X278124D02*
D03*
X302850Y255250D02*
D03*
X309150D02*
D03*
D22*
X379051Y271266D02*
D03*
X371571D02*
D03*
X375311Y263392D02*
D03*
X321247Y253713D02*
D03*
X328727D02*
D03*
X324987Y261587D02*
D03*
D23*
X340011Y268023D02*
D03*
X349263D02*
D03*
X310376Y268158D02*
D03*
X319628D02*
D03*
X502626Y176895D02*
D03*
X493374D02*
D03*
X502626Y188500D02*
D03*
X493374D02*
D03*
X502626Y164000D02*
D03*
X493374D02*
D03*
X502626Y151500D02*
D03*
X493374D02*
D03*
X502626Y139000D02*
D03*
X493374D02*
D03*
X502500Y204500D02*
D03*
X493248D02*
D03*
X502500Y211000D02*
D03*
X493248D02*
D03*
X502500Y217402D02*
D03*
X493248D02*
D03*
X502500Y223500D02*
D03*
X493248D02*
D03*
X502500Y229500D02*
D03*
X493248D02*
D03*
X502500Y236000D02*
D03*
X493248D02*
D03*
X502500Y242000D02*
D03*
X493248D02*
D03*
X502500Y248500D02*
D03*
X493248D02*
D03*
X233903Y404000D02*
D03*
X224651D02*
D03*
D24*
X261550Y265157D02*
D03*
Y258858D02*
D03*
D25*
X487500Y177984D02*
D03*
Y172472D02*
D03*
X324676Y379512D02*
D03*
Y374000D02*
D03*
X259113Y393256D02*
D03*
Y387744D02*
D03*
X326000Y306244D02*
D03*
Y311756D02*
D03*
X487500Y191256D02*
D03*
Y185744D02*
D03*
X487500Y166256D02*
D03*
Y160744D02*
D03*
Y154256D02*
D03*
Y148744D02*
D03*
Y141756D02*
D03*
Y136244D02*
D03*
X260894Y318000D02*
D03*
Y312488D02*
D03*
X332250Y248694D02*
D03*
Y243182D02*
D03*
X337250Y243182D02*
D03*
Y248694D02*
D03*
X383973Y234297D02*
D03*
Y239809D02*
D03*
X378351Y241006D02*
D03*
Y235494D02*
D03*
X398973Y234297D02*
D03*
Y239809D02*
D03*
X393973Y234297D02*
D03*
Y239809D02*
D03*
X388973Y234297D02*
D03*
Y239809D02*
D03*
D26*
X193197Y366122D02*
D03*
X187685D02*
D03*
X334506Y387744D02*
D03*
X328994D02*
D03*
Y393256D02*
D03*
X334506D02*
D03*
X342086Y391750D02*
D03*
X347598D02*
D03*
X342180Y386500D02*
D03*
X347691D02*
D03*
X264638Y408250D02*
D03*
X270150D02*
D03*
X270250Y402750D02*
D03*
X264738D02*
D03*
X276494Y405750D02*
D03*
X282006D02*
D03*
X276494Y400750D02*
D03*
X282006D02*
D03*
X334756Y325000D02*
D03*
X329244D02*
D03*
X480618Y248500D02*
D03*
X486130D02*
D03*
X480618Y242000D02*
D03*
X486130D02*
D03*
X480618Y236000D02*
D03*
X486130D02*
D03*
X480618Y229500D02*
D03*
X486130D02*
D03*
X480618Y223500D02*
D03*
X486130D02*
D03*
X480618Y217500D02*
D03*
X486130D02*
D03*
X480618Y211000D02*
D03*
X486130D02*
D03*
X480618Y204500D02*
D03*
X486130D02*
D03*
X466458Y251000D02*
D03*
X460947D02*
D03*
X341744Y324000D02*
D03*
X347256D02*
D03*
X341744Y319000D02*
D03*
X347256D02*
D03*
X329244Y320000D02*
D03*
X334756D02*
D03*
X277638Y328500D02*
D03*
X283150D02*
D03*
X277638Y323500D02*
D03*
X283150D02*
D03*
X264638Y329000D02*
D03*
X270150D02*
D03*
X264638Y323500D02*
D03*
X270150D02*
D03*
X275894Y287000D02*
D03*
X270382D02*
D03*
X248917Y231000D02*
D03*
X254429D02*
D03*
X337506Y238438D02*
D03*
X331994D02*
D03*
X337506Y233241D02*
D03*
X331994D02*
D03*
X211610Y404000D02*
D03*
X217121D02*
D03*
X411107Y240128D02*
D03*
X405595D02*
D03*
X405595Y245628D02*
D03*
X411107D02*
D03*
X405595Y251128D02*
D03*
X411107D02*
D03*
X411107Y256128D02*
D03*
X405595D02*
D03*
X378095Y251750D02*
D03*
X383607D02*
D03*
X378095Y256750D02*
D03*
X383607D02*
D03*
D27*
X346851Y251477D02*
D03*
Y248918D02*
D03*
Y246359D02*
D03*
Y243800D02*
D03*
Y241241D02*
D03*
Y238682D02*
D03*
Y236123D02*
D03*
X369051Y236123D02*
D03*
Y238682D02*
D03*
Y241241D02*
D03*
Y243800D02*
D03*
Y246359D02*
D03*
Y248918D02*
D03*
Y251477D02*
D03*
D28*
X396500Y382500D02*
D03*
Y406500D02*
D03*
X435500D02*
D03*
Y382500D02*
D03*
X396425Y345000D02*
D03*
Y369000D02*
D03*
X435425D02*
D03*
Y345000D02*
D03*
X397000Y268000D02*
D03*
Y292000D02*
D03*
X436000D02*
D03*
Y268000D02*
D03*
X396500Y307000D02*
D03*
Y331000D02*
D03*
X435500D02*
D03*
Y307000D02*
D03*
D29*
X375295Y371559D02*
D03*
X357579D02*
D03*
X309249Y384559D02*
D03*
X291532D02*
D03*
X373000Y313500D02*
D03*
X355283D02*
D03*
D30*
X376259Y350000D02*
D03*
X365235D02*
D03*
X376259Y340750D02*
D03*
X365235D02*
D03*
X345651Y350000D02*
D03*
X356675D02*
D03*
X345726Y340750D02*
D03*
X356750D02*
D03*
X277833Y363500D02*
D03*
X288856D02*
D03*
X277988Y355250D02*
D03*
X289012D02*
D03*
X310512Y357250D02*
D03*
X299488D02*
D03*
X310284Y366441D02*
D03*
X299260D02*
D03*
X297882Y290500D02*
D03*
X308906D02*
D03*
X280882Y285500D02*
D03*
X291906D02*
D03*
X308906Y299000D02*
D03*
X297882D02*
D03*
X353988Y278000D02*
D03*
X365012D02*
D03*
X374000Y289000D02*
D03*
X362976D02*
D03*
X362988Y297500D02*
D03*
X374012D02*
D03*
D31*
X274063Y382750D02*
D03*
X340000Y369000D02*
D03*
X339500Y301500D02*
D03*
X274894Y305500D02*
D03*
D32*
X281563Y393478D02*
D03*
X276563D02*
D03*
X271563D02*
D03*
X266563D02*
D03*
X281563Y372022D02*
D03*
X276563D02*
D03*
X271563D02*
D03*
X266563D02*
D03*
X332500Y358272D02*
D03*
X337500D02*
D03*
X342500D02*
D03*
X347500D02*
D03*
X332500Y379728D02*
D03*
X337500D02*
D03*
X342500D02*
D03*
X347500D02*
D03*
X347000Y312228D02*
D03*
X342000D02*
D03*
X337000D02*
D03*
X332000D02*
D03*
X347000Y290772D02*
D03*
X342000D02*
D03*
X337000D02*
D03*
X332000D02*
D03*
X267394Y294772D02*
D03*
X272394D02*
D03*
X277394D02*
D03*
X282394D02*
D03*
X267394Y316228D02*
D03*
X272394D02*
D03*
X277394D02*
D03*
X282394D02*
D03*
D33*
X171407Y385500D02*
D03*
D34*
X197195Y394500D02*
D03*
Y376500D02*
D03*
D35*
X466614Y229823D02*
D03*
Y232382D02*
D03*
Y234941D02*
D03*
Y237500D02*
D03*
Y240059D02*
D03*
Y242618D02*
D03*
Y245177D02*
D03*
X443386Y229823D02*
D03*
Y232382D02*
D03*
Y234941D02*
D03*
Y237500D02*
D03*
Y240059D02*
D03*
Y242618D02*
D03*
Y245177D02*
D03*
D36*
X287500Y245520D02*
D03*
Y235480D02*
D03*
D38*
X291969Y317000D02*
D03*
X313819D02*
D03*
D39*
X273327Y237000D02*
D03*
Y242000D02*
D03*
Y247000D02*
D03*
Y252000D02*
D03*
X251673Y237000D02*
D03*
Y242000D02*
D03*
Y247000D02*
D03*
Y252000D02*
D03*
D40*
X355000Y284976D02*
D03*
Y296000D02*
D03*
D41*
X170000Y362500D02*
D03*
D42*
X154323Y366122D02*
D03*
Y358878D02*
D03*
D43*
X139500Y352839D02*
D03*
Y370161D02*
D03*
D44*
X389914Y252550D02*
D03*
X397788Y256290D02*
D03*
Y248810D02*
D03*
D45*
X354773Y229250D02*
D03*
X360088D02*
D03*
D46*
X165500Y282000D02*
D03*
Y239480D02*
D03*
X124500Y282000D02*
D03*
Y239480D02*
D03*
D52*
X310281Y241841D02*
D03*
Y243416D02*
D03*
Y244991D02*
D03*
Y246566D02*
D03*
Y248141D02*
D03*
X302014D02*
D03*
Y246566D02*
D03*
Y244991D02*
D03*
Y243416D02*
D03*
Y241841D02*
D03*
D83*
X306148Y244991D02*
D03*
D84*
X222000Y255768D02*
D03*
X227000D02*
D03*
X232000D02*
D03*
X237000D02*
D03*
Y234232D02*
D03*
X232000D02*
D03*
X227000D02*
D03*
X222000D02*
D03*
X197500Y255768D02*
D03*
X202500D02*
D03*
X207500D02*
D03*
X212500D02*
D03*
Y234232D02*
D03*
X207500D02*
D03*
X202500D02*
D03*
X197500D02*
D03*
D85*
X309150Y255250D02*
X315728D01*
X317917Y253061D01*
X272491Y262822D02*
Y265157D01*
X271825D02*
X272491D01*
X266809D02*
X271825D01*
X272491Y262822D02*
X273305Y262007D01*
X261550Y265157D02*
X266809D01*
X273305Y262007D02*
X284066D01*
X306148Y243841D02*
Y244991D01*
Y241106D02*
Y243841D01*
Y241106D02*
X308630Y238623D01*
Y236443D02*
Y238623D01*
Y236443D02*
X309150Y235924D01*
X322726Y241841D02*
X322791Y241776D01*
X310281Y243416D02*
X319984D01*
X323067Y246500D01*
X317917Y247540D02*
Y253061D01*
X315368Y244991D02*
X317917Y247540D01*
X315089Y248237D02*
Y250328D01*
X313440Y246588D02*
X315089Y248237D01*
X310303Y246588D02*
X313440D01*
X310281Y246566D02*
X310303Y246588D01*
X310281Y248141D02*
Y250328D01*
X302014Y248141D02*
X304117D01*
X310281Y244991D02*
X315368D01*
X310281Y241841D02*
X322726D01*
X304517Y242441D02*
X304748D01*
X306148Y243841D01*
X303930Y241853D02*
X304517Y242441D01*
X302026Y241853D02*
X303930D01*
X302014Y241841D02*
X302026Y241853D01*
X302014Y244991D02*
X306148D01*
X304117Y248141D02*
X304717Y247541D01*
X304748D01*
X306148Y246141D01*
Y244991D02*
Y246141D01*
D86*
X448649Y357451D02*
X459390D01*
X446346D02*
X448649D01*
X444250Y359547D02*
X446346Y357451D01*
X444250Y359547D02*
Y379188D01*
X442250Y327924D02*
X459390D01*
X437100D02*
X442250D01*
X435500Y382500D02*
Y406500D01*
Y382500D02*
X440939D01*
X444250Y379188D01*
X459390Y347609D02*
Y357451D01*
X435425Y345000D02*
Y369000D01*
X441415Y345000D02*
X448649Y337766D01*
X435425Y345000D02*
X441415D01*
X448649Y337766D02*
X459390D01*
X435500Y307000D02*
Y329524D01*
X437100Y327924D01*
D87*
X466458Y251000D02*
X466614Y250844D01*
X469677Y245177D02*
X472000Y247500D01*
X466614Y245177D02*
X469677D01*
X443386Y226114D02*
Y229823D01*
D88*
X479500Y175611D02*
D03*
X421351Y253750D02*
D03*
X211500Y394000D02*
D03*
X118500Y153500D02*
D03*
X479500Y139000D02*
D03*
X118500Y142000D02*
D03*
X479500Y188500D02*
D03*
Y163500D02*
D03*
X421351Y242250D02*
D03*
X479500Y151500D02*
D03*
D89*
X469232Y275342D02*
D03*
Y285185D02*
D03*
X459390Y295028D02*
D03*
Y285185D02*
D03*
Y275342D02*
D03*
X469232Y295028D02*
D03*
Y265500D02*
D03*
X459390D02*
D03*
Y377136D02*
D03*
Y367294D02*
D03*
Y357451D02*
D03*
Y347609D02*
D03*
Y337766D02*
D03*
Y327924D02*
D03*
Y318081D02*
D03*
X469232Y377136D02*
D03*
Y367294D02*
D03*
Y357451D02*
D03*
Y347609D02*
D03*
Y337766D02*
D03*
Y327924D02*
D03*
Y318081D02*
D03*
D90*
X497500Y295028D02*
D03*
Y265500D02*
D03*
D91*
X198000Y162598D02*
D03*
Y184252D02*
D03*
X155000Y162598D02*
D03*
Y184252D02*
D03*
X284000Y162598D02*
D03*
Y184252D02*
D03*
X241000Y162598D02*
D03*
Y184252D02*
D03*
X369500Y162598D02*
D03*
Y184252D02*
D03*
X327000Y162598D02*
D03*
Y184252D02*
D03*
X453500Y162598D02*
D03*
Y184252D02*
D03*
X411500Y162598D02*
D03*
Y184252D02*
D03*
D92*
X198000Y133858D02*
D03*
X155000D02*
D03*
X284000D02*
D03*
X241000D02*
D03*
X369500D02*
D03*
X327000D02*
D03*
X453500D02*
D03*
X411500D02*
D03*
D93*
X168500Y322250D02*
D03*
X124500D02*
D03*
D94*
X497677Y317884D02*
D03*
Y376841D02*
D03*
D95*
X498500Y400500D02*
D03*
X117500D02*
D03*
X498500Y117500D02*
D03*
X117500D02*
D03*
D96*
X353016Y238694D02*
D03*
X297000Y267500D02*
D03*
X425030Y274288D02*
D03*
X378292Y275342D02*
D03*
X314774Y258750D02*
D03*
X333469Y263086D02*
D03*
X327050Y249500D02*
D03*
X371534Y275153D02*
D03*
X353351Y246506D02*
D03*
X359095D02*
D03*
X266809Y258750D02*
D03*
X288233D02*
D03*
X266809Y265157D02*
D03*
X262914Y244477D02*
D03*
X296632Y262007D02*
D03*
X278883Y258750D02*
D03*
X315089Y250328D02*
D03*
X310281D02*
D03*
X322791Y241776D02*
D03*
X323067Y246500D02*
D03*
X313939Y235818D02*
D03*
X299200Y235924D02*
D03*
X328507Y232872D02*
D03*
X340750Y229500D02*
D03*
X143152Y377107D02*
D03*
X135500D02*
D03*
X139500D02*
D03*
X197250Y367500D02*
D03*
X470250Y390500D02*
D03*
X351565Y392001D02*
D03*
X445000Y335250D02*
D03*
X442250Y324250D02*
D03*
X286149Y405750D02*
D03*
X240886Y404000D02*
D03*
X340693Y238357D02*
D03*
X425030Y265153D02*
D03*
X429423D02*
D03*
X425030Y269697D02*
D03*
X429423D02*
D03*
Y274288D02*
D03*
X425538Y283540D02*
D03*
Y288084D02*
D03*
Y292675D02*
D03*
X429931Y283540D02*
D03*
Y288084D02*
D03*
Y292675D02*
D03*
X373851Y230250D02*
D03*
X198143Y245395D02*
D03*
X202643Y245407D02*
D03*
X207143D02*
D03*
X211643Y245395D02*
D03*
X236143Y245500D02*
D03*
X231643Y245512D02*
D03*
X227143D02*
D03*
X222643Y245500D02*
D03*
X398973Y230250D02*
D03*
X383973D02*
D03*
X391351D02*
D03*
X296738Y284622D02*
D03*
X287000Y294639D02*
D03*
X287116Y298254D02*
D03*
Y301911D02*
D03*
X364000Y283592D02*
D03*
X354000Y296828D02*
D03*
Y299898D02*
D03*
X373000Y293000D02*
D03*
X389675Y331699D02*
D03*
Y327108D02*
D03*
Y322565D02*
D03*
X385282Y331699D02*
D03*
Y327108D02*
D03*
Y322565D02*
D03*
X317107Y321956D02*
D03*
Y326500D02*
D03*
Y331091D02*
D03*
X321500Y321956D02*
D03*
Y326500D02*
D03*
Y331091D02*
D03*
X266000Y250328D02*
D03*
X261000Y323500D02*
D03*
X286547Y328500D02*
D03*
X457222Y251000D02*
D03*
X472000Y247500D02*
D03*
X437802Y245177D02*
D03*
X466614Y227012D02*
D03*
X473500Y229000D02*
D03*
X443386Y226114D02*
D03*
X502500Y253000D02*
D03*
Y199500D02*
D03*
X405616Y259750D02*
D03*
Y235494D02*
D03*
X393851Y252703D02*
D03*
X222500Y231070D02*
D03*
X218500Y231000D02*
D03*
X212910Y231137D02*
D03*
X237127Y231070D02*
D03*
X197860Y231012D02*
D03*
X193360Y231000D02*
D03*
X202360Y231012D02*
D03*
X206860Y231000D02*
D03*
X198143Y223433D02*
D03*
X202643D02*
D03*
X193643Y223421D02*
D03*
X207143D02*
D03*
X231643Y223526D02*
D03*
X218143D02*
D03*
X227143Y223538D02*
D03*
X222643D02*
D03*
X231360Y231105D02*
D03*
X226860Y231117D02*
D03*
X198143Y227012D02*
D03*
X202643D02*
D03*
X193643Y227000D02*
D03*
X207143D02*
D03*
X231643Y227105D02*
D03*
X218143D02*
D03*
X227143Y227117D02*
D03*
X222643D02*
D03*
X227000Y253512D02*
D03*
X222500Y249488D02*
D03*
X227000Y249500D02*
D03*
X231500D02*
D03*
Y253512D02*
D03*
X222500Y253500D02*
D03*
X236000D02*
D03*
Y249488D02*
D03*
X211500Y249383D02*
D03*
Y253395D02*
D03*
X198000D02*
D03*
X207000Y253407D02*
D03*
Y249395D02*
D03*
X202500D02*
D03*
X198000Y249383D02*
D03*
X202500Y253407D02*
D03*
X111000Y289488D02*
D03*
X120000Y289500D02*
D03*
Y285488D02*
D03*
X115500D02*
D03*
X111000Y285476D02*
D03*
X115500Y289500D02*
D03*
X120000Y280988D02*
D03*
X115500D02*
D03*
X111000Y280976D02*
D03*
X120000Y276988D02*
D03*
X115500D02*
D03*
X111000Y276976D02*
D03*
X138500Y289488D02*
D03*
X134000D02*
D03*
X129500Y289476D02*
D03*
X138500Y285476D02*
D03*
X134000D02*
D03*
X129500Y285465D02*
D03*
X138500Y280988D02*
D03*
X134000D02*
D03*
X129500Y280976D02*
D03*
X138500Y276976D02*
D03*
X134000D02*
D03*
X129500Y276965D02*
D03*
X170500Y276976D02*
D03*
X175000Y276988D02*
D03*
X179500D02*
D03*
X170500Y280988D02*
D03*
X175000Y281000D02*
D03*
X179500D02*
D03*
X170500Y285476D02*
D03*
X175000Y285488D02*
D03*
X179500D02*
D03*
X170500Y289488D02*
D03*
X175000Y289500D02*
D03*
X179500D02*
D03*
X152000Y276988D02*
D03*
X156500Y277000D02*
D03*
X161000D02*
D03*
X152000Y280988D02*
D03*
X156500Y281000D02*
D03*
X161000D02*
D03*
X156500Y289512D02*
D03*
X152000Y285488D02*
D03*
X156500Y285500D02*
D03*
X161000D02*
D03*
Y289512D02*
D03*
X152000Y289500D02*
D03*
Y246012D02*
D03*
X161000Y246024D02*
D03*
Y242012D02*
D03*
X156500D02*
D03*
X152000Y242000D02*
D03*
X156500Y246024D02*
D03*
X161000Y237512D02*
D03*
X156500D02*
D03*
X152000Y237500D02*
D03*
X161000Y233512D02*
D03*
X156500D02*
D03*
X152000Y233500D02*
D03*
X179500Y246012D02*
D03*
X175000D02*
D03*
X170500Y246000D02*
D03*
X179500Y242000D02*
D03*
X175000D02*
D03*
X170500Y241988D02*
D03*
X179500Y237512D02*
D03*
X175000D02*
D03*
X170500Y237500D02*
D03*
X179500Y233500D02*
D03*
X175000D02*
D03*
X170500Y233488D02*
D03*
X129500Y233476D02*
D03*
X134000Y233488D02*
D03*
X138500D02*
D03*
X129500Y237488D02*
D03*
X134000Y237500D02*
D03*
X138500D02*
D03*
X129500Y241976D02*
D03*
X134000Y241988D02*
D03*
X138500D02*
D03*
X129500Y245988D02*
D03*
X134000Y246000D02*
D03*
X138500D02*
D03*
X111000Y233488D02*
D03*
X115500Y233500D02*
D03*
X120000D02*
D03*
X111000Y237488D02*
D03*
X115500Y237500D02*
D03*
X120000D02*
D03*
X115500Y246012D02*
D03*
X111000Y241988D02*
D03*
X115500Y242000D02*
D03*
X120000D02*
D03*
Y246012D02*
D03*
X111000Y246000D02*
D03*
D97*
X269338Y385309D02*
D03*
X278393Y380191D02*
D03*
X278393Y385309D02*
D03*
X274063D02*
D03*
X269338Y380191D02*
D03*
X274063D02*
D03*
X340000Y366441D02*
D03*
X335276D02*
D03*
X340000Y371559D02*
D03*
X344331D02*
D03*
X344331Y366441D02*
D03*
X335276Y371559D02*
D03*
X334776Y304059D02*
D03*
X343831Y298941D02*
D03*
X343831Y304059D02*
D03*
X334776Y298941D02*
D03*
X339500D02*
D03*
Y304059D02*
D03*
X274894Y302941D02*
D03*
X270170D02*
D03*
X274894Y308059D02*
D03*
X279225D02*
D03*
X279225Y302941D02*
D03*
X270170Y308059D02*
D03*
D98*
X330250Y339545D02*
D03*
Y344250D02*
D03*
X334776Y339545D02*
D03*
Y344130D02*
D03*
X361482Y352000D02*
D03*
X286080Y371559D02*
D03*
X293917Y358250D02*
D03*
X293542Y366441D02*
D03*
X354143Y357406D02*
D03*
X361482Y356000D02*
D03*
M02*
