G04*
G04 #@! TF.GenerationSoftware,Altium Limited,Altium Designer,18.1.9 (240)*
G04*
G04 Layer_Physical_Order=3*
G04 Layer_Color=128*
%FSLAX25Y25*%
%MOIN*%
G70*
G01*
G75*
%ADD87C,0.08000*%
%ADD92C,0.04000*%
%ADD93C,0.10693*%
G04:AMPARAMS|DCode=94|XSize=79.244mil|YSize=79.244mil|CornerRadius=0mil|HoleSize=0mil|Usage=FLASHONLY|Rotation=0.000|XOffset=0mil|YOffset=0mil|HoleType=Round|Shape=Relief|Width=30mil|Gap=6mil|Entries=4|*
%AMTHD94*
7,0,0,0.07924,0.06724,0.03000,45*
%
%ADD94THD94*%
%ADD95C,0.08724*%
%ADD97C,0.28409*%
%ADD99C,0.11087*%
%ADD100C,0.15811*%
G04:AMPARAMS|DCode=101|XSize=72mil|YSize=72mil|CornerRadius=0mil|HoleSize=0mil|Usage=FLASHONLY|Rotation=0.000|XOffset=0mil|YOffset=0mil|HoleType=Round|Shape=Relief|Width=30mil|Gap=6mil|Entries=4|*
%AMTHD101*
7,0,0,0.07200,0.06000,0.03000,45*
%
%ADD101THD101*%
%ADD103C,0.05500*%
G04:AMPARAMS|DCode=104|XSize=47mil|YSize=47mil|CornerRadius=0mil|HoleSize=0mil|Usage=FLASHONLY|Rotation=0.000|XOffset=0mil|YOffset=0mil|HoleType=Round|Shape=Relief|Width=30mil|Gap=6mil|Entries=4|*
%AMTHD104*
7,0,0,0.04700,0.03500,0.03000,45*
%
%ADD104THD104*%
%ADD105C,0.05000*%
%ADD106C,0.18567*%
D87*
X390000Y254000D02*
D03*
X168500Y378000D02*
D03*
X118500Y153500D02*
D03*
X479500Y139000D02*
D03*
X118500Y142000D02*
D03*
X479500Y175000D02*
D03*
Y163500D02*
D03*
X390000Y242500D02*
D03*
D92*
X501000Y100000D02*
G03*
X516000Y115000I-0J15000D01*
G01*
X516000Y372500D02*
G03*
X501000Y387500I-15000J0D01*
G01*
X114500Y387500D02*
G03*
X100000Y373000I-0J-14500D01*
G01*
X100000Y114500D02*
G03*
X114500Y100000I14500J0D01*
G01*
X100000Y373000D02*
X100000Y114500D01*
X114500Y387500D02*
X501000Y387500D01*
X516000Y115000D02*
X516000Y372500D01*
X114500Y100000D02*
X501000Y100000D01*
D93*
X497400Y346342D02*
D03*
Y316815D02*
D03*
X497500Y295028D02*
D03*
Y265500D02*
D03*
D94*
X459390Y285185D02*
D03*
D95*
X469250Y346342D02*
D03*
Y336500D02*
D03*
Y326658D02*
D03*
Y316815D02*
D03*
X469232Y275342D02*
D03*
Y285185D02*
D03*
X459390Y295028D02*
D03*
Y275342D02*
D03*
X469232Y295028D02*
D03*
Y265500D02*
D03*
X459390D02*
D03*
D97*
X124000Y322500D02*
D03*
X168000D02*
D03*
D99*
X198000Y162598D02*
D03*
Y184252D02*
D03*
X155000Y162598D02*
D03*
Y184252D02*
D03*
X284000Y162598D02*
D03*
Y184252D02*
D03*
X241000Y162598D02*
D03*
Y184252D02*
D03*
X369500Y162598D02*
D03*
Y184252D02*
D03*
X327000Y162598D02*
D03*
Y184252D02*
D03*
X453500Y162598D02*
D03*
Y184252D02*
D03*
X411500Y162598D02*
D03*
Y184252D02*
D03*
D100*
X198000Y133858D02*
D03*
X155000D02*
D03*
X284000D02*
D03*
X241000D02*
D03*
X369500D02*
D03*
X327000D02*
D03*
X453500D02*
D03*
X411500D02*
D03*
D101*
X479500Y151500D02*
D03*
D103*
X406250Y372000D02*
D03*
X278398Y353067D02*
D03*
X326167Y351700D02*
D03*
X284500Y357500D02*
D03*
X295260Y234964D02*
D03*
X259500Y244477D02*
D03*
X342500Y230500D02*
D03*
X295815Y243500D02*
D03*
X322607Y237000D02*
D03*
X279681Y244500D02*
D03*
X198143Y245395D02*
D03*
X202643Y245407D02*
D03*
X207143D02*
D03*
X211643Y245395D02*
D03*
X236143Y245500D02*
D03*
X231643Y245512D02*
D03*
X227143D02*
D03*
X222643Y245500D02*
D03*
X367622Y230500D02*
D03*
X352622D02*
D03*
X360000D02*
D03*
X389366Y379750D02*
D03*
X393956D02*
D03*
X398500D02*
D03*
X255754Y379893D02*
D03*
X260345D02*
D03*
X264888D02*
D03*
X255754Y375500D02*
D03*
X260345D02*
D03*
X264888D02*
D03*
X296738Y284622D02*
D03*
X287000Y294639D02*
D03*
X287116Y298254D02*
D03*
Y301911D02*
D03*
X364000Y283592D02*
D03*
X354000Y296828D02*
D03*
Y299898D02*
D03*
X373000Y293000D02*
D03*
X325949Y316184D02*
D03*
X389675Y331699D02*
D03*
Y327108D02*
D03*
Y322565D02*
D03*
X385282Y331699D02*
D03*
Y327108D02*
D03*
Y322565D02*
D03*
X317107Y321956D02*
D03*
Y326500D02*
D03*
Y331091D02*
D03*
X321500Y321956D02*
D03*
Y326500D02*
D03*
Y331091D02*
D03*
X336500Y337256D02*
D03*
X348377Y349500D02*
D03*
X323256Y348748D02*
D03*
X284500Y348532D02*
D03*
X266000Y250328D02*
D03*
X269159Y344000D02*
D03*
X261000Y323500D02*
D03*
X286547Y328500D02*
D03*
X203500Y378000D02*
D03*
X327744Y246756D02*
D03*
X322000D02*
D03*
X457222Y251000D02*
D03*
X437802Y245177D02*
D03*
X466614Y227012D02*
D03*
X443386Y226114D02*
D03*
X362500Y252953D02*
D03*
X300000Y259500D02*
D03*
Y255500D02*
D03*
X222500Y231070D02*
D03*
X218500Y231000D02*
D03*
X212910Y231137D02*
D03*
X237127Y231070D02*
D03*
X197860Y231012D02*
D03*
X193360Y231000D02*
D03*
X202360Y231012D02*
D03*
X206860Y231000D02*
D03*
X198143Y223433D02*
D03*
X202643D02*
D03*
X193643Y223421D02*
D03*
X207143D02*
D03*
X231643Y223526D02*
D03*
X218143D02*
D03*
X227143Y223538D02*
D03*
X222643D02*
D03*
X231360Y231105D02*
D03*
X226860Y231117D02*
D03*
X198143Y227012D02*
D03*
X202643D02*
D03*
X193643Y227000D02*
D03*
X207143D02*
D03*
X231643Y227105D02*
D03*
X218143D02*
D03*
X227143Y227117D02*
D03*
X222643D02*
D03*
X227000Y253512D02*
D03*
X222500Y249488D02*
D03*
X227000Y249500D02*
D03*
X231500D02*
D03*
Y253512D02*
D03*
X222500Y253500D02*
D03*
X236000D02*
D03*
Y249488D02*
D03*
X211500Y249383D02*
D03*
Y253395D02*
D03*
X198000D02*
D03*
X207000Y253407D02*
D03*
Y249395D02*
D03*
X202500D02*
D03*
X198000Y249383D02*
D03*
X202500Y253407D02*
D03*
X111000Y289488D02*
D03*
X120000Y289500D02*
D03*
Y285488D02*
D03*
X115500D02*
D03*
X111000Y285476D02*
D03*
X115500Y289500D02*
D03*
X120000Y280988D02*
D03*
X115500D02*
D03*
X111000Y280976D02*
D03*
X120000Y276988D02*
D03*
X115500D02*
D03*
X111000Y276976D02*
D03*
X138500Y289488D02*
D03*
X134000D02*
D03*
X129500Y289476D02*
D03*
X138500Y285476D02*
D03*
X134000D02*
D03*
X129500Y285465D02*
D03*
X138500Y280988D02*
D03*
X134000D02*
D03*
X129500Y280976D02*
D03*
X138500Y276976D02*
D03*
X134000D02*
D03*
X129500Y276965D02*
D03*
X170500Y276976D02*
D03*
X175000Y276988D02*
D03*
X179500D02*
D03*
X170500Y280988D02*
D03*
X175000Y281000D02*
D03*
X179500D02*
D03*
X170500Y285476D02*
D03*
X175000Y285488D02*
D03*
X179500D02*
D03*
X170500Y289488D02*
D03*
X175000Y289500D02*
D03*
X179500D02*
D03*
X152000Y276988D02*
D03*
X156500Y277000D02*
D03*
X161000D02*
D03*
X152000Y280988D02*
D03*
X156500Y281000D02*
D03*
X161000D02*
D03*
X156500Y289512D02*
D03*
X152000Y285488D02*
D03*
X156500Y285500D02*
D03*
X161000D02*
D03*
Y289512D02*
D03*
X152000Y289500D02*
D03*
Y246012D02*
D03*
X161000Y246024D02*
D03*
Y242012D02*
D03*
X156500D02*
D03*
X152000Y242000D02*
D03*
X156500Y246024D02*
D03*
X161000Y237512D02*
D03*
X156500D02*
D03*
X152000Y237500D02*
D03*
X161000Y233512D02*
D03*
X156500D02*
D03*
X152000Y233500D02*
D03*
X179500Y246012D02*
D03*
X175000D02*
D03*
X170500Y246000D02*
D03*
X179500Y242000D02*
D03*
X175000D02*
D03*
X170500Y241988D02*
D03*
X179500Y237512D02*
D03*
X175000D02*
D03*
X170500Y237500D02*
D03*
X179500Y233500D02*
D03*
X175000D02*
D03*
X170500Y233488D02*
D03*
X129500Y233476D02*
D03*
X134000Y233488D02*
D03*
X138500D02*
D03*
X129500Y237488D02*
D03*
X134000Y237500D02*
D03*
X138500D02*
D03*
X129500Y241976D02*
D03*
X134000Y241988D02*
D03*
X138500D02*
D03*
X129500Y245988D02*
D03*
X134000Y246000D02*
D03*
X138500D02*
D03*
X111000Y233488D02*
D03*
X115500Y233500D02*
D03*
X120000D02*
D03*
X111000Y237488D02*
D03*
X115500Y237500D02*
D03*
X120000D02*
D03*
X115500Y246012D02*
D03*
X111000Y241988D02*
D03*
X115500Y242000D02*
D03*
X120000D02*
D03*
Y246012D02*
D03*
X111000Y246000D02*
D03*
D104*
X425030Y265153D02*
D03*
X429423D02*
D03*
X425030Y269697D02*
D03*
X429423D02*
D03*
X425030Y274288D02*
D03*
X429423D02*
D03*
X425538Y283540D02*
D03*
Y288084D02*
D03*
Y292675D02*
D03*
X429931Y283540D02*
D03*
Y288084D02*
D03*
Y292675D02*
D03*
X472000Y247500D02*
D03*
X473500Y229000D02*
D03*
X502500Y253000D02*
D03*
Y199500D02*
D03*
X374265Y260000D02*
D03*
Y235744D02*
D03*
D105*
X304894Y360219D02*
D03*
Y357119D02*
D03*
Y354018D02*
D03*
Y350919D02*
D03*
Y347818D02*
D03*
Y344719D02*
D03*
X301794Y360219D02*
D03*
Y357119D02*
D03*
Y354018D02*
D03*
Y350919D02*
D03*
Y347818D02*
D03*
Y344719D02*
D03*
X298694Y360219D02*
D03*
Y357119D02*
D03*
Y354018D02*
D03*
Y350919D02*
D03*
Y347818D02*
D03*
Y344719D02*
D03*
X295594Y360219D02*
D03*
Y357119D02*
D03*
Y354018D02*
D03*
Y350919D02*
D03*
Y347818D02*
D03*
Y344719D02*
D03*
X334776Y304059D02*
D03*
X343831Y298941D02*
D03*
X343831Y304059D02*
D03*
X334776Y298941D02*
D03*
X339500D02*
D03*
Y304059D02*
D03*
X274894Y302941D02*
D03*
X270170D02*
D03*
X274894Y308059D02*
D03*
X279225D02*
D03*
X279225Y302941D02*
D03*
X270170Y308059D02*
D03*
D106*
X498500Y370000D02*
D03*
X117500D02*
D03*
X498500Y117500D02*
D03*
X117500D02*
D03*
M02*
