G04*
G04 #@! TF.GenerationSoftware,Altium Limited,Altium Designer,18.1.9 (240)*
G04*
G04 Layer_Color=8421504*
%FSLAX25Y25*%
%MOIN*%
G70*
G01*
G75*
%ADD20R,0.01772X0.01693*%
%ADD21R,0.03543X0.02756*%
%ADD22R,0.04921X0.04331*%
%ADD23O,0.05512X0.01772*%
%ADD24R,0.02756X0.03543*%
%ADD25R,0.06200X0.11100*%
%ADD26R,0.03740X0.06693*%
%ADD27R,0.09055X0.14173*%
%ADD28R,0.10236X0.04724*%
%ADD29R,0.06693X0.03740*%
%ADD30R,0.07874X0.07087*%
G04:AMPARAMS|DCode=31|XSize=94.49mil|YSize=122.05mil|CornerRadius=1.89mil|HoleSize=0mil|Usage=FLASHONLY|Rotation=270.000|XOffset=0mil|YOffset=0mil|HoleType=Round|Shape=RoundedRectangle|*
%AMROUNDEDRECTD31*
21,1,0.09449,0.11827,0,0,270.0*
21,1,0.09071,0.12205,0,0,270.0*
1,1,0.00378,-0.05913,-0.04535*
1,1,0.00378,-0.05913,0.04535*
1,1,0.00378,0.05913,0.04535*
1,1,0.00378,0.05913,-0.04535*
%
%ADD31ROUNDEDRECTD31*%
G04:AMPARAMS|DCode=32|XSize=23.62mil|YSize=57.09mil|CornerRadius=2.01mil|HoleSize=0mil|Usage=FLASHONLY|Rotation=0.000|XOffset=0mil|YOffset=0mil|HoleType=Round|Shape=RoundedRectangle|*
%AMROUNDEDRECTD32*
21,1,0.02362,0.05307,0,0,0.0*
21,1,0.01961,0.05709,0,0,0.0*
1,1,0.00402,0.00980,-0.02653*
1,1,0.00402,-0.00980,-0.02653*
1,1,0.00402,-0.00980,0.02653*
1,1,0.00402,0.00980,0.02653*
%
%ADD32ROUNDEDRECTD32*%
%ADD33R,0.07284X0.13386*%
%ADD34O,0.08661X0.02756*%
%ADD35R,0.06299X0.06299*%
%ADD36R,0.06299X0.04291*%
%ADD37R,0.06600X0.01400*%
%ADD38R,0.10236X0.03740*%
%ADD39R,0.19134X0.13228*%
%ADD40R,0.05512X0.05472*%
%ADD41R,0.07087X0.08268*%
%ADD42R,0.03543X0.03150*%
%ADD43R,0.02559X0.02756*%
%ADD44R,0.34449X0.20472*%
G36*
X304965Y363454D02*
X304381D01*
Y364078D01*
X304965D01*
Y363454D01*
D02*
G37*
G36*
X296107D02*
X295523D01*
Y364078D01*
X296107D01*
Y363454D01*
D02*
G37*
G36*
X311461Y361960D02*
X308515D01*
Y362662D01*
X311461D01*
Y361960D01*
D02*
G37*
G36*
X291973D02*
X289027D01*
Y362662D01*
X291973D01*
Y361960D01*
D02*
G37*
G36*
X306327Y360612D02*
X305845D01*
X305288Y361169D01*
Y362959D01*
X306327D01*
Y360612D01*
D02*
G37*
G36*
X304500Y361169D02*
X303944Y360612D01*
X302745D01*
X302188Y361169D01*
Y362959D01*
X304500D01*
Y361169D01*
D02*
G37*
G36*
X301400D02*
X300844Y360612D01*
X299645D01*
X299088Y361169D01*
Y362959D01*
X301400D01*
Y361169D01*
D02*
G37*
G36*
X298300D02*
X297744Y360612D01*
X296545D01*
X295988Y361169D01*
Y362959D01*
X298300D01*
Y361169D01*
D02*
G37*
G36*
X295200D02*
X294644Y360612D01*
X294161D01*
Y362959D01*
X295200D01*
Y361169D01*
D02*
G37*
G36*
X291973Y359991D02*
X289027D01*
Y360694D01*
X291973D01*
Y359991D01*
D02*
G37*
G36*
X311461Y359991D02*
X308515D01*
Y360694D01*
X311461D01*
Y359991D01*
D02*
G37*
G36*
Y358023D02*
X308515D01*
Y358725D01*
X311461D01*
Y358023D01*
D02*
G37*
G36*
X291973D02*
X289027D01*
Y358725D01*
X291973D01*
Y358023D01*
D02*
G37*
G36*
X306327Y357512D02*
X305845D01*
X305288Y358069D01*
Y359268D01*
X305845Y359825D01*
X306327D01*
Y357512D01*
D02*
G37*
G36*
X304500Y359268D02*
Y358069D01*
X303944Y357512D01*
X302745D01*
X302188Y358069D01*
Y359268D01*
X302745Y359825D01*
X303944D01*
X304500Y359268D01*
D02*
G37*
G36*
X301400D02*
Y358069D01*
X300844Y357512D01*
X299645D01*
X299088Y358069D01*
Y359268D01*
X299645Y359825D01*
X300844D01*
X301400Y359268D01*
D02*
G37*
G36*
X298300D02*
Y358069D01*
X297744Y357512D01*
X296545D01*
X295988Y358069D01*
Y359268D01*
X296545Y359825D01*
X297744D01*
X298300Y359268D01*
D02*
G37*
G36*
X295200D02*
Y358069D01*
X294644Y357512D01*
X294161D01*
Y359825D01*
X294644D01*
X295200Y359268D01*
D02*
G37*
G36*
X311461Y356054D02*
X308515D01*
Y356757D01*
X311461D01*
Y356054D01*
D02*
G37*
G36*
X291973D02*
X289027D01*
Y356757D01*
X291973D01*
Y356054D01*
D02*
G37*
G36*
X306327Y354412D02*
X305845D01*
X305288Y354969D01*
Y356168D01*
X305845Y356725D01*
X306327D01*
Y354412D01*
D02*
G37*
G36*
X304500Y356168D02*
Y354969D01*
X303944Y354412D01*
X302745D01*
X302188Y354969D01*
Y356168D01*
X302745Y356725D01*
X303944D01*
X304500Y356168D01*
D02*
G37*
G36*
X301400D02*
Y354969D01*
X300844Y354412D01*
X299645D01*
X299088Y354969D01*
Y356168D01*
X299645Y356725D01*
X300844D01*
X301400Y356168D01*
D02*
G37*
G36*
X298300D02*
Y354969D01*
X297744Y354412D01*
X296545D01*
X295988Y354969D01*
Y356168D01*
X296545Y356725D01*
X297744D01*
X298300Y356168D01*
D02*
G37*
G36*
X295200D02*
Y354969D01*
X294644Y354412D01*
X294161D01*
Y356725D01*
X294644D01*
X295200Y356168D01*
D02*
G37*
G36*
X311461Y354086D02*
X308515D01*
Y354788D01*
X311461D01*
Y354086D01*
D02*
G37*
G36*
X291973D02*
X289027D01*
Y354788D01*
X291973D01*
Y354086D01*
D02*
G37*
G36*
X311461Y352117D02*
X308515D01*
Y352820D01*
X311461D01*
Y352117D01*
D02*
G37*
G36*
X291973D02*
X289027D01*
Y352820D01*
X291973D01*
Y352117D01*
D02*
G37*
G36*
X306327Y351312D02*
X305845D01*
X305288Y351869D01*
Y353068D01*
X305845Y353625D01*
X306327D01*
Y351312D01*
D02*
G37*
G36*
X304500Y353068D02*
Y351869D01*
X303944Y351312D01*
X302745D01*
X302188Y351869D01*
Y353068D01*
X302745Y353625D01*
X303944D01*
X304500Y353068D01*
D02*
G37*
G36*
X301400D02*
Y351869D01*
X300844Y351312D01*
X299645D01*
X299088Y351869D01*
Y353068D01*
X299645Y353625D01*
X300844D01*
X301400Y353068D01*
D02*
G37*
G36*
X298300D02*
Y351869D01*
X297744Y351312D01*
X296545D01*
X295988Y351869D01*
Y353068D01*
X296545Y353625D01*
X297744D01*
X298300Y353068D01*
D02*
G37*
G36*
X295200D02*
Y351869D01*
X294644Y351312D01*
X294161D01*
Y353625D01*
X294644D01*
X295200Y353068D01*
D02*
G37*
G36*
X291973Y350149D02*
X289027D01*
Y350851D01*
X291973D01*
Y350149D01*
D02*
G37*
G36*
X311461Y350149D02*
X308515D01*
Y350851D01*
X311461D01*
Y350149D01*
D02*
G37*
G36*
X306327Y348212D02*
X305845D01*
X305288Y348769D01*
Y349968D01*
X305845Y350525D01*
X306327D01*
Y348212D01*
D02*
G37*
G36*
X304500Y349968D02*
Y348769D01*
X303944Y348212D01*
X302745D01*
X302188Y348769D01*
Y349968D01*
X302745Y350525D01*
X303944D01*
X304500Y349968D01*
D02*
G37*
G36*
X301400D02*
Y348769D01*
X300844Y348212D01*
X299645D01*
X299088Y348769D01*
Y349968D01*
X299645Y350525D01*
X300844D01*
X301400Y349968D01*
D02*
G37*
G36*
X298300D02*
Y348769D01*
X297744Y348212D01*
X296545D01*
X295988Y348769D01*
Y349968D01*
X296545Y350525D01*
X297744D01*
X298300Y349968D01*
D02*
G37*
G36*
X295200D02*
Y348769D01*
X294644Y348212D01*
X294161D01*
Y350525D01*
X294644D01*
X295200Y349968D01*
D02*
G37*
G36*
X311461Y348180D02*
X308515D01*
Y348883D01*
X311461D01*
Y348180D01*
D02*
G37*
G36*
X291973D02*
X289027D01*
Y348883D01*
X291973D01*
Y348180D01*
D02*
G37*
G36*
X311461Y346212D02*
X308515D01*
Y346914D01*
X311461D01*
Y346212D01*
D02*
G37*
G36*
X291973D02*
X289027D01*
Y346914D01*
X291973D01*
Y346212D01*
D02*
G37*
G36*
X306327Y345112D02*
X305845D01*
X305288Y345669D01*
Y346868D01*
X305845Y347425D01*
X306327D01*
Y345112D01*
D02*
G37*
G36*
X304500Y346868D02*
Y345669D01*
X303944Y345112D01*
X302745D01*
X302188Y345669D01*
Y346868D01*
X302745Y347425D01*
X303944D01*
X304500Y346868D01*
D02*
G37*
G36*
X301400D02*
Y345669D01*
X300844Y345112D01*
X299645D01*
X299088Y345669D01*
Y346868D01*
X299645Y347425D01*
X300844D01*
X301400Y346868D01*
D02*
G37*
G36*
X298300D02*
Y345669D01*
X297744Y345112D01*
X296545D01*
X295988Y345669D01*
Y346868D01*
X296545Y347425D01*
X297744D01*
X298300Y346868D01*
D02*
G37*
G36*
X295200D02*
Y345669D01*
X294644Y345112D01*
X294161D01*
Y347425D01*
X294644D01*
X295200Y346868D01*
D02*
G37*
G36*
X311461Y344243D02*
X308515D01*
Y344946D01*
X311461D01*
Y344243D01*
D02*
G37*
G36*
X291973D02*
X289027D01*
Y344946D01*
X291973D01*
Y344243D01*
D02*
G37*
G36*
X311461Y342275D02*
X308515D01*
Y342977D01*
X311461D01*
Y342275D01*
D02*
G37*
G36*
X291973D02*
X289027D01*
Y342977D01*
X291973D01*
Y342275D01*
D02*
G37*
G36*
X306327Y341978D02*
X305288D01*
Y343768D01*
X305845Y344325D01*
X306327D01*
Y341978D01*
D02*
G37*
G36*
X304500Y343768D02*
Y341978D01*
X302188D01*
Y343768D01*
X302745Y344325D01*
X303944D01*
X304500Y343768D01*
D02*
G37*
G36*
X301400D02*
Y341978D01*
X299088D01*
Y343768D01*
X299645Y344325D01*
X300844D01*
X301400Y343768D01*
D02*
G37*
G36*
X298300D02*
Y341978D01*
X295988D01*
Y343768D01*
X296545Y344325D01*
X297744D01*
X298300Y343768D01*
D02*
G37*
G36*
X295200D02*
Y341978D01*
X294161D01*
Y344325D01*
X294644D01*
X295200Y343768D01*
D02*
G37*
G36*
X304965Y340859D02*
X304381D01*
Y341483D01*
X304965D01*
Y340859D01*
D02*
G37*
G36*
X296107D02*
X295523D01*
Y341483D01*
X296107D01*
Y340859D01*
D02*
G37*
G36*
X236900Y246260D02*
X230720D01*
Y252500D01*
X236900D01*
Y246260D01*
D02*
G37*
G36*
X228280D02*
X222100D01*
Y252500D01*
X228280D01*
Y246260D01*
D02*
G37*
G36*
X212400D02*
X206220D01*
Y252500D01*
X212400D01*
Y246260D01*
D02*
G37*
G36*
X203780D02*
X197600D01*
Y252500D01*
X203780D01*
Y246260D01*
D02*
G37*
G36*
X236900Y239429D02*
X230720D01*
Y244291D01*
X236900D01*
Y239429D01*
D02*
G37*
G36*
X228280D02*
X222100D01*
Y244291D01*
X228280D01*
Y239429D01*
D02*
G37*
G36*
X212400D02*
X206220D01*
Y244291D01*
X212400D01*
Y239429D01*
D02*
G37*
G36*
X203780D02*
X197600D01*
Y244291D01*
X203780D01*
Y239429D01*
D02*
G37*
D20*
X222000Y255768D02*
D03*
X227000D02*
D03*
X232000D02*
D03*
X237000D02*
D03*
Y234232D02*
D03*
X232000D02*
D03*
X227000D02*
D03*
X222000D02*
D03*
X197500Y255768D02*
D03*
X202500D02*
D03*
X207500D02*
D03*
X212500D02*
D03*
Y234232D02*
D03*
X207500D02*
D03*
X202500D02*
D03*
X197500D02*
D03*
D21*
X487500Y177756D02*
D03*
Y172244D02*
D03*
Y166256D02*
D03*
Y160744D02*
D03*
Y154256D02*
D03*
Y148744D02*
D03*
Y141756D02*
D03*
Y136244D02*
D03*
X318500Y349244D02*
D03*
Y354756D02*
D03*
X326000Y311953D02*
D03*
Y306047D02*
D03*
X260894Y318000D02*
D03*
Y312488D02*
D03*
X301000Y248953D02*
D03*
Y243441D02*
D03*
X306000Y243441D02*
D03*
Y248953D02*
D03*
X352622Y234547D02*
D03*
Y240059D02*
D03*
X347000Y241256D02*
D03*
Y235744D02*
D03*
X367622Y234547D02*
D03*
Y240059D02*
D03*
X362622Y240059D02*
D03*
Y234547D02*
D03*
X357622Y240059D02*
D03*
Y234547D02*
D03*
D22*
X502626Y175000D02*
D03*
X493374D02*
D03*
X502626Y164000D02*
D03*
X493374D02*
D03*
X502626Y151500D02*
D03*
X493374D02*
D03*
X502626Y139000D02*
D03*
X493374D02*
D03*
X502500Y204500D02*
D03*
X493248D02*
D03*
X502500Y211000D02*
D03*
X493248D02*
D03*
X502500Y217402D02*
D03*
X493248D02*
D03*
X502500Y223500D02*
D03*
X493248D02*
D03*
X502500Y229500D02*
D03*
X493248D02*
D03*
X502500Y236000D02*
D03*
X493248D02*
D03*
X502500Y242000D02*
D03*
X493248D02*
D03*
X502500Y248500D02*
D03*
X493248D02*
D03*
X197626Y378000D02*
D03*
X188374D02*
D03*
D23*
X466614Y229823D02*
D03*
Y232382D02*
D03*
Y234941D02*
D03*
Y237500D02*
D03*
Y240059D02*
D03*
Y242618D02*
D03*
Y245177D02*
D03*
X443386Y229823D02*
D03*
Y232382D02*
D03*
Y234941D02*
D03*
Y237500D02*
D03*
Y240059D02*
D03*
Y242618D02*
D03*
Y245177D02*
D03*
D24*
X480618Y248500D02*
D03*
X486130D02*
D03*
X480618Y242000D02*
D03*
X486130D02*
D03*
X480618Y236000D02*
D03*
X486130D02*
D03*
X480618Y229500D02*
D03*
X486130D02*
D03*
X480618Y223500D02*
D03*
X486130D02*
D03*
X480618Y217500D02*
D03*
X486130D02*
D03*
X480618Y211000D02*
D03*
X486130D02*
D03*
X480618Y204500D02*
D03*
X486130D02*
D03*
X466458Y251000D02*
D03*
X460947D02*
D03*
X278256Y349000D02*
D03*
X272744D02*
D03*
X278256Y344000D02*
D03*
X272744D02*
D03*
X278256Y339000D02*
D03*
X272744D02*
D03*
X317744Y344719D02*
D03*
X323256D02*
D03*
X329244Y344000D02*
D03*
X334756D02*
D03*
X329244Y349500D02*
D03*
X334756D02*
D03*
X340000Y349500D02*
D03*
X345512D02*
D03*
X345756Y337500D02*
D03*
X340244D02*
D03*
X340244Y332000D02*
D03*
X345756D02*
D03*
X341744Y324000D02*
D03*
X347256D02*
D03*
X341744Y319000D02*
D03*
X347256D02*
D03*
X329244Y320000D02*
D03*
X334756D02*
D03*
X329047Y325000D02*
D03*
X334953D02*
D03*
X333256Y332000D02*
D03*
X327744D02*
D03*
X277638Y328500D02*
D03*
X283150D02*
D03*
X277638Y323500D02*
D03*
X283150D02*
D03*
X264638Y329000D02*
D03*
X270150D02*
D03*
X264638Y323500D02*
D03*
X270150D02*
D03*
X275894Y287000D02*
D03*
X270382D02*
D03*
X248917Y231000D02*
D03*
X254429D02*
D03*
X257256Y258500D02*
D03*
X251744D02*
D03*
X269256D02*
D03*
X263744D02*
D03*
X306256Y238697D02*
D03*
X300744D02*
D03*
X306256Y233500D02*
D03*
X300744D02*
D03*
X176744Y378000D02*
D03*
X182256D02*
D03*
X304244Y335500D02*
D03*
X309756D02*
D03*
X327744Y337000D02*
D03*
X333256D02*
D03*
X379756Y240378D02*
D03*
X374244D02*
D03*
X374244Y245878D02*
D03*
X379756D02*
D03*
X374244Y251378D02*
D03*
X379756D02*
D03*
X379756Y256378D02*
D03*
X374244D02*
D03*
X346744Y252000D02*
D03*
X352256D02*
D03*
X346744Y257000D02*
D03*
X352256D02*
D03*
D25*
X397000Y268000D02*
D03*
Y292000D02*
D03*
X436000D02*
D03*
Y268000D02*
D03*
X396500Y307000D02*
D03*
Y331000D02*
D03*
X435500D02*
D03*
Y307000D02*
D03*
X412250Y346250D02*
D03*
Y370250D02*
D03*
X451250D02*
D03*
Y346250D02*
D03*
D26*
X412988Y380500D02*
D03*
X424012D02*
D03*
X280882Y285500D02*
D03*
X291906D02*
D03*
X308906Y299000D02*
D03*
X297882D02*
D03*
X308906Y290500D02*
D03*
X297882D02*
D03*
X353988Y278000D02*
D03*
X365012D02*
D03*
X374000Y289000D02*
D03*
X362976D02*
D03*
X362988Y297500D02*
D03*
X374012D02*
D03*
D27*
X356890Y361000D02*
D03*
X393110D02*
D03*
D28*
X256000Y358480D02*
D03*
Y368520D02*
D03*
X269000Y358480D02*
D03*
Y368520D02*
D03*
D29*
X279500Y358000D02*
D03*
Y369024D02*
D03*
X355000Y284976D02*
D03*
Y296000D02*
D03*
D30*
X373000Y313500D02*
D03*
X355283D02*
D03*
D31*
X339500Y301500D02*
D03*
X274894Y305500D02*
D03*
D32*
X347000Y312228D02*
D03*
X342000D02*
D03*
X337000D02*
D03*
X332000D02*
D03*
X347000Y290772D02*
D03*
X342000D02*
D03*
X337000D02*
D03*
X332000D02*
D03*
X267394Y294772D02*
D03*
X272394D02*
D03*
X277394D02*
D03*
X282394D02*
D03*
X267394Y316228D02*
D03*
X272394D02*
D03*
X277394D02*
D03*
X282394D02*
D03*
D33*
X291969Y317000D02*
D03*
X313819D02*
D03*
D34*
X273327Y237000D02*
D03*
Y242000D02*
D03*
Y247000D02*
D03*
Y252000D02*
D03*
X251673Y237000D02*
D03*
Y242000D02*
D03*
Y247000D02*
D03*
Y252000D02*
D03*
D35*
X282500Y257500D02*
D03*
D36*
X293917Y252953D02*
D03*
Y262047D02*
D03*
D37*
X337700Y251727D02*
D03*
Y249168D02*
D03*
Y246609D02*
D03*
Y244050D02*
D03*
Y241491D02*
D03*
Y238932D02*
D03*
Y236373D02*
D03*
X315500Y236373D02*
D03*
Y238932D02*
D03*
Y241491D02*
D03*
Y244050D02*
D03*
Y246609D02*
D03*
Y249168D02*
D03*
Y251727D02*
D03*
D38*
X287500Y246012D02*
D03*
Y234988D02*
D03*
D39*
X170000Y362500D02*
D03*
D40*
X154323Y366122D02*
D03*
Y358878D02*
D03*
D41*
X139500Y352839D02*
D03*
Y370161D02*
D03*
D42*
X358563Y252800D02*
D03*
X366437Y256540D02*
D03*
Y249060D02*
D03*
D43*
X323422Y229500D02*
D03*
X328737D02*
D03*
D44*
X165500Y282000D02*
D03*
Y239480D02*
D03*
X124500Y282000D02*
D03*
Y239480D02*
D03*
M02*
