G04*
G04 #@! TF.GenerationSoftware,Altium Limited,Altium Designer,18.1.9 (240)*
G04*
G04 Layer_Physical_Order=2*
G04 Layer_Color=32768*
%FSLAX25Y25*%
%MOIN*%
G70*
G01*
G75*
%ADD14C,0.01000*%
%ADD109C,0.08000*%
%ADD113C,0.04000*%
%AMTHOVALD114*
21,1,0.00787,0.08559,0,0,450.0*
1,1,0.08559,0.00000,-0.00394*
1,1,0.08559,0.00000,0.00394*
21,0,0.00787,0.06559,0,0,450.0*
1,0,0.06559,0.00000,-0.00394*
1,0,0.06559,0.00000,0.00394*
4,0,4,0.01061,0.00667,0.04087,-0.02359,0.01965,-0.04480,-0.01061,-0.01454,0.01061,0.00667,0.0*
4,0,4,0.01061,0.01454,-0.01965,0.04480,-0.04087,0.02359,-0.01061,-0.00667,0.01061,0.01454,0.0*
4,0,4,0.01061,-0.01454,-0.01965,-0.04480,-0.04087,-0.02359,-0.01061,0.00667,0.01061,-0.01454,0.0*
4,0,4,0.01061,-0.00667,0.04087,0.02359,0.01965,0.04480,-0.01061,0.01454,0.01061,-0.00667,0.0*
%
%ADD114THOVALD114*%

%AMTHOVALD115*
21,1,0.02657,0.09248,0,0,450.0*
1,1,0.09248,0.00000,-0.01329*
1,1,0.09248,0.00000,0.01329*
21,0,0.02657,0.07248,0,0,450.0*
1,0,0.07248,0.00000,-0.01329*
1,0,0.07248,0.00000,0.01329*
4,0,4,0.01061,-0.00268,0.04330,-0.03538,0.02209,-0.05659,-0.01061,-0.02389,0.01061,-0.00268,0.0*
4,0,4,0.01061,0.02389,-0.02209,0.05659,-0.04330,0.03538,-0.01061,0.00268,0.01061,0.02389,0.0*
4,0,4,0.01061,-0.02389,-0.02209,-0.05659,-0.04330,-0.03538,-0.01061,-0.00268,0.01061,-0.02389,0.0*
4,0,4,0.01061,0.00268,0.04330,0.03538,0.02209,0.05659,-0.01061,0.02389,0.01061,0.00268,0.0*
%
%ADD115THOVALD115*%

%AMTHOVALD116*
21,1,0.02657,0.09248,0,0,90.0*
1,1,0.09248,0.00000,-0.01329*
1,1,0.09248,0.00000,0.01329*
21,0,0.02657,0.07248,0,0,90.0*
1,0,0.07248,0.00000,-0.01329*
1,0,0.07248,0.00000,0.01329*
4,0,4,0.01061,-0.00268,0.04330,-0.03538,0.02209,-0.05659,-0.01061,-0.02389,0.01061,-0.00268,0.0*
4,0,4,0.01061,0.02389,-0.02209,0.05659,-0.04330,0.03538,-0.01061,0.00268,0.01061,0.02389,0.0*
4,0,4,0.01061,-0.02389,-0.02209,-0.05659,-0.04330,-0.03538,-0.01061,-0.00268,0.01061,-0.02389,0.0*
4,0,4,0.01061,0.00268,0.04330,0.03538,0.02209,0.05659,-0.01061,0.02389,0.01061,0.00268,0.0*
%
%ADD116THOVALD116*%

%AMTHOVALD117*
21,1,0.00787,0.08559,0,0,90.0*
1,1,0.08559,0.00000,-0.00394*
1,1,0.08559,0.00000,0.00394*
21,0,0.00787,0.06559,0,0,90.0*
1,0,0.06559,0.00000,-0.00394*
1,0,0.06559,0.00000,0.00394*
4,0,4,0.01061,0.00667,0.04087,-0.02359,0.01965,-0.04480,-0.01061,-0.01454,0.01061,0.00667,0.0*
4,0,4,0.01061,0.01454,-0.01965,0.04480,-0.04087,0.02359,-0.01061,-0.00667,0.01061,0.01454,0.0*
4,0,4,0.01061,-0.01454,-0.01965,-0.04480,-0.04087,-0.02359,-0.01061,0.00667,0.01061,-0.01454,0.0*
4,0,4,0.01061,-0.00667,0.04087,0.02359,0.01965,0.04480,-0.01061,0.01454,0.01061,-0.00667,0.0*
%
%ADD117THOVALD117*%

%ADD118C,0.07543*%
%ADD119C,0.10693*%
G04:AMPARAMS|DCode=120|XSize=107.244mil|YSize=107.244mil|CornerRadius=0mil|HoleSize=0mil|Usage=FLASHONLY|Rotation=0.000|XOffset=0mil|YOffset=0mil|HoleType=Round|Shape=Relief|Width=30mil|Gap=10mil|Entries=4|*
%AMTHD120*
7,0,0,0.10724,0.08724,0.03000,45*
%
%ADD120THD120*%
%ADD121C,0.08724*%
G04:AMPARAMS|DCode=122|XSize=205.669mil|YSize=205.669mil|CornerRadius=0mil|HoleSize=0mil|Usage=FLASHONLY|Rotation=0.000|XOffset=0mil|YOffset=0mil|HoleType=Round|Shape=Relief|Width=30mil|Gap=10mil|Entries=4|*
%AMTHD122*
7,0,0,0.20567,0.18567,0.03000,45*
%
%ADD122THD122*%
%ADD123C,0.05600*%
G04:AMPARAMS|DCode=124|XSize=76mil|YSize=76mil|CornerRadius=0mil|HoleSize=0mil|Usage=FLASHONLY|Rotation=0.000|XOffset=0mil|YOffset=0mil|HoleType=Round|Shape=Relief|Width=30mil|Gap=10mil|Entries=4|*
%AMTHD124*
7,0,0,0.07600,0.05600,0.03000,45*
%
%ADD124THD124*%
D14*
X530500Y352500D02*
X532500Y350500D01*
Y294000D02*
Y350500D01*
X528500Y290000D02*
X532500Y294000D01*
X522500Y284000D02*
X528500Y290000D01*
X522500Y220000D02*
Y284000D01*
X522000Y100000D02*
X522500Y100500D01*
Y211000D01*
X496500D02*
X522500D01*
D109*
X539000Y155537D02*
D03*
X562500Y155612D02*
D03*
X586000Y155537D02*
D03*
X609500Y155596D02*
D03*
D113*
X174500Y112500D02*
G03*
X187000Y100000I12500J-0D01*
G01*
Y352500D02*
G03*
X174500Y340000I-0J-12500D01*
G01*
X620500Y340000D02*
G03*
X608000Y352500I-12500J0D01*
G01*
X608000Y100000D02*
G03*
X620500Y112500I0J12500D01*
G01*
X174500Y112500D02*
Y340000D01*
X187000Y352500D02*
X608000Y352500D01*
X620500Y340000D02*
X620500Y112500D01*
X187000Y100000D02*
X608000D01*
D114*
X461610Y117303D02*
D03*
X305333Y118581D02*
D03*
D115*
X468943Y105000D02*
D03*
X312665Y106278D02*
D03*
D116*
X436758Y105000D02*
D03*
X280480Y106278D02*
D03*
D117*
X444091Y117303D02*
D03*
X287813Y118581D02*
D03*
D118*
X390823Y237252D02*
D03*
Y227252D02*
D03*
X380823Y237252D02*
D03*
Y227252D02*
D03*
D119*
X222287Y338000D02*
D03*
X271500D02*
D03*
X580500D02*
D03*
X560815D02*
D03*
X365000D02*
D03*
X394528D02*
D03*
X187350Y190000D02*
D03*
Y219528D02*
D03*
X416709Y338000D02*
D03*
X436394D02*
D03*
X343000D02*
D03*
X293787D02*
D03*
X487850D02*
D03*
X458323D02*
D03*
D120*
X271500Y309555D02*
D03*
X222287D02*
D03*
X271500Y299713D02*
D03*
X222287D02*
D03*
X570657Y309732D02*
D03*
X394528Y309850D02*
D03*
X426551D02*
D03*
X333157Y299713D02*
D03*
X343000D02*
D03*
X333157Y309555D02*
D03*
X343000D02*
D03*
X468165Y309732D02*
D03*
X478008D02*
D03*
D121*
X261658Y309555D02*
D03*
X251815D02*
D03*
X241972D02*
D03*
X232130D02*
D03*
X261658Y299713D02*
D03*
X251815D02*
D03*
X241972D02*
D03*
X232130D02*
D03*
X560815Y309732D02*
D03*
X580500Y299890D02*
D03*
X570657D02*
D03*
X560815D02*
D03*
X580500Y309732D02*
D03*
X365000Y309850D02*
D03*
X374843D02*
D03*
X384685D02*
D03*
X215500Y190000D02*
D03*
Y199843D02*
D03*
Y209685D02*
D03*
Y219528D02*
D03*
X416709Y309850D02*
D03*
X436394D02*
D03*
X293787Y299713D02*
D03*
X303630D02*
D03*
X313472D02*
D03*
X323315D02*
D03*
X293787Y309555D02*
D03*
X303630D02*
D03*
X313472D02*
D03*
X323315D02*
D03*
X487850Y299890D02*
D03*
Y309732D02*
D03*
X458323D02*
D03*
X478008Y299890D02*
D03*
X468165D02*
D03*
X458323D02*
D03*
D122*
X603000Y335000D02*
D03*
X192000D02*
D03*
X603037Y117500D02*
D03*
X192000D02*
D03*
D123*
X504335Y232500D02*
D03*
X316500Y280500D02*
D03*
X440300Y290000D02*
D03*
X405500Y260500D02*
D03*
X313500Y264394D02*
D03*
X494665Y252000D02*
D03*
Y248500D02*
D03*
X279500Y226000D02*
D03*
X286000Y241500D02*
D03*
X418000Y257000D02*
D03*
X528500Y277500D02*
D03*
Y273000D02*
D03*
X430000Y241799D02*
D03*
X328000Y293000D02*
D03*
X316500Y276000D02*
D03*
X472248Y179919D02*
D03*
X496500Y166049D02*
D03*
X414000Y170500D02*
D03*
X418988D02*
D03*
X275500Y205500D02*
D03*
Y209685D02*
D03*
X212000Y171500D02*
D03*
X211713Y178500D02*
D03*
X497500Y144000D02*
D03*
X517500Y111559D02*
D03*
X499000Y111500D02*
D03*
X479740Y200536D02*
D03*
X474217Y201726D02*
D03*
X479500Y212500D02*
D03*
X468165D02*
D03*
X463000D02*
D03*
X474000D02*
D03*
X479500Y222500D02*
D03*
X505500Y294018D02*
D03*
X514000Y294000D02*
D03*
X335000Y245141D02*
D03*
X334000Y240500D02*
D03*
X330500Y159500D02*
D03*
X340350Y253049D02*
D03*
X328500Y333000D02*
D03*
X323315D02*
D03*
X421650Y282500D02*
D03*
X378500Y252000D02*
D03*
X352205Y292000D02*
D03*
X462500Y168850D02*
D03*
X479500Y226500D02*
D03*
X360201Y233894D02*
D03*
X359850Y177000D02*
D03*
X341000Y200374D02*
D03*
X503688Y174874D02*
D03*
X474500Y249575D02*
D03*
X430000Y170799D02*
D03*
X483500Y154000D02*
D03*
X492894Y148463D02*
D03*
X516000Y141685D02*
D03*
X458323Y161677D02*
D03*
X303500Y223000D02*
D03*
Y227500D02*
D03*
X327000Y224227D02*
D03*
Y219528D02*
D03*
X195500Y238000D02*
D03*
X198740Y281000D02*
D03*
X227000Y239650D02*
D03*
X195000Y304000D02*
D03*
Y308000D02*
D03*
X339500Y206000D02*
D03*
X343500Y141685D02*
D03*
X343350Y147000D02*
D03*
X359665Y141612D02*
D03*
X446500Y181000D02*
D03*
X398500Y167640D02*
D03*
X304000Y182000D02*
D03*
X243000Y167500D02*
D03*
X232000Y211415D02*
D03*
X298000Y187000D02*
D03*
X300000Y191500D02*
D03*
X307500Y194427D02*
D03*
X296600Y201000D02*
D03*
X301500Y198000D02*
D03*
X228500Y192000D02*
D03*
X237000Y194000D02*
D03*
X245000Y196350D02*
D03*
X260157Y198000D02*
D03*
X254157Y200500D02*
D03*
X448323Y132323D02*
D03*
X443500Y124500D02*
D03*
X447500Y127500D02*
D03*
X439000Y187500D02*
D03*
X443000D02*
D03*
X450500Y188000D02*
D03*
X390500Y191746D02*
D03*
X396500Y194000D02*
D03*
X402500Y196000D02*
D03*
X440000Y200900D02*
D03*
Y196000D02*
D03*
X414500Y198000D02*
D03*
X408500Y199500D02*
D03*
X397000Y183856D02*
D03*
X385500Y211500D02*
D03*
X280000Y173463D02*
D03*
X289000Y138884D02*
D03*
X239500Y184500D02*
D03*
X426000Y145000D02*
D03*
X360500Y111559D02*
D03*
X319681Y147500D02*
D03*
Y166049D02*
D03*
X271657Y144500D02*
D03*
X347098Y104500D02*
D03*
X354104Y165612D02*
D03*
X538740Y235075D02*
D03*
X562240D02*
D03*
X585740Y235000D02*
D03*
X609240Y235059D02*
D03*
X528500Y266500D02*
D03*
X552000D02*
D03*
X575500D02*
D03*
X599000D02*
D03*
X548500Y343569D02*
D03*
Y339000D02*
D03*
X586000Y186000D02*
D03*
X562500Y186075D02*
D03*
X539000Y186000D02*
D03*
X609500Y186059D02*
D03*
D124*
X301500Y106278D02*
D03*
X292000D02*
D03*
X457500Y105000D02*
D03*
X448323D02*
D03*
X418000Y263000D02*
D03*
X486039Y254000D02*
D03*
X490865Y262760D02*
D03*
X505506Y238598D02*
D03*
X430000Y248000D02*
D03*
X403500Y247126D02*
D03*
X424000Y170500D02*
D03*
X401500Y184166D02*
D03*
X365425Y109000D02*
D03*
X210531Y109622D02*
D03*
X218500Y161597D02*
D03*
X261500Y166941D02*
D03*
X259000Y125911D02*
D03*
X183000Y164500D02*
D03*
X527500Y322500D02*
D03*
X347000Y253000D02*
D03*
X443000Y278000D02*
D03*
X368000Y256638D02*
D03*
X361500Y292500D02*
D03*
X376898Y289500D02*
D03*
X385500Y258500D02*
D03*
X388500Y274150D02*
D03*
X418000Y273000D02*
D03*
X366606Y234000D02*
D03*
X366150Y177000D02*
D03*
X362795Y205500D02*
D03*
X510000Y174874D02*
D03*
X484059Y197636D02*
D03*
X508000Y202500D02*
D03*
X510650Y232500D02*
D03*
X516000Y154262D02*
D03*
X489244Y158000D02*
D03*
Y130244D02*
D03*
X227500Y250500D02*
D03*
X333906Y128406D02*
D03*
X343500Y161500D02*
D03*
X245807Y184585D02*
D03*
X453323Y132323D02*
D03*
X468311Y132500D02*
D03*
X422000Y162000D02*
D03*
X269500Y185000D02*
D03*
X298000Y252500D02*
D03*
X414000Y125911D02*
D03*
X360000Y154234D02*
D03*
X333461Y148463D02*
D03*
X317000Y138884D02*
D03*
X297665Y131335D02*
D03*
X541000Y313000D02*
D03*
X545000Y303500D02*
D03*
X537000D02*
D03*
X575500Y166500D02*
D03*
Y250000D02*
D03*
X590000Y278459D02*
D03*
X590150Y189136D02*
D03*
X579000Y218500D02*
D03*
X552000Y166575D02*
D03*
Y250075D02*
D03*
X566500Y278533D02*
D03*
X566650Y189211D02*
D03*
X555500Y218575D02*
D03*
X528500Y166500D02*
D03*
Y250000D02*
D03*
X543000Y278459D02*
D03*
X543150Y189136D02*
D03*
X532000Y218500D02*
D03*
X599000Y166559D02*
D03*
X613650Y189195D02*
D03*
X602500Y218559D02*
D03*
X599000Y250059D02*
D03*
X613500Y278518D02*
D03*
M02*
