G04*
G04 #@! TF.GenerationSoftware,Altium Limited,Altium Designer,18.1.9 (240)*
G04*
G04 Layer_Color=16711935*
%FSLAX25Y25*%
%MOIN*%
G70*
G01*
G75*
%ADD11C,0.00500*%
%ADD14C,0.01000*%
%ADD130C,0.00236*%
D11*
X501634Y197687D02*
X514232D01*
X501634D02*
Y207529D01*
X514232D01*
Y197687D02*
Y207529D01*
X356850Y199947D02*
X369449D01*
X356850D02*
Y209789D01*
X369449D01*
Y199947D02*
Y209789D01*
D14*
X350665Y272385D02*
X351665D01*
X350665D02*
Y281385D01*
X361665Y272385D02*
X363165D01*
Y281385D01*
X192917Y271000D02*
Y272000D01*
X201917D01*
X192917Y259500D02*
Y261000D01*
Y259500D02*
X201917D01*
D130*
X539574Y178650D02*
X538262D01*
X538000Y178387D01*
Y177863D01*
X538262Y177600D01*
X539574D01*
X538000Y177075D02*
Y176551D01*
Y176813D01*
X539574D01*
X539312Y177075D01*
X537738Y175763D02*
Y174714D01*
X539574Y174189D02*
X538000D01*
X538787D01*
Y173140D01*
X539574D01*
X538000D01*
Y171828D02*
X539574D01*
X538787Y172615D01*
Y171565D01*
X538166Y231736D02*
X539478D01*
X539740Y231999D01*
Y232523D01*
X539478Y232786D01*
X538166D01*
X539740Y234360D02*
Y233311D01*
X538691Y234360D01*
X538428D01*
X538166Y234098D01*
Y233573D01*
X538428Y233311D01*
X540002Y234885D02*
Y235934D01*
X538166Y236459D02*
X539740D01*
X538953D01*
Y237509D01*
X538166D01*
X539740D01*
Y238821D02*
X538166D01*
X538953Y238033D01*
Y239083D01*
X563074Y178724D02*
X561762D01*
X561500Y178462D01*
Y177937D01*
X561762Y177675D01*
X563074D01*
X561500Y177150D02*
Y176625D01*
Y176888D01*
X563074D01*
X562812Y177150D01*
X561238Y175838D02*
Y174789D01*
X563074Y174264D02*
X561500D01*
X562287D01*
Y173214D01*
X563074D01*
X561500D01*
X562812Y172690D02*
X563074Y172427D01*
Y171903D01*
X562812Y171640D01*
X562549D01*
X562287Y171903D01*
Y172165D01*
Y171903D01*
X562025Y171640D01*
X561762D01*
X561500Y171903D01*
Y172427D01*
X561762Y172690D01*
X561666Y231811D02*
X562978D01*
X563240Y232073D01*
Y232598D01*
X562978Y232861D01*
X561666D01*
X563240Y234435D02*
Y233385D01*
X562191Y234435D01*
X561928D01*
X561666Y234173D01*
Y233648D01*
X561928Y233385D01*
X563503Y234960D02*
Y236009D01*
X561666Y236534D02*
X563240D01*
X562453D01*
Y237583D01*
X561666D01*
X563240D01*
X561928Y238108D02*
X561666Y238371D01*
Y238895D01*
X561928Y239158D01*
X562191D01*
X562453Y238895D01*
Y238633D01*
Y238895D01*
X562715Y239158D01*
X562978D01*
X563240Y238895D01*
Y238371D01*
X562978Y238108D01*
X586574Y178650D02*
X585262D01*
X585000Y178387D01*
Y177863D01*
X585262Y177600D01*
X586574D01*
X585000Y177075D02*
Y176551D01*
Y176813D01*
X586574D01*
X586312Y177075D01*
X584738Y175763D02*
Y174714D01*
X586574Y174189D02*
X585000D01*
X585787D01*
Y173140D01*
X586574D01*
X585000D01*
Y171565D02*
Y172615D01*
X586050Y171565D01*
X586312D01*
X586574Y171828D01*
Y172352D01*
X586312Y172615D01*
X585166Y231736D02*
X586478D01*
X586740Y231999D01*
Y232523D01*
X586478Y232786D01*
X585166D01*
X586740Y234360D02*
Y233311D01*
X585691Y234360D01*
X585428D01*
X585166Y234098D01*
Y233573D01*
X585428Y233311D01*
X587003Y234885D02*
Y235934D01*
X585166Y236459D02*
X586740D01*
X585953D01*
Y237509D01*
X585166D01*
X586740D01*
Y239083D02*
Y238033D01*
X585691Y239083D01*
X585428D01*
X585166Y238821D01*
Y238296D01*
X585428Y238033D01*
X610074Y178709D02*
X608762D01*
X608500Y178446D01*
Y177921D01*
X608762Y177659D01*
X610074D01*
X608500Y177134D02*
Y176610D01*
Y176872D01*
X610074D01*
X609812Y177134D01*
X608238Y175822D02*
Y174773D01*
X610074Y174248D02*
X608500D01*
X609287D01*
Y173199D01*
X610074D01*
X608500D01*
Y172674D02*
Y172149D01*
Y172412D01*
X610074D01*
X609812Y172674D01*
X608666Y231795D02*
X609978D01*
X610240Y232058D01*
Y232582D01*
X609978Y232845D01*
X608666D01*
X610240Y234419D02*
Y233370D01*
X609191Y234419D01*
X608928D01*
X608666Y234157D01*
Y233632D01*
X608928Y233370D01*
X610502Y234944D02*
Y235993D01*
X608666Y236518D02*
X610240D01*
X609453D01*
Y237568D01*
X608666D01*
X610240D01*
Y238092D02*
Y238617D01*
Y238355D01*
X608666D01*
X608928Y238092D01*
M02*
