M48
;Layer_Color=9474304
;FILE_FORMAT=2:5
INCH,LZ
;TYPE=PLATED
T1F00S00C0.01000
T2F00S00C0.01500
T3F00S00C0.01600
T4F00S00C0.04000
T5F00S00C0.04724
T6F00S00C0.06693
T7F00S00C0.07087
T8F00S00C0.11811
T9F00S00C0.14567
T10F00S00C0.24409
%
T01
X0334776Y0298941
X03395
X0343831
X0343831Y0304059
X03395
X0334776
X0279225Y0302941
X0274894
X027017
X027017Y0308059
X0274894
X0279225
X0278393Y0380191
X0274063
X0269338
X0269338Y0385309
X0274063
X0278393
X0335276Y0371559
X034
X0344331
X0344331Y0366441
X034
X0335276
T02
X05025Y01995
Y0253
X0472Y02475
X04735Y0229
X0466614Y0227012
X0443386Y0226114
X0437802Y0245177
X0457222Y0251
X0429423Y0265153
X042503
Y0269697
X0429423
Y0274288
X042503
X0425538Y028354
X0429931
Y0288084
X0425538
Y0292675
X0429931
X0405616Y025975
X0393851Y0252703
X0391351Y023025
X0383973
X0373851Y023025
X0398973Y023025
X0405616Y0235494
X0353016Y0238694
X0353351Y0246506
X0359095
X0340693Y0238357
X034075Y02295
X0328507Y0232872
X0322791Y0241776
X0323067Y02465
X032705Y02495
X0315089Y0250328
X0314774Y025875
X0333469Y0263086
X0313939Y0235818
X0371534Y0275153
X0378292Y0275342
X0364Y0283592
X0373Y0293
X0354Y0296828
Y0299898
X0287116Y0298254
Y0301911
X0287Y0294639
X0296738Y0284622
X0297Y02675
X0296632Y0262007
X0288233Y025875
X0278883
X0266809
Y0265157
X0266Y0250328
X0262914Y0244477
X0236143Y02455
X0236Y0249488
Y02535
X02315Y0253512
Y02495
X0231643Y0245512
X0227143
X0227Y02495
Y0253512
X02225Y02535
Y0249488
X0222643Y02455
X0211643Y0245395
X02115Y0249383
Y0253395
X0207Y0253407
Y0249395
X0207143Y0245407
X0202643
X02025Y0249395
Y0253407
X0198Y0253395
Y0249383
X0198143Y0245395
X019786Y0231012
X0198143Y0227012
Y0223433
X0202643
Y0227012
X020236Y0231012
X020686Y0231
X0207143Y0227
Y0223421
X0218143Y0223526
Y0227105
X02185Y0231
X02225Y023107
X0222643Y0227117
Y0223538
X0227143
Y0227117
X022686Y0231117
X023136Y0231105
X0231643Y0227105
Y0223526
X0237127Y023107
X021291Y0231137
X019336Y0231
X0193643Y0227
Y0223421
X01795Y02335
Y0237512
Y0242
Y0246012
X0175
Y0242
Y0237512
Y02335
X01705Y0233488
Y02375
Y0241988
Y0246
X0161Y0246024
Y0242012
X01565
Y0246024
Y0237512
Y0233512
X0161
Y0237512
Y0277
Y0281
X01565
Y0277
Y02855
Y0289512
X0161
Y02855
X01705Y0285476
Y0289488
X0175Y02895
Y0285488
Y0281
Y0276988
X01795
Y0281
Y0285488
Y02895
X01705Y0280988
Y0276976
X0310281Y0250328
X02992Y0235924
X0152Y02375
Y02335
Y0242
Y0246012
X01385Y0246
Y0241988
Y02375
Y0233488
X0134
Y02375
Y0241988
Y0246
X01295Y0245988
Y0241976
Y0237488
Y0233476
X012Y02335
Y02375
X01155
Y02335
X0111Y0233488
Y0237488
Y0241988
Y0246
X01155Y0246012
Y0242
X012
Y0246012
Y0276988
Y0280988
Y0285488
Y02895
X01155
Y0285488
Y0280988
Y0276988
X0111Y0276976
Y0280976
Y0285476
Y0289488
X01295Y0289476
Y0285465
Y0280976
Y0276965
X0134Y0276976
Y0280988
Y0285476
Y0289488
X01385
Y0285476
Y0280988
Y0276976
X0152Y0276988
Y0280988
Y0285488
Y02895
X0143152Y0377107
X01395
X01355
X019725Y03675
X0240886Y0404
X0286149Y040575
X0286547Y03285
X0261Y03235
X0317107Y0321956
X03215
Y03265
X0317107
Y0331091
X03215
X0385282Y0331699
X0389675
Y0327108
X0385282
Y0322565
X0389675
X044225Y032425
X0445Y033525
X0351565Y0392001
X047025Y03905
T03
X0293917Y035825
X0293542Y0366441
X028608Y0371559
X033025Y034425
X0334776Y034413
Y0339545
X033025
X0354143Y0357406
X0361482Y0356
Y0352
T04
X01185Y0142
Y01535
X04795Y01515
Y0139
Y01635
Y0175611
Y01885
X0421351Y024225
Y025375
X02115Y0394
T05
X0469232Y02655
Y0275342
Y0285185
Y0295028
X045939
Y0285185
Y0275342
Y02655
Y0318081
Y0327924
Y0337766
Y0347609
Y0357451
Y0367294
Y0377136
X0469232
Y0367294
Y0357451
Y0347609
Y0337766
Y0327924
Y0318081
T06
X04975Y02655
Y0295028
X0497677Y0317884
Y0376841
T07
X0327Y0162598
Y0184252
X03695
Y0162598
X04115
Y0184252
X04535
Y0162598
X0284
Y0184252
X0241
Y0162598
X0198
Y0184252
X0155
Y0162598
T08
X0155Y0133858
X0198
X0241
X0284
X0327
X03695
X04115
X04535
T09
X01175Y01175
X04985
X01175Y04005
X04985
T10
X01245Y032225
X01685
M30
