G04*
G04 #@! TF.GenerationSoftware,Altium Limited,Altium Designer,19.1.7 (138)*
G04*
G04 Layer_Color=8388736*
%FSLAX25Y25*%
%MOIN*%
G70*
G01*
G75*
%ADD27R,0.06600X0.01400*%
%ADD47R,0.03359X0.02375*%
%ADD48R,0.04343X0.04737*%
%ADD49R,0.03950X0.04343*%
%ADD50R,0.05721X0.05131*%
%ADD51R,0.04737X0.04343*%
%ADD52R,0.02756X0.00906*%
%ADD53R,0.04343X0.03556*%
%ADD54R,0.03556X0.04343*%
%ADD55R,0.07000X0.11900*%
%ADD56R,0.08674X0.07887*%
%ADD57R,0.04540X0.07493*%
G04:AMPARAMS|DCode=58|XSize=102.49mil|YSize=130.05mil|CornerRadius=5.89mil|HoleSize=0mil|Usage=FLASHONLY|Rotation=270.000|XOffset=0mil|YOffset=0mil|HoleType=Round|Shape=RoundedRectangle|*
%AMROUNDEDRECTD58*
21,1,0.10249,0.11827,0,0,270.0*
21,1,0.09071,0.13005,0,0,270.0*
1,1,0.01178,-0.05913,-0.04535*
1,1,0.01178,-0.05913,0.04535*
1,1,0.01178,0.05913,0.04535*
1,1,0.01178,0.05913,-0.04535*
%
%ADD58ROUNDEDRECTD58*%
G04:AMPARAMS|DCode=59|XSize=31.62mil|YSize=65.09mil|CornerRadius=6.01mil|HoleSize=0mil|Usage=FLASHONLY|Rotation=0.000|XOffset=0mil|YOffset=0mil|HoleType=Round|Shape=RoundedRectangle|*
%AMROUNDEDRECTD59*
21,1,0.03162,0.05307,0,0,0.0*
21,1,0.01961,0.06509,0,0,0.0*
1,1,0.01202,0.00980,-0.02653*
1,1,0.01202,-0.00980,-0.02653*
1,1,0.01202,-0.00980,0.02653*
1,1,0.01202,0.00980,0.02653*
%
%ADD59ROUNDEDRECTD59*%
%ADD60R,0.23241X0.22973*%
%ADD61R,0.11036X0.04973*%
G04:AMPARAMS|DCode=62|XSize=25.72mil|YSize=63.12mil|CornerRadius=5.95mil|HoleSize=0mil|Usage=FLASHONLY|Rotation=90.000|XOffset=0mil|YOffset=0mil|HoleType=Round|Shape=RoundedRectangle|*
%AMROUNDEDRECTD62*
21,1,0.02572,0.05122,0,0,90.0*
21,1,0.01382,0.06312,0,0,90.0*
1,1,0.01190,0.02561,0.00691*
1,1,0.01190,0.02561,-0.00691*
1,1,0.01190,-0.02561,-0.00691*
1,1,0.01190,-0.02561,0.00691*
%
%ADD62ROUNDEDRECTD62*%
%ADD63R,0.11036X0.05524*%
%ADD64R,0.03359X0.03280*%
%ADD65R,0.08083X0.14186*%
%ADD66O,0.09461X0.03556*%
%ADD67R,0.07493X0.04540*%
%ADD68R,0.19934X0.14028*%
%ADD69R,0.06312X0.06272*%
%ADD70R,0.07887X0.09068*%
%ADD71R,0.04343X0.03950*%
%ADD72R,0.03359X0.03556*%
%ADD73R,0.35249X0.21272*%
%ADD74C,0.08800*%
%ADD75C,0.06942*%
%ADD76C,0.09461*%
%ADD77C,0.11824*%
%ADD78C,0.14580*%
%ADD79C,0.38202*%
%ADD80C,0.09068*%
%ADD81C,0.24816*%
%ADD82C,0.04000*%
G36*
X238555Y254252D02*
X238280D01*
Y238916D01*
X220721D01*
Y254252D01*
X220445D01*
Y257284D01*
X223555D01*
Y255808D01*
X225445D01*
Y257284D01*
X228555D01*
Y255808D01*
X230445D01*
Y257284D01*
X233555D01*
Y255808D01*
X235445D01*
Y257284D01*
X238555D01*
Y254252D01*
D02*
G37*
G36*
X214055D02*
X213779D01*
Y238916D01*
X196221D01*
Y254252D01*
X195945D01*
Y257284D01*
X199055D01*
Y255808D01*
X200945D01*
Y257284D01*
X204055D01*
Y255808D01*
X205945D01*
Y257284D01*
X209055D01*
Y255808D01*
X210945D01*
Y257284D01*
X214055D01*
Y254252D01*
D02*
G37*
G36*
X308198Y245778D02*
Y241791D01*
X304098D01*
Y245778D01*
Y248191D01*
X308198D01*
Y245778D01*
D02*
G37*
G36*
X238555Y232716D02*
X235445D01*
Y235748D01*
X238555D01*
Y232716D01*
D02*
G37*
G36*
X233555D02*
X230445D01*
Y235748D01*
X233555D01*
Y232716D01*
D02*
G37*
G36*
X228555D02*
X225445D01*
Y235748D01*
X228555D01*
Y232716D01*
D02*
G37*
G36*
X223555D02*
X220445D01*
Y235748D01*
X223555D01*
Y232716D01*
D02*
G37*
G36*
X214055D02*
X210945D01*
Y235748D01*
X214055D01*
Y232716D01*
D02*
G37*
G36*
X209055D02*
X205945D01*
Y235748D01*
X209055D01*
Y232716D01*
D02*
G37*
G36*
X204055D02*
X200945D01*
Y235748D01*
X204055D01*
Y232716D01*
D02*
G37*
G36*
X199055D02*
X195945D01*
Y235748D01*
X199055D01*
Y232716D01*
D02*
G37*
%LPC*%
G36*
X306935Y245778D02*
X305360D01*
Y244204D01*
X306935D01*
Y245778D01*
D02*
G37*
%LPD*%
D27*
X346851Y251477D02*
D03*
Y248918D02*
D03*
Y246359D02*
D03*
Y243800D02*
D03*
Y241241D02*
D03*
Y238682D02*
D03*
Y236123D02*
D03*
X369051Y236123D02*
D03*
Y238682D02*
D03*
Y241241D02*
D03*
Y243800D02*
D03*
Y246359D02*
D03*
Y248918D02*
D03*
Y251477D02*
D03*
D47*
X284066Y264566D02*
D03*
Y262007D02*
D03*
Y259448D02*
D03*
X292137D02*
D03*
Y262007D02*
D03*
Y264566D02*
D03*
D48*
X371684Y280000D02*
D03*
X377983D02*
D03*
X362792Y267863D02*
D03*
X356493D02*
D03*
X333042Y268158D02*
D03*
X326743D02*
D03*
X290944Y253395D02*
D03*
X284644D02*
D03*
X309150Y235924D02*
D03*
X302850D02*
D03*
X271825Y265157D02*
D03*
X278124D02*
D03*
X302850Y255250D02*
D03*
X309150D02*
D03*
D49*
X379051Y271266D02*
D03*
X371571D02*
D03*
X375311Y263392D02*
D03*
X321247Y253713D02*
D03*
X328727D02*
D03*
X324987Y261587D02*
D03*
D50*
X340011Y268023D02*
D03*
X349263D02*
D03*
X310376Y268158D02*
D03*
X319628D02*
D03*
X502626Y176895D02*
D03*
X493374D02*
D03*
X502626Y188500D02*
D03*
X493374D02*
D03*
X502626Y164000D02*
D03*
X493374D02*
D03*
X502626Y151500D02*
D03*
X493374D02*
D03*
X502626Y139000D02*
D03*
X493374D02*
D03*
X502500Y204500D02*
D03*
X493248D02*
D03*
X502500Y211000D02*
D03*
X493248D02*
D03*
X502500Y217402D02*
D03*
X493248D02*
D03*
X502500Y223500D02*
D03*
X493248D02*
D03*
X502500Y229500D02*
D03*
X493248D02*
D03*
X502500Y236000D02*
D03*
X493248D02*
D03*
X502500Y242000D02*
D03*
X493248D02*
D03*
X502500Y248500D02*
D03*
X493248D02*
D03*
X233903Y404000D02*
D03*
X224651D02*
D03*
D51*
X261550Y265157D02*
D03*
Y258858D02*
D03*
D52*
X310281Y241841D02*
D03*
Y243416D02*
D03*
Y244991D02*
D03*
Y246566D02*
D03*
Y248141D02*
D03*
X302014D02*
D03*
Y246566D02*
D03*
Y244991D02*
D03*
Y243416D02*
D03*
Y241841D02*
D03*
D53*
X487500Y177984D02*
D03*
Y172472D02*
D03*
X324676Y379512D02*
D03*
Y374000D02*
D03*
X259113Y393256D02*
D03*
Y387744D02*
D03*
X326000Y306244D02*
D03*
Y311756D02*
D03*
X487500Y191256D02*
D03*
Y185744D02*
D03*
X487500Y166256D02*
D03*
Y160744D02*
D03*
Y154256D02*
D03*
Y148744D02*
D03*
Y141756D02*
D03*
Y136244D02*
D03*
X260894Y318000D02*
D03*
Y312488D02*
D03*
X332250Y248694D02*
D03*
Y243182D02*
D03*
X337250Y243182D02*
D03*
Y248694D02*
D03*
X383973Y234297D02*
D03*
Y239809D02*
D03*
X378351Y241006D02*
D03*
Y235494D02*
D03*
X398973Y234297D02*
D03*
Y239809D02*
D03*
X393973Y234297D02*
D03*
Y239809D02*
D03*
X388973Y234297D02*
D03*
Y239809D02*
D03*
D54*
X193197Y366122D02*
D03*
X187685D02*
D03*
X334506Y387744D02*
D03*
X328994D02*
D03*
Y393256D02*
D03*
X334506D02*
D03*
X342086Y391750D02*
D03*
X347598D02*
D03*
X342180Y386500D02*
D03*
X347691D02*
D03*
X264638Y408250D02*
D03*
X270150D02*
D03*
X270250Y402750D02*
D03*
X264738D02*
D03*
X276494Y405750D02*
D03*
X282006D02*
D03*
X276494Y400750D02*
D03*
X282006D02*
D03*
X334756Y325000D02*
D03*
X329244D02*
D03*
X480618Y248500D02*
D03*
X486130D02*
D03*
X480618Y242000D02*
D03*
X486130D02*
D03*
X480618Y236000D02*
D03*
X486130D02*
D03*
X480618Y229500D02*
D03*
X486130D02*
D03*
X480618Y223500D02*
D03*
X486130D02*
D03*
X480618Y217500D02*
D03*
X486130D02*
D03*
X480618Y211000D02*
D03*
X486130D02*
D03*
X480618Y204500D02*
D03*
X486130D02*
D03*
X466458Y251000D02*
D03*
X460947D02*
D03*
X341744Y324000D02*
D03*
X347256D02*
D03*
X341744Y319000D02*
D03*
X347256D02*
D03*
X329244Y320000D02*
D03*
X334756D02*
D03*
X277638Y328500D02*
D03*
X283150D02*
D03*
X277638Y323500D02*
D03*
X283150D02*
D03*
X264638Y329000D02*
D03*
X270150D02*
D03*
X264638Y323500D02*
D03*
X270150D02*
D03*
X275894Y287000D02*
D03*
X270382D02*
D03*
X248917Y231000D02*
D03*
X254429D02*
D03*
X337506Y238438D02*
D03*
X331994D02*
D03*
X337506Y233241D02*
D03*
X331994D02*
D03*
X211610Y404000D02*
D03*
X217121D02*
D03*
X411107Y240128D02*
D03*
X405595D02*
D03*
X405595Y245628D02*
D03*
X411107D02*
D03*
X405595Y251128D02*
D03*
X411107D02*
D03*
X411107Y256128D02*
D03*
X405595D02*
D03*
X378095Y251750D02*
D03*
X383607D02*
D03*
X378095Y256750D02*
D03*
X383607D02*
D03*
D55*
X396500Y382500D02*
D03*
Y406500D02*
D03*
X435500D02*
D03*
Y382500D02*
D03*
X396425Y345000D02*
D03*
Y369000D02*
D03*
X435425D02*
D03*
Y345000D02*
D03*
X397000Y268000D02*
D03*
Y292000D02*
D03*
X436000D02*
D03*
Y268000D02*
D03*
X396500Y307000D02*
D03*
Y331000D02*
D03*
X435500D02*
D03*
Y307000D02*
D03*
D56*
X375295Y371559D02*
D03*
X357579D02*
D03*
X309249Y384559D02*
D03*
X291532D02*
D03*
X373000Y313500D02*
D03*
X355283D02*
D03*
D57*
X376259Y350000D02*
D03*
X365235D02*
D03*
X376259Y340750D02*
D03*
X365235D02*
D03*
X345651Y350000D02*
D03*
X356675D02*
D03*
X345726Y340750D02*
D03*
X356750D02*
D03*
X277833Y363500D02*
D03*
X288856D02*
D03*
X277988Y355250D02*
D03*
X289012D02*
D03*
X310512Y357250D02*
D03*
X299488D02*
D03*
X310284Y366441D02*
D03*
X299260D02*
D03*
X297882Y290500D02*
D03*
X308906D02*
D03*
X280882Y285500D02*
D03*
X291906D02*
D03*
X308906Y299000D02*
D03*
X297882D02*
D03*
X353988Y278000D02*
D03*
X365012D02*
D03*
X374000Y289000D02*
D03*
X362976D02*
D03*
X362988Y297500D02*
D03*
X374012D02*
D03*
D58*
X274063Y382750D02*
D03*
X340000Y369000D02*
D03*
X339500Y301500D02*
D03*
X274894Y305500D02*
D03*
D59*
X281563Y393478D02*
D03*
X276563D02*
D03*
X271563D02*
D03*
X266563D02*
D03*
X281563Y372022D02*
D03*
X276563D02*
D03*
X271563D02*
D03*
X266563D02*
D03*
X332500Y358272D02*
D03*
X337500D02*
D03*
X342500D02*
D03*
X347500D02*
D03*
X332500Y379728D02*
D03*
X337500D02*
D03*
X342500D02*
D03*
X347500D02*
D03*
X347000Y312228D02*
D03*
X342000D02*
D03*
X337000D02*
D03*
X332000D02*
D03*
X347000Y290772D02*
D03*
X342000D02*
D03*
X337000D02*
D03*
X332000D02*
D03*
X267394Y294772D02*
D03*
X272394D02*
D03*
X277394D02*
D03*
X282394D02*
D03*
X267394Y316228D02*
D03*
X272394D02*
D03*
X277394D02*
D03*
X282394D02*
D03*
D60*
X171407Y385500D02*
D03*
D61*
X197195Y394500D02*
D03*
Y376500D02*
D03*
D62*
X466614Y229823D02*
D03*
Y232382D02*
D03*
Y234941D02*
D03*
Y237500D02*
D03*
Y240059D02*
D03*
Y242618D02*
D03*
Y245177D02*
D03*
X443386Y229823D02*
D03*
Y232382D02*
D03*
Y234941D02*
D03*
Y237500D02*
D03*
Y240059D02*
D03*
Y242618D02*
D03*
Y245177D02*
D03*
D63*
X287500Y245520D02*
D03*
Y235480D02*
D03*
D64*
X222000Y255768D02*
D03*
X227000D02*
D03*
X232000D02*
D03*
X237000D02*
D03*
Y234232D02*
D03*
X232000D02*
D03*
X227000D02*
D03*
X222000D02*
D03*
X197500Y255768D02*
D03*
X202500D02*
D03*
X207500D02*
D03*
X212500D02*
D03*
Y234232D02*
D03*
X207500D02*
D03*
X202500D02*
D03*
X197500D02*
D03*
D65*
X291969Y317000D02*
D03*
X313819D02*
D03*
D66*
X273327Y237000D02*
D03*
Y242000D02*
D03*
Y247000D02*
D03*
Y252000D02*
D03*
X251673Y237000D02*
D03*
Y242000D02*
D03*
Y247000D02*
D03*
Y252000D02*
D03*
D67*
X355000Y284976D02*
D03*
Y296000D02*
D03*
D68*
X170000Y362500D02*
D03*
D69*
X154323Y366122D02*
D03*
Y358878D02*
D03*
D70*
X139500Y352839D02*
D03*
Y370161D02*
D03*
D71*
X389914Y252550D02*
D03*
X397788Y256290D02*
D03*
Y248810D02*
D03*
D72*
X354773Y229250D02*
D03*
X360088D02*
D03*
D73*
X165500Y282000D02*
D03*
Y239480D02*
D03*
X124500Y282000D02*
D03*
Y239480D02*
D03*
D74*
X479500Y175611D02*
D03*
X421351Y253750D02*
D03*
X211500Y394000D02*
D03*
X118500Y153500D02*
D03*
X479500Y139000D02*
D03*
X118500Y142000D02*
D03*
X479500Y188500D02*
D03*
Y163500D02*
D03*
X421351Y242250D02*
D03*
X479500Y151500D02*
D03*
D75*
X469232Y275342D02*
D03*
Y285185D02*
D03*
X459390Y295028D02*
D03*
Y285185D02*
D03*
Y275342D02*
D03*
X469232Y295028D02*
D03*
Y265500D02*
D03*
X459390D02*
D03*
Y377136D02*
D03*
Y367294D02*
D03*
Y357451D02*
D03*
Y347609D02*
D03*
Y337766D02*
D03*
Y327924D02*
D03*
Y318081D02*
D03*
X469232Y377136D02*
D03*
Y367294D02*
D03*
Y357451D02*
D03*
Y347609D02*
D03*
Y337766D02*
D03*
Y327924D02*
D03*
Y318081D02*
D03*
D76*
X497500Y295028D02*
D03*
Y265500D02*
D03*
D77*
X198000Y162598D02*
D03*
Y184252D02*
D03*
X155000Y162598D02*
D03*
Y184252D02*
D03*
X284000Y162598D02*
D03*
Y184252D02*
D03*
X241000Y162598D02*
D03*
Y184252D02*
D03*
X369500Y162598D02*
D03*
Y184252D02*
D03*
X327000Y162598D02*
D03*
Y184252D02*
D03*
X453500Y162598D02*
D03*
Y184252D02*
D03*
X411500Y162598D02*
D03*
Y184252D02*
D03*
D78*
X198000Y133858D02*
D03*
X155000D02*
D03*
X284000D02*
D03*
X241000D02*
D03*
X369500D02*
D03*
X327000D02*
D03*
X453500D02*
D03*
X411500D02*
D03*
D79*
X168500Y322250D02*
D03*
X124500D02*
D03*
D80*
X497677Y317884D02*
D03*
Y376841D02*
D03*
D81*
X498500Y400500D02*
D03*
X117500D02*
D03*
X498500Y117500D02*
D03*
X117500D02*
D03*
D82*
X330250Y339545D02*
D03*
Y344250D02*
D03*
X334776Y339545D02*
D03*
Y344130D02*
D03*
X361482Y352000D02*
D03*
X286080Y371559D02*
D03*
X293917Y358250D02*
D03*
X293542Y366441D02*
D03*
X354143Y357406D02*
D03*
X361482Y356000D02*
D03*
M02*
