G04*
G04 #@! TF.GenerationSoftware,Altium Limited,Altium Designer,18.1.9 (240)*
G04*
G04 Layer_Color=8388736*
%FSLAX25Y25*%
%MOIN*%
G70*
G01*
G75*
%ADD37R,0.06600X0.01400*%
%ADD45R,0.04147X0.01902*%
%ADD46R,0.03359X0.03280*%
%ADD47R,0.04343X0.03556*%
%ADD48R,0.05721X0.05131*%
%ADD49O,0.06312X0.02572*%
%ADD50R,0.03556X0.04343*%
%ADD51R,0.07000X0.11900*%
%ADD52R,0.04540X0.07493*%
%ADD53R,0.09855X0.14973*%
%ADD54R,0.11036X0.05524*%
%ADD55R,0.07493X0.04540*%
%ADD56R,0.08674X0.07887*%
G04:AMPARAMS|DCode=57|XSize=102.49mil|YSize=130.05mil|CornerRadius=5.89mil|HoleSize=0mil|Usage=FLASHONLY|Rotation=270.000|XOffset=0mil|YOffset=0mil|HoleType=Round|Shape=RoundedRectangle|*
%AMROUNDEDRECTD57*
21,1,0.10249,0.11827,0,0,270.0*
21,1,0.09071,0.13005,0,0,270.0*
1,1,0.01178,-0.05913,-0.04535*
1,1,0.01178,-0.05913,0.04535*
1,1,0.01178,0.05913,0.04535*
1,1,0.01178,0.05913,-0.04535*
%
%ADD57ROUNDEDRECTD57*%
G04:AMPARAMS|DCode=58|XSize=31.62mil|YSize=65.09mil|CornerRadius=6.01mil|HoleSize=0mil|Usage=FLASHONLY|Rotation=0.000|XOffset=0mil|YOffset=0mil|HoleType=Round|Shape=RoundedRectangle|*
%AMROUNDEDRECTD58*
21,1,0.03162,0.05307,0,0,0.0*
21,1,0.01961,0.06509,0,0,0.0*
1,1,0.01202,0.00980,-0.02653*
1,1,0.01202,-0.00980,-0.02653*
1,1,0.01202,-0.00980,0.02653*
1,1,0.01202,0.00980,0.02653*
%
%ADD58ROUNDEDRECTD58*%
%ADD59R,0.08083X0.14186*%
%ADD60O,0.09461X0.03556*%
%ADD61R,0.07099X0.07099*%
%ADD62R,0.07099X0.05091*%
%ADD63R,0.11036X0.04540*%
%ADD64R,0.19934X0.14028*%
%ADD65R,0.06312X0.06272*%
%ADD66R,0.07887X0.09068*%
%ADD67R,0.04343X0.03950*%
%ADD68R,0.03359X0.03556*%
%ADD69R,0.35249X0.21272*%
%ADD70C,0.09068*%
%ADD71C,0.06942*%
%ADD72C,0.02800*%
%ADD73C,0.07493*%
%ADD74C,0.08800*%
%ADD75C,0.38202*%
%ADD76C,0.11824*%
%ADD77C,0.00800*%
%ADD78C,0.24816*%
G36*
X305165Y363504D02*
X306872D01*
Y361006D01*
Y359431D01*
Y357906D01*
Y356331D01*
Y354806D01*
Y353231D01*
Y351706D01*
Y350131D01*
Y348606D01*
Y347031D01*
Y345506D01*
Y341433D01*
X305165D01*
Y340659D01*
X304181D01*
Y341433D01*
X296307D01*
Y340659D01*
X295323D01*
Y341433D01*
X293616D01*
Y345506D01*
Y347031D01*
Y348606D01*
Y350131D01*
Y351706D01*
Y353231D01*
Y354806D01*
Y356331D01*
Y357906D01*
Y359431D01*
Y361006D01*
Y363504D01*
X295323D01*
Y364278D01*
X296307D01*
Y363504D01*
X304181D01*
Y364278D01*
X305165D01*
Y363504D01*
D02*
G37*
G36*
X311937Y361484D02*
X308039D01*
Y363138D01*
X311937D01*
Y361484D01*
D02*
G37*
G36*
X292449D02*
X288551D01*
Y363138D01*
X292449D01*
Y361484D01*
D02*
G37*
G36*
X311937Y359516D02*
X308039D01*
Y361169D01*
X311937D01*
Y359516D01*
D02*
G37*
G36*
X292449D02*
X288551D01*
Y361169D01*
X292449D01*
Y359516D01*
D02*
G37*
G36*
X311937Y357547D02*
X308039D01*
Y359201D01*
X311937D01*
Y357547D01*
D02*
G37*
G36*
X292449D02*
X288551D01*
Y359201D01*
X292449D01*
Y357547D01*
D02*
G37*
G36*
X311937Y355579D02*
X308039D01*
Y357232D01*
X311937D01*
Y355579D01*
D02*
G37*
G36*
X292449D02*
X288551D01*
Y357232D01*
X292449D01*
Y355579D01*
D02*
G37*
G36*
X311937Y353610D02*
X308039D01*
Y355264D01*
X311937D01*
Y353610D01*
D02*
G37*
G36*
X292449D02*
X288551D01*
Y355264D01*
X292449D01*
Y353610D01*
D02*
G37*
G36*
X311937Y351642D02*
X308039D01*
Y353295D01*
X311937D01*
Y351642D01*
D02*
G37*
G36*
X292449D02*
X288551D01*
Y353295D01*
X292449D01*
Y351642D01*
D02*
G37*
G36*
X311937Y349673D02*
X308039D01*
Y351327D01*
X311937D01*
Y349673D01*
D02*
G37*
G36*
X292449D02*
X288551D01*
Y351327D01*
X292449D01*
Y349673D01*
D02*
G37*
G36*
X311937Y347705D02*
X308039D01*
Y349358D01*
X311937D01*
Y347705D01*
D02*
G37*
G36*
X292449D02*
X288551D01*
Y349358D01*
X292449D01*
Y347705D01*
D02*
G37*
G36*
X311937Y345736D02*
X308039D01*
Y347390D01*
X311937D01*
Y345736D01*
D02*
G37*
G36*
X292449D02*
X288551D01*
Y347390D01*
X292449D01*
Y345736D01*
D02*
G37*
G36*
X311937Y343768D02*
X308039D01*
Y345421D01*
X311937D01*
Y343768D01*
D02*
G37*
G36*
X292449D02*
X288551D01*
Y345421D01*
X292449D01*
Y343768D01*
D02*
G37*
G36*
X311937Y341799D02*
X308039D01*
Y343453D01*
X311937D01*
Y341799D01*
D02*
G37*
G36*
X292449D02*
X288551D01*
Y343453D01*
X292449D01*
Y341799D01*
D02*
G37*
G36*
X238555Y254252D02*
X238280D01*
Y238916D01*
X220721D01*
Y254252D01*
X220445D01*
Y257284D01*
X223555D01*
Y255808D01*
X225445D01*
Y257284D01*
X228555D01*
Y255808D01*
X230445D01*
Y257284D01*
X233555D01*
Y255808D01*
X235445D01*
Y257284D01*
X238555D01*
Y254252D01*
D02*
G37*
G36*
X214055D02*
X213779D01*
Y238916D01*
X196221D01*
Y254252D01*
X195945D01*
Y257284D01*
X199055D01*
Y255808D01*
X200945D01*
Y257284D01*
X204055D01*
Y255808D01*
X205945D01*
Y257284D01*
X209055D01*
Y255808D01*
X210945D01*
Y257284D01*
X214055D01*
Y254252D01*
D02*
G37*
G36*
X238555Y232716D02*
X235445D01*
Y235748D01*
X238555D01*
Y232716D01*
D02*
G37*
G36*
X233555D02*
X230445D01*
Y235748D01*
X233555D01*
Y232716D01*
D02*
G37*
G36*
X228555D02*
X225445D01*
Y235748D01*
X228555D01*
Y232716D01*
D02*
G37*
G36*
X223555D02*
X220445D01*
Y235748D01*
X223555D01*
Y232716D01*
D02*
G37*
G36*
X214055D02*
X210945D01*
Y235748D01*
X214055D01*
Y232716D01*
D02*
G37*
G36*
X209055D02*
X205945D01*
Y235748D01*
X209055D01*
Y232716D01*
D02*
G37*
G36*
X204055D02*
X200945D01*
Y235748D01*
X204055D01*
Y232716D01*
D02*
G37*
G36*
X199055D02*
X195945D01*
Y235748D01*
X199055D01*
Y232716D01*
D02*
G37*
%LPC*%
G36*
X305681Y361006D02*
X304107D01*
Y359431D01*
X305681D01*
Y361006D01*
D02*
G37*
G36*
X302582D02*
X301007D01*
Y359431D01*
X302582D01*
Y361006D01*
D02*
G37*
G36*
X299482D02*
X297907D01*
Y359431D01*
X299482D01*
Y361006D01*
D02*
G37*
G36*
X296381D02*
X294807D01*
Y359431D01*
X296381D01*
Y361006D01*
D02*
G37*
G36*
X305681Y357906D02*
X304107D01*
Y356331D01*
X305681D01*
Y357906D01*
D02*
G37*
G36*
X302582D02*
X301007D01*
Y356331D01*
X302582D01*
Y357906D01*
D02*
G37*
G36*
X299482D02*
X297907D01*
Y356331D01*
X299482D01*
Y357906D01*
D02*
G37*
G36*
X296381D02*
X294807D01*
Y356331D01*
X296381D01*
Y357906D01*
D02*
G37*
G36*
X305681Y354806D02*
X304107D01*
Y353231D01*
X305681D01*
Y354806D01*
D02*
G37*
G36*
X302582D02*
X301007D01*
Y353231D01*
X302582D01*
Y354806D01*
D02*
G37*
G36*
X299482D02*
X297907D01*
Y353231D01*
X299482D01*
Y354806D01*
D02*
G37*
G36*
X296381D02*
X294807D01*
Y353231D01*
X296381D01*
Y354806D01*
D02*
G37*
G36*
X305681Y351706D02*
X304107D01*
Y350131D01*
X305681D01*
Y351706D01*
D02*
G37*
G36*
X302582D02*
X301007D01*
Y350131D01*
X302582D01*
Y351706D01*
D02*
G37*
G36*
X299482D02*
X297907D01*
Y350131D01*
X299482D01*
Y351706D01*
D02*
G37*
G36*
X296381D02*
X294807D01*
Y350131D01*
X296381D01*
Y351706D01*
D02*
G37*
G36*
X305681Y348606D02*
X304107D01*
Y347031D01*
X305681D01*
Y348606D01*
D02*
G37*
G36*
X302582D02*
X301007D01*
Y347031D01*
X302582D01*
Y348606D01*
D02*
G37*
G36*
X299482D02*
X297907D01*
Y347031D01*
X299482D01*
Y348606D01*
D02*
G37*
G36*
X296381D02*
X294807D01*
Y347031D01*
X296381D01*
Y348606D01*
D02*
G37*
G36*
X305681Y345506D02*
X304107D01*
Y343931D01*
X305681D01*
Y345506D01*
D02*
G37*
G36*
X302582D02*
X301007D01*
Y343931D01*
X302582D01*
Y345506D01*
D02*
G37*
G36*
X299482D02*
X297907D01*
Y343931D01*
X299482D01*
Y345506D01*
D02*
G37*
G36*
X296381D02*
X294807D01*
Y343931D01*
X296381D01*
Y345506D01*
D02*
G37*
%LPD*%
D37*
X337700Y251727D02*
D03*
Y249168D02*
D03*
Y246609D02*
D03*
Y244050D02*
D03*
Y241491D02*
D03*
Y238932D02*
D03*
Y236373D02*
D03*
X315500Y236373D02*
D03*
Y238932D02*
D03*
Y241491D02*
D03*
Y244050D02*
D03*
Y246609D02*
D03*
Y249168D02*
D03*
Y251727D02*
D03*
D45*
X309988Y342626D02*
D03*
Y344595D02*
D03*
Y346563D02*
D03*
Y348532D02*
D03*
Y350500D02*
D03*
Y352468D02*
D03*
Y354437D02*
D03*
Y356405D02*
D03*
Y358374D02*
D03*
Y360343D02*
D03*
Y362311D02*
D03*
X290500D02*
D03*
Y360343D02*
D03*
Y358374D02*
D03*
Y356405D02*
D03*
Y354437D02*
D03*
Y352468D02*
D03*
Y350500D02*
D03*
Y348532D02*
D03*
Y346563D02*
D03*
Y344595D02*
D03*
Y342626D02*
D03*
D46*
X222000Y255768D02*
D03*
X227000D02*
D03*
X232000D02*
D03*
X237000D02*
D03*
Y234232D02*
D03*
X232000D02*
D03*
X227000D02*
D03*
X222000D02*
D03*
X197500Y255768D02*
D03*
X202500D02*
D03*
X207500D02*
D03*
X212500D02*
D03*
Y234232D02*
D03*
X207500D02*
D03*
X202500D02*
D03*
X197500D02*
D03*
D47*
X487500Y177756D02*
D03*
Y172244D02*
D03*
Y166256D02*
D03*
Y160744D02*
D03*
Y154256D02*
D03*
Y148744D02*
D03*
Y141756D02*
D03*
Y136244D02*
D03*
X318500Y349244D02*
D03*
Y354756D02*
D03*
X326000Y311953D02*
D03*
Y306047D02*
D03*
X260894Y318000D02*
D03*
Y312488D02*
D03*
X301000Y248953D02*
D03*
Y243441D02*
D03*
X306000Y243441D02*
D03*
Y248953D02*
D03*
X352622Y234547D02*
D03*
Y240059D02*
D03*
X347000Y241256D02*
D03*
Y235744D02*
D03*
X367622Y234547D02*
D03*
Y240059D02*
D03*
X362622Y240059D02*
D03*
Y234547D02*
D03*
X357622Y240059D02*
D03*
Y234547D02*
D03*
D48*
X502626Y175000D02*
D03*
X493374D02*
D03*
X502626Y164000D02*
D03*
X493374D02*
D03*
X502626Y151500D02*
D03*
X493374D02*
D03*
X502626Y139000D02*
D03*
X493374D02*
D03*
X502500Y204500D02*
D03*
X493248D02*
D03*
X502500Y211000D02*
D03*
X493248D02*
D03*
X502500Y217402D02*
D03*
X493248D02*
D03*
X502500Y223500D02*
D03*
X493248D02*
D03*
X502500Y229500D02*
D03*
X493248D02*
D03*
X502500Y236000D02*
D03*
X493248D02*
D03*
X502500Y242000D02*
D03*
X493248D02*
D03*
X502500Y248500D02*
D03*
X493248D02*
D03*
X197626Y378000D02*
D03*
X188374D02*
D03*
D49*
X466614Y229823D02*
D03*
Y232382D02*
D03*
Y234941D02*
D03*
Y237500D02*
D03*
Y240059D02*
D03*
Y242618D02*
D03*
Y245177D02*
D03*
X443386Y229823D02*
D03*
Y232382D02*
D03*
Y234941D02*
D03*
Y237500D02*
D03*
Y240059D02*
D03*
Y242618D02*
D03*
Y245177D02*
D03*
D50*
X480618Y248500D02*
D03*
X486130D02*
D03*
X480618Y242000D02*
D03*
X486130D02*
D03*
X480618Y236000D02*
D03*
X486130D02*
D03*
X480618Y229500D02*
D03*
X486130D02*
D03*
X480618Y223500D02*
D03*
X486130D02*
D03*
X480618Y217500D02*
D03*
X486130D02*
D03*
X480618Y211000D02*
D03*
X486130D02*
D03*
X480618Y204500D02*
D03*
X486130D02*
D03*
X466458Y251000D02*
D03*
X460947D02*
D03*
X278256Y349000D02*
D03*
X272744D02*
D03*
X278256Y344000D02*
D03*
X272744D02*
D03*
X278256Y339000D02*
D03*
X272744D02*
D03*
X317744Y344719D02*
D03*
X323256D02*
D03*
X329244Y344000D02*
D03*
X334756D02*
D03*
X329244Y349500D02*
D03*
X334756D02*
D03*
X340000Y349500D02*
D03*
X345512D02*
D03*
X345756Y337500D02*
D03*
X340244D02*
D03*
X340244Y332000D02*
D03*
X345756D02*
D03*
X341744Y324000D02*
D03*
X347256D02*
D03*
X341744Y319000D02*
D03*
X347256D02*
D03*
X329244Y320000D02*
D03*
X334756D02*
D03*
X329047Y325000D02*
D03*
X334953D02*
D03*
X333256Y332000D02*
D03*
X327744D02*
D03*
X277638Y328500D02*
D03*
X283150D02*
D03*
X277638Y323500D02*
D03*
X283150D02*
D03*
X264638Y329000D02*
D03*
X270150D02*
D03*
X264638Y323500D02*
D03*
X270150D02*
D03*
X275894Y287000D02*
D03*
X270382D02*
D03*
X248917Y231000D02*
D03*
X254429D02*
D03*
X257256Y258500D02*
D03*
X251744D02*
D03*
X269256D02*
D03*
X263744D02*
D03*
X306256Y238697D02*
D03*
X300744D02*
D03*
X306256Y233500D02*
D03*
X300744D02*
D03*
X176744Y378000D02*
D03*
X182256D02*
D03*
X304244Y335500D02*
D03*
X309756D02*
D03*
X327744Y337000D02*
D03*
X333256D02*
D03*
X379756Y240378D02*
D03*
X374244D02*
D03*
X374244Y245878D02*
D03*
X379756D02*
D03*
X374244Y251378D02*
D03*
X379756D02*
D03*
X379756Y256378D02*
D03*
X374244D02*
D03*
X346744Y252000D02*
D03*
X352256D02*
D03*
X346744Y257000D02*
D03*
X352256D02*
D03*
D51*
X397000Y268000D02*
D03*
Y292000D02*
D03*
X436000D02*
D03*
Y268000D02*
D03*
X396500Y307000D02*
D03*
Y331000D02*
D03*
X435500D02*
D03*
Y307000D02*
D03*
X412250Y346250D02*
D03*
Y370250D02*
D03*
X451250D02*
D03*
Y346250D02*
D03*
D52*
X412988Y380500D02*
D03*
X424012D02*
D03*
X280882Y285500D02*
D03*
X291906D02*
D03*
X308906Y299000D02*
D03*
X297882D02*
D03*
X308906Y290500D02*
D03*
X297882D02*
D03*
X353988Y278000D02*
D03*
X365012D02*
D03*
X374000Y289000D02*
D03*
X362976D02*
D03*
X362988Y297500D02*
D03*
X374012D02*
D03*
D53*
X356890Y361000D02*
D03*
X393110D02*
D03*
D54*
X256000Y358480D02*
D03*
Y368520D02*
D03*
X269000Y358480D02*
D03*
Y368520D02*
D03*
D55*
X279500Y358000D02*
D03*
Y369024D02*
D03*
X355000Y284976D02*
D03*
Y296000D02*
D03*
D56*
X373000Y313500D02*
D03*
X355283D02*
D03*
D57*
X339500Y301500D02*
D03*
X274894Y305500D02*
D03*
D58*
X347000Y312228D02*
D03*
X342000D02*
D03*
X337000D02*
D03*
X332000D02*
D03*
X347000Y290772D02*
D03*
X342000D02*
D03*
X337000D02*
D03*
X332000D02*
D03*
X267394Y294772D02*
D03*
X272394D02*
D03*
X277394D02*
D03*
X282394D02*
D03*
X267394Y316228D02*
D03*
X272394D02*
D03*
X277394D02*
D03*
X282394D02*
D03*
D59*
X291969Y317000D02*
D03*
X313819D02*
D03*
D60*
X273327Y237000D02*
D03*
Y242000D02*
D03*
Y247000D02*
D03*
Y252000D02*
D03*
X251673Y237000D02*
D03*
Y242000D02*
D03*
Y247000D02*
D03*
Y252000D02*
D03*
D61*
X282500Y257500D02*
D03*
D62*
X293917Y252953D02*
D03*
Y262047D02*
D03*
D63*
X287500Y246012D02*
D03*
Y234988D02*
D03*
D64*
X170000Y362500D02*
D03*
D65*
X154323Y366122D02*
D03*
Y358878D02*
D03*
D66*
X139500Y352839D02*
D03*
Y370161D02*
D03*
D67*
X358563Y252800D02*
D03*
X366437Y256540D02*
D03*
Y249060D02*
D03*
D68*
X323422Y229500D02*
D03*
X328737D02*
D03*
D69*
X165500Y282000D02*
D03*
Y239480D02*
D03*
X124500Y282000D02*
D03*
Y239480D02*
D03*
D70*
X497400Y346342D02*
D03*
Y316815D02*
D03*
D71*
X469250Y346342D02*
D03*
Y336500D02*
D03*
Y326658D02*
D03*
Y316815D02*
D03*
X469232Y275342D02*
D03*
Y285185D02*
D03*
X459390Y295028D02*
D03*
Y285185D02*
D03*
Y275342D02*
D03*
X469232Y295028D02*
D03*
Y265500D02*
D03*
X459390D02*
D03*
D72*
X304894Y360219D02*
D03*
Y357119D02*
D03*
Y354018D02*
D03*
Y350919D02*
D03*
Y347818D02*
D03*
Y344719D02*
D03*
X301794Y360219D02*
D03*
Y357119D02*
D03*
Y354018D02*
D03*
Y350919D02*
D03*
Y347818D02*
D03*
Y344719D02*
D03*
X298694Y360219D02*
D03*
Y357119D02*
D03*
Y354018D02*
D03*
Y350919D02*
D03*
Y347818D02*
D03*
Y344719D02*
D03*
X295594Y360219D02*
D03*
Y357119D02*
D03*
Y354018D02*
D03*
Y350919D02*
D03*
Y347818D02*
D03*
Y344719D02*
D03*
D73*
X497500Y295028D02*
D03*
Y265500D02*
D03*
D74*
X390000Y254000D02*
D03*
X168500Y378000D02*
D03*
X118500Y153500D02*
D03*
X479500Y139000D02*
D03*
X118500Y142000D02*
D03*
X479500Y175000D02*
D03*
Y163500D02*
D03*
X390000Y242500D02*
D03*
X479500Y151500D02*
D03*
D75*
X124000Y322500D02*
D03*
X168000D02*
D03*
D76*
X198000Y162598D02*
D03*
Y184252D02*
D03*
X155000Y162598D02*
D03*
Y184252D02*
D03*
X284000Y162598D02*
D03*
Y184252D02*
D03*
X241000Y162598D02*
D03*
Y184252D02*
D03*
X369500Y162598D02*
D03*
Y184252D02*
D03*
X327000Y162598D02*
D03*
Y184252D02*
D03*
X453500Y162598D02*
D03*
Y184252D02*
D03*
X411500Y162598D02*
D03*
Y184252D02*
D03*
D77*
X198000Y133858D02*
D03*
X155000D02*
D03*
X284000D02*
D03*
X241000D02*
D03*
X369500D02*
D03*
X327000D02*
D03*
X453500D02*
D03*
X411500D02*
D03*
D78*
X498500Y370000D02*
D03*
X117500D02*
D03*
X498500Y117500D02*
D03*
X117500D02*
D03*
M02*
