G04*
G04 #@! TF.GenerationSoftware,Altium Limited,Altium Designer,18.1.9 (240)*
G04*
G04 Layer_Color=8388736*
%FSLAX25Y25*%
%MOIN*%
G70*
G01*
G75*
%ADD53R,0.06299X0.04626*%
%ADD54R,0.04737X0.04343*%
%ADD55R,0.05131X0.05721*%
%ADD56R,0.02375X0.06115*%
%ADD57R,0.07887X0.08280*%
%ADD58R,0.04343X0.04737*%
%ADD59R,0.03162X0.06115*%
%ADD60R,0.04934X0.05328*%
%ADD61R,0.05131X0.04658*%
%ADD62R,0.05524X0.07099*%
%ADD63R,0.11430X0.05328*%
%ADD64R,0.05721X0.05131*%
%ADD65R,0.06115X0.03162*%
%ADD66R,0.05524X0.03359*%
%ADD67R,0.03556X0.04737*%
%ADD68R,0.07099X0.07099*%
%ADD69R,0.05091X0.07099*%
%ADD70R,0.04343X0.03556*%
%ADD71R,0.06312X0.01587*%
%ADD72R,0.03792X0.10249*%
%ADD73O,0.06902X0.01784*%
%ADD74O,0.01784X0.06902*%
%ADD75R,0.07493X0.06706*%
%ADD76R,0.03950X0.07414*%
%ADD77R,0.07099X0.06706*%
%ADD78R,0.05879X0.05918*%
%ADD79R,0.05879X0.06312*%
%ADD80R,0.06706X0.07493*%
%ADD81R,0.04934X0.07493*%
%ADD82R,0.04737X0.06312*%
%ADD83R,0.11430X0.06312*%
%ADD84O,0.09461X0.03556*%
%ADD85R,0.07099X0.07099*%
%ADD86R,0.07099X0.05091*%
G04:AMPARAMS|DCode=87|XSize=31.62mil|YSize=47.37mil|CornerRadius=6.01mil|HoleSize=0mil|Usage=FLASHONLY|Rotation=0.000|XOffset=0mil|YOffset=0mil|HoleType=Round|Shape=RoundedRectangle|*
%AMROUNDEDRECTD87*
21,1,0.03162,0.03535,0,0,0.0*
21,1,0.01961,0.04737,0,0,0.0*
1,1,0.01202,0.00980,-0.01768*
1,1,0.01202,-0.00980,-0.01768*
1,1,0.01202,-0.00980,0.01768*
1,1,0.01202,0.00980,0.01768*
%
%ADD87ROUNDEDRECTD87*%
%ADD88R,0.06658X0.08280*%
%ADD89O,0.04934X0.05721*%
%ADD90O,0.05623X0.08280*%
%ADD91C,0.06706*%
%ADD92R,0.06706X0.06706*%
%ADD93C,0.09068*%
%ADD94C,0.06942*%
%ADD95C,0.08800*%
%ADD96C,0.00800*%
%ADD97C,0.07493*%
%ADD98C,0.24816*%
%ADD99C,0.04000*%
D53*
X356500Y265525D02*
D03*
D54*
X522000Y305480D02*
D03*
Y299181D02*
D03*
X513982Y305480D02*
D03*
Y299181D02*
D03*
X505482Y305480D02*
D03*
Y299181D02*
D03*
X511394Y148035D02*
D03*
Y154335D02*
D03*
X504894Y154335D02*
D03*
Y148035D02*
D03*
X518567Y205650D02*
D03*
Y199350D02*
D03*
X448000Y269701D02*
D03*
Y263402D02*
D03*
X385000Y263457D02*
D03*
Y269756D02*
D03*
X376898Y278850D02*
D03*
Y285150D02*
D03*
X370953Y285197D02*
D03*
Y278898D02*
D03*
X426000Y155150D02*
D03*
Y148850D02*
D03*
X414500Y205169D02*
D03*
Y211469D02*
D03*
X408500Y205169D02*
D03*
Y211469D02*
D03*
X402500Y205169D02*
D03*
Y211469D02*
D03*
X396500Y205169D02*
D03*
Y211469D02*
D03*
X390500Y205169D02*
D03*
Y211469D02*
D03*
X416000Y223850D02*
D03*
Y230150D02*
D03*
X408500Y223850D02*
D03*
Y230150D02*
D03*
X435000Y241799D02*
D03*
Y248098D02*
D03*
X442500Y241799D02*
D03*
Y248098D02*
D03*
X349335Y154262D02*
D03*
Y147963D02*
D03*
X355606Y147963D02*
D03*
Y154262D02*
D03*
X374256Y208026D02*
D03*
Y201726D02*
D03*
X298028Y241799D02*
D03*
Y248098D02*
D03*
X290500Y241799D02*
D03*
Y248098D02*
D03*
X182874Y293650D02*
D03*
Y287350D02*
D03*
X187000Y262850D02*
D03*
Y269150D02*
D03*
X181000Y262850D02*
D03*
Y269150D02*
D03*
X271657Y154762D02*
D03*
Y148463D02*
D03*
X260157Y205187D02*
D03*
Y211486D02*
D03*
X254157Y205187D02*
D03*
Y211486D02*
D03*
X248158Y205187D02*
D03*
Y211486D02*
D03*
X242158Y205187D02*
D03*
Y211486D02*
D03*
X236157Y205187D02*
D03*
Y211486D02*
D03*
X606500Y268409D02*
D03*
Y274709D02*
D03*
X528500Y170000D02*
D03*
Y176299D02*
D03*
Y182000D02*
D03*
Y188299D02*
D03*
Y227000D02*
D03*
Y233299D02*
D03*
Y238650D02*
D03*
Y244949D02*
D03*
Y261799D02*
D03*
Y255500D02*
D03*
X536000Y261799D02*
D03*
Y255500D02*
D03*
X528500Y153388D02*
D03*
Y159687D02*
D03*
X536000Y267850D02*
D03*
Y274150D02*
D03*
X528500Y194000D02*
D03*
Y200299D02*
D03*
Y206500D02*
D03*
Y212799D02*
D03*
X543000Y255500D02*
D03*
Y261799D02*
D03*
Y274150D02*
D03*
Y267850D02*
D03*
X552000Y170075D02*
D03*
Y176374D02*
D03*
Y182075D02*
D03*
Y188374D02*
D03*
Y227075D02*
D03*
Y233374D02*
D03*
Y238724D02*
D03*
Y245024D02*
D03*
Y261874D02*
D03*
Y255575D02*
D03*
X559500Y261874D02*
D03*
Y255575D02*
D03*
X552000Y153463D02*
D03*
Y159762D02*
D03*
X559500Y267925D02*
D03*
Y274224D02*
D03*
X552000Y194075D02*
D03*
Y200374D02*
D03*
Y206575D02*
D03*
Y212874D02*
D03*
X566500Y255575D02*
D03*
Y261874D02*
D03*
Y274224D02*
D03*
Y267925D02*
D03*
X575500Y170000D02*
D03*
Y176299D02*
D03*
Y182000D02*
D03*
Y188299D02*
D03*
Y227000D02*
D03*
Y233299D02*
D03*
Y238650D02*
D03*
Y244949D02*
D03*
Y261799D02*
D03*
Y255500D02*
D03*
X583000Y261799D02*
D03*
Y255500D02*
D03*
X575500Y153388D02*
D03*
Y159687D02*
D03*
X583000Y267850D02*
D03*
Y274150D02*
D03*
X575500Y194000D02*
D03*
Y200299D02*
D03*
Y206500D02*
D03*
Y212799D02*
D03*
X590000Y255500D02*
D03*
Y261799D02*
D03*
Y274150D02*
D03*
Y267850D02*
D03*
X599000Y170059D02*
D03*
Y176358D02*
D03*
Y182059D02*
D03*
Y188358D02*
D03*
Y227059D02*
D03*
Y233358D02*
D03*
Y238709D02*
D03*
Y245008D02*
D03*
Y261858D02*
D03*
Y255559D02*
D03*
X606500Y261858D02*
D03*
Y255559D02*
D03*
X599000Y153447D02*
D03*
Y159746D02*
D03*
Y194059D02*
D03*
Y200358D02*
D03*
Y206559D02*
D03*
Y212858D02*
D03*
X613500Y255559D02*
D03*
Y261858D02*
D03*
Y274209D02*
D03*
Y267910D02*
D03*
D55*
X522000Y322457D02*
D03*
Y313205D02*
D03*
X514000Y322457D02*
D03*
Y313205D02*
D03*
X505482Y322457D02*
D03*
Y313205D02*
D03*
X503894Y120811D02*
D03*
Y111559D02*
D03*
X511894Y120811D02*
D03*
Y111559D02*
D03*
X416000Y247126D02*
D03*
Y237874D02*
D03*
X408500Y247126D02*
D03*
Y237874D02*
D03*
X355301Y117626D02*
D03*
Y108374D02*
D03*
X347098Y117738D02*
D03*
Y108486D02*
D03*
X182500Y312252D02*
D03*
Y303000D02*
D03*
D56*
X447732Y116024D02*
D03*
X450291D02*
D03*
X452850D02*
D03*
X455409D02*
D03*
X457969D02*
D03*
X291455Y117301D02*
D03*
X294014D02*
D03*
X296573D02*
D03*
X299132D02*
D03*
X301691D02*
D03*
D57*
X457378Y105000D02*
D03*
X448323D02*
D03*
X301100Y106278D02*
D03*
X292045D02*
D03*
D58*
X492150Y166049D02*
D03*
X485850D02*
D03*
X473894D02*
D03*
X480193D02*
D03*
X495543Y135185D02*
D03*
X489244D02*
D03*
X457181Y127000D02*
D03*
X463480D02*
D03*
X511543Y135185D02*
D03*
X505244D02*
D03*
X505244Y141685D02*
D03*
X511543D02*
D03*
X503688Y179500D02*
D03*
X509988D02*
D03*
X503688Y187000D02*
D03*
X509988D02*
D03*
X503688Y193000D02*
D03*
X509988D02*
D03*
X504350Y228175D02*
D03*
X510650D02*
D03*
X504350Y221876D02*
D03*
X510650D02*
D03*
Y216000D02*
D03*
X504350D02*
D03*
X467589Y283150D02*
D03*
X473888D02*
D03*
X467589Y275734D02*
D03*
X473888D02*
D03*
X467589Y268236D02*
D03*
X473888D02*
D03*
X438650Y278000D02*
D03*
X432350D02*
D03*
X415350Y277500D02*
D03*
X421650D02*
D03*
X408150Y278500D02*
D03*
X401850D02*
D03*
X388350D02*
D03*
X394650D02*
D03*
X372201Y256500D02*
D03*
X378500D02*
D03*
X395350Y179000D02*
D03*
X401650D02*
D03*
X423650Y177500D02*
D03*
X417350D02*
D03*
X423650Y185000D02*
D03*
X417350D02*
D03*
X299016Y126884D02*
D03*
X305315D02*
D03*
X349650Y165612D02*
D03*
X343350D02*
D03*
X330957D02*
D03*
X337256D02*
D03*
X340205Y135112D02*
D03*
X333906D02*
D03*
X355756D02*
D03*
X349457D02*
D03*
X349457Y141612D02*
D03*
X355756D02*
D03*
X359850Y181455D02*
D03*
X366150D02*
D03*
X359850Y188621D02*
D03*
X366150D02*
D03*
X359756Y194876D02*
D03*
X366055D02*
D03*
X366500Y216833D02*
D03*
X360201D02*
D03*
Y228882D02*
D03*
X366500D02*
D03*
X360201Y222882D02*
D03*
X366500D02*
D03*
X340350Y242500D02*
D03*
X346650D02*
D03*
X340350Y248500D02*
D03*
X346650D02*
D03*
X191150Y232000D02*
D03*
X184850D02*
D03*
X206150Y178124D02*
D03*
X199850D02*
D03*
X206150Y171000D02*
D03*
X199850D02*
D03*
X239508Y179612D02*
D03*
X245807D02*
D03*
X239508Y173612D02*
D03*
X245807D02*
D03*
X280000Y177500D02*
D03*
X273701D02*
D03*
X280000Y185000D02*
D03*
X273701D02*
D03*
X536850Y208150D02*
D03*
X543150D02*
D03*
X542650Y249150D02*
D03*
X536350D02*
D03*
X536850Y200150D02*
D03*
X543150D02*
D03*
Y222650D02*
D03*
X536850D02*
D03*
X543150Y193650D02*
D03*
X536850D02*
D03*
X543150Y215150D02*
D03*
X536850D02*
D03*
X560350Y208224D02*
D03*
X566650D02*
D03*
X566150Y249224D02*
D03*
X559850D02*
D03*
X560350Y200224D02*
D03*
X566650D02*
D03*
Y222724D02*
D03*
X560350D02*
D03*
X566650Y193724D02*
D03*
X560350D02*
D03*
X566650Y215224D02*
D03*
X560350D02*
D03*
X583850Y208150D02*
D03*
X590150D02*
D03*
X589650Y249150D02*
D03*
X583350D02*
D03*
X583850Y200150D02*
D03*
X590150D02*
D03*
Y222650D02*
D03*
X583850D02*
D03*
X590150Y193650D02*
D03*
X583850D02*
D03*
X590150Y215150D02*
D03*
X583850D02*
D03*
X607350Y208209D02*
D03*
X613650D02*
D03*
X613150Y249209D02*
D03*
X606850D02*
D03*
X607350Y200209D02*
D03*
X613650D02*
D03*
Y222709D02*
D03*
X607350D02*
D03*
X613650Y193709D02*
D03*
X607350D02*
D03*
X613650Y215209D02*
D03*
X607350D02*
D03*
X401650Y172850D02*
D03*
X395350D02*
D03*
X486000Y242949D02*
D03*
X479701D02*
D03*
X486039Y249500D02*
D03*
X479740D02*
D03*
D59*
X496634Y152909D02*
D03*
X489153D02*
D03*
X492894Y143461D02*
D03*
X340795Y153061D02*
D03*
X333315D02*
D03*
X337055Y143612D02*
D03*
D60*
X491748Y109716D02*
D03*
Y122906D02*
D03*
X486039Y109716D02*
D03*
Y122906D02*
D03*
X337303Y107018D02*
D03*
Y120207D02*
D03*
X331594Y107018D02*
D03*
Y120207D02*
D03*
D61*
X512264Y205955D02*
D03*
X503602D02*
D03*
Y199262D02*
D03*
X512264D02*
D03*
X367480Y208215D02*
D03*
X358819D02*
D03*
Y201522D02*
D03*
X367480D02*
D03*
D62*
X517762Y255685D02*
D03*
Y241512D02*
D03*
X541000Y343569D02*
D03*
Y329396D02*
D03*
D63*
X505762Y243193D02*
D03*
Y255004D02*
D03*
X541000Y320295D02*
D03*
Y308484D02*
D03*
D64*
X490865Y283150D02*
D03*
X481613D02*
D03*
X490865Y275650D02*
D03*
X481613D02*
D03*
X490865Y268236D02*
D03*
X481613D02*
D03*
X440126Y285000D02*
D03*
X430874D02*
D03*
X396126Y285150D02*
D03*
X386874D02*
D03*
X182874Y178124D02*
D03*
X192126D02*
D03*
X182874Y170612D02*
D03*
X192126D02*
D03*
D65*
X430776Y266500D02*
D03*
X440224Y270240D02*
D03*
Y262760D02*
D03*
X402224Y266559D02*
D03*
X392776Y262819D02*
D03*
Y270299D02*
D03*
D66*
X412193Y270299D02*
D03*
Y266559D02*
D03*
Y262819D02*
D03*
X423807D02*
D03*
Y270299D02*
D03*
D67*
X371158Y262776D02*
D03*
X378638D02*
D03*
X371158Y272224D02*
D03*
X374898D02*
D03*
X378638D02*
D03*
D68*
X356665Y274968D02*
D03*
D69*
X361213Y286385D02*
D03*
X352118D02*
D03*
D70*
X363500Y268406D02*
D03*
Y262500D02*
D03*
X349744Y262547D02*
D03*
Y268453D02*
D03*
D71*
X356500Y267051D02*
D03*
X356500Y264000D02*
D03*
D72*
X448323Y139425D02*
D03*
X453323D02*
D03*
X458323D02*
D03*
X463323D02*
D03*
X468323D02*
D03*
Y154780D02*
D03*
X463323D02*
D03*
X458323D02*
D03*
X453323D02*
D03*
X448323D02*
D03*
X292665Y138884D02*
D03*
X297665D02*
D03*
X302665D02*
D03*
X307665D02*
D03*
X312665D02*
D03*
Y154238D02*
D03*
X307665D02*
D03*
X302665D02*
D03*
X297665D02*
D03*
X292665D02*
D03*
D73*
X347339Y180648D02*
D03*
Y182616D02*
D03*
Y184585D02*
D03*
Y186553D02*
D03*
Y188522D02*
D03*
Y190490D02*
D03*
Y192459D02*
D03*
Y194427D02*
D03*
Y196396D02*
D03*
Y198364D02*
D03*
Y200333D02*
D03*
Y202301D02*
D03*
Y204270D02*
D03*
Y206238D02*
D03*
Y208207D02*
D03*
Y210175D02*
D03*
Y212144D02*
D03*
Y214112D02*
D03*
Y216081D02*
D03*
Y218049D02*
D03*
Y220018D02*
D03*
Y221986D02*
D03*
Y223955D02*
D03*
Y225923D02*
D03*
Y227892D02*
D03*
X288087D02*
D03*
Y225923D02*
D03*
Y223955D02*
D03*
Y221986D02*
D03*
Y220018D02*
D03*
Y218049D02*
D03*
Y216081D02*
D03*
Y214112D02*
D03*
Y212144D02*
D03*
Y210175D02*
D03*
Y208207D02*
D03*
Y206238D02*
D03*
Y204270D02*
D03*
Y202301D02*
D03*
Y200333D02*
D03*
Y198364D02*
D03*
Y196396D02*
D03*
Y194427D02*
D03*
Y192459D02*
D03*
Y190490D02*
D03*
Y188522D02*
D03*
Y186553D02*
D03*
Y184585D02*
D03*
Y182616D02*
D03*
Y180648D02*
D03*
X430811Y179919D02*
D03*
Y181888D02*
D03*
Y183856D02*
D03*
Y185825D02*
D03*
Y187793D02*
D03*
Y189762D02*
D03*
Y191730D02*
D03*
Y193699D02*
D03*
Y195667D02*
D03*
Y197636D02*
D03*
Y199604D02*
D03*
Y201573D02*
D03*
Y203541D02*
D03*
Y205510D02*
D03*
Y207478D02*
D03*
Y209447D02*
D03*
Y211415D02*
D03*
Y213384D02*
D03*
Y215352D02*
D03*
Y217321D02*
D03*
Y219289D02*
D03*
Y221258D02*
D03*
Y223226D02*
D03*
Y225195D02*
D03*
Y227163D02*
D03*
X490063D02*
D03*
Y225195D02*
D03*
Y223226D02*
D03*
Y221258D02*
D03*
Y219289D02*
D03*
Y217321D02*
D03*
Y215352D02*
D03*
Y213384D02*
D03*
Y211415D02*
D03*
Y209447D02*
D03*
Y207478D02*
D03*
Y205510D02*
D03*
Y203541D02*
D03*
Y201573D02*
D03*
Y199604D02*
D03*
Y197636D02*
D03*
Y195667D02*
D03*
Y193699D02*
D03*
Y191730D02*
D03*
Y189762D02*
D03*
Y187793D02*
D03*
Y185825D02*
D03*
Y183856D02*
D03*
Y181888D02*
D03*
Y179919D02*
D03*
D74*
X341335Y233896D02*
D03*
X339366D02*
D03*
X337398D02*
D03*
X335429D02*
D03*
X333461D02*
D03*
X331492D02*
D03*
X329524D02*
D03*
X327555D02*
D03*
X325587D02*
D03*
X323618D02*
D03*
X321650D02*
D03*
X319681D02*
D03*
X317713D02*
D03*
X315744D02*
D03*
X313776D02*
D03*
X311807D02*
D03*
X309839D02*
D03*
X307870D02*
D03*
X305902D02*
D03*
X303933D02*
D03*
X301965D02*
D03*
X299996D02*
D03*
X298028D02*
D03*
X296059D02*
D03*
X294091D02*
D03*
Y174644D02*
D03*
X296059D02*
D03*
X298028D02*
D03*
X299996D02*
D03*
X301965D02*
D03*
X303933D02*
D03*
X305902D02*
D03*
X307870D02*
D03*
X309839D02*
D03*
X311807D02*
D03*
X313776D02*
D03*
X315744D02*
D03*
X317713D02*
D03*
X319681D02*
D03*
X321650D02*
D03*
X323618D02*
D03*
X325587D02*
D03*
X327555D02*
D03*
X329524D02*
D03*
X331492D02*
D03*
X333461D02*
D03*
X335429D02*
D03*
X337398D02*
D03*
X339366D02*
D03*
X341335D02*
D03*
X484059Y173915D02*
D03*
X482091D02*
D03*
X480122D02*
D03*
X478154D02*
D03*
X476185D02*
D03*
X474217D02*
D03*
X472248D02*
D03*
X470280D02*
D03*
X468311D02*
D03*
X466342D02*
D03*
X464374D02*
D03*
X462405D02*
D03*
X460437D02*
D03*
X458468D02*
D03*
X456500D02*
D03*
X454531D02*
D03*
X452563D02*
D03*
X450595D02*
D03*
X448626D02*
D03*
X446658D02*
D03*
X444689D02*
D03*
X442721D02*
D03*
X440752D02*
D03*
X438784D02*
D03*
X436815D02*
D03*
Y233167D02*
D03*
X438784D02*
D03*
X440752D02*
D03*
X442721D02*
D03*
X444689D02*
D03*
X446658D02*
D03*
X448626D02*
D03*
X450595D02*
D03*
X452563D02*
D03*
X454531D02*
D03*
X456500D02*
D03*
X458468D02*
D03*
X460437D02*
D03*
X462405D02*
D03*
X464374D02*
D03*
X466342D02*
D03*
X468311D02*
D03*
X470280D02*
D03*
X472248D02*
D03*
X474217D02*
D03*
X476185D02*
D03*
X478154D02*
D03*
X480122D02*
D03*
X482091D02*
D03*
X484059D02*
D03*
D75*
X366606Y161929D02*
D03*
X211713Y161541D02*
D03*
D76*
X380583Y161575D02*
D03*
X384913D02*
D03*
X389244D02*
D03*
X393575D02*
D03*
X397905D02*
D03*
X402236D02*
D03*
X406567D02*
D03*
X410898D02*
D03*
X225689Y161187D02*
D03*
X230020D02*
D03*
X234350D02*
D03*
X238681D02*
D03*
X243012D02*
D03*
X247343D02*
D03*
X251673D02*
D03*
X256004D02*
D03*
D77*
X416449Y161929D02*
D03*
X261555Y161541D02*
D03*
D78*
X418988Y155433D02*
D03*
X264094Y155045D02*
D03*
D79*
X418988Y126299D02*
D03*
X264094Y125911D02*
D03*
D80*
X418575Y103465D02*
D03*
X365425D02*
D03*
X263681Y103077D02*
D03*
X210531D02*
D03*
D81*
X206283Y286959D02*
D03*
X216717D02*
D03*
D82*
X198740D02*
D03*
X195000Y295620D02*
D03*
X191260Y286959D02*
D03*
D83*
X218707Y239636D02*
D03*
Y250463D02*
D03*
D84*
X206533Y238049D02*
D03*
Y243049D02*
D03*
Y248049D02*
D03*
Y253049D02*
D03*
X184880Y238049D02*
D03*
Y243049D02*
D03*
Y248049D02*
D03*
Y253049D02*
D03*
D85*
X195500Y266000D02*
D03*
D86*
X206917Y261453D02*
D03*
Y270547D02*
D03*
D87*
X542740Y170736D02*
D03*
X535260D02*
D03*
Y181563D02*
D03*
X539000D02*
D03*
X542740D02*
D03*
X535000Y239650D02*
D03*
X542480D02*
D03*
Y228823D02*
D03*
X538740D02*
D03*
X535000D02*
D03*
X566240Y170811D02*
D03*
X558760D02*
D03*
Y181638D02*
D03*
X562500D02*
D03*
X566240D02*
D03*
X558500Y239724D02*
D03*
X565980D02*
D03*
Y228898D02*
D03*
X562240D02*
D03*
X558500D02*
D03*
X589740Y170736D02*
D03*
X582260D02*
D03*
Y181563D02*
D03*
X586000D02*
D03*
X589740D02*
D03*
X582000Y239650D02*
D03*
X589480D02*
D03*
Y228823D02*
D03*
X585740D02*
D03*
X582000D02*
D03*
X613240Y170795D02*
D03*
X605760D02*
D03*
Y181622D02*
D03*
X609500D02*
D03*
X613240D02*
D03*
X605500Y239709D02*
D03*
X612980D02*
D03*
Y228882D02*
D03*
X609240D02*
D03*
X605500D02*
D03*
D88*
X466016Y105000D02*
D03*
X439685Y105000D02*
D03*
X309738Y106278D02*
D03*
X283407Y106278D02*
D03*
D89*
X461610Y117303D02*
D03*
X444091D02*
D03*
X305333Y118581D02*
D03*
X287813D02*
D03*
D90*
X468943Y105000D02*
D03*
X436758D02*
D03*
X312665Y106278D02*
D03*
X280480D02*
D03*
D91*
X390823Y237252D02*
D03*
Y227252D02*
D03*
X380823Y237252D02*
D03*
D92*
Y227252D02*
D03*
D93*
X222287Y338000D02*
D03*
X271500D02*
D03*
X365000D02*
D03*
X394528D02*
D03*
X187350Y190000D02*
D03*
Y219528D02*
D03*
X416709Y338000D02*
D03*
X436394D02*
D03*
X343000D02*
D03*
X293787D02*
D03*
D94*
X271500Y309555D02*
D03*
X261658D02*
D03*
X251815D02*
D03*
X241972D02*
D03*
X232130D02*
D03*
X222287D02*
D03*
X271500Y299713D02*
D03*
X261658D02*
D03*
X251815D02*
D03*
X241972D02*
D03*
X232130D02*
D03*
X222287D02*
D03*
X560815Y309732D02*
D03*
X580500Y299890D02*
D03*
X570657D02*
D03*
X560815D02*
D03*
X570657Y309732D02*
D03*
X580500D02*
D03*
X365000Y309850D02*
D03*
X374843D02*
D03*
X384685D02*
D03*
X394528D02*
D03*
X215500Y190000D02*
D03*
Y199843D02*
D03*
Y209685D02*
D03*
Y219528D02*
D03*
X416709Y309850D02*
D03*
X426551D02*
D03*
X436394D02*
D03*
X293787Y299713D02*
D03*
X303630D02*
D03*
X313472D02*
D03*
X323315D02*
D03*
X333157D02*
D03*
X343000D02*
D03*
X293787Y309555D02*
D03*
X303630D02*
D03*
X313472D02*
D03*
X323315D02*
D03*
X333157D02*
D03*
X343000D02*
D03*
X487850Y299890D02*
D03*
Y309732D02*
D03*
X458323D02*
D03*
X478008Y299890D02*
D03*
X468165D02*
D03*
X458323D02*
D03*
X468165Y309732D02*
D03*
X478008D02*
D03*
D95*
X539000Y155537D02*
D03*
X562500Y155612D02*
D03*
X586000Y155537D02*
D03*
X609500Y155596D02*
D03*
D96*
X580500Y338000D02*
D03*
X560815D02*
D03*
D97*
X487850D02*
D03*
X458323D02*
D03*
D98*
X603000Y335000D02*
D03*
X192000D02*
D03*
X603037Y117500D02*
D03*
X192000D02*
D03*
D99*
X301500Y106278D02*
D03*
X292000D02*
D03*
X457500Y105000D02*
D03*
X448323D02*
D03*
M02*
