G04*
G04 #@! TF.GenerationSoftware,Altium Limited,Altium Designer,18.1.9 (240)*
G04*
G04 Layer_Physical_Order=4*
G04 Layer_Color=16711680*
%FSLAX25Y25*%
%MOIN*%
G70*
G01*
G75*
%ADD13C,0.01000*%
%ADD83C,0.08268*%
%ADD84C,0.06142*%
%ADD85C,0.02000*%
%ADD86C,0.06693*%
%ADD87C,0.08000*%
%ADD88C,0.37402*%
%ADD89C,0.11024*%
%ADD90C,0.24016*%
%ADD91C,0.03000*%
%ADD92C,0.04000*%
%ADD107R,0.03937X0.03937*%
G36*
X226946Y348281D02*
X229237Y347667D01*
X231428Y346760D01*
X233482Y345574D01*
X235363Y344130D01*
X237040Y342453D01*
X238483Y340572D01*
X239669Y338518D01*
X240577Y336327D01*
X241190Y334037D01*
X241500Y331685D01*
X241500Y330500D01*
X241500Y330500D01*
X241044Y248056D01*
X241041Y247606D01*
X240861Y246725D01*
X240514Y245896D01*
X240012Y245150D01*
X239374Y244516D01*
X238625Y244018D01*
X237794Y243675D01*
X236912Y243500D01*
X236462Y243500D01*
X236462Y243500D01*
X198000Y243500D01*
X197310Y243500D01*
X195958Y243769D01*
X194684Y244297D01*
X193538Y245063D01*
X192563Y246038D01*
X191797Y247184D01*
X191269Y248458D01*
X191000Y249811D01*
X191000Y250500D01*
X191000Y250500D01*
Y296500D01*
X190966Y297186D01*
X190699Y298532D01*
X190173Y299800D01*
X189411Y300941D01*
X188441Y301911D01*
X187300Y302674D01*
X186032Y303199D01*
X184686Y303466D01*
X184000Y303500D01*
X184000Y303500D01*
X155000D01*
X154409Y303500D01*
X153250Y303731D01*
X152158Y304183D01*
X151175Y304839D01*
X150339Y305675D01*
X149683Y306658D01*
X149231Y307750D01*
X149000Y308909D01*
X149000Y309500D01*
Y309500D01*
Y341500D01*
X149000Y342198D01*
X149273Y343568D01*
X149807Y344859D01*
X150583Y346020D01*
X151570Y347007D01*
X152732Y347783D01*
X154022Y348318D01*
X155392Y348590D01*
X156090Y348590D01*
X156090Y348590D01*
X223409Y348590D01*
X224595Y348590D01*
X226946Y348281D01*
D02*
G37*
G36*
X138688Y340712D02*
X140053Y340146D01*
X141281Y339326D01*
X142326Y338281D01*
X143146Y337053D01*
X143712Y335688D01*
X144000Y334239D01*
X144000Y333500D01*
X144000Y333500D01*
Y304000D01*
X144034Y303314D01*
X144301Y301968D01*
X144826Y300700D01*
X145589Y299559D01*
X146559Y298589D01*
X147700Y297827D01*
X148968Y297301D01*
X150314Y297034D01*
X151000Y297000D01*
X151000D01*
X182000Y297000D01*
X182443Y297000D01*
X183313Y296827D01*
X184132Y296488D01*
X184869Y295995D01*
X185495Y295369D01*
X185988Y294632D01*
X186327Y293813D01*
X186500Y292943D01*
X186500Y292500D01*
X186500Y292500D01*
X186500Y274403D01*
X186500Y274040D01*
X186358Y273329D01*
X186081Y272659D01*
X185678Y272056D01*
X185165Y271543D01*
X184562Y271140D01*
X183892Y270862D01*
X183180Y270720D01*
X182817Y270721D01*
X107780D01*
X107457Y270721D01*
X106823Y270847D01*
X106226Y271094D01*
X105689Y271453D01*
X105232Y271909D01*
X104873Y272447D01*
X104626Y273043D01*
X104500Y273677D01*
X104500Y274000D01*
X104500Y274000D01*
Y334000D01*
X104500Y334689D01*
X104769Y336042D01*
X105297Y337316D01*
X106063Y338462D01*
X107038Y339437D01*
X108184Y340203D01*
X109458Y340731D01*
X110810Y341000D01*
X111500Y341000D01*
X111500Y341000D01*
X136500Y341000D01*
X137239Y341000D01*
X138688Y340712D01*
D02*
G37*
G36*
X390375Y333885D02*
X390921Y333659D01*
X391412Y333330D01*
X391830Y332912D01*
X392159Y332421D01*
X392385Y331875D01*
X392500Y331295D01*
X392500Y331000D01*
X392500Y331000D01*
X392500Y322500D01*
X392500Y322155D01*
X392366Y321479D01*
X392102Y320842D01*
X391719Y320269D01*
X391231Y319781D01*
X390658Y319398D01*
X390021Y319134D01*
X389345Y319000D01*
X389000Y319000D01*
X389000D01*
X316500Y319000D01*
X316003D01*
X315084Y319381D01*
X314381Y320084D01*
X314000Y321003D01*
X314000Y321500D01*
X314000D01*
X314000Y331000D01*
X314000Y331295D01*
X314115Y331875D01*
X314341Y332421D01*
X314670Y332912D01*
X315088Y333330D01*
X315579Y333659D01*
X316125Y333885D01*
X316705Y334000D01*
X317000Y334000D01*
X317000Y334000D01*
X389500Y334000D01*
X389795Y334000D01*
X390375Y333885D01*
D02*
G37*
G36*
X178000Y251500D02*
X178523Y251500D01*
X179550Y251296D01*
X180516Y250895D01*
X181386Y250314D01*
X182126Y249574D01*
X182708Y248704D01*
X183108Y247737D01*
X183312Y246711D01*
X183312Y246187D01*
X183312D01*
X183313Y228203D01*
X183313Y226815D01*
X182950Y224063D01*
X182232Y221382D01*
X181170Y218818D01*
X179782Y216414D01*
X178092Y214212D01*
X176129Y212249D01*
X173927Y210559D01*
X171524Y209171D01*
X168959Y208109D01*
X166278Y207391D01*
X163526Y207029D01*
X162138Y207029D01*
X162138Y207029D01*
X162138Y207029D01*
X161083Y206994D01*
X158990Y206718D01*
X156951Y206172D01*
X155000Y205364D01*
X153172Y204309D01*
X151497Y203024D01*
X150005Y201531D01*
X148720Y199856D01*
X147664Y198028D01*
X146856Y196078D01*
X146310Y194039D01*
X146035Y191946D01*
X146000Y190890D01*
Y180600D01*
X146044Y179711D01*
X146391Y177967D01*
X147071Y176324D01*
X148059Y174845D01*
X149317Y173588D01*
X150795Y172600D01*
X152438Y171919D01*
X154183Y171572D01*
X155072Y171529D01*
X464971Y171528D01*
X465467Y171529D01*
X466438Y171335D01*
X467353Y170956D01*
X468177Y170406D01*
X468877Y169705D01*
X469428Y168882D01*
X469807Y167967D01*
X470000Y166995D01*
X470000Y166500D01*
X470000Y166500D01*
X470000Y166500D01*
Y103029D01*
X115471Y103029D01*
X114654Y103029D01*
X113033Y103242D01*
X111454Y103665D01*
X109944Y104291D01*
X108528Y105108D01*
X107231Y106103D01*
X106075Y107259D01*
X105079Y108556D01*
X104262Y109972D01*
X103637Y111483D01*
X103213Y113062D01*
X103000Y114683D01*
X103000Y115500D01*
X103000Y115500D01*
Y247500D01*
Y247894D01*
X103154Y248667D01*
X103455Y249395D01*
X103893Y250050D01*
X104450Y250607D01*
X105105Y251045D01*
X105833Y251346D01*
X106606Y251500D01*
X107000Y251500D01*
X107000Y251500D01*
X178000Y251500D01*
D02*
G37*
G36*
X208622Y236240D02*
X208867Y235994D01*
X209000Y235673D01*
X209000Y235500D01*
X209000Y235500D01*
Y230500D01*
X209038Y230110D01*
X209337Y229389D01*
X209889Y228837D01*
X210610Y228538D01*
X211000Y228500D01*
X211000Y228500D01*
X214500Y228500D01*
X214890Y228538D01*
X215611Y228837D01*
X216163Y229389D01*
X216461Y230110D01*
X216500Y230500D01*
X216500Y230500D01*
Y235000D01*
Y235199D01*
X216652Y235566D01*
X216933Y235847D01*
X217301Y236000D01*
X217500Y236000D01*
X217500Y236000D01*
X231500Y236000D01*
X231975Y236000D01*
X232854Y235636D01*
X233526Y234964D01*
X233890Y234085D01*
X233890Y233610D01*
X233890Y233610D01*
Y229110D01*
X233930Y228698D01*
X234245Y227938D01*
X234827Y227356D01*
X235588Y227041D01*
X236000Y227000D01*
X236000D01*
X416000Y227000D01*
X417016Y227000D01*
X419030Y226735D01*
X420993Y226209D01*
X422870Y225431D01*
X424630Y224415D01*
X426242Y223179D01*
X427678Y221742D01*
X428915Y220130D01*
X429931Y218370D01*
X430709Y216493D01*
X431235Y214530D01*
X431500Y212516D01*
X431500Y211500D01*
X431500Y211500D01*
X431540Y210290D01*
X431855Y207891D01*
X432482Y205553D01*
X433408Y203318D01*
X434618Y201222D01*
X436091Y199302D01*
X437802Y197591D01*
X439722Y196118D01*
X441818Y194908D01*
X444053Y193982D01*
X446391Y193356D01*
X448790Y193040D01*
X450000Y193000D01*
X450000D01*
X455500Y193000D01*
X455943D01*
X456813Y192827D01*
X457631Y192488D01*
X458369Y191995D01*
X458995Y191369D01*
X459488Y190631D01*
X459827Y189813D01*
X460000Y188943D01*
X460000Y188500D01*
X460000Y188500D01*
X460000Y179500D01*
Y178958D01*
X459789Y177896D01*
X459374Y176895D01*
X458772Y175994D01*
X458006Y175228D01*
X457105Y174626D01*
X456104Y174211D01*
X455042Y174000D01*
X155500D01*
X154811Y174000D01*
X153458Y174269D01*
X152184Y174797D01*
X151038Y175563D01*
X150063Y176538D01*
X149297Y177684D01*
X148769Y178958D01*
X148500Y180310D01*
X148500Y181000D01*
Y181000D01*
X148500Y191439D01*
Y192295D01*
X148723Y193993D01*
X149167Y195647D01*
X149822Y197228D01*
X150678Y198711D01*
X151720Y200069D01*
X152931Y201280D01*
X154289Y202322D01*
X155772Y203178D01*
X157353Y203833D01*
X159007Y204276D01*
X160705Y204500D01*
X161561D01*
X161561Y204500D01*
X167500Y204500D01*
X168653Y204528D01*
X170948Y204754D01*
X173210Y205204D01*
X175417Y205874D01*
X177548Y206756D01*
X179581Y207843D01*
X181499Y209125D01*
X183282Y210588D01*
X184912Y212218D01*
X186375Y214001D01*
X187657Y215919D01*
X188744Y217952D01*
X189626Y220083D01*
X190296Y222290D01*
X190746Y224552D01*
X190972Y226847D01*
X191000Y228000D01*
X191000Y228000D01*
Y233361D01*
Y233657D01*
X191116Y234239D01*
X191343Y234787D01*
X191672Y235281D01*
X192092Y235700D01*
X192585Y236030D01*
X193133Y236257D01*
X193715Y236373D01*
X194012Y236373D01*
X194012Y236373D01*
X208127Y236373D01*
X208301D01*
X208622Y236240D01*
D02*
G37*
%LPC*%
G36*
X453500Y140596D02*
X452185Y140467D01*
X450921Y140083D01*
X449757Y139461D01*
X448736Y138623D01*
X447898Y137602D01*
X447275Y136437D01*
X446891Y135173D01*
X446762Y133858D01*
X446891Y132544D01*
X447275Y131280D01*
X447898Y130115D01*
X448736Y129094D01*
X449757Y128256D01*
X450921Y127633D01*
X452185Y127250D01*
X453500Y127120D01*
X454814Y127250D01*
X456078Y127633D01*
X457243Y128256D01*
X458264Y129094D01*
X459102Y130115D01*
X459725Y131280D01*
X460109Y132544D01*
X460238Y133858D01*
X460109Y135173D01*
X459725Y136437D01*
X459102Y137602D01*
X458264Y138623D01*
X457243Y139461D01*
X456078Y140083D01*
X454814Y140467D01*
X453500Y140596D01*
D02*
G37*
G36*
X411500D02*
X410185Y140467D01*
X408921Y140083D01*
X407757Y139461D01*
X406736Y138623D01*
X405898Y137602D01*
X405275Y136437D01*
X404891Y135173D01*
X404762Y133858D01*
X404891Y132544D01*
X405275Y131280D01*
X405898Y130115D01*
X406736Y129094D01*
X407757Y128256D01*
X408921Y127633D01*
X410185Y127250D01*
X411500Y127120D01*
X412815Y127250D01*
X414079Y127633D01*
X415243Y128256D01*
X416264Y129094D01*
X417102Y130115D01*
X417725Y131280D01*
X418109Y132544D01*
X418238Y133858D01*
X418109Y135173D01*
X417725Y136437D01*
X417102Y137602D01*
X416264Y138623D01*
X415243Y139461D01*
X414079Y140083D01*
X412815Y140467D01*
X411500Y140596D01*
D02*
G37*
G36*
X369500D02*
X368185Y140467D01*
X366921Y140083D01*
X365757Y139461D01*
X364736Y138623D01*
X363898Y137602D01*
X363275Y136437D01*
X362892Y135173D01*
X362762Y133858D01*
X362892Y132544D01*
X363275Y131280D01*
X363898Y130115D01*
X364736Y129094D01*
X365757Y128256D01*
X366921Y127633D01*
X368185Y127250D01*
X369500Y127120D01*
X370814Y127250D01*
X372078Y127633D01*
X373243Y128256D01*
X374265Y129094D01*
X375102Y130115D01*
X375725Y131280D01*
X376109Y132544D01*
X376238Y133858D01*
X376109Y135173D01*
X375725Y136437D01*
X375102Y137602D01*
X374265Y138623D01*
X373243Y139461D01*
X372078Y140083D01*
X370814Y140467D01*
X369500Y140596D01*
D02*
G37*
G36*
X327000D02*
X325686Y140467D01*
X324422Y140083D01*
X323257Y139461D01*
X322235Y138623D01*
X321398Y137602D01*
X320775Y136437D01*
X320392Y135173D01*
X320262Y133858D01*
X320392Y132544D01*
X320775Y131280D01*
X321398Y130115D01*
X322235Y129094D01*
X323257Y128256D01*
X324422Y127633D01*
X325686Y127250D01*
X327000Y127120D01*
X328314Y127250D01*
X329578Y127633D01*
X330743Y128256D01*
X331765Y129094D01*
X332602Y130115D01*
X333225Y131280D01*
X333609Y132544D01*
X333738Y133858D01*
X333609Y135173D01*
X333225Y136437D01*
X332602Y137602D01*
X331765Y138623D01*
X330743Y139461D01*
X329578Y140083D01*
X328314Y140467D01*
X327000Y140596D01*
D02*
G37*
G36*
X284000D02*
X282685Y140467D01*
X281421Y140083D01*
X280257Y139461D01*
X279236Y138623D01*
X278398Y137602D01*
X277775Y136437D01*
X277392Y135173D01*
X277262Y133858D01*
X277392Y132544D01*
X277775Y131280D01*
X278398Y130115D01*
X279236Y129094D01*
X280257Y128256D01*
X281421Y127633D01*
X282685Y127250D01*
X284000Y127120D01*
X285314Y127250D01*
X286578Y127633D01*
X287743Y128256D01*
X288765Y129094D01*
X289602Y130115D01*
X290225Y131280D01*
X290609Y132544D01*
X290738Y133858D01*
X290609Y135173D01*
X290225Y136437D01*
X289602Y137602D01*
X288765Y138623D01*
X287743Y139461D01*
X286578Y140083D01*
X285314Y140467D01*
X284000Y140596D01*
D02*
G37*
G36*
X241000D02*
X239686Y140467D01*
X238422Y140083D01*
X237257Y139461D01*
X236235Y138623D01*
X235398Y137602D01*
X234775Y136437D01*
X234391Y135173D01*
X234262Y133858D01*
X234391Y132544D01*
X234775Y131280D01*
X235398Y130115D01*
X236235Y129094D01*
X237257Y128256D01*
X238422Y127633D01*
X239686Y127250D01*
X241000Y127120D01*
X242315Y127250D01*
X243579Y127633D01*
X244743Y128256D01*
X245764Y129094D01*
X246602Y130115D01*
X247225Y131280D01*
X247608Y132544D01*
X247738Y133858D01*
X247608Y135173D01*
X247225Y136437D01*
X246602Y137602D01*
X245764Y138623D01*
X244743Y139461D01*
X243579Y140083D01*
X242315Y140467D01*
X241000Y140596D01*
D02*
G37*
G36*
X198000D02*
X196686Y140467D01*
X195422Y140083D01*
X194257Y139461D01*
X193236Y138623D01*
X192398Y137602D01*
X191775Y136437D01*
X191392Y135173D01*
X191262Y133858D01*
X191392Y132544D01*
X191775Y131280D01*
X192398Y130115D01*
X193236Y129094D01*
X194257Y128256D01*
X195422Y127633D01*
X196686Y127250D01*
X198000Y127120D01*
X199314Y127250D01*
X200578Y127633D01*
X201743Y128256D01*
X202765Y129094D01*
X203602Y130115D01*
X204225Y131280D01*
X204608Y132544D01*
X204738Y133858D01*
X204608Y135173D01*
X204225Y136437D01*
X203602Y137602D01*
X202765Y138623D01*
X201743Y139461D01*
X200578Y140083D01*
X199314Y140467D01*
X198000Y140596D01*
D02*
G37*
G36*
X155000D02*
X153685Y140467D01*
X152421Y140083D01*
X151257Y139461D01*
X150235Y138623D01*
X149398Y137602D01*
X148775Y136437D01*
X148391Y135173D01*
X148262Y133858D01*
X148391Y132544D01*
X148775Y131280D01*
X149398Y130115D01*
X150235Y129094D01*
X151257Y128256D01*
X152421Y127633D01*
X153685Y127250D01*
X155000Y127120D01*
X156315Y127250D01*
X157579Y127633D01*
X158743Y128256D01*
X159765Y129094D01*
X160602Y130115D01*
X161225Y131280D01*
X161609Y132544D01*
X161738Y133858D01*
X161609Y135173D01*
X161225Y136437D01*
X160602Y137602D01*
X159765Y138623D01*
X158743Y139461D01*
X157579Y140083D01*
X156315Y140467D01*
X155000Y140596D01*
D02*
G37*
%LPD*%
D13*
X469250Y316815D02*
X479500Y306565D01*
X459390Y294610D02*
X463343Y290657D01*
X476500Y191197D02*
Y285199D01*
X471043Y290657D02*
X476500Y285199D01*
X463343Y290657D02*
X471043D01*
X469232Y296528D02*
X478500Y287260D01*
Y189500D02*
Y287260D01*
X459390Y295028D02*
Y296528D01*
Y294610D02*
Y295028D01*
X401500Y383500D02*
X406250Y378750D01*
Y372000D02*
Y378750D01*
X343500Y383500D02*
X401500D01*
X336500Y376500D02*
X343500Y383500D01*
X287255Y337745D02*
X310746D01*
X278500Y346500D02*
X287255Y337745D01*
X278398Y353067D02*
X278500Y352965D01*
Y346500D02*
Y352965D01*
X284500Y348532D02*
Y357500D01*
X310746Y337745D02*
X321749Y348748D01*
X323256D01*
X322155Y351700D02*
X326167D01*
X310000Y339545D02*
X322155Y351700D01*
X293455Y339545D02*
X310000D01*
X292000Y341000D02*
X293455Y339545D01*
X292000Y341000D02*
Y341032D01*
X284500Y348532D02*
X292000Y341032D01*
X422512Y261000D02*
X443547D01*
X420512Y263000D02*
X422512Y261000D01*
X298181Y263000D02*
X420512D01*
X279681Y244500D02*
X298181Y263000D01*
X443547Y261000D02*
X459390Y276842D01*
X479500Y187954D02*
X480300Y188754D01*
Y288005D01*
X479500Y175000D02*
Y187954D01*
Y175000D02*
X479500Y175000D01*
X479500Y288805D02*
Y306565D01*
Y288805D02*
X480300Y288005D01*
X473500Y169500D02*
X479500Y163500D01*
X473500Y184500D02*
X478500Y189500D01*
X473500Y169500D02*
Y184500D01*
X236143Y245500D02*
X258477D01*
X259500Y244477D01*
X295260Y234964D02*
X297296Y237000D01*
X322607D01*
X284377Y239877D02*
X300000Y255500D01*
X185182Y245318D02*
X190623Y239877D01*
X283631Y241677D02*
X297200Y255246D01*
X187016Y246030D02*
X191369Y241677D01*
X283631D01*
X190623Y239877D02*
X284377D01*
X469555Y184252D02*
X476500Y191197D01*
X453500Y184252D02*
X469555D01*
X307496Y257300D02*
X320840Y243956D01*
X302160Y257300D02*
X307496D01*
X300000Y255500D02*
X306750D01*
X333014Y234000D02*
X349122D01*
X324858Y242156D02*
X333014Y234000D01*
X320095Y242156D02*
X324858D01*
X306750Y255500D02*
X320095Y242156D01*
X320840Y243956D02*
X325603D01*
X333759Y235800D01*
X362322D01*
X300000Y259460D02*
X302160Y257300D01*
X300000Y259460D02*
Y259500D01*
X429000Y234000D02*
X437802Y242802D01*
X391046Y234000D02*
X429000D01*
X437802Y242802D02*
Y245177D01*
X297200Y256660D02*
X300000Y259460D01*
X297200Y255246D02*
Y256660D01*
X148356Y261500D02*
X175046D01*
X145000Y264856D02*
X148356Y261500D01*
X145000Y264856D02*
Y273677D01*
X175046Y261500D02*
X187016Y249530D01*
X145000Y248264D02*
Y254436D01*
X148064Y257500D01*
X151856D01*
Y246012D02*
X152000D01*
X159856Y257500D02*
X176500D01*
X187016Y246030D02*
Y249530D01*
X176500Y257500D02*
X185182Y248818D01*
Y245318D02*
Y248818D01*
X362322Y235800D02*
X367622Y230500D01*
X349122Y234000D02*
X352622Y230500D01*
X331000Y293000D02*
X373000D01*
X325949Y298051D02*
X331000Y293000D01*
X325949Y298051D02*
Y316184D01*
X336500Y337256D02*
Y376500D01*
X387846Y237200D02*
X391046Y234000D01*
X387805Y237200D02*
X387846D01*
X384700Y240305D02*
X387805Y237200D01*
X384700Y240305D02*
Y240346D01*
X382363Y242683D02*
X384700Y240346D01*
X335817Y242683D02*
X382363D01*
X390459Y232000D02*
X461626D01*
X382900Y239559D02*
X390459Y232000D01*
X382900Y239559D02*
Y239600D01*
X381617Y240883D02*
X382900Y239600D01*
X328944Y249556D02*
X335817Y242683D01*
X324800Y249556D02*
X328944D01*
X322000Y246756D02*
X324800Y249556D01*
X461626Y232000D02*
X466614Y227012D01*
X333617Y240883D02*
X381617D01*
X327744Y246756D02*
X333617Y240883D01*
X237127Y231070D02*
Y235579D01*
X234648Y238059D02*
X237127Y235579D01*
X215887Y238059D02*
X234648D01*
X212910Y235082D02*
X215887Y238059D01*
X212910Y231137D02*
Y235082D01*
D83*
X497400Y346342D02*
D03*
Y316815D02*
D03*
D84*
X469250Y346342D02*
D03*
Y336500D02*
D03*
Y326658D02*
D03*
Y316815D02*
D03*
X469232Y275342D02*
D03*
Y285185D02*
D03*
X459390Y295028D02*
D03*
Y285185D02*
D03*
Y275342D02*
D03*
X469232Y295028D02*
D03*
Y265500D02*
D03*
X459390D02*
D03*
D85*
X304894Y360219D02*
D03*
Y357119D02*
D03*
Y354018D02*
D03*
Y350919D02*
D03*
Y347818D02*
D03*
Y344719D02*
D03*
X301794Y360219D02*
D03*
Y357119D02*
D03*
Y354018D02*
D03*
Y350919D02*
D03*
Y347818D02*
D03*
Y344719D02*
D03*
X298694Y360219D02*
D03*
Y357119D02*
D03*
Y354018D02*
D03*
Y350919D02*
D03*
Y347818D02*
D03*
Y344719D02*
D03*
X295594Y360219D02*
D03*
Y357119D02*
D03*
Y354018D02*
D03*
Y350919D02*
D03*
Y347818D02*
D03*
Y344719D02*
D03*
X334776Y304059D02*
D03*
X343831Y298941D02*
D03*
X343831Y304059D02*
D03*
X334776Y298941D02*
D03*
X339500D02*
D03*
Y304059D02*
D03*
X274894Y302941D02*
D03*
X270170D02*
D03*
X274894Y308059D02*
D03*
X279225D02*
D03*
X279225Y302941D02*
D03*
X270170Y308059D02*
D03*
D86*
X497500Y295028D02*
D03*
Y265500D02*
D03*
D87*
X390000Y254000D02*
D03*
X168500Y378000D02*
D03*
X118500Y153500D02*
D03*
X479500Y139000D02*
D03*
X118500Y142000D02*
D03*
X479500Y175000D02*
D03*
Y163500D02*
D03*
X390000Y242500D02*
D03*
X479500Y151500D02*
D03*
D88*
X124000Y322500D02*
D03*
X168000D02*
D03*
D89*
X198000Y162598D02*
D03*
Y184252D02*
D03*
X155000Y162598D02*
D03*
Y184252D02*
D03*
X284000Y162598D02*
D03*
Y184252D02*
D03*
X241000Y162598D02*
D03*
Y184252D02*
D03*
X369500Y162598D02*
D03*
Y184252D02*
D03*
X327000Y162598D02*
D03*
Y184252D02*
D03*
X453500Y162598D02*
D03*
Y184252D02*
D03*
X411500Y162598D02*
D03*
Y184252D02*
D03*
D90*
X498500Y370000D02*
D03*
X117500D02*
D03*
X498500Y117500D02*
D03*
X117500D02*
D03*
D91*
X406250Y372000D02*
D03*
X278398Y353067D02*
D03*
X326167Y351700D02*
D03*
X284500Y357500D02*
D03*
X425030Y265153D02*
D03*
X429423D02*
D03*
X425030Y269697D02*
D03*
X429423D02*
D03*
X425030Y274288D02*
D03*
X429423D02*
D03*
X425538Y283540D02*
D03*
Y288084D02*
D03*
Y292675D02*
D03*
X429931Y283540D02*
D03*
Y288084D02*
D03*
Y292675D02*
D03*
X295260Y234964D02*
D03*
X259500Y244477D02*
D03*
X342500Y230500D02*
D03*
X295815Y243500D02*
D03*
X322607Y237000D02*
D03*
X279681Y244500D02*
D03*
X198143Y245395D02*
D03*
X202643Y245407D02*
D03*
X207143D02*
D03*
X211643Y245395D02*
D03*
X236143Y245500D02*
D03*
X231643Y245512D02*
D03*
X227143D02*
D03*
X222643Y245500D02*
D03*
X367622Y230500D02*
D03*
X352622D02*
D03*
X360000D02*
D03*
X389366Y379750D02*
D03*
X393956D02*
D03*
X398500D02*
D03*
X255754Y379893D02*
D03*
X260345D02*
D03*
X264888D02*
D03*
X255754Y375500D02*
D03*
X260345D02*
D03*
X264888D02*
D03*
X296738Y284622D02*
D03*
X287000Y294639D02*
D03*
X287116Y298254D02*
D03*
Y301911D02*
D03*
X364000Y283592D02*
D03*
X354000Y296828D02*
D03*
Y299898D02*
D03*
X373000Y293000D02*
D03*
X325949Y316184D02*
D03*
X389675Y331699D02*
D03*
Y327108D02*
D03*
Y322565D02*
D03*
X385282Y331699D02*
D03*
Y327108D02*
D03*
Y322565D02*
D03*
X317107Y321956D02*
D03*
Y326500D02*
D03*
Y331091D02*
D03*
X321500Y321956D02*
D03*
Y326500D02*
D03*
Y331091D02*
D03*
X336500Y337256D02*
D03*
X348377Y349500D02*
D03*
X323256Y348748D02*
D03*
X284500Y348532D02*
D03*
X266000Y250328D02*
D03*
X269159Y344000D02*
D03*
X261000Y323500D02*
D03*
X286547Y328500D02*
D03*
X203500Y378000D02*
D03*
X327744Y246756D02*
D03*
X322000D02*
D03*
X457222Y251000D02*
D03*
X472000Y247500D02*
D03*
X437802Y245177D02*
D03*
X466614Y227012D02*
D03*
X473500Y229000D02*
D03*
X443386Y226114D02*
D03*
X502500Y253000D02*
D03*
Y199500D02*
D03*
X374265Y260000D02*
D03*
Y235744D02*
D03*
X362500Y252953D02*
D03*
X300000Y259500D02*
D03*
Y255500D02*
D03*
X222500Y231070D02*
D03*
X218500Y231000D02*
D03*
X212910Y231137D02*
D03*
X237127Y231070D02*
D03*
X197860Y231012D02*
D03*
X193360Y231000D02*
D03*
X202360Y231012D02*
D03*
X206860Y231000D02*
D03*
X198143Y223433D02*
D03*
X202643D02*
D03*
X193643Y223421D02*
D03*
X207143D02*
D03*
X231643Y223526D02*
D03*
X218143D02*
D03*
X227143Y223538D02*
D03*
X222643D02*
D03*
X231360Y231105D02*
D03*
X226860Y231117D02*
D03*
X198143Y227012D02*
D03*
X202643D02*
D03*
X193643Y227000D02*
D03*
X207143D02*
D03*
X231643Y227105D02*
D03*
X218143D02*
D03*
X227143Y227117D02*
D03*
X222643D02*
D03*
X227000Y253512D02*
D03*
X222500Y249488D02*
D03*
X227000Y249500D02*
D03*
X231500D02*
D03*
Y253512D02*
D03*
X222500Y253500D02*
D03*
X236000D02*
D03*
Y249488D02*
D03*
X211500Y249383D02*
D03*
Y253395D02*
D03*
X198000D02*
D03*
X207000Y253407D02*
D03*
Y249395D02*
D03*
X202500D02*
D03*
X198000Y249383D02*
D03*
X202500Y253407D02*
D03*
X111000Y289488D02*
D03*
X120000Y289500D02*
D03*
Y285488D02*
D03*
X115500D02*
D03*
X111000Y285476D02*
D03*
X115500Y289500D02*
D03*
X120000Y280988D02*
D03*
X115500D02*
D03*
X111000Y280976D02*
D03*
X120000Y276988D02*
D03*
X115500D02*
D03*
X111000Y276976D02*
D03*
X138500Y289488D02*
D03*
X134000D02*
D03*
X129500Y289476D02*
D03*
X138500Y285476D02*
D03*
X134000D02*
D03*
X129500Y285465D02*
D03*
X138500Y280988D02*
D03*
X134000D02*
D03*
X129500Y280976D02*
D03*
X138500Y276976D02*
D03*
X134000D02*
D03*
X129500Y276965D02*
D03*
X170500Y276976D02*
D03*
X175000Y276988D02*
D03*
X179500D02*
D03*
X170500Y280988D02*
D03*
X175000Y281000D02*
D03*
X179500D02*
D03*
X170500Y285476D02*
D03*
X175000Y285488D02*
D03*
X179500D02*
D03*
X170500Y289488D02*
D03*
X175000Y289500D02*
D03*
X179500D02*
D03*
X152000Y276988D02*
D03*
X156500Y277000D02*
D03*
X161000D02*
D03*
X152000Y280988D02*
D03*
X156500Y281000D02*
D03*
X161000D02*
D03*
X156500Y289512D02*
D03*
X152000Y285488D02*
D03*
X156500Y285500D02*
D03*
X161000D02*
D03*
Y289512D02*
D03*
X152000Y289500D02*
D03*
Y246012D02*
D03*
X161000Y246024D02*
D03*
Y242012D02*
D03*
X156500D02*
D03*
X152000Y242000D02*
D03*
X156500Y246024D02*
D03*
X161000Y237512D02*
D03*
X156500D02*
D03*
X152000Y237500D02*
D03*
X161000Y233512D02*
D03*
X156500D02*
D03*
X152000Y233500D02*
D03*
X179500Y246012D02*
D03*
X175000D02*
D03*
X170500Y246000D02*
D03*
X179500Y242000D02*
D03*
X175000D02*
D03*
X170500Y241988D02*
D03*
X179500Y237512D02*
D03*
X175000D02*
D03*
X170500Y237500D02*
D03*
X179500Y233500D02*
D03*
X175000D02*
D03*
X170500Y233488D02*
D03*
X129500Y233476D02*
D03*
X134000Y233488D02*
D03*
X138500D02*
D03*
X129500Y237488D02*
D03*
X134000Y237500D02*
D03*
X138500D02*
D03*
X129500Y241976D02*
D03*
X134000Y241988D02*
D03*
X138500D02*
D03*
X129500Y245988D02*
D03*
X134000Y246000D02*
D03*
X138500D02*
D03*
X111000Y233488D02*
D03*
X115500Y233500D02*
D03*
X120000D02*
D03*
X111000Y237488D02*
D03*
X115500Y237500D02*
D03*
X120000D02*
D03*
X115500Y246012D02*
D03*
X111000Y241988D02*
D03*
X115500Y242000D02*
D03*
X120000D02*
D03*
Y246012D02*
D03*
X111000Y246000D02*
D03*
D92*
X151856Y257500D02*
X159856D01*
D107*
D03*
X151856D02*
D03*
M02*
