M48
;Layer_Color=9474304
;FILE_FORMAT=2:5
INCH,LZ
;TYPE=PLATED
T1F00S00C0.01000
T2F00S00C0.01500
T3F00S00C0.04000
T4F00S00C0.04724
T5F00S00C0.06693
T6F00S00C0.07087
T7F00S00C0.14567
T8F00S00C0.24409
;TYPE=NON_PLATED
T9F00S00C0.11811
%
T01
X0334776Y0298941
X03395
X0343831
X0343831Y0304059
X03395
X0334776
X0279225Y0302941
X0274894
X027017
X027017Y0308059
X0274894
X0279225
X0295594Y0344719
X0298694
X0301794
X0304894
Y0347818
Y0350919
Y0354018
Y0357119
Y0360219
X0301794
Y0357119
Y0354018
Y0350919
Y0347818
X0298694
Y0350919
Y0354018
Y0357119
Y0360219
X0295594
Y0357119
Y0354018
Y0350919
Y0347818
T02
X05025Y01995
Y0253
X0472Y02475
X04735Y0229
X0466614Y0227012
X0443386Y0226114
X0437802Y0245177
X0457222Y0251
X0429423Y0265153
X042503
Y0269697
X0429423
Y0274288
X042503
X0425538Y028354
X0429931
Y0288084
X0425538
Y0292675
X0429931
X0373Y0293
X0364Y0283592
X0354Y0296828
Y0299898
X03625Y0252953
X0374265Y026
Y0235744
X0367622Y02305
X036
X0352622
X03425Y02305
X0322607Y0237
X0322Y0246756
X0327744
X0295815Y02435
X029526Y0234964
X0279681Y02445
X0266Y0250328
X02595Y0244477
X0236143Y02455
X0236Y0249488
Y02535
X02315Y0253512
Y02495
X0231643Y0245512
X0227143
X0227Y02495
Y0253512
X02225Y02535
Y0249488
X0222643Y02455
X0211643Y0245395
X02115Y0249383
Y0253395
X0207Y0253407
Y0249395
X0207143Y0245407
X0202643
X02025Y0249395
Y0253407
X0198Y0253395
Y0249383
X0198143Y0245395
X019786Y0231012
X0198143Y0227012
Y0223433
X0202643
Y0227012
X020236Y0231012
X020686Y0231
X0207143Y0227
Y0223421
X0218143Y0223526
Y0227105
X02185Y0231
X02225Y023107
X0222643Y0227117
Y0223538
X0227143
Y0227117
X022686Y0231117
X023136Y0231105
X0231643Y0227105
Y0223526
X0237127Y023107
X021291Y0231137
X019336Y0231
X0193643Y0227
Y0223421
X01795Y02335
Y0237512
Y0242
Y0246012
X0175
Y0242
Y0237512
Y02335
X01705Y0233488
Y02375
Y0241988
Y0246
X0161Y0246024
Y0242012
X01565
Y0246024
Y0237512
Y0233512
X0161
Y0237512
Y0277
Y0281
X01565
Y0277
Y02855
Y0289512
X0161
Y02855
X01705Y0285476
Y0289488
X0175Y02895
Y0285488
Y0281
Y0276988
X01795
Y0281
Y0285488
Y02895
X01705Y0280988
Y0276976
X0296738Y0284622
X0287Y0294639
X0287116Y0298254
Y0301911
X03Y02595
Y02555
X0152Y0246012
Y0242
Y02375
Y02335
X01385Y0233488
Y02375
Y0241988
Y0246
X0134
Y0241988
Y02375
Y0233488
X01295Y0233476
Y0237488
Y0241976
Y0245988
X012Y0246012
Y0242
Y02375
Y02335
X01155
Y02375
Y0242
Y0246012
X0111Y0246
Y0241988
Y0237488
Y0233488
Y0276976
Y0280976
Y0285476
Y0289488
X01155Y02895
Y0285488
X012
Y02895
Y0280988
Y0276988
X01155
Y0280988
X01295Y0280976
Y0276965
X0134Y0276976
Y0280988
Y0285476
Y0289488
X01385
Y0285476
Y0280988
Y0276976
X0152Y0276988
Y0280988
Y0285488
Y02895
X01295Y0289476
Y0285465
X02035Y0378
X0255754Y0379893
Y03755
X0260345
Y0379893
X0264888
Y03755
X0269159Y0344
X0278398Y0353067
X02845Y03575
Y0348532
X0286547Y03285
X0261Y03235
X0317107Y0321956
X03215
Y03265
X0317107
Y0331091
X03215
X0325949Y0316184
X03365Y0337256
X0348377Y03495
X0326167Y03517
X0323256Y0348748
X0385282Y0331699
X0389675
Y0327108
X0385282
Y0322565
X0389675
X0389366Y037975
X0393956
X03985
X040625Y0372
T03
X01185Y0142
Y01535
X04795Y01515
Y0139
Y01635
Y0175
X039Y02425
Y0254
X01685Y0378
T04
X0469232Y02655
Y0275342
Y0285185
Y0295028
X045939
Y0285185
Y0275342
Y02655
X046925Y0316815
Y0326658
Y03365
Y0346342
T05
X04975Y02655
Y0295028
X04974Y0316815
Y0346342
T06
X0327Y0162598
Y0184252
X03695
Y0162598
X04115
Y0184252
X04535
Y0162598
X0284
Y0184252
X0241
Y0162598
X0198
Y0184252
X0155
Y0162598
T07
X01175Y01175
X04985
X01175Y037
X04985
T08
X0124Y03225
X0168
T09
X0155Y0133858
X0198
X0241
X0284
X0327
X03695
X04115
X04535
M30
