%TF.GenerationSoftware,Altium Limited,Altium Designer,23.5.1 (21)*%
G04 Layer_Physical_Order=1*
G04 Layer_Color=255*
%FSLAX45Y45*%
%MOMM*%
%TF.SameCoordinates,815A2C8C-8163-47E4-9813-AD16C0C63C49*%
%TF.FilePolarity,Positive*%
%TF.FileFunction,Copper,L1,Top,Signal*%
%TF.Part,Single*%
G01*
G75*
%TA.AperFunction,SMDPad,CuDef*%
%ADD10R,8.75000X5.20000*%
%ADD11R,1.85000X3.40000*%
%ADD12R,2.00000X1.80000*%
%TA.AperFunction,SMDPad,SMDef*%
%ADD13R,0.91440X1.49860*%
%TA.AperFunction,SMDPad,CuDef*%
%ADD14R,0.70000X0.23000*%
%ADD15R,1.67640X0.35560*%
%ADD16R,0.65000X0.63000*%
%ADD17R,0.90000X0.70000*%
%ADD18R,2.00000X1.50000*%
%ADD19R,2.00000X3.80000*%
%ADD20R,0.95000X1.70000*%
%ADD21R,0.70000X0.90000*%
G04:AMPARAMS|DCode=22|XSize=0.6mm|YSize=1.45mm|CornerRadius=0.051mm|HoleSize=0mm|Usage=FLASHONLY|Rotation=0.000|XOffset=0mm|YOffset=0mm|HoleType=Round|Shape=RoundedRectangle|*
%AMROUNDEDRECTD22*
21,1,0.60000,1.34800,0,0,0.0*
21,1,0.49800,1.45000,0,0,0.0*
1,1,0.10200,0.24900,-0.67400*
1,1,0.10200,-0.24900,-0.67400*
1,1,0.10200,-0.24900,0.67400*
1,1,0.10200,0.24900,0.67400*
%
%ADD22ROUNDEDRECTD22*%
G04:AMPARAMS|DCode=23|XSize=2.4mm|YSize=3.1mm|CornerRadius=0.048mm|HoleSize=0mm|Usage=FLASHONLY|Rotation=270.000|XOffset=0mm|YOffset=0mm|HoleType=Round|Shape=RoundedRectangle|*
%AMROUNDEDRECTD23*
21,1,2.40000,3.00400,0,0,270.0*
21,1,2.30400,3.10000,0,0,270.0*
1,1,0.09600,-1.50200,-1.15200*
1,1,0.09600,-1.50200,1.15200*
1,1,0.09600,1.50200,1.15200*
1,1,0.09600,1.50200,-1.15200*
%
%ADD23ROUNDEDRECTD23*%
%ADD24R,1.25000X1.10000*%
%ADD25R,1.40000X1.39000*%
%ADD26R,4.86000X3.36000*%
%ADD27R,1.20000X2.60000*%
%ADD28R,1.00000X0.90000*%
%ADD29O,0.70000X2.20000*%
G04:AMPARAMS|DCode=30|XSize=0.4mm|YSize=0.65mm|CornerRadius=0.05mm|HoleSize=0mm|Usage=FLASHONLY|Rotation=90.000|XOffset=0mm|YOffset=0mm|HoleType=Round|Shape=RoundedRectangle|*
%AMROUNDEDRECTD30*
21,1,0.40000,0.55000,0,0,90.0*
21,1,0.30000,0.65000,0,0,90.0*
1,1,0.10000,0.27500,0.15000*
1,1,0.10000,0.27500,-0.15000*
1,1,0.10000,-0.27500,-0.15000*
1,1,0.10000,-0.27500,0.15000*
%
%ADD30ROUNDEDRECTD30*%
%ADD31R,0.90000X1.00000*%
%ADD32R,0.80000X0.90000*%
%ADD33R,1.57480X2.81940*%
G04:AMPARAMS|DCode=34|XSize=0.45mm|YSize=1.4mm|CornerRadius=0.0495mm|HoleSize=0mm|Usage=FLASHONLY|Rotation=90.000|XOffset=0mm|YOffset=0mm|HoleType=Round|Shape=RoundedRectangle|*
%AMROUNDEDRECTD34*
21,1,0.45000,1.30100,0,0,90.0*
21,1,0.35100,1.40000,0,0,90.0*
1,1,0.09900,0.65050,0.17550*
1,1,0.09900,0.65050,-0.17550*
1,1,0.09900,-0.65050,-0.17550*
1,1,0.09900,-0.65050,0.17550*
%
%ADD34ROUNDEDRECTD34*%
%ADD35R,2.60000X1.20000*%
%ADD36O,2.20000X0.70000*%
%ADD37R,1.70000X0.95000*%
%ADD38R,3.36000X4.86000*%
%ADD39R,1.39000X1.40000*%
%ADD40R,1.80000X2.10000*%
%ADD41R,0.90000X0.80000*%
%ADD42R,0.65000X0.70000*%
%TA.AperFunction,Conductor*%
%ADD43C,0.25400*%
%ADD44C,1.01600*%
%ADD45C,0.76200*%
%ADD46C,0.20320*%
%ADD47C,2.03200*%
%ADD48C,0.50800*%
%ADD49C,0.43180*%
%TA.AperFunction,ComponentPad*%
%ADD50C,6.10000*%
%ADD51C,2.80000*%
%ADD52C,3.50000*%
%ADD53C,9.50000*%
%ADD54C,2.03200*%
%ADD55C,1.56000*%
%ADD56C,2.10000*%
%TA.AperFunction,ViaPad*%
%ADD57C,0.50800*%
%ADD58C,0.76200*%
%ADD59C,0.81280*%
G36*
X10147300Y10464799D02*
X10153615Y10464799D01*
X10165285Y10459966D01*
X10174216Y10451035D01*
X10179050Y10439365D01*
Y10433050D01*
X10179050Y9828011D01*
X10179049Y9828010D01*
Y9819524D01*
X10172554Y9803845D01*
X10160554Y9791845D01*
X10144875Y9785350D01*
X10136389D01*
X9950449Y9785350D01*
X9930745Y9785350D01*
X9892094Y9793038D01*
X9855686Y9808119D01*
X9822919Y9830013D01*
X9795053Y9857879D01*
X9773159Y9890645D01*
X9758078Y9927054D01*
X9750390Y9965705D01*
Y9985410D01*
X9750390Y10035374D01*
X9750389Y10035373D01*
X9749912Y10045099D01*
X9746117Y10064177D01*
X9738674Y10082149D01*
X9727867Y10098322D01*
X9714113Y10112077D01*
X9697939Y10122884D01*
X9679968Y10130327D01*
X9660890Y10134122D01*
X9651164Y10134599D01*
X8274164D01*
X8274163Y10134598D01*
X8248392Y10133333D01*
X8197840Y10123277D01*
X8150220Y10103553D01*
X8107364Y10074917D01*
X8070918Y10038471D01*
X8042283Y9995615D01*
X8022558Y9947996D01*
X8012503Y9897443D01*
X8011237Y9871672D01*
X8011237Y9031893D01*
X8011236Y9031892D01*
X8011236Y9019978D01*
X8002118Y8997966D01*
X7985271Y8981118D01*
X7963258Y8972000D01*
X7951345Y8972000D01*
X7843944Y8972001D01*
X7843943D01*
X7833482Y8972000D01*
X7814152Y8980007D01*
X7799358Y8994801D01*
X7791351Y9014131D01*
X7791352Y9024593D01*
Y9577281D01*
X7791351Y9577281D01*
X7790606Y9584851D01*
X7784813Y9598839D01*
X7774107Y9609545D01*
X7760118Y9615339D01*
X7752548Y9616084D01*
X7734292Y9616084D01*
X7734292D01*
X7726472Y9616084D01*
X7712023Y9622068D01*
X7700965Y9633127D01*
X7694981Y9647576D01*
X7694982Y9655396D01*
Y9854314D01*
X7694981Y9884305D01*
X7700860Y9943999D01*
X7712561Y10002829D01*
X7729972Y10060230D01*
X7752926Y10115647D01*
X7781201Y10168547D01*
X7814525Y10218421D01*
X7852578Y10264788D01*
X7894992Y10307202D01*
X7941359Y10345255D01*
X7991233Y10378579D01*
X8044133Y10406855D01*
X8099550Y10429808D01*
X8156950Y10447220D01*
X8215780Y10458921D01*
X8275474Y10464800D01*
X8305466Y10464799D01*
X10147300Y10464800D01*
X10147300Y10464799D01*
D02*
G37*
G36*
X4381202Y10363207D02*
X4391082Y10363207D01*
X4410464Y10359353D01*
X4428721Y10351791D01*
X4445152Y10340813D01*
X4459125Y10326840D01*
X4470104Y10310409D01*
X4477666Y10292152D01*
X4481520Y10272770D01*
X4481520Y10262890D01*
X4481520Y10208363D01*
Y10208362D01*
X4481875Y10201132D01*
X4484696Y10186949D01*
X4490229Y10173590D01*
X4498263Y10161567D01*
X4508488Y10151342D01*
X4520511Y10143308D01*
X4533871Y10137775D01*
X4548053Y10134954D01*
X4555283Y10134599D01*
X4850472Y10134600D01*
X4851556Y9962290D01*
X4614233Y9963259D01*
X4614233Y9963258D01*
X4597667Y9962510D01*
X4565154Y9956163D01*
X4534511Y9943580D01*
X4506920Y9925246D01*
X4483449Y9901870D01*
X4465003Y9874355D01*
X4452295Y9843763D01*
X4445815Y9811277D01*
X4445000Y9794713D01*
X4445000Y9611650D01*
X4445000Y9611649D01*
X4446075Y9589741D01*
X4454612Y9546764D01*
X4471359Y9506275D01*
X4495675Y9469825D01*
X4526626Y9438811D01*
X4563028Y9414422D01*
X4603484Y9397594D01*
X4646443Y9388971D01*
X4668349Y9387852D01*
X4851518Y9387485D01*
X4850394Y9205441D01*
X4352359D01*
X4326039Y9210647D01*
X4301229Y9220862D01*
X4278874Y9235696D01*
X4259821Y9254587D01*
X4244796Y9276816D01*
X4234370Y9301537D01*
X4228940Y9327812D01*
X4228825Y9341226D01*
X4226810Y9577412D01*
X4226809Y9577411D01*
X4225986Y9597472D01*
X4220438Y9637219D01*
X4209777Y9675911D01*
X4194183Y9712891D01*
X4173920Y9747533D01*
X4149330Y9779251D01*
X4120831Y9807508D01*
X4088904Y9831826D01*
X4054090Y9851793D01*
X4016979Y9867071D01*
X3978198Y9877402D01*
X3938404Y9882610D01*
X3918337Y9883262D01*
X2406650Y9883263D01*
Y10363200D01*
X4081334Y10363206D01*
X4381202Y10363208D01*
X4381202Y10363207D01*
D02*
G37*
G36*
X3940802Y9828088D02*
X3978981Y9812273D01*
X4013342Y9789314D01*
X4042563Y9760093D01*
X4065522Y9725732D01*
X4081336Y9687552D01*
X4089398Y9647021D01*
X4089397Y9626359D01*
X4089399Y9626360D01*
X4089400Y9537700D01*
X4090224Y9504089D01*
X4096813Y9437190D01*
X4109927Y9371259D01*
X4129441Y9306931D01*
X4155165Y9244825D01*
X4186853Y9185540D01*
X4224200Y9129646D01*
X4266845Y9077682D01*
X4314379Y9030149D01*
X4366342Y8987503D01*
X4422236Y8950156D01*
X4481521Y8918467D01*
X4543626Y8892742D01*
X4607954Y8873229D01*
X4673885Y8860114D01*
X4740784Y8853525D01*
X4774395Y8852700D01*
X4774400Y8852700D01*
X5676100Y8852699D01*
X5706119Y8852700D01*
X5765644Y8844865D01*
X5823637Y8829328D01*
X5879105Y8806353D01*
X5931101Y8776334D01*
X5978732Y8739785D01*
X6021186Y8697332D01*
X6057734Y8649699D01*
X6087753Y8597704D01*
X6110727Y8542235D01*
X6126264Y8484242D01*
X6134098Y8424717D01*
X6134097Y8394698D01*
X6134100Y8394700D01*
X6134099Y6180604D01*
X6134101Y6167268D01*
X6128900Y6141106D01*
X6118694Y6116462D01*
X6103876Y6094283D01*
X6085014Y6075422D01*
X6062835Y6060604D01*
X6038191Y6050399D01*
X6012030Y6045198D01*
X5998693Y6045200D01*
X5998695D01*
X5502965Y6045200D01*
X5033879Y6045200D01*
X5015907Y6045199D01*
X4980651Y6052210D01*
X4947442Y6065966D01*
X4917554Y6085935D01*
X4892137Y6111353D01*
X4872167Y6141240D01*
X4858411Y6174450D01*
X4851399Y6209705D01*
X4851400Y6227677D01*
Y6227680D01*
X4851399Y7531100D01*
X4850552Y7548381D01*
X4843811Y7582279D01*
X4830586Y7614210D01*
X4811386Y7642947D01*
X4786946Y7667385D01*
X4758209Y7686586D01*
X4726277Y7699810D01*
X4692379Y7706550D01*
X4675098Y7707397D01*
X4675101Y7707400D01*
X3942950Y7707400D01*
X3927353Y7707399D01*
X3896760Y7713482D01*
X3867941Y7725418D01*
X3842006Y7742747D01*
X3819949Y7764804D01*
X3802620Y7790739D01*
X3790683Y7819557D01*
X3784599Y7850151D01*
X3784600Y7865747D01*
Y7865750D01*
X3784599Y8475543D01*
X3783875Y8497666D01*
X3778100Y8541532D01*
X3766649Y8584269D01*
X3749718Y8625146D01*
X3727596Y8663463D01*
X3700662Y8698565D01*
X3669377Y8729852D01*
X3634276Y8756787D01*
X3595960Y8778910D01*
X3555083Y8795843D01*
X3512347Y8807296D01*
X3468480Y8813073D01*
X3446358Y8813797D01*
X3446359Y8813799D01*
X1917631Y8813864D01*
X1897624Y8813865D01*
X1876687Y8818030D01*
X1872500D01*
Y8818863D01*
X1858379Y8821672D01*
X1821411Y8836986D01*
X1788141Y8859218D01*
X1759848Y8887512D01*
X1737618Y8920783D01*
X1722306Y8957751D01*
X1714499Y8996996D01*
X1714500Y9017004D01*
Y9017005D01*
X1714499Y9626599D01*
X1714499Y9647237D01*
X1722552Y9687722D01*
X1738348Y9725857D01*
X1761280Y9760178D01*
X1790468Y9789365D01*
X1824789Y9812298D01*
X1862924Y9828094D01*
X1903408Y9836146D01*
X1924047Y9836146D01*
Y9836147D01*
X3879608Y9836150D01*
X3900271Y9836150D01*
X3940802Y9828088D01*
D02*
G37*
G36*
X7298803Y10060229D02*
X7318151Y10060229D01*
X7356104Y10052680D01*
X7391855Y10037871D01*
X7424030Y10016373D01*
X7451392Y9989011D01*
X7472891Y9956836D01*
X7487699Y9921085D01*
X7495248Y9883132D01*
X7495248Y9863784D01*
X7495249Y9863784D01*
X7495249Y9679623D01*
X7302500Y9785350D01*
X7302499Y9808568D01*
X7301991Y9818917D01*
X7297953Y9839217D01*
X7290032Y9858340D01*
X7278533Y9875549D01*
X7263897Y9890185D01*
X7246687Y9901684D01*
X7227565Y9909604D01*
X7207264Y9913642D01*
X7196916Y9914150D01*
X7196916Y9914151D01*
X7112707Y9914152D01*
Y10060230D01*
X7298803Y10060229D01*
D02*
G37*
G36*
X10133002Y9521872D02*
X10150520Y9504355D01*
X10160001Y9481466D01*
X10160000Y9469079D01*
X10159999Y8671568D01*
X10159998Y8671567D01*
X10159998Y8664938D01*
X10157412Y8651936D01*
X10152339Y8639689D01*
X10144974Y8628666D01*
X10135600Y8619292D01*
X10124577Y8611927D01*
X10112330Y8606854D01*
X10099328Y8604268D01*
X10092699D01*
X9682119Y8604267D01*
X9682118Y8604266D01*
X9678471Y8603907D01*
X9671731Y8601116D01*
X9666574Y8595958D01*
X9663782Y8589219D01*
X9663423Y8585571D01*
Y8558729D01*
X9489862D01*
X9489862Y9207102D01*
X9489861Y9207101D01*
X9489084Y9214987D01*
X9483049Y9229557D01*
X9471898Y9240709D01*
X9457328Y9246744D01*
X9449442Y9247521D01*
X9434920Y9247521D01*
X9434919Y9247521D01*
X9430101D01*
X9421199Y9251210D01*
X9414386Y9258024D01*
X9410699Y9266927D01*
X9410700Y9271745D01*
Y9488822D01*
X9410700Y9488822D01*
X9410700Y9497281D01*
X9417174Y9512913D01*
X9429138Y9524877D01*
X9444770Y9531351D01*
X9453229Y9531351D01*
X10097726Y9531351D01*
X10097725Y9531349D01*
X10110113Y9531351D01*
X10133002Y9521872D01*
D02*
G37*
G36*
X9041616Y9711845D02*
X9041616Y9711844D01*
X9054479Y9711845D01*
X9079712Y9706826D01*
X9103481Y9696980D01*
X9124872Y9682687D01*
X9143064Y9664495D01*
X9157357Y9643104D01*
X9167203Y9619335D01*
X9172222Y9594102D01*
Y9581239D01*
Y9352992D01*
X8988625D01*
X8988625Y9520762D01*
X8988624D01*
X8987567Y9531499D01*
X8979349Y9551339D01*
X8964165Y9566524D01*
X8944325Y9574742D01*
X8933588Y9575799D01*
X8820150Y9575800D01*
X8826500Y9711845D01*
X9041616Y9711845D01*
D02*
G37*
G36*
X7151848Y9721844D02*
X7164790Y9721845D01*
X7190176Y9716797D01*
X7214090Y9706893D01*
X7235612Y9692513D01*
X7253915Y9674212D01*
X7268295Y9652690D01*
X7278201Y9628777D01*
X7283251Y9603391D01*
Y9590449D01*
X7283251Y9566135D01*
X7283252Y9566129D01*
X7283787Y9555238D01*
X7288036Y9533875D01*
X7296372Y9513751D01*
X7308474Y9495640D01*
X7323876Y9480237D01*
X7341988Y9468136D01*
X7362112Y9459801D01*
X7383476Y9455553D01*
X7394367Y9455018D01*
X7596131D01*
X7596130Y9455017D01*
X7605866Y9455018D01*
X7624964Y9451219D01*
X7642954Y9443767D01*
X7659145Y9432950D01*
X7672914Y9419181D01*
X7683732Y9402990D01*
X7691183Y9385001D01*
X7694982Y9365903D01*
X7694982Y9356167D01*
X7694982Y9012047D01*
X7694981Y9012046D01*
X7694981Y9003778D01*
X7691755Y8987560D01*
X7685427Y8972283D01*
X7676240Y8958534D01*
X7664548Y8946841D01*
X7650799Y8937654D01*
X7635522Y8931326D01*
X7619303Y8928100D01*
X7611036Y8928100D01*
X7300887D01*
X7300886Y8928101D01*
X7291195Y8928100D01*
X7273287Y8935517D01*
X7259581Y8949223D01*
X7252164Y8967130D01*
X7252164Y8976822D01*
X7252164Y9277898D01*
X7252162Y9277896D01*
X7251725Y9286792D01*
X7248256Y9304241D01*
X7241449Y9320678D01*
X7231565Y9335470D01*
X7218986Y9348050D01*
X7204194Y9357934D01*
X7187757Y9364742D01*
X7170308Y9368213D01*
X7161413Y9368649D01*
X7134998Y9368650D01*
X7134996D01*
X7128811Y9368649D01*
X7117383Y9373383D01*
X7108636Y9382131D01*
X7103903Y9393560D01*
X7103904Y9399745D01*
Y9539511D01*
X7103902Y9539510D01*
X7102700Y9551722D01*
X7093354Y9574288D01*
X7076083Y9591559D01*
X7053518Y9600906D01*
X7041306Y9602109D01*
X7020973Y9602110D01*
Y9721849D01*
X7151852D01*
X7151848Y9721844D01*
D02*
G37*
G36*
X3523612Y8654131D02*
X3558038Y8639871D01*
X3589020Y8619169D01*
X3615368Y8592820D01*
X3636070Y8561837D01*
X3650329Y8527411D01*
X3657598Y8490865D01*
X3657598Y8472234D01*
X3657600Y8472235D01*
X3657600Y7716514D01*
X3658431Y7699585D01*
X3665036Y7666378D01*
X3677993Y7635097D01*
X3696803Y7606945D01*
X3720744Y7583004D01*
X3748895Y7564194D01*
X3780176Y7551237D01*
X3813383Y7544632D01*
X3830312Y7543800D01*
X3830314Y7543800D01*
X4625264Y7543799D01*
X4636279Y7543800D01*
X4657885Y7539502D01*
X4678238Y7531071D01*
X4696555Y7518832D01*
X4712132Y7503254D01*
X4724371Y7484937D01*
X4732800Y7464583D01*
X4737097Y7442977D01*
X4737097Y7431962D01*
X4737100Y7431964D01*
X4737099Y6968670D01*
X4737100Y6959572D01*
X4733550Y6941726D01*
X4726587Y6924916D01*
X4716479Y6909787D01*
X4703612Y6896921D01*
X4688483Y6886812D01*
X4671673Y6879849D01*
X4653827Y6876300D01*
X4644730Y6876300D01*
X4644730D01*
X2737600Y6876300D01*
X2729396D01*
X2713302Y6879501D01*
X2698143Y6885780D01*
X2684500Y6894897D01*
X2672897Y6906499D01*
X2663781Y6920143D01*
X2657501Y6935302D01*
X2654300Y6951395D01*
Y6959600D01*
X2654300D01*
Y8483600D01*
Y8501111D01*
X2661132Y8535462D01*
X2674535Y8567819D01*
X2693993Y8596940D01*
X2718758Y8621705D01*
X2747879Y8641163D01*
X2780237Y8654566D01*
X2814587Y8661398D01*
X2832098D01*
X2832100Y8661400D01*
X3149600Y8661400D01*
X3468435Y8661400D01*
X3487066Y8661400D01*
X3523612Y8654131D01*
D02*
G37*
G36*
X5601930Y10610843D02*
Y10610843D01*
X5631154Y10610843D01*
X5689321Y10605116D01*
X5746647Y10593714D01*
X5802578Y10576749D01*
X5856578Y10554382D01*
X5908125Y10526831D01*
X5956724Y10494360D01*
X6001905Y10457281D01*
X6043235Y10415952D01*
X6080315Y10370771D01*
X6112787Y10322174D01*
X6140340Y10270627D01*
X6162708Y10216628D01*
X6179674Y10160697D01*
X6191077Y10103371D01*
X6196806Y10045205D01*
X6196806Y10015980D01*
X6196807Y9870420D01*
Y9870420D01*
X6197940Y9835785D01*
X6206981Y9767106D01*
X6224910Y9700195D01*
X6251419Y9636196D01*
X6286054Y9576206D01*
X6328224Y9521249D01*
X6377206Y9472267D01*
X6432163Y9430097D01*
X6492153Y9395462D01*
X6556152Y9368953D01*
X6623063Y9351024D01*
X6691742Y9341983D01*
X6726377Y9340850D01*
X7092138Y9340851D01*
X7092137Y9340850D01*
X7103512Y9340859D01*
X7124532Y9332161D01*
X7140618Y9316075D01*
X7149315Y9295054D01*
X7149307Y9283680D01*
X7149307Y8917921D01*
Y8917921D01*
X7149840Y8912472D01*
X7154007Y8902403D01*
X7161712Y8894698D01*
X7171782Y8890532D01*
X7177231Y8889999D01*
X8193097Y8890000D01*
X8193097D01*
X8211536Y8890901D01*
X8247708Y8898088D01*
X8281781Y8912197D01*
X8312446Y8932684D01*
X8338523Y8958761D01*
X8359010Y8989426D01*
X8373119Y9023499D01*
X8380306Y9059671D01*
X8381207Y9078110D01*
X8381208Y9156701D01*
D01*
Y9156701D01*
Y9156701D01*
X8381197Y9163019D01*
X8386023Y9174699D01*
X8394959Y9183635D01*
X8406639Y9188461D01*
X8412958Y9188450D01*
X8475258Y9188450D01*
X8475257Y9188450D01*
X8481575Y9188457D01*
X8493251Y9183629D01*
X8502186Y9174694D01*
X8507014Y9163018D01*
X8507007Y9156700D01*
X8507008Y9011851D01*
Y9011851D01*
X8507883Y9002944D01*
X8514696Y8986486D01*
X8527292Y8973890D01*
X8543751Y8967076D01*
X8552657Y8966201D01*
X8597085Y8966201D01*
X8604526Y8966925D01*
X8618277Y8972610D01*
X8628799Y8983131D01*
X8634483Y8996883D01*
X8635207Y9004324D01*
X8635208Y9161282D01*
D01*
Y9161283D01*
Y9161282D01*
X8635197Y9166690D01*
X8639325Y9176685D01*
X8646972Y9184332D01*
X8656967Y9188461D01*
X8662375Y9188450D01*
X8720956Y9188450D01*
X8720956Y9188450D01*
X8729446Y9188457D01*
X8745136Y9181965D01*
X8757143Y9169958D01*
X8763635Y9154267D01*
X8763628Y9145777D01*
X8763629Y9032862D01*
Y9032861D01*
X8764419Y9024810D01*
X8770578Y9009933D01*
X8781963Y8998548D01*
X8796840Y8992389D01*
X8804891Y8991599D01*
X8844759Y8991599D01*
X8844759Y8991598D01*
X8851076Y8991605D01*
X8862751Y8986777D01*
X8871685Y8977844D01*
X8876513Y8966169D01*
X8876507Y8959852D01*
X8876507Y8889999D01*
X8876508Y8610601D01*
X8876508Y8610600D01*
X8876508Y8597969D01*
X8866841Y8574630D01*
X8848977Y8556767D01*
X8825639Y8547100D01*
X8813008Y8547100D01*
X6813410Y8547101D01*
X6813409Y8547100D01*
X6795103Y8546501D01*
X6758803Y8541722D01*
X6723438Y8532246D01*
X6689612Y8518235D01*
X6657904Y8499929D01*
X6628857Y8477640D01*
X6602968Y8451751D01*
X6580679Y8422704D01*
X6562373Y8390996D01*
X6548362Y8357170D01*
X6538886Y8321805D01*
X6534107Y8285505D01*
X6533508Y8267199D01*
X6533508Y7760108D01*
Y7760108D01*
X6534485Y7740150D01*
X6542266Y7700999D01*
X6557538Y7664120D01*
X6579712Y7630930D01*
X6607938Y7602705D01*
X6641128Y7580530D01*
X6678007Y7565259D01*
X6717157Y7557477D01*
X6737116Y7556501D01*
X6804017Y7556500D01*
X6804017Y7556499D01*
X6809550Y7556517D01*
X6819781Y7552298D01*
X6827606Y7544473D01*
X6831825Y7534243D01*
X6831808Y7528710D01*
X6831808Y7416801D01*
X6831808Y7416800D01*
X6831808Y7411748D01*
X6827941Y7402412D01*
X6820796Y7395267D01*
X6811460Y7391400D01*
X6806408Y7391401D01*
Y7391400D01*
X6803930Y7391156D01*
X6799352Y7389260D01*
X6795848Y7385756D01*
X6793952Y7381178D01*
X6793708Y7378700D01*
Y7251701D01*
X6793708Y7251700D01*
X6794432Y7244264D01*
X6800114Y7230522D01*
X6810629Y7220007D01*
X6824371Y7214324D01*
X6831808Y7213600D01*
X6916908D01*
X6916907Y7213600D01*
X6925091Y7214383D01*
X6940217Y7220621D01*
X6951787Y7232190D01*
X6958024Y7247317D01*
X6958808Y7255500D01*
X6958808Y7321700D01*
D01*
Y7321700D01*
Y7321700D01*
X6958781Y7328053D01*
X6963619Y7339804D01*
X6972604Y7348789D01*
X6984354Y7353627D01*
X6990708Y7353600D01*
Y7353600D01*
X6993880Y7353889D01*
X6999746Y7356289D01*
X7004229Y7360771D01*
X7006629Y7366638D01*
X7006917Y7369810D01*
X7006918Y7532991D01*
X7006892Y7539431D01*
X7011797Y7551342D01*
X7020905Y7560450D01*
X7032815Y7565355D01*
X7039255Y7565329D01*
X7045994Y7565344D01*
X7058450Y7560200D01*
X7067980Y7550671D01*
X7073123Y7538215D01*
X7073107Y7531476D01*
X7073108Y7404101D01*
Y7404101D01*
X7073832Y7396664D01*
X7079515Y7382922D01*
X7090030Y7372407D01*
X7103772Y7366725D01*
X7111208Y7366001D01*
X7149308Y7366000D01*
X7149308Y7366000D01*
X7159417Y7366015D01*
X7178103Y7358292D01*
X7192400Y7343995D01*
X7200123Y7325309D01*
X7200107Y7315200D01*
X7200108Y7176621D01*
Y7176621D01*
X7200865Y7168849D01*
X7206805Y7154487D01*
X7217795Y7143498D01*
X7232157Y7137558D01*
X7239928Y7136801D01*
X8240908D01*
X8254663Y7137465D01*
X8281648Y7142814D01*
X8307069Y7153331D01*
X8329946Y7168609D01*
X8349399Y7188062D01*
X8364677Y7210939D01*
X8375194Y7236360D01*
X8380543Y7263345D01*
X8381208Y7277100D01*
X8381208Y7480301D01*
X8470108D01*
X8470108Y7329803D01*
Y7329803D01*
X8471023Y7320435D01*
X8478185Y7303124D01*
X8491432Y7289877D01*
X8508743Y7282716D01*
X8518111Y7281801D01*
X8589108D01*
X8589108Y7281800D01*
X8598110Y7282666D01*
X8614749Y7289532D01*
X8627476Y7302259D01*
X8634342Y7318898D01*
X8635208Y7327900D01*
X8635208Y7480301D01*
X8732508D01*
X8732508Y7334725D01*
Y7334725D01*
X8733365Y7325958D01*
X8740067Y7309757D01*
X8752464Y7297359D01*
X8768664Y7290657D01*
X8777432Y7289800D01*
X9105108Y7289801D01*
X9105108Y7289800D01*
X9110165Y7289815D01*
X9119514Y7285958D01*
X9126666Y7278806D01*
X9130522Y7269457D01*
X9130508Y7264400D01*
X9130508Y7087702D01*
X9130507Y7087702D01*
Y7069456D01*
X9123388Y7033666D01*
X9109423Y6999952D01*
X9089150Y6969610D01*
X9063346Y6943807D01*
X9033005Y6923533D01*
X8999291Y6909569D01*
X8963500Y6902449D01*
X8945254Y6902450D01*
X6892409Y6902449D01*
X6892409D01*
X6858236Y6902449D01*
X6790219Y6909147D01*
X6723186Y6922479D01*
X6657783Y6942318D01*
X6594640Y6968472D01*
X6534364Y7000690D01*
X6477536Y7038661D01*
X6424704Y7082019D01*
X6376376Y7130347D01*
X6333018Y7183179D01*
X6295048Y7240006D01*
X6262830Y7300282D01*
X6236676Y7363426D01*
X6216837Y7428829D01*
X6203504Y7495862D01*
X6196807Y7563878D01*
X6196807Y7598052D01*
X6196807Y8515371D01*
X6196807Y8515371D01*
X6196009Y8539874D01*
X6189619Y8588462D01*
X6176941Y8635800D01*
X6158191Y8681077D01*
X6133691Y8723519D01*
X6103859Y8762399D01*
X6069207Y8797052D01*
X6030327Y8826884D01*
X5987885Y8851384D01*
X5942607Y8870134D01*
X5895269Y8882812D01*
X5846682Y8889202D01*
X5822178Y8889999D01*
X5649904Y8889999D01*
X5649903D01*
X5624204Y8889999D01*
X5573244Y8896707D01*
X5523595Y8910010D01*
X5476108Y8929680D01*
X5431595Y8955379D01*
X5390816Y8986669D01*
X5354471Y9023014D01*
X5323181Y9063792D01*
X5297481Y9108306D01*
X5277812Y9155793D01*
X5264509Y9205441D01*
X5257800Y9256401D01*
X5257800Y9282101D01*
X5257800Y9662944D01*
Y9818916D01*
X5257799Y10394950D01*
X5257800Y10610845D01*
X5601930Y10610843D01*
D02*
G37*
G36*
X10143481Y7930600D02*
X9994898Y7930599D01*
X9994898Y7930599D01*
X9994013Y7947506D01*
X9986987Y7980582D01*
X9973241Y8011476D01*
X9953375Y8038840D01*
X9928257Y8061478D01*
X9898983Y8078402D01*
X9866831Y8088874D01*
X9833205Y8092436D01*
X9816298Y8091565D01*
X9806370Y8091565D01*
X9786895Y8095439D01*
X9768550Y8103037D01*
X9752041Y8114069D01*
X9738000Y8128109D01*
X9726969Y8144619D01*
X9719370Y8162964D01*
X9715496Y8182438D01*
X9715497Y8192366D01*
Y8427966D01*
X9715497Y8427965D01*
X9715497Y8439698D01*
X9720075Y8462715D01*
X9729055Y8484397D01*
X9742093Y8503909D01*
X9758687Y8520503D01*
X9778199Y8533541D01*
X9799881Y8542522D01*
X9822897Y8547100D01*
X9834631Y8547100D01*
X10147300Y8547100D01*
X10143481Y7930600D01*
D02*
G37*
G36*
X8792699Y9372600D02*
X8792697Y9372596D01*
X8803809Y9372597D01*
X8825606Y9368262D01*
X8846139Y9359758D01*
X8864618Y9347411D01*
X8880333Y9331697D01*
X8892681Y9313218D01*
X8901186Y9292686D01*
X8905522Y9270888D01*
Y9259777D01*
X8905522Y9233327D01*
X8905522Y9233325D01*
X8905876Y9226123D01*
X8908686Y9211997D01*
X8914197Y9198691D01*
X8922199Y9186715D01*
X8932383Y9176531D01*
X8944359Y9168530D01*
X8957666Y9163018D01*
X8971792Y9160209D01*
X8978993Y9159855D01*
X9237243D01*
X9237242Y9159854D01*
X9253233Y9159854D01*
X9284599Y9153615D01*
X9314146Y9141377D01*
X9340737Y9123610D01*
X9363351Y9100996D01*
X9381119Y9074405D01*
X9393358Y9044858D01*
X9399597Y9013492D01*
Y8997501D01*
X9399597Y8602106D01*
X9399596Y8602106D01*
X9399596Y8594069D01*
X9396460Y8578303D01*
X9390309Y8563452D01*
X9381378Y8550087D01*
X9370012Y8538721D01*
X9356647Y8529790D01*
X9341796Y8523639D01*
X9326031Y8520503D01*
X9317994Y8520503D01*
X9023028Y8520504D01*
X9023028Y8520504D01*
X9015875Y8520504D01*
X9001843Y8523294D01*
X8988625Y8528769D01*
X8976730Y8536717D01*
X8966613Y8546834D01*
X8958665Y8558729D01*
X8953190Y8571947D01*
X8950399Y8585978D01*
X8950399Y8593131D01*
X8950399Y8953674D01*
X8950397Y8953673D01*
X8950062Y8960503D01*
X8947398Y8973899D01*
X8942171Y8986518D01*
X8934583Y8997875D01*
X8924925Y9007534D01*
X8913568Y9015122D01*
X8900949Y9020349D01*
X8887553Y9023014D01*
X8880723Y9023349D01*
X8804002Y9023350D01*
X8800424D01*
X8793821Y9026085D01*
X8788768Y9031140D01*
X8786034Y9037744D01*
X8786035Y9041318D01*
X8786034Y9181952D01*
X8786034Y9204789D01*
X8786030Y9204786D01*
X8785125Y9213987D01*
X8778085Y9230988D01*
X8765074Y9244001D01*
X8748073Y9251043D01*
X8738873Y9251949D01*
X8725990Y9251950D01*
Y9372600D01*
X8792699Y9372600D01*
D02*
G37*
G36*
X8152588Y8484411D02*
X8162042Y8484411D01*
X8180586Y8480723D01*
X8198055Y8473487D01*
X8213776Y8462983D01*
X8227146Y8449613D01*
X8237651Y8433892D01*
X8244886Y8416423D01*
X8248575Y8397878D01*
X8248574Y8388424D01*
X8248575Y8204294D01*
X8248574Y8204293D01*
Y8194998D01*
X8244947Y8176764D01*
X8237833Y8159588D01*
X8227504Y8144131D01*
X8214358Y8130985D01*
X8198901Y8120656D01*
X8181725Y8113542D01*
X8163492Y8109915D01*
X8154196D01*
X8154195Y8109914D01*
X8146648Y8109543D01*
X8131845Y8106598D01*
X8117900Y8100822D01*
X8105350Y8092437D01*
X8094677Y8081764D01*
X8086291Y8069214D01*
X8080515Y8055269D01*
X8077571Y8040465D01*
X8077200Y8032918D01*
X8077200Y7356959D01*
X8077193Y7356952D01*
Y7346154D01*
X8072980Y7324975D01*
X8064716Y7305024D01*
X8052718Y7287069D01*
X8037449Y7271799D01*
X8019493Y7259802D01*
X7999543Y7251538D01*
X7978363Y7247325D01*
X7891033D01*
X7844774Y7248313D01*
X7844774D01*
X7837591Y7248466D01*
X7823554Y7251532D01*
X7810368Y7257242D01*
X7798529Y7265383D01*
X7788478Y7275652D01*
X7780591Y7287663D01*
X7775164Y7300967D01*
X7772399Y7315067D01*
X7772400Y7322251D01*
X7772400Y8157407D01*
Y8165768D01*
X7775662Y8182169D01*
X7782061Y8197618D01*
X7791352Y8211522D01*
X7803176Y8223347D01*
X7817080Y8232637D01*
X7832529Y8239037D01*
X7848930Y8242299D01*
X7857291D01*
X7857291Y8242299D01*
X7868284Y8242838D01*
X7889850Y8247122D01*
X7910167Y8255527D01*
X7928457Y8267729D01*
X7944018Y8283262D01*
X7956254Y8301529D01*
X7964695Y8321831D01*
X7969018Y8343389D01*
X7969577Y8354381D01*
X7969606Y8369982D01*
X7969606Y8369981D01*
X7969626Y8381259D01*
X7974061Y8403375D01*
X7982721Y8424202D01*
X7995273Y8442942D01*
X8011237Y8458877D01*
X8030000Y8471395D01*
X8050843Y8480017D01*
X8072966Y8484412D01*
X8084244Y8484412D01*
X8152588Y8484412D01*
X8152588Y8484411D01*
D02*
G37*
G36*
X2209799Y8396078D02*
X2209798Y8396078D01*
X2209798Y8388437D01*
X2206817Y8373449D01*
X2200969Y8359331D01*
X2192479Y8346624D01*
X2181673Y8335819D01*
X2168967Y8327329D01*
X2154848Y8321481D01*
X2139860Y8318499D01*
X2132220Y8318499D01*
X1911366Y8318500D01*
X1911366Y8318500D01*
X1901730Y8318500D01*
X1883925Y8325875D01*
X1870298Y8339502D01*
X1862923Y8357307D01*
Y8366943D01*
X1862924Y8731250D01*
X2209800D01*
X2209799Y8396078D01*
D02*
G37*
G36*
X7416800Y7886700D02*
X7327261D01*
X7327261Y7886700D01*
X7326894Y7894169D01*
X7323980Y7908819D01*
X7318263Y7922620D01*
X7309964Y7935040D01*
X7299402Y7945603D01*
X7286981Y7953902D01*
X7273181Y7959618D01*
X7258530Y7962532D01*
X7251061Y7962899D01*
X7173324Y7962900D01*
X7172810Y8102600D01*
X7244004Y8102600D01*
D01*
X7244004D01*
X7244004D01*
X7252165Y8103001D01*
X7268172Y8106184D01*
X7283251Y8112430D01*
X7296822Y8121498D01*
X7308363Y8133039D01*
X7317430Y8146609D01*
X7323676Y8161688D01*
X7326860Y8177696D01*
X7327261Y8185857D01*
X7416800Y8185857D01*
Y7886700D01*
D02*
G37*
G36*
X9537699Y8077199D02*
X9555211Y8077199D01*
X9589562Y8070367D01*
X9621919Y8056964D01*
X9651040Y8037505D01*
X9675805Y8012740D01*
X9695263Y7983618D01*
X9708665Y7951260D01*
X9715497Y7916909D01*
X9715496Y7899398D01*
X9715500Y7899400D01*
X9715500Y7689428D01*
X9716017Y7678888D01*
X9720129Y7658214D01*
X9728195Y7638739D01*
X9739905Y7621212D01*
X9754810Y7606307D01*
X9772337Y7594596D01*
X9791811Y7586529D01*
X9812485Y7582417D01*
X9823025Y7581900D01*
X9823028D01*
X10121899Y7581899D01*
X10129478Y7581899D01*
X10143481Y7576099D01*
X10154199Y7565382D01*
X10159999Y7551378D01*
X10159999Y7543800D01*
X10160000Y7543800D01*
X10160000Y6718300D01*
Y6708195D01*
X10152266Y6689524D01*
X10137976Y6675234D01*
X10119304Y6667499D01*
X10109199Y6667500D01*
X9994899D01*
X9979889Y6667499D01*
X9950446Y6673356D01*
X9922711Y6684844D01*
X9897750Y6701522D01*
X9876523Y6722750D01*
X9859844Y6747710D01*
X9848356Y6775445D01*
X9842500Y6804889D01*
X9842500Y6819899D01*
Y6819900D01*
X9842499Y7079746D01*
X9841868Y7092607D01*
X9836850Y7117836D01*
X9827005Y7141601D01*
X9812714Y7162988D01*
X9794525Y7181177D01*
X9773137Y7195468D01*
X9749372Y7205311D01*
X9724143Y7210329D01*
X9711282Y7210960D01*
X9711283Y7210962D01*
X9505971Y7210963D01*
X9497839Y7210962D01*
X9481886Y7214135D01*
X9466859Y7220359D01*
X9453335Y7229395D01*
X9441834Y7240896D01*
X9432798Y7254420D01*
X9426573Y7269446D01*
X9423400Y7285399D01*
Y7293531D01*
Y7293533D01*
X9423399Y7797799D01*
X9422667Y7805232D01*
X9416978Y7818967D01*
X9406465Y7829477D01*
X9392730Y7835164D01*
X9385296Y7835895D01*
X9385299Y7835899D01*
X9373847D01*
X9352688Y7844664D01*
X9336492Y7860859D01*
X9327728Y7882019D01*
Y7893470D01*
Y7893471D01*
X9327728Y8019628D01*
Y8031079D01*
X9336493Y8052240D01*
X9352688Y8068435D01*
X9373848Y8077200D01*
X9385300Y8077199D01*
X9385300Y8077200D01*
X9537699Y8077199D01*
D02*
G37*
G36*
X8966200Y7871439D02*
X8813800D01*
Y8001000D01*
X8877299Y8000999D01*
X8887210Y8001975D01*
X8905522Y8009561D01*
X8919538Y8023576D01*
X8927123Y8041889D01*
X8928099Y8051799D01*
X8928100Y8051800D01*
X8966200Y8051800D01*
Y7871439D01*
D02*
G37*
G36*
X7134409Y7785495D02*
X7134410Y7785495D01*
X7135393Y7775507D01*
X7143037Y7757052D01*
X7157162Y7742927D01*
X7175617Y7735283D01*
X7185604Y7734299D01*
X7528110Y7734300D01*
X7528104Y7734291D01*
X7537155Y7734293D01*
X7554908Y7730764D01*
X7571632Y7723839D01*
X7586683Y7713784D01*
X7599483Y7700986D01*
X7609541Y7685936D01*
X7616468Y7669213D01*
X7619999Y7651460D01*
Y7642410D01*
X7620000Y7281030D01*
X7619988Y7281019D01*
X7619988Y7270354D01*
X7615827Y7249434D01*
X7607664Y7229727D01*
X7595814Y7211992D01*
X7580731Y7196910D01*
X7562996Y7185060D01*
X7543290Y7176897D01*
X7522370Y7172735D01*
X7511705D01*
X7394047Y7172736D01*
X7394046D01*
X7383414Y7172736D01*
X7363768Y7180874D01*
X7348732Y7195913D01*
X7340597Y7215561D01*
X7340600Y7226193D01*
X7340599Y7306159D01*
X7340599D01*
X7340227Y7313736D01*
X7337271Y7328600D01*
X7331471Y7342601D01*
X7323052Y7355202D01*
X7312336Y7365918D01*
X7299735Y7374338D01*
X7285734Y7380138D01*
X7270870Y7383094D01*
X7263293Y7383467D01*
X7203779Y7383467D01*
X7203778D01*
X7196945Y7383466D01*
X7183543Y7386132D01*
X7170918Y7391361D01*
X7159556Y7398952D01*
X7149894Y7408615D01*
X7142303Y7419977D01*
X7137074Y7432602D01*
X7134409Y7446004D01*
X7134410Y7452837D01*
Y7593576D01*
X7134409Y7593575D01*
X7133471Y7603102D01*
X7126180Y7620706D01*
X7112707Y7634180D01*
X7095103Y7641472D01*
X7085576Y7642410D01*
X7085576Y7797800D01*
X7134409D01*
X7134409Y7785495D01*
D02*
G37*
G36*
X8775700Y7730536D02*
X8776878Y7718572D01*
X8786034Y7696467D01*
X8802953Y7679548D01*
X8825059Y7670391D01*
X8837022Y7669213D01*
X9209086D01*
X9209085Y7669211D01*
X9218778Y7669212D01*
X9237791Y7665430D01*
X9255702Y7658012D01*
X9271820Y7647242D01*
X9285528Y7633535D01*
X9296299Y7617416D01*
X9303717Y7599506D01*
X9307499Y7580493D01*
X9307499Y7570800D01*
X9307500Y7227899D01*
Y7227899D01*
X9307805Y7224796D01*
X9310181Y7219062D01*
X9314569Y7214673D01*
X9320304Y7212298D01*
X9323407Y7211992D01*
X9323406Y7211989D01*
X9326228Y7211990D01*
X9331445Y7209831D01*
X9335438Y7205839D01*
X9337599Y7200623D01*
X9337599Y7197800D01*
X9337597Y6988098D01*
X9337596Y6988096D01*
Y6981395D01*
X9332467Y6969012D01*
X9322989Y6959534D01*
X9310606Y6954405D01*
X9303905D01*
X9237494Y6954405D01*
X9229002D01*
X9213310Y6960906D01*
X9201300Y6972916D01*
X9194800Y6988608D01*
Y6997100D01*
X9194800Y7239000D01*
X9194798Y7238999D01*
X9194432Y7246468D01*
X9191518Y7261119D01*
X9185802Y7274920D01*
X9177503Y7287341D01*
X9166941Y7297903D01*
X9154520Y7306203D01*
X9140719Y7311919D01*
X9126068Y7314832D01*
X9118599Y7315199D01*
X8782200Y7315200D01*
X8782200Y7461100D01*
X8782199D01*
X8781822Y7468777D01*
X8778827Y7483836D01*
X8772951Y7498021D01*
X8764421Y7510787D01*
X8753564Y7521644D01*
X8740798Y7530174D01*
X8726613Y7536050D01*
X8711554Y7539046D01*
X8703877Y7539423D01*
X8699500Y7539423D01*
Y7759700D01*
X8775700D01*
Y7730536D01*
D02*
G37*
G36*
X4648199Y6388099D02*
X4658206D01*
X4677835Y6384195D01*
X4696325Y6376535D01*
X4712965Y6365416D01*
X4727116Y6351264D01*
X4738234Y6334623D01*
X4745892Y6316132D01*
X4749379Y6298592D01*
X4749794Y6286527D01*
Y6286496D01*
X4749793Y6286496D01*
X4749795Y6286495D01*
X4749796Y5924548D01*
X4749796Y5888755D01*
X4740453Y5817781D01*
X4721925Y5748634D01*
X4694530Y5682496D01*
X4658738Y5620501D01*
X4615159Y5563707D01*
X4564540Y5513088D01*
X4507747Y5469509D01*
X4445751Y5433716D01*
X4379614Y5406321D01*
X4310467Y5387793D01*
X4239493Y5378449D01*
X4203700Y5378449D01*
Y5378449D01*
X3841746Y5378449D01*
X3828676Y5377807D01*
X3803038Y5372707D01*
X3778887Y5362704D01*
X3757152Y5348181D01*
X3738668Y5329697D01*
X3724145Y5307962D01*
X3714142Y5283811D01*
X3709042Y5258173D01*
X3708401Y5245104D01*
X3708400Y5245103D01*
X3708400Y5245103D01*
X3708400Y4592083D01*
X3709536Y4568953D01*
X3718560Y4523580D01*
X3736263Y4480841D01*
X3761964Y4442376D01*
X3794676Y4409665D01*
X3833140Y4383964D01*
X3875880Y4366261D01*
X3921252Y4357236D01*
X3944382Y4356100D01*
X11810999Y4356099D01*
X11823508Y4356100D01*
X11848044Y4351220D01*
X11871157Y4341646D01*
X11891958Y4327748D01*
X11909648Y4310058D01*
X11923546Y4289257D01*
X11933119Y4266144D01*
X11937999Y4241607D01*
X11937998Y4229099D01*
X11937998Y4229099D01*
X11938000Y4229098D01*
Y2616200D01*
X2933700D01*
X2912890Y2616200D01*
X2871625Y2621632D01*
X2831424Y2632404D01*
X2792972Y2648331D01*
X2756927Y2669141D01*
X2723908Y2694477D01*
X2694478Y2723907D01*
X2669141Y2756927D01*
X2648331Y2792971D01*
X2632404Y2831423D01*
X2621632Y2871624D01*
X2616199Y2912889D01*
X2616200Y2933698D01*
Y3700382D01*
X2616200Y3700382D01*
X2787650D01*
X2795578Y3701959D01*
X2802300Y3706450D01*
X2806791Y3713172D01*
X2808368Y3721100D01*
Y4517625D01*
X2806791Y4525554D01*
X2802300Y4532275D01*
X2795578Y4536766D01*
X2787650Y4538343D01*
X2616200D01*
X2616200Y5744833D01*
X2685755D01*
X2695202Y5742954D01*
X2716243D01*
X2725980Y5744891D01*
X2774950D01*
X2787834Y5747454D01*
X2798756Y5754752D01*
X2806054Y5765674D01*
X2808617Y5778558D01*
X2806054Y5791442D01*
X2798756Y5802364D01*
X2787834Y5809662D01*
X2774950Y5812225D01*
X2718180D01*
X2708444Y5810288D01*
X2702769D01*
X2693323Y5812167D01*
X2616200D01*
Y6286500D01*
X2616200Y6296507D01*
X2620104Y6316135D01*
X2627763Y6334625D01*
X2638881Y6351265D01*
X2653033Y6365417D01*
X2669673Y6376535D01*
X2688163Y6384194D01*
X2707792Y6388098D01*
X2717798Y6388098D01*
X2717800Y6388100D01*
X4648199Y6388099D01*
D02*
G37*
G36*
X5298988Y6000493D02*
X5305222Y5994254D01*
X5308593Y5986103D01*
X5308589Y5981693D01*
X5308600Y5981700D01*
Y5854699D01*
X5309574Y5844789D01*
X5317156Y5826477D01*
X5331169Y5812462D01*
X5349480Y5804876D01*
X5359389Y5803901D01*
X5359400Y5803900D01*
X5448299Y5803900D01*
X5458208Y5804876D01*
X5476517Y5812460D01*
X5490530Y5826472D01*
X5498113Y5844781D01*
X5499089Y5854690D01*
X5499100Y5854700D01*
Y5969007D01*
Y5974056D01*
X5502964Y5983386D01*
X5510105Y5990526D01*
X5519434Y5994390D01*
X5524483D01*
X5524492Y5994400D01*
X5880099Y5994399D01*
X5892174Y5994399D01*
X5914483Y5985157D01*
X5931557Y5968081D01*
X5940795Y5945769D01*
X5940793Y5933695D01*
X5940800Y5933700D01*
Y5816798D01*
X5941779Y5806849D01*
X5949394Y5788465D01*
X5963465Y5774395D01*
X5981849Y5766780D01*
X5991798Y5765800D01*
X5991799D01*
X10566400Y5765799D01*
X10592204Y5765800D01*
X10643372Y5759063D01*
X10693222Y5745706D01*
X10740903Y5725956D01*
X10785597Y5700151D01*
X10826541Y5668733D01*
X10863034Y5632239D01*
X10894451Y5591295D01*
X10920254Y5546600D01*
X10940004Y5498919D01*
X10953360Y5449068D01*
X10960095Y5397900D01*
X10960094Y5372096D01*
X10960101Y5372100D01*
X10961106Y5341367D01*
X10969128Y5280427D01*
X10985036Y5221056D01*
X11008558Y5164269D01*
X11039290Y5111038D01*
X11076707Y5062274D01*
X11120170Y5018811D01*
X11168934Y4981392D01*
X11222164Y4950659D01*
X11278951Y4927137D01*
X11338322Y4911229D01*
X11399262Y4903206D01*
X11429995Y4902200D01*
X11430000D01*
X11569701Y4902199D01*
X11580959Y4902199D01*
X11603041Y4897807D01*
X11623842Y4889190D01*
X11642562Y4876682D01*
X11658482Y4860761D01*
X11670990Y4842040D01*
X11679605Y4821238D01*
X11683997Y4799156D01*
X11683996Y4787898D01*
X11683999Y4787901D01*
X11683998Y4559298D01*
X11683999Y4545539D01*
X11678631Y4518549D01*
X11668101Y4493124D01*
X11652812Y4470243D01*
X11633353Y4450784D01*
X11610472Y4435496D01*
X11585047Y4424966D01*
X11558056Y4419598D01*
X11544297Y4419599D01*
X11544299D01*
X3949700Y4419600D01*
X3932188Y4419599D01*
X3897837Y4426431D01*
X3865479Y4439833D01*
X3836358Y4459291D01*
X3811592Y4484056D01*
X3792134Y4513177D01*
X3778731Y4545535D01*
X3771899Y4579885D01*
X3771899Y4597397D01*
Y4597400D01*
X3771900Y5308600D01*
X4230601Y5308599D01*
X4261062Y5309347D01*
X4321691Y5315319D01*
X4381443Y5327204D01*
X4439742Y5344889D01*
X4496027Y5368203D01*
X4549755Y5396922D01*
X4600410Y5430769D01*
X4647504Y5469417D01*
X4690582Y5512496D01*
X4729231Y5559590D01*
X4763078Y5610245D01*
X4791796Y5663974D01*
X4815110Y5720259D01*
X4832794Y5778558D01*
X4844680Y5838309D01*
X4850651Y5898938D01*
X4851399Y5929400D01*
X4851399Y5929400D01*
Y5936734D01*
X4854261Y5951122D01*
X4859875Y5964675D01*
X4868025Y5976872D01*
X4878398Y5987244D01*
X4890595Y5995394D01*
X4904147Y6001008D01*
X4918535Y6003870D01*
X4925870Y6003869D01*
X5286430Y6003870D01*
X5290840D01*
X5298988Y6000493D01*
D02*
G37*
G36*
X2519501Y5356545D02*
X2528631Y5356546D01*
X2545500Y5349558D01*
X2558412Y5336646D01*
X2565399Y5319776D01*
X2565398Y5310646D01*
X2565400Y5310647D01*
X2565399Y4838700D01*
X2565400Y4815455D01*
X2559332Y4769363D01*
X2547300Y4724458D01*
X2529509Y4681508D01*
X2506264Y4641246D01*
X2477963Y4604364D01*
X2445090Y4571491D01*
X2408208Y4543190D01*
X2367947Y4519946D01*
X2324996Y4502155D01*
X2280091Y4490123D01*
X2233999Y4484056D01*
X2210754Y4484056D01*
X2027997D01*
X2008377Y4484056D01*
X1969893Y4491710D01*
X1933642Y4506726D01*
X1901016Y4528525D01*
X1873271Y4556271D01*
X1851471Y4588896D01*
X1836455Y4625147D01*
X1828800Y4663632D01*
X1828800Y4683251D01*
X1828800Y4683253D01*
Y5060950D01*
X1828800Y5080324D01*
X1833858Y5118741D01*
X1843886Y5156170D01*
X1858715Y5191969D01*
X1878089Y5225527D01*
X1901678Y5256268D01*
X1929077Y5283667D01*
X1959819Y5307256D01*
X1993376Y5326630D01*
X2029176Y5341459D01*
X2066604Y5351488D01*
X2105021Y5356546D01*
X2124396Y5356545D01*
X2124396Y5356546D01*
X2519501Y5356545D01*
D02*
G37*
G36*
X2787650Y3721100D02*
X2616200D01*
X2616200Y3780459D01*
X2616198Y3780458D01*
X2615475Y3795179D01*
X2609732Y3824056D01*
X2598465Y3851257D01*
X2582108Y3875738D01*
X2561289Y3896557D01*
X2536808Y3912915D01*
X2509607Y3924182D01*
X2480730Y3929926D01*
X2466009Y3930649D01*
X2020693Y3930650D01*
X2020693Y3930650D01*
X2008047D01*
X1983242Y3935584D01*
X1959876Y3945263D01*
X1938847Y3959314D01*
X1920963Y3977197D01*
X1906912Y3998226D01*
X1897234Y4021592D01*
X1892300Y4046398D01*
Y4059043D01*
Y4183257D01*
X1892300Y4183256D01*
X1892300Y4195902D01*
X1897234Y4220707D01*
X1906912Y4244073D01*
X1920963Y4265102D01*
X1938847Y4282986D01*
X1959876Y4297037D01*
X1983242Y4306716D01*
X2008047Y4311649D01*
X2020693Y4311649D01*
X2464752Y4311650D01*
X2464751D01*
X2479595Y4312379D01*
X2508714Y4318170D01*
X2536144Y4329532D01*
X2560829Y4346026D01*
X2581823Y4367019D01*
X2598317Y4391705D01*
X2609679Y4419134D01*
X2615470Y4448253D01*
X2616199Y4463098D01*
X2616200Y4517625D01*
X2787650D01*
Y3721100D01*
D02*
G37*
%LPC*%
G36*
X8597085Y8966201D02*
D01*
X8597085D01*
X8597085D01*
D02*
G37*
G36*
X7006918Y7532991D02*
Y7532991D01*
D01*
Y7532991D01*
D02*
G37*
G36*
X11518900Y3596265D02*
X11480611Y3592494D01*
X11443793Y3581325D01*
X11409861Y3563188D01*
X11380120Y3538780D01*
X11355712Y3509039D01*
X11337575Y3475107D01*
X11326406Y3438290D01*
X11322635Y3400000D01*
X11326406Y3361711D01*
X11337575Y3324893D01*
X11355712Y3290961D01*
X11380120Y3261220D01*
X11409861Y3236812D01*
X11443793Y3218675D01*
X11480611Y3207506D01*
X11518900Y3203735D01*
X11557189Y3207506D01*
X11594007Y3218675D01*
X11627939Y3236812D01*
X11657680Y3261220D01*
X11682088Y3290961D01*
X11700225Y3324893D01*
X11711394Y3361711D01*
X11715165Y3400000D01*
X11711394Y3438290D01*
X11700225Y3475107D01*
X11682088Y3509039D01*
X11657680Y3538780D01*
X11627939Y3563188D01*
X11594007Y3581325D01*
X11557189Y3592494D01*
X11518900Y3596265D01*
D02*
G37*
G36*
X10452100D02*
X10413811Y3592494D01*
X10376993Y3581325D01*
X10343061Y3563188D01*
X10313320Y3538780D01*
X10288912Y3509039D01*
X10270775Y3475107D01*
X10259606Y3438290D01*
X10255835Y3400000D01*
X10259606Y3361711D01*
X10270775Y3324893D01*
X10288912Y3290961D01*
X10313320Y3261220D01*
X10343061Y3236812D01*
X10376993Y3218675D01*
X10413811Y3207506D01*
X10452100Y3203735D01*
X10490389Y3207506D01*
X10527207Y3218675D01*
X10561139Y3236812D01*
X10590880Y3261220D01*
X10615288Y3290961D01*
X10633425Y3324893D01*
X10644594Y3361711D01*
X10648365Y3400000D01*
X10644594Y3438290D01*
X10633425Y3475107D01*
X10615288Y3509039D01*
X10590880Y3538780D01*
X10561139Y3563188D01*
X10527207Y3581325D01*
X10490389Y3592494D01*
X10452100Y3596265D01*
D02*
G37*
G36*
X9385300D02*
X9347011Y3592494D01*
X9310193Y3581325D01*
X9276261Y3563188D01*
X9246520Y3538780D01*
X9222112Y3509039D01*
X9203975Y3475107D01*
X9192806Y3438290D01*
X9189035Y3400000D01*
X9192806Y3361711D01*
X9203975Y3324893D01*
X9222112Y3290961D01*
X9246520Y3261220D01*
X9276261Y3236812D01*
X9310193Y3218675D01*
X9347011Y3207506D01*
X9385300Y3203735D01*
X9423589Y3207506D01*
X9460407Y3218675D01*
X9494339Y3236812D01*
X9524080Y3261220D01*
X9548488Y3290961D01*
X9566625Y3324893D01*
X9577794Y3361711D01*
X9581565Y3400000D01*
X9577794Y3438290D01*
X9566625Y3475107D01*
X9548488Y3509039D01*
X9524080Y3538780D01*
X9494339Y3563188D01*
X9460407Y3581325D01*
X9423589Y3592494D01*
X9385300Y3596265D01*
D02*
G37*
G36*
X8305800D02*
X8267511Y3592494D01*
X8230693Y3581325D01*
X8196761Y3563188D01*
X8167020Y3538780D01*
X8142612Y3509039D01*
X8124475Y3475107D01*
X8113306Y3438290D01*
X8109535Y3400000D01*
X8113306Y3361711D01*
X8124475Y3324893D01*
X8142612Y3290961D01*
X8167020Y3261220D01*
X8196761Y3236812D01*
X8230693Y3218675D01*
X8267511Y3207506D01*
X8305800Y3203735D01*
X8344089Y3207506D01*
X8380907Y3218675D01*
X8414839Y3236812D01*
X8444580Y3261220D01*
X8468988Y3290961D01*
X8487125Y3324893D01*
X8498294Y3361711D01*
X8502065Y3400000D01*
X8498294Y3438290D01*
X8487125Y3475107D01*
X8468988Y3509039D01*
X8444580Y3538780D01*
X8414839Y3563188D01*
X8380907Y3581325D01*
X8344089Y3592494D01*
X8305800Y3596265D01*
D02*
G37*
G36*
X7213600D02*
X7175311Y3592494D01*
X7138493Y3581325D01*
X7104561Y3563188D01*
X7074820Y3538780D01*
X7050412Y3509039D01*
X7032275Y3475107D01*
X7021106Y3438290D01*
X7017335Y3400000D01*
X7021106Y3361711D01*
X7032275Y3324893D01*
X7050412Y3290961D01*
X7074820Y3261220D01*
X7104561Y3236812D01*
X7138493Y3218675D01*
X7175311Y3207506D01*
X7213600Y3203735D01*
X7251889Y3207506D01*
X7288707Y3218675D01*
X7322639Y3236812D01*
X7352380Y3261220D01*
X7376788Y3290961D01*
X7394925Y3324893D01*
X7406094Y3361711D01*
X7409865Y3400000D01*
X7406094Y3438290D01*
X7394925Y3475107D01*
X7376788Y3509039D01*
X7352380Y3538780D01*
X7322639Y3563188D01*
X7288707Y3581325D01*
X7251889Y3592494D01*
X7213600Y3596265D01*
D02*
G37*
G36*
X6121400D02*
X6083111Y3592494D01*
X6046293Y3581325D01*
X6012361Y3563188D01*
X5982620Y3538780D01*
X5958212Y3509039D01*
X5940075Y3475107D01*
X5928906Y3438290D01*
X5925135Y3400000D01*
X5928906Y3361711D01*
X5940075Y3324893D01*
X5958212Y3290961D01*
X5982620Y3261220D01*
X6012361Y3236812D01*
X6046293Y3218675D01*
X6083111Y3207506D01*
X6121400Y3203735D01*
X6159689Y3207506D01*
X6196507Y3218675D01*
X6230439Y3236812D01*
X6260180Y3261220D01*
X6284588Y3290961D01*
X6302725Y3324893D01*
X6313894Y3361711D01*
X6317665Y3400000D01*
X6313894Y3438290D01*
X6302725Y3475107D01*
X6284588Y3509039D01*
X6260180Y3538780D01*
X6230439Y3563188D01*
X6196507Y3581325D01*
X6159689Y3592494D01*
X6121400Y3596265D01*
D02*
G37*
G36*
X5029200D02*
X4990911Y3592494D01*
X4954093Y3581325D01*
X4920161Y3563188D01*
X4890420Y3538780D01*
X4866012Y3509039D01*
X4847875Y3475107D01*
X4836706Y3438290D01*
X4832935Y3400000D01*
X4836706Y3361711D01*
X4847875Y3324893D01*
X4866012Y3290961D01*
X4890420Y3261220D01*
X4920161Y3236812D01*
X4954093Y3218675D01*
X4990911Y3207506D01*
X5029200Y3203735D01*
X5067489Y3207506D01*
X5104307Y3218675D01*
X5138239Y3236812D01*
X5167980Y3261220D01*
X5192388Y3290961D01*
X5210525Y3324893D01*
X5221694Y3361711D01*
X5225465Y3400000D01*
X5221694Y3438290D01*
X5210525Y3475107D01*
X5192388Y3509039D01*
X5167980Y3538780D01*
X5138239Y3563188D01*
X5104307Y3581325D01*
X5067489Y3592494D01*
X5029200Y3596265D01*
D02*
G37*
G36*
X3937000D02*
X3898711Y3592494D01*
X3861893Y3581325D01*
X3827961Y3563188D01*
X3798220Y3538780D01*
X3773812Y3509039D01*
X3755675Y3475107D01*
X3744506Y3438290D01*
X3740735Y3400000D01*
X3744506Y3361711D01*
X3755675Y3324893D01*
X3773812Y3290961D01*
X3798220Y3261220D01*
X3827961Y3236812D01*
X3861893Y3218675D01*
X3898711Y3207506D01*
X3937000Y3203735D01*
X3975289Y3207506D01*
X4012107Y3218675D01*
X4046039Y3236812D01*
X4075780Y3261220D01*
X4100188Y3290961D01*
X4118325Y3324893D01*
X4129494Y3361711D01*
X4133265Y3400000D01*
X4129494Y3438290D01*
X4118325Y3475107D01*
X4100188Y3509039D01*
X4075780Y3538780D01*
X4046039Y3563188D01*
X4012107Y3581325D01*
X3975289Y3592494D01*
X3937000Y3596265D01*
D02*
G37*
%LPD*%
D10*
X3162300Y7162800D02*
D03*
Y6082800D02*
D03*
X4203700Y7162800D02*
D03*
Y6082800D02*
D03*
D11*
X7416010Y8051800D02*
D03*
X7971010D02*
D03*
D12*
X9474200Y7962900D02*
D03*
X9024200D02*
D03*
X7854921Y9767800D02*
D03*
X7404920D02*
D03*
X9532499Y9437600D02*
D03*
X9082499D02*
D03*
D13*
X7776149Y6222770D02*
D03*
D14*
X7671149Y6142770D02*
D03*
Y6182770D02*
D03*
Y6222770D02*
D03*
Y6262770D02*
D03*
Y6302770D02*
D03*
X7881149D02*
D03*
Y6262770D02*
D03*
Y6222770D02*
D03*
Y6182770D02*
D03*
Y6142770D02*
D03*
D15*
X8810021Y6387520D02*
D03*
Y6322520D02*
D03*
Y6257520D02*
D03*
Y6192520D02*
D03*
Y6127520D02*
D03*
Y6062520D02*
D03*
Y5997520D02*
D03*
X9373901Y5997520D02*
D03*
Y6062520D02*
D03*
Y6127520D02*
D03*
Y6192520D02*
D03*
Y6257520D02*
D03*
Y6322520D02*
D03*
Y6387520D02*
D03*
D16*
X5016500Y5949493D02*
D03*
X5143500D02*
D03*
X5270500D02*
D03*
X5397500D02*
D03*
Y6496507D02*
D03*
X5270500D02*
D03*
X5143500D02*
D03*
X5016500D02*
D03*
X5638800Y5949493D02*
D03*
X5765800D02*
D03*
X5892800D02*
D03*
X6019800D02*
D03*
Y6496507D02*
D03*
X5892800D02*
D03*
X5765800D02*
D03*
X5638800D02*
D03*
X1905000Y8699043D02*
D03*
X2032000D02*
D03*
X2159000D02*
D03*
X2286000D02*
D03*
Y9246057D02*
D03*
X2159000D02*
D03*
X2032000D02*
D03*
X1905000D02*
D03*
D17*
X4548054Y9717021D02*
D03*
Y9577021D02*
D03*
X1873250Y8026100D02*
D03*
Y8166100D02*
D03*
X6626214Y7892900D02*
D03*
Y8032900D02*
D03*
X12382499Y4520786D02*
D03*
Y4380786D02*
D03*
X4555284Y10464950D02*
D03*
Y10324950D02*
D03*
X8246761Y9639600D02*
D03*
Y9499600D02*
D03*
X6581471Y9988700D02*
D03*
Y9848700D02*
D03*
X8280400Y7778600D02*
D03*
Y7918600D02*
D03*
X12382499Y4857901D02*
D03*
Y4717901D02*
D03*
X12382500Y4222900D02*
D03*
Y4082900D02*
D03*
Y3918100D02*
D03*
Y3778100D02*
D03*
Y3600600D02*
D03*
Y3460600D02*
D03*
X8439150Y6316820D02*
D03*
Y6176821D02*
D03*
X8566150Y6176820D02*
D03*
Y6316820D02*
D03*
X9752921Y5951150D02*
D03*
Y6091150D02*
D03*
X9610121Y6121550D02*
D03*
Y5981550D02*
D03*
X10133921Y5951150D02*
D03*
Y6091150D02*
D03*
X10006921Y5951150D02*
D03*
Y6091150D02*
D03*
X9879921Y5951150D02*
D03*
Y6091150D02*
D03*
D18*
X4739600Y9763875D02*
D03*
Y9533875D02*
D03*
Y9303875D02*
D03*
X4745950Y10511052D02*
D03*
Y10281052D02*
D03*
Y10051052D02*
D03*
D19*
X5369600Y9533875D02*
D03*
X5375950Y10281052D02*
D03*
D20*
X7565673Y7586921D02*
D03*
X7845673D02*
D03*
X7565673Y7377371D02*
D03*
X7845673D02*
D03*
X7414410Y7251700D02*
D03*
X7134410D02*
D03*
X9556978Y8889999D02*
D03*
X9276978D02*
D03*
X9556978Y8655050D02*
D03*
X9276978D02*
D03*
X8779538Y8889999D02*
D03*
X9059538D02*
D03*
X8781450Y8655050D02*
D03*
X9061450D02*
D03*
X7056945Y9232900D02*
D03*
X7336945D02*
D03*
X7060900Y9023350D02*
D03*
X7340900D02*
D03*
X7887000Y9074150D02*
D03*
X7607000D02*
D03*
X7881210Y9307600D02*
D03*
X7601210D02*
D03*
X8991300Y7061200D02*
D03*
X9271300D02*
D03*
X9499600Y7340600D02*
D03*
X9219600D02*
D03*
X9219900Y7556500D02*
D03*
X9499900D02*
D03*
D21*
X7052010Y8343900D02*
D03*
X7192010D02*
D03*
X6867600Y8375620D02*
D03*
X6727600D02*
D03*
X6867600Y8242838D02*
D03*
X6727600D02*
D03*
X2035021Y5594350D02*
D03*
X2175021D02*
D03*
X6867710Y7289800D02*
D03*
X7007710D02*
D03*
X7192010Y8216900D02*
D03*
X7052010D02*
D03*
X8496450Y9848700D02*
D03*
X8356450D02*
D03*
Y9988700D02*
D03*
X8496450D02*
D03*
X8688992Y9950450D02*
D03*
X8828992D02*
D03*
X8691362Y9817100D02*
D03*
X8831362D02*
D03*
X6721810Y10369550D02*
D03*
X6861810D02*
D03*
X6864350Y10229850D02*
D03*
X6724350D02*
D03*
X7022950Y10306050D02*
D03*
X7162950D02*
D03*
X7022950Y10179050D02*
D03*
X7162950D02*
D03*
X8502800Y8255000D02*
D03*
X8362800D02*
D03*
X12207701Y6311900D02*
D03*
X12347701D02*
D03*
X12207701Y6146800D02*
D03*
X12347701D02*
D03*
X12207701Y5994400D02*
D03*
X12347701D02*
D03*
X12207701Y5829300D02*
D03*
X12347701D02*
D03*
X12207701Y5676900D02*
D03*
X12347701D02*
D03*
X12207701Y5524500D02*
D03*
X12347701D02*
D03*
X12207701Y5359400D02*
D03*
X12347701D02*
D03*
X12207701Y5194300D02*
D03*
X12347701D02*
D03*
X11848044Y6375400D02*
D03*
X11708044D02*
D03*
X8680300Y8229600D02*
D03*
X8820300D02*
D03*
X8680300Y8102600D02*
D03*
X8820300D02*
D03*
X8362800Y8128000D02*
D03*
X8502800D02*
D03*
X6322500Y5867400D02*
D03*
X6462500D02*
D03*
X8572650Y6056321D02*
D03*
X8432650D02*
D03*
X8572650Y5924320D02*
D03*
X8432650D02*
D03*
X6381600Y10629900D02*
D03*
X6521600D02*
D03*
X10442121Y6099250D02*
D03*
X10302121D02*
D03*
X10302121Y6238950D02*
D03*
X10442121D02*
D03*
X10302121Y6378650D02*
D03*
X10442121D02*
D03*
X10442121Y6505650D02*
D03*
X10302121D02*
D03*
X9603621Y6394450D02*
D03*
X9743621D02*
D03*
X9603621Y6521450D02*
D03*
X9743621D02*
D03*
D22*
X6791810Y7487200D02*
D03*
X6918810D02*
D03*
X7045810D02*
D03*
X7172810D02*
D03*
X6791810Y8032200D02*
D03*
X6918810D02*
D03*
X7045810D02*
D03*
X7172810D02*
D03*
X7151690Y9994350D02*
D03*
X7024690D02*
D03*
X6897690D02*
D03*
X6770690D02*
D03*
X7151690Y9449350D02*
D03*
X7024690D02*
D03*
X6897690D02*
D03*
X6770690D02*
D03*
X8445500Y9100100D02*
D03*
X8572500D02*
D03*
X8699500D02*
D03*
X8826500D02*
D03*
X8445500Y9645100D02*
D03*
X8572500D02*
D03*
X8699500D02*
D03*
X8826500D02*
D03*
X8813800Y7930600D02*
D03*
X8686800D02*
D03*
X8559800D02*
D03*
X8432800D02*
D03*
X8813800Y7385600D02*
D03*
X8686800D02*
D03*
X8559800D02*
D03*
X8432800D02*
D03*
D23*
X6982310Y7759700D02*
D03*
X6961190Y9721850D02*
D03*
X8636000Y9372600D02*
D03*
X8623300Y7658100D02*
D03*
D24*
X2035150Y5778500D02*
D03*
X2270150D02*
D03*
X8636269Y6807779D02*
D03*
X8871269D02*
D03*
X7883553Y6811222D02*
D03*
X8118553D02*
D03*
X12766700Y4493125D02*
D03*
X12531700D02*
D03*
X12766700Y4787901D02*
D03*
X12531700D02*
D03*
X12766700Y4165600D02*
D03*
X12531700D02*
D03*
X12766700Y3848100D02*
D03*
X12531700D02*
D03*
X12766700Y3530600D02*
D03*
X12531700D02*
D03*
X12763501Y5194300D02*
D03*
X12528501D02*
D03*
X12763501Y5359400D02*
D03*
X12528501D02*
D03*
X12763501Y5522000D02*
D03*
X12528501D02*
D03*
X12763501Y5676900D02*
D03*
X12528501D02*
D03*
X12763501Y5829300D02*
D03*
X12528501D02*
D03*
X12763501Y5994400D02*
D03*
X12528501D02*
D03*
X12763501Y6146800D02*
D03*
X12528501D02*
D03*
X12763501Y6311900D02*
D03*
X12528501D02*
D03*
X6958689Y10636250D02*
D03*
X6723689D02*
D03*
D25*
X2715950Y5267250D02*
D03*
Y5083250D02*
D03*
X3619500Y5048400D02*
D03*
Y5232400D02*
D03*
D26*
X2317750Y5175250D02*
D03*
X4017700Y5140400D02*
D03*
D27*
X2138776Y6959599D02*
D03*
X1883776D02*
D03*
D28*
X2432050Y7433300D02*
D03*
Y7273300D02*
D03*
X6643380Y6734986D02*
D03*
Y6574986D02*
D03*
D29*
X1873250Y7275150D02*
D03*
X2000250D02*
D03*
X2127250D02*
D03*
X2254250D02*
D03*
X1873250Y7825150D02*
D03*
X2000250D02*
D03*
X2127250D02*
D03*
X2254250D02*
D03*
D30*
X7420279Y6719986D02*
D03*
Y6654986D02*
D03*
Y6589986D02*
D03*
X7215278D02*
D03*
Y6654986D02*
D03*
Y6719986D02*
D03*
D31*
X9440766Y7112000D02*
D03*
X9600766D02*
D03*
X9214920Y6803717D02*
D03*
X9054920D02*
D03*
X8459270Y6811222D02*
D03*
X8299270D02*
D03*
X7389964Y6436225D02*
D03*
X7229964D02*
D03*
X7852399Y5992460D02*
D03*
X7692399D02*
D03*
X6904358Y6734986D02*
D03*
X7064357D02*
D03*
X7692399Y6483350D02*
D03*
X7852399D02*
D03*
D32*
X9627901Y6890167D02*
D03*
X9437902D02*
D03*
X9532901Y6690167D02*
D03*
X8159661Y6444320D02*
D03*
X8349661D02*
D03*
X8254661Y6644320D02*
D03*
D33*
X10071100Y9715500D02*
D03*
Y10325100D02*
D03*
X11061700D02*
D03*
Y9715500D02*
D03*
X10069190Y8763000D02*
D03*
Y9372600D02*
D03*
X11059790D02*
D03*
Y8763000D02*
D03*
X10083800Y6807200D02*
D03*
Y7416800D02*
D03*
X11074400D02*
D03*
Y6807200D02*
D03*
X10071100Y7797800D02*
D03*
Y8407400D02*
D03*
X11061700D02*
D03*
Y7797800D02*
D03*
D34*
X11852000Y5837500D02*
D03*
Y5902500D02*
D03*
Y5967500D02*
D03*
Y6032500D02*
D03*
Y6097500D02*
D03*
Y6162500D02*
D03*
Y6227500D02*
D03*
X11262000Y5837500D02*
D03*
Y5902500D02*
D03*
Y5967500D02*
D03*
Y6032500D02*
D03*
Y6097500D02*
D03*
Y6162500D02*
D03*
Y6227500D02*
D03*
D35*
X7302500Y6236200D02*
D03*
Y5981200D02*
D03*
D36*
X6942500Y6019800D02*
D03*
Y6146800D02*
D03*
Y6273800D02*
D03*
Y6400800D02*
D03*
X6392500Y6019800D02*
D03*
Y6146800D02*
D03*
Y6273800D02*
D03*
Y6400800D02*
D03*
D37*
X9017000Y7238400D02*
D03*
Y7518400D02*
D03*
D38*
X2349500Y10121900D02*
D03*
D39*
X2257500Y9723700D02*
D03*
X2441500D02*
D03*
D40*
X1924050Y9666950D02*
D03*
Y10106950D02*
D03*
D41*
X9903821Y6414770D02*
D03*
X10103821Y6509770D02*
D03*
Y6319770D02*
D03*
D42*
X9011247Y5822950D02*
D03*
X9146247D02*
D03*
D43*
X4394289Y10322174D02*
X4397065Y10324950D01*
X4555284D01*
X4699848Y10464950D02*
X4745950Y10511052D01*
X4555284Y10464950D02*
X4699848D01*
X4422236Y9576206D02*
X4423051Y9577021D01*
X4548054D01*
Y9717021D02*
X4692747D01*
X4739600Y9763875D01*
X8828992Y9950450D02*
X8929754D01*
X8623300Y7658100D02*
X8750300Y7785100D01*
X8440429Y7718776D02*
X8562624D01*
X8280400Y7773600D02*
X8385605D01*
X6626710Y7850747D02*
Y7892900D01*
X2257350Y7292350D02*
X2432050D01*
X6381600Y10316060D02*
Y10629900D01*
X12276950Y7743350D02*
X12396600Y7863000D01*
X12276950Y7539850D02*
Y7743350D01*
X12230100Y7493000D02*
X12276950Y7539850D01*
X11582400Y7493000D02*
X12230100D01*
X11258550Y7169150D02*
X11582400Y7493000D01*
X10922472Y6181800D02*
X11853672Y7113000D01*
X11137900Y6470650D02*
X11899900Y7232650D01*
X12276950D01*
X10775950Y6181800D02*
X10922472D01*
X10775950Y6470650D02*
X11137900D01*
X11853672Y7113000D02*
X12146600D01*
X12179300Y3530600D02*
X12213079D01*
X12283079Y3600600D01*
X12382500D01*
X12276950Y7232650D02*
X12396600Y7113000D01*
X6756801Y10464800D02*
X7472905D01*
X6721810Y10429808D02*
X6756801Y10464800D01*
X2175021Y5594350D02*
X2280091D01*
X2718180Y5778558D02*
X2774950D01*
X2716243Y5776621D02*
X2718180Y5778558D01*
X2695202Y5776621D02*
X2716243D01*
X2693323Y5778500D02*
X2695202Y5776621D01*
X2270150Y5778500D02*
X2693323D01*
X2035021Y5594350D02*
X2035150Y5594479D01*
Y5778500D01*
X6958689Y10636250D02*
X7106270D01*
X5987883Y10281052D02*
X6012881Y10306050D01*
X6371590D01*
X6521600Y10629900D02*
X6527950Y10636250D01*
X6723689D01*
X10683950Y6378650D02*
X10775950Y6470650D01*
X10442121Y6099250D02*
X10681977D01*
X10764527Y6181800D01*
X10775950D01*
X4548054Y9717021D02*
Y9836063D01*
X4555284Y10464950D02*
Y10568689D01*
X1682750Y8782050D02*
X1835150Y8934450D01*
X1682750Y7613650D02*
Y8782050D01*
Y7613650D02*
X1873250Y7423150D01*
Y7275150D02*
Y7423150D01*
X2432050Y7137400D02*
Y7273300D01*
X2127250Y7825150D02*
Y7960871D01*
X2192479Y8026100D01*
X2127250Y7825150D02*
X2254250D01*
X1873250Y8300282D02*
X1984000Y8411032D01*
X1873250Y8166100D02*
Y8300282D01*
Y7825150D02*
Y8026100D01*
X2125763Y7539502D02*
X2432050D01*
X2000250Y7413989D02*
X2125763Y7539502D01*
X2000250Y7275150D02*
Y7413989D01*
X2432050Y7452350D02*
Y7539502D01*
X2254250Y7275150D02*
Y7289250D01*
X1873250Y6970125D02*
Y7275150D01*
Y6970125D02*
X1883776Y6959599D01*
X2160420Y7112820D02*
X2254250Y7206650D01*
Y7275150D01*
X2160420Y6981244D02*
Y7112820D01*
X2138776Y6959599D02*
X2160420Y6981244D01*
X6626914Y8032200D02*
X6791810D01*
X6626214Y8032900D02*
X6626914Y8032200D01*
X6652757Y7824700D02*
X6862310D01*
X6626710Y7850747D02*
X6652757Y7824700D01*
X6867600Y8242838D02*
Y8375620D01*
X6959198Y8313997D02*
X6989100Y8343900D01*
X6959198Y8160521D02*
Y8313997D01*
X6749848Y8482215D02*
X7622477D01*
X6989100Y8343900D02*
X7052010D01*
X6867600Y8375620D02*
Y8397878D01*
X6721810Y8375620D02*
Y8454177D01*
Y8216900D02*
Y8375620D01*
Y8454177D02*
X6749848Y8482215D01*
X7622477D02*
X7694982Y8409709D01*
X2286000Y8264600D02*
Y8699043D01*
X2000250Y7978850D02*
X2286000Y8264600D01*
X2000250Y7825150D02*
Y7978850D01*
X6862310Y7824700D02*
X6917310D01*
X6982310Y7759700D01*
X6918810Y7696200D02*
X6982310Y7759700D01*
X6918810Y7487200D02*
Y7696200D01*
Y7398756D02*
Y7487200D01*
X6867710Y7347656D02*
X6918810Y7398756D01*
X6867710Y7289800D02*
Y7347656D01*
X7192010Y8343900D02*
X7278302D01*
X7192010Y8140075D02*
Y8216900D01*
X7172810Y8120876D02*
X7192010Y8140075D01*
X7172810Y8032200D02*
Y8120876D01*
X7045810Y8032200D02*
Y8210700D01*
X7052010Y8216900D01*
X6918810Y8120133D02*
X6959198Y8160521D01*
X6918810Y8032200D02*
Y8120133D01*
X6861810Y8179915D02*
Y8216900D01*
X6791810Y8109915D02*
X6861810Y8179915D01*
X6791810Y8032200D02*
Y8109915D01*
X7694982Y8409709D02*
X8054517D01*
X8966313Y6062520D02*
X8966613Y6062820D01*
X8810021Y6062520D02*
X8966313D01*
X7423566Y6723273D02*
X7472573D01*
X7420279Y6719986D02*
X7423566Y6723273D01*
X7472573D02*
X7543800Y6794500D01*
X9271300Y7061200D02*
Y7077200D01*
X9306100Y7112000D01*
X9440766D01*
X9600766D02*
X9608627Y7104139D01*
Y6993700D02*
Y7104139D01*
Y6909442D02*
Y6993700D01*
Y6909442D02*
X9627901Y6890167D01*
X8159661Y6444320D02*
Y6531307D01*
X8128438Y6562530D02*
X8159661Y6531307D01*
X8004993Y6562530D02*
X8128438D01*
X7995273Y6572250D02*
X8004993Y6562530D01*
X8470108Y6682379D02*
Y6696125D01*
X8459270Y6706963D02*
X8470108Y6696125D01*
X8459270Y6706963D02*
Y6811222D01*
X8269826D02*
X8284548Y6825943D01*
X8118553Y6811222D02*
X8269826D01*
X7883553Y6708195D02*
Y6811222D01*
Y6708195D02*
X7947428Y6644320D01*
X8254661D01*
X8307060Y6337300D02*
Y6351046D01*
X8328320Y6372307D01*
Y6422979D01*
X8349661Y6444320D01*
X9436954Y6891115D02*
Y6988900D01*
Y6891115D02*
X9437902Y6890167D01*
X9271300Y7023700D02*
Y7061200D01*
X9236500Y6988900D02*
X9271300Y7023700D01*
X9229799Y6988900D02*
X9236500D01*
X9214920Y6974021D02*
X9229799Y6988900D01*
X9214920Y6803717D02*
Y6974021D01*
X9050858Y6807779D02*
X9054920Y6803717D01*
X8871269Y6807779D02*
X9050858D01*
X8636269Y6723797D02*
Y6807779D01*
Y6723797D02*
X8669900Y6690167D01*
X9532901D01*
X8971391Y6257520D02*
X8975121Y6261250D01*
X8810021Y6387520D02*
X8994751D01*
X9121021Y6261250D01*
X6646116Y6572250D02*
X6776952D01*
X6643380Y6574986D02*
X6646116Y6572250D01*
X7321122D02*
X7334868D01*
X7352604Y6589986D01*
X7420279D01*
X7340873Y6654986D02*
X7420279D01*
X7275872Y6719986D02*
X7340873Y6654986D01*
X7534439Y6479502D02*
Y6654986D01*
X7491162Y6436225D02*
X7534439Y6479502D01*
X7389964Y6436225D02*
X7491162D01*
X7083626Y6497917D02*
Y6572250D01*
Y6497917D02*
X7145318Y6436225D01*
X7229964D01*
X6629400Y6544320D02*
X6643380Y6530340D01*
Y6348490D02*
Y6530340D01*
Y6348490D02*
X6836537Y6155334D01*
X6933966D01*
X6942500Y6146800D01*
X6579717Y5761911D02*
Y6235700D01*
X6541617Y6273800D02*
X6579717Y6235700D01*
X6392500Y6273800D02*
X6541617D01*
X6867915Y6019800D02*
X6942500D01*
X6678008Y6209707D02*
X6867915Y6019800D01*
X7302500Y5836919D02*
Y5981200D01*
X6942500Y6019800D02*
X7085857D01*
X6392500Y6273800D02*
Y6400800D01*
X7420279Y6654986D02*
X7534439D01*
X7177212Y6589986D02*
X7215278D01*
X7159476Y6572250D02*
X7177212Y6589986D01*
X7083626Y6572250D02*
X7159476D01*
X7100990Y6719986D02*
X7215278D01*
X7083626Y6737350D02*
X7100990Y6719986D01*
X7215278D02*
X7275872D01*
X7671149Y6303410D02*
Y6462100D01*
X7692399Y6483350D01*
X7562996Y6243515D02*
X7582252Y6262770D01*
X7671149D01*
X7562996Y6167268D02*
Y6243515D01*
X7855081Y5989779D02*
X7974061D01*
X7852399Y5992460D02*
X7855081Y5989779D01*
X7599682Y5992460D02*
X7692399D01*
X7330079Y5809341D02*
X8635091D01*
X8655050Y5829300D01*
X7302500Y5836919D02*
X7330079Y5809341D01*
X7562996Y6029146D02*
X7599682Y5992460D01*
X7562996Y6029146D02*
Y6167268D01*
X7578499Y6182770D01*
X7671149D01*
X8344089Y5914950D02*
X8423280D01*
X8432650Y5924320D01*
X7136957Y5968700D02*
X7290000D01*
X7302500Y5981200D01*
X8439150Y6316820D02*
X8626991D01*
X8627221Y6317050D01*
X10442121Y6378650D02*
X10683950D01*
X8420954Y8374076D02*
X9456631D01*
X8362800Y8315921D02*
X8420954Y8374076D01*
X8362800Y8255000D02*
Y8315921D01*
X9572386Y8056964D02*
Y8258321D01*
X9456631Y8374076D02*
X9572386Y8258321D01*
X9483049Y8056964D02*
X9572386D01*
X8362800Y8128000D02*
Y8255000D01*
X8929754Y9950450D02*
Y9956836D01*
X6721810Y10369550D02*
Y10429808D01*
X7472905Y10464800D02*
X7862787Y10074917D01*
X8361530Y10056921D02*
X8371329Y10066720D01*
X8361530Y9993780D02*
Y10056921D01*
X8356450Y9988700D02*
X8361530Y9993780D01*
X8371329Y10066720D02*
X8945584D01*
X9163604Y9848700D01*
X9605741D01*
X9651040Y9803400D01*
Y9463969D02*
Y9803400D01*
X12481900Y4745600D02*
X12524200Y4787901D01*
X12283079Y4857901D02*
X12382499D01*
X12213079Y4787901D02*
X12283079Y4857901D01*
X12179300Y4787901D02*
X12213079D01*
X12524200D02*
X12531700D01*
X12481900Y4738101D02*
Y4745600D01*
X12461700Y4717901D02*
X12481900Y4738101D01*
X12382499Y4717901D02*
X12461700D01*
X12179300Y4460515D02*
X12222808D01*
X12283079Y4520786D01*
X12382499D01*
Y4380786D02*
X12461700D01*
X12495818Y4414904D01*
Y4457244D01*
X12531700Y4493125D01*
X8572500Y9372600D02*
X8636000D01*
X8290746D02*
X8572500D01*
X8252261Y9411086D02*
X8290746Y9372600D01*
X8252261Y9411086D02*
Y9494100D01*
X8246761Y9499600D02*
X8252261Y9494100D01*
X8246761Y9639600D02*
X8252261Y9645100D01*
X8445500D01*
X8356450Y9848700D02*
Y9988700D01*
X8496450Y9848700D02*
Y9988700D01*
X8445500Y9645100D02*
Y9754941D01*
X8476314Y9785754D01*
Y9828564D01*
X8496450Y9848700D01*
X8623300Y9950450D02*
X8688992D01*
X8594383Y9921533D02*
X8623300Y9950450D01*
X8594383Y9786850D02*
Y9921533D01*
X8572500Y9764966D02*
X8594383Y9786850D01*
X8572500Y9645100D02*
Y9764966D01*
X8826500Y9812238D02*
X8831362Y9817100D01*
X8826500Y9645100D02*
Y9812238D01*
X8691362Y9817100D02*
X8699500Y9808962D01*
Y9645100D02*
Y9808962D01*
X6721810Y10232390D02*
X6724350Y10229850D01*
X6721810Y10232390D02*
Y10369550D01*
X7162950Y10306050D02*
X7268172D01*
X7151690Y10167790D02*
X7162950Y10179050D01*
X7151690Y9994350D02*
Y10167790D01*
X7022950Y10179050D02*
X7024690Y10177310D01*
Y9994350D02*
Y10177310D01*
X6959198Y10306050D02*
X7022950D01*
X6934200Y10281052D02*
X6959198Y10306050D01*
X6934200Y10134600D02*
Y10281052D01*
X6897690Y10098090D02*
X6934200Y10134600D01*
X6897690Y9994350D02*
Y10098090D01*
X6861810Y10232390D02*
X6864350Y10229850D01*
X6861810Y10232390D02*
Y10369550D01*
X6776013Y10090071D02*
X6848530Y10162588D01*
Y10214030D01*
X6864350Y10229850D01*
X6776013Y9999673D02*
Y10090071D01*
X6770690Y9994350D02*
X6776013Y9999673D01*
X6765040Y9988700D02*
X6770690Y9994350D01*
X6581471Y9988700D02*
X6765040D01*
X6636097Y9721850D02*
X6961190D01*
X6581471Y9776476D02*
X6636097Y9721850D01*
X6581471Y9776476D02*
Y9848700D01*
X6521600Y10629900D02*
Y10629900D01*
X8810021Y6062520D02*
Y6127520D01*
X8574940Y6054031D02*
X8651041D01*
X8572650Y6056321D02*
X8574940Y6054031D01*
X8743981Y5997520D02*
X8810021D01*
X8703311Y5956850D02*
X8743981Y5997520D01*
X8594950Y5956621D02*
X8700740D01*
X8572650Y5934320D02*
X8594950Y5956621D01*
X8572650Y5924320D02*
Y5934320D01*
X8566150Y6062820D02*
X8572650Y6056321D01*
X8566150Y6062820D02*
Y6176820D01*
X9492142Y5852029D02*
X9495821Y5848350D01*
X9492142Y5852029D02*
Y5977871D01*
X9472493Y5997520D02*
X9492142Y5977871D01*
X9373901Y5997520D02*
X9472493D01*
X8810021Y5924850D02*
Y5997520D01*
Y5924850D02*
X8911921Y5822950D01*
X9011247D01*
X9262291Y6192520D02*
X9373901D01*
X9146247Y6076476D02*
X9262291Y6192520D01*
X9146247Y5822950D02*
Y6076476D01*
X7085857Y6019800D02*
X7136957Y5968700D01*
X10133920Y5848350D02*
X10133921Y5848350D01*
Y5951150D01*
X9752921Y5848350D02*
X9752921Y5848350D01*
X9752921Y5848350D02*
Y5951150D01*
X9940321Y5848350D02*
X10006921Y5914950D01*
X8280400Y7930600D02*
X8432800D01*
X8750300Y8212541D02*
X8767358Y8229600D01*
X8750300Y7785100D02*
Y8212541D01*
X8767358Y8229600D02*
X8820300D01*
X8432800Y8009135D02*
X8502800Y8079134D01*
X8432800Y7930600D02*
Y8009135D01*
X6756400Y6358341D02*
X6798859Y6400800D01*
X6942500D01*
X7210704Y6248700D02*
X7302500D01*
X7058604Y6400800D02*
X7210704Y6248700D01*
X6942500Y6400800D02*
X7058604D01*
X8813800Y8096100D02*
X8820300Y8102600D01*
X8813800Y7930600D02*
Y8096100D01*
X8680300Y8102600D02*
X8686800Y8096100D01*
Y7930600D02*
Y8096100D01*
X8627723Y8229600D02*
X8680300D01*
X8585200Y8187077D02*
X8627723Y8229600D01*
X8585200Y8051800D02*
Y8187077D01*
X8559800Y8026400D02*
X8585200Y8051800D01*
X8559800Y7930600D02*
Y8026400D01*
X8502800Y8128000D02*
Y8250000D01*
X8507800Y8255000D01*
X8502800Y8079134D02*
Y8128000D01*
X8280400Y7923600D02*
Y7930600D01*
X8562624Y7718776D02*
X8623300Y7658100D01*
X8385605Y7773600D02*
X8440429Y7718776D01*
X12179300Y4152900D02*
X12249300Y4222900D01*
X12382500D01*
X12179300Y3848100D02*
X12249300Y3918100D01*
X12382500D01*
Y3460600D02*
X12461700D01*
X12531700Y3530600D01*
X12382500Y3778100D02*
X12461700D01*
X12531700Y3848100D01*
X12382500Y4082900D02*
X12449000D01*
X12531700Y4165600D01*
X8810021Y6257520D02*
X8971391D01*
X8711651Y6192520D02*
X8810021D01*
X8683021Y6221150D02*
X8711651Y6192520D01*
X8683021Y6221150D02*
Y6261250D01*
X8627221Y6317050D02*
X8683021Y6261250D01*
X8432650Y6056321D02*
Y6170321D01*
Y5924320D02*
Y6056321D01*
Y6170321D02*
X8439150Y6176821D01*
X8566150Y6176820D02*
X8577350Y6165620D01*
X11613441Y6375400D02*
X11708044D01*
X11852000Y6227500D02*
Y6371443D01*
X11120172Y6227500D02*
X11262000D01*
Y6162500D02*
Y6227500D01*
X11852000Y5766100D02*
Y5837500D01*
X11941000Y5902500D02*
X12026900Y5816600D01*
X11852000Y5902500D02*
X11941000D01*
X11852000Y5967500D02*
X11985800D01*
X12115800Y5837500D01*
X11161327Y6097500D02*
X11262000D01*
X10975340Y5911513D02*
X11161327Y6097500D01*
X10975340Y5668940D02*
Y5911513D01*
Y5668940D02*
X11449980Y5194300D01*
X12207701D01*
X11160985Y6032500D02*
X11262000D01*
X11021060Y5892575D02*
X11160985Y6032500D01*
X11021060Y5687878D02*
Y5892575D01*
Y5687878D02*
X11349538Y5359400D01*
X12207701D01*
X11160642Y5967500D02*
X11262000D01*
X11066780Y5873638D02*
X11160642Y5967500D01*
X11066780Y5706816D02*
Y5873638D01*
Y5706816D02*
X11249096Y5524500D01*
X12207701D01*
X11160300Y5902500D02*
X11262000D01*
X11112500Y5854700D02*
X11160300Y5902500D01*
X11112500Y5725754D02*
Y5854700D01*
Y5725754D02*
X11237554Y5600700D01*
X11785600D01*
X11861800Y5676900D01*
X12207701D01*
X12199501Y5837500D02*
X12207701Y5829300D01*
X12115800Y5837500D02*
X12199501D01*
X12207701Y5994400D02*
X12207701Y5994400D01*
X12115800Y5994400D02*
X12207701D01*
X12077700Y6032500D02*
X12115800Y5994400D01*
X11852000Y6032500D02*
X12077700D01*
X12027500Y6146800D02*
X12207701D01*
X11978200Y6097500D02*
X12027500Y6146800D01*
X11852000Y6097500D02*
X11978200D01*
X11852000Y6162500D02*
X11976100D01*
X12125500Y6311900D01*
X12207701D01*
X12528500Y5194300D02*
X12528501Y5194300D01*
X12347701Y5194300D02*
X12528500D01*
Y5359400D02*
X12528501Y5359400D01*
X12347701Y5359400D02*
X12528500D01*
X12526000Y5524500D02*
X12528501Y5522000D01*
X12347701Y5524500D02*
X12526000D01*
X12347701Y5676900D02*
X12347701Y5676900D01*
X12528501D01*
X12528500Y5829300D02*
X12528501Y5829300D01*
X12347701Y5829300D02*
X12528500D01*
Y5994400D02*
X12528501Y5994400D01*
X12347701Y5994400D02*
X12528500D01*
Y6146800D02*
X12528501Y6146800D01*
X12347701Y6146800D02*
X12528500D01*
Y6311900D02*
X12528501Y6311900D01*
X12347701Y6311900D02*
X12528500D01*
X10302121Y6597133D02*
X10302638Y6597650D01*
X10302121Y6505650D02*
Y6597133D01*
Y5982067D02*
X10302638Y5981550D01*
X10302121Y5982067D02*
Y6099250D01*
X10442121D02*
X10442121Y6099250D01*
Y6238950D01*
X10442121Y6378651D02*
X10442121Y6378650D01*
X10442121Y6378651D02*
Y6505650D01*
X10299022Y6381750D02*
X10302121Y6378650D01*
X10238290Y6381750D02*
X10299022D01*
X10207021Y6413019D02*
X10238290Y6381750D01*
X10207021Y6413019D02*
Y6483350D01*
X10180601Y6509770D02*
X10207021Y6483350D01*
X10103821Y6509770D02*
X10180601D01*
X10238290Y6238950D02*
X10302121D01*
X10157471Y6319770D02*
X10238290Y6238950D01*
X10103821Y6319770D02*
X10157471D01*
X10092141Y6521450D02*
X10103821Y6509770D01*
X9743621Y6521450D02*
X10092141D01*
X9849901Y6319770D02*
X10103821D01*
X9775221Y6394450D02*
X9849901Y6319770D01*
X9743621Y6394450D02*
X9775221D01*
X9999941Y6414770D02*
X10003821Y6418650D01*
X9903821Y6414770D02*
X9999941D01*
X10006921Y5914950D02*
Y5951150D01*
X9879921D02*
X10006921D01*
X9752921Y6091150D02*
X9752921Y6091150D01*
X9879921D01*
X10133920D02*
X10133921Y6091150D01*
X10006921Y6091150D02*
X10133920D01*
X10006921D02*
Y6127520D01*
X9957391Y6177050D02*
X10006921Y6127520D01*
X9665622Y6177050D02*
X9957391D01*
X9610121Y6121550D02*
X9665622Y6177050D01*
X9643320Y5981550D02*
X9752921Y6091150D01*
X9610121Y5981550D02*
X9643320D01*
X9553121D02*
X9610121D01*
X9472151Y6062520D02*
X9553121Y5981550D01*
X9373901Y6062520D02*
X9472151D01*
X9604151Y6127520D02*
X9610121Y6121550D01*
X9373901Y6127520D02*
X9604151D01*
X9555021Y6394450D02*
X9603621D01*
X9483091Y6322520D02*
X9555021Y6394450D01*
X9373901Y6322520D02*
X9483091D01*
X9532901Y6521450D02*
X9603621D01*
X9495821Y6484370D02*
X9532901Y6521450D01*
X9495821Y6407150D02*
Y6484370D01*
X9476191Y6387520D02*
X9495821Y6407150D01*
X9373901Y6387520D02*
X9476191D01*
X6322500Y5734864D02*
X6324600Y5732763D01*
X6322500Y5734864D02*
Y5867400D01*
X6462500D02*
Y5949800D01*
X6392500Y6019800D02*
X6462500Y5949800D01*
X6311900Y6146800D02*
X6392500D01*
X6114593Y5949493D02*
X6311900Y6146800D01*
X6019800Y5949493D02*
X6114593D01*
X5397500Y5870880D02*
Y5949493D01*
Y5870880D02*
X5407903D01*
X6023038Y5869185D02*
Y5946255D01*
X6019800Y5949493D02*
X6023038Y5946255D01*
D44*
X4739600Y9533875D02*
X5369600D01*
X4745950Y10281052D02*
X5375950D01*
X12157900Y10503395D02*
Y10652950D01*
X12249150Y10744200D01*
X12477750D01*
X12592050Y10629900D01*
Y8750300D02*
Y10629900D01*
X12481439Y8639689D02*
X12592050Y8750300D01*
X12230100Y8639689D02*
X12481439D01*
X12146600Y8556189D02*
X12230100Y8639689D01*
X12146600Y8363000D02*
Y8556189D01*
D45*
X12766700Y3368650D02*
Y3530600D01*
Y3368650D02*
X13150850Y2984500D01*
X8572500Y9100100D02*
Y9372600D01*
X8559800Y7594600D02*
X8623300Y7658100D01*
X8559800Y7385600D02*
Y7594600D01*
X12766700Y4776957D02*
X12788900Y4799158D01*
X6897690Y9658350D02*
X6961190Y9721850D01*
X6897690Y9449350D02*
Y9658350D01*
X11461750Y5775050D02*
Y5791200D01*
Y5775050D02*
Y6511100D01*
X11944350Y6993700D01*
X6371590Y10306050D02*
X6381600Y10316060D01*
X7024690Y9232900D02*
Y9449350D01*
X11518990Y7863000D02*
X12146600D01*
X11516849Y7860859D02*
X11518990Y7863000D01*
X12146600Y7613000D02*
Y7863000D01*
X1924050Y10106950D02*
Y10585160D01*
X12766700Y4493125D02*
Y4776957D01*
Y4165600D02*
Y4493125D01*
X7024690Y9232900D02*
X7056945D01*
X6770690Y9307600D02*
Y9449350D01*
X12766700Y3848100D02*
Y4165600D01*
Y3530600D02*
Y3848100D01*
X12763500Y6426200D02*
X12763501Y6426199D01*
Y6311900D02*
Y6426199D01*
X12763500Y5067300D02*
X12763501Y5067301D01*
Y5194300D01*
Y6146800D02*
Y6311900D01*
Y5994400D02*
Y6146800D01*
Y5829300D02*
Y5994400D01*
Y5676900D02*
Y5829300D01*
Y5522000D02*
Y5676900D01*
Y5359400D02*
Y5522000D01*
Y5194300D02*
Y5359400D01*
D46*
X6921262Y6675673D02*
Y6734986D01*
X7852399Y6483350D02*
X8019493D01*
X8075086Y6427757D01*
X6904358Y6734986D02*
X6921262D01*
X6776952D02*
X6904358D01*
X6921262Y6675673D02*
X6941949Y6654986D01*
X6643380Y6734986D02*
X6776952D01*
X6941949Y6654986D02*
X7215278D01*
X7776149Y6193560D02*
Y6222770D01*
Y6124084D02*
Y6193560D01*
Y6124084D02*
X7839196Y6061037D01*
Y6005664D02*
Y6061037D01*
Y6005664D02*
X7852399Y5992460D01*
X8197239Y6142770D02*
X8198901Y6141108D01*
X7881149Y6182770D02*
X8127586D01*
X8205916Y6261100D01*
X8075086Y6287523D02*
Y6427757D01*
X8010334Y6222770D02*
X8075086Y6287523D01*
X8003255Y6305212D02*
Y6358341D01*
X7961374Y6263330D02*
X8003255Y6305212D01*
X7881709Y6263330D02*
X7961374D01*
X7881149Y6262770D02*
X7881709Y6263330D01*
X7881149Y6302770D02*
Y6358341D01*
X7671149Y6302770D02*
X7724582D01*
X7881149Y6222770D02*
X8010334D01*
X7881149Y6142770D02*
X8197239D01*
X7734742Y6158000D02*
X7740589D01*
X7776149Y6193560D01*
X7719813Y6143072D02*
X7734742Y6158000D01*
X7671450Y6143072D02*
X7719813D01*
X7671149Y6142770D02*
X7671450Y6143072D01*
X7671149Y6222770D02*
X7776149D01*
X7724582Y6302770D02*
X7739812Y6287540D01*
X7740589D01*
X7776149Y6251980D01*
Y6222770D02*
Y6251980D01*
D47*
X11074400Y7067550D02*
Y7416800D01*
X11059790Y9042400D02*
Y9372600D01*
X11074400Y6807200D02*
Y7067550D01*
Y7416800D02*
X11083824Y7426224D01*
X11059790Y8763000D02*
Y9042400D01*
X11061700Y8058150D02*
Y8407400D01*
Y7797800D02*
Y8058150D01*
X11516849Y7860859D02*
Y8879743D01*
Y7697049D02*
Y7860859D01*
Y8879743D02*
X11640500Y9003395D01*
X11246024Y7426224D02*
X11516849Y7697049D01*
X11640500Y9003395D02*
X12157900D01*
X11416915Y9503395D02*
X12157900D01*
X11286120Y9372600D02*
X11416915Y9503395D01*
X11516849Y9253395D02*
X12157900D01*
X11283950Y9020496D02*
X11516849Y9253395D01*
X11059790Y9372600D02*
X11286120D01*
X5548420Y10429808D02*
X5568950Y10450339D01*
Y10693400D01*
X5721350Y10845800D01*
X10985500D01*
X11577905Y10253395D01*
X12157900D01*
Y10503395D01*
X11283950Y8494637D02*
Y9020496D01*
X11196713Y8407400D02*
X11283950Y8494637D01*
X11061700Y8407400D02*
X11196713D01*
X11083824Y7426224D02*
X11246024D01*
X11061700Y10003395D02*
Y10325100D01*
Y9715500D02*
Y10003395D01*
X12157900D01*
Y9753395D02*
Y10003395D01*
D48*
X11518900Y4680000D02*
X11791900D01*
X12027500Y4444400D01*
Y3682400D02*
Y4444400D01*
Y3682400D02*
X12179300Y3530600D01*
D49*
X11848044Y6375400D02*
X11852000Y6371443D01*
X11929800Y6227500D02*
X11988800Y6286500D01*
X11852000Y6227500D02*
X11929800D01*
X11262000Y5743300D02*
Y5837500D01*
D50*
X2984500Y2984500D02*
D03*
X13176250Y2959100D02*
D03*
X1924050Y10775950D02*
D03*
X11709400D02*
D03*
D51*
X10452100Y4130000D02*
D03*
Y4680000D02*
D03*
X11518900Y4130000D02*
D03*
Y4680000D02*
D03*
X8305800Y4130000D02*
D03*
Y4680000D02*
D03*
X9385300Y4130000D02*
D03*
Y4680000D02*
D03*
X6121400Y4130000D02*
D03*
Y4680000D02*
D03*
X7213600Y4130000D02*
D03*
Y4680000D02*
D03*
X3937000Y4130000D02*
D03*
Y4680000D02*
D03*
X5029200Y4130000D02*
D03*
Y4680000D02*
D03*
X2089150Y4127250D02*
D03*
Y4677250D02*
D03*
D52*
X10452100Y3400000D02*
D03*
X11518900D02*
D03*
X8305800D02*
D03*
X9385300D02*
D03*
X6121400D02*
D03*
X7213600D02*
D03*
X3937000D02*
D03*
X5029200D02*
D03*
X2089150Y3397250D02*
D03*
D53*
X3175000Y9302750D02*
D03*
Y8185150D02*
D03*
D54*
X10775950Y6181800D02*
D03*
Y6470650D02*
D03*
X12179300Y4460515D02*
D03*
X6371590Y10306050D02*
D03*
X3009900Y3898900D02*
D03*
X12179300Y3530600D02*
D03*
X3009900Y3606800D02*
D03*
X12179300Y4787901D02*
D03*
Y4152900D02*
D03*
Y3848100D02*
D03*
D55*
X12146600Y8363000D02*
D03*
Y8113000D02*
D03*
Y7863000D02*
D03*
Y7613000D02*
D03*
Y7363000D02*
D03*
Y7113000D02*
D03*
Y6863000D02*
D03*
X12396600Y8363000D02*
D03*
Y8113000D02*
D03*
Y7863000D02*
D03*
Y7613000D02*
D03*
Y7363000D02*
D03*
Y7113000D02*
D03*
Y6863000D02*
D03*
X12157900Y10503395D02*
D03*
Y10253395D02*
D03*
Y10003395D02*
D03*
Y9753395D02*
D03*
Y9503395D02*
D03*
Y9253395D02*
D03*
Y9003395D02*
D03*
X12407900Y10503395D02*
D03*
Y10253395D02*
D03*
Y10003395D02*
D03*
Y9753395D02*
D03*
Y9503395D02*
D03*
Y9253395D02*
D03*
Y9003395D02*
D03*
D56*
X13119099Y6858000D02*
D03*
Y8355500D02*
D03*
X13130400Y8998395D02*
D03*
Y10495895D02*
D03*
D57*
X6982310Y7694700D02*
D03*
X6862310D02*
D03*
X6982310Y7824700D02*
D03*
X7092310D02*
D03*
X7092310Y7694700D02*
D03*
X6862310Y7824700D02*
D03*
X6841190Y9786850D02*
D03*
X7071189Y9656850D02*
D03*
X7071190Y9786850D02*
D03*
X6961190D02*
D03*
X6841190Y9656850D02*
D03*
X6961190D02*
D03*
X8636000Y9307600D02*
D03*
X8516000D02*
D03*
X8636000Y9437600D02*
D03*
X8746000D02*
D03*
X8746000Y9307600D02*
D03*
X8516000Y9437600D02*
D03*
X8503300Y7723100D02*
D03*
X8733300Y7593100D02*
D03*
X8733300Y7723100D02*
D03*
X8503300Y7593100D02*
D03*
X8623300D02*
D03*
Y7723100D02*
D03*
D58*
X11461750Y5791200D02*
D03*
X11944350Y6993700D02*
D03*
X11258550Y7169150D02*
D03*
X11076709Y7067550D02*
D03*
X11061700Y10003395D02*
D03*
Y9042400D02*
D03*
Y8058150D02*
D03*
X2280091Y5594350D02*
D03*
X7106270Y10636250D02*
D03*
X4548054Y9836063D02*
D03*
X4555284Y10568689D02*
D03*
X2432050Y7137400D02*
D03*
X2192479Y8026100D02*
D03*
X2432050Y7539502D02*
D03*
X7537155Y7229395D02*
D03*
X7289800Y7483836D02*
D03*
X7292734Y7575647D02*
D03*
Y7668551D02*
D03*
X7278302Y8343900D02*
D03*
X8966613Y6062820D02*
D03*
X7543800Y6794500D02*
D03*
X9608627Y6993700D02*
D03*
X7995273Y6572250D02*
D03*
X8470108Y6682379D02*
D03*
X8307060Y6337300D02*
D03*
X9436954Y6988900D02*
D03*
X8975121Y6261250D02*
D03*
X9121021D02*
D03*
X6776952Y6572250D02*
D03*
X7321122D02*
D03*
X6776952Y6734986D02*
D03*
X6678008Y6209707D02*
D03*
X7534439Y6654986D02*
D03*
X7083626Y6572250D02*
D03*
X8003255Y6358341D02*
D03*
X7881149D02*
D03*
X8198901Y6141108D02*
D03*
X8205916Y6261100D02*
D03*
X7974061Y5989779D02*
D03*
X7599682Y5992460D02*
D03*
X8344089Y5914950D02*
D03*
X8655050Y5829300D02*
D03*
X8929754Y9956836D02*
D03*
X7268172Y10306050D02*
D03*
X8653612Y6054260D02*
D03*
X9495821Y5848350D02*
D03*
X5032835Y6233025D02*
D03*
X5147135Y6233325D02*
D03*
X5261435D02*
D03*
X5375735Y6233025D02*
D03*
X5998035Y6235700D02*
D03*
X5883735Y6236000D02*
D03*
X5769435D02*
D03*
X5655135Y6235700D02*
D03*
X10133920Y5848350D02*
D03*
X9752921D02*
D03*
X9940321D02*
D03*
X9245600Y7203231D02*
D03*
X8991600Y7539423D02*
D03*
Y7617416D02*
D03*
X9474200Y7442200D02*
D03*
X9897750Y8425157D02*
D03*
Y8308548D02*
D03*
Y8193144D02*
D03*
X9786167Y8425157D02*
D03*
Y8308548D02*
D03*
Y8193144D02*
D03*
X8054517Y8177696D02*
D03*
Y8293100D02*
D03*
Y8409709D02*
D03*
X8166100Y8177696D02*
D03*
Y8293100D02*
D03*
Y8409709D02*
D03*
X6756400Y6358341D02*
D03*
X11613441Y6375400D02*
D03*
X11988800Y6286500D02*
D03*
X11120172Y6227500D02*
D03*
X11852000Y5766100D02*
D03*
X12026900Y5816600D02*
D03*
X11262000Y5743300D02*
D03*
X12763500Y6426200D02*
D03*
Y5067300D02*
D03*
X10302638Y6597650D02*
D03*
Y5981550D02*
D03*
X10003821Y6418650D02*
D03*
X5651500Y5869185D02*
D03*
X5549900Y5867400D02*
D03*
X5407903Y5870880D02*
D03*
X6023038Y5869185D02*
D03*
X5025641Y5867700D02*
D03*
X4911341Y5867400D02*
D03*
X5139941Y5867700D02*
D03*
X5254241Y5867400D02*
D03*
X5032835Y5675190D02*
D03*
X5147135D02*
D03*
X4918535Y5674890D02*
D03*
X5261435D02*
D03*
X5883735Y5677566D02*
D03*
X5540835D02*
D03*
X5769435Y5677866D02*
D03*
X5655135D02*
D03*
X5876541Y5870075D02*
D03*
X5762241Y5870375D02*
D03*
X5032835Y5766100D02*
D03*
X5147135D02*
D03*
X4918535Y5765800D02*
D03*
X5261435D02*
D03*
X5883735Y5768475D02*
D03*
X5540835D02*
D03*
X5769435Y5768775D02*
D03*
X5655135D02*
D03*
X5765800Y6439200D02*
D03*
X5651500Y6337000D02*
D03*
X5765800Y6337300D02*
D03*
X5880100D02*
D03*
Y6439200D02*
D03*
X5651500Y6438900D02*
D03*
X5994400D02*
D03*
Y6337000D02*
D03*
X5372100Y6334325D02*
D03*
Y6436225D02*
D03*
X5029200D02*
D03*
X5257800Y6436525D02*
D03*
Y6334625D02*
D03*
X5143500D02*
D03*
X5029200Y6334325D02*
D03*
X5143500Y6436525D02*
D03*
X2819400Y7353000D02*
D03*
X3048000Y7353300D02*
D03*
Y7251400D02*
D03*
X2933700D02*
D03*
X2819400Y7251100D02*
D03*
X2933700Y7353300D02*
D03*
X3048000Y7137100D02*
D03*
X2933700D02*
D03*
X2819400Y7136800D02*
D03*
X3048000Y7035500D02*
D03*
X2933700D02*
D03*
X2819400Y7035200D02*
D03*
X3517900Y7353000D02*
D03*
X3403600D02*
D03*
X3289300Y7352700D02*
D03*
X3517900Y7251100D02*
D03*
X3403600D02*
D03*
X3289300Y7250800D02*
D03*
X3517900Y7137100D02*
D03*
X3403600D02*
D03*
X3289300Y7136800D02*
D03*
X3517900Y7035200D02*
D03*
X3403600D02*
D03*
X3289300Y7034900D02*
D03*
X4330700Y7035200D02*
D03*
X4445000Y7035500D02*
D03*
X4559300D02*
D03*
X4330700Y7137100D02*
D03*
X4445000Y7137400D02*
D03*
X4559300D02*
D03*
X4330700Y7251100D02*
D03*
X4445000Y7251400D02*
D03*
X4559300D02*
D03*
X4330700Y7353000D02*
D03*
X4445000Y7353300D02*
D03*
X4559300D02*
D03*
X3860800Y7035500D02*
D03*
X3975100Y7035800D02*
D03*
X4089400D02*
D03*
X3860800Y7137100D02*
D03*
X3975100Y7137400D02*
D03*
X4089400D02*
D03*
X3975100Y7353600D02*
D03*
X3860800Y7251400D02*
D03*
X3975100Y7251700D02*
D03*
X4089400D02*
D03*
Y7353600D02*
D03*
X3860800Y7353300D02*
D03*
Y6248700D02*
D03*
X4089400Y6249000D02*
D03*
Y6147100D02*
D03*
X3975100D02*
D03*
X3860800Y6146800D02*
D03*
X3975100Y6249000D02*
D03*
X4089400Y6032800D02*
D03*
X3975100D02*
D03*
X3860800Y6032500D02*
D03*
X4089400Y5931200D02*
D03*
X3975100D02*
D03*
X3860800Y5930900D02*
D03*
X4559300Y6248700D02*
D03*
X4445000D02*
D03*
X4330700Y6248400D02*
D03*
X4559300Y6146800D02*
D03*
X4445000D02*
D03*
X4330700Y6146500D02*
D03*
X4559300Y6032800D02*
D03*
X4445000D02*
D03*
X4330700Y6032500D02*
D03*
X4559300Y5930900D02*
D03*
X4445000D02*
D03*
X4330700Y5930600D02*
D03*
X3289300Y5930300D02*
D03*
X3403600Y5930600D02*
D03*
X3517900D02*
D03*
X3289300Y6032200D02*
D03*
X3403600Y6032500D02*
D03*
X3517900D02*
D03*
X3289300Y6146200D02*
D03*
X3403600Y6146500D02*
D03*
X3517900D02*
D03*
X3289300Y6248100D02*
D03*
X3403600Y6248400D02*
D03*
X3517900D02*
D03*
X2819400Y5930600D02*
D03*
X2933700Y5930900D02*
D03*
X3048000D02*
D03*
X2819400Y6032200D02*
D03*
X2933700Y6032500D02*
D03*
X3048000D02*
D03*
X2933700Y6248700D02*
D03*
X2819400Y6146500D02*
D03*
X2933700Y6146800D02*
D03*
X3048000D02*
D03*
Y6248700D02*
D03*
X2819400Y6248400D02*
D03*
D59*
X2147080Y8368243D02*
D03*
X2036361D02*
D03*
X1928709D02*
D03*
Y8472234D02*
D03*
X2147080Y8472235D02*
D03*
X2036361Y8472234D02*
D03*
X2147080Y8577329D02*
D03*
X2036362D02*
D03*
X1928709D02*
D03*
X9181653Y8940800D02*
D03*
X7266434Y9437600D02*
D03*
X7465500Y9099550D02*
D03*
X7455961Y9307600D02*
D03*
X8995234Y9078110D02*
D03*
X9181653Y9042400D02*
D03*
%TF.MD5,fdc9fc7848741affdff4de9d1721adf3*%
M02*
