%TF.GenerationSoftware,Altium Limited,Altium Designer,23.5.1 (21)*%
G04 Layer_Color=32896*
%FSLAX45Y45*%
%MOMM*%
%TF.SameCoordinates,815A2C8C-8163-47E4-9813-AD16C0C63C49*%
%TF.FilePolarity,Positive*%
%TF.FileFunction,Legend,Bot*%
%TF.Part,Single*%
G01*
G75*
%TA.AperFunction,NonConductor*%
%ADD82C,0.25400*%
G36*
X11034889Y10127383D02*
X10984929D01*
Y10184690D01*
X11034889D01*
Y10127383D01*
D02*
G37*
G36*
X10624635D02*
X10574676D01*
Y10184690D01*
X10624635D01*
Y10127383D01*
D02*
G37*
G36*
X5778587Y10185864D02*
X5788578Y10184983D01*
X5797983Y10183513D01*
X5806799Y10181456D01*
X5815027Y10179105D01*
X5822668Y10176460D01*
X5829428Y10173815D01*
X5835893Y10171170D01*
X5841477Y10168232D01*
X5846472Y10165587D01*
X5850587Y10162942D01*
X5854113Y10160591D01*
X5856758Y10158828D01*
X5858815Y10157064D01*
X5859991Y10156183D01*
X5860285Y10155889D01*
X5866456Y10150011D01*
X5871746Y10143546D01*
X5876742Y10136787D01*
X5880856Y10129734D01*
X5884677Y10122387D01*
X5887909Y10115040D01*
X5890554Y10107987D01*
X5892905Y10100934D01*
X5894668Y10094468D01*
X5896138Y10088297D01*
X5897313Y10082713D01*
X5898195Y10078011D01*
X5899077Y10074191D01*
X5899370Y10071252D01*
Y10070076D01*
X5899664Y10069195D01*
Y10068901D01*
Y10068607D01*
X5848236Y10063317D01*
X5847942Y10070370D01*
X5847354Y10076836D01*
X5846179Y10083007D01*
X5845003Y10088885D01*
X5843240Y10094174D01*
X5841477Y10098876D01*
X5839419Y10103578D01*
X5837362Y10107399D01*
X5835599Y10110925D01*
X5833542Y10114158D01*
X5831779Y10116803D01*
X5830015Y10119154D01*
X5828840Y10120623D01*
X5827664Y10122093D01*
X5827076Y10122681D01*
X5826783Y10122974D01*
X5822668Y10126795D01*
X5817966Y10130027D01*
X5813264Y10132966D01*
X5808562Y10135611D01*
X5803566Y10137668D01*
X5798864Y10139432D01*
X5794162Y10140901D01*
X5789754Y10142076D01*
X5785346Y10142958D01*
X5781525Y10143546D01*
X5777999Y10144134D01*
X5774766Y10144428D01*
X5772415Y10144721D01*
X5768889D01*
X5762717Y10144428D01*
X5756840Y10143840D01*
X5751256Y10142958D01*
X5745966Y10141489D01*
X5741264Y10140019D01*
X5736562Y10138256D01*
X5732448Y10136493D01*
X5728627Y10134436D01*
X5725395Y10132672D01*
X5722456Y10130615D01*
X5719811Y10128852D01*
X5717754Y10127383D01*
X5715991Y10125913D01*
X5714815Y10125032D01*
X5714227Y10124444D01*
X5713933Y10124150D01*
X5710113Y10120330D01*
X5706880Y10116215D01*
X5703942Y10112101D01*
X5701591Y10107693D01*
X5699533Y10103578D01*
X5697770Y10099464D01*
X5696301Y10095350D01*
X5695125Y10091529D01*
X5694244Y10088003D01*
X5693656Y10084770D01*
X5693068Y10081831D01*
X5692774Y10079187D01*
X5692480Y10077129D01*
Y10075660D01*
Y10074485D01*
Y10074191D01*
X5692774Y10068901D01*
X5693362Y10063611D01*
X5694538Y10058321D01*
X5696007Y10053031D01*
X5699827Y10042746D01*
X5702178Y10038044D01*
X5704235Y10033636D01*
X5706293Y10029521D01*
X5708644Y10025701D01*
X5710407Y10022468D01*
X5712170Y10019529D01*
X5713933Y10017472D01*
X5715109Y10015709D01*
X5715697Y10014533D01*
X5715991Y10014240D01*
X5720693Y10008068D01*
X5726570Y10001309D01*
X5732742Y9994550D01*
X5739795Y9987497D01*
X5746848Y9980150D01*
X5754489Y9973097D01*
X5761836Y9966044D01*
X5769477Y9959284D01*
X5776530Y9952819D01*
X5783289Y9946941D01*
X5789166Y9941358D01*
X5794750Y9936950D01*
X5799158Y9933129D01*
X5800922Y9931660D01*
X5802391Y9930190D01*
X5803566Y9929309D01*
X5804448Y9928427D01*
X5805036Y9928133D01*
X5805330Y9927839D01*
X5812971Y9921374D01*
X5820318Y9915203D01*
X5827077Y9909325D01*
X5833542Y9903741D01*
X5839420Y9898158D01*
X5844709Y9893162D01*
X5849411Y9888460D01*
X5853820Y9884052D01*
X5857934Y9880231D01*
X5861167Y9876705D01*
X5864105Y9873766D01*
X5866456Y9871121D01*
X5868220Y9869064D01*
X5869395Y9867594D01*
X5870277Y9866713D01*
X5870571Y9866419D01*
X5878505Y9856427D01*
X5885265Y9846729D01*
X5890848Y9837619D01*
X5893493Y9833505D01*
X5895550Y9829390D01*
X5897314Y9825864D01*
X5899077Y9822631D01*
X5900546Y9819692D01*
X5901428Y9817047D01*
X5902310Y9814990D01*
X5902897Y9813521D01*
X5903485Y9812639D01*
Y9812345D01*
X5905542Y9806174D01*
X5907012Y9800002D01*
X5907893Y9794125D01*
X5908481Y9789129D01*
X5908775Y9784427D01*
X5909069Y9782664D01*
Y9780900D01*
Y9779725D01*
Y9778843D01*
Y9778256D01*
Y9777962D01*
X5640464D01*
Y9825864D01*
X5839713D01*
X5836481Y9830860D01*
X5832954Y9835856D01*
X5829428Y9840264D01*
X5826195Y9844378D01*
X5823256Y9847611D01*
X5820905Y9850256D01*
X5819436Y9852019D01*
X5818848Y9852607D01*
X5816203Y9855545D01*
X5812677Y9858778D01*
X5808856Y9862305D01*
X5804448Y9866419D01*
X5799746Y9870533D01*
X5795044Y9874941D01*
X5785052Y9883464D01*
X5780350Y9887578D01*
X5775942Y9891399D01*
X5772122Y9894925D01*
X5768301Y9897864D01*
X5765362Y9900509D01*
X5763305Y9902272D01*
X5761836Y9903741D01*
X5761248Y9904035D01*
X5751550Y9912264D01*
X5742440Y9920199D01*
X5734211Y9927546D01*
X5726570Y9934305D01*
X5719517Y9940770D01*
X5713346Y9946648D01*
X5707468Y9951937D01*
X5702472Y9956639D01*
X5698064Y9961048D01*
X5694538Y9964868D01*
X5691305Y9968101D01*
X5688660Y9970746D01*
X5686603Y9972803D01*
X5685428Y9974272D01*
X5684546Y9975154D01*
X5684252Y9975448D01*
X5680138Y9980444D01*
X5676023Y9985146D01*
X5672497Y9989848D01*
X5669264Y9994256D01*
X5663387Y10002778D01*
X5661036Y10006599D01*
X5658978Y10010125D01*
X5656921Y10013358D01*
X5655452Y10016297D01*
X5653982Y10018942D01*
X5653101Y10020999D01*
X5652219Y10022762D01*
X5651631Y10023938D01*
X5651044Y10024819D01*
Y10025113D01*
X5647811Y10033929D01*
X5645166Y10042452D01*
X5643403Y10050680D01*
X5642227Y10058027D01*
X5641933Y10061260D01*
X5641639Y10064199D01*
X5641346Y10066550D01*
X5641052Y10068901D01*
Y10070664D01*
Y10071840D01*
Y10072721D01*
Y10073015D01*
X5641346Y10081831D01*
X5642521Y10090354D01*
X5644284Y10098289D01*
X5646342Y10105929D01*
X5648986Y10112983D01*
X5651925Y10119742D01*
X5655158Y10125913D01*
X5658097Y10131497D01*
X5661329Y10136493D01*
X5664562Y10140901D01*
X5667501Y10144721D01*
X5670146Y10147660D01*
X5672203Y10150305D01*
X5673966Y10152068D01*
X5675142Y10153244D01*
X5675435Y10153538D01*
X5682195Y10159415D01*
X5689248Y10164411D01*
X5696595Y10168526D01*
X5704235Y10172346D01*
X5711876Y10175579D01*
X5719811Y10178223D01*
X5727158Y10180281D01*
X5734505Y10182044D01*
X5741264Y10183513D01*
X5747729Y10184395D01*
X5753313Y10185277D01*
X5758309Y10185570D01*
X5762423Y10185864D01*
X5765362Y10186158D01*
X5768007D01*
X5778587Y10185864D01*
D02*
G37*
G36*
X6868286Y9777962D02*
X6821854D01*
Y9814990D01*
X6815976Y9807349D01*
X6809805Y9800590D01*
X6803339Y9794713D01*
X6796580Y9789717D01*
X6789821Y9785602D01*
X6783062Y9782076D01*
X6776303Y9779137D01*
X6769837Y9777080D01*
X6763960Y9775023D01*
X6758376Y9773847D01*
X6753086Y9772966D01*
X6748678Y9772084D01*
X6745152Y9771790D01*
X6742507Y9771496D01*
X6740156D01*
X6730458Y9772084D01*
X6721347Y9773260D01*
X6712531Y9775317D01*
X6704009Y9777962D01*
X6696074Y9781194D01*
X6688727Y9784427D01*
X6681968Y9788247D01*
X6675796Y9792068D01*
X6670213Y9795888D01*
X6665217Y9799709D01*
X6660809Y9803235D01*
X6657282Y9806174D01*
X6654343Y9808819D01*
X6652286Y9810876D01*
X6650817Y9812051D01*
X6650523Y9812639D01*
X6643764Y9820868D01*
X6638180Y9829684D01*
X6633184Y9838794D01*
X6628776Y9848492D01*
X6625249Y9858190D01*
X6622017Y9867888D01*
X6619666Y9877292D01*
X6617609Y9886697D01*
X6616139Y9895513D01*
X6614964Y9903448D01*
X6614082Y9910795D01*
X6613494Y9917260D01*
X6613200Y9919905D01*
Y9922256D01*
X6612907Y9924607D01*
Y9926370D01*
Y9927839D01*
Y9928721D01*
Y9929309D01*
Y9929603D01*
X6613200Y9941358D01*
X6614376Y9952525D01*
X6614964Y9957815D01*
X6615845Y9962517D01*
X6616727Y9967219D01*
X6617315Y9971627D01*
X6618196Y9975448D01*
X6619078Y9978974D01*
X6619960Y9982207D01*
X6620547Y9984558D01*
X6621135Y9986909D01*
X6621723Y9988378D01*
X6622017Y9989260D01*
Y9989554D01*
X6625543Y9999546D01*
X6629657Y10008656D01*
X6633478Y10016884D01*
X6635535Y10020411D01*
X6637592Y10023938D01*
X6639355Y10026876D01*
X6641119Y10029521D01*
X6642588Y10031872D01*
X6643763Y10033636D01*
X6644939Y10035105D01*
X6645821Y10036280D01*
X6646114Y10036868D01*
X6646408Y10037162D01*
X6652580Y10044215D01*
X6659339Y10050387D01*
X6665804Y10055676D01*
X6672270Y10060085D01*
X6677853Y10063611D01*
X6680204Y10064787D01*
X6682261Y10065962D01*
X6684025Y10066844D01*
X6685200Y10067431D01*
X6686082Y10068019D01*
X6686376D01*
X6695486Y10071840D01*
X6704596Y10074485D01*
X6713413Y10076542D01*
X6721347Y10077717D01*
X6724874Y10078305D01*
X6727813Y10078599D01*
X6730751Y10078893D01*
X6733102D01*
X6735160Y10079187D01*
X6737804D01*
X6746915Y10078893D01*
X6755437Y10077423D01*
X6763372Y10075366D01*
X6771013Y10073015D01*
X6778360Y10069783D01*
X6784825Y10066550D01*
X6790996Y10063023D01*
X6796580Y10059203D01*
X6801282Y10055382D01*
X6805690Y10051856D01*
X6809511Y10048623D01*
X6812743Y10045391D01*
X6815094Y10043040D01*
X6816858Y10040982D01*
X6818033Y10039807D01*
X6818327Y10039219D01*
Y10184689D01*
X6868286D01*
X6868286Y9777962D01*
D02*
G37*
G36*
X5117949Y10181162D02*
X5120888Y10176166D01*
X5127647Y10166468D01*
X5134994Y10157358D01*
X5138814Y10152950D01*
X5142341Y10148835D01*
X5145867Y10145309D01*
X5149100Y10141782D01*
X5152039Y10138844D01*
X5154684Y10136199D01*
X5156741Y10134142D01*
X5158210Y10132672D01*
X5159386Y10131791D01*
X5159680Y10131497D01*
X5171729Y10121505D01*
X5184365Y10112395D01*
X5196708Y10104166D01*
X5202586Y10100639D01*
X5208169Y10097113D01*
X5213165Y10094174D01*
X5217867Y10091529D01*
X5222276Y10089178D01*
X5225802Y10087415D01*
X5228741Y10085946D01*
X5231092Y10084770D01*
X5232267Y10084182D01*
X5232855Y10083888D01*
Y10035692D01*
X5224039Y10039219D01*
X5214929Y10043333D01*
X5206112Y10047448D01*
X5197884Y10051562D01*
X5194357Y10053619D01*
X5190831Y10055382D01*
X5187892Y10057145D01*
X5185541Y10058615D01*
X5183484Y10059497D01*
X5181720Y10060378D01*
X5180839Y10060966D01*
X5180545Y10061260D01*
X5169965Y10067725D01*
X5165263Y10070958D01*
X5160561Y10073897D01*
X5156447Y10077129D01*
X5152626Y10079774D01*
X5149100Y10082713D01*
X5145573Y10085064D01*
X5142929Y10087415D01*
X5140284Y10089472D01*
X5137933Y10091529D01*
X5136169Y10092999D01*
X5134700Y10094174D01*
X5133818Y10095056D01*
X5133231Y10095644D01*
X5132937Y10095937D01*
X5132937Y9777961D01*
X5082978D01*
X5082977Y10186158D01*
X5115304D01*
X5117949Y10181162D01*
D02*
G37*
G36*
X7217707Y10078599D02*
X7227699Y10077130D01*
X7232401Y10076248D01*
X7236809Y10075073D01*
X7240630Y10073897D01*
X7244450Y10072722D01*
X7247683Y10071252D01*
X7250915Y10070077D01*
X7253560Y10068901D01*
X7255617Y10068019D01*
X7257381Y10067138D01*
X7258556Y10066550D01*
X7259438Y10066256D01*
X7259732Y10065962D01*
X7267960Y10060673D01*
X7275013Y10054795D01*
X7281479Y10049211D01*
X7286769Y10043628D01*
X7290883Y10038632D01*
X7292646Y10036575D01*
X7293822Y10034517D01*
X7294997Y10033048D01*
X7295879Y10031872D01*
X7296173Y10031285D01*
X7296466Y10030991D01*
Y10072722D01*
X7341136D01*
X7341136Y9777962D01*
X7291177D01*
Y9930778D01*
Y9938125D01*
X7290883Y9944885D01*
X7290295Y9951350D01*
X7290001Y9957227D01*
X7289414Y9962811D01*
X7288532Y9967807D01*
X7287944Y9972509D01*
X7287063Y9976623D01*
X7286475Y9980150D01*
X7285887Y9983383D01*
X7285005Y9986028D01*
X7284418Y9988379D01*
X7283830Y9989848D01*
X7283536Y9991317D01*
X7283242Y9991905D01*
Y9992199D01*
X7279716Y9999840D01*
X7275601Y10006305D01*
X7271487Y10011889D01*
X7267079Y10016591D01*
X7263258Y10020117D01*
X7260026Y10022762D01*
X7258850Y10023644D01*
X7257968Y10024232D01*
X7257381Y10024819D01*
X7257087D01*
X7250328Y10028640D01*
X7243568Y10031285D01*
X7236809Y10033342D01*
X7230932Y10034517D01*
X7225936Y10035399D01*
X7223585Y10035693D01*
X7221821D01*
X7220352Y10035987D01*
X7218295D01*
X7213299Y10035693D01*
X7208597Y10035399D01*
X7204189Y10034517D01*
X7200368Y10033342D01*
X7196548Y10032166D01*
X7193315Y10030697D01*
X7190377Y10029228D01*
X7187732Y10027758D01*
X7185674Y10025995D01*
X7183617Y10024526D01*
X7181854Y10023056D01*
X7180679Y10021881D01*
X7179503Y10020705D01*
X7178915Y10019823D01*
X7178328Y10019530D01*
Y10019236D01*
X7176270Y10016003D01*
X7174213Y10012183D01*
X7171275Y10004248D01*
X7168924Y9996019D01*
X7167454Y9988085D01*
X7166867Y9984264D01*
X7166573Y9980738D01*
X7166279Y9977505D01*
Y9974860D01*
X7165985Y9972509D01*
Y9970746D01*
Y9969570D01*
Y9969276D01*
Y9777962D01*
X7116026D01*
Y9948999D01*
X7115732Y9957227D01*
X7115144Y9964868D01*
X7114262Y9971921D01*
X7112793Y9978681D01*
X7111324Y9984558D01*
X7109560Y9989848D01*
X7107503Y9994844D01*
X7105740Y9999252D01*
X7103683Y10003072D01*
X7101920Y10006305D01*
X7100156Y10008950D01*
X7098687Y10011301D01*
X7097217Y10013064D01*
X7096336Y10014240D01*
X7095748Y10014828D01*
X7095454Y10015121D01*
X7091340Y10018942D01*
X7087225Y10021880D01*
X7083111Y10024819D01*
X7078703Y10027170D01*
X7074295Y10029227D01*
X7070180Y10030991D01*
X7066066Y10032166D01*
X7061952Y10033342D01*
X7058425Y10034223D01*
X7054899Y10034811D01*
X7051666Y10035399D01*
X7049021Y10035693D01*
X7046964Y10035987D01*
X7044025D01*
X7037854Y10035693D01*
X7031976Y10034811D01*
X7026980Y10033342D01*
X7022572Y10031872D01*
X7019046Y10030403D01*
X7016401Y10028933D01*
X7014637Y10028052D01*
X7014050Y10027758D01*
X7009642Y10024525D01*
X7005821Y10020999D01*
X7002882Y10017472D01*
X7000237Y10014240D01*
X6998474Y10011301D01*
X6997299Y10008656D01*
X6996711Y10007186D01*
X6996417Y10006893D01*
Y10006599D01*
X6995536Y10003954D01*
X6994654Y10001015D01*
X6993479Y9994256D01*
X6992597Y9987203D01*
X6992009Y9980150D01*
X6991715Y9973684D01*
X6991421Y9970746D01*
Y9968395D01*
Y9966337D01*
Y9964868D01*
Y9963693D01*
Y9963399D01*
Y9777962D01*
X6941462D01*
Y9980150D01*
X6941756Y9989260D01*
X6942344Y9997782D01*
X6943519Y10005717D01*
X6945282Y10013064D01*
X6947046Y10019823D01*
X6949103Y10025995D01*
X6951160Y10031284D01*
X6953217Y10036280D01*
X6955568Y10040689D01*
X6957625Y10044509D01*
X6959682Y10047742D01*
X6961446Y10050093D01*
X6962915Y10052150D01*
X6964090Y10053619D01*
X6964972Y10054501D01*
X6965266Y10054795D01*
X6969968Y10059203D01*
X6974964Y10062729D01*
X6980254Y10066256D01*
X6985544Y10068901D01*
X6991421Y10071252D01*
X6997005Y10073309D01*
X7002295Y10074778D01*
X7007584Y10076248D01*
X7012874Y10077129D01*
X7017576Y10078011D01*
X7021691Y10078305D01*
X7025217Y10078893D01*
X7028450D01*
X7030507Y10079187D01*
X7037854D01*
X7042850Y10078599D01*
X7052548Y10076836D01*
X7061952Y10074485D01*
X7070474Y10071252D01*
X7078703Y10067138D01*
X7086050Y10062729D01*
X7093103Y10058028D01*
X7099274Y10053326D01*
X7104858Y10048624D01*
X7109854Y10043921D01*
X7113968Y10039513D01*
X7117495Y10035693D01*
X7120434Y10032166D01*
X7122197Y10029815D01*
X7123666Y10028052D01*
X7123960Y10027758D01*
Y10027464D01*
X7127781Y10035987D01*
X7132189Y10043628D01*
X7136891Y10050093D01*
X7141887Y10055677D01*
X7146295Y10059791D01*
X7148352Y10061554D01*
X7149821Y10063024D01*
X7151291Y10063905D01*
X7152466Y10064787D01*
X7153054Y10065081D01*
X7153348Y10065375D01*
X7157462Y10067726D01*
X7161576Y10070077D01*
X7170687Y10073309D01*
X7179503Y10075954D01*
X7188026Y10077424D01*
X7191846Y10078011D01*
X7195666Y10078599D01*
X7198899Y10078893D01*
X7201544D01*
X7203895Y10079187D01*
X7212417D01*
X7217707Y10078599D01*
D02*
G37*
G36*
X4837295Y10185864D02*
X4846993Y10184395D01*
X4856104Y10182631D01*
X4864626Y10180280D01*
X4872855Y10177342D01*
X4880495Y10174109D01*
X4887255Y10170876D01*
X4893720Y10167350D01*
X4899304Y10163823D01*
X4904300Y10160297D01*
X4908708Y10157064D01*
X4912234Y10154125D01*
X4914879Y10151774D01*
X4916936Y10150011D01*
X4918406Y10148542D01*
X4918700Y10148248D01*
X4925165Y10140901D01*
X4930749Y10133260D01*
X4935451Y10125031D01*
X4939859Y10116803D01*
X4943385Y10108574D01*
X4946324Y10100346D01*
X4948675Y10092117D01*
X4950438Y10084476D01*
X4952202Y10077129D01*
X4953083Y10070370D01*
X4953965Y10064199D01*
X4954553Y10058909D01*
X4954847Y10054501D01*
Y10052737D01*
X4955140Y10051268D01*
Y10050092D01*
Y10049211D01*
Y10048917D01*
Y10048623D01*
X4954847Y10037750D01*
X4953671Y10027464D01*
X4951908Y10017472D01*
X4949851Y10008362D01*
X4947206Y9999839D01*
X4944267Y9991905D01*
X4941035Y9984558D01*
X4937802Y9978092D01*
X4934569Y9972215D01*
X4931337Y9966925D01*
X4928398Y9962517D01*
X4925753Y9958990D01*
X4923696Y9956051D01*
X4921932Y9953994D01*
X4920757Y9952525D01*
X4920463Y9952231D01*
X4913704Y9945766D01*
X4906651Y9940182D01*
X4899598Y9935480D01*
X4892251Y9931072D01*
X4885198Y9927545D01*
X4878145Y9924607D01*
X4871092Y9922255D01*
X4864626Y9920492D01*
X4858455Y9918729D01*
X4852871Y9917847D01*
X4847581Y9916966D01*
X4843467Y9916378D01*
X4839941Y9916084D01*
X4837296Y9915790D01*
X4834945D01*
X4829361Y9916084D01*
X4823777Y9916378D01*
X4813492Y9918141D01*
X4803794Y9920492D01*
X4799679Y9921668D01*
X4795565Y9923137D01*
X4791745Y9924607D01*
X4788512Y9925782D01*
X4785867Y9926958D01*
X4783222Y9928133D01*
X4781459Y9929015D01*
X4779989Y9929896D01*
X4779108Y9930190D01*
X4778814Y9930484D01*
X4769410Y9936362D01*
X4761475Y9942827D01*
X4757655Y9946060D01*
X4754422Y9949292D01*
X4751189Y9952231D01*
X4748544Y9955464D01*
X4745900Y9958109D01*
X4743842Y9960754D01*
X4742079Y9963105D01*
X4740316Y9965162D01*
X4739140Y9966925D01*
X4738259Y9968100D01*
X4737965Y9968982D01*
X4737671Y9969276D01*
Y9966925D01*
Y9964868D01*
Y9963105D01*
Y9961635D01*
Y9960754D01*
Y9959872D01*
Y9959578D01*
Y9959284D01*
X4737965Y9947823D01*
X4738847Y9936656D01*
X4740022Y9926370D01*
X4740904Y9921374D01*
X4741491Y9916966D01*
X4742079Y9912851D01*
X4742961Y9909325D01*
X4743549Y9906092D01*
X4744136Y9903447D01*
X4744724Y9901096D01*
X4745018Y9899627D01*
X4745312Y9898451D01*
Y9898157D01*
X4746781Y9892868D01*
X4748251Y9887578D01*
X4749720Y9882876D01*
X4751189Y9878174D01*
X4752953Y9874059D01*
X4754422Y9870239D01*
X4755891Y9866713D01*
X4757361Y9863480D01*
X4758536Y9860541D01*
X4760006Y9857896D01*
X4760887Y9855839D01*
X4762063Y9854076D01*
X4762651Y9852606D01*
X4763238Y9851725D01*
X4763826Y9851137D01*
Y9850843D01*
X4768234Y9844672D01*
X4772936Y9839088D01*
X4777638Y9834092D01*
X4782047Y9830272D01*
X4785867Y9827039D01*
X4789100Y9824688D01*
X4790275Y9823806D01*
X4791157Y9823219D01*
X4791745Y9822631D01*
X4792038D01*
X4798798Y9819104D01*
X4805557Y9816753D01*
X4812610Y9814990D01*
X4818781Y9813521D01*
X4824365Y9812933D01*
X4826716Y9812639D01*
X4828773D01*
X4830243Y9812345D01*
X4832594D01*
X4837590Y9812639D01*
X4842292Y9812933D01*
X4850814Y9814696D01*
X4858161Y9817047D01*
X4861688Y9818517D01*
X4864626Y9819986D01*
X4867271Y9821161D01*
X4869916Y9822631D01*
X4871973Y9823806D01*
X4873443Y9824982D01*
X4874912Y9825864D01*
X4875794Y9826745D01*
X4876381Y9827039D01*
X4876675Y9827333D01*
X4879908Y9830272D01*
X4882553Y9833798D01*
X4887549Y9841439D01*
X4891663Y9849668D01*
X4894896Y9857896D01*
X4896071Y9861423D01*
X4897247Y9865243D01*
X4898128Y9868476D01*
X4898716Y9871121D01*
X4899304Y9873472D01*
X4899598Y9875235D01*
X4899892Y9876411D01*
Y9876704D01*
X4947794Y9872296D01*
X4946324Y9863480D01*
X4944561Y9855251D01*
X4942210Y9847610D01*
X4939565Y9840264D01*
X4936920Y9833504D01*
X4933688Y9827627D01*
X4930749Y9822043D01*
X4927516Y9817047D01*
X4924577Y9812345D01*
X4921639Y9808525D01*
X4918700Y9805292D01*
X4916349Y9802647D01*
X4914586Y9800296D01*
X4912822Y9798827D01*
X4911941Y9797945D01*
X4911647Y9797651D01*
X4905769Y9792949D01*
X4899598Y9788835D01*
X4893132Y9785308D01*
X4886667Y9782370D01*
X4880202Y9779725D01*
X4873737Y9777668D01*
X4867271Y9775904D01*
X4861100Y9774435D01*
X4855516Y9773553D01*
X4850226Y9772672D01*
X4845524Y9772084D01*
X4841410Y9771496D01*
X4838177D01*
X4835532Y9771202D01*
X4833475D01*
X4825247Y9771496D01*
X4817312Y9772378D01*
X4809671Y9773553D01*
X4802324Y9775023D01*
X4795271Y9776786D01*
X4789100Y9778843D01*
X4782928Y9780900D01*
X4777638Y9783251D01*
X4772642Y9785602D01*
X4768234Y9787659D01*
X4764414Y9789717D01*
X4761181Y9791480D01*
X4758536Y9792949D01*
X4756773Y9794419D01*
X4755598Y9795006D01*
X4755304Y9795300D01*
X4749132Y9800002D01*
X4743549Y9805292D01*
X4738259Y9810876D01*
X4733263Y9816459D01*
X4728855Y9822337D01*
X4724446Y9828215D01*
X4720920Y9833798D01*
X4717393Y9839382D01*
X4714455Y9844672D01*
X4711810Y9849668D01*
X4709753Y9854076D01*
X4707989Y9857896D01*
X4706520Y9861129D01*
X4705638Y9863480D01*
X4705051Y9864949D01*
X4704757Y9865537D01*
X4701818Y9874647D01*
X4699173Y9884051D01*
X4696822Y9894043D01*
X4694765Y9904329D01*
X4693295Y9914615D01*
X4691826Y9925194D01*
X4690651Y9935186D01*
X4689769Y9944884D01*
X4689181Y9953994D01*
X4688593Y9962517D01*
X4688299Y9970158D01*
X4688006Y9973390D01*
Y9976623D01*
Y9979562D01*
X4687712Y9982207D01*
Y9984264D01*
Y9986027D01*
Y9987496D01*
Y9988672D01*
Y9989260D01*
Y9989554D01*
X4688006Y10003072D01*
X4688593Y10016003D01*
X4689181Y10027758D01*
X4690356Y10038925D01*
X4691826Y10049211D01*
X4693295Y10058321D01*
X4694765Y10066843D01*
X4696234Y10074484D01*
X4697997Y10081243D01*
X4699467Y10087121D01*
X4700936Y10092117D01*
X4702405Y10096231D01*
X4703581Y10099464D01*
X4704169Y10101815D01*
X4704756Y10102990D01*
X4705050Y10103578D01*
X4708283Y10110925D01*
X4712103Y10117684D01*
X4715924Y10123856D01*
X4720038Y10129733D01*
X4724152Y10135317D01*
X4728267Y10140313D01*
X4732381Y10145015D01*
X4736495Y10149129D01*
X4740316Y10152656D01*
X4743548Y10155889D01*
X4746781Y10158533D01*
X4749720Y10160884D01*
X4751777Y10162354D01*
X4753540Y10163823D01*
X4754716Y10164411D01*
X4755010Y10164705D01*
X4761181Y10168525D01*
X4767352Y10171758D01*
X4773818Y10174697D01*
X4779989Y10177048D01*
X4786161Y10179105D01*
X4792332Y10180868D01*
X4797916Y10182338D01*
X4803499Y10183513D01*
X4808495Y10184395D01*
X4812904Y10184982D01*
X4817018Y10185570D01*
X4820544Y10185864D01*
X4823483Y10186158D01*
X4827304D01*
X4837295Y10185864D01*
D02*
G37*
G36*
X9192274Y9899922D02*
X9038282D01*
Y9950175D01*
X9192274D01*
Y9899922D01*
D02*
G37*
G36*
X11237665Y9777962D02*
X11190938D01*
X11079264Y10072722D01*
X11130693D01*
X11196228Y9892869D01*
X11200342Y9881114D01*
X11202399Y9875530D01*
X11204163Y9870240D01*
X11205632Y9865244D01*
X11207101Y9860542D01*
X11208571Y9856428D01*
X11209746Y9852607D01*
X11210922Y9849081D01*
X11212097Y9845848D01*
X11212685Y9843203D01*
X11213567Y9840852D01*
X11214154Y9839089D01*
X11214448Y9837914D01*
X11214742Y9837032D01*
Y9836738D01*
X11217975Y9848199D01*
X11221207Y9859073D01*
X11224440Y9869065D01*
X11225909Y9873767D01*
X11227379Y9877881D01*
X11228554Y9881995D01*
X11229730Y9885522D01*
X11230905Y9888461D01*
X11231787Y9891105D01*
X11232669Y9893163D01*
X11232963Y9894926D01*
X11233550Y9895807D01*
Y9896101D01*
X11296734Y10072722D01*
X11349338D01*
X11237665Y9777962D01*
D02*
G37*
G36*
X7805463Y10145603D02*
Y10072722D01*
X7842492D01*
Y10033930D01*
X7805463D01*
X7805463Y9864068D01*
Y9856133D01*
X7805170Y9848493D01*
X7804876Y9842027D01*
X7804582Y9835856D01*
X7803994Y9830566D01*
X7803700Y9825570D01*
X7803112Y9821456D01*
X7802525Y9817635D01*
X7801937Y9814403D01*
X7801349Y9811758D01*
X7801055Y9809701D01*
X7800468Y9807937D01*
X7800174Y9806468D01*
X7799880Y9805586D01*
X7799586Y9805293D01*
Y9804999D01*
X7796941Y9800003D01*
X7793708Y9795595D01*
X7790182Y9791774D01*
X7786655Y9788542D01*
X7783423Y9786190D01*
X7780778Y9784133D01*
X7779014Y9782958D01*
X7778721Y9782664D01*
X7778427D01*
X7772255Y9779725D01*
X7765496Y9777668D01*
X7758443Y9776199D01*
X7751684Y9775317D01*
X7745806Y9774729D01*
X7743161Y9774435D01*
X7740810Y9774141D01*
X7736402D01*
X7729937Y9774435D01*
X7723471Y9774729D01*
X7717006Y9775611D01*
X7711129Y9776493D01*
X7706133Y9777080D01*
X7703782Y9777668D01*
X7702018Y9777962D01*
X7700549Y9778256D01*
X7699373D01*
X7698786Y9778550D01*
X7698492D01*
X7705839Y9822631D01*
X7710541Y9822044D01*
X7714949Y9821750D01*
X7718769Y9821162D01*
X7721708D01*
X7724353Y9820868D01*
X7727586D01*
X7731406Y9821162D01*
X7734933Y9821456D01*
X7737871Y9822044D01*
X7740223Y9822631D01*
X7742280Y9823219D01*
X7743455Y9823807D01*
X7744337Y9824395D01*
X7744631D01*
X7746688Y9825864D01*
X7748451Y9827333D01*
X7751096Y9830566D01*
X7751978Y9832035D01*
X7752565Y9833211D01*
X7753153Y9833799D01*
Y9834093D01*
X7753447Y9835562D01*
X7754035Y9837031D01*
X7754623Y9840852D01*
X7754916Y9845554D01*
X7755210Y9849962D01*
X7755504Y9854370D01*
Y9857897D01*
Y9859366D01*
Y9860542D01*
Y9861129D01*
Y9861423D01*
X7755504Y10033930D01*
X7705839D01*
Y10072722D01*
X7755504D01*
Y10175579D01*
X7805463Y10145603D01*
D02*
G37*
G36*
X11525371Y10078600D02*
X11535951Y10077424D01*
X11545942Y10075367D01*
X11555640Y10072722D01*
X11564457Y10069784D01*
X11572391Y10066257D01*
X11580032Y10062437D01*
X11586791Y10058616D01*
X11592963Y10054796D01*
X11598253Y10050975D01*
X11602661Y10047743D01*
X11606481Y10044510D01*
X11609714Y10041865D01*
X11611771Y10039808D01*
X11612947Y10038632D01*
X11613534Y10038045D01*
X11620293Y10030110D01*
X11626171Y10021294D01*
X11631167Y10012183D01*
X11635575Y10002779D01*
X11639396Y9993081D01*
X11642335Y9983383D01*
X11644980Y9973979D01*
X11647037Y9965163D01*
X11648506Y9956347D01*
X11649682Y9948412D01*
X11650563Y9941359D01*
X11651151Y9935187D01*
X11651445Y9932249D01*
Y9929898D01*
Y9927840D01*
X11651739Y9926077D01*
Y9924608D01*
Y9923726D01*
Y9923138D01*
Y9922845D01*
X11651445Y9909620D01*
X11649975Y9897277D01*
X11648212Y9885816D01*
X11645861Y9874942D01*
X11642922Y9864951D01*
X11639690Y9855840D01*
X11636457Y9847612D01*
X11632931Y9839971D01*
X11629404Y9833212D01*
X11625877Y9827628D01*
X11622939Y9822632D01*
X11620000Y9818518D01*
X11617649Y9815285D01*
X11615592Y9812934D01*
X11614416Y9811759D01*
X11614122Y9811171D01*
X11606775Y9804118D01*
X11598841Y9797946D01*
X11590612Y9792657D01*
X11582090Y9788248D01*
X11573567Y9784428D01*
X11565045Y9781195D01*
X11556522Y9778550D01*
X11548588Y9776493D01*
X11540947Y9774730D01*
X11533894Y9773554D01*
X11527722Y9772673D01*
X11522138Y9772085D01*
X11517730Y9771791D01*
X11515967D01*
X11514498Y9771497D01*
X11511559D01*
X11502155Y9771791D01*
X11493045Y9772673D01*
X11484522Y9773848D01*
X11476587Y9775318D01*
X11469240Y9777375D01*
X11462187Y9779432D01*
X11456016Y9781783D01*
X11450138Y9784134D01*
X11444849Y9786191D01*
X11440440Y9788542D01*
X11436326Y9790599D01*
X11433093Y9792656D01*
X11430449Y9794126D01*
X11428685Y9795301D01*
X11427510Y9796183D01*
X11427216Y9796477D01*
X11421338Y9801473D01*
X11415755Y9806762D01*
X11410759Y9812346D01*
X11406351Y9817930D01*
X11402236Y9823807D01*
X11398416Y9829685D01*
X11395183Y9835562D01*
X11392244Y9840852D01*
X11389600Y9846142D01*
X11387542Y9851138D01*
X11385779Y9855546D01*
X11384310Y9859367D01*
X11383428Y9862305D01*
X11382546Y9864656D01*
X11381959Y9866126D01*
Y9866714D01*
X11433387Y9873473D01*
X11435738Y9867595D01*
X11438089Y9862305D01*
X11440440Y9857309D01*
X11443085Y9852607D01*
X11445730Y9848493D01*
X11448081Y9844673D01*
X11450726Y9841440D01*
X11453077Y9838208D01*
X11455428Y9835563D01*
X11457485Y9833212D01*
X11459249Y9831448D01*
X11461012Y9829685D01*
X11462481Y9828510D01*
X11463363Y9827628D01*
X11463951Y9827334D01*
X11464245Y9827040D01*
X11468065Y9824395D01*
X11471885Y9822338D01*
X11475706Y9820281D01*
X11479820Y9818812D01*
X11487755Y9816167D01*
X11495102Y9814404D01*
X11498334Y9813816D01*
X11501567Y9813522D01*
X11504212Y9813228D01*
X11506563Y9812934D01*
X11508620Y9812640D01*
X11511265D01*
X11518024Y9812934D01*
X11524490Y9813816D01*
X11530661Y9814991D01*
X11536539Y9816755D01*
X11542122Y9818518D01*
X11547118Y9820869D01*
X11551820Y9822926D01*
X11555934Y9825571D01*
X11559755Y9827922D01*
X11563281Y9830273D01*
X11566220Y9832330D01*
X11568571Y9834093D01*
X11570334Y9835857D01*
X11571804Y9837032D01*
X11572686Y9837914D01*
X11572979Y9838208D01*
X11577388Y9843204D01*
X11581208Y9848787D01*
X11584735Y9854665D01*
X11587673Y9860836D01*
X11590318Y9867008D01*
X11592375Y9873179D01*
X11594432Y9879057D01*
X11595902Y9885228D01*
X11597077Y9890812D01*
X11598253Y9895808D01*
X11598841Y9900510D01*
X11599428Y9904624D01*
X11600016Y9907857D01*
Y9910502D01*
X11600310Y9911971D01*
Y9912559D01*
X11380489Y9912559D01*
Y9915791D01*
X11380195Y9918436D01*
Y9920493D01*
Y9922550D01*
Y9924020D01*
Y9924901D01*
Y9925489D01*
Y9925783D01*
X11380489Y9939008D01*
X11381665Y9951644D01*
X11383722Y9963399D01*
X11386073Y9974273D01*
X11389012Y9984265D01*
X11391951Y9993669D01*
X11395477Y10002191D01*
X11399003Y10009832D01*
X11402530Y10016591D01*
X11405763Y10022469D01*
X11408995Y10027465D01*
X11411934Y10031579D01*
X11414285Y10034812D01*
X11416048Y10037163D01*
X11417518Y10038338D01*
X11417812Y10038926D01*
X11425159Y10045979D01*
X11432799Y10052151D01*
X11440440Y10057734D01*
X11448669Y10062143D01*
X11456603Y10066257D01*
X11464832Y10069490D01*
X11472473Y10072135D01*
X11480114Y10074192D01*
X11487167Y10075955D01*
X11493632Y10077130D01*
X11499216Y10078012D01*
X11504506Y10078600D01*
X11508620Y10078894D01*
X11511559Y10079188D01*
X11514204D01*
X11525371Y10078600D01*
D02*
G37*
G36*
X8336795Y10078599D02*
X8347374Y10077424D01*
X8357366Y10075366D01*
X8367064Y10072722D01*
X8375880Y10069783D01*
X8383815Y10066256D01*
X8391456Y10062436D01*
X8398215Y10058615D01*
X8404387Y10054795D01*
X8409676Y10050975D01*
X8414085Y10047742D01*
X8417905Y10044509D01*
X8421138Y10041864D01*
X8423195Y10039807D01*
X8424370Y10038632D01*
X8424958Y10038044D01*
X8431717Y10030109D01*
X8437595Y10021293D01*
X8442591Y10012183D01*
X8446999Y10002779D01*
X8450820Y9993081D01*
X8453758Y9983383D01*
X8456403Y9973979D01*
X8458460Y9965162D01*
X8459930Y9956346D01*
X8461105Y9948411D01*
X8461987Y9941358D01*
X8462575Y9935187D01*
X8462869Y9932248D01*
Y9929897D01*
Y9927840D01*
X8463162Y9926076D01*
Y9924607D01*
Y9923725D01*
Y9923138D01*
Y9922844D01*
X8462869Y9909619D01*
X8461399Y9897276D01*
X8459636Y9885815D01*
X8457285Y9874942D01*
X8454346Y9864950D01*
X8451113Y9855840D01*
X8447881Y9847611D01*
X8444354Y9839970D01*
X8440828Y9833211D01*
X8437301Y9827627D01*
X8434362Y9822631D01*
X8431424Y9818517D01*
X8429073Y9815284D01*
X8427015Y9812933D01*
X8425840Y9811758D01*
X8425546Y9811170D01*
X8418199Y9804117D01*
X8410264Y9797946D01*
X8402036Y9792656D01*
X8393513Y9788248D01*
X8384991Y9784427D01*
X8376468Y9781195D01*
X8367946Y9778550D01*
X8360011Y9776493D01*
X8352370Y9774729D01*
X8345317Y9773554D01*
X8339146Y9772672D01*
X8333562Y9772084D01*
X8329154Y9771790D01*
X8327391D01*
X8325921Y9771497D01*
X8322983D01*
X8313578Y9771790D01*
X8304468Y9772672D01*
X8295946Y9773848D01*
X8288011Y9775317D01*
X8280664Y9777374D01*
X8273611Y9779431D01*
X8267440Y9781782D01*
X8261562Y9784133D01*
X8256272Y9786190D01*
X8251864Y9788542D01*
X8247750Y9790599D01*
X8244517Y9792656D01*
X8241872Y9794125D01*
X8240109Y9795301D01*
X8238933Y9796182D01*
X8238640Y9796476D01*
X8232762Y9801472D01*
X8227178Y9806762D01*
X8222182Y9812346D01*
X8217774Y9817929D01*
X8213660Y9823807D01*
X8209840Y9829684D01*
X8206607Y9835562D01*
X8203668Y9840852D01*
X8201023Y9846142D01*
X8198966Y9851138D01*
X8197203Y9855546D01*
X8195733Y9859366D01*
X8194852Y9862305D01*
X8193970Y9864656D01*
X8193382Y9866125D01*
Y9866713D01*
X8244811Y9873472D01*
X8247162Y9867595D01*
X8249513Y9862305D01*
X8251864Y9857309D01*
X8254509Y9852607D01*
X8257154Y9848493D01*
X8259505Y9844672D01*
X8262150Y9841440D01*
X8264501Y9838207D01*
X8266852Y9835562D01*
X8268909Y9833211D01*
X8270672Y9831448D01*
X8272436Y9829684D01*
X8273905Y9828509D01*
X8274787Y9827627D01*
X8275374Y9827333D01*
X8275668Y9827040D01*
X8279489Y9824395D01*
X8283309Y9822337D01*
X8287129Y9820280D01*
X8291244Y9818811D01*
X8299178Y9816166D01*
X8306525Y9814403D01*
X8309758Y9813815D01*
X8312991Y9813521D01*
X8315636Y9813227D01*
X8317987Y9812933D01*
X8320044Y9812640D01*
X8322689D01*
X8329448Y9812933D01*
X8335913Y9813815D01*
X8342085Y9814991D01*
X8347962Y9816754D01*
X8353546Y9818517D01*
X8358542Y9820868D01*
X8363244Y9822925D01*
X8367358Y9825570D01*
X8371179Y9827921D01*
X8374705Y9830272D01*
X8377644Y9832329D01*
X8379995Y9834093D01*
X8381758Y9835856D01*
X8383228Y9837031D01*
X8384109Y9837913D01*
X8384403Y9838207D01*
X8388811Y9843203D01*
X8392632Y9848786D01*
X8396158Y9854664D01*
X8399097Y9860835D01*
X8401742Y9867007D01*
X8403799Y9873178D01*
X8405856Y9879056D01*
X8407326Y9885227D01*
X8408501Y9890811D01*
X8409677Y9895807D01*
X8410264Y9900509D01*
X8410852Y9904623D01*
X8411440Y9907856D01*
Y9910501D01*
X8411734Y9911970D01*
Y9912558D01*
X8191913D01*
Y9915791D01*
X8191619Y9918436D01*
Y9920493D01*
Y9922550D01*
Y9924019D01*
Y9924901D01*
Y9925489D01*
Y9925783D01*
X8191913Y9939007D01*
X8193089Y9951644D01*
X8195146Y9963399D01*
X8197497Y9974272D01*
X8200435Y9984264D01*
X8203374Y9993668D01*
X8206901Y10002191D01*
X8210427Y10009832D01*
X8213954Y10016591D01*
X8217186Y10022468D01*
X8220419Y10027464D01*
X8223358Y10031579D01*
X8225709Y10034811D01*
X8227472Y10037162D01*
X8228941Y10038338D01*
X8229235Y10038926D01*
X8236582Y10045979D01*
X8244223Y10052150D01*
X8251864Y10057734D01*
X8260092Y10062142D01*
X8268027Y10066256D01*
X8276256Y10069489D01*
X8283897Y10072134D01*
X8291537Y10074191D01*
X8298590Y10075954D01*
X8305056Y10077130D01*
X8310639Y10078011D01*
X8315929Y10078599D01*
X8320044Y10078893D01*
X8322982Y10079187D01*
X8325627D01*
X8336795Y10078599D01*
D02*
G37*
G36*
X7547144D02*
X7557724Y10077424D01*
X7567716Y10075366D01*
X7577414Y10072722D01*
X7586230Y10069783D01*
X7594165Y10066256D01*
X7601806Y10062436D01*
X7608565Y10058615D01*
X7614736Y10054795D01*
X7620026Y10050975D01*
X7624434Y10047742D01*
X7628255Y10044509D01*
X7631487Y10041864D01*
X7633545Y10039807D01*
X7634720Y10038632D01*
X7635308Y10038044D01*
X7642067Y10030109D01*
X7647945Y10021293D01*
X7652940Y10012183D01*
X7657349Y10002779D01*
X7661169Y9993081D01*
X7664108Y9983383D01*
X7666753Y9973979D01*
X7668810Y9965162D01*
X7670280Y9956346D01*
X7671455Y9948411D01*
X7672337Y9941358D01*
X7672924Y9935187D01*
X7673218Y9932248D01*
Y9929897D01*
Y9927840D01*
X7673512Y9926076D01*
Y9924607D01*
Y9923725D01*
Y9923138D01*
Y9922844D01*
X7673218Y9909619D01*
X7671749Y9897276D01*
X7669986Y9885815D01*
X7667635Y9874942D01*
X7664696Y9864950D01*
X7661463Y9855840D01*
X7658231Y9847611D01*
X7654704Y9839970D01*
X7651177Y9833211D01*
X7647651Y9827627D01*
X7644712Y9822631D01*
X7641773Y9818517D01*
X7639422Y9815284D01*
X7637365Y9812933D01*
X7636190Y9811758D01*
X7635896Y9811170D01*
X7628549Y9804117D01*
X7620614Y9797946D01*
X7612386Y9792656D01*
X7603863Y9788248D01*
X7595341Y9784427D01*
X7586818Y9781195D01*
X7578296Y9778550D01*
X7570361Y9776493D01*
X7562720Y9774729D01*
X7555667Y9773554D01*
X7549496Y9772672D01*
X7543912Y9772084D01*
X7539504Y9771790D01*
X7537741D01*
X7536271Y9771497D01*
X7533332D01*
X7523928Y9771790D01*
X7514818Y9772672D01*
X7506296Y9773848D01*
X7498361Y9775317D01*
X7491014Y9777374D01*
X7483961Y9779431D01*
X7477789Y9781782D01*
X7471912Y9784133D01*
X7466622Y9786190D01*
X7462214Y9788542D01*
X7458100Y9790599D01*
X7454867Y9792656D01*
X7452222Y9794125D01*
X7450459Y9795301D01*
X7449283Y9796182D01*
X7448989Y9796476D01*
X7443112Y9801472D01*
X7437528Y9806762D01*
X7432532Y9812346D01*
X7428124Y9817929D01*
X7424010Y9823807D01*
X7420189Y9829684D01*
X7416957Y9835562D01*
X7414018Y9840852D01*
X7411373Y9846142D01*
X7409316Y9851138D01*
X7407553Y9855546D01*
X7406083Y9859366D01*
X7405202Y9862305D01*
X7404320Y9864656D01*
X7403732Y9866125D01*
Y9866713D01*
X7455161Y9873472D01*
X7457512Y9867595D01*
X7459863Y9862305D01*
X7462214Y9857309D01*
X7464859Y9852607D01*
X7467504Y9848493D01*
X7469855Y9844672D01*
X7472500Y9841440D01*
X7474851Y9838207D01*
X7477202Y9835562D01*
X7479259Y9833211D01*
X7481022Y9831448D01*
X7482785Y9829684D01*
X7484255Y9828509D01*
X7485136Y9827627D01*
X7485724Y9827333D01*
X7486018Y9827040D01*
X7489838Y9824395D01*
X7493659Y9822337D01*
X7497479Y9820280D01*
X7501594Y9818811D01*
X7509528Y9816166D01*
X7516875Y9814403D01*
X7520108Y9813815D01*
X7523341Y9813521D01*
X7525985Y9813227D01*
X7528336Y9812933D01*
X7530394Y9812640D01*
X7533039D01*
X7539798Y9812933D01*
X7546263Y9813815D01*
X7552434Y9814991D01*
X7558312Y9816754D01*
X7563896Y9818517D01*
X7568892Y9820868D01*
X7573594Y9822925D01*
X7577708Y9825570D01*
X7581528Y9827921D01*
X7585055Y9830272D01*
X7587994Y9832329D01*
X7590345Y9834093D01*
X7592108Y9835856D01*
X7593577Y9837031D01*
X7594459Y9837913D01*
X7594753Y9838207D01*
X7599161Y9843203D01*
X7602981Y9848786D01*
X7606508Y9854664D01*
X7609447Y9860835D01*
X7612092Y9867007D01*
X7614149Y9873178D01*
X7616206Y9879056D01*
X7617675Y9885227D01*
X7618851Y9890811D01*
X7620026Y9895807D01*
X7620614Y9900509D01*
X7621202Y9904623D01*
X7621790Y9907856D01*
Y9910501D01*
X7622084Y9911970D01*
Y9912558D01*
X7402263D01*
Y9915791D01*
X7401969Y9918436D01*
Y9920493D01*
Y9922550D01*
Y9924019D01*
Y9924901D01*
Y9925489D01*
Y9925783D01*
X7402263Y9939007D01*
X7403438Y9951644D01*
X7405495Y9963399D01*
X7407847Y9974272D01*
X7410785Y9984264D01*
X7413724Y9993668D01*
X7417251Y10002191D01*
X7420777Y10009832D01*
X7424303Y10016591D01*
X7427536Y10022468D01*
X7430769Y10027464D01*
X7433708Y10031579D01*
X7436059Y10034811D01*
X7437822Y10037162D01*
X7439291Y10038338D01*
X7439585Y10038926D01*
X7446932Y10045979D01*
X7454573Y10052150D01*
X7462214Y10057734D01*
X7470442Y10062142D01*
X7478377Y10066256D01*
X7486606Y10069489D01*
X7494246Y10072134D01*
X7501887Y10074191D01*
X7508940Y10075954D01*
X7515406Y10077130D01*
X7520989Y10078011D01*
X7526279Y10078599D01*
X7530393Y10078893D01*
X7533332Y10079187D01*
X7535977D01*
X7547144Y10078599D01*
D02*
G37*
G36*
X6442163Y10078599D02*
X6452743Y10077423D01*
X6462735Y10075366D01*
X6472433Y10072721D01*
X6481249Y10069783D01*
X6489184Y10066256D01*
X6496824Y10062436D01*
X6503584Y10058615D01*
X6509755Y10054795D01*
X6515045Y10050974D01*
X6519453Y10047742D01*
X6523273Y10044509D01*
X6526506Y10041864D01*
X6528563Y10039807D01*
X6529739Y10038631D01*
X6530327Y10038044D01*
X6537086Y10030109D01*
X6542963Y10021293D01*
X6547959Y10012182D01*
X6552368Y10002778D01*
X6556188Y9993080D01*
X6559127Y9983382D01*
X6561772Y9973978D01*
X6563829Y9965162D01*
X6565298Y9956346D01*
X6566474Y9948411D01*
X6567355Y9941358D01*
X6567943Y9935186D01*
X6568237Y9932248D01*
Y9929897D01*
Y9927839D01*
X6568531Y9926076D01*
Y9924607D01*
Y9923725D01*
Y9923137D01*
Y9922844D01*
X6568237Y9909619D01*
X6566768Y9897276D01*
X6565004Y9885815D01*
X6562653Y9874941D01*
X6559715Y9864950D01*
X6556482Y9855839D01*
X6553249Y9847611D01*
X6549723Y9839970D01*
X6546196Y9833211D01*
X6542670Y9827627D01*
X6539731Y9822631D01*
X6536792Y9818517D01*
X6534441Y9815284D01*
X6532384Y9812933D01*
X6531208Y9811758D01*
X6530915Y9811170D01*
X6523568Y9804117D01*
X6515633Y9797945D01*
X6507404Y9792656D01*
X6498882Y9788247D01*
X6490359Y9784427D01*
X6481837Y9781194D01*
X6473314Y9778549D01*
X6465380Y9776492D01*
X6457739Y9774729D01*
X6450686Y9773553D01*
X6444514Y9772672D01*
X6438931Y9772084D01*
X6434523Y9771790D01*
X6432759D01*
X6431290Y9771496D01*
X6428351D01*
X6418947Y9771790D01*
X6409837Y9772672D01*
X6401314Y9773847D01*
X6393380Y9775317D01*
X6386033Y9777374D01*
X6378980Y9779431D01*
X6372808Y9781782D01*
X6366931Y9784133D01*
X6361641Y9786190D01*
X6357233Y9788541D01*
X6353118Y9790598D01*
X6349886Y9792656D01*
X6347241Y9794125D01*
X6345478Y9795300D01*
X6344302Y9796182D01*
X6344008Y9796476D01*
X6338131Y9801472D01*
X6332547Y9806762D01*
X6327551Y9812345D01*
X6323143Y9817929D01*
X6319029Y9823807D01*
X6315208Y9829684D01*
X6311975Y9835562D01*
X6309037Y9840852D01*
X6306392Y9846141D01*
X6304335Y9851137D01*
X6302571Y9855545D01*
X6301102Y9859366D01*
X6300220Y9862305D01*
X6299339Y9864656D01*
X6298751Y9866125D01*
Y9866713D01*
X6350180Y9873472D01*
X6352531Y9867594D01*
X6354882Y9862305D01*
X6357233Y9857309D01*
X6359878Y9852607D01*
X6362522Y9848492D01*
X6364873Y9844672D01*
X6367518Y9841439D01*
X6369869Y9838207D01*
X6372220Y9835562D01*
X6374278Y9833211D01*
X6376041Y9831447D01*
X6377804Y9829684D01*
X6379274Y9828509D01*
X6380155Y9827627D01*
X6380743Y9827333D01*
X6381037Y9827039D01*
X6384857Y9824394D01*
X6388678Y9822337D01*
X6392498Y9820280D01*
X6396612Y9818811D01*
X6404547Y9816166D01*
X6411894Y9814403D01*
X6415127Y9813815D01*
X6418359Y9813521D01*
X6421004Y9813227D01*
X6423355Y9812933D01*
X6425412Y9812639D01*
X6428057D01*
X6434816Y9812933D01*
X6441282Y9813815D01*
X6447453Y9814990D01*
X6453331Y9816754D01*
X6458914Y9818517D01*
X6463910Y9820868D01*
X6468612Y9822925D01*
X6472727Y9825570D01*
X6476547Y9827921D01*
X6480074Y9830272D01*
X6483012Y9832329D01*
X6485363Y9834092D01*
X6487127Y9835856D01*
X6488596Y9837031D01*
X6489478Y9837913D01*
X6489772Y9838207D01*
X6494180Y9843203D01*
X6498000Y9848786D01*
X6501527Y9854664D01*
X6504466Y9860835D01*
X6507110Y9867007D01*
X6509168Y9873178D01*
X6511225Y9879056D01*
X6512694Y9885227D01*
X6513870Y9890811D01*
X6515045Y9895807D01*
X6515633Y9900509D01*
X6516221Y9904623D01*
X6516808Y9907856D01*
Y9910501D01*
X6517102Y9911970D01*
Y9912558D01*
X6297282D01*
Y9915790D01*
X6296988Y9918435D01*
Y9920492D01*
Y9922550D01*
Y9924019D01*
Y9924901D01*
Y9925488D01*
Y9925782D01*
X6297282Y9939007D01*
X6298457Y9951644D01*
X6300514Y9963399D01*
X6302865Y9974272D01*
X6305804Y9984264D01*
X6308743Y9993668D01*
X6312269Y10002191D01*
X6315796Y10009831D01*
X6319322Y10016591D01*
X6322555Y10022468D01*
X6325787Y10027464D01*
X6328726Y10031578D01*
X6331077Y10034811D01*
X6332841Y10037162D01*
X6334310Y10038338D01*
X6334604Y10038925D01*
X6341951Y10045978D01*
X6349592Y10052150D01*
X6357232Y10057734D01*
X6365461Y10062142D01*
X6373396Y10066256D01*
X6381624Y10069489D01*
X6389265Y10072134D01*
X6396906Y10074191D01*
X6403959Y10075954D01*
X6410424Y10077129D01*
X6416008Y10078011D01*
X6421298Y10078599D01*
X6425412Y10078893D01*
X6428351Y10079187D01*
X6430996D01*
X6442163Y10078599D01*
D02*
G37*
G36*
X12038188Y9777963D02*
X11984409D01*
Y9958698D01*
X11914760D01*
X11908588Y9958404D01*
X11903298Y9958110D01*
X11899184Y9957816D01*
X11896245Y9957228D01*
X11893894Y9956934D01*
X11892425Y9956640D01*
X11892131D01*
X11887429Y9955171D01*
X11883021Y9953702D01*
X11878906Y9951645D01*
X11875380Y9949881D01*
X11872147Y9948412D01*
X11869796Y9946943D01*
X11868327Y9946061D01*
X11867739Y9945767D01*
X11863037Y9942534D01*
X11858335Y9938420D01*
X11853927Y9933718D01*
X11849519Y9929310D01*
X11845992Y9925196D01*
X11843053Y9921669D01*
X11841878Y9920200D01*
X11840996Y9919318D01*
X11840702Y9918730D01*
X11840408Y9918436D01*
X11837470Y9914616D01*
X11834237Y9910502D01*
X11827772Y9901685D01*
X11821306Y9892281D01*
X11815135Y9883171D01*
X11812490Y9879057D01*
X11809845Y9875236D01*
X11807494Y9871710D01*
X11805437Y9868477D01*
X11803968Y9866126D01*
X11802792Y9864069D01*
X11801910Y9862893D01*
X11801616Y9862600D01*
X11747837Y9777963D01*
X11680539D01*
X11750776Y9888461D01*
X11758710Y9900216D01*
X11762825Y9905506D01*
X11766645Y9910796D01*
X11770465Y9915498D01*
X11774286Y9919906D01*
X11777812Y9924020D01*
X11781045Y9927840D01*
X11783984Y9931367D01*
X11786923Y9934306D01*
X11789274Y9936657D01*
X11791331Y9939008D01*
X11793094Y9940477D01*
X11794270Y9941947D01*
X11795151Y9942534D01*
X11795445Y9942828D01*
X11800147Y9946649D01*
X11805143Y9950175D01*
X11810433Y9953702D01*
X11815723Y9956640D01*
X11820425Y9959285D01*
X11822482Y9960461D01*
X11824245Y9961343D01*
X11825714Y9962224D01*
X11826890Y9962518D01*
X11827478Y9963106D01*
X11827772D01*
X11817192Y9964869D01*
X11807200Y9966926D01*
X11798090Y9969571D01*
X11789567Y9972216D01*
X11781927Y9975449D01*
X11774580Y9978387D01*
X11768408Y9981620D01*
X11762531Y9984853D01*
X11757535Y9988085D01*
X11753420Y9991024D01*
X11749600Y9993669D01*
X11746661Y9996020D01*
X11744310Y9998077D01*
X11742547Y9999547D01*
X11741665Y10000428D01*
X11741371Y10000722D01*
X11736376Y10006306D01*
X11731967Y10012477D01*
X11728147Y10018355D01*
X11724914Y10024526D01*
X11722269Y10030698D01*
X11719918Y10036869D01*
X11718155Y10042747D01*
X11716685Y10048330D01*
X11715510Y10053620D01*
X11714628Y10058322D01*
X11714041Y10062730D01*
X11713453Y10066257D01*
Y10069490D01*
X11713159Y10071841D01*
Y10073016D01*
Y10073604D01*
X11713453Y10079775D01*
X11713747Y10085947D01*
X11714628Y10091824D01*
X11715804Y10097408D01*
X11716979Y10102698D01*
X11718449Y10107694D01*
X11720212Y10112396D01*
X11721681Y10116804D01*
X11723151Y10120624D01*
X11724914Y10124151D01*
X11726383Y10127384D01*
X11727559Y10130029D01*
X11728734Y10132086D01*
X11729322Y10133555D01*
X11729910Y10134437D01*
X11730204Y10134731D01*
X11733437Y10139726D01*
X11736963Y10144429D01*
X11740783Y10148543D01*
X11744310Y10152657D01*
X11748130Y10156184D01*
X11751951Y10159416D01*
X11755771Y10162061D01*
X11759298Y10164706D01*
X11762530Y10166763D01*
X11765763Y10168527D01*
X11768408Y10170290D01*
X11770759Y10171465D01*
X11772816Y10172347D01*
X11774286Y10172935D01*
X11775167Y10173522D01*
X11775461D01*
X11781045Y10175580D01*
X11787216Y10177343D01*
X11793682Y10178812D01*
X11800147Y10179988D01*
X11813959Y10182045D01*
X11820718Y10182633D01*
X11827184Y10183220D01*
X11833649Y10183808D01*
X11839233Y10184102D01*
X11844522Y10184396D01*
X11849224D01*
X11852751Y10184690D01*
X12038188D01*
X12038188Y9777963D01*
D02*
G37*
G36*
X11034889Y9777962D02*
X10984930D01*
X10984929Y10072722D01*
X11034889D01*
X11034889Y9777962D01*
D02*
G37*
G36*
X10624635D02*
X10574676D01*
X10574676Y10072722D01*
X10624635D01*
X10624635Y9777962D01*
D02*
G37*
G36*
X10055393Y10078600D02*
X10065973Y10077130D01*
X10075671Y10074779D01*
X10084781Y10071547D01*
X10093303Y10068020D01*
X10100944Y10063906D01*
X10107997Y10059498D01*
X10114169Y10055089D01*
X10119752Y10050387D01*
X10124454Y10045979D01*
X10128569Y10041865D01*
X10132095Y10038338D01*
X10134446Y10035106D01*
X10136503Y10032755D01*
X10137679Y10031285D01*
X10137973Y10030697D01*
Y10072722D01*
X10182936D01*
X10182936Y9777962D01*
X10132977D01*
Y9938714D01*
X10132683Y9948999D01*
X10132096Y9958404D01*
X10130920Y9966926D01*
X10129451Y9974567D01*
X10127687Y9981620D01*
X10125630Y9988085D01*
X10123573Y9993669D01*
X10121516Y9998371D01*
X10119459Y10002779D01*
X10117402Y10006306D01*
X10115344Y10009244D01*
X10113581Y10011595D01*
X10112112Y10013359D01*
X10110936Y10014828D01*
X10110348Y10015416D01*
X10110054Y10015710D01*
X10105646Y10019236D01*
X10100944Y10022469D01*
X10096242Y10025114D01*
X10091540Y10027465D01*
X10086838Y10029522D01*
X10082430Y10030991D01*
X10078022Y10032461D01*
X10073614Y10033342D01*
X10069793Y10034224D01*
X10066267Y10034812D01*
X10063034Y10035400D01*
X10060095Y10035693D01*
X10058038Y10035987D01*
X10054805D01*
X10047458Y10035693D01*
X10040993Y10034518D01*
X10035116Y10033049D01*
X10029826Y10031579D01*
X10025711Y10029816D01*
X10022773Y10028346D01*
X10021597Y10027759D01*
X10020716Y10027171D01*
X10020422Y10026877D01*
X10020128D01*
X10014838Y10023351D01*
X10010430Y10019236D01*
X10006903Y10015122D01*
X10003964Y10011302D01*
X10001908Y10007775D01*
X10000438Y10005130D01*
X9999850Y10003955D01*
X9999557Y10003073D01*
X9999263Y10002779D01*
Y10002485D01*
X9998087Y9999546D01*
X9997206Y9996314D01*
X9995736Y9988967D01*
X9994855Y9981620D01*
X9993973Y9973979D01*
Y9970746D01*
X9993679Y9967513D01*
Y9964575D01*
X9993385Y9961930D01*
Y9959873D01*
Y9958403D01*
Y9957228D01*
Y9956934D01*
Y9777962D01*
X9943426D01*
Y9958991D01*
Y9965162D01*
Y9971040D01*
X9943720Y9976330D01*
X9944014Y9981326D01*
Y9985734D01*
X9944308Y9989554D01*
X9944601Y9993081D01*
X9944895Y9996314D01*
X9945189Y9998958D01*
X9945483Y10001309D01*
X9945777Y10003367D01*
Y10004836D01*
X9946071Y10006011D01*
X9946365Y10006893D01*
Y10007187D01*
Y10007481D01*
X9948422Y10015122D01*
X9950773Y10022175D01*
X9953124Y10028640D01*
X9955769Y10033930D01*
X9958120Y10038338D01*
X9959295Y10040101D01*
X9960177Y10041571D01*
X9960764Y10042746D01*
X9961352Y10043628D01*
X9961940Y10043922D01*
Y10044216D01*
X9966642Y10049799D01*
X9971932Y10054795D01*
X9977515Y10059203D01*
X9982805Y10062730D01*
X9987801Y10065669D01*
X9989858Y10066844D01*
X9991622Y10067726D01*
X9993385Y10068607D01*
X9994560Y10069196D01*
X9995148Y10069489D01*
X9995442D01*
X10003964Y10072722D01*
X10012487Y10075073D01*
X10020716Y10076836D01*
X10028062Y10078012D01*
X10031589Y10078306D01*
X10034528Y10078600D01*
X10037467Y10078893D01*
X10039818Y10079187D01*
X10044226D01*
X10055393Y10078600D01*
D02*
G37*
G36*
X9704797Y9777962D02*
X9542870D01*
X9535817Y9778256D01*
X9529352Y9778550D01*
X9523180Y9779138D01*
X9517597Y9779432D01*
X9512013Y9780019D01*
X9507017Y9780607D01*
X9502609Y9781489D01*
X9498495Y9782076D01*
X9494968Y9782664D01*
X9491735Y9783252D01*
X9489090Y9783546D01*
X9487033Y9784134D01*
X9485564Y9784427D01*
X9484682Y9784721D01*
X9484388D01*
X9474690Y9787660D01*
X9466168Y9790599D01*
X9458527Y9794125D01*
X9455295Y9795595D01*
X9452062Y9797358D01*
X9449417Y9798827D01*
X9447066Y9800297D01*
X9445009Y9801472D01*
X9443246Y9802648D01*
X9441776Y9803530D01*
X9440895Y9804117D01*
X9440307Y9804705D01*
X9440013D01*
X9433548Y9809995D01*
X9427964Y9816166D01*
X9422968Y9822338D01*
X9418560Y9828509D01*
X9415033Y9833799D01*
X9413564Y9836150D01*
X9412388Y9838207D01*
X9411507Y9839970D01*
X9410919Y9841146D01*
X9410331Y9842028D01*
Y9842321D01*
X9406217Y9851726D01*
X9403278Y9861130D01*
X9400927Y9870240D01*
X9399458Y9878468D01*
X9398870Y9881995D01*
X9398576Y9885522D01*
X9398282Y9888460D01*
Y9890811D01*
X9397988Y9892868D01*
Y9894632D01*
Y9895513D01*
Y9895807D01*
X9398282Y9902273D01*
X9398870Y9908444D01*
X9399752Y9914615D01*
X9401221Y9920199D01*
X9402690Y9925783D01*
X9404160Y9930779D01*
X9406217Y9935481D01*
X9407980Y9939889D01*
X9409743Y9943709D01*
X9411507Y9947236D01*
X9413270Y9950175D01*
X9414739Y9952526D01*
X9416209Y9954583D01*
X9417090Y9956052D01*
X9417678Y9956934D01*
X9417972Y9957228D01*
X9421792Y9961930D01*
X9425907Y9966338D01*
X9430609Y9970452D01*
X9435017Y9973979D01*
X9439719Y9977505D01*
X9444421Y9980444D01*
X9449123Y9983089D01*
X9453825Y9985440D01*
X9457939Y9987791D01*
X9462054Y9989554D01*
X9465580Y9991024D01*
X9468519Y9992199D01*
X9471164Y9993081D01*
X9472927Y9993669D01*
X9474397Y9994256D01*
X9474690D01*
X9469401Y9996901D01*
X9464699Y9999840D01*
X9460290Y10002779D01*
X9455882Y10006011D01*
X9452062Y10009244D01*
X9448535Y10012183D01*
X9445596Y10015122D01*
X9442658Y10018060D01*
X9440306Y10020705D01*
X9437955Y10023350D01*
X9436192Y10025407D01*
X9434723Y10027465D01*
X9433547Y10029228D01*
X9432666Y10030403D01*
X9432372Y10030991D01*
X9432078Y10031285D01*
X9429433Y10035693D01*
X9427376Y10040101D01*
X9425319Y10044216D01*
X9423849Y10048624D01*
X9421204Y10056852D01*
X9419441Y10064493D01*
X9418853Y10067726D01*
X9418560Y10070959D01*
X9417972Y10073603D01*
Y10075954D01*
X9417678Y10077718D01*
Y10079187D01*
Y10080069D01*
Y10080363D01*
X9417972Y10085652D01*
X9418266Y10090648D01*
X9420323Y10100640D01*
X9422674Y10109750D01*
X9424143Y10113865D01*
X9425613Y10117979D01*
X9427376Y10121506D01*
X9428845Y10124444D01*
X9430021Y10127383D01*
X9431196Y10129734D01*
X9432372Y10131497D01*
X9433253Y10132967D01*
X9433547Y10133848D01*
X9433841Y10134142D01*
X9437074Y10138844D01*
X9440306Y10143253D01*
X9443833Y10147073D01*
X9447360Y10150893D01*
X9451180Y10154420D01*
X9454707Y10157359D01*
X9458233Y10160297D01*
X9461760Y10162648D01*
X9464992Y10164999D01*
X9468225Y10166763D01*
X9470870Y10168526D01*
X9473221Y10169702D01*
X9475278Y10170877D01*
X9476747Y10171465D01*
X9477629Y10172053D01*
X9477923D01*
X9483213Y10174404D01*
X9489090Y10176167D01*
X9501433Y10179400D01*
X9513776Y10181751D01*
X9519947Y10182338D01*
X9525825Y10183220D01*
X9531115Y10183514D01*
X9536405Y10184102D01*
X9540813Y10184395D01*
X9544927D01*
X9548160Y10184689D01*
X9704797D01*
X9704797Y9777962D01*
D02*
G37*
G36*
X6134473Y10078893D02*
X6140350Y10077717D01*
X6145640Y10075954D01*
X6150636Y10074191D01*
X6154457Y10072134D01*
X6157395Y10070664D01*
X6158571Y10069783D01*
X6159453Y10069489D01*
X6159746Y10068901D01*
X6160040D01*
X6162685Y10066844D01*
X6165624Y10064199D01*
X6168269Y10061260D01*
X6170914Y10058321D01*
X6176204Y10051268D01*
X6181199Y10044509D01*
X6185314Y10038044D01*
X6187077Y10035105D01*
X6188546Y10032460D01*
X6189722Y10030403D01*
X6190604Y10028933D01*
X6191191Y10027758D01*
X6191485Y10027464D01*
Y10072721D01*
X6236449D01*
X6236449Y9777962D01*
X6186490D01*
Y9931954D01*
X6186196Y9943709D01*
X6185314Y9954582D01*
X6184432Y9959578D01*
X6183845Y9964280D01*
X6183257Y9968688D01*
X6182375Y9973097D01*
X6181494Y9976623D01*
X6180906Y9980150D01*
X6180024Y9983088D01*
X6179436Y9985440D01*
X6179143Y9987497D01*
X6178555Y9988966D01*
X6178261Y9989848D01*
Y9990142D01*
X6175910Y9996313D01*
X6172971Y10001897D01*
X6170032Y10006599D01*
X6166799Y10010419D01*
X6164155Y10013358D01*
X6161804Y10015709D01*
X6160334Y10016884D01*
X6159746Y10017472D01*
X6154750Y10020705D01*
X6149755Y10023350D01*
X6144759Y10025113D01*
X6140350Y10026289D01*
X6136530Y10026876D01*
X6133297Y10027464D01*
X6130652D01*
X6123893Y10026876D01*
X6117134Y10025701D01*
X6110963Y10024231D01*
X6105673Y10022174D01*
X6100971Y10020117D01*
X6098914Y10019235D01*
X6097444Y10018648D01*
X6095975Y10017766D01*
X6095093Y10017472D01*
X6094505Y10016884D01*
X6094212D01*
X6076579Y10063023D01*
X6081575Y10065962D01*
X6086277Y10068313D01*
X6090979Y10070664D01*
X6095681Y10072427D01*
X6104203Y10075366D01*
X6108318Y10076248D01*
X6112138Y10077129D01*
X6115665Y10077717D01*
X6118603Y10078305D01*
X6121248Y10078599D01*
X6123599Y10078893D01*
X6125363Y10079187D01*
X6128008D01*
X6134473Y10078893D01*
D02*
G37*
G36*
X10820945Y10078893D02*
X10828880Y10078306D01*
X10836227Y10077130D01*
X10842692Y10076249D01*
X10845337Y10075661D01*
X10847982Y10075073D01*
X10850333Y10074485D01*
X10852096Y10073898D01*
X10853566Y10073604D01*
X10854741Y10073310D01*
X10855329Y10073016D01*
X10855623D01*
X10862676Y10070665D01*
X10869141Y10068314D01*
X10874431Y10065963D01*
X10878839Y10063612D01*
X10882660Y10061555D01*
X10885305Y10060085D01*
X10886774Y10058910D01*
X10887362Y10058616D01*
X10892945Y10054208D01*
X10897647Y10049506D01*
X10902056Y10044804D01*
X10905582Y10040395D01*
X10908227Y10036575D01*
X10910284Y10033636D01*
X10911166Y10032461D01*
X10911754Y10031579D01*
X10912048Y10030991D01*
Y10030697D01*
X10914986Y10024232D01*
X10917043Y10018061D01*
X10918807Y10011889D01*
X10919689Y10006306D01*
X10920276Y10001310D01*
X10920570Y9999253D01*
Y9997489D01*
X10920864Y9996314D01*
Y9995138D01*
Y9994550D01*
Y9994257D01*
X10920276Y9986322D01*
X10919101Y9978975D01*
X10917338Y9972216D01*
X10915280Y9966338D01*
X10914399Y9963693D01*
X10913517Y9961342D01*
X10912636Y9959285D01*
X10911754Y9957816D01*
X10910872Y9956346D01*
X10910578Y9955465D01*
X10909991Y9954877D01*
Y9954583D01*
X10905582Y9948118D01*
X10900293Y9942534D01*
X10895003Y9937832D01*
X10890007Y9934012D01*
X10885305Y9930779D01*
X10883248Y9929603D01*
X10881484Y9928428D01*
X10880015Y9927840D01*
X10878840Y9927252D01*
X10878252Y9926665D01*
X10877958D01*
X10873550Y9924901D01*
X10868554Y9922844D01*
X10862970Y9920787D01*
X10857093Y9918730D01*
X10844456Y9914616D01*
X10831819Y9910795D01*
X10825648Y9909032D01*
X10820064Y9907563D01*
X10815068Y9906093D01*
X10810366Y9904918D01*
X10806839Y9904036D01*
X10803901Y9903154D01*
X10802137Y9902861D01*
X10801844Y9902567D01*
X10801550D01*
X10794203Y9900803D01*
X10787443Y9899040D01*
X10781566Y9897277D01*
X10776276Y9895807D01*
X10771574Y9894338D01*
X10767166Y9892869D01*
X10763639Y9891693D01*
X10760407Y9890518D01*
X10758056Y9889342D01*
X10755705Y9888461D01*
X10753941Y9887579D01*
X10752472Y9886991D01*
X10751590Y9886403D01*
X10751003Y9886110D01*
X10750415Y9885816D01*
X10747770Y9884052D01*
X10745419Y9881995D01*
X10743362Y9879644D01*
X10741599Y9877587D01*
X10738954Y9873179D01*
X10737190Y9869065D01*
X10736309Y9865244D01*
X10735721Y9862012D01*
X10735427Y9861130D01*
Y9860248D01*
Y9859660D01*
Y9859367D01*
X10735721Y9855840D01*
X10736015Y9852607D01*
X10736896Y9849375D01*
X10738072Y9846436D01*
X10740717Y9840558D01*
X10743656Y9835856D01*
X10746888Y9832036D01*
X10749533Y9829097D01*
X10750709Y9827922D01*
X10751590Y9827040D01*
X10751884Y9826746D01*
X10752178Y9826452D01*
X10755411Y9824101D01*
X10759231Y9822044D01*
X10767166Y9818518D01*
X10775688Y9816167D01*
X10783917Y9814403D01*
X10788031Y9813816D01*
X10791558Y9813522D01*
X10794790Y9812934D01*
X10797729D01*
X10800080Y9812640D01*
X10803313D01*
X10809484Y9812934D01*
X10815362Y9813228D01*
X10820946Y9814109D01*
X10826235Y9814991D01*
X10830937Y9816167D01*
X10835346Y9817636D01*
X10839460Y9819105D01*
X10842986Y9820575D01*
X10846219Y9821750D01*
X10848864Y9823220D01*
X10851215Y9824689D01*
X10853272Y9825865D01*
X10854742Y9826746D01*
X10855917Y9827628D01*
X10856505Y9827922D01*
X10856799Y9828216D01*
X10860031Y9831448D01*
X10863264Y9834681D01*
X10865909Y9838207D01*
X10868260Y9842028D01*
X10872374Y9849669D01*
X10875313Y9857016D01*
X10876489Y9860248D01*
X10877370Y9863481D01*
X10878252Y9866420D01*
X10878840Y9868771D01*
X10879133Y9870828D01*
X10879427Y9872591D01*
X10879721Y9873473D01*
Y9873767D01*
X10929093Y9866126D01*
X10927329Y9857603D01*
X10924978Y9849669D01*
X10922627Y9842028D01*
X10919689Y9835269D01*
X10916456Y9828803D01*
X10913517Y9822926D01*
X10909991Y9817930D01*
X10906758Y9813228D01*
X10903819Y9808820D01*
X10900880Y9805293D01*
X10897942Y9802354D01*
X10895591Y9799709D01*
X10893827Y9797946D01*
X10892064Y9796477D01*
X10891182Y9795595D01*
X10890889Y9795301D01*
X10885011Y9791187D01*
X10878546Y9787367D01*
X10871493Y9784134D01*
X10864440Y9781489D01*
X10857093Y9779138D01*
X10849746Y9777375D01*
X10842693Y9775611D01*
X10835639Y9774436D01*
X10828880Y9773554D01*
X10822709Y9772673D01*
X10817419Y9772379D01*
X10812423Y9771791D01*
X10808603D01*
X10805664Y9771497D01*
X10803019D01*
X10790382Y9772085D01*
X10778627Y9773260D01*
X10773337Y9774436D01*
X10768048Y9775318D01*
X10763346Y9776493D01*
X10758937Y9777669D01*
X10755117Y9778550D01*
X10751590Y9779726D01*
X10748358Y9780901D01*
X10745713Y9781783D01*
X10743656Y9782371D01*
X10742186Y9782958D01*
X10741305Y9783546D01*
X10741011D01*
X10736015Y9785897D01*
X10731313Y9788542D01*
X10726905Y9791187D01*
X10722790Y9793832D01*
X10718970Y9796771D01*
X10715443Y9799709D01*
X10712211Y9802354D01*
X10709566Y9804999D01*
X10706921Y9807644D01*
X10704864Y9809995D01*
X10702807Y9812052D01*
X10701337Y9814109D01*
X10700162Y9815579D01*
X10699280Y9816754D01*
X10698986Y9817342D01*
X10698692Y9817636D01*
X10696047Y9821750D01*
X10693696Y9825865D01*
X10691933Y9830273D01*
X10690170Y9834387D01*
X10687525Y9842322D01*
X10685762Y9849375D01*
X10685174Y9852607D01*
X10684880Y9855546D01*
X10684292Y9858191D01*
Y9860542D01*
X10683998Y9862305D01*
Y9863481D01*
Y9864363D01*
Y9864656D01*
X10684586Y9873767D01*
X10685762Y9881995D01*
X10687819Y9889048D01*
X10688994Y9892281D01*
X10689876Y9895220D01*
X10691052Y9897865D01*
X10692227Y9900216D01*
X10693109Y9902273D01*
X10694284Y9904036D01*
X10694872Y9905212D01*
X10695460Y9906093D01*
X10696047Y9906681D01*
Y9906975D01*
X10701043Y9913146D01*
X10706333Y9918436D01*
X10711623Y9922844D01*
X10716913Y9926665D01*
X10721615Y9929603D01*
X10723672Y9930779D01*
X10725435Y9931661D01*
X10726905Y9932542D01*
X10728080Y9933130D01*
X10728668Y9933424D01*
X10728962D01*
X10733370Y9935187D01*
X10738072Y9936950D01*
X10743656Y9939008D01*
X10749239Y9940771D01*
X10761582Y9944885D01*
X10773925Y9948412D01*
X10779509Y9950175D01*
X10785092Y9951644D01*
X10790088Y9953114D01*
X10794497Y9954289D01*
X10798023Y9955171D01*
X10800668Y9956052D01*
X10802431Y9956346D01*
X10802725Y9956640D01*
X10803019D01*
X10809484Y9958404D01*
X10815656Y9960167D01*
X10820946Y9961636D01*
X10825648Y9962812D01*
X10829762Y9963987D01*
X10833288Y9965163D01*
X10836521Y9966044D01*
X10839166Y9966632D01*
X10841223Y9967514D01*
X10842986Y9967808D01*
X10844456Y9968395D01*
X10845631Y9968689D01*
X10846513Y9968983D01*
X10847101Y9969277D01*
X10847395D01*
X10852097Y9971334D01*
X10855917Y9973685D01*
X10859444Y9975742D01*
X10862089Y9977799D01*
X10864146Y9979857D01*
X10865615Y9981326D01*
X10866497Y9982208D01*
X10866791Y9982501D01*
X10868848Y9985440D01*
X10870317Y9988673D01*
X10871199Y9991612D01*
X10871786Y9994257D01*
X10872374Y9996608D01*
X10872668Y9998371D01*
Y9999840D01*
Y10000134D01*
X10872374Y10002779D01*
X10872080Y10005718D01*
X10870317Y10010714D01*
X10867966Y10015122D01*
X10865321Y10018942D01*
X10862676Y10022175D01*
X10860325Y10024526D01*
X10858562Y10025995D01*
X10858268Y10026583D01*
X10857974D01*
X10855035Y10028640D01*
X10851509Y10030404D01*
X10847982Y10031873D01*
X10844162Y10033342D01*
X10835933Y10035400D01*
X10827705Y10036575D01*
X10823884Y10037163D01*
X10820358Y10037457D01*
X10817125Y10037751D01*
X10814186D01*
X10811835Y10038044D01*
X10803313D01*
X10798317Y10037457D01*
X10793615Y10036869D01*
X10789207Y10035987D01*
X10785386Y10035106D01*
X10781566Y10033930D01*
X10778333Y10032755D01*
X10775100Y10031579D01*
X10772455Y10030404D01*
X10770104Y10029228D01*
X10768341Y10028053D01*
X10766578Y10027171D01*
X10765402Y10026289D01*
X10764227Y10025702D01*
X10763933Y10025408D01*
X10763639Y10025114D01*
X10760700Y10022763D01*
X10758055Y10020118D01*
X10753647Y10014240D01*
X10750415Y10008363D01*
X10747770Y10002779D01*
X10746007Y9997783D01*
X10745125Y9995432D01*
X10744831Y9993669D01*
X10744243Y9991906D01*
Y9990730D01*
X10743950Y9990142D01*
Y9989848D01*
X10695166Y9996608D01*
X10697223Y10006893D01*
X10698692Y10011302D01*
X10700161Y10015710D01*
X10701337Y10019824D01*
X10702806Y10023644D01*
X10704276Y10026877D01*
X10705745Y10030110D01*
X10707215Y10032755D01*
X10708390Y10035400D01*
X10709566Y10037457D01*
X10710741Y10038926D01*
X10711623Y10040395D01*
X10712210Y10041277D01*
X10712504Y10041865D01*
X10712798Y10042159D01*
X10715149Y10045391D01*
X10718088Y10048330D01*
X10723966Y10053620D01*
X10730431Y10058322D01*
X10736602Y10062142D01*
X10742480Y10065081D01*
X10744831Y10066257D01*
X10746888Y10067432D01*
X10748651Y10068314D01*
X10750121Y10068608D01*
X10751002Y10069196D01*
X10751296D01*
X10761288Y10072428D01*
X10771868Y10075073D01*
X10782153Y10076836D01*
X10787149Y10077424D01*
X10791558Y10078012D01*
X10795966Y10078306D01*
X10800080Y10078600D01*
X10803607Y10078893D01*
X10806545Y10079187D01*
X10812423D01*
X10820945Y10078893D01*
D02*
G37*
G36*
X10389532D02*
X10399230Y10077718D01*
X10408341Y10076249D01*
X10416863Y10074191D01*
X10425092Y10071547D01*
X10432733Y10068902D01*
X10439786Y10065669D01*
X10446251Y10062730D01*
X10452128Y10059791D01*
X10457124Y10056559D01*
X10461533Y10053914D01*
X10465353Y10051563D01*
X10468292Y10049212D01*
X10470349Y10047742D01*
X10471524Y10046567D01*
X10472112Y10046273D01*
X10480047Y10038338D01*
X10487100Y10029816D01*
X10492977Y10020412D01*
X10498267Y10010714D01*
X10502676Y10000722D01*
X10506202Y9990730D01*
X10509435Y9980738D01*
X10511786Y9971040D01*
X10513549Y9961636D01*
X10515019Y9953114D01*
X10515900Y9945473D01*
X10516488Y9941946D01*
X10516782Y9938714D01*
Y9935775D01*
X10517076Y9933130D01*
Y9930779D01*
X10517370Y9928722D01*
Y9927252D01*
Y9926077D01*
Y9925489D01*
Y9925195D01*
X10517076Y9911677D01*
X10515606Y9898746D01*
X10513843Y9886991D01*
X10511492Y9875824D01*
X10508553Y9865538D01*
X10505321Y9856134D01*
X10501794Y9847611D01*
X10498268Y9839971D01*
X10494741Y9833211D01*
X10491508Y9827334D01*
X10488276Y9822338D01*
X10485337Y9818224D01*
X10482986Y9814991D01*
X10481223Y9812640D01*
X10479753Y9811465D01*
X10479459Y9810877D01*
X10472112Y9803824D01*
X10464178Y9797946D01*
X10455949Y9792656D01*
X10447721Y9788248D01*
X10439492Y9784428D01*
X10430969Y9781195D01*
X10423035Y9778550D01*
X10415100Y9776493D01*
X10407753Y9774730D01*
X10400994Y9773554D01*
X10395116Y9772673D01*
X10389827Y9772085D01*
X10385418Y9771791D01*
X10383655D01*
X10382186Y9771497D01*
X10379541D01*
X10372194Y9771791D01*
X10365435Y9772379D01*
X10358675Y9773260D01*
X10351916Y9774436D01*
X10345745Y9775611D01*
X10339867Y9777081D01*
X10334578Y9778844D01*
X10329288Y9780607D01*
X10324880Y9782077D01*
X10320765Y9783840D01*
X10317239Y9785309D01*
X10314006Y9786779D01*
X10311655Y9787660D01*
X10309892Y9788542D01*
X10308716Y9789130D01*
X10308422Y9789424D01*
X10302545Y9792950D01*
X10296961Y9796771D01*
X10291671Y9800885D01*
X10286969Y9804999D01*
X10282561Y9809113D01*
X10278447Y9813228D01*
X10274626Y9817342D01*
X10271394Y9821456D01*
X10268455Y9825277D01*
X10265810Y9828803D01*
X10263753Y9831742D01*
X10261990Y9834681D01*
X10260520Y9836738D01*
X10259639Y9838501D01*
X10259051Y9839677D01*
X10258757Y9839971D01*
X10255818Y9846436D01*
X10252879Y9853195D01*
X10250822Y9860248D01*
X10248765Y9867595D01*
X10247002Y9875236D01*
X10245532Y9882583D01*
X10244357Y9889930D01*
X10243475Y9896983D01*
X10242888Y9903448D01*
X10242300Y9909620D01*
X10242006Y9915203D01*
X10241712Y9919905D01*
X10241418Y9923726D01*
Y9926959D01*
Y9927840D01*
Y9928722D01*
Y9929016D01*
Y9929310D01*
X10241712Y9942240D01*
X10243181Y9954289D01*
X10244945Y9965457D01*
X10247590Y9976036D01*
X10250528Y9986028D01*
X10253761Y9994844D01*
X10257288Y10003073D01*
X10260814Y10010714D01*
X10264340Y10017179D01*
X10267867Y10023057D01*
X10271100Y10027759D01*
X10274038Y10031873D01*
X10276683Y10035106D01*
X10278447Y10037457D01*
X10279622Y10038632D01*
X10280210Y10039220D01*
X10287557Y10046273D01*
X10295491Y10052444D01*
X10303720Y10057734D01*
X10311949Y10062436D01*
X10320177Y10066257D01*
X10328406Y10069489D01*
X10336634Y10072134D01*
X10344275Y10074191D01*
X10351622Y10075955D01*
X10358381Y10077130D01*
X10364259Y10078012D01*
X10369549Y10078600D01*
X10373663Y10078893D01*
X10375426Y10079187D01*
X10379541D01*
X10389532Y10078893D01*
D02*
G37*
G36*
X8686509Y10191449D02*
X8693856Y10191155D01*
X8700909Y10190567D01*
X8707963Y10189685D01*
X8714428Y10188510D01*
X8720599Y10187334D01*
X8726183Y10186159D01*
X8731473Y10184689D01*
X8736469Y10183514D01*
X8740877Y10182044D01*
X8744403Y10180869D01*
X8747636Y10179987D01*
X8750281Y10178812D01*
X8752044Y10178224D01*
X8753220Y10177930D01*
X8753514Y10177636D01*
X8759685Y10174991D01*
X8765269Y10172053D01*
X8770559Y10168820D01*
X8775554Y10165587D01*
X8780257Y10162061D01*
X8784371Y10158828D01*
X8788191Y10155302D01*
X8791424Y10152069D01*
X8794363Y10149130D01*
X8797008Y10146191D01*
X8799359Y10143840D01*
X8801122Y10141489D01*
X8802591Y10139726D01*
X8803473Y10138257D01*
X8804061Y10137375D01*
X8804355Y10137081D01*
X8807293Y10132085D01*
X8809938Y10126795D01*
X8812289Y10121799D01*
X8814346Y10116803D01*
X8816110Y10111808D01*
X8817579Y10107106D01*
X8818461Y10102697D01*
X8819636Y10098289D01*
X8820224Y10094175D01*
X8820812Y10090648D01*
X8821106Y10087416D01*
X8821399Y10084771D01*
X8821693Y10082420D01*
Y10080950D01*
Y10079775D01*
Y10079481D01*
X8821399Y10074191D01*
X8821106Y10069195D01*
X8819342Y10059791D01*
X8817285Y10051269D01*
X8815816Y10047448D01*
X8814640Y10043628D01*
X8813171Y10040395D01*
X8811995Y10037456D01*
X8810820Y10035105D01*
X8809644Y10033048D01*
X8808763Y10031285D01*
X8808175Y10030109D01*
X8807881Y10029228D01*
X8807587Y10028934D01*
X8804648Y10024820D01*
X8801710Y10020705D01*
X8794657Y10013358D01*
X8787604Y10006893D01*
X8780551Y10001603D01*
X8777024Y9999252D01*
X8774085Y9997195D01*
X8771147Y9995138D01*
X8768796Y9993669D01*
X8766738Y9992493D01*
X8765269Y9991611D01*
X8764387Y9991318D01*
X8764093Y9991024D01*
X8759391Y9988673D01*
X8754395Y9986616D01*
X8748518Y9984265D01*
X8742346Y9981913D01*
X8729416Y9977505D01*
X8716485Y9973685D01*
X8710608Y9971922D01*
X8704730Y9970452D01*
X8699440Y9968983D01*
X8695032Y9967807D01*
X8691212Y9966926D01*
X8688273Y9966044D01*
X8687391Y9965750D01*
X8686510D01*
X8686216Y9965456D01*
X8685922D01*
X8675930Y9963105D01*
X8666820Y9960754D01*
X8658297Y9958697D01*
X8650950Y9956640D01*
X8644191Y9954877D01*
X8638314Y9953407D01*
X8633318Y9951938D01*
X8628616Y9950469D01*
X8624795Y9949293D01*
X8621563Y9948411D01*
X8619212Y9947530D01*
X8617154Y9946942D01*
X8615391Y9946354D01*
X8614510Y9946060D01*
X8613922Y9945766D01*
X8613628D01*
X8608926Y9943709D01*
X8604812Y9941946D01*
X8600697Y9939889D01*
X8597171Y9937832D01*
X8593644Y9935775D01*
X8590705Y9933717D01*
X8588061Y9931660D01*
X8585710Y9929897D01*
X8583652Y9928134D01*
X8581889Y9926371D01*
X8578950Y9923726D01*
X8577481Y9921962D01*
X8576893Y9921668D01*
Y9921375D01*
X8573073Y9915791D01*
X8570134Y9910207D01*
X8568077Y9904624D01*
X8566901Y9899628D01*
X8566020Y9894926D01*
X8565726Y9893162D01*
Y9891399D01*
X8565432Y9889930D01*
Y9889048D01*
Y9888460D01*
Y9888166D01*
X8566020Y9881407D01*
X8567195Y9874648D01*
X8569252Y9868770D01*
X8571310Y9863775D01*
X8573367Y9859366D01*
X8574542Y9857603D01*
X8575424Y9856134D01*
X8576012Y9854958D01*
X8576599Y9854077D01*
X8577187Y9853489D01*
Y9853195D01*
X8581889Y9847611D01*
X8587473Y9842615D01*
X8593350Y9838207D01*
X8598934Y9834681D01*
X8604224Y9832036D01*
X8606281Y9830860D01*
X8608338Y9829979D01*
X8609808Y9829097D01*
X8610983Y9828509D01*
X8611865Y9828215D01*
X8612159D01*
X8621269Y9825277D01*
X8630379Y9822925D01*
X8639489Y9821456D01*
X8648012Y9820281D01*
X8651832Y9819987D01*
X8655359Y9819693D01*
X8658297Y9819399D01*
X8660942D01*
X8663293Y9819105D01*
X8666232D01*
X8678869Y9819693D01*
X8690624Y9820868D01*
X8696208Y9822044D01*
X8701204Y9822925D01*
X8706200Y9824101D01*
X8710608Y9825277D01*
X8714428Y9826158D01*
X8718249Y9827334D01*
X8721187Y9828509D01*
X8723832Y9829391D01*
X8725889Y9829979D01*
X8727653Y9830566D01*
X8728534Y9831154D01*
X8728828D01*
X8733824Y9833505D01*
X8738526Y9835856D01*
X8742934Y9838501D01*
X8746755Y9841146D01*
X8750575Y9843791D01*
X8753808Y9846436D01*
X8757040Y9849081D01*
X8759685Y9851432D01*
X8762036Y9853783D01*
X8764093Y9855840D01*
X8765857Y9857603D01*
X8767032Y9859366D01*
X8768208Y9860836D01*
X8769089Y9861717D01*
X8769383Y9862305D01*
X8769677Y9862599D01*
X8774085Y9870534D01*
X8777612Y9878762D01*
X8780551Y9887285D01*
X8782608Y9895219D01*
X8783489Y9899040D01*
X8784371Y9902273D01*
X8784959Y9905505D01*
X8785253Y9908150D01*
X8785840Y9910207D01*
Y9911677D01*
X8786134Y9912852D01*
Y9913146D01*
X8836975Y9908738D01*
X8836681Y9901097D01*
X8835800Y9893750D01*
X8834624Y9886697D01*
X8833155Y9879938D01*
X8831392Y9873766D01*
X8829628Y9867595D01*
X8827571Y9862011D01*
X8825514Y9856721D01*
X8823751Y9852019D01*
X8821694Y9847905D01*
X8819930Y9844379D01*
X8818167Y9841146D01*
X8816992Y9838795D01*
X8815816Y9837032D01*
X8815228Y9835856D01*
X8814934Y9835562D01*
X8810820Y9829685D01*
X8806412Y9824101D01*
X8801710Y9819105D01*
X8796714Y9814403D01*
X8792012Y9809995D01*
X8787016Y9805881D01*
X8782314Y9802354D01*
X8777612Y9799121D01*
X8773498Y9796476D01*
X8769383Y9793832D01*
X8765857Y9791774D01*
X8762624Y9790011D01*
X8759979Y9788836D01*
X8758216Y9787954D01*
X8756747Y9787366D01*
X8756453Y9787072D01*
X8749400Y9784427D01*
X8741759Y9781783D01*
X8734118Y9779725D01*
X8726183Y9777962D01*
X8710608Y9775023D01*
X8703261Y9774142D01*
X8696208Y9773260D01*
X8689448Y9772672D01*
X8683277Y9772085D01*
X8677693Y9771791D01*
X8672991Y9771497D01*
X8669171Y9771203D01*
X8663881D01*
X8655946Y9771497D01*
X8648012Y9771791D01*
X8640371Y9772672D01*
X8633318Y9773554D01*
X8626559Y9775023D01*
X8620093Y9776199D01*
X8613922Y9777668D01*
X8608338Y9779138D01*
X8603342Y9780607D01*
X8598934Y9782076D01*
X8595114Y9783546D01*
X8591881Y9784721D01*
X8589236Y9785603D01*
X8587179Y9786485D01*
X8586003Y9786778D01*
X8585710Y9787072D01*
X8579244Y9790305D01*
X8573367Y9793538D01*
X8567783Y9797064D01*
X8562787Y9800591D01*
X8558085Y9804411D01*
X8553677Y9808232D01*
X8549563Y9811758D01*
X8546036Y9815285D01*
X8542803Y9818517D01*
X8540158Y9821456D01*
X8537807Y9824395D01*
X8536044Y9826746D01*
X8534575Y9828803D01*
X8533399Y9830272D01*
X8532811Y9831154D01*
X8532518Y9831448D01*
X8529285Y9837031D01*
X8526346Y9842321D01*
X8523701Y9847905D01*
X8521644Y9853195D01*
X8519881Y9858484D01*
X8518411Y9863480D01*
X8516942Y9868476D01*
X8516060Y9872884D01*
X8515179Y9877293D01*
X8514591Y9881113D01*
X8514297Y9884346D01*
X8514003Y9887285D01*
X8513709Y9889636D01*
Y9891399D01*
Y9892574D01*
Y9892868D01*
X8514003Y9899040D01*
X8514297Y9904623D01*
X8515179Y9910207D01*
X8516354Y9915497D01*
X8517530Y9920787D01*
X8518999Y9925489D01*
X8520762Y9929897D01*
X8522232Y9934011D01*
X8523701Y9937538D01*
X8525465Y9940770D01*
X8526934Y9943709D01*
X8528109Y9946060D01*
X8529285Y9947823D01*
X8529873Y9949293D01*
X8530460Y9950174D01*
X8530754Y9950468D01*
X8534281Y9955170D01*
X8537807Y9959579D01*
X8546036Y9967807D01*
X8554852Y9974860D01*
X8559261Y9978093D01*
X8563375Y9980738D01*
X8567489Y9983383D01*
X8571310Y9985734D01*
X8574542Y9987497D01*
X8577481Y9989260D01*
X8579832Y9990436D01*
X8581889Y9991318D01*
X8583065Y9991905D01*
X8583358Y9992199D01*
X8588354Y9994256D01*
X8594232Y9996314D01*
X8600697Y9998665D01*
X8607750Y10000722D01*
X8615097Y10003073D01*
X8622444Y10005130D01*
X8637432Y10008950D01*
X8644485Y10011007D01*
X8651244Y10012477D01*
X8657416Y10013946D01*
X8662705Y10015416D01*
X8667113Y10016297D01*
X8668877Y10016885D01*
X8670346Y10017179D01*
X8671522Y10017473D01*
X8672403D01*
X8672991Y10017767D01*
X8673285D01*
X8685040Y10020705D01*
X8695620Y10023350D01*
X8705024Y10025995D01*
X8713546Y10028640D01*
X8720893Y10031285D01*
X8727652Y10033636D01*
X8733236Y10035987D01*
X8738232Y10038044D01*
X8742346Y10040101D01*
X8745579Y10041865D01*
X8748518Y10043334D01*
X8750575Y10044803D01*
X8752338Y10045685D01*
X8753220Y10046567D01*
X8753807Y10046861D01*
X8754101Y10047154D01*
X8756746Y10049799D01*
X8759097Y10052738D01*
X8761448Y10055677D01*
X8763212Y10058910D01*
X8765856Y10064787D01*
X8767620Y10070665D01*
X8768795Y10075661D01*
X8769089Y10077718D01*
X8769383Y10079775D01*
X8769677Y10081244D01*
Y10082420D01*
Y10083008D01*
Y10083301D01*
X8769383Y10088003D01*
X8768795Y10092412D01*
X8767620Y10096820D01*
X8766150Y10100640D01*
X8762624Y10107987D01*
X8760567Y10111514D01*
X8758510Y10114452D01*
X8756452Y10117097D01*
X8754689Y10119448D01*
X8752632Y10121506D01*
X8751163Y10123269D01*
X8749693Y10124738D01*
X8748518Y10125620D01*
X8747930Y10126208D01*
X8747636Y10126501D01*
X8743228Y10129734D01*
X8738232Y10132379D01*
X8732648Y10134730D01*
X8727065Y10136787D01*
X8721187Y10138550D01*
X8715309Y10140020D01*
X8703554Y10142077D01*
X8698265Y10142959D01*
X8692975Y10143546D01*
X8688567Y10143840D01*
X8684452Y10144134D01*
X8681220Y10144428D01*
X8676518D01*
X8667995Y10144134D01*
X8660060Y10143546D01*
X8652713Y10142665D01*
X8645660Y10141489D01*
X8639489Y10139726D01*
X8633611Y10138257D01*
X8628322Y10136493D01*
X8623620Y10134730D01*
X8619505Y10132673D01*
X8615979Y10130910D01*
X8613040Y10129440D01*
X8610395Y10127971D01*
X8608338Y10126501D01*
X8607162Y10125620D01*
X8606281Y10125032D01*
X8605987Y10124738D01*
X8601873Y10120918D01*
X8598052Y10116510D01*
X8594526Y10112101D01*
X8591587Y10107399D01*
X8588942Y10102403D01*
X8586591Y10097701D01*
X8584534Y10092999D01*
X8583064Y10088297D01*
X8581595Y10083889D01*
X8580419Y10079775D01*
X8579538Y10075954D01*
X8578950Y10073016D01*
X8578362Y10070371D01*
X8578068Y10068314D01*
X8577775Y10067138D01*
Y10066550D01*
X8526052Y10070371D01*
X8526640Y10076836D01*
X8527228Y10083301D01*
X8528403Y10089473D01*
X8529872Y10095350D01*
X8531342Y10100934D01*
X8533105Y10106224D01*
X8534868Y10111220D01*
X8536632Y10115628D01*
X8538689Y10119742D01*
X8540158Y10123269D01*
X8541921Y10126501D01*
X8543391Y10129146D01*
X8544566Y10131204D01*
X8545448Y10132967D01*
X8546036Y10133848D01*
X8546330Y10134142D01*
X8549856Y10139432D01*
X8553970Y10144134D01*
X8558085Y10148836D01*
X8562493Y10152950D01*
X8566901Y10156771D01*
X8571309Y10160297D01*
X8575424Y10163530D01*
X8579832Y10166175D01*
X8583652Y10168820D01*
X8587473Y10170877D01*
X8590705Y10172934D01*
X8593644Y10174404D01*
X8595995Y10175579D01*
X8597758Y10176461D01*
X8598934Y10176755D01*
X8599228Y10177048D01*
X8605693Y10179693D01*
X8612452Y10182044D01*
X8619211Y10183808D01*
X8626264Y10185571D01*
X8639489Y10188216D01*
X8645954Y10189097D01*
X8651832Y10189979D01*
X8657709Y10190567D01*
X8662705Y10190861D01*
X8667407Y10191449D01*
X8671228D01*
X8674460Y10191742D01*
X8678869D01*
X8686509Y10191449D01*
D02*
G37*
G36*
X5462668Y10185864D02*
X5470309Y10185276D01*
X5477656Y10184101D01*
X5484709Y10182338D01*
X5491174Y10180574D01*
X5497345Y10178517D01*
X5502929Y10176460D01*
X5507925Y10174403D01*
X5512627Y10172052D01*
X5516447Y10169995D01*
X5519974Y10167937D01*
X5522913Y10166174D01*
X5525264Y10164705D01*
X5526733Y10163529D01*
X5527909Y10162648D01*
X5528203Y10162354D01*
X5533492Y10157652D01*
X5538488Y10152656D01*
X5543190Y10147366D01*
X5547599Y10141782D01*
X5551419Y10136199D01*
X5554945Y10130321D01*
X5558472Y10124737D01*
X5561117Y10119448D01*
X5563762Y10114452D01*
X5566113Y10109750D01*
X5567876Y10105341D01*
X5569639Y10101815D01*
X5570815Y10098582D01*
X5571697Y10096525D01*
X5571990Y10095056D01*
X5572284Y10094468D01*
X5574929Y10085946D01*
X5576986Y10076835D01*
X5579043Y10067431D01*
X5580807Y10057733D01*
X5583452Y10038337D01*
X5584333Y10028933D01*
X5585215Y10019823D01*
X5585803Y10011301D01*
X5586097Y10003366D01*
X5586391Y9996313D01*
X5586685Y9990435D01*
Y9987790D01*
X5586978Y9985439D01*
Y9983382D01*
Y9981619D01*
Y9980149D01*
Y9979268D01*
Y9978680D01*
Y9978386D01*
Y9967807D01*
X5586391Y9957521D01*
X5586097Y9947823D01*
X5585215Y9938419D01*
X5584334Y9929309D01*
X5583158Y9920492D01*
X5581982Y9912264D01*
X5580807Y9904329D01*
X5579338Y9896394D01*
X5577574Y9889341D01*
X5576105Y9882288D01*
X5574342Y9875823D01*
X5572578Y9869357D01*
X5570815Y9863480D01*
X5568758Y9857896D01*
X5566995Y9852606D01*
X5565231Y9847904D01*
X5563174Y9843202D01*
X5561411Y9839088D01*
X5559648Y9834974D01*
X5557884Y9831447D01*
X5556415Y9828215D01*
X5554652Y9825276D01*
X5553182Y9822631D01*
X5552007Y9820280D01*
X5550831Y9818517D01*
X5549656Y9816753D01*
X5548774Y9815284D01*
X5547893Y9814402D01*
X5547305Y9813521D01*
X5547011Y9813227D01*
Y9812933D01*
X5540546Y9805586D01*
X5533493Y9799121D01*
X5526146Y9793537D01*
X5518505Y9788835D01*
X5510570Y9784721D01*
X5502929Y9781488D01*
X5495582Y9778549D01*
X5488235Y9776492D01*
X5481182Y9774729D01*
X5475011Y9773553D01*
X5469133Y9772378D01*
X5464137Y9771790D01*
X5460023Y9771496D01*
X5457084Y9771202D01*
X5454439D01*
X5446211Y9771496D01*
X5438570Y9772378D01*
X5431223Y9773553D01*
X5424170Y9775023D01*
X5417705Y9776786D01*
X5411827Y9778843D01*
X5406243Y9780900D01*
X5400954Y9783251D01*
X5396545Y9785308D01*
X5392431Y9787365D01*
X5389199Y9789423D01*
X5386260Y9791186D01*
X5383909Y9792949D01*
X5382439Y9794125D01*
X5381264Y9794712D01*
X5380970Y9795006D01*
X5375680Y9799708D01*
X5370684Y9804704D01*
X5365982Y9809994D01*
X5361574Y9815578D01*
X5357754Y9821455D01*
X5354227Y9827039D01*
X5350700Y9832623D01*
X5347762Y9837913D01*
X5345411Y9842908D01*
X5343060Y9847610D01*
X5341296Y9852019D01*
X5339533Y9855545D01*
X5338358Y9858778D01*
X5337476Y9860835D01*
X5337182Y9862304D01*
X5336888Y9862892D01*
X5334243Y9871415D01*
X5331892Y9880525D01*
X5329835Y9889929D01*
X5328072Y9899627D01*
X5325427Y9918729D01*
X5324545Y9928133D01*
X5323664Y9937243D01*
X5323076Y9945766D01*
X5322782Y9953407D01*
X5322488Y9960460D01*
X5322194Y9966631D01*
Y9969276D01*
X5321900Y9971627D01*
Y9973684D01*
Y9975154D01*
Y9976623D01*
Y9977505D01*
Y9978092D01*
Y9978386D01*
Y9989554D01*
X5322194Y9999839D01*
X5322782Y10009831D01*
X5323370Y10018941D01*
X5323957Y10027464D01*
X5324839Y10035399D01*
X5325721Y10042745D01*
X5326602Y10049211D01*
X5327484Y10055088D01*
X5328366Y10060084D01*
X5329247Y10064492D01*
X5329835Y10068019D01*
X5330423Y10070958D01*
X5331010Y10072721D01*
X5331304Y10074190D01*
Y10074484D01*
X5333068Y10080950D01*
X5335125Y10087415D01*
X5336888Y10093292D01*
X5338945Y10098876D01*
X5341296Y10104166D01*
X5343353Y10109162D01*
X5345410Y10113864D01*
X5347468Y10117978D01*
X5349231Y10121799D01*
X5350994Y10125031D01*
X5352464Y10127970D01*
X5353933Y10130321D01*
X5355108Y10132084D01*
X5355990Y10133554D01*
X5356284Y10134435D01*
X5356578Y10134729D01*
X5362749Y10143546D01*
X5369508Y10151186D01*
X5376268Y10157946D01*
X5382733Y10163235D01*
X5385672Y10165586D01*
X5388611Y10167350D01*
X5390962Y10169113D01*
X5393019Y10170582D01*
X5394782Y10171464D01*
X5395957Y10172346D01*
X5396839Y10172933D01*
X5397133D01*
X5401835Y10175284D01*
X5406537Y10177342D01*
X5416529Y10180574D01*
X5426227Y10182925D01*
X5435043Y10184395D01*
X5439158Y10184982D01*
X5442684Y10185570D01*
X5446211Y10185864D01*
X5448855D01*
X5451207Y10186158D01*
X5454439D01*
X5462668Y10185864D01*
D02*
G37*
G36*
X8010296Y10078599D02*
X8019700Y10077424D01*
X8024108Y10076542D01*
X8028223Y10075660D01*
X8032043Y10074485D01*
X8035276Y10073603D01*
X8038508Y10072428D01*
X8041153Y10071252D01*
X8043504Y10070371D01*
X8045562Y10069489D01*
X8047031Y10068901D01*
X8048206Y10068313D01*
X8048794Y10067726D01*
X8049088D01*
X8056435Y10063024D01*
X8063194Y10057734D01*
X8069366Y10052150D01*
X8074655Y10046860D01*
X8079064Y10041864D01*
X8080827Y10039807D01*
X8082296Y10038044D01*
X8083766Y10036281D01*
X8084647Y10035105D01*
X8084941Y10034517D01*
X8085235Y10034224D01*
Y10072722D01*
X8130786D01*
X8130786Y9665113D01*
X8080827D01*
Y9808525D01*
X8075831Y9802648D01*
X8070541Y9797652D01*
X8064958Y9792950D01*
X8059962Y9789129D01*
X8055260Y9785897D01*
X8053496Y9784721D01*
X8051733Y9783839D01*
X8050264Y9782958D01*
X8049382Y9782370D01*
X8048794Y9781782D01*
X8048501D01*
X8040860Y9778256D01*
X8032925Y9775905D01*
X8025578Y9774141D01*
X8018525Y9772672D01*
X8015292Y9772378D01*
X8012354Y9772084D01*
X8010003Y9771790D01*
X8007651D01*
X8005888Y9771497D01*
X8003537D01*
X7997072Y9771790D01*
X7990900Y9772378D01*
X7984729Y9773260D01*
X7978851Y9774435D01*
X7973268Y9775905D01*
X7967978Y9777668D01*
X7962982Y9779137D01*
X7958280Y9781195D01*
X7953872Y9782958D01*
X7950051Y9784427D01*
X7946819Y9786190D01*
X7943880Y9787660D01*
X7941529Y9788835D01*
X7940060Y9789717D01*
X7938884Y9790305D01*
X7938590Y9790599D01*
X7933006Y9794419D01*
X7927717Y9798533D01*
X7922721Y9802942D01*
X7918313Y9807350D01*
X7913904Y9812052D01*
X7910084Y9816754D01*
X7906557Y9821162D01*
X7903619Y9825570D01*
X7900680Y9829684D01*
X7898329Y9833799D01*
X7896272Y9837031D01*
X7894508Y9840264D01*
X7893333Y9842615D01*
X7892451Y9844672D01*
X7891864Y9845848D01*
X7891570Y9846142D01*
X7888631Y9852901D01*
X7885986Y9859954D01*
X7883929Y9867007D01*
X7882166Y9874060D01*
X7879227Y9887872D01*
X7878051Y9894338D01*
X7877170Y9900509D01*
X7876582Y9906093D01*
X7875994Y9911383D01*
X7875700Y9916085D01*
X7875406Y9919905D01*
X7875113Y9923138D01*
Y9925489D01*
Y9926958D01*
Y9927546D01*
X7875406Y9935481D01*
X7875700Y9942827D01*
X7876582Y9950174D01*
X7877464Y9957227D01*
X7878639Y9963987D01*
X7879815Y9970452D01*
X7880990Y9976330D01*
X7882459Y9981913D01*
X7883929Y9986909D01*
X7885104Y9991611D01*
X7886280Y9995432D01*
X7887455Y9998664D01*
X7888337Y10001309D01*
X7889219Y10003366D01*
X7889513Y10004542D01*
X7889806Y10004836D01*
X7892745Y10011301D01*
X7895978Y10017179D01*
X7899210Y10023056D01*
X7902737Y10028346D01*
X7906557Y10033048D01*
X7910084Y10037750D01*
X7913610Y10041864D01*
X7917137Y10045391D01*
X7920663Y10048624D01*
X7923602Y10051562D01*
X7926247Y10053913D01*
X7928892Y10055970D01*
X7930949Y10057440D01*
X7932418Y10058615D01*
X7933300Y10059203D01*
X7933594Y10059497D01*
X7939178Y10063024D01*
X7944761Y10065962D01*
X7950345Y10068607D01*
X7956223Y10070958D01*
X7961806Y10072722D01*
X7967390Y10074485D01*
X7972680Y10075660D01*
X7977676Y10076836D01*
X7982378Y10077424D01*
X7986492Y10078011D01*
X7990312Y10078599D01*
X7993545Y10078893D01*
X7996484Y10079187D01*
X8000010D01*
X8010296Y10078599D01*
D02*
G37*
G36*
X8877478Y9331289D02*
X8911343Y9325645D01*
X8945208Y9318119D01*
X8973429Y9310594D01*
X8997886Y9303068D01*
X9014819Y9295543D01*
X9022344Y9291780D01*
X9027989Y9289899D01*
X9029870Y9288017D01*
X9031751D01*
X9063735Y9271085D01*
X9090074Y9256034D01*
X9112651Y9242864D01*
X9131464Y9229695D01*
X9144634Y9220288D01*
X9155922Y9212762D01*
X9161566Y9207118D01*
X9163448Y9205237D01*
X9189787Y9178897D01*
X9210482Y9154439D01*
X9218008Y9145033D01*
X9223652Y9137507D01*
X9227415Y9133744D01*
X9229296Y9131863D01*
X9231177Y9143151D01*
X9233059Y9154439D01*
X9236822Y9163846D01*
X9238703Y9165728D01*
Y9167609D01*
X9244347Y9184541D01*
X9248110Y9197711D01*
X9249991Y9205237D01*
X9251873Y9207118D01*
X9255635Y9216525D01*
X9259398Y9224050D01*
X9261279Y9227813D01*
Y9229695D01*
X9263161Y9218406D01*
X9268805Y9205237D01*
X9274449Y9192067D01*
X9283856Y9177016D01*
X9306432Y9148795D01*
X9330890Y9120575D01*
X9355348Y9094235D01*
X9376043Y9073540D01*
X9383569Y9066015D01*
X9391095Y9060370D01*
X9394857Y9056608D01*
X9396739Y9054726D01*
X9402383D01*
X9406146Y9056608D01*
X9408027Y9058489D01*
X9409908Y9060370D01*
X9411790Y9069777D01*
Y9077303D01*
X9409908Y9084828D01*
Y9086710D01*
X9406146Y9099879D01*
X9402383Y9109286D01*
X9400501Y9116812D01*
Y9120575D01*
X9396739Y9133744D01*
X9392976Y9146914D01*
X9391095Y9154439D01*
X9389213Y9158202D01*
X9383569Y9171372D01*
X9379806Y9180779D01*
X9377925Y9184541D01*
Y9186423D01*
X9374162Y9192067D01*
X9372281Y9195830D01*
Y9199592D01*
X9398620Y9171372D01*
X9421197Y9145033D01*
X9441892Y9116812D01*
X9460705Y9090473D01*
X9475757Y9064133D01*
X9488926Y9037794D01*
X9500214Y9013336D01*
X9509621Y8990760D01*
X9517147Y8968183D01*
X9522791Y8949369D01*
X9528435Y8932437D01*
X9530316Y8917386D01*
X9534079Y8906098D01*
Y8896691D01*
X9535961Y8891046D01*
Y8889165D01*
Y8877877D01*
Y8866589D01*
Y8859063D01*
Y8857182D01*
X9573588Y8834605D01*
X9590521Y8825198D01*
X9605572Y8813910D01*
X9618741Y8806384D01*
X9628148Y8798859D01*
X9633792Y8795096D01*
X9635674Y8793215D01*
X9671420Y8842131D01*
X9705285Y8887284D01*
X9739149Y8928674D01*
X9769251Y8964420D01*
X9795591Y8992641D01*
X9804998Y9003929D01*
X9814405Y9013336D01*
X9821930Y9020862D01*
X9827574Y9028387D01*
X9831337Y9030268D01*
X9833218Y9032150D01*
X9870846Y9067896D01*
X9906592Y9099879D01*
X9936694Y9126219D01*
X9963033Y9148796D01*
X9985610Y9165728D01*
X10002542Y9177016D01*
X10011949Y9184542D01*
X10015712Y9186423D01*
X10043933Y9205237D01*
X10072153Y9222169D01*
X10100374Y9237220D01*
X10122951Y9250390D01*
X10143646Y9261678D01*
X10160578Y9269204D01*
X10169985Y9272966D01*
X10171866Y9274848D01*
X10173748D01*
X10200087Y9286136D01*
X10222664Y9295543D01*
X10241477Y9303069D01*
X10256528Y9308713D01*
X10265935Y9312475D01*
X10273461Y9314357D01*
X10277224Y9316238D01*
X10279105D01*
X10296037Y9320001D01*
X10309207Y9323764D01*
X10316732Y9325645D01*
X10320495D01*
X10307326Y9310594D01*
X10294156Y9295543D01*
X10273461Y9259797D01*
X10256528Y9220288D01*
X10245240Y9182660D01*
X10235833Y9148796D01*
X10232070Y9133744D01*
X10230189Y9120575D01*
X10228308Y9109287D01*
X10226426Y9101761D01*
Y9096117D01*
Y9094236D01*
X10218901Y9035913D01*
X10213257Y8977590D01*
X10209494Y8924912D01*
X10205731Y8875996D01*
X10203850Y8855301D01*
X10201968Y8834605D01*
X10200087Y8817673D01*
Y8804503D01*
X10198206Y8791334D01*
Y8783808D01*
Y8778164D01*
Y8776283D01*
X10196324Y8748062D01*
X10192562Y8721723D01*
X10190680Y8697265D01*
X10185036Y8674688D01*
X10181274Y8655874D01*
X10177511Y8637061D01*
X10173748Y8622010D01*
X10168104Y8608840D01*
X10160578Y8586263D01*
X10153053Y8569331D01*
X10147409Y8561806D01*
X10145527Y8558043D01*
X10136120Y8546755D01*
X10130476Y8535466D01*
X10126714Y8526059D01*
X10124832Y8524178D01*
Y8522297D01*
X10173748Y8541110D01*
X10196325Y8546755D01*
X10217020Y8552399D01*
X10233952Y8556161D01*
X10247122Y8559924D01*
X10256529Y8561806D01*
X10260291D01*
X10233952Y8537348D01*
X10211376Y8512890D01*
X10188799Y8488432D01*
X10171867Y8465855D01*
X10156816Y8447042D01*
X10145527Y8431991D01*
X10138002Y8422584D01*
X10136120Y8418821D01*
X10168104D01*
X10198206Y8415058D01*
X10226427Y8413177D01*
X10250885Y8409414D01*
X10273461Y8405651D01*
X10288512Y8403770D01*
X10299800Y8400007D01*
X10303563D01*
X10284749Y8386837D01*
X10267817Y8371786D01*
X10237715Y8341684D01*
X10217020Y8309701D01*
X10200087Y8281480D01*
X10188799Y8255141D01*
X10181274Y8234446D01*
X10179392Y8226920D01*
Y8221276D01*
X10177511Y8217513D01*
Y8215632D01*
Y8211869D01*
Y8208107D01*
X10186918Y8211869D01*
X10200087Y8213751D01*
X10215138Y8211869D01*
X10230189Y8208107D01*
X10243359Y8204344D01*
X10256529Y8200581D01*
X10264054Y8198700D01*
X10267817Y8196818D01*
X10249003Y8200581D01*
X10233952Y8198700D01*
X10220782Y8194937D01*
X10213257Y8191174D01*
X10209494Y8189293D01*
X10196325Y8179886D01*
X10186918Y8170479D01*
X10183155Y8161072D01*
X10181274Y8159191D01*
Y8157309D01*
X10200087Y8106512D01*
X10220782Y8055715D01*
X10239596Y8010562D01*
X10258410Y7969172D01*
X10265936Y7952239D01*
X10273461Y7935307D01*
X10279105Y7922137D01*
X10284749Y7908967D01*
X10290393Y7899561D01*
X10292275Y7892035D01*
X10296038Y7888272D01*
Y7886391D01*
X10322377Y7833712D01*
X10344953Y7782915D01*
X10365649Y7733999D01*
X10384462Y7688846D01*
X10391988Y7670032D01*
X10397632Y7651219D01*
X10405157Y7636168D01*
X10408920Y7622998D01*
X10412683Y7611710D01*
X10416446Y7604184D01*
X10418327Y7598540D01*
Y7596659D01*
X10431497Y7560912D01*
X10440904Y7532692D01*
X10454073Y7504471D01*
X10459717Y7493183D01*
X10463480Y7483776D01*
X10465362Y7476250D01*
X10467243Y7474369D01*
X10476650Y7457437D01*
X10484175Y7440504D01*
X10491701Y7427335D01*
X10497345Y7416046D01*
X10502989Y7406639D01*
X10506752Y7399114D01*
X10510515Y7395351D01*
Y7393470D01*
X10525566Y7374656D01*
X10542498Y7355842D01*
X10550024Y7346435D01*
X10555668Y7338910D01*
X10559430Y7335147D01*
X10561312Y7333266D01*
X10583888Y7305045D01*
X10600821Y7284350D01*
X10606465Y7274943D01*
X10612109Y7269299D01*
X10613991Y7265536D01*
X10615872Y7263655D01*
X10630923Y7241078D01*
X10640330Y7222264D01*
X10644093Y7212858D01*
X10647856Y7207213D01*
X10649737Y7203451D01*
Y7201569D01*
X10585770Y7258011D01*
X10566956Y7274943D01*
X10551905Y7284350D01*
X10542498Y7289994D01*
X10534973Y7293757D01*
X10531210D01*
X10527447Y7291875D01*
Y7289994D01*
X10529328Y7282469D01*
X10531210Y7276824D01*
X10533091Y7269299D01*
X10534973Y7267418D01*
X10542498Y7256129D01*
X10548142Y7242960D01*
X10555668Y7231671D01*
X10557549Y7229790D01*
Y7227909D01*
X10566956Y7210976D01*
X10574482Y7197807D01*
X10580126Y7190281D01*
X10582007Y7186518D01*
X10597058Y7154535D01*
X10606465Y7124433D01*
X10613991Y7094331D01*
X10619635Y7067991D01*
X10623398Y7045415D01*
X10625279Y7026601D01*
Y7015313D01*
Y7013431D01*
Y7011550D01*
Y7004025D01*
Y7002143D01*
Y7000262D01*
X10613991Y7019076D01*
X10600821Y7034127D01*
X10593296Y7043534D01*
X10589533Y7047296D01*
X10578245Y7060466D01*
X10568838Y7067991D01*
X10561312Y7071754D01*
X10555668Y7073636D01*
X10553787Y7071754D01*
X10551905Y7069873D01*
X10550024Y7067991D01*
Y7066110D01*
Y7054822D01*
Y7039771D01*
Y7004025D01*
Y6988974D01*
Y6975804D01*
Y6966397D01*
Y6962634D01*
X10551905Y6932532D01*
Y6904312D01*
Y6879854D01*
X10553787Y6859158D01*
Y6840345D01*
Y6827175D01*
Y6819650D01*
Y6815887D01*
X10555668Y6791429D01*
X10559431Y6770734D01*
X10561312Y6751920D01*
X10565075Y6734988D01*
X10566956Y6718055D01*
X10570719Y6704885D01*
X10576363Y6682309D01*
X10582007Y6667258D01*
X10585770Y6655970D01*
X10587651Y6650326D01*
X10589533Y6648444D01*
X10550024Y6684190D01*
X10542498Y6627749D01*
X10534973Y6573189D01*
X10523685Y6524273D01*
X10512396Y6477239D01*
X10497345Y6433967D01*
X10484176Y6394458D01*
X10469125Y6358712D01*
X10454074Y6326729D01*
X10440904Y6298508D01*
X10425853Y6272169D01*
X10414565Y6251473D01*
X10403276Y6234541D01*
X10393869Y6219490D01*
X10386344Y6210083D01*
X10382581Y6204439D01*
X10380700Y6202558D01*
X10352479Y6172456D01*
X10324258Y6144235D01*
X10294156Y6117896D01*
X10264054Y6095319D01*
X10233952Y6074624D01*
X10205732Y6055810D01*
X10175630Y6040759D01*
X10147409Y6025708D01*
X10121070Y6014420D01*
X10098493Y6005013D01*
X10075917Y5995606D01*
X10057103Y5989962D01*
X10042052Y5984318D01*
X10030764Y5980555D01*
X10023238Y5978674D01*
X10021357D01*
X9974322Y5969267D01*
X9927288Y5963622D01*
X9882135Y5959860D01*
X9789947D01*
X9746675Y5961741D01*
X9705285Y5965504D01*
X9667658Y5969266D01*
X9631911Y5974911D01*
X9598047Y5980555D01*
X9569826Y5984317D01*
X9545368Y5989962D01*
X9524673Y5993724D01*
X9511503Y5997487D01*
X9502096Y6001250D01*
X9498334D01*
X9447536Y6016301D01*
X9400502Y6033233D01*
X9357230Y6050166D01*
X9315840Y6067098D01*
X9278212Y6084031D01*
X9244348Y6102844D01*
X9212364Y6119777D01*
X9184143Y6136709D01*
X9159686Y6151760D01*
X9138990Y6166811D01*
X9120177Y6179981D01*
X9105126Y6191269D01*
X9093837Y6200676D01*
X9086312Y6208201D01*
X9080668Y6211964D01*
X9078786Y6213846D01*
X9029870Y6257117D01*
X8982836Y6298508D01*
X8937683Y6334254D01*
X8896293Y6368119D01*
X8879360Y6381288D01*
X8862428Y6394458D01*
X8847377Y6405746D01*
X8836088Y6415153D01*
X8824800Y6422679D01*
X8817275Y6428323D01*
X8813512Y6430204D01*
X8811631Y6432085D01*
X8781529Y6447136D01*
X8755189Y6460306D01*
X8743901Y6464069D01*
X8736375Y6467832D01*
X8730731Y6471594D01*
X8728850D01*
X8710036Y6479120D01*
X8691222Y6484764D01*
X8683697Y6488527D01*
X8678053Y6490408D01*
X8674290Y6492290D01*
X8672409D01*
X8617849Y6511103D01*
X8563289Y6526154D01*
X8512491Y6539324D01*
X8465457Y6548731D01*
X8420304Y6558138D01*
X8378914Y6563782D01*
X8339405Y6569426D01*
X8303659Y6573189D01*
X8271675Y6575070D01*
X8181369D01*
X8170081Y6573189D01*
X8160674D01*
X8203945Y6578833D01*
X8245336Y6584477D01*
X8282963Y6586358D01*
X8318710Y6590121D01*
X8346930Y6592002D01*
X8360100D01*
X8369507Y6593884D01*
X8521898Y6593884D01*
X8499322Y6605172D01*
X8476745Y6614579D01*
X8467338Y6616460D01*
X8459813Y6620223D01*
X8456050Y6622104D01*
X8454169D01*
X8414660Y6633393D01*
X8371388Y6644681D01*
X8329998Y6650325D01*
X8286726Y6655969D01*
X8203945Y6661613D01*
X8164437Y6663495D01*
X8126809Y6661613D01*
X8091063D01*
X8059079Y6659732D01*
X8030859Y6655969D01*
X8004519Y6654088D01*
X7985706Y6652206D01*
X7970655Y6650325D01*
X7961248Y6648444D01*
X7957485D01*
X8004519Y6678546D01*
X8051554Y6704885D01*
X8096707Y6727462D01*
X8136216Y6748157D01*
X8153148Y6757564D01*
X8170081Y6765089D01*
X8183250Y6772615D01*
X8196420Y6778259D01*
X8205827Y6782021D01*
X8213352Y6785784D01*
X8217115Y6787666D01*
X8218997D01*
X8266031Y6804598D01*
X8316828Y6819649D01*
X8365744Y6832819D01*
X8414660Y6844107D01*
X8512491Y6861040D01*
X8557645Y6868565D01*
X8602798Y6872328D01*
X8642307Y6876091D01*
X8679934Y6879853D01*
X8713799Y6881735D01*
X8742020Y6883616D01*
X8796580D01*
X8826682Y6885498D01*
X8854902Y6887379D01*
X8881242Y6893023D01*
X8903818Y6898667D01*
X8924513Y6906193D01*
X8943327Y6913718D01*
X8960259Y6923125D01*
X8973429Y6932532D01*
X8986599Y6940057D01*
X8996006Y6949464D01*
X9011057Y6964515D01*
X9020464Y6975804D01*
X9022345Y6977685D01*
Y6979566D01*
X9007294Y6968278D01*
X8992243Y6960753D01*
X8977192Y6953227D01*
X8962141Y6947583D01*
X8932039Y6941939D01*
X8901937D01*
X8877479Y6943820D01*
X8856784Y6947583D01*
X8849258Y6949464D01*
X8843614D01*
X8841733Y6951346D01*
X8851140D01*
X8864309Y6955109D01*
X8877479Y6962634D01*
X8892530Y6972041D01*
X8907581Y6981448D01*
X8922632Y6994617D01*
X8952734Y7022838D01*
X8979073Y7049177D01*
X9001650Y7073635D01*
X9011057Y7083042D01*
X9016701Y7092449D01*
X9020464Y7096212D01*
X9022345Y7098093D01*
X9011057Y7090568D01*
X9001650Y7086805D01*
X8994124Y7083042D01*
X8992243D01*
X8967785Y7073635D01*
X8948971Y7066110D01*
X8939564Y7064228D01*
X8933920Y7062347D01*
X8928276D01*
X8937683Y7067991D01*
X8948971Y7075517D01*
X8965904Y7092449D01*
X8971548Y7101856D01*
X8977192Y7109382D01*
X8979073Y7115026D01*
X8980955Y7116907D01*
X8996006Y7152653D01*
X8999768Y7169586D01*
X9003531Y7184637D01*
X9007294Y7197806D01*
X9009175Y7209095D01*
X9011057Y7216620D01*
Y7218501D01*
Y7229790D01*
Y7241078D01*
Y7248603D01*
Y7250485D01*
X9009175Y7282468D01*
X9007294Y7297519D01*
X9005412Y7310689D01*
X9003531Y7321977D01*
X9001650Y7329503D01*
X8999768Y7335147D01*
Y7337028D01*
X8969666Y7406639D01*
X8937683Y7472487D01*
X8905699Y7532692D01*
X8890648Y7560912D01*
X8875597Y7587252D01*
X8862428Y7609828D01*
X8849258Y7630523D01*
X8837970Y7649337D01*
X8826681Y7664388D01*
X8819156Y7677558D01*
X8813512Y7686965D01*
X8809749Y7692609D01*
X8807868Y7694490D01*
X8768359Y7698253D01*
X8732612Y7707660D01*
X8696866Y7718948D01*
X8663001Y7735880D01*
X8631018Y7752813D01*
X8600916Y7773508D01*
X8572695Y7794203D01*
X8548237Y7814898D01*
X8525661Y7837475D01*
X8504966Y7858170D01*
X8488033Y7876983D01*
X8472982Y7893916D01*
X8461694Y7908967D01*
X8454169Y7920255D01*
X8448524Y7927781D01*
X8446643Y7929662D01*
X8429711Y7957883D01*
X8410897Y7982341D01*
X8395846Y8004917D01*
X8380795Y8025612D01*
X8369507Y8042545D01*
X8358218Y8053833D01*
X8352574Y8063240D01*
X8350693Y8065121D01*
X8343167Y8057596D01*
X8337523Y8053833D01*
X8333760Y8050070D01*
X8331879D01*
X8311184Y8029375D01*
X8290489Y8010561D01*
X8271675Y7995510D01*
X8252861Y7980459D01*
X8237810Y7969171D01*
X8226522Y7961645D01*
X8217115Y7956001D01*
X8215234Y7954120D01*
X8177606Y7935306D01*
X8139978Y7918374D01*
X8106114Y7905204D01*
X8074130Y7893916D01*
X8047791Y7884509D01*
X8027096Y7878865D01*
X8019570Y7876983D01*
X8013926D01*
X8010163Y7875102D01*
X8008282D01*
X8028977Y7890153D01*
X8047791Y7905204D01*
X8062842Y7922137D01*
X8074130Y7937188D01*
X8085418Y7952239D01*
X8091063Y7963527D01*
X8094825Y7971052D01*
X8096707Y7972934D01*
X8102351Y7993629D01*
X8106114Y8012443D01*
X8107995Y8018087D01*
Y8023731D01*
Y8027494D01*
Y8029375D01*
X8072249Y8018087D01*
X8040265Y8003036D01*
X8012045Y7987985D01*
X7989468Y7971052D01*
X7970654Y7954120D01*
X7957485Y7940950D01*
X7948078Y7933425D01*
X7946196Y7929662D01*
X7927383Y7903323D01*
X7914213Y7875102D01*
X7902925Y7848763D01*
X7897281Y7824305D01*
X7893518Y7803610D01*
X7889755Y7786677D01*
Y7775389D01*
Y7773508D01*
Y7771626D01*
Y7758457D01*
Y7752813D01*
Y7750931D01*
X7874704Y7805491D01*
X7863416Y7856288D01*
X7854009Y7907086D01*
X7848365Y7952239D01*
X7846483Y7971052D01*
X7844602Y7989866D01*
Y8004917D01*
X7842721Y8018087D01*
Y8029375D01*
Y8036901D01*
Y8042545D01*
Y8044426D01*
Y8082054D01*
X7846483Y8117800D01*
X7850246Y8149783D01*
X7854009Y8179885D01*
X7857772Y8204343D01*
X7861534Y8223157D01*
X7863416Y8230683D01*
Y8236327D01*
X7865297Y8238208D01*
Y8240089D01*
X7872823Y8272073D01*
X7882230Y8304056D01*
X7891636Y8332277D01*
X7901043Y8358616D01*
X7908569Y8381193D01*
X7916094Y8396244D01*
X7919857Y8407532D01*
X7921739Y8411295D01*
X7923620Y8413176D01*
X7925501Y8415058D01*
Y8416939D01*
Y8418820D01*
X7931145Y8428227D01*
X7933027Y8431990D01*
X7914213Y8482787D01*
X7906688Y8501601D01*
X7901043Y8524178D01*
X7895399Y8546754D01*
X7889755Y8569331D01*
X7885992Y8590026D01*
X7884111Y8605077D01*
X7882230Y8616365D01*
Y8618246D01*
Y8620128D01*
X7874704Y8689739D01*
Y8721722D01*
X7872822Y8751824D01*
Y8778164D01*
X7874704Y8798859D01*
Y8806384D01*
Y8812028D01*
Y8813910D01*
Y8815791D01*
X7878467Y8857181D01*
X7884111Y8896690D01*
X7893518Y8938081D01*
X7904806Y8973827D01*
X7914213Y9005810D01*
X7917976Y9018980D01*
X7923620Y9030268D01*
X7925501Y9039675D01*
X7929264Y9047201D01*
X7931145Y9050963D01*
Y9052845D01*
X7951840Y9101761D01*
X7976298Y9148795D01*
X8000756Y9190185D01*
X8025214Y9227813D01*
X8045909Y9259796D01*
X8055316Y9271085D01*
X8062842Y9282373D01*
X8070367Y9291780D01*
X8076011Y9297424D01*
X8077893Y9301187D01*
X8079774Y9303068D01*
X8164436Y9297424D01*
X8245335Y9289898D01*
X8284844Y9284254D01*
X8320590Y9280491D01*
X8356337Y9276729D01*
X8388320Y9271085D01*
X8418422Y9267322D01*
X8444761Y9263559D01*
X8467338Y9259796D01*
X8488033Y9256034D01*
X8503084Y9254152D01*
X8516254Y9252271D01*
X8523779Y9250390D01*
X8525661D01*
X8553881Y9242864D01*
X8600916Y9233457D01*
X8646069Y9224050D01*
X8689341Y9212762D01*
X8726968Y9203355D01*
X8758951Y9195830D01*
X8772121Y9192067D01*
X8783409Y9188304D01*
X8792816Y9186423D01*
X8798460Y9184541D01*
X8802223Y9182660D01*
X8804105D01*
X8830444Y9173253D01*
X8854902Y9165728D01*
X8877478Y9156321D01*
X8896292Y9150677D01*
X8913224Y9145033D01*
X8924513Y9139388D01*
X8933920Y9137507D01*
X8935801Y9135626D01*
X8960259Y9126219D01*
X8980954Y9118693D01*
X8990361Y9114930D01*
X8997886Y9113049D01*
X9001649Y9111168D01*
X9003531D01*
X9009175Y9116812D01*
X9011056Y9124337D01*
X9014819Y9129981D01*
Y9131863D01*
X9012938Y9146914D01*
X9007293Y9160084D01*
X8999768Y9175135D01*
X8990361Y9190186D01*
X8982835Y9201474D01*
X8975310Y9210881D01*
X8969666Y9218406D01*
X8967784Y9220288D01*
X8950852Y9239101D01*
X8935801Y9256034D01*
X8922631Y9267322D01*
X8911343Y9278610D01*
X8901936Y9286136D01*
X8896292Y9291780D01*
X8892529Y9295543D01*
X8890648D01*
X8869953Y9310594D01*
X8853020Y9323763D01*
X8843614Y9331289D01*
X8839851Y9333170D01*
X8877478Y9331289D01*
D02*
G37*
G36*
X7251968Y9726378D02*
X7252185Y9725944D01*
X7304646Y9668055D01*
X7359206Y9607851D01*
X7417529Y9551410D01*
X7475852Y9498731D01*
X7534174Y9446053D01*
X7592497Y9399018D01*
X7648938Y9353865D01*
X7701617Y9314356D01*
X7752414Y9276729D01*
X7799449Y9242864D01*
X7840839Y9214643D01*
X7876585Y9192067D01*
X7906687Y9171372D01*
X7917976Y9163846D01*
X7927382Y9158202D01*
X7934908Y9152558D01*
X7940552Y9150676D01*
X7944315Y9146914D01*
X7946196D01*
X7931145Y9114930D01*
X7923620Y9099879D01*
X7917976Y9086710D01*
X7912331Y9077303D01*
X7908569Y9067896D01*
X7904806Y9062252D01*
Y9060370D01*
X7846483Y9105523D01*
X7790042Y9156321D01*
X7731719Y9208999D01*
X7673396Y9263559D01*
X7616955Y9318119D01*
X7564276Y9374560D01*
X7511598Y9429120D01*
X7462682Y9481799D01*
X7417529Y9532596D01*
X7376139Y9577749D01*
X7340392Y9621021D01*
X7310290Y9656767D01*
X7283951Y9686869D01*
X7274544Y9698157D01*
X7265137Y9709446D01*
X7259493Y9716971D01*
X7253849Y9722615D01*
X7252185Y9725944D01*
X7250086Y9728259D01*
X7251968Y9726378D01*
D02*
G37*
G36*
X9946101Y9167609D02*
X9942338Y9158202D01*
X9870846Y9090473D01*
X9842625Y9066015D01*
X9814405Y9041557D01*
X9789947Y9017099D01*
X9765489Y8992641D01*
X9746675Y8971946D01*
X9731624Y8956895D01*
X9722217Y8945606D01*
X9718454Y8943725D01*
Y8941844D01*
X9692115Y8911742D01*
X9671420Y8887284D01*
X9658250Y8864707D01*
X9646962Y8847775D01*
X9641318Y8834605D01*
X9637555Y8825198D01*
X9635674Y8819554D01*
Y8817673D01*
X9552893Y8868470D01*
Y8879758D01*
Y8887284D01*
Y8889165D01*
X9551012Y8913623D01*
X9545367Y8934318D01*
X9543486Y8943725D01*
X9541605Y8951251D01*
X9539723Y8955013D01*
Y8956895D01*
Y8964420D01*
X9543486Y8975708D01*
X9551012Y8986997D01*
X9558537Y9000166D01*
X9567944Y9011455D01*
X9577351Y9020862D01*
X9582995Y9028387D01*
X9584876Y9030268D01*
X9605572Y9052845D01*
X9630030Y9077303D01*
X9656369Y9101761D01*
X9680827Y9124337D01*
X9703403Y9143151D01*
X9722217Y9160084D01*
X9729743Y9165728D01*
X9735387Y9169490D01*
X9737268Y9173253D01*
X9739149D01*
X9778658Y9205237D01*
X9818167Y9235339D01*
X9855795Y9263559D01*
X9891541Y9288017D01*
X9921643Y9308712D01*
X9932931Y9318119D01*
X9944220Y9325645D01*
X9953627Y9331289D01*
X9959271Y9335052D01*
X9963033Y9338815D01*
X9964915D01*
X9946101Y9167609D01*
D02*
G37*
G36*
X10296038Y8272073D02*
X10348716Y8236327D01*
X10401395Y8200581D01*
X10450311Y8164835D01*
X10497345Y8130970D01*
X10540617Y8095224D01*
X10582007Y8061359D01*
X10619635Y8027494D01*
X10653499Y7997392D01*
X10683601Y7969172D01*
X10709941Y7944714D01*
X10730636Y7922137D01*
X10749450Y7905205D01*
X10760738Y7892035D01*
X10770145Y7884510D01*
X10772026Y7880747D01*
X10815298Y7831831D01*
X10856688Y7781034D01*
X10898079Y7726474D01*
X10939469Y7671914D01*
X10978978Y7617354D01*
X11016605Y7562794D01*
X11052352Y7510115D01*
X11086216Y7459318D01*
X11118200Y7410402D01*
X11146420Y7367131D01*
X11170878Y7327622D01*
X11191574Y7293757D01*
X11208506Y7265536D01*
X11214150Y7254248D01*
X11219794Y7242960D01*
X11225439Y7235434D01*
X11229201Y7229790D01*
X11231083Y7227909D01*
Y7226027D01*
X11283761Y7133840D01*
X11336440Y7045415D01*
X11385356Y6958872D01*
X11434272Y6876091D01*
X11481306Y6795192D01*
X11528340Y6718055D01*
X11571612Y6644682D01*
X11614884Y6573189D01*
X11654393Y6505460D01*
X11693902Y6441493D01*
X11731529Y6379407D01*
X11767275Y6319203D01*
X11803022Y6264643D01*
X11835005Y6211965D01*
X11866988Y6161168D01*
X11895209Y6114133D01*
X11923430Y6070861D01*
X11949769Y6029471D01*
X11974227Y5989962D01*
X11996804Y5956097D01*
X12017499Y5922233D01*
X12036312Y5892130D01*
X12053245Y5865791D01*
X12068296Y5843215D01*
X12083347Y5820638D01*
X12094635Y5803706D01*
X12105924Y5788655D01*
X12113449Y5775485D01*
X12119093Y5766078D01*
X12124737Y5758553D01*
X12125757Y5756515D01*
X12128500Y5752908D01*
X12126619Y5754790D01*
X12125757Y5756515D01*
X12062652Y5839452D01*
X12034431Y5875198D01*
X12000566Y5914707D01*
X11966701Y5954216D01*
X11932837Y5989962D01*
X11902735Y6023827D01*
X11887684Y6036997D01*
X11876395Y6050166D01*
X11866988Y6059573D01*
X11859463Y6067099D01*
X11855700Y6070861D01*
X11853819Y6072743D01*
X11799259Y6125421D01*
X11744699Y6179981D01*
X11690139Y6228897D01*
X11641223Y6275932D01*
X11618647Y6296627D01*
X11597951Y6313559D01*
X11579138Y6330492D01*
X11564087Y6345543D01*
X11550917Y6356831D01*
X11541510Y6364356D01*
X11535866Y6370000D01*
X11533985Y6371882D01*
X11462492Y6430205D01*
X11389118Y6486646D01*
X11315745Y6539324D01*
X11281880Y6563782D01*
X11248015Y6586359D01*
X11216032Y6607054D01*
X11187811Y6625868D01*
X11161472Y6640919D01*
X11140777Y6655970D01*
X11121963Y6667258D01*
X11108793Y6674783D01*
X11101268Y6680428D01*
X11097505Y6682309D01*
X11001555Y6736869D01*
X10907486Y6785785D01*
X10862333Y6808361D01*
X10819061Y6827175D01*
X10777671Y6845989D01*
X10740043Y6862921D01*
X10704297Y6877972D01*
X10672313Y6891142D01*
X10644093Y6900549D01*
X10619635Y6909956D01*
X10600821Y6917481D01*
X10585770Y6923125D01*
X10578245Y6925007D01*
X10574482Y6926888D01*
Y6940058D01*
Y6945702D01*
Y6947583D01*
Y6955109D01*
Y6962634D01*
Y6966397D01*
Y6968278D01*
Y6994618D01*
Y7013431D01*
Y7020957D01*
Y7026601D01*
Y7028483D01*
Y7030364D01*
X10589533Y7011550D01*
X10598940Y6998380D01*
X10604584Y6988974D01*
X10606465Y6987092D01*
X10610228Y6981448D01*
X10617753Y6977685D01*
X10623398Y6975804D01*
X10630923D01*
X10642211Y6983329D01*
X10647856Y6990855D01*
X10649737Y6998380D01*
Y7000262D01*
Y7011550D01*
Y7013431D01*
Y7015313D01*
X10647856Y7043534D01*
X10645974Y7067991D01*
X10640330Y7092449D01*
X10634686Y7113145D01*
X10630923Y7130077D01*
X10625279Y7143247D01*
X10623398Y7150772D01*
X10621516Y7154535D01*
X10696771Y7137602D01*
X10770145Y7120670D01*
X10837875Y7101856D01*
X10867977Y7090568D01*
X10896197Y7083042D01*
X10924418Y7073636D01*
X10946995Y7066110D01*
X10969571Y7058585D01*
X10986504Y7052940D01*
X11001555Y7047296D01*
X11010961Y7043534D01*
X11018487Y7039771D01*
X11020368D01*
X10973334Y7124433D01*
X10922537Y7207213D01*
X10867976Y7286231D01*
X10811535Y7363368D01*
X10753212Y7436742D01*
X10694890Y7506353D01*
X10638448Y7570319D01*
X10582007Y7630523D01*
X10529328Y7685083D01*
X10482294Y7733999D01*
X10437141Y7777271D01*
X10399513Y7813017D01*
X10382581Y7828068D01*
X10367530Y7841238D01*
X10354360Y7852526D01*
X10344953Y7861933D01*
X10335547Y7869458D01*
X10329902Y7875103D01*
X10326140Y7876984D01*
X10324258Y7878865D01*
X10322377Y7884510D01*
Y7886391D01*
X10320495Y7890154D01*
X10318614Y7895798D01*
X10316733Y7897679D01*
X10294156Y7944714D01*
X10273461Y7991748D01*
X10256529Y8036901D01*
X10239596Y8076410D01*
X10232071Y8093342D01*
X10226427Y8108393D01*
X10220782Y8123445D01*
X10217020Y8134733D01*
X10213257Y8144140D01*
X10209494Y8151665D01*
X10207613Y8155428D01*
Y8157309D01*
Y8162953D01*
Y8164835D01*
X10218901Y8168598D01*
X10230189Y8172360D01*
X10267817D01*
X10277224Y8174242D01*
X10284749Y8181767D01*
X10288512Y8187411D01*
Y8189293D01*
X10292275Y8194937D01*
Y8196818D01*
X10290393Y8206225D01*
X10282868Y8215632D01*
X10277224Y8219395D01*
X10275342Y8221276D01*
X10249003Y8230683D01*
X10226427Y8236327D01*
X10217020Y8238209D01*
X10209494Y8240090D01*
X10203850D01*
X10215138Y8264548D01*
X10226427Y8285243D01*
X10232071Y8292769D01*
X10235833Y8298413D01*
X10237715Y8302175D01*
X10239596Y8304057D01*
X10296038Y8272073D01*
D02*
G37*
G36*
X8986599Y7237315D02*
Y7229790D01*
Y7224146D01*
Y7222264D01*
X8979073Y7188399D01*
X8975310Y7173348D01*
X8969666Y7160179D01*
X8965904Y7148890D01*
X8964022Y7141365D01*
X8960259Y7135721D01*
Y7133839D01*
X8952734Y7120670D01*
X8945208Y7109382D01*
X8939564Y7101856D01*
X8933920Y7096212D01*
X8926395Y7088686D01*
X8924513Y7086805D01*
X8915106D01*
X8909462Y7084924D01*
X8903818Y7083042D01*
X8898174Y7075517D01*
X8896293Y7066110D01*
Y7064228D01*
Y7062347D01*
X8898174Y7054822D01*
X8900055Y7049177D01*
X8901937Y7045415D01*
X8903818Y7043533D01*
X8792817Y7028482D01*
X8679934Y7011550D01*
X8570814Y6992736D01*
X8461694Y6972041D01*
X8354456Y6949464D01*
X8252861Y6926888D01*
X8156911Y6902430D01*
X8064724Y6879853D01*
X8021452Y6868565D01*
X7981943Y6857277D01*
X7942434Y6847870D01*
X7904806Y6836581D01*
X7870942Y6827175D01*
X7837077Y6817768D01*
X7808856Y6808361D01*
X7780635Y6800835D01*
X7756178Y6793310D01*
X7733601Y6787666D01*
X7714787Y6780140D01*
X7699736Y6776377D01*
X7688448Y6772615D01*
X7679041Y6768852D01*
X7673397Y6766970D01*
X7671516D01*
X7551107Y6725580D01*
X7432581Y6682308D01*
X7314054Y6635274D01*
X7199290Y6586358D01*
X7088288Y6537442D01*
X6981050Y6488526D01*
X6879455Y6441492D01*
X6785386Y6394457D01*
X6740233Y6371881D01*
X6696962Y6349304D01*
X6657453Y6328609D01*
X6617944Y6309795D01*
X6582198Y6290982D01*
X6550214Y6272168D01*
X6518231Y6255235D01*
X6490010Y6240184D01*
X6465552Y6227015D01*
X6442976Y6213845D01*
X6424162Y6204438D01*
X6409111Y6195031D01*
X6395941Y6187506D01*
X6386534Y6181862D01*
X6382354Y6180468D01*
X6379009Y6178099D01*
X6380890Y6179980D01*
X6382354Y6180468D01*
X6514468Y6274049D01*
X6540807Y6292863D01*
X6569028Y6311677D01*
X6629232Y6351186D01*
X6693199Y6390695D01*
X6755284Y6428322D01*
X6785386Y6445255D01*
X6811726Y6460306D01*
X6836184Y6475357D01*
X6858760Y6486645D01*
X6875693Y6497933D01*
X6888862Y6505459D01*
X6896388Y6509221D01*
X6900151Y6511103D01*
X6997982Y6565663D01*
X7095814Y6616460D01*
X7142848Y6642800D01*
X7189883Y6665376D01*
X7235036Y6689834D01*
X7278308Y6710529D01*
X7317816Y6731224D01*
X7353563Y6748157D01*
X7385546Y6763208D01*
X7411885Y6778259D01*
X7434462Y6787666D01*
X7451394Y6795191D01*
X7460801Y6800835D01*
X7464564Y6802717D01*
X7522887Y6830937D01*
X7584972Y6857277D01*
X7709143Y6908074D01*
X7769347Y6932532D01*
X7829551Y6955108D01*
X7887874Y6975803D01*
X7942434Y6996499D01*
X7993231Y7013431D01*
X8040266Y7030363D01*
X8081656Y7043533D01*
X8117402Y7054821D01*
X8147504Y7064228D01*
X8158792Y7067991D01*
X8168199Y7071754D01*
X8175725Y7073635D01*
X8181369Y7075516D01*
X8185132Y7077398D01*
X8187013D01*
X8264150Y7099974D01*
X8339405Y7120670D01*
X8412778Y7141365D01*
X8484271Y7158297D01*
X8553882Y7173348D01*
X8619730Y7186518D01*
X8681816Y7199688D01*
X8740138Y7210976D01*
X8794698Y7218501D01*
X8841733Y7226027D01*
X8883123Y7233552D01*
X8918869Y7239197D01*
X8947090Y7242959D01*
X8960259D01*
X8969666Y7244841D01*
X8977192D01*
X8982836Y7246722D01*
X8986599D01*
Y7237315D01*
D02*
G37*
%LPC*%
G36*
X6743976Y10038044D02*
X6742506D01*
X6736629Y10037750D01*
X6730751Y10036868D01*
X6725462Y10035399D01*
X6720172Y10033636D01*
X6715470Y10031578D01*
X6710768Y10029227D01*
X6706653Y10026876D01*
X6702833Y10024231D01*
X6699306Y10021587D01*
X6696074Y10019235D01*
X6693429Y10016884D01*
X6691372Y10014827D01*
X6689608Y10013064D01*
X6688433Y10011595D01*
X6687551Y10010713D01*
X6687257Y10010419D01*
X6683143Y10004835D01*
X6679617Y9998958D01*
X6676678Y9992493D01*
X6674033Y9985733D01*
X6671682Y9978680D01*
X6669919Y9971627D01*
X6668449Y9964574D01*
X6667274Y9957815D01*
X6666392Y9951350D01*
X6665511Y9945178D01*
X6664923Y9939595D01*
X6664629Y9934892D01*
X6664335Y9931072D01*
Y9928133D01*
Y9926958D01*
Y9926076D01*
Y9925782D01*
Y9925488D01*
X6664629Y9915203D01*
X6665217Y9905799D01*
X6666392Y9896982D01*
X6668156Y9888460D01*
X6669919Y9881113D01*
X6671976Y9874060D01*
X6674033Y9867888D01*
X6676090Y9862011D01*
X6678441Y9857015D01*
X6680498Y9852901D01*
X6682556Y9849080D01*
X6684319Y9846141D01*
X6685788Y9843790D01*
X6686964Y9842321D01*
X6687845Y9841145D01*
X6688139Y9840852D01*
X6692547Y9835856D01*
X6697249Y9831447D01*
X6702245Y9827921D01*
X6706947Y9824688D01*
X6711650Y9821749D01*
X6716352Y9819398D01*
X6721054Y9817635D01*
X6725168Y9816166D01*
X6729282Y9814990D01*
X6733103Y9814109D01*
X6736335Y9813521D01*
X6738980Y9813227D01*
X6741331Y9812933D01*
X6743094Y9812639D01*
X6744564D01*
X6751911Y9812933D01*
X6758964Y9814403D01*
X6765429Y9816166D01*
X6771601Y9818517D01*
X6777184Y9821456D01*
X6782474Y9824688D01*
X6787176Y9828215D01*
X6791584Y9831741D01*
X6795405Y9835268D01*
X6798637Y9838794D01*
X6801576Y9842027D01*
X6803927Y9844966D01*
X6805984Y9847317D01*
X6807160Y9849080D01*
X6808042Y9850550D01*
X6808335Y9850843D01*
X6810686Y9855545D01*
X6813037Y9861129D01*
X6814801Y9866713D01*
X6816564Y9872884D01*
X6818915Y9885521D01*
X6820678Y9898158D01*
X6821266Y9904035D01*
X6821560Y9909619D01*
X6822148Y9914615D01*
Y9919023D01*
X6822442Y9922550D01*
Y9925195D01*
Y9926958D01*
Y9927546D01*
X6822148Y9937244D01*
X6821560Y9946354D01*
X6820384Y9954876D01*
X6818621Y9962811D01*
X6816858Y9970158D01*
X6815095Y9976917D01*
X6812744Y9983088D01*
X6810686Y9988672D01*
X6808629Y9993374D01*
X6806278Y9997782D01*
X6804515Y10001309D01*
X6802458Y10004248D01*
X6800988Y10006599D01*
X6799813Y10008362D01*
X6799225Y10009244D01*
X6798931Y10009538D01*
X6794229Y10014533D01*
X6789527Y10018942D01*
X6784825Y10022762D01*
X6780123Y10025995D01*
X6775421Y10028933D01*
X6770719Y10030991D01*
X6766017Y10033048D01*
X6761902Y10034517D01*
X6757788Y10035693D01*
X6753968Y10036574D01*
X6750735Y10037162D01*
X6748090Y10037750D01*
X6745739D01*
X6743976Y10038044D01*
D02*
G37*
G36*
X4822601Y10144721D02*
X4821132D01*
X4815255Y10144427D01*
X4809671Y10143546D01*
X4804087Y10142370D01*
X4799091Y10140901D01*
X4794095Y10138844D01*
X4789687Y10136786D01*
X4785573Y10134435D01*
X4781752Y10132084D01*
X4778226Y10129733D01*
X4774993Y10127382D01*
X4772348Y10125325D01*
X4770291Y10123268D01*
X4768528Y10121799D01*
X4767352Y10120623D01*
X4766471Y10119742D01*
X4766177Y10119448D01*
X4762063Y10114452D01*
X4758536Y10109162D01*
X4755597Y10103872D01*
X4752952Y10098288D01*
X4750601Y10092411D01*
X4748838Y10086827D01*
X4747369Y10081243D01*
X4746193Y10075954D01*
X4745312Y10070958D01*
X4744430Y10066256D01*
X4743842Y10062141D01*
X4743548Y10058321D01*
X4743254Y10055382D01*
Y10053031D01*
Y10051856D01*
Y10051268D01*
X4743548Y10043333D01*
X4744136Y10035986D01*
X4745312Y10029227D01*
X4746781Y10022762D01*
X4748544Y10016590D01*
X4750307Y10011007D01*
X4752365Y10006011D01*
X4754422Y10001603D01*
X4756479Y9997488D01*
X4758536Y9993962D01*
X4760300Y9991023D01*
X4762063Y9988378D01*
X4763532Y9986615D01*
X4764708Y9985145D01*
X4765296Y9984264D01*
X4765589Y9983970D01*
X4769998Y9979856D01*
X4774406Y9976035D01*
X4779108Y9972803D01*
X4783810Y9970158D01*
X4788806Y9967807D01*
X4793508Y9965749D01*
X4797916Y9964280D01*
X4802324Y9962811D01*
X4806732Y9961929D01*
X4810553Y9961047D01*
X4813785Y9960754D01*
X4816724Y9960166D01*
X4819369D01*
X4821132Y9959872D01*
X4822602D01*
X4829067Y9960166D01*
X4834945Y9961047D01*
X4840822Y9962223D01*
X4846406Y9963692D01*
X4851402Y9965456D01*
X4856104Y9967513D01*
X4860512Y9969570D01*
X4864626Y9971921D01*
X4868153Y9974272D01*
X4871385Y9976329D01*
X4874030Y9978386D01*
X4876381Y9980149D01*
X4878145Y9981619D01*
X4879320Y9983088D01*
X4880202Y9983676D01*
X4880496Y9983970D01*
X4884610Y9988672D01*
X4888137Y9993668D01*
X4891369Y9998958D01*
X4894014Y10004247D01*
X4896071Y10009537D01*
X4898128Y10014827D01*
X4899598Y10019823D01*
X4900773Y10024819D01*
X4901655Y10029227D01*
X4902536Y10033635D01*
X4903124Y10037456D01*
X4903418Y10040688D01*
Y10043333D01*
X4903712Y10045390D01*
Y10046860D01*
Y10047154D01*
X4903418Y10055088D01*
X4902536Y10062729D01*
X4901361Y10069782D01*
X4899891Y10076248D01*
X4898128Y10082713D01*
X4896071Y10088297D01*
X4893720Y10093586D01*
X4891369Y10098582D01*
X4889312Y10102697D01*
X4886961Y10106517D01*
X4884904Y10109750D01*
X4883140Y10112395D01*
X4881671Y10114746D01*
X4880495Y10116215D01*
X4879614Y10117097D01*
X4879320Y10117390D01*
X4874618Y10122093D01*
X4869622Y10126501D01*
X4864920Y10130027D01*
X4859924Y10133260D01*
X4854928Y10135905D01*
X4849932Y10137962D01*
X4845524Y10139725D01*
X4840822Y10141195D01*
X4836708Y10142370D01*
X4832887Y10143252D01*
X4829655Y10143840D01*
X4826716Y10144427D01*
X4824365D01*
X4822601Y10144721D01*
D02*
G37*
G36*
X11517142Y10038045D02*
X11513910D01*
X11506857Y10037751D01*
X11500391Y10036869D01*
X11493926Y10035400D01*
X11488048Y10033637D01*
X11482465Y10031285D01*
X11477469Y10028934D01*
X11472767Y10026290D01*
X11468652Y10023645D01*
X11464832Y10021000D01*
X11461306Y10018355D01*
X11458661Y10016004D01*
X11456310Y10013653D01*
X11454252Y10011890D01*
X11453077Y10010420D01*
X11452195Y10009539D01*
X11451901Y10009245D01*
X11449257Y10005718D01*
X11446612Y10001604D01*
X11442204Y9992787D01*
X11438971Y9983677D01*
X11436620Y9974567D01*
X11435444Y9970453D01*
X11434857Y9966338D01*
X11433975Y9962812D01*
X11433681Y9959873D01*
X11433093Y9957228D01*
Y9955465D01*
X11432800Y9953995D01*
Y9953701D01*
X11597665Y9953702D01*
X11597077Y9960755D01*
X11595902Y9967220D01*
X11594432Y9973685D01*
X11592669Y9979269D01*
X11590612Y9984853D01*
X11588555Y9989849D01*
X11586204Y9994551D01*
X11583853Y9998665D01*
X11581502Y10002192D01*
X11579445Y10005424D01*
X11577388Y10008363D01*
X11575624Y10010714D01*
X11573861Y10012477D01*
X11572685Y10013653D01*
X11572098Y10014534D01*
X11571804Y10014828D01*
X11567395Y10018943D01*
X11562693Y10022469D01*
X11557697Y10025702D01*
X11552702Y10028347D01*
X11548000Y10030404D01*
X11543004Y10032461D01*
X11538595Y10033930D01*
X11533893Y10035106D01*
X11529779Y10035988D01*
X11525959Y10036869D01*
X11522726Y10037457D01*
X11519493Y10037751D01*
X11517142Y10038045D01*
D02*
G37*
G36*
X8328566Y10038044D02*
X8325333D01*
X8318280Y10037750D01*
X8311815Y10036868D01*
X8305350Y10035399D01*
X8299472Y10033636D01*
X8293888Y10031285D01*
X8288892Y10028934D01*
X8284190Y10026289D01*
X8280076Y10023644D01*
X8276256Y10020999D01*
X8272729Y10018354D01*
X8270084Y10016003D01*
X8267733Y10013652D01*
X8265676Y10011889D01*
X8264501Y10010419D01*
X8263619Y10009538D01*
X8263325Y10009244D01*
X8260680Y10005717D01*
X8258036Y10001603D01*
X8253627Y9992787D01*
X8250395Y9983677D01*
X8248044Y9974566D01*
X8246868Y9970452D01*
X8246280Y9966338D01*
X8245399Y9962811D01*
X8245105Y9959872D01*
X8244517Y9957227D01*
Y9955464D01*
X8244223Y9953995D01*
Y9953701D01*
X8409089D01*
X8408501Y9960754D01*
X8407326Y9967219D01*
X8405856Y9973685D01*
X8404093Y9979268D01*
X8402036Y9984852D01*
X8399979Y9989848D01*
X8397628Y9994550D01*
X8395277Y9998664D01*
X8392926Y10002191D01*
X8390868Y10005423D01*
X8388811Y10008362D01*
X8387048Y10010713D01*
X8385284Y10012477D01*
X8384109Y10013652D01*
X8383521Y10014534D01*
X8383227Y10014828D01*
X8378819Y10018942D01*
X8374117Y10022468D01*
X8369121Y10025701D01*
X8364125Y10028346D01*
X8359423Y10030403D01*
X8354427Y10032460D01*
X8350019Y10033930D01*
X8345317Y10035105D01*
X8341203Y10035987D01*
X8337382Y10036868D01*
X8334150Y10037456D01*
X8330917Y10037750D01*
X8328566Y10038044D01*
D02*
G37*
G36*
X7538916D02*
X7535683D01*
X7528630Y10037750D01*
X7522165Y10036868D01*
X7515699Y10035399D01*
X7509822Y10033636D01*
X7504238Y10031285D01*
X7499242Y10028934D01*
X7494540Y10026289D01*
X7490426Y10023644D01*
X7486606Y10020999D01*
X7483079Y10018354D01*
X7480434Y10016003D01*
X7478083Y10013652D01*
X7476026Y10011889D01*
X7474850Y10010419D01*
X7473969Y10009538D01*
X7473675Y10009244D01*
X7471030Y10005717D01*
X7468385Y10001603D01*
X7463977Y9992787D01*
X7460745Y9983677D01*
X7458394Y9974566D01*
X7457218Y9970452D01*
X7456630Y9966338D01*
X7455749Y9962811D01*
X7455455Y9959872D01*
X7454867Y9957227D01*
Y9955464D01*
X7454573Y9953995D01*
Y9953701D01*
X7619439D01*
X7618851Y9960754D01*
X7617675Y9967219D01*
X7616206Y9973685D01*
X7614443Y9979268D01*
X7612386Y9984852D01*
X7610328Y9989848D01*
X7607977Y9994550D01*
X7605626Y9998664D01*
X7603275Y10002191D01*
X7601218Y10005423D01*
X7599161Y10008362D01*
X7597398Y10010713D01*
X7595634Y10012477D01*
X7594459Y10013652D01*
X7593871Y10014534D01*
X7593577Y10014828D01*
X7589169Y10018942D01*
X7584467Y10022468D01*
X7579471Y10025701D01*
X7574475Y10028346D01*
X7569773Y10030403D01*
X7564777Y10032460D01*
X7560369Y10033930D01*
X7555667Y10035105D01*
X7551553Y10035987D01*
X7547732Y10036868D01*
X7544500Y10037456D01*
X7541267Y10037750D01*
X7538916Y10038044D01*
D02*
G37*
G36*
X6433935Y10038044D02*
X6430702D01*
X6423649Y10037750D01*
X6417184Y10036868D01*
X6410718Y10035399D01*
X6404841Y10033636D01*
X6399257Y10031284D01*
X6394261Y10028933D01*
X6389559Y10026289D01*
X6385445Y10023644D01*
X6381624Y10020999D01*
X6378098Y10018354D01*
X6375453Y10016003D01*
X6373102Y10013652D01*
X6371045Y10011889D01*
X6369869Y10010419D01*
X6368988Y10009538D01*
X6368694Y10009244D01*
X6366049Y10005717D01*
X6363404Y10001603D01*
X6358996Y9992786D01*
X6355763Y9983676D01*
X6353412Y9974566D01*
X6352237Y9970452D01*
X6351649Y9966337D01*
X6350767Y9962811D01*
X6350473Y9959872D01*
X6349886Y9957227D01*
Y9955464D01*
X6349592Y9953995D01*
Y9953701D01*
X6514457D01*
X6513870Y9960754D01*
X6512694Y9967219D01*
X6511225Y9973684D01*
X6509461Y9979268D01*
X6507404Y9984852D01*
X6505347Y9989848D01*
X6502996Y9994550D01*
X6500645Y9998664D01*
X6498294Y10002191D01*
X6496237Y10005423D01*
X6494180Y10008362D01*
X6492416Y10010713D01*
X6490653Y10012476D01*
X6489477Y10013652D01*
X6488890Y10014533D01*
X6488596Y10014827D01*
X6484188Y10018942D01*
X6479486Y10022468D01*
X6474490Y10025701D01*
X6469494Y10028346D01*
X6464792Y10030403D01*
X6459796Y10032460D01*
X6455388Y10033929D01*
X6450686Y10035105D01*
X6446571Y10035987D01*
X6442751Y10036868D01*
X6439518Y10037456D01*
X6436286Y10037750D01*
X6433935Y10038044D01*
D02*
G37*
G36*
X11984408Y10139726D02*
X11855984D01*
X11847755Y10139433D01*
X11840114Y10138845D01*
X11833061Y10137963D01*
X11826596Y10136788D01*
X11820718Y10135318D01*
X11815135Y10133849D01*
X11810139Y10132086D01*
X11806024Y10130322D01*
X11802204Y10128559D01*
X11798971Y10126796D01*
X11796033Y10125326D01*
X11793682Y10123857D01*
X11792212Y10122682D01*
X11790743Y10121800D01*
X11790155Y10121212D01*
X11789861Y10120918D01*
X11786041Y10117392D01*
X11782808Y10113571D01*
X11780163Y10109751D01*
X11777518Y10105637D01*
X11775461Y10101816D01*
X11773992Y10097702D01*
X11772522Y10093882D01*
X11771347Y10090355D01*
X11770465Y10086828D01*
X11769877Y10083596D01*
X11769290Y10080951D01*
X11768996Y10078306D01*
X11768702Y10076249D01*
Y10074779D01*
Y10073898D01*
Y10073604D01*
X11769290Y10066257D01*
X11770465Y10059498D01*
X11772228Y10053326D01*
X11773992Y10048037D01*
X11776049Y10043628D01*
X11776930Y10041571D01*
X11777812Y10040102D01*
X11778694Y10038926D01*
X11778988Y10038045D01*
X11779575Y10037457D01*
Y10037163D01*
X11783984Y10031285D01*
X11788979Y10026290D01*
X11794269Y10022175D01*
X11799559Y10018649D01*
X11804261Y10016004D01*
X11806024Y10015122D01*
X11807788Y10014241D01*
X11809257Y10013653D01*
X11810433Y10013065D01*
X11811020Y10012771D01*
X11811314D01*
X11815428Y10011596D01*
X11819543Y10010420D01*
X11828947Y10008657D01*
X11838645Y10007188D01*
X11847755Y10006306D01*
X11852163Y10006012D01*
X11855984Y10005718D01*
X11859804D01*
X11862743Y10005424D01*
X11984409D01*
X11984408Y10139726D01*
D02*
G37*
G36*
X9651017Y10136787D02*
X9561972D01*
X9554625Y10136493D01*
X9547866Y10136199D01*
X9541694Y10135906D01*
X9536111Y10135318D01*
X9531115Y10135024D01*
X9526707Y10134436D01*
X9522592Y10133848D01*
X9519066Y10133261D01*
X9516127Y10132673D01*
X9513776Y10132379D01*
X9511719Y10131791D01*
X9510249Y10131497D01*
X9509074Y10131204D01*
X9508486Y10130910D01*
X9508192D01*
X9501727Y10128265D01*
X9496437Y10125326D01*
X9491441Y10121799D01*
X9487621Y10118273D01*
X9484682Y10115040D01*
X9482331Y10112395D01*
X9481156Y10110338D01*
X9480568Y10110044D01*
Y10109750D01*
X9477335Y10103873D01*
X9474690Y10097701D01*
X9472927Y10091824D01*
X9471751Y10086240D01*
X9471164Y10081538D01*
X9470870Y10079481D01*
X9470576Y10077718D01*
Y10076248D01*
Y10075073D01*
Y10074485D01*
Y10074191D01*
X9471164Y10066550D01*
X9472339Y10059497D01*
X9473809Y10053326D01*
X9475866Y10048330D01*
X9477923Y10043922D01*
X9478805Y10042452D01*
X9479392Y10040983D01*
X9480274Y10039807D01*
X9480568Y10038926D01*
X9481156Y10038632D01*
Y10038338D01*
X9485564Y10033342D01*
X9490266Y10029228D01*
X9495556Y10025701D01*
X9500551Y10023056D01*
X9504960Y10020999D01*
X9507017Y10020118D01*
X9508486Y10019530D01*
X9509956Y10018942D01*
X9511131Y10018648D01*
X9511719Y10018354D01*
X9512013D01*
X9515245Y10017473D01*
X9518772Y10016885D01*
X9522592Y10016297D01*
X9526707Y10015709D01*
X9535229Y10014828D01*
X9543458Y10014240D01*
X9547572Y10013946D01*
X9554625D01*
X9557564Y10013652D01*
X9651017D01*
Y10136787D01*
D02*
G37*
G36*
X9651017Y9965750D02*
X9550217D01*
X9543458Y9965456D01*
X9537286Y9965162D01*
X9531703Y9964575D01*
X9526413Y9963987D01*
X9521417Y9963399D01*
X9517009Y9962811D01*
X9512895Y9962224D01*
X9509368Y9961636D01*
X9506429Y9961048D01*
X9503784Y9960460D01*
X9501727Y9959873D01*
X9499964Y9959285D01*
X9498788Y9958991D01*
X9498201Y9958697D01*
X9497907D01*
X9490560Y9955758D01*
X9484095Y9952232D01*
X9478511Y9948411D01*
X9473809Y9944297D01*
X9469988Y9940771D01*
X9467344Y9937832D01*
X9466462Y9936656D01*
X9465874Y9936069D01*
X9465286Y9935481D01*
Y9935187D01*
X9461466Y9928722D01*
X9458527Y9921962D01*
X9456470Y9915497D01*
X9455001Y9909326D01*
X9454119Y9903742D01*
X9453825Y9901685D01*
Y9899628D01*
X9453531Y9898158D01*
Y9896689D01*
Y9896101D01*
Y9895807D01*
X9453825Y9888754D01*
X9454707Y9881995D01*
X9456176Y9876117D01*
X9457646Y9871121D01*
X9459115Y9867007D01*
X9460584Y9863775D01*
X9460878Y9862599D01*
X9461466Y9861717D01*
X9461760Y9861424D01*
Y9861130D01*
X9464992Y9855840D01*
X9468225Y9851432D01*
X9471752Y9847611D01*
X9474984Y9844379D01*
X9477923Y9841734D01*
X9480274Y9839970D01*
X9481744Y9838795D01*
X9482037Y9838501D01*
X9482331D01*
X9487327Y9835856D01*
X9492323Y9833505D01*
X9497613Y9831742D01*
X9502315Y9830272D01*
X9506723Y9829097D01*
X9509956Y9828215D01*
X9511425Y9827921D01*
X9512307D01*
X9512895Y9827628D01*
X9513188D01*
X9515246Y9827334D01*
X9517891Y9827040D01*
X9523474Y9826746D01*
X9529352Y9826158D01*
X9535523D01*
X9541107Y9825864D01*
X9651017D01*
Y9965750D01*
D02*
G37*
G36*
X10381304Y10037751D02*
X10379541D01*
X10372781Y10037457D01*
X10366316Y10036575D01*
X10360145Y10035106D01*
X10354267Y10033342D01*
X10348683Y10031285D01*
X10343687Y10028934D01*
X10338985Y10026289D01*
X10334871Y10023644D01*
X10331051Y10021000D01*
X10327524Y10018355D01*
X10324585Y10016004D01*
X10322234Y10013946D01*
X10320471Y10012183D01*
X10319002Y10010714D01*
X10318120Y10009832D01*
X10317826Y10009538D01*
X10313418Y10003955D01*
X10309598Y9997783D01*
X10306365Y9991318D01*
X10303426Y9984853D01*
X10301075Y9977799D01*
X10299018Y9971040D01*
X10297255Y9964281D01*
X10296079Y9957816D01*
X10294904Y9951350D01*
X10294022Y9945767D01*
X10293728Y9940477D01*
X10293141Y9935775D01*
Y9932248D01*
X10292847Y9929310D01*
Y9927546D01*
Y9927252D01*
Y9926959D01*
X10293141Y9916379D01*
X10294022Y9906681D01*
X10295198Y9897571D01*
X10296667Y9889048D01*
X10298431Y9881407D01*
X10300782Y9874354D01*
X10302839Y9867889D01*
X10305190Y9862305D01*
X10307541Y9857309D01*
X10309598Y9852901D01*
X10311655Y9849081D01*
X10313712Y9846142D01*
X10315182Y9843791D01*
X10316357Y9842322D01*
X10317239Y9841146D01*
X10317533Y9840852D01*
X10322235Y9835856D01*
X10327231Y9831448D01*
X10332520Y9827922D01*
X10337516Y9824689D01*
X10342806Y9821750D01*
X10348096Y9819399D01*
X10353092Y9817636D01*
X10357794Y9816167D01*
X10362202Y9814991D01*
X10366316Y9814109D01*
X10370137Y9813522D01*
X10373369Y9813228D01*
X10376014Y9812934D01*
X10377778Y9812640D01*
X10379541D01*
X10386300Y9812934D01*
X10392765Y9813816D01*
X10399231Y9815285D01*
X10405108Y9817048D01*
X10410398Y9819105D01*
X10415688Y9821456D01*
X10420390Y9824101D01*
X10424504Y9826746D01*
X10428325Y9829097D01*
X10431851Y9831742D01*
X10434790Y9834093D01*
X10437141Y9836150D01*
X10438904Y9837914D01*
X10440374Y9839383D01*
X10441255Y9840265D01*
X10441549Y9840558D01*
X10445957Y9846142D01*
X10449484Y9852314D01*
X10452716Y9858779D01*
X10455655Y9865832D01*
X10458006Y9872591D01*
X10460063Y9879644D01*
X10461533Y9886697D01*
X10463002Y9893456D01*
X10463884Y9899922D01*
X10464765Y9905799D01*
X10465059Y9911383D01*
X10465647Y9916085D01*
Y9919905D01*
X10465941Y9922844D01*
Y9923726D01*
Y9924608D01*
Y9924901D01*
Y9925195D01*
X10465647Y9935481D01*
X10464765Y9944885D01*
X10463590Y9953995D01*
X10462121Y9962224D01*
X10460357Y9969865D01*
X10458300Y9976624D01*
X10455949Y9982795D01*
X10453598Y9988673D01*
X10451541Y9993375D01*
X10449190Y9997783D01*
X10447133Y10001310D01*
X10445370Y10004248D01*
X10443900Y10006599D01*
X10442725Y10008363D01*
X10441843Y10009244D01*
X10441549Y10009538D01*
X10436847Y10014534D01*
X10431851Y10018942D01*
X10426561Y10022763D01*
X10421565Y10025995D01*
X10416275Y10028640D01*
X10410986Y10030991D01*
X10405990Y10032755D01*
X10401288Y10034224D01*
X10396879Y10035400D01*
X10392765Y10036281D01*
X10388945Y10036869D01*
X10385712Y10037457D01*
X10383067D01*
X10381304Y10037751D01*
D02*
G37*
G36*
X5456496Y10144721D02*
X5455027D01*
X5448562Y10144427D01*
X5442390Y10143252D01*
X5436807Y10141782D01*
X5431223Y10139431D01*
X5425933Y10137080D01*
X5421231Y10134142D01*
X5416823Y10131203D01*
X5412709Y10128264D01*
X5409182Y10125031D01*
X5405949Y10122093D01*
X5403304Y10119154D01*
X5400953Y10116803D01*
X5399190Y10114452D01*
X5398015Y10112982D01*
X5397133Y10111807D01*
X5396839Y10111513D01*
X5394782Y10108280D01*
X5392725Y10104460D01*
X5390962Y10100639D01*
X5389198Y10096231D01*
X5385966Y10087121D01*
X5383321Y10076835D01*
X5380970Y10065962D01*
X5378913Y10054794D01*
X5377443Y10043627D01*
X5376268Y10032754D01*
X5375386Y10021880D01*
X5374504Y10011888D01*
X5373917Y10002778D01*
Y9998370D01*
X5373623Y9994549D01*
Y9991023D01*
X5373329Y9987790D01*
Y9985145D01*
Y9982794D01*
Y9981031D01*
Y9979562D01*
Y9978680D01*
Y9978386D01*
Y9969276D01*
X5373623Y9960460D01*
X5373917Y9951937D01*
X5374211Y9944002D01*
X5374798Y9936362D01*
X5375386Y9929015D01*
X5376268Y9921962D01*
X5376856Y9915496D01*
X5377737Y9909031D01*
X5378913Y9903153D01*
X5379794Y9897570D01*
X5380676Y9892280D01*
X5381852Y9887284D01*
X5383027Y9882876D01*
X5383909Y9878468D01*
X5385084Y9874353D01*
X5387141Y9867006D01*
X5389492Y9861129D01*
X5391256Y9856133D01*
X5393019Y9852019D01*
X5394782Y9849080D01*
X5395958Y9847023D01*
X5396545Y9845553D01*
X5396839Y9845259D01*
X5401248Y9839382D01*
X5405950Y9834386D01*
X5410945Y9829978D01*
X5415648Y9826157D01*
X5420643Y9822925D01*
X5425346Y9820280D01*
X5430048Y9818223D01*
X5434456Y9816459D01*
X5438570Y9814990D01*
X5442390Y9814108D01*
X5445917Y9813227D01*
X5448856Y9812933D01*
X5451207Y9812639D01*
X5452970Y9812345D01*
X5454439D01*
X5460611Y9812639D01*
X5466782Y9813815D01*
X5472660Y9815284D01*
X5477950Y9817635D01*
X5483239Y9819986D01*
X5487942Y9822631D01*
X5492350Y9825864D01*
X5496170Y9828802D01*
X5499991Y9831741D01*
X5502929Y9834974D01*
X5505868Y9837619D01*
X5508219Y9840264D01*
X5509982Y9842321D01*
X5511158Y9843790D01*
X5512040Y9844966D01*
X5512333Y9845259D01*
X5514391Y9848492D01*
X5516448Y9852313D01*
X5518211Y9856133D01*
X5519974Y9860541D01*
X5523207Y9869651D01*
X5525852Y9879937D01*
X5527909Y9890811D01*
X5529966Y9901978D01*
X5531435Y9913145D01*
X5532611Y9924313D01*
X5533493Y9934892D01*
X5534374Y9944884D01*
X5534962Y9954288D01*
Y9958402D01*
X5535256Y9962223D01*
Y9965749D01*
Y9968982D01*
X5535550Y9971627D01*
Y9973978D01*
Y9976035D01*
Y9977211D01*
Y9978092D01*
Y9978386D01*
Y9987496D01*
X5535256Y9996313D01*
X5534962Y10004835D01*
X5534374Y10013064D01*
X5533786Y10020705D01*
X5533198Y10028052D01*
X5532317Y10035105D01*
X5531435Y10041864D01*
X5530554Y10048329D01*
X5529672Y10054501D01*
X5528496Y10060378D01*
X5527321Y10065668D01*
X5526439Y10070958D01*
X5525264Y10075660D01*
X5524088Y10080362D01*
X5522619Y10084476D01*
X5520268Y10092117D01*
X5517917Y10098582D01*
X5515860Y10103872D01*
X5514096Y10108280D01*
X5512333Y10111513D01*
X5511158Y10113864D01*
X5510276Y10115333D01*
X5509982Y10115627D01*
X5505868Y10120623D01*
X5501754Y10125325D01*
X5497345Y10129146D01*
X5492643Y10132378D01*
X5488235Y10135317D01*
X5483533Y10137668D01*
X5479125Y10139431D01*
X5474717Y10141195D01*
X5470602Y10142370D01*
X5467076Y10143252D01*
X5463549Y10143840D01*
X5460611Y10144133D01*
X5458260Y10144427D01*
X5456496Y10144721D01*
D02*
G37*
G36*
X8006476Y10040101D02*
X8005006D01*
X7999129Y10039807D01*
X7993545Y10038926D01*
X7987961Y10037456D01*
X7982965Y10035693D01*
X7977970Y10033636D01*
X7973561Y10031285D01*
X7969153Y10028640D01*
X7965333Y10025995D01*
X7961806Y10023350D01*
X7958867Y10020705D01*
X7956223Y10018354D01*
X7953872Y10016297D01*
X7952108Y10014534D01*
X7950933Y10013064D01*
X7950051Y10012183D01*
X7949757Y10011889D01*
X7945643Y10006305D01*
X7942117Y10000134D01*
X7938884Y9993668D01*
X7936239Y9986909D01*
X7934182Y9980150D01*
X7932125Y9973097D01*
X7930655Y9966044D01*
X7929480Y9959285D01*
X7928598Y9953113D01*
X7927717Y9946942D01*
X7927129Y9941652D01*
X7926835Y9936950D01*
X7926541Y9933129D01*
Y9930191D01*
Y9929309D01*
Y9928427D01*
Y9928134D01*
Y9927840D01*
X7926835Y9917260D01*
X7927423Y9907268D01*
X7928598Y9897864D01*
X7930362Y9889342D01*
X7932125Y9881407D01*
X7934182Y9874354D01*
X7936239Y9867889D01*
X7938296Y9862011D01*
X7940647Y9857015D01*
X7942704Y9852607D01*
X7944762Y9848786D01*
X7946525Y9845848D01*
X7947994Y9843497D01*
X7949170Y9842027D01*
X7950051Y9840852D01*
X7950345Y9840558D01*
X7954753Y9835562D01*
X7959456Y9831448D01*
X7964158Y9827627D01*
X7969153Y9824395D01*
X7973856Y9821750D01*
X7978558Y9819399D01*
X7983260Y9817635D01*
X7987374Y9816166D01*
X7991488Y9814991D01*
X7995309Y9814109D01*
X7998541Y9813521D01*
X8001480Y9813227D01*
X8003831Y9812933D01*
X8005594Y9812640D01*
X8007064D01*
X8012941Y9812933D01*
X8018819Y9813815D01*
X8024403Y9815284D01*
X8029398Y9816754D01*
X8034394Y9818811D01*
X8039096Y9821162D01*
X8043211Y9823513D01*
X8047031Y9826158D01*
X8050558Y9828803D01*
X8053496Y9831154D01*
X8056141Y9833505D01*
X8058492Y9835562D01*
X8060256Y9837325D01*
X8061431Y9838501D01*
X8062313Y9839382D01*
X8062607Y9839676D01*
X8066721Y9844966D01*
X8070248Y9851138D01*
X8073186Y9857603D01*
X8075831Y9864362D01*
X8078182Y9871121D01*
X8079945Y9878174D01*
X8081415Y9885227D01*
X8082590Y9891987D01*
X8083472Y9898158D01*
X8084354Y9904329D01*
X8084941Y9909619D01*
X8085235Y9914321D01*
Y9918436D01*
X8085529Y9921374D01*
Y9922256D01*
Y9923138D01*
Y9923432D01*
Y9923725D01*
X8085235Y9934011D01*
X8084354Y9943709D01*
X8083178Y9952819D01*
X8081709Y9961048D01*
X8079945Y9968983D01*
X8077888Y9976036D01*
X8075537Y9982501D01*
X8073186Y9988085D01*
X8071129Y9993374D01*
X8068778Y9997783D01*
X8066721Y10001603D01*
X8064958Y10004542D01*
X8063488Y10006893D01*
X8062313Y10008656D01*
X8061431Y10009832D01*
X8061137Y10010126D01*
X8056435Y10015415D01*
X8051733Y10020117D01*
X8047031Y10023938D01*
X8042035Y10027464D01*
X8037333Y10030403D01*
X8032631Y10032754D01*
X8028223Y10034811D01*
X8023815Y10036281D01*
X8019994Y10037456D01*
X8016468Y10038632D01*
X8013235Y10039219D01*
X8010296Y10039513D01*
X8007945Y10039807D01*
X8006476Y10040101D01*
D02*
G37*
G36*
X8100469Y9128100D02*
X8096706Y9122456D01*
X8094825Y9120574D01*
X8092944Y9116812D01*
X8096706Y9122456D01*
X8098588Y9124337D01*
X8100469Y9128100D01*
D02*
G37*
G36*
X8947089Y8875995D02*
X8943327Y8874114D01*
X8939295Y8870083D01*
X8947089Y8875995D01*
D02*
G37*
G36*
X8092944Y9116812D02*
X8070367Y9082947D01*
X8049672Y9045319D01*
X8034621Y9007692D01*
X8021451Y8973827D01*
X8012044Y8945606D01*
X8010163Y8932437D01*
X8006400Y8923030D01*
X8004519Y8913623D01*
X8002638Y8907979D01*
Y8904216D01*
Y8902334D01*
X7996993Y8859063D01*
X7995112Y8819554D01*
Y8783808D01*
X7996993Y8751824D01*
X8000756Y8725485D01*
X8004519Y8704790D01*
X8006401Y8697264D01*
Y8691620D01*
X8008282Y8689739D01*
Y8687857D01*
X8019570Y8652111D01*
X8030858Y8616365D01*
X8045909Y8582500D01*
X8059079Y8552398D01*
X8072249Y8526059D01*
X8083537Y8505364D01*
X8087300Y8497838D01*
X8091063Y8492194D01*
X8092944Y8490313D01*
Y8488431D01*
X8115520Y8452685D01*
X8136216Y8418820D01*
X8156911Y8390600D01*
X8173843Y8364260D01*
X8188894Y8345447D01*
X8200182Y8330396D01*
X8209589Y8320989D01*
X8211471Y8317226D01*
X8256624Y8266429D01*
X8279200Y8243852D01*
X8299896Y8223157D01*
X8316828Y8204343D01*
X8331879Y8191174D01*
X8339404Y8183648D01*
X8343167Y8179885D01*
X8367625Y8157309D01*
X8388320Y8138495D01*
X8405253Y8121563D01*
X8418422Y8110274D01*
X8429711Y8100867D01*
X8435355Y8095223D01*
X8439117Y8093342D01*
X8440999Y8091461D01*
X8457931Y8078291D01*
X8471101Y8068884D01*
X8478626Y8063240D01*
X8482389Y8061359D01*
X8476745Y8098986D01*
Y8138495D01*
X8480508Y8176123D01*
X8486152Y8209987D01*
X8493677Y8240089D01*
X8497440Y8251378D01*
X8499322Y8262666D01*
X8503084Y8272073D01*
X8504966Y8277717D01*
X8506847Y8281480D01*
Y8283361D01*
X8523779Y8328514D01*
X8542593Y8369905D01*
X8559526Y8407532D01*
X8576458Y8439516D01*
X8591509Y8465855D01*
X8602797Y8484669D01*
X8608442Y8492194D01*
X8610323Y8497838D01*
X8614086Y8499720D01*
Y8501601D01*
X8638544Y8537347D01*
X8664883Y8573094D01*
X8691222Y8605077D01*
X8715680Y8635179D01*
X8736375Y8659637D01*
X8753308Y8678451D01*
X8758952Y8685976D01*
X8764596Y8691620D01*
X8766477Y8693502D01*
X8768359Y8695383D01*
X8798460Y8729248D01*
X8824800Y8757469D01*
X8847376Y8780045D01*
X8864309Y8798859D01*
X8875597Y8812029D01*
X8885004Y8819554D01*
X8890648Y8825198D01*
X8892529Y8827080D01*
X8916987Y8849656D01*
X8933920Y8864707D01*
X8939295Y8870083D01*
X8892529Y8834605D01*
X8841732Y8795096D01*
X8794698Y8757469D01*
X8751426Y8723604D01*
X8710036Y8689739D01*
X8670527Y8657756D01*
X8636662Y8627654D01*
X8602797Y8599433D01*
X8572695Y8571212D01*
X8546356Y8546754D01*
X8521898Y8522296D01*
X8499322Y8501601D01*
X8478626Y8480906D01*
X8459813Y8462092D01*
X8442880Y8443278D01*
X8429711Y8426346D01*
X8405253Y8398125D01*
X8386439Y8373667D01*
X8375151Y8354853D01*
X8365744Y8339802D01*
X8361981Y8328514D01*
X8358218Y8320989D01*
Y8317226D01*
Y8315345D01*
X8305540Y8377430D01*
X8260387Y8435753D01*
X8222759Y8488431D01*
X8205827Y8512889D01*
X8190776Y8535466D01*
X8177606Y8556161D01*
X8166318Y8574975D01*
X8156911Y8591907D01*
X8149385Y8605077D01*
X8141860Y8616365D01*
X8138097Y8623891D01*
X8134334Y8629535D01*
Y8631416D01*
X8107995Y8685976D01*
X8089181Y8733010D01*
X8074130Y8776282D01*
X8064723Y8812028D01*
X8060960Y8827079D01*
X8059079Y8840249D01*
X8057197Y8853419D01*
X8055316Y8862826D01*
X8053435Y8870351D01*
Y8875995D01*
Y8877877D01*
Y8879758D01*
Y8915504D01*
Y8945606D01*
Y8971945D01*
X8055316Y8992641D01*
X8057197Y9009573D01*
X8059079Y9022743D01*
X8060960Y9030268D01*
Y9032150D01*
X8066604Y9050963D01*
X8070367Y9069777D01*
X8077893Y9084828D01*
X8083537Y9097998D01*
X8089181Y9107405D01*
X8092944Y9116812D01*
D02*
G37*
G36*
X8915106Y8672807D02*
X8860546Y8623891D01*
X8811630Y8573094D01*
X8770240Y8524178D01*
X8732612Y8479025D01*
X8717561Y8458330D01*
X8704392Y8439516D01*
X8693104Y8422583D01*
X8681815Y8407532D01*
X8674290Y8396244D01*
X8668646Y8386837D01*
X8666764Y8381193D01*
X8664883Y8379312D01*
X8647950Y8349210D01*
X8632899Y8317226D01*
X8619730Y8289006D01*
X8608442Y8260785D01*
X8591509Y8208106D01*
X8585865Y8183648D01*
X8582102Y8162953D01*
X8578339Y8142258D01*
X8574577Y8123444D01*
Y8108393D01*
X8572695Y8095224D01*
Y8085817D01*
Y8076410D01*
Y8072647D01*
Y8070766D01*
X8574577Y8046308D01*
X8580221Y8021850D01*
X8587746Y8003036D01*
X8597153Y7984222D01*
X8608442Y7967290D01*
X8621611Y7952239D01*
X8647950Y7929662D01*
X8672408Y7912730D01*
X8694985Y7901442D01*
X8704392Y7897679D01*
X8711917Y7895798D01*
X8715680Y7893916D01*
X8717561D01*
X8743901Y7888272D01*
X8768359Y7884509D01*
X8819156Y7882628D01*
X8864309Y7886391D01*
X8903818Y7892035D01*
X8922632Y7897679D01*
X8937683Y7901442D01*
X8952734Y7905204D01*
X8964022Y7908967D01*
X8973429Y7912730D01*
X8980954Y7916493D01*
X8984717Y7918374D01*
X8986598D01*
X9033633Y7942832D01*
X9075023Y7967290D01*
X9112651Y7993629D01*
X9142753Y8018087D01*
X9167211Y8038782D01*
X9186025Y8055715D01*
X9197313Y8067003D01*
X9199194Y8068884D01*
X9201076Y8070766D01*
X9231178Y8108393D01*
X9259398Y8146021D01*
X9285738Y8183648D01*
X9308314Y8217513D01*
X9327128Y8249497D01*
X9336535Y8262666D01*
X9342179Y8272073D01*
X9347823Y8281480D01*
X9351586Y8289006D01*
X9355349Y8292768D01*
Y8294650D01*
X9368518Y8319108D01*
X9379806Y8339803D01*
X9400502Y8379312D01*
X9417434Y8409414D01*
X9430604Y8435753D01*
X9440011Y8454567D01*
X9445655Y8467736D01*
X9449417Y8475262D01*
X9451299Y8477143D01*
X9458824Y8495957D01*
X9464468Y8512890D01*
X9470113Y8527941D01*
X9473875Y8539229D01*
X9477638Y8548636D01*
X9479520Y8556161D01*
X9481401Y8559924D01*
Y8561805D01*
X9449417Y8503483D01*
X9434366Y8479025D01*
X9419315Y8452685D01*
X9402383Y8428227D01*
X9385451Y8403770D01*
X9372281Y8383074D01*
X9360993Y8368023D01*
X9351586Y8356735D01*
X9349704Y8354854D01*
Y8352972D01*
X9325247Y8320989D01*
X9300789Y8290887D01*
X9276331Y8262666D01*
X9253754Y8236327D01*
X9234940Y8215632D01*
X9219889Y8198699D01*
X9210482Y8187411D01*
X9206720Y8185530D01*
Y8183648D01*
X9174736Y8153546D01*
X9142753Y8129088D01*
X9110769Y8106512D01*
X9082549Y8087698D01*
X9056209Y8072647D01*
X9037396Y8063240D01*
X9029870Y8059477D01*
X9024226Y8055715D01*
X9020463Y8053833D01*
X9018582D01*
X8979073Y8040664D01*
X8941445Y8031257D01*
X8905699Y8025613D01*
X8849258D01*
X8828563Y8027494D01*
X8821037D01*
X8815393Y8029375D01*
X8811630D01*
X8789054Y8036901D01*
X8768359Y8044426D01*
X8751426Y8055715D01*
X8736375Y8067003D01*
X8725087Y8080173D01*
X8713799Y8095224D01*
X8706273Y8110275D01*
X8700629Y8127207D01*
X8693104Y8162953D01*
Y8202462D01*
X8698748Y8243852D01*
X8708155Y8285243D01*
X8719443Y8324752D01*
X8732612Y8362379D01*
X8747663Y8398125D01*
X8762715Y8430109D01*
X8775884Y8456448D01*
X8787172Y8477143D01*
X8790935Y8484669D01*
X8794698Y8490313D01*
X8796579Y8492194D01*
Y8494076D01*
X8817274Y8526059D01*
X8836088Y8552398D01*
X8851139Y8576856D01*
X8864309Y8597552D01*
X8875597Y8614484D01*
X8886885Y8629535D01*
X8894411Y8640823D01*
X8900055Y8650230D01*
X8905699Y8657756D01*
X8909462Y8663400D01*
X8913225Y8670925D01*
X8915106Y8672807D01*
D02*
G37*
G36*
X9549131Y8714197D02*
X9599928Y8655874D01*
X9646962Y8599433D01*
X9686471Y8541110D01*
X9722217Y8486550D01*
X9754201Y8433872D01*
X9780540Y8381193D01*
X9804998Y8334159D01*
X9823812Y8289006D01*
X9838863Y8247615D01*
X9852032Y8209988D01*
X9861439Y8176123D01*
X9868965Y8147902D01*
X9874609Y8125326D01*
X9878372Y8108393D01*
X9880253Y8098986D01*
Y8095224D01*
X9885897Y8038782D01*
Y7982341D01*
X9880253Y7929662D01*
X9872728Y7878865D01*
X9861439Y7831831D01*
X9848270Y7786678D01*
X9833219Y7745287D01*
X9818168Y7705778D01*
X9801235Y7670032D01*
X9784303Y7639930D01*
X9769252Y7611709D01*
X9754201Y7589133D01*
X9742912Y7572201D01*
X9731624Y7559031D01*
X9725980Y7549624D01*
X9724099Y7547743D01*
X9688352Y7502590D01*
X9648844Y7461199D01*
X9611216Y7421690D01*
X9573588Y7389707D01*
X9541605Y7361486D01*
X9528435Y7350198D01*
X9515266Y7340791D01*
X9505859Y7333265D01*
X9498333Y7327621D01*
X9494571Y7323859D01*
X9492689Y7321977D01*
X9468231Y7303163D01*
X9443773Y7286231D01*
X9402383Y7258010D01*
X9370400Y7235434D01*
X9342179Y7216620D01*
X9321484Y7205332D01*
X9308314Y7195925D01*
X9298907Y7192162D01*
X9297026Y7190281D01*
X9276331Y7180874D01*
X9257517Y7171467D01*
X9242466Y7163941D01*
X9227415Y7158297D01*
X9218008Y7152653D01*
X9208601Y7150772D01*
X9205779Y7147950D01*
X9253754Y7163941D01*
X9300789Y7182755D01*
X9347823Y7201569D01*
X9391095Y7220383D01*
X9432485Y7239197D01*
X9471994Y7259892D01*
X9509622Y7278706D01*
X9545368Y7297519D01*
X9579233Y7318214D01*
X9613097Y7337028D01*
X9671420Y7376537D01*
X9722217Y7414165D01*
X9767370Y7449911D01*
X9806879Y7483776D01*
X9838863Y7513878D01*
X9865202Y7542098D01*
X9885897Y7564675D01*
X9902830Y7585370D01*
X9912236Y7598540D01*
X9919762Y7607947D01*
X9921643Y7611709D01*
X9940457Y7645574D01*
X9957390Y7677558D01*
X9972441Y7707660D01*
X9985610Y7737762D01*
X10008187Y7792322D01*
X10015712Y7816780D01*
X10023238Y7839356D01*
X10030763Y7860052D01*
X10034526Y7878865D01*
X10038289Y7895798D01*
X10042052Y7908967D01*
X10043933Y7918374D01*
Y7927781D01*
X10045814Y7931544D01*
Y7933425D01*
X10066509Y7920256D01*
X10089086Y7905205D01*
X10109781Y7886391D01*
X10132358Y7865696D01*
X10171867Y7818661D01*
X10207613Y7769745D01*
X10239596Y7724592D01*
X10252766Y7705779D01*
X10264054Y7686965D01*
X10271580Y7671914D01*
X10279105Y7660626D01*
X10282868Y7653100D01*
X10284749Y7651219D01*
X10303563Y7611710D01*
X10322377Y7574082D01*
X10339309Y7538336D01*
X10352479Y7506353D01*
X10363767Y7480013D01*
X10371293Y7459318D01*
X10375055Y7451793D01*
X10376937Y7446148D01*
X10377510Y7445003D01*
X10348716Y7543980D01*
X10312970Y7643693D01*
X10277224Y7739643D01*
X10235833Y7831831D01*
X10194443Y7916493D01*
X10153053Y7997392D01*
X10111663Y8070766D01*
X10070272Y8140377D01*
X10030763Y8200581D01*
X9995017Y8255141D01*
X9978085Y8279599D01*
X9961152Y8302175D01*
X9946101Y8322870D01*
X9932932Y8341684D01*
X9919762Y8358617D01*
X9908474Y8373668D01*
X9899067Y8386837D01*
X9889660Y8396244D01*
X9884016Y8403770D01*
X9878372Y8411295D01*
X9876490Y8413176D01*
X9874609Y8415058D01*
X9840744Y8452685D01*
X9808761Y8486550D01*
X9778659Y8520415D01*
X9748557Y8548636D01*
X9720336Y8576856D01*
X9692115Y8601314D01*
X9667657Y8622009D01*
X9645081Y8642705D01*
X9624386Y8659637D01*
X9605572Y8674688D01*
X9588639Y8685976D01*
X9575470Y8697265D01*
X9564182Y8704790D01*
X9556656Y8710434D01*
X9551012Y8712316D01*
X9549131Y8714197D01*
D02*
G37*
G36*
X10377510Y7445003D02*
X10378818Y7440504D01*
Y7442386D01*
X10377510Y7445003D01*
D02*
G37*
G36*
X9575470Y8539229D02*
X9564182Y8475262D01*
X9558537Y8448923D01*
X9551012Y8420702D01*
X9541605Y8392481D01*
X9530317Y8366142D01*
X9520910Y8343565D01*
X9513384Y8324752D01*
X9509622Y8317226D01*
X9507740Y8311582D01*
X9505859Y8309701D01*
Y8307819D01*
X9487045Y8270192D01*
X9466350Y8234446D01*
X9445655Y8198699D01*
X9426841Y8168597D01*
X9409909Y8142258D01*
X9394858Y8121563D01*
X9391095Y8114037D01*
X9387332Y8108393D01*
X9383569Y8104630D01*
Y8102749D01*
X9353467Y8063240D01*
X9317721Y8027494D01*
X9281975Y7993629D01*
X9246229Y7963527D01*
X9214245Y7939069D01*
X9201076Y7927781D01*
X9189787Y7920255D01*
X9178499Y7912730D01*
X9170974Y7907086D01*
X9167211Y7905204D01*
X9165329Y7903323D01*
X9108888Y7871340D01*
X9052447Y7843119D01*
X8996005Y7820542D01*
X8945208Y7803610D01*
X8922632Y7796084D01*
X8901936Y7788559D01*
X8883123Y7782915D01*
X8866190Y7779152D01*
X8853021Y7775389D01*
X8843614Y7773508D01*
X8837970Y7771627D01*
X8845495Y7769745D01*
X8854902D01*
X8866190Y7771627D01*
X8877479D01*
X8886885Y7773508D01*
X8896292D01*
X8920750Y7775389D01*
X8945208Y7779152D01*
X8971547Y7784796D01*
X8996005Y7788559D01*
X9016701Y7792322D01*
X9035514Y7796084D01*
X9046803Y7799847D01*
X9050565D01*
X9120176Y7818661D01*
X9152160Y7828068D01*
X9182262Y7837475D01*
X9206720Y7845000D01*
X9227415Y7852526D01*
X9234940Y7854407D01*
X9240585Y7856289D01*
X9242466Y7858170D01*
X9244347D01*
X9281975Y7873221D01*
X9317721Y7890153D01*
X9351586Y7908967D01*
X9381688Y7927781D01*
X9408027Y7944713D01*
X9426841Y7957883D01*
X9434366Y7963527D01*
X9440011Y7967290D01*
X9441892Y7971053D01*
X9443773D01*
X9477638Y8001155D01*
X9507740Y8031257D01*
X9534079Y8061359D01*
X9556656Y8089579D01*
X9573588Y8112156D01*
X9584877Y8130970D01*
X9590521Y8138495D01*
X9594284Y8144139D01*
X9596165Y8146021D01*
Y8147902D01*
X9607453Y8093342D01*
X9611216Y8070766D01*
X9613097Y8046308D01*
X9614979Y8019968D01*
Y7995511D01*
Y7972934D01*
X9613097Y7956002D01*
Y7948476D01*
Y7942832D01*
Y7940951D01*
Y7939069D01*
X9603690Y7865695D01*
X9598046Y7831831D01*
X9592402Y7799847D01*
X9586758Y7771627D01*
X9582995Y7750931D01*
X9581114Y7743406D01*
Y7737762D01*
X9579233Y7733999D01*
Y7732118D01*
X9566063Y7690727D01*
X9551012Y7649337D01*
X9532198Y7609828D01*
X9513384Y7572201D01*
X9494571Y7542098D01*
X9487045Y7528929D01*
X9479520Y7517641D01*
X9473875Y7508234D01*
X9470113Y7500708D01*
X9466350Y7496945D01*
Y7495064D01*
X9430604Y7449911D01*
X9392976Y7406639D01*
X9355349Y7367130D01*
X9319602Y7333265D01*
X9287619Y7305045D01*
X9274449Y7293757D01*
X9261280Y7284350D01*
X9251873Y7276824D01*
X9244348Y7271180D01*
X9240585Y7267417D01*
X9238703Y7265536D01*
X9281975Y7289994D01*
X9300789Y7297519D01*
X9319602Y7308808D01*
X9336535Y7320096D01*
X9353467Y7331384D01*
X9368518Y7340791D01*
X9379806Y7350198D01*
X9389213Y7355842D01*
X9391095Y7357723D01*
X9438129Y7397232D01*
X9460706Y7417928D01*
X9481401Y7436741D01*
X9498333Y7453674D01*
X9513384Y7466843D01*
X9520910Y7474369D01*
X9524673Y7478132D01*
X9551012Y7506352D01*
X9573588Y7534573D01*
X9596165Y7564675D01*
X9613097Y7592896D01*
X9628148Y7617354D01*
X9639437Y7638049D01*
X9643199Y7645574D01*
X9646962Y7651218D01*
X9648844Y7653100D01*
Y7654981D01*
X9665776Y7696371D01*
X9680827Y7735880D01*
X9693997Y7775389D01*
X9705285Y7809254D01*
X9712810Y7839356D01*
X9714692Y7852526D01*
X9718455Y7863814D01*
X9720336Y7873221D01*
Y7878865D01*
X9722217Y7882628D01*
Y7884509D01*
X9727861Y7933425D01*
X9729743Y7982341D01*
X9727861Y8033138D01*
X9724099Y8078291D01*
X9720336Y8098986D01*
X9718455Y8119682D01*
X9716573Y8136614D01*
X9714692Y8151665D01*
X9712810Y8162953D01*
X9710929Y8172360D01*
X9709048Y8178004D01*
Y8179886D01*
X9693997Y8243852D01*
X9673301Y8307819D01*
X9652606Y8368023D01*
X9641318Y8398125D01*
X9630030Y8424465D01*
X9618741Y8448923D01*
X9609335Y8471499D01*
X9599928Y8490313D01*
X9592402Y8507245D01*
X9584877Y8520415D01*
X9579233Y8531703D01*
X9577351Y8537347D01*
X9575470Y8539229D01*
D02*
G37*
G36*
X9205779Y7147950D02*
X9202957Y7147009D01*
X9204839D01*
X9205779Y7147950D01*
D02*
G37*
%LPD*%
D82*
X3755541Y6438900D02*
X4161941D01*
Y6642100D01*
X3755541D02*
X4161941D01*
X3755541Y6438900D02*
Y6642100D01*
%TF.MD5,9b5b82332b7328c6e38f900189440a9e*%
M02*
