G04*
G04 #@! TF.GenerationSoftware,Altium Limited,Altium Designer,18.1.9 (240)*
G04*
G04 Layer_Color=16711935*
%FSLAX25Y25*%
%MOIN*%
G70*
G01*
G75*
%ADD70C,0.09068*%
%ADD71C,0.06942*%
%ADD72C,0.02800*%
%ADD73C,0.07493*%
%ADD74C,0.08800*%
%ADD75C,0.38202*%
%ADD76C,0.11824*%
%ADD77C,0.00800*%
%ADD78C,0.24816*%
%ADD108R,0.04737X0.04737*%
G36*
X226946Y348281D02*
X229237Y347667D01*
X231428Y346760D01*
X233482Y345574D01*
X235363Y344130D01*
X237040Y342453D01*
X238483Y340572D01*
X239669Y338518D01*
X240577Y336327D01*
X241190Y334037D01*
X241500Y331685D01*
X241500Y330500D01*
X241500Y330500D01*
X241044Y248056D01*
X241041Y247606D01*
X240861Y246725D01*
X240514Y245896D01*
X240012Y245150D01*
X239374Y244516D01*
X238625Y244018D01*
X237794Y243675D01*
X236912Y243500D01*
X236462Y243500D01*
X236462Y243500D01*
X198000Y243500D01*
X197310Y243500D01*
X195958Y243769D01*
X194684Y244297D01*
X193538Y245063D01*
X192563Y246038D01*
X191797Y247184D01*
X191269Y248458D01*
X191000Y249811D01*
X191000Y250500D01*
X191000Y250500D01*
Y296500D01*
X190966Y297186D01*
X190699Y298532D01*
X190173Y299800D01*
X189411Y300941D01*
X188441Y301911D01*
X187300Y302674D01*
X186032Y303199D01*
X184686Y303466D01*
X184000Y303500D01*
X184000Y303500D01*
X155000D01*
X154409Y303500D01*
X153250Y303731D01*
X152158Y304183D01*
X151175Y304839D01*
X150339Y305675D01*
X149683Y306658D01*
X149231Y307750D01*
X149000Y308909D01*
X149000Y309500D01*
Y309500D01*
Y341500D01*
X149000Y342198D01*
X149273Y343568D01*
X149807Y344859D01*
X150583Y346020D01*
X151570Y347007D01*
X152732Y347783D01*
X154022Y348318D01*
X155392Y348590D01*
X156090Y348590D01*
X156090Y348590D01*
X223409Y348590D01*
X224595Y348590D01*
X226946Y348281D01*
D02*
G37*
G36*
X138688Y340712D02*
X140053Y340146D01*
X141281Y339326D01*
X142326Y338281D01*
X143146Y337053D01*
X143712Y335688D01*
X144000Y334239D01*
X144000Y333500D01*
X144000Y333500D01*
Y304000D01*
X144034Y303314D01*
X144301Y301968D01*
X144826Y300700D01*
X145589Y299559D01*
X146559Y298589D01*
X147700Y297827D01*
X148968Y297301D01*
X150314Y297034D01*
X151000Y297000D01*
X151000D01*
X182000Y297000D01*
X182443Y297000D01*
X183313Y296827D01*
X184132Y296488D01*
X184869Y295995D01*
X185495Y295369D01*
X185988Y294632D01*
X186327Y293813D01*
X186500Y292943D01*
X186500Y292500D01*
X186500Y292500D01*
X186500Y274403D01*
X186500Y274040D01*
X186358Y273329D01*
X186081Y272659D01*
X185678Y272056D01*
X185165Y271543D01*
X184562Y271140D01*
X183892Y270862D01*
X183180Y270720D01*
X182817Y270721D01*
X107780D01*
X107457Y270721D01*
X106823Y270847D01*
X106226Y271094D01*
X105689Y271453D01*
X105232Y271909D01*
X104873Y272447D01*
X104626Y273043D01*
X104500Y273677D01*
X104500Y274000D01*
X104500Y274000D01*
Y334000D01*
X104500Y334689D01*
X104769Y336042D01*
X105297Y337316D01*
X106063Y338462D01*
X107038Y339437D01*
X108184Y340203D01*
X109458Y340731D01*
X110810Y341000D01*
X111500Y341000D01*
X111500Y341000D01*
X136500Y341000D01*
X137239Y341000D01*
X138688Y340712D01*
D02*
G37*
G36*
X178000Y251500D02*
X178523Y251500D01*
X179550Y251296D01*
X180516Y250895D01*
X181386Y250314D01*
X182126Y249574D01*
X182708Y248704D01*
X183108Y247737D01*
X183312Y246711D01*
X183312Y246187D01*
X183312D01*
X183313Y228203D01*
X183313Y226815D01*
X182950Y224063D01*
X182232Y221382D01*
X181170Y218818D01*
X179782Y216414D01*
X178092Y214212D01*
X176129Y212249D01*
X173927Y210559D01*
X171524Y209171D01*
X168959Y208109D01*
X166278Y207391D01*
X163526Y207029D01*
X162138Y207029D01*
X162138Y207029D01*
X162138Y207029D01*
X161083Y206994D01*
X158990Y206718D01*
X156951Y206172D01*
X155000Y205364D01*
X153172Y204309D01*
X151497Y203024D01*
X150005Y201531D01*
X148720Y199856D01*
X147664Y198028D01*
X146856Y196078D01*
X146310Y194039D01*
X146035Y191946D01*
X146000Y190890D01*
X146000D01*
Y190890D01*
X146000Y190890D01*
Y180600D01*
X146044Y179711D01*
X146391Y177967D01*
X147071Y176324D01*
X148059Y174845D01*
X149317Y173588D01*
X150795Y172600D01*
X152438Y171919D01*
X154183Y171572D01*
X155072Y171529D01*
X464971Y171528D01*
X465467Y171529D01*
X466438Y171335D01*
X467353Y170956D01*
X468177Y170406D01*
X468877Y169705D01*
X469428Y168882D01*
X469807Y167967D01*
X470000Y166995D01*
X470000Y166500D01*
X470000Y166500D01*
X470000Y166500D01*
Y103029D01*
X115471Y103029D01*
X114654Y103029D01*
X113033Y103242D01*
X111454Y103665D01*
X109944Y104291D01*
X108528Y105108D01*
X107231Y106103D01*
X106075Y107259D01*
X105079Y108556D01*
X104262Y109972D01*
X103637Y111483D01*
X103213Y113062D01*
X103000Y114683D01*
X103000Y115500D01*
X103000Y115500D01*
Y247500D01*
Y247894D01*
X103154Y248667D01*
X103455Y249395D01*
X103893Y250050D01*
X104450Y250607D01*
X105105Y251045D01*
X105833Y251346D01*
X106606Y251500D01*
X107000Y251500D01*
X107000Y251500D01*
X178000Y251500D01*
D02*
G37*
G36*
X208622Y236240D02*
X208867Y235994D01*
X209000Y235673D01*
X209000Y235500D01*
X209000Y235500D01*
Y230500D01*
X209038Y230110D01*
X209337Y229389D01*
X209889Y228837D01*
X210610Y228538D01*
X211000Y228500D01*
X211000Y228500D01*
X214500Y228500D01*
X214890Y228538D01*
X215611Y228837D01*
X216163Y229389D01*
X216461Y230110D01*
X216500Y230500D01*
X216500Y230500D01*
Y235000D01*
Y235199D01*
X216652Y235566D01*
X216933Y235847D01*
X217301Y236000D01*
X217500Y236000D01*
X217500Y236000D01*
X231500Y236000D01*
X231975Y236000D01*
X232854Y235636D01*
X233526Y234964D01*
X233890Y234085D01*
X233890Y233610D01*
X233890Y233610D01*
Y229110D01*
X233930Y228698D01*
X234245Y227938D01*
X234827Y227356D01*
X235588Y227041D01*
X236000Y227000D01*
X236000D01*
X416000Y227000D01*
X417016Y227000D01*
X419030Y226735D01*
X420993Y226209D01*
X422870Y225431D01*
X424630Y224415D01*
X426242Y223179D01*
X427678Y221742D01*
X428915Y220130D01*
X429931Y218370D01*
X430709Y216493D01*
X431235Y214530D01*
X431500Y212516D01*
X431500Y211500D01*
X431500Y211500D01*
X431540Y210290D01*
X431855Y207891D01*
X432482Y205553D01*
X433408Y203318D01*
X434618Y201222D01*
X436091Y199302D01*
X437802Y197591D01*
X439722Y196118D01*
X441818Y194908D01*
X444053Y193982D01*
X446391Y193356D01*
X448790Y193040D01*
X450000Y193000D01*
X450000D01*
X455500Y193000D01*
X455943D01*
X456813Y192827D01*
X457631Y192488D01*
X458369Y191995D01*
X458995Y191369D01*
X459488Y190631D01*
X459827Y189813D01*
X460000Y188943D01*
X460000Y188500D01*
X460000Y188500D01*
X460000Y179500D01*
Y178958D01*
X459789Y177896D01*
X459374Y176895D01*
X458772Y175994D01*
X458006Y175228D01*
X457105Y174626D01*
X456104Y174211D01*
X455042Y174000D01*
X155500D01*
X154811Y174000D01*
X153458Y174269D01*
X152184Y174797D01*
X151038Y175563D01*
X150063Y176538D01*
X149297Y177684D01*
X148769Y178958D01*
X148500Y180310D01*
X148500Y181000D01*
Y181000D01*
X148500Y191439D01*
Y192295D01*
X148723Y193993D01*
X149167Y195647D01*
X149822Y197228D01*
X150678Y198711D01*
X151720Y200069D01*
X152931Y201280D01*
X154289Y202322D01*
X155772Y203178D01*
X157353Y203833D01*
X159007Y204276D01*
X160705Y204500D01*
X161561D01*
X161561Y204500D01*
X167500Y204500D01*
X168653Y204528D01*
X170948Y204754D01*
X173210Y205204D01*
X175417Y205874D01*
X177548Y206756D01*
X179581Y207843D01*
X181499Y209125D01*
X183282Y210588D01*
X184912Y212218D01*
X186375Y214001D01*
X187657Y215919D01*
X188744Y217952D01*
X189626Y220083D01*
X190296Y222290D01*
X190746Y224552D01*
X190972Y226847D01*
X191000Y228000D01*
X191000Y228000D01*
Y233361D01*
Y233657D01*
X191116Y234239D01*
X191343Y234787D01*
X191672Y235281D01*
X192092Y235700D01*
X192585Y236030D01*
X193133Y236257D01*
X193715Y236373D01*
X194012Y236373D01*
X194012Y236373D01*
X208127Y236373D01*
X208301D01*
X208622Y236240D01*
D02*
G37*
D70*
X497400Y346342D02*
D03*
Y316815D02*
D03*
D71*
X469250Y346342D02*
D03*
Y336500D02*
D03*
Y326658D02*
D03*
Y316815D02*
D03*
X469232Y275342D02*
D03*
Y285185D02*
D03*
X459390Y295028D02*
D03*
Y285185D02*
D03*
Y275342D02*
D03*
X469232Y295028D02*
D03*
Y265500D02*
D03*
X459390D02*
D03*
D72*
X304894Y360219D02*
D03*
Y357119D02*
D03*
Y354018D02*
D03*
Y350919D02*
D03*
Y347818D02*
D03*
Y344719D02*
D03*
X301794Y360219D02*
D03*
Y357119D02*
D03*
Y354018D02*
D03*
Y350919D02*
D03*
Y347818D02*
D03*
Y344719D02*
D03*
X298694Y360219D02*
D03*
Y357119D02*
D03*
Y354018D02*
D03*
Y350919D02*
D03*
Y347818D02*
D03*
Y344719D02*
D03*
X295594Y360219D02*
D03*
Y357119D02*
D03*
Y354018D02*
D03*
Y350919D02*
D03*
Y347818D02*
D03*
Y344719D02*
D03*
D73*
X497500Y295028D02*
D03*
Y265500D02*
D03*
D74*
X390000Y254000D02*
D03*
X168500Y378000D02*
D03*
X118500Y153500D02*
D03*
X479500Y139000D02*
D03*
X118500Y142000D02*
D03*
X479500Y175000D02*
D03*
Y163500D02*
D03*
X390000Y242500D02*
D03*
X479500Y151500D02*
D03*
D75*
X124000Y322500D02*
D03*
X168000D02*
D03*
D76*
X198000Y162598D02*
D03*
Y184252D02*
D03*
X155000Y162598D02*
D03*
Y184252D02*
D03*
X284000Y162598D02*
D03*
Y184252D02*
D03*
X241000Y162598D02*
D03*
Y184252D02*
D03*
X369500Y162598D02*
D03*
Y184252D02*
D03*
X327000Y162598D02*
D03*
Y184252D02*
D03*
X453500Y162598D02*
D03*
Y184252D02*
D03*
X411500Y162598D02*
D03*
Y184252D02*
D03*
D77*
X198000Y133858D02*
D03*
X155000D02*
D03*
X284000D02*
D03*
X241000D02*
D03*
X369500D02*
D03*
X327000D02*
D03*
X453500D02*
D03*
X411500D02*
D03*
D78*
X498500Y370000D02*
D03*
X117500D02*
D03*
X498500Y117500D02*
D03*
X117500D02*
D03*
D108*
X159856Y257500D02*
D03*
X151856D02*
D03*
M02*
