%TF.GenerationSoftware,Altium Limited,Altium Designer,23.3.1 (30)*%
G04 Layer_Color=32896*
%FSLAX45Y45*%
%MOMM*%
%TF.SameCoordinates,805B0A7C-C0AB-40D2-B4E8-8F8973F9869A*%
%TF.FilePolarity,Positive*%
%TF.FileFunction,Legend,Bot*%
%TF.Part,Single*%
G01*
G75*
G36*
X5594307Y6968987D02*
X5601096Y6966518D01*
X5606651Y6962197D01*
X5610972Y6957877D01*
X5613441Y6953556D01*
X5615910Y6949236D01*
X5616527Y6946767D01*
X5617144Y6945532D01*
X5618996Y6938126D01*
X5620230Y6929484D01*
X5622699Y6912202D01*
X5624551Y6894303D01*
X5625785Y6877021D01*
X5626402Y6868997D01*
Y6855418D01*
X5627019Y6849246D01*
Y6838136D01*
X5626402Y6809744D01*
X5633809D01*
X5643067Y6809127D01*
X5652325Y6808509D01*
X5662201D01*
X5683187Y6806658D01*
X5703555Y6805423D01*
X5713430Y6804806D01*
X5722689Y6804189D01*
X5730712Y6803572D01*
X5738119Y6802954D01*
X5743674Y6802337D01*
X5748612Y6801720D01*
X5751081D01*
X5752315D01*
X5767128Y6800486D01*
X5780707Y6799251D01*
X5793669Y6798634D01*
X5806013Y6798017D01*
X5817123Y6797399D01*
X5826999Y6796782D01*
X5836874Y6796165D01*
X5844898Y6795548D01*
X5852305D01*
X5859094D01*
X5864649Y6794931D01*
X5869587D01*
X5872673D01*
X5875759D01*
X5876994D01*
X5877611D01*
X5883783D01*
X5891190Y6794313D01*
X5899213D01*
X5906620Y6793696D01*
X5913410D01*
X5918965Y6793079D01*
X5922668D01*
X5923285D01*
X5923902D01*
X5934395Y6792462D01*
X5943653Y6791844D01*
X5951677Y6791227D01*
X5957849Y6790610D01*
X5962787D01*
X5966490D01*
X5968959D01*
X5969577D01*
X5973280D01*
X5978218Y6791227D01*
X5981921Y6791844D01*
X5982538Y6792462D01*
X5983155D01*
X5989328Y6793079D01*
X5993648Y6793696D01*
X5996117D01*
X5997351D01*
X6002289Y6793079D01*
X6006610Y6791844D01*
X6010313Y6790610D01*
X6013399Y6788758D01*
X6015868Y6786907D01*
X6017720Y6785055D01*
X6018954Y6784438D01*
X6019571Y6783821D01*
X6022657Y6780117D01*
X6024509Y6776414D01*
X6026978Y6769007D01*
X6027595Y6765921D01*
X6028212Y6763452D01*
Y6761601D01*
X6027595Y6755428D01*
X6025126Y6749873D01*
X6022040Y6745553D01*
X6017720Y6741850D01*
X6014016Y6738764D01*
X6010930Y6736912D01*
X6008461Y6735677D01*
X6007844Y6735060D01*
X6001672Y6732591D01*
X5995500Y6730740D01*
X5989328Y6729505D01*
X5983773Y6728271D01*
X5978835D01*
X5975132Y6727654D01*
X5972045D01*
X5971428D01*
X5966490D01*
X5961553Y6728271D01*
X5950443Y6728888D01*
X5945505Y6729505D01*
X5941802D01*
X5939333Y6730122D01*
X5938098D01*
X5930074Y6730740D01*
X5923285Y6731357D01*
X5917730D01*
X5913410Y6731974D01*
X5909706D01*
X5907237D01*
X5906003D01*
X5905386D01*
X5895510D01*
X5885017D01*
X5862180Y6733209D01*
X5839343Y6733826D01*
X5816506Y6735060D01*
X5806013Y6735677D01*
X5796138Y6736295D01*
X5787497Y6736912D01*
X5780090Y6737529D01*
X5773918Y6738146D01*
X5768980D01*
X5766511Y6738764D01*
X5765277D01*
X5747995Y6739998D01*
X5731330Y6741232D01*
X5716516Y6742467D01*
X5702320Y6743084D01*
X5689976Y6743701D01*
X5678249Y6744318D01*
X5667756Y6744936D01*
X5659115Y6745553D01*
X5651091Y6746170D01*
X5643684D01*
X5638129D01*
X5633192Y6746787D01*
X5629488D01*
X5627019D01*
X5625785D01*
X5625168D01*
Y6715309D01*
X5625785Y6704199D01*
X5626402Y6691855D01*
X5627019Y6680745D01*
X5627637Y6670252D01*
X5628254Y6665932D01*
Y6658525D01*
X5628871Y6656056D01*
Y6654204D01*
X5630106Y6637539D01*
X5630723Y6623343D01*
X5631957Y6610999D01*
Y6601123D01*
X5632574Y6593100D01*
Y6583224D01*
X5631957Y6578286D01*
X5631340Y6573966D01*
X5627637Y6567176D01*
X5626402Y6564707D01*
X5624551Y6562856D01*
X5623933Y6561621D01*
X5623316Y6561004D01*
X5619613Y6557918D01*
X5615910Y6555449D01*
X5612206Y6554215D01*
X5608503Y6552980D01*
X5605417Y6552363D01*
X5602948Y6551746D01*
X5601096D01*
X5600479D01*
X5595541Y6552363D01*
X5591221Y6552980D01*
X5587517Y6554832D01*
X5584431Y6556066D01*
X5581962Y6557918D01*
X5579494Y6559770D01*
X5578876Y6560387D01*
X5578259Y6561004D01*
X5575173Y6564707D01*
X5572704Y6568411D01*
X5571470Y6572114D01*
X5570235Y6575817D01*
X5569618Y6578904D01*
X5569001Y6580755D01*
Y6593100D01*
X5568384Y6604827D01*
X5567766Y6616554D01*
X5567149Y6628281D01*
X5566532Y6638774D01*
X5565915Y6643094D01*
Y6650501D01*
X5565297Y6652970D01*
Y6654822D01*
X5564063Y6671487D01*
X5562829Y6685683D01*
X5562211Y6697410D01*
Y6707285D01*
X5561594Y6715309D01*
Y6741850D01*
X5562211Y6751725D01*
Y6769007D01*
X5562829Y6775797D01*
Y6794931D01*
X5563446Y6806658D01*
Y6846160D01*
X5562829Y6854801D01*
X5562211Y6862825D01*
X5561594Y6870849D01*
X5560977Y6878255D01*
X5560360Y6883810D01*
X5559743Y6887514D01*
Y6888748D01*
X5559125Y6895537D01*
X5557891Y6902327D01*
X5556656Y6912820D01*
X5556039Y6921461D01*
X5554805Y6928250D01*
Y6933188D01*
X5554188Y6936274D01*
Y6943681D01*
X5555422Y6948618D01*
X5556656Y6952322D01*
X5558508Y6956025D01*
X5560360Y6958494D01*
X5562211Y6960345D01*
X5563446Y6961580D01*
X5564063Y6962197D01*
X5567766Y6964666D01*
X5571470Y6966518D01*
X5578876Y6968987D01*
X5581962Y6969604D01*
X5584431Y6970221D01*
X5585666D01*
X5586283D01*
X5594307Y6968987D01*
D02*
G37*
G36*
X6025744Y6525205D02*
X6030064Y6524588D01*
X6036236Y6521502D01*
X6038705Y6520268D01*
X6040557Y6519033D01*
X6041791Y6518416D01*
X6042409Y6517799D01*
X6045495Y6514095D01*
X6047964Y6511009D01*
X6049198Y6507306D01*
X6050432Y6503603D01*
X6051050Y6500517D01*
X6051667Y6498048D01*
Y6496196D01*
X6051050Y6491258D01*
X6050432Y6487555D01*
X6046729Y6480766D01*
X6045495Y6478297D01*
X6043643Y6475828D01*
X6043026Y6475211D01*
X6042409Y6474593D01*
X6038705Y6471507D01*
X6035619Y6469656D01*
X6028830Y6467187D01*
X6025744Y6466569D01*
X6023275Y6465952D01*
X6022040D01*
X6021423D01*
X6009696D01*
X5996734Y6465335D01*
X5983773Y6464101D01*
X5970811Y6462866D01*
X5959701Y6462249D01*
X5954763Y6461632D01*
X5950443Y6461015D01*
X5946739D01*
X5944271Y6460397D01*
X5942419D01*
X5941802D01*
X5923285Y6458546D01*
X5907237Y6457311D01*
X5893659Y6456077D01*
X5882549Y6455460D01*
X5877611D01*
X5873907Y6454842D01*
X5870204D01*
X5867118D01*
X5865266D01*
X5863415D01*
X5862180D01*
X5836257Y6324609D01*
X5833788Y6310413D01*
X5831319Y6296217D01*
X5829468Y6283255D01*
X5827616Y6270911D01*
X5825764Y6259184D01*
X5824530Y6248691D01*
X5823295Y6238815D01*
X5822678Y6229557D01*
X5822061Y6221533D01*
X5821444Y6214127D01*
X5820827Y6207954D01*
Y6202399D01*
X5820209Y6198696D01*
Y6193141D01*
X5837492Y6194375D01*
X5844898D01*
X5852305Y6194993D01*
X5857860D01*
X5862798D01*
X5865266D01*
X5866501D01*
X5876376D01*
X5887486Y6194375D01*
X5899213Y6193758D01*
X5910941Y6193141D01*
X5921433Y6192524D01*
X5925754Y6191907D01*
X5929457D01*
X5933161D01*
X5935629Y6191289D01*
X5936864D01*
X5937481D01*
X5954146Y6190055D01*
X5968959Y6188820D01*
X5981304Y6188203D01*
X5991179D01*
X5999203Y6187586D01*
X6004758D01*
X6007844D01*
X6009079D01*
X6013399Y6186969D01*
X6017720Y6186352D01*
X6023892Y6183266D01*
X6026361Y6181414D01*
X6028212Y6180179D01*
X6029447Y6179562D01*
X6030064Y6178945D01*
X6033150Y6175242D01*
X6035002Y6172156D01*
X6037471Y6165366D01*
X6038088Y6162280D01*
X6038705Y6159811D01*
Y6157959D01*
X6038088Y6153022D01*
X6037471Y6149318D01*
X6034385Y6142529D01*
X6032533Y6140060D01*
X6031299Y6137591D01*
X6030681Y6136974D01*
X6030064Y6136357D01*
X6026361Y6133271D01*
X6023275Y6131419D01*
X6016485Y6128950D01*
X6013399Y6128333D01*
X6010930Y6127716D01*
X6009696D01*
X6009079D01*
X5999203D01*
X5988093Y6128333D01*
X5975749Y6128950D01*
X5964639Y6129567D01*
X5954146Y6130185D01*
X5949826Y6130802D01*
X5945505D01*
X5942419D01*
X5939950Y6131419D01*
X5938716D01*
X5938098D01*
X5921433Y6132653D01*
X5906620Y6133271D01*
X5894276Y6134505D01*
X5884400D01*
X5876376Y6135122D01*
X5870821D01*
X5867735D01*
X5866501D01*
X5860329D01*
X5853539D01*
X5838726Y6134505D01*
X5823913Y6133271D01*
X5808482Y6132036D01*
X5801693D01*
X5794903Y6131419D01*
X5789348Y6130802D01*
X5783793Y6130185D01*
X5780090D01*
X5776387Y6129567D01*
X5774535D01*
X5773918D01*
X5762808Y6128333D01*
X5752315Y6127716D01*
X5742440Y6126481D01*
X5733181Y6125864D01*
X5725157Y6125247D01*
X5717751Y6124630D01*
X5710344D01*
X5704172Y6124012D01*
X5699234D01*
X5694296Y6123395D01*
X5690593D01*
X5686890D01*
X5684421D01*
X5682569D01*
X5681952D01*
X5681335D01*
X5677632D01*
X5673311D01*
X5664053D01*
X5659732Y6124012D01*
X5656646D01*
X5654177D01*
X5653560D01*
X5646771D01*
X5641216Y6124630D01*
X5636895D01*
X5632574D01*
X5629488D01*
X5627637D01*
X5626402D01*
X5625785D01*
X5617144D01*
X5609120Y6124012D01*
X5602331Y6123395D01*
X5597393Y6122161D01*
X5593072Y6121544D01*
X5589986Y6120926D01*
X5588135Y6120309D01*
X5587517D01*
X5581962Y6118457D01*
X5578259Y6117840D01*
X5575173Y6117223D01*
X5574556D01*
X5569618Y6117840D01*
X5565915Y6118457D01*
X5559125Y6122161D01*
X5556656Y6124012D01*
X5554188Y6125247D01*
X5553570Y6126481D01*
X5552953Y6127098D01*
X5549867Y6130802D01*
X5548015Y6134505D01*
X5545546Y6141295D01*
X5544929Y6143763D01*
X5544312Y6146232D01*
Y6148084D01*
X5544929Y6151170D01*
X5545546Y6154873D01*
X5549250Y6160428D01*
X5554805Y6165366D01*
X5560977Y6169687D01*
X5567149Y6172773D01*
X5572704Y6175242D01*
X5576407Y6176476D01*
X5577025Y6177093D01*
X5577642D01*
X5586900Y6179562D01*
X5595541Y6181414D01*
X5603565Y6182648D01*
X5610972Y6183266D01*
X5617144Y6183883D01*
X5621464Y6184500D01*
X5624551D01*
X5625785D01*
X5641833D01*
X5657263D01*
X5671459Y6185117D01*
X5684421D01*
X5696765Y6185734D01*
X5707258D01*
X5717134Y6186352D01*
X5726392D01*
X5734416Y6186969D01*
X5741205Y6187586D01*
X5746760D01*
X5751081Y6188203D01*
X5754784D01*
X5757870Y6188820D01*
X5759105D01*
X5759722D01*
X5760339Y6210423D01*
X5762191Y6232643D01*
X5765277Y6255480D01*
X5766511Y6265973D01*
X5767746Y6276466D01*
X5769597Y6286341D01*
X5770832Y6294982D01*
X5772066Y6303006D01*
X5773301Y6309796D01*
X5774535Y6315351D01*
X5775152Y6319671D01*
X5775769Y6322140D01*
Y6323374D01*
X5800458Y6456077D01*
X5722071Y6457928D01*
X5711579D01*
X5699851Y6457311D01*
X5687507Y6456694D01*
X5675163Y6456077D01*
X5664053D01*
X5659732Y6455460D01*
X5655412D01*
X5652325Y6454842D01*
X5649239D01*
X5648005D01*
X5647388D01*
X5630106Y6453608D01*
X5614675Y6452373D01*
X5601713Y6451756D01*
X5591221D01*
X5583197Y6451139D01*
X5577025D01*
X5573939D01*
X5572704D01*
X5567766Y6451756D01*
X5564063Y6452373D01*
X5557274Y6455460D01*
X5554805Y6457311D01*
X5552336Y6458546D01*
X5551719Y6459163D01*
X5551101Y6459780D01*
X5548015Y6462866D01*
X5545546Y6466569D01*
X5544312Y6470273D01*
X5543078Y6473976D01*
X5542460Y6477062D01*
X5541843Y6478914D01*
Y6481383D01*
X5542460Y6486321D01*
X5543078Y6490024D01*
X5546164Y6496813D01*
X5548015Y6499282D01*
X5549867Y6501134D01*
X5550484Y6502368D01*
X5551101Y6502985D01*
X5554188Y6505454D01*
X5557891Y6507306D01*
X5565297Y6509775D01*
X5568384Y6510392D01*
X5570235Y6511009D01*
X5572087D01*
X5572704D01*
X5583197D01*
X5594924Y6511627D01*
X5607268Y6512244D01*
X5618996D01*
X5630106Y6512861D01*
X5634426Y6513478D01*
X5638747D01*
X5641833Y6514095D01*
X5644302D01*
X5646153D01*
X5646771D01*
X5664053Y6515330D01*
X5678866Y6515947D01*
X5691828Y6516564D01*
X5702320D01*
X5710344Y6517182D01*
X5715899D01*
X5719602D01*
X5720837D01*
X5728244D01*
X5736267D01*
X5744908Y6516564D01*
X5752932D01*
X5760956D01*
X5767128Y6515947D01*
X5769597D01*
X5771449D01*
X5772066D01*
X5772683D01*
X5785028Y6515330D01*
X5795521D01*
X5804162Y6514713D01*
X5811568D01*
X5817123D01*
X5821444D01*
X5823913D01*
X5824530D01*
X5830702D01*
X5838109D01*
X5853539Y6515330D01*
X5870204Y6516564D01*
X5886252Y6517182D01*
X5893659Y6517799D01*
X5900448Y6518416D01*
X5907237Y6519033D01*
X5912175Y6519650D01*
X5917113D01*
X5920199Y6520268D01*
X5922668D01*
X5923285D01*
X5935012Y6521502D01*
X5946122Y6522119D01*
X5956615Y6522737D01*
X5966490Y6523354D01*
X5975132Y6523971D01*
X5983155Y6524588D01*
X5990562D01*
X5996734Y6525205D01*
X6002906D01*
X6007844D01*
X6011548Y6525823D01*
X6015251D01*
X6017720D01*
X6019571D01*
X6020806D01*
X6021423D01*
X6025744Y6525205D01*
D02*
G37*
G36*
X5921433Y6039453D02*
X5937481Y6038836D01*
X5952294Y6037602D01*
X5965256Y6035133D01*
X5977600Y6033281D01*
X5987476Y6030812D01*
X5996734Y6027726D01*
X6004758Y6025257D01*
X6011548Y6022171D01*
X6017103Y6019702D01*
X6021423Y6017233D01*
X6025126Y6014764D01*
X6027595Y6012913D01*
X6029447Y6011678D01*
X6030064Y6011061D01*
X6030681Y6010444D01*
X6035002Y6004272D01*
X6039322Y5997482D01*
X6042409Y5988841D01*
X6045495Y5979583D01*
X6047964Y5969707D01*
X6050432Y5959215D01*
X6053518Y5938229D01*
X6054136Y5928354D01*
X6055370Y5918478D01*
X6055987Y5909837D01*
Y5901813D01*
X6056605Y5895641D01*
Y5853053D01*
X6055987Y5838857D01*
X6055370Y5825895D01*
Y5814168D01*
X6054753Y5803675D01*
X6054136Y5794417D01*
X6053518Y5787010D01*
X6052901Y5780221D01*
X6052284Y5774049D01*
X6051667Y5769728D01*
Y5766025D01*
X6051050Y5762939D01*
X6050432Y5761087D01*
Y5759853D01*
X6049198Y5754915D01*
X6047346Y5751212D01*
X6043026Y5744422D01*
X6038088Y5739484D01*
X6032533Y5736398D01*
X6027595Y5734547D01*
X6023275Y5733929D01*
X6020189Y5733312D01*
X6018954D01*
X6013399Y5733929D01*
X6007844Y5734547D01*
X6003524Y5736398D01*
X5999820Y5738250D01*
X5994265Y5743805D01*
X5990562Y5749977D01*
X5988093Y5756149D01*
X5986859Y5761704D01*
X5986242Y5765408D01*
Y5769111D01*
X5986859Y5771580D01*
X5987476Y5777752D01*
X5988093Y5780221D01*
Y5782690D01*
X5988710Y5783924D01*
Y5784541D01*
X5989945Y5792565D01*
X5990562Y5798120D01*
Y5820340D01*
X5991179Y5830216D01*
Y5848115D01*
X5991797Y5855522D01*
Y5861694D01*
X5992414Y5875273D01*
Y5896875D01*
X5993031Y5904899D01*
Y5926502D01*
X5992414Y5933291D01*
Y5938846D01*
X5991797Y5944401D01*
X5991179Y5948722D01*
X5990562Y5952425D01*
X5988710Y5959215D01*
X5986859Y5963535D01*
X5985624Y5966004D01*
X5985007Y5967239D01*
X5984390Y5967856D01*
X5981304Y5969707D01*
X5977600Y5970942D01*
X5972663Y5972176D01*
X5966490Y5973411D01*
X5953529Y5975262D01*
X5939333Y5976497D01*
X5925754Y5977114D01*
X5920199D01*
X5914644Y5977731D01*
X5909706D01*
X5906620D01*
X5904151D01*
X5903534D01*
X5890572D01*
X5884400D01*
X5878228Y5977114D01*
X5873907D01*
X5869587D01*
X5867118D01*
X5866501D01*
X5851688Y5976497D01*
X5844281Y5975880D01*
X5838109D01*
X5832554Y5975262D01*
X5828233Y5974645D01*
X5825764D01*
X5824530D01*
X5811568Y5831450D01*
X5804779Y5757384D01*
X5804162Y5752446D01*
X5802310Y5747508D01*
X5798607Y5740719D01*
X5793669Y5735164D01*
X5788114Y5732078D01*
X5782559Y5729609D01*
X5777621Y5728992D01*
X5774535Y5728374D01*
X5773301D01*
X5768363Y5728992D01*
X5763425Y5729609D01*
X5759722Y5731460D01*
X5756636Y5733312D01*
X5754167Y5735164D01*
X5752315Y5736398D01*
X5751081Y5737633D01*
X5750463Y5738250D01*
X5747377Y5741953D01*
X5744908Y5745657D01*
X5743674Y5749360D01*
X5742440Y5753063D01*
X5741822Y5756149D01*
X5741205Y5758618D01*
Y5767876D01*
X5741822Y5772814D01*
X5742440Y5778369D01*
X5743057Y5790714D01*
X5744291Y5803058D01*
X5745526Y5815402D01*
X5746143Y5820957D01*
Y5825278D01*
X5746760Y5829598D01*
X5747377Y5832685D01*
Y5835153D01*
X5760339Y5970942D01*
X5746760Y5969707D01*
X5733181Y5969090D01*
X5720837Y5968473D01*
X5709727Y5967856D01*
X5699234Y5967239D01*
X5689359Y5966621D01*
X5680100D01*
X5672077Y5966004D01*
X5665287D01*
X5659115Y5965387D01*
X5653560D01*
X5649239D01*
X5645536D01*
X5643067D01*
X5641833D01*
X5641216D01*
X5636278D01*
X5630723Y5966004D01*
X5620230Y5966621D01*
X5615292Y5967239D01*
X5611589Y5967856D01*
X5609120Y5968473D01*
X5608503D01*
X5605417Y5955511D01*
X5602331Y5943784D01*
X5599862Y5932674D01*
X5598010Y5922799D01*
X5596776Y5914775D01*
X5595541Y5908603D01*
Y5906751D01*
X5594924Y5904899D01*
Y5903665D01*
X5593072Y5892555D01*
X5591838Y5882062D01*
X5591221Y5872804D01*
X5590603Y5864780D01*
X5589986Y5857991D01*
Y5848115D01*
X5590603Y5829598D01*
X5592455Y5811699D01*
X5594924Y5794417D01*
X5597393Y5778986D01*
X5598627Y5772197D01*
X5599862Y5766025D01*
X5601096Y5760470D01*
X5602331Y5755532D01*
X5603565Y5751829D01*
X5604182Y5749360D01*
X5604800Y5747508D01*
Y5746891D01*
X5605417Y5743188D01*
X5606034Y5740102D01*
Y5737015D01*
X5605417Y5732078D01*
X5604182Y5727757D01*
X5602948Y5724054D01*
X5600479Y5720968D01*
X5598627Y5718499D01*
X5597393Y5716030D01*
X5596158Y5715413D01*
X5595541Y5714796D01*
X5591838Y5711709D01*
X5588135Y5709858D01*
X5581345Y5707389D01*
X5578259Y5706772D01*
X5575790Y5706154D01*
X5574556D01*
X5573939D01*
X5566532Y5706772D01*
X5560360Y5709241D01*
X5554805Y5712944D01*
X5551101Y5716647D01*
X5548015Y5720351D01*
X5546164Y5724054D01*
X5544929Y5726523D01*
X5544312Y5727140D01*
X5541226Y5735781D01*
X5538140Y5745039D01*
X5533819Y5764790D01*
X5530116Y5785159D01*
X5528264Y5804292D01*
X5527030Y5813551D01*
Y5821575D01*
X5526413Y5828981D01*
X5525795Y5835771D01*
Y5848115D01*
X5526413Y5870335D01*
X5527647Y5880828D01*
X5528264Y5890086D01*
X5529499Y5898110D01*
X5530733Y5904899D01*
Y5907368D01*
X5531350Y5909220D01*
Y5910454D01*
X5535671Y5935143D01*
X5538140Y5946870D01*
X5540609Y5957980D01*
X5542460Y5967239D01*
X5543695Y5970942D01*
X5544312Y5974645D01*
X5544929Y5977114D01*
X5545546Y5978966D01*
X5546164Y5980200D01*
Y5980817D01*
X5543078Y5984521D01*
X5540609Y5988224D01*
X5539374Y5991927D01*
X5538140Y5995631D01*
X5537523Y5998717D01*
X5536905Y6000568D01*
Y6003037D01*
X5537523Y6008592D01*
X5538757Y6012913D01*
X5540609Y6017233D01*
X5542460Y6020937D01*
X5548633Y6026492D01*
X5555422Y6030195D01*
X5562829Y6032047D01*
X5568384Y6033281D01*
X5570852Y6033898D01*
X5572704D01*
X5573939D01*
X5574556D01*
X5578876D01*
X5584431Y6033281D01*
X5595541Y6032047D01*
X5600479D01*
X5604182Y6031429D01*
X5606651Y6030812D01*
X5607886D01*
X5615910Y6029578D01*
X5622699Y6028961D01*
X5628254Y6028343D01*
X5633192D01*
X5636895Y6027726D01*
X5639364D01*
X5641216D01*
X5641833D01*
X5650474D01*
X5659732D01*
X5670225Y6028343D01*
X5680718Y6028961D01*
X5702938Y6029578D01*
X5724540Y6030812D01*
X5734416Y6031429D01*
X5743674Y6032047D01*
X5752315Y6032664D01*
X5759722D01*
X5765894Y6033281D01*
X5770832Y6033898D01*
X5773301D01*
X5774535D01*
X5781324Y6037602D01*
X5787497Y6039453D01*
X5789966D01*
X5791817Y6040070D01*
X5793052D01*
X5793669D01*
X5799224Y6039453D01*
X5804162Y6038219D01*
X5807865Y6036984D01*
X5808482Y6036367D01*
X5809099D01*
X5818975Y6036984D01*
X5828233Y6037602D01*
X5837492Y6038219D01*
X5844898Y6038836D01*
X5851070D01*
X5856008Y6039453D01*
X5859094D01*
X5860329D01*
X5868970D01*
X5876994Y6040070D01*
X5884400D01*
X5890572D01*
X5896127D01*
X5899831D01*
X5902917D01*
X5903534D01*
X5921433Y6039453D01*
D02*
G37*
G36*
X5891807Y5469759D02*
X5906620Y5468525D01*
X5920199Y5466673D01*
X5932543Y5464204D01*
X5944271Y5461735D01*
X5954763Y5458032D01*
X5964022Y5454946D01*
X5972663Y5451243D01*
X5980069Y5447539D01*
X5986859Y5444453D01*
X5992414Y5440750D01*
X5996734Y5438281D01*
X6000438Y5435812D01*
X6002906Y5433960D01*
X6004141Y5432726D01*
X6004758Y5432109D01*
X6012165Y5424702D01*
X6018954Y5416061D01*
X6024509Y5407420D01*
X6029447Y5398162D01*
X6033767Y5388286D01*
X6036854Y5379028D01*
X6039940Y5369770D01*
X6041791Y5360511D01*
X6043643Y5351870D01*
X6044877Y5343229D01*
X6046112Y5336440D01*
X6046729Y5329650D01*
X6047346Y5324712D01*
Y5317306D01*
X6046729Y5301875D01*
X6044877Y5287062D01*
X6041791Y5272866D01*
X6038705Y5259287D01*
X6034385Y5246326D01*
X6029447Y5234598D01*
X6024509Y5222871D01*
X6018954Y5212996D01*
X6013399Y5203737D01*
X6008461Y5195714D01*
X6003524Y5188307D01*
X5999203Y5182752D01*
X5995500Y5177814D01*
X5993031Y5174728D01*
X5991179Y5172259D01*
X5990562Y5171642D01*
X5979452Y5160532D01*
X5967725Y5150656D01*
X5955381Y5141398D01*
X5943036Y5132757D01*
X5930074Y5125350D01*
X5917113Y5118561D01*
X5904768Y5113006D01*
X5893041Y5107451D01*
X5881931Y5103131D01*
X5871439Y5099427D01*
X5862180Y5096341D01*
X5854156Y5094489D01*
X5847367Y5092638D01*
X5842429Y5091403D01*
X5839343Y5090169D01*
X5838109D01*
X5834405Y5084614D01*
X5830085Y5080293D01*
X5825147Y5077207D01*
X5820209Y5074738D01*
X5815889Y5073504D01*
X5812185Y5072887D01*
X5809717D01*
X5809099D01*
X5804162Y5073504D01*
X5799841Y5074121D01*
X5796138Y5075973D01*
X5792434Y5077207D01*
X5789966Y5079059D01*
X5788114Y5080911D01*
X5786879Y5081528D01*
X5786262Y5082145D01*
X5783176Y5085848D01*
X5780707Y5089552D01*
X5779473Y5093255D01*
X5778238Y5096958D01*
X5777621Y5100044D01*
X5777004Y5101896D01*
Y5104365D01*
X5777621Y5133992D01*
X5778856Y5161766D01*
X5780707Y5187072D01*
X5783176Y5210527D01*
X5786262Y5231512D01*
X5789966Y5250646D01*
X5793669Y5267928D01*
X5797372Y5282742D01*
X5801076Y5295703D01*
X5804779Y5306813D01*
X5808482Y5316689D01*
X5811568Y5324095D01*
X5814037Y5329650D01*
X5815889Y5333971D01*
X5817123Y5336440D01*
X5817740Y5337057D01*
X5822061Y5342612D01*
X5826382Y5346315D01*
X5831319Y5349401D01*
X5835640Y5351253D01*
X5839343Y5352487D01*
X5842429Y5353105D01*
X5844898D01*
X5845515D01*
X5850453Y5352487D01*
X5854156Y5351870D01*
X5861563Y5348784D01*
X5864032Y5347550D01*
X5865884Y5346315D01*
X5867118Y5345698D01*
X5867735Y5345081D01*
X5871439Y5341377D01*
X5873907Y5337674D01*
X5875759Y5333971D01*
X5876994Y5330267D01*
X5877611Y5327181D01*
X5878228Y5324712D01*
Y5322244D01*
X5877611Y5317306D01*
X5876376Y5312368D01*
X5875759Y5309282D01*
X5875142Y5308665D01*
Y5308048D01*
X5865266Y5283976D01*
X5857860Y5258670D01*
X5851688Y5233981D01*
X5849219Y5222254D01*
X5847367Y5210527D01*
X5846133Y5200034D01*
X5844898Y5190776D01*
X5843664Y5181517D01*
X5843046Y5174111D01*
X5842429Y5168556D01*
X5841812Y5163618D01*
Y5159915D01*
X5854774Y5163618D01*
X5866501Y5167321D01*
X5877611Y5171642D01*
X5888104Y5176580D01*
X5897362Y5181517D01*
X5906003Y5186455D01*
X5914027Y5191393D01*
X5921433Y5196331D01*
X5927606Y5201268D01*
X5933161Y5205589D01*
X5938098Y5209910D01*
X5941802Y5213613D01*
X5944888Y5216082D01*
X5946739Y5218551D01*
X5947974Y5219785D01*
X5948591Y5220402D01*
X5954763Y5228426D01*
X5960318Y5236450D01*
X5964639Y5244474D01*
X5968959Y5253115D01*
X5972045Y5261139D01*
X5975132Y5269163D01*
X5979452Y5284593D01*
X5980687Y5291383D01*
X5981921Y5297555D01*
X5982538Y5303110D01*
X5983155Y5308048D01*
X5983773Y5311751D01*
Y5326564D01*
X5982538Y5335205D01*
X5981304Y5343229D01*
X5980069Y5350636D01*
X5977600Y5357425D01*
X5975749Y5362980D01*
X5973280Y5368535D01*
X5970811Y5372856D01*
X5966490Y5380262D01*
X5962170Y5385817D01*
X5959701Y5388286D01*
X5958467Y5389521D01*
X5953529Y5392607D01*
X5947974Y5395693D01*
X5935629Y5400013D01*
X5922051Y5403099D01*
X5908472Y5404951D01*
X5896127Y5406186D01*
X5890572Y5406803D01*
X5885635Y5407420D01*
X5881931D01*
X5878845D01*
X5876994D01*
X5876376D01*
X5856008Y5406803D01*
X5835640Y5404334D01*
X5815889Y5400631D01*
X5797372Y5396310D01*
X5779473Y5390755D01*
X5762191Y5384583D01*
X5746143Y5378411D01*
X5731330Y5371621D01*
X5717751Y5364832D01*
X5706024Y5358660D01*
X5694914Y5352487D01*
X5686273Y5346932D01*
X5678866Y5342612D01*
X5673928Y5338909D01*
X5670842Y5336440D01*
X5669608Y5335822D01*
X5658498Y5327181D01*
X5649239Y5319775D01*
X5641833Y5313603D01*
X5635661Y5308048D01*
X5631340Y5304344D01*
X5628254Y5301258D01*
X5626402Y5299406D01*
X5625785Y5298789D01*
X5617761Y5289531D01*
X5611589Y5280273D01*
X5607268Y5272249D01*
X5604182Y5264842D01*
X5602331Y5258670D01*
X5601713Y5254349D01*
X5601096Y5251263D01*
Y5250029D01*
X5601713Y5243857D01*
X5602331Y5237067D01*
X5605417Y5223488D01*
X5610355Y5210527D01*
X5615910Y5197565D01*
X5621464Y5186455D01*
X5623933Y5181517D01*
X5625785Y5177814D01*
X5628254Y5174111D01*
X5629488Y5171642D01*
X5630106Y5170407D01*
X5630723Y5169790D01*
X5633192Y5165470D01*
X5635043Y5161766D01*
X5636895Y5155594D01*
X5638129Y5151891D01*
Y5150656D01*
X5637512Y5145719D01*
X5636278Y5141398D01*
X5633192Y5134609D01*
X5631340Y5132140D01*
X5629488Y5130288D01*
X5628871Y5129054D01*
X5628254Y5128437D01*
X5624551Y5125350D01*
X5620230Y5122882D01*
X5616527Y5121030D01*
X5612823Y5119795D01*
X5609737Y5119178D01*
X5607268Y5118561D01*
X5606034D01*
X5605417D01*
X5600479Y5119178D01*
X5595541Y5121030D01*
X5590603Y5123499D01*
X5586283Y5127202D01*
X5581962Y5131523D01*
X5577642Y5136460D01*
X5570235Y5146953D01*
X5564680Y5157446D01*
X5562211Y5162384D01*
X5559743Y5166704D01*
X5558508Y5169790D01*
X5557274Y5172876D01*
X5556039Y5174728D01*
Y5175345D01*
X5549867Y5192010D01*
X5544929Y5206823D01*
X5541843Y5219168D01*
X5539374Y5230278D01*
X5538140Y5238302D01*
X5536905Y5245091D01*
Y5250029D01*
X5537523Y5258053D01*
X5538140Y5266694D01*
X5539991Y5274100D01*
X5542460Y5282124D01*
X5548015Y5296320D01*
X5554188Y5308665D01*
X5557891Y5314837D01*
X5560977Y5319775D01*
X5564063Y5324095D01*
X5566532Y5327799D01*
X5569001Y5330267D01*
X5570852Y5332736D01*
X5571470Y5333971D01*
X5572087Y5334588D01*
X5582580Y5345698D01*
X5593072Y5356191D01*
X5615910Y5375325D01*
X5627637Y5383966D01*
X5639364Y5391989D01*
X5650474Y5399396D01*
X5661584Y5406186D01*
X5671459Y5412358D01*
X5680718Y5417295D01*
X5689359Y5422233D01*
X5696765Y5425937D01*
X5702938Y5429023D01*
X5707258Y5430874D01*
X5709727Y5432109D01*
X5710961Y5432726D01*
X5727009Y5439515D01*
X5742440Y5445070D01*
X5757870Y5450008D01*
X5772683Y5454329D01*
X5786879Y5458032D01*
X5800458Y5461118D01*
X5813420Y5463587D01*
X5825764Y5465439D01*
X5836874Y5467290D01*
X5846750Y5468525D01*
X5855391Y5469142D01*
X5862180Y5469759D01*
X5868353Y5470376D01*
X5872673D01*
X5875142D01*
X5876376D01*
X5891807Y5469759D01*
D02*
G37*
G36*
X6009079Y5029681D02*
X6019571Y5027212D01*
X6027595Y5024126D01*
X6033767Y5021040D01*
X6038705Y5017337D01*
X6042409Y5014868D01*
X6044260Y5012399D01*
X6044877Y5011782D01*
X6047964Y5006227D01*
X6050432Y4998820D01*
X6052284Y4991414D01*
X6053518Y4984007D01*
X6054136Y4977218D01*
X6054753Y4971663D01*
Y4966725D01*
X6054136Y4949443D01*
X6052901Y4930309D01*
X6051050Y4911792D01*
X6048581Y4893893D01*
X6047346Y4885252D01*
X6046112Y4877845D01*
X6045495Y4871056D01*
X6044260Y4865501D01*
X6043643Y4860563D01*
X6043026Y4856860D01*
X6042409Y4854391D01*
Y4853774D01*
X6039940Y4840195D01*
X6037471Y4827233D01*
X6035002Y4815506D01*
X6032533Y4805013D01*
X6030064Y4794521D01*
X6027595Y4785879D01*
X6025126Y4777238D01*
X6023275Y4770449D01*
X6020806Y4763660D01*
X6018954Y4758105D01*
X6017720Y4753784D01*
X6015868Y4750081D01*
X6015251Y4746995D01*
X6014016Y4745143D01*
X6013399Y4743908D01*
Y4743291D01*
X6009696Y4736502D01*
X6004758Y4731564D01*
X6000438Y4727861D01*
X5995500Y4725392D01*
X5991179Y4724157D01*
X5987476Y4722923D01*
X5985007D01*
X5984390D01*
X5980069Y4723540D01*
X5975749Y4724157D01*
X5968959Y4726626D01*
X5966490Y4728478D01*
X5964639Y4729712D01*
X5963404Y4730330D01*
X5962787Y4730947D01*
X5959084Y4734650D01*
X5956615Y4738353D01*
X5954146Y4742057D01*
X5952912Y4745760D01*
X5952294Y4748846D01*
X5951677Y4750698D01*
Y4756870D01*
X5952294Y4759956D01*
X5952912Y4762425D01*
X5953529Y4763660D01*
X5960318Y4786497D01*
X5966490Y4808099D01*
X5971428Y4828468D01*
X5975749Y4848219D01*
X5979452Y4866118D01*
X5982538Y4882783D01*
X5985007Y4898213D01*
X5986859Y4912410D01*
X5988710Y4925371D01*
X5989328Y4936481D01*
X5990562Y4945739D01*
Y4953763D01*
X5991179Y4960553D01*
Y4968577D01*
X5975749D01*
X5967725Y4967959D01*
X5960935D01*
X5954763Y4967342D01*
X5949826D01*
X5946739Y4966725D01*
X5945505D01*
X5898596Y4963022D01*
X5871439Y4961787D01*
X5843046Y4959935D01*
X5787497Y4958084D01*
X5760339Y4957467D01*
X5733799Y4956232D01*
X5707875Y4955615D01*
X5683804D01*
X5661584Y4954998D01*
X5641216D01*
X5631957D01*
X5622699Y4954380D01*
X5614675D01*
X5607268D01*
X5600479D01*
X5594924D01*
X5589986D01*
X5585666D01*
X5581962D01*
X5579494D01*
X5578259D01*
X5577642D01*
X5572704Y4954998D01*
X5568384Y4955615D01*
X5561594Y4958701D01*
X5559125Y4960553D01*
X5557274Y4962404D01*
X5556039Y4963022D01*
X5555422Y4963639D01*
X5552336Y4967342D01*
X5549867Y4970428D01*
X5548015Y4974749D01*
X5546781Y4977835D01*
X5546164Y4980921D01*
X5545546Y4983390D01*
Y4985859D01*
X5546164Y4990796D01*
X5546781Y4994500D01*
X5550484Y5001289D01*
X5552336Y5003758D01*
X5553570Y5005610D01*
X5554805Y5006844D01*
X5555422Y5007461D01*
X5559125Y5010548D01*
X5562829Y5012399D01*
X5570235Y5014868D01*
X5573321Y5015485D01*
X5575173Y5016102D01*
X5577025D01*
X5577642D01*
X5609737D01*
X5641216Y5016720D01*
X5671459D01*
X5700469Y5017337D01*
X5728244Y5017954D01*
X5754167Y5018571D01*
X5778856Y5019189D01*
X5801076Y5019806D01*
X5821444Y5021040D01*
X5839960Y5021657D01*
X5847984D01*
X5856008Y5022275D01*
X5862798D01*
X5868970Y5022892D01*
X5875142D01*
X5880080Y5023509D01*
X5884400D01*
X5887486D01*
X5890572Y5024126D01*
X5892424D01*
X5893659D01*
X5894276D01*
X5997351Y5030299D01*
X6009079Y5029681D01*
D02*
G37*
G36*
X5921433Y4666139D02*
X5937481Y4665522D01*
X5952294Y4664287D01*
X5965256Y4661818D01*
X5977600Y4659967D01*
X5987476Y4657498D01*
X5996734Y4654412D01*
X6004758Y4651943D01*
X6011548Y4648857D01*
X6017103Y4646388D01*
X6021423Y4643919D01*
X6025126Y4641450D01*
X6027595Y4639598D01*
X6029447Y4638364D01*
X6030064Y4637747D01*
X6030681Y4637129D01*
X6035002Y4630957D01*
X6039322Y4624168D01*
X6042409Y4615527D01*
X6045495Y4606268D01*
X6047964Y4596393D01*
X6050432Y4585900D01*
X6053518Y4564915D01*
X6054136Y4555039D01*
X6055370Y4545164D01*
X6055987Y4536523D01*
Y4528499D01*
X6056605Y4522326D01*
Y4479738D01*
X6055987Y4465542D01*
X6055370Y4452581D01*
Y4440853D01*
X6054753Y4430361D01*
X6054136Y4421102D01*
X6053518Y4413696D01*
X6052901Y4406906D01*
X6052284Y4400734D01*
X6051667Y4396414D01*
Y4392710D01*
X6051050Y4389624D01*
X6050432Y4387773D01*
Y4386538D01*
X6049198Y4381600D01*
X6047346Y4377897D01*
X6043026Y4371108D01*
X6038088Y4366170D01*
X6032533Y4363084D01*
X6027595Y4361232D01*
X6023275Y4360615D01*
X6020189Y4359998D01*
X6018954D01*
X6013399Y4360615D01*
X6007844Y4361232D01*
X6003524Y4363084D01*
X5999820Y4364935D01*
X5994265Y4370490D01*
X5990562Y4376663D01*
X5988093Y4382835D01*
X5986859Y4388390D01*
X5986242Y4392093D01*
Y4395796D01*
X5986859Y4398265D01*
X5987476Y4404437D01*
X5988093Y4406906D01*
Y4409375D01*
X5988710Y4410610D01*
Y4411227D01*
X5989945Y4419251D01*
X5990562Y4424806D01*
Y4447026D01*
X5991179Y4456901D01*
Y4474801D01*
X5991797Y4482207D01*
Y4488379D01*
X5992414Y4501958D01*
Y4523561D01*
X5993031Y4531585D01*
Y4553187D01*
X5992414Y4559977D01*
Y4565532D01*
X5991797Y4571087D01*
X5991179Y4575407D01*
X5990562Y4579111D01*
X5988710Y4585900D01*
X5986859Y4590221D01*
X5985624Y4592690D01*
X5985007Y4593924D01*
X5984390Y4594541D01*
X5981304Y4596393D01*
X5977600Y4597627D01*
X5972663Y4598862D01*
X5966490Y4600096D01*
X5953529Y4601948D01*
X5939333Y4603182D01*
X5925754Y4603800D01*
X5920199D01*
X5914644Y4604417D01*
X5909706D01*
X5906620D01*
X5904151D01*
X5903534D01*
X5890572D01*
X5884400D01*
X5878228Y4603800D01*
X5873907D01*
X5869587D01*
X5867118D01*
X5866501D01*
X5851688Y4603182D01*
X5844281Y4602565D01*
X5838109D01*
X5832554Y4601948D01*
X5828233Y4601331D01*
X5825764D01*
X5824530D01*
X5811568Y4458136D01*
X5804779Y4384069D01*
X5804162Y4379131D01*
X5802310Y4374194D01*
X5798607Y4367404D01*
X5793669Y4361849D01*
X5788114Y4358763D01*
X5782559Y4356294D01*
X5777621Y4355677D01*
X5774535Y4355060D01*
X5773301D01*
X5768363Y4355677D01*
X5763425Y4356294D01*
X5759722Y4358146D01*
X5756636Y4359998D01*
X5754167Y4361849D01*
X5752315Y4363084D01*
X5751081Y4364318D01*
X5750463Y4364935D01*
X5747377Y4368639D01*
X5744908Y4372342D01*
X5743674Y4376045D01*
X5742440Y4379749D01*
X5741822Y4382835D01*
X5741205Y4385304D01*
Y4394562D01*
X5741822Y4399500D01*
X5742440Y4405055D01*
X5743057Y4417399D01*
X5744291Y4429743D01*
X5745526Y4442088D01*
X5746143Y4447643D01*
Y4451963D01*
X5746760Y4456284D01*
X5747377Y4459370D01*
Y4461839D01*
X5760339Y4597627D01*
X5746760Y4596393D01*
X5733181Y4595776D01*
X5720837Y4595158D01*
X5709727Y4594541D01*
X5699234Y4593924D01*
X5689359Y4593307D01*
X5680100D01*
X5672077Y4592690D01*
X5665287D01*
X5659115Y4592072D01*
X5653560D01*
X5649239D01*
X5645536D01*
X5643067D01*
X5641833D01*
X5641216D01*
X5636278D01*
X5630723Y4592690D01*
X5620230Y4593307D01*
X5615292Y4593924D01*
X5611589Y4594541D01*
X5609120Y4595158D01*
X5608503D01*
X5605417Y4582197D01*
X5602331Y4570470D01*
X5599862Y4559360D01*
X5598010Y4549484D01*
X5596776Y4541460D01*
X5595541Y4535288D01*
Y4533436D01*
X5594924Y4531585D01*
Y4530350D01*
X5593072Y4519240D01*
X5591838Y4508748D01*
X5591221Y4499489D01*
X5590603Y4491465D01*
X5589986Y4484676D01*
Y4474801D01*
X5590603Y4456284D01*
X5592455Y4438385D01*
X5594924Y4421102D01*
X5597393Y4405672D01*
X5598627Y4398882D01*
X5599862Y4392710D01*
X5601096Y4387155D01*
X5602331Y4382218D01*
X5603565Y4378514D01*
X5604182Y4376045D01*
X5604800Y4374194D01*
Y4373576D01*
X5605417Y4369873D01*
X5606034Y4366787D01*
Y4363701D01*
X5605417Y4358763D01*
X5604182Y4354443D01*
X5602948Y4350739D01*
X5600479Y4347653D01*
X5598627Y4345184D01*
X5597393Y4342715D01*
X5596158Y4342098D01*
X5595541Y4341481D01*
X5591838Y4338395D01*
X5588135Y4336543D01*
X5581345Y4334074D01*
X5578259Y4333457D01*
X5575790Y4332840D01*
X5574556D01*
X5573939D01*
X5566532Y4333457D01*
X5560360Y4335926D01*
X5554805Y4339629D01*
X5551101Y4343333D01*
X5548015Y4347036D01*
X5546164Y4350739D01*
X5544929Y4353208D01*
X5544312Y4353825D01*
X5541226Y4362467D01*
X5538140Y4371725D01*
X5533819Y4391476D01*
X5530116Y4411844D01*
X5528264Y4430978D01*
X5527030Y4440236D01*
Y4448260D01*
X5526413Y4455667D01*
X5525795Y4462456D01*
Y4474801D01*
X5526413Y4497020D01*
X5527647Y4507513D01*
X5528264Y4516772D01*
X5529499Y4524795D01*
X5530733Y4531585D01*
Y4534054D01*
X5531350Y4535905D01*
Y4537140D01*
X5535671Y4561829D01*
X5538140Y4573556D01*
X5540609Y4584666D01*
X5542460Y4593924D01*
X5543695Y4597627D01*
X5544312Y4601331D01*
X5544929Y4603800D01*
X5545546Y4605651D01*
X5546164Y4606886D01*
Y4607503D01*
X5543078Y4611206D01*
X5540609Y4614909D01*
X5539374Y4618613D01*
X5538140Y4622316D01*
X5537523Y4625402D01*
X5536905Y4627254D01*
Y4629723D01*
X5537523Y4635278D01*
X5538757Y4639598D01*
X5540609Y4643919D01*
X5542460Y4647622D01*
X5548633Y4653177D01*
X5555422Y4656880D01*
X5562829Y4658732D01*
X5568384Y4659967D01*
X5570852Y4660584D01*
X5572704D01*
X5573939D01*
X5574556D01*
X5578876D01*
X5584431Y4659967D01*
X5595541Y4658732D01*
X5600479D01*
X5604182Y4658115D01*
X5606651Y4657498D01*
X5607886D01*
X5615910Y4656263D01*
X5622699Y4655646D01*
X5628254Y4655029D01*
X5633192D01*
X5636895Y4654412D01*
X5639364D01*
X5641216D01*
X5641833D01*
X5650474D01*
X5659732D01*
X5670225Y4655029D01*
X5680718Y4655646D01*
X5702938Y4656263D01*
X5724540Y4657498D01*
X5734416Y4658115D01*
X5743674Y4658732D01*
X5752315Y4659349D01*
X5759722D01*
X5765894Y4659967D01*
X5770832Y4660584D01*
X5773301D01*
X5774535D01*
X5781324Y4664287D01*
X5787497Y4666139D01*
X5789966D01*
X5791817Y4666756D01*
X5793052D01*
X5793669D01*
X5799224Y4666139D01*
X5804162Y4664904D01*
X5807865Y4663670D01*
X5808482Y4663053D01*
X5809099D01*
X5818975Y4663670D01*
X5828233Y4664287D01*
X5837492Y4664904D01*
X5844898Y4665522D01*
X5851070D01*
X5856008Y4666139D01*
X5859094D01*
X5860329D01*
X5868970D01*
X5876994Y4666756D01*
X5884400D01*
X5890572D01*
X5896127D01*
X5899831D01*
X5902917D01*
X5903534D01*
X5921433Y4666139D01*
D02*
G37*
G36*
X6007227Y4252601D02*
X6012165Y4251367D01*
X6016485Y4249515D01*
X6020189Y4247046D01*
X6023275Y4245195D01*
X6025744Y4243343D01*
X6027595Y4242109D01*
X6028212Y4241491D01*
X6032533Y4237171D01*
X6035619Y4232850D01*
X6037471Y4228530D01*
X6038705Y4224209D01*
X6039940Y4221123D01*
X6040557Y4218654D01*
Y4216185D01*
X6039940Y4196434D01*
X6039322Y4177301D01*
X6038088Y4158784D01*
X6036237Y4142119D01*
X6034385Y4126071D01*
X6031916Y4111258D01*
X6029447Y4098296D01*
X6026978Y4085952D01*
X6024509Y4074842D01*
X6022041Y4064966D01*
X6019572Y4056943D01*
X6017720Y4049536D01*
X6015868Y4044598D01*
X6014634Y4040278D01*
X6013399Y4037809D01*
Y4037192D01*
X6008462Y4025464D01*
X6002289Y4014354D01*
X5996117Y4004479D01*
X5989945Y3995838D01*
X5985007Y3988431D01*
X5980687Y3982876D01*
X5977601Y3979173D01*
X5976366Y3977938D01*
X5969577Y3970532D01*
X5963405Y3964360D01*
X5956615Y3958805D01*
X5949826Y3953867D01*
X5943654Y3950164D01*
X5938099Y3946460D01*
X5926989Y3941522D01*
X5917113Y3939054D01*
X5913410Y3937819D01*
X5909706Y3937202D01*
X5907238Y3936585D01*
X5905386D01*
X5904152D01*
X5903534D01*
X5893042Y3937819D01*
X5883166Y3940288D01*
X5874525Y3943991D01*
X5866501Y3948312D01*
X5860329Y3952632D01*
X5855391Y3956336D01*
X5852305Y3958805D01*
X5851071Y3960039D01*
X5841812Y3969915D01*
X5833788Y3981025D01*
X5826382Y3992135D01*
X5819592Y4003862D01*
X5814037Y4013737D01*
X5812186Y4018058D01*
X5810334Y4022378D01*
X5808482Y4025464D01*
X5807248Y4027933D01*
X5806631Y4029168D01*
Y4029785D01*
X5797372Y4018675D01*
X5788114Y4009417D01*
X5777621Y4000776D01*
X5767129Y3993986D01*
X5756636Y3987814D01*
X5746143Y3982876D01*
X5736268Y3978556D01*
X5726392Y3975470D01*
X5717134Y3972383D01*
X5708493Y3970532D01*
X5700469Y3969297D01*
X5693679Y3968680D01*
X5688125Y3968063D01*
X5684421Y3967446D01*
X5681335D01*
X5680718D01*
X5668991Y3968063D01*
X5657881Y3969915D01*
X5647388Y3973001D01*
X5637512Y3976704D01*
X5628254Y3981025D01*
X5619613Y3985962D01*
X5611589Y3991517D01*
X5604183Y3996455D01*
X5597393Y4002010D01*
X5591221Y4007565D01*
X5586283Y4012503D01*
X5581963Y4016823D01*
X5578877Y4020527D01*
X5576408Y4023613D01*
X5575173Y4025464D01*
X5574556Y4026082D01*
X5567767Y4035340D01*
X5562212Y4045215D01*
X5557274Y4054474D01*
X5552953Y4063732D01*
X5549250Y4072990D01*
X5546164Y4081631D01*
X5541843Y4097679D01*
X5539992Y4105086D01*
X5538757Y4111258D01*
X5538140Y4117430D01*
X5537523Y4122368D01*
X5536906Y4126071D01*
Y4131626D01*
X5537523Y4151377D01*
X5538757Y4169277D01*
X5541226Y4185942D01*
X5542460Y4193348D01*
X5543695Y4200138D01*
X5544929Y4206310D01*
X5546164Y4211865D01*
X5547398Y4216185D01*
X5548633Y4220506D01*
X5549250Y4223592D01*
X5549867Y4226061D01*
X5550484Y4227295D01*
Y4227913D01*
X5552953Y4230381D01*
X5555422Y4232850D01*
X5562211Y4235936D01*
X5565915Y4236554D01*
X5568384Y4237171D01*
X5570235Y4237788D01*
X5570852D01*
X5581345Y4238405D01*
X5590603Y4239023D01*
X5599862Y4239640D01*
X5607886D01*
X5615910Y4240257D01*
X5622699Y4240874D01*
X5628871D01*
X5634426D01*
X5639981D01*
X5644302Y4241491D01*
X5647388D01*
X5650474D01*
X5652943D01*
X5654794D01*
X5655412D01*
X5656029D01*
X5664053D01*
X5673311Y4242109D01*
X5682569D01*
X5693062Y4242726D01*
X5714665Y4243960D01*
X5735650Y4245195D01*
X5745526Y4245812D01*
X5754784Y4246429D01*
X5763425Y4247046D01*
X5770215D01*
X5776387Y4247664D01*
X5781324Y4248281D01*
X5783793D01*
X5785028D01*
X5799841Y4248898D01*
X5814037Y4250132D01*
X5826999Y4250750D01*
X5839343Y4251367D01*
X5850453D01*
X5860946Y4251984D01*
X5870821Y4252601D01*
X5878845D01*
X5886869D01*
X5893041Y4253219D01*
X5898596D01*
X5903534D01*
X5906620D01*
X5909706D01*
X5910941D01*
X5911558D01*
X6002289D01*
X6007227Y4252601D01*
D02*
G37*
G36*
X6007227Y3660070D02*
X6012165Y3658836D01*
X6016486Y3656984D01*
X6020189Y3654515D01*
X6023275Y3652664D01*
X6025744Y3650812D01*
X6027596Y3649577D01*
X6028213Y3648960D01*
X6032533Y3644640D01*
X6035619Y3640319D01*
X6037471Y3635999D01*
X6038705Y3631678D01*
X6039940Y3628592D01*
X6040557Y3626123D01*
Y3623654D01*
X6039940Y3603903D01*
X6039323Y3584769D01*
X6038088Y3566253D01*
X6036237Y3549588D01*
X6034385Y3533540D01*
X6031916Y3518727D01*
X6029447Y3505765D01*
X6026978Y3493421D01*
X6024509Y3482311D01*
X6022041Y3472435D01*
X6019572Y3464411D01*
X6017720Y3457005D01*
X6015868Y3452067D01*
X6014634Y3447746D01*
X6013399Y3445278D01*
Y3444660D01*
X6008462Y3432933D01*
X6002289Y3421823D01*
X5996117Y3411948D01*
X5989945Y3403307D01*
X5985007Y3395900D01*
X5980687Y3390345D01*
X5977601Y3386642D01*
X5976366Y3385407D01*
X5969577Y3378001D01*
X5963405Y3371828D01*
X5956615Y3366273D01*
X5949826Y3361336D01*
X5943654Y3357632D01*
X5938099Y3353929D01*
X5926989Y3348991D01*
X5917113Y3346522D01*
X5913410Y3345288D01*
X5909706Y3344671D01*
X5907238Y3344054D01*
X5905386D01*
X5904152D01*
X5903534D01*
X5893042Y3345288D01*
X5883166Y3347757D01*
X5874525Y3351460D01*
X5866501Y3355781D01*
X5860329Y3360101D01*
X5855391Y3363805D01*
X5852305Y3366273D01*
X5851071Y3367508D01*
X5841812Y3377383D01*
X5833788Y3388493D01*
X5826382Y3399603D01*
X5819592Y3411330D01*
X5814037Y3421206D01*
X5812186Y3425527D01*
X5810334Y3429847D01*
X5808482Y3432933D01*
X5807248Y3435402D01*
X5806631Y3436637D01*
Y3437254D01*
X5797372Y3426144D01*
X5788114Y3416885D01*
X5777621Y3408244D01*
X5767129Y3401455D01*
X5756636Y3395283D01*
X5746143Y3390345D01*
X5736268Y3386024D01*
X5726392Y3382938D01*
X5717134Y3379852D01*
X5708493Y3378001D01*
X5700469Y3376766D01*
X5693679Y3376149D01*
X5688125Y3375532D01*
X5684421Y3374915D01*
X5681335D01*
X5680718D01*
X5668991Y3375532D01*
X5657881Y3377383D01*
X5647388Y3380469D01*
X5637512Y3384173D01*
X5628254Y3388493D01*
X5619613Y3393431D01*
X5611589Y3398986D01*
X5604183Y3403924D01*
X5597393Y3409479D01*
X5591221Y3415034D01*
X5586283Y3419972D01*
X5581963Y3424292D01*
X5578877Y3427995D01*
X5576408Y3431082D01*
X5575173Y3432933D01*
X5574556Y3433550D01*
X5567767Y3442809D01*
X5562212Y3452684D01*
X5557274Y3461943D01*
X5552953Y3471201D01*
X5549250Y3480459D01*
X5546164Y3489100D01*
X5541843Y3505148D01*
X5539992Y3512555D01*
X5538757Y3518727D01*
X5538140Y3524899D01*
X5537523Y3529837D01*
X5536906Y3533540D01*
Y3539095D01*
X5537523Y3558846D01*
X5538757Y3576745D01*
X5541226Y3593410D01*
X5542461Y3600817D01*
X5543695Y3607606D01*
X5544929Y3613779D01*
X5546164Y3619334D01*
X5547398Y3623654D01*
X5548633Y3627975D01*
X5549250Y3631061D01*
X5549867Y3633530D01*
X5550484Y3634764D01*
Y3635381D01*
X5552953Y3637850D01*
X5555422Y3640319D01*
X5562212Y3643405D01*
X5565915Y3644022D01*
X5568384Y3644640D01*
X5570235Y3645257D01*
X5570853D01*
X5581345Y3645874D01*
X5590604Y3646491D01*
X5599862Y3647109D01*
X5607886D01*
X5615910Y3647726D01*
X5622699Y3648343D01*
X5628871D01*
X5634426D01*
X5639981D01*
X5644302Y3648960D01*
X5647388D01*
X5650474D01*
X5652943D01*
X5654795D01*
X5655412D01*
X5656029D01*
X5664053D01*
X5673311Y3649577D01*
X5682570D01*
X5693062Y3650195D01*
X5714665Y3651429D01*
X5735650Y3652664D01*
X5745526Y3653281D01*
X5754784Y3653898D01*
X5763425Y3654515D01*
X5770215D01*
X5776387Y3655132D01*
X5781325Y3655750D01*
X5783794D01*
X5785028D01*
X5799841Y3656367D01*
X5814037Y3657601D01*
X5826999Y3658218D01*
X5839343Y3658836D01*
X5850453D01*
X5860946Y3659453D01*
X5870822Y3660070D01*
X5878845D01*
X5886869D01*
X5893042Y3660687D01*
X5898597D01*
X5903534D01*
X5906620D01*
X5909706D01*
X5910941D01*
X5911558D01*
X6002289D01*
X6007227Y3660070D01*
D02*
G37*
G36*
X5864032Y3281097D02*
X5879463Y3278628D01*
X5894276Y3275542D01*
X5907855Y3271839D01*
X5920816Y3266901D01*
X5932544Y3261346D01*
X5943654Y3255791D01*
X5953529Y3249619D01*
X5962170Y3243447D01*
X5970194Y3237892D01*
X5976366Y3232337D01*
X5982538Y3227399D01*
X5986859Y3223696D01*
X5989945Y3219992D01*
X5991797Y3218141D01*
X5992414Y3217523D01*
X6001672Y3205796D01*
X6009696Y3193452D01*
X6016486Y3181107D01*
X6022658Y3168763D01*
X6027596Y3155801D01*
X6031916Y3143457D01*
X6035619Y3131730D01*
X6038088Y3120003D01*
X6040557Y3109510D01*
X6041792Y3099634D01*
X6043026Y3090993D01*
X6044260Y3083587D01*
Y3077414D01*
X6044878Y3072477D01*
Y3068773D01*
X6043643Y3049022D01*
X6040557Y3030506D01*
X6035619Y3013224D01*
X6029447Y2996559D01*
X6022041Y2981128D01*
X6013399Y2966932D01*
X6004758Y2953353D01*
X5995500Y2941626D01*
X5986242Y2931133D01*
X5977601Y2921875D01*
X5968960Y2913851D01*
X5961553Y2907062D01*
X5955381Y2901507D01*
X5950443Y2897803D01*
X5947357Y2895335D01*
X5946122Y2894717D01*
X5929458Y2884225D01*
X5912793Y2875584D01*
X5896128Y2867560D01*
X5879463Y2860770D01*
X5862798Y2855215D01*
X5846750Y2850278D01*
X5831320Y2846574D01*
X5816506Y2843488D01*
X5802927Y2841019D01*
X5790583Y2839168D01*
X5779473Y2837933D01*
X5769598Y2836699D01*
X5762191D01*
X5756636Y2836081D01*
X5752933D01*
X5751698D01*
X5733182Y2836699D01*
X5715282Y2838550D01*
X5699234Y2841019D01*
X5684421Y2844105D01*
X5670842Y2848426D01*
X5658498Y2852746D01*
X5647388Y2857684D01*
X5637512Y2862005D01*
X5628871Y2866942D01*
X5620848Y2871880D01*
X5614675Y2876201D01*
X5609738Y2880521D01*
X5605417Y2883607D01*
X5602948Y2886076D01*
X5601096Y2887928D01*
X5600479Y2888545D01*
X5592455Y2898421D01*
X5585049Y2909531D01*
X5578877Y2920641D01*
X5573939Y2932985D01*
X5569001Y2945329D01*
X5565298Y2958291D01*
X5562212Y2970635D01*
X5559743Y2982980D01*
X5557891Y2994707D01*
X5556657Y3005200D01*
X5555422Y3015075D01*
X5554805Y3023716D01*
X5554188Y3030506D01*
Y3040381D01*
X5555422Y3060132D01*
X5558508Y3078649D01*
X5563446Y3096548D01*
X5569618Y3113213D01*
X5577025Y3128644D01*
X5585049Y3143457D01*
X5594307Y3157036D01*
X5602948Y3169380D01*
X5612206Y3180490D01*
X5621465Y3189749D01*
X5629489Y3198390D01*
X5636895Y3205179D01*
X5643067Y3210734D01*
X5648005Y3215055D01*
X5651091Y3217523D01*
X5652326Y3218141D01*
X5668991Y3229251D01*
X5686273Y3239126D01*
X5702938Y3247767D01*
X5720220Y3255174D01*
X5736885Y3260729D01*
X5752933Y3266284D01*
X5768363Y3270604D01*
X5783176Y3273690D01*
X5796755Y3276159D01*
X5809100Y3278628D01*
X5820210Y3279863D01*
X5830085Y3280480D01*
X5837492Y3281097D01*
X5843047Y3281714D01*
X5846750D01*
X5847367D01*
X5847984D01*
X5864032Y3281097D01*
D02*
G37*
G36*
X6007227Y2767570D02*
X6010931Y2766953D01*
X6018337Y2763249D01*
X6020806Y2762015D01*
X6022658Y2760163D01*
X6023892Y2759546D01*
X6024509Y2758929D01*
X6027596Y2755226D01*
X6029447Y2751522D01*
X6031916Y2744116D01*
X6032533Y2741030D01*
X6033150Y2738561D01*
Y2736709D01*
X6032533Y2730537D01*
X6030682Y2724982D01*
X6027596Y2720661D01*
X6024509Y2716341D01*
X6021423Y2713872D01*
X6018337Y2711403D01*
X6016486Y2710169D01*
X6015868Y2709551D01*
X6001672Y2702762D01*
X5988093Y2695973D01*
X5975749Y2690418D01*
X5964022Y2684863D01*
X5953529Y2679925D01*
X5943654Y2675604D01*
X5935013Y2671284D01*
X5926989Y2668198D01*
X5919582Y2665112D01*
X5914027Y2662025D01*
X5908472Y2660174D01*
X5904152Y2658322D01*
X5901065Y2657088D01*
X5898597Y2655853D01*
X5897362Y2655236D01*
X5896745D01*
X5879463Y2573146D01*
X5875759Y2554629D01*
X5872056Y2538581D01*
X5869587Y2524385D01*
X5867736Y2512041D01*
X5866501Y2507103D01*
X5865884Y2502783D01*
X5865267Y2499079D01*
X5864649Y2495376D01*
Y2492907D01*
X5864032Y2491055D01*
Y2489821D01*
X5876994Y2487352D01*
X5888721Y2485500D01*
X5899214Y2483649D01*
X5909089Y2481797D01*
X5917730Y2479946D01*
X5925754Y2478094D01*
X5933161Y2476859D01*
X5939333Y2475625D01*
X5944888Y2474391D01*
X5949826Y2473156D01*
X5953529Y2472539D01*
X5956615Y2471304D01*
X5959084Y2470687D01*
X5960936D01*
X5961553Y2470070D01*
X5962170D01*
X5975132Y2465749D01*
X5986242Y2461429D01*
X5996117Y2457108D01*
X6004141Y2453405D01*
X6011548Y2449085D01*
X6017103Y2444764D01*
X6022041Y2440443D01*
X6025744Y2436740D01*
X6028830Y2433654D01*
X6031299Y2429951D01*
X6032533Y2427482D01*
X6033768Y2425013D01*
X6035002Y2421310D01*
Y2420075D01*
X6034385Y2415755D01*
X6033768Y2411434D01*
X6030064Y2404027D01*
X6028830Y2401559D01*
X6026978Y2399707D01*
X6026361Y2398472D01*
X6025744Y2397855D01*
X6022041Y2394769D01*
X6018954Y2392300D01*
X6015251Y2390449D01*
X6011548Y2389214D01*
X6008462Y2388597D01*
X6005993Y2387980D01*
X6004758D01*
X6004141D01*
X6000438Y2388597D01*
X5994883Y2389214D01*
X5983773Y2392300D01*
X5978835Y2394152D01*
X5974515Y2396004D01*
X5971428Y2396621D01*
X5970194Y2397238D01*
X5921434Y2415137D01*
X5704789Y2461429D01*
X5599862Y2481180D01*
X5593690Y2483032D01*
X5588135Y2484883D01*
X5583814Y2487352D01*
X5580111Y2489821D01*
X5573939Y2495376D01*
X5569618Y2500931D01*
X5567149Y2506486D01*
X5565915Y2510189D01*
X5565298Y2513275D01*
Y2514510D01*
X5565915Y2516361D01*
X5566532Y2518830D01*
X5570235Y2523768D01*
X5576408Y2529940D01*
X5583814Y2536730D01*
X5592455Y2544136D01*
X5602948Y2551543D01*
X5613441Y2559567D01*
X5624551Y2567591D01*
X5635661Y2574997D01*
X5646154Y2582404D01*
X5656029Y2588576D01*
X5665287Y2594748D01*
X5672694Y2599686D01*
X5678866Y2603390D01*
X5682570Y2605858D01*
X5683187Y2606476D01*
X5683804D01*
X5715282Y2625609D01*
X5730095Y2634868D01*
X5744292Y2643509D01*
X5757870Y2651533D01*
X5770832Y2658939D01*
X5782559Y2665112D01*
X5793052Y2671284D01*
X5802927Y2676839D01*
X5811569Y2681776D01*
X5819592Y2686097D01*
X5825765Y2689800D01*
X5830702Y2692269D01*
X5834406Y2694121D01*
X5836875Y2695355D01*
X5837492Y2695973D01*
X5839343Y2701527D01*
X5841195Y2705848D01*
X5843047Y2710169D01*
X5845516Y2713872D01*
X5851071Y2719427D01*
X5856008Y2723130D01*
X5861563Y2724982D01*
X5865884Y2726216D01*
X5868353Y2726834D01*
X5869587D01*
X5876994Y2726216D01*
X5883166Y2723747D01*
X5885635Y2723130D01*
X5887487Y2721896D01*
X5888104Y2721279D01*
X5888721D01*
X5906003Y2729302D01*
X5922051Y2736709D01*
X5935630Y2742881D01*
X5947974Y2748436D01*
X5958467Y2752757D01*
X5967725Y2756460D01*
X5975749Y2759546D01*
X5982538Y2762015D01*
X5987476Y2764484D01*
X5992414Y2765718D01*
X5995500Y2766953D01*
X5998586Y2767570D01*
X6000438D01*
X6001672Y2768187D01*
X6002289D01*
X6007227Y2767570D01*
D02*
G37*
G36*
X5880080Y2305272D02*
X5892424D01*
X5904152Y2304655D01*
X5915261Y2304038D01*
X5919582D01*
X5923903D01*
X5926989Y2303421D01*
X5929458D01*
X5931309D01*
X5931926D01*
X5949209Y2302803D01*
X5964022Y2302186D01*
X5976366Y2301569D01*
X5986859Y2300952D01*
X5994883D01*
X6000438D01*
X6004141D01*
X6005376D01*
X6010313Y2300334D01*
X6014634Y2299717D01*
X6018337Y2298483D01*
X6021423Y2296631D01*
X6023892Y2294780D01*
X6025744Y2293545D01*
X6026978Y2292928D01*
X6027596Y2292311D01*
X6030682Y2288607D01*
X6033150Y2284904D01*
X6034385Y2281201D01*
X6035619Y2278115D01*
X6036237Y2275028D01*
X6036854Y2272560D01*
Y2270091D01*
X6036237Y2265153D01*
X6035619Y2261450D01*
X6031916Y2254660D01*
X6030682Y2252191D01*
X6028830Y2249722D01*
X6028213Y2249105D01*
X6027596Y2248488D01*
X6023892Y2245402D01*
X6020189Y2242933D01*
X6016486Y2241699D01*
X6012782Y2240464D01*
X6009696Y2239847D01*
X6007227Y2239230D01*
X6005376D01*
X6004758D01*
X5943654Y2241081D01*
X5882549Y2244167D01*
X5889955Y2220713D01*
X5898597Y2197876D01*
X5908472Y2176273D01*
X5918965Y2155288D01*
X5930075Y2134920D01*
X5941185Y2116403D01*
X5952912Y2098504D01*
X5964022Y2081839D01*
X5975132Y2067025D01*
X5985625Y2054064D01*
X5994883Y2042337D01*
X6002907Y2032461D01*
X6009696Y2025054D01*
X6015251Y2019499D01*
X6018337Y2015796D01*
X6019572Y2014562D01*
X6022658Y2010858D01*
X6025127Y2006538D01*
X6026978Y2002834D01*
X6028213Y1999748D01*
X6028830Y1996662D01*
X6029447Y1994193D01*
Y1992342D01*
X6028830Y1987404D01*
X6028213Y1983083D01*
X6024509Y1976294D01*
X6023275Y1973825D01*
X6021423Y1971973D01*
X6020806Y1970739D01*
X6020189Y1970122D01*
X6016486Y1967036D01*
X6012165Y1964567D01*
X6008462Y1962715D01*
X6004758Y1961481D01*
X6001672Y1960863D01*
X5999203Y1960246D01*
X5997969D01*
X5997352D01*
X5993031Y1960863D01*
X5989328Y1961481D01*
X5982538Y1964567D01*
X5980070Y1966418D01*
X5978218Y1967653D01*
X5976983Y1968270D01*
X5976366Y1968887D01*
X5965256Y1978146D01*
X5954764Y1988638D01*
X5944888Y1999748D01*
X5934395Y2011476D01*
X5915879Y2035547D01*
X5907855Y2047274D01*
X5899831Y2058384D01*
X5892424Y2069494D01*
X5886252Y2079987D01*
X5880080Y2088628D01*
X5875759Y2096652D01*
X5871439Y2103441D01*
X5868970Y2108379D01*
X5867118Y2111465D01*
X5866501Y2112700D01*
X5860329Y2094183D01*
X5852922Y2077518D01*
X5845516Y2063322D01*
X5838726Y2050360D01*
X5835023Y2045423D01*
X5831937Y2040485D01*
X5829468Y2036164D01*
X5826999Y2033078D01*
X5824530Y2030609D01*
X5823296Y2028758D01*
X5822678Y2027523D01*
X5822061Y2026906D01*
X5815272Y2019499D01*
X5807865Y2012710D01*
X5801076Y2007155D01*
X5793669Y2001600D01*
X5786262Y1997897D01*
X5779473Y1994193D01*
X5772684Y1991107D01*
X5766511Y1989256D01*
X5754784Y1986170D01*
X5750464Y1984935D01*
X5746143Y1984318D01*
X5742440Y1983701D01*
X5739971D01*
X5738737D01*
X5738119D01*
X5728861Y1984318D01*
X5720220Y1984935D01*
X5711579Y1986787D01*
X5703555Y1989256D01*
X5686890Y1995428D01*
X5671460Y2003452D01*
X5657264Y2013327D01*
X5643685Y2023820D01*
X5631340Y2034930D01*
X5620230Y2046657D01*
X5609738Y2059001D01*
X5600479Y2070111D01*
X5593073Y2080604D01*
X5586283Y2090480D01*
X5581345Y2098504D01*
X5577642Y2104676D01*
X5576408Y2107145D01*
X5575173Y2108996D01*
X5574556Y2109614D01*
Y2110231D01*
X5569001Y2121341D01*
X5564681Y2133685D01*
X5560977Y2145412D01*
X5558508Y2157139D01*
X5556039Y2167015D01*
X5555422Y2171336D01*
X5554805Y2174422D01*
X5554188Y2177508D01*
X5553571Y2179977D01*
Y2181828D01*
X5547398Y2256512D01*
Y2263919D01*
X5549250Y2270708D01*
X5551719Y2276263D01*
X5554805Y2280583D01*
X5557891Y2284287D01*
X5560360Y2286756D01*
X5562212Y2288607D01*
X5562829Y2289225D01*
X5567767Y2292311D01*
X5573322Y2294780D01*
X5578259Y2296631D01*
X5583197Y2297866D01*
X5587518Y2298483D01*
X5590604Y2299100D01*
X5593073D01*
X5593690D01*
X5600479D01*
X5607886Y2298483D01*
X5615910Y2297866D01*
X5623316Y2297248D01*
X5630106D01*
X5636278Y2296631D01*
X5639981Y2296014D01*
X5640599D01*
X5641216D01*
X5652326Y2294780D01*
X5661584Y2294162D01*
X5669608Y2293545D01*
X5676397D01*
X5681335Y2292928D01*
X5685038D01*
X5687507D01*
X5688125D01*
X5693679D01*
X5699852D01*
X5713431Y2294162D01*
X5727627Y2294780D01*
X5741205Y2296014D01*
X5753550Y2297248D01*
X5759105Y2297866D01*
X5764043Y2298483D01*
X5767746Y2299100D01*
X5770832D01*
X5772684Y2299717D01*
X5773301D01*
X5783794Y2300952D01*
X5793052Y2301569D01*
X5801693Y2302803D01*
X5810334Y2303421D01*
X5817741Y2304038D01*
X5825147Y2304655D01*
X5831320D01*
X5836875Y2305272D01*
X5841812D01*
X5846133D01*
X5849836Y2305889D01*
X5852922D01*
X5855391D01*
X5857243D01*
X5857860D01*
X5858477D01*
X5868970D01*
X5880080Y2305272D01*
D02*
G37*
G36*
X6001055Y1884328D02*
X6004758Y1883711D01*
X6012165Y1880625D01*
X6014634Y1878773D01*
X6016486Y1877539D01*
X6017720Y1876922D01*
X6018337Y1876304D01*
X6021423Y1872601D01*
X6023892Y1868898D01*
X6025127Y1865194D01*
X6026361Y1861491D01*
X6026978Y1858405D01*
X6027596Y1855936D01*
Y1850381D01*
X6032533Y1842974D01*
X6036237Y1834951D01*
X6039940Y1826310D01*
X6043026Y1817668D01*
X6045495Y1809645D01*
X6047347Y1803472D01*
X6048581Y1801004D01*
Y1799152D01*
X6049198Y1798535D01*
Y1797917D01*
X6051667Y1787425D01*
X6053519Y1776932D01*
X6054753Y1768291D01*
X6055370Y1760267D01*
X6055988Y1754095D01*
X6056605Y1749157D01*
Y1745454D01*
X6055988Y1728789D01*
X6055370Y1713358D01*
X6053519Y1699162D01*
X6051667Y1685583D01*
X6049198Y1673239D01*
X6046112Y1662129D01*
X6043026Y1651636D01*
X6039940Y1642378D01*
X6037471Y1634354D01*
X6034385Y1626947D01*
X6031299Y1621392D01*
X6028830Y1615838D01*
X6026978Y1612134D01*
X6025127Y1609665D01*
X6024509Y1607814D01*
X6023892Y1607196D01*
X6012165Y1591766D01*
X5999203Y1578187D01*
X5986242Y1566460D01*
X5973280Y1556584D01*
X5962170Y1549178D01*
X5957850Y1546092D01*
X5953529Y1543006D01*
X5950443Y1541154D01*
X5947357Y1539919D01*
X5946122Y1538685D01*
X5945505D01*
X5926989Y1530044D01*
X5909089Y1523872D01*
X5891807Y1519551D01*
X5875759Y1516465D01*
X5868970Y1515231D01*
X5862798Y1514613D01*
X5857243Y1513996D01*
X5852305D01*
X5848602Y1513379D01*
X5845516D01*
X5843664D01*
X5843047D01*
X5826382Y1513996D01*
X5810951Y1516465D01*
X5795521Y1520168D01*
X5780708Y1525106D01*
X5766511Y1530661D01*
X5752933Y1536833D01*
X5740588Y1543006D01*
X5728861Y1549795D01*
X5718368Y1557202D01*
X5709110Y1563374D01*
X5701086Y1569546D01*
X5694297Y1575101D01*
X5688742Y1580039D01*
X5684421Y1583742D01*
X5681952Y1586211D01*
X5681335Y1586828D01*
X5669608Y1598555D01*
X5659115Y1610900D01*
X5649240Y1623861D01*
X5639981Y1636823D01*
X5631957Y1649167D01*
X5623934Y1662129D01*
X5617144Y1673856D01*
X5610972Y1685583D01*
X5605417Y1696076D01*
X5601096Y1705952D01*
X5596776Y1715210D01*
X5593690Y1722617D01*
X5591221Y1728789D01*
X5589369Y1733727D01*
X5588752Y1736195D01*
X5588135Y1737430D01*
X5587518Y1739282D01*
X5586283Y1741750D01*
X5585049Y1745454D01*
X5583197Y1749157D01*
X5578877Y1758415D01*
X5573939Y1767674D01*
X5569618Y1777549D01*
X5565915Y1785573D01*
X5564681Y1788659D01*
X5563446Y1791128D01*
X5562212Y1792362D01*
Y1792980D01*
X5558508Y1800386D01*
X5555422Y1807176D01*
X5552336Y1813348D01*
X5549867Y1818903D01*
X5548016Y1823223D01*
X5546164Y1827544D01*
X5543695Y1833716D01*
X5542461Y1838654D01*
X5541226Y1841123D01*
Y1842974D01*
X5541843Y1847912D01*
X5543695Y1852233D01*
X5545547Y1856553D01*
X5548016Y1860874D01*
X5551102Y1863960D01*
X5552953Y1866429D01*
X5554805Y1868280D01*
X5555422Y1868898D01*
X5560360Y1873218D01*
X5565915Y1876304D01*
X5570235Y1878773D01*
X5574556Y1880008D01*
X5577642Y1881242D01*
X5580111Y1881859D01*
X5581963D01*
X5582580D01*
X5589987D01*
X5597393D01*
X5614675D01*
X5633192Y1881242D01*
X5650474D01*
X5658498D01*
X5666522D01*
X5673311Y1880625D01*
X5679483D01*
X5684421D01*
X5688125D01*
X5690593D01*
X5691211D01*
X5704172Y1880008D01*
X5716517D01*
X5728244D01*
X5738737Y1879390D01*
X5748612D01*
X5757253D01*
X5765277D01*
X5772684Y1878773D01*
X5778856D01*
X5784411D01*
X5789349D01*
X5793052D01*
X5796138D01*
X5797990D01*
X5799224D01*
X5799841D01*
X5806014D01*
X5813420D01*
X5828851Y1879390D01*
X5845516Y1880008D01*
X5860946D01*
X5868353Y1880625D01*
X5875759D01*
X5881932Y1881242D01*
X5887487D01*
X5891807Y1881859D01*
X5894893D01*
X5897362D01*
X5897979D01*
X5909706Y1882477D01*
X5920816Y1883094D01*
X5931309D01*
X5941185Y1883711D01*
X5949826D01*
X5957850Y1884328D01*
X5965256D01*
X5971428D01*
X5977601Y1884945D01*
X5982538D01*
X5986242D01*
X5989945D01*
X5992414D01*
X5994266D01*
X5995500D01*
X5996117D01*
X6001055Y1884328D01*
D02*
G37*
G36*
X1777965Y3987802D02*
X1799131Y3986039D01*
X1820296Y3980747D01*
X1837934Y3975456D01*
X1853808Y3970165D01*
X1864390Y3966637D01*
X1871445Y3963109D01*
X1874973Y3961346D01*
X1894374Y3950763D01*
X1912012Y3941944D01*
X1926122Y3933125D01*
X1936705Y3924306D01*
X1945524Y3917251D01*
X1950815Y3911960D01*
X1954343Y3910196D01*
X1956107Y3908432D01*
X1973744Y3890795D01*
X1986091Y3876684D01*
X1994910Y3866102D01*
X1998437Y3864338D01*
Y3869629D01*
X2000201Y3878448D01*
X2001965Y3885503D01*
X2003729Y3887267D01*
X2007256Y3897850D01*
X2010784Y3904905D01*
X2012547Y3910196D01*
Y3911960D01*
X2017839Y3922543D01*
X2019603Y3924306D01*
Y3926070D01*
X2021366Y3919015D01*
X2023130Y3910196D01*
X2033713Y3892558D01*
X2047823Y3874921D01*
X2061933Y3857283D01*
X2077807Y3841409D01*
X2091917Y3829062D01*
X2100736Y3820244D01*
X2102500Y3816716D01*
X2104264D01*
X2106028Y3814952D01*
X2109555Y3816716D01*
X2111319Y3818480D01*
Y3829062D01*
Y3832590D01*
Y3834354D01*
X2109555Y3841409D01*
X2107791Y3848464D01*
X2106028Y3853755D01*
Y3855519D01*
X2104264Y3864338D01*
X2102500Y3873157D01*
X2098972Y3878448D01*
Y3880212D01*
X2095445Y3889031D01*
X2093681Y3894322D01*
X2091917Y3896086D01*
Y3897850D01*
X2088390Y3903141D01*
Y3904905D01*
X2104264Y3889031D01*
X2118374Y3871393D01*
X2143067Y3837881D01*
X2160705Y3804370D01*
X2173051Y3774385D01*
X2181870Y3749693D01*
X2187161Y3728527D01*
X2188925Y3721472D01*
X2190689Y3716181D01*
Y3712653D01*
Y3710889D01*
Y3698543D01*
Y3693252D01*
Y3691488D01*
X2213618Y3677378D01*
X2233019Y3665031D01*
X2241838Y3659740D01*
X2247130Y3656212D01*
X2250657Y3654449D01*
X2252421Y3652685D01*
X2273586Y3682669D01*
X2294752Y3710889D01*
X2315917Y3735582D01*
X2335318Y3758511D01*
X2351192Y3776149D01*
X2365303Y3790259D01*
X2372358Y3797314D01*
X2375885Y3800842D01*
X2398814Y3823771D01*
X2421743Y3843173D01*
X2441145Y3860810D01*
X2457019Y3873157D01*
X2471129Y3883740D01*
X2481712Y3892558D01*
X2488767Y3896086D01*
X2490531Y3897850D01*
X2525806Y3919015D01*
X2541680Y3929598D01*
X2557554Y3936653D01*
X2569901Y3943708D01*
X2578720Y3948999D01*
X2585775Y3950763D01*
X2587538Y3952527D01*
X2605176Y3959582D01*
X2619286Y3966637D01*
X2629869Y3970165D01*
X2638688Y3973692D01*
X2645743Y3977220D01*
X2651034Y3978983D01*
X2654562D01*
X2665145Y3980747D01*
X2672200Y3982511D01*
X2677491Y3984275D01*
X2679255D01*
X2663381Y3964873D01*
X2651034Y3943708D01*
X2640452Y3919015D01*
X2633397Y3896086D01*
X2628105Y3873157D01*
X2624578Y3855519D01*
Y3848464D01*
X2622814Y3844936D01*
Y3841409D01*
Y3839645D01*
X2619286Y3802606D01*
X2613995Y3767330D01*
X2612231Y3733819D01*
X2608704Y3703834D01*
X2606940Y3679141D01*
Y3659740D01*
X2605176Y3652685D01*
Y3647394D01*
Y3643866D01*
Y3642102D01*
X2601649Y3608590D01*
X2596357Y3578606D01*
X2591066Y3555677D01*
X2584011Y3536276D01*
X2578720Y3522165D01*
X2575192Y3511583D01*
X2571664Y3506291D01*
X2569901Y3504528D01*
X2561082Y3490417D01*
X2557554Y3485126D01*
Y3483362D01*
X2587538Y3493945D01*
X2601649Y3499236D01*
X2615759Y3502764D01*
X2626341Y3504528D01*
X2635160Y3506291D01*
X2640452Y3508055D01*
X2642215D01*
X2612231Y3476307D01*
X2598121Y3462197D01*
X2587538Y3448087D01*
X2578720Y3435740D01*
X2571664Y3426922D01*
X2568137Y3419866D01*
X2566373Y3418103D01*
X2603412Y3416339D01*
X2621050Y3414575D01*
X2636924Y3412811D01*
X2651034Y3409284D01*
X2661617Y3407520D01*
X2668672Y3405756D01*
X2670436D01*
X2647507Y3388118D01*
X2629869Y3368717D01*
X2615759Y3349315D01*
X2605176Y3331678D01*
X2598121Y3315804D01*
X2594593Y3303457D01*
X2591066Y3294638D01*
Y3291111D01*
Y3289347D01*
Y3285819D01*
X2596357Y3289347D01*
X2605176D01*
X2624578Y3285819D01*
X2633397Y3284056D01*
X2640452Y3282292D01*
X2644420Y3279646D01*
X2647507Y3278764D01*
X2645743D01*
X2644420Y3279646D01*
X2635160Y3282292D01*
X2626341Y3280528D01*
X2617523Y3278764D01*
X2612231Y3277001D01*
X2610467Y3275237D01*
X2601649Y3269945D01*
X2596357Y3262890D01*
X2594593Y3255835D01*
X2592830Y3254071D01*
X2605176Y3222324D01*
X2617523Y3190576D01*
X2629869Y3162355D01*
X2640452Y3137662D01*
X2651034Y3114733D01*
X2658089Y3098859D01*
X2663381Y3088277D01*
X2665145Y3086513D01*
Y3084749D01*
X2695129Y3019489D01*
X2709239Y2989505D01*
X2719822Y2961285D01*
X2730404Y2938356D01*
X2737460Y2918954D01*
X2739223Y2911899D01*
X2740987Y2906608D01*
X2742751Y2904844D01*
Y2903080D01*
X2749806Y2881915D01*
X2756861Y2864277D01*
X2763916Y2846639D01*
X2767444Y2837820D01*
X2769208Y2832529D01*
X2772735Y2829001D01*
Y2827238D01*
X2783318Y2806072D01*
X2790373Y2791962D01*
X2797428Y2781380D01*
X2799192Y2779616D01*
Y2777852D01*
X2808011Y2767269D01*
X2818593Y2753159D01*
X2827412Y2742576D01*
X2829176Y2740813D01*
X2830940Y2739049D01*
X2845050Y2721411D01*
X2855633Y2707301D01*
X2864451Y2698482D01*
X2866215Y2696718D01*
Y2694954D01*
X2875034Y2682608D01*
X2880325Y2670262D01*
X2883853Y2661443D01*
X2885617Y2659679D01*
Y2657915D01*
X2846814Y2693191D01*
X2834467Y2703773D01*
X2825648Y2709065D01*
X2818593Y2712592D01*
X2815066Y2714356D01*
X2809774D01*
Y2712592D01*
Y2709065D01*
X2811538Y2703773D01*
X2813302Y2700246D01*
X2815066Y2698482D01*
X2818593Y2691427D01*
X2822121Y2682608D01*
X2825648Y2677317D01*
X2827412Y2673789D01*
X2832704Y2663207D01*
X2837995Y2654388D01*
X2841522Y2649096D01*
X2843286Y2647333D01*
X2852105Y2627931D01*
X2859160Y2608529D01*
X2864451Y2590892D01*
X2867979Y2573254D01*
X2869743Y2559144D01*
X2871507Y2548561D01*
Y2541506D01*
Y2537978D01*
Y2534451D01*
Y2532687D01*
Y2530923D01*
X2862688Y2543270D01*
X2855633Y2552089D01*
X2850341Y2559144D01*
X2848577Y2560908D01*
X2841522Y2569726D01*
X2836231Y2575018D01*
X2830940Y2576781D01*
X2827412Y2578545D01*
X2823885Y2575018D01*
Y2573254D01*
Y2566199D01*
Y2555616D01*
Y2534451D01*
Y2523868D01*
Y2515049D01*
Y2509758D01*
Y2507994D01*
X2825648Y2472719D01*
Y2456845D01*
X2827412Y2442735D01*
Y2432152D01*
Y2423333D01*
Y2418042D01*
Y2416278D01*
X2830940Y2388057D01*
X2834467Y2365128D01*
X2837995Y2347491D01*
X2839759Y2333380D01*
X2843286Y2324562D01*
X2846814Y2317506D01*
X2848577Y2313979D01*
Y2312215D01*
X2823885Y2335144D01*
X2820357Y2299869D01*
X2815066Y2266357D01*
X2808011Y2234609D01*
X2799192Y2204625D01*
X2792137Y2178168D01*
X2783318Y2153475D01*
X2772735Y2130546D01*
X2763916Y2111145D01*
X2755097Y2093507D01*
X2746278Y2077633D01*
X2739223Y2063523D01*
X2732168Y2052940D01*
X2726877Y2044121D01*
X2721586Y2038830D01*
X2719822Y2035302D01*
X2718058Y2033538D01*
X2700420Y2014137D01*
X2682783Y1996499D01*
X2645743Y1966515D01*
X2608704Y1941822D01*
X2573428Y1924184D01*
X2541680Y1910074D01*
X2527570Y1904783D01*
X2516988Y1901255D01*
X2506405Y1897728D01*
X2499350Y1895964D01*
X2495822Y1894200D01*
X2494059D01*
X2464074Y1888909D01*
X2435854Y1885381D01*
X2377649Y1881854D01*
X2322972Y1883618D01*
X2296516Y1885381D01*
X2271823Y1888909D01*
X2250657Y1890673D01*
X2229492Y1894200D01*
X2211854Y1897728D01*
X2195980Y1901255D01*
X2185398Y1904783D01*
X2174815Y1906547D01*
X2169524Y1908310D01*
X2167760D01*
X2136012Y1917129D01*
X2106028Y1927712D01*
X2079571Y1938295D01*
X2053115Y1948877D01*
X2030185Y1959460D01*
X2009020Y1971806D01*
X1989619Y1982389D01*
X1971981Y1992972D01*
X1956107Y2001791D01*
X1941997Y2010609D01*
X1931414Y2019428D01*
X1920831Y2026483D01*
X1913776Y2031775D01*
X1908485Y2037066D01*
X1906721Y2038830D01*
X1904957Y2040594D01*
X1874973Y2067050D01*
X1844989Y2093507D01*
X1816769Y2116436D01*
X1792076Y2137601D01*
X1769147Y2153475D01*
X1751509Y2167585D01*
X1746217Y2171113D01*
X1740926Y2174641D01*
X1739162Y2178168D01*
X1737399D01*
X1719761Y2186987D01*
X1702123Y2195806D01*
X1695068Y2197570D01*
X1691540Y2201097D01*
X1688013Y2202861D01*
X1686249D01*
X1673903Y2206389D01*
X1663320Y2211680D01*
X1654501Y2213444D01*
X1650974Y2215207D01*
X1615698Y2225790D01*
X1582186Y2236372D01*
X1550438Y2243428D01*
X1520454Y2250483D01*
X1492234Y2255774D01*
X1465777Y2259302D01*
X1442848Y2262829D01*
X1419919Y2264593D01*
X1398754Y2266357D01*
X1344077D01*
X1335258Y2264593D01*
X1329966D01*
X1382880Y2271648D01*
X1407572Y2273412D01*
X1428738Y2275176D01*
X1448139D01*
X1462250Y2276939D01*
X1557493D01*
X1543383Y2283994D01*
X1529273Y2289286D01*
X1518690Y2292813D01*
X1516927Y2294577D01*
X1515163D01*
X1464013Y2308687D01*
X1411100Y2317506D01*
X1358187Y2321034D01*
X1308801D01*
X1287636Y2319270D01*
X1266470D01*
X1248833Y2317506D01*
X1232959Y2315742D01*
X1220612Y2313979D01*
X1210030D01*
X1204738Y2312215D01*
X1202974D01*
X1232959Y2329853D01*
X1262943Y2347490D01*
X1291163Y2361601D01*
X1315856Y2373947D01*
X1337021Y2384530D01*
X1352895Y2391585D01*
X1363478Y2396876D01*
X1365242Y2398640D01*
X1367006D01*
X1426974Y2419805D01*
X1490470Y2435679D01*
X1550438Y2446262D01*
X1578659Y2449789D01*
X1606879Y2453317D01*
X1631572Y2455081D01*
X1656265Y2456845D01*
X1675666D01*
X1693304Y2458608D01*
X1728580D01*
X1765619Y2460372D01*
X1795603Y2467427D01*
X1820296Y2478010D01*
X1837934Y2488593D01*
X1852044Y2499175D01*
X1862627Y2509758D01*
X1867918Y2516813D01*
X1869682Y2518577D01*
X1850280Y2506230D01*
X1830879Y2499175D01*
X1813241Y2495648D01*
X1777965D01*
X1765619Y2499175D01*
X1758564Y2500939D01*
X1762091D01*
X1770910Y2502703D01*
X1777965Y2507994D01*
X1788548Y2513286D01*
X1806186Y2527396D01*
X1825587Y2545034D01*
X1843225Y2562671D01*
X1857335Y2576781D01*
X1866154Y2589128D01*
X1867918Y2590892D01*
X1869682Y2592655D01*
X1862627Y2589128D01*
X1855572Y2585600D01*
X1852044Y2583837D01*
X1850280D01*
X1836170Y2576781D01*
X1822060Y2573254D01*
X1813241Y2571490D01*
X1809713D01*
X1816769Y2573254D01*
X1822060Y2578545D01*
X1832643Y2589128D01*
X1839698Y2599711D01*
X1843225Y2601474D01*
Y2603238D01*
X1852044Y2626167D01*
X1857335Y2647333D01*
X1860863Y2656151D01*
Y2663207D01*
X1862627Y2666734D01*
Y2668498D01*
Y2680844D01*
Y2686136D01*
Y2687899D01*
X1860863Y2707301D01*
X1859099Y2724939D01*
X1857335Y2731994D01*
Y2737285D01*
X1855572Y2740813D01*
Y2742576D01*
X1836170Y2784907D01*
X1816769Y2827238D01*
X1797367Y2864277D01*
X1777965Y2897789D01*
X1760328Y2926009D01*
X1753273Y2938356D01*
X1747981Y2947174D01*
X1742690Y2955993D01*
X1739162Y2961285D01*
X1735635Y2964812D01*
Y2966576D01*
X1710942Y2968340D01*
X1688013Y2973631D01*
X1665084Y2982450D01*
X1643918Y2991269D01*
X1606879Y3015961D01*
X1573367Y3042418D01*
X1546911Y3068875D01*
X1536328Y3079457D01*
X1525745Y3090040D01*
X1518690Y3100623D01*
X1513399Y3107678D01*
X1511635Y3111205D01*
X1509871Y3112969D01*
X1486942Y3146481D01*
X1478123Y3160591D01*
X1469304Y3172938D01*
X1460486Y3183520D01*
X1455194Y3190575D01*
X1451667Y3195867D01*
X1449903Y3197630D01*
X1441084Y3190575D01*
X1437556Y3187048D01*
X1412864Y3162355D01*
X1389934Y3144717D01*
X1379352Y3137662D01*
X1372297Y3132371D01*
X1367005Y3128843D01*
X1365242Y3127079D01*
X1319383Y3105914D01*
X1296454Y3097095D01*
X1277053Y3090040D01*
X1261179Y3084749D01*
X1247069Y3081221D01*
X1240014Y3077694D01*
X1236486D01*
X1248832Y3086512D01*
X1261179Y3097095D01*
X1269998Y3107678D01*
X1277053Y3116497D01*
X1284108Y3125316D01*
X1287635Y3132371D01*
X1289399Y3137662D01*
X1291163Y3139426D01*
X1294691Y3151772D01*
X1296454Y3164119D01*
X1298218Y3171174D01*
Y3174701D01*
X1275289Y3167646D01*
X1255888Y3158827D01*
X1238250Y3148245D01*
X1224140Y3139426D01*
X1211793Y3128843D01*
X1202974Y3120024D01*
X1197683Y3114733D01*
X1195919Y3112969D01*
X1183573Y3095331D01*
X1174754Y3077694D01*
X1169462Y3061820D01*
X1164171Y3045946D01*
X1162407Y3031835D01*
X1160644Y3021253D01*
Y3014198D01*
Y3012434D01*
Y3008906D01*
Y3005379D01*
Y3001851D01*
Y3000087D01*
X1151825Y3033599D01*
X1144770Y3067111D01*
X1139478Y3098859D01*
X1135951Y3127079D01*
X1134187Y3150008D01*
X1132423Y3169410D01*
Y3176465D01*
Y3181756D01*
Y3183520D01*
Y3185284D01*
X1134187Y3231142D01*
X1135951Y3250544D01*
X1139478Y3269945D01*
X1141242Y3284055D01*
X1144770Y3296402D01*
X1146533Y3305221D01*
Y3306984D01*
X1157116Y3345788D01*
X1162407Y3365189D01*
X1169462Y3381063D01*
X1172990Y3393410D01*
X1178281Y3403992D01*
X1180045Y3411047D01*
X1181809Y3412811D01*
X1183573Y3414575D01*
Y3416339D01*
Y3418102D01*
X1187100Y3423394D01*
X1188864Y3425157D01*
X1176518Y3458669D01*
X1171226Y3471016D01*
X1167699Y3485126D01*
X1162407Y3511583D01*
X1160644Y3523929D01*
X1158880Y3534512D01*
X1157116Y3541567D01*
Y3543330D01*
X1151825Y3585661D01*
Y3606826D01*
Y3626228D01*
Y3642102D01*
Y3654448D01*
Y3661503D01*
Y3665031D01*
X1153588Y3691488D01*
X1158880Y3716181D01*
X1164171Y3742637D01*
X1169462Y3765566D01*
X1176518Y3784968D01*
X1181809Y3800842D01*
X1185336Y3811424D01*
X1187100Y3813188D01*
Y3814952D01*
X1199447Y3844936D01*
X1215321Y3874920D01*
X1231195Y3901377D01*
X1245305Y3924306D01*
X1259415Y3943708D01*
X1269998Y3957818D01*
X1277053Y3966637D01*
X1280580Y3970164D01*
X1333494Y3966637D01*
X1382879Y3963109D01*
X1430501Y3957818D01*
X1472832Y3952527D01*
X1492233Y3948999D01*
X1508107Y3947235D01*
X1522218Y3943708D01*
X1536328Y3941944D01*
X1545147Y3940180D01*
X1552202D01*
X1557493Y3938416D01*
X1559257D01*
X1576895Y3933125D01*
X1606879Y3927834D01*
X1635099Y3920779D01*
X1661556Y3913724D01*
X1684485Y3908432D01*
X1705650Y3903141D01*
X1719761Y3899613D01*
X1730343Y3897850D01*
X1732107Y3896086D01*
X1733871D01*
X1765619Y3885503D01*
X1779729Y3880212D01*
X1790312Y3874921D01*
X1800894Y3871393D01*
X1807949Y3867866D01*
X1813241Y3866102D01*
X1815004D01*
X1829115Y3860810D01*
X1843225Y3855519D01*
X1853808Y3851992D01*
X1855571Y3850228D01*
X1857335D01*
X1862626Y3859047D01*
X1864390Y3860810D01*
Y3862574D01*
X1862626Y3871393D01*
X1859099Y3881976D01*
X1848516Y3899613D01*
X1843225Y3906669D01*
X1839697Y3913724D01*
X1836170Y3917251D01*
X1834406Y3919015D01*
X1823823Y3931361D01*
X1815004Y3940180D01*
X1799131Y3956054D01*
X1790312Y3963109D01*
X1786784Y3966637D01*
X1774438Y3975456D01*
X1763855Y3984275D01*
X1756800Y3987802D01*
X1755036Y3989566D01*
X1777965Y3987802D01*
D02*
G37*
G36*
X795542Y4197691D02*
X830817Y4162416D01*
X866093Y4127140D01*
X903132Y4091865D01*
X938408Y4060117D01*
X975447Y4030133D01*
X1010723Y4003676D01*
X1044234Y3977219D01*
X1075982Y3954290D01*
X1104203Y3933125D01*
X1130659Y3915487D01*
X1151825Y3901377D01*
X1171226Y3889031D01*
X1183573Y3880212D01*
X1192392Y3874920D01*
X1195919Y3873157D01*
X1187100Y3851991D01*
X1178281Y3836117D01*
X1176518Y3829062D01*
X1172990Y3823771D01*
X1171226Y3820243D01*
Y3818480D01*
X1135951Y3846700D01*
X1098911Y3878448D01*
X1061872Y3911960D01*
X1026597Y3945471D01*
X957809Y4014259D01*
X926061Y4049534D01*
X894313Y4083046D01*
X866093Y4113030D01*
X841400Y4143014D01*
X818471Y4169471D01*
X799070Y4192400D01*
X783196Y4210038D01*
X772613Y4224148D01*
X763794Y4232967D01*
X762030Y4236494D01*
X795542Y4197691D01*
D02*
G37*
G36*
X2446436Y3885503D02*
X2444673Y3880212D01*
X2398814Y3837881D01*
X2363539Y3806133D01*
X2347665Y3792023D01*
X2333555Y3776149D01*
X2321208Y3763803D01*
X2312389Y3753220D01*
X2305334Y3746165D01*
X2303570Y3744401D01*
X2287696Y3726763D01*
X2275350Y3710889D01*
X2264767Y3696779D01*
X2259476Y3686197D01*
X2255948Y3677378D01*
X2254185Y3672086D01*
X2252421Y3668559D01*
Y3666795D01*
X2199508Y3698543D01*
Y3707362D01*
Y3709126D01*
Y3710889D01*
X2197744Y3726763D01*
X2195980Y3740874D01*
X2194216Y3749693D01*
X2192453Y3751456D01*
Y3753220D01*
Y3758511D01*
X2194216Y3765567D01*
X2199508Y3772622D01*
X2204799Y3781440D01*
X2210090Y3788496D01*
X2215382Y3795551D01*
X2218909Y3799078D01*
X2220673Y3800842D01*
X2233019Y3814952D01*
X2248893Y3830826D01*
X2280641Y3859047D01*
X2294752Y3871393D01*
X2307098Y3880212D01*
X2314153Y3887267D01*
X2317681Y3889031D01*
X2367066Y3927834D01*
X2389995Y3945472D01*
X2411161Y3961346D01*
X2430562Y3973692D01*
X2446436Y3984275D01*
X2455255Y3991330D01*
X2457019Y3993094D01*
X2458783D01*
X2446436Y3885503D01*
D02*
G37*
G36*
X2698656Y3303457D02*
X2760388Y3259363D01*
X2790373Y3238197D01*
X2816829Y3215268D01*
X2843286Y3194103D01*
X2866215Y3174702D01*
X2887380Y3155300D01*
X2906782Y3137662D01*
X2922656Y3121788D01*
X2936766Y3107678D01*
X2947349Y3097095D01*
X2954404Y3088277D01*
X2959695Y3082985D01*
X2961459Y3081221D01*
X2987916Y3051237D01*
X3014372Y3019489D01*
X3067286Y2950702D01*
X3114908Y2883679D01*
X3137837Y2850167D01*
X3159002Y2818419D01*
X3178404Y2788435D01*
X3196041Y2760214D01*
X3210152Y2735522D01*
X3224262Y2714356D01*
X3234844Y2696719D01*
X3241900Y2682608D01*
X3247191Y2675553D01*
X3248955Y2672026D01*
X3282466Y2613821D01*
X3314214Y2559144D01*
X3345962Y2504467D01*
X3375947Y2453317D01*
X3405931Y2403932D01*
X3434151Y2354546D01*
X3462372Y2308688D01*
X3488828Y2264593D01*
X3513521Y2222263D01*
X3538214Y2181696D01*
X3561143Y2142893D01*
X3584072Y2107617D01*
X3605237Y2072342D01*
X3626403Y2038830D01*
X3645804Y2007082D01*
X3663442Y1978862D01*
X3681080Y1950641D01*
X3698718Y1925948D01*
X3712828Y1901256D01*
X3726938Y1880090D01*
X3741048Y1858925D01*
X3751631Y1841287D01*
X3762213Y1823649D01*
X3772796Y1809539D01*
X3781615Y1795429D01*
X3788670Y1784846D01*
X3795725Y1774264D01*
X3801017Y1767209D01*
X3808072Y1756626D01*
X3809835Y1753098D01*
X3769269Y1807775D01*
X3751631Y1830704D01*
X3730465Y1853634D01*
X3709300Y1878326D01*
X3688135Y1901256D01*
X3668733Y1922421D01*
X3652859Y1938295D01*
X3642277Y1948877D01*
X3640513Y1950641D01*
X3638749Y1952405D01*
X3605237Y1985917D01*
X3569962Y2019429D01*
X3536450Y2051176D01*
X3506466Y2079397D01*
X3480009Y2104090D01*
X3467663Y2114672D01*
X3458844Y2123491D01*
X3450025Y2130546D01*
X3444734Y2135838D01*
X3441206Y2137602D01*
X3439442Y2139365D01*
X3395348Y2176405D01*
X3349490Y2209916D01*
X3303632Y2243428D01*
X3259537Y2271648D01*
X3240136Y2283995D01*
X3222498Y2296341D01*
X3206624Y2306924D01*
X3192514Y2315743D01*
X3181931Y2322798D01*
X3173112Y2328089D01*
X3167821Y2329853D01*
X3166057Y2331617D01*
X3106089Y2366892D01*
X3047884Y2396876D01*
X2991443Y2423333D01*
X2966750Y2435679D01*
X2942058Y2446262D01*
X2920892Y2455081D01*
X2901491Y2463900D01*
X2883853Y2470955D01*
X2867979Y2476246D01*
X2855633Y2481538D01*
X2846814Y2485065D01*
X2841522Y2486829D01*
X2839759D01*
Y2495648D01*
Y2497412D01*
Y2499175D01*
Y2507994D01*
Y2511522D01*
Y2527396D01*
Y2539742D01*
Y2548561D01*
Y2550325D01*
X2848577Y2537978D01*
X2853869Y2529160D01*
X2857396Y2525632D01*
X2859160Y2523868D01*
X2860924Y2520341D01*
X2866215Y2518577D01*
X2869743Y2516813D01*
X2873270D01*
X2880325Y2520341D01*
X2883853Y2525632D01*
X2885617Y2529160D01*
Y2530923D01*
Y2537978D01*
Y2541506D01*
X2882089Y2575018D01*
X2880325Y2589128D01*
X2876798Y2603238D01*
X2873270Y2613821D01*
X2871507Y2620876D01*
X2867979Y2626167D01*
Y2627931D01*
X2915601Y2617348D01*
X2959695Y2606766D01*
X3002026Y2594419D01*
X3039065Y2582073D01*
X3056703Y2576781D01*
X3070813Y2571490D01*
X3084923Y2567963D01*
X3095506Y2562672D01*
X3104325Y2560908D01*
X3111380Y2557380D01*
X3114908Y2555616D01*
X3116671D01*
X3086687Y2608530D01*
X3054939Y2659679D01*
X3021428Y2710828D01*
X2986152Y2758450D01*
X2950876Y2804309D01*
X2913837Y2848403D01*
X2878562Y2888970D01*
X2843286Y2926009D01*
X2811538Y2959521D01*
X2781554Y2989505D01*
X2753333Y3017725D01*
X2730404Y3038891D01*
X2709239Y3056529D01*
X2695129Y3070639D01*
X2686310Y3077694D01*
X2682782Y3081221D01*
X2681019Y3082985D01*
Y3084749D01*
X2679255Y3088277D01*
X2677491Y3091804D01*
Y3093568D01*
X2663381Y3123552D01*
X2651034Y3151772D01*
X2640452Y3179993D01*
X2629869Y3202922D01*
X2621050Y3224087D01*
X2615759Y3239961D01*
X2612231Y3250544D01*
X2610467Y3254071D01*
Y3257599D01*
Y3259363D01*
X2617523Y3262890D01*
X2624578Y3264654D01*
X2647507D01*
X2654562Y3266418D01*
X2658089Y3269945D01*
X2659853Y3271709D01*
Y3273473D01*
X2663381Y3277001D01*
Y3278764D01*
X2661617Y3285819D01*
X2658089Y3291111D01*
X2654562Y3292875D01*
X2652798Y3294638D01*
X2636924Y3299930D01*
X2622814Y3303457D01*
X2612231Y3306985D01*
X2608704D01*
X2615759Y3322859D01*
X2621050Y3335205D01*
X2628105Y3342260D01*
X2629869Y3345788D01*
X2698656Y3303457D01*
D02*
G37*
G36*
X1846753Y2675553D02*
Y2672025D01*
Y2670262D01*
X1843225Y2649096D01*
X1837934Y2631459D01*
X1834406Y2624403D01*
X1832643Y2619112D01*
X1830879Y2617348D01*
Y2615585D01*
X1825587Y2606766D01*
X1822060Y2599711D01*
X1813241Y2590892D01*
X1809713Y2587364D01*
X1807950Y2585600D01*
X1802658D01*
X1795603Y2583837D01*
X1792076Y2578545D01*
X1790312Y2573254D01*
Y2571490D01*
Y2566199D01*
X1792076Y2562671D01*
X1793839Y2559144D01*
X1795603D01*
X1725052Y2550325D01*
X1656265Y2539742D01*
X1587478Y2527396D01*
X1518690Y2515049D01*
X1453431Y2500939D01*
X1388171Y2485065D01*
X1328203Y2470955D01*
X1271762Y2456844D01*
X1218848Y2442734D01*
X1171227Y2430388D01*
X1128896Y2418041D01*
X1093620Y2407459D01*
X1077746Y2402167D01*
X1063636Y2398640D01*
X1053054Y2395112D01*
X1042471Y2391585D01*
X1035416Y2389821D01*
X1030124Y2388057D01*
X1026597Y2386293D01*
X1024833D01*
X948991Y2359837D01*
X874912Y2333380D01*
X800834Y2303396D01*
X730283Y2273412D01*
X659731Y2243428D01*
X592708Y2211680D01*
X529212Y2181695D01*
X471007Y2153475D01*
X416330Y2125255D01*
X366945Y2100562D01*
X322850Y2077633D01*
X305212Y2067050D01*
X287575Y2056467D01*
X271701Y2047648D01*
X257591Y2040593D01*
X245244Y2033538D01*
X234661Y2028247D01*
X227606Y2022956D01*
X222315Y2021192D01*
X218787Y2017664D01*
X217024D01*
X301685Y2077633D01*
X317559Y2089979D01*
X335197Y2100562D01*
X374000Y2127018D01*
X414567Y2151711D01*
X453370Y2174640D01*
X488645Y2195806D01*
X502755Y2204624D01*
X516866Y2213443D01*
X527448Y2218735D01*
X536267Y2224026D01*
X541558Y2225790D01*
X543322Y2227554D01*
X603291Y2261065D01*
X665023Y2292813D01*
X724991Y2322797D01*
X753212Y2336908D01*
X779668Y2351018D01*
X804361Y2363364D01*
X825526Y2373947D01*
X846692Y2382766D01*
X862566Y2391585D01*
X876676Y2398640D01*
X887259Y2403931D01*
X894314Y2405695D01*
X896077Y2407459D01*
X971920Y2440970D01*
X1047762Y2474482D01*
X1123605Y2502703D01*
X1160644Y2516813D01*
X1194156Y2529159D01*
X1225904Y2539742D01*
X1255888Y2550325D01*
X1282344Y2559143D01*
X1303510Y2566199D01*
X1322911Y2573254D01*
X1335258Y2576781D01*
X1344077Y2580309D01*
X1347604D01*
X1442848Y2606765D01*
X1532801Y2629695D01*
X1576895Y2640277D01*
X1617462Y2647332D01*
X1656265Y2656151D01*
X1693304Y2661443D01*
X1726816Y2668498D01*
X1756800Y2672025D01*
X1783257Y2675553D01*
X1804422Y2679080D01*
X1822060Y2680844D01*
X1836170Y2682608D01*
X1843225Y2684372D01*
X1846753D01*
Y2675553D01*
D02*
G37*
%LPC*%
G36*
X5777004Y4185942D02*
X5657263Y4179769D01*
X5602948Y4179152D01*
X5602331Y4172980D01*
X5601713Y4166191D01*
X5601096Y4158167D01*
X5600479Y4150143D01*
X5600479Y4131626D01*
X5601714Y4118047D01*
X5604183Y4105703D01*
X5608503Y4093976D01*
X5612824Y4083483D01*
X5617761Y4074842D01*
X5622082Y4068053D01*
X5623316Y4065584D01*
X5624551Y4063732D01*
X5625785Y4063115D01*
Y4062498D01*
X5630723Y4056325D01*
X5635661Y4051388D01*
X5639981Y4047067D01*
X5644919Y4043364D01*
X5654177Y4037192D01*
X5662818Y4033488D01*
X5670225Y4031019D01*
X5675780Y4029785D01*
X5679483Y4029168D01*
X5680101D01*
X5680718D01*
X5688742Y4029785D01*
X5696148Y4030402D01*
X5709727Y4034105D01*
X5722072Y4039660D01*
X5732564Y4045215D01*
X5740588Y4051388D01*
X5746760Y4056943D01*
X5750464Y4060646D01*
X5751081Y4061263D01*
X5751698Y4061880D01*
X5760339Y4073608D01*
X5767129Y4086569D01*
X5772066Y4099531D01*
X5775770Y4111258D01*
X5778239Y4122368D01*
X5778856Y4127306D01*
X5779473Y4131009D01*
X5780090Y4134712D01*
X5780708Y4137181D01*
X5780707Y4144588D01*
X5780090Y4147674D01*
Y4155081D01*
X5778856Y4163722D01*
X5778238Y4171746D01*
X5777621Y4179152D01*
Y4181621D01*
X5777004Y4184090D01*
Y4185942D01*
D02*
G37*
G36*
X5976983Y4191497D02*
X5912792D01*
X5900448D01*
X5888104Y4190879D01*
X5876376D01*
X5865266Y4190262D01*
X5856008D01*
X5851688D01*
X5848601Y4189645D01*
X5845515D01*
X5843664D01*
X5842429D01*
X5841812D01*
X5843664Y4176066D01*
X5844281Y4169894D01*
Y4164956D01*
X5844898Y4160018D01*
X5844898Y4141502D01*
X5844281Y4135947D01*
Y4129157D01*
X5849836Y4096445D01*
X5852922Y4085952D01*
X5856008Y4075459D01*
X5859094Y4065584D01*
X5862798Y4056325D01*
X5865267Y4048919D01*
X5867736Y4042747D01*
X5869587Y4039043D01*
X5870204Y4038426D01*
Y4037809D01*
X5873908Y4031019D01*
X5876994Y4024847D01*
X5880080Y4019292D01*
X5883166Y4014354D01*
X5886252Y4010651D01*
X5888721Y4007565D01*
X5893659Y4002627D01*
X5897979Y3999541D01*
X5901065Y3998307D01*
X5902917Y3997689D01*
X5903534D01*
X5906620Y3998307D01*
X5910941Y4000776D01*
X5914644Y4003862D01*
X5918965Y4006948D01*
X5922668Y4010651D01*
X5925754Y4013737D01*
X5927606Y4016206D01*
X5928223Y4016823D01*
X5934395Y4024230D01*
X5939333Y4032254D01*
X5944271Y4039043D01*
X5947357Y4045215D01*
X5950443Y4050770D01*
X5952295Y4055091D01*
X5953529Y4057560D01*
X5954146Y4058794D01*
X5957850Y4068670D01*
X5960936Y4079163D01*
X5966491Y4101382D01*
X5970194Y4122985D01*
X5973280Y4144588D01*
X5974514Y4153846D01*
X5975132Y4163104D01*
X5975749Y4171128D01*
X5976366Y4177918D01*
Y4183473D01*
X5976983Y4187793D01*
Y4191497D01*
D02*
G37*
G36*
X5777004Y3593410D02*
X5657264Y3587238D01*
X5602948Y3586621D01*
X5602331Y3580449D01*
X5601714Y3573659D01*
X5601096Y3565635D01*
X5600479Y3557612D01*
Y3539095D01*
X5601714Y3525516D01*
X5604183Y3513172D01*
X5608503Y3501445D01*
X5612824Y3490952D01*
X5617761Y3482311D01*
X5622082Y3475521D01*
X5623316Y3473052D01*
X5624551Y3471201D01*
X5625785Y3470584D01*
Y3469966D01*
X5630723Y3463794D01*
X5635661Y3458856D01*
X5639981Y3454536D01*
X5644919Y3450833D01*
X5654177Y3444660D01*
X5662818Y3440957D01*
X5670225Y3438488D01*
X5675780Y3437254D01*
X5679483Y3436637D01*
X5680101D01*
X5680718D01*
X5688742Y3437254D01*
X5696148Y3437871D01*
X5709727Y3441574D01*
X5722072Y3447129D01*
X5732564Y3452684D01*
X5740588Y3458856D01*
X5746760Y3464411D01*
X5750464Y3468115D01*
X5751081Y3468732D01*
X5751698Y3469349D01*
X5760339Y3481076D01*
X5767129Y3494038D01*
X5772066Y3507000D01*
X5775770Y3518727D01*
X5778239Y3529837D01*
X5778856Y3534774D01*
X5779473Y3538478D01*
X5780090Y3542181D01*
X5780708Y3544650D01*
Y3552057D01*
X5780090Y3555143D01*
Y3562549D01*
X5778856Y3571190D01*
X5778239Y3579214D01*
X5777621Y3586621D01*
Y3589090D01*
X5777004Y3591559D01*
Y3593410D01*
D02*
G37*
G36*
X5976983Y3598965D02*
X5912793D01*
X5900448D01*
X5888104Y3598348D01*
X5876377D01*
X5865267Y3597731D01*
X5856008D01*
X5851688D01*
X5848602Y3597114D01*
X5845516D01*
X5843664D01*
X5842430D01*
X5841812D01*
X5843664Y3583535D01*
X5844281Y3577363D01*
Y3572425D01*
X5844898Y3567487D01*
Y3548971D01*
X5844281Y3543416D01*
Y3536626D01*
X5849836Y3503913D01*
X5852922Y3493421D01*
X5856008Y3482928D01*
X5859094Y3473052D01*
X5862798Y3463794D01*
X5865267Y3456388D01*
X5867736Y3450215D01*
X5869587Y3446512D01*
X5870204Y3445895D01*
Y3445278D01*
X5873908Y3438488D01*
X5876994Y3432316D01*
X5880080Y3426761D01*
X5883166Y3421823D01*
X5886252Y3418120D01*
X5888721Y3415034D01*
X5893659Y3410096D01*
X5897979Y3407010D01*
X5901065Y3405776D01*
X5902917Y3405158D01*
X5903534D01*
X5906620Y3405776D01*
X5910941Y3408244D01*
X5914644Y3411330D01*
X5918965Y3414417D01*
X5922668Y3418120D01*
X5925754Y3421206D01*
X5927606Y3423675D01*
X5928223Y3424292D01*
X5934395Y3431699D01*
X5939333Y3439723D01*
X5944271Y3446512D01*
X5947357Y3452684D01*
X5950443Y3458239D01*
X5952295Y3462560D01*
X5953529Y3465029D01*
X5954146Y3466263D01*
X5957850Y3476139D01*
X5960936Y3486631D01*
X5966491Y3508851D01*
X5970194Y3530454D01*
X5973280Y3552057D01*
X5974515Y3561315D01*
X5975132Y3570573D01*
X5975749Y3578597D01*
X5976366Y3585387D01*
Y3590942D01*
X5976983Y3595262D01*
Y3598965D01*
D02*
G37*
G36*
X5850453Y3218141D02*
X5848602D01*
X5847984D01*
X5832554Y3217523D01*
X5817123Y3216289D01*
X5802310Y3213820D01*
X5788731Y3210734D01*
X5775153Y3207031D01*
X5762191Y3202710D01*
X5750464Y3198390D01*
X5739354Y3193452D01*
X5729478Y3189131D01*
X5720837Y3184811D01*
X5712813Y3180490D01*
X5706641Y3176787D01*
X5701086Y3173701D01*
X5697383Y3171232D01*
X5694914Y3169997D01*
X5694297Y3169380D01*
X5680718Y3159505D01*
X5668991Y3149012D01*
X5658498Y3137902D01*
X5649857Y3126792D01*
X5642450Y3116299D01*
X5636278Y3105189D01*
X5631340Y3095314D01*
X5627020Y3085438D01*
X5623934Y3076180D01*
X5622082Y3067539D01*
X5620230Y3059515D01*
X5618996Y3053343D01*
X5618379Y3047788D01*
X5617761Y3043467D01*
Y3026802D01*
X5618996Y3013841D01*
X5620230Y3002731D01*
X5622082Y2991621D01*
X5624551Y2982363D01*
X5627020Y2973104D01*
X5629489Y2965698D01*
X5631957Y2958291D01*
X5635044Y2952119D01*
X5637512Y2947181D01*
X5639981Y2942861D01*
X5642450Y2939157D01*
X5644302Y2936688D01*
X5645536Y2934219D01*
X5646154Y2933602D01*
X5646771Y2932985D01*
X5652943Y2926813D01*
X5659732Y2921875D01*
X5667756Y2917554D01*
X5675780Y2913851D01*
X5693062Y2907679D01*
X5710344Y2903976D01*
X5718986Y2902124D01*
X5726392Y2901507D01*
X5733182Y2900890D01*
X5739354Y2900272D01*
X5744292Y2899655D01*
X5748612D01*
X5751081D01*
X5751698D01*
X5767746Y2900272D01*
X5782559Y2901507D01*
X5797372Y2903976D01*
X5811569Y2906445D01*
X5825147Y2910148D01*
X5837492Y2913851D01*
X5849836Y2917554D01*
X5860329Y2921875D01*
X5870204Y2926196D01*
X5879463Y2929899D01*
X5886869Y2933602D01*
X5893042Y2937306D01*
X5898597Y2939774D01*
X5902300Y2942243D01*
X5904769Y2943478D01*
X5905386Y2944095D01*
X5918965Y2953353D01*
X5930692Y2963229D01*
X5940567Y2973722D01*
X5949209Y2984214D01*
X5956615Y2994707D01*
X5962787Y3005200D01*
X5967725Y3015075D01*
X5972046Y3024951D01*
X5975132Y3033592D01*
X5976983Y3042233D01*
X5978835Y3049640D01*
X5980070Y3056429D01*
X5980687Y3061367D01*
X5981304Y3065687D01*
Y3068773D01*
X5980687Y3080501D01*
X5980070Y3090993D01*
X5978218Y3101486D01*
X5975749Y3111362D01*
X5973280Y3120620D01*
X5970194Y3129261D01*
X5967108Y3137285D01*
X5963405Y3144691D01*
X5960319Y3150864D01*
X5957232Y3157036D01*
X5954146Y3161974D01*
X5951677Y3166294D01*
X5949209Y3169380D01*
X5947357Y3171849D01*
X5946740Y3173084D01*
X5946122Y3173701D01*
X5938716Y3181725D01*
X5931309Y3188514D01*
X5923285Y3194069D01*
X5914644Y3199624D01*
X5906620Y3203945D01*
X5898597Y3207031D01*
X5890573Y3210117D01*
X5883166Y3212586D01*
X5875759Y3214437D01*
X5868970Y3215672D01*
X5863415Y3216906D01*
X5857860Y3217523D01*
X5853539D01*
X5850453Y3218141D01*
D02*
G37*
G36*
X5823296Y2618203D02*
X5679483Y2529940D01*
X5799841Y2504634D01*
X5802310Y2518213D01*
X5804779Y2531175D01*
X5807248Y2543519D01*
X5809100Y2554629D01*
X5811569Y2564505D01*
X5813420Y2573763D01*
X5815272Y2582404D01*
X5816506Y2589811D01*
X5818358Y2596600D01*
X5819592Y2602155D01*
X5820827Y2607093D01*
X5821444Y2611413D01*
X5822061Y2614499D01*
X5822678Y2616351D01*
X5823296Y2617586D01*
Y2618203D01*
D02*
G37*
G36*
X5812803Y2242316D02*
X5751081Y2235526D01*
X5737502Y2233675D01*
X5725775Y2232440D01*
X5715282Y2231823D01*
X5706024Y2231206D01*
X5699234Y2230589D01*
X5693679D01*
X5690593D01*
X5689359D01*
X5683187D01*
X5677015Y2231206D01*
X5670842D01*
X5664670Y2231823D01*
X5659732Y2232440D01*
X5655412D01*
X5652943Y2233058D01*
X5651709D01*
X5613441Y2236144D01*
X5617761Y2190469D01*
X5618996Y2181211D01*
X5620848Y2171953D01*
X5625785Y2154671D01*
X5632575Y2138623D01*
X5639364Y2124427D01*
X5643067Y2117637D01*
X5646154Y2112082D01*
X5649240Y2107145D01*
X5651709Y2103441D01*
X5654177Y2099738D01*
X5656029Y2097269D01*
X5656646Y2096035D01*
X5657264Y2095417D01*
X5664053Y2086776D01*
X5671460Y2079370D01*
X5678249Y2072580D01*
X5685656Y2067025D01*
X5692445Y2062088D01*
X5698617Y2057767D01*
X5705407Y2054681D01*
X5710962Y2052212D01*
X5722072Y2048509D01*
X5726392Y2047274D01*
X5730095Y2046657D01*
X5733182Y2046040D01*
X5735650D01*
X5736885D01*
X5737502D01*
X5742440Y2046657D01*
X5747378Y2048509D01*
X5752315Y2051595D01*
X5756636Y2054064D01*
X5760956Y2057150D01*
X5764043Y2060236D01*
X5766511Y2062088D01*
X5767129Y2062705D01*
X5772684Y2068260D01*
X5777621Y2074432D01*
X5781942Y2079987D01*
X5785645Y2084925D01*
X5788731Y2089245D01*
X5790583Y2092331D01*
X5791817Y2094800D01*
X5792435Y2095417D01*
X5796138Y2103441D01*
X5799224Y2112082D01*
X5804779Y2131216D01*
X5808482Y2150967D01*
X5810951Y2170101D01*
X5811569Y2179359D01*
X5812186Y2188000D01*
X5812803Y2195407D01*
Y2202197D01*
X5813420Y2207751D01*
Y2228737D01*
X5812803Y2234909D01*
Y2242316D01*
D02*
G37*
G36*
X5972046Y1821372D02*
X5802310Y1816434D01*
X5712813Y1817668D01*
X5622699Y1818903D01*
X5631957Y1798535D01*
X5640599Y1779401D01*
X5648622Y1762736D01*
X5655412Y1747305D01*
X5662201Y1734344D01*
X5667756Y1721999D01*
X5673311Y1711507D01*
X5678249Y1702866D01*
X5681952Y1694842D01*
X5685656Y1688669D01*
X5688742Y1683114D01*
X5690593Y1679411D01*
X5692445Y1676325D01*
X5693679Y1674473D01*
X5694914Y1673239D01*
Y1672622D01*
X5706641Y1655957D01*
X5718986Y1640526D01*
X5731947Y1628182D01*
X5744909Y1617072D01*
X5757253Y1607814D01*
X5769598Y1599790D01*
X5781942Y1593618D01*
X5793052Y1588063D01*
X5804162Y1584359D01*
X5814037Y1581273D01*
X5822678Y1579422D01*
X5830085Y1577570D01*
X5836257Y1576953D01*
X5841195Y1576335D01*
X5843664D01*
X5844898D01*
X5859094Y1576953D01*
X5872056Y1579422D01*
X5884400Y1581890D01*
X5895510Y1585594D01*
X5904769Y1588680D01*
X5908472Y1590531D01*
X5911558Y1591766D01*
X5914027Y1593000D01*
X5915879Y1594235D01*
X5917113Y1594852D01*
X5917730D01*
X5930075Y1602259D01*
X5940567Y1609665D01*
X5950443Y1617689D01*
X5957850Y1625096D01*
X5964639Y1631885D01*
X5968960Y1637440D01*
X5971428Y1641144D01*
X5972663Y1641761D01*
Y1642378D01*
X5976366Y1649167D01*
X5980070Y1655957D01*
X5985007Y1672622D01*
X5988711Y1689287D01*
X5991797Y1706569D01*
X5992414Y1714593D01*
X5993031Y1721999D01*
X5993648Y1728789D01*
Y1734344D01*
X5994266Y1739282D01*
Y1746071D01*
X5993648Y1760884D01*
X5991180Y1774463D01*
X5988711Y1786190D01*
X5985007Y1796066D01*
X5981921Y1804090D01*
X5978835Y1810262D01*
X5976983Y1813965D01*
X5976366Y1814582D01*
Y1815200D01*
X5974515Y1817668D01*
X5973280Y1820137D01*
X5972046Y1820755D01*
Y1821372D01*
D02*
G37*
G36*
X1298218Y3867865D02*
X1291163Y3859046D01*
X1289492Y3856447D01*
X1291163Y3857283D01*
Y3859046D01*
X1294691Y3860810D01*
X1298218Y3867865D01*
D02*
G37*
G36*
X1289492Y3856447D02*
X1287635Y3855519D01*
X1286279Y3851449D01*
X1289492Y3856447D01*
D02*
G37*
G36*
X1286279Y3851449D02*
X1275289Y3834354D01*
X1261179Y3809661D01*
X1250596Y3786732D01*
X1243541Y3765566D01*
X1238250Y3746165D01*
X1232958Y3732055D01*
X1231195Y3723236D01*
Y3719708D01*
X1227667Y3693251D01*
X1225903Y3668559D01*
X1227667Y3645629D01*
Y3626228D01*
X1229431Y3608590D01*
X1232958Y3596244D01*
X1234722Y3589189D01*
Y3585661D01*
X1241777Y3562732D01*
X1248832Y3541567D01*
X1257651Y3520401D01*
X1266470Y3501000D01*
X1275289Y3485126D01*
X1282344Y3472779D01*
X1285872Y3465724D01*
X1287635Y3462197D01*
X1301746Y3439268D01*
X1315856Y3418102D01*
X1328202Y3400465D01*
X1338785Y3384591D01*
X1349368Y3372244D01*
X1356423Y3363425D01*
X1361714Y3356370D01*
X1363478Y3354606D01*
X1391698Y3322858D01*
X1405808Y3308748D01*
X1418155Y3296402D01*
X1428738Y3285819D01*
X1437556Y3277000D01*
X1442848Y3271709D01*
X1444612Y3269945D01*
X1460486Y3255835D01*
X1472832Y3243489D01*
X1483415Y3234670D01*
X1492233Y3227615D01*
X1497525Y3222323D01*
X1502816Y3218796D01*
X1504580Y3215268D01*
X1506344D01*
X1516926Y3206449D01*
X1523981Y3199394D01*
X1529273Y3195867D01*
X1531037Y3194103D01*
X1527509Y3218796D01*
Y3243489D01*
X1531037Y3266418D01*
X1534564Y3287583D01*
X1538092Y3306984D01*
X1543383Y3321095D01*
X1545147Y3329914D01*
X1546911Y3333441D01*
X1557493Y3361662D01*
X1568076Y3388118D01*
X1580422Y3411047D01*
X1591005Y3432213D01*
X1599824Y3448087D01*
X1606879Y3460433D01*
X1612170Y3467488D01*
X1613934Y3471016D01*
X1645682Y3515110D01*
X1661556Y3534512D01*
X1675666Y3553913D01*
X1689776Y3568024D01*
X1700359Y3580370D01*
X1707414Y3589189D01*
X1709178Y3590953D01*
X1728579Y3612118D01*
X1744453Y3629756D01*
X1758564Y3643866D01*
X1769146Y3656212D01*
X1777965Y3663268D01*
X1783257Y3670323D01*
X1786784Y3672086D01*
X1788548Y3673850D01*
X1802658Y3687960D01*
X1813241Y3696779D01*
X1820296Y3702071D01*
X1822060Y3703834D01*
X1788548Y3677378D01*
X1756800Y3654449D01*
X1726816Y3629756D01*
X1698595Y3608590D01*
X1673902Y3587425D01*
X1649210Y3568024D01*
X1628044Y3548622D01*
X1606879Y3530984D01*
X1571603Y3499236D01*
X1541619Y3471016D01*
X1518690Y3444559D01*
X1499289Y3423394D01*
X1483415Y3405756D01*
X1472832Y3391646D01*
X1465777Y3379299D01*
X1460486Y3370480D01*
X1456958Y3363425D01*
X1455194Y3358134D01*
Y3356370D01*
Y3354606D01*
X1423446Y3393410D01*
X1395226Y3428685D01*
X1370533Y3462197D01*
X1351131Y3492181D01*
X1335257Y3515110D01*
X1324675Y3534512D01*
X1321147Y3541567D01*
X1317620Y3546858D01*
X1315856Y3548622D01*
Y3550386D01*
X1299982Y3583897D01*
X1287635Y3613882D01*
X1277053Y3640338D01*
X1271761Y3663267D01*
X1268234Y3680905D01*
X1266470Y3695015D01*
X1264706Y3702070D01*
Y3705598D01*
X1262943Y3728527D01*
Y3747928D01*
X1264706Y3763802D01*
Y3777913D01*
X1266470Y3788495D01*
Y3797314D01*
X1268234Y3800842D01*
Y3802606D01*
X1275289Y3825535D01*
X1282344Y3843172D01*
X1285872Y3850228D01*
X1286279Y3851449D01*
D02*
G37*
G36*
X1802658Y3576842D02*
X1769146Y3546858D01*
X1737398Y3515110D01*
X1710942Y3483362D01*
X1688013Y3455142D01*
X1670375Y3430449D01*
X1656265Y3411048D01*
X1652737Y3403992D01*
X1649210Y3398701D01*
X1645682Y3395174D01*
Y3393410D01*
X1626280Y3354606D01*
X1610406Y3319331D01*
X1599824Y3287583D01*
X1592769Y3257599D01*
X1589241Y3234670D01*
X1587477Y3217032D01*
Y3209977D01*
Y3204685D01*
Y3202922D01*
Y3201158D01*
X1589241Y3185284D01*
X1592769Y3171174D01*
X1603351Y3146481D01*
X1617462Y3127079D01*
X1635099Y3112969D01*
X1650973Y3102387D01*
X1665084Y3095332D01*
X1675666Y3091804D01*
X1677430Y3090040D01*
X1679194D01*
X1710942Y3084749D01*
X1740926Y3082985D01*
X1770910Y3084749D01*
X1795603Y3090040D01*
X1816768Y3095332D01*
X1832642Y3100623D01*
X1843225Y3104151D01*
X1844989Y3105914D01*
X1846752D01*
X1876737Y3120024D01*
X1903193Y3135898D01*
X1926122Y3151772D01*
X1945524Y3167646D01*
X1959634Y3179993D01*
X1971981Y3192339D01*
X1979036Y3199394D01*
X1980799Y3201158D01*
X2000201Y3224087D01*
X2017839Y3247016D01*
X2033713Y3271709D01*
X2047823Y3292875D01*
X2060169Y3312276D01*
X2068988Y3326386D01*
X2076043Y3336969D01*
X2077807Y3340496D01*
X2093681Y3368717D01*
X2106028Y3393410D01*
X2116610Y3412811D01*
X2125429Y3428685D01*
X2130720Y3441032D01*
X2134248Y3448087D01*
X2137776Y3453378D01*
Y3455142D01*
X2144831Y3478071D01*
X2151886Y3493945D01*
X2153649Y3504528D01*
X2155413Y3508055D01*
X2136012Y3471016D01*
X2116610Y3439268D01*
X2106028Y3423394D01*
X2097209Y3409284D01*
X2088390Y3396937D01*
X2081335Y3386355D01*
X2076043Y3379300D01*
X2074280Y3377536D01*
X2042532Y3338733D01*
X2028421Y3321095D01*
X2014311Y3305221D01*
X2001965Y3291111D01*
X1993146Y3280528D01*
X1986091Y3273473D01*
X1984327Y3271709D01*
X1964925Y3252308D01*
X1945524Y3236434D01*
X1926122Y3222324D01*
X1906721Y3211741D01*
X1890847Y3202922D01*
X1878500Y3195867D01*
X1871445Y3192339D01*
X1867918Y3190576D01*
X1843225Y3181757D01*
X1818532Y3176465D01*
X1797367Y3172938D01*
X1747981D01*
X1740926Y3174702D01*
X1737398D01*
X1723288Y3178229D01*
X1710942Y3183520D01*
X1691540Y3197631D01*
X1677430Y3215268D01*
X1668611Y3236434D01*
X1663320Y3259363D01*
Y3282292D01*
X1666847Y3308749D01*
X1672139Y3333441D01*
X1680958Y3359898D01*
X1689776Y3382827D01*
X1698595Y3405756D01*
X1707414Y3425158D01*
X1716233Y3442796D01*
X1721524Y3455142D01*
X1726816Y3462197D01*
X1728579Y3465725D01*
X1740926Y3485126D01*
X1753272Y3502764D01*
X1762091Y3516874D01*
X1770910Y3529221D01*
X1777965Y3541567D01*
X1785020Y3550386D01*
X1793839Y3562732D01*
X1799131Y3571551D01*
X1800894Y3575079D01*
X1802658Y3576842D01*
D02*
G37*
G36*
X2199508Y3601535D02*
X2197744D01*
X2229492Y3566260D01*
X2259476Y3529221D01*
X2284169Y3493945D01*
X2307098Y3460433D01*
X2326500Y3426922D01*
X2344137Y3395174D01*
X2358248Y3365189D01*
X2370594Y3336969D01*
X2379413Y3310512D01*
X2388232Y3287583D01*
X2393523Y3266418D01*
X2398814Y3248780D01*
X2402342Y3234670D01*
X2404106Y3224087D01*
X2405869Y3217032D01*
Y3215268D01*
X2409397Y3179993D01*
Y3144717D01*
X2405869Y3112969D01*
X2400578Y3081221D01*
X2393523Y3051237D01*
X2384704Y3023017D01*
X2375885Y2996560D01*
X2365303Y2973631D01*
X2354720Y2950702D01*
X2344138Y2931300D01*
X2335319Y2915426D01*
X2326500Y2901316D01*
X2317681Y2890734D01*
X2312390Y2881915D01*
X2308862Y2876623D01*
X2307098Y2874860D01*
X2284169Y2846639D01*
X2261240Y2820183D01*
X2236547Y2795490D01*
X2213618Y2774324D01*
X2194217Y2756687D01*
X2178343Y2744340D01*
X2167760Y2735521D01*
X2165996Y2731994D01*
X2164232D01*
X2134248Y2710828D01*
X2107792Y2693191D01*
X2086626Y2679080D01*
X2068988Y2668498D01*
X2056642Y2659679D01*
X2047823Y2654388D01*
X2042532Y2652624D01*
X2040768Y2650860D01*
X2016075Y2638514D01*
X1996674Y2629695D01*
X1989619Y2626167D01*
X1984327Y2624403D01*
X1983606Y2623682D01*
X1980800Y2622640D01*
X1982563D01*
X1983606Y2623682D01*
X2042532Y2645569D01*
X2098973Y2668498D01*
X2150122Y2693191D01*
X2195980Y2717884D01*
X2238311Y2742576D01*
X2273587Y2765506D01*
X2307098Y2790198D01*
X2335319Y2811364D01*
X2358248Y2832529D01*
X2379413Y2851931D01*
X2395287Y2869568D01*
X2409397Y2885442D01*
X2418216Y2896025D01*
X2425271Y2906608D01*
X2428799Y2911899D01*
X2430563Y2913663D01*
X2453492Y2954230D01*
X2471129Y2993033D01*
X2485239Y3026544D01*
X2495822Y3056529D01*
X2501113Y3081221D01*
X2506405Y3098859D01*
Y3105914D01*
X2508168Y3111206D01*
Y3112969D01*
Y3114733D01*
X2522279Y3105914D01*
X2534625Y3097095D01*
X2562846Y3072403D01*
X2587538Y3042418D01*
X2610467Y3012434D01*
X2629869Y2984214D01*
X2638688Y2971867D01*
X2643979Y2961285D01*
X2651035Y2950702D01*
X2654562Y2943647D01*
X2656326Y2940119D01*
X2658090Y2938356D01*
X2681019Y2890734D01*
X2691601Y2869568D01*
X2700420Y2850167D01*
X2707475Y2832529D01*
X2712767Y2820183D01*
X2716294Y2811364D01*
X2718058Y2807836D01*
X2698657Y2873096D01*
X2677491Y2934828D01*
X2652798Y2994796D01*
X2628105Y3051237D01*
X2603412Y3105914D01*
X2576956Y3155300D01*
X2550499Y3201158D01*
X2524042Y3245253D01*
X2499350Y3282292D01*
X2476420Y3317567D01*
X2457019Y3345788D01*
X2437617Y3370481D01*
X2423507Y3389882D01*
X2411161Y3403992D01*
X2404106Y3412811D01*
X2402342Y3416339D01*
X2361775Y3462197D01*
X2322972Y3499236D01*
X2287696Y3530984D01*
X2257712Y3557441D01*
X2233019Y3576842D01*
X2213618Y3590953D01*
X2206563Y3596244D01*
X2201271Y3599772D01*
X2199508Y3601535D01*
D02*
G37*
G36*
X2215382Y3492181D02*
X2208327Y3453378D01*
X2204799Y3437504D01*
X2199508Y3419866D01*
X2192453Y3402229D01*
X2187161Y3384591D01*
X2180106Y3370481D01*
X2176579Y3358134D01*
X2173051Y3351079D01*
X2171287Y3347552D01*
X2146594Y3301693D01*
X2134248Y3280528D01*
X2121902Y3261127D01*
X2111319Y3245253D01*
X2102500Y3231142D01*
X2097209Y3224087D01*
X2095445Y3220560D01*
X2076043Y3195867D01*
X2054878Y3172938D01*
X2031949Y3153536D01*
X2010784Y3134135D01*
X1989618Y3118261D01*
X1973744Y3107678D01*
X1963162Y3100623D01*
X1961398Y3097095D01*
X1959634D01*
X1924359Y3075930D01*
X1889083Y3060056D01*
X1853808Y3044182D01*
X1822060Y3033599D01*
X1793839Y3024781D01*
X1783257Y3021253D01*
X1772674Y3017725D01*
X1763855Y3015962D01*
X1758564Y3014198D01*
X1755036Y3012434D01*
X1770910D01*
X1785020Y3014198D01*
X1790312D01*
X1804422Y3015962D01*
X1820296Y3017725D01*
X1852044Y3024781D01*
X1864390Y3026544D01*
X1874973Y3030072D01*
X1883792Y3031836D01*
X1885556D01*
X1929650Y3044182D01*
X1949051Y3049473D01*
X1968453Y3054765D01*
X1984327Y3060056D01*
X1996673Y3063584D01*
X2003729Y3067111D01*
X2007256D01*
X2030185Y3075930D01*
X2053114Y3088277D01*
X2074280Y3098859D01*
X2093681Y3111206D01*
X2109555Y3121788D01*
X2121902Y3130607D01*
X2128957Y3135898D01*
X2132484Y3137662D01*
X2153649Y3157064D01*
X2173051Y3176465D01*
X2188925Y3194103D01*
X2203035Y3211741D01*
X2213618Y3225851D01*
X2220673Y3238197D01*
X2225964Y3245253D01*
X2227728Y3248780D01*
X2234783Y3215268D01*
X2236547Y3201158D01*
X2238311Y3185284D01*
Y3153536D01*
Y3139426D01*
Y3128843D01*
Y3121788D01*
Y3118261D01*
X2233019Y3072403D01*
X2229492Y3051237D01*
X2225964Y3031836D01*
X2222437Y3014198D01*
X2218909Y3001852D01*
X2217145Y2993033D01*
Y2989505D01*
X2208327Y2963048D01*
X2197744Y2936592D01*
X2187161Y2911899D01*
X2174815Y2888970D01*
X2162469Y2869568D01*
X2153650Y2855458D01*
X2146595Y2844875D01*
X2144831Y2843112D01*
Y2841348D01*
X2123666Y2813127D01*
X2098973Y2784907D01*
X2076044Y2761978D01*
X2053115Y2740813D01*
X2033713Y2723175D01*
X2017839Y2709065D01*
X2007256Y2702010D01*
X2006080Y2699658D01*
X2003729Y2698482D01*
X2005493D01*
X2006080Y2699658D01*
X2031949Y2712592D01*
X2054878Y2724939D01*
X2077807Y2739049D01*
X2086626Y2744340D01*
X2093681Y2749632D01*
X2098973Y2753159D01*
X2100736Y2754923D01*
X2128957Y2779616D01*
X2155414Y2804309D01*
X2167760Y2814891D01*
X2176579Y2823710D01*
X2181870Y2829001D01*
X2183634Y2830765D01*
X2199508Y2848403D01*
X2213618Y2866041D01*
X2227728Y2885442D01*
X2238311Y2903080D01*
X2248894Y2918954D01*
X2255949Y2931300D01*
X2259476Y2938356D01*
X2261240Y2941883D01*
X2282405Y2993033D01*
X2289460Y3015962D01*
X2296515Y3038891D01*
X2300043Y3056529D01*
X2303570Y3072403D01*
X2307098Y3081221D01*
Y3084749D01*
X2310626Y3114733D01*
Y3146481D01*
X2308862Y3176465D01*
X2307098Y3206450D01*
X2303570Y3231142D01*
X2301807Y3250544D01*
X2300043Y3257599D01*
X2298279Y3262890D01*
Y3266418D01*
Y3268182D01*
X2289460Y3308749D01*
X2277114Y3349315D01*
X2263004Y3386355D01*
X2248893Y3419866D01*
X2236547Y3449851D01*
X2229492Y3462197D01*
X2225964Y3472780D01*
X2220673Y3481599D01*
X2217145Y3486890D01*
X2215382Y3490417D01*
Y3492181D01*
D02*
G37*
%LPD*%
%TF.MD5,110ac0622bb1684063318d5aca8ab40a*%
M02*
