%TF.GenerationSoftware,Altium Limited,Altium Designer,23.3.1 (30)*%
G04 Layer_Color=0*
%FSLAX45Y45*%
%MOMM*%
%TF.SameCoordinates,805B0A7C-C0AB-40D2-B4E8-8F8973F9869A*%
%TF.FilePolarity,Positive*%
%TF.FileFunction,Plated,1,2,PTH,Drill*%
%TF.Part,Single*%
G01*
G75*
%TA.AperFunction,ComponentDrill*%
%ADD64C,0.90000*%
%ADD65C,2.00000*%
%ADD66C,0.70000*%
%ADD67C,1.70000*%
%ADD68C,1.20000*%
%TA.AperFunction,OtherDrill,Pad Free-3 (63.5mm,47.752mm)*%
%ADD69C,3.37820*%
%TA.AperFunction,OtherDrill,Pad Free-3 (6.096mm,47.752mm)*%
%ADD70C,3.37820*%
%TA.AperFunction,OtherDrill,Pad Free-3 (63.5mm,6.858mm)*%
%ADD71C,3.37820*%
%TA.AperFunction,OtherDrill,Pad Free-3 (6.096mm,6.858mm)*%
%ADD72C,3.37820*%
%TA.AperFunction,ViaDrill,NotFilled*%
%ADD73C,0.71120*%
%ADD74C,0.38100*%
%ADD75C,0.45720*%
D64*
X5537200Y1490700D02*
D03*
X5283200D02*
D03*
D65*
X5791200Y982700D02*
D03*
X4775200D02*
D03*
D66*
X4787400Y4305300D02*
D03*
Y4559300D02*
D03*
Y4813300D02*
D03*
D67*
X2745900Y6689300D02*
D03*
X1495900D02*
D03*
X1024700D02*
D03*
X524700D02*
D03*
D68*
X1495900Y5971300D02*
D03*
X1745900D02*
D03*
X1995900D02*
D03*
X2245900D02*
D03*
X2495900D02*
D03*
X2745900D02*
D03*
X1024700D02*
D03*
X774700D02*
D03*
X524700D02*
D03*
D69*
X6350000Y4775200D02*
D03*
D70*
X609600D02*
D03*
D71*
X6350000Y685800D02*
D03*
D72*
X609600D02*
D03*
D73*
X2908300Y2705100D02*
D03*
X2882900Y3594100D02*
D03*
X1206500Y5092700D02*
D03*
X1968500Y4711700D02*
D03*
X825500Y1308100D02*
D03*
X2451100Y1333500D02*
D03*
D74*
X2732937Y4944491D02*
D03*
X4851819Y6193764D02*
D03*
X3115982Y5022482D02*
D03*
X2997200Y4953000D02*
D03*
X3230700Y4991100D02*
D03*
X3200400Y4699000D02*
D03*
X5054600Y6604000D02*
D03*
X4648200Y5588000D02*
D03*
X4940451Y5577840D02*
D03*
X2997200Y5791200D02*
D03*
X5143828Y3708400D02*
D03*
X5283200Y3987800D02*
D03*
X5080000D02*
D03*
X4800600Y6629400D02*
D03*
X5257800Y6654800D02*
D03*
X3454400Y6400800D02*
D03*
X2946400Y6375400D02*
D03*
X3048000Y6273800D02*
D03*
X3073400Y6781800D02*
D03*
X5270500Y3594100D02*
D03*
X5676900Y4114800D02*
D03*
X5085371Y5999685D02*
D03*
X5063620Y6473310D02*
D03*
X4292600Y6337912D02*
D03*
X3937000Y5816600D02*
D03*
X4533900Y2755900D02*
D03*
X5334000Y5334000D02*
D03*
Y5994400D02*
D03*
X4572000Y6146800D02*
D03*
X1524000Y5537200D02*
D03*
X1727200D02*
D03*
X2743200Y5054600D02*
D03*
X5256310Y3786551D02*
D03*
X5016500Y2755900D02*
D03*
X2501900Y4787900D02*
D03*
X2705100Y4584700D02*
D03*
D75*
X2146300Y952500D02*
D03*
X1790700Y4330700D02*
D03*
X2120900Y4305300D02*
D03*
X1841500Y977900D02*
D03*
X3098527Y4744156D02*
D03*
%TF.MD5,5bfb868e1e2cc683fa8dcb01a669298a*%
M02*
