%TF.GenerationSoftware,Altium Limited,Altium Designer,23.3.1 (30)*%
G04 Layer_Color=16711935*
%FSLAX45Y45*%
%MOMM*%
%TF.SameCoordinates,6F745D81-4E65-4738-B163-C7EBCDBB3273*%
%TF.FilePolarity,Negative*%
%TF.FileFunction,Soldermask,Bot*%
%TF.Part,Single*%
G01*
G75*
%TA.AperFunction,ComponentPad*%
%ADD33C,1.40000*%
%ADD34R,1.40000X1.40000*%
%ADD35C,3.05000*%
%ADD36C,1.20000*%
%ADD37R,1.20000X1.20000*%
%ADD56C,1.90320*%
%ADD57C,2.00320*%
%TA.AperFunction,ViaPad*%
%ADD58C,5.79120*%
%ADD59C,1.47320*%
%ADD60C,0.96520*%
D33*
X13792200Y5478500D02*
D03*
D34*
X13538200D02*
D03*
D35*
X14046201Y4970500D02*
D03*
X13030200D02*
D03*
D36*
X13042400Y8293100D02*
D03*
Y8547100D02*
D03*
D37*
Y8801100D02*
D03*
D56*
X11000900Y10677100D02*
D03*
X9750900D02*
D03*
X9279700D02*
D03*
X8779700D02*
D03*
D57*
X9750900Y9959100D02*
D03*
X10000900D02*
D03*
X10250900D02*
D03*
X10500900D02*
D03*
X10750900D02*
D03*
X11000900D02*
D03*
X9279700D02*
D03*
X9029700D02*
D03*
X8779700D02*
D03*
D58*
X14605000Y8763000D02*
D03*
X8864600D02*
D03*
X14605000Y4673600D02*
D03*
X8864600D02*
D03*
D59*
X11163300Y6692900D02*
D03*
X11137900Y7581900D02*
D03*
X9461500Y9080500D02*
D03*
X10223500Y8699500D02*
D03*
X9080500Y5295900D02*
D03*
X10706100Y5321300D02*
D03*
D60*
X10987937Y8932291D02*
D03*
X13106819Y10181564D02*
D03*
X11370982Y9010282D02*
D03*
X11252200Y8940800D02*
D03*
X11485700Y8978900D02*
D03*
X11455400Y8686800D02*
D03*
X13309599Y10591800D02*
D03*
X12903200Y9575800D02*
D03*
X13195451Y9565640D02*
D03*
X11252200Y9779000D02*
D03*
X13398828Y7696200D02*
D03*
X13538200Y7975600D02*
D03*
X13335001D02*
D03*
X13055600Y10617200D02*
D03*
X13512801Y10642600D02*
D03*
X11709400Y10388600D02*
D03*
X11201400Y10363200D02*
D03*
X11303000Y10261600D02*
D03*
X11328400Y10769600D02*
D03*
X13525500Y7581900D02*
D03*
X13931900Y8102600D02*
D03*
X13340372Y9987485D02*
D03*
X13318620Y10461110D02*
D03*
X12547600Y10325712D02*
D03*
X12192000Y9804400D02*
D03*
X12788900Y6743700D02*
D03*
X13589000Y9321800D02*
D03*
Y9982200D02*
D03*
X12827000Y10134600D02*
D03*
X9779000Y9525000D02*
D03*
X9982200D02*
D03*
X10998200Y9042400D02*
D03*
X13511310Y7774351D02*
D03*
X10401300Y4940300D02*
D03*
X10045700Y8318500D02*
D03*
X13271500Y6743700D02*
D03*
X10756900Y8775700D02*
D03*
X10375900Y8293100D02*
D03*
X10960100Y8572500D02*
D03*
X10096500Y4965700D02*
D03*
X11353527Y8731956D02*
D03*
%TF.MD5,526fcc6d2b6c44ffdf7b7ceca50db0cb*%
M02*
