%TF.GenerationSoftware,Altium Limited,Altium Designer,23.5.1 (21)*%
G04 Layer_Color=128*
%FSLAX45Y45*%
%MOMM*%
%TF.SameCoordinates,815A2C8C-8163-47E4-9813-AD16C0C63C49*%
%TF.FilePolarity,Positive*%
%TF.FileFunction,Paste,Bot*%
%TF.Part,Single*%
G01*
G75*
%TA.AperFunction,SMDPad,CuDef*%
%ADD77R,1.00000X1.00000*%
G36*
X5298988Y6000493D02*
X5305223Y5994255D01*
X5308595Y5986105D01*
X5308593Y5981695D01*
X5308600Y5981700D01*
Y5854699D01*
X5309574Y5844789D01*
X5317158Y5826477D01*
X5331172Y5812461D01*
X5349483Y5804876D01*
X5359393Y5803901D01*
X5359400Y5803900D01*
X5448299Y5803900D01*
X5458209Y5804876D01*
X5476519Y5812460D01*
X5490533Y5826474D01*
X5498117Y5844784D01*
X5499093Y5854693D01*
X5499100Y5854700D01*
Y5968999D01*
Y5974050D01*
X5502966Y5983384D01*
X5510110Y5990528D01*
X5519444Y5994394D01*
X5524495Y5994393D01*
X5524501Y5994400D01*
X5880100Y5994399D01*
X5892174Y5994400D01*
X5914484Y5985158D01*
X5931558Y5968082D01*
X5940797Y5945770D01*
X5940795Y5933696D01*
X5940800Y5933700D01*
Y5819400D01*
X5941829Y5808943D01*
X5949831Y5789621D01*
X5964618Y5774833D01*
X5983939Y5766829D01*
X5994396Y5765800D01*
X5994400D01*
X10566401Y5765798D01*
X10592206Y5765799D01*
X10643373Y5759062D01*
X10693223Y5745705D01*
X10740904Y5725955D01*
X10785598Y5700151D01*
X10826542Y5668733D01*
X10863035Y5632240D01*
X10894452Y5591295D01*
X10920256Y5546601D01*
X10940006Y5498920D01*
X10953363Y5449070D01*
X10960098Y5397902D01*
X10960098Y5372098D01*
X10960100Y5372099D01*
X10961106Y5341366D01*
X10969129Y5280426D01*
X10985037Y5221055D01*
X11008559Y5164268D01*
X11039291Y5111037D01*
X11076709Y5062273D01*
X11120172Y5018810D01*
X11168936Y4981392D01*
X11222167Y4950659D01*
X11278954Y4927137D01*
X11338325Y4911229D01*
X11399264Y4903206D01*
X11429997Y4902200D01*
X11429998D01*
X11569700Y4902199D01*
X11580957D01*
X11603040Y4897807D01*
X11623841Y4889191D01*
X11642561Y4876682D01*
X11658482Y4860761D01*
X11670991Y4842041D01*
X11679607Y4821240D01*
X11683999Y4799157D01*
X11683999Y4787899D01*
X11684000Y4787900D01*
X11683999Y4559299D01*
Y4545540D01*
X11678630Y4518550D01*
X11668099Y4493127D01*
X11652811Y4470246D01*
X11633353Y4450788D01*
X11610472Y4435499D01*
X11585048Y4424968D01*
X11558059Y4419600D01*
X3949701D01*
X3932188Y4419599D01*
X3897838Y4426431D01*
X3865479Y4439833D01*
X3836358Y4459291D01*
X3811592Y4484057D01*
X3792134Y4513178D01*
X3778731Y4545536D01*
X3771899Y4579887D01*
X3771899Y4597398D01*
Y4597400D01*
X3771900Y4862556D01*
Y4884300D01*
X3777576Y4927415D01*
X3788831Y4969420D01*
X3805473Y5009597D01*
X3827217Y5047258D01*
X3853690Y5081759D01*
X3884440Y5112509D01*
X3918940Y5138982D01*
X3956601Y5160726D01*
X3996778Y5177367D01*
X4038783Y5188623D01*
X4081898Y5194299D01*
X4103642D01*
X4103643Y5194300D01*
X4254500Y5194300D01*
X4283788Y5195019D01*
X4342083Y5200760D01*
X4399534Y5212188D01*
X4455589Y5229192D01*
X4509707Y5251608D01*
X4561367Y5279222D01*
X4610072Y5311765D01*
X4655352Y5348926D01*
X4696772Y5390346D01*
X4733933Y5435626D01*
X4766477Y5484331D01*
X4794090Y5535991D01*
X4816506Y5590109D01*
X4833510Y5646164D01*
X4844938Y5703615D01*
X4850679Y5761910D01*
X4851398Y5791198D01*
X4851400Y5791200D01*
Y5927364D01*
Y5934898D01*
X4854340Y5949678D01*
X4860106Y5963600D01*
X4868478Y5976130D01*
X4879134Y5986786D01*
X4891664Y5995158D01*
X4905586Y6000924D01*
X4920366Y6003865D01*
X4927901Y6003864D01*
X4927902Y6003866D01*
X5286430Y6003870D01*
X5290840D01*
X5298988Y6000493D01*
D02*
G37*
D77*
X4060341Y6540500D02*
D03*
X3857141D02*
D03*
%TF.MD5,49eec2e533c8a9adde563c0b377705db*%
M02*
