%TF.GenerationSoftware,Altium Limited,Altium Designer,23.2.1 (34)*%
G04 Layer_Physical_Order=2*
G04 Layer_Color=16711680*
%FSLAX45Y45*%
%MOMM*%
%TF.SameCoordinates,D2495298-5ADA-4058-9D5E-391355C30085*%
%TF.FilePolarity,Positive*%
%TF.FileFunction,Copper,L2,Bot,Signal*%
%TF.Part,Single*%
G01*
G75*
%TA.AperFunction,Conductor*%
%ADD20C,0.25400*%
%ADD21C,0.50800*%
%TA.AperFunction,ComponentPad*%
%ADD22C,1.60000*%
%ADD23C,1.70000*%
%ADD24R,1.70000X1.70000*%
%TA.AperFunction,ViaPad*%
%ADD25C,0.76200*%
%ADD26C,1.27000*%
G36*
X11874500Y7832228D02*
X11861800Y7830557D01*
X11858417Y7843182D01*
X11844541Y7867216D01*
X11824917Y7886840D01*
X11800883Y7900716D01*
X11774076Y7907899D01*
X11746324D01*
X11719517Y7900716D01*
X11695483Y7886840D01*
X11675859Y7867216D01*
X11661983Y7843182D01*
X11654800Y7816375D01*
Y7788623D01*
X11661983Y7761816D01*
X11675859Y7737782D01*
X11695483Y7718158D01*
X11719517Y7704282D01*
X11746324Y7697099D01*
X11774076D01*
X11800883Y7704282D01*
X11824917Y7718158D01*
X11844541Y7737782D01*
X11858417Y7761816D01*
X11861800Y7774441D01*
X11874500Y7772770D01*
Y7332229D01*
X11861800Y7330558D01*
X11858417Y7343183D01*
X11844541Y7367217D01*
X11824917Y7386841D01*
X11800883Y7400717D01*
X11774076Y7407900D01*
X11746324D01*
X11719517Y7400717D01*
X11695483Y7386841D01*
X11675859Y7367217D01*
X11661983Y7343183D01*
X11654800Y7316376D01*
Y7288624D01*
X11661983Y7261817D01*
X11675859Y7237783D01*
X11695483Y7218159D01*
X11719517Y7204283D01*
X11746324Y7197100D01*
X11774076D01*
X11800883Y7204283D01*
X11824917Y7218159D01*
X11844541Y7237783D01*
X11858417Y7261817D01*
X11861800Y7274442D01*
X11874500Y7272771D01*
Y6845300D01*
X3556000D01*
Y7251503D01*
X3559433Y7252925D01*
X3568700Y7255556D01*
X3591517Y7242383D01*
X3618324Y7235200D01*
X3646076D01*
X3672883Y7242383D01*
X3696917Y7256259D01*
X3716541Y7275883D01*
X3730417Y7299917D01*
X3737600Y7326724D01*
Y7354476D01*
X3730417Y7381283D01*
X3716541Y7405317D01*
X3696917Y7424941D01*
X3672883Y7438817D01*
X3646076Y7446000D01*
X3618324D01*
X3591517Y7438817D01*
X3568700Y7425644D01*
X3559433Y7428275D01*
X3556000Y7429697D01*
Y8001501D01*
X3559433Y8002923D01*
X3568700Y8005555D01*
X3591517Y7992382D01*
X3618324Y7985199D01*
X3646076D01*
X3672883Y7992382D01*
X3696917Y8006258D01*
X3716541Y8025881D01*
X3730417Y8049916D01*
X3737600Y8076722D01*
Y8104475D01*
X3730417Y8131281D01*
X3716541Y8155316D01*
X3696917Y8174939D01*
X3672883Y8188815D01*
X3646076Y8195998D01*
X3618324D01*
X3591517Y8188815D01*
X3568700Y8175642D01*
X3559433Y8178274D01*
X3556000Y8179696D01*
Y8584304D01*
X3559433Y8585726D01*
X3568700Y8588358D01*
X3591517Y8575185D01*
X3618324Y8568002D01*
X3646076D01*
X3672883Y8575185D01*
X3696917Y8589061D01*
X3716541Y8608684D01*
X3730417Y8632719D01*
X3737600Y8659525D01*
Y8687278D01*
X3730417Y8714084D01*
X3716541Y8738119D01*
X3696917Y8757742D01*
X3672883Y8771618D01*
X3646076Y8778801D01*
X3618324D01*
X3591517Y8771618D01*
X3568700Y8758445D01*
X3559433Y8761077D01*
X3556000Y8762499D01*
Y9334303D01*
X3559433Y9335725D01*
X3568700Y9338356D01*
X3591517Y9325183D01*
X3618324Y9318000D01*
X3646076D01*
X3672883Y9325183D01*
X3696917Y9339059D01*
X3716541Y9358683D01*
X3730417Y9382717D01*
X3737600Y9409524D01*
Y9437276D01*
X3730417Y9464083D01*
X3716541Y9488117D01*
X3696917Y9507741D01*
X3672883Y9521617D01*
X3646076Y9528800D01*
X3618324D01*
X3591517Y9521617D01*
X3568700Y9508444D01*
X3559433Y9511075D01*
X3556000Y9512497D01*
Y9930504D01*
X3559433Y9931926D01*
X3568700Y9934558D01*
X3591517Y9921385D01*
X3618324Y9914202D01*
X3646076D01*
X3672883Y9921385D01*
X3696917Y9935261D01*
X3716541Y9954884D01*
X3730417Y9978919D01*
X3737600Y10005725D01*
Y10033478D01*
X3730417Y10060284D01*
X3716541Y10084319D01*
X3696917Y10103942D01*
X3672883Y10117818D01*
X3646076Y10125001D01*
X3618324D01*
X3591517Y10117818D01*
X3568700Y10104645D01*
X3559433Y10107277D01*
X3556000Y10108699D01*
Y10680503D01*
X3559433Y10681925D01*
X3568700Y10684556D01*
X3591517Y10671383D01*
X3618324Y10664200D01*
X3646076D01*
X3672883Y10671383D01*
X3696917Y10685259D01*
X3716541Y10704883D01*
X3730417Y10728917D01*
X3737600Y10755724D01*
Y10783476D01*
X3730417Y10810283D01*
X3716541Y10834317D01*
X3696917Y10853941D01*
X3672883Y10867817D01*
X3646076Y10875000D01*
X3618324D01*
X3591517Y10867817D01*
X3568700Y10854644D01*
X3559433Y10857275D01*
X3556000Y10858697D01*
Y11274248D01*
X3567733Y11279109D01*
X3573383Y11273459D01*
X3597417Y11259583D01*
X3624224Y11252400D01*
X3651976D01*
X3678783Y11259583D01*
X3702817Y11273459D01*
X3722441Y11293083D01*
X3736317Y11317117D01*
X3743500Y11343924D01*
Y11371676D01*
X3736317Y11398483D01*
X3722441Y11422517D01*
X3702817Y11442141D01*
X3678783Y11456017D01*
X3651976Y11463200D01*
X3624224D01*
X3597417Y11456017D01*
X3573383Y11442141D01*
X3567733Y11436491D01*
X3556000Y11441352D01*
Y12024247D01*
X3567733Y12029107D01*
X3573383Y12023458D01*
X3597417Y12009582D01*
X3624224Y12002399D01*
X3651976D01*
X3678783Y12009582D01*
X3702817Y12023458D01*
X3722441Y12043081D01*
X3736317Y12067116D01*
X3743500Y12093922D01*
Y12121675D01*
X3736317Y12148481D01*
X3722441Y12172516D01*
X3702817Y12192139D01*
X3678783Y12206015D01*
X3651976Y12213198D01*
X3624224D01*
X3597417Y12206015D01*
X3573383Y12192139D01*
X3567733Y12186490D01*
X3556000Y12191350D01*
Y12585700D01*
X11874500D01*
Y7832228D01*
D02*
G37*
%LPC*%
G36*
X11761376Y12221200D02*
X11733624D01*
X11706817Y12214017D01*
X11682783Y12200141D01*
X11663159Y12180517D01*
X11649283Y12156483D01*
X11642100Y12129676D01*
Y12101924D01*
X11649283Y12075117D01*
X11663159Y12051083D01*
X11682783Y12031459D01*
X11706817Y12017583D01*
X11733624Y12010400D01*
X11761376D01*
X11788183Y12017583D01*
X11812217Y12031459D01*
X11831841Y12051083D01*
X11845717Y12075117D01*
X11852900Y12101924D01*
Y12129676D01*
X11845717Y12156483D01*
X11831841Y12180517D01*
X11812217Y12200141D01*
X11788183Y12214017D01*
X11761376Y12221200D01*
D02*
G37*
G36*
X11139900Y12226200D02*
X10919100D01*
Y12154647D01*
X10655300D01*
X10640434Y12151689D01*
X10627831Y12143269D01*
X9726131Y11241569D01*
X9717711Y11228966D01*
X9714753Y11214100D01*
Y10934856D01*
X9699767Y10919870D01*
X9690100Y10896531D01*
Y10871269D01*
X9699767Y10847930D01*
X9717630Y10830067D01*
X9727453Y10825998D01*
Y10122056D01*
X9712467Y10107070D01*
X9702800Y10083731D01*
Y10058469D01*
X9712467Y10035130D01*
X9727453Y10020144D01*
Y8979056D01*
X9712467Y8964070D01*
X9702800Y8940731D01*
Y8915469D01*
X9712467Y8892130D01*
X9727453Y8877144D01*
Y8217056D01*
X9712467Y8202070D01*
X9702800Y8178731D01*
Y8153469D01*
X9712467Y8130130D01*
X9730330Y8112267D01*
X9753669Y8102600D01*
X9778931D01*
X9802270Y8112267D01*
X9820133Y8130130D01*
X9823450Y8138138D01*
X9836150D01*
X9839467Y8130130D01*
X9857330Y8112267D01*
X9880669Y8102600D01*
X9905931D01*
X9929270Y8112267D01*
X9947133Y8130130D01*
X9950450Y8138138D01*
X9963150D01*
X9966467Y8130130D01*
X9984330Y8112267D01*
X10007669Y8102600D01*
X10032931D01*
X10056270Y8112267D01*
X10074133Y8130130D01*
X10083800Y8153469D01*
Y8178731D01*
X10074133Y8202070D01*
X10059147Y8217056D01*
Y8877144D01*
X10074133Y8892130D01*
X10083800Y8915469D01*
Y8940731D01*
X10074133Y8964070D01*
X10059147Y8979056D01*
Y10020144D01*
X10074133Y10035130D01*
X10083800Y10058469D01*
Y10083731D01*
X10074133Y10107070D01*
X10059147Y10122056D01*
Y10843621D01*
X10058811Y10845308D01*
X10061433Y10847930D01*
X10071100Y10871269D01*
Y10896531D01*
X10061433Y10919870D01*
X10046447Y10934856D01*
Y11198009D01*
X10425391Y11576953D01*
X10925614D01*
X10926624Y11573187D01*
X10941158Y11548013D01*
X10961713Y11527458D01*
X10986887Y11512924D01*
X11014966Y11505400D01*
X11044034D01*
X11072113Y11512924D01*
X11097287Y11527458D01*
X11117842Y11548013D01*
X11132376Y11573187D01*
X11139900Y11601266D01*
Y11630334D01*
X11132376Y11658413D01*
X11117842Y11683587D01*
X11097287Y11704142D01*
X11072113Y11718676D01*
X11044034Y11726200D01*
X11014966D01*
X10986887Y11718676D01*
X10961713Y11704142D01*
X10941158Y11683587D01*
X10926624Y11658413D01*
X10925614Y11654646D01*
X10409300D01*
X10394434Y11651689D01*
X10384348Y11644950D01*
X10376252Y11654814D01*
X10548391Y11826953D01*
X10925614D01*
X10926624Y11823187D01*
X10941158Y11798013D01*
X10961713Y11777458D01*
X10986887Y11762924D01*
X11014966Y11755400D01*
X11044034D01*
X11072113Y11762924D01*
X11097287Y11777458D01*
X11117842Y11798013D01*
X11132376Y11823187D01*
X11139900Y11851266D01*
Y11880334D01*
X11132376Y11908413D01*
X11117842Y11933587D01*
X11097287Y11954142D01*
X11072113Y11968676D01*
X11044034Y11976200D01*
X11014966D01*
X10986887Y11968676D01*
X10961713Y11954142D01*
X10941158Y11933587D01*
X10926624Y11908413D01*
X10925614Y11904646D01*
X10532300D01*
X10517434Y11901689D01*
X10507348Y11894950D01*
X10499252Y11904814D01*
X10671391Y12076953D01*
X10919100D01*
Y12005400D01*
X11139900D01*
Y12226200D01*
D02*
G37*
G36*
X4370634Y12218200D02*
X4341566D01*
X4313487Y12210676D01*
X4288313Y12196142D01*
X4267758Y12175587D01*
X4253224Y12150413D01*
X4245700Y12122334D01*
Y12093266D01*
X4253224Y12065187D01*
X4267758Y12040013D01*
X4288313Y12019458D01*
X4313487Y12004924D01*
X4341566Y11997400D01*
X4370634D01*
X4398713Y12004924D01*
X4423887Y12019458D01*
X4444442Y12040013D01*
X4458976Y12065187D01*
X4466500Y12093266D01*
Y12122334D01*
X4458976Y12150413D01*
X4444442Y12175587D01*
X4423887Y12196142D01*
X4398713Y12210676D01*
X4370634Y12218200D01*
D02*
G37*
G36*
Y11718200D02*
X4341566D01*
X4313487Y11710676D01*
X4288313Y11696142D01*
X4267758Y11675587D01*
X4253224Y11650413D01*
X4245700Y11622334D01*
Y11593266D01*
X4253224Y11565187D01*
X4267758Y11540013D01*
X4288313Y11519458D01*
X4313487Y11504924D01*
X4341566Y11497400D01*
X4370634D01*
X4398713Y11504924D01*
X4423887Y11519458D01*
X4444442Y11540013D01*
X4458976Y11565187D01*
X4466500Y11593266D01*
Y11622334D01*
X4458976Y11650413D01*
X4444442Y11675587D01*
X4423887Y11696142D01*
X4398713Y11710676D01*
X4370634Y11718200D01*
D02*
G37*
G36*
X11044034Y11476200D02*
X11014966D01*
X10986887Y11468676D01*
X10961713Y11454142D01*
X10941158Y11433587D01*
X10931925Y11417595D01*
X10794300D01*
X10774479Y11413653D01*
X10757675Y11402425D01*
X10593275Y11238025D01*
X10582047Y11221221D01*
X10578105Y11201400D01*
Y11099708D01*
X10576067Y11097670D01*
X10566400Y11074331D01*
Y11049069D01*
X10576067Y11025730D01*
X10578105Y11023692D01*
Y10286908D01*
X10576067Y10284870D01*
X10566400Y10261531D01*
Y10236269D01*
X10576067Y10212930D01*
X10578105Y10210892D01*
Y9143908D01*
X10576067Y9141870D01*
X10566400Y9118531D01*
Y9093269D01*
X10576067Y9069930D01*
X10593930Y9052067D01*
X10617269Y9042400D01*
X10620150D01*
X10768605Y8893946D01*
Y8098654D01*
X10557646Y7887695D01*
X10426608D01*
X10424570Y7889733D01*
X10401231Y7899400D01*
X10375969D01*
X10352630Y7889733D01*
X10334767Y7871870D01*
X10325100Y7848531D01*
Y7823269D01*
X10334767Y7799930D01*
X10352630Y7782067D01*
X10375969Y7772400D01*
X10401231D01*
X10424570Y7782067D01*
X10426608Y7784105D01*
X10579100D01*
X10598921Y7788047D01*
X10615725Y7799275D01*
X10857025Y8040575D01*
X10868253Y8057379D01*
X10872195Y8077200D01*
Y8915400D01*
X10868253Y8935221D01*
X10857025Y8952025D01*
X10693400Y9115650D01*
Y9118531D01*
X10683733Y9141870D01*
X10681695Y9143908D01*
Y10210892D01*
X10683733Y10212930D01*
X10693400Y10236269D01*
Y10261531D01*
X10683733Y10284870D01*
X10681695Y10286908D01*
Y11023692D01*
X10683733Y11025730D01*
X10693400Y11049069D01*
Y11074331D01*
X10683733Y11097670D01*
X10681695Y11099708D01*
Y11179946D01*
X10815754Y11314005D01*
X10931925D01*
X10941158Y11298013D01*
X10961713Y11277458D01*
X10986887Y11262924D01*
X11014966Y11255400D01*
X11044034D01*
X11072113Y11262924D01*
X11097287Y11277458D01*
X11117842Y11298013D01*
X11132376Y11323187D01*
X11139900Y11351266D01*
Y11380334D01*
X11132376Y11408413D01*
X11117842Y11433587D01*
X11097287Y11454142D01*
X11072113Y11468676D01*
X11044034Y11476200D01*
D02*
G37*
G36*
X11761376Y11221202D02*
X11733624D01*
X11706817Y11214019D01*
X11682783Y11200143D01*
X11663159Y11180519D01*
X11649283Y11156485D01*
X11642100Y11129678D01*
Y11101926D01*
X11649283Y11075119D01*
X11663159Y11051085D01*
X11682783Y11031461D01*
X11706817Y11017585D01*
X11733624Y11010402D01*
X11761376D01*
X11788183Y11017585D01*
X11812217Y11031461D01*
X11831841Y11051085D01*
X11845717Y11075119D01*
X11852900Y11101926D01*
Y11129678D01*
X11845717Y11156485D01*
X11831841Y11180519D01*
X11812217Y11200143D01*
X11788183Y11214019D01*
X11761376Y11221202D01*
D02*
G37*
G36*
X4364734Y10880001D02*
X4335666D01*
X4307587Y10872478D01*
X4282413Y10857943D01*
X4261858Y10837389D01*
X4247324Y10812214D01*
X4239800Y10784136D01*
Y10755067D01*
X4247324Y10726989D01*
X4261858Y10701814D01*
X4282413Y10681260D01*
X4307587Y10666725D01*
X4335666Y10659202D01*
X4364734D01*
X4392813Y10666725D01*
X4417987Y10681260D01*
X4438542Y10701814D01*
X4453076Y10726989D01*
X4460600Y10755067D01*
Y10784136D01*
X4453076Y10812214D01*
X4438542Y10837389D01*
X4417987Y10857943D01*
X4392813Y10872478D01*
X4364734Y10880001D01*
D02*
G37*
G36*
X4370634Y11968200D02*
X4341566D01*
X4313487Y11960676D01*
X4288313Y11946142D01*
X4267758Y11925587D01*
X4253224Y11900413D01*
X4245700Y11872334D01*
Y11843266D01*
X4253224Y11815187D01*
X4267758Y11790013D01*
X4288313Y11769458D01*
X4313487Y11754924D01*
X4341566Y11747400D01*
X4370634D01*
X4398713Y11754924D01*
X4423887Y11769458D01*
X4444442Y11790013D01*
X4453675Y11806005D01*
X4541846D01*
X4672605Y11675246D01*
Y10571397D01*
X4447775D01*
X4438542Y10587389D01*
X4417987Y10607943D01*
X4392813Y10622478D01*
X4364734Y10630001D01*
X4335666D01*
X4307587Y10622478D01*
X4282413Y10607943D01*
X4261858Y10587389D01*
X4247324Y10562214D01*
X4239800Y10534136D01*
Y10505067D01*
X4247324Y10476989D01*
X4261858Y10451814D01*
X4282413Y10431260D01*
X4307587Y10416725D01*
X4335666Y10409202D01*
X4364734D01*
X4392813Y10416725D01*
X4417987Y10431260D01*
X4438542Y10451814D01*
X4447775Y10467806D01*
X4672605D01*
Y9225197D01*
X4447775D01*
X4438542Y9241189D01*
X4417987Y9261743D01*
X4392813Y9276278D01*
X4364734Y9283801D01*
X4335666D01*
X4307587Y9276278D01*
X4282413Y9261743D01*
X4261858Y9241189D01*
X4247324Y9216014D01*
X4239800Y9187936D01*
Y9158867D01*
X4247324Y9130789D01*
X4261858Y9105614D01*
X4282413Y9085060D01*
X4307587Y9070525D01*
X4335666Y9063002D01*
X4364734D01*
X4392813Y9070525D01*
X4417987Y9085060D01*
X4438542Y9105614D01*
X4447775Y9121606D01*
X4672605D01*
Y7892395D01*
X4447775D01*
X4438542Y7908387D01*
X4417987Y7928942D01*
X4392813Y7943476D01*
X4364734Y7951000D01*
X4335666D01*
X4307587Y7943476D01*
X4282413Y7928942D01*
X4261858Y7908387D01*
X4247324Y7883213D01*
X4239800Y7855134D01*
Y7826066D01*
X4247324Y7797987D01*
X4261858Y7772813D01*
X4282413Y7752258D01*
X4307587Y7737724D01*
X4335666Y7730200D01*
X4364734D01*
X4392813Y7737724D01*
X4417987Y7752258D01*
X4438542Y7772813D01*
X4447775Y7788805D01*
X4672605D01*
Y7531100D01*
X4676547Y7511279D01*
X4687775Y7494475D01*
X5106875Y7075375D01*
X5123679Y7064147D01*
X5143500Y7060205D01*
X10337892D01*
X10339930Y7058167D01*
X10363269Y7048500D01*
X10388531D01*
X10411870Y7058167D01*
X10429733Y7076030D01*
X10439400Y7099369D01*
Y7124631D01*
X10429733Y7147970D01*
X10411870Y7165833D01*
X10388531Y7175500D01*
X10363269D01*
X10339930Y7165833D01*
X10337892Y7163795D01*
X5164954D01*
X4776195Y7552554D01*
Y7835899D01*
X4776195Y7835900D01*
X4776195Y7835901D01*
Y9169399D01*
X4776195Y9169400D01*
X4776195Y9169401D01*
Y10515599D01*
X4776195Y10515600D01*
X4776195Y10515601D01*
Y11696700D01*
X4772253Y11716521D01*
X4761025Y11733325D01*
X4599925Y11894425D01*
X4583121Y11905653D01*
X4563300Y11909595D01*
X4453675D01*
X4444442Y11925587D01*
X4423887Y11946142D01*
X4398713Y11960676D01*
X4370634Y11968200D01*
D02*
G37*
G36*
X11761376Y10608998D02*
X11733624D01*
X11706817Y10601815D01*
X11682783Y10587939D01*
X11663159Y10568316D01*
X11649283Y10544281D01*
X11642100Y10517475D01*
Y10489722D01*
X11649283Y10462916D01*
X11663159Y10438881D01*
X11682783Y10419258D01*
X11706817Y10405382D01*
X11733624Y10398199D01*
X11761376D01*
X11788183Y10405382D01*
X11812217Y10419258D01*
X11831841Y10438881D01*
X11845717Y10462916D01*
X11852900Y10489722D01*
Y10517475D01*
X11845717Y10544281D01*
X11831841Y10568316D01*
X11812217Y10587939D01*
X11788183Y10601815D01*
X11761376Y10608998D01*
D02*
G37*
G36*
X11139900Y10613998D02*
X10919100D01*
Y10393199D01*
X11139900D01*
Y10613998D01*
D02*
G37*
G36*
X4364734Y10380001D02*
X4335666D01*
X4307587Y10372478D01*
X4282413Y10357943D01*
X4261858Y10337389D01*
X4247324Y10312214D01*
X4239800Y10284136D01*
Y10255067D01*
X4247324Y10226989D01*
X4261858Y10201814D01*
X4282413Y10181260D01*
X4307587Y10166725D01*
X4335666Y10159202D01*
X4364734D01*
X4392813Y10166725D01*
X4417987Y10181260D01*
X4438542Y10201814D01*
X4453076Y10226989D01*
X4460600Y10255067D01*
Y10284136D01*
X4453076Y10312214D01*
X4438542Y10337389D01*
X4417987Y10357943D01*
X4392813Y10372478D01*
X4364734Y10380001D01*
D02*
G37*
G36*
X11044034Y10113998D02*
X11014966D01*
X10986887Y10106475D01*
X10961713Y10091940D01*
X10941158Y10071386D01*
X10926624Y10046211D01*
X10919100Y10018133D01*
Y9989064D01*
X10926624Y9960986D01*
X10941158Y9935811D01*
X10961713Y9915257D01*
X10986887Y9900722D01*
X11014966Y9893199D01*
X11044034D01*
X11072113Y9900722D01*
X11097287Y9915257D01*
X11117842Y9935811D01*
X11132376Y9960986D01*
X11139900Y9989064D01*
Y10018133D01*
X11132376Y10046211D01*
X11117842Y10071386D01*
X11097287Y10091940D01*
X11072113Y10106475D01*
X11044034Y10113998D01*
D02*
G37*
G36*
X11761376Y9859000D02*
X11733624D01*
X11706817Y9851817D01*
X11682783Y9837941D01*
X11663159Y9818317D01*
X11649283Y9794283D01*
X11642100Y9767476D01*
Y9739724D01*
X11649283Y9712917D01*
X11663159Y9688883D01*
X11682783Y9669259D01*
X11706817Y9655383D01*
X11733624Y9648200D01*
X11761376D01*
X11788183Y9655383D01*
X11812217Y9669259D01*
X11831841Y9688883D01*
X11845717Y9712917D01*
X11852900Y9739724D01*
Y9767476D01*
X11845717Y9794283D01*
X11831841Y9818317D01*
X11812217Y9837941D01*
X11788183Y9851817D01*
X11761376Y9859000D01*
D02*
G37*
G36*
X4364734Y9533801D02*
X4335666D01*
X4307587Y9526278D01*
X4282413Y9511743D01*
X4261858Y9491189D01*
X4247324Y9466014D01*
X4239800Y9437936D01*
Y9408867D01*
X4247324Y9380789D01*
X4261858Y9355614D01*
X4282413Y9335060D01*
X4307587Y9320525D01*
X4335666Y9313002D01*
X4364734D01*
X4392813Y9320525D01*
X4417987Y9335060D01*
X4438542Y9355614D01*
X4453076Y9380789D01*
X4460600Y9408867D01*
Y9437936D01*
X4453076Y9466014D01*
X4438542Y9491189D01*
X4417987Y9511743D01*
X4392813Y9526278D01*
X4364734Y9533801D01*
D02*
G37*
G36*
X11761376Y9262100D02*
X11733624D01*
X11706817Y9254917D01*
X11682783Y9241041D01*
X11663159Y9221417D01*
X11649283Y9197383D01*
X11642100Y9170576D01*
Y9142824D01*
X11649283Y9116017D01*
X11663159Y9091983D01*
X11682783Y9072359D01*
X11706817Y9058483D01*
X11733624Y9051300D01*
X11761376D01*
X11788183Y9058483D01*
X11812217Y9072359D01*
X11831841Y9091983D01*
X11845717Y9116017D01*
X11852900Y9142824D01*
Y9170576D01*
X11845717Y9197383D01*
X11831841Y9221417D01*
X11812217Y9241041D01*
X11788183Y9254917D01*
X11761376Y9262100D01*
D02*
G37*
G36*
X11139900Y9267100D02*
X10919100D01*
Y9046300D01*
X11139900D01*
Y9267100D01*
D02*
G37*
G36*
X4364734Y9033801D02*
X4335666D01*
X4307587Y9026278D01*
X4282413Y9011743D01*
X4261858Y8991189D01*
X4247324Y8966014D01*
X4239800Y8937936D01*
Y8908867D01*
X4247324Y8880789D01*
X4261858Y8855614D01*
X4282413Y8835060D01*
X4307587Y8820525D01*
X4335666Y8813002D01*
X4364734D01*
X4392813Y8820525D01*
X4417987Y8835060D01*
X4438542Y8855614D01*
X4453076Y8880789D01*
X4460600Y8908867D01*
Y8937936D01*
X4453076Y8966014D01*
X4438542Y8991189D01*
X4417987Y9011743D01*
X4392813Y9026278D01*
X4364734Y9033801D01*
D02*
G37*
G36*
X11044034Y8767100D02*
X11014966D01*
X10986887Y8759576D01*
X10961713Y8745042D01*
X10941158Y8724487D01*
X10926624Y8699313D01*
X10919100Y8671234D01*
Y8642166D01*
X10926624Y8614087D01*
X10941158Y8588913D01*
X10961713Y8568358D01*
X10986887Y8553824D01*
X11014966Y8546300D01*
X11044034D01*
X11072113Y8553824D01*
X11097287Y8568358D01*
X11117842Y8588913D01*
X11132376Y8614087D01*
X11139900Y8642166D01*
Y8671234D01*
X11132376Y8699313D01*
X11117842Y8724487D01*
X11097287Y8745042D01*
X11072113Y8759576D01*
X11044034Y8767100D01*
D02*
G37*
G36*
X11761376Y8512101D02*
X11733624D01*
X11706817Y8504918D01*
X11682783Y8491042D01*
X11663159Y8471419D01*
X11649283Y8447384D01*
X11642100Y8420578D01*
Y8392825D01*
X11649283Y8366019D01*
X11663159Y8341984D01*
X11682783Y8322361D01*
X11706817Y8308485D01*
X11733624Y8301302D01*
X11761376D01*
X11788183Y8308485D01*
X11812217Y8322361D01*
X11831841Y8341984D01*
X11845717Y8366019D01*
X11852900Y8392825D01*
Y8420578D01*
X11845717Y8447384D01*
X11831841Y8471419D01*
X11812217Y8491042D01*
X11788183Y8504918D01*
X11761376Y8512101D01*
D02*
G37*
G36*
X4364734Y8201000D02*
X4335666D01*
X4307587Y8193476D01*
X4282413Y8178942D01*
X4261858Y8158387D01*
X4247324Y8133213D01*
X4239800Y8105134D01*
Y8076066D01*
X4247324Y8047987D01*
X4261858Y8022813D01*
X4282413Y8002258D01*
X4307587Y7987724D01*
X4335666Y7980200D01*
X4364734D01*
X4392813Y7987724D01*
X4417987Y8002258D01*
X4438542Y8022813D01*
X4453076Y8047987D01*
X4460600Y8076066D01*
Y8105134D01*
X4453076Y8133213D01*
X4438542Y8158387D01*
X4417987Y8178942D01*
X4392813Y8193476D01*
X4364734Y8201000D01*
D02*
G37*
G36*
X9728131Y12065000D02*
X9702869D01*
X9679530Y12055333D01*
X9661667Y12037470D01*
X9652000Y12014131D01*
Y12011250D01*
X9335975Y11695225D01*
X9324747Y11678421D01*
X9320805Y11658600D01*
Y10121808D01*
X9318767Y10119770D01*
X9309100Y10096431D01*
Y10071169D01*
X9318767Y10047830D01*
X9320805Y10045792D01*
Y9232900D01*
X9324747Y9213079D01*
X9335975Y9196275D01*
X9525000Y9007251D01*
Y9004369D01*
X9534667Y8981030D01*
X9536705Y8978992D01*
Y8026400D01*
X9540647Y8006579D01*
X9551875Y7989775D01*
X9945575Y7596075D01*
X9962379Y7584847D01*
X9982200Y7580905D01*
X10350592D01*
X10352630Y7578867D01*
X10375969Y7569200D01*
X10401231D01*
X10424570Y7578867D01*
X10426608Y7580905D01*
X10541000D01*
X10560821Y7584847D01*
X10577625Y7596075D01*
X11066125Y8084575D01*
X11077352Y8101379D01*
X11081295Y8121200D01*
Y8309125D01*
X11097287Y8318358D01*
X11117842Y8338913D01*
X11127075Y8354905D01*
X11264200D01*
X11284021Y8358847D01*
X11300825Y8370075D01*
X11453925Y8523175D01*
X11465153Y8539979D01*
X11469095Y8559800D01*
Y8902700D01*
Y9753600D01*
Y10096500D01*
X11465153Y10116321D01*
X11453925Y10133125D01*
X11296826Y10290223D01*
X11280023Y10301451D01*
X11260202Y10305394D01*
X11127075D01*
X11117842Y10321386D01*
X11097287Y10341940D01*
X11072113Y10356475D01*
X11044034Y10363998D01*
X11014966D01*
X10986887Y10356475D01*
X10961713Y10341940D01*
X10941158Y10321386D01*
X10926624Y10296211D01*
X10919100Y10268133D01*
Y10239064D01*
X10926624Y10210986D01*
X10941158Y10185811D01*
X10961713Y10165257D01*
X10986887Y10150722D01*
X11014966Y10143199D01*
X11044034D01*
X11072113Y10150722D01*
X11097287Y10165257D01*
X11117842Y10185811D01*
X11127075Y10201803D01*
X11238747D01*
X11365505Y10075046D01*
Y9805394D01*
X11127075D01*
X11117842Y9821386D01*
X11097287Y9841940D01*
X11072113Y9856475D01*
X11044034Y9863998D01*
X11014966D01*
X10986887Y9856475D01*
X10961713Y9841940D01*
X10941158Y9821386D01*
X10926624Y9796211D01*
X10919100Y9768133D01*
Y9739064D01*
X10926624Y9710986D01*
X10941158Y9685811D01*
X10961713Y9665257D01*
X10986887Y9650722D01*
X11014966Y9643199D01*
X11044034D01*
X11072113Y9650722D01*
X11097287Y9665257D01*
X11117842Y9685811D01*
X11127075Y9701803D01*
X11365505D01*
Y8958495D01*
X11127075D01*
X11117842Y8974487D01*
X11097287Y8995042D01*
X11072113Y9009576D01*
X11044034Y9017100D01*
X11014966D01*
X10986887Y9009576D01*
X10961713Y8995042D01*
X10941158Y8974487D01*
X10926624Y8949313D01*
X10919100Y8921234D01*
Y8892166D01*
X10926624Y8864087D01*
X10941158Y8838913D01*
X10961713Y8818358D01*
X10986887Y8803824D01*
X11014966Y8796300D01*
X11044034D01*
X11072113Y8803824D01*
X11097287Y8818358D01*
X11117842Y8838913D01*
X11127075Y8854905D01*
X11365505D01*
Y8581254D01*
X11242746Y8458495D01*
X11127075D01*
X11117842Y8474487D01*
X11097287Y8495042D01*
X11072113Y8509576D01*
X11044034Y8517100D01*
X11014966D01*
X10986887Y8509576D01*
X10961713Y8495042D01*
X10941158Y8474487D01*
X10926624Y8449313D01*
X10919100Y8421234D01*
Y8392166D01*
X10926624Y8364087D01*
X10941158Y8338913D01*
X10961713Y8318358D01*
X10977705Y8309125D01*
Y8142654D01*
X10519546Y7684495D01*
X10426608D01*
X10424570Y7686533D01*
X10401231Y7696200D01*
X10375969D01*
X10352630Y7686533D01*
X10350592Y7684495D01*
X10003654D01*
X9640295Y8047854D01*
Y8978992D01*
X9642333Y8981030D01*
X9652000Y9004369D01*
Y9029631D01*
X9642333Y9052970D01*
X9624470Y9070833D01*
X9601131Y9080500D01*
X9598249D01*
X9424395Y9254354D01*
Y10045792D01*
X9426433Y10047830D01*
X9436100Y10071169D01*
Y10096431D01*
X9426433Y10119770D01*
X9424395Y10121808D01*
Y11637146D01*
X9725250Y11938000D01*
X9728131D01*
X9751470Y11947667D01*
X9769333Y11965530D01*
X9779000Y11988869D01*
Y12014131D01*
X9769333Y12037470D01*
X9751470Y12055333D01*
X9728131Y12065000D01*
D02*
G37*
G36*
X4364734Y7701000D02*
X4335666D01*
X4307587Y7693476D01*
X4282413Y7678942D01*
X4261858Y7658387D01*
X4247324Y7633213D01*
X4239800Y7605134D01*
Y7576066D01*
X4247324Y7547987D01*
X4261858Y7522813D01*
X4282413Y7502258D01*
X4307587Y7487724D01*
X4335666Y7480200D01*
X4364734D01*
X4392813Y7487724D01*
X4417987Y7502258D01*
X4438542Y7522813D01*
X4453076Y7547987D01*
X4460600Y7576066D01*
Y7605134D01*
X4453076Y7633213D01*
X4438542Y7658387D01*
X4417987Y7678942D01*
X4392813Y7693476D01*
X4364734Y7701000D01*
D02*
G37*
G36*
X11056734Y7662899D02*
X11027666D01*
X10999587Y7655375D01*
X10974413Y7640841D01*
X10953858Y7620286D01*
X10939324Y7595112D01*
X10931800Y7567033D01*
Y7537965D01*
X10939324Y7509886D01*
X10953858Y7484712D01*
X10974413Y7464157D01*
X10999587Y7449623D01*
X11027666Y7442099D01*
X11056734D01*
X11084813Y7449623D01*
X11109987Y7464157D01*
X11130542Y7484712D01*
X11145076Y7509886D01*
X11152600Y7537965D01*
Y7567033D01*
X11145076Y7595112D01*
X11130542Y7620286D01*
X11109987Y7640841D01*
X11084813Y7655375D01*
X11056734Y7662899D01*
D02*
G37*
G36*
X6464231Y12230100D02*
X6438969D01*
X6415630Y12220433D01*
X6397767Y12202570D01*
X6388100Y12179231D01*
Y12153969D01*
X6397767Y12130630D01*
X6399805Y12128592D01*
Y11036208D01*
X6397767Y11034170D01*
X6388100Y11010831D01*
Y10985569D01*
X6397767Y10962230D01*
X6399805Y10960192D01*
Y9867808D01*
X6397767Y9865770D01*
X6388100Y9842431D01*
Y9817169D01*
X6397767Y9793830D01*
X6399805Y9791792D01*
Y8699408D01*
X6397767Y8697370D01*
X6388100Y8674031D01*
Y8648769D01*
X6397767Y8625430D01*
X6415630Y8607567D01*
X6438969Y8597900D01*
X6441850D01*
X6656275Y8383475D01*
X6673079Y8372247D01*
X6692900Y8368305D01*
X8419105D01*
Y8089900D01*
X8423047Y8070079D01*
X8434275Y8053275D01*
X9094675Y7392875D01*
X9111479Y7381647D01*
X9131300Y7377705D01*
X10337892D01*
X10339930Y7375667D01*
X10363269Y7366000D01*
X10388531D01*
X10411870Y7375667D01*
X10429733Y7393530D01*
X10439400Y7416869D01*
Y7442131D01*
X10429733Y7465470D01*
X10411870Y7483333D01*
X10388531Y7493000D01*
X10363269D01*
X10339930Y7483333D01*
X10337892Y7481295D01*
X9152754D01*
X8522695Y8111354D01*
Y8382092D01*
X8524733Y8384130D01*
X8534400Y8407469D01*
Y8432731D01*
X8524733Y8456070D01*
X8522695Y8458108D01*
Y9550492D01*
X8524733Y9552530D01*
X8534400Y9575869D01*
Y9601131D01*
X8524733Y9624470D01*
X8522695Y9626508D01*
Y10693492D01*
X8524733Y10695530D01*
X8534400Y10718869D01*
Y10744131D01*
X8524733Y10767470D01*
X8522695Y10769508D01*
Y11874592D01*
X8524733Y11876630D01*
X8534400Y11899969D01*
Y11925231D01*
X8524733Y11948570D01*
X8506870Y11966433D01*
X8483531Y11976100D01*
X8458269D01*
X8434930Y11966433D01*
X8417067Y11948570D01*
X8407400Y11925231D01*
Y11899969D01*
X8417067Y11876630D01*
X8419105Y11874592D01*
Y10769508D01*
X8417067Y10767470D01*
X8407400Y10744131D01*
Y10718869D01*
X8417067Y10695530D01*
X8419105Y10693492D01*
Y9626508D01*
X8417067Y9624470D01*
X8407400Y9601131D01*
Y9575869D01*
X8417067Y9552530D01*
X8419105Y9550492D01*
Y8471895D01*
X6714354D01*
X6515100Y8671150D01*
Y8674031D01*
X6505433Y8697370D01*
X6503395Y8699408D01*
Y9791792D01*
X6505433Y9793830D01*
X6515100Y9817169D01*
Y9842431D01*
X6505433Y9865770D01*
X6503395Y9867808D01*
Y10960192D01*
X6505433Y10962230D01*
X6515100Y10985569D01*
Y11010831D01*
X6505433Y11034170D01*
X6503395Y11036208D01*
Y12128592D01*
X6505433Y12130630D01*
X6515100Y12153969D01*
Y12179231D01*
X6505433Y12202570D01*
X6487570Y12220433D01*
X6464231Y12230100D01*
D02*
G37*
G36*
X5981631D02*
X5956369D01*
X5933030Y12220433D01*
X5915167Y12202570D01*
X5905500Y12179231D01*
Y12153969D01*
X5915167Y12130630D01*
X5917205Y12128592D01*
Y11036208D01*
X5915167Y11034170D01*
X5905500Y11010831D01*
Y10985569D01*
X5915167Y10962230D01*
X5917205Y10960192D01*
Y9867808D01*
X5915167Y9865770D01*
X5905500Y9842431D01*
Y9817169D01*
X5915167Y9793830D01*
X5917205Y9791792D01*
Y8699408D01*
X5915167Y8697370D01*
X5905500Y8674031D01*
Y8648769D01*
X5915167Y8625430D01*
X5917205Y8623392D01*
Y8026400D01*
X5921147Y8006579D01*
X5932375Y7989775D01*
X6681675Y7240475D01*
X6698479Y7229247D01*
X6718300Y7225305D01*
X8661492D01*
X8663530Y7223267D01*
X8686869Y7213600D01*
X8712131D01*
X8735470Y7223267D01*
X8753333Y7241130D01*
X8763000Y7264469D01*
Y7289731D01*
X8753333Y7313070D01*
X8735470Y7330933D01*
X8712131Y7340600D01*
X8686869D01*
X8663530Y7330933D01*
X8661492Y7328895D01*
X6739754D01*
X6020795Y8047854D01*
Y8623392D01*
X6022833Y8625430D01*
X6032500Y8648769D01*
Y8674031D01*
X6022833Y8697370D01*
X6020795Y8699408D01*
Y9791792D01*
X6022833Y9793830D01*
X6032500Y9817169D01*
Y9842431D01*
X6022833Y9865770D01*
X6020795Y9867808D01*
Y10960192D01*
X6022833Y10962230D01*
X6032500Y10985569D01*
Y11010831D01*
X6022833Y11034170D01*
X6020795Y11036208D01*
Y12128592D01*
X6022833Y12130630D01*
X6032500Y12153969D01*
Y12179231D01*
X6022833Y12202570D01*
X6004970Y12220433D01*
X5981631Y12230100D01*
D02*
G37*
G36*
X11152600Y7912899D02*
X10931800D01*
Y7747036D01*
X10831031Y7646268D01*
X10822611Y7633665D01*
X10819653Y7618799D01*
Y7162956D01*
X10804667Y7147970D01*
X10795000Y7124631D01*
Y7099369D01*
X10804667Y7076030D01*
X10822530Y7058167D01*
X10845869Y7048500D01*
X10871131D01*
X10894470Y7058167D01*
X10912333Y7076030D01*
X10922000Y7099369D01*
Y7124631D01*
X10912333Y7147970D01*
X10897347Y7162956D01*
Y7602708D01*
X10986737Y7692099D01*
X11152600D01*
Y7912899D01*
D02*
G37*
%LPD*%
G36*
X9953767Y10847930D02*
X9971630Y10830067D01*
X9981453Y10825998D01*
Y10122056D01*
X9966467Y10107070D01*
X9963150Y10099062D01*
X9950450D01*
X9947133Y10107070D01*
X9932147Y10122056D01*
Y10843621D01*
X9931811Y10845308D01*
X9934433Y10847930D01*
X9937750Y10855938D01*
X9950450D01*
X9953767Y10847930D01*
D02*
G37*
G36*
X9826767D02*
X9844630Y10830067D01*
X9854453Y10825998D01*
Y10122056D01*
X9839467Y10107070D01*
X9836150Y10099062D01*
X9823450D01*
X9820133Y10107070D01*
X9805147Y10122056D01*
Y10843621D01*
X9804811Y10845308D01*
X9807433Y10847930D01*
X9810750Y10855938D01*
X9823450D01*
X9826767Y10847930D01*
D02*
G37*
G36*
X9966467Y10035130D02*
X9981453Y10020144D01*
Y8979056D01*
X9966467Y8964070D01*
X9963150Y8956062D01*
X9950450D01*
X9947133Y8964070D01*
X9932147Y8979056D01*
Y10020144D01*
X9947133Y10035130D01*
X9950450Y10043138D01*
X9963150D01*
X9966467Y10035130D01*
D02*
G37*
G36*
X9839467D02*
X9854453Y10020144D01*
Y8979056D01*
X9839467Y8964070D01*
X9836150Y8956062D01*
X9823450D01*
X9820133Y8964070D01*
X9805147Y8979056D01*
Y10020144D01*
X9820133Y10035130D01*
X9823450Y10043138D01*
X9836150D01*
X9839467Y10035130D01*
D02*
G37*
G36*
X9966467Y8892130D02*
X9981453Y8877144D01*
Y8217056D01*
X9966467Y8202070D01*
X9963150Y8194062D01*
X9950450D01*
X9947133Y8202070D01*
X9932147Y8217056D01*
Y8877144D01*
X9947133Y8892130D01*
X9950450Y8900138D01*
X9963150D01*
X9966467Y8892130D01*
D02*
G37*
G36*
X9839467D02*
X9854453Y8877144D01*
Y8217056D01*
X9839467Y8202070D01*
X9836150Y8194062D01*
X9823450D01*
X9820133Y8202070D01*
X9805147Y8217056D01*
Y8877144D01*
X9820133Y8892130D01*
X9823450Y8900138D01*
X9836150D01*
X9839467Y8892130D01*
D02*
G37*
D20*
X10409300Y11615800D02*
X11029500D01*
X10007600Y11214100D02*
X10409300Y11615800D01*
X10007600Y10883900D02*
Y11214100D01*
X10532300Y11865800D02*
X11029500D01*
X9880600Y11214100D02*
X10532300Y11865800D01*
X9880600Y10883900D02*
Y11214100D01*
X10858500Y7112000D02*
Y7618799D01*
X11042200Y7802499D01*
X10020300Y8928100D02*
Y10071100D01*
X10007600Y10883900D02*
X10017320Y10874180D01*
Y10846601D02*
X10020300Y10843621D01*
Y10071100D02*
Y10843621D01*
X10017320Y10846601D02*
Y10874180D01*
X9753600Y11214100D02*
X10655300Y12115800D01*
X11029500D01*
X9753600Y10883900D02*
Y11214100D01*
X9890320Y10846601D02*
X9893300Y10843621D01*
X9890320Y10846601D02*
Y10874180D01*
X9880600Y10883900D02*
X9890320Y10874180D01*
X9893300Y8928100D02*
Y10843621D01*
X9766300Y8928100D02*
Y10843621D01*
X9763320Y10846601D02*
Y10874180D01*
X9753600Y10883900D02*
X9763320Y10874180D01*
Y10846601D02*
X9766300Y10843621D01*
X10020300Y8166100D02*
Y8928100D01*
X9893300Y8166100D02*
Y8928100D01*
X9766300Y8166100D02*
Y8928100D01*
D21*
X10541000Y7632700D02*
X11029500Y8121200D01*
X10388600Y7632700D02*
X10541000D01*
X11029500Y8121200D02*
Y8406700D01*
X5969000Y8661400D02*
Y9829800D01*
X6451600D02*
Y10998200D01*
X4724400Y9169400D02*
Y10515600D01*
X6451600Y8661400D02*
Y9829800D01*
Y10998200D02*
Y12166600D01*
X11417300Y8902700D02*
Y9753600D01*
Y8559800D02*
Y8902700D01*
X11029500Y8906700D02*
X11413300D01*
X11417300Y8902700D01*
Y9753600D02*
Y10096500D01*
X11029500Y9753598D02*
X11417298D01*
X11417300Y9753600D01*
X11029500Y10253598D02*
X11260202D01*
X11417300Y10096500D01*
X11264200Y8406700D02*
X11417300Y8559800D01*
X11029500Y8406700D02*
X11264200D01*
X10629900Y10248900D02*
Y11061700D01*
Y11201400D02*
X10794300Y11365800D01*
X11029500D01*
X10629900Y11061700D02*
Y11201400D01*
X9982200Y7632700D02*
X10388600D01*
X10820400Y8077200D02*
Y8915400D01*
X10388600Y7835900D02*
X10579100D01*
X10820400Y8077200D01*
X4724400Y10515600D02*
Y11696700D01*
X4350200Y10519602D02*
X4720398D01*
X4724400Y10515600D01*
Y7835900D02*
Y9169400D01*
X4350200Y9173402D02*
X4720398D01*
X4724400Y9169400D01*
Y7531100D02*
Y7835900D01*
X4350200Y7840600D02*
X4719700D01*
X4724400Y7835900D01*
Y7531100D02*
X5143500Y7112000D01*
X10375900D01*
X4356100Y11857800D02*
X4563300D01*
X4724400Y11696700D01*
X8470900Y8089900D02*
Y8420100D01*
X6692900D02*
X8470900D01*
X6451600Y8661400D02*
X6692900Y8420100D01*
X9372600Y9232900D02*
X9588500Y9017000D01*
X5969000Y8026400D02*
Y8661400D01*
X6718300Y7277100D02*
X8699500D01*
X5969000Y8026400D02*
X6718300Y7277100D01*
X9588500Y8026400D02*
X9982200Y7632700D01*
X9588500Y8026400D02*
Y9017000D01*
X9372600Y9232900D02*
Y11658600D01*
X9715500Y12001500D01*
X5969000Y9829800D02*
Y10998200D01*
Y12166600D01*
X10629900Y9105900D02*
X10820400Y8915400D01*
X10629900Y9105900D02*
Y10248900D01*
X8470900Y10731500D02*
Y11912600D01*
Y9588500D02*
Y10731500D01*
Y8420100D02*
Y9588500D01*
Y8089900D02*
X9131300Y7429500D01*
X10375900D01*
D22*
X11747500Y11115802D02*
D03*
Y12115800D02*
D03*
X3632200Y10019601D02*
D03*
Y10769600D02*
D03*
Y7340600D02*
D03*
Y8090599D02*
D03*
Y9423400D02*
D03*
Y8673401D02*
D03*
X11747500Y9753600D02*
D03*
Y10503598D02*
D03*
X3638100Y12107798D02*
D03*
Y11357800D02*
D03*
X11747500Y8406701D02*
D03*
Y9156700D02*
D03*
X11760200Y7302500D02*
D03*
Y7802499D02*
D03*
D23*
X11029500Y11115800D02*
D03*
Y11365800D02*
D03*
Y11615800D02*
D03*
Y11865800D02*
D03*
X4350200Y10269602D02*
D03*
Y10519602D02*
D03*
Y10769602D02*
D03*
Y7590600D02*
D03*
Y7840600D02*
D03*
Y8090600D02*
D03*
Y9423402D02*
D03*
Y9173402D02*
D03*
Y8923402D02*
D03*
X11029500Y9753598D02*
D03*
Y10003598D02*
D03*
Y10253598D02*
D03*
X4356100Y12107800D02*
D03*
Y11857800D02*
D03*
Y11607800D02*
D03*
X11029500Y8406700D02*
D03*
Y8656700D02*
D03*
Y8906700D02*
D03*
X11042200Y7302499D02*
D03*
Y7552499D02*
D03*
D24*
X11029500Y12115800D02*
D03*
X4350200Y10019601D02*
D03*
Y7340600D02*
D03*
Y8673401D02*
D03*
X11029500Y10503598D02*
D03*
X4356100Y11357800D02*
D03*
X11029500Y9156700D02*
D03*
X11042200Y7802499D02*
D03*
D25*
X8293100Y8267700D02*
D03*
X9372600Y7581900D02*
D03*
X6451600Y9829800D02*
D03*
X5969000D02*
D03*
X10629900Y11061700D02*
D03*
X10198100Y12230100D02*
D03*
X10858500Y7112000D02*
D03*
X7010400Y12077700D02*
D03*
X8166100Y9588500D02*
D03*
Y11925300D02*
D03*
X8178800Y10731500D02*
D03*
X9118600Y9779000D02*
D03*
X10401300Y10680700D02*
D03*
X7950200Y11366500D02*
D03*
X7962900Y7874000D02*
D03*
X7937500Y9029700D02*
D03*
X7950200Y10198100D02*
D03*
X6794500Y10096500D02*
D03*
Y11252200D02*
D03*
Y8928100D02*
D03*
X10401300Y8775700D02*
D03*
X9601200Y11341100D02*
D03*
X10401300Y9906000D02*
D03*
X9588500Y9017000D02*
D03*
X10541000Y8077200D02*
D03*
X10858500Y6959600D02*
D03*
X8699500Y7277100D02*
D03*
X10388600Y7632700D02*
D03*
X9715500Y12001500D02*
D03*
X9372600Y10083800D02*
D03*
X9601200Y10515600D02*
D03*
X5969000Y12166600D02*
D03*
Y10998200D02*
D03*
Y8661400D02*
D03*
X9372600Y8851900D02*
D03*
X10629900Y9105900D02*
D03*
Y10248900D02*
D03*
X6451600Y12166600D02*
D03*
Y10998200D02*
D03*
Y8661400D02*
D03*
X8470900Y11912600D02*
D03*
Y10731500D02*
D03*
Y9588500D02*
D03*
Y8420100D02*
D03*
X10375900Y7429500D02*
D03*
X10388600Y7835900D02*
D03*
X9753600Y10883900D02*
D03*
X10007600D02*
D03*
X9880600D02*
D03*
X9893300Y10071100D02*
D03*
X10020300D02*
D03*
X9766300D02*
D03*
X10020300Y8166100D02*
D03*
X9766300Y8928100D02*
D03*
X10020300D02*
D03*
X9893300D02*
D03*
Y8166100D02*
D03*
X9766300D02*
D03*
X10375900Y7112000D02*
D03*
D26*
X7048500Y7772400D02*
D03*
%TF.MD5,410be09d9217479946080e8c278e8225*%
M02*
