%TF.GenerationSoftware,Altium Limited,Altium Designer,23.2.1 (34)*%
G04 Layer_Color=8421504*
%FSLAX45Y45*%
%MOMM*%
%TF.SameCoordinates,D2495298-5ADA-4058-9D5E-391355C30085*%
%TF.FilePolarity,Positive*%
%TF.FileFunction,Paste,Top*%
%TF.Part,Single*%
G01*
G75*
%TA.AperFunction,SMDPad,CuDef*%
%ADD10R,1.10000X1.40000*%
%ADD11R,1.40000X1.10000*%
%ADD12R,0.40000X1.22000*%
%ADD13R,1.25650X0.41798*%
G04:AMPARAMS|DCode=14|XSize=1.2565mm|YSize=0.41798mm|CornerRadius=0.20899mm|HoleSize=0mm|Usage=FLASHONLY|Rotation=0.000|XOffset=0mm|YOffset=0mm|HoleType=Round|Shape=RoundedRectangle|*
%AMROUNDEDRECTD14*
21,1,1.25650,0.00000,0,0,0.0*
21,1,0.83852,0.41798,0,0,0.0*
1,1,0.41798,0.41926,0.00000*
1,1,0.41798,-0.41926,0.00000*
1,1,0.41798,-0.41926,0.00000*
1,1,0.41798,0.41926,0.00000*
%
%ADD14ROUNDEDRECTD14*%
%ADD15R,0.90000X0.70000*%
%ADD16R,0.40000X0.48000*%
%ADD17O,2.50000X0.70000*%
%ADD18R,0.70000X0.90000*%
G04:AMPARAMS|DCode=19|XSize=0.65mm|YSize=1.65mm|CornerRadius=0.04875mm|HoleSize=0mm|Usage=FLASHONLY|Rotation=0.000|XOffset=0mm|YOffset=0mm|HoleType=Round|Shape=RoundedRectangle|*
%AMROUNDEDRECTD19*
21,1,0.65000,1.55250,0,0,0.0*
21,1,0.55250,1.65000,0,0,0.0*
1,1,0.09750,0.27625,-0.77625*
1,1,0.09750,-0.27625,-0.77625*
1,1,0.09750,-0.27625,0.77625*
1,1,0.09750,0.27625,0.77625*
%
%ADD19ROUNDEDRECTD19*%
D10*
X9372600Y9779000D02*
D03*
X9522600D02*
D03*
X10539800Y8343900D02*
D03*
X10389800D02*
D03*
X10273100Y9690100D02*
D03*
X10123100D02*
D03*
X9116200Y10325100D02*
D03*
X8966200D02*
D03*
X9117400Y10591800D02*
D03*
X8967400D02*
D03*
X7430700Y10477500D02*
D03*
X7580700D02*
D03*
X7430700Y10744200D02*
D03*
X7580700D02*
D03*
X9117400Y8255000D02*
D03*
X8967400D02*
D03*
X7430700Y8140700D02*
D03*
X7580700D02*
D03*
Y8407400D02*
D03*
X7430700D02*
D03*
X7580700Y9575800D02*
D03*
X7430700D02*
D03*
X7580700Y9309100D02*
D03*
X7430700D02*
D03*
X7581900Y11645900D02*
D03*
X7431900D02*
D03*
X7580700Y11912600D02*
D03*
X7430700D02*
D03*
X8966200Y11760200D02*
D03*
X9116200D02*
D03*
X8966200Y11493500D02*
D03*
X9116200D02*
D03*
X8967400Y7988300D02*
D03*
X9117400D02*
D03*
X8967400Y9423400D02*
D03*
X9117400D02*
D03*
X8967400Y9156700D02*
D03*
X9117400D02*
D03*
X9525000Y8661400D02*
D03*
X9375000D02*
D03*
D11*
X10642600Y6960800D02*
D03*
Y7110800D02*
D03*
X10642600Y7695000D02*
D03*
Y7545000D02*
D03*
X10401300Y8954700D02*
D03*
Y9104700D02*
D03*
X10007600Y11962200D02*
D03*
Y11812200D02*
D03*
X10401300Y10110400D02*
D03*
Y10260400D02*
D03*
Y11060500D02*
D03*
Y10910500D02*
D03*
X10401300Y11962200D02*
D03*
Y11812200D02*
D03*
X4775200Y10351700D02*
D03*
Y10501700D02*
D03*
X6794500Y10758100D02*
D03*
Y10908100D02*
D03*
Y10351700D02*
D03*
Y10501700D02*
D03*
X6794500Y8013700D02*
D03*
Y8163700D02*
D03*
X6794500Y8571300D02*
D03*
Y8421300D02*
D03*
Y9333300D02*
D03*
Y9183300D02*
D03*
X6794500Y9740900D02*
D03*
Y9590900D02*
D03*
X4775200Y8163700D02*
D03*
Y8013700D02*
D03*
X6794500Y12076500D02*
D03*
Y11926500D02*
D03*
Y11670100D02*
D03*
Y11520100D02*
D03*
X4775200Y9333300D02*
D03*
Y9183300D02*
D03*
Y11670100D02*
D03*
Y11520100D02*
D03*
D12*
X10079700Y10519600D02*
D03*
X10014700D02*
D03*
X9949700D02*
D03*
X9884700D02*
D03*
Y10257600D02*
D03*
X9949700D02*
D03*
X10014700D02*
D03*
X10079700D02*
D03*
Y8614600D02*
D03*
X10014700D02*
D03*
X9949700D02*
D03*
X9884700D02*
D03*
Y8352600D02*
D03*
X9949700D02*
D03*
X10014700D02*
D03*
X10079700D02*
D03*
X10075600Y11328400D02*
D03*
X10010600D02*
D03*
X9945600D02*
D03*
X9880600D02*
D03*
Y11066400D02*
D03*
X9945600D02*
D03*
X10010600D02*
D03*
X10075600D02*
D03*
X10083800Y9372600D02*
D03*
X10018800D02*
D03*
X9953800D02*
D03*
X9888800D02*
D03*
Y9110600D02*
D03*
X9953800D02*
D03*
X10018800D02*
D03*
X10083800D02*
D03*
D13*
X8060729Y10542500D02*
D03*
X8062614Y11718000D02*
D03*
Y9381200D02*
D03*
X8060729Y8205700D02*
D03*
D14*
Y10477500D02*
D03*
Y10412500D02*
D03*
Y10347500D02*
D03*
X8470900D02*
D03*
Y10412500D02*
D03*
Y10477500D02*
D03*
Y10542500D02*
D03*
X8472786Y11718000D02*
D03*
Y11653000D02*
D03*
Y11588000D02*
D03*
Y11523000D02*
D03*
X8062614D02*
D03*
Y11588000D02*
D03*
Y11653000D02*
D03*
X8472786Y9381200D02*
D03*
Y9316200D02*
D03*
Y9251200D02*
D03*
Y9186200D02*
D03*
X8062614D02*
D03*
Y9251200D02*
D03*
Y9316200D02*
D03*
X8470900Y8205700D02*
D03*
Y8140700D02*
D03*
Y8075700D02*
D03*
Y8010700D02*
D03*
X8060729D02*
D03*
Y8075700D02*
D03*
Y8140700D02*
D03*
D15*
X8712200Y10476300D02*
D03*
Y10326300D02*
D03*
X5422900Y10641400D02*
D03*
Y10491400D02*
D03*
X7175500Y10478700D02*
D03*
Y10628700D02*
D03*
X7429500Y10097700D02*
D03*
Y10247700D02*
D03*
X7823200Y10629900D02*
D03*
Y10479900D02*
D03*
X5651500Y10641400D02*
D03*
Y10491400D02*
D03*
X9372600Y10476300D02*
D03*
Y10326300D02*
D03*
X9372600Y7837100D02*
D03*
Y7987100D02*
D03*
Y9005500D02*
D03*
Y9155500D02*
D03*
X9372600Y11341100D02*
D03*
Y11491100D02*
D03*
X7429500Y8929300D02*
D03*
Y9079300D02*
D03*
Y7760900D02*
D03*
Y7910900D02*
D03*
X7175500Y8291900D02*
D03*
Y8141900D02*
D03*
X7823200Y8141900D02*
D03*
Y8291900D02*
D03*
X7175500Y9460300D02*
D03*
Y9310300D02*
D03*
X7823200Y9310300D02*
D03*
Y9460300D02*
D03*
X8712200Y11494700D02*
D03*
Y11644700D02*
D03*
X7823200Y11645900D02*
D03*
Y11795900D02*
D03*
X7429500Y11416100D02*
D03*
Y11266100D02*
D03*
X7175500Y11797100D02*
D03*
Y11647100D02*
D03*
X8712200Y7989500D02*
D03*
Y8139500D02*
D03*
Y9157900D02*
D03*
Y9307900D02*
D03*
X5422900Y8154600D02*
D03*
Y8304600D02*
D03*
X5651500Y8154600D02*
D03*
Y8304600D02*
D03*
X5422900Y9323000D02*
D03*
Y9473000D02*
D03*
Y11659800D02*
D03*
Y11809800D02*
D03*
X5651500Y11659800D02*
D03*
Y11809800D02*
D03*
Y9323000D02*
D03*
Y9473000D02*
D03*
D16*
X5016500Y10632400D02*
D03*
Y10500400D02*
D03*
X5219700D02*
D03*
Y10632400D02*
D03*
Y8295600D02*
D03*
Y8163600D02*
D03*
X5016500D02*
D03*
Y8295600D02*
D03*
Y9332000D02*
D03*
Y9464000D02*
D03*
X5219700Y9466500D02*
D03*
Y9334500D02*
D03*
Y11800800D02*
D03*
Y11668800D02*
D03*
X5016500D02*
D03*
Y11800800D02*
D03*
D17*
X6455300Y10375900D02*
D03*
Y10502900D02*
D03*
Y10629900D02*
D03*
Y10756900D02*
D03*
X5965300Y10375900D02*
D03*
Y10502900D02*
D03*
Y10629900D02*
D03*
Y10756900D02*
D03*
Y8420100D02*
D03*
Y8293100D02*
D03*
Y8166100D02*
D03*
Y8039100D02*
D03*
X6455300Y8420100D02*
D03*
Y8293100D02*
D03*
Y8166100D02*
D03*
Y8039100D02*
D03*
X5965300Y11925300D02*
D03*
Y11798300D02*
D03*
Y11671300D02*
D03*
Y11544300D02*
D03*
X6455300Y11925300D02*
D03*
Y11798300D02*
D03*
Y11671300D02*
D03*
Y11544300D02*
D03*
X5965300Y9588500D02*
D03*
Y9461500D02*
D03*
Y9334500D02*
D03*
Y9207500D02*
D03*
X6455300Y9588500D02*
D03*
Y9461500D02*
D03*
Y9334500D02*
D03*
Y9207500D02*
D03*
D18*
X8532000Y10071100D02*
D03*
X8382000D02*
D03*
X8520500Y7708900D02*
D03*
X8370500D02*
D03*
X8533200Y8890000D02*
D03*
X8383200D02*
D03*
X8520500Y11239500D02*
D03*
X8370500D02*
D03*
X10022700Y7835900D02*
D03*
X10172700D02*
D03*
X9667100D02*
D03*
X9817100D02*
D03*
D19*
X10071100Y7572300D02*
D03*
X9944100D02*
D03*
X9817100D02*
D03*
X9690100D02*
D03*
X10071100Y7007300D02*
D03*
X9944100D02*
D03*
X9817100D02*
D03*
X9690100D02*
D03*
%TF.MD5,afdfdc2a89fc323e59cdb549622c208e*%
M02*
