%TF.GenerationSoftware,Altium Limited,Altium Designer,23.2.1 (34)*%
G04 Layer_Color=0*
%FSLAX45Y45*%
%MOMM*%
%TF.SameCoordinates,D2495298-5ADA-4058-9D5E-391355C30085*%
%TF.FilePolarity,Positive*%
%TF.FileFunction,Plated,1,2,PTH,Drill*%
%TF.Part,Single*%
G01*
G75*
%TA.AperFunction,ComponentDrill*%
%ADD45C,1.20000*%
%TA.AperFunction,ViaDrill,NotFilled*%
%ADD46C,0.38100*%
%ADD47C,0.71120*%
D45*
X11029500Y11115800D02*
D03*
Y11365800D02*
D03*
Y11615800D02*
D03*
Y11865800D02*
D03*
Y12115800D02*
D03*
X4350200Y10019601D02*
D03*
Y10269602D02*
D03*
Y10519602D02*
D03*
Y10769602D02*
D03*
Y7340600D02*
D03*
Y7590600D02*
D03*
Y7840600D02*
D03*
Y8090600D02*
D03*
Y9423402D02*
D03*
Y9173402D02*
D03*
Y8923402D02*
D03*
Y8673401D02*
D03*
X11029500Y9753598D02*
D03*
Y10003598D02*
D03*
Y10253598D02*
D03*
Y10503598D02*
D03*
X4356100Y12107800D02*
D03*
Y11857800D02*
D03*
Y11607800D02*
D03*
Y11357800D02*
D03*
X11029500Y8406700D02*
D03*
Y8656700D02*
D03*
Y8906700D02*
D03*
Y9156700D02*
D03*
X11042200Y7302499D02*
D03*
Y7552499D02*
D03*
Y7802499D02*
D03*
D46*
X8293100Y8267700D02*
D03*
X9372600Y7581900D02*
D03*
X6451600Y9829800D02*
D03*
X5969000D02*
D03*
X10629900Y11061700D02*
D03*
X10198100Y12230100D02*
D03*
X10858500Y7112000D02*
D03*
X7010400Y12077700D02*
D03*
X8166100Y9588500D02*
D03*
Y11925300D02*
D03*
X8178800Y10731500D02*
D03*
X9118600Y9779000D02*
D03*
X10401300Y10680700D02*
D03*
X7950200Y11366500D02*
D03*
X7962900Y7874000D02*
D03*
X7937500Y9029700D02*
D03*
X7950200Y10198100D02*
D03*
X6794500Y10096500D02*
D03*
Y11252200D02*
D03*
Y8928100D02*
D03*
X10401300Y8775700D02*
D03*
X9601200Y11341100D02*
D03*
X10401300Y9906000D02*
D03*
X9588500Y9017000D02*
D03*
X10541000Y8077200D02*
D03*
X10858500Y6959600D02*
D03*
X8699500Y7277100D02*
D03*
X10388600Y7632700D02*
D03*
X9715500Y12001500D02*
D03*
X9372600Y10083800D02*
D03*
X9601200Y10515600D02*
D03*
X5969000Y12166600D02*
D03*
Y10998200D02*
D03*
Y8661400D02*
D03*
X9372600Y8851900D02*
D03*
X10629900Y9105900D02*
D03*
Y10248900D02*
D03*
X6451600Y12166600D02*
D03*
Y10998200D02*
D03*
Y8661400D02*
D03*
X8470900Y11912600D02*
D03*
Y10731500D02*
D03*
Y9588500D02*
D03*
Y8420100D02*
D03*
X10375900Y7429500D02*
D03*
X10388600Y7835900D02*
D03*
X9753600Y10883900D02*
D03*
X10007600D02*
D03*
X9880600D02*
D03*
X9893300Y10071100D02*
D03*
X10020300D02*
D03*
X9766300D02*
D03*
X10020300Y8166100D02*
D03*
X9766300Y8928100D02*
D03*
X10020300D02*
D03*
X9893300D02*
D03*
Y8166100D02*
D03*
X9766300D02*
D03*
X10375900Y7112000D02*
D03*
D47*
X7048500Y7772400D02*
D03*
%TF.MD5,2eda8fdc0ffad2d7b694b8ffa0cf4f74*%
M02*
