G04*
G04 #@! TF.GenerationSoftware,Altium Limited,Altium Designer,19.1.7 (138)*
G04*
G04 Layer_Color=16711935*
%FSLAX25Y25*%
%MOIN*%
G70*
G01*
G75*
%ADD83C,0.38202*%
%ADD84C,0.14580*%
%ADD85C,0.11824*%
%ADD86C,0.08800*%
%ADD87C,0.06942*%
%ADD88C,0.09068*%
%ADD89C,0.24816*%
%ADD123R,0.04737X0.04737*%
%ADD124C,0.02800*%
G36*
X138688Y340712D02*
X140053Y340146D01*
X141281Y339326D01*
X142326Y338281D01*
X143146Y337053D01*
X143712Y335688D01*
X144000Y334239D01*
X144000Y333500D01*
X144000Y333500D01*
Y304000D01*
X144034Y303314D01*
X144301Y301968D01*
X144826Y300700D01*
X145589Y299559D01*
X146559Y298589D01*
X147700Y297827D01*
X148968Y297301D01*
X150314Y297034D01*
X151000Y297000D01*
X151000D01*
X182000Y297000D01*
X182443Y297000D01*
X183313Y296827D01*
X184132Y296488D01*
X184869Y295995D01*
X185495Y295369D01*
X185988Y294632D01*
X186327Y293813D01*
X186500Y292943D01*
X186500Y292500D01*
X186500Y292500D01*
X186500Y274403D01*
X186500Y274040D01*
X186358Y273329D01*
X186081Y272659D01*
X185678Y272056D01*
X185165Y271543D01*
X184562Y271140D01*
X183892Y270862D01*
X183180Y270720D01*
X182817Y270721D01*
X107780D01*
X107457Y270721D01*
X106823Y270847D01*
X106226Y271094D01*
X105689Y271453D01*
X105232Y271909D01*
X104873Y272447D01*
X104626Y273043D01*
X104500Y273677D01*
X104500Y274000D01*
X104500Y274000D01*
Y334000D01*
X104500Y334689D01*
X104769Y336042D01*
X105297Y337316D01*
X106063Y338462D01*
X107038Y339437D01*
X108184Y340203D01*
X109458Y340731D01*
X110810Y341000D01*
X111500Y341000D01*
X111500Y341000D01*
X136500Y341000D01*
X137239Y341000D01*
X138688Y340712D01*
D02*
G37*
G36*
X178000Y251500D02*
X178523Y251500D01*
X179550Y251296D01*
X180516Y250895D01*
X181386Y250314D01*
X182126Y249574D01*
X182708Y248704D01*
X183108Y247737D01*
X183312Y246711D01*
X183312Y246187D01*
X183312D01*
X183313Y228203D01*
X183313Y226815D01*
X182950Y224063D01*
X182232Y221382D01*
X181170Y218818D01*
X179782Y216414D01*
X178092Y214212D01*
X176129Y212249D01*
X173927Y210559D01*
X171524Y209171D01*
X168959Y208109D01*
X166278Y207391D01*
X163526Y207029D01*
X162138Y207029D01*
X162138Y207029D01*
X162138Y207029D01*
X161083Y206994D01*
X158990Y206718D01*
X156951Y206172D01*
X155000Y205364D01*
X153172Y204309D01*
X151497Y203024D01*
X150005Y201531D01*
X148720Y199856D01*
X147664Y198028D01*
X146856Y196078D01*
X146310Y194039D01*
X146035Y191946D01*
X146000Y190890D01*
X146000D01*
Y190890D01*
X146000Y190890D01*
Y180600D01*
X146044Y179711D01*
X146391Y177967D01*
X147071Y176324D01*
X148059Y174845D01*
X149317Y173588D01*
X150795Y172600D01*
X152438Y171919D01*
X154183Y171572D01*
X155072Y171529D01*
X464971Y171528D01*
X465467Y171529D01*
X466438Y171335D01*
X467353Y170956D01*
X468177Y170406D01*
X468877Y169705D01*
X469428Y168882D01*
X469807Y167967D01*
X470000Y166995D01*
X470000Y166500D01*
X470000Y166500D01*
X470000Y166500D01*
Y103029D01*
X115471Y103029D01*
X114654Y103029D01*
X113033Y103242D01*
X111454Y103665D01*
X109944Y104291D01*
X108528Y105108D01*
X107231Y106103D01*
X106075Y107259D01*
X105079Y108556D01*
X104262Y109972D01*
X103637Y111483D01*
X103213Y113062D01*
X103000Y114683D01*
X103000Y115500D01*
X103000Y115500D01*
Y247500D01*
Y247894D01*
X103154Y248667D01*
X103455Y249395D01*
X103893Y250050D01*
X104450Y250607D01*
X105105Y251045D01*
X105833Y251346D01*
X106606Y251500D01*
X107000Y251500D01*
X107000Y251500D01*
X178000Y251500D01*
D02*
G37*
G36*
X155150Y386933D02*
X156653Y386310D01*
X158006Y385406D01*
X159156Y384256D01*
X160060Y382903D01*
X160683Y381400D01*
X161000Y379804D01*
X161000Y378991D01*
X161000Y378991D01*
X161000Y375500D01*
X161032Y374177D01*
X161292Y371543D01*
X161808Y368947D01*
X162576Y366415D01*
X163589Y363969D01*
X164837Y361635D01*
X166307Y359435D01*
X167986Y357389D01*
X169858Y355518D01*
X171903Y353839D01*
X174104Y352368D01*
X176438Y351121D01*
X178883Y350108D01*
X181416Y349340D01*
X184011Y348823D01*
X186645Y348564D01*
X187969Y348532D01*
X187969D01*
X223468Y348532D01*
X224650Y348532D01*
X226994Y348223D01*
X229277Y347611D01*
X231461Y346707D01*
X233508Y345525D01*
X235383Y344086D01*
X237055Y342415D01*
X238494Y340539D01*
X239675Y338492D01*
X240580Y336309D01*
X241192Y334025D01*
X241500Y331682D01*
X241500Y330500D01*
X241500Y330500D01*
X241500Y248512D01*
X241500Y248018D01*
X241307Y247050D01*
X240930Y246138D01*
X240381Y245317D01*
X239683Y244619D01*
X238862Y244070D01*
X237950Y243692D01*
X236982Y243500D01*
X236488Y243500D01*
X197687D01*
X197029Y243500D01*
X195737Y243757D01*
X194520Y244261D01*
X193424Y244993D01*
X192493Y245924D01*
X191761Y247020D01*
X191257Y248237D01*
X191000Y249529D01*
X191000Y250187D01*
Y250187D01*
X191000Y296500D01*
X190967Y297180D01*
X190701Y298515D01*
X190181Y299772D01*
X189425Y300904D01*
X188463Y301866D01*
X187331Y302622D01*
X186074Y303142D01*
X184739Y303408D01*
X184059Y303441D01*
X184059Y303441D01*
X155234Y303441D01*
X154620Y303441D01*
X153416Y303680D01*
X152281Y304150D01*
X151260Y304833D01*
X150392Y305701D01*
X149709Y306722D01*
X149240Y307857D01*
X149000Y309061D01*
X149000Y309675D01*
Y309675D01*
X149000Y333683D01*
X148971Y334554D01*
X148744Y336281D01*
X148293Y337963D01*
X147627Y339573D01*
X146756Y341081D01*
X145695Y342463D01*
X144464Y343695D01*
X143082Y344755D01*
X141573Y345626D01*
X139964Y346293D01*
X138281Y346744D01*
X136554Y346971D01*
X135683Y347000D01*
X135683Y347000D01*
X121499Y347000D01*
X120385Y347000D01*
X118176Y347291D01*
X116023Y347868D01*
X113964Y348721D01*
X112035Y349835D01*
X110267Y351192D01*
X108691Y352768D01*
X107334Y354536D01*
X106220Y356466D01*
X105368Y358524D01*
X104791Y360677D01*
X104500Y362886D01*
Y364001D01*
X104500D01*
X104500Y368750D01*
X104500Y369963D01*
X104816Y372367D01*
X105444Y374709D01*
X106372Y376950D01*
X107585Y379050D01*
X109061Y380974D01*
X110776Y382689D01*
X112700Y384165D01*
X114800Y385378D01*
X117041Y386306D01*
X119383Y386933D01*
X121787Y387250D01*
X123000D01*
X123000Y387250D01*
X152741Y387250D01*
X153554Y387250D01*
X155150Y386933D01*
D02*
G37*
G36*
X208622Y236240D02*
X208867Y235994D01*
X209000Y235673D01*
X209000Y235500D01*
X209000Y235500D01*
Y230500D01*
X209038Y230110D01*
X209337Y229389D01*
X209889Y228837D01*
X210610Y228538D01*
X211000Y228500D01*
X211000Y228500D01*
X214500Y228500D01*
X214890Y228538D01*
X215611Y228837D01*
X216163Y229389D01*
X216461Y230110D01*
X216500Y230500D01*
X216500Y230500D01*
Y235000D01*
Y235199D01*
X216652Y235566D01*
X216933Y235847D01*
X217301Y236000D01*
X217500Y236000D01*
X217500Y236000D01*
X231500Y236000D01*
X231975Y236000D01*
X232854Y235636D01*
X233526Y234964D01*
X233890Y234085D01*
X233890Y233610D01*
X233890Y233610D01*
Y229110D01*
X233930Y228698D01*
X234245Y227938D01*
X234827Y227356D01*
X235588Y227041D01*
X236000Y227000D01*
X236000D01*
X416000Y227000D01*
X417016Y227000D01*
X419030Y226735D01*
X420993Y226209D01*
X422870Y225431D01*
X424630Y224415D01*
X426242Y223179D01*
X427678Y221742D01*
X428915Y220130D01*
X429931Y218370D01*
X430709Y216493D01*
X431235Y214530D01*
X431500Y212516D01*
X431500Y211500D01*
X431500Y211500D01*
X431540Y210290D01*
X431855Y207891D01*
X432482Y205553D01*
X433408Y203318D01*
X434618Y201222D01*
X436091Y199302D01*
X437802Y197591D01*
X439722Y196118D01*
X441818Y194908D01*
X444053Y193982D01*
X446391Y193356D01*
X448790Y193040D01*
X450000Y193000D01*
X450000D01*
X455500Y193000D01*
X455943D01*
X456813Y192827D01*
X457631Y192488D01*
X458369Y191995D01*
X458995Y191369D01*
X459488Y190631D01*
X459827Y189813D01*
X460000Y188943D01*
X460000Y188500D01*
X460000Y188500D01*
X460000Y179500D01*
Y178958D01*
X459789Y177896D01*
X459374Y176895D01*
X458772Y175994D01*
X458006Y175228D01*
X457105Y174626D01*
X456104Y174211D01*
X455042Y174000D01*
X155500D01*
X154811Y174000D01*
X153458Y174269D01*
X152184Y174797D01*
X151038Y175563D01*
X150063Y176538D01*
X149297Y177684D01*
X148769Y178958D01*
X148500Y180310D01*
X148500Y181000D01*
Y181000D01*
X148500Y191439D01*
Y192295D01*
X148723Y193993D01*
X149167Y195647D01*
X149822Y197228D01*
X150678Y198711D01*
X151720Y200069D01*
X152931Y201280D01*
X154289Y202322D01*
X155772Y203178D01*
X157353Y203833D01*
X159007Y204276D01*
X160705Y204500D01*
X161561D01*
X161561Y204500D01*
X167500Y204500D01*
X168653Y204528D01*
X170948Y204754D01*
X173210Y205204D01*
X175417Y205874D01*
X177548Y206756D01*
X179581Y207843D01*
X181499Y209125D01*
X183282Y210588D01*
X184912Y212218D01*
X186375Y214001D01*
X187657Y215919D01*
X188744Y217952D01*
X189626Y220083D01*
X190296Y222290D01*
X190746Y224552D01*
X190972Y226847D01*
X191000Y228000D01*
X191000Y228000D01*
Y233361D01*
Y233657D01*
X191116Y234239D01*
X191343Y234787D01*
X191672Y235281D01*
X192092Y235700D01*
X192585Y236030D01*
X193133Y236257D01*
X193715Y236373D01*
X194012Y236373D01*
X194012Y236373D01*
X208127Y236373D01*
X208301D01*
X208622Y236240D01*
D02*
G37*
D83*
X125000Y322250D02*
D03*
Y366250D02*
D03*
D84*
X82250Y133750D02*
D03*
X198000Y133858D02*
D03*
X155000D02*
D03*
X284000D02*
D03*
X241000D02*
D03*
X369500D02*
D03*
X327000D02*
D03*
X453500D02*
D03*
X411500D02*
D03*
D85*
X82250Y184144D02*
D03*
Y162490D02*
D03*
X198000Y162598D02*
D03*
Y184252D02*
D03*
X155000Y162598D02*
D03*
Y184252D02*
D03*
X284000Y162598D02*
D03*
Y184252D02*
D03*
X241000Y162598D02*
D03*
Y184252D02*
D03*
X369500Y162598D02*
D03*
Y184252D02*
D03*
X327000Y162598D02*
D03*
Y184252D02*
D03*
X453500Y162598D02*
D03*
Y184252D02*
D03*
X411500Y162598D02*
D03*
Y184252D02*
D03*
D86*
X424250Y243378D02*
D03*
Y254750D02*
D03*
X479500Y175611D02*
D03*
X250850Y405750D02*
D03*
X118500Y153500D02*
D03*
X479500Y139000D02*
D03*
X118500Y142000D02*
D03*
X479500Y188500D02*
D03*
Y163500D02*
D03*
Y151500D02*
D03*
D87*
X478213Y329252D02*
D03*
Y319409D02*
D03*
Y309567D02*
D03*
Y299724D02*
D03*
Y289882D02*
D03*
Y280039D02*
D03*
Y270197D02*
D03*
X488055Y329252D02*
D03*
Y319409D02*
D03*
Y309567D02*
D03*
Y299724D02*
D03*
Y289882D02*
D03*
Y280039D02*
D03*
Y270197D02*
D03*
X478657Y413519D02*
D03*
Y403677D02*
D03*
Y393834D02*
D03*
Y383992D02*
D03*
Y374149D02*
D03*
Y364307D02*
D03*
Y354464D02*
D03*
X488500Y413519D02*
D03*
Y403677D02*
D03*
Y393834D02*
D03*
Y383992D02*
D03*
Y374149D02*
D03*
Y364307D02*
D03*
Y354464D02*
D03*
D88*
X516500Y270000D02*
D03*
Y328957D02*
D03*
X516945Y354268D02*
D03*
Y413224D02*
D03*
D89*
X461000Y424250D02*
D03*
X76500D02*
D03*
X517750Y117500D02*
D03*
X117500D02*
D03*
D123*
X159856Y257500D02*
D03*
X151856D02*
D03*
D124*
X274894Y302941D02*
D03*
X270170D02*
D03*
X274894Y308059D02*
D03*
X279225D02*
D03*
X279225Y302941D02*
D03*
X270170Y308059D02*
D03*
X269338Y385309D02*
D03*
X278393Y380191D02*
D03*
X278393Y385309D02*
D03*
X274063D02*
D03*
X269338Y380191D02*
D03*
X274063D02*
D03*
X340000Y366441D02*
D03*
X335276D02*
D03*
X340000Y371559D02*
D03*
X344331D02*
D03*
X344331Y366441D02*
D03*
X335276Y371559D02*
D03*
M02*
