G04*
G04 #@! TF.GenerationSoftware,Altium Limited,Altium Designer,19.1.7 (138)*
G04*
G04 Layer_Color=128*
%FSLAX25Y25*%
%MOIN*%
G70*
G01*
G75*
%ADD122R,0.03937X0.03937*%
G36*
X208622Y236240D02*
X208867Y235994D01*
X209000Y235673D01*
X209000Y235500D01*
X209000Y235500D01*
Y230500D01*
X209038Y230110D01*
X209337Y229389D01*
X209889Y228837D01*
X210610Y228538D01*
X211000Y228500D01*
X211000Y228500D01*
X214500Y228500D01*
X214890Y228538D01*
X215611Y228837D01*
X216163Y229389D01*
X216461Y230110D01*
X216500Y230500D01*
X216500Y230500D01*
Y235000D01*
Y235199D01*
X216652Y235566D01*
X216933Y235847D01*
X217301Y236000D01*
X217500Y236000D01*
X217500Y236000D01*
X231500Y236000D01*
X231975Y236000D01*
X232854Y235636D01*
X233526Y234964D01*
X233890Y234085D01*
X233890Y233610D01*
X233890Y233610D01*
Y229110D01*
X233930Y228698D01*
X234245Y227938D01*
X234827Y227356D01*
X235588Y227041D01*
X236000Y227000D01*
X236000D01*
X416000Y227000D01*
X417016Y227000D01*
X419030Y226735D01*
X420993Y226209D01*
X422870Y225431D01*
X424630Y224415D01*
X426242Y223179D01*
X427678Y221742D01*
X428915Y220130D01*
X429931Y218370D01*
X430709Y216493D01*
X431235Y214530D01*
X431500Y212516D01*
X431500Y211500D01*
X431500Y211500D01*
X431540Y210290D01*
X431855Y207891D01*
X432482Y205553D01*
X433408Y203318D01*
X434618Y201222D01*
X436091Y199302D01*
X437802Y197591D01*
X439722Y196118D01*
X441818Y194908D01*
X444053Y193982D01*
X446391Y193356D01*
X448790Y193040D01*
X450000Y193000D01*
X450000D01*
X455500Y193000D01*
X455943D01*
X456813Y192827D01*
X457631Y192488D01*
X458369Y191995D01*
X458995Y191369D01*
X459488Y190631D01*
X459827Y189813D01*
X460000Y188943D01*
X460000Y188500D01*
X460000Y188500D01*
X460000Y179500D01*
Y178958D01*
X459789Y177896D01*
X459374Y176895D01*
X458772Y175994D01*
X458006Y175228D01*
X457105Y174626D01*
X456104Y174211D01*
X455042Y174000D01*
X155500D01*
X154811Y174000D01*
X153458Y174269D01*
X152184Y174797D01*
X151038Y175563D01*
X150063Y176538D01*
X149297Y177684D01*
X148769Y178958D01*
X148500Y180310D01*
X148500Y181000D01*
Y181000D01*
X148500Y191439D01*
Y192295D01*
X148723Y193993D01*
X149167Y195647D01*
X149822Y197228D01*
X150678Y198711D01*
X151720Y200069D01*
X152931Y201280D01*
X154289Y202322D01*
X155772Y203178D01*
X157353Y203833D01*
X159007Y204276D01*
X160705Y204500D01*
X161561D01*
X161561Y204500D01*
X167500Y204500D01*
X168653Y204528D01*
X170948Y204754D01*
X173210Y205204D01*
X175417Y205874D01*
X177548Y206756D01*
X179581Y207843D01*
X181499Y209125D01*
X183282Y210588D01*
X184912Y212218D01*
X186375Y214001D01*
X187657Y215919D01*
X188744Y217952D01*
X189626Y220083D01*
X190296Y222290D01*
X190746Y224552D01*
X190972Y226847D01*
X191000Y228000D01*
X191000Y228000D01*
Y233361D01*
Y233657D01*
X191116Y234239D01*
X191343Y234787D01*
X191672Y235281D01*
X192092Y235700D01*
X192585Y236030D01*
X193133Y236257D01*
X193715Y236373D01*
X194012Y236373D01*
X194012Y236373D01*
X208127Y236373D01*
X208301D01*
X208622Y236240D01*
D02*
G37*
D122*
X159856Y257500D02*
D03*
X151856D02*
D03*
M02*
