%FSTAX23Y23*%
%MOIN*%
%SFA1B1*%

%IPPOS*%
%ADD55C,0.019685*%
%ADD56C,0.047244*%
%ADD57C,0.028000*%
%ADD58C,0.140000*%
%LNacoustics_4_pth_drill-1*%
%LPD*%
G54D55*
X0253Y01951D03*
X00225Y0193D03*
Y0198D03*
Y02029D03*
Y01549D03*
Y015D03*
Y0145D03*
Y0085D03*
Y009D03*
Y00949D03*
Y00485D03*
Y00435D03*
Y00386D03*
X0253Y02099D03*
Y0205D03*
Y02D03*
Y0157D03*
Y01619D03*
Y01668D03*
Y01717D03*
Y01338D03*
Y01289D03*
Y0124D03*
Y0119D03*
G54D56*
X02162Y004D03*
Y00301D03*
Y00203D03*
G54D57*
X0218Y0071D03*
X0206Y0029D03*
X0211Y0054D03*
X02018Y00336D03*
X01975Y00295D03*
X0249Y0097D03*
X0252Y00605D03*
X02379Y00839D03*
X02062Y00818D03*
X0206Y0141D03*
X0217Y01795D03*
X02285Y01815D03*
X02395Y02305D03*
X0224Y0217D03*
X02315Y0065D03*
X02535Y00755D03*
X0198Y02095D03*
X0202Y0205D03*
X0206Y02005D03*
X02017Y00858D03*
X01974Y009D03*
X0202Y01455D03*
X0198Y015D03*
X00405Y01325D03*
Y01695D03*
Y01505D03*
X00535Y01325D03*
Y01505D03*
Y01695D03*
X00785Y01305D03*
Y0168D03*
X00845Y01345D03*
X00935Y01665D03*
X01055Y0138D03*
X0116Y0136D03*
X01325Y01375D03*
X01735Y0136D03*
X01435Y01515D03*
X01745Y01569D03*
X01851Y01547D03*
X00845Y00145D03*
X00785Y00705D03*
Y0108D03*
Y0228D03*
Y01905D03*
X01851Y00347D03*
X01853Y00948D03*
X01851Y02146D03*
X00405Y00305D03*
Y00495D03*
Y0091D03*
Y0109D03*
Y0072D03*
Y00125D03*
Y01925D03*
Y02105D03*
X0116Y0016D03*
X00535Y00495D03*
Y0109D03*
Y00125D03*
X01055Y0018D03*
X00535Y00305D03*
X00935Y00465D03*
X01325Y00175D03*
X01435Y00315D03*
X01735Y0016D03*
X01745Y00369D03*
Y02169D03*
X01435Y02115D03*
X00535Y02105D03*
X01325Y01975D03*
X0116Y0196D03*
X00935Y02265D03*
X01735Y0196D03*
X00535Y01925D03*
X00845Y01945D03*
X01055Y0198D03*
X00845Y00745D03*
X00935Y01065D03*
X01735Y0076D03*
X0116D03*
X01745Y00969D03*
X00535Y00905D03*
Y00725D03*
X01055Y0078D03*
X01325Y00775D03*
X01435Y00915D03*
G54D58*
X00125Y0232D03*
Y0012D03*
X0264Y0232D03*
M02*