%FSTAX23Y23*%
%MOIN*%
%SFA1B1*%

%IPPOS*%
%ADD35C,0.023622*%
%ADD36C,0.009843*%
%ADD37C,0.007874*%
%ADD38C,0.006000*%
%ADD39C,0.005000*%
%ADD40C,0.008000*%
%LNacoustics_4_legend_top-1*%
%LPD*%
G36*
X0214Y01596D02*
X02141D01*
Y01596*
X02142*
Y01596*
X02143*
Y01595*
X02144*
Y01595*
X02145*
Y01595*
X02146*
Y01595*
X02147*
Y01595*
X02149*
Y01595*
X0215*
Y01594*
X02151*
Y01594*
X02152*
Y01594*
X02153*
Y01594*
X02154*
Y01594*
X02155*
Y01594*
X02156*
Y01593*
X02157*
Y01593*
X02158*
Y01593*
X0216*
Y01593*
X02161*
Y01593*
X02162*
Y01593*
X02163*
Y01592*
X02164*
Y01592*
X02165*
Y01592*
X02166*
Y01592*
X02167*
Y01592*
X02168*
Y01592*
X02169*
Y01591*
X02171*
Y01591*
X02172*
Y01591*
X02173*
Y01591*
X02174*
Y01591*
X02175*
Y01591*
X02176*
Y0159*
X02177*
Y0159*
X02178*
Y0159*
X02179*
Y0159*
X0218*
Y0159*
X02182*
Y0159*
X02183*
Y01589*
X02184*
Y01589*
X02185*
Y01589*
X02186*
Y01589*
X02187*
Y01589*
X02188*
Y01589*
X02189*
Y01588*
X0219*
Y01588*
X02191*
Y01588*
X02192*
Y01588*
X02193*
Y01588*
X02195*
Y01588*
X02196*
Y01587*
X02197*
Y01587*
X02198*
Y01587*
X02199*
Y01587*
X022*
Y01587*
X02201*
Y01587*
X02202*
Y01586*
X02203*
Y01586*
X02204*
Y01586*
X02206*
Y01586*
X02207*
Y01586*
X02208*
Y01586*
X02209*
Y01585*
X0221*
Y01585*
X02211*
Y01585*
X02212*
Y01585*
X02213*
Y01585*
X02214*
Y01585*
X02215*
Y01584*
X02217*
Y01584*
X02218*
Y01584*
X02219*
Y01584*
X0222*
Y01584*
X02221*
Y01584*
X02222*
Y01583*
X02223*
Y01583*
X02224*
Y01583*
X02225*
Y01564*
X02225*
Y01563*
X02224*
Y01563*
X02222*
Y01563*
X02221*
Y01563*
X0222*
Y01563*
X02219*
Y01563*
X02218*
Y01562*
X02217*
Y01562*
X02216*
Y01562*
X02215*
Y01562*
X02214*
Y01562*
X02213*
Y01562*
X02211*
Y01561*
X0221*
Y01561*
X02209*
Y01561*
X02208*
Y01561*
X02207*
Y01561*
X02206*
Y01561*
X02205*
Y0156*
X02204*
Y0156*
X02203*
Y0156*
X02202*
Y0156*
X022*
Y0156*
X02199*
Y0156*
X02198*
Y01559*
X02197*
Y01559*
X02196*
Y01559*
X02195*
Y01559*
X02194*
Y01559*
X02193*
Y01559*
X02192*
Y01558*
X02191*
Y01558*
X0219*
Y01558*
X02189*
Y01558*
X02187*
Y01558*
X02186*
Y01558*
X02185*
Y01557*
X02184*
Y01557*
X02183*
Y01557*
X02182*
Y01557*
X02181*
Y01557*
X0218*
Y01557*
X02179*
Y01556*
X02178*
Y01556*
X02176*
Y01556*
X02175*
Y01556*
X02174*
Y01556*
X02173*
Y01556*
X02172*
Y01555*
X02171*
Y01555*
X0217*
Y01555*
X02169*
Y01555*
X02168*
Y01555*
X02167*
Y01555*
X02165*
Y01554*
X02164*
Y01554*
X02163*
Y01554*
X02162*
Y01554*
X02161*
Y01554*
X0216*
Y01554*
X02159*
Y01553*
X02158*
Y01553*
X02157*
Y01553*
X02156*
Y01553*
X02154*
Y01553*
X02153*
Y01553*
X02152*
Y01552*
X02151*
Y01552*
X0215*
Y01552*
X02149*
Y01552*
X02148*
Y01552*
X02147*
Y01552*
X02146*
Y01551*
X02145*
Y01551*
X02143*
Y01551*
X02142*
Y01551*
X02141*
Y01551*
X0214*
Y01551*
X02139*
Y01566*
X0214*
Y01567*
X02141*
Y01567*
X02142*
Y01567*
X02143*
Y01567*
X02145*
Y01567*
X02146*
Y01567*
X02147*
Y01568*
X02148*
Y01568*
X0215*
Y01568*
X02151*
Y01568*
X02152*
Y01568*
X02153*
Y01568*
X02155*
Y01569*
X02156*
Y01569*
X02157*
Y01569*
X02158*
Y01569*
X0216*
Y01569*
X02161*
Y01569*
X02162*
Y0157*
X02163*
Y0157*
X02165*
Y0157*
X02166*
Y0157*
X02167*
Y0157*
X02168*
Y0157*
X0217*
Y01571*
X02171*
Y01571*
X02172*
Y01571*
X02173*
Y01571*
X02175*
Y01571*
X02176*
Y01571*
X02177*
Y01572*
X02179*
Y01572*
X0218*
Y01572*
X02181*
Y01572*
X02182*
Y01572*
X02184*
Y01572*
X02185*
Y01573*
X02186*
Y01573*
X02187*
Y01573*
X02189*
Y01573*
X0219*
Y01573*
X02191*
Y01573*
X02192*
Y01574*
X02193*
Y01574*
X02195*
Y01574*
X02194*
Y01574*
X02193*
Y01574*
X02192*
Y01574*
X02191*
Y01575*
X02189*
Y01575*
X02188*
Y01575*
X02187*
Y01575*
X02186*
Y01575*
X02184*
Y01575*
X02183*
Y01576*
X02182*
Y01576*
X02181*
Y01576*
X02179*
Y01576*
X02178*
Y01576*
X02177*
Y01576*
X02176*
Y01577*
X02174*
Y01577*
X02173*
Y01577*
X02172*
Y01577*
X02171*
Y01577*
X02169*
Y01577*
X02168*
Y01578*
X02167*
Y01578*
X02166*
Y01578*
X02164*
Y01578*
X02163*
Y01578*
X02162*
Y01578*
X02161*
Y01579*
X02159*
Y01579*
X02158*
Y01579*
X02157*
Y01579*
X02156*
Y01579*
X02154*
Y01579*
X02153*
Y0158*
X02152*
Y0158*
X02151*
Y0158*
X02149*
Y0158*
X02148*
Y0158*
X02147*
Y0158*
X02146*
Y01581*
X02144*
Y01581*
X02143*
Y01581*
X02142*
Y01581*
X0214*
Y01581*
X02139*
Y01596*
X0214*
Y01596*
G37*
G36*
X02206Y01548D02*
X02208D01*
Y01547*
X02209*
Y01547*
X0221*
Y01547*
X02211*
Y01547*
X02212*
Y01547*
X02212*
Y01547*
X02213*
Y01546*
X02213*
Y01546*
X02214*
Y01546*
X02214*
Y01546*
X02215*
Y01546*
X02215*
Y01546*
X02215*
Y01546*
X02216*
Y01545*
X02216*
Y01545*
X02216*
Y01545*
X02217*
Y01545*
X02217*
Y01545*
X02217*
Y01545*
X02218*
Y01544*
X02218*
Y01544*
X02218*
Y01544*
X02218*
Y01544*
X02219*
Y01544*
X02219*
Y01544*
X02219*
Y01543*
X02219*
Y01543*
X02219*
Y01543*
X0222*
Y01543*
X0222*
Y01543*
X0222*
Y01543*
X0222*
Y01542*
X0222*
Y01542*
X02221*
Y01542*
X02221*
Y01542*
X02221*
Y01542*
X02221*
Y01541*
X02221*
Y01541*
X02221*
Y01541*
X02222*
Y01541*
X02222*
Y01541*
X02222*
Y0154*
X02222*
Y0154*
X02222*
Y0154*
X02222*
Y0154*
X02223*
Y0154*
X02223*
Y01539*
X02223*
Y01539*
X02223*
Y01539*
X02223*
Y01538*
X02223*
Y01538*
X02224*
Y01538*
X02224*
Y01537*
X02224*
Y01537*
X02224*
Y01537*
X02224*
Y01536*
X02224*
Y01536*
X02225*
Y01535*
X02225*
Y01535*
X02225*
Y01534*
X02225*
Y01534*
X02225*
Y01533*
X02225*
Y01532*
X02226*
Y01531*
X02226*
Y01528*
X02226*
Y01526*
X02226*
Y01524*
X02226*
Y01523*
X02225*
Y01522*
X02225*
Y01521*
X02225*
Y0152*
X02225*
Y0152*
X02225*
Y01519*
X02225*
Y01519*
X02224*
Y01518*
X02224*
Y01518*
X02224*
Y01517*
X02224*
Y01517*
X02224*
Y01517*
X02224*
Y01516*
X02223*
Y01516*
X02223*
Y01516*
X02223*
Y01515*
X02223*
Y01515*
X02223*
Y01515*
X02223*
Y01515*
X02222*
Y01514*
X02222*
Y01514*
X02222*
Y01514*
X02222*
Y01514*
X02222*
Y01513*
X02222*
Y01513*
X02221*
Y01513*
X02221*
Y01513*
X02221*
Y01513*
X02221*
Y01513*
X02221*
Y01512*
X02221*
Y01512*
X0222*
Y01512*
X0222*
Y01512*
X0222*
Y01512*
X0222*
Y01512*
X0222*
Y01511*
X0222*
Y01511*
X02219*
Y01511*
X02219*
Y01511*
X02219*
Y01511*
X02219*
Y01511*
X02219*
Y0151*
X02218*
Y0151*
X02218*
Y0151*
X02218*
Y0151*
X02218*
Y0151*
X02217*
Y0151*
X02217*
Y01509*
X02217*
Y01509*
X02216*
Y01509*
X02216*
Y01509*
X02216*
Y01509*
X02215*
Y01509*
X02215*
Y01508*
X02215*
Y01508*
X02214*
Y01508*
X02214*
Y01508*
X02213*
Y01508*
X02213*
Y01508*
X02212*
Y01507*
X02211*
Y01507*
X02211*
Y01507*
X0221*
Y01507*
X02209*
Y01507*
X02208*
Y01507*
X02206*
Y01506*
X02139*
Y01522*
X02207*
Y01522*
X02208*
Y01523*
X02208*
Y01523*
X02209*
Y01523*
X02209*
Y01523*
X02209*
Y01523*
X0221*
Y01523*
X0221*
Y01524*
X0221*
Y01524*
X0221*
Y01524*
X0221*
Y01524*
X0221*
Y01524*
X02211*
Y01525*
X02211*
Y01525*
X02211*
Y01525*
X02211*
Y01526*
X02211*
Y01529*
X02211*
Y0153*
X02211*
Y0153*
X02211*
Y0153*
X02211*
Y01531*
X0221*
Y01531*
X0221*
Y01531*
X0221*
Y01531*
X0221*
Y01531*
X0221*
Y01532*
X02209*
Y01532*
X02209*
Y01532*
X02209*
Y01532*
X02208*
Y01532*
X02208*
Y01532*
X02207*
Y01533*
X02139*
Y01548*
X02206*
Y01548*
G37*
G36*
X02225Y01488D02*
X02224D01*
Y01488*
X02223*
Y01488*
X02222*
Y01488*
X0222*
Y01487*
X02219*
Y01487*
X02218*
Y01487*
X02217*
Y01487*
X02216*
Y01487*
X02215*
Y01487*
X02214*
Y01486*
X02212*
Y01486*
X02211*
Y01486*
X0221*
Y01486*
X02209*
Y01486*
X02209*
Y01473*
X02209*
Y01473*
X0221*
Y01473*
X02211*
Y01473*
X02212*
Y01473*
X02213*
Y01473*
X02214*
Y01472*
X02216*
Y01472*
X02217*
Y01472*
X02218*
Y01472*
X02219*
Y01472*
X0222*
Y01472*
X02221*
Y01471*
X02222*
Y01471*
X02224*
Y01471*
X02225*
Y01471*
X02225*
Y01456*
X02224*
Y01456*
X02223*
Y01457*
X02222*
Y01457*
X02221*
Y01457*
X02219*
Y01457*
X02218*
Y01457*
X02217*
Y01457*
X02216*
Y01458*
X02215*
Y01458*
X02214*
Y01458*
X02213*
Y01458*
X02212*
Y01458*
X02211*
Y01458*
X0221*
Y01459*
X02209*
Y01459*
X02208*
Y01459*
X02207*
Y01459*
X02206*
Y01459*
X02205*
Y01459*
X02204*
Y0146*
X02203*
Y0146*
X02202*
Y0146*
X02201*
Y0146*
X022*
Y0146*
X02199*
Y0146*
X02198*
Y01461*
X02197*
Y01461*
X02196*
Y01461*
X02195*
Y01461*
X02194*
Y01461*
X02193*
Y01461*
X02192*
Y01462*
X02191*
Y01462*
X0219*
Y01462*
X02189*
Y01462*
X02188*
Y01462*
X02187*
Y01462*
X02186*
Y01463*
X02185*
Y01463*
X02184*
Y01463*
X02183*
Y01463*
X02182*
Y01463*
X02181*
Y01463*
X0218*
Y01464*
X02179*
Y01464*
X02178*
Y01464*
X02177*
Y01464*
X02176*
Y01464*
X02175*
Y01464*
X02174*
Y01465*
X02173*
Y01465*
X02172*
Y01465*
X02171*
Y01465*
X0217*
Y01465*
X02168*
Y01465*
X02167*
Y01466*
X02166*
Y01466*
X02165*
Y01466*
X02164*
Y01466*
X02163*
Y01466*
X02162*
Y01466*
X02161*
Y01467*
X0216*
Y01467*
X02159*
Y01467*
X02158*
Y01467*
X02157*
Y01467*
X02156*
Y01467*
X02155*
Y01468*
X02154*
Y01468*
X02153*
Y01468*
X02152*
Y01468*
X02151*
Y01468*
X0215*
Y01468*
X02149*
Y01469*
X02148*
Y01469*
X02147*
Y01469*
X02146*
Y01469*
X02145*
Y01469*
X02144*
Y01469*
X02143*
Y0147*
X02142*
Y0147*
X02141*
Y0147*
X0214*
Y0147*
X02139*
Y0149*
X0214*
Y0149*
X02141*
Y0149*
X02143*
Y01491*
X02144*
Y01491*
X02145*
Y01491*
X02146*
Y01491*
X02147*
Y01491*
X02148*
Y01491*
X02149*
Y01492*
X0215*
Y01492*
X02151*
Y01492*
X02152*
Y01492*
X02153*
Y01492*
X02154*
Y01492*
X02155*
Y01493*
X02156*
Y01493*
X02157*
Y01493*
X02158*
Y01493*
X02159*
Y01493*
X0216*
Y01493*
X02161*
Y01494*
X02162*
Y01494*
X02163*
Y01494*
X02164*
Y01494*
X02165*
Y01494*
X02166*
Y01494*
X02167*
Y01495*
X02168*
Y01495*
X02169*
Y01495*
X0217*
Y01495*
X02171*
Y01495*
X02172*
Y01495*
X02173*
Y01496*
X02174*
Y01496*
X02175*
Y01496*
X02176*
Y01496*
X02177*
Y01496*
X02178*
Y01496*
X02179*
Y01497*
X0218*
Y01497*
X02181*
Y01497*
X02182*
Y01497*
X02183*
Y01497*
X02184*
Y01497*
X02185*
Y01498*
X02187*
Y01498*
X02188*
Y01498*
X02189*
Y01498*
X0219*
Y01498*
X0219*
Y01498*
X02191*
Y01499*
X02192*
Y01499*
X02194*
Y01499*
X02195*
Y01499*
X02196*
Y01499*
X02197*
Y01499*
X02198*
Y015*
X02199*
Y015*
X022*
Y015*
X02201*
Y015*
X02202*
Y015*
X02203*
Y015*
X02204*
Y01501*
X02205*
Y01501*
X02206*
Y01501*
X02207*
Y01501*
X02208*
Y01501*
X02209*
Y01501*
X0221*
Y01502*
X02211*
Y01502*
X02212*
Y01502*
X02213*
Y01502*
X02214*
Y01502*
X02215*
Y01502*
X02216*
Y01503*
X02217*
Y01503*
X02218*
Y01503*
X02219*
Y01503*
X0222*
Y01503*
X02221*
Y01503*
X02222*
Y01504*
X02223*
Y01504*
X02224*
Y01504*
X02225*
Y01488*
G37*
G36*
X02223Y01451D02*
X02223D01*
Y01438*
X02223*
Y01438*
X02223*
Y01438*
X02222*
Y01438*
X02221*
Y01438*
X02221*
Y01437*
X0222*
Y01437*
X02219*
Y01437*
X02219*
Y01437*
X02218*
Y01437*
X02218*
Y01437*
X02217*
Y01436*
X02216*
Y01436*
X02216*
Y01436*
X02215*
Y01436*
X02214*
Y01436*
X02214*
Y01436*
X02213*
Y01435*
X02212*
Y01435*
X02212*
Y01435*
X02211*
Y01435*
X0221*
Y01435*
X0221*
Y01435*
X02209*
Y01434*
X02209*
Y01434*
X02208*
Y01434*
X02207*
Y01434*
X02207*
Y01434*
X02206*
Y01434*
X02205*
Y01433*
X02205*
Y01433*
X02204*
Y01433*
X02203*
Y01433*
X02203*
Y01433*
X02202*
Y01433*
X02201*
Y01432*
X02201*
Y01432*
X022*
Y01432*
X02199*
Y01432*
X02199*
Y01432*
X02198*
Y01432*
X02198*
Y01431*
X02197*
Y01431*
X02196*
Y01431*
X02196*
Y01431*
X02195*
Y01431*
X02194*
Y01431*
X02194*
Y0143*
X02193*
Y0143*
X02192*
Y0143*
X02192*
Y0143*
X02191*
Y0143*
X0219*
Y0143*
X0219*
Y01429*
X02189*
Y01429*
X02189*
Y01429*
X02188*
Y01429*
X02187*
Y01429*
X02187*
Y01429*
X02186*
Y01428*
X02185*
Y01428*
X02185*
Y01428*
X02184*
Y01428*
X02184*
Y01428*
X02183*
Y01428*
X02182*
Y01427*
X02182*
Y01427*
X02181*
Y01427*
X0218*
Y01427*
X0218*
Y01427*
X02179*
Y01427*
X02178*
Y01426*
X02178*
Y01426*
X02177*
Y01426*
X02176*
Y01426*
X02176*
Y01426*
X02175*
Y01426*
X02174*
Y01425*
X02174*
Y01425*
X02173*
Y01425*
X02173*
Y01425*
X02172*
Y01425*
X02171*
Y01425*
X02171*
Y01424*
X0217*
Y01424*
X02169*
Y01424*
X02169*
Y01424*
X02168*
Y01424*
X02167*
Y01424*
X02167*
Y01423*
X02166*
Y01423*
X02165*
Y01423*
X02165*
Y01423*
X02164*
Y01423*
X02164*
Y01423*
X02163*
Y01422*
X02223*
Y01422*
X02223*
Y01411*
X02223*
Y01411*
X02141*
Y01427*
X02141*
Y01427*
X02142*
Y01427*
X02142*
Y01428*
X02143*
Y01428*
X02144*
Y01428*
X02144*
Y01428*
X02145*
Y01428*
X02146*
Y01428*
X02146*
Y01429*
X02147*
Y01429*
X02148*
Y01429*
X02148*
Y01429*
X02149*
Y01429*
X0215*
Y01429*
X0215*
Y0143*
X02151*
Y0143*
X02151*
Y0143*
X02152*
Y0143*
X02153*
Y0143*
X02153*
Y0143*
X02154*
Y01431*
X02155*
Y01431*
X02155*
Y01431*
X02156*
Y01431*
X02157*
Y01431*
X02157*
Y01431*
X02158*
Y01432*
X02159*
Y01432*
X02159*
Y01432*
X0216*
Y01432*
X02161*
Y01432*
X02161*
Y01432*
X02162*
Y01433*
X02163*
Y01433*
X02163*
Y01433*
X02164*
Y01433*
X02165*
Y01433*
X02165*
Y01433*
X02166*
Y01434*
X02166*
Y01434*
X02167*
Y01434*
X02168*
Y01434*
X02168*
Y01434*
X02169*
Y01434*
X0217*
Y01435*
X0217*
Y01435*
X02171*
Y01435*
X02172*
Y01435*
X02172*
Y01435*
X02173*
Y01435*
X02174*
Y01436*
X02174*
Y01436*
X02175*
Y01436*
X02176*
Y01436*
X02176*
Y01436*
X02177*
Y01436*
X02178*
Y01437*
X02178*
Y01437*
X02179*
Y01437*
X0218*
Y01437*
X0218*
Y01437*
X02181*
Y01437*
X02181*
Y01438*
X02182*
Y01438*
X02183*
Y01438*
X02183*
Y01438*
X02184*
Y01438*
X02185*
Y01438*
X02185*
Y01439*
X02186*
Y01439*
X02187*
Y01439*
X02187*
Y01439*
X02188*
Y01439*
X02189*
Y01439*
X02189*
Y0144*
X0219*
Y0144*
X0219*
Y0144*
X02141*
Y01452*
X02223*
Y01451*
G37*
G36*
Y01405D02*
X02223D01*
Y01392*
X02223*
Y01392*
X02222*
Y01391*
X02221*
Y01391*
X0222*
Y01391*
X02219*
Y01391*
X02217*
Y01391*
X02216*
Y01391*
X02215*
Y0139*
X02214*
Y0139*
X02213*
Y0139*
X02212*
Y0139*
X0221*
Y0139*
X02209*
Y0139*
X02208*
Y01389*
X02207*
Y01375*
X02208*
Y01374*
X02209*
Y01374*
X0221*
Y01374*
X02211*
Y01374*
X02213*
Y01374*
X02214*
Y01374*
X02215*
Y01373*
X02216*
Y01373*
X02217*
Y01373*
X02218*
Y01373*
X02219*
Y01373*
X02221*
Y01373*
X02222*
Y01372*
X02223*
Y01372*
X02223*
Y0136*
X02222*
Y0136*
X02221*
Y01361*
X0222*
Y01361*
X02219*
Y01361*
X02218*
Y01361*
X02217*
Y01361*
X02216*
Y01361*
X02215*
Y01362*
X02214*
Y01362*
X02213*
Y01362*
X02212*
Y01362*
X02211*
Y01362*
X0221*
Y01362*
X02209*
Y01363*
X02208*
Y01363*
X02207*
Y01363*
X02206*
Y01363*
X02205*
Y01363*
X02204*
Y01363*
X02203*
Y01364*
X02202*
Y01364*
X02201*
Y01364*
X022*
Y01364*
X02199*
Y01364*
X02198*
Y01364*
X02197*
Y01365*
X02196*
Y01365*
X02195*
Y01365*
X02194*
Y01365*
X02193*
Y01365*
X02192*
Y01365*
X02191*
Y01366*
X0219*
Y01366*
X02189*
Y01366*
X02188*
Y01366*
X02187*
Y01366*
X02186*
Y01366*
X02185*
Y01367*
X02184*
Y01367*
X02183*
Y01367*
X02181*
Y01367*
X0218*
Y01367*
X02179*
Y01367*
X02178*
Y01368*
X02177*
Y01368*
X02176*
Y01368*
X02175*
Y01368*
X02174*
Y01368*
X02173*
Y01368*
X02172*
Y01369*
X02171*
Y01369*
X0217*
Y01369*
X02169*
Y01369*
X02168*
Y01369*
X02167*
Y01369*
X02166*
Y0137*
X02165*
Y0137*
X02164*
Y0137*
X02163*
Y0137*
X02162*
Y0137*
X02161*
Y0137*
X0216*
Y01371*
X02159*
Y01371*
X02158*
Y01371*
X02157*
Y01371*
X02156*
Y01371*
X02155*
Y01371*
X02154*
Y01372*
X02153*
Y01372*
X02152*
Y01372*
X02151*
Y01372*
X0215*
Y01372*
X02149*
Y01372*
X02148*
Y01373*
X02147*
Y01373*
X02146*
Y01373*
X02145*
Y01373*
X02144*
Y01373*
X02143*
Y01373*
X02142*
Y01374*
X02141*
Y01391*
X02141*
Y01391*
X02142*
Y01392*
X02143*
Y01392*
X02144*
Y01392*
X02145*
Y01392*
X02146*
Y01392*
X02147*
Y01392*
X02148*
Y01393*
X02149*
Y01393*
X0215*
Y01393*
X02151*
Y01393*
X02152*
Y01393*
X02153*
Y01393*
X02154*
Y01394*
X02155*
Y01394*
X02156*
Y01394*
X02158*
Y01394*
X02159*
Y01394*
X0216*
Y01394*
X02161*
Y01395*
X02162*
Y01395*
X02163*
Y01395*
X02164*
Y01395*
X02165*
Y01395*
X02166*
Y01395*
X02167*
Y01396*
X02168*
Y01396*
X02169*
Y01396*
X0217*
Y01396*
X02171*
Y01396*
X02172*
Y01396*
X02173*
Y01397*
X02174*
Y01397*
X02175*
Y01397*
X02176*
Y01397*
X02177*
Y01397*
X02178*
Y01397*
X02179*
Y01398*
X0218*
Y01398*
X02181*
Y01398*
X02182*
Y01398*
X02183*
Y01398*
X02184*
Y01398*
X02185*
Y01399*
X02186*
Y01399*
X02187*
Y01399*
X02188*
Y01399*
X02189*
Y01399*
X0219*
Y01399*
X02191*
Y014*
X02192*
Y014*
X02193*
Y014*
X02194*
Y014*
X02195*
Y014*
X02196*
Y014*
X02197*
Y01401*
X02198*
Y01401*
X02199*
Y01401*
X022*
Y01401*
X02201*
Y01401*
X02202*
Y01401*
X02203*
Y01402*
X02204*
Y01402*
X02205*
Y01402*
X02206*
Y01402*
X02207*
Y01402*
X02209*
Y01402*
X0221*
Y01403*
X02211*
Y01403*
X02212*
Y01403*
X02213*
Y01403*
X02214*
Y01403*
X02215*
Y01403*
X02216*
Y01404*
X02217*
Y01404*
X02218*
Y01404*
X02219*
Y01404*
X0222*
Y01404*
X02221*
Y01404*
X02222*
Y01405*
X02223*
Y01405*
X02223*
Y01405*
G37*
G36*
X02153Y01363D02*
X02153D01*
Y01349*
X02223*
Y01336*
X02153*
Y01323*
X02153*
Y01323*
X02141*
Y01341*
Y01341*
Y01363*
X02141*
Y01363*
X02153*
Y01363*
G37*
G36*
X02223Y01306D02*
X02223D01*
Y01305*
X02223*
Y01305*
X02222*
Y01305*
X02222*
Y01305*
X02221*
Y01305*
X0222*
Y01305*
X02219*
Y01304*
X02215*
Y01304*
X02195*
Y01304*
X02194*
Y01304*
X02193*
Y01304*
X02192*
Y01304*
X02192*
Y01303*
X02192*
Y01303*
X02191*
Y01303*
X02191*
Y01303*
X02191*
Y01303*
X0219*
Y01303*
X0219*
Y01302*
X0219*
Y01302*
X0219*
Y01302*
X0219*
Y01302*
X0219*
Y01302*
X02189*
Y01301*
X02189*
Y01301*
X02189*
Y01301*
X02189*
Y01301*
X02189*
Y013*
X02189*
Y013*
X02188*
Y01299*
X02188*
Y01298*
X02188*
Y01292*
X02223*
Y01279*
X02141*
Y013*
X02141*
Y01302*
X02141*
Y01303*
X02141*
Y01304*
X02141*
Y01305*
X02142*
Y01306*
X02142*
Y01306*
X02142*
Y01307*
X02142*
Y01307*
X02142*
Y01308*
X02142*
Y01308*
X02143*
Y01308*
X02143*
Y01309*
X02143*
Y01309*
X02143*
Y0131*
X02143*
Y0131*
X02143*
Y0131*
X02144*
Y0131*
X02144*
Y01311*
X02144*
Y01311*
X02144*
Y01311*
X02144*
Y01311*
X02144*
Y01312*
X02145*
Y01312*
X02145*
Y01312*
X02145*
Y01312*
X02145*
Y01312*
X02145*
Y01312*
X02145*
Y01313*
X02146*
Y01313*
X02146*
Y01313*
X02146*
Y01313*
X02146*
Y01313*
X02146*
Y01313*
X02146*
Y01314*
X02147*
Y01314*
X02147*
Y01314*
X02147*
Y01314*
X02147*
Y01314*
X02148*
Y01314*
X02148*
Y01315*
X02148*
Y01315*
X02148*
Y01315*
X02149*
Y01315*
X02149*
Y01315*
X02149*
Y01315*
X0215*
Y01316*
X0215*
Y01316*
X02151*
Y01316*
X02151*
Y01316*
X02152*
Y01316*
X02152*
Y01316*
X02153*
Y01317*
X02153*
Y01317*
X02154*
Y01317*
X02155*
Y01317*
X02157*
Y01317*
X02168*
Y01317*
X02169*
Y01317*
X0217*
Y01317*
X02171*
Y01317*
X02172*
Y01316*
X02172*
Y01316*
X02173*
Y01316*
X02173*
Y01316*
X02174*
Y01316*
X02174*
Y01316*
X02175*
Y01315*
X02175*
Y01315*
X02175*
Y01315*
X02176*
Y01315*
X02176*
Y01315*
X02176*
Y01315*
X02177*
Y01314*
X02177*
Y01314*
X02177*
Y01314*
X02177*
Y01314*
X02177*
Y01314*
X02178*
Y01314*
X02178*
Y01313*
X02178*
Y01313*
X02178*
Y01313*
X02178*
Y01313*
X02179*
Y01313*
X02179*
Y01313*
X02179*
Y01312*
X02179*
Y01312*
X02179*
Y01312*
X02179*
Y01312*
X0218*
Y01312*
X0218*
Y01311*
X0218*
Y01311*
X0218*
Y01311*
X0218*
Y01311*
X0218*
Y0131*
X02181*
Y0131*
X02181*
Y0131*
X02181*
Y01309*
X02181*
Y01309*
X02181*
Y01309*
X02181*
Y01309*
X02182*
Y01309*
X02182*
Y0131*
X02182*
Y0131*
X02182*
Y01311*
X02182*
Y01311*
X02182*
Y01311*
X02183*
Y01312*
X02183*
Y01312*
X02183*
Y01312*
X02183*
Y01312*
X02183*
Y01312*
X02183*
Y01313*
X02184*
Y01313*
X02184*
Y01313*
X02184*
Y01313*
X02184*
Y01313*
X02184*
Y01314*
X02185*
Y01314*
X02185*
Y01314*
X02185*
Y01314*
X02185*
Y01314*
X02185*
Y01314*
X02186*
Y01315*
X02186*
Y01315*
X02186*
Y01315*
X02186*
Y01315*
X02187*
Y01315*
X02187*
Y01315*
X02187*
Y01316*
X02188*
Y01316*
X02188*
Y01316*
X02189*
Y01316*
X02189*
Y01316*
X0219*
Y01316*
X0219*
Y01317*
X02191*
Y01317*
X02192*
Y01317*
X02193*
Y01317*
X02194*
Y01317*
X02196*
Y01317*
X02218*
Y01318*
X02219*
Y01318*
X0222*
Y01318*
X02221*
Y01318*
X02222*
Y01318*
X02222*
Y01318*
X02223*
Y01319*
X02223*
Y01319*
X02223*
Y01306*
G37*
G36*
X02329Y01258D02*
X02329D01*
Y01259*
X02329*
Y01258*
G37*
G36*
X02329Y01258D02*
X02329D01*
Y01258*
X02329*
Y01258*
G37*
G36*
X02329Y01258D02*
X02329D01*
Y01258*
X02329*
Y01258*
G37*
G36*
X02329Y01258D02*
X02329D01*
Y01258*
X02329*
Y01258*
G37*
G36*
X02329Y01258D02*
X02328D01*
Y01258*
X02329*
Y01258*
G37*
G36*
X02328Y01257D02*
X02328D01*
Y01258*
X02328*
Y01257*
G37*
G36*
X02328Y01257D02*
X02328D01*
Y01257*
X02328*
Y01257*
G37*
G36*
X02328Y01257D02*
X02328D01*
Y01257*
X02328*
Y01257*
G37*
G36*
X02328Y01257D02*
X02328D01*
Y01257*
X02328*
Y01257*
G37*
G36*
X02223Y0126D02*
X02223D01*
Y0126*
X02222*
Y01259*
X02221*
Y01259*
X0222*
Y01259*
X02219*
Y01259*
X02218*
Y01259*
X02217*
Y01259*
X02215*
Y01258*
X02214*
Y01258*
X02213*
Y01258*
X02212*
Y01258*
X02211*
Y01258*
X0221*
Y01258*
X02209*
Y01257*
X02207*
Y01257*
X02207*
Y01243*
X02208*
Y01242*
X02209*
Y01242*
X0221*
Y01242*
X02211*
Y01242*
X02212*
Y01242*
X02213*
Y01242*
X02215*
Y01241*
X02216*
Y01241*
X02217*
Y01241*
X02218*
Y01241*
X02219*
Y01241*
X0222*
Y01241*
X02221*
Y0124*
X02223*
Y0124*
X02223*
Y0124*
X02223*
Y01228*
X02223*
Y01228*
X02223*
Y01228*
X02222*
Y01228*
X02221*
Y01229*
X0222*
Y01229*
X02219*
Y01229*
X02218*
Y01229*
X02217*
Y01229*
X02216*
Y01229*
X02215*
Y0123*
X02214*
Y0123*
X02213*
Y0123*
X02212*
Y0123*
X02211*
Y0123*
X0221*
Y0123*
X02209*
Y01231*
X02208*
Y01231*
X02207*
Y01231*
X02206*
Y01231*
X02205*
Y01231*
X02203*
Y01231*
X02202*
Y01232*
X02201*
Y01232*
X022*
Y01232*
X02199*
Y01232*
X02198*
Y01232*
X02197*
Y01232*
X02196*
Y01233*
X02195*
Y01233*
X02194*
Y01233*
X02193*
Y01233*
X02192*
Y01233*
X02191*
Y01233*
X0219*
Y01234*
X02189*
Y01234*
X02188*
Y01234*
X02187*
Y01234*
X02186*
Y01234*
X02185*
Y01234*
X02184*
Y01235*
X02183*
Y01235*
X02182*
Y01235*
X02181*
Y01235*
X0218*
Y01235*
X02179*
Y01235*
X02178*
Y01236*
X02177*
Y01236*
X02176*
Y01236*
X02175*
Y01236*
X02174*
Y01236*
X02173*
Y01236*
X02172*
Y01237*
X02171*
Y01237*
X0217*
Y01237*
X02169*
Y01237*
X02168*
Y01237*
X02167*
Y01237*
X02166*
Y01238*
X02165*
Y01238*
X02164*
Y01238*
X02163*
Y01238*
X02162*
Y01238*
X02161*
Y01238*
X0216*
Y01239*
X02159*
Y01239*
X02158*
Y01239*
X02157*
Y01239*
X02156*
Y01239*
X02155*
Y01239*
X02154*
Y0124*
X02152*
Y0124*
X02151*
Y0124*
X0215*
Y0124*
X02149*
Y0124*
X02148*
Y0124*
X02147*
Y01241*
X02146*
Y01241*
X02145*
Y01241*
X02144*
Y01241*
X02143*
Y01241*
X02142*
Y01241*
X02141*
Y01242*
X02141*
Y01259*
X02141*
Y01259*
X02143*
Y0126*
X02144*
Y0126*
X02145*
Y0126*
X02146*
Y0126*
X02147*
Y0126*
X02148*
Y0126*
X02149*
Y01261*
X0215*
Y01261*
X02151*
Y01261*
X02152*
Y01261*
X02153*
Y01261*
X02154*
Y01261*
X02155*
Y01262*
X02156*
Y01262*
X02157*
Y01262*
X02158*
Y01262*
X02159*
Y01262*
X0216*
Y01262*
X02161*
Y01263*
X02162*
Y01263*
X02163*
Y01263*
X02164*
Y01263*
X02165*
Y01263*
X02166*
Y01263*
X02167*
Y01264*
X02168*
Y01264*
X02169*
Y01264*
X0217*
Y01264*
X02171*
Y01264*
X02172*
Y01264*
X02173*
Y01265*
X02174*
Y01265*
X02175*
Y01265*
X02176*
Y01265*
X02177*
Y01265*
X02178*
Y01265*
X02179*
Y01266*
X0218*
Y01266*
X02181*
Y01266*
X02182*
Y01266*
X02183*
Y01266*
X02184*
Y01266*
X02185*
Y01267*
X02187*
Y01267*
X02188*
Y01267*
X02189*
Y01267*
X0219*
Y01267*
X0219*
Y01267*
X02191*
Y01268*
X02192*
Y01268*
X02194*
Y01268*
X02195*
Y01268*
X02196*
Y01268*
X02197*
Y01268*
X02198*
Y01268*
X02199*
Y01269*
X022*
Y01269*
X02201*
Y01269*
X02202*
Y01269*
X02203*
Y01269*
X02204*
Y01269*
X02205*
Y0127*
X02206*
Y0127*
X02207*
Y0127*
X02208*
Y0127*
X02209*
Y0127*
X0221*
Y0127*
X02211*
Y01271*
X02212*
Y01271*
X02213*
Y01271*
X02214*
Y01271*
X02215*
Y01271*
X02216*
Y01271*
X02217*
Y01272*
X02218*
Y01272*
X02219*
Y01272*
X0222*
Y01272*
X02221*
Y01272*
X02222*
Y01272*
X02223*
Y0126*
G37*
G36*
X02226Y01182D02*
X02226D01*
Y01182*
X02226*
Y01182*
G37*
G36*
X02173Y01178D02*
X02175D01*
Y01178*
X02176*
Y01178*
X02177*
Y01178*
X02178*
Y01178*
X02179*
Y01177*
X02179*
Y01177*
X0218*
Y01177*
X0218*
Y01177*
X02181*
Y01177*
X02179*
Y01177*
X02178*
Y01176*
X02178*
Y01176*
X02177*
Y01176*
X02177*
Y01176*
X02177*
Y01176*
X02176*
Y01176*
X02176*
Y01175*
X02176*
Y01175*
X02176*
Y01175*
X02175*
Y01175*
X02175*
Y01175*
X02175*
Y01175*
X02175*
Y01174*
X02175*
Y01174*
X02174*
Y01174*
X02174*
Y01174*
X02174*
Y01174*
X02174*
Y01173*
X02174*
Y01173*
X02174*
Y01173*
X02173*
Y01173*
X02173*
Y01172*
X02173*
Y01172*
X02173*
Y01172*
X02173*
Y01171*
X02173*
Y01171*
X02172*
Y0117*
X02173*
Y0117*
X02174*
Y01171*
X02174*
Y01171*
X02175*
Y01171*
X02175*
Y01171*
X02175*
Y01171*
X02175*
Y01171*
X02176*
Y01172*
X02176*
Y01172*
X02176*
Y01172*
X02176*
Y01172*
X02176*
Y01172*
X02177*
Y01173*
X02177*
Y01173*
X02177*
Y01173*
X02177*
Y01172*
X02177*
Y01172*
X02177*
Y01171*
X02177*
Y01171*
X02176*
Y0117*
X02176*
Y0117*
X02176*
Y01169*
X02176*
Y01169*
X02176*
Y01169*
X02176*
Y01168*
X02175*
Y01168*
X02175*
Y01168*
X02175*
Y01167*
X02175*
Y01167*
X02175*
Y01167*
X02175*
Y01167*
X02174*
Y01166*
X02174*
Y01166*
X02174*
Y01166*
X02174*
Y01166*
X02174*
Y01165*
X02174*
Y01165*
X02173*
Y01165*
X02173*
Y01165*
X02173*
Y01165*
X02173*
Y01164*
X02173*
Y01164*
X02173*
Y01164*
X02172*
Y01164*
X02172*
Y01164*
X02172*
Y01163*
X02172*
Y01163*
X02172*
Y01163*
X02172*
Y01163*
X02171*
Y01163*
X02172*
Y01163*
X02172*
Y01162*
X02172*
Y01162*
X02172*
Y01162*
X02172*
Y01162*
X02173*
Y01162*
X02173*
Y01162*
X02173*
Y01161*
X02173*
Y01161*
X02174*
Y01161*
X02174*
Y01161*
X02174*
Y01161*
X02174*
Y01161*
X02174*
Y0116*
X02175*
Y0116*
X02175*
Y0116*
X02175*
Y0116*
X02175*
Y0116*
X02176*
Y0116*
X02176*
Y01159*
X02176*
Y01159*
X02176*
Y01159*
X02177*
Y01159*
X02177*
Y01159*
X02177*
Y01159*
X02177*
Y01158*
X02177*
Y01158*
X02178*
Y01158*
X02178*
Y01158*
X02178*
Y01158*
X02178*
Y01158*
X02178*
Y01157*
X02179*
Y01157*
X02179*
Y01157*
X02179*
Y01157*
X02179*
Y01157*
X02179*
Y01157*
X02179*
Y01156*
X0218*
Y01156*
X0218*
Y01156*
X0218*
Y01156*
X0218*
Y01156*
X0218*
Y01155*
X0218*
Y01155*
X02181*
Y01155*
X02181*
Y01155*
X02181*
Y01154*
X02181*
Y01154*
X02181*
Y01154*
X02181*
Y01153*
X02182*
Y01153*
X02182*
Y01153*
X02182*
Y01152*
X02182*
Y01152*
X02182*
Y01151*
X02182*
Y0115*
X02183*
Y01149*
X02183*
Y01149*
X02183*
Y01148*
X02183*
Y01148*
X02184*
Y01148*
X02184*
Y01148*
X02184*
Y01148*
X02184*
Y01148*
X02185*
Y01147*
X02185*
Y01147*
X02185*
Y01147*
X02185*
Y01147*
X02186*
Y01147*
X02186*
Y01147*
X02186*
Y01146*
X02187*
Y01146*
X02187*
Y01146*
X02187*
Y01146*
X02187*
Y01146*
X02188*
Y01146*
X02188*
Y01145*
X02188*
Y01145*
X02189*
Y01145*
X02189*
Y01145*
X02189*
Y01145*
X0219*
Y01145*
X0219*
Y01144*
X0219*
Y01144*
X02191*
Y01144*
X02191*
Y01144*
X02191*
Y01144*
X02192*
Y01144*
X02192*
Y01143*
X02192*
Y01143*
X02193*
Y01143*
X02193*
Y01143*
X02194*
Y01143*
X02195*
Y01143*
X02198*
Y01143*
X02198*
Y01143*
X02199*
Y01143*
X02199*
Y01143*
X022*
Y01143*
X022*
Y01144*
X022*
Y01144*
X02201*
Y01144*
X02201*
Y01144*
X02201*
Y01144*
X02201*
Y01144*
X02201*
Y01145*
X02202*
Y01145*
X02202*
Y01144*
X02202*
Y01144*
X02201*
Y01143*
X02201*
Y01143*
X02201*
Y01143*
X02201*
Y01143*
X02202*
Y01143*
X02202*
Y01143*
X02202*
Y01143*
X02202*
Y01144*
X02202*
Y01144*
X02203*
Y01144*
X02203*
Y01144*
X02203*
Y01144*
X02203*
Y01144*
X02203*
Y01145*
X02203*
Y01145*
X02204*
Y01145*
X02204*
Y01145*
X02204*
Y01145*
X02204*
Y01146*
X02204*
Y01146*
X02204*
Y01146*
X02205*
Y01146*
X02205*
Y01147*
X02205*
Y01147*
X02205*
Y01148*
X02205*
Y01147*
X02205*
Y01146*
X02206*
Y01145*
X02205*
Y01144*
X02205*
Y01144*
X02205*
Y01143*
X02205*
Y01143*
X02205*
Y01143*
X02205*
Y01143*
X02205*
Y01143*
X02205*
Y01143*
X02206*
Y01143*
X02206*
Y01144*
X02206*
Y01144*
X02206*
Y01144*
X02206*
Y01144*
X02206*
Y01145*
X02207*
Y01145*
X02207*
Y01146*
X02207*
Y01147*
X02207*
Y01151*
X02207*
Y01154*
X02207*
Y01156*
X02208*
Y01157*
X02208*
Y01158*
X02208*
Y01159*
X02208*
Y0116*
X02208*
Y01161*
X02208*
Y01161*
X02209*
Y01162*
X02209*
Y01163*
X02209*
Y01163*
X02209*
Y01164*
X02209*
Y01164*
X02209*
Y01165*
X0221*
Y01165*
X0221*
Y01166*
X0221*
Y01166*
X0221*
Y01167*
X0221*
Y01167*
X0221*
Y01168*
X02211*
Y01168*
X02211*
Y01168*
X02211*
Y01169*
X02211*
Y01169*
X02211*
Y01169*
X02211*
Y0117*
X02212*
Y0117*
X02212*
Y0117*
X02212*
Y01171*
X02212*
Y01171*
X02212*
Y01171*
X02212*
Y01172*
X02213*
Y01172*
X02213*
Y01172*
X02213*
Y01172*
X02213*
Y01173*
X02213*
Y01173*
X02213*
Y01173*
X02214*
Y01174*
X02214*
Y01174*
X02214*
Y01174*
X02214*
Y01174*
X02214*
Y01175*
X02214*
Y01174*
X02214*
Y01172*
X02214*
Y01166*
X02214*
Y01164*
X02214*
Y01163*
X02215*
Y01162*
X02215*
Y01161*
X02215*
Y01161*
X02215*
Y0116*
X02215*
Y0116*
X02215*
Y01159*
X02216*
Y01159*
X02216*
Y01158*
X02216*
Y01158*
X02216*
Y01162*
X02216*
Y01165*
X02216*
Y01166*
X02217*
Y01168*
X02217*
Y01164*
X02217*
Y01162*
X02217*
Y01161*
X02217*
Y0116*
X02217*
Y01159*
X02218*
Y01158*
X02218*
Y01158*
X02218*
Y01157*
X02218*
Y01156*
X02218*
Y01156*
X02218*
Y01155*
X02219*
Y01155*
X02219*
Y01154*
X02219*
Y01153*
X02219*
Y01153*
X02219*
Y01153*
X02219*
Y01152*
X0222*
Y01152*
X0222*
Y01151*
X0222*
Y01151*
X0222*
Y0115*
X0222*
Y0115*
X0222*
Y0115*
X02221*
Y01149*
X02221*
Y01149*
X02221*
Y01149*
X02221*
Y01148*
X02221*
Y01148*
X02221*
Y01148*
X02222*
Y01148*
X02222*
Y01147*
X02222*
Y01147*
X02222*
Y01147*
X02222*
Y01147*
X02222*
Y01146*
X02223*
Y01146*
X02223*
Y01146*
X02223*
Y01146*
X02223*
Y01146*
X02223*
Y01145*
X02223*
Y01145*
X02224*
Y01145*
X02224*
Y01145*
X02224*
Y01145*
X02224*
Y01144*
X02224*
Y01144*
X02224*
Y01144*
X02225*
Y01144*
X02225*
Y01144*
X02225*
Y01143*
X02225*
Y01143*
X02225*
Y01143*
X02225*
Y01143*
X02226*
Y01143*
X02226*
Y01142*
X02226*
Y01142*
X02226*
Y01142*
X02226*
Y01142*
X02226*
Y01142*
X02227*
Y01141*
X02227*
Y01141*
X02227*
Y01141*
X02227*
Y01141*
X02227*
Y01141*
X02227*
Y01141*
X02228*
Y0114*
X02228*
Y0114*
X02228*
Y0114*
X02228*
Y0114*
X02228*
Y0114*
X02228*
Y01139*
X02229*
Y01139*
X02229*
Y01139*
X02229*
Y01139*
X02229*
Y01139*
X02229*
Y01138*
X02229*
Y01138*
X0223*
Y01138*
X0223*
Y01138*
X0223*
Y01137*
X0223*
Y01137*
X0223*
Y01137*
X0223*
Y01137*
X02231*
Y01136*
X02231*
Y01136*
X02231*
Y01136*
X02231*
Y01135*
X02231*
Y01135*
X02231*
Y01135*
X02232*
Y01134*
X02232*
Y01134*
X02232*
Y01134*
X02232*
Y01133*
X02232*
Y01133*
X02232*
Y01133*
X02233*
Y01132*
X02233*
Y01132*
X02233*
Y01131*
X02233*
Y01131*
X02233*
Y01131*
X02233*
Y0113*
X02234*
Y0113*
X02234*
Y01129*
X02234*
Y01129*
X02234*
Y01128*
X02234*
Y01128*
X02234*
Y01127*
X02235*
Y01126*
X02235*
Y01126*
X02235*
Y01125*
X02235*
Y01124*
X02235*
Y01123*
X02235*
Y01122*
X02236*
Y0112*
X02236*
Y01116*
X02236*
Y01114*
X02235*
Y01113*
X02235*
Y01112*
X02235*
Y01112*
X02235*
Y01111*
X02235*
Y0111*
X02235*
Y0111*
X02234*
Y01109*
X02234*
Y01109*
X02234*
Y01108*
X02234*
Y01108*
X02234*
Y01108*
X02234*
Y01107*
X02233*
Y01107*
X02233*
Y01107*
X02233*
Y01106*
X02233*
Y01106*
X02233*
Y01106*
X02233*
Y01105*
X02232*
Y01105*
X02232*
Y01105*
X02232*
Y01105*
X02232*
Y01104*
X02232*
Y01104*
X02232*
Y01104*
X02231*
Y01104*
X02231*
Y01103*
X02231*
Y01103*
X02231*
Y01103*
X02231*
Y01103*
X02231*
Y01103*
X0223*
Y01103*
X0223*
Y01102*
X0223*
Y01102*
X0223*
Y01102*
X0223*
Y01102*
X0223*
Y01102*
X02229*
Y01102*
X02229*
Y01101*
X02229*
Y01101*
X02229*
Y01101*
X02229*
Y01101*
X02229*
Y01101*
X02228*
Y01101*
X02228*
Y011*
X02228*
Y011*
X02228*
Y011*
X02227*
Y011*
X02227*
Y011*
X02227*
Y011*
X02227*
Y01099*
X02226*
Y01099*
X02226*
Y01099*
X02226*
Y01099*
X02226*
Y01099*
X02225*
Y01099*
X02225*
Y01098*
X02225*
Y01098*
X02224*
Y01098*
X02224*
Y01098*
X02224*
Y01098*
X02223*
Y01098*
X02223*
Y01097*
X02222*
Y01097*
X02222*
Y01097*
X02222*
Y01097*
X02221*
Y01097*
X02221*
Y01097*
X0222*
Y01096*
X02219*
Y01096*
X02219*
Y01096*
X02218*
Y01096*
X02217*
Y01096*
X02216*
Y01096*
X02215*
Y01095*
X02213*
Y01095*
X02214*
Y01095*
X02214*
Y01095*
X02214*
Y01095*
X02214*
Y01094*
X02214*
Y01094*
X02214*
Y01094*
X02214*
Y01095*
X02213*
Y01095*
X02212*
Y01095*
X02211*
Y01095*
X02208*
Y01095*
X02205*
Y01095*
X02202*
Y01095*
X02201*
Y01095*
X02202*
Y01095*
X02202*
Y01095*
X02202*
Y01094*
X02202*
Y01094*
X02202*
Y01094*
X02202*
Y01094*
X02203*
Y01094*
X02203*
Y01094*
X02203*
Y01093*
X02203*
Y01093*
X02204*
Y01093*
X02202*
Y01093*
X02201*
Y01093*
X022*
Y01094*
X022*
Y01094*
X02199*
Y01094*
X02199*
Y01094*
X02199*
Y01094*
X02198*
Y01094*
X02198*
Y01095*
X02198*
Y01095*
X02197*
Y01095*
X02197*
Y01095*
X02197*
Y01095*
X02196*
Y01095*
X02196*
Y01096*
X02196*
Y01096*
X02196*
Y01096*
X02195*
Y01096*
X02195*
Y01096*
X02195*
Y01095*
X02195*
Y01095*
X02195*
Y01095*
X02195*
Y01095*
X02196*
Y01094*
X02196*
Y01094*
X02196*
Y01094*
X02196*
Y01094*
X02196*
Y01094*
X02196*
Y01094*
X02197*
Y01093*
X02197*
Y01093*
X02197*
Y01093*
X02197*
Y01093*
X02197*
Y01093*
X02197*
Y01093*
X02196*
Y01093*
X02196*
Y01093*
X02196*
Y01093*
X02196*
Y01093*
X02195*
Y01094*
X02195*
Y01094*
X02195*
Y01094*
X02195*
Y01094*
X02195*
Y01094*
X02194*
Y01094*
X02194*
Y01095*
X02194*
Y01095*
X02194*
Y01095*
X02194*
Y01095*
X02193*
Y01095*
X02193*
Y01095*
X02193*
Y01096*
X02193*
Y01096*
X02193*
Y01096*
X02192*
Y01096*
X02192*
Y01096*
X02192*
Y01096*
X02192*
Y01097*
X02192*
Y01097*
X02191*
Y01097*
X02191*
Y01097*
X02191*
Y01097*
X02191*
Y01097*
X0219*
Y01098*
X0219*
Y01098*
X0219*
Y01098*
X02189*
Y01098*
X02189*
Y01098*
X02189*
Y01098*
X02188*
Y01099*
X02188*
Y01099*
X02187*
Y01099*
X02187*
Y01099*
X02187*
Y01099*
X02186*
Y01099*
X02186*
Y011*
X02185*
Y011*
X02185*
Y011*
X02184*
Y011*
X02184*
Y011*
X02183*
Y011*
X02183*
Y01101*
X02182*
Y01101*
X02182*
Y01101*
X02182*
Y01101*
X02181*
Y01101*
X02181*
Y01101*
X0218*
Y01102*
X0218*
Y01102*
X0218*
Y01102*
X02179*
Y01102*
X02179*
Y01102*
X02179*
Y01102*
X02178*
Y01103*
X02178*
Y01103*
X02178*
Y01103*
X02177*
Y01103*
X02177*
Y01103*
X02177*
Y01103*
X02176*
Y01104*
X02176*
Y01104*
X02175*
Y01104*
X02175*
Y01104*
X02175*
Y01104*
X02174*
Y01104*
X02174*
Y01105*
X02174*
Y01105*
X02173*
Y01105*
X02173*
Y01105*
X02172*
Y01105*
X02172*
Y01105*
X02172*
Y01106*
X02171*
Y01106*
X02171*
Y01106*
X0217*
Y01106*
X0217*
Y01106*
X02169*
Y01106*
X02169*
Y01107*
X02169*
Y01107*
X02168*
Y01107*
X02168*
Y01106*
X02168*
Y01106*
X02167*
Y01106*
X02167*
Y01106*
X02167*
Y01104*
X02167*
Y01105*
X02167*
Y01105*
X02167*
Y01106*
X02166*
Y01107*
X02167*
Y01107*
X02166*
Y01107*
X02165*
Y01107*
X02165*
Y01106*
X02165*
Y01106*
X02164*
Y01106*
X02164*
Y01106*
X02164*
Y01106*
X02163*
Y01106*
X02163*
Y01105*
X02163*
Y01105*
X02163*
Y01105*
X02163*
Y01105*
X02162*
Y01105*
X02162*
Y01105*
X02162*
Y01104*
X02162*
Y01104*
X02162*
Y01104*
X02162*
Y01104*
X02161*
Y01104*
X02161*
Y01103*
X02161*
Y01103*
X02161*
Y01103*
X02161*
Y01104*
X02161*
Y01105*
X0216*
Y01106*
X0216*
Y01108*
X0216*
Y01108*
X0216*
Y01108*
X0216*
Y01108*
X02159*
Y01107*
X02159*
Y01107*
X02159*
Y01107*
X02159*
Y01107*
X02158*
Y01107*
X02158*
Y01107*
X02158*
Y01106*
X02158*
Y01106*
X02158*
Y01106*
X02157*
Y01106*
X02157*
Y01106*
X02157*
Y01106*
X02157*
Y01105*
X02157*
Y01105*
X02157*
Y01105*
X02156*
Y01105*
X02156*
Y01105*
X02156*
Y01104*
X02156*
Y01105*
X02156*
Y01106*
X02156*
Y01106*
X02156*
Y01107*
X02157*
Y01107*
X02157*
Y01108*
X02157*
Y01108*
X02157*
Y01108*
X02157*
Y01108*
X02156*
Y01108*
X02156*
Y01108*
X02156*
Y01108*
X02156*
Y01108*
X02155*
Y01107*
X02155*
Y01107*
X02155*
Y01107*
X02154*
Y01107*
X02154*
Y01107*
X02153*
Y01107*
X02152*
Y01106*
X02151*
Y01106*
X02149*
Y01106*
X02146*
Y01106*
X02143*
Y01106*
X02141*
Y01106*
X0214*
Y01105*
X02139*
Y01105*
X02138*
Y01105*
X02137*
Y01105*
X02137*
Y01105*
X02136*
Y01105*
X02136*
Y01104*
X02135*
Y01104*
X02135*
Y01104*
X02135*
Y01104*
X02134*
Y01104*
X02134*
Y01104*
X02134*
Y01103*
X02134*
Y01103*
X02133*
Y01103*
X02133*
Y01103*
X02133*
Y01103*
X02133*
Y01103*
X02133*
Y01103*
X02133*
Y01104*
X02133*
Y01104*
X02133*
Y01105*
X02133*
Y01105*
X02133*
Y01106*
X02134*
Y01106*
X02134*
Y01106*
X02134*
Y01107*
X02134*
Y01107*
X02134*
Y01108*
X02134*
Y01108*
X02135*
Y01108*
X02135*
Y01109*
X02135*
Y01109*
X02135*
Y01109*
X02135*
Y0111*
X02135*
Y0111*
X02136*
Y0111*
X02136*
Y0111*
X02136*
Y01111*
X02136*
Y01111*
X02136*
Y01111*
X02136*
Y01111*
X02137*
Y01112*
X02137*
Y01112*
X02137*
Y01112*
X02137*
Y01112*
X02137*
Y01113*
X02137*
Y01113*
X02138*
Y01113*
X02138*
Y01113*
X02138*
Y01114*
X02138*
Y01114*
X02138*
Y01114*
X02138*
Y01114*
X02139*
Y01114*
X02139*
Y01115*
X02139*
Y01115*
X02139*
Y01115*
X02139*
Y01115*
X02139*
Y01115*
X0214*
Y01116*
X0214*
Y01116*
X0214*
Y01116*
X0214*
Y01116*
X0214*
Y01116*
X0214*
Y01116*
X02141*
Y01117*
X02141*
Y01117*
X02141*
Y01117*
X02141*
Y01117*
X02141*
Y01117*
X02141*
Y01118*
X02142*
Y01118*
X02142*
Y01118*
X02142*
Y01118*
X02142*
Y01118*
X02142*
Y01118*
X02142*
Y01119*
X02143*
Y01119*
X02143*
Y01119*
X02143*
Y01119*
X02143*
Y01119*
X02143*
Y01119*
X02144*
Y0112*
X02144*
Y0112*
X02144*
Y0112*
X02144*
Y0112*
X02144*
Y0112*
X02145*
Y0112*
X02145*
Y01121*
X02145*
Y01121*
X02145*
Y01121*
X02145*
Y01121*
X02146*
Y01121*
X02146*
Y01121*
X02146*
Y01122*
X02146*
Y01122*
X02146*
Y01122*
X02147*
Y01122*
X02147*
Y01122*
X02147*
Y01122*
X02147*
Y01123*
X02147*
Y01123*
X02148*
Y01123*
X02148*
Y01123*
X02148*
Y01123*
X02148*
Y01123*
X02149*
Y01124*
X02149*
Y01124*
X02149*
Y01124*
X02149*
Y01124*
X02148*
Y01125*
X02148*
Y01125*
X02148*
Y01125*
X02148*
Y01125*
X02148*
Y01126*
X02148*
Y01126*
X02147*
Y01126*
X02147*
Y01126*
X02147*
Y01127*
X02146*
Y01127*
X02145*
Y01127*
X02144*
Y01127*
X02143*
Y01127*
X02143*
Y01128*
X02143*
Y01128*
X02142*
Y01128*
X02142*
Y01128*
X02141*
Y01128*
X02141*
Y01128*
X02141*
Y01129*
X02141*
Y01129*
X0214*
Y01129*
X0214*
Y01129*
X0214*
Y01129*
X02139*
Y01129*
X02139*
Y0113*
X02139*
Y0113*
X02139*
Y0113*
X02139*
Y0113*
X02138*
Y0113*
X02138*
Y0113*
X02138*
Y0113*
X02138*
Y01131*
X02138*
Y01131*
X02137*
Y01131*
X02137*
Y01131*
X02137*
Y01131*
X02137*
Y01131*
X02137*
Y01132*
X02137*
Y01131*
X02137*
Y01131*
X02138*
Y01131*
X02138*
Y01131*
X02139*
Y01131*
X02139*
Y01131*
X0214*
Y0113*
X02141*
Y01131*
X02141*
Y01131*
X02141*
Y01131*
X02141*
Y01131*
X02141*
Y01132*
X0214*
Y01132*
X0214*
Y01132*
X0214*
Y01132*
X0214*
Y01132*
X0214*
Y01132*
X02139*
Y01133*
X02139*
Y01133*
X02139*
Y01133*
X02139*
Y01133*
X02139*
Y01133*
X02139*
Y01133*
X02138*
Y01134*
X02138*
Y01134*
X02138*
Y01134*
X02138*
Y01134*
X02137*
Y01134*
X02137*
Y01134*
X02137*
Y01135*
X02137*
Y01135*
X02136*
Y01135*
X02136*
Y01135*
X02136*
Y01135*
X02136*
Y01135*
X02137*
Y01136*
X02137*
Y01136*
X02138*
Y01136*
X02139*
Y01136*
X02138*
Y01136*
X02138*
Y01136*
X02138*
Y01137*
X02138*
Y01137*
X02138*
Y01137*
X02137*
Y01137*
X02137*
Y01137*
X02137*
Y01137*
X02137*
Y01138*
X02137*
Y01138*
X02137*
Y01138*
X02136*
Y01138*
X02136*
Y01138*
X02136*
Y01139*
X02136*
Y01139*
X02136*
Y01139*
X02136*
Y01139*
X02135*
Y01139*
X02135*
Y0114*
X02135*
Y0114*
X02135*
Y0114*
X02135*
Y0114*
X02135*
Y01141*
X02134*
Y01141*
X02134*
Y01141*
X02134*
Y01141*
X02134*
Y01142*
X02134*
Y01142*
X02134*
Y01143*
X02133*
Y01143*
X02133*
Y01143*
X02133*
Y01144*
X02133*
Y01145*
X02133*
Y01145*
X02133*
Y01147*
X02132*
Y01148*
X02133*
Y01148*
X02133*
Y01148*
X02133*
Y01147*
X02133*
Y01147*
X02133*
Y01147*
X02133*
Y01147*
X02134*
Y01146*
X02134*
Y01146*
X02134*
Y01146*
X02134*
Y01146*
X02134*
Y01146*
X02134*
Y01145*
X02135*
Y01145*
X02135*
Y01145*
X02135*
Y01145*
X02135*
Y01145*
X02135*
Y01145*
X02135*
Y01144*
X02136*
Y01144*
X02136*
Y01144*
X02136*
Y01144*
X02136*
Y01144*
X02136*
Y01144*
X02137*
Y01143*
X02137*
Y01143*
X02137*
Y01143*
X02137*
Y01143*
X02138*
Y01143*
X02138*
Y01143*
X02139*
Y01143*
X02139*
Y01143*
X02139*
Y01144*
X02139*
Y01144*
X02139*
Y01145*
X02139*
Y01145*
X02138*
Y01145*
X02138*
Y01146*
X02138*
Y01146*
X02138*
Y01147*
X02138*
Y01147*
X02138*
Y01148*
X02137*
Y01148*
X02137*
Y01149*
X02137*
Y01149*
X02137*
Y0115*
X02137*
Y0115*
X02137*
Y01151*
X02136*
Y01152*
X02136*
Y01152*
X02136*
Y01153*
X02136*
Y01154*
X02136*
Y01154*
X02136*
Y01155*
X02135*
Y01156*
X02135*
Y01157*
X02135*
Y01158*
X02135*
Y01159*
X02135*
Y01159*
X02135*
Y0116*
X02134*
Y01161*
X02134*
Y01163*
X02134*
Y01164*
X02134*
Y01165*
X02134*
Y01167*
X02134*
Y01169*
X02133*
Y01171*
X02134*
Y01171*
X02134*
Y01172*
X02134*
Y01172*
X02134*
Y01172*
X02135*
Y01172*
X02135*
Y01172*
X02135*
Y01172*
X02135*
Y01173*
X02135*
Y01173*
X02136*
Y01173*
X02136*
Y01173*
X02136*
Y01173*
X02136*
Y01173*
X02137*
Y01174*
X02137*
Y01174*
X02137*
Y01174*
X02137*
Y01174*
X02138*
Y01174*
X02138*
Y01174*
X02138*
Y01175*
X02139*
Y01175*
X02139*
Y01175*
X02139*
Y01175*
X0214*
Y01175*
X0214*
Y01175*
X0214*
Y01176*
X02141*
Y01176*
X02141*
Y01176*
X02142*
Y01176*
X02142*
Y01176*
X02143*
Y01176*
X02143*
Y01177*
X02144*
Y01177*
X02145*
Y01177*
X02145*
Y01177*
X02146*
Y01177*
X02147*
Y01177*
X0215*
Y01178*
X02151*
Y01177*
X02153*
Y01177*
X02155*
Y01177*
X02156*
Y01177*
X02156*
Y01177*
X02157*
Y01177*
X02158*
Y01176*
X02158*
Y01176*
X02159*
Y01176*
X02159*
Y01176*
X0216*
Y01176*
X02161*
Y01176*
X02161*
Y01176*
X02161*
Y01176*
X02162*
Y01176*
X02162*
Y01177*
X02163*
Y01177*
X02163*
Y01177*
X02164*
Y01177*
X02164*
Y01177*
X02165*
Y01177*
X02165*
Y01178*
X02166*
Y01178*
X02167*
Y01178*
X02168*
Y01178*
X02169*
Y01178*
X02171*
Y01178*
X02173*
Y01178*
G37*
G36*
X02228Y01165D02*
X02227D01*
Y01165*
X02228*
Y01165*
G37*
G36*
X02356Y01151D02*
X02356D01*
Y01151*
X02356*
Y01151*
X02356*
Y01151*
X02356*
Y01151*
G37*
G36*
X02153Y01217D02*
X02223D01*
Y01217*
X02223*
Y01215*
X02224*
Y01216*
X02224*
Y01216*
X02224*
Y01216*
X02224*
Y01216*
X02224*
Y01217*
X02224*
Y01217*
X02225*
Y01217*
X02225*
Y01217*
X02225*
Y01218*
X02225*
Y01218*
X02225*
Y01218*
X02225*
Y01218*
X02226*
Y01219*
X02226*
Y01219*
X02226*
Y01219*
X02226*
Y01219*
X02226*
Y0122*
X02226*
Y0122*
X02227*
Y0122*
X02227*
Y0122*
X02227*
Y01221*
X02227*
Y01221*
X02227*
Y01221*
X02227*
Y01221*
X02228*
Y01222*
X02228*
Y01222*
X02228*
Y01222*
X02228*
Y01222*
X02228*
Y01222*
X02228*
Y01222*
X02228*
Y01222*
X02228*
Y01222*
X02228*
Y01221*
X02228*
Y01221*
X02228*
Y01221*
X02227*
Y0122*
X02227*
Y0122*
X02227*
Y0122*
X02227*
Y0122*
X02227*
Y01219*
X02227*
Y01219*
X02226*
Y01219*
X02226*
Y01218*
X02226*
Y01218*
X02226*
Y01218*
X02226*
Y01217*
X02226*
Y01217*
X02225*
Y01217*
X02225*
Y01216*
X02225*
Y01216*
X02225*
Y01216*
X02225*
Y01216*
X02225*
Y01215*
X02224*
Y01215*
X02224*
Y01215*
X02224*
Y01214*
X02224*
Y01214*
X02224*
Y01214*
X02224*
Y01213*
X02223*
Y01204*
X02223*
Y01204*
X02219*
Y01204*
X02219*
Y01203*
X02219*
Y01203*
X02218*
Y01203*
X02218*
Y01202*
X02218*
Y01202*
X02218*
Y01202*
X02218*
Y01201*
X02218*
Y01201*
X02217*
Y012*
X02217*
Y012*
X02217*
Y012*
X02217*
Y01199*
X02217*
Y01199*
X02217*
Y01198*
X02216*
Y01198*
X02216*
Y01198*
X02216*
Y01197*
X02216*
Y01197*
X02216*
Y01196*
X02216*
Y01196*
X02215*
Y01196*
X02215*
Y01195*
X02215*
Y01195*
X02215*
Y01194*
X02215*
Y01194*
X02215*
Y01194*
X02214*
Y01193*
X02214*
Y01193*
X02214*
Y01192*
X02214*
Y01192*
X02214*
Y01191*
X02214*
Y01191*
X02213*
Y01191*
X02213*
Y0119*
X02213*
Y0119*
X02213*
Y01189*
X02213*
Y01189*
X02213*
Y01188*
X02212*
Y01188*
X02212*
Y01187*
X02212*
Y01187*
X02212*
Y01186*
X02212*
Y01186*
X02212*
Y01185*
X02211*
Y01185*
X02211*
Y01184*
X02211*
Y01184*
X02211*
Y01183*
X02211*
Y01183*
X02211*
Y01182*
X0221*
Y01182*
X0221*
Y01181*
X0221*
Y01181*
X0221*
Y0118*
X0221*
Y0118*
X0221*
Y01179*
X02209*
Y01179*
X02209*
Y01178*
X02209*
Y01178*
X02209*
Y01177*
X02209*
Y01177*
X02209*
Y01176*
X02208*
Y01175*
X02208*
Y01175*
X02208*
Y01174*
X02208*
Y01174*
X02208*
Y01173*
X02208*
Y01172*
X02207*
Y01172*
X02207*
Y01171*
X02207*
Y0117*
X02207*
Y0117*
X02207*
Y01169*
X02207*
Y01168*
X02206*
Y01168*
X02206*
Y01167*
X02206*
Y01166*
X02206*
Y01166*
X02206*
Y01165*
X02206*
Y01164*
X02205*
Y01163*
X02205*
Y01163*
X02205*
Y01162*
X02205*
Y01161*
X02205*
Y0116*
X02205*
Y01159*
X02204*
Y01159*
X02204*
Y01158*
X02204*
Y01157*
X02204*
Y01156*
X02204*
Y01155*
X02204*
Y01154*
X02203*
Y01153*
X02203*
Y01152*
X02203*
Y01151*
X02203*
Y01149*
X02203*
Y01148*
X02203*
Y01147*
X02202*
Y01146*
X02202*
Y01146*
X02202*
Y01146*
X02201*
Y01146*
X02201*
Y01146*
X02201*
Y01145*
X02201*
Y01145*
X02201*
Y01145*
X022*
Y01144*
X022*
Y01144*
X022*
Y01144*
X02199*
Y01144*
X02199*
Y01144*
X02199*
Y01144*
X02198*
Y01143*
X02197*
Y01143*
X02196*
Y01144*
X02196*
Y01146*
X02196*
Y01147*
X02197*
Y01148*
X02197*
Y01149*
X02197*
Y0115*
X02197*
Y01151*
X02197*
Y01152*
X02197*
Y01153*
X02198*
Y01154*
X02198*
Y01155*
X02198*
Y01155*
X02198*
Y01156*
X02198*
Y01157*
X02198*
Y01158*
X02199*
Y01158*
X02199*
Y01159*
X02199*
Y0116*
X02199*
Y0116*
X02199*
Y01161*
X02199*
Y01162*
X022*
Y01162*
X022*
Y01163*
X022*
Y01164*
X022*
Y01164*
X022*
Y01165*
X022*
Y01165*
X02201*
Y01166*
X02201*
Y01166*
X02201*
Y01167*
X02201*
Y01168*
X02201*
Y01168*
X02201*
Y01169*
X02202*
Y01169*
X02202*
Y0117*
X02202*
Y0117*
X02202*
Y01171*
X02202*
Y01171*
X02202*
Y01172*
X02203*
Y01172*
X02203*
Y01173*
X02203*
Y01173*
X02203*
Y01174*
X02203*
Y01174*
X02203*
Y01175*
X02204*
Y01175*
X02204*
Y01176*
X02204*
Y01176*
X02204*
Y01177*
X02204*
Y01177*
X02204*
Y01177*
X02205*
Y01178*
X02205*
Y01178*
X02205*
Y01179*
X02205*
Y01179*
X02205*
Y0118*
X02205*
Y0118*
X02206*
Y0118*
X02206*
Y01181*
X02206*
Y01181*
X02206*
Y01182*
X02206*
Y01182*
X02206*
Y01183*
X02207*
Y01183*
X02207*
Y01183*
X02207*
Y01184*
X02207*
Y01184*
X02207*
Y01185*
X02207*
Y01185*
X02208*
Y01185*
X02208*
Y01186*
X02208*
Y01186*
X02208*
Y01186*
X02208*
Y01187*
X02208*
Y01187*
X02209*
Y01188*
X02209*
Y01188*
X02209*
Y01188*
X02209*
Y01189*
X02209*
Y01189*
X02209*
Y01189*
X0221*
Y0119*
X0221*
Y0119*
X0221*
Y01191*
X0221*
Y01191*
X0221*
Y01191*
X0221*
Y01192*
X02211*
Y01192*
X02211*
Y01192*
X02211*
Y01193*
X02211*
Y01193*
X02211*
Y01193*
X02211*
Y01194*
X02212*
Y01194*
X02212*
Y01194*
X02212*
Y01195*
X02212*
Y01195*
X02212*
Y01195*
X02212*
Y01196*
X02213*
Y01196*
X02213*
Y01196*
X02213*
Y01197*
X02213*
Y01197*
X02213*
Y01197*
X02213*
Y01198*
X02214*
Y01198*
X02214*
Y01198*
X02214*
Y01199*
X02214*
Y01199*
X02214*
Y01199*
X02214*
Y012*
X02215*
Y012*
X02215*
Y012*
X02215*
Y01201*
X02215*
Y01201*
X02215*
Y01201*
X02215*
Y01202*
X02216*
Y01202*
X02216*
Y01202*
X02216*
Y01203*
X02216*
Y01203*
X02216*
Y01203*
X02216*
Y01203*
X02217*
Y01204*
X02217*
Y01204*
X02153*
Y01191*
X02141*
Y01231*
X02153*
Y01217*
G37*
G36*
X02144Y01126D02*
X02145D01*
Y01126*
X02147*
Y01126*
X02147*
Y01126*
X02147*
Y01125*
X02147*
Y01125*
X02147*
Y01125*
X02148*
Y01124*
X02148*
Y01124*
X02148*
Y01124*
X02148*
Y01124*
Y01123*
X02148*
Y01123*
X02147*
Y01123*
X02147*
Y01123*
X02147*
Y01123*
X02146*
Y01123*
X02146*
Y01122*
X02146*
Y01122*
X02146*
Y01122*
X02146*
Y01122*
X02145*
Y01122*
X02145*
Y01122*
X02145*
Y01121*
X02145*
Y01121*
X02145*
Y01121*
X02144*
Y01121*
X02144*
Y01121*
X02144*
Y01121*
X02144*
Y0112*
X02144*
Y0112*
X02144*
Y0112*
X02143*
Y0112*
X02143*
Y0112*
X02143*
Y0112*
X02143*
Y01119*
X02143*
Y01119*
X02142*
Y01119*
X02142*
Y01119*
X02142*
Y01119*
X02142*
Y01119*
X02142*
Y01118*
X02142*
Y01118*
X02141*
Y01118*
X02141*
Y01118*
X02141*
Y01118*
X02141*
Y01117*
X02141*
Y01117*
X02141*
Y01117*
X0214*
Y01117*
X0214*
Y01117*
X0214*
Y01117*
X0214*
Y01116*
X0214*
Y01116*
X0214*
Y01116*
X02139*
Y01116*
X02139*
Y01116*
X02139*
Y01116*
X02139*
Y01115*
X02139*
Y01115*
X02139*
Y01115*
X02138*
Y01115*
X02138*
Y01115*
X02138*
Y01114*
X02138*
Y01114*
X02138*
Y01114*
X02137*
Y01114*
X02136*
Y01114*
X02135*
Y01114*
X02133*
Y01113*
X02132*
Y01114*
X02132*
Y01114*
X02133*
Y01114*
X02133*
Y01114*
X02133*
Y01115*
X02133*
Y01115*
X02133*
Y01115*
X02133*
Y01115*
X02134*
Y01116*
X02134*
Y01116*
X02134*
Y01116*
X02134*
Y01116*
X02134*
Y01117*
X02134*
Y01117*
X02135*
Y01117*
X02135*
Y01117*
X02135*
Y01118*
X02135*
Y01118*
X02135*
Y01118*
X02135*
Y01118*
X02136*
Y01118*
X02136*
Y01119*
X02136*
Y01119*
X02136*
Y01119*
X02136*
Y01119*
X02136*
Y0112*
X02137*
Y0112*
X02137*
Y0112*
X02137*
Y0112*
X02137*
Y0112*
X02137*
Y01121*
X02137*
Y01121*
X02138*
Y01121*
X02138*
Y01121*
X02138*
Y01121*
X02138*
Y01122*
X02138*
Y01122*
X02138*
Y01122*
X02139*
Y01122*
X02139*
Y01122*
X02139*
Y01123*
X02139*
Y01123*
X02139*
Y01123*
X02139*
Y01123*
X0214*
Y01123*
X0214*
Y01123*
X0214*
Y01124*
X0214*
Y01124*
X0214*
Y01124*
X0214*
Y01124*
X02141*
Y01124*
X02141*
Y01124*
X02141*
Y01125*
X02141*
Y01125*
X02141*
Y01125*
X02141*
Y01125*
X02142*
Y01125*
X02142*
Y01125*
X02142*
Y01126*
X02142*
Y01126*
X02142*
Y01126*
X02143*
Y01126*
X02143*
Y01126*
X02143*
Y01126*
X02144*
Y01126*
G37*
G36*
X02168Y01106D02*
X02169D01*
Y01106*
X02169*
Y01106*
X0217*
Y01105*
X0217*
Y01105*
X02171*
Y01105*
X02171*
Y01105*
X02171*
Y01105*
X02172*
Y01105*
X02172*
Y01104*
X02173*
Y01104*
X02173*
Y01104*
X02173*
Y01104*
X02174*
Y01104*
X02174*
Y01104*
X02175*
Y01103*
X02175*
Y01103*
X02175*
Y01103*
X02176*
Y01103*
X02176*
Y01103*
X02176*
Y01103*
X02177*
Y01102*
X02177*
Y01102*
X02177*
Y01102*
X02177*
Y01102*
X02177*
Y01102*
X02178*
Y01102*
X02178*
Y01101*
X02178*
Y01101*
X02178*
Y01101*
X02178*
Y01101*
X02178*
Y01101*
X02179*
Y011*
X02179*
Y011*
X02179*
Y011*
X02179*
Y011*
X02179*
Y011*
X02179*
Y01099*
X0218*
Y01099*
X0218*
Y01099*
X0218*
Y01099*
X0218*
Y01099*
X0218*
Y01099*
X0218*
Y01098*
X02181*
Y01098*
X02181*
Y01098*
X02181*
Y01098*
X02181*
Y01098*
X02181*
Y01097*
X02181*
Y01097*
X02182*
Y01097*
X02182*
Y01097*
X02182*
Y01097*
X02182*
Y01097*
X02182*
Y01096*
X02182*
Y01096*
X02183*
Y01096*
X02183*
Y01096*
X02183*
Y01096*
X02183*
Y01096*
X02183*
Y01095*
X02183*
Y01095*
X02184*
Y01095*
X02184*
Y01095*
X02184*
Y01095*
X02184*
Y01095*
X02184*
Y01094*
X02185*
Y01094*
X02185*
Y01094*
X02185*
Y01094*
X02185*
Y01094*
X02185*
Y01094*
X02185*
Y01093*
X02186*
Y01093*
X02186*
Y01093*
X02186*
Y01093*
X02186*
Y01093*
X02186*
Y01093*
X02187*
Y01092*
X02187*
Y01092*
X02187*
Y01092*
X02187*
Y01092*
X02187*
Y01092*
X02187*
Y01092*
X02188*
Y01091*
X02188*
Y01091*
X02188*
Y01091*
X02188*
Y01091*
X02188*
Y01091*
X02189*
Y01091*
X02189*
Y0109*
X02189*
Y0109*
X02189*
Y0109*
X02189*
Y0109*
X0219*
Y0109*
X0219*
Y0109*
X0219*
Y01089*
X0219*
Y01089*
X0219*
Y01089*
X02191*
Y01089*
X02191*
Y01089*
X02191*
Y01089*
X02191*
Y01088*
X02191*
Y01088*
X02192*
Y01088*
X02192*
Y01088*
X02192*
Y01088*
X02192*
Y01088*
X02193*
Y01087*
X02193*
Y01087*
X02193*
Y01087*
X02193*
Y01087*
X02193*
Y01087*
X02194*
Y01087*
X02194*
Y01086*
X02194*
Y01086*
X02194*
Y01086*
X02195*
Y01086*
X02195*
Y01086*
X02195*
Y01086*
X02195*
Y01085*
X02196*
Y01085*
X02196*
Y01085*
X02196*
Y01085*
X02196*
Y01085*
X02197*
Y01085*
X02197*
Y01084*
X02197*
Y01084*
X02197*
Y01084*
X02198*
Y01084*
X02198*
Y01084*
X02198*
Y01084*
X02198*
Y01083*
X02199*
Y01083*
X02199*
Y01083*
X02199*
Y01083*
X02199*
Y01083*
X022*
Y01083*
X022*
Y01082*
X022*
Y01082*
X02201*
Y01082*
X02201*
Y01082*
X02201*
Y01082*
X02202*
Y01082*
X02202*
Y01081*
X02202*
Y01081*
X02202*
Y01082*
X02202*
Y01082*
X02202*
Y01083*
X02202*
Y01083*
X02202*
Y01084*
X02201*
Y01084*
X02201*
Y01085*
X02201*
Y01085*
X02201*
Y01086*
X02201*
Y01086*
X02201*
Y01087*
X022*
Y01087*
X022*
Y01088*
X022*
Y01089*
X022*
Y01089*
X022*
Y0109*
X022*
Y0109*
X02199*
Y01091*
X02199*
Y01092*
X02199*
Y01093*
X02199*
Y01093*
X02199*
Y01093*
X022*
Y01093*
X022*
Y01093*
X02201*
Y01093*
X02202*
Y01093*
X02204*
Y01093*
X02204*
Y01094*
X02204*
Y01094*
X02204*
Y01094*
X02204*
Y01094*
X02203*
Y01094*
X02203*
Y01095*
X02203*
Y01095*
X02205*
Y01095*
X02206*
Y01095*
X02206*
Y01094*
X02206*
Y01094*
X02206*
Y01093*
X02206*
Y01093*
X02207*
Y01092*
X02207*
Y01092*
X02207*
Y01092*
X02207*
Y01091*
X02207*
Y01091*
X02207*
Y0109*
X02208*
Y0109*
X02208*
Y0109*
X02208*
Y01089*
X02208*
Y01089*
X02208*
Y01088*
X02208*
Y01088*
X02209*
Y01088*
X02209*
Y01087*
X02209*
Y01087*
X02209*
Y01087*
X02209*
Y01086*
X02209*
Y01086*
X0221*
Y01086*
X0221*
Y01085*
X0221*
Y01085*
X0221*
Y01085*
X0221*
Y01084*
X0221*
Y01084*
X02211*
Y01084*
X02211*
Y01083*
X02211*
Y01083*
X02211*
Y01083*
X02211*
Y01082*
X02211*
Y01082*
X02212*
Y01082*
X02212*
Y01082*
X02212*
Y01081*
X02212*
Y01081*
X02212*
Y01081*
X02212*
Y0108*
X02213*
Y0108*
X02213*
Y0108*
X02213*
Y01079*
X02213*
Y01079*
X02213*
Y01079*
X02213*
Y01079*
X02214*
Y01078*
X02214*
Y01078*
X02214*
Y01078*
X02214*
Y01078*
X02214*
Y01077*
X02214*
Y01077*
X02215*
Y01077*
X02215*
Y01077*
X02215*
Y01076*
X02215*
Y01076*
X02215*
Y01076*
X02215*
Y01075*
X02216*
Y01075*
X02216*
Y01075*
X02216*
Y01075*
X02216*
Y01074*
X02216*
Y01074*
X02216*
Y01074*
X02217*
Y01074*
X02217*
Y01074*
X02217*
Y01073*
X02217*
Y01073*
X02217*
Y01073*
X02217*
Y01073*
X02218*
Y01072*
X02218*
Y01072*
X02218*
Y01072*
X02218*
Y01072*
X02218*
Y01071*
X02218*
Y01071*
X02219*
Y01071*
X02219*
Y01071*
X02219*
Y0107*
X02219*
Y0107*
X02219*
Y0107*
X02219*
Y0107*
X0222*
Y0107*
X0222*
Y01069*
X0222*
Y01069*
X0222*
Y01069*
X0222*
Y01069*
X0222*
Y01069*
X02221*
Y01068*
X02221*
Y01068*
X02221*
Y01068*
X02221*
Y01068*
X02221*
Y01067*
X02221*
Y01067*
X02222*
Y01067*
X02222*
Y01067*
X02222*
Y01067*
X02222*
Y01066*
X02222*
Y01066*
X02222*
Y01066*
X02223*
Y01066*
X02223*
Y01066*
X02223*
Y01065*
X02223*
Y01065*
X02223*
Y01065*
X02223*
Y01065*
X02224*
Y01065*
X02224*
Y01064*
X02224*
Y01064*
X02224*
Y01064*
X02224*
Y01064*
X02224*
Y01064*
X02225*
Y01063*
X02225*
Y01063*
X02225*
Y01063*
X02225*
Y01063*
X02225*
Y01063*
X02225*
Y01063*
X02226*
Y01062*
X02226*
Y01062*
X02226*
Y01062*
X02226*
Y01062*
X02226*
Y01062*
X02226*
Y01061*
X02227*
Y01061*
X02227*
Y01061*
X02227*
Y01061*
X02227*
Y01061*
X02227*
Y0106*
X02227*
Y0106*
X02228*
Y0106*
X02228*
Y0106*
X02228*
Y0106*
X02228*
Y0106*
X02228*
Y01059*
X02228*
Y01059*
X02229*
Y01059*
X02229*
Y01059*
X02229*
Y01059*
X02229*
Y01059*
X02229*
Y01058*
X02229*
Y01058*
X0223*
Y01058*
X0223*
Y01058*
X0223*
Y01058*
X0223*
Y01058*
X0223*
Y01057*
X0223*
Y01057*
X02231*
Y01057*
X02231*
Y01057*
X02231*
Y01057*
X02231*
Y01057*
X02231*
Y01056*
X02231*
Y01056*
X02232*
Y01056*
X02232*
Y01056*
X02232*
Y01056*
X02232*
Y01056*
X02232*
Y01055*
X02232*
Y01055*
X02233*
Y01055*
X02233*
Y01055*
X02233*
Y01055*
X02233*
Y01055*
X02233*
Y01054*
X02233*
Y01054*
X02234*
Y01054*
X02234*
Y01054*
X02234*
Y01054*
X02234*
Y01054*
X02234*
Y01053*
X02235*
Y01053*
X02235*
Y01053*
X02235*
Y01053*
X02235*
Y01053*
X02235*
Y01053*
X02235*
Y01052*
X02236*
Y01052*
X02236*
Y01052*
X02236*
Y01052*
X02236*
Y01052*
X02236*
Y01052*
X02237*
Y01051*
X02237*
Y01051*
X02237*
Y01051*
X02237*
Y01051*
X02237*
Y01051*
X02238*
Y01051*
X02238*
Y0105*
X02238*
Y0105*
X02238*
Y0105*
X02238*
Y0105*
X02239*
Y0105*
X02239*
Y0105*
X02239*
Y01049*
X02239*
Y01049*
X02239*
Y01049*
X0224*
Y01049*
X0224*
Y01049*
X0224*
Y01049*
X0224*
Y01048*
X0224*
Y01048*
X02241*
Y01048*
X0224*
Y01048*
X0224*
Y01048*
X0224*
Y01049*
X0224*
Y01049*
X02239*
Y01049*
X02239*
Y01049*
X02239*
Y01049*
X02239*
Y01049*
X02238*
Y0105*
X02238*
Y0105*
X02238*
Y0105*
X02238*
Y0105*
X02237*
Y0105*
X02237*
Y0105*
X02237*
Y01051*
X02236*
Y01051*
X02236*
Y01051*
X02236*
Y01051*
X02236*
Y01051*
X02235*
Y01051*
X02235*
Y01052*
X02235*
Y01052*
X02235*
Y01052*
X02234*
Y01052*
X02234*
Y01052*
X02234*
Y01052*
X02234*
Y01053*
X02233*
Y01053*
X02233*
Y01053*
X02233*
Y01053*
X02233*
Y01053*
X02232*
Y01053*
X02232*
Y01054*
X02232*
Y01054*
X02232*
Y01054*
X02231*
Y01054*
X02231*
Y01054*
X02231*
Y01054*
X0223*
Y01055*
X0223*
Y01055*
X0223*
Y01055*
X0223*
Y01055*
X02229*
Y01055*
X02229*
Y01055*
X02229*
Y01056*
X02229*
Y01056*
X02228*
Y01056*
X02228*
Y01056*
X02228*
Y01056*
X02227*
Y01056*
X02227*
Y01057*
X02227*
Y01057*
X02227*
Y01057*
X02226*
Y01057*
X02226*
Y01057*
X02226*
Y01057*
X02226*
Y01058*
X02225*
Y01058*
X02225*
Y01058*
X02225*
Y01058*
X02225*
Y01058*
X02224*
Y01058*
X02224*
Y01059*
X02224*
Y01059*
X02223*
Y01059*
X02223*
Y01059*
X02223*
Y01059*
X02223*
Y01059*
X02222*
Y0106*
X02222*
Y0106*
X02222*
Y0106*
X02222*
Y0106*
X02221*
Y0106*
X02221*
Y0106*
X02221*
Y01061*
X0222*
Y01061*
X0222*
Y01061*
X0222*
Y01061*
X0222*
Y01061*
X02219*
Y01061*
X02219*
Y01062*
X02219*
Y01062*
X02218*
Y01062*
X02218*
Y01062*
X02218*
Y01062*
X02218*
Y01062*
X02217*
Y01063*
X02217*
Y01063*
X02217*
Y01063*
X02217*
Y01063*
X02216*
Y01063*
X02216*
Y01063*
X02216*
Y01064*
X02215*
Y01064*
X02215*
Y01064*
X02215*
Y01064*
X02215*
Y01064*
X02214*
Y01064*
X02214*
Y01065*
X02214*
Y01065*
X02213*
Y01065*
X02213*
Y01065*
X02213*
Y01065*
X02213*
Y01065*
X02212*
Y01066*
X02212*
Y01066*
X02212*
Y01066*
X02212*
Y01066*
X02211*
Y01066*
X02211*
Y01066*
X02211*
Y01067*
X0221*
Y01067*
X0221*
Y01067*
X0221*
Y01067*
X0221*
Y01067*
X02209*
Y01067*
X02209*
Y01068*
X02209*
Y01068*
X02208*
Y01068*
X02208*
Y01068*
X02208*
Y01068*
X02208*
Y01068*
X02207*
Y01069*
X02207*
Y01069*
X02207*
Y01069*
X02206*
Y01069*
X02206*
Y01069*
X02206*
Y01069*
X02206*
Y0107*
X02205*
Y0107*
X02205*
Y0107*
X02205*
Y0107*
X02204*
Y0107*
X02204*
Y0107*
X02204*
Y01071*
X02204*
Y01071*
X02203*
Y01071*
X02203*
Y01071*
X02203*
Y01071*
X02202*
Y01071*
X02202*
Y01072*
X02202*
Y01072*
X02202*
Y01072*
X02201*
Y01072*
X02201*
Y01072*
X02201*
Y01072*
X022*
Y01073*
X022*
Y01073*
X022*
Y01073*
X022*
Y01073*
X02199*
Y01073*
X02199*
Y01073*
X02199*
Y01074*
X02198*
Y01074*
X02198*
Y01074*
X02198*
Y01074*
X02197*
Y01074*
X02197*
Y01074*
X02197*
Y01075*
X02197*
Y01075*
X02196*
Y01075*
X02196*
Y01075*
X02196*
Y01075*
X02195*
Y01075*
X02195*
Y01076*
X02195*
Y01076*
X02195*
Y01076*
X02194*
Y01076*
X02194*
Y01076*
X02194*
Y01076*
X02194*
Y01077*
X02193*
Y01077*
X02193*
Y01077*
X02193*
Y01077*
X02192*
Y01077*
X02192*
Y01077*
X02192*
Y01078*
X02192*
Y01078*
X02191*
Y01078*
X02191*
Y01078*
X02191*
Y01078*
X02191*
Y01078*
X0219*
Y01079*
X0219*
Y01079*
X0219*
Y01079*
X0219*
Y01079*
X02189*
Y01079*
X02189*
Y01079*
X02189*
Y0108*
X02189*
Y0108*
X02188*
Y0108*
X02188*
Y0108*
X02188*
Y0108*
X02188*
Y0108*
X02187*
Y01081*
X02187*
Y01081*
X02187*
Y01081*
X02187*
Y01081*
X02186*
Y01081*
X02186*
Y01081*
X02186*
Y01082*
X02186*
Y01082*
X02185*
Y01082*
X02185*
Y01082*
X02185*
Y01082*
X02185*
Y01082*
X02185*
Y01083*
X02184*
Y01083*
X02184*
Y01083*
X02184*
Y01083*
X02184*
Y01083*
X02183*
Y01083*
X02183*
Y01084*
X02183*
Y01084*
X02183*
Y01084*
X02183*
Y01084*
X02182*
Y01084*
X02182*
Y01084*
X02182*
Y01085*
X02182*
Y01085*
X02181*
Y01085*
X02181*
Y01085*
X02181*
Y01085*
X02181*
Y01085*
X02181*
Y01086*
X0218*
Y01086*
X0218*
Y01086*
X0218*
Y01086*
X0218*
Y01086*
X0218*
Y01086*
X02179*
Y01087*
X02179*
Y01087*
X02179*
Y01087*
X02179*
Y01087*
X02179*
Y01087*
X02178*
Y01087*
X02178*
Y01088*
X02178*
Y01088*
X02178*
Y01088*
X02178*
Y01088*
X02177*
Y01088*
X02177*
Y01088*
X02177*
Y01089*
X02177*
Y01089*
X02177*
Y01089*
X02177*
Y01089*
X02176*
Y01089*
X02176*
Y01089*
X02176*
Y0109*
X02176*
Y0109*
X02176*
Y0109*
X02175*
Y0109*
X02175*
Y0109*
X02175*
Y0109*
X02175*
Y01091*
X02175*
Y01091*
X02175*
Y01091*
X02174*
Y01091*
X02174*
Y01091*
X02174*
Y01091*
X02174*
Y01092*
X02174*
Y01092*
X02174*
Y01092*
X02173*
Y01092*
X02173*
Y01092*
X02173*
Y01092*
X02173*
Y01093*
X02173*
Y01093*
X02173*
Y01093*
X02172*
Y01093*
X02172*
Y01093*
X02172*
Y01094*
X02172*
Y01094*
X02172*
Y01094*
X02172*
Y01094*
X02171*
Y01094*
X02171*
Y01095*
X02171*
Y01095*
X02171*
Y01095*
X02171*
Y01095*
X02171*
Y01095*
X0217*
Y01096*
X0217*
Y01096*
X0217*
Y01096*
X0217*
Y01096*
X0217*
Y01096*
X0217*
Y01097*
X02169*
Y01097*
X02169*
Y01097*
X02169*
Y01097*
X02169*
Y01097*
X02169*
Y01098*
X02169*
Y01098*
X02168*
Y01098*
X02168*
Y01098*
X02168*
Y01098*
X02168*
Y01099*
X02168*
Y01099*
X02168*
Y01099*
X02167*
Y01099*
X02167*
Y011*
X02167*
Y011*
X02167*
Y011*
X02167*
Y011*
X02167*
Y01101*
X02166*
Y01101*
X02166*
Y01101*
X02166*
Y01101*
X02166*
Y01102*
X02166*
Y01102*
X02166*
Y01102*
X02165*
Y01102*
X02165*
Y01103*
X02165*
Y01103*
X02165*
Y01103*
X02165*
Y01103*
X02165*
Y01104*
X02164*
Y01104*
X02164*
Y01104*
X02164*
Y01105*
X02164*
Y01105*
X02164*
Y01105*
X02164*
Y01105*
X02164*
Y01105*
X02164*
Y01106*
X02165*
Y01106*
X02165*
Y01106*
X02165*
Y01106*
X02166*
Y01106*
X02166*
Y01105*
X02166*
Y01105*
X02166*
Y01104*
X02166*
Y01104*
X02167*
Y01104*
X02167*
Y01104*
X02167*
Y01104*
X02168*
Y01104*
X02168*
Y01106*
X02168*
Y01106*
X02168*
Y01106*
X02168*
Y01106*
G37*
%LNacoustics_4_legend_top-2*%
%LPC*%
G36*
X02143Y01593D02*
X02142D01*
Y01584*
X02143*
Y01584*
X02144*
Y01583*
X02145*
Y01583*
X02146*
Y01583*
X02148*
Y01583*
X02149*
Y01583*
X0215*
Y01583*
X02151*
Y01582*
X02153*
Y01582*
X02154*
Y01582*
X02155*
Y01582*
X02156*
Y01582*
X02158*
Y01582*
X02159*
Y01581*
X0216*
Y01581*
X02161*
Y01581*
X02163*
Y01581*
X02164*
Y01581*
X02165*
Y01581*
X02167*
Y0158*
X02168*
Y0158*
X02169*
Y0158*
X0217*
Y0158*
X02172*
Y0158*
X02173*
Y0158*
X02174*
Y01579*
X02175*
Y01579*
X02177*
Y01579*
X02178*
Y01579*
X02179*
Y01579*
X0218*
Y01579*
X02182*
Y01578*
X02183*
Y01578*
X02184*
Y01578*
X02185*
Y01578*
X02187*
Y01578*
X02188*
Y01578*
X02189*
Y01577*
X0219*
Y01577*
X02191*
Y01577*
X02193*
Y01577*
X02194*
Y01577*
X02195*
Y01577*
X02197*
Y01576*
X02198*
Y01576*
X02199*
Y01576*
X022*
Y01576*
X02202*
Y01576*
X02203*
Y01576*
X02204*
Y01575*
X02205*
Y01575*
X02206*
Y01573*
X02206*
Y01572*
X02204*
Y01572*
X02203*
Y01572*
X02202*
Y01572*
X02201*
Y01572*
X02199*
Y01572*
X02198*
Y01571*
X02197*
Y01571*
X02196*
Y01571*
X02194*
Y01571*
X02193*
Y01571*
X02192*
Y01571*
X02191*
Y0157*
X02189*
Y0157*
X02188*
Y0157*
X02187*
Y0157*
X02186*
Y0157*
X02184*
Y0157*
X02183*
Y01569*
X02182*
Y01569*
X02181*
Y01569*
X02179*
Y01569*
X02178*
Y01569*
X02177*
Y01569*
X02176*
Y01568*
X02174*
Y01568*
X02173*
Y01568*
X02172*
Y01568*
X02171*
Y01568*
X02169*
Y01568*
X02168*
Y01567*
X02167*
Y01567*
X02166*
Y01567*
X02164*
Y01567*
X02163*
Y01567*
X02162*
Y01567*
X02161*
Y01566*
X02159*
Y01566*
X02158*
Y01566*
X02157*
Y01566*
X02156*
Y01566*
X02154*
Y01566*
X02153*
Y01565*
X02152*
Y01565*
X02151*
Y01565*
X02149*
Y01565*
X02148*
Y01565*
X02147*
Y01565*
X02145*
Y01564*
X02144*
Y01564*
X02143*
Y01564*
X02142*
Y01554*
X02143*
Y01554*
X02144*
Y01554*
X02145*
Y01554*
X02146*
Y01554*
X02147*
Y01555*
X02148*
Y01555*
X02149*
Y01555*
X0215*
Y01555*
X02151*
Y01555*
X02152*
Y01555*
X02154*
Y01556*
X02155*
Y01556*
X02156*
Y01556*
X02157*
Y01556*
X02158*
Y01556*
X02159*
Y01556*
X0216*
Y01557*
X02161*
Y01557*
X02162*
Y01557*
X02163*
Y01557*
X02165*
Y01557*
X02166*
Y01557*
X02167*
Y01558*
X02168*
Y01558*
X02169*
Y01558*
X0217*
Y01558*
X02171*
Y01558*
X02172*
Y01558*
X02173*
Y01559*
X02174*
Y01559*
X02176*
Y01559*
X02177*
Y01559*
X02178*
Y01559*
X02179*
Y01559*
X0218*
Y0156*
X02181*
Y0156*
X02182*
Y0156*
X02183*
Y0156*
X02184*
Y0156*
X02185*
Y0156*
X02187*
Y01561*
X02188*
Y01561*
X02189*
Y01561*
X0219*
Y01561*
X02191*
Y01561*
X02192*
Y01561*
X02193*
Y01562*
X02194*
Y01562*
X02195*
Y01562*
X02196*
Y01562*
X02197*
Y01562*
X02199*
Y01562*
X022*
Y01563*
X02201*
Y01563*
X02202*
Y01563*
X02203*
Y01563*
X02204*
Y01563*
X02205*
Y01563*
X02206*
Y01564*
X02207*
Y01564*
X02208*
Y01564*
X0221*
Y01564*
X02211*
Y01564*
X02212*
Y01564*
X02213*
Y01565*
X02214*
Y01565*
X02215*
Y01565*
X02216*
Y01565*
X02217*
Y01565*
X02218*
Y01565*
X02219*
Y01566*
X02221*
Y01566*
X02222*
Y01566*
X02222*
Y01581*
X02221*
Y01581*
X0222*
Y01581*
X02219*
Y01581*
X02218*
Y01581*
X02217*
Y01582*
X02216*
Y01582*
X02215*
Y01582*
X02214*
Y01582*
X02212*
Y01582*
X02211*
Y01582*
X0221*
Y01583*
X02209*
Y01583*
X02208*
Y01583*
X02207*
Y01583*
X02206*
Y01583*
X02205*
Y01583*
X02204*
Y01584*
X02203*
Y01584*
X02201*
Y01584*
X022*
Y01584*
X02199*
Y01584*
X02198*
Y01584*
X02197*
Y01585*
X02196*
Y01585*
X02195*
Y01585*
X02194*
Y01585*
X02193*
Y01585*
X02192*
Y01585*
X0219*
Y01586*
X0219*
Y01586*
X02188*
Y01586*
X02187*
Y01586*
X02186*
Y01586*
X02185*
Y01586*
X02184*
Y01587*
X02183*
Y01587*
X02182*
Y01587*
X02181*
Y01587*
X0218*
Y01587*
X02179*
Y01587*
X02177*
Y01588*
X02176*
Y01588*
X02175*
Y01588*
X02174*
Y01588*
X02173*
Y01588*
X02172*
Y01588*
X02171*
Y01589*
X0217*
Y01589*
X02169*
Y01589*
X02167*
Y01589*
X02166*
Y01589*
X02165*
Y01589*
X02164*
Y0159*
X02163*
Y0159*
X02162*
Y0159*
X02161*
Y0159*
X0216*
Y0159*
X02159*
Y0159*
X02158*
Y01591*
X02156*
Y01591*
X02155*
Y01591*
X02154*
Y01591*
X02153*
Y01591*
X02152*
Y01591*
X02151*
Y01592*
X0215*
Y01592*
X02149*
Y01592*
X02148*
Y01592*
X02147*
Y01592*
X02145*
Y01592*
X02144*
Y01593*
X02143*
Y01593*
G37*
G36*
X02205Y01545D02*
X02142D01*
Y01535*
X02207*
Y01535*
X02208*
Y01535*
X02208*
Y01535*
X02209*
Y01535*
X0221*
Y01535*
X0221*
Y01534*
X0221*
Y01534*
X02211*
Y01534*
X02211*
Y01534*
X02211*
Y01534*
X02211*
Y01534*
X02212*
Y01533*
X02212*
Y01533*
X02212*
Y01533*
X02212*
Y01533*
X02212*
Y01533*
X02212*
Y01533*
X02213*
Y01532*
X02213*
Y01532*
X02213*
Y01532*
X02213*
Y01532*
X02213*
Y01531*
X02213*
Y01531*
X02214*
Y0153*
X02214*
Y0153*
X02214*
Y01529*
X02214*
Y01526*
X02214*
Y01525*
X02214*
Y01525*
X02214*
Y01524*
X02213*
Y01524*
X02213*
Y01523*
X02213*
Y01523*
X02213*
Y01523*
X02213*
Y01522*
X02213*
Y01522*
X02212*
Y01522*
X02212*
Y01522*
X02212*
Y01522*
X02212*
Y01522*
X02212*
Y01521*
X02212*
Y01521*
X02211*
Y01521*
X02211*
Y01521*
X02211*
Y01521*
X02211*
Y01521*
X0221*
Y0152*
X0221*
Y0152*
X02209*
Y0152*
X02209*
Y0152*
X02208*
Y0152*
X02208*
Y0152*
X02206*
Y01519*
X02142*
Y01509*
X02207*
Y01509*
X02208*
Y0151*
X02209*
Y0151*
X0221*
Y0151*
X02211*
Y0151*
X02211*
Y0151*
X02212*
Y0151*
X02212*
Y01511*
X02213*
Y01511*
X02213*
Y01511*
X02214*
Y01511*
X02214*
Y01511*
X02214*
Y01511*
X02215*
Y01512*
X02215*
Y01512*
X02215*
Y01512*
X02216*
Y01512*
X02216*
Y01512*
X02216*
Y01512*
X02217*
Y01513*
X02217*
Y01513*
X02217*
Y01513*
X02217*
Y01513*
X02217*
Y01513*
X02218*
Y01513*
X02218*
Y01514*
X02218*
Y01514*
X02218*
Y01514*
X02218*
Y01514*
X02219*
Y01514*
X02219*
Y01514*
X02219*
Y01515*
X02219*
Y01515*
X02219*
Y01515*
X02219*
Y01515*
X0222*
Y01515*
X0222*
Y01516*
X0222*
Y01516*
X0222*
Y01516*
X0222*
Y01516*
X0222*
Y01517*
X02221*
Y01517*
X02221*
Y01517*
X02221*
Y01518*
X02221*
Y01518*
X02221*
Y01518*
X02221*
Y01519*
X02222*
Y01519*
X02222*
Y01519*
X02222*
Y0152*
X02222*
Y0152*
X02222*
Y01521*
X02222*
Y01522*
X02223*
Y01522*
X02223*
Y01523*
X02223*
Y01525*
X02223*
Y0153*
X02223*
Y01531*
X02223*
Y01532*
X02223*
Y01533*
X02222*
Y01533*
X02222*
Y01534*
X02222*
Y01535*
X02222*
Y01535*
X02222*
Y01535*
X02222*
Y01536*
X02221*
Y01536*
X02221*
Y01537*
X02221*
Y01537*
X02221*
Y01537*
X02221*
Y01537*
X02221*
Y01538*
X0222*
Y01538*
X0222*
Y01538*
X0222*
Y01538*
X0222*
Y01539*
X0222*
Y01539*
X0222*
Y01539*
X02219*
Y01539*
X02219*
Y0154*
X02219*
Y0154*
X02219*
Y0154*
X02219*
Y0154*
X02219*
Y0154*
X02218*
Y0154*
X02218*
Y01541*
X02218*
Y01541*
X02218*
Y01541*
X02218*
Y01541*
X02217*
Y01541*
X02217*
Y01541*
X02217*
Y01542*
X02217*
Y01542*
X02217*
Y01542*
X02216*
Y01542*
X02216*
Y01542*
X02216*
Y01542*
X02216*
Y01543*
X02215*
Y01543*
X02215*
Y01543*
X02215*
Y01543*
X02214*
Y01543*
X02214*
Y01543*
X02213*
Y01544*
X02213*
Y01544*
X02213*
Y01544*
X02212*
Y01544*
X02212*
Y01544*
X02211*
Y01544*
X0221*
Y01545*
X02209*
Y01545*
X02208*
Y01545*
X02207*
Y01545*
X02205*
Y01545*
G37*
G36*
X02222Y01501D02*
X02221D01*
Y015*
X0222*
Y015*
X02219*
Y015*
X02218*
Y015*
X02217*
Y015*
X02216*
Y015*
X02215*
Y01499*
X02214*
Y01499*
X02213*
Y01499*
X02212*
Y01499*
X02211*
Y01499*
X0221*
Y01499*
X02209*
Y01498*
X02208*
Y01498*
X02207*
Y01498*
X02206*
Y01498*
X02205*
Y01498*
X02204*
Y01498*
X02203*
Y01497*
X02201*
Y01497*
X022*
Y01497*
X02199*
Y01497*
X02198*
Y01497*
X02197*
Y01497*
X02196*
Y01496*
X02195*
Y01496*
X02194*
Y01496*
X02193*
Y01496*
X02192*
Y01496*
X02191*
Y01496*
X0219*
Y01495*
X02189*
Y01495*
X02188*
Y01495*
X02187*
Y01495*
X02186*
Y01495*
X02185*
Y01495*
X02184*
Y01494*
X02183*
Y01494*
X02182*
Y01494*
X02181*
Y01494*
X0218*
Y01494*
X02179*
Y01494*
X02178*
Y01493*
X02177*
Y01493*
X02176*
Y01493*
X02175*
Y01493*
X02174*
Y01493*
X02173*
Y01493*
X02172*
Y01492*
X02171*
Y01492*
X0217*
Y01492*
X02169*
Y01492*
X02168*
Y01492*
X02167*
Y01492*
X02166*
Y01491*
X02165*
Y01491*
X02164*
Y01491*
X02163*
Y01491*
X02162*
Y01491*
X02161*
Y01491*
X0216*
Y0149*
X02159*
Y0149*
X02158*
Y0149*
X02157*
Y0149*
X02156*
Y0149*
X02155*
Y0149*
X02154*
Y01489*
X02153*
Y01489*
X02152*
Y01489*
X0215*
Y01489*
X02149*
Y01489*
X02148*
Y01489*
X02147*
Y01488*
X02146*
Y01488*
X02145*
Y01488*
X02144*
Y01488*
X02143*
Y01488*
X02142*
Y01472*
X02143*
Y01472*
X02144*
Y01472*
X02145*
Y01472*
X02146*
Y01472*
X02147*
Y01472*
X02148*
Y01471*
X02149*
Y01471*
X0215*
Y01471*
X02151*
Y01471*
X02152*
Y01471*
X02153*
Y01471*
X02154*
Y0147*
X02155*
Y0147*
X02156*
Y0147*
X02157*
Y0147*
X02158*
Y0147*
X02159*
Y0147*
X0216*
Y01469*
X02161*
Y01469*
X02162*
Y01469*
X02163*
Y01469*
X02164*
Y01469*
X02165*
Y01469*
X02166*
Y01468*
X02167*
Y01468*
X02168*
Y01468*
X02169*
Y01468*
X0217*
Y01468*
X02171*
Y01468*
X02172*
Y01467*
X02173*
Y01467*
X02174*
Y01467*
X02175*
Y01467*
X02176*
Y01467*
X02177*
Y01467*
X02179*
Y01466*
X0218*
Y01466*
X02181*
Y01466*
X02182*
Y01466*
X02183*
Y01466*
X02184*
Y01466*
X02185*
Y01465*
X02186*
Y01465*
X02187*
Y01465*
X02188*
Y01465*
X02189*
Y01465*
X0219*
Y01465*
X02191*
Y01464*
X02192*
Y01464*
X02193*
Y01464*
X02194*
Y01464*
X02195*
Y01464*
X02196*
Y01464*
X02197*
Y01463*
X02198*
Y01463*
X02199*
Y01463*
X022*
Y01463*
X02201*
Y01463*
X02202*
Y01463*
X02203*
Y01462*
X02204*
Y01462*
X02205*
Y01462*
X02206*
Y01462*
X02207*
Y01462*
X02208*
Y01462*
X02209*
Y01461*
X0221*
Y01461*
X02211*
Y01461*
X02212*
Y01461*
X02213*
Y01461*
X02214*
Y01461*
X02215*
Y0146*
X02216*
Y0146*
X02217*
Y0146*
X02218*
Y0146*
X02219*
Y0146*
X0222*
Y0146*
X02221*
Y01459*
X02222*
Y01469*
X02222*
Y01469*
X0222*
Y01469*
X02219*
Y01469*
X02218*
Y01469*
X02217*
Y01469*
X02216*
Y0147*
X02215*
Y0147*
X02214*
Y0147*
X02213*
Y0147*
X02211*
Y0147*
X0221*
Y0147*
X02209*
Y01471*
X02208*
Y01471*
X02207*
Y01471*
X02206*
Y01487*
X02207*
Y01488*
X02207*
Y01488*
X02208*
Y01489*
X02209*
Y01489*
X0221*
Y01489*
X02212*
Y01489*
X02213*
Y01489*
X02214*
Y01489*
X02215*
Y0149*
X02216*
Y0149*
X02217*
Y0149*
X02218*
Y0149*
X0222*
Y0149*
X02221*
Y0149*
X02222*
Y01501*
G37*
%LNacoustics_4_legend_top-3*%
%LPD*%
G36*
X02197Y01472D02*
X02197D01*
Y01472*
X02196*
Y01472*
X02195*
Y01473*
X02193*
Y01473*
X02192*
Y01473*
X02191*
Y01473*
X0219*
Y01473*
X02189*
Y01473*
X02188*
Y01474*
X02186*
Y01474*
X02185*
Y01474*
X02184*
Y01474*
X02183*
Y01474*
X02182*
Y01474*
X0218*
Y01475*
X02179*
Y01475*
X02178*
Y01475*
X02177*
Y01475*
X02176*
Y01475*
X02174*
Y01475*
X02173*
Y01476*
X02172*
Y01476*
X02171*
Y01476*
X0217*
Y01476*
X02168*
Y01476*
X02167*
Y01476*
X02166*
Y01477*
X02165*
Y01477*
X02164*
Y01477*
X02162*
Y01477*
X02161*
Y01477*
X0216*
Y01477*
X02159*
Y01478*
X02158*
Y01478*
X02156*
Y01478*
X02155*
Y01478*
X02154*
Y01481*
X02155*
Y01481*
X02156*
Y01481*
X02157*
Y01481*
X02159*
Y01482*
X0216*
Y01482*
X02161*
Y01482*
X02162*
Y01482*
X02163*
Y01482*
X02165*
Y01482*
X02166*
Y01483*
X02167*
Y01483*
X02168*
Y01483*
X02169*
Y01483*
X0217*
Y01483*
X02172*
Y01483*
X02173*
Y01484*
X02174*
Y01484*
X02175*
Y01484*
X02176*
Y01484*
X02178*
Y01484*
X02179*
Y01484*
X0218*
Y01485*
X02181*
Y01485*
X02182*
Y01485*
X02183*
Y01485*
X02185*
Y01485*
X02186*
Y01485*
X02187*
Y01486*
X02188*
Y01486*
X02189*
Y01486*
X0219*
Y01486*
X02191*
Y01486*
X02193*
Y01486*
X02194*
Y01487*
X02195*
Y01487*
X02196*
Y01487*
X02197*
Y01472*
G37*
%LNacoustics_4_legend_top-4*%
%LPC*%
G36*
X02195Y01484D02*
X02193D01*
Y01484*
X02192*
Y01483*
X02191*
Y01483*
X0219*
Y01483*
X02189*
Y01483*
X02188*
Y01483*
X02187*
Y01483*
X02185*
Y01482*
X02184*
Y01482*
X02183*
Y01482*
X02182*
Y01482*
X02181*
Y01482*
X0218*
Y01482*
X02178*
Y01481*
X02177*
Y01481*
X02176*
Y01481*
X02175*
Y01481*
X02174*
Y01481*
X02172*
Y01481*
X02171*
Y0148*
X0217*
Y0148*
X02169*
Y0148*
X02168*
Y0148*
X02167*
Y0148*
X02165*
Y0148*
X02165*
Y01479*
X02166*
Y01479*
X02167*
Y01479*
X02168*
Y01479*
X02169*
Y01479*
X0217*
Y01479*
X02172*
Y01478*
X02173*
Y01478*
X02174*
Y01478*
X02175*
Y01478*
X02176*
Y01478*
X02178*
Y01478*
X02179*
Y01477*
X0218*
Y01477*
X02181*
Y01477*
X02182*
Y01477*
X02184*
Y01477*
X02185*
Y01477*
X02186*
Y01476*
X02187*
Y01476*
X02188*
Y01476*
X0219*
Y01476*
X02191*
Y01476*
X02192*
Y01476*
X02193*
Y01475*
X02194*
Y01475*
X02194*
Y01475*
X02195*
Y01484*
G37*
G36*
X02196Y01388D02*
X02196D01*
Y01388*
X02195*
Y01388*
X02193*
Y01387*
X02192*
Y01387*
X02191*
Y01387*
X0219*
Y01387*
X02189*
Y01387*
X02188*
Y01387*
X02186*
Y01386*
X02185*
Y01386*
X02184*
Y01386*
X02183*
Y01386*
X02182*
Y01386*
X02181*
Y01386*
X02179*
Y01385*
X02178*
Y01385*
X02177*
Y01385*
X02176*
Y01385*
X02175*
Y01385*
X02174*
Y01385*
X02172*
Y01384*
X02171*
Y01384*
X0217*
Y01384*
X02169*
Y01384*
X02168*
Y01384*
X02166*
Y01384*
X02165*
Y01383*
X02164*
Y01383*
X02163*
Y01383*
X02162*
Y01383*
X02161*
Y01383*
X02159*
Y01383*
X02158*
Y01382*
X02157*
Y01382*
X02156*
Y01382*
X02155*
Y01382*
X02156*
Y01382*
X02157*
Y01381*
X02158*
Y01381*
X0216*
Y01381*
X02161*
Y01381*
X02162*
Y01381*
X02163*
Y01381*
X02164*
Y0138*
X02166*
Y0138*
X02167*
Y0138*
X02168*
Y0138*
X02169*
Y0138*
X0217*
Y0138*
X02172*
Y01379*
X02173*
Y01379*
X02174*
Y01379*
X02175*
Y01379*
X02176*
Y01379*
X02178*
Y01379*
X02179*
Y01378*
X0218*
Y01378*
X02181*
Y01378*
X02182*
Y01378*
X02184*
Y01378*
X02185*
Y01378*
X02186*
Y01377*
X02187*
Y01377*
X02188*
Y01377*
X0219*
Y01377*
X02191*
Y01377*
X02192*
Y01377*
X02193*
Y01376*
X02194*
Y01376*
X02195*
Y01376*
X02196*
Y01388*
G37*
G36*
X0217Y01304D02*
X02159D01*
Y01304*
X02158*
Y01304*
X02157*
Y01304*
X02157*
Y01304*
X02156*
Y01303*
X02156*
Y01303*
X02155*
Y01303*
X02155*
Y01303*
X02155*
Y01303*
X02155*
Y01303*
X02154*
Y01302*
X02154*
Y01302*
X02154*
Y01302*
X02154*
Y01302*
X02154*
Y01302*
X02154*
Y01301*
X02153*
Y01301*
X02153*
Y01301*
X02153*
Y013*
X02153*
Y013*
X02153*
Y01299*
X02153*
Y01292*
X02176*
Y01298*
X02176*
Y01299*
X02176*
Y013*
X02176*
Y013*
X02176*
Y01301*
X02175*
Y01301*
X02175*
Y01301*
X02175*
Y01301*
X02175*
Y01302*
X02175*
Y01302*
X02175*
Y01302*
X02174*
Y01302*
X02174*
Y01302*
X02174*
Y01303*
X02174*
Y01303*
X02174*
Y01303*
X02173*
Y01303*
X02173*
Y01303*
X02173*
Y01303*
X02172*
Y01304*
X02172*
Y01304*
X02171*
Y01304*
X02171*
Y01304*
X0217*
Y01304*
G37*
G36*
X02196Y01256D02*
X02195D01*
Y01256*
X02194*
Y01255*
X02193*
Y01255*
X02191*
Y01255*
X0219*
Y01255*
X02189*
Y01255*
X02188*
Y01255*
X02187*
Y01254*
X02186*
Y01254*
X02185*
Y01254*
X02183*
Y01254*
X02182*
Y01254*
X02181*
Y01254*
X0218*
Y01253*
X02179*
Y01253*
X02177*
Y01253*
X02176*
Y01253*
X02175*
Y01253*
X02174*
Y01253*
X02173*
Y01252*
X02172*
Y01252*
X0217*
Y01252*
X02169*
Y01252*
X02168*
Y01252*
X02167*
Y01252*
X02166*
Y01251*
X02165*
Y01251*
X02163*
Y01251*
X02162*
Y01251*
X02161*
Y01251*
X0216*
Y01251*
X02159*
Y0125*
X02157*
Y0125*
X02156*
Y0125*
X02155*
Y0125*
X02156*
Y0125*
X02157*
Y01249*
X02158*
Y01249*
X02159*
Y01249*
X0216*
Y01249*
X02162*
Y01249*
X02163*
Y01249*
X02164*
Y01248*
X02165*
Y01248*
X02166*
Y01248*
X02168*
Y01248*
X02169*
Y01248*
X0217*
Y01248*
X02171*
Y01247*
X02172*
Y01247*
X02174*
Y01247*
X02175*
Y01247*
X02176*
Y01247*
X02177*
Y01247*
X02178*
Y01246*
X0218*
Y01246*
X02181*
Y01246*
X02182*
Y01246*
X02183*
Y01246*
X02184*
Y01246*
X02186*
Y01245*
X02187*
Y01245*
X02188*
Y01245*
X02189*
Y01245*
X0219*
Y01245*
X02191*
Y01245*
X02193*
Y01244*
X02194*
Y01244*
X02195*
Y01244*
X02196*
Y01256*
G37*
G36*
X0214Y01171D02*
X0214D01*
Y01171*
X0214*
Y01171*
G37*
G36*
X0214Y01171D02*
X0214D01*
Y01171*
X0214*
Y01171*
G37*
G36*
X02149Y01174D02*
X02147D01*
Y01174*
X02146*
Y01173*
X02145*
Y01173*
X02144*
Y01173*
X02144*
Y01173*
X02143*
Y01173*
X02143*
Y01173*
X02142*
Y01172*
X02142*
Y01172*
X02142*
Y01172*
X02141*
Y01172*
X02141*
Y01172*
X02141*
Y01172*
X0214*
Y01171*
X02141*
Y01172*
X02142*
Y01172*
X02142*
Y01172*
X02144*
Y01172*
X02145*
Y01172*
X02147*
Y01172*
X02148*
Y01172*
X02148*
Y01171*
X02149*
Y01171*
X02149*
Y01171*
X0215*
Y01171*
X0215*
Y01171*
X02151*
Y01171*
X02151*
Y0117*
X02152*
Y0117*
X02152*
Y0117*
X02153*
Y0117*
X02153*
Y0117*
X02153*
Y0117*
X02154*
Y01169*
X02154*
Y01169*
X02154*
Y01169*
X02155*
Y01169*
X02155*
Y01169*
X02155*
Y01169*
X02155*
Y01168*
X02156*
Y01168*
X02156*
Y01168*
X02156*
Y01168*
X02156*
Y01168*
X02157*
Y01168*
X02157*
Y01167*
X02157*
Y01167*
X02158*
Y01167*
X02158*
Y01167*
X02158*
Y01167*
X02158*
Y01167*
X02158*
Y01166*
X02159*
Y01166*
X02159*
Y01166*
X02159*
Y01166*
X02159*
Y01166*
X0216*
Y01166*
X0216*
Y01165*
X0216*
Y01165*
X0216*
Y01165*
X02161*
Y01165*
X02161*
Y01165*
X02161*
Y01165*
X02161*
Y01164*
X02161*
Y01164*
X02162*
Y01164*
X02162*
Y01164*
X02162*
Y01164*
X02162*
Y01164*
X02162*
Y01163*
X02163*
Y01163*
X02163*
Y01163*
X02163*
Y01163*
X02163*
Y01163*
X02163*
Y01163*
X02164*
Y01162*
X02163*
Y01162*
X02163*
Y01162*
X02162*
Y01162*
X02162*
Y01162*
X02162*
Y01162*
X02161*
Y01161*
X02161*
Y01161*
X02161*
Y01161*
X02161*
Y01161*
X0216*
Y01161*
X0216*
Y01161*
X0216*
Y0116*
X0216*
Y0116*
X0216*
Y0116*
X0216*
Y0116*
X02159*
Y0116*
X02159*
Y0116*
X02159*
Y01159*
X02159*
Y01159*
X02159*
Y01159*
X02158*
Y01159*
X02158*
Y01159*
X02158*
Y01159*
X02158*
Y01158*
X02158*
Y01158*
X02158*
Y01158*
X02157*
Y01158*
X02157*
Y01158*
X02157*
Y01157*
X02157*
Y01157*
X02157*
Y01157*
X02157*
Y01157*
X02156*
Y01157*
X02156*
Y01157*
X02156*
Y01156*
X02156*
Y01156*
X02156*
Y01156*
X02156*
Y01156*
X02155*
Y01156*
X02155*
Y01155*
X02155*
Y01155*
X02155*
Y01155*
X02155*
Y01155*
X02155*
Y01155*
X02154*
Y01154*
X02154*
Y01154*
X02154*
Y01154*
X02154*
Y01154*
X02154*
Y01154*
X02154*
Y01154*
X02153*
Y01153*
X02153*
Y01153*
X02153*
Y01153*
X02153*
Y01153*
X02153*
Y01153*
X02153*
Y01152*
X02152*
Y01152*
X02152*
Y01152*
X02152*
Y01152*
X02152*
Y01151*
X02152*
Y01151*
X02152*
Y01151*
X02151*
Y01151*
X02151*
Y01151*
X02151*
Y0115*
X02151*
Y0115*
X02151*
Y0115*
X02151*
Y0115*
X0215*
Y0115*
X0215*
Y01149*
X0215*
Y01149*
X0215*
Y01149*
X0215*
Y01149*
X0215*
Y01149*
X02149*
Y01148*
X02149*
Y01148*
X02149*
Y01148*
X02149*
Y01148*
X02149*
Y01147*
X02149*
Y01147*
X02148*
Y01147*
X02148*
Y01147*
X02148*
Y01147*
X02148*
Y01147*
X02148*
Y01147*
X02149*
Y01147*
X02149*
Y01147*
X02149*
Y01147*
X02149*
Y01148*
X02149*
Y01148*
X02149*
Y01148*
X0215*
Y01148*
X0215*
Y01148*
X0215*
Y01148*
X0215*
Y01149*
X0215*
Y01149*
X02151*
Y01149*
X02151*
Y01149*
X02151*
Y01149*
X02151*
Y01149*
X02151*
Y0115*
X02151*
Y0115*
X02152*
Y0115*
X02152*
Y0115*
X02152*
Y0115*
X02152*
Y0115*
X02152*
Y01151*
X02153*
Y01151*
X02153*
Y01151*
X02153*
Y01151*
X02153*
Y01151*
X02153*
Y01151*
X02154*
Y01152*
X02154*
Y01152*
X02154*
Y01152*
X02154*
Y01152*
X02154*
Y01152*
X02155*
Y01152*
X02155*
Y01153*
X02155*
Y01153*
X02155*
Y01153*
X02155*
Y01153*
X02156*
Y01153*
X02156*
Y01153*
X02156*
Y01154*
X02156*
Y01154*
X02157*
Y01154*
X02157*
Y01154*
X02157*
Y01154*
X02157*
Y01154*
X02158*
Y01155*
X02158*
Y01155*
X02158*
Y01155*
X02158*
Y01155*
X02159*
Y01155*
X02159*
Y01155*
X02159*
Y01156*
X02159*
Y01156*
X0216*
Y01156*
X0216*
Y01156*
X0216*
Y01156*
X02161*
Y01156*
X02161*
Y01157*
X02161*
Y01157*
X02161*
Y01157*
X02162*
Y01157*
X02162*
Y01157*
X02163*
Y01157*
X02163*
Y01158*
X02163*
Y01158*
X02164*
Y01158*
X02164*
Y01158*
X02165*
Y01158*
X02165*
Y01158*
X02166*
Y01159*
X02167*
Y01159*
X02168*
Y01159*
X02171*
Y01159*
X02171*
Y01159*
X02171*
Y01159*
X02171*
Y01159*
X02171*
Y0116*
X02171*
Y0116*
X0217*
Y0116*
X0217*
Y0116*
X0217*
Y0116*
X0217*
Y01161*
X0217*
Y01161*
X0217*
Y01161*
X02169*
Y01161*
X02169*
Y01161*
X02169*
Y01162*
X02169*
Y01162*
X02169*
Y01162*
X02169*
Y01162*
X02168*
Y01162*
X02168*
Y01163*
X02168*
Y01163*
X02168*
Y01163*
X02168*
Y01163*
X02168*
Y01163*
X02167*
Y01163*
X02167*
Y01164*
X02167*
Y01164*
X02167*
Y01164*
X02167*
Y01164*
X02167*
Y01164*
X02166*
Y01164*
X02166*
Y01165*
X02166*
Y01165*
X02166*
Y01165*
X02166*
Y01165*
X02166*
Y01165*
X02165*
Y01165*
X02165*
Y01166*
X02165*
Y01166*
X02165*
Y01166*
X02165*
Y01166*
X02164*
Y01166*
X02164*
Y01166*
X02164*
Y01167*
X02164*
Y01167*
X02164*
Y01167*
X02163*
Y01167*
X02163*
Y01167*
X02163*
Y01167*
X02163*
Y01168*
X02163*
Y01168*
X02162*
Y01168*
X02162*
Y01168*
X02162*
Y01168*
X02162*
Y01168*
X02162*
Y01169*
X02161*
Y01169*
X02161*
Y01169*
X02161*
Y01169*
X02161*
Y01169*
X0216*
Y01169*
X0216*
Y0117*
X0216*
Y0117*
X0216*
Y0117*
X02159*
Y0117*
X02159*
Y0117*
X02159*
Y0117*
X02159*
Y01171*
X02158*
Y01171*
X02158*
Y01171*
X02158*
Y01171*
X02157*
Y01171*
X02157*
Y01171*
X02157*
Y01172*
X02156*
Y01172*
X02156*
Y01172*
X02156*
Y01172*
X02155*
Y01172*
X02155*
Y01172*
X02154*
Y01173*
X02154*
Y01173*
X02154*
Y01173*
X02153*
Y01173*
X02152*
Y01173*
X02152*
Y01173*
X02151*
Y01174*
X02149*
Y01174*
G37*
G36*
X0218Y01147D02*
X0218D01*
Y01147*
X0218*
Y01147*
G37*
G36*
X02148Y01147D02*
X02148D01*
Y01146*
X02148*
Y01147*
G37*
G36*
X02153Y01146D02*
X02153D01*
Y01146*
X02153*
Y01146*
G37*
G36*
X02148Y01146D02*
X02148D01*
Y01146*
X02148*
Y01146*
X02148*
Y01146*
X02148*
Y01146*
G37*
G36*
X02153Y01146D02*
X02153D01*
Y01146*
X02153*
Y01146*
G37*
G36*
X02148D02*
X02147D01*
Y01146*
X02148*
Y01146*
G37*
G36*
X02201Y01143D02*
X02201D01*
Y01143*
X02201*
Y01143*
G37*
G36*
X02205Y01143D02*
X02205D01*
Y01142*
X02205*
Y01143*
G37*
G36*
X02199Y01135D02*
X02199D01*
Y01135*
X02199*
Y01135*
G37*
G36*
X02199Y01135D02*
X02198D01*
Y01135*
X02199*
Y01135*
G37*
G36*
X02195Y01135D02*
X02195D01*
Y01135*
X02195*
Y01135*
G37*
G36*
X02195Y01135D02*
X02195D01*
Y01134*
X02195*
Y01135*
G37*
G36*
X02172Y01156D02*
X02169D01*
Y01156*
X02168*
Y01156*
X02167*
Y01155*
X02167*
Y01155*
X02166*
Y01155*
X02166*
Y01155*
X02165*
Y01155*
X02165*
Y01155*
X02164*
Y01154*
X02164*
Y01154*
X02164*
Y01154*
X02163*
Y01154*
X02163*
Y01154*
X02163*
Y01154*
X02162*
Y01153*
X02162*
Y01153*
X02162*
Y01153*
X02162*
Y01153*
X02161*
Y01153*
X02161*
Y01153*
X02161*
Y01152*
X0216*
Y01152*
X0216*
Y01152*
X0216*
Y01152*
X0216*
Y01152*
X02159*
Y01152*
X02159*
Y01151*
X02159*
Y01151*
X02159*
Y01151*
X02159*
Y01151*
X02158*
Y01151*
X02158*
Y01151*
X02158*
Y0115*
X02158*
Y0115*
X02157*
Y0115*
X02157*
Y0115*
X02157*
Y0115*
X02157*
Y0115*
X02157*
Y01149*
X02157*
Y01149*
X02156*
Y01149*
X02156*
Y01149*
X02156*
Y01149*
X02156*
Y01149*
X02156*
Y01148*
X02155*
Y01148*
X02155*
Y01148*
X02155*
Y01148*
X02155*
Y01148*
X02155*
Y01148*
X02155*
Y01147*
X02154*
Y01147*
X02154*
Y01147*
X02154*
Y01147*
X02154*
Y01147*
X02154*
Y01147*
X02154*
Y01146*
X02153*
Y01146*
X02154*
Y01146*
X02154*
Y01146*
X02154*
Y01147*
X02154*
Y01147*
X02155*
Y01147*
X02155*
Y01147*
X02155*
Y01147*
X02155*
Y01147*
X02156*
Y01148*
X02156*
Y01148*
X02156*
Y01148*
X02156*
Y01148*
X02157*
Y01148*
X02157*
Y01148*
X02157*
Y01149*
X02157*
Y01149*
X02158*
Y01149*
X02158*
Y01149*
X02158*
Y01149*
X02158*
Y01149*
X02159*
Y0115*
X02159*
Y0115*
X02159*
Y0115*
X0216*
Y0115*
X0216*
Y0115*
X0216*
Y0115*
X02161*
Y01151*
X02161*
Y01151*
X02161*
Y01151*
X02162*
Y01151*
X02162*
Y01151*
X02162*
Y01151*
X02163*
Y01152*
X02163*
Y01152*
X02164*
Y01152*
X02164*
Y01152*
X02165*
Y01152*
X02165*
Y01152*
X02166*
Y01153*
X02167*
Y01153*
X02168*
Y01153*
X02169*
Y01152*
X0217*
Y01152*
X0217*
Y01152*
X0217*
Y01152*
X0217*
Y01152*
X02171*
Y01152*
X02171*
Y01151*
X02171*
Y01151*
X02171*
Y01151*
X02171*
Y01151*
X02172*
Y0115*
X02172*
Y0115*
X02172*
Y0115*
X02172*
Y01149*
X02172*
Y01149*
X02172*
Y01148*
X02173*
Y01146*
X02172*
Y01145*
X02172*
Y01144*
X02172*
Y01143*
X02172*
Y01143*
X02172*
Y01142*
X02172*
Y01142*
X02171*
Y01142*
X02171*
Y01141*
X02171*
Y01141*
X02171*
Y01141*
X02171*
Y01141*
X02171*
Y0114*
X0217*
Y0114*
X0217*
Y0114*
X0217*
Y01139*
X0217*
Y01139*
X0217*
Y01139*
X0217*
Y01139*
X02169*
Y01139*
X02169*
Y01138*
X02169*
Y01138*
X02169*
Y01138*
X02169*
Y01138*
X02169*
Y01138*
X02168*
Y01137*
X02168*
Y01137*
X02168*
Y01137*
X02168*
Y01137*
X02168*
Y01137*
X02168*
Y01136*
X02167*
Y01136*
X02167*
Y01136*
X02167*
Y01136*
X02167*
Y01136*
X02167*
Y01136*
X02167*
Y01135*
X02166*
Y01135*
X02166*
Y01135*
X02166*
Y01135*
X02166*
Y01135*
X02166*
Y01135*
X02165*
Y01134*
X02165*
Y01134*
X02165*
Y01134*
X02165*
Y01134*
X02165*
Y01134*
X02164*
Y01134*
X02164*
Y01133*
X02164*
Y01133*
X02164*
Y01133*
X02164*
Y01133*
X02163*
Y01133*
X02163*
Y01133*
X02163*
Y01132*
X02163*
Y01132*
X02163*
Y01132*
X02162*
Y01132*
X02162*
Y01132*
X02162*
Y01132*
X02162*
Y01131*
X02161*
Y01131*
X02161*
Y01131*
X02161*
Y01131*
X02161*
Y01131*
X0216*
Y01131*
X0216*
Y0113*
X0216*
Y0113*
X0216*
Y0113*
X02159*
Y0113*
X02159*
Y0113*
X02159*
Y0113*
X02159*
Y0113*
X02158*
Y01129*
X02158*
Y01129*
X02158*
Y01129*
X02157*
Y01129*
X02158*
Y01129*
X02158*
Y01129*
X02159*
Y01129*
X02159*
Y0113*
X02159*
Y0113*
X0216*
Y0113*
X0216*
Y0113*
X0216*
Y0113*
X02161*
Y0113*
X02161*
Y0113*
X02162*
Y01131*
X02162*
Y01131*
X02162*
Y01131*
X02162*
Y01131*
X02163*
Y01131*
X02163*
Y01131*
X02163*
Y01132*
X02164*
Y01132*
X02164*
Y01132*
X02164*
Y01132*
X02165*
Y01132*
X02165*
Y01132*
X02165*
Y01133*
X02165*
Y01133*
X02166*
Y01133*
X02166*
Y01133*
X02166*
Y01133*
X02166*
Y01133*
X02167*
Y01134*
X02167*
Y01134*
X02167*
Y01134*
X02167*
Y01134*
X02168*
Y01134*
X02168*
Y01134*
X02168*
Y01135*
X02168*
Y01135*
X02169*
Y01135*
X02169*
Y01135*
X02169*
Y01135*
X02169*
Y01135*
X02169*
Y01136*
X0217*
Y01136*
X0217*
Y01136*
X0217*
Y01136*
X0217*
Y01136*
X0217*
Y01136*
X02171*
Y01137*
X02171*
Y01137*
X02171*
Y01137*
X02171*
Y01137*
X02171*
Y01137*
X02172*
Y01137*
X02172*
Y01138*
X02172*
Y01138*
X02172*
Y01138*
X02172*
Y01138*
X02172*
Y01138*
X02173*
Y01139*
X02173*
Y01139*
X02173*
Y01139*
X02173*
Y01139*
X02173*
Y01139*
X02173*
Y01139*
X02174*
Y0114*
X02174*
Y0114*
X02174*
Y0114*
X02174*
Y0114*
X02174*
Y01141*
X02174*
Y01141*
X02175*
Y01141*
X02175*
Y01141*
X02175*
Y01142*
X02175*
Y01142*
X02175*
Y01142*
X02175*
Y01143*
X02176*
Y01143*
X02176*
Y01143*
X02176*
Y01144*
X02176*
Y01144*
X02176*
Y01145*
X02176*
Y01145*
X02177*
Y01146*
X02177*
Y01148*
X02177*
Y01149*
X02177*
Y0115*
X02177*
Y01151*
X02176*
Y01152*
X02176*
Y01152*
X02176*
Y01153*
X02176*
Y01153*
X02176*
Y01153*
X02176*
Y01154*
X02175*
Y01154*
X02175*
Y01154*
X02175*
Y01154*
X02175*
Y01154*
X02175*
Y01155*
X02175*
Y01155*
X02174*
Y01155*
X02174*
Y01155*
X02174*
Y01155*
X02174*
Y01155*
X02173*
Y01156*
X02173*
Y01156*
X02172*
Y01156*
G37*
G36*
X02157Y01129D02*
X02157D01*
Y01129*
X02157*
Y01129*
G37*
G36*
X02157Y01129D02*
X02157D01*
Y01129*
X02157*
Y01129*
G37*
G36*
X0218Y01147D02*
X0218D01*
Y01146*
X0218*
Y01145*
X0218*
Y01145*
X02179*
Y01144*
X02179*
Y01144*
X02179*
Y01143*
X02179*
Y01143*
X02179*
Y01143*
X02179*
Y01142*
X02178*
Y01142*
X02178*
Y01141*
X02178*
Y01141*
X02178*
Y01141*
X02178*
Y0114*
X02178*
Y0114*
X02177*
Y0114*
X02177*
Y01139*
X02177*
Y01139*
X02177*
Y01139*
X02177*
Y01139*
X02177*
Y01138*
X02176*
Y01138*
X02176*
Y01138*
X02176*
Y01138*
X02176*
Y01137*
X02176*
Y01137*
X02176*
Y01137*
X02175*
Y01137*
X02175*
Y01136*
X02175*
Y01136*
X02175*
Y01136*
X02175*
Y01136*
X02175*
Y01136*
X02174*
Y01135*
X02174*
Y01135*
X02174*
Y01135*
X02174*
Y01135*
X02174*
Y01135*
X02174*
Y01134*
X02173*
Y01134*
X02173*
Y01134*
X02173*
Y01134*
X02173*
Y01134*
X02173*
Y01134*
X02173*
Y01133*
X02172*
Y01133*
X02172*
Y01133*
X02172*
Y01133*
X02172*
Y01133*
X02172*
Y01133*
X02172*
Y01132*
X02171*
Y01132*
X02171*
Y01132*
X02171*
Y01132*
X02171*
Y01132*
X02171*
Y01132*
X0217*
Y01131*
X0217*
Y01131*
X0217*
Y01131*
X0217*
Y01131*
X0217*
Y01131*
X02169*
Y01131*
X02169*
Y0113*
X02169*
Y0113*
X02169*
Y0113*
X02168*
Y0113*
X02168*
Y0113*
X02168*
Y0113*
X02168*
Y0113*
X02167*
Y01129*
X02167*
Y01129*
X02167*
Y01129*
X02166*
Y01129*
X02166*
Y01129*
X02166*
Y01129*
X02166*
Y01128*
X02165*
Y01128*
X02165*
Y01128*
X02165*
Y01128*
X02164*
Y01128*
X02164*
Y01128*
X02163*
Y01127*
X02163*
Y01127*
X02163*
Y01127*
X02162*
Y01127*
X02162*
Y01127*
X02161*
Y01127*
X02161*
Y01126*
X0216*
Y01126*
X0216*
Y01126*
X02159*
Y01126*
X02159*
Y01126*
X02158*
Y01126*
X02157*
Y01125*
X02157*
Y01125*
X02157*
Y01125*
X02158*
Y01125*
X02158*
Y01125*
X02158*
Y01125*
X02159*
Y01124*
X02159*
Y01124*
X02159*
Y01124*
X0216*
Y01124*
X0216*
Y01124*
X0216*
Y01124*
X02161*
Y01123*
X02161*
Y01123*
X02162*
Y01123*
X02162*
Y01123*
X02163*
Y01123*
X02163*
Y01123*
X02163*
Y01122*
X02164*
Y01122*
X02165*
Y01122*
X02165*
Y01122*
X02166*
Y01122*
X02166*
Y01122*
X02167*
Y01121*
X02168*
Y01121*
X02169*
Y01121*
X0217*
Y01121*
X02171*
Y01121*
X02175*
Y01121*
X02177*
Y01121*
X02178*
Y01121*
X02178*
Y01121*
X02179*
Y01122*
X0218*
Y01122*
X0218*
Y01122*
X02181*
Y01122*
X02181*
Y01122*
X02182*
Y01122*
X02182*
Y01123*
X02183*
Y01123*
X02183*
Y01123*
X02183*
Y01123*
X02184*
Y01123*
X02184*
Y01123*
X02184*
Y01124*
X02185*
Y01124*
X02185*
Y01124*
X02185*
Y01124*
X02185*
Y01124*
X02186*
Y01124*
X02186*
Y01125*
X02186*
Y01125*
X02186*
Y01125*
X02187*
Y01125*
X02187*
Y01125*
X02187*
Y01125*
X02187*
Y01126*
X02188*
Y01126*
X02188*
Y01126*
X02188*
Y01126*
X02188*
Y01126*
X02188*
Y01126*
X02189*
Y01127*
X02189*
Y01127*
X02189*
Y01127*
X02189*
Y01127*
X02189*
Y01127*
X02189*
Y01127*
X0219*
Y01128*
X0219*
Y01128*
X0219*
Y01128*
X0219*
Y01128*
X0219*
Y01128*
X0219*
Y01128*
X0219*
Y01129*
X02191*
Y01129*
X02191*
Y01129*
X02191*
Y01129*
X02191*
Y01129*
X02191*
Y01129*
X02191*
Y0113*
X02192*
Y0113*
X02192*
Y0113*
X02192*
Y0113*
X02192*
Y0113*
X02192*
Y01131*
X02192*
Y01131*
X02193*
Y01131*
X02193*
Y01131*
X02193*
Y01131*
X02193*
Y01132*
X02193*
Y01132*
X02193*
Y01132*
X02194*
Y01132*
X02194*
Y01133*
X02194*
Y01133*
X02194*
Y01133*
X02194*
Y01134*
X02194*
Y01134*
X02195*
Y01134*
X02195*
Y01134*
X02195*
Y01134*
X02194*
Y01134*
X02194*
Y01134*
X02194*
Y01134*
X02194*
Y01133*
X02194*
Y01133*
X02194*
Y01133*
X02193*
Y01133*
X02193*
Y01133*
X02193*
Y01133*
X02193*
Y01132*
X02193*
Y01132*
X02193*
Y01132*
X02192*
Y01132*
X02192*
Y01132*
X02192*
Y01132*
X02192*
Y01131*
X02192*
Y01131*
X02192*
Y01131*
X02191*
Y01131*
X02191*
Y01131*
X02191*
Y01131*
X02191*
Y0113*
X02191*
Y0113*
X02191*
Y0113*
X0219*
Y0113*
X0219*
Y0113*
X0219*
Y0113*
X0219*
Y0113*
X0219*
Y01129*
X02189*
Y01129*
X02189*
Y01129*
X02189*
Y01129*
X02189*
Y01129*
X02189*
Y01129*
X02188*
Y01128*
X02188*
Y01128*
X02188*
Y01128*
X02187*
Y01128*
X02187*
Y01128*
X02187*
Y01128*
X02187*
Y01127*
X02186*
Y01127*
X02186*
Y01127*
X02186*
Y01127*
X02185*
Y01127*
X02185*
Y01127*
X02185*
Y01126*
X02184*
Y01126*
X02184*
Y01126*
X02183*
Y01126*
X02183*
Y01126*
X02183*
Y01126*
X02182*
Y01125*
X02181*
Y01125*
X02181*
Y01125*
X0218*
Y01125*
X0218*
Y01125*
X02179*
Y01125*
X02178*
Y01124*
X02176*
Y01124*
X02171*
Y01124*
X0217*
Y01125*
X02169*
Y01125*
X02169*
Y01125*
X02169*
Y01125*
X02169*
Y01125*
X0217*
Y01125*
X0217*
Y01126*
X0217*
Y01126*
X0217*
Y01126*
X02171*
Y01126*
X02171*
Y01126*
X02171*
Y01126*
X02171*
Y01127*
X02171*
Y01127*
X02172*
Y01127*
X02172*
Y01127*
X02172*
Y01127*
X02172*
Y01127*
X02172*
Y01128*
X02172*
Y01128*
X02173*
Y01128*
X02173*
Y01128*
X02173*
Y01128*
X02173*
Y01128*
X02173*
Y01129*
X02173*
Y01129*
X02174*
Y01129*
X02174*
Y01129*
X02174*
Y01129*
X02174*
Y0113*
X02174*
Y0113*
X02174*
Y0113*
X02175*
Y0113*
X02175*
Y0113*
X02175*
Y01131*
X02175*
Y01131*
X02175*
Y01131*
X02175*
Y01131*
X02176*
Y01132*
X02176*
Y01132*
X02176*
Y01132*
X02176*
Y01133*
X02176*
Y01133*
X02176*
Y01133*
X02177*
Y01134*
X02177*
Y01134*
X02177*
Y01134*
X02177*
Y01135*
X02177*
Y01135*
X02177*
Y01136*
X02178*
Y01136*
X02178*
Y01136*
X02178*
Y01137*
X02178*
Y01137*
X02178*
Y01138*
X02178*
Y01138*
X02179*
Y01139*
X02179*
Y01139*
X02179*
Y0114*
X02179*
Y01141*
X02179*
Y01141*
X02179*
Y01142*
X0218*
Y01143*
X0218*
Y01144*
X0218*
Y01145*
X0218*
Y01147*
G37*
G36*
X02198Y01135D02*
X02198D01*
Y01134*
X02198*
Y01134*
X02198*
Y01134*
X02198*
Y01133*
X02198*
Y01133*
X02197*
Y01133*
X02197*
Y01133*
X02197*
Y01132*
X02197*
Y01132*
X02197*
Y01132*
X02197*
Y01131*
X02196*
Y01131*
X02196*
Y01131*
X02196*
Y01131*
X02196*
Y0113*
X02196*
Y0113*
X02196*
Y0113*
X02195*
Y0113*
X02195*
Y0113*
X02195*
Y01129*
X02195*
Y01129*
X02195*
Y01129*
X02195*
Y01129*
X02194*
Y01128*
X02194*
Y01128*
X02194*
Y01128*
X02194*
Y01128*
X02194*
Y01128*
X02194*
Y01127*
X02193*
Y01127*
X02193*
Y01127*
X02193*
Y01127*
X02193*
Y01127*
X02193*
Y01126*
X02193*
Y01126*
X02192*
Y01126*
X02192*
Y01126*
X02192*
Y01126*
X02192*
Y01125*
X02192*
Y01125*
X02192*
Y01125*
X02191*
Y01125*
X02191*
Y01125*
X02191*
Y01124*
X02191*
Y01124*
X02191*
Y01124*
X02191*
Y01124*
X0219*
Y01124*
X0219*
Y01124*
X0219*
Y01123*
X0219*
Y01123*
X0219*
Y01123*
X0219*
Y01123*
X02189*
Y01123*
X02189*
Y01123*
X02189*
Y01122*
X02189*
Y01122*
X02189*
Y01122*
X02189*
Y01122*
X02188*
Y01122*
X02188*
Y01122*
X02188*
Y01121*
X02188*
Y01121*
X02188*
Y01121*
X02187*
Y01121*
X02187*
Y01121*
X02187*
Y01121*
X02187*
Y0112*
X02186*
Y0112*
X02186*
Y0112*
X02186*
Y0112*
X02186*
Y0112*
X02185*
Y0112*
X02185*
Y01119*
X02185*
Y01119*
X02185*
Y01119*
X02184*
Y01119*
X02184*
Y01119*
X02184*
Y01119*
X02184*
Y01118*
X02183*
Y01118*
X02183*
Y01118*
X02183*
Y01118*
X02182*
Y01118*
X02182*
Y01118*
X02182*
Y01117*
X02181*
Y01117*
X02181*
Y01117*
X0218*
Y01117*
X0218*
Y01117*
X02179*
Y01117*
X02179*
Y01116*
X02178*
Y01116*
X02177*
Y01116*
X02176*
Y01116*
X02171*
Y01116*
X0217*
Y01116*
X02169*
Y01116*
X02168*
Y01117*
X02167*
Y01117*
X02167*
Y01117*
X02166*
Y01117*
X02166*
Y01117*
X02165*
Y01117*
X02165*
Y01118*
X02164*
Y01118*
X02164*
Y01118*
X02164*
Y01118*
X02163*
Y01118*
X02163*
Y01118*
X02162*
Y01119*
X02162*
Y01119*
X02162*
Y01119*
X02161*
Y01119*
X02161*
Y01119*
X02161*
Y01119*
X02161*
Y0112*
X0216*
Y0112*
X0216*
Y0112*
X0216*
Y0112*
X02159*
Y0112*
X02159*
Y0112*
X02159*
Y01121*
X02159*
Y01121*
X02158*
Y01121*
X02158*
Y01121*
X02158*
Y01121*
X02158*
Y01121*
X02157*
Y01122*
X02157*
Y01122*
X02157*
Y01122*
X02157*
Y01122*
X02156*
Y01122*
X02156*
Y01122*
X02156*
Y01123*
X02156*
Y01123*
X02155*
Y01123*
X02155*
Y01123*
X02155*
Y01123*
X02155*
Y01123*
X02155*
Y01124*
X02154*
Y01124*
X02154*
Y01124*
X02154*
Y01124*
X02154*
Y01124*
X02154*
Y01124*
X02153*
Y01125*
X02153*
Y01125*
X02153*
Y01125*
X02153*
Y01125*
X02153*
Y01125*
X02152*
Y01125*
X02152*
Y01126*
X02152*
Y01126*
X02152*
Y01126*
X02152*
Y01126*
X02152*
Y01126*
X02152*
Y01125*
X02152*
Y01125*
X02152*
Y01125*
X02153*
Y01125*
X02153*
Y01124*
X02153*
Y01124*
X02153*
Y01124*
X02153*
Y01124*
X02153*
Y01124*
X02154*
Y01123*
X02154*
Y01123*
X02154*
Y01123*
X02154*
Y01123*
X02154*
Y01123*
X02154*
Y01122*
X02155*
Y01122*
X02155*
Y01122*
X02155*
Y01122*
X02155*
Y01122*
X02155*
Y01121*
X02155*
Y01121*
X02156*
Y01121*
X02156*
Y01121*
X02156*
Y01121*
X02156*
Y01121*
X02156*
Y0112*
X02156*
Y0112*
X02157*
Y0112*
X02157*
Y0112*
X02157*
Y0112*
X02157*
Y01119*
X02157*
Y01119*
X02157*
Y01119*
X02158*
Y01119*
X02158*
Y01119*
X02158*
Y01119*
X02158*
Y01118*
X02158*
Y01118*
X02159*
Y01118*
X02159*
Y01118*
X02159*
Y01118*
X02159*
Y01118*
X02159*
Y01117*
X02159*
Y01117*
X0216*
Y01117*
X0216*
Y01117*
X0216*
Y01117*
X0216*
Y01117*
X0216*
Y01116*
X02161*
Y01116*
X02161*
Y01116*
X02161*
Y01116*
X02161*
Y01116*
X02161*
Y01116*
X02162*
Y01115*
X02162*
Y01115*
X02162*
Y01115*
X02162*
Y01115*
X02162*
Y01115*
X02163*
Y01115*
X02163*
Y01114*
X02163*
Y01114*
X02163*
Y01114*
X02163*
Y01114*
X02164*
Y01114*
X02164*
Y01114*
X02164*
Y01113*
X02164*
Y01113*
X02165*
Y01113*
X02165*
Y01113*
X02165*
Y01113*
X02165*
Y01113*
X02165*
Y01112*
X02166*
Y01112*
X02166*
Y01112*
X02166*
Y01112*
X02166*
Y01112*
X02167*
Y01112*
X02167*
Y01111*
X02167*
Y01111*
X02167*
Y01111*
X02168*
Y01111*
X02168*
Y01111*
X02168*
Y01111*
X02168*
Y0111*
X02169*
Y0111*
X02169*
Y0111*
X02169*
Y0111*
X02169*
Y0111*
X0217*
Y0111*
X0217*
Y01109*
X0217*
Y01109*
X02171*
Y01109*
X02171*
Y01109*
X02171*
Y01109*
X02171*
Y01109*
X02172*
Y01108*
X02172*
Y01108*
X02172*
Y01108*
X02173*
Y01108*
X02173*
Y01108*
X02173*
Y01108*
X02173*
Y01107*
X02174*
Y01107*
X02174*
Y01107*
X02174*
Y01107*
X02175*
Y01107*
X02175*
Y01107*
X02175*
Y01106*
X02176*
Y01106*
X02176*
Y01106*
X02176*
Y01106*
X02177*
Y01106*
X02177*
Y01106*
X02178*
Y01105*
X02178*
Y01105*
X02178*
Y01105*
X02179*
Y01105*
X02179*
Y01105*
X02179*
Y01105*
X0218*
Y01104*
X0218*
Y01104*
X02181*
Y01104*
X02181*
Y01104*
X02181*
Y01104*
X02182*
Y01104*
X02182*
Y01103*
X02183*
Y01103*
X02183*
Y01103*
X02184*
Y01103*
X02184*
Y01103*
X02184*
Y01103*
X02185*
Y01102*
X02185*
Y01102*
X02186*
Y01102*
X02186*
Y01102*
X02187*
Y01102*
X02187*
Y01102*
X02188*
Y01101*
X02189*
Y01101*
X02189*
Y01101*
X02189*
Y01102*
X02188*
Y01102*
X02188*
Y01102*
X02187*
Y01102*
X02187*
Y01102*
X02187*
Y01102*
X02186*
Y01103*
X02186*
Y01103*
X02186*
Y01103*
X02185*
Y01103*
X02185*
Y01103*
X02185*
Y01103*
X02184*
Y01104*
X02184*
Y01104*
X02184*
Y01104*
X02183*
Y01104*
X02183*
Y01104*
X02183*
Y01104*
X02183*
Y01105*
X02182*
Y01105*
X02182*
Y01105*
X02182*
Y01105*
X02181*
Y01105*
X02181*
Y01105*
X02181*
Y01106*
X02181*
Y01106*
X0218*
Y01106*
X0218*
Y01106*
X0218*
Y01106*
X0218*
Y01106*
X02179*
Y01107*
X02179*
Y01107*
X02179*
Y01107*
X02179*
Y01107*
X02179*
Y01107*
X02178*
Y01107*
X02178*
Y01108*
X02178*
Y01108*
X02178*
Y01108*
X02178*
Y01108*
X02177*
Y01108*
X02177*
Y01108*
X02177*
Y01109*
X02177*
Y01109*
X02177*
Y01109*
X02177*
Y01109*
X02176*
Y01109*
X02176*
Y0111*
X02176*
Y0111*
X02176*
Y0111*
X02176*
Y0111*
X02176*
Y0111*
X02175*
Y01111*
X02175*
Y01111*
X02176*
Y01111*
X02177*
Y01111*
X02177*
Y01112*
X02178*
Y01112*
X02179*
Y01112*
X02179*
Y01112*
X0218*
Y01112*
X0218*
Y01112*
X0218*
Y01113*
X02181*
Y01113*
X02181*
Y01113*
X02182*
Y01113*
X02182*
Y01113*
X02182*
Y01113*
X02183*
Y01114*
X02183*
Y01114*
X02183*
Y01114*
X02184*
Y01114*
X02184*
Y01114*
X02184*
Y01114*
X02185*
Y01115*
X02185*
Y01115*
X02185*
Y01115*
X02185*
Y01115*
X02186*
Y01115*
X02186*
Y01115*
X02186*
Y01116*
X02186*
Y01116*
X02187*
Y01116*
X02187*
Y01116*
X02187*
Y01116*
X02187*
Y01116*
X02187*
Y01117*
X02188*
Y01117*
X02188*
Y01117*
X02188*
Y01117*
X02188*
Y01117*
X02188*
Y01117*
X02189*
Y01118*
X02189*
Y01118*
X02189*
Y01118*
X02189*
Y01118*
X02189*
Y01118*
X02189*
Y01119*
X0219*
Y01119*
X0219*
Y01119*
X0219*
Y01119*
X0219*
Y01119*
X0219*
Y01119*
X0219*
Y0112*
X0219*
Y0112*
X02191*
Y0112*
X02191*
Y0112*
X02191*
Y0112*
X02191*
Y01121*
X02191*
Y01121*
X02191*
Y01121*
X02192*
Y01121*
X02192*
Y01122*
X02192*
Y01122*
X02192*
Y01122*
X02192*
Y01122*
X02192*
Y01123*
X02193*
Y01123*
X02193*
Y01123*
X02193*
Y01123*
X02193*
Y01124*
X02193*
Y01124*
X02193*
Y01124*
X02194*
Y01124*
X02194*
Y01125*
X02194*
Y01125*
X02194*
Y01125*
X02194*
Y01126*
X02194*
Y01126*
X02195*
Y01126*
X02195*
Y01127*
X02195*
Y01127*
X02195*
Y01127*
X02195*
Y01128*
X02195*
Y01128*
X02196*
Y01128*
X02196*
Y01129*
X02196*
Y01129*
X02196*
Y01129*
X02196*
Y0113*
X02196*
Y0113*
X02197*
Y0113*
X02197*
Y01131*
X02197*
Y01131*
X02197*
Y01131*
X02197*
Y01132*
X02197*
Y01132*
X02198*
Y01133*
X02198*
Y01133*
X02198*
Y01133*
X02198*
Y01134*
X02198*
Y01134*
X02198*
Y01135*
G37*
%LNacoustics_4_legend_top-5*%
%LPD*%
G54D35*
X00931Y00366D02*
D01*
X00931Y00367*
X00931Y00368*
X00931Y00368*
X0093Y00369*
X0093Y0037*
X0093Y00371*
X0093Y00372*
X00929Y00372*
X00929Y00373*
X00928Y00374*
X00928Y00374*
X00927Y00375*
X00926Y00375*
X00926Y00376*
X00925Y00376*
X00924Y00377*
X00924Y00377*
X00923Y00377*
X00922Y00377*
X00921Y00378*
X0092Y00378*
X00919Y00378*
X00919*
X00918Y00378*
X00917Y00378*
X00916Y00377*
X00915Y00377*
X00915Y00377*
X00914Y00377*
X00913Y00376*
X00912Y00376*
X00912Y00375*
X00911Y00375*
X00911Y00374*
X0091Y00374*
X0091Y00373*
X00909Y00372*
X00909Y00372*
X00908Y00371*
X00908Y0037*
X00908Y00369*
X00908Y00368*
X00907Y00368*
X00907Y00367*
X00907Y00366*
X00907Y00365*
X00907Y00364*
X00908Y00364*
X00908Y00363*
X00908Y00362*
X00908Y00361*
X00909Y0036*
X00909Y0036*
X0091Y00359*
X0091Y00358*
X00911Y00358*
X00911Y00357*
X00912Y00357*
X00912Y00356*
X00913Y00356*
X00914Y00355*
X00915Y00355*
X00915Y00355*
X00916Y00355*
X00917Y00354*
X00918Y00354*
X00919Y00354*
X00919*
X0092Y00354*
X00921Y00354*
X00922Y00355*
X00923Y00355*
X00924Y00355*
X00924Y00355*
X00925Y00356*
X00926Y00356*
X00926Y00357*
X00927Y00357*
X00928Y00358*
X00928Y00358*
X00929Y00359*
X00929Y0036*
X0093Y0036*
X0093Y00361*
X0093Y00362*
X0093Y00363*
X00931Y00364*
X00931Y00364*
X00931Y00365*
X00931Y00366*
X02318Y01966D02*
D01*
X02318Y01966*
X02318Y01967*
X02318Y01968*
X02318Y01969*
X02318Y0197*
X02317Y0197*
X02317Y01971*
X02317Y01972*
X02316Y01973*
X02316Y01973*
X02315Y01974*
X02315Y01974*
X02314Y01975*
X02313Y01975*
X02313Y01976*
X02312Y01976*
X02311Y01977*
X0231Y01977*
X02309Y01977*
X02309Y01977*
X02308Y01977*
X02307Y01977*
X02306*
X02305Y01977*
X02305Y01977*
X02304Y01977*
X02303Y01977*
X02302Y01977*
X02301Y01976*
X02301Y01976*
X023Y01975*
X02299Y01975*
X02299Y01974*
X02298Y01974*
X02298Y01973*
X02297Y01973*
X02297Y01972*
X02296Y01971*
X02296Y0197*
X02296Y0197*
X02295Y01969*
X02295Y01968*
X02295Y01967*
X02295Y01966*
X02295Y01966*
X02295Y01965*
X02295Y01964*
X02295Y01963*
X02295Y01962*
X02296Y01962*
X02296Y01961*
X02296Y0196*
X02297Y01959*
X02297Y01959*
X02298Y01958*
X02298Y01957*
X02299Y01957*
X02299Y01956*
X023Y01956*
X02301Y01955*
X02301Y01955*
X02302Y01955*
X02303Y01954*
X02304Y01954*
X02305Y01954*
X02305Y01954*
X02306Y01954*
X02307*
X02308Y01954*
X02309Y01954*
X02309Y01954*
X0231Y01954*
X02311Y01955*
X02312Y01955*
X02313Y01955*
X02313Y01956*
X02314Y01956*
X02315Y01957*
X02315Y01957*
X02316Y01958*
X02316Y01959*
X02317Y01959*
X02317Y0196*
X02317Y01961*
X02318Y01962*
X02318Y01962*
X02318Y01963*
X02318Y01964*
X02318Y01965*
X02318Y01966*
X01421Y01564D02*
D01*
X01421Y01564*
X01421Y01565*
X01421Y01566*
X01421Y01567*
X0142Y01568*
X0142Y01568*
X0142Y01569*
X01419Y0157*
X01419Y0157*
X01418Y01571*
X01418Y01572*
X01417Y01572*
X01417Y01573*
X01416Y01573*
X01415Y01574*
X01415Y01574*
X01414Y01575*
X01413Y01575*
X01412Y01575*
X01411Y01575*
X01411Y01575*
X0141Y01575*
X01409*
X01408Y01575*
X01407Y01575*
X01407Y01575*
X01406Y01575*
X01405Y01575*
X01404Y01574*
X01403Y01574*
X01403Y01573*
X01402Y01573*
X01401Y01572*
X01401Y01572*
X014Y01571*
X014Y0157*
X01399Y0157*
X01399Y01569*
X01399Y01568*
X01398Y01568*
X01398Y01567*
X01398Y01566*
X01398Y01565*
X01398Y01564*
X01398Y01564*
X01398Y01563*
X01398Y01562*
X01398Y01561*
X01398Y0156*
X01398Y0156*
X01399Y01559*
X01399Y01558*
X01399Y01557*
X014Y01557*
X014Y01556*
X01401Y01555*
X01401Y01555*
X01402Y01554*
X01403Y01554*
X01403Y01553*
X01404Y01553*
X01405Y01553*
X01406Y01552*
X01407Y01552*
X01407Y01552*
X01408Y01552*
X01409Y01552*
X0141*
X01411Y01552*
X01411Y01552*
X01412Y01552*
X01413Y01552*
X01414Y01553*
X01415Y01553*
X01415Y01553*
X01416Y01554*
X01417Y01554*
X01417Y01555*
X01418Y01555*
X01418Y01556*
X01419Y01557*
X01419Y01557*
X0142Y01558*
X0142Y01559*
X0142Y0156*
X01421Y0156*
X01421Y01561*
X01421Y01562*
X01421Y01563*
X01421Y01564*
X00931Y01566D02*
D01*
X00931Y01567*
X00931Y01568*
X00931Y01568*
X0093Y01569*
X0093Y0157*
X0093Y01571*
X0093Y01572*
X00929Y01572*
X00929Y01573*
X00928Y01574*
X00928Y01574*
X00927Y01575*
X00926Y01575*
X00926Y01576*
X00925Y01576*
X00924Y01577*
X00924Y01577*
X00923Y01577*
X00922Y01577*
X00921Y01578*
X0092Y01578*
X00919Y01578*
X00919*
X00918Y01578*
X00917Y01578*
X00916Y01577*
X00915Y01577*
X00915Y01577*
X00914Y01577*
X00913Y01576*
X00912Y01576*
X00912Y01575*
X00911Y01575*
X00911Y01574*
X0091Y01574*
X0091Y01573*
X00909Y01572*
X00909Y01572*
X00908Y01571*
X00908Y0157*
X00908Y01569*
X00908Y01568*
X00907Y01568*
X00907Y01567*
X00907Y01566*
X00907Y01565*
X00907Y01564*
X00908Y01564*
X00908Y01563*
X00908Y01562*
X00908Y01561*
X00909Y0156*
X00909Y0156*
X0091Y01559*
X0091Y01558*
X00911Y01558*
X00911Y01557*
X00912Y01557*
X00912Y01556*
X00913Y01556*
X00914Y01555*
X00915Y01555*
X00915Y01555*
X00916Y01555*
X00917Y01554*
X00918Y01554*
X00919Y01554*
X00919*
X0092Y01554*
X00921Y01554*
X00922Y01555*
X00923Y01555*
X00924Y01555*
X00924Y01555*
X00925Y01556*
X00926Y01556*
X00926Y01557*
X00927Y01557*
X00928Y01558*
X00928Y01558*
X00929Y01559*
X00929Y0156*
X0093Y0156*
X0093Y01561*
X0093Y01562*
X0093Y01563*
X00931Y01564*
X00931Y01564*
X00931Y01565*
X00931Y01566*
X01421Y00364D02*
D01*
X01421Y00364*
X01421Y00365*
X01421Y00366*
X01421Y00367*
X0142Y00368*
X0142Y00368*
X0142Y00369*
X01419Y0037*
X01419Y0037*
X01418Y00371*
X01418Y00372*
X01417Y00372*
X01417Y00373*
X01416Y00373*
X01415Y00374*
X01415Y00374*
X01414Y00375*
X01413Y00375*
X01412Y00375*
X01411Y00375*
X01411Y00375*
X0141Y00375*
X01409*
X01408Y00375*
X01407Y00375*
X01407Y00375*
X01406Y00375*
X01405Y00375*
X01404Y00374*
X01403Y00374*
X01403Y00373*
X01402Y00373*
X01401Y00372*
X01401Y00372*
X014Y00371*
X014Y0037*
X01399Y0037*
X01399Y00369*
X01399Y00368*
X01398Y00368*
X01398Y00367*
X01398Y00366*
X01398Y00365*
X01398Y00364*
X01398Y00364*
X01398Y00363*
X01398Y00362*
X01398Y00361*
X01398Y0036*
X01398Y0036*
X01399Y00359*
X01399Y00358*
X01399Y00357*
X014Y00357*
X014Y00356*
X01401Y00355*
X01401Y00355*
X01402Y00354*
X01403Y00354*
X01403Y00353*
X01404Y00353*
X01405Y00353*
X01406Y00352*
X01407Y00352*
X01407Y00352*
X01408Y00352*
X01409Y00352*
X0141*
X01411Y00352*
X01411Y00352*
X01412Y00352*
X01413Y00352*
X01414Y00353*
X01415Y00353*
X01415Y00353*
X01416Y00354*
X01417Y00354*
X01417Y00355*
X01418Y00355*
X01418Y00356*
X01419Y00357*
X01419Y00357*
X0142Y00358*
X0142Y00359*
X0142Y0036*
X01421Y0036*
X01421Y00361*
X01421Y00362*
X01421Y00363*
X01421Y00364*
Y02164D02*
D01*
X01421Y02164*
X01421Y02165*
X01421Y02166*
X01421Y02167*
X0142Y02168*
X0142Y02168*
X0142Y02169*
X01419Y0217*
X01419Y0217*
X01418Y02171*
X01418Y02172*
X01417Y02172*
X01417Y02173*
X01416Y02173*
X01415Y02174*
X01415Y02174*
X01414Y02175*
X01413Y02175*
X01412Y02175*
X01411Y02175*
X01411Y02175*
X0141Y02175*
X01409*
X01408Y02175*
X01407Y02175*
X01407Y02175*
X01406Y02175*
X01405Y02175*
X01404Y02174*
X01403Y02174*
X01403Y02173*
X01402Y02173*
X01401Y02172*
X01401Y02172*
X014Y02171*
X014Y0217*
X01399Y0217*
X01399Y02169*
X01399Y02168*
X01398Y02168*
X01398Y02167*
X01398Y02166*
X01398Y02165*
X01398Y02164*
X01398Y02164*
X01398Y02163*
X01398Y02162*
X01398Y02161*
X01398Y0216*
X01398Y0216*
X01399Y02159*
X01399Y02158*
X01399Y02157*
X014Y02157*
X014Y02156*
X01401Y02155*
X01401Y02155*
X01402Y02154*
X01403Y02154*
X01403Y02153*
X01404Y02153*
X01405Y02153*
X01406Y02152*
X01407Y02152*
X01407Y02152*
X01408Y02152*
X01409Y02152*
X0141*
X01411Y02152*
X01411Y02152*
X01412Y02152*
X01413Y02152*
X01414Y02153*
X01415Y02153*
X01415Y02153*
X01416Y02154*
X01417Y02154*
X01417Y02155*
X01418Y02155*
X01418Y02156*
X01419Y02157*
X01419Y02157*
X0142Y02158*
X0142Y02159*
X0142Y0216*
X01421Y0216*
X01421Y02161*
X01421Y02162*
X01421Y02163*
X01421Y02164*
X00931Y02166D02*
D01*
X00931Y02167*
X00931Y02168*
X00931Y02168*
X0093Y02169*
X0093Y0217*
X0093Y02171*
X0093Y02172*
X00929Y02172*
X00929Y02173*
X00928Y02174*
X00928Y02174*
X00927Y02175*
X00926Y02175*
X00926Y02176*
X00925Y02176*
X00924Y02177*
X00924Y02177*
X00923Y02177*
X00922Y02177*
X00921Y02178*
X0092Y02178*
X00919Y02178*
X00919*
X00918Y02178*
X00917Y02178*
X00916Y02177*
X00915Y02177*
X00915Y02177*
X00914Y02177*
X00913Y02176*
X00912Y02176*
X00912Y02175*
X00911Y02175*
X00911Y02174*
X0091Y02174*
X0091Y02173*
X00909Y02172*
X00909Y02172*
X00908Y02171*
X00908Y0217*
X00908Y02169*
X00908Y02168*
X00907Y02168*
X00907Y02167*
X00907Y02166*
X00907Y02165*
X00907Y02164*
X00908Y02164*
X00908Y02163*
X00908Y02162*
X00908Y02161*
X00909Y0216*
X00909Y0216*
X0091Y02159*
X0091Y02158*
X00911Y02158*
X00911Y02157*
X00912Y02157*
X00912Y02156*
X00913Y02156*
X00914Y02155*
X00915Y02155*
X00915Y02155*
X00916Y02155*
X00917Y02154*
X00918Y02154*
X00919Y02154*
X00919*
X0092Y02154*
X00921Y02154*
X00922Y02155*
X00923Y02155*
X00924Y02155*
X00924Y02155*
X00925Y02156*
X00926Y02156*
X00926Y02157*
X00927Y02157*
X00928Y02158*
X00928Y02158*
X00929Y02159*
X00929Y0216*
X0093Y0216*
X0093Y02161*
X0093Y02162*
X0093Y02163*
X00931Y02164*
X00931Y02164*
X00931Y02165*
X00931Y02166*
Y00966D02*
D01*
X00931Y00967*
X00931Y00968*
X00931Y00968*
X0093Y00969*
X0093Y0097*
X0093Y00971*
X0093Y00972*
X00929Y00972*
X00929Y00973*
X00928Y00974*
X00928Y00974*
X00927Y00975*
X00926Y00975*
X00926Y00976*
X00925Y00976*
X00924Y00977*
X00924Y00977*
X00923Y00977*
X00922Y00977*
X00921Y00978*
X0092Y00978*
X00919Y00978*
X00919*
X00918Y00978*
X00917Y00978*
X00916Y00977*
X00915Y00977*
X00915Y00977*
X00914Y00977*
X00913Y00976*
X00912Y00976*
X00912Y00975*
X00911Y00975*
X00911Y00974*
X0091Y00974*
X0091Y00973*
X00909Y00972*
X00909Y00972*
X00908Y00971*
X00908Y0097*
X00908Y00969*
X00908Y00968*
X00907Y00968*
X00907Y00967*
X00907Y00966*
X00907Y00965*
X00907Y00964*
X00908Y00964*
X00908Y00963*
X00908Y00962*
X00908Y00961*
X00909Y0096*
X00909Y0096*
X0091Y00959*
X0091Y00958*
X00911Y00958*
X00911Y00957*
X00912Y00957*
X00912Y00956*
X00913Y00956*
X00914Y00955*
X00915Y00955*
X00915Y00955*
X00916Y00955*
X00917Y00954*
X00918Y00954*
X00919Y00954*
X00919*
X0092Y00954*
X00921Y00954*
X00922Y00955*
X00923Y00955*
X00924Y00955*
X00924Y00955*
X00925Y00956*
X00926Y00956*
X00926Y00957*
X00927Y00957*
X00928Y00958*
X00928Y00958*
X00929Y00959*
X00929Y0096*
X0093Y0096*
X0093Y00961*
X0093Y00962*
X0093Y00963*
X00931Y00964*
X00931Y00964*
X00931Y00965*
X00931Y00966*
X01421Y00964D02*
D01*
X01421Y00964*
X01421Y00965*
X01421Y00966*
X01421Y00967*
X0142Y00968*
X0142Y00968*
X0142Y00969*
X01419Y0097*
X01419Y0097*
X01418Y00971*
X01418Y00972*
X01417Y00972*
X01417Y00973*
X01416Y00973*
X01415Y00974*
X01415Y00974*
X01414Y00975*
X01413Y00975*
X01412Y00975*
X01411Y00975*
X01411Y00975*
X0141Y00975*
X01409*
X01408Y00975*
X01407Y00975*
X01407Y00975*
X01406Y00975*
X01405Y00975*
X01404Y00974*
X01403Y00974*
X01403Y00973*
X01402Y00973*
X01401Y00972*
X01401Y00972*
X014Y00971*
X014Y0097*
X01399Y0097*
X01399Y00969*
X01399Y00968*
X01398Y00968*
X01398Y00967*
X01398Y00966*
X01398Y00965*
X01398Y00964*
X01398Y00964*
X01398Y00963*
X01398Y00962*
X01398Y00961*
X01398Y0096*
X01398Y0096*
X01399Y00959*
X01399Y00958*
X01399Y00957*
X014Y00957*
X014Y00956*
X01401Y00955*
X01401Y00955*
X01402Y00954*
X01403Y00954*
X01403Y00953*
X01404Y00953*
X01405Y00953*
X01406Y00952*
X01407Y00952*
X01407Y00952*
X01408Y00952*
X01409Y00952*
X0141*
X01411Y00952*
X01411Y00952*
X01412Y00952*
X01413Y00952*
X01414Y00953*
X01415Y00953*
X01415Y00953*
X01416Y00954*
X01417Y00954*
X01417Y00955*
X01418Y00955*
X01418Y00956*
X01419Y00957*
X01419Y00957*
X0142Y00958*
X0142Y00959*
X0142Y0096*
X01421Y0096*
X01421Y00961*
X01421Y00962*
X01421Y00963*
X01421Y00964*
G54D36*
X00836Y00416D02*
D01*
X00836Y00417*
X00836Y00417*
X00836Y00417*
X00836Y00418*
X00836Y00418*
X00836Y00418*
X00836Y00419*
X00836Y00419*
X00835Y00419*
X00835Y0042*
X00835Y0042*
X00835Y0042*
X00835Y0042*
X00834Y00421*
X00834Y00421*
X00834Y00421*
X00833Y00421*
X00833Y00421*
X00833Y00421*
X00832Y00421*
X00832Y00421*
X00832Y00421*
X00831*
X00831Y00421*
X00831Y00421*
X0083Y00421*
X0083Y00421*
X0083Y00421*
X00829Y00421*
X00829Y00421*
X00829Y00421*
X00828Y0042*
X00828Y0042*
X00828Y0042*
X00828Y0042*
X00828Y00419*
X00827Y00419*
X00827Y00419*
X00827Y00418*
X00827Y00418*
X00827Y00418*
X00827Y00417*
X00827Y00417*
X00827Y00417*
X00827Y00416*
X00827Y00416*
X00827Y00416*
X00827Y00415*
X00827Y00415*
X00827Y00415*
X00827Y00414*
X00827Y00414*
X00827Y00414*
X00828Y00414*
X00828Y00413*
X00828Y00413*
X00828Y00413*
X00828Y00413*
X00829Y00412*
X00829Y00412*
X00829Y00412*
X0083Y00412*
X0083Y00412*
X0083Y00412*
X00831Y00412*
X00831Y00412*
X00831Y00412*
X00832*
X00832Y00412*
X00832Y00412*
X00833Y00412*
X00833Y00412*
X00833Y00412*
X00834Y00412*
X00834Y00412*
X00834Y00412*
X00835Y00413*
X00835Y00413*
X00835Y00413*
X00835Y00413*
X00835Y00414*
X00836Y00414*
X00836Y00414*
X00836Y00414*
X00836Y00415*
X00836Y00415*
X00836Y00415*
X00836Y00416*
X00836Y00416*
X00836Y00416*
X02399Y01915D02*
D01*
X02399Y01915*
X02399Y01916*
X02399Y01916*
X02399Y01916*
X02399Y01917*
X02399Y01917*
X02399Y01917*
X02398Y01918*
X02398Y01918*
X02398Y01918*
X02398Y01918*
X02398Y01919*
X02397Y01919*
X02397Y01919*
X02397Y01919*
X02396Y01919*
X02396Y0192*
X02396Y0192*
X02395Y0192*
X02395Y0192*
X02395Y0192*
X02394Y0192*
X02394*
X02394Y0192*
X02393Y0192*
X02393Y0192*
X02393Y0192*
X02392Y0192*
X02392Y01919*
X02392Y01919*
X02391Y01919*
X02391Y01919*
X02391Y01919*
X02391Y01918*
X0239Y01918*
X0239Y01918*
X0239Y01918*
X0239Y01917*
X0239Y01917*
X0239Y01917*
X02389Y01916*
X02389Y01916*
X02389Y01916*
X02389Y01915*
X02389Y01915*
X02389Y01915*
X02389Y01914*
X02389Y01914*
X02389Y01914*
X0239Y01913*
X0239Y01913*
X0239Y01913*
X0239Y01912*
X0239Y01912*
X0239Y01912*
X02391Y01912*
X02391Y01911*
X02391Y01911*
X02391Y01911*
X02392Y01911*
X02392Y01911*
X02392Y0191*
X02393Y0191*
X02393Y0191*
X02393Y0191*
X02394Y0191*
X02394Y0191*
X02394*
X02395Y0191*
X02395Y0191*
X02395Y0191*
X02396Y0191*
X02396Y0191*
X02396Y01911*
X02397Y01911*
X02397Y01911*
X02397Y01911*
X02398Y01911*
X02398Y01912*
X02398Y01912*
X02398Y01912*
X02398Y01912*
X02399Y01913*
X02399Y01913*
X02399Y01913*
X02399Y01914*
X02399Y01914*
X02399Y01914*
X02399Y01915*
X02399Y01915*
X02443Y00822D02*
D01*
X02443Y00822*
X02443Y00823*
X02443Y00823*
X02443Y00823*
X02443Y00824*
X02442Y00824*
X02442Y00824*
X02442Y00825*
X02442Y00825*
X02442Y00825*
X02442Y00825*
X02441Y00826*
X02441Y00826*
X02441Y00826*
X0244Y00826*
X0244Y00826*
X0244Y00827*
X02439Y00827*
X02439Y00827*
X02439Y00827*
X02438Y00827*
X02438Y00827*
X02438*
X02437Y00827*
X02437Y00827*
X02437Y00827*
X02436Y00827*
X02436Y00827*
X02436Y00826*
X02436Y00826*
X02435Y00826*
X02435Y00826*
X02435Y00826*
X02434Y00825*
X02434Y00825*
X02434Y00825*
X02434Y00825*
X02434Y00824*
X02433Y00824*
X02433Y00824*
X02433Y00823*
X02433Y00823*
X02433Y00823*
X02433Y00822*
X02433Y00822*
X02433Y00822*
X02433Y00821*
X02433Y00821*
X02433Y00821*
X02433Y0082*
X02433Y0082*
X02434Y0082*
X02434Y00819*
X02434Y00819*
X02434Y00819*
X02434Y00819*
X02435Y00818*
X02435Y00818*
X02435Y00818*
X02436Y00818*
X02436Y00818*
X02436Y00817*
X02436Y00817*
X02437Y00817*
X02437Y00817*
X02437Y00817*
X02438Y00817*
X02438*
X02438Y00817*
X02439Y00817*
X02439Y00817*
X02439Y00817*
X0244Y00817*
X0244Y00818*
X0244Y00818*
X02441Y00818*
X02441Y00818*
X02441Y00818*
X02442Y00819*
X02442Y00819*
X02442Y00819*
X02442Y00819*
X02442Y0082*
X02442Y0082*
X02443Y0082*
X02443Y00821*
X02443Y00821*
X02443Y00821*
X02443Y00822*
X02443Y00822*
X01805Y01549D02*
D01*
X01805Y0155*
X01805Y0155*
X01805Y0155*
X01805Y01551*
X01805Y01551*
X01804Y01551*
X01804Y01552*
X01804Y01552*
X01804Y01552*
X01804Y01553*
X01803Y01553*
X01803Y01553*
X01803Y01553*
X01803Y01553*
X01802Y01554*
X01802Y01554*
X01802Y01554*
X01801Y01554*
X01801Y01554*
X01801Y01554*
X018Y01554*
X018Y01554*
X018*
X01799Y01554*
X01799Y01554*
X01799Y01554*
X01798Y01554*
X01798Y01554*
X01798Y01554*
X01797Y01554*
X01797Y01553*
X01797Y01553*
X01797Y01553*
X01796Y01553*
X01796Y01553*
X01796Y01552*
X01796Y01552*
X01796Y01552*
X01795Y01551*
X01795Y01551*
X01795Y01551*
X01795Y0155*
X01795Y0155*
X01795Y0155*
X01795Y01549*
X01795Y01549*
X01795Y01549*
X01795Y01548*
X01795Y01548*
X01795Y01548*
X01795Y01547*
X01796Y01547*
X01796Y01547*
X01796Y01546*
X01796Y01546*
X01796Y01546*
X01797Y01546*
X01797Y01546*
X01797Y01545*
X01797Y01545*
X01798Y01545*
X01798Y01545*
X01798Y01545*
X01799Y01545*
X01799Y01545*
X01799Y01544*
X018Y01544*
X018*
X018Y01544*
X01801Y01545*
X01801Y01545*
X01801Y01545*
X01802Y01545*
X01802Y01545*
X01802Y01545*
X01803Y01545*
X01803Y01546*
X01803Y01546*
X01803Y01546*
X01804Y01546*
X01804Y01546*
X01804Y01547*
X01804Y01547*
X01804Y01547*
X01805Y01548*
X01805Y01548*
X01805Y01548*
X01805Y01549*
X01805Y01549*
X01805Y01549*
X01327Y01623D02*
D01*
X01327Y01624*
X01327Y01624*
X01327Y01625*
X01327Y01625*
X01326Y01625*
X01326Y01625*
X01326Y01626*
X01326Y01626*
X01326Y01626*
X01326Y01627*
X01325Y01627*
X01325Y01627*
X01325Y01627*
X01325Y01628*
X01324Y01628*
X01324Y01628*
X01324Y01628*
X01323Y01628*
X01323Y01628*
X01323Y01628*
X01322Y01628*
X01322Y01628*
X01322*
X01321Y01628*
X01321Y01628*
X01321Y01628*
X0132Y01628*
X0132Y01628*
X0132Y01628*
X01319Y01628*
X01319Y01628*
X01319Y01627*
X01318Y01627*
X01318Y01627*
X01318Y01627*
X01318Y01626*
X01318Y01626*
X01317Y01626*
X01317Y01625*
X01317Y01625*
X01317Y01625*
X01317Y01625*
X01317Y01624*
X01317Y01624*
X01317Y01623*
X01317Y01623*
X01317Y01623*
X01317Y01622*
X01317Y01622*
X01317Y01622*
X01317Y01621*
X01317Y01621*
X01318Y01621*
X01318Y01621*
X01318Y0162*
X01318Y0162*
X01318Y0162*
X01319Y0162*
X01319Y01619*
X01319Y01619*
X0132Y01619*
X0132Y01619*
X0132Y01619*
X01321Y01619*
X01321Y01619*
X01321Y01619*
X01322Y01619*
X01322*
X01322Y01619*
X01323Y01619*
X01323Y01619*
X01323Y01619*
X01324Y01619*
X01324Y01619*
X01324Y01619*
X01325Y01619*
X01325Y0162*
X01325Y0162*
X01325Y0162*
X01326Y0162*
X01326Y01621*
X01326Y01621*
X01326Y01621*
X01326Y01621*
X01326Y01622*
X01327Y01622*
X01327Y01622*
X01327Y01623*
X01327Y01623*
X01327Y01623*
X00836Y01616D02*
D01*
X00836Y01617*
X00836Y01617*
X00836Y01617*
X00836Y01618*
X00836Y01618*
X00836Y01618*
X00836Y01619*
X00836Y01619*
X00835Y01619*
X00835Y0162*
X00835Y0162*
X00835Y0162*
X00835Y0162*
X00834Y01621*
X00834Y01621*
X00834Y01621*
X00833Y01621*
X00833Y01621*
X00833Y01621*
X00832Y01621*
X00832Y01621*
X00832Y01621*
X00831*
X00831Y01621*
X00831Y01621*
X0083Y01621*
X0083Y01621*
X0083Y01621*
X00829Y01621*
X00829Y01621*
X00829Y01621*
X00828Y0162*
X00828Y0162*
X00828Y0162*
X00828Y0162*
X00828Y01619*
X00827Y01619*
X00827Y01619*
X00827Y01618*
X00827Y01618*
X00827Y01618*
X00827Y01617*
X00827Y01617*
X00827Y01617*
X00827Y01616*
X00827Y01616*
X00827Y01616*
X00827Y01615*
X00827Y01615*
X00827Y01615*
X00827Y01614*
X00827Y01614*
X00827Y01614*
X00828Y01614*
X00828Y01613*
X00828Y01613*
X00828Y01613*
X00828Y01613*
X00829Y01612*
X00829Y01612*
X00829Y01612*
X0083Y01612*
X0083Y01612*
X0083Y01612*
X00831Y01612*
X00831Y01612*
X00831Y01612*
X00832*
X00832Y01612*
X00832Y01612*
X00833Y01612*
X00833Y01612*
X00833Y01612*
X00834Y01612*
X00834Y01612*
X00834Y01612*
X00835Y01613*
X00835Y01613*
X00835Y01613*
X00835Y01613*
X00835Y01614*
X00836Y01614*
X00836Y01614*
X00836Y01614*
X00836Y01615*
X00836Y01615*
X00836Y01615*
X00836Y01616*
X00836Y01616*
X00836Y01616*
X01805Y00349D02*
D01*
X01805Y0035*
X01805Y0035*
X01805Y0035*
X01805Y00351*
X01805Y00351*
X01804Y00351*
X01804Y00352*
X01804Y00352*
X01804Y00352*
X01804Y00353*
X01803Y00353*
X01803Y00353*
X01803Y00353*
X01803Y00353*
X01802Y00354*
X01802Y00354*
X01802Y00354*
X01801Y00354*
X01801Y00354*
X01801Y00354*
X018Y00354*
X018Y00354*
X018*
X01799Y00354*
X01799Y00354*
X01799Y00354*
X01798Y00354*
X01798Y00354*
X01798Y00354*
X01797Y00354*
X01797Y00353*
X01797Y00353*
X01797Y00353*
X01796Y00353*
X01796Y00353*
X01796Y00352*
X01796Y00352*
X01796Y00352*
X01795Y00351*
X01795Y00351*
X01795Y00351*
X01795Y0035*
X01795Y0035*
X01795Y0035*
X01795Y00349*
X01795Y00349*
X01795Y00349*
X01795Y00348*
X01795Y00348*
X01795Y00348*
X01795Y00347*
X01796Y00347*
X01796Y00347*
X01796Y00346*
X01796Y00346*
X01796Y00346*
X01797Y00346*
X01797Y00346*
X01797Y00345*
X01797Y00345*
X01798Y00345*
X01798Y00345*
X01798Y00345*
X01799Y00345*
X01799Y00345*
X01799Y00344*
X018Y00344*
X018*
X018Y00344*
X01801Y00345*
X01801Y00345*
X01801Y00345*
X01802Y00345*
X01802Y00345*
X01802Y00345*
X01803Y00345*
X01803Y00346*
X01803Y00346*
X01803Y00346*
X01804Y00346*
X01804Y00346*
X01804Y00347*
X01804Y00347*
X01804Y00347*
X01805Y00348*
X01805Y00348*
X01805Y00348*
X01805Y00349*
X01805Y00349*
X01805Y00349*
X01327Y00423D02*
D01*
X01327Y00424*
X01327Y00424*
X01327Y00425*
X01327Y00425*
X01326Y00425*
X01326Y00425*
X01326Y00426*
X01326Y00426*
X01326Y00426*
X01326Y00427*
X01325Y00427*
X01325Y00427*
X01325Y00427*
X01325Y00428*
X01324Y00428*
X01324Y00428*
X01324Y00428*
X01323Y00428*
X01323Y00428*
X01323Y00428*
X01322Y00428*
X01322Y00428*
X01322*
X01321Y00428*
X01321Y00428*
X01321Y00428*
X0132Y00428*
X0132Y00428*
X0132Y00428*
X01319Y00428*
X01319Y00428*
X01319Y00427*
X01318Y00427*
X01318Y00427*
X01318Y00427*
X01318Y00426*
X01318Y00426*
X01317Y00426*
X01317Y00425*
X01317Y00425*
X01317Y00425*
X01317Y00425*
X01317Y00424*
X01317Y00424*
X01317Y00423*
X01317Y00423*
X01317Y00423*
X01317Y00422*
X01317Y00422*
X01317Y00422*
X01317Y00421*
X01317Y00421*
X01318Y00421*
X01318Y00421*
X01318Y0042*
X01318Y0042*
X01318Y0042*
X01319Y0042*
X01319Y00419*
X01319Y00419*
X0132Y00419*
X0132Y00419*
X0132Y00419*
X01321Y00419*
X01321Y00419*
X01321Y00419*
X01322Y00419*
X01322*
X01322Y00419*
X01323Y00419*
X01323Y00419*
X01323Y00419*
X01324Y00419*
X01324Y00419*
X01324Y00419*
X01325Y00419*
X01325Y0042*
X01325Y0042*
X01325Y0042*
X01326Y0042*
X01326Y00421*
X01326Y00421*
X01326Y00421*
X01326Y00421*
X01326Y00422*
X01327Y00422*
X01327Y00422*
X01327Y00423*
X01327Y00423*
X01327Y00423*
X01805Y02149D02*
D01*
X01805Y0215*
X01805Y0215*
X01805Y0215*
X01805Y02151*
X01805Y02151*
X01804Y02151*
X01804Y02152*
X01804Y02152*
X01804Y02152*
X01804Y02153*
X01803Y02153*
X01803Y02153*
X01803Y02153*
X01803Y02153*
X01802Y02154*
X01802Y02154*
X01802Y02154*
X01801Y02154*
X01801Y02154*
X01801Y02154*
X018Y02154*
X018Y02154*
X018*
X01799Y02154*
X01799Y02154*
X01799Y02154*
X01798Y02154*
X01798Y02154*
X01798Y02154*
X01797Y02154*
X01797Y02153*
X01797Y02153*
X01797Y02153*
X01796Y02153*
X01796Y02153*
X01796Y02152*
X01796Y02152*
X01796Y02152*
X01795Y02151*
X01795Y02151*
X01795Y02151*
X01795Y0215*
X01795Y0215*
X01795Y0215*
X01795Y02149*
X01795Y02149*
X01795Y02149*
X01795Y02148*
X01795Y02148*
X01795Y02148*
X01795Y02147*
X01796Y02147*
X01796Y02147*
X01796Y02146*
X01796Y02146*
X01796Y02146*
X01797Y02146*
X01797Y02146*
X01797Y02145*
X01797Y02145*
X01798Y02145*
X01798Y02145*
X01798Y02145*
X01799Y02145*
X01799Y02145*
X01799Y02144*
X018Y02144*
X018*
X018Y02144*
X01801Y02145*
X01801Y02145*
X01801Y02145*
X01802Y02145*
X01802Y02145*
X01802Y02145*
X01803Y02145*
X01803Y02146*
X01803Y02146*
X01803Y02146*
X01804Y02146*
X01804Y02146*
X01804Y02147*
X01804Y02147*
X01804Y02147*
X01805Y02148*
X01805Y02148*
X01805Y02148*
X01805Y02149*
X01805Y02149*
X01805Y02149*
X01327Y02223D02*
D01*
X01327Y02224*
X01327Y02224*
X01327Y02225*
X01327Y02225*
X01326Y02225*
X01326Y02225*
X01326Y02226*
X01326Y02226*
X01326Y02226*
X01326Y02227*
X01325Y02227*
X01325Y02227*
X01325Y02227*
X01325Y02228*
X01324Y02228*
X01324Y02228*
X01324Y02228*
X01323Y02228*
X01323Y02228*
X01323Y02228*
X01322Y02228*
X01322Y02228*
X01322*
X01321Y02228*
X01321Y02228*
X01321Y02228*
X0132Y02228*
X0132Y02228*
X0132Y02228*
X01319Y02228*
X01319Y02228*
X01319Y02227*
X01318Y02227*
X01318Y02227*
X01318Y02227*
X01318Y02226*
X01318Y02226*
X01317Y02226*
X01317Y02225*
X01317Y02225*
X01317Y02225*
X01317Y02225*
X01317Y02224*
X01317Y02224*
X01317Y02223*
X01317Y02223*
X01317Y02223*
X01317Y02222*
X01317Y02222*
X01317Y02222*
X01317Y02221*
X01317Y02221*
X01318Y02221*
X01318Y02221*
X01318Y0222*
X01318Y0222*
X01318Y0222*
X01319Y0222*
X01319Y02219*
X01319Y02219*
X0132Y02219*
X0132Y02219*
X0132Y02219*
X01321Y02219*
X01321Y02219*
X01321Y02219*
X01322Y02219*
X01322*
X01322Y02219*
X01323Y02219*
X01323Y02219*
X01323Y02219*
X01324Y02219*
X01324Y02219*
X01324Y02219*
X01325Y02219*
X01325Y0222*
X01325Y0222*
X01325Y0222*
X01326Y0222*
X01326Y02221*
X01326Y02221*
X01326Y02221*
X01326Y02221*
X01326Y02222*
X01327Y02222*
X01327Y02222*
X01327Y02223*
X01327Y02223*
X01327Y02223*
X00836Y02216D02*
D01*
X00836Y02217*
X00836Y02217*
X00836Y02217*
X00836Y02218*
X00836Y02218*
X00836Y02218*
X00836Y02219*
X00836Y02219*
X00835Y02219*
X00835Y0222*
X00835Y0222*
X00835Y0222*
X00835Y0222*
X00834Y02221*
X00834Y02221*
X00834Y02221*
X00833Y02221*
X00833Y02221*
X00833Y02221*
X00832Y02221*
X00832Y02221*
X00832Y02221*
X00831*
X00831Y02221*
X00831Y02221*
X0083Y02221*
X0083Y02221*
X0083Y02221*
X00829Y02221*
X00829Y02221*
X00829Y02221*
X00828Y0222*
X00828Y0222*
X00828Y0222*
X00828Y0222*
X00828Y02219*
X00827Y02219*
X00827Y02219*
X00827Y02218*
X00827Y02218*
X00827Y02218*
X00827Y02217*
X00827Y02217*
X00827Y02217*
X00827Y02216*
X00827Y02216*
X00827Y02216*
X00827Y02215*
X00827Y02215*
X00827Y02215*
X00827Y02214*
X00827Y02214*
X00827Y02214*
X00828Y02214*
X00828Y02213*
X00828Y02213*
X00828Y02213*
X00828Y02213*
X00829Y02212*
X00829Y02212*
X00829Y02212*
X0083Y02212*
X0083Y02212*
X0083Y02212*
X00831Y02212*
X00831Y02212*
X00831Y02212*
X00832*
X00832Y02212*
X00832Y02212*
X00833Y02212*
X00833Y02212*
X00833Y02212*
X00834Y02212*
X00834Y02212*
X00834Y02212*
X00835Y02213*
X00835Y02213*
X00835Y02213*
X00835Y02213*
X00835Y02214*
X00836Y02214*
X00836Y02214*
X00836Y02214*
X00836Y02215*
X00836Y02215*
X00836Y02215*
X00836Y02216*
X00836Y02216*
X00836Y02216*
Y01016D02*
D01*
X00836Y01017*
X00836Y01017*
X00836Y01017*
X00836Y01018*
X00836Y01018*
X00836Y01018*
X00836Y01019*
X00836Y01019*
X00835Y01019*
X00835Y0102*
X00835Y0102*
X00835Y0102*
X00835Y0102*
X00834Y01021*
X00834Y01021*
X00834Y01021*
X00833Y01021*
X00833Y01021*
X00833Y01021*
X00832Y01021*
X00832Y01021*
X00832Y01021*
X00831*
X00831Y01021*
X00831Y01021*
X0083Y01021*
X0083Y01021*
X0083Y01021*
X00829Y01021*
X00829Y01021*
X00829Y01021*
X00828Y0102*
X00828Y0102*
X00828Y0102*
X00828Y0102*
X00828Y01019*
X00827Y01019*
X00827Y01019*
X00827Y01018*
X00827Y01018*
X00827Y01018*
X00827Y01017*
X00827Y01017*
X00827Y01017*
X00827Y01016*
X00827Y01016*
X00827Y01016*
X00827Y01015*
X00827Y01015*
X00827Y01015*
X00827Y01014*
X00827Y01014*
X00827Y01014*
X00828Y01014*
X00828Y01013*
X00828Y01013*
X00828Y01013*
X00828Y01013*
X00829Y01012*
X00829Y01012*
X00829Y01012*
X0083Y01012*
X0083Y01012*
X0083Y01012*
X00831Y01012*
X00831Y01012*
X00831Y01012*
X00832*
X00832Y01012*
X00832Y01012*
X00833Y01012*
X00833Y01012*
X00833Y01012*
X00834Y01012*
X00834Y01012*
X00834Y01012*
X00835Y01013*
X00835Y01013*
X00835Y01013*
X00835Y01013*
X00835Y01014*
X00836Y01014*
X00836Y01014*
X00836Y01014*
X00836Y01015*
X00836Y01015*
X00836Y01015*
X00836Y01016*
X00836Y01016*
X00836Y01016*
X01327Y01023D02*
D01*
X01327Y01024*
X01327Y01024*
X01327Y01025*
X01327Y01025*
X01326Y01025*
X01326Y01025*
X01326Y01026*
X01326Y01026*
X01326Y01026*
X01326Y01027*
X01325Y01027*
X01325Y01027*
X01325Y01027*
X01325Y01028*
X01324Y01028*
X01324Y01028*
X01324Y01028*
X01323Y01028*
X01323Y01028*
X01323Y01028*
X01322Y01028*
X01322Y01028*
X01322*
X01321Y01028*
X01321Y01028*
X01321Y01028*
X0132Y01028*
X0132Y01028*
X0132Y01028*
X01319Y01028*
X01319Y01028*
X01319Y01027*
X01318Y01027*
X01318Y01027*
X01318Y01027*
X01318Y01026*
X01318Y01026*
X01317Y01026*
X01317Y01025*
X01317Y01025*
X01317Y01025*
X01317Y01025*
X01317Y01024*
X01317Y01024*
X01317Y01023*
X01317Y01023*
X01317Y01023*
X01317Y01022*
X01317Y01022*
X01317Y01022*
X01317Y01021*
X01317Y01021*
X01318Y01021*
X01318Y01021*
X01318Y0102*
X01318Y0102*
X01318Y0102*
X01319Y0102*
X01319Y01019*
X01319Y01019*
X0132Y01019*
X0132Y01019*
X0132Y01019*
X01321Y01019*
X01321Y01019*
X01321Y01019*
X01322Y01019*
X01322*
X01322Y01019*
X01323Y01019*
X01323Y01019*
X01323Y01019*
X01324Y01019*
X01324Y01019*
X01324Y01019*
X01325Y01019*
X01325Y0102*
X01325Y0102*
X01325Y0102*
X01326Y0102*
X01326Y01021*
X01326Y01021*
X01326Y01021*
X01326Y01021*
X01326Y01022*
X01327Y01022*
X01327Y01022*
X01327Y01023*
X01327Y01023*
X01327Y01023*
X01805Y00949D02*
D01*
X01805Y0095*
X01805Y0095*
X01805Y0095*
X01805Y00951*
X01805Y00951*
X01804Y00951*
X01804Y00952*
X01804Y00952*
X01804Y00952*
X01804Y00953*
X01803Y00953*
X01803Y00953*
X01803Y00953*
X01803Y00953*
X01802Y00954*
X01802Y00954*
X01802Y00954*
X01801Y00954*
X01801Y00954*
X01801Y00954*
X018Y00954*
X018Y00954*
X018*
X01799Y00954*
X01799Y00954*
X01799Y00954*
X01798Y00954*
X01798Y00954*
X01798Y00954*
X01797Y00954*
X01797Y00953*
X01797Y00953*
X01797Y00953*
X01796Y00953*
X01796Y00953*
X01796Y00952*
X01796Y00952*
X01796Y00952*
X01795Y00951*
X01795Y00951*
X01795Y00951*
X01795Y0095*
X01795Y0095*
X01795Y0095*
X01795Y00949*
X01795Y00949*
X01795Y00949*
X01795Y00948*
X01795Y00948*
X01795Y00948*
X01795Y00947*
X01796Y00947*
X01796Y00947*
X01796Y00946*
X01796Y00946*
X01796Y00946*
X01797Y00946*
X01797Y00946*
X01797Y00945*
X01797Y00945*
X01798Y00945*
X01798Y00945*
X01798Y00945*
X01799Y00945*
X01799Y00945*
X01799Y00944*
X018Y00944*
X018*
X018Y00944*
X01801Y00945*
X01801Y00945*
X01801Y00945*
X01802Y00945*
X01802Y00945*
X01802Y00945*
X01803Y00945*
X01803Y00946*
X01803Y00946*
X01803Y00946*
X01804Y00946*
X01804Y00946*
X01804Y00947*
X01804Y00947*
X01804Y00947*
X01805Y00948*
X01805Y00948*
X01805Y00948*
X01805Y00949*
X01805Y00949*
X01805Y00949*
G54D37*
X0088Y00209D02*
X01006D01*
X0088Y00405D02*
X01006D01*
Y00209D02*
Y00405D01*
X0088Y00209D02*
Y00405D01*
X02346Y01926D02*
Y02273D01*
X0222Y01926D02*
Y02273D01*
Y01926D02*
X02346D01*
X0222Y02273D02*
X02346D01*
X02307Y00951D02*
X02402D01*
X02307Y00828D02*
X02402D01*
X02307D02*
Y00951D01*
X02402Y00828D02*
Y00951D01*
X01838Y01422D02*
Y01537D01*
X01878Y01422D02*
Y01537D01*
X01838D02*
X01878D01*
X01838Y01422D02*
X01878D01*
X0137Y01406D02*
Y01603D01*
X01496Y01406D02*
Y01603D01*
X0137D02*
X01496D01*
X0137Y01406D02*
X01496D01*
X0088Y01409D02*
X01006D01*
X0088Y01605D02*
X01006D01*
Y01409D02*
Y01605D01*
X0088Y01409D02*
Y01605D01*
X01838Y00222D02*
Y00337D01*
X01878Y00222D02*
Y00337D01*
X01838D02*
X01878D01*
X01838Y00222D02*
X01878D01*
X0137Y00206D02*
Y00403D01*
X01496Y00206D02*
Y00403D01*
X0137D02*
X01496D01*
X0137Y00206D02*
X01496D01*
X01838Y02022D02*
Y02137D01*
X01878Y02022D02*
Y02137D01*
X01838D02*
X01878D01*
X01838Y02022D02*
X01878D01*
X0137Y02006D02*
Y02203D01*
X01496Y02006D02*
Y02203D01*
X0137D02*
X01496D01*
X0137Y02006D02*
X01496D01*
X0088Y02009D02*
Y02205D01*
X01006Y02009D02*
Y02205D01*
X0088D02*
X01006D01*
X0088Y02009D02*
X01006D01*
X0088Y00809D02*
X01006D01*
X0088Y01005D02*
X01006D01*
Y00809D02*
Y01005D01*
X0088Y00809D02*
Y01005D01*
X0137Y00806D02*
X01496D01*
X0137Y01003D02*
X01496D01*
Y00806D02*
Y01003D01*
X0137Y00806D02*
Y01003D01*
X01838Y00822D02*
X01878D01*
X01838Y00937D02*
X01878D01*
Y00822D02*
Y00937D01*
X01838Y00822D02*
Y00937D01*
G54D38*
X02686Y00806D02*
X02698D01*
X02542D02*
X02553D01*
X02662Y00964D02*
X02698D01*
Y00806D02*
Y00964D01*
X02542Y00806D02*
Y00964D01*
X02577*
G54D39*
X00213Y02119D02*
X00225Y021D01*
X00236Y02119*
X00213D02*
X00236D01*
X00049Y01871D02*
X00266D01*
Y02088*
X00049D02*
X00266D01*
X00049Y01871D02*
Y02088D01*
Y01391D02*
Y01608D01*
X00266*
Y01391D02*
Y01608D01*
X00049Y01391D02*
X00266D01*
X00213Y01639D02*
X00236D01*
X00225Y0162D02*
X00236Y01639D01*
X00213D02*
X00225Y0162D01*
X00213Y01039D02*
X00225Y0102D01*
X00236Y01039*
X00213D02*
X00236D01*
X00049Y00791D02*
X00266D01*
Y01008*
X00049D02*
X00266D01*
X00049Y00791D02*
Y01008D01*
Y00327D02*
Y00544D01*
X00266*
Y00327D02*
Y00544D01*
X00049Y00327D02*
X00266D01*
X00213Y00575D02*
X00236D01*
X00225Y00555D02*
X00236Y00575D01*
X00213D02*
X00225Y00555D01*
X02137Y00537D02*
X02162Y00477D01*
X02137Y00537D02*
X02187D01*
X02162Y00477D02*
X02187Y00537D01*
X0215Y00135D02*
Y00158D01*
Y00135D02*
X0257D01*
Y00467*
X0215D02*
X0257D01*
X0215Y00446D02*
Y00467D01*
Y00345D02*
Y00353D01*
Y00247D02*
Y00257D01*
X0253Y0188D02*
X02541Y01861D01*
X02518D02*
X0253Y0188D01*
X02518Y01861D02*
X02541D01*
X02488Y02158D02*
X02705D01*
X02488Y01892D02*
Y02158D01*
Y01892D02*
X02705D01*
Y02158*
Y0151D02*
Y01776D01*
X02488Y0151D02*
X02705D01*
X02488D02*
Y01776D01*
X02705*
X02518Y01479D02*
X02541D01*
X02518D02*
X0253Y01499D01*
X02541Y01479*
X0253Y01119D02*
X02541Y011D01*
X02518D02*
X0253Y01119D01*
X02518Y011D02*
X02541D01*
X02488Y01397D02*
X02705D01*
X02488Y01131D02*
Y01397D01*
Y01131D02*
X02705D01*
Y01397*
X02744Y00717D02*
X02715D01*
Y00732*
X0272Y00737*
X0273*
X02734Y00732*
Y00717*
Y00727D02*
X02744Y00737D01*
Y00747D02*
Y00757D01*
Y00752*
X02715*
X0272Y00747*
X02715Y00792D02*
X0272Y00782D01*
X0273Y00772*
X02739*
X02744Y00777*
Y00787*
X02739Y00792*
X02734*
X0273Y00787*
Y00772*
X02582Y00985D02*
Y01014D01*
X02597*
X02602Y01009*
Y01*
X02597Y00995*
X02582*
X02592D02*
X02602Y00985D01*
X02612D02*
X02622D01*
X02617*
Y01014*
X02612Y01009*
X02657Y01014D02*
X02637D01*
Y01*
X02647Y01004*
X02652*
X02657Y01*
Y0099*
X02652Y00985*
X02642*
X02637Y0099*
X02359Y00707D02*
X0233D01*
Y00722*
X02335Y00727*
X02345*
X02349Y00722*
Y00707*
Y00717D02*
X02359Y00727D01*
Y00737D02*
Y00747D01*
Y00742*
X0233*
X02335Y00737*
X02359Y00777D02*
X0233D01*
X02345Y00762*
Y00782*
X0259Y00459D02*
X02619D01*
Y00444*
X02614Y00439*
X02605*
X026Y00444*
Y00459*
X02619Y00429D02*
X0259D01*
X026Y0042*
X0259Y0041*
X02619*
X0259Y004D02*
X02619D01*
Y00385*
X02614Y0038*
X02605*
X026Y00385*
Y004*
Y0039D02*
X0259Y0038D01*
X00055Y00595D02*
Y00565D01*
Y0058*
X00075*
Y00595*
Y00565*
X00084Y0059D02*
X00089Y00595D01*
X00099*
X00104Y0059*
Y00585*
X00099Y0058*
X00094*
X00099*
X00104Y00575*
Y0057*
X00099Y00565*
X00089*
X00084Y0057*
X00055Y01054D02*
Y01025D01*
Y0104*
X00075*
Y01054*
Y01025*
X00104D02*
X00084D01*
X00104Y01044*
Y01049*
X00099Y01054*
X00089*
X00084Y01049*
X0252Y01444D02*
X02515Y01449D01*
X02505*
X025Y01444*
Y01439*
X02505Y01435*
X02515*
X0252Y0143*
Y01425*
X02515Y0142*
X02505*
X025Y01425*
X02529Y0142D02*
X02539D01*
X02534*
Y01449*
X02529Y01444*
X00055Y01654D02*
Y01625D01*
Y0164*
X00075*
Y01654*
Y01625*
X00084D02*
X00094D01*
X00089*
Y01654*
X00084Y01649*
X02515Y01824D02*
X0251Y01829D01*
X025*
X02495Y01824*
Y01819*
X025Y01815*
X0251*
X02515Y0181*
Y01805*
X0251Y018*
X025*
X02495Y01805*
X02524Y01824D02*
X02529Y01829D01*
X02539*
X02544Y01824*
Y01805*
X02539Y018*
X02529*
X02524Y01805*
Y01824*
X00055Y02134D02*
Y02104D01*
Y02119*
X00075*
Y02134*
Y02104*
X00084Y02129D02*
X00089Y02134D01*
X00099*
X00104Y02129*
Y02109*
X00099Y02104*
X00089*
X00084Y02109*
Y02129*
X02515Y02209D02*
X0251Y02214D01*
X025*
X02495Y02209*
Y0219*
X025Y02185*
X0251*
X02515Y0219*
X02525Y02214D02*
X02545D01*
X02535*
Y02185*
X02554D02*
Y02214D01*
X02569*
X02574Y02209*
Y022*
X02569Y02195*
X02554*
X02564D02*
X02574Y02185D01*
X02584Y02214D02*
Y02185D01*
X02604*
X01962Y0021D02*
X01987D01*
X01992Y00215*
Y00225*
X01987Y0023*
X01962*
X01967Y0024D02*
X01962Y00245D01*
Y00255*
X01967Y0026*
X01972*
X01977Y00255*
Y0025*
Y00255*
X01982Y0026*
X01987*
X01992Y00255*
Y00245*
X01987Y0024*
X01997Y0027D02*
Y00289D01*
X01992Y00299D02*
X01972D01*
X01962Y00309*
X01972Y00319*
X01992*
X01977*
Y00299*
X01967Y00329D02*
X01962Y00334D01*
Y00344*
X01967Y00349*
X01972*
X01977Y00344*
Y00339*
Y00344*
X01982Y00349*
X01987*
X01992Y00344*
Y00334*
X01987Y00329*
X01998Y00854D02*
X02023D01*
X02028Y00859*
Y00869*
X02023Y00874*
X01998*
X02003Y00884D02*
X01998Y00889D01*
Y00899*
X02003Y00904*
X02008*
X02013Y00899*
Y00894*
Y00899*
X02018Y00904*
X02023*
X02028Y00899*
Y00889*
X02023Y00884*
X02033Y00914D02*
Y00934D01*
X02028Y00944D02*
X02008D01*
X01998Y00954*
X02008Y00964*
X02028*
X02013*
Y00944*
X02028Y00994D02*
Y00974D01*
X02008Y00994*
X02003*
X01998Y00989*
Y00979*
X02003Y00974*
X01962Y0141D02*
X01987D01*
X01992Y01415*
Y01425*
X01987Y0143*
X01962*
X01967Y0144D02*
X01962Y01445D01*
Y01455*
X01967Y0146*
X01972*
X01977Y01455*
Y0145*
Y01455*
X01982Y0146*
X01987*
X01992Y01455*
Y01445*
X01987Y0144*
X01997Y0147D02*
Y01489D01*
X01992Y01499D02*
X01972D01*
X01962Y01509*
X01972Y01519*
X01992*
X01977*
Y01499*
X01992Y01529D02*
Y01539D01*
Y01534*
X01962*
X01967Y01529*
X01455Y00462D02*
Y00437D01*
X0146Y00432*
X0147*
X01475Y00437*
Y00462*
X01505Y00432D02*
X01485D01*
X01505Y00452*
Y00457*
X015Y00462*
X0149*
X01485Y00457*
X01515Y00427D02*
X01534D01*
X01544Y00432D02*
Y00452D01*
X01554Y00462*
X01564Y00452*
Y00432*
Y00447*
X01544*
X01574Y00457D02*
X01579Y00462D01*
X01589*
X01594Y00457*
Y00452*
X01589Y00447*
X01584*
X01589*
X01594Y00442*
Y00437*
X01589Y00432*
X01579*
X01574Y00437*
X01455Y01062D02*
Y01037D01*
X0146Y01032*
X0147*
X01475Y01037*
Y01062*
X01505Y01032D02*
X01485D01*
X01505Y01052*
Y01057*
X015Y01062*
X0149*
X01485Y01057*
X01515Y01027D02*
X01534D01*
X01544Y01032D02*
Y01052D01*
X01554Y01062*
X01564Y01052*
Y01032*
Y01047*
X01544*
X01594Y01032D02*
X01574D01*
X01594Y01052*
Y01057*
X01589Y01062*
X01579*
X01574Y01057*
X01455Y01662D02*
Y01637D01*
X0146Y01632*
X0147*
X01475Y01637*
Y01662*
X01505Y01632D02*
X01485D01*
X01505Y01652*
Y01657*
X015Y01662*
X0149*
X01485Y01657*
X01515Y01627D02*
X01534D01*
X01544Y01632D02*
Y01652D01*
X01554Y01662*
X01564Y01652*
Y01632*
Y01647*
X01544*
X01574Y01632D02*
X01584D01*
X01579*
Y01662*
X01574Y01657*
X00812Y00467D02*
Y00442D01*
X00817Y00437*
X00827*
X00832Y00442*
Y00467*
X00842Y00437D02*
X00852D01*
X00847*
Y00467*
X00842Y00462*
X00867Y00432D02*
X00887D01*
X00897Y00437D02*
Y00457D01*
X00907Y00467*
X00917Y00457*
Y00437*
Y00452*
X00897*
X00927Y00462D02*
X00932Y00467D01*
X00942*
X00947Y00462*
Y00457*
X00942Y00452*
X00937*
X00942*
X00947Y00447*
Y00442*
X00942Y00437*
X00932*
X00927Y00442*
X00812Y01067D02*
Y01042D01*
X00817Y01037*
X00827*
X00832Y01042*
Y01067*
X00842Y01037D02*
X00852D01*
X00847*
Y01067*
X00842Y01062*
X00867Y01032D02*
X00887D01*
X00897Y01037D02*
Y01057D01*
X00907Y01067*
X00917Y01057*
Y01037*
Y01052*
X00897*
X00947Y01037D02*
X00927D01*
X00947Y01057*
Y01062*
X00942Y01067*
X00932*
X00927Y01062*
X00812Y01667D02*
Y01642D01*
X00817Y01637*
X00827*
X00832Y01642*
Y01667*
X00842Y01637D02*
X00852D01*
X00847*
Y01667*
X00842Y01662*
X00867Y01632D02*
X00887D01*
X00897Y01637D02*
Y01657D01*
X00907Y01667*
X00917Y01657*
Y01637*
Y01652*
X00897*
X00927Y01637D02*
X00937D01*
X00932*
Y01667*
X00927Y01662*
X01062Y00102D02*
Y00132D01*
X01077*
X01082Y00127*
Y00117*
X01077Y00112*
X01062*
X01072D02*
X01082Y00102D01*
X01092D02*
X01102D01*
X01097*
Y00132*
X01092Y00127*
X01117D02*
X01122Y00132D01*
X01132*
X01137Y00127*
Y00122*
X01132Y00117*
X01127*
X01132*
X01137Y00112*
Y00107*
X01132Y00102*
X01122*
X01117Y00107*
X01147Y00097D02*
X01167D01*
X01177Y00102D02*
Y00122D01*
X01187Y00132*
X01197Y00122*
Y00102*
Y00117*
X01177*
X01207Y00127D02*
X01212Y00132D01*
X01222*
X01227Y00127*
Y00122*
X01222Y00117*
X01217*
X01222*
X01227Y00112*
Y00107*
X01222Y00102*
X01212*
X01207Y00107*
X01062Y00702D02*
Y00732D01*
X01077*
X01082Y00727*
Y00717*
X01077Y00712*
X01062*
X01072D02*
X01082Y00702D01*
X01092D02*
X01102D01*
X01097*
Y00732*
X01092Y00727*
X01117D02*
X01122Y00732D01*
X01132*
X01137Y00727*
Y00722*
X01132Y00717*
X01127*
X01132*
X01137Y00712*
Y00707*
X01132Y00702*
X01122*
X01117Y00707*
X01147Y00697D02*
X01167D01*
X01177Y00702D02*
Y00722D01*
X01187Y00732*
X01197Y00722*
Y00702*
Y00717*
X01177*
X01227Y00702D02*
X01207D01*
X01227Y00722*
Y00727*
X01222Y00732*
X01212*
X01207Y00727*
X01062Y01302D02*
Y01332D01*
X01077*
X01082Y01327*
Y01317*
X01077Y01312*
X01062*
X01072D02*
X01082Y01302D01*
X01092D02*
X01102D01*
X01097*
Y01332*
X01092Y01327*
X01117D02*
X01122Y01332D01*
X01132*
X01137Y01327*
Y01322*
X01132Y01317*
X01127*
X01132*
X01137Y01312*
Y01307*
X01132Y01302*
X01122*
X01117Y01307*
X01147Y01297D02*
X01167D01*
X01177Y01302D02*
Y01322D01*
X01187Y01332*
X01197Y01322*
Y01302*
Y01317*
X01177*
X01207Y01302D02*
X01217D01*
X01212*
Y01332*
X01207Y01327*
X01522Y00067D02*
Y00097D01*
X01537*
X01542Y00092*
Y00082*
X01537Y00077*
X01522*
X01532D02*
X01542Y00067D01*
X01552D02*
X01562D01*
X01557*
Y00097*
X01552Y00092*
X01597Y00067D02*
X01577D01*
X01597Y00087*
Y00092*
X01592Y00097*
X01582*
X01577Y00092*
X01607Y00062D02*
X01627D01*
X01637Y00067D02*
Y00087D01*
X01647Y00097*
X01657Y00087*
Y00067*
Y00082*
X01637*
X01667Y00092D02*
X01672Y00097D01*
X01682*
X01687Y00092*
Y00087*
X01682Y00082*
X01677*
X01682*
X01687Y00077*
Y00072*
X01682Y00067*
X01672*
X01667Y00072*
X01522Y00667D02*
Y00697D01*
X01537*
X01542Y00692*
Y00682*
X01537Y00677*
X01522*
X01532D02*
X01542Y00667D01*
X01552D02*
X01562D01*
X01557*
Y00697*
X01552Y00692*
X01597Y00667D02*
X01577D01*
X01597Y00687*
Y00692*
X01592Y00697*
X01582*
X01577Y00692*
X01607Y00662D02*
X01627D01*
X01637Y00667D02*
Y00687D01*
X01647Y00697*
X01657Y00687*
Y00667*
Y00682*
X01637*
X01687Y00667D02*
X01667D01*
X01687Y00687*
Y00692*
X01682Y00697*
X01672*
X01667Y00692*
X01522Y01267D02*
Y01297D01*
X01537*
X01542Y01292*
Y01282*
X01537Y01277*
X01522*
X01532D02*
X01542Y01267D01*
X01552D02*
X01562D01*
X01557*
Y01297*
X01552Y01292*
X01597Y01267D02*
X01577D01*
X01597Y01287*
Y01292*
X01592Y01297*
X01582*
X01577Y01292*
X01607Y01262D02*
X01627D01*
X01637Y01267D02*
Y01287D01*
X01647Y01297*
X01657Y01287*
Y01267*
Y01282*
X01637*
X01667Y01267D02*
X01677D01*
X01672*
Y01297*
X01667Y01292*
X015Y00022D02*
Y00052D01*
X01515*
X0152Y00047*
Y00037*
X01515Y00032*
X015*
X0151D02*
X0152Y00022D01*
X0153D02*
X0154D01*
X01535*
Y00052*
X0153Y00047*
X01555Y00022D02*
X01565D01*
X0156*
Y00052*
X01555Y00047*
X0158Y00017D02*
X01599D01*
X01609Y00022D02*
Y00042D01*
X01619Y00052*
X01629Y00042*
Y00022*
Y00037*
X01609*
X01639Y00047D02*
X01644Y00052D01*
X01654*
X01659Y00047*
Y00042*
X01654Y00037*
X01649*
X01654*
X01659Y00032*
Y00027*
X01654Y00022*
X01644*
X01639Y00027*
X015Y00622D02*
Y00652D01*
X01515*
X0152Y00647*
Y00637*
X01515Y00632*
X015*
X0151D02*
X0152Y00622D01*
X0153D02*
X0154D01*
X01535*
Y00652*
X0153Y00647*
X01555Y00622D02*
X01565D01*
X0156*
Y00652*
X01555Y00647*
X0158Y00617D02*
X01599D01*
X01609Y00622D02*
Y00642D01*
X01619Y00652*
X01629Y00642*
Y00622*
Y00637*
X01609*
X01659Y00622D02*
X01639D01*
X01659Y00642*
Y00647*
X01654Y00652*
X01644*
X01639Y00647*
X015Y01222D02*
Y01252D01*
X01515*
X0152Y01247*
Y01237*
X01515Y01232*
X015*
X0151D02*
X0152Y01222D01*
X0153D02*
X0154D01*
X01535*
Y01252*
X0153Y01247*
X01555Y01222D02*
X01565D01*
X0156*
Y01252*
X01555Y01247*
X0158Y01217D02*
X01599D01*
X01609Y01222D02*
Y01242D01*
X01619Y01252*
X01629Y01242*
Y01222*
Y01237*
X01609*
X01639Y01222D02*
X01649D01*
X01644*
Y01252*
X01639Y01247*
X01177Y00552D02*
Y00582D01*
X01192*
X01197Y00577*
Y00567*
X01192Y00562*
X01177*
X01187D02*
X01197Y00552D01*
X01207D02*
X01217D01*
X01212*
Y00582*
X01207Y00577*
X01232D02*
X01237Y00582D01*
X01247*
X01252Y00577*
Y00557*
X01247Y00552*
X01237*
X01232Y00557*
Y00577*
X01262Y00547D02*
X01282D01*
X01292Y00552D02*
Y00572D01*
X01302Y00582*
X01312Y00572*
Y00552*
Y00567*
X01292*
X01322Y00577D02*
X01327Y00582D01*
X01337*
X01342Y00577*
Y00572*
X01337Y00567*
X01332*
X01337*
X01342Y00562*
Y00557*
X01337Y00552*
X01327*
X01322Y00557*
X01177Y01152D02*
Y01182D01*
X01192*
X01197Y01177*
Y01167*
X01192Y01162*
X01177*
X01187D02*
X01197Y01152D01*
X01207D02*
X01217D01*
X01212*
Y01182*
X01207Y01177*
X01232D02*
X01237Y01182D01*
X01247*
X01252Y01177*
Y01157*
X01247Y01152*
X01237*
X01232Y01157*
Y01177*
X01262Y01147D02*
X01282D01*
X01292Y01152D02*
Y01172D01*
X01302Y01182*
X01312Y01172*
Y01152*
Y01167*
X01292*
X01342Y01152D02*
X01322D01*
X01342Y01172*
Y01177*
X01337Y01182*
X01327*
X01322Y01177*
X01177Y01752D02*
Y01782D01*
X01192*
X01197Y01777*
Y01767*
X01192Y01762*
X01177*
X01187D02*
X01197Y01752D01*
X01207D02*
X01217D01*
X01212*
Y01782*
X01207Y01777*
X01232D02*
X01237Y01782D01*
X01247*
X01252Y01777*
Y01757*
X01247Y01752*
X01237*
X01232Y01757*
Y01777*
X01262Y01747D02*
X01282D01*
X01292Y01752D02*
Y01772D01*
X01302Y01782*
X01312Y01772*
Y01752*
Y01767*
X01292*
X01322Y01752D02*
X01332D01*
X01327*
Y01782*
X01322Y01777*
X0112Y00507D02*
Y00537D01*
X01135*
X0114Y00532*
Y00522*
X01135Y00517*
X0112*
X0113D02*
X0114Y00507D01*
X0115Y00512D02*
X01155Y00507D01*
X01165*
X0117Y00512*
Y00532*
X01165Y00537*
X01155*
X0115Y00532*
Y00527*
X01155Y00522*
X0117*
X0118Y00502D02*
X01199D01*
X01209Y00507D02*
Y00527D01*
X01219Y00537*
X01229Y00527*
Y00507*
Y00522*
X01209*
X01239Y00532D02*
X01244Y00537D01*
X01254*
X01259Y00532*
Y00527*
X01254Y00522*
X01249*
X01254*
X01259Y00517*
Y00512*
X01254Y00507*
X01244*
X01239Y00512*
X0112Y01107D02*
Y01137D01*
X01135*
X0114Y01132*
Y01122*
X01135Y01117*
X0112*
X0113D02*
X0114Y01107D01*
X0115Y01112D02*
X01155Y01107D01*
X01165*
X0117Y01112*
Y01132*
X01165Y01137*
X01155*
X0115Y01132*
Y01127*
X01155Y01122*
X0117*
X0118Y01102D02*
X01199D01*
X01209Y01107D02*
Y01127D01*
X01219Y01137*
X01229Y01127*
Y01107*
Y01122*
X01209*
X01259Y01107D02*
X01239D01*
X01259Y01127*
Y01132*
X01254Y01137*
X01244*
X01239Y01132*
X0112Y01707D02*
Y01737D01*
X01135*
X0114Y01732*
Y01722*
X01135Y01717*
X0112*
X0113D02*
X0114Y01707D01*
X0115Y01712D02*
X01155Y01707D01*
X01165*
X0117Y01712*
Y01732*
X01165Y01737*
X01155*
X0115Y01732*
Y01727*
X01155Y01722*
X0117*
X0118Y01702D02*
X01199D01*
X01209Y01707D02*
Y01727D01*
X01219Y01737*
X01229Y01727*
Y01707*
Y01722*
X01209*
X01239Y01707D02*
X01249D01*
X01244*
Y01737*
X01239Y01732*
X01645Y00517D02*
Y00547D01*
X0166*
X01665Y00542*
Y00532*
X0166Y00527*
X01645*
X01655D02*
X01665Y00517D01*
X01675Y00542D02*
X0168Y00547D01*
X0169*
X01695Y00542*
Y00537*
X0169Y00532*
X01695Y00527*
Y00522*
X0169Y00517*
X0168*
X01675Y00522*
Y00527*
X0168Y00532*
X01675Y00537*
Y00542*
X0168Y00532D02*
X0169D01*
X01705Y00512D02*
X01724D01*
X01734Y00517D02*
Y00537D01*
X01744Y00547*
X01754Y00537*
Y00517*
Y00532*
X01734*
X01764Y00542D02*
X01769Y00547D01*
X01779*
X01784Y00542*
Y00537*
X01779Y00532*
X01774*
X01779*
X01784Y00527*
Y00522*
X01779Y00517*
X01769*
X01764Y00522*
X01645Y01117D02*
Y01147D01*
X0166*
X01665Y01142*
Y01132*
X0166Y01127*
X01645*
X01655D02*
X01665Y01117D01*
X01675Y01142D02*
X0168Y01147D01*
X0169*
X01695Y01142*
Y01137*
X0169Y01132*
X01695Y01127*
Y01122*
X0169Y01117*
X0168*
X01675Y01122*
Y01127*
X0168Y01132*
X01675Y01137*
Y01142*
X0168Y01132D02*
X0169D01*
X01705Y01112D02*
X01724D01*
X01734Y01117D02*
Y01137D01*
X01744Y01147*
X01754Y01137*
Y01117*
Y01132*
X01734*
X01784Y01117D02*
X01764D01*
X01784Y01137*
Y01142*
X01779Y01147*
X01769*
X01764Y01142*
X01645Y01717D02*
Y01747D01*
X0166*
X01665Y01742*
Y01732*
X0166Y01727*
X01645*
X01655D02*
X01665Y01717D01*
X01675Y01742D02*
X0168Y01747D01*
X0169*
X01695Y01742*
Y01737*
X0169Y01732*
X01695Y01727*
Y01722*
X0169Y01717*
X0168*
X01675Y01722*
Y01727*
X0168Y01732*
X01675Y01737*
Y01742*
X0168Y01732D02*
X0169D01*
X01705Y01712D02*
X01724D01*
X01734Y01717D02*
Y01737D01*
X01744Y01747*
X01754Y01737*
Y01717*
Y01732*
X01734*
X01764Y01717D02*
X01774D01*
X01769*
Y01747*
X01764Y01742*
X00643Y00117D02*
Y00147D01*
X00658*
X00663Y00142*
Y00132*
X00658Y00127*
X00643*
X00653D02*
X00663Y00117D01*
X00673Y00147D02*
X00693D01*
Y00142*
X00673Y00122*
Y00117*
X00703Y00112D02*
X00723D01*
X00733Y00117D02*
Y00137D01*
X00743Y00147*
X00753Y00137*
Y00117*
Y00132*
X00733*
X00763Y00142D02*
X00768Y00147D01*
X00778*
X00783Y00142*
Y00137*
X00778Y00132*
X00773*
X00778*
X00783Y00127*
Y00122*
X00778Y00117*
X00768*
X00763Y00122*
X00643Y00717D02*
Y00747D01*
X00658*
X00663Y00742*
Y00732*
X00658Y00727*
X00643*
X00653D02*
X00663Y00717D01*
X00673Y00747D02*
X00693D01*
Y00742*
X00673Y00722*
Y00717*
X00703Y00712D02*
X00723D01*
X00733Y00717D02*
Y00737D01*
X00743Y00747*
X00753Y00737*
Y00717*
Y00732*
X00733*
X00783Y00717D02*
X00763D01*
X00783Y00737*
Y00742*
X00778Y00747*
X00768*
X00763Y00742*
X00643Y01317D02*
Y01347D01*
X00658*
X00663Y01342*
Y01332*
X00658Y01327*
X00643*
X00653D02*
X00663Y01317D01*
X00673Y01347D02*
X00693D01*
Y01342*
X00673Y01322*
Y01317*
X00703Y01312D02*
X00723D01*
X00733Y01317D02*
Y01337D01*
X00743Y01347*
X00753Y01337*
Y01317*
Y01332*
X00733*
X00763Y01317D02*
X00773D01*
X00768*
Y01347*
X00763Y01342*
X00691Y00235D02*
X00661D01*
Y0025*
X00666Y00255*
X00676*
X00681Y0025*
Y00235*
Y00245D02*
X00691Y00255D01*
X00661Y00285D02*
X00666Y00275D01*
X00676Y00265*
X00686*
X00691Y0027*
Y0028*
X00686Y00285*
X00681*
X00676Y0028*
Y00265*
X00695Y00295D02*
Y00314D01*
X00691Y00324D02*
X00671D01*
X00661Y00334*
X00671Y00344*
X00691*
X00676*
Y00324*
X00666Y00354D02*
X00661Y00359D01*
Y00369*
X00666Y00374*
X00671*
X00676Y00369*
Y00364*
Y00369*
X00681Y00374*
X00686*
X00691Y00369*
Y00359*
X00686Y00354*
X00691Y00835D02*
X00661D01*
Y0085*
X00666Y00855*
X00676*
X00681Y0085*
Y00835*
Y00845D02*
X00691Y00855D01*
X00661Y00885D02*
X00666Y00875D01*
X00676Y00865*
X00686*
X00691Y0087*
Y0088*
X00686Y00885*
X00681*
X00676Y0088*
Y00865*
X00695Y00895D02*
Y00914D01*
X00691Y00924D02*
X00671D01*
X00661Y00934*
X00671Y00944*
X00691*
X00676*
Y00924*
X00691Y00974D02*
Y00954D01*
X00671Y00974*
X00666*
X00661Y00969*
Y00959*
X00666Y00954*
X0069Y01435D02*
X00661D01*
Y0145*
X00666Y01455*
X00676*
X00681Y0145*
Y01435*
Y01445D02*
X0069Y01455D01*
X00661Y01485D02*
X00666Y01475D01*
X00676Y01465*
X00686*
X0069Y0147*
Y0148*
X00686Y01485*
X00681*
X00676Y0148*
Y01465*
X00695Y01495D02*
Y01514D01*
X0069Y01524D02*
X00671D01*
X00661Y01534*
X00671Y01544*
X0069*
X00676*
Y01524*
X0069Y01554D02*
Y01564D01*
Y01559*
X00661*
X00666Y01554*
X00483Y00122D02*
Y00152D01*
X00498*
X00503Y00147*
Y00137*
X00498Y00132*
X00483*
X00493D02*
X00503Y00122D01*
X00533Y00152D02*
X00513D01*
Y00137*
X00523Y00142*
X00528*
X00533Y00137*
Y00127*
X00528Y00122*
X00518*
X00513Y00127*
X00543Y00117D02*
X00563D01*
X00573Y00122D02*
Y00142D01*
X00583Y00152*
X00593Y00142*
Y00122*
Y00137*
X00573*
X00603Y00147D02*
X00608Y00152D01*
X00618*
X00623Y00147*
Y00142*
X00618Y00137*
X00613*
X00618*
X00623Y00132*
Y00127*
X00618Y00122*
X00608*
X00603Y00127*
X00483Y00722D02*
Y00752D01*
X00498*
X00503Y00747*
Y00737*
X00498Y00732*
X00483*
X00493D02*
X00503Y00722D01*
X00533Y00752D02*
X00513D01*
Y00737*
X00523Y00742*
X00528*
X00533Y00737*
Y00727*
X00528Y00722*
X00518*
X00513Y00727*
X00543Y00717D02*
X00563D01*
X00573Y00722D02*
Y00742D01*
X00583Y00752*
X00593Y00742*
Y00722*
Y00737*
X00573*
X00623Y00722D02*
X00603D01*
X00623Y00742*
Y00747*
X00618Y00752*
X00608*
X00603Y00747*
X00483Y01322D02*
Y01352D01*
X00498*
X00503Y01347*
Y01337*
X00498Y01332*
X00483*
X00493D02*
X00503Y01322D01*
X00533Y01352D02*
X00513D01*
Y01337*
X00523Y01342*
X00528*
X00533Y01337*
Y01327*
X00528Y01322*
X00518*
X00513Y01327*
X00543Y01317D02*
X00563D01*
X00573Y01322D02*
Y01342D01*
X00583Y01352*
X00593Y01342*
Y01322*
Y01337*
X00573*
X00603Y01322D02*
X00613D01*
X00608*
Y01352*
X00603Y01347*
X00313Y00122D02*
Y00152D01*
X00328*
X00333Y00147*
Y00137*
X00328Y00132*
X00313*
X00323D02*
X00333Y00122D01*
X00358D02*
Y00152D01*
X00343Y00137*
X00363*
X00373Y00117D02*
X00393D01*
X00403Y00122D02*
Y00142D01*
X00413Y00152*
X00423Y00142*
Y00122*
Y00137*
X00403*
X00433Y00147D02*
X00438Y00152D01*
X00448*
X00453Y00147*
Y00142*
X00448Y00137*
X00443*
X00448*
X00453Y00132*
Y00127*
X00448Y00122*
X00438*
X00433Y00127*
X00313Y00722D02*
Y00752D01*
X00328*
X00333Y00747*
Y00737*
X00328Y00732*
X00313*
X00323D02*
X00333Y00722D01*
X00358D02*
Y00752D01*
X00343Y00737*
X00363*
X00373Y00717D02*
X00393D01*
X00403Y00722D02*
Y00742D01*
X00413Y00752*
X00423Y00742*
Y00722*
Y00737*
X00403*
X00453Y00722D02*
X00433D01*
X00453Y00742*
Y00747*
X00448Y00752*
X00438*
X00433Y00747*
X00313Y01322D02*
Y01352D01*
X00328*
X00333Y01347*
Y01337*
X00328Y01332*
X00313*
X00323D02*
X00333Y01322D01*
X00358D02*
Y01352D01*
X00343Y01337*
X00363*
X00373Y01317D02*
X00393D01*
X00403Y01322D02*
Y01342D01*
X00413Y01352*
X00423Y01342*
Y01322*
Y01337*
X00403*
X00433Y01322D02*
X00443D01*
X00438*
Y01352*
X00433Y01347*
X00643Y00472D02*
Y00502D01*
X00658*
X00663Y00497*
Y00487*
X00658Y00482*
X00643*
X00653D02*
X00663Y00472D01*
X00673Y00497D02*
X00678Y00502D01*
X00688*
X00693Y00497*
Y00492*
X00688Y00487*
X00683*
X00688*
X00693Y00482*
Y00477*
X00688Y00472*
X00678*
X00673Y00477*
X00703Y00467D02*
X00723D01*
X00733Y00472D02*
Y00492D01*
X00743Y00502*
X00753Y00492*
Y00472*
Y00487*
X00733*
X00763Y00497D02*
X00768Y00502D01*
X00778*
X00783Y00497*
Y00492*
X00778Y00487*
X00773*
X00778*
X00783Y00482*
Y00477*
X00778Y00472*
X00768*
X00763Y00477*
X00643Y01072D02*
Y01102D01*
X00658*
X00663Y01097*
Y01087*
X00658Y01082*
X00643*
X00653D02*
X00663Y01072D01*
X00673Y01097D02*
X00678Y01102D01*
X00688*
X00693Y01097*
Y01092*
X00688Y01087*
X00683*
X00688*
X00693Y01082*
Y01077*
X00688Y01072*
X00678*
X00673Y01077*
X00703Y01067D02*
X00723D01*
X00733Y01072D02*
Y01092D01*
X00743Y01102*
X00753Y01092*
Y01072*
Y01087*
X00733*
X00783Y01072D02*
X00763D01*
X00783Y01092*
Y01097*
X00778Y01102*
X00768*
X00763Y01097*
X00643Y01672D02*
Y01702D01*
X00658*
X00663Y01697*
Y01687*
X00658Y01682*
X00643*
X00653D02*
X00663Y01672D01*
X00673Y01697D02*
X00678Y01702D01*
X00688*
X00693Y01697*
Y01692*
X00688Y01687*
X00683*
X00688*
X00693Y01682*
Y01677*
X00688Y01672*
X00678*
X00673Y01677*
X00703Y01667D02*
X00723D01*
X00733Y01672D02*
Y01692D01*
X00743Y01702*
X00753Y01692*
Y01672*
Y01687*
X00733*
X00763Y01672D02*
X00773D01*
X00768*
Y01702*
X00763Y01697*
X00483Y00467D02*
Y00497D01*
X00498*
X00503Y00492*
Y00482*
X00498Y00477*
X00483*
X00493D02*
X00503Y00467D01*
X00533D02*
X00513D01*
X00533Y00487*
Y00492*
X00528Y00497*
X00518*
X00513Y00492*
X00543Y00462D02*
X00563D01*
X00573Y00467D02*
Y00487D01*
X00583Y00497*
X00593Y00487*
Y00467*
Y00482*
X00573*
X00603Y00492D02*
X00608Y00497D01*
X00618*
X00623Y00492*
Y00487*
X00618Y00482*
X00613*
X00618*
X00623Y00477*
Y00472*
X00618Y00467*
X00608*
X00603Y00472*
X00483Y01067D02*
Y01097D01*
X00498*
X00503Y01092*
Y01082*
X00498Y01077*
X00483*
X00493D02*
X00503Y01067D01*
X00533D02*
X00513D01*
X00533Y01087*
Y01092*
X00528Y01097*
X00518*
X00513Y01092*
X00543Y01062D02*
X00563D01*
X00573Y01067D02*
Y01087D01*
X00583Y01097*
X00593Y01087*
Y01067*
Y01082*
X00573*
X00623Y01067D02*
X00603D01*
X00623Y01087*
Y01092*
X00618Y01097*
X00608*
X00603Y01092*
X00483Y01667D02*
Y01697D01*
X00498*
X00503Y01692*
Y01682*
X00498Y01677*
X00483*
X00493D02*
X00503Y01667D01*
X00533D02*
X00513D01*
X00533Y01687*
Y01692*
X00528Y01697*
X00518*
X00513Y01692*
X00543Y01662D02*
X00563D01*
X00573Y01667D02*
Y01687D01*
X00583Y01697*
X00593Y01687*
Y01667*
Y01682*
X00573*
X00603Y01667D02*
X00613D01*
X00608*
Y01697*
X00603Y01692*
X00316Y00467D02*
Y00497D01*
X00331*
X00336Y00492*
Y00482*
X00331Y00477*
X00316*
X00326D02*
X00336Y00467D01*
X00346D02*
X00356D01*
X00351*
Y00497*
X00346Y00492*
X00371Y00462D02*
X00391D01*
X004Y00467D02*
Y00487D01*
X0041Y00497*
X0042Y00487*
Y00467*
Y00482*
X004*
X0043Y00492D02*
X00435Y00497D01*
X00445*
X0045Y00492*
Y00487*
X00445Y00482*
X0044*
X00445*
X0045Y00477*
Y00472*
X00445Y00467*
X00435*
X0043Y00472*
X00316Y01067D02*
Y01097D01*
X00331*
X00336Y01092*
Y01082*
X00331Y01077*
X00316*
X00326D02*
X00336Y01067D01*
X00346D02*
X00356D01*
X00351*
Y01097*
X00346Y01092*
X00371Y01062D02*
X00391D01*
X004Y01067D02*
Y01087D01*
X0041Y01097*
X0042Y01087*
Y01067*
Y01082*
X004*
X0045Y01067D02*
X0043D01*
X0045Y01087*
Y01092*
X00445Y01097*
X00435*
X0043Y01092*
X00316Y01667D02*
Y01697D01*
X00331*
X00336Y01692*
Y01682*
X00331Y01677*
X00316*
X00326D02*
X00336Y01667D01*
X00346D02*
X00356D01*
X00351*
Y01697*
X00346Y01692*
X00371Y01662D02*
X00391D01*
X004Y01667D02*
Y01687D01*
X0041Y01697*
X0042Y01687*
Y01667*
Y01682*
X004*
X0043Y01667D02*
X0044D01*
X00435*
Y01697*
X0043Y01692*
X01625Y00492D02*
X0162Y00497D01*
X0161*
X01605Y00492*
Y00472*
X0161Y00467*
X0162*
X01625Y00472*
X01635Y00492D02*
X0164Y00497D01*
X0165*
X01655Y00492*
Y00487*
X0165Y00482*
X01655Y00477*
Y00472*
X0165Y00467*
X0164*
X01635Y00472*
Y00477*
X0164Y00482*
X01635Y00487*
Y00492*
X0164Y00482D02*
X0165D01*
X01665Y00462D02*
X01684D01*
X01694Y00467D02*
Y00487D01*
X01704Y00497*
X01714Y00487*
Y00467*
Y00482*
X01694*
X01724Y00492D02*
X01729Y00497D01*
X01739*
X01744Y00492*
Y00487*
X01739Y00482*
X01734*
X01739*
X01744Y00477*
Y00472*
X01739Y00467*
X01729*
X01724Y00472*
X01625Y01092D02*
X0162Y01097D01*
X0161*
X01605Y01092*
Y01072*
X0161Y01067*
X0162*
X01625Y01072*
X01635Y01092D02*
X0164Y01097D01*
X0165*
X01655Y01092*
Y01087*
X0165Y01082*
X01655Y01077*
Y01072*
X0165Y01067*
X0164*
X01635Y01072*
Y01077*
X0164Y01082*
X01635Y01087*
Y01092*
X0164Y01082D02*
X0165D01*
X01665Y01062D02*
X01684D01*
X01694Y01067D02*
Y01087D01*
X01704Y01097*
X01714Y01087*
Y01067*
Y01082*
X01694*
X01744Y01067D02*
X01724D01*
X01744Y01087*
Y01092*
X01739Y01097*
X01729*
X01724Y01092*
X01625Y01692D02*
X0162Y01697D01*
X0161*
X01605Y01692*
Y01672*
X0161Y01667*
X0162*
X01625Y01672*
X01635Y01692D02*
X0164Y01697D01*
X0165*
X01655Y01692*
Y01687*
X0165Y01682*
X01655Y01677*
Y01672*
X0165Y01667*
X0164*
X01635Y01672*
Y01677*
X0164Y01682*
X01635Y01687*
Y01692*
X0164Y01682D02*
X0165D01*
X01665Y01662D02*
X01684D01*
X01694Y01667D02*
Y01687D01*
X01704Y01697*
X01714Y01687*
Y01667*
Y01682*
X01694*
X01724Y01667D02*
X01734D01*
X01729*
Y01697*
X01724Y01692*
X01145Y00172D02*
X0114Y00177D01*
X0113*
X01125Y00172*
Y00152*
X0113Y00147*
X0114*
X01145Y00152*
X01155Y00177D02*
X01175D01*
Y00172*
X01155Y00152*
Y00147*
X01185Y00142D02*
X01204D01*
X01214Y00147D02*
Y00167D01*
X01224Y00177*
X01234Y00167*
Y00147*
Y00162*
X01214*
X01244Y00172D02*
X01249Y00177D01*
X01259*
X01264Y00172*
Y00167*
X01259Y00162*
X01254*
X01259*
X01264Y00157*
Y00152*
X01259Y00147*
X01249*
X01244Y00152*
X01145Y00772D02*
X0114Y00777D01*
X0113*
X01125Y00772*
Y00752*
X0113Y00747*
X0114*
X01145Y00752*
X01155Y00777D02*
X01175D01*
Y00772*
X01155Y00752*
Y00747*
X01185Y00742D02*
X01204D01*
X01214Y00747D02*
Y00767D01*
X01224Y00777*
X01234Y00767*
Y00747*
Y00762*
X01214*
X01264Y00747D02*
X01244D01*
X01264Y00767*
Y00772*
X01259Y00777*
X01249*
X01244Y00772*
X01145Y01372D02*
X0114Y01377D01*
X0113*
X01125Y01372*
Y01352*
X0113Y01347*
X0114*
X01145Y01352*
X01155Y01377D02*
X01175D01*
Y01372*
X01155Y01352*
Y01347*
X01185Y01342D02*
X01204D01*
X01214Y01347D02*
Y01367D01*
X01224Y01377*
X01234Y01367*
Y01347*
Y01362*
X01214*
X01244Y01347D02*
X01254D01*
X01249*
Y01377*
X01244Y01372*
X0183Y00477D02*
X01825Y00482D01*
X01815*
X0181Y00477*
Y00457*
X01815Y00452*
X01825*
X0183Y00457*
X0186Y00482D02*
X0185Y00477D01*
X0184Y00467*
Y00457*
X01845Y00452*
X01855*
X0186Y00457*
Y00462*
X01855Y00467*
X0184*
X0187Y00447D02*
X01889D01*
X01899Y00452D02*
Y00472D01*
X01909Y00482*
X01919Y00472*
Y00452*
Y00467*
X01899*
X01929Y00477D02*
X01934Y00482D01*
X01944*
X01949Y00477*
Y00472*
X01944Y00467*
X01939*
X01944*
X01949Y00462*
Y00457*
X01944Y00452*
X01934*
X01929Y00457*
X0183Y01077D02*
X01825Y01082D01*
X01815*
X0181Y01077*
Y01057*
X01815Y01052*
X01825*
X0183Y01057*
X0186Y01082D02*
X0185Y01077D01*
X0184Y01067*
Y01057*
X01845Y01052*
X01855*
X0186Y01057*
Y01062*
X01855Y01067*
X0184*
X0187Y01047D02*
X01889D01*
X01899Y01052D02*
Y01072D01*
X01909Y01082*
X01919Y01072*
Y01052*
Y01067*
X01899*
X01949Y01052D02*
X01929D01*
X01949Y01072*
Y01077*
X01944Y01082*
X01934*
X01929Y01077*
X0183Y01677D02*
X01825Y01682D01*
X01815*
X0181Y01677*
Y01657*
X01815Y01652*
X01825*
X0183Y01657*
X0186Y01682D02*
X0185Y01677D01*
X0184Y01667*
Y01657*
X01845Y01652*
X01855*
X0186Y01657*
Y01662*
X01855Y01667*
X0184*
X0187Y01647D02*
X01889D01*
X01899Y01652D02*
Y01672D01*
X01909Y01682*
X01919Y01672*
Y01652*
Y01667*
X01899*
X01929Y01652D02*
X01939D01*
X01934*
Y01682*
X01929Y01677*
X01785Y00102D02*
X0178Y00107D01*
X0177*
X01765Y00102*
Y00082*
X0177Y00077*
X0178*
X01785Y00082*
X01815Y00107D02*
X01795D01*
Y00092*
X01805Y00097*
X0181*
X01815Y00092*
Y00082*
X0181Y00077*
X018*
X01795Y00082*
X01825Y00072D02*
X01844D01*
X01854Y00077D02*
Y00097D01*
X01864Y00107*
X01874Y00097*
Y00077*
Y00092*
X01854*
X01884Y00102D02*
X01889Y00107D01*
X01899*
X01904Y00102*
Y00097*
X01899Y00092*
X01894*
X01899*
X01904Y00087*
Y00082*
X01899Y00077*
X01889*
X01884Y00082*
X01785Y00702D02*
X0178Y00707D01*
X0177*
X01765Y00702*
Y00682*
X0177Y00677*
X0178*
X01785Y00682*
X01815Y00707D02*
X01795D01*
Y00692*
X01805Y00697*
X0181*
X01815Y00692*
Y00682*
X0181Y00677*
X018*
X01795Y00682*
X01825Y00672D02*
X01844D01*
X01854Y00677D02*
Y00697D01*
X01864Y00707*
X01874Y00697*
Y00677*
Y00692*
X01854*
X01904Y00677D02*
X01884D01*
X01904Y00697*
Y00702*
X01899Y00707*
X01889*
X01884Y00702*
X01785Y01302D02*
X0178Y01307D01*
X0177*
X01765Y01302*
Y01282*
X0177Y01277*
X0178*
X01785Y01282*
X01815Y01307D02*
X01795D01*
Y01292*
X01805Y01297*
X0181*
X01815Y01292*
Y01282*
X0181Y01277*
X018*
X01795Y01282*
X01825Y01272D02*
X01844D01*
X01854Y01277D02*
Y01297D01*
X01864Y01307*
X01874Y01297*
Y01277*
Y01292*
X01854*
X01884Y01277D02*
X01894D01*
X01889*
Y01307*
X01884Y01302*
X0098Y00547D02*
X00975Y00552D01*
X00965*
X0096Y00547*
Y00527*
X00965Y00522*
X00975*
X0098Y00527*
X01005Y00522D02*
Y00552D01*
X0099Y00537*
X0101*
X0102Y00517D02*
X01039D01*
X01049Y00522D02*
Y00542D01*
X01059Y00552*
X01069Y00542*
Y00522*
Y00537*
X01049*
X01079Y00547D02*
X01084Y00552D01*
X01094*
X01099Y00547*
Y00542*
X01094Y00537*
X01089*
X01094*
X01099Y00532*
Y00527*
X01094Y00522*
X01084*
X01079Y00527*
X0098Y01147D02*
X00975Y01152D01*
X00965*
X0096Y01147*
Y01127*
X00965Y01122*
X00975*
X0098Y01127*
X01005Y01122D02*
Y01152D01*
X0099Y01137*
X0101*
X0102Y01117D02*
X01039D01*
X01049Y01122D02*
Y01142D01*
X01059Y01152*
X01069Y01142*
Y01122*
Y01137*
X01049*
X01099Y01122D02*
X01079D01*
X01099Y01142*
Y01147*
X01094Y01152*
X01084*
X01079Y01147*
X0098Y01747D02*
X00975Y01752D01*
X00965*
X0096Y01747*
Y01727*
X00965Y01722*
X00975*
X0098Y01727*
X01005Y01722D02*
Y01752D01*
X0099Y01737*
X0101*
X0102Y01717D02*
X01039D01*
X01049Y01722D02*
Y01742D01*
X01059Y01752*
X01069Y01742*
Y01722*
Y01737*
X01049*
X01079Y01722D02*
X01089D01*
X01084*
Y01752*
X01079Y01747*
X0089Y00092D02*
X00885Y00097D01*
X00875*
X0087Y00092*
Y00072*
X00875Y00067*
X00885*
X0089Y00072*
X009Y00092D02*
X00905Y00097D01*
X00915*
X0092Y00092*
Y00087*
X00915Y00082*
X0091*
X00915*
X0092Y00077*
Y00072*
X00915Y00067*
X00905*
X009Y00072*
X0093Y00062D02*
X00949D01*
X00959Y00067D02*
Y00087D01*
X00969Y00097*
X00979Y00087*
Y00067*
Y00082*
X00959*
X00989Y00092D02*
X00994Y00097D01*
X01004*
X01009Y00092*
Y00087*
X01004Y00082*
X00999*
X01004*
X01009Y00077*
Y00072*
X01004Y00067*
X00994*
X00989Y00072*
X0089Y00692D02*
X00885Y00697D01*
X00875*
X0087Y00692*
Y00672*
X00875Y00667*
X00885*
X0089Y00672*
X009Y00692D02*
X00905Y00697D01*
X00915*
X0092Y00692*
Y00687*
X00915Y00682*
X0091*
X00915*
X0092Y00677*
Y00672*
X00915Y00667*
X00905*
X009Y00672*
X0093Y00662D02*
X00949D01*
X00959Y00667D02*
Y00687D01*
X00969Y00697*
X00979Y00687*
Y00667*
Y00682*
X00959*
X01009Y00667D02*
X00989D01*
X01009Y00687*
Y00692*
X01004Y00697*
X00994*
X00989Y00692*
X0089Y01292D02*
X00885Y01297D01*
X00875*
X0087Y01292*
Y01272*
X00875Y01267*
X00885*
X0089Y01272*
X009Y01292D02*
X00905Y01297D01*
X00915*
X0092Y01292*
Y01287*
X00915Y01282*
X0091*
X00915*
X0092Y01277*
Y01272*
X00915Y01267*
X00905*
X009Y01272*
X0093Y01262D02*
X00949D01*
X00959Y01267D02*
Y01287D01*
X00969Y01297*
X00979Y01287*
Y01267*
Y01282*
X00959*
X00989Y01267D02*
X00999D01*
X00994*
Y01297*
X00989Y01292*
X00418Y00272D02*
X00413Y00277D01*
X00403*
X00398Y00272*
Y00252*
X00403Y00247*
X00413*
X00418Y00252*
X00448Y00247D02*
X00428D01*
X00448Y00267*
Y00272*
X00443Y00277*
X00433*
X00428Y00272*
X00458Y00242D02*
X00478D01*
X00488Y00247D02*
Y00267D01*
X00498Y00277*
X00508Y00267*
Y00247*
Y00262*
X00488*
X00518Y00272D02*
X00523Y00277D01*
X00533*
X00538Y00272*
Y00267*
X00533Y00262*
X00528*
X00533*
X00538Y00257*
Y00252*
X00533Y00247*
X00523*
X00518Y00252*
X00418Y00872D02*
X00413Y00877D01*
X00403*
X00398Y00872*
Y00852*
X00403Y00847*
X00413*
X00418Y00852*
X00448Y00847D02*
X00428D01*
X00448Y00867*
Y00872*
X00443Y00877*
X00433*
X00428Y00872*
X00458Y00842D02*
X00478D01*
X00488Y00847D02*
Y00867D01*
X00498Y00877*
X00508Y00867*
Y00847*
Y00862*
X00488*
X00538Y00847D02*
X00518D01*
X00538Y00867*
Y00872*
X00533Y00877*
X00523*
X00518Y00872*
X00418Y01472D02*
X00413Y01477D01*
X00403*
X00398Y01472*
Y01452*
X00403Y01447*
X00413*
X00418Y01452*
X00448Y01447D02*
X00428D01*
X00448Y01467*
Y01472*
X00443Y01477*
X00433*
X00428Y01472*
X00458Y01442D02*
X00478D01*
X00488Y01447D02*
Y01467D01*
X00498Y01477*
X00508Y01467*
Y01447*
Y01462*
X00488*
X00518Y01447D02*
X00528D01*
X00523*
Y01477*
X00518Y01472*
X00421Y00367D02*
X00416Y00372D01*
X00406*
X00401Y00367*
Y00347*
X00406Y00342*
X00416*
X00421Y00347*
X00431Y00342D02*
X00441D01*
X00436*
Y00372*
X00431Y00367*
X00456Y00337D02*
X00476D01*
X00485Y00342D02*
Y00362D01*
X00495Y00372*
X00505Y00362*
Y00342*
Y00357*
X00485*
X00515Y00367D02*
X0052Y00372D01*
X0053*
X00535Y00367*
Y00362*
X0053Y00357*
X00525*
X0053*
X00535Y00352*
Y00347*
X0053Y00342*
X0052*
X00515Y00347*
X00421Y00967D02*
X00416Y00972D01*
X00406*
X00401Y00967*
Y00947*
X00406Y00942*
X00416*
X00421Y00947*
X00431Y00942D02*
X00441D01*
X00436*
Y00972*
X00431Y00967*
X00456Y00937D02*
X00476D01*
X00485Y00942D02*
Y00962D01*
X00495Y00972*
X00505Y00962*
Y00942*
Y00957*
X00485*
X00535Y00942D02*
X00515D01*
X00535Y00962*
Y00967*
X0053Y00972*
X0052*
X00515Y00967*
X00421Y01567D02*
X00416Y01572D01*
X00406*
X00401Y01567*
Y01547*
X00406Y01542*
X00416*
X00421Y01547*
X00431Y01542D02*
X00441D01*
X00436*
Y01572*
X00431Y01567*
X00456Y01537D02*
X00476D01*
X00485Y01542D02*
Y01562D01*
X00495Y01572*
X00505Y01562*
Y01542*
Y01557*
X00485*
X00515Y01542D02*
X00525D01*
X0052*
Y01572*
X00515Y01567*
X0233Y00999D02*
Y00975D01*
X02335Y0097*
X02345*
X0235Y00975*
Y00999*
X02379D02*
X02359D01*
Y00985*
X02369Y00989*
X02374*
X02379Y00985*
Y00975*
X02374Y0097*
X02364*
X02359Y00975*
X02126Y02334D02*
Y0231D01*
X02131Y02305*
X02141*
X02146Y0231*
Y02334*
X02171Y02305D02*
Y02334D01*
X02156Y0232*
X02176*
X01962Y0201D02*
X01987D01*
X01992Y02015*
Y02025*
X01987Y0203*
X01962*
X01967Y0204D02*
X01962Y02045D01*
Y02055*
X01967Y0206*
X01972*
X01977Y02055*
Y0205*
Y02055*
X01982Y0206*
X01987*
X01992Y02055*
Y02045*
X01987Y0204*
X01997Y0207D02*
Y02089D01*
X01992Y02099D02*
X01972D01*
X01962Y02109*
X01972Y02119*
X01992*
X01977*
Y02099*
X01967Y02129D02*
X01962Y02134D01*
Y02144*
X01967Y02149*
X01987*
X01992Y02144*
Y02134*
X01987Y02129*
X01967*
X01455Y02262D02*
Y02237D01*
X0146Y02232*
X0147*
X01475Y02237*
Y02262*
X01505Y02232D02*
X01485D01*
X01505Y02252*
Y02257*
X015Y02262*
X0149*
X01485Y02257*
X01515Y02227D02*
X01534D01*
X01544Y02232D02*
Y02252D01*
X01554Y02262*
X01564Y02252*
Y02232*
Y02247*
X01544*
X01574Y02257D02*
X01579Y02262D01*
X01589*
X01594Y02257*
Y02237*
X01589Y02232*
X01579*
X01574Y02237*
Y02257*
X00812Y02267D02*
Y02242D01*
X00817Y02237*
X00827*
X00832Y02242*
Y02267*
X00842Y02237D02*
X00852D01*
X00847*
Y02267*
X00842Y02262*
X00867Y02232D02*
X00887D01*
X00897Y02237D02*
Y02257D01*
X00907Y02267*
X00917Y02257*
Y02237*
Y02252*
X00897*
X00927Y02262D02*
X00932Y02267D01*
X00942*
X00947Y02262*
Y02242*
X00942Y02237*
X00932*
X00927Y02242*
Y02262*
X01062Y01902D02*
Y01932D01*
X01077*
X01082Y01927*
Y01917*
X01077Y01912*
X01062*
X01072D02*
X01082Y01902D01*
X01092D02*
X01102D01*
X01097*
Y01932*
X01092Y01927*
X01117D02*
X01122Y01932D01*
X01132*
X01137Y01927*
Y01922*
X01132Y01917*
X01127*
X01132*
X01137Y01912*
Y01907*
X01132Y01902*
X01122*
X01117Y01907*
X01147Y01897D02*
X01167D01*
X01177Y01902D02*
Y01922D01*
X01187Y01932*
X01197Y01922*
Y01902*
Y01917*
X01177*
X01207Y01927D02*
X01212Y01932D01*
X01222*
X01227Y01927*
Y01907*
X01222Y01902*
X01212*
X01207Y01907*
Y01927*
X01522Y01867D02*
Y01897D01*
X01537*
X01542Y01892*
Y01882*
X01537Y01877*
X01522*
X01532D02*
X01542Y01867D01*
X01552D02*
X01562D01*
X01557*
Y01897*
X01552Y01892*
X01597Y01867D02*
X01577D01*
X01597Y01887*
Y01892*
X01592Y01897*
X01582*
X01577Y01892*
X01607Y01862D02*
X01627D01*
X01637Y01867D02*
Y01887D01*
X01647Y01897*
X01657Y01887*
Y01867*
Y01882*
X01637*
X01667Y01892D02*
X01672Y01897D01*
X01682*
X01687Y01892*
Y01872*
X01682Y01867*
X01672*
X01667Y01872*
Y01892*
X015Y01822D02*
Y01852D01*
X01515*
X0152Y01847*
Y01837*
X01515Y01832*
X015*
X0151D02*
X0152Y01822D01*
X0153D02*
X0154D01*
X01535*
Y01852*
X0153Y01847*
X01555Y01822D02*
X01565D01*
X0156*
Y01852*
X01555Y01847*
X0158Y01817D02*
X01599D01*
X01609Y01822D02*
Y01842D01*
X01619Y01852*
X01629Y01842*
Y01822*
Y01837*
X01609*
X01639Y01847D02*
X01644Y01852D01*
X01654*
X01659Y01847*
Y01827*
X01654Y01822*
X01644*
X01639Y01827*
Y01847*
X01277Y02307D02*
Y02337D01*
X01292*
X01297Y02332*
Y02322*
X01292Y02317*
X01277*
X01287D02*
X01297Y02307D01*
X01307D02*
X01317D01*
X01312*
Y02337*
X01307Y02332*
X01332D02*
X01337Y02337D01*
X01347*
X01352Y02332*
Y02312*
X01347Y02307*
X01337*
X01332Y02312*
Y02332*
X01362Y02302D02*
X01382D01*
X01392Y02307D02*
Y02327D01*
X01402Y02337*
X01412Y02327*
Y02307*
Y02322*
X01392*
X01422Y02332D02*
X01427Y02337D01*
X01437*
X01442Y02332*
Y02312*
X01437Y02307*
X01427*
X01422Y02312*
Y02332*
X0112Y02307D02*
Y02337D01*
X01135*
X0114Y02332*
Y02322*
X01135Y02317*
X0112*
X0113D02*
X0114Y02307D01*
X0115Y02312D02*
X01155Y02307D01*
X01165*
X0117Y02312*
Y02332*
X01165Y02337*
X01155*
X0115Y02332*
Y02327*
X01155Y02322*
X0117*
X0118Y02302D02*
X01199D01*
X01209Y02307D02*
Y02327D01*
X01219Y02337*
X01229Y02327*
Y02307*
Y02322*
X01209*
X01239Y02332D02*
X01244Y02337D01*
X01254*
X01259Y02332*
Y02312*
X01254Y02307*
X01244*
X01239Y02312*
Y02332*
X01645Y02317D02*
Y02347D01*
X0166*
X01665Y02342*
Y02332*
X0166Y02327*
X01645*
X01655D02*
X01665Y02317D01*
X01675Y02342D02*
X0168Y02347D01*
X0169*
X01695Y02342*
Y02337*
X0169Y02332*
X01695Y02327*
Y02322*
X0169Y02317*
X0168*
X01675Y02322*
Y02327*
X0168Y02332*
X01675Y02337*
Y02342*
X0168Y02332D02*
X0169D01*
X01705Y02312D02*
X01724D01*
X01734Y02317D02*
Y02337D01*
X01744Y02347*
X01754Y02337*
Y02317*
Y02332*
X01734*
X01764Y02342D02*
X01769Y02347D01*
X01779*
X01784Y02342*
Y02322*
X01779Y02317*
X01769*
X01764Y02322*
Y02342*
X00643Y01917D02*
Y01947D01*
X00658*
X00663Y01942*
Y01932*
X00658Y01927*
X00643*
X00653D02*
X00663Y01917D01*
X00673Y01947D02*
X00693D01*
Y01942*
X00673Y01922*
Y01917*
X00703Y01912D02*
X00723D01*
X00733Y01917D02*
Y01937D01*
X00743Y01947*
X00753Y01937*
Y01917*
Y01932*
X00733*
X00763Y01942D02*
X00768Y01947D01*
X00778*
X00783Y01942*
Y01922*
X00778Y01917*
X00768*
X00763Y01922*
Y01942*
X00691Y02035D02*
X00661D01*
Y0205*
X00666Y02055*
X00676*
X00681Y0205*
Y02035*
Y02045D02*
X00691Y02055D01*
X00661Y02085D02*
X00666Y02075D01*
X00676Y02065*
X00686*
X00691Y0207*
Y0208*
X00686Y02085*
X00681*
X00676Y0208*
Y02065*
X00695Y02095D02*
Y02114D01*
X00691Y02124D02*
X00671D01*
X00661Y02134*
X00671Y02144*
X00691*
X00676*
Y02124*
X00666Y02154D02*
X00661Y02159D01*
Y02169*
X00666Y02174*
X00686*
X00691Y02169*
Y02159*
X00686Y02154*
X00666*
X00483Y01922D02*
Y01952D01*
X00498*
X00503Y01947*
Y01937*
X00498Y01932*
X00483*
X00493D02*
X00503Y01922D01*
X00533Y01952D02*
X00513D01*
Y01937*
X00523Y01942*
X00528*
X00533Y01937*
Y01927*
X00528Y01922*
X00518*
X00513Y01927*
X00543Y01917D02*
X00563D01*
X00573Y01922D02*
Y01942D01*
X00583Y01952*
X00593Y01942*
Y01922*
Y01937*
X00573*
X00603Y01947D02*
X00608Y01952D01*
X00618*
X00623Y01947*
Y01927*
X00618Y01922*
X00608*
X00603Y01927*
Y01947*
X00313Y01922D02*
Y01952D01*
X00328*
X00333Y01947*
Y01937*
X00328Y01932*
X00313*
X00323D02*
X00333Y01922D01*
X00358D02*
Y01952D01*
X00343Y01937*
X00363*
X00373Y01917D02*
X00393D01*
X00403Y01922D02*
Y01942D01*
X00413Y01952*
X00423Y01942*
Y01922*
Y01937*
X00403*
X00433Y01947D02*
X00438Y01952D01*
X00448*
X00453Y01947*
Y01927*
X00448Y01922*
X00438*
X00433Y01927*
Y01947*
X00643Y02272D02*
Y02302D01*
X00658*
X00663Y02297*
Y02287*
X00658Y02282*
X00643*
X00653D02*
X00663Y02272D01*
X00673Y02297D02*
X00678Y02302D01*
X00688*
X00693Y02297*
Y02292*
X00688Y02287*
X00683*
X00688*
X00693Y02282*
Y02277*
X00688Y02272*
X00678*
X00673Y02277*
X00703Y02267D02*
X00723D01*
X00733Y02272D02*
Y02292D01*
X00743Y02302*
X00753Y02292*
Y02272*
Y02287*
X00733*
X00763Y02297D02*
X00768Y02302D01*
X00778*
X00783Y02297*
Y02277*
X00778Y02272*
X00768*
X00763Y02277*
Y02297*
X00483Y02267D02*
Y02297D01*
X00498*
X00503Y02292*
Y02282*
X00498Y02277*
X00483*
X00493D02*
X00503Y02267D01*
X00533D02*
X00513D01*
X00533Y02287*
Y02292*
X00528Y02297*
X00518*
X00513Y02292*
X00543Y02262D02*
X00563D01*
X00573Y02267D02*
Y02287D01*
X00583Y02297*
X00593Y02287*
Y02267*
Y02282*
X00573*
X00603Y02292D02*
X00608Y02297D01*
X00618*
X00623Y02292*
Y02272*
X00618Y02267*
X00608*
X00603Y02272*
Y02292*
X00316Y02267D02*
Y02297D01*
X00331*
X00336Y02292*
Y02282*
X00331Y02277*
X00316*
X00326D02*
X00336Y02267D01*
X00346D02*
X00356D01*
X00351*
Y02297*
X00346Y02292*
X00371Y02262D02*
X00391D01*
X004Y02267D02*
Y02287D01*
X0041Y02297*
X0042Y02287*
Y02267*
Y02282*
X004*
X0043Y02292D02*
X00435Y02297D01*
X00445*
X0045Y02292*
Y02272*
X00445Y02267*
X00435*
X0043Y02272*
Y02292*
X02582Y00619D02*
X02577Y00624D01*
X02567*
X02562Y00619*
Y006*
X02567Y00595*
X02577*
X02582Y006*
X02592Y00595D02*
X02602D01*
X02597*
Y00624*
X02592Y00619*
X02637Y00595D02*
X02617D01*
X02637Y00614*
Y00619*
X02632Y00624*
X02622*
X02617Y00619*
X02427Y00624D02*
X02422Y00629D01*
X02412*
X02407Y00624*
Y00605*
X02412Y006*
X02422*
X02427Y00605*
X02437Y006D02*
X02447D01*
X02442*
Y00629*
X02437Y00624*
X02462Y006D02*
X02472D01*
X02467*
Y00629*
X02462Y00624*
X02149Y01809D02*
X02144Y01814D01*
X02134*
X02129Y01809*
Y0179*
X02134Y01785*
X02144*
X02149Y0179*
X02159Y01785D02*
X02169D01*
X02164*
Y01814*
X02159Y01809*
X02184D02*
X02189Y01814D01*
X02199*
X02204Y01809*
Y0179*
X02199Y01785*
X02189*
X02184Y0179*
Y01809*
X02321D02*
X02316Y01814D01*
X02306*
X02301Y01809*
Y0179*
X02306Y01785*
X02316*
X02321Y0179*
X02331D02*
X02336Y01785D01*
X02346*
X02351Y0179*
Y01809*
X02346Y01814*
X02336*
X02331Y01809*
Y01804*
X02336Y018*
X02351*
X01625Y02292D02*
X0162Y02297D01*
X0161*
X01605Y02292*
Y02272*
X0161Y02267*
X0162*
X01625Y02272*
X01635Y02292D02*
X0164Y02297D01*
X0165*
X01655Y02292*
Y02287*
X0165Y02282*
X01655Y02277*
Y02272*
X0165Y02267*
X0164*
X01635Y02272*
Y02277*
X0164Y02282*
X01635Y02287*
Y02292*
X0164Y02282D02*
X0165D01*
X01665Y02262D02*
X01684D01*
X01694Y02267D02*
Y02287D01*
X01704Y02297*
X01714Y02287*
Y02267*
Y02282*
X01694*
X01724Y02292D02*
X01729Y02297D01*
X01739*
X01744Y02292*
Y02272*
X01739Y02267*
X01729*
X01724Y02272*
Y02292*
X01145Y01972D02*
X0114Y01977D01*
X0113*
X01125Y01972*
Y01952*
X0113Y01947*
X0114*
X01145Y01952*
X01155Y01977D02*
X01175D01*
Y01972*
X01155Y01952*
Y01947*
X01185Y01942D02*
X01204D01*
X01214Y01947D02*
Y01967D01*
X01224Y01977*
X01234Y01967*
Y01947*
Y01962*
X01214*
X01244Y01972D02*
X01249Y01977D01*
X01259*
X01264Y01972*
Y01952*
X01259Y01947*
X01249*
X01244Y01952*
Y01972*
X0183Y02277D02*
X01825Y02282D01*
X01815*
X0181Y02277*
Y02257*
X01815Y02252*
X01825*
X0183Y02257*
X0186Y02282D02*
X0185Y02277D01*
X0184Y02267*
Y02257*
X01845Y02252*
X01855*
X0186Y02257*
Y02262*
X01855Y02267*
X0184*
X0187Y02247D02*
X01889D01*
X01899Y02252D02*
Y02272D01*
X01909Y02282*
X01919Y02272*
Y02252*
Y02267*
X01899*
X01929Y02277D02*
X01934Y02282D01*
X01944*
X01949Y02277*
Y02257*
X01944Y02252*
X01934*
X01929Y02257*
Y02277*
X01785Y01902D02*
X0178Y01907D01*
X0177*
X01765Y01902*
Y01882*
X0177Y01877*
X0178*
X01785Y01882*
X01815Y01907D02*
X01795D01*
Y01892*
X01805Y01897*
X0181*
X01815Y01892*
Y01882*
X0181Y01877*
X018*
X01795Y01882*
X01825Y01872D02*
X01844D01*
X01854Y01877D02*
Y01897D01*
X01864Y01907*
X01874Y01897*
Y01877*
Y01892*
X01854*
X01884Y01902D02*
X01889Y01907D01*
X01899*
X01904Y01902*
Y01882*
X01899Y01877*
X01889*
X01884Y01882*
Y01902*
X0098Y02347D02*
X00975Y02352D01*
X00965*
X0096Y02347*
Y02327*
X00965Y02322*
X00975*
X0098Y02327*
X01005Y02322D02*
Y02352D01*
X0099Y02337*
X0101*
X0102Y02317D02*
X01039D01*
X01049Y02322D02*
Y02342D01*
X01059Y02352*
X01069Y02342*
Y02322*
Y02337*
X01049*
X01079Y02347D02*
X01084Y02352D01*
X01094*
X01099Y02347*
Y02327*
X01094Y02322*
X01084*
X01079Y02327*
Y02347*
X0089Y01892D02*
X00885Y01897D01*
X00875*
X0087Y01892*
Y01872*
X00875Y01867*
X00885*
X0089Y01872*
X009Y01892D02*
X00905Y01897D01*
X00915*
X0092Y01892*
Y01887*
X00915Y01882*
X0091*
X00915*
X0092Y01877*
Y01872*
X00915Y01867*
X00905*
X009Y01872*
X0093Y01862D02*
X00949D01*
X00959Y01867D02*
Y01887D01*
X00969Y01897*
X00979Y01887*
Y01867*
Y01882*
X00959*
X00989Y01892D02*
X00994Y01897D01*
X01004*
X01009Y01892*
Y01872*
X01004Y01867*
X00994*
X00989Y01872*
Y01892*
X00418Y02072D02*
X00413Y02077D01*
X00403*
X00398Y02072*
Y02052*
X00403Y02047*
X00413*
X00418Y02052*
X00448Y02047D02*
X00428D01*
X00448Y02067*
Y02072*
X00443Y02077*
X00433*
X00428Y02072*
X00458Y02042D02*
X00478D01*
X00488Y02047D02*
Y02067D01*
X00498Y02077*
X00508Y02067*
Y02047*
Y02062*
X00488*
X00518Y02072D02*
X00523Y02077D01*
X00533*
X00538Y02072*
Y02052*
X00533Y02047*
X00523*
X00518Y02052*
Y02072*
X00421Y02167D02*
X00416Y02172D01*
X00406*
X00401Y02167*
Y02147*
X00406Y02142*
X00416*
X00421Y02147*
X00431Y02142D02*
X00441D01*
X00436*
Y02172*
X00431Y02167*
X00456Y02137D02*
X00476D01*
X00485Y02142D02*
Y02162D01*
X00495Y02172*
X00505Y02162*
Y02142*
Y02157*
X00485*
X00515Y02167D02*
X0052Y02172D01*
X0053*
X00535Y02167*
Y02147*
X0053Y02142*
X0052*
X00515Y02147*
Y02167*
G54D40*
X02328Y01083D02*
Y01109D01*
Y01096*
X02368*
X02328Y01122D02*
X02368D01*
X02348*
X02342Y01129*
Y01142*
X02348Y01149*
X02368*
Y01182D02*
Y01169D01*
X02362Y01162*
X02348*
X02342Y01169*
Y01182*
X02348Y01189*
X02355*
Y01162*
X02368Y01209D02*
Y01222D01*
X02362Y01229*
X02348*
X02342Y01222*
Y01209*
X02348Y01202*
X02362*
X02368Y01209*
X02335Y01309D02*
X02328Y01302D01*
Y01289*
X02335Y01282*
X02362*
X02368Y01289*
Y01302*
X02362Y01309*
X02328Y01322D02*
X02368D01*
X02348*
X02342Y01329*
Y01342*
X02348Y01349*
X02368*
Y01382D02*
Y01369D01*
X02362Y01362*
X02348*
X02342Y01369*
Y01382*
X02348Y01389*
X02355*
Y01362*
X02368Y01402D02*
X02342D01*
Y01409*
X02348Y01416*
X02368*
X02348*
X02342Y01422*
X02348Y01429*
X02368*
Y01462D02*
Y01449D01*
X02362Y01442*
X02348*
X02342Y01449*
Y01462*
X02348Y01469*
X02355*
Y01442*
X02368Y01482D02*
Y01496D01*
Y01489*
X02328*
Y01482*
X02405Y01109D02*
X02398Y01102D01*
Y01089*
X02405Y01083*
X02412*
X02418Y01089*
Y01102*
X02425Y01109*
X02432*
X02438Y01102*
Y01089*
X02432Y01083*
X02438Y01142D02*
Y01129D01*
X02432Y01122*
X02418*
X02412Y01129*
Y01142*
X02418Y01149*
X02425*
Y01122*
X02452Y01162D02*
X02412D01*
Y01182*
X02418Y01189*
X02432*
X02438Y01182*
Y01162*
X02405Y01209D02*
X02412D01*
Y01202*
Y01216*
Y01209*
X02432*
X02438Y01216*
Y01256D02*
Y01242D01*
X02432Y01236*
X02418*
X02412Y01242*
Y01256*
X02418Y01262*
X02425*
Y01236*
X02438Y01276D02*
X02412D01*
Y01282*
X02418Y01289*
X02438*
X02418*
X02412Y01296*
X02418Y01302*
X02438*
X02398Y01316D02*
X02438D01*
Y01336*
X02432Y01342*
X02425*
X02418*
X02412Y01336*
Y01316*
X02438Y01376D02*
Y01362D01*
X02432Y01356*
X02418*
X02412Y01362*
Y01376*
X02418Y01382*
X02425*
Y01356*
X02412Y01396D02*
X02438D01*
X02425*
X02418Y01402*
X02412Y01409*
Y01416*
X02438Y01502D02*
Y01476D01*
X02412Y01502*
X02405*
X02398Y01496*
Y01482*
X02405Y01476*
Y01516D02*
X02398Y01522D01*
Y01536*
X02405Y01542*
X02432*
X02438Y01536*
Y01522*
X02432Y01516*
X02405*
X02438Y01582D02*
Y01556D01*
X02412Y01582*
X02405*
X02398Y01576*
Y01562*
X02405Y01556*
X02438Y01622D02*
Y01596D01*
X02412Y01622*
X02405*
X02398Y01616*
Y01602*
X02405Y01596*
X02262Y01109D02*
Y01083D01*
X02282*
Y01096*
Y01083*
X02302*
X02275Y01122D02*
X02302D01*
X02288*
X02282Y01129*
X02275Y01136*
Y01142*
X02302Y01169D02*
Y01182D01*
X02295Y01189*
X02282*
X02275Y01182*
Y01169*
X02282Y01162*
X02295*
X02302Y01169*
Y01202D02*
X02275D01*
Y01222*
X02282Y01229*
X02302*
X02268Y01249D02*
X02275D01*
Y01242*
Y01256*
Y01249*
X02295*
X02302Y01256*
Y01296D02*
Y01282D01*
X02295Y01276*
X02282*
X02275Y01282*
Y01296*
X02282Y01302*
X02288*
Y01276*
X02302Y01316D02*
X02275D01*
Y01336*
X02282Y01342*
X02302*
X02262Y01382D02*
X02302D01*
Y01362*
X02295Y01356*
X02282*
X02275Y01362*
Y01382*
X02302Y01436D02*
X02262D01*
Y01456*
X02268Y01462*
X02282*
X02288Y01456*
Y01436*
Y01449D02*
X02302Y01462D01*
Y01496D02*
Y01482D01*
X02295Y01476*
X02282*
X02275Y01482*
Y01496*
X02282Y01502*
X02288*
Y01476*
X02275Y01516D02*
X02302Y01529D01*
X02275Y01542*
X02302Y01616D02*
X02262D01*
X02282Y01596*
Y01622*
M02*