M48
;Layer_Color=9474304
;FILE_FORMAT=2:5
INCH,LZ
;TYPE=PLATED
T1F00S00C0.01600
T4F00S00C0.03543
T5F00S00C0.04000
T6F00S00C0.04724
T7F00S00C0.06693
T8F00S00C0.14567
%
T01
X0210531Y0109622
X0259Y0125911
X0271657Y01445
X0289Y0138884
X0297665Y0131335
X03015Y0106278
X0292
X0347098Y01045
X03605Y0111559
X0365425Y0109
X0359665Y0141612
X036Y0154234
X034335Y0147
X03435Y0141685
X0333461Y0148463
X0319681Y01475
X0317Y0138884
X0333906Y0128406
X0414Y0125911
X04435Y01245
X04475Y01275
X0448323Y0132323
X0453323
X0468311Y01325
X04575Y0105
X0448323
X0426Y0145
X04835Y0154
X0492894Y0148463
X04975Y0144
X0516Y0141685
Y0154262
X05175Y0111559
X0499Y01115
X0489244Y0130244
Y0158
X04965Y0166049
X0503688Y0174874
X051
X05285Y01665
X0552Y0166575
X05755Y01665
X0599Y0166559
X06095Y0186059
X061365Y0189195
X059015Y0189136
X0586Y0186
X056665Y0189211
X05625Y0186075
X054315Y0189136
X0539Y0186
X0532Y02185
X053874Y0235075
X056224
X05555Y0218575
X0579Y02185
X058574Y0235
X060924Y0235059
X06025Y0218559
X0599Y0250059
Y02665
X059Y0278459
X06135Y0278518
X05665Y0278533
X05755Y02665
Y025
X0552Y0250075
Y02665
X0543Y0278459
X05285Y02775
Y0273
Y02665
Y025
X0505506Y0238598
X0504335Y02325
X051065
X0494665Y02485
Y0252
X0486039Y0254
X0490865Y026276
X04745Y0249575
X04795Y02265
Y02225
Y02125
X0474
X0474217Y0201726
X047974Y0200536
X0484059Y0197636
X0508Y02025
X0472248Y0179919
X05055Y0294018
X0514Y0294
X0537Y03035
X0545
X04403Y029
X0443Y0278
X042165Y02825
X0418Y0273
Y0263
Y0257
X04055Y02605
X04035Y0247126
X043Y0248
Y0241799
X044Y02009
Y0196
X0439Y01875
X0443
X04505Y0188
X04465Y0181
X043Y0170799
X0424Y01705
X0418988
X0414
X0422Y0162
X03985Y016764
X0397Y0183856
X04015Y0184166
X04025Y0196
X03965Y0194
X03905Y0191746
X03855Y02115
X0362795Y02055
X03395Y0206
X0341Y0200374
X0327Y0219528
Y0224227
X0334Y02405
X0335Y0245141
X034035Y0253049
X0347Y0253
X0368Y0256638
X03785Y0252
X03855Y02585
X03885Y027415
X0376898Y02895
X03615Y02925
X0352205Y0292
X0328Y0293
X03165Y02805
Y0276
X03135Y0264394
X0360201Y0233894
X0366606Y0234
X036615Y0177
X035985
X0354104Y0165612
X03435Y01615
X03305Y01595
X0319681Y0166049
X04085Y01995
X04145Y0198
X0463Y02125
X0468165
X04625Y016885
X0458323Y0161677
X0304Y0182
X0298Y0187
X03Y01915
X03015Y0198
X02966Y0201
X03075Y0194427
X03035Y0223
Y02275
X02795Y0226
X02755Y0209685
Y02055
X0260157Y0198
X0254157Y02005
X0245Y019635
X0237Y0194
X02285Y0192
X02395Y01845
X0245807Y0184585
X0243Y01675
X02615Y0166941
X028Y0173463
X02695Y0185
X0232Y0211415
X0227Y023965
X02275Y02505
X01955Y0238
X019874Y0281
X0195Y0304
Y0308
X0211713Y01785
X0212Y01715
X02185Y0161597
X0183Y01645
X0286Y02415
X0298Y02525
X0323315Y0333
X03285
X05275Y03225
X0541Y0313
X05485Y0339
Y0343569
T04
X0380823Y0227252
X0390823
Y0237252
X0380823
T05
X0539Y0155537
X05625Y0155612
X0586Y0155537
X06095Y0155596
T06
X0478008Y029989
X048785
Y0309732
X0478008
X0560815
Y029989
X0570657
X05805
Y0309732
X0570657
X0468165
X0458323
Y029989
X0468165
X0436394Y030985
X0426551
X0416709
X0394528
X0384685
X0374843
X0365
X0343Y0309555
Y0299713
X0333157
X0323315
X0313472
Y0309555
X0323315
X0333157
X030363
Y0299713
X0293787
Y0309555
X02715
X0261658
X0251815
X0241972
X023213
X0222287
Y0299713
X023213
X0241972
X0251815
X0261658
X02715
X02155Y0219528
Y0209685
Y0199843
Y019
T07
X018735Y019
Y0219528
X0222287Y0338
X02715
X0293787
X0343
X0365
X0394528
X0416709
X0436394
X0458323
X048785
X0560815
X05805
T08
X0192Y01175
X0603037
X0192Y0335
X0603
M30
