G04*
G04 #@! TF.GenerationSoftware,Altium Limited,Altium Designer,18.1.9 (240)*
G04*
G04 Layer_Physical_Order=4*
G04 Layer_Color=16711680*
%FSLAX25Y25*%
%MOIN*%
G70*
G01*
G75*
%ADD14C,0.01000*%
%ADD100C,0.02000*%
%ADD103O,0.04134X0.04921*%
%ADD104O,0.04823X0.07480*%
%ADD105C,0.05906*%
%ADD106R,0.05906X0.05906*%
%ADD107C,0.08268*%
%ADD108C,0.06142*%
%ADD109C,0.08000*%
%ADD110C,0.06693*%
%ADD111C,0.24016*%
%ADD112C,0.03200*%
D14*
X317500Y280500D02*
X319400Y278600D01*
X316500Y280500D02*
X317500D01*
X440300Y287800D02*
Y290000D01*
X421000Y268500D02*
X440300Y287800D01*
X418000Y268500D02*
X421000D01*
X410000Y260500D02*
X418000Y268500D01*
X405500Y260500D02*
X410000D01*
X418000Y257101D02*
X450399Y289500D01*
X292894Y264394D02*
X313500D01*
X279500Y251000D02*
X292894Y264394D01*
X279500Y226000D02*
Y251000D01*
X418000Y257000D02*
Y257101D01*
X450399Y289500D02*
X472069D01*
X478008Y295439D01*
Y299890D01*
X328000Y293000D02*
X330200Y290800D01*
X318500Y297231D02*
Y302500D01*
X316500Y304500D02*
X318500Y302500D01*
X308685Y304500D02*
X316500D01*
X303630Y309555D02*
X308685Y304500D01*
X318500Y297231D02*
X328400Y287331D01*
Y234166D02*
Y287331D01*
X309000Y293500D02*
X317140D01*
X324800Y285840D01*
Y230529D02*
Y285840D01*
X323000Y229783D02*
Y284500D01*
X317000Y290500D02*
X323000Y284500D01*
X303500Y290500D02*
X317000D01*
X302000Y288500D02*
X316454D01*
X321200Y283754D01*
Y225328D02*
Y283754D01*
X313472Y299713D02*
X326600Y286585D01*
X330200Y234912D02*
Y290800D01*
Y234912D02*
X345713Y219399D01*
X319400Y228854D02*
Y278600D01*
X326600Y231274D02*
Y286585D01*
X316500Y276000D02*
X317600Y274900D01*
Y229600D02*
Y274900D01*
X328400Y234166D02*
X344967Y217599D01*
X444310D01*
X472248Y189661D01*
X345713Y219399D02*
X445055D01*
X492144Y172310D01*
X472248Y179919D02*
Y189661D01*
X492144Y168340D02*
Y172310D01*
X491800Y167996D02*
X492144Y168340D01*
X491800Y164102D02*
Y167996D01*
Y164102D02*
X492144Y163758D01*
Y156799D02*
Y163758D01*
X493944Y167595D02*
Y173056D01*
X493600Y167250D02*
X493944Y167595D01*
X493600Y164848D02*
Y167250D01*
Y164848D02*
X493944Y164504D01*
Y156053D02*
Y164504D01*
X313546Y223000D02*
X319400Y228854D01*
X315500Y227500D02*
X317600Y229600D01*
X326600Y231274D02*
X333400Y224474D01*
X324800Y230529D02*
X329900Y225429D01*
X323000Y229783D02*
X324000Y228783D01*
X321200Y225328D02*
X327000Y219528D01*
X324000Y227227D02*
Y228783D01*
Y227227D02*
X327000Y224227D01*
X329900Y159500D02*
Y225429D01*
X332100Y243940D02*
X334000Y242040D01*
X333157Y247400D02*
Y280703D01*
X332100Y246342D02*
X333157Y247400D01*
X332100Y243940D02*
Y246342D01*
X333157Y280703D02*
X355254Y302800D01*
X356000Y301000D02*
X375835D01*
X355254Y302800D02*
X372642D01*
X335000Y280000D02*
X356000Y301000D01*
X386000Y224500D02*
X387501Y222999D01*
X386000Y224500D02*
Y232429D01*
X414000Y170500D02*
X417188Y167312D01*
X418988Y146012D02*
Y170500D01*
X417188Y131766D02*
Y167312D01*
X418988Y146012D02*
X419000Y146000D01*
X417188Y131766D02*
X423254Y125700D01*
X234739Y209685D02*
X275500D01*
X220000Y194946D02*
X234739Y209685D01*
X220000Y184000D02*
Y194946D01*
X273115Y207885D02*
X275500Y205500D01*
X235485Y207885D02*
X273115D01*
X221800Y194200D02*
X235485Y207885D01*
X221800Y178800D02*
Y194200D01*
X214500Y171500D02*
X221800Y178800D01*
X212000Y171500D02*
X214500D01*
Y178500D02*
X220000Y184000D01*
X211713Y178500D02*
X214500D01*
X491094Y155748D02*
X492144Y156799D01*
X474217Y192783D02*
X493944Y173056D01*
X492894Y148463D02*
Y155003D01*
X493944Y156053D01*
X491094Y150764D02*
Y155748D01*
X489994Y149664D02*
X491094Y150764D01*
X489994Y147261D02*
Y149664D01*
Y147261D02*
X491692Y145563D01*
X495937D01*
X497500Y144000D01*
X483072Y147500D02*
Y153572D01*
Y147500D02*
X517500Y113072D01*
X483072Y153572D02*
X483500Y154000D01*
X517500Y111559D02*
Y113072D01*
X474217Y192783D02*
Y201726D01*
X479500Y212500D02*
X524425D01*
X468165D02*
X473165Y217500D01*
X525716Y216300D02*
X537304Y204713D01*
X482828Y216300D02*
X525716D01*
X481628Y217500D02*
X482828Y216300D01*
X463000Y212500D02*
X470028Y219528D01*
X483072D01*
X484500Y218100D01*
X473165Y217500D02*
X481628D01*
X481100Y215400D02*
X482000Y214500D01*
X476900Y215400D02*
X481100D01*
X474000Y212500D02*
X476900Y215400D01*
X482000Y214500D02*
X524971Y214500D01*
X536558Y202913D01*
X526462Y218100D02*
X537562Y207000D01*
X484500Y218100D02*
X526462Y218100D01*
X537562Y207000D02*
X593713D01*
X601500Y199213D01*
Y182484D02*
Y199213D01*
X554500Y182500D02*
Y199000D01*
X550587Y202913D02*
X554500Y199000D01*
X536558Y202913D02*
X550587D01*
X578000Y182425D02*
Y199500D01*
X572787Y204713D02*
X578000Y199500D01*
X537304Y204713D02*
X572787D01*
X531000Y182425D02*
Y205925D01*
X524425Y212500D02*
X531000Y205925D01*
X539000Y155537D02*
Y174425D01*
X531000Y182425D02*
X539000Y174425D01*
X609500Y155596D02*
Y174484D01*
X601500Y182484D02*
X609500Y174484D01*
X586000Y155537D02*
Y174425D01*
X578000Y182425D02*
X586000Y174425D01*
X479001Y222999D02*
X479500Y222500D01*
X554500Y182500D02*
X562500Y174500D01*
Y155612D02*
Y174500D01*
X374843Y305000D02*
Y309850D01*
X372642Y302800D02*
X374843Y305000D01*
X334000Y240500D02*
Y242040D01*
X375835Y301000D02*
X384685Y309850D01*
X335000Y245141D02*
Y280000D01*
X514000Y294000D02*
Y318500D01*
X509500Y323000D02*
X514000Y318500D01*
X461000Y323000D02*
X509500D01*
X458323Y320323D02*
X461000Y323000D01*
X329900Y159500D02*
X330500D01*
X333400Y156950D02*
X343350Y147000D01*
X333400Y156950D02*
Y224474D01*
X330500Y159500D02*
X330561Y159439D01*
X328000Y332500D02*
X328500Y333000D01*
X328000Y305000D02*
Y332500D01*
X323315Y300315D02*
X328000Y305000D01*
X323315Y299713D02*
Y300315D01*
Y309555D02*
Y333000D01*
X386000Y232429D02*
X390823Y237252D01*
Y227252D02*
X393276Y224799D01*
X458323Y164673D02*
X462500Y168850D01*
X477698Y224799D02*
X479399Y226500D01*
X393276Y224799D02*
X477698D01*
X479399Y226500D02*
X479500D01*
X387501Y222999D02*
X479001D01*
X337202Y158686D02*
Y204000D01*
Y158686D02*
X346250Y149637D01*
X337202Y204000D02*
X339202Y206000D01*
X458323Y161677D02*
Y164673D01*
X303500Y223000D02*
X313546D01*
X303500Y227500D02*
X315500D01*
X293787Y296713D02*
X302000Y288500D01*
X293787Y296713D02*
Y299713D01*
Y309555D02*
X299000Y304343D01*
Y295000D02*
Y304343D01*
Y295000D02*
X303500Y290500D01*
X330561Y116400D02*
Y159439D01*
X195500Y238000D02*
X198740Y241240D01*
Y281000D01*
X339202Y206000D02*
X339500D01*
X346250Y144435D02*
Y149637D01*
X343500Y141685D02*
X346250Y144435D01*
X303630Y298870D02*
Y299713D01*
Y298870D02*
X309000Y293500D01*
X330561Y116400D02*
X335402Y111559D01*
X360500D01*
X411861Y181000D02*
X446500D01*
X398500Y167640D02*
X411861Y181000D01*
X257500Y182000D02*
X304000D01*
X243000Y167500D02*
X257500Y182000D01*
X254557Y200900D02*
X296600D01*
X295000Y190000D02*
X298000Y187000D01*
X299000Y192500D02*
X300000Y191500D01*
X244749Y192500D02*
X299000D01*
X243249Y194000D02*
X244749Y192500D01*
X233500Y190000D02*
X295000D01*
X231500Y192000D02*
X233500Y190000D01*
X228500Y192000D02*
X231500D01*
X237000Y194000D02*
X243249D01*
X256500Y194427D02*
X307500D01*
X254577Y196350D02*
X256500Y194427D01*
X245000Y196350D02*
X254577D01*
X260157Y198000D02*
X301500D01*
X296600Y200900D02*
Y201000D01*
X254157Y200500D02*
X254557Y200900D01*
X442300Y125700D02*
X443500Y124500D01*
X423254Y125700D02*
X442300D01*
X424000Y127500D02*
X447500D01*
X419000Y132500D02*
X424000Y127500D01*
X419000Y132500D02*
Y146000D01*
X437600Y188900D02*
X439000Y187500D01*
X443000D02*
Y188000D01*
X446000Y192500D02*
X450500Y188000D01*
X412427Y192500D02*
X446000D01*
X440300Y190700D02*
X443000Y188000D01*
X396328Y188900D02*
X437600D01*
X393481Y191746D02*
X396328Y188900D01*
X390500Y191746D02*
X393481D01*
X402800Y190700D02*
X440300D01*
X399500Y194000D02*
X402800Y190700D01*
X396500Y194000D02*
X399500D01*
X408927Y196000D02*
X412427Y192500D01*
X402500Y196000D02*
X408927D01*
X413299Y200900D02*
X440000D01*
X411899Y199500D02*
X413299Y200900D01*
X438000Y198000D02*
X440000Y196000D01*
X414500Y198000D02*
X438000D01*
X408500Y199500D02*
X411899D01*
X319681Y147500D02*
Y166049D01*
X458323Y309732D02*
Y320323D01*
D100*
X548500Y339000D02*
Y343569D01*
X475069D02*
X548500D01*
X452000Y320500D02*
X475069Y343569D01*
X452000Y302500D02*
Y320500D01*
Y302500D02*
X454610Y299890D01*
X458323D01*
D103*
X461610Y117303D02*
D03*
X444091D02*
D03*
X305333Y118581D02*
D03*
X287813D02*
D03*
D104*
X468943Y105000D02*
D03*
X436758D02*
D03*
X312665Y106278D02*
D03*
X280480D02*
D03*
D105*
X390823Y237252D02*
D03*
Y227252D02*
D03*
X380823Y237252D02*
D03*
D106*
Y227252D02*
D03*
D107*
X222287Y338000D02*
D03*
X271500D02*
D03*
X365000D02*
D03*
X394528D02*
D03*
X187350Y190000D02*
D03*
Y219528D02*
D03*
X416709Y338000D02*
D03*
X436394D02*
D03*
X343000D02*
D03*
X293787D02*
D03*
D108*
X271500Y309555D02*
D03*
X261658D02*
D03*
X251815D02*
D03*
X241972D02*
D03*
X232130D02*
D03*
X222287D02*
D03*
X271500Y299713D02*
D03*
X261658D02*
D03*
X251815D02*
D03*
X241972D02*
D03*
X232130D02*
D03*
X222287D02*
D03*
X560815Y309732D02*
D03*
X580500Y299890D02*
D03*
X570657D02*
D03*
X560815D02*
D03*
X570657Y309732D02*
D03*
X580500D02*
D03*
X365000Y309850D02*
D03*
X374843D02*
D03*
X384685D02*
D03*
X394528D02*
D03*
X215500Y190000D02*
D03*
Y199843D02*
D03*
Y209685D02*
D03*
Y219528D02*
D03*
X416709Y309850D02*
D03*
X426551D02*
D03*
X436394D02*
D03*
X293787Y299713D02*
D03*
X303630D02*
D03*
X313472D02*
D03*
X323315D02*
D03*
X333157D02*
D03*
X343000D02*
D03*
X293787Y309555D02*
D03*
X303630D02*
D03*
X313472D02*
D03*
X323315D02*
D03*
X333157D02*
D03*
X343000D02*
D03*
X487850Y299890D02*
D03*
Y309732D02*
D03*
X458323D02*
D03*
X478008Y299890D02*
D03*
X468165D02*
D03*
X458323D02*
D03*
X468165Y309732D02*
D03*
X478008D02*
D03*
D109*
X539000Y155537D02*
D03*
X562500Y155612D02*
D03*
X586000Y155537D02*
D03*
X609500Y155596D02*
D03*
D110*
X487850Y338000D02*
D03*
X458323D02*
D03*
D111*
X603000Y335000D02*
D03*
X192000D02*
D03*
X603037Y117500D02*
D03*
X192000D02*
D03*
D112*
X504335Y232500D02*
D03*
X301500Y106278D02*
D03*
X292000D02*
D03*
X457500Y105000D02*
D03*
X448323D02*
D03*
X316500Y280500D02*
D03*
X440300Y290000D02*
D03*
X405500Y260500D02*
D03*
X418000Y263000D02*
D03*
X313500Y264394D02*
D03*
X486039Y254000D02*
D03*
X494665Y252000D02*
D03*
Y248500D02*
D03*
X279500Y226000D02*
D03*
X286000Y241500D02*
D03*
X418000Y257000D02*
D03*
X490865Y262760D02*
D03*
X505506Y238598D02*
D03*
X528500Y277500D02*
D03*
Y273000D02*
D03*
X430000Y241799D02*
D03*
Y248000D02*
D03*
X403500Y247126D02*
D03*
X328000Y293000D02*
D03*
X316500Y276000D02*
D03*
X472248Y179919D02*
D03*
X496500Y166049D02*
D03*
X414000Y170500D02*
D03*
X424000D02*
D03*
X418988D02*
D03*
X401500Y184166D02*
D03*
X365425Y109000D02*
D03*
X210531Y109622D02*
D03*
X218500Y161597D02*
D03*
X261500Y166941D02*
D03*
X259000Y125911D02*
D03*
X183000Y164500D02*
D03*
X275500Y205500D02*
D03*
Y209685D02*
D03*
X212000Y171500D02*
D03*
X211713Y178500D02*
D03*
X497500Y144000D02*
D03*
X517500Y111559D02*
D03*
X499000Y111500D02*
D03*
X479740Y200536D02*
D03*
X474217Y201726D02*
D03*
X479500Y212500D02*
D03*
X468165D02*
D03*
X463000D02*
D03*
X474000D02*
D03*
X479500Y222500D02*
D03*
X527500Y322500D02*
D03*
X505500Y294018D02*
D03*
X514000Y294000D02*
D03*
X335000Y245141D02*
D03*
X334000Y240500D02*
D03*
X330500Y159500D02*
D03*
X347000Y253000D02*
D03*
X340350Y253049D02*
D03*
X328500Y333000D02*
D03*
X323315D02*
D03*
X421650Y282500D02*
D03*
X443000Y278000D02*
D03*
X378500Y252000D02*
D03*
X368000Y256638D02*
D03*
X361500Y292500D02*
D03*
X352205Y292000D02*
D03*
X376898Y289500D02*
D03*
X385500Y258500D02*
D03*
X388500Y274150D02*
D03*
X418000Y273000D02*
D03*
X462500Y168850D02*
D03*
X479500Y226500D02*
D03*
X360201Y233894D02*
D03*
X366606Y234000D02*
D03*
X366150Y177000D02*
D03*
X359850D02*
D03*
X341000Y200374D02*
D03*
X362795Y205500D02*
D03*
X510000Y174874D02*
D03*
X503688D02*
D03*
X484059Y197636D02*
D03*
X508000Y202500D02*
D03*
X510650Y232500D02*
D03*
X516000Y154262D02*
D03*
X489244Y158000D02*
D03*
Y130244D02*
D03*
X227500Y250500D02*
D03*
X333906Y128406D02*
D03*
X343500Y161500D02*
D03*
X245807Y184585D02*
D03*
X453323Y132323D02*
D03*
X468311Y132500D02*
D03*
X422000Y162000D02*
D03*
X269500Y185000D02*
D03*
X298000Y252500D02*
D03*
X414000Y125911D02*
D03*
X360000Y154234D02*
D03*
X333461Y148463D02*
D03*
X317000Y138884D02*
D03*
X297665Y131335D02*
D03*
X541000Y313000D02*
D03*
X545000Y303500D02*
D03*
X537000D02*
D03*
X575500Y166500D02*
D03*
Y250000D02*
D03*
X590000Y278459D02*
D03*
X590150Y189136D02*
D03*
X579000Y218500D02*
D03*
X552000Y166575D02*
D03*
Y250075D02*
D03*
X566500Y278533D02*
D03*
X566650Y189211D02*
D03*
X555500Y218575D02*
D03*
X528500Y166500D02*
D03*
Y250000D02*
D03*
X543000Y278459D02*
D03*
X543150Y189136D02*
D03*
X532000Y218500D02*
D03*
X599000Y166559D02*
D03*
X613650Y189195D02*
D03*
X602500Y218559D02*
D03*
X599000Y250059D02*
D03*
X613500Y278518D02*
D03*
X474500Y249575D02*
D03*
X430000Y170799D02*
D03*
X483500Y154000D02*
D03*
X492894Y148463D02*
D03*
X516000Y141685D02*
D03*
X458323Y161677D02*
D03*
X303500Y223000D02*
D03*
Y227500D02*
D03*
X327000Y224227D02*
D03*
Y219528D02*
D03*
X195500Y238000D02*
D03*
X198740Y281000D02*
D03*
X227000Y239650D02*
D03*
X195000Y304000D02*
D03*
Y308000D02*
D03*
X339500Y206000D02*
D03*
X343500Y141685D02*
D03*
X343350Y147000D02*
D03*
X359665Y141612D02*
D03*
X446500Y181000D02*
D03*
X398500Y167640D02*
D03*
X304000Y182000D02*
D03*
X243000Y167500D02*
D03*
X232000Y211415D02*
D03*
X298000Y187000D02*
D03*
X300000Y191500D02*
D03*
X307500Y194427D02*
D03*
X296600Y201000D02*
D03*
X301500Y198000D02*
D03*
X228500Y192000D02*
D03*
X237000Y194000D02*
D03*
X245000Y196350D02*
D03*
X260157Y198000D02*
D03*
X254157Y200500D02*
D03*
X448323Y132323D02*
D03*
X443500Y124500D02*
D03*
X447500Y127500D02*
D03*
X439000Y187500D02*
D03*
X443000D02*
D03*
X450500Y188000D02*
D03*
X390500Y191746D02*
D03*
X396500Y194000D02*
D03*
X402500Y196000D02*
D03*
X440000Y200900D02*
D03*
Y196000D02*
D03*
X414500Y198000D02*
D03*
X408500Y199500D02*
D03*
X397000Y183856D02*
D03*
X385500Y211500D02*
D03*
X280000Y173463D02*
D03*
X289000Y138884D02*
D03*
X239500Y184500D02*
D03*
X426000Y145000D02*
D03*
X360500Y111559D02*
D03*
X319681Y147500D02*
D03*
Y166049D02*
D03*
X271657Y144500D02*
D03*
X347098Y104500D02*
D03*
X354104Y165612D02*
D03*
X538740Y235075D02*
D03*
X562240D02*
D03*
X585740Y235000D02*
D03*
X609240Y235059D02*
D03*
X528500Y266500D02*
D03*
X552000D02*
D03*
X575500D02*
D03*
X599000D02*
D03*
X548500Y343569D02*
D03*
Y339000D02*
D03*
X586000Y186000D02*
D03*
X562500Y186075D02*
D03*
X539000Y186000D02*
D03*
X609500Y186059D02*
D03*
M02*
