G04*
G04 #@! TF.GenerationSoftware,Altium Limited,Altium Designer,18.1.9 (240)*
G04*
G04 Layer_Physical_Order=1*
G04 Layer_Color=255*
%FSLAX25Y25*%
%MOIN*%
G70*
G01*
G75*
%ADD14C,0.01000*%
%ADD18R,0.03937X0.03543*%
%ADD19R,0.04331X0.04921*%
%ADD20R,0.01575X0.05315*%
%ADD21R,0.07087X0.07480*%
%ADD22R,0.03543X0.03937*%
%ADD23R,0.02362X0.05315*%
%ADD24R,0.04134X0.04528*%
%ADD25R,0.04331X0.03858*%
%ADD26R,0.04724X0.06299*%
%ADD27R,0.10630X0.04528*%
%ADD28R,0.04921X0.04331*%
%ADD29R,0.05315X0.02362*%
%ADD30R,0.04724X0.02559*%
%ADD31R,0.02756X0.03937*%
%ADD32R,0.06299X0.06299*%
%ADD33R,0.04291X0.06299*%
%ADD34R,0.03543X0.02756*%
%ADD35R,0.05512X0.00787*%
%ADD36R,0.02992X0.09449*%
%ADD37O,0.06102X0.00984*%
%ADD38O,0.00984X0.06102*%
%ADD39R,0.06693X0.05906*%
%ADD40R,0.03150X0.06614*%
%ADD41R,0.06299X0.05906*%
%ADD42R,0.05079X0.05118*%
%ADD43R,0.05079X0.05512*%
%ADD44R,0.05906X0.06693*%
%ADD45R,0.04134X0.06693*%
%ADD46R,0.03937X0.05512*%
%ADD47R,0.10630X0.05512*%
%ADD48O,0.08661X0.02756*%
%ADD49R,0.06299X0.06299*%
%ADD50R,0.06299X0.04291*%
G04:AMPARAMS|DCode=51|XSize=23.62mil|YSize=39.37mil|CornerRadius=2.01mil|HoleSize=0mil|Usage=FLASHONLY|Rotation=0.000|XOffset=0mil|YOffset=0mil|HoleType=Round|Shape=RoundedRectangle|*
%AMROUNDEDRECTD51*
21,1,0.02362,0.03535,0,0,0.0*
21,1,0.01961,0.03937,0,0,0.0*
1,1,0.00402,0.00980,-0.01768*
1,1,0.00402,-0.00980,-0.01768*
1,1,0.00402,-0.00980,0.01768*
1,1,0.00402,0.00980,0.01768*
%
%ADD51ROUNDEDRECTD51*%
%ADD52R,0.05858X0.07480*%
%ADD100C,0.02000*%
%ADD101C,0.10000*%
%ADD102C,0.05000*%
%ADD103O,0.04134X0.04921*%
%ADD104O,0.04823X0.07480*%
%ADD105C,0.05906*%
%ADD106R,0.05906X0.05906*%
%ADD107C,0.08268*%
%ADD108C,0.06142*%
%ADD109C,0.08000*%
%ADD110C,0.06693*%
%ADD111C,0.24016*%
%ADD112C,0.03200*%
G36*
X359255Y265575D02*
X358272Y266559D01*
X354727Y266559D01*
X353743Y265574D01*
X353744Y267051D01*
X359256D01*
X359255Y265575D01*
D02*
G37*
G36*
X359256Y264394D02*
X353744D01*
X355024Y265673D01*
X357976D01*
X359256Y264394D01*
D02*
G37*
D14*
X504335Y232500D02*
X504350Y232485D01*
X319000Y281655D02*
Y297846D01*
X317845Y280500D02*
X319000Y281655D01*
X316500Y280500D02*
X317845D01*
X318944Y305184D02*
X323315Y309555D01*
X318944Y297902D02*
Y305184D01*
Y297902D02*
X319000Y297846D01*
X426849Y225195D02*
X430811D01*
X424100Y227944D02*
X426849Y225195D01*
X440300Y285174D02*
Y290000D01*
X440126Y285000D02*
X440300Y285174D01*
X388300Y248800D02*
X400000Y260500D01*
X405500D01*
X399500Y257000D02*
X418000D01*
X420500Y224682D02*
Y249982D01*
X427518Y257000D02*
X450079D01*
X420500Y249982D02*
X427518Y257000D01*
X422300Y226050D02*
Y249237D01*
X428263Y255200D02*
X450824D01*
X422300Y249237D02*
X428263Y255200D01*
X429009Y253400D02*
X451900D01*
X424100Y248491D02*
X429009Y253400D01*
X424100Y227944D02*
Y248491D01*
X423807Y260307D02*
Y262819D01*
X420500Y257000D02*
X423807Y260307D01*
X418000Y257000D02*
X420500D01*
X417819Y262819D02*
X418000Y263000D01*
X402283Y266500D02*
X430776D01*
X366454Y248800D02*
X388300D01*
X206533Y243692D02*
X215092D01*
X258577Y225923D02*
X288087D01*
X389500Y247000D02*
X399500Y257000D01*
X365319Y247000D02*
X389500D01*
X356454Y258800D02*
X366454Y248800D01*
X355319Y257000D02*
X365319Y247000D01*
X347600Y258800D02*
X356454D01*
X320232Y257000D02*
X355319D01*
X336900Y269500D02*
X347600Y258800D01*
X374898Y259197D02*
Y272224D01*
X372201Y256500D02*
X374898Y259197D01*
X363500Y262500D02*
X370882D01*
X311783Y269500D02*
X336900D01*
X309500Y267217D02*
X311783Y269500D01*
X309500Y264047D02*
Y267217D01*
Y264047D02*
X327555Y245992D01*
Y233896D02*
Y245992D01*
X283024Y285159D02*
X323618Y244564D01*
X282278Y283359D02*
X315744Y249893D01*
X311807Y233896D02*
Y251284D01*
X281533Y281559D02*
X311807Y251284D01*
X307870Y233896D02*
Y252676D01*
X280787Y279759D02*
X307870Y252676D01*
X305902Y233896D02*
Y252098D01*
X280041Y277959D02*
X305902Y252098D01*
X315744Y233896D02*
Y249893D01*
X283769Y286959D02*
X325587Y245141D01*
X313500Y263732D02*
X320232Y257000D01*
X313500Y263732D02*
Y264394D01*
X486039Y239039D02*
Y249500D01*
Y254000D01*
X479740Y239760D02*
Y249500D01*
X238681Y161187D02*
Y178785D01*
X435000Y239224D02*
Y241799D01*
Y239224D02*
X436815Y237409D01*
Y233167D02*
Y237409D01*
X286000Y241500D02*
X286299Y241799D01*
X290500D01*
X490865Y262760D02*
Y268236D01*
X458132Y259631D02*
Y265781D01*
X451900Y253400D02*
X458132Y259631D01*
Y265781D02*
X460587Y268236D01*
X456331Y260707D02*
Y272981D01*
X454531Y261453D02*
Y278500D01*
X490865Y275650D02*
Y283150D01*
Y268236D02*
Y275650D01*
X430000Y241799D02*
X435000D01*
X434598Y247000D02*
X437000D01*
X434675Y248098D02*
X435000Y248423D01*
X433500Y248098D02*
X434598Y247000D01*
X433500Y248098D02*
X434675D01*
X430098D02*
X433500D01*
X430000Y248000D02*
X430098Y248098D01*
X423924Y221258D02*
X430811D01*
X420500Y224682D02*
X423924Y221258D01*
X425123Y223226D02*
X430811D01*
X422300Y226050D02*
X425123Y223226D01*
X460587Y268236D02*
X467589D01*
X456331Y272981D02*
X459085Y275734D01*
X467589D01*
X473888D02*
X481528D01*
X450824Y255200D02*
X456331Y260707D01*
X459181Y283150D02*
X467589D01*
X454531Y278500D02*
X459181Y283150D01*
X450079Y257000D02*
X454531Y261453D01*
X403500Y247126D02*
X408500D01*
X313472Y309555D02*
X318917Y315000D01*
X325000D01*
X328000Y312000D01*
Y293000D02*
Y312000D01*
X316500Y276000D02*
X320100D01*
X472248Y173915D02*
Y179919D01*
X492150Y166049D02*
X496500D01*
X320100Y276000D02*
X323315Y279215D01*
X413000Y190000D02*
X414500Y191500D01*
X413000Y174046D02*
Y190000D01*
X411100Y190750D02*
X413650Y193300D01*
X411100Y173400D02*
Y190750D01*
X423850Y193300D02*
X427388Y189762D01*
X423104Y191500D02*
X426811Y187793D01*
X422174Y201573D02*
X430811D01*
X415701Y195100D02*
X422174Y201573D01*
X412905Y195100D02*
X415701D01*
X409300Y191495D02*
X412905Y195100D01*
X409300Y171099D02*
Y191495D01*
X414500Y191500D02*
X423104D01*
X413650Y193300D02*
X423850D01*
X407300Y170434D02*
Y192375D01*
X405500Y168140D02*
Y193500D01*
X409300Y171099D02*
X412799Y167600D01*
X421949D01*
X426000Y163549D01*
X415201Y173400D02*
X418101Y170500D01*
X413646Y173400D02*
X415201D01*
X411100D02*
X414000Y170500D01*
X424000D02*
Y170850D01*
X417350Y177500D02*
X424000Y170850D01*
X418101Y170500D02*
X418988D01*
X426000Y155150D02*
Y163549D01*
X412925Y198000D02*
X414500D01*
X407300Y192375D02*
X412925Y198000D01*
X406567Y161575D02*
Y167072D01*
X405500Y168140D02*
X406567Y167072D01*
X405500Y193500D02*
X408500Y196500D01*
X407300Y170434D02*
X410898Y166836D01*
X408500Y196500D02*
Y199500D01*
X401650Y179000D02*
Y184017D01*
X401500Y184166D02*
X401650Y184017D01*
X485850Y161213D02*
X489153Y157909D01*
X468914Y105000D02*
Y113316D01*
X346500Y240000D02*
Y248350D01*
X359785Y208215D02*
X366478Y201522D01*
X436787Y105000D02*
Y113316D01*
X359972Y154262D02*
X366606Y160896D01*
X312637Y106278D02*
Y114594D01*
X365425Y103465D02*
Y109000D01*
X210531Y103077D02*
Y109622D01*
X211713Y161541D02*
X211768Y161597D01*
X218500D01*
X261500D02*
Y166941D01*
Y161597D02*
X261555Y161541D01*
X259000Y125911D02*
X264094D01*
X182874Y164626D02*
X183000Y164500D01*
X182874Y164626D02*
Y170612D01*
Y178124D01*
X264800Y189016D02*
X266284Y190500D01*
X264800Y175452D02*
Y189016D01*
Y175452D02*
X284760Y155492D01*
Y133786D02*
Y155492D01*
Y133786D02*
X296573Y121973D01*
Y117301D02*
Y121973D01*
X282960Y133040D02*
X294014Y121986D01*
X282960Y133040D02*
Y154747D01*
X263000Y174707D02*
X282960Y154747D01*
X294014Y117301D02*
Y121986D01*
X266284Y190500D02*
X279500D01*
X281478Y188522D01*
X288087D01*
X263000Y174707D02*
Y189762D01*
X265697Y192459D01*
X280478D01*
X282447Y190490D01*
X288087D01*
X271801Y202301D02*
X288087D01*
X261000Y191500D02*
X271801Y202301D01*
X261000Y173409D02*
Y191500D01*
Y173409D02*
X271657Y162752D01*
X275500Y209685D02*
X276978Y208207D01*
X288087D01*
X275500Y205500D02*
X276238Y206238D01*
X288087D01*
X211500Y171000D02*
X212000Y171500D01*
X206150Y171000D02*
X211500D01*
X211337Y178124D02*
X211713Y178500D01*
X206150Y178124D02*
X211337D01*
X199463Y170612D02*
X199850Y171000D01*
X192126Y170612D02*
X199463D01*
X192126Y178124D02*
X199850D01*
X271657Y154762D02*
Y162752D01*
X496634Y152909D02*
X500348D01*
X501774Y154335D01*
X504894D01*
X496634Y144866D02*
X497500Y144000D01*
X496634Y144866D02*
Y152909D01*
X473894Y163606D02*
X483500Y154000D01*
X473894Y163606D02*
Y166049D01*
X511894Y111559D02*
X517500D01*
X499000Y111500D02*
X503835D01*
X503894Y111559D01*
X479740Y200536D02*
X485260D01*
X476690Y204200D02*
X484583D01*
X469500Y206000D02*
X483838D01*
X483092Y207800D02*
X484739Y209447D01*
X472865Y207800D02*
X483092D01*
X482346Y209600D02*
X484162Y211415D01*
X476900Y209600D02*
X482346D01*
X474000Y212500D02*
X476900Y209600D01*
X474217Y201726D02*
X476690Y204200D01*
X485260Y200536D02*
X486192Y199604D01*
X490063D01*
X484583Y204200D02*
X485893Y205510D01*
X490063D01*
X463000Y212500D02*
X469500Y206000D01*
X484162Y211415D02*
X490063D01*
X479500Y212500D02*
X482701D01*
X483838Y206000D02*
X485316Y207478D01*
X490063D01*
X468165Y212500D02*
X472865Y207800D01*
X484739Y209447D02*
X490063D01*
X482701Y212500D02*
X483585Y213384D01*
X490063D01*
X479500Y222500D02*
X481500D01*
X530500Y303768D02*
Y339000D01*
X525913Y299181D02*
X530500Y303768D01*
Y339000D02*
X535069Y343569D01*
X522000Y322457D02*
X527457D01*
X514000D02*
X522000D01*
X505482D02*
X514000D01*
X527457D02*
X527500Y322500D01*
X535069Y343569D02*
X541000D01*
X522000Y299181D02*
X525913D01*
X505482Y294035D02*
X505500Y294018D01*
X505482Y294035D02*
Y299181D01*
X513982Y305480D02*
X514000Y305498D01*
Y313205D01*
X522000Y305480D02*
Y313205D01*
X513982Y294018D02*
X514000Y294000D01*
X513982Y294018D02*
Y299181D01*
X335000Y244024D02*
X336900Y242124D01*
X335000Y244024D02*
Y245141D01*
X336900Y239109D02*
Y242124D01*
X335429Y237638D02*
X336900Y239109D01*
X335429Y233896D02*
Y237638D01*
X331492Y237992D02*
X334000Y240500D01*
X331492Y233896D02*
Y237992D01*
X330500Y159500D02*
Y165155D01*
X339366Y233896D02*
Y241516D01*
X342500Y238724D02*
X345224D01*
X341335Y237559D02*
X342500Y238724D01*
X341335Y233896D02*
Y237559D01*
X345224Y238724D02*
X346500Y240000D01*
X346650Y252650D02*
X347000Y253000D01*
X340350Y248500D02*
Y253049D01*
X339366Y241516D02*
X340350Y242500D01*
X331000Y336000D02*
X334434Y332566D01*
X326315Y336000D02*
X331000D01*
X323315Y333000D02*
X326315Y336000D01*
X334434Y332566D02*
X474479D01*
X328500Y333000D02*
X330734Y330766D01*
X474479Y332566D02*
X493000Y314046D01*
X473734Y330766D02*
X487850Y316650D01*
X330734Y330766D02*
X473734D01*
X487850Y309732D02*
Y316650D01*
X493000Y305039D02*
Y314046D01*
X487850Y299890D02*
X493000Y305039D01*
X410300Y282500D02*
X421650D01*
X408150Y280350D02*
X410300Y282500D01*
X408150Y278500D02*
Y280350D01*
X421650Y277500D02*
Y282500D01*
X438650Y278000D02*
X443000D01*
X440224Y270240D02*
Y272224D01*
X438650Y273799D02*
X440224Y272224D01*
X438650Y273799D02*
Y278000D01*
X448000Y285000D02*
X452468Y280532D01*
Y264862D02*
Y280532D01*
X451008Y263402D02*
X452468Y264862D01*
X448000Y263402D02*
X451008D01*
X440126Y285000D02*
X448000D01*
X430874D02*
X432350Y283524D01*
Y278000D02*
Y283524D01*
X378500Y252000D02*
Y256500D01*
X368000Y256638D02*
X368138Y256500D01*
X372201D01*
X361213Y292213D02*
X361500Y292500D01*
X361213Y286385D02*
Y292213D01*
X352118Y291913D02*
X352205Y292000D01*
X352118Y286385D02*
Y291913D01*
X376898Y285150D02*
Y289500D01*
X370882Y262500D02*
X371158Y262776D01*
X362000Y264000D02*
X363500Y262500D01*
X356500Y264000D02*
X362000D01*
X351197D02*
X356500D01*
X349744Y262547D02*
X351197Y264000D01*
X356500Y267051D02*
X356665Y267217D01*
Y274968D01*
X363500Y268406D02*
Y284098D01*
X361213Y286385D02*
X363500Y284098D01*
X349744Y284011D02*
X352118Y286385D01*
X349744Y268453D02*
Y284011D01*
X408858Y302000D02*
X416709Y309850D01*
X374000Y302000D02*
X408858D01*
X370953Y298953D02*
X374000Y302000D01*
X370953Y285197D02*
Y298953D01*
X371000Y278850D02*
X371158Y278693D01*
X370953Y278898D02*
X371000Y278850D01*
X376898D01*
X371158Y272224D02*
Y278693D01*
X378638Y272224D02*
X381106Y269756D01*
X385000D01*
X378500Y256500D02*
X378638Y256638D01*
Y262776D01*
X385000Y259000D02*
X385500Y258500D01*
X385000Y259000D02*
Y263457D01*
X388350Y274299D02*
X388500Y274150D01*
X388350Y274299D02*
Y278500D01*
X394650D02*
Y283673D01*
X396126Y285150D01*
X385000Y283276D02*
X386874Y285150D01*
X385000Y269756D02*
Y283276D01*
X385638Y262819D02*
X392776D01*
X385000Y263457D02*
X385638Y262819D01*
X385543Y270299D02*
X392776D01*
X385000Y269756D02*
X385543Y270299D01*
X412193Y262819D02*
X417819D01*
X415350Y275650D02*
X418000Y273000D01*
X415350Y275650D02*
Y277500D01*
X423807Y270299D02*
Y273693D01*
X421650Y275850D02*
X423807Y273693D01*
X421650Y275850D02*
Y277500D01*
X401850Y278500D02*
X402224Y278126D01*
Y266559D02*
Y278126D01*
Y266559D02*
X402283Y266500D01*
X447358Y262760D02*
X448000Y263402D01*
X440224Y262760D02*
X447358D01*
X447461Y270240D02*
X448000Y269701D01*
X440224Y270240D02*
X447461D01*
X481500Y222500D02*
X484195Y225195D01*
X490063D01*
X479500Y226500D02*
X480163Y227163D01*
X490063D01*
X481528Y275734D02*
X481613Y275650D01*
X416000Y247126D02*
X416374Y247500D01*
X408500Y247126D02*
X416000D01*
Y230150D02*
Y237874D01*
X408500Y230150D02*
Y237874D01*
X413619Y219000D02*
X427109Y205510D01*
X410500Y219000D02*
X413619D01*
X416000Y219164D02*
X427686Y207478D01*
X416000Y219164D02*
Y223850D01*
X408500Y221000D02*
X410500Y219000D01*
X427109Y205510D02*
X430811D01*
X427686Y207478D02*
X430811D01*
X408500Y221000D02*
Y223850D01*
X462405Y168945D02*
X462500Y168850D01*
X459500Y165500D02*
X463323Y161677D01*
X441500Y165500D02*
X459500D01*
X434675Y248098D02*
X435000D01*
X353265Y228952D02*
Y237181D01*
X352205Y227892D02*
X353265Y228952D01*
X347339Y227892D02*
X352205D01*
X353265Y237181D02*
X357294Y241209D01*
X369411D01*
X373368Y237252D01*
X379000D01*
X368665Y239409D02*
X380823Y227252D01*
X358039Y239409D02*
X368665D01*
X355065Y236435D02*
X358039Y239409D01*
X355065Y228175D02*
Y236435D01*
X352814Y225923D02*
X355065Y228175D01*
X347339Y225923D02*
X352814D01*
X366250Y216833D02*
X366500D01*
X360201Y222882D02*
X366250Y216833D01*
X360201Y228882D02*
Y233894D01*
X366500D02*
X366606Y234000D01*
X366500Y228882D02*
Y233894D01*
X371500Y215000D02*
Y220500D01*
X370064Y213564D02*
X371500Y215000D01*
X369118Y222882D02*
X371500Y220500D01*
X355040Y213564D02*
X370064D01*
X352524Y216081D02*
X355040Y213564D01*
X347339Y216081D02*
X352524D01*
X355065Y211764D02*
X363931D01*
X367480Y208215D01*
X353500Y210199D02*
X355065Y211764D01*
X366500Y222882D02*
Y228882D01*
Y222882D02*
X369118D01*
X360201D02*
Y228882D01*
X356882Y222882D02*
X360201D01*
X354018Y220018D02*
X356882Y222882D01*
X347339Y220018D02*
X354018D01*
X347339Y218049D02*
X354000D01*
X355217Y216833D01*
X360201D01*
X366150Y177000D02*
Y181455D01*
X359850Y177000D02*
Y181455D01*
X341000Y200374D02*
X341041Y200333D01*
X347339D01*
Y190490D02*
X352000D01*
X352900Y189590D01*
Y187036D02*
Y189590D01*
Y187036D02*
X358481Y181455D01*
X359850D01*
X362695Y184909D02*
X366150Y181455D01*
X362695Y184909D02*
Y185166D01*
X366150Y188621D01*
X357315Y185166D02*
X362695D01*
X354700Y187781D02*
X357315Y185166D01*
X354700Y187781D02*
Y195967D01*
X352303Y198364D02*
X354700Y195967D01*
X347339Y198364D02*
X352303D01*
X358779Y188621D02*
X359850D01*
X356500Y190900D02*
X358779Y188621D01*
X356500Y190900D02*
Y197500D01*
X353667Y200333D02*
X356500Y197500D01*
X347339Y200333D02*
X353667D01*
X347339Y202301D02*
X358039D01*
X358819Y201522D01*
X359756Y200585D01*
Y194876D02*
Y200585D01*
X366055Y201098D02*
X366478Y201522D01*
X366055Y194876D02*
Y201098D01*
X366478Y201522D02*
X367480D01*
X358819Y208215D02*
X359785D01*
X374051Y201522D02*
X374256Y201726D01*
X367480Y201522D02*
X374051D01*
X374067Y208215D02*
X374256Y208026D01*
X367480Y208215D02*
X374067D01*
X353500Y205650D02*
Y210199D01*
X352120Y204270D02*
X353500Y205650D01*
X347339Y204270D02*
X352120D01*
X509988Y174886D02*
X510000Y174874D01*
X509988Y174886D02*
Y179500D01*
X503688Y174874D02*
Y179500D01*
X484059Y197636D02*
X490063D01*
Y189762D02*
X494821D01*
X495900Y188683D01*
Y186575D02*
Y188683D01*
Y186575D02*
X502975Y179500D01*
X503688D01*
X508000Y183500D02*
X509988Y185488D01*
X508000Y183500D02*
X509988Y181512D01*
X507979Y183521D02*
X508000Y183500D01*
X509988Y179500D02*
Y181512D01*
Y185488D02*
Y187000D01*
X501500Y183521D02*
X507979D01*
X497700Y187321D02*
X501500Y183521D01*
X497700Y187321D02*
Y196300D01*
X496364Y197636D02*
X497700Y196300D01*
X490063Y197636D02*
X496364D01*
X501291Y201573D02*
X503602Y199262D01*
X490063Y201573D02*
X501291D01*
X490063Y199604D02*
X497896D01*
X499500Y198000D01*
Y188522D02*
Y198000D01*
Y188522D02*
X501022Y187000D01*
X503688D01*
X508000Y202500D02*
X511238Y199262D01*
X504545Y205955D02*
X508000Y202500D01*
X511238Y199262D02*
X512264D01*
X503602Y205955D02*
X504545D01*
X509988Y196986D02*
X512264Y199262D01*
X509988Y193000D02*
Y196986D01*
X503602Y193086D02*
X503688Y193000D01*
X503602Y193086D02*
Y199262D01*
X518478D02*
X518567Y199350D01*
X512264Y199262D02*
X518478D01*
X518262Y205955D02*
X518567Y205650D01*
X512264Y205955D02*
X518262D01*
X508043Y210175D02*
X512264Y205955D01*
X501299Y210175D02*
X508043D01*
X494665Y203541D02*
X501299Y210175D01*
X490063Y203541D02*
X494665D01*
X510650Y232500D02*
Y232985D01*
Y228175D02*
Y232500D01*
X492150Y167075D02*
Y168850D01*
X491500Y169500D02*
X492150Y168850D01*
X485500Y169500D02*
X491500D01*
X484059Y170941D02*
X485500Y169500D01*
X484059Y170941D02*
Y173915D01*
X485850Y161213D02*
Y166049D01*
X480193D02*
X485850D01*
X490063Y215352D02*
X496648D01*
X499500Y212500D01*
X513654D01*
X514500Y213346D01*
Y220500D01*
X513124Y221876D02*
X514500Y220500D01*
X510650Y221876D02*
X513124D01*
X510650D02*
Y228175D01*
X484059Y237059D02*
X486039Y239039D01*
X484059Y233167D02*
Y237059D01*
X441598Y248098D02*
X442500D01*
X438784Y245284D02*
X441598Y248098D01*
X438784Y245216D02*
Y245284D01*
X437000Y247000D02*
X438784Y245216D01*
Y233167D02*
Y245216D01*
X417350Y183150D02*
X418769Y181731D01*
X425960D01*
X426116Y181888D01*
X430811D01*
X417350Y180313D02*
X418769Y181731D01*
X417350Y177500D02*
Y180313D01*
Y183150D02*
Y185000D01*
X480193Y166049D02*
Y168193D01*
X482091Y170091D01*
Y173915D01*
X515927Y154335D02*
X516000Y154262D01*
X511394Y154335D02*
X515927D01*
X505094Y148035D02*
X511394Y154335D01*
X504894Y148035D02*
X505094D01*
X489153Y152909D02*
Y157909D01*
X486039Y122906D02*
Y127039D01*
Y109716D02*
Y122906D01*
X489244Y130244D02*
Y135185D01*
X486039Y127039D02*
X489244Y130244D01*
X182500Y320500D02*
X195000Y333000D01*
X182500Y312252D02*
Y320500D01*
X227463Y250463D02*
X227500Y250500D01*
X218707Y250463D02*
X227463D01*
X206533Y253049D02*
X207110Y252472D01*
X212000D01*
X214010Y250463D01*
X218707D01*
X333906Y128406D02*
Y135112D01*
X331594Y126095D02*
X333906Y128406D01*
X331594Y120207D02*
Y126095D01*
Y107018D02*
Y120207D01*
X343350Y161650D02*
X343500Y161500D01*
X343350Y161650D02*
Y165612D01*
X337256Y168024D02*
X339366Y170134D01*
X337256Y165612D02*
Y168024D01*
X339366Y170134D02*
Y174644D01*
X245807Y179612D02*
Y184585D01*
Y173612D02*
Y179612D01*
Y169000D02*
Y173612D01*
Y169000D02*
X247343Y167465D01*
Y161187D02*
Y167465D01*
X453323Y132323D02*
Y139425D01*
X468311Y132500D02*
X468323Y132512D01*
Y139425D01*
X453323D02*
X458323D01*
Y132323D02*
Y139425D01*
X457181Y131181D02*
X458323Y132323D01*
X457181Y127000D02*
Y131181D01*
X460331Y116024D02*
X461610Y117303D01*
X457969Y116024D02*
X460331D01*
X421929Y161929D02*
X422000Y162000D01*
X416449Y161929D02*
X421929D01*
X402236Y161575D02*
Y172264D01*
X401650Y172850D02*
X402236Y172264D01*
X401650Y172850D02*
Y179000D01*
X269500Y185000D02*
X273701D01*
X298000Y252500D02*
X298028Y252472D01*
Y248098D02*
Y252472D01*
X346650Y248500D02*
Y252650D01*
X414000Y125911D02*
X418600D01*
X418988Y126299D01*
X420110Y105000D02*
X436758D01*
X418575Y103465D02*
X420110Y105000D01*
X436758D02*
X436787D01*
Y113316D02*
X437548Y114077D01*
X440865D01*
X444091Y117303D01*
X468914Y105000D02*
X468943D01*
X468153Y114078D02*
X468914Y113316D01*
X464836Y114078D02*
X468153D01*
X461610Y117303D02*
X464836Y114078D01*
X366606Y160896D02*
Y161929D01*
X355606Y154262D02*
X359972D01*
X355606Y154234D02*
Y154262D01*
X349335Y147963D02*
X355606Y154234D01*
X333315Y148608D02*
X333461Y148463D01*
X333315Y148608D02*
Y153061D01*
X304053Y117301D02*
X305333Y118581D01*
X301691Y117301D02*
X304053D01*
X312637Y106278D02*
X312665D01*
X311875Y115355D02*
X312637Y114594D01*
X308558Y115355D02*
X311875D01*
X305333Y118581D02*
X308558Y115355D01*
X280480Y106278D02*
X282960Y108757D01*
X280509D02*
X282960D01*
X280509D02*
Y114594D01*
X281271Y115355D01*
X287813D01*
Y118581D01*
X266882Y106278D02*
X280480D01*
X263681Y103077D02*
X266882Y106278D01*
X337256Y165612D02*
X343350D01*
X312665Y138884D02*
X317000D01*
X297665Y131335D02*
X299016Y129984D01*
Y126884D02*
Y129984D01*
X297665Y138884D02*
X302665D01*
X297665Y131335D02*
Y138884D01*
X346500Y248350D02*
X346650Y248500D01*
X294091Y239409D02*
Y244161D01*
Y239409D02*
X296059Y237441D01*
X294091Y244161D02*
X298028Y248098D01*
X294091Y244161D02*
Y244508D01*
X290500Y248098D02*
X294091Y244508D01*
X296059Y233896D02*
Y237441D01*
X273701Y178244D02*
X277079Y181622D01*
X273701Y177500D02*
Y178244D01*
Y185000D02*
X277079Y181622D01*
X283000D01*
X283994Y182616D01*
X288087D01*
X538484Y308484D02*
X541000D01*
X537000Y307000D02*
X538484Y308484D01*
X537000Y303500D02*
Y307000D01*
X545000Y303500D02*
Y307984D01*
X544500Y308484D02*
X545000Y307984D01*
X541000Y308484D02*
X544500D01*
X541000Y308484D02*
Y313000D01*
X541000Y308484D02*
X541000Y308484D01*
X573299Y188299D02*
X575500D01*
X571500Y186500D02*
X573299Y188299D01*
X572762Y170000D02*
X575500D01*
X571500Y171262D02*
X572762Y170000D01*
X571500Y171262D02*
Y186500D01*
X575500Y166500D02*
Y170000D01*
Y244949D02*
Y250000D01*
X572000Y246500D02*
X575500Y250000D01*
X572000Y229000D02*
Y246500D01*
X574000Y227000D02*
X575500D01*
X572000Y229000D02*
X574000Y227000D01*
X590000Y274150D02*
Y278459D01*
X590150Y189136D02*
Y193650D01*
Y189136D02*
X590150Y189136D01*
X592350Y274150D02*
X593500Y273000D01*
Y263500D02*
Y273000D01*
X591799Y261799D02*
X593500Y263500D01*
X590000Y274150D02*
X592350D01*
X590000Y261799D02*
X591799D01*
X579000Y218500D02*
X582350Y215150D01*
X583850D01*
X588500Y174037D02*
X589740Y172797D01*
Y170736D02*
Y172797D01*
X579537Y174037D02*
X588500D01*
X575500Y170000D02*
X579537Y174037D01*
X576701Y244949D02*
X582000Y239650D01*
X575500Y244949D02*
X576701D01*
X524500Y171262D02*
X525762Y170000D01*
X524500Y171262D02*
Y186238D01*
X552000Y166575D02*
Y170075D01*
X548000Y186575D02*
X549799Y188374D01*
X552000D01*
X549262Y170075D02*
X552000D01*
X548000Y171337D02*
X549262Y170075D01*
X548000Y171337D02*
Y186575D01*
X552000Y245024D02*
Y250075D01*
X550500Y227075D02*
X552000D01*
X548500Y246575D02*
X552000Y250075D01*
X548500Y229075D02*
Y246575D01*
Y229075D02*
X550500Y227075D01*
X566500Y274224D02*
Y278533D01*
X566650Y189211D02*
X566650Y189211D01*
X566650Y189211D02*
Y193724D01*
X566500Y274224D02*
X568850D01*
X570000Y263575D02*
Y273075D01*
X568850Y274224D02*
X570000Y273075D01*
X568299Y261874D02*
X570000Y263575D01*
X566500Y261874D02*
X568299D01*
X558850Y215224D02*
X560350D01*
X555500Y218575D02*
X558850Y215224D01*
X556037Y174112D02*
X565000D01*
X566240Y170811D02*
Y172872D01*
X565000Y174112D02*
X566240Y172872D01*
X552000Y170075D02*
X556037Y174112D01*
X552000Y245024D02*
X553201D01*
X558500Y239724D01*
X526299Y188299D02*
X528500D01*
Y166500D02*
Y170000D01*
X525762D02*
X528500D01*
X524500Y186500D02*
X526299Y188299D01*
X528500Y244949D02*
Y250000D01*
X525000Y246500D02*
X528500Y250000D01*
X525000Y229000D02*
X527000Y227000D01*
X528500D01*
X525000Y229000D02*
Y246500D01*
X543000Y274150D02*
Y278459D01*
X543150Y189136D02*
Y193650D01*
Y189136D02*
X543150Y189136D01*
X545350Y274150D02*
X546500Y273000D01*
X543000Y274150D02*
X545350D01*
X546500Y263500D02*
Y273000D01*
X544799Y261799D02*
X546500Y263500D01*
X543000Y261799D02*
X544799D01*
X532000Y218500D02*
X535350Y215150D01*
X536850D01*
X542740Y170736D02*
Y172797D01*
X532537Y174037D02*
X541500D01*
X542740Y172797D01*
X528500Y170000D02*
X532537Y174037D01*
X529701Y244949D02*
X535000Y239650D01*
X528500Y244949D02*
X529701D01*
X599000Y170059D02*
X603037Y174097D01*
X612000D01*
X613240Y172856D01*
Y170795D02*
Y172856D01*
X599000Y166559D02*
Y170059D01*
X596262D02*
X599000D01*
X595000Y171321D02*
X596262Y170059D01*
X595000Y171321D02*
Y186559D01*
X596799Y188358D01*
X599000D01*
X613650Y189195D02*
X613650Y189195D01*
X613650Y189195D02*
Y193709D01*
X602500Y218559D02*
X605850Y215209D01*
X607350D01*
X597500Y227059D02*
X599000D01*
X595500Y229059D02*
X597500Y227059D01*
X595500Y229059D02*
Y246559D01*
X599000Y250059D01*
Y245008D02*
Y250059D01*
X600201Y245008D02*
X605500Y239709D01*
X599000Y245008D02*
X600201D01*
X613500Y274209D02*
Y278518D01*
Y274209D02*
X615850D01*
X617000Y273059D01*
Y263559D02*
Y273059D01*
X615299Y261858D02*
X617000Y263559D01*
X613500Y261858D02*
X615299D01*
X504350Y228175D02*
Y232485D01*
X504774Y221876D02*
X510650Y216000D01*
X504350Y221876D02*
X504774D01*
X490063Y217321D02*
X498500D01*
X499821Y216000D01*
X504350D01*
X490063Y219289D02*
X498621D01*
X501207Y221876D01*
X504350D01*
Y228175D01*
X474500Y249575D02*
X474575Y249500D01*
X479740D01*
X482091Y233167D02*
Y237409D01*
X479740Y239760D02*
X482091Y237409D01*
X442500Y239000D02*
Y241799D01*
X440752Y237252D02*
X442500Y239000D01*
X440752Y233167D02*
Y237252D01*
X436815Y179939D02*
Y184500D01*
X434675Y177799D02*
X436815Y179939D01*
X434675Y167234D02*
Y177799D01*
X435490Y185825D02*
X436815Y184500D01*
X430811Y185825D02*
X435490D01*
X425894Y179919D02*
X430811D01*
X423650Y177675D02*
X425894Y179919D01*
X430000Y170799D02*
Y174874D01*
X427374Y177500D02*
X430000Y174874D01*
X423650Y177500D02*
X427374D01*
X423650Y185000D02*
X424793Y183856D01*
X430811D01*
X413000Y174046D02*
X413646Y173400D01*
X426811Y187793D02*
X430811D01*
X410898Y161575D02*
Y166836D01*
X473894Y166049D02*
Y168106D01*
X472248Y169752D02*
X473894Y168106D01*
X472248Y169752D02*
Y173915D01*
X492894Y143461D02*
Y148463D01*
Y139606D02*
Y143461D01*
Y139606D02*
X495543Y136957D01*
Y135185D02*
Y136957D01*
Y135185D02*
X505244D01*
X511543Y141685D02*
X516000D01*
X514577Y148035D02*
X520000Y142612D01*
Y131000D02*
Y142612D01*
X511894Y122894D02*
X520000Y131000D01*
X511543Y131909D02*
Y135185D01*
X504500Y124866D02*
X511543Y131909D01*
X504500Y121417D02*
Y124866D01*
X503894Y120811D02*
X504500Y121417D01*
X511394Y148035D02*
X514577D01*
X511894Y120811D02*
Y122894D01*
X491748Y127748D02*
X495543Y131543D01*
X491748Y122906D02*
Y127748D01*
Y109716D02*
Y122906D01*
X495543Y131543D02*
Y135185D01*
X505244D02*
X505244Y135185D01*
Y141685D01*
X487039Y143461D02*
X492894D01*
X475721Y154780D02*
X487039Y143461D01*
X468323Y154780D02*
X475721D01*
X462405Y168945D02*
Y173915D01*
X458323Y154780D02*
Y161677D01*
X323315Y279215D02*
Y299713D01*
X299996Y226504D02*
X303500Y223000D01*
X299996Y226504D02*
Y233896D01*
X301965Y229035D02*
X303500Y227500D01*
X301965Y229035D02*
Y233896D01*
X329459Y221986D02*
X347339D01*
X327000Y219528D02*
X329459Y221986D01*
X327273Y223955D02*
X347339D01*
X327000Y224227D02*
X327273Y223955D01*
X330500Y165155D02*
X330957Y165612D01*
X239900Y244600D02*
X258577Y225923D01*
X216000Y244600D02*
X239900D01*
X215092Y243692D02*
X216000Y244600D01*
X206533Y243049D02*
Y243692D01*
X191150Y233699D02*
X195475Y238025D01*
X198740Y281000D02*
Y286959D01*
X197390Y274000D02*
X201000Y270390D01*
Y268000D02*
Y270390D01*
Y268000D02*
X202500Y266500D01*
X205500D01*
X184000Y274000D02*
X197390D01*
X205500Y266500D02*
X206917Y265083D01*
Y261453D02*
Y265083D01*
X210037Y261453D02*
X212000Y263415D01*
X206917Y261453D02*
X210037D01*
X212000Y263415D02*
Y285864D01*
X209041Y286959D02*
X210200Y285800D01*
Y277314D02*
Y285800D01*
X207110Y274224D02*
X210200Y277314D01*
X213094Y286959D02*
X216717D01*
X212000Y285864D02*
X213094Y286959D01*
X206917Y270547D02*
X207110Y270740D01*
Y274224D01*
X206283Y286959D02*
X209041D01*
X194199Y291500D02*
X198740Y286959D01*
X187500Y291500D02*
X194199D01*
X183350Y287350D02*
X187500Y291500D01*
X182874Y287350D02*
X183350D01*
X182500Y303000D02*
X182874Y302626D01*
Y293650D02*
Y302626D01*
X186000Y276000D02*
X191260Y281260D01*
X182272Y276000D02*
X186000D01*
X177449Y271177D02*
X182272Y276000D01*
X177449Y244600D02*
Y271177D01*
Y244600D02*
X179000Y243049D01*
X191260Y281260D02*
Y286959D01*
X226986Y239636D02*
X227000Y239650D01*
X218707Y239636D02*
X226986D01*
X212636D02*
X218707D01*
X211049Y238049D02*
X212636Y239636D01*
X206533Y238049D02*
X211049D01*
X191150Y232000D02*
Y233699D01*
X184850Y232000D02*
X184880Y232030D01*
Y238049D01*
Y253049D02*
Y257000D01*
X187000Y259120D01*
Y262850D01*
X179249Y255249D02*
X181000Y257000D01*
X179249Y249251D02*
Y255249D01*
X180451Y248049D02*
X184880D01*
X179249Y249251D02*
X180451Y248049D01*
X181000Y257000D02*
Y262850D01*
X191350Y269150D02*
X194500Y266000D01*
X187000Y269150D02*
X191350D01*
X181000D02*
Y271000D01*
X184000Y274000D01*
X179000Y243049D02*
X184880D01*
X249881Y294349D02*
X254968D01*
X247000Y297231D02*
X249881Y294349D01*
X247000Y297231D02*
Y304528D01*
X254968Y294349D02*
X269559Y279759D01*
X241972Y299713D02*
X249136Y292549D01*
X254223D01*
X268813Y277959D02*
X280041D01*
X254223Y292549D02*
X268813Y277959D01*
X241972Y309555D02*
X247000Y304528D01*
X269559Y279759D02*
X280787D01*
X251815Y299713D02*
X252151D01*
X270305Y281559D01*
X281533D01*
X271050Y283359D02*
X282278D01*
X251815Y309398D02*
Y309555D01*
Y309398D02*
X256500Y304713D01*
Y297909D02*
Y304713D01*
Y297909D02*
X271050Y283359D01*
X271796Y285159D02*
X283024D01*
X261658Y295297D02*
X271796Y285159D01*
X261658Y295297D02*
Y299713D01*
Y309555D02*
X266500Y304713D01*
Y293000D02*
Y304713D01*
Y293000D02*
X272541Y286959D01*
X283769D01*
X325587Y233896D02*
Y245141D01*
X323618Y233896D02*
Y244564D01*
X339500Y206000D02*
X339738Y206238D01*
X347339D01*
X343500Y141685D02*
X343573Y141612D01*
X349457D01*
X340795Y149555D02*
X343350Y147000D01*
X340795Y149555D02*
Y153061D01*
X364500Y131963D02*
Y144000D01*
X355301Y122764D02*
X364500Y131963D01*
X355301Y117626D02*
Y122764D01*
X360537Y147963D02*
X364500Y144000D01*
X355606Y147963D02*
X360537D01*
X355756Y141612D02*
X359665D01*
X337303Y120207D02*
X337398Y120301D01*
X337303Y107018D02*
Y120207D01*
X340205Y135112D02*
X349457D01*
X349650Y165612D02*
Y168658D01*
X348173Y170134D02*
X349650Y168658D01*
X342000Y170134D02*
X348173D01*
X341335Y170799D02*
X342000Y170134D01*
X341335Y170799D02*
Y174644D01*
X444689Y179189D02*
X446500Y181000D01*
X444689Y173915D02*
Y179189D01*
X450595Y173915D02*
Y187906D01*
X450500Y188000D02*
X450595Y187906D01*
X397905Y167045D02*
X398500Y167640D01*
X397905Y161575D02*
Y167045D01*
X395350Y168850D02*
Y172850D01*
X393575Y167075D02*
X395350Y168850D01*
X393575Y161575D02*
Y167075D01*
X301965Y179965D02*
X304000Y182000D01*
X301965Y174644D02*
Y179965D01*
X243000Y167500D02*
X243012Y167488D01*
Y161187D02*
Y167488D01*
X254157Y211486D02*
X260157D01*
X248158D02*
X254157D01*
X242158D02*
X248158D01*
X236157D02*
X242158D01*
X232071D02*
X236157D01*
X232000Y211415D02*
X232071Y211486D01*
X228500Y203000D02*
Y214500D01*
X226700Y205111D02*
Y215246D01*
X224900Y212400D02*
Y215991D01*
X222185Y209685D02*
X224900Y212400D01*
X228500Y214500D02*
X230081Y216081D01*
X226700Y215246D02*
X229504Y218049D01*
X224900Y215991D02*
X228758Y219849D01*
X215500Y209685D02*
X222185D01*
X215500Y219528D02*
X225891D01*
X228012Y221649D01*
X271568D01*
X273200Y220018D01*
X288087D01*
X228758Y219849D02*
X270823D01*
X272623Y218049D01*
X288087D01*
X215500Y199843D02*
X221431D01*
X226700Y205111D01*
X229504Y218049D02*
X270000D01*
X270168Y217881D01*
X270246D01*
X272046Y216081D01*
X288087D01*
X215500Y190000D02*
X228500Y203000D01*
X230081Y216081D02*
X269500D01*
X271468Y214112D01*
X288087D01*
X295933Y200333D02*
X296600Y201000D01*
X288087Y200333D02*
X295933D01*
X293787Y198100D02*
X301400D01*
X293523Y198364D02*
X293787Y198100D01*
X288087Y198364D02*
X293523D01*
X301400Y198100D02*
X301500Y198000D01*
X307500Y194427D02*
X307870Y194057D01*
Y174644D02*
Y194057D01*
X300000Y189101D02*
Y191500D01*
Y189101D02*
X300900Y188201D01*
Y185799D02*
Y188201D01*
X300000Y184899D02*
X300900Y185799D01*
X300000Y174648D02*
Y184899D01*
X299996Y174644D02*
X300000Y174648D01*
X298000Y187000D02*
X298028Y186972D01*
Y174644D02*
Y186972D01*
X228500Y192000D02*
X236157Y199657D01*
X225689Y189189D02*
X228500Y192000D01*
X237000Y194000D02*
X242158Y199158D01*
X230020Y187020D02*
X237000Y194000D01*
X234350Y185350D02*
X248158Y199158D01*
X260157Y198000D02*
Y205187D01*
Y194356D02*
Y198000D01*
X254157Y200500D02*
Y205187D01*
Y193856D02*
Y200500D01*
X236157Y199657D02*
Y205187D01*
X225689Y161187D02*
Y189189D01*
X242158Y199158D02*
Y205187D01*
X230020Y161187D02*
Y187020D01*
X248158Y199158D02*
Y205187D01*
X234350Y161187D02*
Y185350D01*
X239500Y184500D02*
X239508Y184492D01*
Y179612D02*
Y184492D01*
X238681Y178785D02*
X239508Y179612D01*
X251673Y191372D02*
X254157Y193856D01*
X251673Y161187D02*
Y191372D01*
X256004Y190203D02*
X260157Y194356D01*
X256004Y161187D02*
Y190203D01*
X294091Y180591D02*
Y184585D01*
X291000Y177500D02*
X294091Y180591D01*
X291000Y164000D02*
Y177500D01*
Y164000D02*
X292665Y162335D01*
Y154238D02*
Y162335D01*
X434675Y167234D02*
X440209Y161700D01*
X447300D01*
X448323Y160677D01*
Y154780D02*
Y160677D01*
X450000Y163500D02*
X453323Y160177D01*
X440954Y163500D02*
X450000D01*
X436815Y167640D02*
X440954Y163500D01*
X438784Y168217D02*
X441500Y165500D01*
X436815Y167640D02*
Y173915D01*
X453323Y154780D02*
Y160177D01*
X438784Y168217D02*
Y173915D01*
X463323Y154780D02*
Y161677D01*
X448323Y132323D02*
Y139425D01*
X463323D02*
X463480Y139268D01*
Y127000D02*
Y139268D01*
X450291Y116024D02*
Y122163D01*
X447954Y124500D02*
X450291Y122163D01*
X443500Y124500D02*
X447954D01*
X452850Y116024D02*
Y122150D01*
X447500Y127500D02*
X452850Y122150D01*
X427388Y189762D02*
X430811D01*
X442721Y173915D02*
Y187221D01*
X443000Y187500D01*
X439000Y187399D02*
Y187500D01*
Y187399D02*
X440752Y185647D01*
Y173915D02*
Y185647D01*
X396500Y194000D02*
Y205169D01*
Y192650D02*
Y194000D01*
X402500Y196000D02*
Y205169D01*
Y194000D02*
Y196000D01*
X437057Y200900D02*
X440000D01*
X435762Y199604D02*
X437057Y200900D01*
X437394Y196000D02*
X440000D01*
X435758Y197636D02*
X437394Y196000D01*
X430811Y197636D02*
X435758D01*
X430811Y199604D02*
X435762D01*
X408500Y199500D02*
Y205169D01*
X414500Y198000D02*
Y205169D01*
X395350Y182207D02*
X397000Y183856D01*
X395350Y179000D02*
Y182207D01*
Y172850D02*
Y179000D01*
X385500Y211500D02*
X385531Y211469D01*
X390500D01*
X408500D02*
X414500D01*
X402500D02*
X408500D01*
X396500D02*
X402500D01*
X390500D02*
X396500D01*
X390500Y191746D02*
Y205169D01*
X380583Y181829D02*
X390500Y191746D01*
X380583Y161575D02*
Y181829D01*
X384913Y181063D02*
X396500Y192650D01*
X384913Y161575D02*
Y181063D01*
X389244Y180744D02*
X402500Y194000D01*
X389244Y161575D02*
Y180744D01*
X280000Y173463D02*
Y177500D01*
X292122Y186553D02*
X294091Y184585D01*
X288087Y186553D02*
X292122D01*
X289000Y138884D02*
X292665D01*
X296059Y166941D02*
Y174644D01*
X294091Y164909D02*
Y174644D01*
Y164909D02*
X297665Y161335D01*
X296059Y166941D02*
X298500Y164500D01*
X304500D01*
X419272Y155150D02*
X426000D01*
X418988Y155433D02*
X419272Y155150D01*
X426000Y145000D02*
Y148850D01*
X357315Y108374D02*
X360500Y111559D01*
X355301Y108374D02*
X357315D01*
X303630Y147500D02*
X319681D01*
Y166049D02*
Y174644D01*
X302665Y148465D02*
X303630Y147500D01*
X302665Y148465D02*
Y154238D01*
X271657Y144500D02*
Y148463D01*
X264378Y154762D02*
X271657D01*
X264094Y155045D02*
X264378Y154762D01*
X347098Y104500D02*
Y108486D01*
X355756Y129756D02*
Y135112D01*
X347098Y121098D02*
X355756Y129756D01*
X347098Y117738D02*
Y121098D01*
X349650Y165612D02*
X354104D01*
X330957D02*
Y168500D01*
X329500Y169957D02*
X330957Y168500D01*
X329500Y169957D02*
Y174620D01*
X329524Y174644D01*
X340795Y153061D02*
X344561D01*
X345762Y154262D01*
X349335D01*
X337398Y120301D02*
Y127500D01*
X340205Y130307D01*
Y135112D01*
X349457Y141612D02*
X349457Y141612D01*
X349457Y135112D02*
Y141612D01*
X340205Y135112D02*
Y136795D01*
X337055Y139945D02*
X340205Y136795D01*
X337055Y139945D02*
Y143612D01*
X332388D02*
X337055D01*
X329000Y147000D02*
X332388Y143612D01*
X329000Y147000D02*
Y153500D01*
X320500Y162000D02*
X329000Y153500D01*
X313776Y162000D02*
X320500D01*
X312665Y160890D02*
X313776Y162000D01*
X312665Y154238D02*
Y160890D01*
X305315Y129413D02*
X307665Y131764D01*
X305315Y126884D02*
Y129413D01*
X307665Y131764D02*
Y138884D01*
X297665Y154238D02*
Y161335D01*
X304500Y164500D02*
X307665Y161335D01*
Y154238D02*
Y161335D01*
X538740Y228823D02*
Y235075D01*
X532925D02*
X538740D01*
X529350Y238650D02*
X532925Y235075D01*
X609240Y228882D02*
Y235059D01*
X603500D02*
X609240D01*
X585740Y228823D02*
Y235000D01*
X580000D02*
X585740D01*
X562240Y228898D02*
Y235075D01*
X556500D02*
X562240D01*
X528500Y261799D02*
Y266500D01*
X552000Y261874D02*
Y266500D01*
X575500Y261799D02*
Y266500D01*
X599000Y261858D02*
Y266500D01*
X340350Y242500D02*
Y248500D01*
X294091Y233896D02*
Y236575D01*
X290500Y240165D02*
X294091Y236575D01*
X290500Y240165D02*
Y241799D01*
X298028Y233896D02*
Y241799D01*
X281423Y177500D02*
X284571Y180648D01*
X280000Y177500D02*
X281423D01*
X284571Y180648D02*
X288087D01*
X280000Y185000D02*
X280415Y184585D01*
X288087D01*
X473888Y283150D02*
X481613D01*
X473888Y268236D02*
X481613D01*
X505482Y305480D02*
Y313205D01*
X580500Y295500D02*
X591896Y284104D01*
X597104D01*
X606500Y274709D01*
X580500Y295500D02*
Y299890D01*
X560815Y295965D02*
Y299890D01*
X559500Y294650D02*
X560815Y295965D01*
X559500Y274224D02*
Y294650D01*
X552850Y301768D02*
X560815Y309732D01*
X552850Y295350D02*
Y301768D01*
X536000Y278500D02*
X552850Y295350D01*
X536000Y274150D02*
Y278500D01*
X570657Y296342D02*
Y299890D01*
Y296342D02*
X583000Y284000D01*
Y274150D02*
Y284000D01*
X575500Y176299D02*
Y182000D01*
Y238650D02*
X576350D01*
X575500Y233299D02*
Y238650D01*
X583000Y261799D02*
Y267850D01*
X590000D01*
X583000Y249500D02*
X583350Y249150D01*
X583000Y249500D02*
Y255500D01*
X579201Y212799D02*
X583850Y208150D01*
X575500Y212799D02*
X579201D01*
X583500Y194000D02*
X583850Y193650D01*
X575500Y194000D02*
X583500D01*
X583701Y200299D02*
X583850Y200150D01*
X575500Y200299D02*
Y206500D01*
Y200299D02*
X583701D01*
X589480Y223319D02*
X590150Y222650D01*
X590000Y255500D02*
X590000Y255500D01*
X575500Y255500D02*
X590000D01*
X590150Y215150D02*
Y222650D01*
X580037Y155537D02*
X586000D01*
X575500Y153388D02*
X577888D01*
X580037Y155537D01*
X582260Y163297D02*
Y170736D01*
X578650Y159687D02*
X582260Y163297D01*
X575500Y159687D02*
X578650D01*
X583850Y190486D02*
Y193650D01*
X582260Y188896D02*
X583850Y190486D01*
X582260Y181563D02*
Y188896D01*
X586000Y181563D02*
Y186000D01*
Y178500D02*
Y181563D01*
X583799Y176299D02*
X586000Y178500D01*
X575500Y176299D02*
X583799D01*
X593221Y187259D02*
Y197078D01*
X590150Y200150D02*
X593221Y197078D01*
X589740Y183778D02*
X593221Y187259D01*
X589740Y181563D02*
Y183778D01*
X592500Y168000D02*
Y173624D01*
X591968Y167468D02*
X592500Y168000D01*
X589740Y176384D02*
Y181563D01*
Y176384D02*
X592500Y173624D01*
X584301Y170736D02*
X587570Y167468D01*
X591968D01*
X582260Y170736D02*
X584301D01*
X589650Y239819D02*
Y249150D01*
X589480Y234669D02*
X593221Y230928D01*
X589480Y234669D02*
Y239650D01*
X590150Y208150D02*
X593221Y211221D01*
Y230928D01*
X589480Y239650D02*
X589650Y239819D01*
X589480Y223319D02*
Y228823D01*
X585740Y226136D02*
Y228823D01*
X583850Y222650D02*
Y224246D01*
X585740Y226136D01*
X576350Y238650D02*
X580000Y235000D01*
X582000Y227396D02*
Y228823D01*
X575500Y220896D02*
X582000Y227396D01*
X575500Y212799D02*
Y220896D01*
X552000Y176374D02*
Y182075D01*
Y238724D02*
X552850D01*
X552000Y233374D02*
Y238724D01*
X559500Y261874D02*
Y267925D01*
X566500D01*
X559500Y249575D02*
X559850Y249224D01*
X559500Y249575D02*
Y255575D01*
X555701Y212874D02*
X560350Y208224D01*
X552000Y212874D02*
X555701D01*
X560000Y194075D02*
X560350Y193724D01*
X552000Y194075D02*
X560000D01*
X560201Y200374D02*
X560350Y200224D01*
X552000Y200374D02*
Y206575D01*
Y200374D02*
X560201D01*
X565980Y223394D02*
X566650Y222724D01*
X566500Y255575D02*
X566500Y255575D01*
X552000Y255575D02*
X566500D01*
X566650Y215224D02*
Y222724D01*
X556537Y155612D02*
X562500D01*
X552000Y153463D02*
X554388D01*
X556537Y155612D01*
X558760Y163372D02*
Y170811D01*
X555150Y159762D02*
X558760Y163372D01*
X552000Y159762D02*
X555150D01*
X560350Y190561D02*
Y193724D01*
X558760Y188970D02*
X560350Y190561D01*
X558760Y181638D02*
Y188970D01*
X562500Y178575D02*
Y181638D01*
Y186075D01*
X560299Y176374D02*
X562500Y178575D01*
X552000Y176374D02*
X560299D01*
X569721Y187334D02*
Y197153D01*
X566650Y200224D02*
X569721Y197153D01*
X566240Y183852D02*
X569721Y187334D01*
X566240Y181638D02*
Y183852D01*
X569000Y168075D02*
Y173699D01*
X568468Y167543D02*
X569000Y168075D01*
X566240Y176459D02*
Y181638D01*
Y176459D02*
X569000Y173699D01*
X560801Y170811D02*
X564070Y167543D01*
X568468D01*
X558760Y170811D02*
X560801D01*
X566150Y239894D02*
Y249224D01*
X565980Y234744D02*
X569721Y231003D01*
X565980Y234744D02*
Y239724D01*
X566650Y208224D02*
X569721Y211296D01*
Y231003D01*
X565980Y239724D02*
X566150Y239894D01*
X565980Y223394D02*
Y228898D01*
X562240Y226211D02*
Y228898D01*
X560350Y224321D02*
X562240Y226211D01*
X552850Y238724D02*
X556500Y235075D01*
X560350Y222724D02*
Y224321D01*
X558500Y227470D02*
Y228898D01*
X552000Y220971D02*
X558500Y227470D01*
X552000Y212874D02*
Y220971D01*
X528500Y176299D02*
Y182000D01*
Y233299D02*
Y238650D01*
X536000Y261799D02*
Y267850D01*
X543000D01*
X536000Y249500D02*
X536350Y249150D01*
X536000Y249500D02*
Y255500D01*
X532201Y212799D02*
X536850Y208150D01*
X528500Y212799D02*
X532201D01*
X536500Y194000D02*
X536850Y193650D01*
X528500Y194000D02*
X536500D01*
X536701Y200299D02*
X536850Y200150D01*
X528500Y200299D02*
Y206500D01*
Y200299D02*
X536701D01*
X542480Y223319D02*
X543150Y222650D01*
X543000Y255500D02*
X543000Y255500D01*
X528500Y255500D02*
X543000D01*
X543150Y215150D02*
Y222650D01*
X533037Y155537D02*
X539000D01*
X528500Y153388D02*
X530888D01*
X533037Y155537D01*
X535260Y163297D02*
Y170736D01*
X531650Y159687D02*
X535260Y163297D01*
X528500Y159687D02*
X531650D01*
X536850Y190486D02*
Y193650D01*
X535260Y188896D02*
X536850Y190486D01*
X535260Y181563D02*
Y188896D01*
X539000Y178500D02*
Y181563D01*
Y186000D01*
X536799Y176299D02*
X539000Y178500D01*
X528500Y176299D02*
X536799D01*
X546221Y187259D02*
Y197078D01*
X543150Y200150D02*
X546221Y197078D01*
X542740Y183778D02*
X546221Y187259D01*
X542740Y181563D02*
Y183778D01*
X545500Y168000D02*
Y173624D01*
X544968Y167468D02*
X545500Y168000D01*
X542740Y176384D02*
Y181563D01*
Y176384D02*
X545500Y173624D01*
X537301Y170736D02*
X540570Y167468D01*
X544968D01*
X535260Y170736D02*
X537301D01*
X542650Y239819D02*
Y249150D01*
X542480Y234669D02*
X546221Y230928D01*
X542480Y234669D02*
Y239650D01*
X543150Y208150D02*
X546221Y211221D01*
Y230928D01*
X542480Y239650D02*
X542650Y239819D01*
X542480Y223319D02*
Y228823D01*
X528500Y238650D02*
X529350D01*
X536850Y224246D02*
X538740Y226136D01*
Y228823D01*
X536850Y222650D02*
Y224246D01*
X535000Y227396D02*
Y228823D01*
X528500Y220896D02*
X535000Y227396D01*
X528500Y212799D02*
Y220896D01*
X603537Y155596D02*
X609500D01*
X601388Y153447D02*
X603537Y155596D01*
X599000Y153447D02*
X601388D01*
X605760Y170795D02*
X607801D01*
X611070Y167527D01*
X615468D01*
X616000Y168059D01*
Y173683D01*
X613240Y176443D02*
X616000Y173683D01*
X599000Y159746D02*
X602150D01*
X605760Y163356D01*
Y170795D01*
X613240Y176443D02*
Y181622D01*
X613650Y200209D02*
X616721Y197137D01*
Y187318D02*
Y197137D01*
X613240Y183837D02*
X616721Y187318D01*
X613240Y181622D02*
Y183837D01*
X609500Y181622D02*
Y186059D01*
X599000Y176358D02*
Y182059D01*
Y176358D02*
X607299D01*
X609500Y178559D01*
Y181622D01*
X605760Y188955D02*
X607350Y190545D01*
X605760Y181622D02*
Y188955D01*
X607350Y190545D02*
Y193709D01*
X599000Y194059D02*
X607000D01*
X607350Y193709D01*
X616721Y211280D02*
Y230987D01*
X613650Y208209D02*
X616721Y211280D01*
X612980Y234728D02*
Y239709D01*
Y234728D02*
X616721Y230987D01*
X607201Y200358D02*
X607350Y200209D01*
X599000Y200358D02*
X607201D01*
X599000D02*
Y206559D01*
Y212858D02*
X602701D01*
X607350Y208209D01*
X613650Y215209D02*
Y222709D01*
X612980Y223378D02*
X613650Y222709D01*
X612980Y223378D02*
Y228882D01*
X609240Y226195D02*
Y228882D01*
X607350Y224305D02*
X609240Y226195D01*
X607350Y222709D02*
Y224305D01*
X599000Y212858D02*
Y220955D01*
X605500Y227455D01*
Y228882D01*
X599850Y238709D02*
X603500Y235059D01*
X599000Y238709D02*
X599850D01*
X599000Y233358D02*
Y238709D01*
X612980Y239709D02*
X613150Y239878D01*
Y249209D01*
X599000Y255559D02*
X613500D01*
X606500Y249559D02*
X606850Y249209D01*
X606500Y249559D02*
Y255559D01*
X613500Y255559D02*
X613500Y255559D01*
X606500Y267910D02*
X613500D01*
X606500Y261858D02*
Y267910D01*
D18*
X522000Y305480D02*
D03*
Y299181D02*
D03*
X513982Y305480D02*
D03*
Y299181D02*
D03*
X505482Y305480D02*
D03*
Y299181D02*
D03*
X511394Y148035D02*
D03*
Y154335D02*
D03*
X504894Y154335D02*
D03*
Y148035D02*
D03*
X518567Y205650D02*
D03*
Y199350D02*
D03*
X448000Y269701D02*
D03*
Y263402D02*
D03*
X385000Y263457D02*
D03*
Y269756D02*
D03*
X376898Y278850D02*
D03*
Y285150D02*
D03*
X370953Y285197D02*
D03*
Y278898D02*
D03*
X426000Y155150D02*
D03*
Y148850D02*
D03*
X414500Y205169D02*
D03*
Y211469D02*
D03*
X408500Y205169D02*
D03*
Y211469D02*
D03*
X402500Y205169D02*
D03*
Y211469D02*
D03*
X396500Y205169D02*
D03*
Y211469D02*
D03*
X390500Y205169D02*
D03*
Y211469D02*
D03*
X416000Y223850D02*
D03*
Y230150D02*
D03*
X408500Y223850D02*
D03*
Y230150D02*
D03*
X435000Y241799D02*
D03*
Y248098D02*
D03*
X442500Y241799D02*
D03*
Y248098D02*
D03*
X349335Y154262D02*
D03*
Y147963D02*
D03*
X355606Y147963D02*
D03*
Y154262D02*
D03*
X374256Y208026D02*
D03*
Y201726D02*
D03*
X298028Y241799D02*
D03*
Y248098D02*
D03*
X290500Y241799D02*
D03*
Y248098D02*
D03*
X182874Y293650D02*
D03*
Y287350D02*
D03*
X187000Y262850D02*
D03*
Y269150D02*
D03*
X181000Y262850D02*
D03*
Y269150D02*
D03*
X271657Y154762D02*
D03*
Y148463D02*
D03*
X260157Y205187D02*
D03*
Y211486D02*
D03*
X254157Y205187D02*
D03*
Y211486D02*
D03*
X248158Y205187D02*
D03*
Y211486D02*
D03*
X242158Y205187D02*
D03*
Y211486D02*
D03*
X236157Y205187D02*
D03*
Y211486D02*
D03*
X606500Y268409D02*
D03*
Y274709D02*
D03*
X528500Y170000D02*
D03*
Y176299D02*
D03*
Y182000D02*
D03*
Y188299D02*
D03*
Y227000D02*
D03*
Y233299D02*
D03*
Y238650D02*
D03*
Y244949D02*
D03*
Y261799D02*
D03*
Y255500D02*
D03*
X536000Y261799D02*
D03*
Y255500D02*
D03*
X528500Y153388D02*
D03*
Y159687D02*
D03*
X536000Y267850D02*
D03*
Y274150D02*
D03*
X528500Y194000D02*
D03*
Y200299D02*
D03*
Y206500D02*
D03*
Y212799D02*
D03*
X543000Y255500D02*
D03*
Y261799D02*
D03*
Y274150D02*
D03*
Y267850D02*
D03*
X552000Y170075D02*
D03*
Y176374D02*
D03*
Y182075D02*
D03*
Y188374D02*
D03*
Y227075D02*
D03*
Y233374D02*
D03*
Y238724D02*
D03*
Y245024D02*
D03*
Y261874D02*
D03*
Y255575D02*
D03*
X559500Y261874D02*
D03*
Y255575D02*
D03*
X552000Y153463D02*
D03*
Y159762D02*
D03*
X559500Y267925D02*
D03*
Y274224D02*
D03*
X552000Y194075D02*
D03*
Y200374D02*
D03*
Y206575D02*
D03*
Y212874D02*
D03*
X566500Y255575D02*
D03*
Y261874D02*
D03*
Y274224D02*
D03*
Y267925D02*
D03*
X575500Y170000D02*
D03*
Y176299D02*
D03*
Y182000D02*
D03*
Y188299D02*
D03*
Y227000D02*
D03*
Y233299D02*
D03*
Y238650D02*
D03*
Y244949D02*
D03*
Y261799D02*
D03*
Y255500D02*
D03*
X583000Y261799D02*
D03*
Y255500D02*
D03*
X575500Y153388D02*
D03*
Y159687D02*
D03*
X583000Y267850D02*
D03*
Y274150D02*
D03*
X575500Y194000D02*
D03*
Y200299D02*
D03*
Y206500D02*
D03*
Y212799D02*
D03*
X590000Y255500D02*
D03*
Y261799D02*
D03*
Y274150D02*
D03*
Y267850D02*
D03*
X599000Y170059D02*
D03*
Y176358D02*
D03*
Y182059D02*
D03*
Y188358D02*
D03*
Y227059D02*
D03*
Y233358D02*
D03*
Y238709D02*
D03*
Y245008D02*
D03*
Y261858D02*
D03*
Y255559D02*
D03*
X606500Y261858D02*
D03*
Y255559D02*
D03*
X599000Y153447D02*
D03*
Y159746D02*
D03*
Y194059D02*
D03*
Y200358D02*
D03*
Y206559D02*
D03*
Y212858D02*
D03*
X613500Y255559D02*
D03*
Y261858D02*
D03*
Y274209D02*
D03*
Y267910D02*
D03*
D19*
X522000Y322457D02*
D03*
Y313205D02*
D03*
X514000Y322457D02*
D03*
Y313205D02*
D03*
X505482Y322457D02*
D03*
Y313205D02*
D03*
X503894Y120811D02*
D03*
Y111559D02*
D03*
X511894Y120811D02*
D03*
Y111559D02*
D03*
X416000Y247126D02*
D03*
Y237874D02*
D03*
X408500Y247126D02*
D03*
Y237874D02*
D03*
X355301Y117626D02*
D03*
Y108374D02*
D03*
X347098Y117738D02*
D03*
Y108486D02*
D03*
X182500Y312252D02*
D03*
Y303000D02*
D03*
D20*
X447732Y116024D02*
D03*
X450291D02*
D03*
X452850D02*
D03*
X455409D02*
D03*
X457969D02*
D03*
X291455Y117301D02*
D03*
X294014D02*
D03*
X296573D02*
D03*
X299132D02*
D03*
X301691D02*
D03*
D21*
X457378Y105000D02*
D03*
X448323D02*
D03*
X301100Y106278D02*
D03*
X292045D02*
D03*
D22*
X492150Y166049D02*
D03*
X485850D02*
D03*
X473894D02*
D03*
X480193D02*
D03*
X495543Y135185D02*
D03*
X489244D02*
D03*
X457181Y127000D02*
D03*
X463480D02*
D03*
X511543Y135185D02*
D03*
X505244D02*
D03*
X505244Y141685D02*
D03*
X511543D02*
D03*
X503688Y179500D02*
D03*
X509988D02*
D03*
X503688Y187000D02*
D03*
X509988D02*
D03*
X503688Y193000D02*
D03*
X509988D02*
D03*
X504350Y228175D02*
D03*
X510650D02*
D03*
X504350Y221876D02*
D03*
X510650D02*
D03*
Y216000D02*
D03*
X504350D02*
D03*
X467589Y283150D02*
D03*
X473888D02*
D03*
X467589Y275734D02*
D03*
X473888D02*
D03*
X467589Y268236D02*
D03*
X473888D02*
D03*
X438650Y278000D02*
D03*
X432350D02*
D03*
X415350Y277500D02*
D03*
X421650D02*
D03*
X408150Y278500D02*
D03*
X401850D02*
D03*
X388350D02*
D03*
X394650D02*
D03*
X372201Y256500D02*
D03*
X378500D02*
D03*
X395350Y179000D02*
D03*
X401650D02*
D03*
X423650Y177500D02*
D03*
X417350D02*
D03*
X423650Y185000D02*
D03*
X417350D02*
D03*
X299016Y126884D02*
D03*
X305315D02*
D03*
X349650Y165612D02*
D03*
X343350D02*
D03*
X330957D02*
D03*
X337256D02*
D03*
X340205Y135112D02*
D03*
X333906D02*
D03*
X355756D02*
D03*
X349457D02*
D03*
X349457Y141612D02*
D03*
X355756D02*
D03*
X359850Y181455D02*
D03*
X366150D02*
D03*
X359850Y188621D02*
D03*
X366150D02*
D03*
X359756Y194876D02*
D03*
X366055D02*
D03*
X366500Y216833D02*
D03*
X360201D02*
D03*
Y228882D02*
D03*
X366500D02*
D03*
X360201Y222882D02*
D03*
X366500D02*
D03*
X340350Y242500D02*
D03*
X346650D02*
D03*
X340350Y248500D02*
D03*
X346650D02*
D03*
X191150Y232000D02*
D03*
X184850D02*
D03*
X206150Y178124D02*
D03*
X199850D02*
D03*
X206150Y171000D02*
D03*
X199850D02*
D03*
X239508Y179612D02*
D03*
X245807D02*
D03*
X239508Y173612D02*
D03*
X245807D02*
D03*
X280000Y177500D02*
D03*
X273701D02*
D03*
X280000Y185000D02*
D03*
X273701D02*
D03*
X536850Y208150D02*
D03*
X543150D02*
D03*
X542650Y249150D02*
D03*
X536350D02*
D03*
X536850Y200150D02*
D03*
X543150D02*
D03*
Y222650D02*
D03*
X536850D02*
D03*
X543150Y193650D02*
D03*
X536850D02*
D03*
X543150Y215150D02*
D03*
X536850D02*
D03*
X560350Y208224D02*
D03*
X566650D02*
D03*
X566150Y249224D02*
D03*
X559850D02*
D03*
X560350Y200224D02*
D03*
X566650D02*
D03*
Y222724D02*
D03*
X560350D02*
D03*
X566650Y193724D02*
D03*
X560350D02*
D03*
X566650Y215224D02*
D03*
X560350D02*
D03*
X583850Y208150D02*
D03*
X590150D02*
D03*
X589650Y249150D02*
D03*
X583350D02*
D03*
X583850Y200150D02*
D03*
X590150D02*
D03*
Y222650D02*
D03*
X583850D02*
D03*
X590150Y193650D02*
D03*
X583850D02*
D03*
X590150Y215150D02*
D03*
X583850D02*
D03*
X607350Y208209D02*
D03*
X613650D02*
D03*
X613150Y249209D02*
D03*
X606850D02*
D03*
X607350Y200209D02*
D03*
X613650D02*
D03*
Y222709D02*
D03*
X607350D02*
D03*
X613650Y193709D02*
D03*
X607350D02*
D03*
X613650Y215209D02*
D03*
X607350D02*
D03*
X401650Y172850D02*
D03*
X395350D02*
D03*
X486000Y242949D02*
D03*
X479701D02*
D03*
X486039Y249500D02*
D03*
X479740D02*
D03*
D23*
X496634Y152909D02*
D03*
X489153D02*
D03*
X492894Y143461D02*
D03*
X340795Y153061D02*
D03*
X333315D02*
D03*
X337055Y143612D02*
D03*
D24*
X491748Y109716D02*
D03*
Y122906D02*
D03*
X486039Y109716D02*
D03*
Y122906D02*
D03*
X337303Y107018D02*
D03*
Y120207D02*
D03*
X331594Y107018D02*
D03*
Y120207D02*
D03*
D25*
X512264Y205955D02*
D03*
X503602D02*
D03*
Y199262D02*
D03*
X512264D02*
D03*
X367480Y208215D02*
D03*
X358819D02*
D03*
Y201522D02*
D03*
X367480D02*
D03*
D26*
X517762Y255685D02*
D03*
Y241512D02*
D03*
X541000Y343569D02*
D03*
Y329396D02*
D03*
D27*
X505762Y243193D02*
D03*
Y255004D02*
D03*
X541000Y320295D02*
D03*
Y308484D02*
D03*
D28*
X490865Y283150D02*
D03*
X481613D02*
D03*
X490865Y275650D02*
D03*
X481613D02*
D03*
X490865Y268236D02*
D03*
X481613D02*
D03*
X440126Y285000D02*
D03*
X430874D02*
D03*
X396126Y285150D02*
D03*
X386874D02*
D03*
X182874Y178124D02*
D03*
X192126D02*
D03*
X182874Y170612D02*
D03*
X192126D02*
D03*
D29*
X430776Y266500D02*
D03*
X440224Y270240D02*
D03*
Y262760D02*
D03*
X402224Y266559D02*
D03*
X392776Y262819D02*
D03*
Y270299D02*
D03*
D30*
X412193Y270299D02*
D03*
Y266559D02*
D03*
Y262819D02*
D03*
X423807D02*
D03*
Y270299D02*
D03*
D31*
X371158Y262776D02*
D03*
X378638D02*
D03*
X371158Y272224D02*
D03*
X374898D02*
D03*
X378638D02*
D03*
D32*
X356665Y274968D02*
D03*
D33*
X361213Y286385D02*
D03*
X352118D02*
D03*
D34*
X363500Y268406D02*
D03*
Y262500D02*
D03*
X349744Y262547D02*
D03*
Y268453D02*
D03*
D35*
X356500Y267051D02*
D03*
X356500Y264000D02*
D03*
D36*
X448323Y139425D02*
D03*
X453323D02*
D03*
X458323D02*
D03*
X463323D02*
D03*
X468323D02*
D03*
Y154780D02*
D03*
X463323D02*
D03*
X458323D02*
D03*
X453323D02*
D03*
X448323D02*
D03*
X292665Y138884D02*
D03*
X297665D02*
D03*
X302665D02*
D03*
X307665D02*
D03*
X312665D02*
D03*
Y154238D02*
D03*
X307665D02*
D03*
X302665D02*
D03*
X297665D02*
D03*
X292665D02*
D03*
D37*
X347339Y180648D02*
D03*
Y182616D02*
D03*
Y184585D02*
D03*
Y186553D02*
D03*
Y188522D02*
D03*
Y190490D02*
D03*
Y192459D02*
D03*
Y194427D02*
D03*
Y196396D02*
D03*
Y198364D02*
D03*
Y200333D02*
D03*
Y202301D02*
D03*
Y204270D02*
D03*
Y206238D02*
D03*
Y208207D02*
D03*
Y210175D02*
D03*
Y212144D02*
D03*
Y214112D02*
D03*
Y216081D02*
D03*
Y218049D02*
D03*
Y220018D02*
D03*
Y221986D02*
D03*
Y223955D02*
D03*
Y225923D02*
D03*
Y227892D02*
D03*
X288087D02*
D03*
Y225923D02*
D03*
Y223955D02*
D03*
Y221986D02*
D03*
Y220018D02*
D03*
Y218049D02*
D03*
Y216081D02*
D03*
Y214112D02*
D03*
Y212144D02*
D03*
Y210175D02*
D03*
Y208207D02*
D03*
Y206238D02*
D03*
Y204270D02*
D03*
Y202301D02*
D03*
Y200333D02*
D03*
Y198364D02*
D03*
Y196396D02*
D03*
Y194427D02*
D03*
Y192459D02*
D03*
Y190490D02*
D03*
Y188522D02*
D03*
Y186553D02*
D03*
Y184585D02*
D03*
Y182616D02*
D03*
Y180648D02*
D03*
X430811Y179919D02*
D03*
Y181888D02*
D03*
Y183856D02*
D03*
Y185825D02*
D03*
Y187793D02*
D03*
Y189762D02*
D03*
Y191730D02*
D03*
Y193699D02*
D03*
Y195667D02*
D03*
Y197636D02*
D03*
Y199604D02*
D03*
Y201573D02*
D03*
Y203541D02*
D03*
Y205510D02*
D03*
Y207478D02*
D03*
Y209447D02*
D03*
Y211415D02*
D03*
Y213384D02*
D03*
Y215352D02*
D03*
Y217321D02*
D03*
Y219289D02*
D03*
Y221258D02*
D03*
Y223226D02*
D03*
Y225195D02*
D03*
Y227163D02*
D03*
X490063D02*
D03*
Y225195D02*
D03*
Y223226D02*
D03*
Y221258D02*
D03*
Y219289D02*
D03*
Y217321D02*
D03*
Y215352D02*
D03*
Y213384D02*
D03*
Y211415D02*
D03*
Y209447D02*
D03*
Y207478D02*
D03*
Y205510D02*
D03*
Y203541D02*
D03*
Y201573D02*
D03*
Y199604D02*
D03*
Y197636D02*
D03*
Y195667D02*
D03*
Y193699D02*
D03*
Y191730D02*
D03*
Y189762D02*
D03*
Y187793D02*
D03*
Y185825D02*
D03*
Y183856D02*
D03*
Y181888D02*
D03*
Y179919D02*
D03*
D38*
X341335Y233896D02*
D03*
X339366D02*
D03*
X337398D02*
D03*
X335429D02*
D03*
X333461D02*
D03*
X331492D02*
D03*
X329524D02*
D03*
X327555D02*
D03*
X325587D02*
D03*
X323618D02*
D03*
X321650D02*
D03*
X319681D02*
D03*
X317713D02*
D03*
X315744D02*
D03*
X313776D02*
D03*
X311807D02*
D03*
X309839D02*
D03*
X307870D02*
D03*
X305902D02*
D03*
X303933D02*
D03*
X301965D02*
D03*
X299996D02*
D03*
X298028D02*
D03*
X296059D02*
D03*
X294091D02*
D03*
Y174644D02*
D03*
X296059D02*
D03*
X298028D02*
D03*
X299996D02*
D03*
X301965D02*
D03*
X303933D02*
D03*
X305902D02*
D03*
X307870D02*
D03*
X309839D02*
D03*
X311807D02*
D03*
X313776D02*
D03*
X315744D02*
D03*
X317713D02*
D03*
X319681D02*
D03*
X321650D02*
D03*
X323618D02*
D03*
X325587D02*
D03*
X327555D02*
D03*
X329524D02*
D03*
X331492D02*
D03*
X333461D02*
D03*
X335429D02*
D03*
X337398D02*
D03*
X339366D02*
D03*
X341335D02*
D03*
X484059Y173915D02*
D03*
X482091D02*
D03*
X480122D02*
D03*
X478154D02*
D03*
X476185D02*
D03*
X474217D02*
D03*
X472248D02*
D03*
X470280D02*
D03*
X468311D02*
D03*
X466342D02*
D03*
X464374D02*
D03*
X462405D02*
D03*
X460437D02*
D03*
X458468D02*
D03*
X456500D02*
D03*
X454531D02*
D03*
X452563D02*
D03*
X450595D02*
D03*
X448626D02*
D03*
X446658D02*
D03*
X444689D02*
D03*
X442721D02*
D03*
X440752D02*
D03*
X438784D02*
D03*
X436815D02*
D03*
Y233167D02*
D03*
X438784D02*
D03*
X440752D02*
D03*
X442721D02*
D03*
X444689D02*
D03*
X446658D02*
D03*
X448626D02*
D03*
X450595D02*
D03*
X452563D02*
D03*
X454531D02*
D03*
X456500D02*
D03*
X458468D02*
D03*
X460437D02*
D03*
X462405D02*
D03*
X464374D02*
D03*
X466342D02*
D03*
X468311D02*
D03*
X470280D02*
D03*
X472248D02*
D03*
X474217D02*
D03*
X476185D02*
D03*
X478154D02*
D03*
X480122D02*
D03*
X482091D02*
D03*
X484059D02*
D03*
D39*
X366606Y161929D02*
D03*
X211713Y161541D02*
D03*
D40*
X380583Y161575D02*
D03*
X384913D02*
D03*
X389244D02*
D03*
X393575D02*
D03*
X397905D02*
D03*
X402236D02*
D03*
X406567D02*
D03*
X410898D02*
D03*
X225689Y161187D02*
D03*
X230020D02*
D03*
X234350D02*
D03*
X238681D02*
D03*
X243012D02*
D03*
X247343D02*
D03*
X251673D02*
D03*
X256004D02*
D03*
D41*
X416449Y161929D02*
D03*
X261555Y161541D02*
D03*
D42*
X418988Y155433D02*
D03*
X264094Y155045D02*
D03*
D43*
X418988Y126299D02*
D03*
X264094Y125911D02*
D03*
D44*
X418575Y103465D02*
D03*
X365425D02*
D03*
X263681Y103077D02*
D03*
X210531D02*
D03*
D45*
X206283Y286959D02*
D03*
X216717D02*
D03*
D46*
X198740D02*
D03*
X195000Y295620D02*
D03*
X191260Y286959D02*
D03*
D47*
X218707Y239636D02*
D03*
Y250463D02*
D03*
D48*
X206533Y238049D02*
D03*
Y243049D02*
D03*
Y248049D02*
D03*
Y253049D02*
D03*
X184880Y238049D02*
D03*
Y243049D02*
D03*
Y248049D02*
D03*
Y253049D02*
D03*
D49*
X195500Y266000D02*
D03*
D50*
X206917Y261453D02*
D03*
Y270547D02*
D03*
D51*
X542740Y170736D02*
D03*
X535260D02*
D03*
Y181563D02*
D03*
X539000D02*
D03*
X542740D02*
D03*
X535000Y239650D02*
D03*
X542480D02*
D03*
Y228823D02*
D03*
X538740D02*
D03*
X535000D02*
D03*
X566240Y170811D02*
D03*
X558760D02*
D03*
Y181638D02*
D03*
X562500D02*
D03*
X566240D02*
D03*
X558500Y239724D02*
D03*
X565980D02*
D03*
Y228898D02*
D03*
X562240D02*
D03*
X558500D02*
D03*
X589740Y170736D02*
D03*
X582260D02*
D03*
Y181563D02*
D03*
X586000D02*
D03*
X589740D02*
D03*
X582000Y239650D02*
D03*
X589480D02*
D03*
Y228823D02*
D03*
X585740D02*
D03*
X582000D02*
D03*
X613240Y170795D02*
D03*
X605760D02*
D03*
Y181622D02*
D03*
X609500D02*
D03*
X613240D02*
D03*
X605500Y239709D02*
D03*
X612980D02*
D03*
Y228882D02*
D03*
X609240D02*
D03*
X605500D02*
D03*
D52*
X466016Y105000D02*
D03*
X439685Y105000D02*
D03*
X309738Y106278D02*
D03*
X283407Y106278D02*
D03*
D100*
X517500Y269500D02*
X517762Y255685D01*
X517081Y255004D02*
X517762Y255685D01*
X517500Y269500D02*
X521000Y273000D01*
X517500Y269500D02*
X517762Y255685D01*
X494665Y248500D02*
Y252000D01*
Y248500D02*
X515927D01*
X517762Y246665D01*
Y241512D02*
Y246665D01*
X505506Y238598D02*
Y242937D01*
X505762Y243193D01*
Y255004D02*
X517081D01*
X521000Y273000D02*
X528500D01*
Y277500D01*
X548500Y339000D02*
Y343569D01*
X541000D02*
X548500D01*
X580500Y309732D02*
Y312500D01*
X572705Y320295D02*
X580500Y312500D01*
X541000Y320295D02*
X572705D01*
X541000D02*
Y329396D01*
D101*
X195000Y308000D02*
X195184D01*
X211650Y324466D01*
X453002D02*
X458323Y319146D01*
X367966Y324466D02*
X453002D01*
X211650D02*
X362034D01*
X365000Y321500D02*
X367966Y324466D01*
X362034D02*
X365000Y321500D01*
X195000Y304000D02*
Y308000D01*
X458323Y309732D02*
Y319146D01*
X365000Y309850D02*
Y321500D01*
D102*
X195000Y295620D02*
Y304000D01*
X198740Y286959D02*
X206283D01*
X216717D02*
X228217D01*
X232130Y290872D01*
Y299713D02*
Y309555D01*
Y290872D02*
Y299713D01*
D103*
X461610Y117303D02*
D03*
X444091D02*
D03*
X305333Y118581D02*
D03*
X287813D02*
D03*
D104*
X468943Y105000D02*
D03*
X436758D02*
D03*
X312665Y106278D02*
D03*
X280480D02*
D03*
D105*
X390823Y237252D02*
D03*
Y227252D02*
D03*
X380823Y237252D02*
D03*
D106*
Y227252D02*
D03*
D107*
X222287Y338000D02*
D03*
X271500D02*
D03*
X365000D02*
D03*
X394528D02*
D03*
X187350Y190000D02*
D03*
Y219528D02*
D03*
X416709Y338000D02*
D03*
X436394D02*
D03*
X343000D02*
D03*
X293787D02*
D03*
D108*
X271500Y309555D02*
D03*
X261658D02*
D03*
X251815D02*
D03*
X241972D02*
D03*
X232130D02*
D03*
X222287D02*
D03*
X271500Y299713D02*
D03*
X261658D02*
D03*
X251815D02*
D03*
X241972D02*
D03*
X232130D02*
D03*
X222287D02*
D03*
X560815Y309732D02*
D03*
X580500Y299890D02*
D03*
X570657D02*
D03*
X560815D02*
D03*
X570657Y309732D02*
D03*
X580500D02*
D03*
X365000Y309850D02*
D03*
X374843D02*
D03*
X384685D02*
D03*
X394528D02*
D03*
X215500Y190000D02*
D03*
Y199843D02*
D03*
Y209685D02*
D03*
Y219528D02*
D03*
X416709Y309850D02*
D03*
X426551D02*
D03*
X436394D02*
D03*
X293787Y299713D02*
D03*
X303630D02*
D03*
X313472D02*
D03*
X323315D02*
D03*
X333157D02*
D03*
X343000D02*
D03*
X293787Y309555D02*
D03*
X303630D02*
D03*
X313472D02*
D03*
X323315D02*
D03*
X333157D02*
D03*
X343000D02*
D03*
X487850Y299890D02*
D03*
Y309732D02*
D03*
X458323D02*
D03*
X478008Y299890D02*
D03*
X468165D02*
D03*
X458323D02*
D03*
X468165Y309732D02*
D03*
X478008D02*
D03*
D109*
X539000Y155537D02*
D03*
X562500Y155612D02*
D03*
X586000Y155537D02*
D03*
X609500Y155596D02*
D03*
D110*
X487850Y338000D02*
D03*
X458323D02*
D03*
D111*
X603000Y335000D02*
D03*
X192000D02*
D03*
X603037Y117500D02*
D03*
X192000D02*
D03*
D112*
X504335Y232500D02*
D03*
X301500Y106278D02*
D03*
X292000D02*
D03*
X457500Y105000D02*
D03*
X448323D02*
D03*
X316500Y280500D02*
D03*
X440300Y290000D02*
D03*
X405500Y260500D02*
D03*
X418000Y263000D02*
D03*
X313500Y264394D02*
D03*
X486039Y254000D02*
D03*
X494665Y252000D02*
D03*
Y248500D02*
D03*
X279500Y226000D02*
D03*
X286000Y241500D02*
D03*
X418000Y257000D02*
D03*
X490865Y262760D02*
D03*
X505506Y238598D02*
D03*
X528500Y277500D02*
D03*
Y273000D02*
D03*
X430000Y241799D02*
D03*
Y248000D02*
D03*
X403500Y247126D02*
D03*
X328000Y293000D02*
D03*
X316500Y276000D02*
D03*
X472248Y179919D02*
D03*
X496500Y166049D02*
D03*
X414000Y170500D02*
D03*
X424000D02*
D03*
X418988D02*
D03*
X401500Y184166D02*
D03*
X365425Y109000D02*
D03*
X210531Y109622D02*
D03*
X218500Y161597D02*
D03*
X261500Y166941D02*
D03*
X259000Y125911D02*
D03*
X183000Y164500D02*
D03*
X275500Y205500D02*
D03*
Y209685D02*
D03*
X212000Y171500D02*
D03*
X211713Y178500D02*
D03*
X497500Y144000D02*
D03*
X517500Y111559D02*
D03*
X499000Y111500D02*
D03*
X479740Y200536D02*
D03*
X474217Y201726D02*
D03*
X479500Y212500D02*
D03*
X468165D02*
D03*
X463000D02*
D03*
X474000D02*
D03*
X479500Y222500D02*
D03*
X527500Y322500D02*
D03*
X505500Y294018D02*
D03*
X514000Y294000D02*
D03*
X335000Y245141D02*
D03*
X334000Y240500D02*
D03*
X330500Y159500D02*
D03*
X347000Y253000D02*
D03*
X340350Y253049D02*
D03*
X328500Y333000D02*
D03*
X323315D02*
D03*
X421650Y282500D02*
D03*
X443000Y278000D02*
D03*
X378500Y252000D02*
D03*
X368000Y256638D02*
D03*
X361500Y292500D02*
D03*
X352205Y292000D02*
D03*
X376898Y289500D02*
D03*
X385500Y258500D02*
D03*
X388500Y274150D02*
D03*
X418000Y273000D02*
D03*
X462500Y168850D02*
D03*
X479500Y226500D02*
D03*
X360201Y233894D02*
D03*
X366606Y234000D02*
D03*
X366150Y177000D02*
D03*
X359850D02*
D03*
X341000Y200374D02*
D03*
X362795Y205500D02*
D03*
X510000Y174874D02*
D03*
X503688D02*
D03*
X484059Y197636D02*
D03*
X508000Y202500D02*
D03*
X510650Y232500D02*
D03*
X516000Y154262D02*
D03*
X489244Y158000D02*
D03*
Y130244D02*
D03*
X227500Y250500D02*
D03*
X333906Y128406D02*
D03*
X343500Y161500D02*
D03*
X245807Y184585D02*
D03*
X453323Y132323D02*
D03*
X468311Y132500D02*
D03*
X422000Y162000D02*
D03*
X269500Y185000D02*
D03*
X298000Y252500D02*
D03*
X414000Y125911D02*
D03*
X360000Y154234D02*
D03*
X333461Y148463D02*
D03*
X317000Y138884D02*
D03*
X297665Y131335D02*
D03*
X541000Y313000D02*
D03*
X545000Y303500D02*
D03*
X537000D02*
D03*
X575500Y166500D02*
D03*
Y250000D02*
D03*
X590000Y278459D02*
D03*
X590150Y189136D02*
D03*
X579000Y218500D02*
D03*
X552000Y166575D02*
D03*
Y250075D02*
D03*
X566500Y278533D02*
D03*
X566650Y189211D02*
D03*
X555500Y218575D02*
D03*
X528500Y166500D02*
D03*
Y250000D02*
D03*
X543000Y278459D02*
D03*
X543150Y189136D02*
D03*
X532000Y218500D02*
D03*
X599000Y166559D02*
D03*
X613650Y189195D02*
D03*
X602500Y218559D02*
D03*
X599000Y250059D02*
D03*
X613500Y278518D02*
D03*
X474500Y249575D02*
D03*
X430000Y170799D02*
D03*
X483500Y154000D02*
D03*
X492894Y148463D02*
D03*
X516000Y141685D02*
D03*
X458323Y161677D02*
D03*
X303500Y223000D02*
D03*
Y227500D02*
D03*
X327000Y224227D02*
D03*
Y219528D02*
D03*
X195500Y238000D02*
D03*
X198740Y281000D02*
D03*
X227000Y239650D02*
D03*
X195000Y304000D02*
D03*
Y308000D02*
D03*
X339500Y206000D02*
D03*
X343500Y141685D02*
D03*
X343350Y147000D02*
D03*
X359665Y141612D02*
D03*
X446500Y181000D02*
D03*
X398500Y167640D02*
D03*
X304000Y182000D02*
D03*
X243000Y167500D02*
D03*
X232000Y211415D02*
D03*
X298000Y187000D02*
D03*
X300000Y191500D02*
D03*
X307500Y194427D02*
D03*
X296600Y201000D02*
D03*
X301500Y198000D02*
D03*
X228500Y192000D02*
D03*
X237000Y194000D02*
D03*
X245000Y196350D02*
D03*
X260157Y198000D02*
D03*
X254157Y200500D02*
D03*
X448323Y132323D02*
D03*
X443500Y124500D02*
D03*
X447500Y127500D02*
D03*
X439000Y187500D02*
D03*
X443000D02*
D03*
X450500Y188000D02*
D03*
X390500Y191746D02*
D03*
X396500Y194000D02*
D03*
X402500Y196000D02*
D03*
X440000Y200900D02*
D03*
Y196000D02*
D03*
X414500Y198000D02*
D03*
X408500Y199500D02*
D03*
X397000Y183856D02*
D03*
X385500Y211500D02*
D03*
X280000Y173463D02*
D03*
X289000Y138884D02*
D03*
X239500Y184500D02*
D03*
X426000Y145000D02*
D03*
X360500Y111559D02*
D03*
X319681Y147500D02*
D03*
Y166049D02*
D03*
X271657Y144500D02*
D03*
X347098Y104500D02*
D03*
X354104Y165612D02*
D03*
X538740Y235075D02*
D03*
X562240D02*
D03*
X585740Y235000D02*
D03*
X609240Y235059D02*
D03*
X528500Y266500D02*
D03*
X552000D02*
D03*
X575500D02*
D03*
X599000D02*
D03*
X548500Y343569D02*
D03*
Y339000D02*
D03*
X586000Y186000D02*
D03*
X562500Y186075D02*
D03*
X539000Y186000D02*
D03*
X609500Y186059D02*
D03*
M02*
