%TF.GenerationSoftware,Altium Limited,Altium Designer,24.1.2 (44)*%
G04 Layer_Color=8388736*
%FSLAX45Y45*%
%MOMM*%
%TF.SameCoordinates,140E097B-8517-4C1D-959E-99074445C54D*%
%TF.FilePolarity,Negative*%
%TF.FileFunction,Soldermask,Top*%
%TF.Part,Single*%
G01*
G75*
%TA.AperFunction,SMDPad,CuDef*%
%ADD26C,0.96520*%
%ADD27R,0.86360X1.16840*%
%ADD28R,1.16840X0.86360*%
%ADD29R,1.10320X0.85320*%
%ADD30R,1.05320X0.50320*%
%ADD31R,0.50320X1.05320*%
%TA.AperFunction,Conductor*%
%ADD32R,1.00320X1.50320*%
%ADD33R,1.00320X1.50320*%
%TA.AperFunction,ComponentPad*%
%ADD34C,1.76320*%
%ADD35C,2.30320*%
%TA.AperFunction,ViaPad*%
%ADD36C,1.09220*%
D26*
X-889000Y622000D02*
D03*
X-508000Y533400D02*
D03*
X-622300Y609600D02*
D03*
D27*
X-1035050Y495300D02*
D03*
X-895350D02*
D03*
D28*
X-1066800Y806450D02*
D03*
Y946150D02*
D03*
X508000Y895350D02*
D03*
Y755650D02*
D03*
X-254000D02*
D03*
Y895350D02*
D03*
D29*
X-805800Y945900D02*
D03*
Y850900D02*
D03*
Y755900D02*
D03*
X-565800D02*
D03*
Y850900D02*
D03*
Y945900D02*
D03*
D30*
X259300Y891100D02*
D03*
Y941100D02*
D03*
X-30700Y891100D02*
D03*
Y941100D02*
D03*
D31*
X39300Y1011100D02*
D03*
X89300D02*
D03*
X139300D02*
D03*
X189300D02*
D03*
D32*
X64300Y741100D02*
D03*
D33*
X164300D02*
D03*
D34*
X738000Y313500D02*
D03*
X488000D02*
D03*
X238000D02*
D03*
X-12000D02*
D03*
X-262000D02*
D03*
X-512000D02*
D03*
X-762000D02*
D03*
X738000Y63500D02*
D03*
X488000D02*
D03*
X238000D02*
D03*
X-12000D02*
D03*
X-262000D02*
D03*
X-512000D02*
D03*
X-762000D02*
D03*
D35*
X-767000Y-659000D02*
D03*
X730500D02*
D03*
D36*
X-927100Y952500D02*
D03*
X-907400Y850900D02*
D03*
X-355600Y755650D02*
D03*
Y895350D02*
D03*
%TF.MD5,601f61b0873ceddd235af7340b0aa6a9*%
M02*
