%TF.GenerationSoftware,Altium Limited,Altium Designer,23.2.1 (34)*%
G04 Layer_Color=16711935*
%FSLAX45Y45*%
%MOMM*%
%TF.SameCoordinates,A6D216B9-5917-482B-AEBE-4AF022C6986F*%
%TF.FilePolarity,Negative*%
%TF.FileFunction,Soldermask,Bot*%
%TF.Part,Single*%
G01*
G75*
%TA.AperFunction,ComponentPad*%
%ADD32R,1.57000X1.57000*%
%ADD36C,1.30000*%
%TA.AperFunction,SMDPad,CuDef*%
%ADD40R,3.50000X1.30000*%
%TA.AperFunction,ComponentPad*%
%ADD56C,6.30320*%
%ADD57C,3.00320*%
%ADD58C,3.70320*%
%TA.AperFunction,ViaPad*%
%ADD59C,0.96520*%
%ADD60C,1.47320*%
%TA.AperFunction,SMDPad,CuDef*%
%ADD61R,8.95320X5.40320*%
D32*
X3291600Y4241800D02*
D03*
D36*
X3289300Y6083300D02*
D03*
X3089300D02*
D03*
X3239300Y8283300D02*
D03*
X3039300D02*
D03*
D40*
X3189300Y6283300D02*
D03*
Y6483300D02*
D03*
Y6683300D02*
D03*
Y6883300D02*
D03*
Y7083300D02*
D03*
Y7283300D02*
D03*
Y7483300D02*
D03*
Y7683300D02*
D03*
Y7883300D02*
D03*
Y8083300D02*
D03*
D56*
X11850700Y7476900D02*
D03*
X11965000Y5610000D02*
D03*
X3290900Y3095400D02*
D03*
D57*
X10756900Y4257028D02*
D03*
Y4807028D02*
D03*
X11849100Y4257028D02*
D03*
Y4807028D02*
D03*
X8572500Y4257028D02*
D03*
Y4807028D02*
D03*
X9664700Y4257028D02*
D03*
Y4807028D02*
D03*
X6400800Y4257028D02*
D03*
Y4807028D02*
D03*
X7493000Y4257028D02*
D03*
Y4807028D02*
D03*
X4267200Y4247900D02*
D03*
Y4797900D02*
D03*
X5359400Y4247900D02*
D03*
Y4797900D02*
D03*
D58*
X10756900Y3527028D02*
D03*
X11849100D02*
D03*
X8572500D02*
D03*
X9664700D02*
D03*
X6400800D02*
D03*
X7493000D02*
D03*
X4267200Y3517900D02*
D03*
X5359400D02*
D03*
D59*
X10388600Y8191500D02*
D03*
X5080000Y6108700D02*
D03*
X4876800Y6007100D02*
D03*
X4495800Y8610600D02*
D03*
X10045700Y7988300D02*
D03*
X9232900Y7810500D02*
D03*
X9486900Y7848600D02*
D03*
X10185400Y7747000D02*
D03*
X8407400Y7226300D02*
D03*
X6007100Y7340600D02*
D03*
X6616700D02*
D03*
X7226300D02*
D03*
X10642600Y8191500D02*
D03*
X9626600Y7518400D02*
D03*
X10731500Y7975600D02*
D03*
X8674100Y8369300D02*
D03*
X8026400Y7429500D02*
D03*
D60*
X3479800Y5029200D02*
D03*
X3302000D02*
D03*
X3124200D02*
D03*
Y4673600D02*
D03*
Y4851400D02*
D03*
X3302000D02*
D03*
Y4673600D02*
D03*
X3479800D02*
D03*
Y4851400D02*
D03*
X5626100Y7581900D02*
D03*
Y7759700D02*
D03*
Y7937500D02*
D03*
X5816600Y7759700D02*
D03*
Y7937500D02*
D03*
X5626100Y8293100D02*
D03*
Y8115300D02*
D03*
X5816600D02*
D03*
Y8293100D02*
D03*
Y7581900D02*
D03*
D61*
X4961947Y6650300D02*
D03*
Y5570300D02*
D03*
X3933247Y6650300D02*
D03*
Y5570300D02*
D03*
%TF.MD5,10b434c9b44873ac2e76d07aaf951bf8*%
M02*
