%TF.GenerationSoftware,Altium Limited,Altium Designer,23.2.1 (34)*%
G04 Layer_Color=32896*
%FSLAX45Y45*%
%MOMM*%
%TF.SameCoordinates,E9D2124A-86AF-48F7-823B-9A8D6BDBC947*%
%TF.FilePolarity,Positive*%
%TF.FileFunction,Legend,Bot*%
%TF.Part,Single*%
G01*
G75*
%TA.AperFunction,NonConductor*%
%ADD41C,0.25000*%
%ADD43C,0.20000*%
%ADD44C,0.25400*%
%ADD45C,0.07620*%
G36*
X3695699Y7384037D02*
X3501799D01*
Y8178801D01*
X3695699D01*
Y7384037D01*
D02*
G37*
G36*
X8523153Y7523938D02*
X8523289Y7523667D01*
X8521978Y7525114D01*
X8523153Y7523938D01*
D02*
G37*
G36*
X9539015Y7277027D02*
X9560179Y7273500D01*
X9581343Y7268797D01*
X9598980Y7264094D01*
X9614264Y7259391D01*
X9624846Y7254688D01*
X9629549Y7252336D01*
X9633077Y7251161D01*
X9634253Y7249985D01*
X9635428D01*
X9655416Y7239403D01*
X9671877Y7229997D01*
X9685986Y7221766D01*
X9697744Y7213536D01*
X9705974Y7207657D01*
X9713029Y7202954D01*
X9716556Y7199427D01*
X9717732Y7198251D01*
X9734193Y7181790D01*
X9747126Y7166505D01*
X9751829Y7160627D01*
X9755356Y7155923D01*
X9757708Y7153572D01*
X9758884Y7152396D01*
X9760059Y7159451D01*
X9761235Y7166505D01*
X9763587Y7172384D01*
X9764763Y7173560D01*
Y7174736D01*
X9768290Y7185318D01*
X9770641Y7193548D01*
X9771817Y7198251D01*
X9772993Y7199427D01*
X9775344Y7205306D01*
X9777696Y7210009D01*
X9778872Y7212360D01*
Y7213536D01*
X9780047Y7206481D01*
X9783575Y7198251D01*
X9787102Y7190021D01*
X9792981Y7180615D01*
X9807090Y7162978D01*
X9822375Y7145342D01*
X9837660Y7128881D01*
X9850593Y7115947D01*
X9855297Y7111244D01*
X9860000Y7107717D01*
X9862351Y7105366D01*
X9863527Y7104190D01*
X9867054D01*
X9869406Y7105366D01*
X9870581Y7106541D01*
X9871757Y7107717D01*
X9872933Y7113596D01*
Y7118299D01*
X9871757Y7123002D01*
Y7124178D01*
X9869406Y7132408D01*
X9867054Y7138287D01*
X9865878Y7142990D01*
Y7145342D01*
X9863527Y7153572D01*
X9861175Y7161802D01*
X9860000Y7166505D01*
X9858824Y7168857D01*
X9855297Y7177087D01*
X9852945Y7182966D01*
X9851769Y7185318D01*
Y7186493D01*
X9849418Y7190021D01*
X9848242Y7192372D01*
Y7194724D01*
X9864703Y7177087D01*
X9878812Y7160627D01*
X9891745Y7142990D01*
X9903503Y7126529D01*
X9912909Y7110069D01*
X9921139Y7093608D01*
X9928194Y7078323D01*
X9934073Y7064214D01*
X9938776Y7050105D01*
X9942303Y7038347D01*
X9945831Y7027765D01*
X9947006Y7018359D01*
X9949358Y7011304D01*
Y7005425D01*
X9950534Y7001898D01*
Y7000722D01*
Y6993668D01*
Y6986613D01*
Y6981910D01*
Y6980734D01*
X9974049Y6966625D01*
X9984631Y6960746D01*
X9994037Y6953692D01*
X10002267Y6948989D01*
X10008146Y6944286D01*
X10011673Y6941934D01*
X10012849Y6940758D01*
X10035189Y6971328D01*
X10056353Y6999547D01*
X10077516Y7025413D01*
X10096329Y7047753D01*
X10112789Y7065389D01*
X10118668Y7072444D01*
X10124547Y7078323D01*
X10129250Y7083026D01*
X10132777Y7087729D01*
X10135129Y7088905D01*
X10136305Y7090081D01*
X10159820Y7112420D01*
X10182159Y7132408D01*
X10200972Y7148869D01*
X10217432Y7162978D01*
X10231542Y7173560D01*
X10242124Y7180615D01*
X10248002Y7185318D01*
X10250354Y7186493D01*
X10267990Y7198251D01*
X10285627Y7208833D01*
X10303263Y7218239D01*
X10317373Y7226470D01*
X10330306Y7233524D01*
X10340888Y7238227D01*
X10346767Y7240579D01*
X10347942Y7241755D01*
X10349118D01*
X10365579Y7248809D01*
X10379688Y7254688D01*
X10391446Y7259391D01*
X10400852Y7262918D01*
X10406731Y7265270D01*
X10411434Y7266446D01*
X10413785Y7267621D01*
X10414961D01*
X10425543Y7269973D01*
X10433773Y7272325D01*
X10438476Y7273500D01*
X10440828D01*
X10432598Y7264094D01*
X10424367Y7254688D01*
X10411434Y7232349D01*
X10400852Y7207657D01*
X10393797Y7184142D01*
X10387919Y7162978D01*
X10385567Y7153572D01*
X10384391Y7145342D01*
X10383215Y7138287D01*
X10382040Y7133584D01*
Y7130057D01*
Y7128881D01*
X10377337Y7092432D01*
X10373809Y7055984D01*
X10371458Y7023062D01*
X10369106Y6992492D01*
X10367930Y6979559D01*
X10366755Y6966625D01*
X10365579Y6956043D01*
Y6947813D01*
X10364403Y6939583D01*
Y6934880D01*
Y6931352D01*
Y6930177D01*
X10363227Y6912540D01*
X10360876Y6896079D01*
X10359700Y6880794D01*
X10356173Y6866685D01*
X10353821Y6854928D01*
X10351470Y6843170D01*
X10349118Y6833764D01*
X10345591Y6825533D01*
X10340888Y6811424D01*
X10336185Y6800842D01*
X10332658Y6796139D01*
X10331482Y6793788D01*
X10325603Y6786733D01*
X10322076Y6779679D01*
X10319724Y6773800D01*
X10318548Y6772624D01*
Y6771448D01*
X10349118Y6783206D01*
X10363227Y6786733D01*
X10376161Y6790260D01*
X10386743Y6792612D01*
X10394973Y6794964D01*
X10400852Y6796139D01*
X10403203D01*
X10386743Y6780854D01*
X10372634Y6765569D01*
X10358524Y6750284D01*
X10347942Y6736175D01*
X10338536Y6724418D01*
X10331482Y6715011D01*
X10326779Y6709133D01*
X10325603Y6706781D01*
X10345591D01*
X10364403Y6704430D01*
X10382040Y6703254D01*
X10397325Y6700902D01*
X10411434Y6698551D01*
X10420840Y6697375D01*
X10427895Y6695023D01*
X10430246D01*
X10418488Y6686793D01*
X10407907Y6677387D01*
X10389094Y6658575D01*
X10376161Y6638587D01*
X10365579Y6620950D01*
X10358524Y6604489D01*
X10353821Y6591556D01*
X10352646Y6586853D01*
Y6583326D01*
X10351470Y6580974D01*
Y6579798D01*
Y6577447D01*
Y6575095D01*
X10357349Y6577447D01*
X10365579Y6578623D01*
X10374985Y6577447D01*
X10384391Y6575095D01*
X10392622Y6572744D01*
X10400852Y6570392D01*
X10405555Y6569216D01*
X10407907Y6568041D01*
X10396149Y6570392D01*
X10386743Y6569216D01*
X10378512Y6566865D01*
X10373809Y6564513D01*
X10371458Y6563338D01*
X10363227Y6557459D01*
X10357349Y6551580D01*
X10354997Y6545701D01*
X10353821Y6544525D01*
Y6543350D01*
X10365579Y6511604D01*
X10378512Y6479858D01*
X10390270Y6451640D01*
X10402028Y6425773D01*
X10406731Y6415191D01*
X10411434Y6404609D01*
X10414961Y6396379D01*
X10418488Y6388149D01*
X10422016Y6382270D01*
X10423191Y6377567D01*
X10425543Y6375215D01*
Y6374039D01*
X10442004Y6341118D01*
X10456113Y6309372D01*
X10469046Y6278802D01*
X10480804Y6250584D01*
X10485507Y6238826D01*
X10489034Y6227069D01*
X10493737Y6217662D01*
X10496089Y6209432D01*
X10498441Y6202377D01*
X10500792Y6197674D01*
X10501968Y6194147D01*
Y6192971D01*
X10510198Y6170632D01*
X10516077Y6152995D01*
X10524307Y6135359D01*
X10527835Y6128304D01*
X10530186Y6122425D01*
X10531362Y6117722D01*
X10532538Y6116547D01*
X10538417Y6105965D01*
X10543120Y6095383D01*
X10547823Y6087152D01*
X10551350Y6080098D01*
X10554877Y6074219D01*
X10557229Y6069516D01*
X10559580Y6067164D01*
Y6065989D01*
X10568986Y6054231D01*
X10579568Y6042473D01*
X10584271Y6036594D01*
X10587799Y6031891D01*
X10590150Y6029540D01*
X10591326Y6028364D01*
X10605435Y6010728D01*
X10616017Y5997794D01*
X10619544Y5991915D01*
X10623072Y5988388D01*
X10624247Y5986037D01*
X10625424Y5984861D01*
X10634830Y5970752D01*
X10640708Y5958994D01*
X10643060Y5953115D01*
X10645412Y5949588D01*
X10646587Y5947236D01*
Y5946060D01*
X10606611Y5981333D01*
X10594853Y5991915D01*
X10585447Y5997794D01*
X10579568Y6001322D01*
X10574865Y6003673D01*
X10572514D01*
X10570162Y6002497D01*
Y6001322D01*
X10571338Y5996618D01*
X10572514Y5993091D01*
X10573690Y5988388D01*
X10574865Y5987212D01*
X10579569Y5980158D01*
X10583096Y5971927D01*
X10587799Y5964873D01*
X10588975Y5963697D01*
Y5962521D01*
X10594854Y5951939D01*
X10599557Y5943709D01*
X10603084Y5939006D01*
X10604260Y5936654D01*
X10613666Y5916666D01*
X10619545Y5897854D01*
X10624248Y5879042D01*
X10627775Y5862581D01*
X10630127Y5848472D01*
X10631302Y5836714D01*
Y5829660D01*
Y5828484D01*
Y5827308D01*
Y5822605D01*
Y5821429D01*
Y5820254D01*
X10624248Y5832011D01*
X10616017Y5841417D01*
X10611314Y5847296D01*
X10608963Y5849648D01*
X10601908Y5857878D01*
X10596029Y5862581D01*
X10591326Y5864933D01*
X10587799Y5866108D01*
X10586623Y5864933D01*
X10585447Y5863757D01*
X10584272Y5862581D01*
Y5861405D01*
Y5854351D01*
Y5844945D01*
Y5822605D01*
Y5813199D01*
Y5804969D01*
Y5799090D01*
Y5796738D01*
X10585447Y5777926D01*
Y5760289D01*
Y5745005D01*
X10586623Y5732071D01*
Y5720313D01*
Y5712083D01*
Y5707380D01*
Y5705028D01*
X10587799Y5689744D01*
X10590151Y5676810D01*
X10591326Y5665052D01*
X10593678Y5654471D01*
X10594854Y5643889D01*
X10597205Y5635658D01*
X10600732Y5621549D01*
X10604260Y5612143D01*
X10606611Y5605088D01*
X10607787Y5601561D01*
X10608963Y5600385D01*
X10584272Y5622725D01*
X10579569Y5587452D01*
X10574866Y5553355D01*
X10567811Y5522785D01*
X10560756Y5493391D01*
X10551350Y5466348D01*
X10543120Y5441657D01*
X10533714Y5419317D01*
X10524308Y5399329D01*
X10516077Y5381693D01*
X10506671Y5365232D01*
X10499617Y5352299D01*
X10492562Y5341717D01*
X10486683Y5332311D01*
X10481980Y5326432D01*
X10479629Y5322905D01*
X10478453Y5321729D01*
X10460816Y5302916D01*
X10443180Y5285280D01*
X10424368Y5268819D01*
X10405555Y5254710D01*
X10386743Y5241777D01*
X10369107Y5230019D01*
X10350294Y5220613D01*
X10332658Y5211207D01*
X10316197Y5204152D01*
X10302088Y5198273D01*
X10287979Y5192394D01*
X10276221Y5188867D01*
X10266815Y5185340D01*
X10259760Y5182988D01*
X10255057Y5181813D01*
X10253881Y5181812D01*
X10224487Y5175934D01*
X10195093Y5172406D01*
X10166875Y5170055D01*
X10109262D01*
X10082220Y5171230D01*
X10056353Y5173582D01*
X10032837Y5175934D01*
X10010498Y5179461D01*
X9989334Y5182988D01*
X9971698Y5185340D01*
X9956413Y5188867D01*
X9943479Y5191218D01*
X9935249Y5193570D01*
X9929370Y5195922D01*
X9927018D01*
X9895273Y5205328D01*
X9865879Y5215910D01*
X9838836Y5226491D01*
X9812969Y5237073D01*
X9789454Y5247655D01*
X9768290Y5259413D01*
X9748302Y5269995D01*
X9730666Y5280577D01*
X9715381Y5289983D01*
X9702447Y5299389D01*
X9690690Y5307619D01*
X9681283Y5314674D01*
X9674229Y5320553D01*
X9669526Y5325256D01*
X9665998Y5327607D01*
X9664823Y5328783D01*
X9634253Y5355826D01*
X9604859Y5381693D01*
X9576640Y5404032D01*
X9550773Y5425196D01*
X9540191Y5433426D01*
X9529610Y5441657D01*
X9520203Y5448711D01*
X9513149Y5454590D01*
X9506094Y5459293D01*
X9501391Y5462820D01*
X9499040Y5463996D01*
X9497864Y5465172D01*
X9479052Y5474578D01*
X9462591Y5482808D01*
X9455536Y5485160D01*
X9450833Y5487512D01*
X9447306Y5489863D01*
X9446130D01*
X9434373Y5494566D01*
X9422615Y5498093D01*
X9417912Y5500445D01*
X9414385Y5501621D01*
X9412033Y5502796D01*
X9410857D01*
X9376760Y5514554D01*
X9342663Y5523960D01*
X9310917Y5532191D01*
X9281523Y5538069D01*
X9253305Y5543948D01*
X9227438Y5547476D01*
X9202747Y5551003D01*
X9180407Y5553354D01*
X9160419Y5554530D01*
X9103982D01*
X9096928Y5553354D01*
X9091049D01*
X9118091Y5556882D01*
X9143958Y5560409D01*
X9167474Y5561585D01*
X9189813Y5563936D01*
X9207450Y5565112D01*
X9215680D01*
X9221559Y5566288D01*
X9316796D01*
X9302687Y5573342D01*
X9288578Y5579221D01*
X9282699Y5580397D01*
X9277996Y5582749D01*
X9275644Y5583924D01*
X9274468D01*
X9249777Y5590979D01*
X9222735Y5598034D01*
X9196868Y5601561D01*
X9169825Y5605088D01*
X9118091Y5608615D01*
X9093400Y5609791D01*
X9069885Y5608615D01*
X9047546D01*
X9027558Y5607440D01*
X9009921Y5605088D01*
X8993460Y5603912D01*
X8981703Y5602737D01*
X8972297Y5601561D01*
X8966418Y5600385D01*
X8964066D01*
X8993460Y5619197D01*
X9022854Y5635658D01*
X9051073Y5649767D01*
X9075764Y5662701D01*
X9086346Y5668579D01*
X9096928Y5673283D01*
X9105158Y5677986D01*
X9113388Y5681513D01*
X9119267Y5683864D01*
X9123970Y5686216D01*
X9126322Y5687392D01*
X9127498D01*
X9156892Y5697974D01*
X9188637Y5707380D01*
X9219207Y5715610D01*
X9249777Y5722665D01*
X9310917Y5733247D01*
X9339135Y5737950D01*
X9367354Y5740301D01*
X9392045Y5742653D01*
X9415560Y5745004D01*
X9436724Y5746180D01*
X9454361Y5747356D01*
X9488458D01*
X9507270Y5748532D01*
X9524907Y5749707D01*
X9541367Y5753235D01*
X9555476Y5756762D01*
X9568410Y5761465D01*
X9580168Y5766168D01*
X9590749Y5772047D01*
X9598980Y5777926D01*
X9607210Y5782629D01*
X9613089Y5788508D01*
X9622495Y5797914D01*
X9628374Y5804968D01*
X9629550Y5806144D01*
Y5807320D01*
X9620144Y5800265D01*
X9610737Y5795562D01*
X9601331Y5790859D01*
X9591925Y5787332D01*
X9573113Y5783805D01*
X9554301D01*
X9539016Y5784980D01*
X9526082Y5787332D01*
X9521379Y5788508D01*
X9517852D01*
X9516676Y5789683D01*
X9522555D01*
X9530785Y5792035D01*
X9539016Y5796738D01*
X9548422Y5802617D01*
X9557828Y5808496D01*
X9567234Y5816726D01*
X9586046Y5834362D01*
X9602507Y5850823D01*
X9616616Y5866108D01*
X9622495Y5871987D01*
X9626022Y5877866D01*
X9628374Y5880217D01*
X9629550Y5881393D01*
X9622495Y5876690D01*
X9616616Y5874339D01*
X9611913Y5871987D01*
X9610737D01*
X9595452Y5866108D01*
X9583695Y5861405D01*
X9577816Y5860229D01*
X9574289Y5859054D01*
X9570761D01*
X9576640Y5862581D01*
X9583695Y5867284D01*
X9594277Y5877866D01*
X9597804Y5883745D01*
X9601331Y5888448D01*
X9602507Y5891975D01*
X9603683Y5893151D01*
X9613089Y5915490D01*
X9615441Y5926072D01*
X9617792Y5935478D01*
X9620144Y5943709D01*
X9621319Y5950763D01*
X9622495Y5955466D01*
Y5956642D01*
Y5963697D01*
Y5970751D01*
Y5975454D01*
Y5976630D01*
X9621319Y5996618D01*
X9620143Y6006024D01*
X9618968Y6014255D01*
X9617792Y6021309D01*
X9616616Y6026012D01*
X9615440Y6029540D01*
Y6030715D01*
X9596628Y6074219D01*
X9576640Y6115371D01*
X9556652Y6152995D01*
X9547246Y6170632D01*
X9537840Y6187092D01*
X9529609Y6201201D01*
X9521379Y6214135D01*
X9514324Y6225893D01*
X9507270Y6235299D01*
X9502567Y6243529D01*
X9499039Y6249408D01*
X9496688Y6252935D01*
X9495512Y6254111D01*
X9470821Y6256462D01*
X9448481Y6262341D01*
X9426142Y6269396D01*
X9404978Y6279978D01*
X9384990Y6290560D01*
X9366178Y6303493D01*
X9348541Y6316427D01*
X9333256Y6329360D01*
X9319147Y6343469D01*
X9306214Y6356403D01*
X9295632Y6368160D01*
X9286226Y6378742D01*
X9279171Y6388148D01*
X9274468Y6395203D01*
X9270941Y6399906D01*
X9269765Y6401082D01*
X9259183Y6418718D01*
X9247425Y6434003D01*
X9238019Y6448112D01*
X9228613Y6461046D01*
X9221559Y6471628D01*
X9214504Y6478682D01*
X9210977Y6484561D01*
X9209801Y6485737D01*
X9205098Y6481034D01*
X9201571Y6478682D01*
X9199219Y6476331D01*
X9198043D01*
X9185110Y6463397D01*
X9172176Y6451640D01*
X9160419Y6442233D01*
X9148661Y6432827D01*
X9139255Y6425773D01*
X9132200Y6421070D01*
X9126322Y6417542D01*
X9125146Y6416367D01*
X9101631Y6404609D01*
X9078115Y6394027D01*
X9056951Y6385797D01*
X9036963Y6378742D01*
X9020503Y6372863D01*
X9007569Y6369336D01*
X9002866Y6368160D01*
X8999339D01*
X8996987Y6366984D01*
X8995812D01*
X9008745Y6376391D01*
X9020503Y6385797D01*
X9029909Y6396379D01*
X9036963Y6405785D01*
X9044018Y6415191D01*
X9047545Y6422245D01*
X9049897Y6426949D01*
X9051073Y6428124D01*
X9054600Y6441058D01*
X9056951Y6452815D01*
X9058127Y6456343D01*
Y6459870D01*
Y6462222D01*
Y6463397D01*
X9035788Y6456343D01*
X9015800Y6446937D01*
X8998163Y6437530D01*
X8984054Y6426949D01*
X8972296Y6416367D01*
X8964066Y6408136D01*
X8958187Y6403433D01*
X8957011Y6401082D01*
X8945254Y6384621D01*
X8937023Y6366984D01*
X8929969Y6350524D01*
X8926441Y6335239D01*
X8924090Y6322305D01*
X8921738Y6311723D01*
Y6304669D01*
Y6303493D01*
Y6302317D01*
Y6294087D01*
Y6290560D01*
Y6289384D01*
X8912332Y6323481D01*
X8905278Y6355227D01*
X8899399Y6386972D01*
X8895871Y6415191D01*
X8894696Y6426949D01*
X8893520Y6438706D01*
Y6448112D01*
X8892344Y6456343D01*
Y6463397D01*
Y6468100D01*
Y6471628D01*
Y6472803D01*
Y6496319D01*
X8894696Y6518658D01*
X8897047Y6538646D01*
X8899399Y6557459D01*
X8901750Y6572744D01*
X8904102Y6584501D01*
X8905278Y6589204D01*
Y6592732D01*
X8906453Y6593907D01*
Y6595083D01*
X8911156Y6615071D01*
X8917035Y6635059D01*
X8922914Y6652696D01*
X8928793Y6669156D01*
X8933496Y6683266D01*
X8938199Y6692672D01*
X8940551Y6699726D01*
X8941726Y6702078D01*
X8942902Y6703254D01*
X8944078Y6704429D01*
Y6705605D01*
Y6706781D01*
X8947605Y6712660D01*
X8948781Y6715011D01*
X8937023Y6746757D01*
X8932320Y6758515D01*
X8928793Y6772624D01*
X8925266Y6786733D01*
X8921738Y6800842D01*
X8919387Y6813776D01*
X8918211Y6823182D01*
X8917035Y6830236D01*
Y6831412D01*
Y6832588D01*
X8912332Y6876091D01*
Y6896079D01*
X8911156Y6914891D01*
Y6931352D01*
X8912332Y6944286D01*
Y6948989D01*
Y6952516D01*
Y6953692D01*
Y6954867D01*
X8914684Y6980734D01*
X8918211Y7005425D01*
X8924090Y7031292D01*
X8931144Y7053632D01*
X8937023Y7073620D01*
X8939375Y7081850D01*
X8942902Y7088905D01*
X8944078Y7094784D01*
X8946429Y7099487D01*
X8947605Y7101838D01*
Y7103014D01*
X8960539Y7133584D01*
X8975824Y7162978D01*
X8991109Y7188845D01*
X9006393Y7212360D01*
X9019327Y7232348D01*
X9025206Y7239403D01*
X9029909Y7246457D01*
X9034612Y7252336D01*
X9038139Y7255864D01*
X9039315Y7258215D01*
X9040491Y7259391D01*
X9093400Y7255864D01*
X9143958Y7251161D01*
X9168649Y7247633D01*
X9190989Y7245282D01*
X9213328Y7242930D01*
X9233316Y7239403D01*
X9252129Y7237051D01*
X9268589Y7234700D01*
X9282698Y7232348D01*
X9295632Y7229997D01*
X9305038Y7228821D01*
X9313268Y7227645D01*
X9317971Y7226469D01*
X9319147D01*
X9336784Y7221766D01*
X9366178Y7215888D01*
X9394396Y7210009D01*
X9421439Y7202954D01*
X9444954Y7197075D01*
X9464942Y7192372D01*
X9473173Y7190021D01*
X9480227Y7187669D01*
X9486106Y7186493D01*
X9489633Y7185318D01*
X9491985Y7184142D01*
X9493161D01*
X9509621Y7178263D01*
X9524906Y7173560D01*
X9539015Y7167681D01*
X9550773Y7164154D01*
X9561355Y7160627D01*
X9568410Y7157099D01*
X9574288Y7155923D01*
X9575464Y7154748D01*
X9590749Y7148869D01*
X9603683Y7144166D01*
X9609561Y7141814D01*
X9614264Y7140639D01*
X9616616Y7139463D01*
X9617792D01*
X9621319Y7142990D01*
X9622495Y7147693D01*
X9624846Y7151220D01*
Y7152396D01*
X9623671Y7161802D01*
X9620143Y7170033D01*
X9615440Y7179439D01*
X9609561Y7188845D01*
X9604858Y7195900D01*
X9600155Y7201778D01*
X9596628Y7206481D01*
X9595452Y7207657D01*
X9584870Y7219415D01*
X9575464Y7229997D01*
X9567234Y7237051D01*
X9560179Y7244106D01*
X9554300Y7248809D01*
X9550773Y7252336D01*
X9548422Y7254688D01*
X9547246D01*
X9534312Y7264094D01*
X9523731Y7272324D01*
X9517852Y7277027D01*
X9515500Y7278203D01*
X9539015Y7277027D01*
D02*
G37*
G36*
X8556075Y7487489D02*
X8590172Y7449865D01*
X8626621Y7414592D01*
X8663070Y7381670D01*
X8699519Y7348749D01*
X8735967Y7319355D01*
X8771240Y7291136D01*
X8804162Y7266445D01*
X8835907Y7242930D01*
X8865302Y7221766D01*
X8891168Y7204130D01*
X8913508Y7190021D01*
X8932320Y7177087D01*
X8939375Y7172384D01*
X8945254Y7168857D01*
X8949957Y7165330D01*
X8953484Y7164154D01*
X8955836Y7161802D01*
X8957011D01*
X8947605Y7141814D01*
X8942902Y7132408D01*
X8939375Y7124178D01*
X8935848Y7118299D01*
X8933496Y7112420D01*
X8931144Y7108893D01*
Y7107717D01*
X8894696Y7135935D01*
X8859423Y7167681D01*
X8822974Y7200603D01*
X8786525Y7234700D01*
X8751252Y7268797D01*
X8718331Y7304070D01*
X8685409Y7338167D01*
X8654839Y7371088D01*
X8626621Y7402834D01*
X8600754Y7431052D01*
X8578414Y7458095D01*
X8559602Y7480435D01*
X8543141Y7499247D01*
X8537263Y7506301D01*
X8531384Y7513356D01*
X8527856Y7518059D01*
X8524329Y7521586D01*
X8523289Y7523667D01*
X8556075Y7487489D01*
D02*
G37*
G36*
X10206851Y7174736D02*
X10204499Y7168857D01*
X10159820Y7126529D01*
X10142183Y7111244D01*
X10124547Y7095959D01*
X10109262Y7080674D01*
X10093977Y7065389D01*
X10082219Y7052456D01*
X10072813Y7043050D01*
X10066934Y7035995D01*
X10064583Y7034820D01*
Y7033644D01*
X10048122Y7014832D01*
X10035189Y6999547D01*
X10026958Y6985437D01*
X10019904Y6974855D01*
X10016376Y6966625D01*
X10014025Y6960746D01*
X10012849Y6957219D01*
Y6956043D01*
X9961115Y6987789D01*
Y6994844D01*
Y6999547D01*
Y7000722D01*
X9959940Y7016007D01*
X9956412Y7028941D01*
X9955237Y7034820D01*
X9954061Y7039523D01*
X9952885Y7041874D01*
Y7043050D01*
Y7047753D01*
X9955237Y7054808D01*
X9959940Y7061862D01*
X9964643Y7070093D01*
X9970522Y7077147D01*
X9976400Y7083026D01*
X9979928Y7087729D01*
X9981103Y7088905D01*
X9994037Y7103014D01*
X10009322Y7118299D01*
X10025783Y7133584D01*
X10041068Y7147693D01*
X10055177Y7159451D01*
X10066934Y7170033D01*
X10071637Y7173560D01*
X10075165Y7175911D01*
X10076341Y7178263D01*
X10077516D01*
X10102207Y7198251D01*
X10126898Y7217063D01*
X10150414Y7234700D01*
X10172753Y7249985D01*
X10191566Y7262918D01*
X10198620Y7268797D01*
X10205675Y7273500D01*
X10211554Y7277027D01*
X10215081Y7279379D01*
X10217432Y7281730D01*
X10218608D01*
X10206851Y7174736D01*
D02*
G37*
G36*
X10425543Y6615071D02*
X10458464Y6592732D01*
X10491386Y6570392D01*
X10521956Y6548053D01*
X10551350Y6526889D01*
X10578393Y6504549D01*
X10604259Y6483386D01*
X10627775Y6462222D01*
X10648939Y6443410D01*
X10667751Y6425773D01*
X10684212Y6410488D01*
X10697145Y6396379D01*
X10708903Y6385797D01*
X10715957Y6377567D01*
X10721836Y6372864D01*
X10723012Y6370512D01*
X10750054Y6339942D01*
X10775921Y6308196D01*
X10801788Y6274099D01*
X10827655Y6240002D01*
X10852346Y6205905D01*
X10875861Y6171808D01*
X10898201Y6138886D01*
X10919365Y6107140D01*
X10939353Y6076571D01*
X10956989Y6049528D01*
X10972274Y6024837D01*
X10985208Y6003673D01*
X10995790Y5986037D01*
X10999317Y5978982D01*
X11002844Y5971927D01*
X11006372Y5967224D01*
X11008723Y5963697D01*
X11009899Y5962521D01*
Y5961345D01*
X11042820Y5903733D01*
X11075742Y5848472D01*
X11106312Y5794387D01*
X11136882Y5742653D01*
X11166276Y5692095D01*
X11195670Y5643889D01*
X11222713Y5598034D01*
X11249755Y5553355D01*
X11274446Y5511027D01*
X11299137Y5471051D01*
X11322653Y5432251D01*
X11344992Y5394626D01*
X11367332Y5360529D01*
X11387320Y5327608D01*
X11407308Y5295862D01*
X11424944Y5266468D01*
X11442581Y5239425D01*
X11459042Y5213558D01*
X11474327Y5188867D01*
X11488436Y5167703D01*
X11501369Y5146540D01*
X11513127Y5127727D01*
X11523709Y5111267D01*
X11533115Y5097157D01*
X11542521Y5083048D01*
X11549576Y5072466D01*
X11556630Y5063060D01*
X11561333Y5054830D01*
X11564861Y5048951D01*
X11568388Y5044248D01*
X11569025Y5042974D01*
X11570739Y5040721D01*
X11569564Y5041896D01*
X11569025Y5042974D01*
X11529588Y5094806D01*
X11511951Y5117145D01*
X11490787Y5141837D01*
X11469623Y5166528D01*
X11448460Y5188867D01*
X11429647Y5210031D01*
X11420241Y5218261D01*
X11413187Y5226492D01*
X11407308Y5232371D01*
X11402605Y5237074D01*
X11400253Y5239425D01*
X11399078Y5240601D01*
X11364980Y5273522D01*
X11330883Y5307620D01*
X11296786Y5338189D01*
X11266216Y5367584D01*
X11252107Y5380517D01*
X11239173Y5391099D01*
X11227416Y5401681D01*
X11218010Y5411087D01*
X11209779Y5418142D01*
X11203900Y5422845D01*
X11200373Y5426372D01*
X11199197Y5427548D01*
X11154518Y5463996D01*
X11108663Y5499269D01*
X11062808Y5532191D01*
X11041645Y5547476D01*
X11020481Y5561585D01*
X11000493Y5574518D01*
X10982856Y5586276D01*
X10966396Y5595682D01*
X10953462Y5605088D01*
X10941705Y5612143D01*
X10933474Y5616846D01*
X10928771Y5620373D01*
X10926420Y5621549D01*
X10866456Y5655646D01*
X10807667Y5686216D01*
X10779449Y5700325D01*
X10752406Y5712083D01*
X10726539Y5723841D01*
X10703024Y5734423D01*
X10680685Y5743829D01*
X10660696Y5752059D01*
X10643060Y5757938D01*
X10627775Y5763817D01*
X10616017Y5768520D01*
X10606611Y5772047D01*
X10601908Y5773223D01*
X10599557Y5774399D01*
Y5782629D01*
Y5786156D01*
Y5787332D01*
Y5792035D01*
Y5796738D01*
Y5799090D01*
Y5800266D01*
Y5816726D01*
Y5828484D01*
Y5833187D01*
Y5836714D01*
Y5837890D01*
Y5839066D01*
X10608963Y5827308D01*
X10614842Y5819078D01*
X10618369Y5813199D01*
X10619545Y5812023D01*
X10621896Y5808496D01*
X10626599Y5806144D01*
X10630127Y5804969D01*
X10634830D01*
X10641884Y5809672D01*
X10645412Y5814375D01*
X10646587Y5819078D01*
Y5820254D01*
Y5827308D01*
Y5828484D01*
Y5829660D01*
X10645412Y5847296D01*
X10644236Y5862581D01*
X10640708Y5877866D01*
X10637181Y5890799D01*
X10634830Y5901381D01*
X10631302Y5909612D01*
X10630127Y5914315D01*
X10628951Y5916666D01*
X10675981Y5906084D01*
X10721836Y5895503D01*
X10764164Y5883745D01*
X10782976Y5876690D01*
X10800613Y5871987D01*
X10818249Y5866108D01*
X10832358Y5861405D01*
X10846468Y5856702D01*
X10857049Y5853175D01*
X10866456Y5849648D01*
X10872334Y5847296D01*
X10877037Y5844945D01*
X10878213D01*
X10848819Y5897854D01*
X10817073Y5949588D01*
X10782976Y5998970D01*
X10747703Y6047176D01*
X10711254Y6093031D01*
X10674805Y6136535D01*
X10639532Y6176511D01*
X10604259Y6214135D01*
X10571338Y6248232D01*
X10541944Y6278802D01*
X10513725Y6305845D01*
X10490210Y6328184D01*
X10479628Y6337591D01*
X10470222Y6345821D01*
X10461992Y6352876D01*
X10456113Y6358754D01*
X10450234Y6363457D01*
X10446707Y6366985D01*
X10444355Y6368160D01*
X10443180Y6369336D01*
X10442004Y6372864D01*
Y6374039D01*
X10440828Y6376391D01*
X10439652Y6379918D01*
X10438476Y6381094D01*
X10424367Y6410488D01*
X10411434Y6439882D01*
X10400852Y6468101D01*
X10390270Y6492792D01*
X10385567Y6503374D01*
X10382040Y6512780D01*
X10378512Y6522186D01*
X10376161Y6529240D01*
X10373809Y6535119D01*
X10371458Y6539822D01*
X10370282Y6542174D01*
Y6543350D01*
Y6546877D01*
Y6548053D01*
X10377337Y6550404D01*
X10384391Y6552756D01*
X10407907D01*
X10413785Y6553932D01*
X10418488Y6558635D01*
X10420840Y6562162D01*
Y6563338D01*
X10423191Y6566865D01*
Y6568041D01*
X10422016Y6573920D01*
X10417313Y6579798D01*
X10413785Y6582150D01*
X10412610Y6583326D01*
X10396149Y6589204D01*
X10382040Y6592732D01*
X10376161Y6593908D01*
X10371458Y6595083D01*
X10367930D01*
X10374985Y6610368D01*
X10382040Y6623302D01*
X10385567Y6628005D01*
X10387919Y6631532D01*
X10389094Y6633884D01*
X10390270Y6635059D01*
X10425543Y6615071D01*
D02*
G37*
G36*
X9607210Y5968400D02*
Y5963697D01*
Y5960169D01*
Y5958994D01*
X9602507Y5937830D01*
X9600156Y5928424D01*
X9596628Y5920193D01*
X9594277Y5913139D01*
X9593101Y5908436D01*
X9590749Y5904908D01*
Y5903733D01*
X9586046Y5895502D01*
X9581343Y5888448D01*
X9577816Y5883745D01*
X9574289Y5880217D01*
X9569586Y5875514D01*
X9568410Y5874339D01*
X9562531D01*
X9559004Y5873163D01*
X9555476Y5871987D01*
X9551949Y5867284D01*
X9550773Y5861405D01*
Y5860229D01*
Y5859054D01*
X9551949Y5854350D01*
X9553125Y5850823D01*
X9554301Y5848472D01*
X9555476Y5847296D01*
X9486106Y5837890D01*
X9415560Y5827308D01*
X9347366Y5815550D01*
X9279171Y5802617D01*
X9212153Y5788508D01*
X9148661Y5774398D01*
X9088697Y5759113D01*
X9031085Y5745004D01*
X9004042Y5737950D01*
X8979351Y5730895D01*
X8954660Y5725016D01*
X8931145Y5717962D01*
X8909981Y5712083D01*
X8888817Y5706204D01*
X8871181Y5700325D01*
X8853544Y5695622D01*
X8838259Y5690919D01*
X8824150Y5687392D01*
X8812392Y5682689D01*
X8802986Y5680337D01*
X8795932Y5677985D01*
X8790053Y5675634D01*
X8786525Y5674458D01*
X8785350D01*
X8710101Y5648591D01*
X8636027Y5621549D01*
X8561954Y5592154D01*
X8490232Y5561585D01*
X8420862Y5531015D01*
X8353844Y5500445D01*
X8290352Y5471051D01*
X8231564Y5441656D01*
X8203346Y5427547D01*
X8176303Y5413438D01*
X8151612Y5400505D01*
X8126921Y5388747D01*
X8104581Y5376989D01*
X8084593Y5365232D01*
X8064605Y5354650D01*
X8046969Y5345244D01*
X8031684Y5337013D01*
X8017575Y5328783D01*
X8005817Y5322904D01*
X7996411Y5317025D01*
X7988180Y5312322D01*
X7982302Y5308795D01*
X7979689Y5307924D01*
X8062254Y5366407D01*
X8078714Y5378165D01*
X8096351Y5389923D01*
X8133975Y5414614D01*
X8173951Y5439305D01*
X8212752Y5462820D01*
X8231564Y5473402D01*
X8248025Y5482808D01*
X8263310Y5492214D01*
X8277419Y5499269D01*
X8288001Y5506324D01*
X8296231Y5511027D01*
X8300934Y5513378D01*
X8303286Y5514554D01*
X8364425Y5548651D01*
X8425565Y5580397D01*
X8454959Y5596857D01*
X8484354Y5610967D01*
X8512572Y5626252D01*
X8539615Y5639185D01*
X8564306Y5652118D01*
X8586645Y5662700D01*
X8606633Y5672107D01*
X8623094Y5681513D01*
X8637203Y5687391D01*
X8647785Y5692095D01*
X8653664Y5695622D01*
X8656015Y5696798D01*
X8692464Y5714434D01*
X8731264Y5730895D01*
X8808865Y5762641D01*
X8846490Y5777926D01*
X8884114Y5792035D01*
X8920563Y5804968D01*
X8954660Y5817902D01*
X8986406Y5828484D01*
X9015800Y5839066D01*
X9041667Y5847296D01*
X9064006Y5854350D01*
X9082819Y5860229D01*
X9089873Y5862581D01*
X9095752Y5864932D01*
X9100455Y5866108D01*
X9103982Y5867284D01*
X9106334Y5868460D01*
X9107510D01*
X9155716Y5882569D01*
X9202747Y5895502D01*
X9248602Y5908436D01*
X9293281Y5919018D01*
X9336784Y5928424D01*
X9377936Y5936654D01*
X9416736Y5944884D01*
X9453185Y5951939D01*
X9487282Y5956642D01*
X9516676Y5961345D01*
X9542543Y5966048D01*
X9564883Y5969576D01*
X9582519Y5971927D01*
X9590749D01*
X9596628Y5973103D01*
X9601331D01*
X9604859Y5974279D01*
X9607210D01*
Y5968400D01*
D02*
G37*
G36*
X7977598Y5306443D02*
X7978774Y5307619D01*
X7979689Y5307924D01*
X7977598Y5306443D01*
D02*
G37*
G36*
X4006278Y6921500D02*
X3502914D01*
Y7353300D01*
X4006278D01*
Y6921500D01*
D02*
G37*
G36*
X3490649Y8647372D02*
X3492971Y8647021D01*
X3495152Y8646598D01*
X3497192Y8646036D01*
X3499162Y8645332D01*
X3500991Y8644558D01*
X3502610Y8643784D01*
X3504158Y8642940D01*
X3505494Y8642095D01*
X3506690Y8641251D01*
X3507746Y8640477D01*
X3508590Y8639774D01*
X3509223Y8639211D01*
X3509716Y8638789D01*
X3510068Y8638437D01*
X3510138Y8638367D01*
X3511686Y8636608D01*
X3513023Y8634778D01*
X3514148Y8632808D01*
X3515204Y8630838D01*
X3516048Y8628868D01*
X3516752Y8626898D01*
X3517315Y8624928D01*
X3517737Y8623099D01*
X3518159Y8621340D01*
X3518370Y8619722D01*
X3518581Y8618244D01*
X3518722Y8616978D01*
X3518792Y8615922D01*
Y8615500D01*
X3518862Y8615148D01*
Y8614867D01*
Y8614656D01*
Y8614586D01*
Y8614515D01*
X3518792Y8611912D01*
X3518511Y8609449D01*
X3518088Y8607057D01*
X3517596Y8604876D01*
X3516963Y8602836D01*
X3516259Y8600936D01*
X3515485Y8599177D01*
X3514711Y8597629D01*
X3513937Y8596222D01*
X3513163Y8594956D01*
X3512460Y8593900D01*
X3511827Y8593056D01*
X3511334Y8592352D01*
X3510912Y8591860D01*
X3510631Y8591508D01*
X3510560Y8591438D01*
X3508942Y8589890D01*
X3507253Y8588553D01*
X3505565Y8587427D01*
X3503806Y8586372D01*
X3502117Y8585528D01*
X3500429Y8584824D01*
X3498740Y8584261D01*
X3497192Y8583839D01*
X3495715Y8583417D01*
X3494378Y8583206D01*
X3493111Y8582995D01*
X3492126Y8582854D01*
X3491282Y8582784D01*
X3490649Y8582713D01*
X3490086D01*
X3488749Y8582784D01*
X3487412Y8582854D01*
X3484950Y8583276D01*
X3482628Y8583839D01*
X3481643Y8584120D01*
X3480658Y8584472D01*
X3479743Y8584824D01*
X3478969Y8585106D01*
X3478336Y8585387D01*
X3477703Y8585668D01*
X3477281Y8585879D01*
X3476929Y8586091D01*
X3476718Y8586161D01*
X3476648Y8586231D01*
X3474396Y8587638D01*
X3472496Y8589186D01*
X3471582Y8589960D01*
X3470808Y8590734D01*
X3470034Y8591438D01*
X3469401Y8592212D01*
X3468768Y8592845D01*
X3468275Y8593478D01*
X3467853Y8594041D01*
X3467431Y8594533D01*
X3467149Y8594956D01*
X3466938Y8595237D01*
X3466868Y8595448D01*
X3466797Y8595518D01*
Y8594956D01*
Y8594463D01*
Y8594041D01*
Y8593689D01*
Y8593478D01*
Y8593267D01*
Y8593197D01*
Y8593126D01*
X3466868Y8590382D01*
X3467079Y8587709D01*
X3467360Y8585246D01*
X3467571Y8584050D01*
X3467712Y8582995D01*
X3467853Y8582010D01*
X3468064Y8581165D01*
X3468205Y8580392D01*
X3468345Y8579758D01*
X3468486Y8579195D01*
X3468556Y8578844D01*
X3468627Y8578562D01*
Y8578492D01*
X3468979Y8577225D01*
X3469330Y8575959D01*
X3469682Y8574833D01*
X3470034Y8573708D01*
X3470456Y8572723D01*
X3470808Y8571808D01*
X3471160Y8570964D01*
X3471511Y8570190D01*
X3471793Y8569486D01*
X3472145Y8568853D01*
X3472356Y8568360D01*
X3472637Y8567938D01*
X3472778Y8567586D01*
X3472919Y8567375D01*
X3473059Y8567235D01*
Y8567164D01*
X3474115Y8565687D01*
X3475240Y8564350D01*
X3476366Y8563154D01*
X3477422Y8562239D01*
X3478336Y8561465D01*
X3479110Y8560902D01*
X3479392Y8560691D01*
X3479603Y8560551D01*
X3479743Y8560410D01*
X3479814D01*
X3481432Y8559566D01*
X3483050Y8559003D01*
X3484739Y8558581D01*
X3486216Y8558229D01*
X3487553Y8558088D01*
X3488116Y8558018D01*
X3488608D01*
X3488960Y8557947D01*
X3489523D01*
X3490719Y8558018D01*
X3491845Y8558088D01*
X3493885Y8558510D01*
X3495644Y8559073D01*
X3496489Y8559425D01*
X3497192Y8559777D01*
X3497825Y8560058D01*
X3498459Y8560410D01*
X3498951Y8560691D01*
X3499303Y8560973D01*
X3499655Y8561184D01*
X3499866Y8561395D01*
X3500006Y8561465D01*
X3500077Y8561536D01*
X3500851Y8562239D01*
X3501484Y8563083D01*
X3502680Y8564913D01*
X3503665Y8566883D01*
X3504439Y8568853D01*
X3504720Y8569697D01*
X3505002Y8570612D01*
X3505213Y8571386D01*
X3505354Y8572019D01*
X3505494Y8572582D01*
X3505565Y8573004D01*
X3505635Y8573285D01*
Y8573356D01*
X3517103Y8572300D01*
X3516752Y8570190D01*
X3516330Y8568220D01*
X3515767Y8566390D01*
X3515133Y8564631D01*
X3514500Y8563013D01*
X3513726Y8561606D01*
X3513023Y8560269D01*
X3512249Y8559073D01*
X3511545Y8557947D01*
X3510842Y8557033D01*
X3510138Y8556259D01*
X3509575Y8555626D01*
X3509153Y8555063D01*
X3508731Y8554711D01*
X3508520Y8554500D01*
X3508449Y8554429D01*
X3507042Y8553304D01*
X3505565Y8552319D01*
X3504017Y8551474D01*
X3502469Y8550771D01*
X3500921Y8550138D01*
X3499373Y8549645D01*
X3497825Y8549223D01*
X3496348Y8548871D01*
X3495011Y8548660D01*
X3493745Y8548449D01*
X3492619Y8548308D01*
X3491634Y8548168D01*
X3490860D01*
X3490227Y8548097D01*
X3489734D01*
X3487764Y8548168D01*
X3485865Y8548379D01*
X3484035Y8548660D01*
X3482276Y8549012D01*
X3480588Y8549434D01*
X3479110Y8549927D01*
X3477633Y8550419D01*
X3476366Y8550982D01*
X3475170Y8551545D01*
X3474115Y8552037D01*
X3473200Y8552530D01*
X3472426Y8552952D01*
X3471793Y8553304D01*
X3471371Y8553655D01*
X3471089Y8553796D01*
X3471019Y8553867D01*
X3469541Y8554992D01*
X3468205Y8556259D01*
X3466938Y8557596D01*
X3465742Y8558932D01*
X3464687Y8560339D01*
X3463631Y8561747D01*
X3462787Y8563083D01*
X3461943Y8564420D01*
X3461239Y8565687D01*
X3460606Y8566883D01*
X3460113Y8567938D01*
X3459691Y8568853D01*
X3459340Y8569627D01*
X3459128Y8570190D01*
X3458988Y8570541D01*
X3458917Y8570682D01*
X3458214Y8572863D01*
X3457581Y8575115D01*
X3457018Y8577507D01*
X3456525Y8579969D01*
X3456173Y8582432D01*
X3455822Y8584965D01*
X3455540Y8587357D01*
X3455329Y8589679D01*
X3455188Y8591860D01*
X3455048Y8593900D01*
X3454977Y8595730D01*
X3454907Y8596504D01*
Y8597277D01*
Y8597981D01*
X3454837Y8598614D01*
Y8599107D01*
Y8599529D01*
Y8599881D01*
Y8600162D01*
Y8600303D01*
Y8600373D01*
X3454907Y8603610D01*
X3455048Y8606705D01*
X3455188Y8609520D01*
X3455470Y8612193D01*
X3455822Y8614656D01*
X3456173Y8616837D01*
X3456525Y8618877D01*
X3456877Y8620707D01*
X3457299Y8622325D01*
X3457651Y8623732D01*
X3458003Y8624928D01*
X3458355Y8625913D01*
X3458636Y8626687D01*
X3458777Y8627250D01*
X3458917Y8627531D01*
X3458988Y8627672D01*
X3459762Y8629431D01*
X3460676Y8631049D01*
X3461591Y8632527D01*
X3462576Y8633934D01*
X3463561Y8635271D01*
X3464546Y8636467D01*
X3465531Y8637593D01*
X3466516Y8638578D01*
X3467431Y8639422D01*
X3468205Y8640196D01*
X3468979Y8640829D01*
X3469682Y8641392D01*
X3470175Y8641744D01*
X3470597Y8642095D01*
X3470878Y8642236D01*
X3470949Y8642307D01*
X3472426Y8643221D01*
X3473904Y8643995D01*
X3475452Y8644699D01*
X3476929Y8645262D01*
X3478407Y8645754D01*
X3479884Y8646176D01*
X3481221Y8646528D01*
X3482558Y8646809D01*
X3483754Y8647021D01*
X3484809Y8647161D01*
X3485794Y8647302D01*
X3486638Y8647372D01*
X3487342Y8647443D01*
X3488257D01*
X3490649Y8647372D01*
D02*
G37*
G36*
X3547920Y8579969D02*
Y8578422D01*
X3547991Y8577014D01*
X3548061Y8575748D01*
X3548131Y8574552D01*
X3548202Y8573426D01*
X3548342Y8572441D01*
X3548483Y8571526D01*
X3548553Y8570752D01*
X3548694Y8570049D01*
X3548835Y8569416D01*
X3548976Y8568923D01*
X3549046Y8568501D01*
X3549116Y8568220D01*
X3549187Y8568009D01*
X3549257Y8567868D01*
Y8567797D01*
X3549820Y8566461D01*
X3550594Y8565265D01*
X3551368Y8564209D01*
X3552212Y8563365D01*
X3552916Y8562661D01*
X3553549Y8562169D01*
X3553971Y8561887D01*
X3554041Y8561747D01*
X3554112D01*
X3555449Y8561043D01*
X3556926Y8560480D01*
X3558333Y8560128D01*
X3559600Y8559847D01*
X3560725Y8559706D01*
X3561218Y8559636D01*
X3561640D01*
X3561992Y8559566D01*
X3562484D01*
X3563680Y8559636D01*
X3564806Y8559777D01*
X3565862Y8559917D01*
X3566917Y8560199D01*
X3567832Y8560480D01*
X3568676Y8560832D01*
X3569450Y8561254D01*
X3570153Y8561606D01*
X3570787Y8561958D01*
X3571279Y8562380D01*
X3571772Y8562732D01*
X3572123Y8563013D01*
X3572405Y8563295D01*
X3572686Y8563506D01*
X3572757Y8563576D01*
X3572827Y8563646D01*
X3573460Y8564491D01*
X3574093Y8565476D01*
X3574586Y8566601D01*
X3575078Y8567727D01*
X3575782Y8570260D01*
X3576275Y8572793D01*
X3576486Y8574059D01*
X3576626Y8575185D01*
X3576767Y8576170D01*
X3576837Y8577085D01*
X3576908Y8577859D01*
X3576978Y8578422D01*
Y8578773D01*
Y8578914D01*
X3588587Y8577296D01*
Y8574693D01*
X3588376Y8572230D01*
X3588095Y8569908D01*
X3587673Y8567797D01*
X3587180Y8565827D01*
X3586688Y8563998D01*
X3586054Y8562380D01*
X3585421Y8560902D01*
X3584858Y8559636D01*
X3584225Y8558510D01*
X3583662Y8557596D01*
X3583170Y8556822D01*
X3582747Y8556188D01*
X3582396Y8555766D01*
X3582185Y8555485D01*
X3582114Y8555414D01*
X3580777Y8554148D01*
X3579300Y8553022D01*
X3577752Y8552037D01*
X3576134Y8551193D01*
X3574516Y8550489D01*
X3572897Y8549856D01*
X3571279Y8549434D01*
X3569731Y8549012D01*
X3568254Y8548730D01*
X3566847Y8548519D01*
X3565580Y8548308D01*
X3564525Y8548238D01*
X3563610Y8548168D01*
X3562977Y8548097D01*
X3562414D01*
X3560796Y8548168D01*
X3559318Y8548238D01*
X3557841Y8548449D01*
X3556434Y8548660D01*
X3555167Y8548942D01*
X3553901Y8549223D01*
X3552775Y8549504D01*
X3551720Y8549856D01*
X3550735Y8550208D01*
X3549890Y8550489D01*
X3549187Y8550771D01*
X3548553Y8551052D01*
X3548061Y8551263D01*
X3547709Y8551474D01*
X3547498Y8551545D01*
X3547428Y8551615D01*
X3546232Y8552319D01*
X3545176Y8553093D01*
X3544191Y8553867D01*
X3543277Y8554711D01*
X3542432Y8555555D01*
X3541658Y8556399D01*
X3540955Y8557244D01*
X3540322Y8558018D01*
X3539829Y8558792D01*
X3539337Y8559495D01*
X3538914Y8560128D01*
X3538633Y8560691D01*
X3538352Y8561184D01*
X3538211Y8561536D01*
X3538070Y8561747D01*
Y8561817D01*
X3537507Y8563154D01*
X3537085Y8564561D01*
X3536663Y8566038D01*
X3536311Y8567586D01*
X3535748Y8570752D01*
X3535608Y8572300D01*
X3535397Y8573778D01*
X3535326Y8575185D01*
X3535185Y8576522D01*
X3535115Y8577718D01*
Y8578703D01*
X3535045Y8579547D01*
Y8580180D01*
Y8580603D01*
Y8580743D01*
Y8647091D01*
X3547920D01*
Y8579969D01*
D02*
G37*
G36*
X4428481Y6166853D02*
X4427433Y6143111D01*
X4428045Y6143470D01*
X4428659Y6143864D01*
X4429203Y6144261D01*
X4429710Y6144624D01*
X4430111Y6144957D01*
X4430439Y6145224D01*
X4430657Y6145389D01*
X4430730Y6145456D01*
X4431094Y6145756D01*
X4431497Y6146159D01*
X4431938Y6146596D01*
X4432451Y6147099D01*
X4432966Y6147638D01*
X4433516Y6148175D01*
X4434584Y6149321D01*
X4435099Y6149860D01*
X4435578Y6150365D01*
X4436018Y6150802D01*
X4436388Y6151241D01*
X4436719Y6151578D01*
X4436940Y6151813D01*
X4437123Y6151981D01*
X4437161Y6152049D01*
X4438192Y6153162D01*
X4439186Y6154205D01*
X4440104Y6155147D01*
X4440950Y6156022D01*
X4441757Y6156829D01*
X4442490Y6157533D01*
X4443152Y6158206D01*
X4443738Y6158776D01*
X4444287Y6159278D01*
X4444760Y6159678D01*
X4445163Y6160047D01*
X4445492Y6160348D01*
X4445748Y6160582D01*
X4445929Y6160714D01*
X4446039Y6160815D01*
X4446075Y6160848D01*
X4446692Y6161312D01*
X4447274Y6161778D01*
X4447853Y6162173D01*
X4448395Y6162535D01*
X4449442Y6163191D01*
X4449909Y6163451D01*
X4450340Y6163678D01*
X4450736Y6163906D01*
X4451094Y6164065D01*
X4451417Y6164226D01*
X4451667Y6164321D01*
X4451882Y6164416D01*
X4452025Y6164480D01*
X4452133Y6164546D01*
X4452168Y6164544D01*
X4453235Y6164883D01*
X4454265Y6165153D01*
X4455255Y6165320D01*
X4456136Y6165422D01*
X4456523Y6165440D01*
X4456875Y6165459D01*
X4457156Y6165482D01*
X4457438Y6165504D01*
X4457648Y6165495D01*
X4457788Y6165489D01*
X4457893Y6165484D01*
X4457928Y6165483D01*
X4458977Y6165401D01*
X4459987Y6165217D01*
X4460923Y6164965D01*
X4461822Y6164679D01*
X4462649Y6164327D01*
X4463439Y6163941D01*
X4464157Y6163524D01*
X4464807Y6163144D01*
X4465386Y6162733D01*
X4465894Y6162324D01*
X4466333Y6161954D01*
X4466670Y6161623D01*
X4466974Y6161364D01*
X4467175Y6161145D01*
X4467309Y6160999D01*
X4467342Y6160962D01*
X4468007Y6160126D01*
X4468565Y6159259D01*
X4469017Y6158362D01*
X4469432Y6157431D01*
X4469777Y6156504D01*
X4470050Y6155544D01*
X4470257Y6154658D01*
X4470428Y6153774D01*
X4470568Y6152960D01*
X4470639Y6152185D01*
X4470715Y6151515D01*
X4470723Y6150919D01*
X4470737Y6150427D01*
X4470756Y6150075D01*
X4470742Y6149760D01*
X4470652Y6148501D01*
X4470494Y6147315D01*
X4470269Y6146202D01*
X4469978Y6145162D01*
X4469655Y6144194D01*
X4469299Y6143298D01*
X4468949Y6142506D01*
X4468599Y6141749D01*
X4468220Y6141100D01*
X4467878Y6140518D01*
X4467541Y6140042D01*
X4467243Y6139634D01*
X4467019Y6139328D01*
X4466798Y6139092D01*
X4466687Y6138957D01*
X4466650Y6138923D01*
X4465917Y6138219D01*
X4465119Y6137623D01*
X4464287Y6137063D01*
X4463425Y6136610D01*
X4462530Y6136193D01*
X4461637Y6135847D01*
X4460783Y6135569D01*
X4459930Y6135326D01*
X4459151Y6135150D01*
X4458407Y6135007D01*
X4457736Y6134896D01*
X4457171Y6134816D01*
X4456711Y6134731D01*
X4456359Y6134711D01*
X4456219Y6134717D01*
X4456113Y6134687D01*
X4456078Y6134689D01*
X4456043Y6134690D01*
X4455683Y6140846D01*
X4456525Y6140844D01*
X4457298Y6140880D01*
X4458040Y6140988D01*
X4458746Y6141097D01*
X4459386Y6141279D01*
X4459956Y6141464D01*
X4460527Y6141685D01*
X4460993Y6141910D01*
X4461422Y6142102D01*
X4461818Y6142330D01*
X4462143Y6142526D01*
X4462432Y6142724D01*
X4462613Y6142856D01*
X4462795Y6142988D01*
X4462868Y6143055D01*
X4462904Y6143089D01*
X4463381Y6143559D01*
X4463791Y6144102D01*
X4464166Y6144647D01*
X4464506Y6145193D01*
X4464777Y6145778D01*
X4465012Y6146329D01*
X4465212Y6146881D01*
X4465375Y6147400D01*
X4465504Y6147921D01*
X4465594Y6148373D01*
X4465682Y6148790D01*
X4465734Y6149174D01*
X4465782Y6149453D01*
X4465800Y6149873D01*
X4465798Y6150610D01*
X4465759Y6151313D01*
X4465683Y6151983D01*
X4465536Y6152621D01*
X4465385Y6153189D01*
X4465200Y6153759D01*
X4465011Y6154258D01*
X4464786Y6154724D01*
X4464593Y6155119D01*
X4464364Y6155480D01*
X4464167Y6155804D01*
X4464003Y6156057D01*
X4463837Y6156275D01*
X4463739Y6156419D01*
X4463672Y6156493D01*
X4463638Y6156529D01*
X4463203Y6157005D01*
X4462730Y6157411D01*
X4462255Y6157783D01*
X4461742Y6158086D01*
X4461263Y6158353D01*
X4460782Y6158585D01*
X4460299Y6158782D01*
X4459850Y6158942D01*
X4459435Y6159066D01*
X4459052Y6159153D01*
X4458705Y6159238D01*
X4458392Y6159287D01*
X4458148Y6159333D01*
X4457973Y6159341D01*
X4457833Y6159347D01*
X4457798Y6159348D01*
X4457166Y6159341D01*
X4456533Y6159299D01*
X4455896Y6159187D01*
X4455258Y6159039D01*
X4454012Y6158638D01*
X4453440Y6158383D01*
X4452903Y6158161D01*
X4452403Y6157938D01*
X4451935Y6157678D01*
X4451541Y6157485D01*
X4451181Y6157290D01*
X4450927Y6157091D01*
X4450710Y6156960D01*
X4450567Y6156896D01*
X4450531Y6156862D01*
X4449770Y6156334D01*
X4448934Y6155670D01*
X4448096Y6154970D01*
X4447219Y6154167D01*
X4446306Y6153365D01*
X4445425Y6152491D01*
X4444546Y6151653D01*
X4443701Y6150778D01*
X4442893Y6149972D01*
X4442157Y6149197D01*
X4441461Y6148526D01*
X4440907Y6147884D01*
X4440428Y6147379D01*
X4440244Y6147177D01*
X4440061Y6147009D01*
X4439950Y6146874D01*
X4439840Y6146773D01*
X4439802Y6146705D01*
X4439765Y6146671D01*
X4438955Y6145795D01*
X4438181Y6144952D01*
X4437445Y6144177D01*
X4436746Y6143437D01*
X4436049Y6142765D01*
X4435426Y6142161D01*
X4434841Y6141626D01*
X4434293Y6141124D01*
X4433816Y6140654D01*
X4433378Y6140287D01*
X4433013Y6139952D01*
X4432685Y6139686D01*
X4432431Y6139487D01*
X4432250Y6139354D01*
X4432140Y6139254D01*
X4432103Y6139221D01*
X4430871Y6138328D01*
X4429680Y6137573D01*
X4428565Y6136956D01*
X4428061Y6136662D01*
X4427560Y6136439D01*
X4427130Y6136247D01*
X4426736Y6136054D01*
X4426378Y6135895D01*
X4426058Y6135803D01*
X4425808Y6135709D01*
X4425630Y6135647D01*
X4425522Y6135581D01*
X4425487Y6135583D01*
X4424741Y6135370D01*
X4423998Y6135228D01*
X4423293Y6135154D01*
X4422694Y6135110D01*
X4422132Y6135099D01*
X4421921Y6135074D01*
X4421711Y6135083D01*
X4421571Y6135089D01*
X4421466Y6135094D01*
X4421396Y6135097D01*
X4421360Y6135098D01*
X4422773Y6167105D01*
X4428481Y6166853D01*
D02*
G37*
G36*
X4431345Y6129991D02*
X4431450Y6129987D01*
X4431485Y6129985D01*
X4432568Y6129867D01*
X4433542Y6129684D01*
X4434372Y6129402D01*
X4434751Y6129245D01*
X4435096Y6129124D01*
X4435405Y6128970D01*
X4435679Y6128818D01*
X4435919Y6128702D01*
X4436123Y6128552D01*
X4436260Y6128476D01*
X4436362Y6128402D01*
X4436429Y6128328D01*
X4436464Y6128327D01*
X4437173Y6127699D01*
X4437776Y6127041D01*
X4438273Y6126387D01*
X4438701Y6125737D01*
X4439026Y6125161D01*
X4439155Y6124910D01*
X4439251Y6124695D01*
X4439348Y6124515D01*
X4439413Y6124372D01*
X4439444Y6124301D01*
X4439443Y6124266D01*
X4439630Y6123731D01*
X4439815Y6123161D01*
X4440031Y6122485D01*
X4440212Y6121811D01*
X4440637Y6120318D01*
X4440992Y6118829D01*
X4441173Y6118154D01*
X4441319Y6117481D01*
X4441467Y6116878D01*
X4441584Y6116347D01*
X4441671Y6115922D01*
X4441762Y6115602D01*
X4441788Y6115391D01*
X4441821Y6115354D01*
X4441820Y6115319D01*
X4441996Y6114539D01*
X4442173Y6113795D01*
X4442321Y6113157D01*
X4442436Y6112590D01*
X4442554Y6112094D01*
X4442676Y6111667D01*
X4442764Y6111277D01*
X4442820Y6110959D01*
X4442914Y6110709D01*
X4442940Y6110498D01*
X4443002Y6110320D01*
X4443031Y6110178D01*
X4443062Y6110071D01*
X4443093Y6110000D01*
X4443092Y6109965D01*
X4443312Y6109394D01*
X4443573Y6108926D01*
X4443799Y6108495D01*
X4444030Y6108169D01*
X4444264Y6107913D01*
X4444432Y6107730D01*
X4444532Y6107620D01*
X4444566Y6107584D01*
X4444905Y6107324D01*
X4445283Y6107131D01*
X4445628Y6107011D01*
X4445940Y6106927D01*
X4446217Y6106845D01*
X4446426Y6106800D01*
X4446601Y6106792D01*
X4446636Y6106791D01*
X4446952Y6106812D01*
X4447304Y6106832D01*
X4447909Y6107015D01*
X4448447Y6107272D01*
X4448916Y6107567D01*
X4449315Y6107866D01*
X4449607Y6108133D01*
X4449792Y6108336D01*
X4449863Y6108368D01*
X4449865Y6108403D01*
X4450125Y6108742D01*
X4450354Y6109153D01*
X4450548Y6109565D01*
X4450743Y6110013D01*
X4451031Y6110983D01*
X4451215Y6111957D01*
X4451305Y6112409D01*
X4451358Y6112828D01*
X4451410Y6113212D01*
X4451426Y6113562D01*
X4451473Y6113840D01*
X4451518Y6114856D01*
X4451474Y6115454D01*
X4451429Y6116017D01*
X4451347Y6116547D01*
X4451262Y6117007D01*
X4451142Y6117469D01*
X4451019Y6117860D01*
X4450896Y6118251D01*
X4450770Y6118573D01*
X4450642Y6118859D01*
X4450511Y6119075D01*
X4450416Y6119290D01*
X4450317Y6119435D01*
X4450253Y6119578D01*
X4450219Y6119615D01*
X4450186Y6119651D01*
X4449921Y6120014D01*
X4449620Y6120343D01*
X4448943Y6120899D01*
X4448260Y6121315D01*
X4447608Y6121660D01*
X4447022Y6121896D01*
X4446747Y6122013D01*
X4446538Y6122058D01*
X4446331Y6122137D01*
X4446191Y6122143D01*
X4446122Y6122181D01*
X4446087Y6122183D01*
X4447149Y6127960D01*
X4448364Y6127661D01*
X4448882Y6127463D01*
X4449399Y6127265D01*
X4449883Y6127103D01*
X4450331Y6126907D01*
X4450708Y6126715D01*
X4451086Y6126523D01*
X4451393Y6126334D01*
X4451702Y6126181D01*
X4451941Y6126029D01*
X4452110Y6125882D01*
X4452281Y6125769D01*
X4452383Y6125694D01*
X4452451Y6125656D01*
X4452484Y6125620D01*
X4452857Y6125323D01*
X4453192Y6124957D01*
X4453791Y6124229D01*
X4454318Y6123434D01*
X4454740Y6122678D01*
X4455060Y6121962D01*
X4455187Y6121676D01*
X4455317Y6121425D01*
X4455412Y6121210D01*
X4455440Y6121033D01*
X4455505Y6120925D01*
X4455504Y6120890D01*
X4455836Y6119682D01*
X4456096Y6118408D01*
X4456252Y6117173D01*
X4456295Y6116575D01*
X4456342Y6116046D01*
X4456354Y6115519D01*
X4456368Y6115028D01*
X4456384Y6114606D01*
X4456404Y6114254D01*
X4456373Y6113554D01*
X4456293Y6112540D01*
X4456181Y6111597D01*
X4456002Y6110728D01*
X4455863Y6109962D01*
X4455779Y6109650D01*
X4455695Y6109338D01*
X4455613Y6109061D01*
X4455534Y6108854D01*
X4455491Y6108681D01*
X4455450Y6108542D01*
X4455411Y6108474D01*
X4455410Y6108439D01*
X4455093Y6107611D01*
X4454778Y6106852D01*
X4454471Y6106234D01*
X4454167Y6105722D01*
X4453902Y6105277D01*
X4453713Y6104970D01*
X4453565Y6104801D01*
X4453527Y6104732D01*
X4452973Y6104090D01*
X4452388Y6103555D01*
X4451804Y6103054D01*
X4451260Y6102657D01*
X4450791Y6102362D01*
X4450430Y6102132D01*
X4450285Y6102034D01*
X4450177Y6101968D01*
X4450106Y6101936D01*
X4450071Y6101938D01*
X4449285Y6101622D01*
X4448538Y6101409D01*
X4447794Y6101231D01*
X4447124Y6101156D01*
X4446526Y6101112D01*
X4446279Y6101088D01*
X4446069Y6101097D01*
X4445927Y6101068D01*
X4445787Y6101074D01*
X4445717Y6101077D01*
X4445682Y6101079D01*
X4444740Y6101191D01*
X4443870Y6101369D01*
X4443074Y6101615D01*
X4442385Y6101891D01*
X4442074Y6102010D01*
X4441799Y6102127D01*
X4441558Y6102243D01*
X4441388Y6102356D01*
X4441217Y6102469D01*
X4441114Y6102508D01*
X4441047Y6102582D01*
X4441012Y6102583D01*
X4440265Y6103142D01*
X4439627Y6103802D01*
X4439095Y6104457D01*
X4438666Y6105073D01*
X4438305Y6105650D01*
X4438176Y6105901D01*
X4438045Y6106118D01*
X4437983Y6106296D01*
X4437919Y6106439D01*
X4437852Y6106512D01*
X4437854Y6106547D01*
X4437667Y6107082D01*
X4437448Y6107688D01*
X4437232Y6108364D01*
X4437018Y6109075D01*
X4436594Y6110602D01*
X4436205Y6112128D01*
X4436028Y6112873D01*
X4435882Y6113546D01*
X4435733Y6114149D01*
X4435618Y6114715D01*
X4435531Y6115140D01*
X4435442Y6115495D01*
X4435416Y6115707D01*
X4435383Y6115743D01*
X4435384Y6115778D01*
X4435213Y6116663D01*
X4435038Y6117478D01*
X4434859Y6118188D01*
X4434712Y6118826D01*
X4434561Y6119394D01*
X4434409Y6119927D01*
X4434288Y6120353D01*
X4434165Y6120744D01*
X4434037Y6121031D01*
X4433944Y6121315D01*
X4433849Y6121530D01*
X4433786Y6121708D01*
X4433721Y6121817D01*
X4433689Y6121888D01*
X4433657Y6121960D01*
X4433461Y6122284D01*
X4433228Y6122575D01*
X4432959Y6122833D01*
X4432723Y6123054D01*
X4432212Y6123392D01*
X4431731Y6123624D01*
X4431280Y6123749D01*
X4430898Y6123836D01*
X4430794Y6123875D01*
X4430689Y6123880D01*
X4430619Y6123883D01*
X4430584Y6123885D01*
X4430163Y6123868D01*
X4429776Y6123850D01*
X4429386Y6123762D01*
X4429029Y6123638D01*
X4428315Y6123354D01*
X4427740Y6123028D01*
X4427267Y6122663D01*
X4426903Y6122363D01*
X4426757Y6122229D01*
X4426647Y6122129D01*
X4426611Y6122095D01*
X4426574Y6122062D01*
X4426277Y6121689D01*
X4426012Y6121245D01*
X4425550Y6120318D01*
X4425225Y6119315D01*
X4424972Y6118343D01*
X4424880Y6117856D01*
X4424826Y6117438D01*
X4424739Y6117055D01*
X4424724Y6116705D01*
X4424676Y6116427D01*
X4424659Y6116041D01*
X4424662Y6115305D01*
X4424666Y6114603D01*
X4424742Y6113933D01*
X4424819Y6113298D01*
X4424934Y6112731D01*
X4425086Y6112198D01*
X4425240Y6111700D01*
X4425396Y6111272D01*
X4425519Y6110881D01*
X4425680Y6110558D01*
X4425843Y6110270D01*
X4425972Y6110019D01*
X4426070Y6109839D01*
X4426168Y6109694D01*
X4426200Y6109623D01*
X4426234Y6109586D01*
X4426602Y6109184D01*
X4426970Y6108782D01*
X4427377Y6108448D01*
X4427819Y6108148D01*
X4428708Y6107617D01*
X4429568Y6107229D01*
X4429947Y6107072D01*
X4430328Y6106949D01*
X4430673Y6106829D01*
X4430950Y6106746D01*
X4431194Y6106701D01*
X4431403Y6106657D01*
X4431506Y6106617D01*
X4431541Y6106615D01*
X4430371Y6100772D01*
X4429365Y6101027D01*
X4428432Y6101349D01*
X4427533Y6101670D01*
X4426743Y6102055D01*
X4425990Y6102474D01*
X4425305Y6102856D01*
X4424729Y6103302D01*
X4424185Y6103712D01*
X4423675Y6104085D01*
X4423271Y6104454D01*
X4422936Y6104820D01*
X4422633Y6105114D01*
X4422432Y6105333D01*
X4422266Y6105551D01*
X4422166Y6105661D01*
X4422133Y6105697D01*
X4421673Y6106419D01*
X4421252Y6107210D01*
X4420904Y6108067D01*
X4420626Y6108921D01*
X4420384Y6109809D01*
X4420213Y6110694D01*
X4420040Y6111544D01*
X4419937Y6112390D01*
X4419867Y6113201D01*
X4419795Y6113941D01*
X4419788Y6114572D01*
X4419744Y6115171D01*
X4419764Y6115626D01*
X4419745Y6115978D01*
X4419758Y6116293D01*
X4419895Y6117795D01*
X4420097Y6119190D01*
X4420265Y6119814D01*
X4420398Y6120440D01*
X4420562Y6120994D01*
X4420726Y6121513D01*
X4420851Y6121964D01*
X4421009Y6122378D01*
X4421166Y6122757D01*
X4421286Y6123067D01*
X4421366Y6123309D01*
X4421444Y6123481D01*
X4421519Y6123583D01*
X4421520Y6123618D01*
X4421827Y6124201D01*
X4422167Y6124748D01*
X4422505Y6125259D01*
X4422842Y6125735D01*
X4423212Y6126175D01*
X4423581Y6126580D01*
X4423913Y6126951D01*
X4424242Y6127252D01*
X4424571Y6127554D01*
X4424862Y6127786D01*
X4425118Y6128021D01*
X4425371Y6128185D01*
X4425552Y6128317D01*
X4425697Y6128416D01*
X4425768Y6128448D01*
X4425805Y6128482D01*
X4426309Y6128775D01*
X4426812Y6129033D01*
X4427346Y6129220D01*
X4427846Y6129409D01*
X4428805Y6129682D01*
X4429655Y6129855D01*
X4430043Y6129908D01*
X4430395Y6129928D01*
X4430713Y6129984D01*
X4430993Y6129972D01*
X4431205Y6129997D01*
X4431345Y6129991D01*
D02*
G37*
G36*
X4432530Y6089274D02*
X4433889Y6088267D01*
X4434498Y6087749D01*
X4435108Y6087266D01*
X4435648Y6086786D01*
X4436153Y6086307D01*
X4436625Y6085865D01*
X4437063Y6085460D01*
X4437468Y6085091D01*
X4437802Y6084726D01*
X4438070Y6084433D01*
X4438340Y6084176D01*
X4438505Y6083958D01*
X4438674Y6083810D01*
X4438740Y6083702D01*
X4438773Y6083666D01*
X4439204Y6083085D01*
X4439598Y6082471D01*
X4439990Y6081822D01*
X4440312Y6081177D01*
X4440603Y6080602D01*
X4440732Y6080351D01*
X4440828Y6080136D01*
X4440925Y6079957D01*
X4440954Y6079815D01*
X4441021Y6079742D01*
X4441019Y6079707D01*
X4441285Y6080958D01*
X4441583Y6082138D01*
X4441946Y6083210D01*
X4442306Y6084211D01*
X4442731Y6085105D01*
X4443120Y6085965D01*
X4443538Y6086683D01*
X4443954Y6087366D01*
X4444365Y6087945D01*
X4444737Y6088419D01*
X4445072Y6088861D01*
X4445368Y6089199D01*
X4445626Y6089468D01*
X4445810Y6089670D01*
X4445919Y6089771D01*
X4445956Y6089804D01*
X4446648Y6090370D01*
X4447406Y6090863D01*
X4448127Y6091287D01*
X4448879Y6091640D01*
X4449628Y6091923D01*
X4450376Y6092170D01*
X4451086Y6092350D01*
X4451759Y6092495D01*
X4452395Y6092608D01*
X4452960Y6092688D01*
X4453489Y6092735D01*
X4453912Y6092786D01*
X4454297Y6092769D01*
X4454579Y6092792D01*
X4454719Y6092786D01*
X4454789Y6092783D01*
X4455523Y6092715D01*
X4456257Y6092647D01*
X4456952Y6092512D01*
X4457612Y6092342D01*
X4458236Y6092174D01*
X4458823Y6091973D01*
X4459374Y6091738D01*
X4459892Y6091540D01*
X4460339Y6091344D01*
X4460750Y6091116D01*
X4461128Y6090924D01*
X4461437Y6090770D01*
X4461676Y6090619D01*
X4461848Y6090541D01*
X4461950Y6090466D01*
X4461983Y6090430D01*
X4462561Y6090018D01*
X4463103Y6089574D01*
X4463573Y6089097D01*
X4464045Y6088655D01*
X4464445Y6088181D01*
X4464810Y6087709D01*
X4465105Y6087240D01*
X4465402Y6086805D01*
X4465630Y6086409D01*
X4465823Y6086015D01*
X4466019Y6085690D01*
X4466147Y6085404D01*
X4466241Y6085154D01*
X4466303Y6084976D01*
X4466369Y6084868D01*
X4466367Y6084833D01*
X4466583Y6084157D01*
X4466761Y6083412D01*
X4466902Y6082634D01*
X4467008Y6081858D01*
X4467180Y6080201D01*
X4467215Y6079392D01*
X4467251Y6078619D01*
X4467287Y6077845D01*
X4467293Y6077179D01*
X4467300Y6076547D01*
X4467275Y6075986D01*
X4467292Y6075565D01*
X4466316Y6053468D01*
X4417851Y6055608D01*
X4418134Y6062016D01*
X4439670Y6061065D01*
X4440037Y6069365D01*
X4440034Y6070102D01*
X4440027Y6070733D01*
X4440013Y6071225D01*
X4439959Y6071578D01*
X4439936Y6071860D01*
X4439909Y6072037D01*
X4439910Y6072072D01*
X4439760Y6072640D01*
X4439608Y6073173D01*
X4439385Y6073674D01*
X4439193Y6074103D01*
X4439035Y6074496D01*
X4438872Y6074784D01*
X4438775Y6074964D01*
X4438743Y6075036D01*
X4438383Y6075613D01*
X4437917Y6076195D01*
X4437380Y6076745D01*
X4436878Y6077293D01*
X4436406Y6077735D01*
X4436002Y6078104D01*
X4435833Y6078252D01*
X4435732Y6078361D01*
X4435664Y6078399D01*
X4435630Y6078436D01*
X4435191Y6078806D01*
X4434717Y6079213D01*
X4433701Y6080030D01*
X4432614Y6080850D01*
X4431561Y6081633D01*
X4431085Y6081970D01*
X4430643Y6082305D01*
X4430235Y6082604D01*
X4429861Y6082866D01*
X4429589Y6083053D01*
X4429350Y6083204D01*
X4429214Y6083315D01*
X4429181Y6083352D01*
X4419379Y6090205D01*
X4419733Y6098225D01*
X4432530Y6089274D01*
D02*
G37*
G36*
X5498159Y6172532D02*
X5498096Y6166118D01*
X5476540Y6166329D01*
X5476459Y6158022D01*
X5476487Y6157285D01*
X5476516Y6156654D01*
X5476546Y6156163D01*
X5476613Y6155812D01*
X5476645Y6155531D01*
X5476678Y6155355D01*
X5476678Y6155320D01*
X5476848Y6154758D01*
X5477018Y6154231D01*
X5477258Y6153737D01*
X5477465Y6153315D01*
X5477636Y6152927D01*
X5477808Y6152645D01*
X5477912Y6152469D01*
X5477946Y6152399D01*
X5478326Y6151834D01*
X5478811Y6151268D01*
X5479367Y6150737D01*
X5479888Y6150206D01*
X5480374Y6149781D01*
X5480792Y6149426D01*
X5480965Y6149284D01*
X5481070Y6149178D01*
X5481139Y6149142D01*
X5481174Y6149107D01*
X5481626Y6148752D01*
X5482113Y6148362D01*
X5483157Y6147580D01*
X5484271Y6146798D01*
X5485351Y6146051D01*
X5485838Y6145731D01*
X5486291Y6145411D01*
X5486709Y6145127D01*
X5487092Y6144878D01*
X5487371Y6144700D01*
X5487615Y6144557D01*
X5487754Y6144450D01*
X5487788Y6144415D01*
X5497820Y6137902D01*
X5497742Y6129876D01*
X5484645Y6138382D01*
X5483252Y6139342D01*
X5482626Y6139839D01*
X5481999Y6140300D01*
X5481443Y6140762D01*
X5480922Y6141222D01*
X5480435Y6141648D01*
X5479983Y6142038D01*
X5479566Y6142392D01*
X5479219Y6142746D01*
X5478941Y6143030D01*
X5478663Y6143278D01*
X5478490Y6143490D01*
X5478316Y6143632D01*
X5478247Y6143737D01*
X5478213Y6143773D01*
X5477762Y6144338D01*
X5477347Y6144938D01*
X5476933Y6145573D01*
X5476589Y6146207D01*
X5476279Y6146771D01*
X5476141Y6147018D01*
X5476038Y6147229D01*
X5475934Y6147406D01*
X5475901Y6147546D01*
X5475831Y6147617D01*
X5475832Y6147652D01*
X5475609Y6146392D01*
X5475352Y6145203D01*
X5475026Y6144120D01*
X5474701Y6143106D01*
X5474306Y6142199D01*
X5473947Y6141326D01*
X5473554Y6140594D01*
X5473162Y6139896D01*
X5472770Y6139304D01*
X5472415Y6138817D01*
X5472095Y6138364D01*
X5471812Y6138016D01*
X5471563Y6137739D01*
X5471386Y6137530D01*
X5471280Y6137426D01*
X5471244Y6137391D01*
X5470573Y6136802D01*
X5469832Y6136283D01*
X5469126Y6135834D01*
X5468386Y6135456D01*
X5467647Y6135148D01*
X5466908Y6134875D01*
X5466205Y6134671D01*
X5465537Y6134502D01*
X5464905Y6134368D01*
X5464343Y6134269D01*
X5463817Y6134204D01*
X5463396Y6134138D01*
X5463010Y6134142D01*
X5462729Y6134109D01*
X5462589Y6134111D01*
X5462519Y6134111D01*
X5461783Y6134154D01*
X5461047Y6134196D01*
X5460348Y6134308D01*
X5459683Y6134455D01*
X5459054Y6134601D01*
X5458459Y6134782D01*
X5457901Y6134998D01*
X5457377Y6135178D01*
X5456923Y6135358D01*
X5456504Y6135572D01*
X5456120Y6135751D01*
X5455806Y6135895D01*
X5455562Y6136037D01*
X5455388Y6136109D01*
X5455283Y6136180D01*
X5455248Y6136216D01*
X5454656Y6136607D01*
X5454100Y6137033D01*
X5453613Y6137493D01*
X5453127Y6137919D01*
X5452711Y6138379D01*
X5452330Y6138838D01*
X5452019Y6139297D01*
X5451707Y6139721D01*
X5451466Y6140108D01*
X5451259Y6140496D01*
X5451052Y6140813D01*
X5450914Y6141095D01*
X5450812Y6141342D01*
X5450743Y6141518D01*
X5450674Y6141623D01*
X5450675Y6141659D01*
X5450436Y6142327D01*
X5450233Y6143065D01*
X5450065Y6143838D01*
X5449932Y6144610D01*
X5449703Y6146260D01*
X5449641Y6147067D01*
X5449578Y6147839D01*
X5449516Y6148611D01*
X5449487Y6149277D01*
X5449458Y6149908D01*
X5449464Y6150469D01*
X5449433Y6150890D01*
X5449649Y6173006D01*
X5498159Y6172532D01*
D02*
G37*
G36*
X5488212Y6126744D02*
X5489155Y6126454D01*
X5490064Y6126165D01*
X5490866Y6125807D01*
X5491634Y6125413D01*
X5492331Y6125056D01*
X5492923Y6124630D01*
X5493480Y6124239D01*
X5494002Y6123883D01*
X5494420Y6123529D01*
X5494767Y6123174D01*
X5495079Y6122891D01*
X5495287Y6122679D01*
X5495461Y6122467D01*
X5495565Y6122360D01*
X5495600Y6122325D01*
X5496083Y6121619D01*
X5496532Y6120844D01*
X5496909Y6119999D01*
X5497216Y6119154D01*
X5497488Y6118276D01*
X5497690Y6117397D01*
X5497892Y6116554D01*
X5498024Y6115711D01*
X5498121Y6114904D01*
X5498219Y6114167D01*
X5498248Y6113536D01*
X5498312Y6112939D01*
X5498308Y6112484D01*
X5498339Y6112133D01*
X5498336Y6111817D01*
X5498251Y6110311D01*
X5498097Y6108910D01*
X5497951Y6108281D01*
X5497840Y6107651D01*
X5497694Y6107091D01*
X5497549Y6106567D01*
X5497439Y6106112D01*
X5497295Y6105693D01*
X5497151Y6105309D01*
X5497043Y6104994D01*
X5496970Y6104750D01*
X5496898Y6104575D01*
X5496827Y6104471D01*
X5496827Y6104436D01*
X5496540Y6103843D01*
X5496220Y6103285D01*
X5495899Y6102762D01*
X5495579Y6102275D01*
X5495224Y6101822D01*
X5494869Y6101405D01*
X5494550Y6101023D01*
X5494231Y6100710D01*
X5493913Y6100398D01*
X5493630Y6100155D01*
X5493382Y6099912D01*
X5493135Y6099740D01*
X5492959Y6099601D01*
X5492817Y6099497D01*
X5492747Y6099463D01*
X5492711Y6099428D01*
X5492218Y6099118D01*
X5491724Y6098842D01*
X5491197Y6098637D01*
X5490704Y6098431D01*
X5489754Y6098125D01*
X5488911Y6097923D01*
X5488525Y6097857D01*
X5488174Y6097825D01*
X5487858Y6097758D01*
X5487577Y6097761D01*
X5487367Y6097728D01*
X5487227Y6097729D01*
X5487121Y6097730D01*
X5487086Y6097731D01*
X5486000Y6097811D01*
X5485020Y6097961D01*
X5484182Y6098215D01*
X5483797Y6098359D01*
X5483448Y6098467D01*
X5483134Y6098611D01*
X5482855Y6098754D01*
X5482611Y6098861D01*
X5482402Y6099003D01*
X5482262Y6099075D01*
X5482157Y6099146D01*
X5482088Y6099217D01*
X5482053Y6099217D01*
X5481323Y6099820D01*
X5480698Y6100457D01*
X5480179Y6101093D01*
X5479729Y6101729D01*
X5479384Y6102293D01*
X5479246Y6102539D01*
X5479143Y6102751D01*
X5479040Y6102927D01*
X5478971Y6103068D01*
X5478937Y6103138D01*
X5478937Y6103173D01*
X5478732Y6103701D01*
X5478527Y6104264D01*
X5478288Y6104933D01*
X5478084Y6105601D01*
X5477608Y6107077D01*
X5477202Y6108554D01*
X5476998Y6109222D01*
X5476829Y6109889D01*
X5476660Y6110487D01*
X5476525Y6111014D01*
X5476424Y6111436D01*
X5476322Y6111752D01*
X5476289Y6111963D01*
X5476254Y6111998D01*
X5476254Y6112033D01*
X5476052Y6112806D01*
X5475849Y6113545D01*
X5475679Y6114177D01*
X5475545Y6114739D01*
X5475409Y6115231D01*
X5475273Y6115654D01*
X5475172Y6116040D01*
X5475105Y6116356D01*
X5475002Y6116602D01*
X5474969Y6116813D01*
X5474901Y6116989D01*
X5474867Y6117130D01*
X5474833Y6117235D01*
X5474799Y6117306D01*
X5474799Y6117341D01*
X5474559Y6117904D01*
X5474283Y6118362D01*
X5474042Y6118785D01*
X5473800Y6119103D01*
X5473557Y6119351D01*
X5473383Y6119528D01*
X5473279Y6119634D01*
X5473244Y6119669D01*
X5472896Y6119918D01*
X5472513Y6120097D01*
X5472163Y6120206D01*
X5471848Y6120279D01*
X5471568Y6120352D01*
X5471359Y6120389D01*
X5471183Y6120391D01*
X5471148Y6120391D01*
X5470832Y6120359D01*
X5470482Y6120327D01*
X5469884Y6120123D01*
X5469355Y6119848D01*
X5468896Y6119537D01*
X5468508Y6119225D01*
X5468225Y6118947D01*
X5468047Y6118739D01*
X5467977Y6118704D01*
X5467977Y6118669D01*
X5467728Y6118321D01*
X5467513Y6117903D01*
X5467334Y6117484D01*
X5467154Y6117030D01*
X5466899Y6116051D01*
X5466750Y6115071D01*
X5466675Y6114616D01*
X5466636Y6114196D01*
X5466597Y6113810D01*
X5466594Y6113460D01*
X5466556Y6113180D01*
X5466546Y6112163D01*
X5466610Y6111567D01*
X5466675Y6111005D01*
X5466775Y6110479D01*
X5466875Y6110022D01*
X5467011Y6109565D01*
X5467148Y6109178D01*
X5467284Y6108791D01*
X5467421Y6108474D01*
X5467559Y6108192D01*
X5467697Y6107981D01*
X5467800Y6107769D01*
X5467903Y6107628D01*
X5467972Y6107487D01*
X5468007Y6107452D01*
X5468042Y6107417D01*
X5468319Y6107063D01*
X5468631Y6106745D01*
X5469327Y6106212D01*
X5470024Y6105820D01*
X5470687Y6105498D01*
X5471281Y6105282D01*
X5471560Y6105174D01*
X5471770Y6105137D01*
X5471980Y6105064D01*
X5472120Y6105063D01*
X5472190Y6105027D01*
X5472225Y6105027D01*
X5471362Y6099216D01*
X5470137Y6099474D01*
X5469613Y6099654D01*
X5469089Y6099835D01*
X5468600Y6099980D01*
X5468146Y6100159D01*
X5467762Y6100338D01*
X5467378Y6100517D01*
X5467065Y6100696D01*
X5466751Y6100839D01*
X5466506Y6100982D01*
X5466333Y6101123D01*
X5466158Y6101230D01*
X5466054Y6101301D01*
X5465984Y6101337D01*
X5465949Y6101373D01*
X5465567Y6101657D01*
X5465220Y6102011D01*
X5464596Y6102718D01*
X5464042Y6103495D01*
X5463594Y6104235D01*
X5463250Y6104940D01*
X5463113Y6105221D01*
X5462975Y6105468D01*
X5462872Y6105679D01*
X5462838Y6105855D01*
X5462769Y6105961D01*
X5462770Y6105996D01*
X5462396Y6107191D01*
X5462093Y6108456D01*
X5461895Y6109685D01*
X5461830Y6110282D01*
X5461765Y6110808D01*
X5461735Y6111334D01*
X5461705Y6111825D01*
X5461674Y6112246D01*
X5461643Y6112597D01*
X5461649Y6113298D01*
X5461694Y6114314D01*
X5461774Y6115260D01*
X5461923Y6116135D01*
X5462035Y6116905D01*
X5462108Y6117219D01*
X5462182Y6117534D01*
X5462255Y6117814D01*
X5462327Y6118024D01*
X5462363Y6118198D01*
X5462400Y6118338D01*
X5462436Y6118408D01*
X5462436Y6118443D01*
X5462724Y6119282D01*
X5463012Y6120050D01*
X5463299Y6120678D01*
X5463584Y6121201D01*
X5463834Y6121654D01*
X5464013Y6121968D01*
X5464155Y6122142D01*
X5464190Y6122212D01*
X5464723Y6122872D01*
X5465289Y6123428D01*
X5465855Y6123948D01*
X5466385Y6124364D01*
X5466844Y6124675D01*
X5467196Y6124917D01*
X5467338Y6125020D01*
X5467443Y6125089D01*
X5467514Y6125124D01*
X5467549Y6125123D01*
X5468324Y6125466D01*
X5469062Y6125705D01*
X5469800Y6125907D01*
X5470467Y6126006D01*
X5471063Y6126071D01*
X5471309Y6126103D01*
X5471520Y6126101D01*
X5471660Y6126135D01*
X5471800Y6126133D01*
X5471870Y6126133D01*
X5471905Y6126132D01*
X5472851Y6126053D01*
X5473726Y6125904D01*
X5474530Y6125686D01*
X5475229Y6125434D01*
X5475543Y6125326D01*
X5475822Y6125218D01*
X5476067Y6125110D01*
X5476241Y6125003D01*
X5476415Y6124897D01*
X5476520Y6124860D01*
X5476590Y6124790D01*
X5476625Y6124789D01*
X5477391Y6124256D01*
X5478050Y6123618D01*
X5478605Y6122982D01*
X5479055Y6122382D01*
X5479435Y6121817D01*
X5479573Y6121570D01*
X5479711Y6121359D01*
X5479779Y6121183D01*
X5479848Y6121042D01*
X5479917Y6120971D01*
X5479917Y6120936D01*
X5480122Y6120408D01*
X5480362Y6119810D01*
X5480600Y6119142D01*
X5480839Y6118438D01*
X5481315Y6116926D01*
X5481756Y6115415D01*
X5481959Y6114677D01*
X5482128Y6114009D01*
X5482297Y6113411D01*
X5482432Y6112849D01*
X5482533Y6112428D01*
X5482635Y6112076D01*
X5482667Y6111865D01*
X5482702Y6111830D01*
X5482702Y6111795D01*
X5482904Y6110917D01*
X5483106Y6110108D01*
X5483310Y6109405D01*
X5483478Y6108773D01*
X5483648Y6108210D01*
X5483819Y6107683D01*
X5483954Y6107261D01*
X5484091Y6106874D01*
X5484229Y6106592D01*
X5484331Y6106311D01*
X5484434Y6106099D01*
X5484502Y6105923D01*
X5484571Y6105818D01*
X5484606Y6105747D01*
X5484640Y6105677D01*
X5484847Y6105359D01*
X5485090Y6105076D01*
X5485368Y6104828D01*
X5485611Y6104615D01*
X5486134Y6104295D01*
X5486623Y6104080D01*
X5487077Y6103970D01*
X5487462Y6103896D01*
X5487567Y6103860D01*
X5487672Y6103859D01*
X5487742Y6103859D01*
X5487777Y6103858D01*
X5488198Y6103889D01*
X5488584Y6103920D01*
X5488971Y6104022D01*
X5489323Y6104158D01*
X5490027Y6104467D01*
X5490591Y6104812D01*
X5491050Y6105193D01*
X5491404Y6105505D01*
X5491546Y6105644D01*
X5491652Y6105748D01*
X5491687Y6105783D01*
X5491722Y6105818D01*
X5492007Y6106200D01*
X5492256Y6106654D01*
X5492686Y6107596D01*
X5492977Y6108610D01*
X5493197Y6109589D01*
X5493271Y6110079D01*
X5493311Y6110499D01*
X5493384Y6110884D01*
X5493388Y6111235D01*
X5493426Y6111515D01*
X5493429Y6111900D01*
X5493402Y6112637D01*
X5493373Y6113338D01*
X5493275Y6114005D01*
X5493176Y6114637D01*
X5493041Y6115199D01*
X5492871Y6115727D01*
X5492700Y6116219D01*
X5492529Y6116641D01*
X5492393Y6117028D01*
X5492221Y6117345D01*
X5492048Y6117628D01*
X5491911Y6117874D01*
X5491807Y6118051D01*
X5491703Y6118192D01*
X5491669Y6118262D01*
X5491634Y6118298D01*
X5491252Y6118687D01*
X5490871Y6119076D01*
X5490453Y6119396D01*
X5490000Y6119681D01*
X5489094Y6120180D01*
X5488221Y6120539D01*
X5487837Y6120683D01*
X5487452Y6120792D01*
X5487103Y6120901D01*
X5486823Y6120974D01*
X5486578Y6121011D01*
X5486368Y6121048D01*
X5486263Y6121084D01*
X5486228Y6121085D01*
X5487197Y6126964D01*
X5488212Y6126744D01*
D02*
G37*
G36*
X5466590Y6087976D02*
X5466159Y6086928D01*
X5465657Y6085847D01*
X5465156Y6084800D01*
X5464656Y6083823D01*
X5464407Y6083405D01*
X5464192Y6082987D01*
X5463978Y6082638D01*
X5463800Y6082359D01*
X5463693Y6082115D01*
X5463586Y6081906D01*
X5463515Y6081801D01*
X5463479Y6081767D01*
X5462696Y6080513D01*
X5462305Y6079956D01*
X5461949Y6079398D01*
X5461558Y6078911D01*
X5461239Y6078459D01*
X5460884Y6078041D01*
X5460599Y6077624D01*
X5460316Y6077311D01*
X5460067Y6076998D01*
X5459819Y6076720D01*
X5459642Y6076511D01*
X5459500Y6076337D01*
X5459394Y6076233D01*
X5459323Y6076164D01*
X5459288Y6076129D01*
X5497212Y6075758D01*
X5497154Y6069799D01*
X5448469Y6070276D01*
X5448507Y6074131D01*
X5449106Y6074441D01*
X5449705Y6074786D01*
X5450869Y6075580D01*
X5451964Y6076446D01*
X5452495Y6076897D01*
X5452990Y6077312D01*
X5453414Y6077729D01*
X5453839Y6078110D01*
X5454193Y6078457D01*
X5454511Y6078770D01*
X5454759Y6079013D01*
X5454936Y6079186D01*
X5455042Y6079325D01*
X5455078Y6079360D01*
X5456283Y6080786D01*
X5457385Y6082282D01*
X5458381Y6083744D01*
X5458808Y6084441D01*
X5459235Y6085103D01*
X5459592Y6085696D01*
X5459913Y6086254D01*
X5460198Y6086776D01*
X5460412Y6087195D01*
X5460591Y6087544D01*
X5460734Y6087823D01*
X5460806Y6087962D01*
X5460841Y6088032D01*
X5466590Y6087976D01*
D02*
G37*
%LPC*%
G36*
X3649975Y7957314D02*
X3638507D01*
Y7925090D01*
X3552599D01*
Y7957314D01*
Y7880131D01*
D01*
Y7912214D01*
X3638507D01*
Y7880131D01*
X3552599D01*
X3649975D01*
Y7957314D01*
D02*
G37*
G36*
X3552599Y7877176D02*
Y7786203D01*
X3649975Y7823563D01*
Y7786203D01*
X3552599D01*
X3649975D01*
Y7837353D01*
X3552599Y7877176D01*
D02*
G37*
G36*
X3649975Y7779027D02*
X3552599D01*
Y7705573D01*
X3649975D01*
Y7743074D01*
X3649905Y7743848D01*
Y7744833D01*
X3649834Y7745888D01*
X3649693Y7747154D01*
X3649623Y7748421D01*
X3649412Y7749828D01*
X3649271Y7751306D01*
X3648708Y7754261D01*
X3647935Y7757216D01*
X3647512Y7758623D01*
X3646950Y7759889D01*
Y7759960D01*
X3646809Y7760171D01*
X3646668Y7760522D01*
X3646387Y7761015D01*
X3646105Y7761578D01*
X3645683Y7762211D01*
X3645261Y7762985D01*
X3644698Y7763759D01*
X3644135Y7764603D01*
X3643432Y7765448D01*
X3642728Y7766292D01*
X3641884Y7767206D01*
X3640969Y7768051D01*
X3640054Y7768895D01*
X3638999Y7769669D01*
X3637873Y7770443D01*
X3637803Y7770513D01*
X3637592Y7770584D01*
X3637240Y7770795D01*
X3636818Y7771076D01*
X3636255Y7771358D01*
X3635552Y7771639D01*
X3634848Y7771991D01*
X3634004Y7772413D01*
X3633019Y7772765D01*
X3632034Y7773117D01*
X3629853Y7773679D01*
X3627460Y7774172D01*
X3626264Y7774242D01*
X3624998Y7774313D01*
X3624927D01*
X3624716D01*
X3624365D01*
X3623942Y7774242D01*
X3623380D01*
X3622746Y7774102D01*
X3621972Y7774031D01*
X3621198Y7773890D01*
X3619369Y7773468D01*
X3617399Y7772835D01*
X3616344Y7772483D01*
X3615359Y7771991D01*
X3614303Y7771498D01*
X3613248Y7770865D01*
X3613178Y7770795D01*
X3613037Y7770724D01*
X3612756Y7770513D01*
X3612333Y7770232D01*
X3611841Y7769880D01*
X3611348Y7769458D01*
X3610715Y7768895D01*
X3610082Y7768332D01*
X3609378Y7767629D01*
X3608675Y7766925D01*
X3607971Y7766081D01*
X3607197Y7765166D01*
X3606423Y7764111D01*
X3605720Y7763055D01*
X3605016Y7761930D01*
X3604383Y7760663D01*
Y7760734D01*
X3604242Y7761085D01*
X3604102Y7761507D01*
X3603890Y7762141D01*
X3603609Y7762844D01*
X3603257Y7763689D01*
X3602835Y7764674D01*
X3602272Y7765659D01*
X3601709Y7766784D01*
X3601076Y7767910D01*
X3600373Y7769036D01*
X3599528Y7770161D01*
X3598684Y7771217D01*
X3597699Y7772343D01*
X3596644Y7773328D01*
X3595518Y7774242D01*
X3595447Y7774313D01*
X3595236Y7774453D01*
X3594885Y7774664D01*
X3594392Y7775016D01*
X3593829Y7775368D01*
X3593126Y7775790D01*
X3592281Y7776212D01*
X3591367Y7776634D01*
X3590311Y7777057D01*
X3589186Y7777549D01*
X3587990Y7777901D01*
X3586653Y7778253D01*
X3585316Y7778604D01*
X3583838Y7778816D01*
X3582361Y7778956D01*
X3580813Y7779027D01*
X3649975D01*
D02*
G37*
G36*
Y7694527D02*
X3552599Y7656393D01*
Y7643095D01*
X3649975Y7605383D01*
Y7619384D01*
X3579195Y7644643D01*
X3579124Y7644713D01*
X3578843Y7644784D01*
X3578350Y7644924D01*
X3577717Y7645135D01*
X3577014Y7645417D01*
X3576099Y7645698D01*
X3575114Y7646050D01*
X3573988Y7646472D01*
X3572792Y7646824D01*
X3571526Y7647246D01*
X3568852Y7648090D01*
X3566038Y7649005D01*
X3563224Y7649779D01*
X3563294D01*
X3563575Y7649849D01*
X3563997Y7649990D01*
X3564560Y7650201D01*
X3565334Y7650412D01*
X3566179Y7650623D01*
X3567164Y7650975D01*
X3568219Y7651256D01*
X3569345Y7651679D01*
X3570611Y7652030D01*
X3571948Y7652523D01*
X3573285Y7652945D01*
X3576240Y7653930D01*
X3579195Y7655056D01*
X3649975Y7681370D01*
Y7694527D01*
D02*
G37*
%LPD*%
G36*
X3619510Y7837002D02*
X3619580D01*
X3619651Y7836931D01*
X3620073Y7836791D01*
X3620706Y7836579D01*
X3621550Y7836228D01*
X3622606Y7835876D01*
X3623802Y7835383D01*
X3625209Y7834961D01*
X3626686Y7834398D01*
X3628234Y7833835D01*
X3629853Y7833273D01*
X3633230Y7832147D01*
X3636607Y7831021D01*
X3638225Y7830529D01*
X3639773Y7830107D01*
X3639632D01*
X3639351Y7830036D01*
X3638858Y7829895D01*
X3638155Y7829755D01*
X3637310Y7829544D01*
X3636325Y7829333D01*
X3635200Y7829051D01*
X3633933Y7828770D01*
X3632526Y7828348D01*
X3631049Y7827996D01*
X3629571Y7827574D01*
X3627953Y7827081D01*
X3624576Y7826026D01*
X3621128Y7824830D01*
X3592563Y7814135D01*
Y7847204D01*
X3619510Y7837002D01*
D02*
G37*
G36*
X3582079Y7851284D02*
Y7810406D01*
X3552599Y7799782D01*
Y7862542D01*
X3582079Y7851284D01*
D02*
G37*
G36*
X3579617Y7778956D02*
X3579054D01*
X3578350Y7778886D01*
X3577506Y7778816D01*
X3576662Y7778675D01*
X3574692Y7778323D01*
X3572511Y7777760D01*
X3570259Y7777057D01*
X3568008Y7776072D01*
X3567937D01*
X3567726Y7775931D01*
X3567445Y7775790D01*
X3567023Y7775579D01*
X3566530Y7775298D01*
X3565967Y7774946D01*
X3564701Y7774102D01*
X3563224Y7773046D01*
X3561746Y7771850D01*
X3560268Y7770513D01*
X3559002Y7768965D01*
Y7768895D01*
X3558861Y7768754D01*
X3558721Y7768543D01*
X3558510Y7768191D01*
X3558228Y7767769D01*
X3557947Y7767277D01*
X3557595Y7766714D01*
X3557243Y7766081D01*
X3556821Y7765307D01*
X3556469Y7764533D01*
X3555625Y7762704D01*
X3554921Y7760663D01*
X3554218Y7758341D01*
Y7758271D01*
X3554147Y7758060D01*
X3554077Y7757708D01*
X3553936Y7757216D01*
X3553866Y7756582D01*
X3553725Y7755808D01*
X3553584Y7754964D01*
X3553444Y7753979D01*
X3553233Y7752924D01*
X3553092Y7751728D01*
X3552951Y7750391D01*
X3552881Y7749054D01*
X3552740Y7747577D01*
X3552670Y7746029D01*
X3552599Y7744340D01*
Y7779027D01*
X3580109D01*
X3579617Y7778956D01*
D02*
G37*
G36*
X3624787Y7761578D02*
X3625279Y7761507D01*
X3626405Y7761367D01*
X3627742Y7761085D01*
X3629149Y7760663D01*
X3630626Y7760030D01*
X3632034Y7759256D01*
X3632104D01*
X3632174Y7759115D01*
X3632667Y7758834D01*
X3633300Y7758271D01*
X3634074Y7757567D01*
X3634918Y7756653D01*
X3635763Y7755457D01*
X3636466Y7754190D01*
X3637099Y7752642D01*
Y7752572D01*
X3637170Y7752431D01*
X3637240Y7752150D01*
X3637310Y7751798D01*
X3637451Y7751306D01*
X3637522Y7750743D01*
X3637662Y7750039D01*
X3637803Y7749195D01*
X3637944Y7748210D01*
X3638084Y7747154D01*
X3638155Y7745958D01*
X3638295Y7744622D01*
X3638366Y7743144D01*
X3638436Y7741526D01*
X3638507Y7739767D01*
Y7718448D01*
X3609027D01*
Y7740822D01*
X3609097Y7741526D01*
Y7743214D01*
X3609167Y7744199D01*
X3609308Y7746169D01*
X3609519Y7748210D01*
X3609660Y7749195D01*
X3609801Y7750109D01*
X3609941Y7750954D01*
X3610152Y7751728D01*
Y7751798D01*
X3610223Y7751939D01*
X3610293Y7752220D01*
X3610434Y7752572D01*
X3610574Y7752924D01*
X3610786Y7753416D01*
X3611278Y7754472D01*
X3611911Y7755668D01*
X3612756Y7756934D01*
X3613741Y7758060D01*
X3614937Y7759115D01*
X3615007D01*
X3615077Y7759256D01*
X3615288Y7759326D01*
X3615570Y7759537D01*
X3615922Y7759678D01*
X3616273Y7759889D01*
X3617329Y7760382D01*
X3618525Y7760874D01*
X3620002Y7761226D01*
X3621691Y7761507D01*
X3623520Y7761648D01*
X3623591D01*
X3623731D01*
X3624013D01*
X3624365D01*
X3624787Y7761578D01*
D02*
G37*
G36*
X3581728Y7765659D02*
X3582220D01*
X3582713Y7765588D01*
X3584049Y7765377D01*
X3585527Y7765025D01*
X3587075Y7764533D01*
X3588693Y7763829D01*
X3590241Y7762915D01*
X3590311D01*
X3590452Y7762774D01*
X3590593Y7762633D01*
X3590874Y7762422D01*
X3591578Y7761789D01*
X3592422Y7760874D01*
X3593407Y7759749D01*
X3594322Y7758412D01*
X3595166Y7756864D01*
X3595870Y7755105D01*
Y7755035D01*
X3595940Y7754894D01*
X3596010Y7754612D01*
X3596151Y7754190D01*
X3596292Y7753698D01*
X3596432Y7753065D01*
X3596573Y7752361D01*
X3596714Y7751517D01*
X3596855Y7750532D01*
X3596995Y7749476D01*
X3597136Y7748280D01*
X3597277Y7747014D01*
X3597417Y7745677D01*
X3597488Y7744199D01*
X3597558Y7742581D01*
Y7718448D01*
X3564068D01*
Y7744762D01*
X3564138Y7746099D01*
Y7747577D01*
X3564279Y7748984D01*
X3564349Y7750321D01*
X3564420Y7750954D01*
X3564490Y7751446D01*
Y7751517D01*
X3564560Y7751657D01*
Y7751868D01*
X3564631Y7752220D01*
X3564842Y7752994D01*
X3565123Y7754050D01*
X3565475Y7755175D01*
X3565897Y7756442D01*
X3566460Y7757638D01*
X3567093Y7758834D01*
Y7758904D01*
X3567164Y7758975D01*
X3567445Y7759326D01*
X3567867Y7759889D01*
X3568500Y7760593D01*
X3569274Y7761367D01*
X3570189Y7762211D01*
X3571244Y7762985D01*
X3572511Y7763759D01*
X3572581D01*
X3572651Y7763829D01*
X3572863Y7763970D01*
X3573144Y7764040D01*
X3573918Y7764392D01*
X3574903Y7764744D01*
X3576099Y7765096D01*
X3577506Y7765448D01*
X3579124Y7765659D01*
X3580813Y7765729D01*
X3580883D01*
X3581024D01*
X3581376D01*
X3581728Y7765659D01*
D02*
G37*
%LPC*%
G36*
X9053424Y7150045D02*
X9051073Y7146517D01*
X9049897Y7145342D01*
X9048721Y7142990D01*
X9034612Y7121826D01*
X9021678Y7098311D01*
X9012272Y7074796D01*
X9004042Y7053632D01*
X8998163Y7035995D01*
X8996987Y7027765D01*
X8994636Y7021886D01*
X8993460Y7016007D01*
X8992284Y7012480D01*
Y7010128D01*
Y7008953D01*
X8988757Y6981910D01*
X8987581Y6957219D01*
Y6934879D01*
X8988757Y6914891D01*
X8991109Y6898431D01*
X8993460Y6885497D01*
X8994636Y6880794D01*
Y6877267D01*
X8995812Y6876091D01*
Y6874915D01*
X9002866Y6852576D01*
X9009921Y6830236D01*
X9019327Y6809072D01*
X9027557Y6790260D01*
X9035788Y6773800D01*
X9042842Y6760866D01*
X9045194Y6756163D01*
X9047545Y6752636D01*
X9048721Y6751460D01*
Y6750284D01*
X9062830Y6727945D01*
X9075764Y6706781D01*
X9088697Y6689144D01*
X9099279Y6672684D01*
X9108685Y6660926D01*
X9115740Y6651520D01*
X9121619Y6645641D01*
X9122794Y6643289D01*
X9151013Y6611544D01*
X9165122Y6597435D01*
X9178055Y6584501D01*
X9188637Y6572744D01*
X9198043Y6564513D01*
X9202746Y6559810D01*
X9205098Y6557459D01*
X9220383Y6543349D01*
X9233316Y6531592D01*
X9243898Y6521010D01*
X9252129Y6513955D01*
X9259183Y6508076D01*
X9262710Y6504549D01*
X9265062Y6503373D01*
X9266238Y6502198D01*
X9276820Y6493967D01*
X9285050Y6488088D01*
X9289753Y6484561D01*
X9292105Y6483385D01*
X9288577Y6506901D01*
Y6531592D01*
X9290929Y6555107D01*
X9294456Y6576271D01*
X9299159Y6595083D01*
X9301511Y6602138D01*
X9302686Y6609192D01*
X9305038Y6615071D01*
X9306214Y6618598D01*
X9307390Y6620950D01*
Y6622126D01*
X9317971Y6650344D01*
X9329729Y6676211D01*
X9340311Y6699726D01*
X9350893Y6719714D01*
X9360299Y6736175D01*
X9367354Y6747933D01*
X9370881Y6752636D01*
X9372057Y6756163D01*
X9374408Y6757339D01*
Y6758515D01*
X9389693Y6780854D01*
X9406154Y6803194D01*
X9422615Y6823182D01*
X9437900Y6841994D01*
X9450833Y6857279D01*
X9461415Y6869037D01*
X9464942Y6873740D01*
X9468470Y6877267D01*
X9469645Y6878443D01*
X9470821Y6879618D01*
X9489633Y6900782D01*
X9506094Y6918419D01*
X9520203Y6932528D01*
X9530785Y6944286D01*
X9537840Y6952516D01*
X9543719Y6957219D01*
X9547246Y6960746D01*
X9548422Y6961922D01*
X9563707Y6976031D01*
X9574288Y6985437D01*
X9577648Y6988797D01*
X9582519Y6992492D01*
X9580167Y6991316D01*
X9577648Y6988797D01*
X9548422Y6966625D01*
X9516676Y6941934D01*
X9487282Y6918419D01*
X9460239Y6897255D01*
X9434372Y6876091D01*
X9409681Y6856103D01*
X9388517Y6837291D01*
X9367354Y6819654D01*
X9348541Y6802018D01*
X9332081Y6786733D01*
X9316796Y6771448D01*
X9302686Y6758515D01*
X9289753Y6745581D01*
X9277995Y6733823D01*
X9267414Y6722066D01*
X9259183Y6711484D01*
X9243898Y6693847D01*
X9232141Y6678562D01*
X9225086Y6666805D01*
X9219207Y6657399D01*
X9216856Y6650344D01*
X9214504Y6645641D01*
Y6643289D01*
Y6642114D01*
X9181583Y6680914D01*
X9153364Y6717363D01*
X9129849Y6750284D01*
X9119267Y6765569D01*
X9109861Y6779678D01*
X9101631Y6792612D01*
X9094576Y6804369D01*
X9088697Y6814951D01*
X9083994Y6823182D01*
X9079291Y6830236D01*
X9076939Y6834939D01*
X9074588Y6838467D01*
Y6839642D01*
X9058127Y6873740D01*
X9046370Y6903134D01*
X9036963Y6930176D01*
X9031085Y6952516D01*
X9028733Y6961922D01*
X9027557Y6970152D01*
X9026381Y6978383D01*
X9025206Y6984262D01*
X9024030Y6988965D01*
Y6992492D01*
Y6993668D01*
Y6994844D01*
Y7017183D01*
Y7035995D01*
Y7052456D01*
X9025206Y7065389D01*
X9026381Y7075971D01*
X9027557Y7084202D01*
X9028733Y7088905D01*
Y7090081D01*
X9032260Y7101838D01*
X9034612Y7113596D01*
X9039315Y7123002D01*
X9042842Y7131232D01*
X9046370Y7137111D01*
X9048721Y7142990D01*
X9051073Y7146517D01*
X9052248Y7147693D01*
X9053424Y7150045D01*
D02*
G37*
G36*
X9562531Y6865509D02*
X9528434Y6834939D01*
X9497864Y6803194D01*
X9471997Y6772624D01*
X9448481Y6744405D01*
X9439075Y6731472D01*
X9430845Y6719714D01*
X9423790Y6709132D01*
X9416736Y6699726D01*
X9412033Y6692672D01*
X9408505Y6686793D01*
X9407330Y6683266D01*
X9406154Y6682090D01*
X9395572Y6663278D01*
X9386166Y6643289D01*
X9377936Y6625653D01*
X9370881Y6608017D01*
X9360299Y6575095D01*
X9356772Y6559810D01*
X9354420Y6546877D01*
X9352069Y6533943D01*
X9349717Y6522186D01*
Y6512779D01*
X9348541Y6504549D01*
Y6498670D01*
Y6492791D01*
Y6490440D01*
Y6489264D01*
X9349717Y6473979D01*
X9353244Y6458694D01*
X9357948Y6446937D01*
X9363826Y6435179D01*
X9370881Y6424597D01*
X9379111Y6415191D01*
X9395572Y6401082D01*
X9410857Y6390500D01*
X9424966Y6383445D01*
X9430845Y6381094D01*
X9435548Y6379918D01*
X9437900Y6378742D01*
X9439075D01*
X9455536Y6375215D01*
X9470821Y6372863D01*
X9502567Y6371688D01*
X9530785Y6374039D01*
X9555476Y6377566D01*
X9567234Y6381094D01*
X9576640Y6383445D01*
X9586046Y6385797D01*
X9593101Y6388148D01*
X9598980Y6390500D01*
X9603683Y6392851D01*
X9606034Y6394027D01*
X9607210D01*
X9636604Y6409312D01*
X9662471Y6424597D01*
X9685986Y6441058D01*
X9704798Y6456343D01*
X9720083Y6469276D01*
X9731841Y6479858D01*
X9738896Y6486913D01*
X9740071Y6488088D01*
X9741247Y6489264D01*
X9760059Y6512779D01*
X9777696Y6536295D01*
X9794157Y6559810D01*
X9808266Y6580974D01*
X9820024Y6600962D01*
X9825902Y6609192D01*
X9829430Y6615071D01*
X9832957Y6620950D01*
X9835308Y6625653D01*
X9837660Y6628005D01*
Y6629180D01*
X9845890Y6644465D01*
X9852945Y6657399D01*
X9865878Y6682090D01*
X9876460Y6700902D01*
X9884691Y6717363D01*
X9890569Y6729120D01*
X9894097Y6737351D01*
X9896448Y6742054D01*
X9897624Y6743230D01*
X9902327Y6754987D01*
X9905854Y6765569D01*
X9909382Y6774975D01*
X9911733Y6782030D01*
X9914085Y6787909D01*
X9915261Y6792612D01*
X9916436Y6794963D01*
Y6796139D01*
X9896448Y6759690D01*
X9887042Y6744405D01*
X9877636Y6727945D01*
X9867054Y6712660D01*
X9856472Y6697375D01*
X9848242Y6684441D01*
X9841187Y6675035D01*
X9835308Y6667981D01*
X9834133Y6666805D01*
Y6665629D01*
X9818848Y6645641D01*
X9803563Y6626829D01*
X9788278Y6609192D01*
X9774169Y6592732D01*
X9762411Y6579798D01*
X9753005Y6569216D01*
X9747126Y6562162D01*
X9744775Y6560986D01*
Y6559810D01*
X9724786Y6540998D01*
X9704798Y6525713D01*
X9684810Y6511604D01*
X9667174Y6499846D01*
X9650713Y6490440D01*
X9638956Y6484561D01*
X9634253Y6482210D01*
X9630725Y6479858D01*
X9628374Y6478682D01*
X9627198D01*
X9602507Y6470452D01*
X9578992Y6464573D01*
X9556652Y6461046D01*
X9521379D01*
X9508446Y6462222D01*
X9503742D01*
X9500215Y6463397D01*
X9497864D01*
X9483754Y6468100D01*
X9470821Y6472803D01*
X9460239Y6479858D01*
X9450833Y6486913D01*
X9443778Y6495143D01*
X9436724Y6504549D01*
X9432021Y6513955D01*
X9428493Y6524537D01*
X9423790Y6546877D01*
Y6571568D01*
X9427318Y6597435D01*
X9433197Y6623301D01*
X9440251Y6647993D01*
X9448481Y6671508D01*
X9457888Y6693847D01*
X9467294Y6713835D01*
X9475524Y6730296D01*
X9482579Y6743230D01*
X9484930Y6747933D01*
X9487282Y6751460D01*
X9488458Y6752636D01*
Y6753811D01*
X9501391Y6773800D01*
X9513149Y6790260D01*
X9522555Y6805545D01*
X9530785Y6818479D01*
X9537840Y6829061D01*
X9544894Y6838467D01*
X9549597Y6845521D01*
X9553125Y6851400D01*
X9556652Y6856103D01*
X9559003Y6859630D01*
X9561355Y6864333D01*
X9562531Y6865509D01*
D02*
G37*
G36*
X9958764Y6891376D02*
X9990510Y6854927D01*
X10019904Y6819654D01*
X10044595Y6783206D01*
X10066934Y6749108D01*
X10086922Y6716187D01*
X10103383Y6683266D01*
X10118668Y6653871D01*
X10130426Y6625653D01*
X10139832Y6599786D01*
X10148062Y6576271D01*
X10153941Y6555107D01*
X10158644Y6537471D01*
X10162171Y6523361D01*
X10164523Y6512779D01*
X10165699Y6506901D01*
Y6504549D01*
X10169226Y6469276D01*
Y6434003D01*
X10165699Y6401082D01*
X10160996Y6369336D01*
X10153941Y6339942D01*
X10145711Y6311723D01*
X10136305Y6285857D01*
X10126898Y6261166D01*
X10116317Y6238826D01*
X10105735Y6220014D01*
X10096329Y6202377D01*
X10086922Y6188268D01*
X10079868Y6177686D01*
X10072813Y6169456D01*
X10069286Y6163577D01*
X10068110Y6162401D01*
X10045771Y6134183D01*
X10021080Y6108316D01*
X9997564Y6083625D01*
X9974049Y6063637D01*
X9954061Y6046000D01*
X9945831Y6038946D01*
X9937600Y6033067D01*
X9931721Y6028364D01*
X9927018Y6024837D01*
X9924667Y6022485D01*
X9923491Y6021309D01*
X9908206Y6009552D01*
X9892921Y5998970D01*
X9867054Y5981333D01*
X9847066Y5967224D01*
X9829430Y5955466D01*
X9816496Y5948412D01*
X9808266Y5942533D01*
X9802387Y5940181D01*
X9801212Y5939006D01*
X9788278Y5933127D01*
X9776520Y5927248D01*
X9767114Y5922545D01*
X9757708Y5919018D01*
X9751829Y5915490D01*
X9745951Y5914315D01*
X9744187Y5912551D01*
X9774169Y5922545D01*
X9803563Y5934303D01*
X9832957Y5946060D01*
X9860000Y5957818D01*
X9885867Y5969576D01*
X9910558Y5982509D01*
X9934073Y5994267D01*
X9956412Y6006024D01*
X9977576Y6018958D01*
X9998740Y6030715D01*
X10035189Y6055406D01*
X10066934Y6078922D01*
X10095153Y6101261D01*
X10119844Y6122425D01*
X10139832Y6141237D01*
X10156293Y6158874D01*
X10169226Y6172983D01*
X10179808Y6185917D01*
X10185687Y6194147D01*
X10190390Y6200026D01*
X10191566Y6202377D01*
X10203323Y6223541D01*
X10213905Y6243529D01*
X10223311Y6262341D01*
X10231542Y6281154D01*
X10245651Y6315251D01*
X10250354Y6330536D01*
X10255057Y6344645D01*
X10259760Y6357579D01*
X10262112Y6369336D01*
X10264463Y6379918D01*
X10266815Y6388149D01*
X10267990Y6394027D01*
Y6399906D01*
X10269166Y6402258D01*
Y6403433D01*
X10282100Y6395203D01*
X10296209Y6385797D01*
X10309142Y6374039D01*
X10323251Y6361106D01*
X10347942Y6331712D01*
X10370282Y6301142D01*
X10390270Y6272923D01*
X10398500Y6261166D01*
X10405555Y6249408D01*
X10410258Y6240002D01*
X10414961Y6232947D01*
X10417313Y6228244D01*
X10418488Y6227069D01*
X10430246Y6202377D01*
X10442004Y6178862D01*
X10452586Y6156523D01*
X10460816Y6136535D01*
X10467871Y6120074D01*
X10472574Y6107140D01*
X10474925Y6102437D01*
X10476101Y6098910D01*
X10476459Y6098194D01*
X10458464Y6160050D01*
X10436125Y6222366D01*
X10413785Y6282330D01*
X10387919Y6339942D01*
X10362052Y6392852D01*
X10336185Y6443410D01*
X10310318Y6489264D01*
X10284451Y6532768D01*
X10259760Y6570392D01*
X10237420Y6604489D01*
X10226839Y6619774D01*
X10216257Y6633883D01*
X10206851Y6646817D01*
X10198620Y6658574D01*
X10190390Y6669156D01*
X10183335Y6678562D01*
X10177456Y6686793D01*
X10171578Y6692672D01*
X10168050Y6697375D01*
X10164523Y6702078D01*
X10163347Y6703254D01*
X10162171Y6704429D01*
X10141008Y6727945D01*
X10121020Y6749108D01*
X10102207Y6770272D01*
X10083395Y6787909D01*
X10065759Y6805545D01*
X10048122Y6820830D01*
X10032837Y6833764D01*
X10018728Y6846697D01*
X10005795Y6857279D01*
X9994037Y6866685D01*
X9983455Y6873740D01*
X9975225Y6880794D01*
X9968170Y6885497D01*
X9963467Y6889025D01*
X9959940Y6890200D01*
X9958764Y6891376D01*
D02*
G37*
G36*
X10476459Y6098194D02*
X10477277Y6095383D01*
Y6096559D01*
X10476459Y6098194D01*
D02*
G37*
G36*
X9975225Y6782030D02*
X9968170Y6742054D01*
X9964643Y6725593D01*
X9959940Y6707957D01*
X9954061Y6690320D01*
X9947006Y6673859D01*
X9941127Y6659750D01*
X9936424Y6647993D01*
X9934073Y6643289D01*
X9932897Y6639762D01*
X9931721Y6638586D01*
Y6637411D01*
X9919964Y6613895D01*
X9907030Y6591556D01*
X9894097Y6569216D01*
X9882339Y6550404D01*
X9871757Y6533943D01*
X9862351Y6521010D01*
X9860000Y6516307D01*
X9857648Y6512779D01*
X9855297Y6510428D01*
Y6509252D01*
X9836484Y6484561D01*
X9814145Y6462222D01*
X9791805Y6441058D01*
X9769466Y6422245D01*
X9749478Y6406961D01*
X9741247Y6399906D01*
X9734193Y6395203D01*
X9727138Y6390500D01*
X9722435Y6386972D01*
X9720083Y6385797D01*
X9718908Y6384621D01*
X9683635Y6364633D01*
X9648362Y6346996D01*
X9613089Y6332887D01*
X9581343Y6322305D01*
X9567234Y6317602D01*
X9554300Y6312899D01*
X9542543Y6309372D01*
X9531961Y6307020D01*
X9523731Y6304669D01*
X9517852Y6303493D01*
X9514324Y6302317D01*
X9519027Y6301142D01*
X9524906D01*
X9531961Y6302317D01*
X9539015D01*
X9544894Y6303493D01*
X9550773D01*
X9566058Y6304669D01*
X9581343Y6307020D01*
X9597804Y6310548D01*
X9613089Y6312899D01*
X9626022Y6315251D01*
X9637780Y6317602D01*
X9644834Y6319954D01*
X9647186D01*
X9690689Y6331711D01*
X9710677Y6337590D01*
X9729490Y6343469D01*
X9744775Y6348172D01*
X9757708Y6352875D01*
X9762411Y6354051D01*
X9765938Y6355227D01*
X9767114Y6356403D01*
X9768290D01*
X9791805Y6365809D01*
X9814145Y6376391D01*
X9835308Y6388148D01*
X9854121Y6399906D01*
X9870581Y6410488D01*
X9882339Y6418718D01*
X9887042Y6422245D01*
X9890569Y6424597D01*
X9891745Y6426949D01*
X9892921D01*
X9914085Y6445761D01*
X9932897Y6464573D01*
X9949358Y6483385D01*
X9963467Y6501022D01*
X9974049Y6515131D01*
X9981103Y6526889D01*
X9984631Y6531592D01*
X9986982Y6535119D01*
X9988158Y6536295D01*
Y6537471D01*
X9995213Y6503373D01*
X9997564Y6489264D01*
X9998740Y6473979D01*
X9999916Y6457518D01*
Y6442233D01*
Y6428124D01*
X9998740Y6417542D01*
Y6412839D01*
Y6409312D01*
Y6408136D01*
Y6406961D01*
X9992861Y6361106D01*
X9989334Y6339942D01*
X9985807Y6319954D01*
X9982279Y6302317D01*
X9979928Y6289384D01*
X9978752Y6284681D01*
Y6281154D01*
X9977576Y6278802D01*
Y6277626D01*
X9969346Y6251759D01*
X9959940Y6225893D01*
X9948182Y6201201D01*
X9936424Y6177686D01*
X9924667Y6158874D01*
X9919964Y6150644D01*
X9915261Y6143589D01*
X9911733Y6137710D01*
X9909382Y6133007D01*
X9907030Y6130656D01*
Y6129480D01*
X9884691Y6101261D01*
X9861175Y6074219D01*
X9837660Y6049528D01*
X9815320Y6028364D01*
X9795332Y6010727D01*
X9787102Y6003673D01*
X9778872Y5997794D01*
X9772993Y5993091D01*
X9768290Y5989564D01*
X9765938Y5987212D01*
X9764763Y5986036D01*
X9791805Y6001321D01*
X9803563Y6006024D01*
X9815320Y6013079D01*
X9825902Y6020134D01*
X9836484Y6027188D01*
X9845890Y6033067D01*
X9852945Y6038946D01*
X9858824Y6042473D01*
X9860000Y6043649D01*
X9889394Y6068340D01*
X9903503Y6081273D01*
X9916436Y6093031D01*
X9927018Y6103613D01*
X9936424Y6111843D01*
X9941127Y6116546D01*
X9943479Y6118898D01*
X9959940Y6136534D01*
X9974049Y6154171D01*
X9988158Y6172983D01*
X9998740Y6190620D01*
X10008146Y6205905D01*
X10015201Y6218838D01*
X10017552Y6223541D01*
X10019904Y6227068D01*
X10021080Y6228244D01*
Y6229420D01*
X10031661Y6255287D01*
X10041068Y6279978D01*
X10049298Y6304669D01*
X10056353Y6325833D01*
X10061056Y6344645D01*
X10062231Y6352875D01*
X10064583Y6359930D01*
X10065759Y6365809D01*
Y6369336D01*
X10066934Y6371688D01*
Y6372863D01*
X10070462Y6403433D01*
X10071637Y6434003D01*
X10070462Y6465749D01*
X10068110Y6493967D01*
X10065759Y6506901D01*
X10064583Y6519834D01*
X10063407Y6530416D01*
X10062231Y6539822D01*
X10061056Y6546877D01*
X10059880Y6552755D01*
X10058704Y6556283D01*
Y6557459D01*
X10049298Y6597435D01*
X10036364Y6637411D01*
X10023431Y6675035D01*
X10016376Y6693847D01*
X10009322Y6710308D01*
X10002267Y6725593D01*
X9996388Y6739702D01*
X9990510Y6751460D01*
X9985807Y6762042D01*
X9981103Y6770272D01*
X9977576Y6777327D01*
X9976400Y6780854D01*
X9975225Y6782030D01*
D02*
G37*
G36*
X9744187Y5912551D02*
X9742423Y5911963D01*
X9743599D01*
X9744187Y5912551D01*
D02*
G37*
G36*
X3675936Y7172894D02*
X3663060D01*
Y7124558D01*
X3614725Y7172894D01*
X3597205D01*
X3638154Y7133353D01*
X3595446Y7075518D01*
X3612473D01*
X3647160Y7124628D01*
X3663060Y7109290D01*
Y7075518D01*
X3675936D01*
Y7172894D01*
D02*
G37*
G36*
X3591014Y7116748D02*
X3554146D01*
Y7104717D01*
X3591014D01*
Y7116748D01*
D02*
G37*
G36*
X3731448Y7174582D02*
X3730463D01*
X3730041Y7174512D01*
X3728986Y7174442D01*
X3727719Y7174371D01*
X3726312Y7174160D01*
X3724694Y7173949D01*
X3722865Y7173668D01*
X3720965Y7173245D01*
X3718995Y7172753D01*
X3716955Y7172190D01*
X3714914Y7171416D01*
X3712874Y7170572D01*
X3710763Y7169587D01*
X3708793Y7168461D01*
X3706894Y7167124D01*
X3706753Y7167054D01*
X3706471Y7166773D01*
X3705909Y7166350D01*
X3705275Y7165717D01*
X3704431Y7165014D01*
X3703516Y7164029D01*
X3702531Y7162973D01*
X3701406Y7161707D01*
X3700280Y7160300D01*
X3699084Y7158752D01*
X3697958Y7156993D01*
X3696832Y7155163D01*
X3695707Y7153123D01*
X3694722Y7150942D01*
X3693737Y7148620D01*
X3692963Y7146158D01*
X3705627Y7143203D01*
X3705697Y7143343D01*
X3705768Y7143695D01*
X3705979Y7144188D01*
X3706260Y7144962D01*
X3706612Y7145806D01*
X3707034Y7146791D01*
X3707597Y7147917D01*
X3708160Y7149113D01*
X3708793Y7150379D01*
X3709567Y7151646D01*
X3710341Y7152912D01*
X3711256Y7154249D01*
X3712241Y7155445D01*
X3713226Y7156641D01*
X3714351Y7157696D01*
X3715548Y7158681D01*
X3715618Y7158752D01*
X3715829Y7158892D01*
X3716181Y7159104D01*
X3716673Y7159455D01*
X3717307Y7159807D01*
X3718080Y7160229D01*
X3718995Y7160651D01*
X3719980Y7161144D01*
X3721106Y7161566D01*
X3722302Y7161988D01*
X3723639Y7162410D01*
X3725046Y7162762D01*
X3726594Y7163114D01*
X3728212Y7163325D01*
X3729901Y7163466D01*
X3731730Y7163536D01*
X3732785D01*
X3733559Y7163466D01*
X3734544Y7163395D01*
X3735670Y7163255D01*
X3736936Y7163114D01*
X3738273Y7162833D01*
X3739751Y7162551D01*
X3741228Y7162199D01*
X3742776Y7161777D01*
X3744394Y7161285D01*
X3745942Y7160651D01*
X3747490Y7159877D01*
X3749038Y7159104D01*
X3750515Y7158119D01*
X3750586Y7158048D01*
X3750867Y7157907D01*
X3751219Y7157556D01*
X3751712Y7157134D01*
X3752345Y7156571D01*
X3753048Y7155937D01*
X3753822Y7155163D01*
X3754667Y7154319D01*
X3755511Y7153334D01*
X3756426Y7152279D01*
X3757270Y7151083D01*
X3758114Y7149746D01*
X3758958Y7148409D01*
X3759732Y7146932D01*
X3760436Y7145384D01*
X3761069Y7143695D01*
Y7143625D01*
X3761210Y7143273D01*
X3761351Y7142780D01*
X3761562Y7142147D01*
X3761773Y7141303D01*
X3762054Y7140318D01*
X3762265Y7139192D01*
X3762547Y7137926D01*
X3762828Y7136589D01*
X3763110Y7135111D01*
X3763391Y7133564D01*
X3763602Y7131945D01*
X3763954Y7128568D01*
X3764024Y7126809D01*
X3764095Y7124980D01*
Y7124839D01*
Y7124417D01*
Y7123784D01*
X3764024Y7122869D01*
X3763954Y7121814D01*
X3763884Y7120547D01*
X3763813Y7119140D01*
X3763672Y7117663D01*
X3763461Y7115974D01*
X3763250Y7114215D01*
X3762547Y7110627D01*
X3762195Y7108727D01*
X3761702Y7106898D01*
X3761140Y7105069D01*
X3760506Y7103310D01*
X3760436Y7103239D01*
X3760366Y7102887D01*
X3760155Y7102465D01*
X3759803Y7101832D01*
X3759451Y7101058D01*
X3758958Y7100144D01*
X3758396Y7099159D01*
X3757762Y7098103D01*
X3756988Y7097048D01*
X3756144Y7095922D01*
X3755229Y7094726D01*
X3754244Y7093600D01*
X3753119Y7092475D01*
X3751923Y7091419D01*
X3750656Y7090434D01*
X3749249Y7089519D01*
X3749179Y7089449D01*
X3748897Y7089308D01*
X3748475Y7089097D01*
X3747912Y7088816D01*
X3747209Y7088464D01*
X3746364Y7088042D01*
X3745379Y7087690D01*
X3744324Y7087268D01*
X3743128Y7086776D01*
X3741861Y7086424D01*
X3740454Y7086002D01*
X3739047Y7085650D01*
X3737499Y7085368D01*
X3735951Y7085157D01*
X3734333Y7085017D01*
X3732715Y7084946D01*
X3732222D01*
X3731660Y7085017D01*
X3730886D01*
X3729971Y7085157D01*
X3728916Y7085298D01*
X3727649Y7085439D01*
X3726383Y7085720D01*
X3724976Y7086072D01*
X3723498Y7086494D01*
X3721950Y7086987D01*
X3720402Y7087549D01*
X3718854Y7088253D01*
X3717307Y7089097D01*
X3715829Y7090082D01*
X3714351Y7091138D01*
X3714281Y7091208D01*
X3714000Y7091419D01*
X3713648Y7091771D01*
X3713155Y7092334D01*
X3712522Y7092967D01*
X3711819Y7093741D01*
X3711045Y7094726D01*
X3710271Y7095781D01*
X3709426Y7097048D01*
X3708582Y7098385D01*
X3707667Y7099932D01*
X3706894Y7101621D01*
X3706049Y7103380D01*
X3705346Y7105350D01*
X3704712Y7107390D01*
X3704150Y7109642D01*
X3691274Y7106405D01*
Y7106335D01*
X3691344Y7106194D01*
X3691415Y7105983D01*
X3691485Y7105702D01*
X3691555Y7105350D01*
X3691696Y7104858D01*
X3692048Y7103802D01*
X3692540Y7102465D01*
X3693103Y7100988D01*
X3693807Y7099299D01*
X3694651Y7097470D01*
X3695566Y7095500D01*
X3696621Y7093530D01*
X3697817Y7091560D01*
X3699154Y7089519D01*
X3700632Y7087549D01*
X3702250Y7085650D01*
X3704009Y7083891D01*
X3705909Y7082202D01*
X3706049Y7082132D01*
X3706401Y7081850D01*
X3706964Y7081428D01*
X3707808Y7080936D01*
X3708793Y7080303D01*
X3710060Y7079599D01*
X3711467Y7078825D01*
X3713085Y7078051D01*
X3714844Y7077277D01*
X3716814Y7076503D01*
X3718925Y7075800D01*
X3721176Y7075166D01*
X3723639Y7074674D01*
X3726172Y7074252D01*
X3728845Y7073970D01*
X3731660Y7073900D01*
X3732715D01*
X3733207Y7073970D01*
X3734263D01*
X3735600Y7074111D01*
X3737147Y7074252D01*
X3738906Y7074463D01*
X3740736Y7074674D01*
X3742776Y7075026D01*
X3744816Y7075448D01*
X3746998Y7076011D01*
X3749108Y7076574D01*
X3751219Y7077348D01*
X3753330Y7078192D01*
X3755370Y7079177D01*
X3757270Y7080303D01*
X3757411Y7080373D01*
X3757692Y7080584D01*
X3758185Y7081006D01*
X3758888Y7081499D01*
X3759732Y7082132D01*
X3760647Y7082976D01*
X3761702Y7083891D01*
X3762828Y7085017D01*
X3764024Y7086283D01*
X3765220Y7087620D01*
X3766487Y7089168D01*
X3767753Y7090786D01*
X3768949Y7092615D01*
X3770145Y7094515D01*
X3771271Y7096626D01*
X3772256Y7098807D01*
Y7098877D01*
X3772326Y7098947D01*
X3772467Y7099370D01*
X3772749Y7100003D01*
X3773030Y7100917D01*
X3773452Y7102043D01*
X3773874Y7103380D01*
X3774367Y7104928D01*
X3774789Y7106616D01*
X3775282Y7108516D01*
X3775774Y7110557D01*
X3776196Y7112667D01*
X3776618Y7114989D01*
X3776900Y7117311D01*
X3777181Y7119773D01*
X3777322Y7122306D01*
X3777392Y7124910D01*
Y7125965D01*
X3777322Y7126387D01*
Y7127442D01*
X3777181Y7128779D01*
X3777111Y7130327D01*
X3776900Y7132086D01*
X3776689Y7133986D01*
X3776337Y7135956D01*
X3775985Y7138066D01*
X3775493Y7140318D01*
X3774930Y7142569D01*
X3774296Y7144821D01*
X3773523Y7147072D01*
X3772608Y7149253D01*
X3771623Y7151435D01*
X3771553Y7151575D01*
X3771341Y7151927D01*
X3770990Y7152490D01*
X3770568Y7153334D01*
X3769934Y7154249D01*
X3769231Y7155304D01*
X3768316Y7156571D01*
X3767331Y7157837D01*
X3766276Y7159174D01*
X3765009Y7160651D01*
X3763672Y7162059D01*
X3762195Y7163466D01*
X3760577Y7164873D01*
X3758888Y7166210D01*
X3757059Y7167476D01*
X3755089Y7168672D01*
X3754948Y7168743D01*
X3754596Y7168954D01*
X3754033Y7169235D01*
X3753189Y7169587D01*
X3752204Y7170079D01*
X3751008Y7170572D01*
X3749601Y7171064D01*
X3748123Y7171627D01*
X3746435Y7172190D01*
X3744605Y7172683D01*
X3742635Y7173245D01*
X3740595Y7173668D01*
X3738414Y7174019D01*
X3736162Y7174301D01*
X3733841Y7174512D01*
X3731448Y7174582D01*
D02*
G37*
G36*
X3955046Y7172894D02*
X3915998D01*
X3915012Y7172823D01*
X3914027D01*
X3912902Y7172753D01*
X3910510Y7172683D01*
X3908047Y7172472D01*
X3905655Y7172260D01*
X3904529Y7172049D01*
X3903544Y7171909D01*
X3903474D01*
X3903192Y7171838D01*
X3902841Y7171768D01*
X3902348Y7171698D01*
X3901715Y7171557D01*
X3901011Y7171346D01*
X3900237Y7171135D01*
X3899323Y7170924D01*
X3897423Y7170290D01*
X3895453Y7169446D01*
X3893413Y7168532D01*
X3891513Y7167335D01*
X3891443Y7167265D01*
X3891302Y7167195D01*
X3891020Y7166984D01*
X3890739Y7166702D01*
X3890317Y7166421D01*
X3889824Y7165999D01*
X3889261Y7165506D01*
X3888699Y7164943D01*
X3888136Y7164310D01*
X3887503Y7163606D01*
X3886166Y7161988D01*
X3884899Y7160089D01*
X3883703Y7157978D01*
X3883633Y7157907D01*
X3883562Y7157696D01*
X3883422Y7157345D01*
X3883211Y7156922D01*
X3883000Y7156360D01*
X3882789Y7155656D01*
X3882507Y7154882D01*
X3882226Y7154038D01*
X3881944Y7153123D01*
X3881663Y7152068D01*
X3881452Y7151012D01*
X3881241Y7149816D01*
X3880889Y7147354D01*
X3880748Y7144680D01*
Y7144117D01*
X3880819Y7143484D01*
X3880889Y7142640D01*
X3880959Y7141514D01*
X3881170Y7140318D01*
X3881381Y7138911D01*
X3881733Y7137433D01*
X3882155Y7135815D01*
X3882718Y7134126D01*
X3883351Y7132367D01*
X3884125Y7130609D01*
X3885040Y7128850D01*
X3886095Y7127091D01*
X3887291Y7125332D01*
X3888699Y7123713D01*
X3888769Y7123643D01*
X3889050Y7123362D01*
X3889543Y7122940D01*
X3890246Y7122377D01*
X3891161Y7121743D01*
X3892287Y7120970D01*
X3893624Y7120196D01*
X3895242Y7119422D01*
X3897071Y7118648D01*
X3899112Y7117874D01*
X3901504Y7117100D01*
X3904037Y7116467D01*
X3906921Y7115904D01*
X3908469Y7115693D01*
X3910087Y7115482D01*
X3911776Y7115341D01*
X3913535Y7115200D01*
X3915364Y7115130D01*
X3942171D01*
Y7075518D01*
X3955046D01*
Y7172894D01*
D02*
G37*
G36*
X3837548D02*
X3823758D01*
X3783936Y7075518D01*
X3798570D01*
X3809827Y7104998D01*
X3850705D01*
X3861329Y7075518D01*
X3874908D01*
X3837548Y7172894D01*
D02*
G37*
%LPD*%
G36*
X3942171Y7126598D02*
X3915857D01*
X3915012Y7126668D01*
X3914027Y7126739D01*
X3912831Y7126880D01*
X3911565Y7127020D01*
X3910158Y7127161D01*
X3907273Y7127724D01*
X3905796Y7128076D01*
X3904318Y7128568D01*
X3902911Y7129061D01*
X3901574Y7129694D01*
X3900378Y7130397D01*
X3899323Y7131242D01*
X3899252Y7131312D01*
X3899112Y7131453D01*
X3898830Y7131734D01*
X3898478Y7132086D01*
X3898127Y7132579D01*
X3897634Y7133141D01*
X3897142Y7133845D01*
X3896649Y7134619D01*
X3896157Y7135534D01*
X3895734Y7136448D01*
X3895242Y7137574D01*
X3894890Y7138700D01*
X3894538Y7139966D01*
X3894257Y7141373D01*
X3894116Y7142780D01*
X3894046Y7144328D01*
Y7144399D01*
Y7144610D01*
Y7144891D01*
X3894116Y7145384D01*
Y7145876D01*
X3894187Y7146509D01*
X3894327Y7147213D01*
X3894398Y7147917D01*
X3894820Y7149535D01*
X3895383Y7151294D01*
X3896086Y7153053D01*
X3896579Y7153897D01*
X3897142Y7154741D01*
Y7154812D01*
X3897282Y7154952D01*
X3897493Y7155163D01*
X3897704Y7155445D01*
X3898408Y7156219D01*
X3899323Y7157134D01*
X3900519Y7158048D01*
X3901856Y7159033D01*
X3903474Y7159877D01*
X3905303Y7160511D01*
X3905373D01*
X3905444Y7160581D01*
X3905655D01*
X3905936Y7160651D01*
X3906288Y7160722D01*
X3906781Y7160792D01*
X3907343Y7160862D01*
X3908047Y7161003D01*
X3908821Y7161074D01*
X3909665Y7161144D01*
X3910650Y7161214D01*
X3911776Y7161285D01*
X3912972Y7161355D01*
X3914309D01*
X3915716Y7161425D01*
X3942171D01*
Y7126598D01*
D02*
G37*
G36*
X3831005Y7162551D02*
X3831075Y7162270D01*
X3831216Y7161777D01*
X3831357Y7161074D01*
X3831568Y7160229D01*
X3831779Y7159244D01*
X3832060Y7158119D01*
X3832342Y7156852D01*
X3832764Y7155445D01*
X3833116Y7153967D01*
X3833538Y7152490D01*
X3834030Y7150872D01*
X3835086Y7147494D01*
X3836282Y7144047D01*
X3846976Y7115482D01*
X3813908D01*
X3824110Y7142429D01*
Y7142499D01*
X3824180Y7142569D01*
X3824321Y7142992D01*
X3824532Y7143625D01*
X3824884Y7144469D01*
X3825236Y7145524D01*
X3825728Y7146721D01*
X3826150Y7148128D01*
X3826713Y7149605D01*
X3827276Y7151153D01*
X3827839Y7152771D01*
X3828965Y7156149D01*
X3830090Y7159526D01*
X3830583Y7161144D01*
X3831005Y7162692D01*
Y7162551D01*
D02*
G37*
%LPC*%
G36*
X3487131Y8637522D02*
X3486779D01*
X3485372Y8637452D01*
X3484035Y8637241D01*
X3482698Y8636959D01*
X3481502Y8636608D01*
X3480306Y8636115D01*
X3479251Y8635623D01*
X3478266Y8635060D01*
X3477351Y8634497D01*
X3476507Y8633934D01*
X3475733Y8633371D01*
X3475100Y8632879D01*
X3474607Y8632386D01*
X3474185Y8632034D01*
X3473904Y8631753D01*
X3473693Y8631542D01*
X3473622Y8631471D01*
X3472637Y8630275D01*
X3471793Y8629009D01*
X3471089Y8627742D01*
X3470456Y8626406D01*
X3469893Y8624998D01*
X3469471Y8623662D01*
X3469119Y8622325D01*
X3468838Y8621058D01*
X3468627Y8619862D01*
X3468416Y8618737D01*
X3468275Y8617752D01*
X3468205Y8616837D01*
X3468134Y8616133D01*
Y8615571D01*
Y8615289D01*
Y8615148D01*
X3468205Y8613249D01*
X3468345Y8611490D01*
X3468627Y8609872D01*
X3468979Y8608324D01*
X3469401Y8606846D01*
X3469823Y8605509D01*
X3470315Y8604313D01*
X3470808Y8603258D01*
X3471300Y8602273D01*
X3471793Y8601429D01*
X3472215Y8600725D01*
X3472637Y8600092D01*
X3472989Y8599670D01*
X3473270Y8599318D01*
X3473411Y8599107D01*
X3473481Y8599036D01*
X3474537Y8598051D01*
X3475592Y8597137D01*
X3476718Y8596363D01*
X3477844Y8595730D01*
X3479040Y8595167D01*
X3480166Y8594674D01*
X3481221Y8594322D01*
X3482276Y8593971D01*
X3483332Y8593760D01*
X3484246Y8593548D01*
X3485020Y8593478D01*
X3485724Y8593337D01*
X3486357D01*
X3486779Y8593267D01*
X3487131D01*
X3488679Y8593337D01*
X3490086Y8593548D01*
X3491493Y8593830D01*
X3492830Y8594182D01*
X3494026Y8594604D01*
X3495152Y8595096D01*
X3496207Y8595589D01*
X3497192Y8596152D01*
X3498036Y8596715D01*
X3498810Y8597207D01*
X3499444Y8597700D01*
X3500006Y8598122D01*
X3500429Y8598474D01*
X3500710Y8598825D01*
X3500921Y8598966D01*
X3500991Y8599036D01*
X3501976Y8600162D01*
X3502821Y8601358D01*
X3503595Y8602625D01*
X3504228Y8603891D01*
X3504720Y8605158D01*
X3505213Y8606424D01*
X3505565Y8607620D01*
X3505846Y8608816D01*
X3506057Y8609872D01*
X3506268Y8610927D01*
X3506409Y8611842D01*
X3506479Y8612615D01*
Y8613249D01*
X3506550Y8613741D01*
Y8614093D01*
Y8614163D01*
X3506479Y8616063D01*
X3506268Y8617892D01*
X3505987Y8619581D01*
X3505635Y8621129D01*
X3505213Y8622677D01*
X3504720Y8624013D01*
X3504158Y8625280D01*
X3503595Y8626476D01*
X3503102Y8627461D01*
X3502539Y8628376D01*
X3502047Y8629150D01*
X3501625Y8629783D01*
X3501273Y8630346D01*
X3500991Y8630697D01*
X3500780Y8630909D01*
X3500710Y8630979D01*
X3499584Y8632105D01*
X3498388Y8633160D01*
X3497263Y8634004D01*
X3496066Y8634778D01*
X3494870Y8635411D01*
X3493674Y8635904D01*
X3492619Y8636326D01*
X3491493Y8636678D01*
X3490508Y8636959D01*
X3489593Y8637170D01*
X3488820Y8637311D01*
X3488116Y8637452D01*
X3487553D01*
X3487131Y8637522D01*
D02*
G37*
G36*
X4454497Y6086164D02*
X4453618Y6086133D01*
X4452807Y6086028D01*
X4452062Y6085851D01*
X4451422Y6085668D01*
X4450886Y6085446D01*
X4450637Y6085352D01*
X4450457Y6085255D01*
X4450312Y6085156D01*
X4450205Y6085125D01*
X4450132Y6085059D01*
X4450098Y6085060D01*
X4449374Y6084566D01*
X4448752Y6083997D01*
X4448234Y6083388D01*
X4447786Y6082776D01*
X4447446Y6082230D01*
X4447332Y6082024D01*
X4447218Y6081819D01*
X4447140Y6081647D01*
X4447064Y6081510D01*
X4447025Y6081441D01*
X4447024Y6081406D01*
X4446862Y6080923D01*
X4446701Y6080438D01*
X4446441Y6079327D01*
X4446215Y6078179D01*
X4446062Y6077098D01*
X4446004Y6076575D01*
X4445948Y6076121D01*
X4445928Y6075666D01*
X4445878Y6075317D01*
X4445238Y6060820D01*
X4461241Y6060113D01*
X4461917Y6075416D01*
X4461925Y6076398D01*
X4461895Y6077311D01*
X4461827Y6078157D01*
X4461721Y6078933D01*
X4461577Y6079641D01*
X4461431Y6080314D01*
X4461247Y6080919D01*
X4461059Y6081418D01*
X4460869Y6081883D01*
X4460676Y6082277D01*
X4460516Y6082635D01*
X4460354Y6082923D01*
X4460221Y6083104D01*
X4460124Y6083284D01*
X4460057Y6083357D01*
X4460023Y6083394D01*
X4459623Y6083868D01*
X4459185Y6084273D01*
X4458744Y6084608D01*
X4458267Y6084945D01*
X4457823Y6085210D01*
X4457341Y6085407D01*
X4456893Y6085602D01*
X4456479Y6085761D01*
X4456063Y6085884D01*
X4455681Y6085972D01*
X4455369Y6086055D01*
X4455056Y6086104D01*
X4454812Y6086150D01*
X4454637Y6086158D01*
X4454532Y6086163D01*
X4454497Y6086164D01*
D02*
G37*
G36*
X5454949Y6166540D02*
X5454799Y6151223D01*
X5454825Y6150241D01*
X5454886Y6149329D01*
X5454983Y6148487D01*
X5455116Y6147714D01*
X5455284Y6147012D01*
X5455453Y6146344D01*
X5455657Y6145746D01*
X5455863Y6145253D01*
X5456069Y6144796D01*
X5456275Y6144408D01*
X5456447Y6144056D01*
X5456620Y6143774D01*
X5456758Y6143597D01*
X5456861Y6143421D01*
X5456931Y6143350D01*
X5456965Y6143315D01*
X5457382Y6142855D01*
X5457833Y6142465D01*
X5458286Y6142145D01*
X5458774Y6141825D01*
X5459227Y6141575D01*
X5459716Y6141395D01*
X5460170Y6141215D01*
X5460589Y6141071D01*
X5461009Y6140962D01*
X5461393Y6140888D01*
X5461708Y6140814D01*
X5462023Y6140776D01*
X5462268Y6140739D01*
X5462444Y6140737D01*
X5462549Y6140736D01*
X5462584Y6140736D01*
X5463461Y6140797D01*
X5464268Y6140930D01*
X5465006Y6141133D01*
X5465639Y6141337D01*
X5466168Y6141577D01*
X5466414Y6141680D01*
X5466590Y6141783D01*
X5466732Y6141887D01*
X5466837Y6141921D01*
X5466908Y6141991D01*
X5466943Y6141990D01*
X5467649Y6142509D01*
X5468251Y6143099D01*
X5468748Y6143725D01*
X5469174Y6144352D01*
X5469495Y6144910D01*
X5469602Y6145119D01*
X5469710Y6145328D01*
X5469782Y6145503D01*
X5469853Y6145642D01*
X5469889Y6145712D01*
X5469889Y6145747D01*
X5470034Y6146236D01*
X5470179Y6146726D01*
X5470400Y6147845D01*
X5470587Y6149000D01*
X5470703Y6150086D01*
X5470743Y6150611D01*
X5470782Y6151066D01*
X5470787Y6151522D01*
X5470825Y6151872D01*
X5470967Y6166383D01*
X5454949Y6166540D01*
D02*
G37*
%LPD*%
D41*
X3576800Y8084800D02*
G03*
X3576800Y8084800I-12500J0D01*
G01*
D43*
X3439800Y8439800D02*
X3501800D01*
Y5926800D02*
Y8439800D01*
X2876800Y5926800D02*
X2888800D01*
X3489800D02*
X3501800D01*
X2876800D02*
Y8195800D01*
D44*
X5381047Y5875600D02*
Y6345500D01*
X4555547Y5875600D02*
Y6345500D01*
X4352347Y5875600D02*
Y6345500D01*
X3526847Y5875600D02*
Y6345500D01*
D45*
X6443099Y7323700D02*
X6358460Y7239060D01*
Y7323700D02*
X6443099Y7239060D01*
X6400779Y7323700D02*
Y7239060D01*
X6358460Y7281380D02*
X6443099D01*
X7052699Y7321900D02*
X6968060Y7237261D01*
Y7321900D02*
X7052699Y7237261D01*
X7010379Y7321900D02*
Y7237261D01*
X6968060Y7279580D02*
X7052699D01*
X7662299Y7321550D02*
X7577660Y7236911D01*
Y7321550D02*
X7662299Y7236911D01*
X7619979Y7321550D02*
Y7236911D01*
X7577660Y7279230D02*
X7662299D01*
%TF.MD5,21b05610d8c6e90c4fffb097a6dafffb*%
M02*
