%TF.GenerationSoftware,Altium Limited,Altium Designer,23.2.1 (34)*%
G04 Layer_Color=8388736*
%FSLAX45Y45*%
%MOMM*%
%TF.SameCoordinates,A6D216B9-5917-482B-AEBE-4AF022C6986F*%
%TF.FilePolarity,Negative*%
%TF.FileFunction,Soldermask,Top*%
%TF.Part,Single*%
G01*
G75*
%TA.AperFunction,SMDPad,CuDef*%
%ADD11R,0.23000X0.70000*%
%ADD12R,0.50000X0.85001*%
%ADD13R,0.60000X0.80000*%
%ADD16R,0.75000X0.90000*%
G04:AMPARAMS|DCode=18|XSize=1.1mm|YSize=0.6mm|CornerRadius=0.051mm|HoleSize=0mm|Usage=FLASHONLY|Rotation=180.000|XOffset=0mm|YOffset=0mm|HoleType=Round|Shape=RoundedRectangle|*
%AMROUNDEDRECTD18*
21,1,1.10000,0.49800,0,0,180.0*
21,1,0.99800,0.60000,0,0,180.0*
1,1,0.10200,-0.49900,0.24900*
1,1,0.10200,0.49900,0.24900*
1,1,0.10200,0.49900,-0.24900*
1,1,0.10200,-0.49900,-0.24900*
%
%ADD18ROUNDEDRECTD18*%
%ADD21R,0.65000X1.45000*%
%ADD25R,1.40000X1.39000*%
%ADD26R,4.86000X3.36000*%
%TA.AperFunction,ComponentPad*%
%ADD32R,1.57000X1.57000*%
%ADD36C,1.30000*%
%TA.AperFunction,SMDPad,CuDef*%
%ADD47R,1.00320X1.10320*%
%ADD48R,1.10320X0.90320*%
%ADD49R,1.20320X1.10320*%
%ADD50R,0.90320X1.10320*%
%ADD51R,2.20320X2.20320*%
%ADD52R,2.35320X5.70320*%
%ADD53R,1.60320X1.30320*%
%ADD54R,1.15320X1.00320*%
%ADD55R,1.10320X1.20320*%
%TA.AperFunction,ComponentPad*%
%ADD56C,6.30320*%
%ADD57C,3.00320*%
%ADD58C,3.70320*%
%TA.AperFunction,ViaPad*%
%ADD59C,0.96520*%
%ADD60C,1.47320*%
G36*
X5977100Y7008100D02*
X6418100D01*
Y6553100D01*
X5977100D01*
Y7008100D01*
D02*
G37*
G36*
X6586700Y7006300D02*
X7027700D01*
Y6551300D01*
X6586700D01*
Y7006300D01*
D02*
G37*
G36*
X7196300Y7005950D02*
X7637300D01*
Y6550950D01*
X7196300D01*
Y7005950D01*
D02*
G37*
G36*
X10596880Y7995600D02*
Y7923530D01*
X10434320D01*
Y7955600D01*
Y7995600D01*
Y8027670D01*
X10596880D01*
Y7995600D01*
D02*
G37*
G36*
X11069510Y8450658D02*
X11070568Y8450482D01*
X11071802Y8449953D01*
X11073212Y8449424D01*
X11074623Y8448543D01*
X11075856Y8447485D01*
X11076033Y8447309D01*
X11076385Y8446956D01*
X11076914Y8446251D01*
X11077619Y8445194D01*
X11078148Y8443960D01*
X11078677Y8442726D01*
X11079029Y8441139D01*
X11079206Y8439377D01*
Y8439200D01*
Y8438671D01*
X11079029Y8437790D01*
X11078853Y8436732D01*
X11078324Y8435498D01*
X11077795Y8434088D01*
X11076914Y8432678D01*
X11075856Y8431444D01*
X11075680Y8431268D01*
X11075328Y8430915D01*
X11074623Y8430386D01*
X11073565Y8429858D01*
X11072331Y8429153D01*
X11071097Y8428624D01*
X11069510Y8428271D01*
X11067748Y8428095D01*
X11067043D01*
X11066161Y8428271D01*
X11065104Y8428447D01*
X11063870Y8428976D01*
X11062459Y8429505D01*
X11061049Y8430386D01*
X11059815Y8431444D01*
X11059639Y8431620D01*
X11059286Y8431973D01*
X11058758Y8432678D01*
X11058229Y8433736D01*
X11057524Y8434793D01*
X11056995Y8436204D01*
X11056642Y8437790D01*
X11056466Y8439377D01*
Y8439553D01*
Y8440258D01*
X11056642Y8441139D01*
X11056819Y8442197D01*
X11057171Y8443431D01*
X11057876Y8444841D01*
X11058581Y8446251D01*
X11059639Y8447485D01*
X11059815Y8447662D01*
X11060168Y8448014D01*
X11060873Y8448543D01*
X11061931Y8449248D01*
X11063165Y8449777D01*
X11064398Y8450306D01*
X11065985Y8450658D01*
X11067748Y8450835D01*
X11068629D01*
X11069510Y8450658D01*
D02*
G37*
G36*
X11443921Y8397070D02*
X11445331Y8396718D01*
X11447094Y8396365D01*
X11448680Y8395660D01*
X11450443Y8394602D01*
X11452029Y8393369D01*
X11452206Y8393192D01*
X11452735Y8392663D01*
X11453263Y8391958D01*
X11454145Y8390901D01*
X11454850Y8389667D01*
X11455379Y8388257D01*
X11455907Y8386494D01*
X11456084Y8384731D01*
Y8384555D01*
Y8384026D01*
X11455907Y8383321D01*
X11455731Y8382263D01*
X11455379Y8381029D01*
X11454850Y8379972D01*
X11454145Y8378738D01*
X11453087Y8377504D01*
X11452911Y8377327D01*
X11452558Y8376975D01*
X11452029Y8376622D01*
X11451148Y8376093D01*
X11450090Y8375388D01*
X11449033Y8375036D01*
X11447623Y8374683D01*
X11446212Y8374507D01*
X11445507D01*
X11444802Y8374683D01*
X11443744Y8375036D01*
X11442334Y8375388D01*
X11440924Y8376093D01*
X11439161Y8376975D01*
X11437399Y8378209D01*
X11437222Y8378385D01*
X11436693Y8378738D01*
X11435812Y8379443D01*
X11434754Y8380148D01*
X11433520Y8380853D01*
X11432287Y8381558D01*
X11431229Y8381911D01*
X11430171Y8382087D01*
X11429819D01*
X11428937Y8381734D01*
X11427527Y8381205D01*
X11426646Y8380500D01*
X11425764Y8379795D01*
X11425588Y8379619D01*
X11424883Y8378914D01*
X11424002Y8377856D01*
X11422591Y8376270D01*
X11421181Y8374154D01*
X11419418Y8371510D01*
X11417479Y8368514D01*
X11415540Y8364812D01*
Y8315631D01*
Y8315455D01*
Y8315278D01*
Y8314221D01*
X11415717Y8312634D01*
X11415893Y8310695D01*
X11416069Y8308580D01*
X11416422Y8306464D01*
X11416950Y8304349D01*
X11417656Y8302586D01*
Y8302410D01*
X11418008Y8302058D01*
X11418361Y8301529D01*
X11418890Y8300824D01*
X11419595Y8300119D01*
X11420476Y8299237D01*
X11421534Y8298356D01*
X11422768Y8297651D01*
X11422944D01*
X11423473Y8297298D01*
X11424354Y8297122D01*
X11425588Y8296769D01*
X11426998Y8296417D01*
X11428937Y8296064D01*
X11431053Y8295888D01*
X11433520Y8295712D01*
Y8291657D01*
X11380990D01*
Y8295712D01*
X11382224D01*
X11383634Y8295888D01*
X11385397Y8296064D01*
X11389099Y8296769D01*
X11390862Y8297298D01*
X11392448Y8298003D01*
X11392624Y8298179D01*
X11392977Y8298356D01*
X11393330Y8298885D01*
X11394035Y8299413D01*
X11394563Y8300295D01*
X11395269Y8301352D01*
X11395797Y8302410D01*
X11396326Y8303820D01*
Y8303997D01*
X11396502Y8304349D01*
Y8304878D01*
X11396679Y8305936D01*
X11396855Y8307346D01*
Y8309285D01*
X11397031Y8311753D01*
Y8314749D01*
Y8354588D01*
Y8354764D01*
Y8355293D01*
Y8356174D01*
Y8357408D01*
Y8358818D01*
Y8360405D01*
X11396855Y8363930D01*
Y8367632D01*
X11396679Y8370981D01*
X11396502Y8372568D01*
Y8373802D01*
X11396326Y8375036D01*
X11396150Y8375741D01*
Y8375917D01*
X11395974Y8376270D01*
X11395797Y8376975D01*
X11395621Y8377680D01*
X11394740Y8379266D01*
X11393506Y8380677D01*
X11393153Y8380853D01*
X11392096Y8381558D01*
X11390685Y8382087D01*
X11388570Y8382263D01*
X11387336D01*
X11386278Y8382087D01*
X11385221Y8381911D01*
X11383811Y8381558D01*
X11380814Y8380677D01*
X11379756Y8384731D01*
X11410781Y8397247D01*
X11415540D01*
Y8374154D01*
X11415717Y8374507D01*
X11416069Y8375212D01*
X11416774Y8376270D01*
X11417656Y8377856D01*
X11418890Y8379443D01*
X11420300Y8381382D01*
X11421886Y8383497D01*
X11423649Y8385789D01*
X11427527Y8390019D01*
X11429642Y8391958D01*
X11431934Y8393721D01*
X11434402Y8395131D01*
X11436870Y8396189D01*
X11439338Y8397070D01*
X11441805Y8397247D01*
X11442863D01*
X11443921Y8397070D01*
D02*
G37*
G36*
X11157648D02*
X11158882D01*
X11160469Y8396894D01*
X11163818Y8396189D01*
X11167873Y8395308D01*
X11171927Y8393897D01*
X11175981Y8391782D01*
X11177920Y8390548D01*
X11179859Y8389138D01*
X11180036D01*
X11180212Y8388785D01*
X11181446Y8387728D01*
X11183032Y8386141D01*
X11184795Y8384026D01*
X11186558Y8381558D01*
X11188144Y8378738D01*
X11189378Y8375741D01*
X11189554Y8374154D01*
X11189731Y8372568D01*
Y8372392D01*
Y8371863D01*
X11189554Y8370981D01*
X11189378Y8370100D01*
X11189026Y8368866D01*
X11188497Y8367809D01*
X11187792Y8366575D01*
X11186910Y8365517D01*
X11186734Y8365341D01*
X11186381Y8365164D01*
X11185853Y8364812D01*
X11184971Y8364283D01*
X11183914Y8363754D01*
X11182503Y8363402D01*
X11181093Y8363225D01*
X11179330Y8363049D01*
X11178273D01*
X11177039Y8363225D01*
X11175629Y8363578D01*
X11174042Y8364107D01*
X11172279Y8364812D01*
X11170869Y8365869D01*
X11169459Y8367280D01*
Y8367456D01*
X11169106Y8367809D01*
X11168754Y8368337D01*
X11168401Y8369219D01*
X11167873Y8370453D01*
X11167344Y8372039D01*
X11166991Y8373978D01*
X11166639Y8376270D01*
Y8376622D01*
X11166462Y8377327D01*
X11166286Y8378561D01*
X11165933Y8380148D01*
X11165405Y8381734D01*
X11164523Y8383497D01*
X11163466Y8385084D01*
X11162232Y8386494D01*
X11162055Y8386670D01*
X11161527Y8387023D01*
X11160645Y8387551D01*
X11159411Y8388257D01*
X11157825Y8388962D01*
X11156062Y8389490D01*
X11153947Y8389843D01*
X11151479Y8390019D01*
X11150421D01*
X11149540Y8389843D01*
X11147601Y8389667D01*
X11144957Y8388962D01*
X11142136Y8387904D01*
X11139140Y8386494D01*
X11136143Y8384378D01*
X11134733Y8382968D01*
X11133499Y8381558D01*
X11133322Y8381382D01*
X11133146Y8381029D01*
X11132617Y8380500D01*
X11132088Y8379619D01*
X11131383Y8378561D01*
X11130678Y8377151D01*
X11129797Y8375565D01*
X11129092Y8373802D01*
X11128210Y8371863D01*
X11127329Y8369748D01*
X11126624Y8367280D01*
X11125919Y8364636D01*
X11125390Y8361991D01*
X11124861Y8358995D01*
X11124685Y8355822D01*
X11124509Y8352473D01*
Y8352296D01*
Y8351591D01*
Y8350710D01*
X11124685Y8349476D01*
X11124861Y8347713D01*
X11125037Y8345950D01*
X11125214Y8343835D01*
X11125566Y8341543D01*
X11126624Y8336431D01*
X11128387Y8331143D01*
X11129268Y8328323D01*
X11130502Y8325502D01*
X11131912Y8322682D01*
X11133499Y8320038D01*
X11133675Y8319861D01*
X11133851Y8319509D01*
X11134380Y8318804D01*
X11135085Y8317922D01*
X11136143Y8316688D01*
X11137200Y8315631D01*
X11138434Y8314221D01*
X11139845Y8312987D01*
X11141607Y8311753D01*
X11143370Y8310343D01*
X11147601Y8308227D01*
X11149892Y8307170D01*
X11152360Y8306464D01*
X11155004Y8306112D01*
X11157825Y8305936D01*
X11158882D01*
X11159764Y8306112D01*
X11160645D01*
X11161703Y8306288D01*
X11164347Y8306817D01*
X11167520Y8307698D01*
X11170693Y8309109D01*
X11174218Y8310871D01*
X11177568Y8313339D01*
X11177920Y8313516D01*
X11178625Y8314397D01*
X11179859Y8315631D01*
X11181269Y8317570D01*
X11183209Y8320214D01*
X11184090Y8321800D01*
X11185148Y8323387D01*
X11186205Y8325326D01*
X11187263Y8327441D01*
X11188497Y8329733D01*
X11189554Y8332201D01*
X11192727Y8330614D01*
Y8330438D01*
X11192551Y8329733D01*
X11192199Y8328675D01*
X11191846Y8327265D01*
X11191317Y8325502D01*
X11190788Y8323563D01*
X11189907Y8321448D01*
X11189026Y8318980D01*
X11186910Y8314044D01*
X11184090Y8308756D01*
X11180564Y8303644D01*
X11178449Y8301352D01*
X11176334Y8299237D01*
X11176157Y8299061D01*
X11175805Y8298708D01*
X11175100Y8298179D01*
X11174218Y8297651D01*
X11173161Y8296769D01*
X11171751Y8295888D01*
X11170164Y8294830D01*
X11168578Y8293949D01*
X11164523Y8291834D01*
X11160116Y8290247D01*
X11157648Y8289542D01*
X11155004Y8289013D01*
X11152360Y8288661D01*
X11149716Y8288484D01*
X11149011D01*
X11147953Y8288661D01*
X11146719D01*
X11145309Y8289013D01*
X11143546Y8289189D01*
X11141607Y8289718D01*
X11139316Y8290247D01*
X11137024Y8291128D01*
X11134556Y8292010D01*
X11132088Y8293244D01*
X11129444Y8294654D01*
X11126800Y8296417D01*
X11124332Y8298356D01*
X11121688Y8300471D01*
X11119220Y8303115D01*
X11119044Y8303291D01*
X11118692Y8303820D01*
X11117986Y8304702D01*
X11117281Y8305759D01*
X11116224Y8307346D01*
X11115166Y8309109D01*
X11113932Y8311224D01*
X11112874Y8313516D01*
X11111640Y8316336D01*
X11110407Y8319156D01*
X11109349Y8322506D01*
X11108291Y8326031D01*
X11107586Y8329909D01*
X11106881Y8333964D01*
X11106528Y8338194D01*
X11106352Y8342777D01*
Y8343130D01*
Y8343835D01*
X11106528Y8345069D01*
Y8346832D01*
X11106881Y8348771D01*
X11107057Y8351239D01*
X11107586Y8353883D01*
X11108115Y8356703D01*
X11108820Y8359876D01*
X11109878Y8363049D01*
X11110935Y8366222D01*
X11112346Y8369571D01*
X11113932Y8372921D01*
X11115871Y8376093D01*
X11118163Y8379090D01*
X11120631Y8382087D01*
X11120807Y8382263D01*
X11121336Y8382792D01*
X11122041Y8383497D01*
X11123098Y8384378D01*
X11124509Y8385612D01*
X11126271Y8386846D01*
X11128210Y8388257D01*
X11130326Y8389667D01*
X11132794Y8391077D01*
X11135261Y8392487D01*
X11138258Y8393721D01*
X11141255Y8394955D01*
X11144428Y8395836D01*
X11147953Y8396542D01*
X11151479Y8397070D01*
X11155181Y8397247D01*
X11156591D01*
X11157648Y8397070D01*
D02*
G37*
G36*
X11031964Y8439377D02*
X11031611D01*
X11030554Y8439024D01*
X11029143Y8438671D01*
X11027381Y8438143D01*
X11025441Y8437438D01*
X11023326Y8436556D01*
X11021387Y8435322D01*
X11019624Y8434088D01*
X11019448Y8433912D01*
X11018567Y8433031D01*
X11017509Y8431797D01*
X11016099Y8429858D01*
X11014512Y8427566D01*
X11012750Y8424569D01*
X11010987Y8421220D01*
X11009224Y8417166D01*
X10956341Y8288308D01*
X10952111D01*
X10895350Y8418929D01*
Y8419105D01*
X10895174Y8419457D01*
X10894997Y8419810D01*
X10894645Y8420515D01*
X10893940Y8422278D01*
X10892882Y8424217D01*
X10892001Y8426332D01*
X10890943Y8428447D01*
X10889885Y8430034D01*
X10889533Y8430739D01*
X10889180Y8431268D01*
X10889004Y8431444D01*
X10888651Y8431797D01*
X10888122Y8432502D01*
X10887241Y8433207D01*
X10886183Y8434088D01*
X10885126Y8435146D01*
X10882305Y8436732D01*
X10882129Y8436909D01*
X10881600Y8437085D01*
X10880719Y8437438D01*
X10879485Y8437790D01*
X10877898Y8438319D01*
X10875959Y8438671D01*
X10873668Y8439024D01*
X10871200Y8439377D01*
Y8443431D01*
X10933249D01*
Y8439377D01*
X10932720D01*
X10932191Y8439200D01*
X10931486D01*
X10929724Y8438848D01*
X10927608Y8438495D01*
X10925317Y8437966D01*
X10923025Y8437438D01*
X10921086Y8436556D01*
X10919500Y8435675D01*
X10919323Y8435498D01*
X10918971Y8435146D01*
X10918442Y8434617D01*
X10917913Y8433912D01*
X10917384Y8433031D01*
X10916855Y8431973D01*
X10916503Y8430563D01*
X10916327Y8429153D01*
Y8428976D01*
X10916503Y8428095D01*
X10916679Y8426685D01*
X10917032Y8424922D01*
X10917561Y8422454D01*
X10918618Y8419457D01*
X10919852Y8415932D01*
X10921615Y8411701D01*
X10960219Y8322682D01*
X10996180Y8410467D01*
Y8410644D01*
X10996356Y8410996D01*
X10996709Y8411701D01*
X10997061Y8412583D01*
X10997414Y8413640D01*
X10997766Y8414874D01*
X10998824Y8417695D01*
X10999705Y8420691D01*
X11000587Y8423688D01*
X11001115Y8426332D01*
X11001292Y8427566D01*
Y8428624D01*
Y8428800D01*
Y8429153D01*
X11001115Y8429858D01*
X11000939Y8430563D01*
X11000587Y8431444D01*
X10999881Y8432502D01*
X10999176Y8433736D01*
X10998119Y8434793D01*
X10997942Y8434970D01*
X10997590Y8435322D01*
X10996709Y8435851D01*
X10995651Y8436380D01*
X10994064Y8437085D01*
X10992125Y8437790D01*
X10989834Y8438495D01*
X10987190Y8439024D01*
X10986837D01*
X10986132Y8439200D01*
X10985251Y8439377D01*
Y8443431D01*
X11031964D01*
Y8439377D01*
D02*
G37*
G36*
X11866807Y8390196D02*
X11866631D01*
X11866102Y8390020D01*
X11865397D01*
X11864515Y8389843D01*
X11862400Y8389138D01*
X11860461Y8388257D01*
X11860285D01*
X11860108Y8388081D01*
X11859051Y8387199D01*
X11858169Y8386494D01*
X11857464Y8385613D01*
X11856583Y8384555D01*
X11855525Y8383321D01*
X11855349Y8382969D01*
X11854996Y8382440D01*
X11854644Y8381735D01*
X11854115Y8380501D01*
X11853410Y8379090D01*
X11852705Y8377151D01*
X11851647Y8374684D01*
X11809870Y8272443D01*
Y8272267D01*
X11809517Y8271738D01*
X11809341Y8271033D01*
X11808812Y8269976D01*
X11808107Y8268742D01*
X11807402Y8267331D01*
X11805639Y8264158D01*
X11803347Y8260457D01*
X11800703Y8256755D01*
X11797530Y8253229D01*
X11794005Y8250056D01*
X11793829D01*
X11793652Y8249704D01*
X11793123Y8249351D01*
X11792418Y8248822D01*
X11790479Y8247589D01*
X11788011Y8246178D01*
X11785191Y8244768D01*
X11782018Y8243534D01*
X11778669Y8242653D01*
X11776906Y8242477D01*
X11775143Y8242300D01*
X11774086D01*
X11772852Y8242477D01*
X11771442Y8242829D01*
X11769679Y8243182D01*
X11767916Y8243887D01*
X11766153Y8244944D01*
X11764390Y8246178D01*
X11764214Y8246355D01*
X11763685Y8246883D01*
X11762980Y8247589D01*
X11762275Y8248822D01*
X11761570Y8250056D01*
X11760865Y8251467D01*
X11760336Y8253229D01*
X11760160Y8254992D01*
Y8255168D01*
Y8255697D01*
X11760336Y8256579D01*
X11760512Y8257636D01*
X11760865Y8258870D01*
X11761394Y8260104D01*
X11762099Y8261338D01*
X11763157Y8262396D01*
X11763333Y8262572D01*
X11763685Y8262925D01*
X11764390Y8263277D01*
X11765272Y8263806D01*
X11766506Y8264335D01*
X11767916Y8264864D01*
X11769679Y8265040D01*
X11771618Y8265216D01*
X11772323D01*
X11773204Y8265040D01*
X11774262Y8264864D01*
X11775672Y8264687D01*
X11777435Y8264335D01*
X11779374Y8263630D01*
X11781666Y8262925D01*
X11781842D01*
X11782371Y8262748D01*
X11783252Y8262396D01*
X11784133Y8262219D01*
X11786072Y8261514D01*
X11786778Y8261338D01*
X11787835D01*
X11788540Y8261514D01*
X11789422Y8261867D01*
X11790479Y8262219D01*
X11791713Y8262748D01*
X11793123Y8263630D01*
X11794534Y8264864D01*
X11794710Y8265040D01*
X11795239Y8265569D01*
X11796120Y8266450D01*
X11797002Y8267860D01*
X11798235Y8269623D01*
X11799646Y8271915D01*
X11801056Y8274735D01*
X11802642Y8278084D01*
X11809870Y8295888D01*
X11773028Y8372921D01*
Y8373097D01*
X11772675Y8373626D01*
X11772323Y8374331D01*
X11771618Y8375389D01*
X11770913Y8376623D01*
X11770031Y8378209D01*
X11768797Y8379796D01*
X11767563Y8381735D01*
X11767387Y8381911D01*
X11767211Y8382440D01*
X11766682Y8382969D01*
X11765977Y8383850D01*
X11764567Y8385613D01*
X11763685Y8386318D01*
X11762980Y8387023D01*
X11762804D01*
X11762451Y8387375D01*
X11761923Y8387728D01*
X11761041Y8388081D01*
X11759807Y8388609D01*
X11758397Y8389138D01*
X11756811Y8389667D01*
X11754695Y8390196D01*
Y8394250D01*
X11802642D01*
Y8390196D01*
X11799469D01*
X11798588Y8390020D01*
X11797530Y8389843D01*
X11795063Y8389314D01*
X11793829Y8388609D01*
X11792771Y8387904D01*
X11792595Y8387728D01*
X11792418Y8387552D01*
X11792066Y8387023D01*
X11791537Y8386494D01*
X11790656Y8384731D01*
X11790479Y8383674D01*
X11790303Y8382440D01*
Y8382263D01*
Y8381558D01*
X11790479Y8380677D01*
X11790832Y8379267D01*
X11791184Y8377504D01*
X11791890Y8375389D01*
X11792771Y8373097D01*
X11794005Y8370277D01*
X11819036Y8318451D01*
X11841952Y8375212D01*
Y8375389D01*
X11842304Y8376094D01*
X11842481Y8376975D01*
X11842833Y8378033D01*
X11843186Y8379443D01*
X11843362Y8381029D01*
X11843715Y8384379D01*
Y8384555D01*
Y8384731D01*
Y8385436D01*
X11843362Y8386494D01*
X11843010Y8387375D01*
X11842833Y8387552D01*
X11842304Y8388081D01*
X11841423Y8388786D01*
X11840189Y8389314D01*
X11839837Y8389491D01*
X11839308Y8389667D01*
X11838603Y8389843D01*
X11837721D01*
X11836487Y8390020D01*
X11835077Y8390196D01*
X11833491D01*
Y8394250D01*
X11866807D01*
Y8390196D01*
D02*
G37*
G36*
X12311375D02*
X12311199D01*
X12310494Y8390020D01*
X12309436D01*
X12308202Y8389667D01*
X12305558Y8388962D01*
X12304324Y8388433D01*
X12303266Y8387728D01*
X12303090Y8387552D01*
X12302561Y8387023D01*
X12301856Y8386318D01*
X12300975Y8385084D01*
X12299917Y8383497D01*
X12298683Y8381558D01*
X12297449Y8379267D01*
X12296215Y8376446D01*
X12260079Y8288485D01*
X12255495D01*
X12219006Y8374860D01*
X12218830Y8375212D01*
X12218654Y8375917D01*
X12218125Y8376975D01*
X12217420Y8378209D01*
X12216010Y8381206D01*
X12215128Y8382616D01*
X12214247Y8383674D01*
X12214071Y8383850D01*
X12213894Y8384202D01*
X12213365Y8384555D01*
X12212660Y8385260D01*
X12210898Y8386670D01*
X12208606Y8388257D01*
X12208430D01*
X12208253Y8388433D01*
X12207725Y8388609D01*
X12207020Y8388786D01*
X12205962Y8389138D01*
X12204552Y8389491D01*
X12202965Y8389843D01*
X12201026Y8390196D01*
Y8394250D01*
X12249149D01*
Y8390196D01*
X12245271D01*
X12244390Y8390020D01*
X12243509Y8389843D01*
X12241217Y8389314D01*
X12240159Y8388609D01*
X12239278Y8387904D01*
X12239102Y8387728D01*
X12238925Y8387552D01*
X12238573Y8387023D01*
X12238220Y8386494D01*
X12237339Y8384555D01*
X12237163Y8383497D01*
X12236986Y8382263D01*
Y8382087D01*
Y8381558D01*
X12237163Y8380677D01*
X12237339Y8379619D01*
X12237515Y8378209D01*
X12238044Y8376623D01*
X12238573Y8374860D01*
X12239454Y8372921D01*
X12263252Y8316336D01*
X12287225Y8375036D01*
X12287401Y8375389D01*
X12287578Y8376094D01*
X12287930Y8377151D01*
X12288459Y8378562D01*
X12289340Y8381735D01*
X12289517Y8383321D01*
X12289693Y8384555D01*
Y8384908D01*
X12289517Y8385436D01*
X12289340Y8386318D01*
X12288812Y8387199D01*
X12288635Y8387552D01*
X12287930Y8388081D01*
X12286873Y8388962D01*
X12285639Y8389491D01*
X12285462D01*
X12285286Y8389667D01*
X12284757D01*
X12283876Y8389843D01*
X12282818Y8390020D01*
X12281584D01*
X12279822Y8390196D01*
X12277882D01*
Y8394250D01*
X12311375D01*
Y8390196D01*
D02*
G37*
G36*
X12007299Y8348771D02*
X12033388Y8372568D01*
X12033564Y8372744D01*
X12033740Y8372921D01*
X12034798Y8373802D01*
X12036032Y8375036D01*
X12037795Y8376623D01*
X12039381Y8378209D01*
X12040968Y8379796D01*
X12042201Y8381206D01*
X12043083Y8382263D01*
X12043259Y8382440D01*
X12043612Y8383145D01*
X12043788Y8383850D01*
X12043964Y8384908D01*
Y8385084D01*
Y8385260D01*
X12043788Y8386318D01*
X12043083Y8387552D01*
X12042730Y8388257D01*
X12042025Y8388786D01*
X12041673Y8388962D01*
X12041320Y8389314D01*
X12040615Y8389667D01*
X12039734Y8390020D01*
X12038676Y8390196D01*
X12037442Y8390548D01*
X12036032Y8390725D01*
Y8394250D01*
X12080630D01*
Y8390725D01*
X12079748D01*
X12079043Y8390548D01*
X12077457D01*
X12075341Y8390196D01*
X12072873Y8389843D01*
X12070229Y8389314D01*
X12067761Y8388609D01*
X12065294Y8387728D01*
X12064941Y8387552D01*
X12064236Y8387199D01*
X12063002Y8386670D01*
X12061239Y8385613D01*
X12059300Y8384379D01*
X12057009Y8382792D01*
X12054541Y8380853D01*
X12051897Y8378562D01*
X12025455Y8354236D01*
X12051720Y8320919D01*
X12051897Y8320743D01*
X12052249Y8320391D01*
X12052778Y8319685D01*
X12053483Y8318804D01*
X12054365Y8317746D01*
X12055422Y8316512D01*
X12057714Y8313692D01*
X12060182Y8310695D01*
X12062649Y8307875D01*
X12064941Y8305407D01*
X12065822Y8304349D01*
X12066704Y8303468D01*
X12066880Y8303292D01*
X12067585Y8302587D01*
X12068643Y8301705D01*
X12069877Y8300648D01*
X12071287Y8299590D01*
X12072873Y8298532D01*
X12074460Y8297475D01*
X12076046Y8296770D01*
X12076223D01*
X12076575Y8296593D01*
X12077280Y8296417D01*
X12078338Y8296241D01*
X12079748Y8296064D01*
X12081335Y8295888D01*
X12083450Y8295712D01*
X12085918D01*
Y8291658D01*
X12036032D01*
Y8295712D01*
X12037442D01*
X12038323Y8295888D01*
X12040262Y8296241D01*
X12040968Y8296417D01*
X12041673Y8296770D01*
X12041849Y8296946D01*
X12042554Y8297651D01*
X12043083Y8298709D01*
X12043259Y8300119D01*
Y8300295D01*
Y8300648D01*
X12043083Y8301176D01*
X12042730Y8302234D01*
X12042201Y8303292D01*
X12041320Y8304702D01*
X12040262Y8306465D01*
X12038852Y8308404D01*
X12007299Y8348595D01*
Y8314750D01*
Y8314573D01*
Y8314397D01*
Y8313868D01*
Y8313163D01*
Y8311400D01*
X12007475Y8309285D01*
X12007651Y8307170D01*
X12007828Y8304878D01*
X12008180Y8302939D01*
X12008533Y8301529D01*
Y8301353D01*
X12008885Y8301000D01*
X12009062Y8300471D01*
X12009590Y8299766D01*
X12010824Y8298180D01*
X12012587Y8296946D01*
X12012763D01*
X12013116Y8296770D01*
X12013821Y8296593D01*
X12015055Y8296417D01*
X12016465Y8296064D01*
X12018404Y8295888D01*
X12020872Y8295712D01*
X12023869D01*
Y8291658D01*
X11971867D01*
Y8295712D01*
X11973101D01*
X11974511Y8295888D01*
X11976274D01*
X11978037Y8296064D01*
X11979976Y8296417D01*
X11981915Y8296946D01*
X11983502Y8297475D01*
X11983678D01*
X11983854Y8297651D01*
X11984735Y8298356D01*
X11985969Y8299590D01*
X11987027Y8301353D01*
Y8301529D01*
X11987380Y8302058D01*
X11987556Y8302939D01*
X11987908Y8304349D01*
X11988261Y8306112D01*
X11988437Y8308404D01*
X11988790Y8311048D01*
Y8314221D01*
Y8407647D01*
Y8407823D01*
Y8408352D01*
Y8409234D01*
Y8410468D01*
Y8411878D01*
Y8413464D01*
X11988614Y8416990D01*
Y8420692D01*
X11988437Y8424217D01*
X11988261Y8425804D01*
Y8427038D01*
X11988085Y8428271D01*
X11987908Y8429153D01*
Y8429329D01*
X11987732Y8429858D01*
X11987556Y8430387D01*
X11987380Y8431268D01*
X11986498Y8433031D01*
X11985969Y8433736D01*
X11985264Y8434441D01*
X11984912Y8434617D01*
X11984030Y8435322D01*
X11982620Y8435851D01*
X11980681Y8436028D01*
X11979623D01*
X11978918Y8435851D01*
X11978037Y8435675D01*
X11976803Y8435322D01*
X11975393Y8434794D01*
X11973630Y8434265D01*
X11971867Y8438319D01*
X12002011Y8450835D01*
X12007299D01*
Y8348771D01*
D02*
G37*
G36*
X11544045Y8300824D02*
X11607681Y8300824D01*
X11608563Y8301000D01*
X11609796D01*
X11611207Y8301176D01*
X11614380Y8301529D01*
X11617905Y8302410D01*
X11621607Y8303468D01*
X11624956Y8304878D01*
X11628129Y8306994D01*
X11628305D01*
X11628482Y8307346D01*
X11628834Y8307699D01*
X11629363Y8308227D01*
X11630068Y8309109D01*
X11630950Y8309990D01*
X11631831Y8311224D01*
X11632712Y8312634D01*
X11633770Y8314221D01*
X11634828Y8315984D01*
X11636062Y8318099D01*
X11637295Y8320391D01*
X11638353Y8323035D01*
X11639587Y8325855D01*
X11640821Y8329028D01*
X11641879Y8332377D01*
X11645580Y8331848D01*
X11638353Y8291658D01*
X11514960Y8291657D01*
Y8295712D01*
X11612264Y8434441D01*
X11561673Y8434441D01*
X11559558Y8434265D01*
X11556914Y8434088D01*
X11554093Y8433736D01*
X11551273Y8433383D01*
X11548452Y8432678D01*
X11546161Y8431797D01*
X11545985Y8431620D01*
X11545279Y8431268D01*
X11544222Y8430739D01*
X11543164Y8429858D01*
X11541754Y8428800D01*
X11540344Y8427390D01*
X11539110Y8425803D01*
X11537876Y8424041D01*
X11537700Y8423864D01*
X11537347Y8422983D01*
X11536818Y8421749D01*
X11536113Y8419810D01*
X11535408Y8417342D01*
X11535055Y8415932D01*
X11534527Y8414169D01*
X11534174Y8412230D01*
X11533645Y8410291D01*
X11533116Y8407999D01*
X11532764Y8405532D01*
X11528533D01*
X11531706Y8443431D01*
X11643994Y8443431D01*
X11544045Y8300824D01*
D02*
G37*
G36*
X11077267Y8314749D02*
Y8314573D01*
Y8314397D01*
Y8313868D01*
Y8313163D01*
Y8311576D01*
X11077443Y8309461D01*
X11077619Y8307346D01*
X11077795Y8305231D01*
X11078148Y8303291D01*
X11078501Y8301881D01*
Y8301705D01*
X11078853Y8301352D01*
X11079029Y8300824D01*
X11079558Y8300119D01*
X11080792Y8298532D01*
X11082555Y8297122D01*
X11082731D01*
X11083084Y8296946D01*
X11083789Y8296769D01*
X11084847Y8296417D01*
X11086257Y8296240D01*
X11088019Y8295888D01*
X11090135Y8295712D01*
X11092779D01*
Y8291657D01*
X11043069D01*
Y8295712D01*
X11045537D01*
X11047123Y8295888D01*
X11050296Y8296240D01*
X11051883Y8296593D01*
X11052941Y8297122D01*
X11053117D01*
X11053469Y8297474D01*
X11054527Y8298179D01*
X11055761Y8299766D01*
X11056466Y8300647D01*
X11057171Y8301881D01*
Y8302058D01*
X11057347Y8302586D01*
X11057700Y8303468D01*
X11058053Y8304702D01*
X11058229Y8306464D01*
X11058581Y8308756D01*
X11058758Y8311400D01*
Y8314749D01*
Y8354412D01*
Y8354588D01*
Y8355117D01*
Y8355998D01*
Y8357056D01*
Y8358466D01*
Y8359876D01*
X11058581Y8363402D01*
Y8366927D01*
X11058405Y8370453D01*
X11058229Y8372039D01*
X11058053Y8373626D01*
X11057876Y8374860D01*
X11057700Y8375917D01*
Y8376093D01*
X11057524Y8376446D01*
X11057347Y8377151D01*
X11056995Y8377856D01*
X11056290Y8379443D01*
X11055761Y8380324D01*
X11055056Y8380853D01*
X11054703Y8381029D01*
X11053998Y8381558D01*
X11052588Y8382087D01*
X11050649Y8382263D01*
X11049415D01*
X11048534Y8382087D01*
X11047300Y8381911D01*
X11046066Y8381558D01*
X11042893Y8380677D01*
X11041483Y8384731D01*
X11072331Y8397247D01*
X11077267D01*
Y8314749D01*
D02*
G37*
G36*
X11237149Y8394250D02*
X11260946D01*
Y8386670D01*
X11237149Y8386494D01*
Y8319861D01*
Y8319685D01*
Y8319509D01*
Y8318980D01*
Y8318275D01*
X11237325Y8316512D01*
X11237502Y8314397D01*
X11237854Y8312105D01*
X11238383Y8309990D01*
X11239088Y8307875D01*
X11239969Y8306288D01*
X11240146Y8306112D01*
X11240498Y8305759D01*
X11241027Y8305231D01*
X11241908Y8304702D01*
X11242966Y8303997D01*
X11244200Y8303468D01*
X11245610Y8303115D01*
X11247197Y8302939D01*
X11247902D01*
X11248607Y8303115D01*
X11249488Y8303291D01*
X11251780Y8303820D01*
X11253190Y8304349D01*
X11254424Y8305054D01*
X11254600Y8305231D01*
X11254953Y8305407D01*
X11255658Y8306112D01*
X11256363Y8306817D01*
X11257244Y8307698D01*
X11258302Y8308932D01*
X11259183Y8310343D01*
X11259889Y8311929D01*
X11264295D01*
Y8311753D01*
X11264119Y8311400D01*
X11263943Y8310871D01*
X11263590Y8310166D01*
X11262709Y8308051D01*
X11261299Y8305759D01*
X11259712Y8302939D01*
X11257773Y8300295D01*
X11255658Y8297651D01*
X11253014Y8295359D01*
X11252661Y8295183D01*
X11251780Y8294478D01*
X11250370Y8293596D01*
X11248607Y8292715D01*
X11246315Y8291657D01*
X11243847Y8290776D01*
X11241203Y8290071D01*
X11238383Y8289895D01*
X11237502D01*
X11236444Y8290071D01*
X11235210Y8290247D01*
X11233623Y8290600D01*
X11231861Y8291128D01*
X11230098Y8291834D01*
X11228159Y8292715D01*
X11227983Y8292891D01*
X11227278Y8293244D01*
X11226396Y8293949D01*
X11225338Y8294830D01*
X11224281Y8295888D01*
X11223047Y8297298D01*
X11221989Y8298885D01*
X11220932Y8300824D01*
X11220755Y8301000D01*
X11220579Y8301881D01*
X11220226Y8303115D01*
X11219874Y8304878D01*
X11219345Y8307346D01*
X11218993Y8310166D01*
X11218816Y8313516D01*
X11218640Y8317394D01*
Y8386670D01*
X11202423D01*
Y8390196D01*
X11202775Y8390372D01*
X11203480Y8390724D01*
X11204714Y8391253D01*
X11206301Y8392135D01*
X11208063Y8393369D01*
X11210179Y8394779D01*
X11212470Y8396542D01*
X11214762Y8398481D01*
X11215114Y8398833D01*
X11215820Y8399538D01*
X11217054Y8400772D01*
X11218640Y8402359D01*
X11220403Y8404474D01*
X11222342Y8406766D01*
X11224457Y8409410D01*
X11226396Y8412230D01*
X11226572Y8412406D01*
X11226925Y8413111D01*
X11227454Y8414169D01*
X11228335Y8415756D01*
X11229393Y8417871D01*
X11230627Y8420691D01*
X11232037Y8424041D01*
X11233623Y8427919D01*
X11237149D01*
Y8394250D01*
D02*
G37*
G36*
X11920924Y8397071D02*
X11922334D01*
X11925507Y8396718D01*
X11929032Y8396013D01*
X11932734Y8395308D01*
X11936436Y8394074D01*
X11939961Y8392487D01*
X11940314Y8392311D01*
X11941019Y8391782D01*
X11942253Y8391077D01*
X11943663Y8389843D01*
X11945250Y8388433D01*
X11946836Y8386494D01*
X11948423Y8384379D01*
X11949657Y8381735D01*
X11949833Y8381558D01*
X11950009Y8380677D01*
X11950362Y8379443D01*
X11950714Y8377504D01*
X11950890Y8376270D01*
X11951067Y8374860D01*
X11951243Y8373273D01*
X11951419Y8371334D01*
X11951596Y8369395D01*
X11951772Y8367104D01*
Y8364636D01*
Y8361992D01*
Y8327265D01*
Y8327089D01*
Y8326560D01*
Y8325855D01*
Y8324974D01*
Y8323740D01*
Y8322506D01*
Y8319509D01*
X11951948Y8316512D01*
Y8313516D01*
X11952124Y8312106D01*
Y8311048D01*
X11952301Y8309990D01*
Y8309285D01*
Y8309109D01*
X11952477Y8308756D01*
Y8308227D01*
X11952653Y8307522D01*
X11953358Y8305936D01*
X11953711Y8305407D01*
X11954063Y8304878D01*
X11954240Y8304702D01*
X11954945Y8304349D01*
X11956003Y8303997D01*
X11957060Y8303821D01*
X11957413D01*
X11958118Y8303997D01*
X11959175Y8304173D01*
X11960233Y8304526D01*
X11960409D01*
X11960762Y8304878D01*
X11961291Y8305407D01*
X11962172Y8306112D01*
X11963406Y8307170D01*
X11964993Y8308580D01*
X11967108Y8310519D01*
X11969399Y8312811D01*
Y8306465D01*
X11969223Y8306288D01*
X11968871Y8305760D01*
X11968166Y8304878D01*
X11967284Y8303821D01*
X11966050Y8302587D01*
X11964816Y8301176D01*
X11961643Y8298180D01*
X11957942Y8295007D01*
X11956003Y8293597D01*
X11953887Y8292363D01*
X11951772Y8291305D01*
X11949657Y8290424D01*
X11947365Y8289895D01*
X11945250Y8289718D01*
X11944368D01*
X11943311Y8289895D01*
X11942077Y8290247D01*
X11940666Y8290600D01*
X11939256Y8291305D01*
X11937846Y8292186D01*
X11936436Y8293420D01*
X11936260Y8293597D01*
X11935907Y8294125D01*
X11935378Y8295183D01*
X11934849Y8296593D01*
X11934321Y8298356D01*
X11933792Y8300648D01*
X11933439Y8303292D01*
X11933263Y8306465D01*
X11933087Y8306288D01*
X11932558Y8305936D01*
X11931853Y8305231D01*
X11930795Y8304526D01*
X11929385Y8303468D01*
X11927975Y8302410D01*
X11924802Y8300119D01*
X11921452Y8297475D01*
X11918103Y8295183D01*
X11916693Y8294302D01*
X11915283Y8293420D01*
X11914225Y8292715D01*
X11913344Y8292186D01*
X11912991Y8292010D01*
X11912286Y8291834D01*
X11911052Y8291305D01*
X11909466Y8290952D01*
X11907703Y8290424D01*
X11905411Y8289895D01*
X11903120Y8289718D01*
X11900652Y8289542D01*
X11899594D01*
X11898889Y8289718D01*
X11896950Y8289895D01*
X11894482Y8290424D01*
X11891662Y8291305D01*
X11888665Y8292539D01*
X11885845Y8294302D01*
X11883024Y8296770D01*
X11882672Y8297122D01*
X11881967Y8298003D01*
X11880909Y8299766D01*
X11879675Y8301882D01*
X11878441Y8304526D01*
X11877383Y8307875D01*
X11876678Y8311577D01*
X11876326Y8315807D01*
Y8315984D01*
Y8316160D01*
Y8317041D01*
X11876502Y8318451D01*
X11876678Y8320214D01*
X11877207Y8322330D01*
X11877736Y8324445D01*
X11878617Y8326736D01*
X11879675Y8328852D01*
Y8329028D01*
X11879851Y8329204D01*
X11880556Y8330086D01*
X11881614Y8331672D01*
X11883377Y8333435D01*
X11885492Y8335727D01*
X11888136Y8338018D01*
X11891485Y8340662D01*
X11895364Y8343130D01*
X11895540D01*
X11895892Y8343483D01*
X11896597Y8343835D01*
X11897655Y8344364D01*
X11898889Y8345069D01*
X11900476Y8345774D01*
X11902238Y8346656D01*
X11904354Y8347713D01*
X11906821Y8348771D01*
X11909642Y8350005D01*
X11912815Y8351415D01*
X11916164Y8352825D01*
X11919866Y8354412D01*
X11924097Y8355998D01*
X11928503Y8357761D01*
X11933263Y8359524D01*
Y8363402D01*
Y8363578D01*
Y8364107D01*
Y8364812D01*
Y8365870D01*
X11933087Y8367104D01*
Y8368690D01*
X11932734Y8371863D01*
X11932029Y8375389D01*
X11931148Y8378914D01*
X11929914Y8382087D01*
X11929209Y8383321D01*
X11928327Y8384555D01*
X11928151Y8384731D01*
X11927446Y8385436D01*
X11926388Y8386318D01*
X11924802Y8387552D01*
X11922863Y8388609D01*
X11920395Y8389491D01*
X11917574Y8390196D01*
X11914225Y8390372D01*
X11913167D01*
X11911757Y8390196D01*
X11910347Y8389843D01*
X11908584Y8389491D01*
X11906645Y8388786D01*
X11904882Y8387728D01*
X11903120Y8386494D01*
X11902943Y8386318D01*
X11902415Y8385789D01*
X11901709Y8385084D01*
X11901004Y8384026D01*
X11900299Y8382616D01*
X11899594Y8381206D01*
X11899065Y8379443D01*
X11898889Y8377680D01*
X11899242Y8371334D01*
Y8371158D01*
Y8370453D01*
X11899065Y8369572D01*
X11898889Y8368338D01*
X11898537Y8367104D01*
X11898008Y8365693D01*
X11897303Y8364460D01*
X11896421Y8363226D01*
X11896245Y8363049D01*
X11895892Y8362873D01*
X11895364Y8362344D01*
X11894658Y8361992D01*
X11893601Y8361463D01*
X11892367Y8360934D01*
X11891133Y8360758D01*
X11889546Y8360581D01*
X11888841D01*
X11888136Y8360758D01*
X11887255Y8360934D01*
X11886197Y8361287D01*
X11884963Y8361815D01*
X11883906Y8362520D01*
X11882848Y8363402D01*
X11882672Y8363578D01*
X11882495Y8363931D01*
X11881967Y8364636D01*
X11881614Y8365517D01*
X11881085Y8366575D01*
X11880556Y8367985D01*
X11880380Y8369572D01*
X11880204Y8371334D01*
Y8371511D01*
Y8371687D01*
Y8372216D01*
X11880380Y8372921D01*
X11880733Y8374860D01*
X11881438Y8377151D01*
X11882495Y8379972D01*
X11884258Y8382969D01*
X11885492Y8384555D01*
X11886726Y8385965D01*
X11888136Y8387552D01*
X11889899Y8389138D01*
X11890075Y8389314D01*
X11890428Y8389491D01*
X11890957Y8389843D01*
X11891662Y8390372D01*
X11892719Y8391077D01*
X11893953Y8391782D01*
X11895364Y8392487D01*
X11897126Y8393193D01*
X11898889Y8393898D01*
X11901004Y8394603D01*
X11903296Y8395308D01*
X11905764Y8396013D01*
X11908408Y8396542D01*
X11911228Y8396894D01*
X11914401Y8397247D01*
X11919866D01*
X11920924Y8397071D01*
D02*
G37*
G36*
X11704633D02*
X11706043D01*
X11709216Y8396718D01*
X11712742Y8396013D01*
X11716443Y8395308D01*
X11720145Y8394074D01*
X11723671Y8392487D01*
X11724023Y8392311D01*
X11724728Y8391782D01*
X11725962Y8391077D01*
X11727373Y8389843D01*
X11728959Y8388433D01*
X11730546Y8386494D01*
X11732132Y8384379D01*
X11733366Y8381735D01*
X11733542Y8381558D01*
X11733718Y8380677D01*
X11734071Y8379443D01*
X11734424Y8377504D01*
X11734600Y8376270D01*
X11734776Y8374860D01*
X11734952Y8373273D01*
X11735129Y8371334D01*
X11735305Y8369395D01*
X11735481Y8367104D01*
Y8364636D01*
Y8361992D01*
Y8327265D01*
Y8327089D01*
Y8326560D01*
Y8325855D01*
Y8324974D01*
Y8323740D01*
Y8322506D01*
Y8319509D01*
X11735658Y8316512D01*
Y8313516D01*
X11735834Y8312106D01*
Y8311048D01*
X11736010Y8309990D01*
Y8309285D01*
Y8309109D01*
X11736186Y8308756D01*
Y8308227D01*
X11736363Y8307522D01*
X11737068Y8305936D01*
X11737420Y8305407D01*
X11737773Y8304878D01*
X11737949Y8304702D01*
X11738654Y8304349D01*
X11739712Y8303997D01*
X11740770Y8303821D01*
X11741122D01*
X11741827Y8303997D01*
X11742885Y8304173D01*
X11743942Y8304526D01*
X11744119D01*
X11744471Y8304878D01*
X11745000Y8305407D01*
X11745882Y8306112D01*
X11747115Y8307170D01*
X11748702Y8308580D01*
X11750817Y8310519D01*
X11753109Y8312811D01*
Y8306465D01*
X11752933Y8306288D01*
X11752580Y8305760D01*
X11751875Y8304878D01*
X11750994Y8303821D01*
X11749760Y8302587D01*
X11748526Y8301176D01*
X11745353Y8298180D01*
X11741651Y8295007D01*
X11739712Y8293597D01*
X11737597Y8292363D01*
X11735481Y8291305D01*
X11733366Y8290424D01*
X11731074Y8289895D01*
X11728959Y8289718D01*
X11728078D01*
X11727020Y8289895D01*
X11725786Y8290247D01*
X11724376Y8290600D01*
X11722966Y8291305D01*
X11721555Y8292186D01*
X11720145Y8293420D01*
X11719969Y8293597D01*
X11719616Y8294125D01*
X11719088Y8295183D01*
X11718559Y8296593D01*
X11718030Y8298356D01*
X11717501Y8300648D01*
X11717149Y8303292D01*
X11716972Y8306465D01*
X11716796Y8306288D01*
X11716267Y8305936D01*
X11715562Y8305231D01*
X11714504Y8304526D01*
X11713094Y8303468D01*
X11711684Y8302410D01*
X11708511Y8300119D01*
X11705162Y8297475D01*
X11701813Y8295183D01*
X11700402Y8294302D01*
X11698992Y8293420D01*
X11697934Y8292715D01*
X11697053Y8292186D01*
X11696701Y8292010D01*
X11695995Y8291834D01*
X11694761Y8291305D01*
X11693175Y8290952D01*
X11691412Y8290424D01*
X11689121Y8289895D01*
X11686829Y8289718D01*
X11684361Y8289542D01*
X11683304D01*
X11682598Y8289718D01*
X11680659Y8289895D01*
X11678192Y8290424D01*
X11675371Y8291305D01*
X11672374Y8292539D01*
X11669554Y8294302D01*
X11666734Y8296770D01*
X11666381Y8297122D01*
X11665676Y8298003D01*
X11664618Y8299766D01*
X11663384Y8301882D01*
X11662150Y8304526D01*
X11661093Y8307875D01*
X11660388Y8311577D01*
X11660035Y8315807D01*
Y8315984D01*
Y8316160D01*
Y8317041D01*
X11660211Y8318451D01*
X11660388Y8320214D01*
X11660916Y8322330D01*
X11661445Y8324445D01*
X11662327Y8326736D01*
X11663384Y8328852D01*
Y8329028D01*
X11663561Y8329204D01*
X11664266Y8330086D01*
X11665323Y8331672D01*
X11667086Y8333435D01*
X11669201Y8335727D01*
X11671846Y8338018D01*
X11675195Y8340662D01*
X11679073Y8343130D01*
X11679249D01*
X11679602Y8343483D01*
X11680307Y8343835D01*
X11681364Y8344364D01*
X11682598Y8345069D01*
X11684185Y8345774D01*
X11685948Y8346656D01*
X11688063Y8347713D01*
X11690531Y8348771D01*
X11693351Y8350005D01*
X11696524Y8351415D01*
X11699873Y8352825D01*
X11703575Y8354412D01*
X11707806Y8355998D01*
X11712213Y8357761D01*
X11716972Y8359524D01*
Y8363402D01*
Y8363578D01*
Y8364107D01*
Y8364812D01*
Y8365870D01*
X11716796Y8367104D01*
Y8368690D01*
X11716443Y8371863D01*
X11715738Y8375389D01*
X11714857Y8378914D01*
X11713623Y8382087D01*
X11712918Y8383321D01*
X11712037Y8384555D01*
X11711860Y8384731D01*
X11711155Y8385436D01*
X11710097Y8386318D01*
X11708511Y8387552D01*
X11706572Y8388609D01*
X11704104Y8389491D01*
X11701284Y8390196D01*
X11697934Y8390372D01*
X11696877D01*
X11695467Y8390196D01*
X11694056Y8389843D01*
X11692294Y8389491D01*
X11690355Y8388786D01*
X11688592Y8387728D01*
X11686829Y8386494D01*
X11686653Y8386318D01*
X11686124Y8385789D01*
X11685419Y8385084D01*
X11684714Y8384026D01*
X11684009Y8382616D01*
X11683304Y8381206D01*
X11682775Y8379443D01*
X11682598Y8377680D01*
X11682951Y8371334D01*
Y8371158D01*
Y8370453D01*
X11682775Y8369572D01*
X11682598Y8368338D01*
X11682246Y8367104D01*
X11681717Y8365693D01*
X11681012Y8364460D01*
X11680131Y8363226D01*
X11679954Y8363049D01*
X11679602Y8362873D01*
X11679073Y8362344D01*
X11678368Y8361992D01*
X11677310Y8361463D01*
X11676076Y8360934D01*
X11674842Y8360758D01*
X11673256Y8360581D01*
X11672551D01*
X11671846Y8360758D01*
X11670964Y8360934D01*
X11669907Y8361287D01*
X11668673Y8361815D01*
X11667615Y8362520D01*
X11666557Y8363402D01*
X11666381Y8363578D01*
X11666205Y8363931D01*
X11665676Y8364636D01*
X11665323Y8365517D01*
X11664795Y8366575D01*
X11664266Y8367985D01*
X11664089Y8369572D01*
X11663913Y8371334D01*
Y8371511D01*
Y8371687D01*
Y8372216D01*
X11664089Y8372921D01*
X11664442Y8374860D01*
X11665147Y8377151D01*
X11666205Y8379972D01*
X11667968Y8382969D01*
X11669201Y8384555D01*
X11670435Y8385965D01*
X11671846Y8387552D01*
X11673608Y8389138D01*
X11673785Y8389314D01*
X11674137Y8389491D01*
X11674666Y8389843D01*
X11675371Y8390372D01*
X11676429Y8391077D01*
X11677663Y8391782D01*
X11679073Y8392487D01*
X11680836Y8393193D01*
X11682598Y8393898D01*
X11684714Y8394603D01*
X11687005Y8395308D01*
X11689473Y8396013D01*
X11692117Y8396542D01*
X11694938Y8396894D01*
X11698111Y8397247D01*
X11703575D01*
X11704633Y8397071D01*
D02*
G37*
G36*
X12144265D02*
X12145852Y8396894D01*
X12147791Y8396718D01*
X12150082Y8396365D01*
X12152550Y8395837D01*
X12155371Y8394955D01*
X12158367Y8394074D01*
X12161364Y8392840D01*
X12164361Y8391430D01*
X12167534Y8389667D01*
X12170707Y8387728D01*
X12173703Y8385260D01*
X12176524Y8382616D01*
X12179344Y8379443D01*
X12179520Y8379267D01*
X12179873Y8378738D01*
X12180402Y8377856D01*
X12181283Y8376799D01*
X12182165Y8375389D01*
X12183222Y8373626D01*
X12184280Y8371687D01*
X12185338Y8369395D01*
X12186395Y8366927D01*
X12187629Y8364283D01*
X12188511Y8361463D01*
X12189392Y8358466D01*
X12190273Y8355117D01*
X12190802Y8351768D01*
X12191155Y8348418D01*
X12191331Y8344717D01*
Y8344540D01*
Y8344188D01*
Y8343306D01*
X12191155Y8342425D01*
Y8341015D01*
X12190978Y8339605D01*
X12190802Y8338018D01*
X12190450Y8336079D01*
X12189744Y8331848D01*
X12188511Y8327089D01*
X12186924Y8322153D01*
X12184632Y8316865D01*
Y8316689D01*
X12184280Y8316336D01*
X12183927Y8315455D01*
X12183399Y8314573D01*
X12182693Y8313339D01*
X12181988Y8312106D01*
X12179873Y8308933D01*
X12177405Y8305407D01*
X12174232Y8301882D01*
X12170530Y8298532D01*
X12166476Y8295536D01*
X12166300D01*
X12165947Y8295183D01*
X12165242Y8294831D01*
X12164361Y8294478D01*
X12163303Y8293949D01*
X12162069Y8293244D01*
X12160483Y8292715D01*
X12158896Y8292010D01*
X12155018Y8290776D01*
X12150787Y8289542D01*
X12145852Y8288837D01*
X12140740Y8288485D01*
X12139682D01*
X12138448Y8288661D01*
X12136862Y8288837D01*
X12134923Y8289013D01*
X12132631Y8289542D01*
X12130163Y8290071D01*
X12127343Y8290776D01*
X12124522Y8291834D01*
X12121526Y8292891D01*
X12118529Y8294478D01*
X12115356Y8296241D01*
X12112359Y8298356D01*
X12109363Y8300824D01*
X12106542Y8303644D01*
X12103898Y8306817D01*
X12103722Y8306994D01*
X12103369Y8307522D01*
X12102840Y8308404D01*
X12102135Y8309638D01*
X12101254Y8311048D01*
X12100196Y8312811D01*
X12099315Y8314750D01*
X12098257Y8317041D01*
X12097023Y8319509D01*
X12096142Y8322330D01*
X12095084Y8325150D01*
X12094203Y8328323D01*
X12093498Y8331496D01*
X12092969Y8334845D01*
X12092616Y8338371D01*
X12092440Y8341896D01*
Y8342072D01*
Y8342601D01*
Y8343306D01*
X12092616Y8344364D01*
Y8345598D01*
X12092793Y8347184D01*
X12092969Y8348771D01*
X12093322Y8350710D01*
X12094203Y8354941D01*
X12095261Y8359700D01*
X12097023Y8364812D01*
X12099315Y8369924D01*
Y8370100D01*
X12099667Y8370629D01*
X12100020Y8371334D01*
X12100549Y8372216D01*
X12101254Y8373450D01*
X12102135Y8374684D01*
X12104251Y8377680D01*
X12106895Y8381029D01*
X12110068Y8384555D01*
X12113593Y8387728D01*
X12117648Y8390548D01*
X12117824D01*
X12118176Y8390901D01*
X12118882Y8391253D01*
X12119587Y8391606D01*
X12120644Y8392135D01*
X12121878Y8392664D01*
X12123465Y8393193D01*
X12125051Y8393898D01*
X12128577Y8395132D01*
X12132807Y8396189D01*
X12137214Y8396894D01*
X12141974Y8397247D01*
X12143031D01*
X12144265Y8397071D01*
D02*
G37*
G36*
X11323524Y8397070D02*
X11325111Y8396894D01*
X11327050Y8396718D01*
X11329341Y8396365D01*
X11331809Y8395836D01*
X11334630Y8394955D01*
X11337626Y8394074D01*
X11340623Y8392840D01*
X11343620Y8391429D01*
X11346793Y8389667D01*
X11349966Y8387728D01*
X11352962Y8385260D01*
X11355783Y8382616D01*
X11358603Y8379443D01*
X11358779Y8379266D01*
X11359132Y8378738D01*
X11359661Y8377856D01*
X11360542Y8376799D01*
X11361424Y8375388D01*
X11362481Y8373626D01*
X11363539Y8371687D01*
X11364597Y8369395D01*
X11365654Y8366927D01*
X11366888Y8364283D01*
X11367769Y8361463D01*
X11368651Y8358466D01*
X11369532Y8355117D01*
X11370061Y8351767D01*
X11370414Y8348418D01*
X11370590Y8344716D01*
Y8344540D01*
Y8344188D01*
Y8343306D01*
X11370414Y8342425D01*
Y8341015D01*
X11370237Y8339604D01*
X11370061Y8338018D01*
X11369709Y8336079D01*
X11369003Y8331848D01*
X11367769Y8327089D01*
X11366183Y8322153D01*
X11363891Y8316865D01*
Y8316688D01*
X11363539Y8316336D01*
X11363186Y8315455D01*
X11362657Y8314573D01*
X11361952Y8313339D01*
X11361247Y8312105D01*
X11359132Y8308932D01*
X11356664Y8305407D01*
X11353491Y8301881D01*
X11349789Y8298532D01*
X11345735Y8295535D01*
X11345559D01*
X11345206Y8295183D01*
X11344501Y8294830D01*
X11343620Y8294478D01*
X11342562Y8293949D01*
X11341328Y8293244D01*
X11339742Y8292715D01*
X11338155Y8292010D01*
X11334277Y8290776D01*
X11330046Y8289542D01*
X11325111Y8288837D01*
X11319999Y8288484D01*
X11318941D01*
X11317707Y8288661D01*
X11316121Y8288837D01*
X11314182Y8289013D01*
X11311890Y8289542D01*
X11309422Y8290071D01*
X11306602Y8290776D01*
X11303781Y8291834D01*
X11300785Y8292891D01*
X11297788Y8294478D01*
X11294615Y8296240D01*
X11291618Y8298356D01*
X11288622Y8300824D01*
X11285801Y8303644D01*
X11283157Y8306817D01*
X11282981Y8306993D01*
X11282628Y8307522D01*
X11282099Y8308404D01*
X11281394Y8309637D01*
X11280513Y8311048D01*
X11279455Y8312810D01*
X11278574Y8314749D01*
X11277516Y8317041D01*
X11276282Y8319509D01*
X11275401Y8322329D01*
X11274343Y8325150D01*
X11273462Y8328323D01*
X11272757Y8331496D01*
X11272228Y8334845D01*
X11271875Y8338370D01*
X11271699Y8341896D01*
Y8342072D01*
Y8342601D01*
Y8343306D01*
X11271875Y8344364D01*
Y8345598D01*
X11272052Y8347184D01*
X11272228Y8348771D01*
X11272580Y8350710D01*
X11273462Y8354940D01*
X11274519Y8359700D01*
X11276282Y8364812D01*
X11278574Y8369924D01*
Y8370100D01*
X11278926Y8370629D01*
X11279279Y8371334D01*
X11279808Y8372215D01*
X11280513Y8373449D01*
X11281394Y8374683D01*
X11283510Y8377680D01*
X11286154Y8381029D01*
X11289327Y8384555D01*
X11292852Y8387728D01*
X11296907Y8390548D01*
X11297083D01*
X11297435Y8390901D01*
X11298140Y8391253D01*
X11298846Y8391606D01*
X11299903Y8392135D01*
X11301137Y8392663D01*
X11302724Y8393192D01*
X11304310Y8393897D01*
X11307836Y8395131D01*
X11312066Y8396189D01*
X11316473Y8396894D01*
X11321233Y8397247D01*
X11322290D01*
X11323524Y8397070D01*
D02*
G37*
%LPC*%
G36*
X10535600Y7995600D02*
X10495600D01*
Y7955600D01*
X10535600D01*
Y7995600D01*
D02*
G37*
G36*
X11933263Y8352649D02*
X11933087D01*
X11932558Y8352296D01*
X11931676Y8351944D01*
X11930619Y8351591D01*
X11929209Y8351063D01*
X11927622Y8350357D01*
X11924273Y8348947D01*
X11920571Y8347361D01*
X11916869Y8345774D01*
X11915283Y8345069D01*
X11913696Y8344364D01*
X11912462Y8343659D01*
X11911405Y8343130D01*
X11911228D01*
X11911052Y8342954D01*
X11909994Y8342249D01*
X11908408Y8341367D01*
X11906469Y8339957D01*
X11904530Y8338371D01*
X11902415Y8336608D01*
X11900476Y8334669D01*
X11898889Y8332730D01*
X11898713Y8332554D01*
X11898360Y8331848D01*
X11897655Y8330791D01*
X11897126Y8329381D01*
X11896421Y8327618D01*
X11895716Y8325679D01*
X11895364Y8323387D01*
X11895187Y8321096D01*
Y8320743D01*
Y8319862D01*
X11895364Y8318275D01*
X11895716Y8316512D01*
X11896421Y8314397D01*
X11897126Y8312106D01*
X11898360Y8309990D01*
X11899947Y8307875D01*
X11900123Y8307699D01*
X11900828Y8306994D01*
X11901709Y8306288D01*
X11903120Y8305231D01*
X11904706Y8304349D01*
X11906645Y8303468D01*
X11908584Y8302763D01*
X11910876Y8302587D01*
X11911757D01*
X11912462Y8302763D01*
X11913344Y8302939D01*
X11914225Y8303115D01*
X11916869Y8303997D01*
X11920042Y8305231D01*
X11921981Y8306288D01*
X11923920Y8307346D01*
X11926036Y8308580D01*
X11928327Y8309990D01*
X11930795Y8311753D01*
X11933263Y8313692D01*
Y8352649D01*
D02*
G37*
G36*
X11716972D02*
X11716796D01*
X11716267Y8352296D01*
X11715386Y8351944D01*
X11714328Y8351591D01*
X11712918Y8351063D01*
X11711331Y8350357D01*
X11707982Y8348947D01*
X11704280Y8347361D01*
X11700579Y8345774D01*
X11698992Y8345069D01*
X11697406Y8344364D01*
X11696172Y8343659D01*
X11695114Y8343130D01*
X11694938D01*
X11694761Y8342954D01*
X11693704Y8342249D01*
X11692117Y8341367D01*
X11690178Y8339957D01*
X11688239Y8338371D01*
X11686124Y8336608D01*
X11684185Y8334669D01*
X11682598Y8332730D01*
X11682422Y8332554D01*
X11682070Y8331848D01*
X11681364Y8330791D01*
X11680836Y8329381D01*
X11680131Y8327618D01*
X11679425Y8325679D01*
X11679073Y8323387D01*
X11678897Y8321096D01*
Y8320743D01*
Y8319862D01*
X11679073Y8318275D01*
X11679425Y8316512D01*
X11680131Y8314397D01*
X11680836Y8312106D01*
X11682070Y8309990D01*
X11683656Y8307875D01*
X11683832Y8307699D01*
X11684537Y8306994D01*
X11685419Y8306288D01*
X11686829Y8305231D01*
X11688416Y8304349D01*
X11690355Y8303468D01*
X11692294Y8302763D01*
X11694585Y8302587D01*
X11695467D01*
X11696172Y8302763D01*
X11697053Y8302939D01*
X11697934Y8303115D01*
X11700579Y8303997D01*
X11703752Y8305231D01*
X11705691Y8306288D01*
X11707630Y8307346D01*
X11709745Y8308580D01*
X11712037Y8309990D01*
X11714504Y8311753D01*
X11716972Y8313692D01*
Y8352649D01*
D02*
G37*
G36*
X12138448Y8390020D02*
X12137391D01*
X12136157Y8389843D01*
X12134746Y8389491D01*
X12132807Y8389138D01*
X12130868Y8388433D01*
X12128753Y8387552D01*
X12126461Y8386318D01*
X12126285Y8386141D01*
X12125404Y8385613D01*
X12124346Y8384731D01*
X12122936Y8383497D01*
X12121526Y8381735D01*
X12119763Y8379619D01*
X12118176Y8376975D01*
X12116766Y8373978D01*
Y8373802D01*
X12116590Y8373626D01*
X12116414Y8373097D01*
X12116237Y8372392D01*
X12115885Y8371511D01*
X12115709Y8370453D01*
X12115003Y8367809D01*
X12114298Y8364636D01*
X12113770Y8360758D01*
X12113417Y8356175D01*
X12113241Y8351239D01*
Y8351063D01*
Y8350181D01*
Y8349124D01*
X12113417Y8347537D01*
X12113593Y8345598D01*
X12113770Y8343306D01*
X12113946Y8340839D01*
X12114298Y8338018D01*
X12114827Y8335021D01*
X12115356Y8332025D01*
X12116942Y8325503D01*
X12118000Y8322153D01*
X12119234Y8318980D01*
X12120468Y8315807D01*
X12122054Y8312634D01*
X12122231Y8312458D01*
X12122407Y8311929D01*
X12122936Y8311224D01*
X12123641Y8310167D01*
X12124522Y8308933D01*
X12125580Y8307522D01*
X12126814Y8306112D01*
X12128224Y8304526D01*
X12131573Y8301529D01*
X12133512Y8300119D01*
X12135628Y8298885D01*
X12137919Y8298003D01*
X12140211Y8297122D01*
X12142855Y8296593D01*
X12145499Y8296417D01*
X12146557D01*
X12147262Y8296593D01*
X12149377Y8296946D01*
X12151845Y8297475D01*
X12154666Y8298532D01*
X12157662Y8300119D01*
X12159249Y8301176D01*
X12160659Y8302410D01*
X12162069Y8303644D01*
X12163479Y8305231D01*
Y8305407D01*
X12163832Y8305583D01*
X12164184Y8306288D01*
X12164537Y8306994D01*
X12165066Y8308051D01*
X12165771Y8309285D01*
X12166300Y8310695D01*
X12167005Y8312458D01*
X12167710Y8314397D01*
X12168239Y8316689D01*
X12168944Y8319157D01*
X12169473Y8321977D01*
X12169825Y8325150D01*
X12170178Y8328499D01*
X12170530Y8332201D01*
Y8336079D01*
Y8336432D01*
Y8337313D01*
Y8338723D01*
X12170354Y8340662D01*
X12170178Y8342954D01*
X12169825Y8345598D01*
X12169473Y8348595D01*
X12169120Y8351768D01*
X12168415Y8355117D01*
X12167710Y8358642D01*
X12166652Y8362168D01*
X12165595Y8365693D01*
X12164184Y8369219D01*
X12162598Y8372744D01*
X12160835Y8376094D01*
X12158720Y8379090D01*
Y8379267D01*
X12158367Y8379619D01*
X12157839Y8380148D01*
X12157310Y8380853D01*
X12155547Y8382616D01*
X12153255Y8384555D01*
X12150259Y8386494D01*
X12146909Y8388257D01*
X12144970Y8388962D01*
X12142855Y8389491D01*
X12140740Y8389843D01*
X12138448Y8390020D01*
D02*
G37*
G36*
X11317707Y8390019D02*
X11316649D01*
X11315416Y8389843D01*
X11314005Y8389490D01*
X11312066Y8389138D01*
X11310127Y8388433D01*
X11308012Y8387551D01*
X11305720Y8386317D01*
X11305544Y8386141D01*
X11304663Y8385612D01*
X11303605Y8384731D01*
X11302195Y8383497D01*
X11300785Y8381734D01*
X11299022Y8379619D01*
X11297435Y8376975D01*
X11296025Y8373978D01*
Y8373802D01*
X11295849Y8373626D01*
X11295673Y8373097D01*
X11295496Y8372392D01*
X11295144Y8371510D01*
X11294968Y8370453D01*
X11294262Y8367809D01*
X11293557Y8364636D01*
X11293028Y8360757D01*
X11292676Y8356174D01*
X11292500Y8351239D01*
Y8351062D01*
Y8350181D01*
Y8349123D01*
X11292676Y8347537D01*
X11292852Y8345598D01*
X11293028Y8343306D01*
X11293205Y8340838D01*
X11293557Y8338018D01*
X11294086Y8335021D01*
X11294615Y8332024D01*
X11296201Y8325502D01*
X11297259Y8322153D01*
X11298493Y8318980D01*
X11299727Y8315807D01*
X11301313Y8312634D01*
X11301490Y8312458D01*
X11301666Y8311929D01*
X11302195Y8311224D01*
X11302900Y8310166D01*
X11303781Y8308932D01*
X11304839Y8307522D01*
X11306073Y8306112D01*
X11307483Y8304525D01*
X11310832Y8301529D01*
X11312771Y8300119D01*
X11314887Y8298885D01*
X11317178Y8298003D01*
X11319470Y8297122D01*
X11322114Y8296593D01*
X11324758Y8296417D01*
X11325816D01*
X11326521Y8296593D01*
X11328636Y8296946D01*
X11331104Y8297474D01*
X11333924Y8298532D01*
X11336921Y8300119D01*
X11338508Y8301176D01*
X11339918Y8302410D01*
X11341328Y8303644D01*
X11342738Y8305231D01*
Y8305407D01*
X11343091Y8305583D01*
X11343443Y8306288D01*
X11343796Y8306993D01*
X11344325Y8308051D01*
X11345030Y8309285D01*
X11345559Y8310695D01*
X11346264Y8312458D01*
X11346969Y8314397D01*
X11347498Y8316688D01*
X11348203Y8319156D01*
X11348732Y8321977D01*
X11349084Y8325150D01*
X11349437Y8328499D01*
X11349789Y8332201D01*
Y8336079D01*
Y8336431D01*
Y8337313D01*
Y8338723D01*
X11349613Y8340662D01*
X11349437Y8342954D01*
X11349084Y8345598D01*
X11348732Y8348594D01*
X11348379Y8351767D01*
X11347674Y8355117D01*
X11346969Y8358642D01*
X11345911Y8362168D01*
X11344854Y8365693D01*
X11343443Y8369219D01*
X11341857Y8372744D01*
X11340094Y8376093D01*
X11337979Y8379090D01*
Y8379266D01*
X11337626Y8379619D01*
X11337097Y8380148D01*
X11336569Y8380853D01*
X11334806Y8382616D01*
X11332514Y8384555D01*
X11329518Y8386494D01*
X11326168Y8388257D01*
X11324229Y8388962D01*
X11322114Y8389490D01*
X11319999Y8389843D01*
X11317707Y8390019D01*
D02*
G37*
%LPD*%
D11*
X10595600Y7870600D02*
D03*
X10555600D02*
D03*
X10515600D02*
D03*
X10475600D02*
D03*
X10435600D02*
D03*
Y8080600D02*
D03*
X10475600D02*
D03*
X10515600D02*
D03*
X10555600D02*
D03*
X10595600D02*
D03*
D12*
X6388100Y7175500D02*
D03*
X6261100D02*
D03*
X6134100D02*
D03*
X6007100D02*
D03*
X6997700Y7173700D02*
D03*
X6870700D02*
D03*
X6743700D02*
D03*
X6616700D02*
D03*
X7607300Y7173350D02*
D03*
X7480300D02*
D03*
X7353300D02*
D03*
X7226300D02*
D03*
D13*
X6007100Y6593100D02*
D03*
X6134100D02*
D03*
X6261100D02*
D03*
X6388100D02*
D03*
X6616700Y6591300D02*
D03*
X6743700D02*
D03*
X6870700D02*
D03*
X6997700D02*
D03*
X7226300Y6590950D02*
D03*
X7353300D02*
D03*
X7480300D02*
D03*
X7607300D02*
D03*
D16*
X10677200Y7632700D02*
D03*
X10557200D02*
D03*
X9334900Y7986700D02*
D03*
X9454900D02*
D03*
D18*
X9645900Y7891700D02*
D03*
Y7986700D02*
D03*
Y8081700D02*
D03*
X9905900D02*
D03*
Y7986700D02*
D03*
Y7891700D02*
D03*
D21*
X8801100Y8202300D02*
D03*
X8674100D02*
D03*
X8547100D02*
D03*
X8420100D02*
D03*
Y7647300D02*
D03*
X8547100D02*
D03*
X8674100D02*
D03*
X8801100D02*
D03*
D25*
X3810000Y5530700D02*
D03*
Y5346700D02*
D03*
D26*
X4208200Y5438700D02*
D03*
D32*
X3291600Y4241800D02*
D03*
D36*
X3289300Y6083300D02*
D03*
X3089300D02*
D03*
X3239300Y8283300D02*
D03*
X3039300D02*
D03*
D47*
X4604000Y7470800D02*
D03*
X4794000D02*
D03*
X4699000Y7670800D02*
D03*
X4184900Y7469200D02*
D03*
X4374900D02*
D03*
X4279900Y7669200D02*
D03*
D48*
X10515600Y8406200D02*
D03*
Y8256200D02*
D03*
D49*
X10185400Y8055600D02*
D03*
Y7895600D02*
D03*
D50*
X8698300Y7442200D02*
D03*
X8548300D02*
D03*
X8851900Y8445500D02*
D03*
X9001900D02*
D03*
D51*
X8636000Y6826300D02*
D03*
Y7226300D02*
D03*
D52*
X8028400Y8153400D02*
D03*
X7643400D02*
D03*
D53*
X4353000Y7848200D02*
D03*
Y7998200D02*
D03*
X4635500Y7849800D02*
D03*
Y7999800D02*
D03*
X9029700Y7822000D02*
D03*
Y7672000D02*
D03*
X8026400Y7570400D02*
D03*
Y7720400D02*
D03*
D54*
X4356100Y8179800D02*
D03*
Y8304800D02*
D03*
X4635500D02*
D03*
Y8179800D02*
D03*
D55*
X9627300Y7681900D02*
D03*
X9467300D02*
D03*
D56*
X11850700Y7476900D02*
D03*
X11965000Y5610000D02*
D03*
X3290900Y3095400D02*
D03*
D57*
X10756900Y4257028D02*
D03*
Y4807028D02*
D03*
X11849100Y4257028D02*
D03*
Y4807028D02*
D03*
X8572500Y4257028D02*
D03*
Y4807028D02*
D03*
X9664700Y4257028D02*
D03*
Y4807028D02*
D03*
X6400800Y4257028D02*
D03*
Y4807028D02*
D03*
X7493000Y4257028D02*
D03*
Y4807028D02*
D03*
X4267200Y4247900D02*
D03*
Y4797900D02*
D03*
X5359400Y4247900D02*
D03*
Y4797900D02*
D03*
D58*
X10756900Y3527028D02*
D03*
X11849100D02*
D03*
X8572500D02*
D03*
X9664700D02*
D03*
X6400800D02*
D03*
X7493000D02*
D03*
X4267200Y3517900D02*
D03*
X5359400D02*
D03*
D59*
X10388600Y8191500D02*
D03*
X5080000Y6108700D02*
D03*
X4876800Y6007100D02*
D03*
X4495800Y8610600D02*
D03*
X10045700Y7988300D02*
D03*
X9232900Y7810500D02*
D03*
X9486900Y7848600D02*
D03*
X10185400Y7747000D02*
D03*
X8407400Y7226300D02*
D03*
X6007100Y7340600D02*
D03*
X6616700D02*
D03*
X7226300D02*
D03*
X10642600Y8191500D02*
D03*
X9626600Y7518400D02*
D03*
X10731500Y7975600D02*
D03*
X8674100Y8369300D02*
D03*
X8026400Y7429500D02*
D03*
D60*
X3479800Y5029200D02*
D03*
X3302000D02*
D03*
X3124200D02*
D03*
Y4673600D02*
D03*
Y4851400D02*
D03*
X3302000D02*
D03*
Y4673600D02*
D03*
X3479800D02*
D03*
Y4851400D02*
D03*
X5626100Y7581900D02*
D03*
Y7759700D02*
D03*
Y7937500D02*
D03*
X5816600Y7759700D02*
D03*
Y7937500D02*
D03*
X5626100Y8293100D02*
D03*
Y8115300D02*
D03*
X5816600D02*
D03*
Y8293100D02*
D03*
Y7581900D02*
D03*
%TF.MD5,78dc62dcabb774c3148f7398faf3ca4c*%
M02*
