%TF.GenerationSoftware,Altium Limited,Altium Designer,23.2.1 (34)*%
G04 Layer_Physical_Order=2*
G04 Layer_Color=16711680*
%FSLAX45Y45*%
%MOMM*%
%TF.SameCoordinates,A6D216B9-5917-482B-AEBE-4AF022C6986F*%
%TF.FilePolarity,Positive*%
%TF.FileFunction,Copper,L2,Bot,Signal*%
%TF.Part,Single*%
G01*
G75*
%TA.AperFunction,Conductor*%
%ADD28C,0.25400*%
%ADD30C,0.50800*%
%TA.AperFunction,ComponentPad*%
%ADD32R,1.57000X1.57000*%
%ADD33C,6.10000*%
%ADD34C,2.80000*%
%ADD35C,3.50000*%
%ADD36C,1.30000*%
%TA.AperFunction,ViaPad*%
%ADD37C,0.76200*%
%ADD38C,1.27000*%
%TA.AperFunction,SMDPad,CuDef*%
%ADD39R,8.75000X5.20000*%
%ADD40R,3.50000X1.30000*%
G36*
X5905500Y8382000D02*
Y7429500D01*
X5842000Y7366000D01*
X5599225D01*
X5593612Y7371612D01*
X5585211Y7377226D01*
X5575300Y7379198D01*
X2920502D01*
X2870200Y7429500D01*
Y8102600D01*
X2946400Y8178800D01*
X3200400D01*
X3217226Y8195626D01*
X3227398Y8192900D01*
X3251201D01*
X3274193Y8199061D01*
X3294807Y8210962D01*
X3311638Y8227793D01*
X3323539Y8248407D01*
X3329700Y8271399D01*
Y8295202D01*
X3326974Y8305374D01*
X3467100Y8445500D01*
X5842000D01*
X5905500Y8382000D01*
D02*
G37*
G36*
X12344400Y8439150D02*
Y5149850D01*
Y2933701D01*
X12141200Y2730501D01*
X3098800D01*
X2717800Y3111501D01*
Y5829301D01*
X2857500Y5969001D01*
X3136900Y5969001D01*
X4724400D01*
X4787901Y5905500D01*
X5949950D01*
X5999755Y5955305D01*
X8978900D01*
X8998721Y5959247D01*
X9015525Y5970475D01*
X9663225Y6618175D01*
X9674453Y6634979D01*
X9678395Y6654800D01*
X9678395Y6654801D01*
Y7480392D01*
X9680433Y7482430D01*
X9690100Y7505769D01*
Y7531031D01*
X9680433Y7554370D01*
X9662570Y7572233D01*
X9639231Y7581900D01*
X9613969D01*
X9590630Y7572233D01*
X9572767Y7554370D01*
X9563100Y7531031D01*
Y7505769D01*
X9572767Y7482430D01*
X9574805Y7480392D01*
Y6676254D01*
X8957446Y6058895D01*
X8459859D01*
X8456006Y6071595D01*
X8456725Y6072075D01*
X9396525Y7011875D01*
X9407753Y7028679D01*
X9411695Y7048500D01*
Y7700146D01*
X9496650Y7785100D01*
X9499531D01*
X9522870Y7794767D01*
X9524908Y7796805D01*
X10062346D01*
X10121900Y7737250D01*
Y7734369D01*
X10131567Y7711030D01*
X10149430Y7693167D01*
X10172769Y7683500D01*
X10198031D01*
X10221370Y7693167D01*
X10239233Y7711030D01*
X10248900Y7734369D01*
Y7755563D01*
X10416069Y7922731D01*
X10424489Y7935334D01*
X10427447Y7950200D01*
Y8140544D01*
X10442433Y8155530D01*
X10452100Y8178869D01*
Y8204131D01*
X10442433Y8227470D01*
X10424570Y8245333D01*
X10401231Y8255000D01*
X10375969D01*
X10352630Y8245333D01*
X10334767Y8227470D01*
X10325100Y8204131D01*
Y8178869D01*
X10334767Y8155530D01*
X10349753Y8140544D01*
Y7966291D01*
X10194556Y7811093D01*
X10120425Y7885225D01*
X10103621Y7896453D01*
X10083800Y7900395D01*
X9524908D01*
X9522870Y7902433D01*
X9499531Y7912100D01*
X9474269D01*
X9450930Y7902433D01*
X9433067Y7884570D01*
X9423400Y7861231D01*
Y7858350D01*
X9323275Y7758225D01*
X9312047Y7741421D01*
X9308105Y7721600D01*
Y7069954D01*
X8398646Y6160495D01*
X6038850D01*
Y6818905D01*
X8572500D01*
X8592321Y6822847D01*
X8609125Y6834075D01*
X8990125Y7215075D01*
X9001353Y7231879D01*
X9005295Y7251700D01*
Y7750946D01*
X9597254Y8342905D01*
X10417946D01*
X10579100Y8181750D01*
Y8178869D01*
X10588767Y8155530D01*
X10606630Y8137667D01*
X10629969Y8128000D01*
X10655231D01*
X10678570Y8137667D01*
X10696433Y8155530D01*
X10706100Y8178869D01*
Y8204131D01*
X10696433Y8227470D01*
X10678570Y8245333D01*
X10655231Y8255000D01*
X10652350D01*
X10476025Y8431325D01*
X10459221Y8442553D01*
X10439400Y8446495D01*
X9575800D01*
X9555979Y8442553D01*
X9539175Y8431325D01*
X8916875Y7809025D01*
X8905647Y7792221D01*
X8901705Y7772400D01*
Y7273154D01*
X8551046Y6922495D01*
X6038850D01*
Y7285019D01*
X6043070Y7286767D01*
X6045108Y7288805D01*
X6578692D01*
X6580730Y7286767D01*
X6604069Y7277100D01*
X6629331D01*
X6652670Y7286767D01*
X6654708Y7288805D01*
X7188292D01*
X7190330Y7286767D01*
X7213669Y7277100D01*
X7216550D01*
X7303975Y7189675D01*
X7320779Y7178447D01*
X7340600Y7174505D01*
X8369392D01*
X8371430Y7172467D01*
X8394769Y7162800D01*
X8420031D01*
X8443370Y7172467D01*
X8461233Y7190330D01*
X8470900Y7213669D01*
Y7238931D01*
X8461233Y7262270D01*
X8443370Y7280133D01*
X8420031Y7289800D01*
X8394769D01*
X8371430Y7280133D01*
X8369392Y7278095D01*
X7362054D01*
X7289800Y7350350D01*
Y7353231D01*
X7280133Y7376570D01*
X7262270Y7394433D01*
X7238931Y7404100D01*
X7213669D01*
X7190330Y7394433D01*
X7188292Y7392395D01*
X6654708D01*
X6652670Y7394433D01*
X6629331Y7404100D01*
X6604069D01*
X6580730Y7394433D01*
X6578692Y7392395D01*
X6045108D01*
X6043070Y7394433D01*
X6038850Y7396181D01*
Y8509000D01*
X6165850Y8636000D01*
X12147550D01*
X12344400Y8439150D01*
D02*
G37*
G36*
X5689600Y7239000D02*
Y6160495D01*
X5118008D01*
X5115970Y6162533D01*
X5092631Y6172200D01*
X5067369D01*
X5044030Y6162533D01*
X5041992Y6160495D01*
X3818754D01*
X3618025Y6361225D01*
X3601221Y6372453D01*
X3581400Y6376395D01*
X3488554D01*
X3456634Y6408315D01*
X3452925Y6413867D01*
X3452924Y6413868D01*
X3389700Y6477092D01*
Y6573700D01*
X2988900D01*
Y6392900D01*
X3075511D01*
X3080379Y6389647D01*
X3096704Y6386400D01*
X3095453Y6373700D01*
X2988900D01*
Y6192900D01*
X3126411D01*
X3131279Y6189647D01*
X3151100Y6185705D01*
X3273132D01*
X3274804Y6173005D01*
X3254407Y6167539D01*
X3233793Y6155638D01*
X3216962Y6138807D01*
X3205061Y6118193D01*
X3198900Y6095201D01*
Y6083300D01*
X3179700D01*
Y6095201D01*
X3173539Y6118193D01*
X3161638Y6138807D01*
X3144807Y6155638D01*
X3124193Y6167539D01*
X3101201Y6173700D01*
X3077398D01*
X3054407Y6167539D01*
X3033793Y6155638D01*
X3016962Y6138807D01*
X3005061Y6118193D01*
X2998900Y6095201D01*
Y6083300D01*
X2857500D01*
X2794000Y6146800D01*
Y7277100D01*
X2870200Y7353300D01*
X5575300D01*
X5689600Y7239000D01*
D02*
G37*
G36*
X3430475Y6287975D02*
X3447279Y6276747D01*
X3467100Y6272805D01*
X3559946D01*
X3736722Y6096028D01*
X3731862Y6084295D01*
X3564754D01*
X3389700Y6259350D01*
Y6312157D01*
X3401433Y6317017D01*
X3430475Y6287975D01*
D02*
G37*
%LPC*%
G36*
X11867892Y4997828D02*
X11830308D01*
X11793446Y4990495D01*
X11758722Y4976112D01*
X11727472Y4955232D01*
X11700896Y4928656D01*
X11680015Y4897405D01*
X11665632Y4862682D01*
X11658300Y4825820D01*
Y4788236D01*
X11665632Y4751373D01*
X11680015Y4716650D01*
X11700896Y4685400D01*
X11727472Y4658824D01*
X11758722Y4637943D01*
X11793446Y4623560D01*
X11830308Y4616228D01*
X11867892D01*
X11904754Y4623560D01*
X11939478Y4637943D01*
X11970728Y4658824D01*
X11997304Y4685400D01*
X12018185Y4716650D01*
X12032568Y4751373D01*
X12039900Y4788236D01*
Y4825820D01*
X12032568Y4862682D01*
X12018185Y4897405D01*
X11997304Y4928656D01*
X11970728Y4955232D01*
X11939478Y4976112D01*
X11904754Y4990495D01*
X11867892Y4997828D01*
D02*
G37*
G36*
X10775692D02*
X10738108D01*
X10701246Y4990495D01*
X10666522Y4976112D01*
X10635272Y4955232D01*
X10608696Y4928656D01*
X10587815Y4897405D01*
X10573432Y4862682D01*
X10566100Y4825820D01*
Y4788236D01*
X10573432Y4751373D01*
X10587815Y4716650D01*
X10608696Y4685400D01*
X10635272Y4658824D01*
X10666522Y4637943D01*
X10701246Y4623560D01*
X10738108Y4616228D01*
X10775692D01*
X10812554Y4623560D01*
X10847278Y4637943D01*
X10878528Y4658824D01*
X10905104Y4685400D01*
X10925985Y4716650D01*
X10940368Y4751373D01*
X10947700Y4788236D01*
Y4825820D01*
X10940368Y4862682D01*
X10925985Y4897405D01*
X10905104Y4928656D01*
X10878528Y4955232D01*
X10847278Y4976112D01*
X10812554Y4990495D01*
X10775692Y4997828D01*
D02*
G37*
G36*
X9683492D02*
X9645908D01*
X9609046Y4990495D01*
X9574322Y4976112D01*
X9543072Y4955232D01*
X9516496Y4928656D01*
X9495615Y4897405D01*
X9481232Y4862682D01*
X9473900Y4825820D01*
Y4788236D01*
X9481232Y4751373D01*
X9495615Y4716650D01*
X9516496Y4685400D01*
X9543072Y4658824D01*
X9574322Y4637943D01*
X9609046Y4623560D01*
X9645908Y4616228D01*
X9683492D01*
X9720354Y4623560D01*
X9755078Y4637943D01*
X9786328Y4658824D01*
X9812904Y4685400D01*
X9833785Y4716650D01*
X9848168Y4751373D01*
X9855500Y4788236D01*
Y4825820D01*
X9848168Y4862682D01*
X9833785Y4897405D01*
X9812904Y4928656D01*
X9786328Y4955232D01*
X9755078Y4976112D01*
X9720354Y4990495D01*
X9683492Y4997828D01*
D02*
G37*
G36*
X8591292D02*
X8553708D01*
X8516846Y4990495D01*
X8482122Y4976112D01*
X8450872Y4955232D01*
X8424296Y4928656D01*
X8403415Y4897405D01*
X8389032Y4862682D01*
X8381700Y4825820D01*
Y4788236D01*
X8389032Y4751373D01*
X8403415Y4716650D01*
X8424296Y4685400D01*
X8450872Y4658824D01*
X8482122Y4637943D01*
X8516846Y4623560D01*
X8553708Y4616228D01*
X8591292D01*
X8628154Y4623560D01*
X8662878Y4637943D01*
X8694128Y4658824D01*
X8720704Y4685400D01*
X8741585Y4716650D01*
X8755968Y4751373D01*
X8763300Y4788236D01*
Y4825820D01*
X8755968Y4862682D01*
X8741585Y4897405D01*
X8720704Y4928656D01*
X8694128Y4955232D01*
X8662878Y4976112D01*
X8628154Y4990495D01*
X8591292Y4997828D01*
D02*
G37*
G36*
X7511792D02*
X7474208D01*
X7437346Y4990495D01*
X7402622Y4976112D01*
X7371372Y4955232D01*
X7344796Y4928656D01*
X7323915Y4897405D01*
X7309532Y4862682D01*
X7302200Y4825820D01*
Y4788236D01*
X7309532Y4751373D01*
X7323915Y4716650D01*
X7344796Y4685400D01*
X7371372Y4658824D01*
X7402622Y4637943D01*
X7437346Y4623560D01*
X7474208Y4616228D01*
X7511792D01*
X7548654Y4623560D01*
X7583378Y4637943D01*
X7614628Y4658824D01*
X7641204Y4685400D01*
X7662085Y4716650D01*
X7676468Y4751373D01*
X7683800Y4788236D01*
Y4825820D01*
X7676468Y4862682D01*
X7662085Y4897405D01*
X7641204Y4928656D01*
X7614628Y4955232D01*
X7583378Y4976112D01*
X7548654Y4990495D01*
X7511792Y4997828D01*
D02*
G37*
G36*
X6419592D02*
X6382008D01*
X6345146Y4990495D01*
X6310422Y4976112D01*
X6279172Y4955232D01*
X6252596Y4928656D01*
X6231715Y4897405D01*
X6217332Y4862682D01*
X6210000Y4825820D01*
Y4788236D01*
X6217332Y4751373D01*
X6231715Y4716650D01*
X6252596Y4685400D01*
X6279172Y4658824D01*
X6310422Y4637943D01*
X6345146Y4623560D01*
X6382008Y4616228D01*
X6419592D01*
X6456454Y4623560D01*
X6491178Y4637943D01*
X6522428Y4658824D01*
X6549004Y4685400D01*
X6569885Y4716650D01*
X6584268Y4751373D01*
X6591600Y4788236D01*
Y4825820D01*
X6584268Y4862682D01*
X6569885Y4897405D01*
X6549004Y4928656D01*
X6522428Y4955232D01*
X6491178Y4976112D01*
X6456454Y4990495D01*
X6419592Y4997828D01*
D02*
G37*
G36*
X5378192Y4988700D02*
X5340608D01*
X5303746Y4981368D01*
X5269022Y4966985D01*
X5237772Y4946104D01*
X5211196Y4919528D01*
X5190315Y4888278D01*
X5175932Y4853554D01*
X5168600Y4816692D01*
Y4779108D01*
X5175932Y4742246D01*
X5190315Y4707522D01*
X5211196Y4676272D01*
X5237772Y4649696D01*
X5269022Y4628815D01*
X5303746Y4614432D01*
X5340608Y4607100D01*
X5378192D01*
X5415054Y4614432D01*
X5449778Y4628815D01*
X5481028Y4649696D01*
X5507604Y4676272D01*
X5528485Y4707522D01*
X5542868Y4742246D01*
X5550200Y4779108D01*
Y4816692D01*
X5542868Y4853554D01*
X5528485Y4888278D01*
X5507604Y4919528D01*
X5481028Y4946104D01*
X5449778Y4966985D01*
X5415054Y4981368D01*
X5378192Y4988700D01*
D02*
G37*
G36*
X4285992D02*
X4248408D01*
X4211546Y4981368D01*
X4176822Y4966985D01*
X4145572Y4946104D01*
X4118996Y4919528D01*
X4098115Y4888278D01*
X4083732Y4853554D01*
X4076400Y4816692D01*
Y4779108D01*
X4083732Y4742246D01*
X4098115Y4707522D01*
X4118996Y4676272D01*
X4145572Y4649696D01*
X4176822Y4628815D01*
X4211546Y4614432D01*
X4248408Y4607100D01*
X4285992D01*
X4322854Y4614432D01*
X4357578Y4628815D01*
X4388828Y4649696D01*
X4415404Y4676272D01*
X4436285Y4707522D01*
X4450668Y4742246D01*
X4458000Y4779108D01*
Y4816692D01*
X4450668Y4853554D01*
X4436285Y4888278D01*
X4415404Y4919528D01*
X4388828Y4946104D01*
X4357578Y4966985D01*
X4322854Y4981368D01*
X4285992Y4988700D01*
D02*
G37*
G36*
X11868838Y3727428D02*
X11829362D01*
X11790645Y3719727D01*
X11754175Y3704620D01*
X11721352Y3682689D01*
X11693439Y3654775D01*
X11671508Y3621953D01*
X11656401Y3585482D01*
X11648700Y3546765D01*
Y3507290D01*
X11656401Y3468573D01*
X11671508Y3432103D01*
X11693439Y3399280D01*
X11721352Y3371367D01*
X11754175Y3349436D01*
X11790645Y3334329D01*
X11829362Y3326628D01*
X11868838D01*
X11907555Y3334329D01*
X11944025Y3349436D01*
X11976848Y3371367D01*
X12004761Y3399280D01*
X12026692Y3432103D01*
X12041799Y3468573D01*
X12049500Y3507290D01*
Y3546765D01*
X12041799Y3585482D01*
X12026692Y3621953D01*
X12004761Y3654775D01*
X11976848Y3682689D01*
X11944025Y3704620D01*
X11907555Y3719727D01*
X11868838Y3727428D01*
D02*
G37*
G36*
X10776638D02*
X10737162D01*
X10698445Y3719727D01*
X10661975Y3704620D01*
X10629152Y3682689D01*
X10601239Y3654775D01*
X10579308Y3621953D01*
X10564201Y3585482D01*
X10556500Y3546765D01*
Y3507290D01*
X10564201Y3468573D01*
X10579308Y3432103D01*
X10601239Y3399280D01*
X10629152Y3371367D01*
X10661975Y3349436D01*
X10698445Y3334329D01*
X10737162Y3326628D01*
X10776638D01*
X10815355Y3334329D01*
X10851825Y3349436D01*
X10884648Y3371367D01*
X10912561Y3399280D01*
X10934492Y3432103D01*
X10949599Y3468573D01*
X10957300Y3507290D01*
Y3546765D01*
X10949599Y3585482D01*
X10934492Y3621953D01*
X10912561Y3654775D01*
X10884648Y3682689D01*
X10851825Y3704620D01*
X10815355Y3719727D01*
X10776638Y3727428D01*
D02*
G37*
G36*
X9684438D02*
X9644962D01*
X9606245Y3719727D01*
X9569775Y3704620D01*
X9536952Y3682689D01*
X9509039Y3654775D01*
X9487108Y3621953D01*
X9472001Y3585482D01*
X9464300Y3546765D01*
Y3507290D01*
X9472001Y3468573D01*
X9487108Y3432103D01*
X9509039Y3399280D01*
X9536952Y3371367D01*
X9569775Y3349436D01*
X9606245Y3334329D01*
X9644962Y3326628D01*
X9684438D01*
X9723155Y3334329D01*
X9759625Y3349436D01*
X9792448Y3371367D01*
X9820361Y3399280D01*
X9842292Y3432103D01*
X9857399Y3468573D01*
X9865100Y3507290D01*
Y3546765D01*
X9857399Y3585482D01*
X9842292Y3621953D01*
X9820361Y3654775D01*
X9792448Y3682689D01*
X9759625Y3704620D01*
X9723155Y3719727D01*
X9684438Y3727428D01*
D02*
G37*
G36*
X8592238D02*
X8552762D01*
X8514045Y3719727D01*
X8477575Y3704620D01*
X8444752Y3682689D01*
X8416839Y3654775D01*
X8394908Y3621953D01*
X8379801Y3585482D01*
X8372100Y3546765D01*
Y3507290D01*
X8379801Y3468573D01*
X8394908Y3432103D01*
X8416839Y3399280D01*
X8444752Y3371367D01*
X8477575Y3349436D01*
X8514045Y3334329D01*
X8552762Y3326628D01*
X8592238D01*
X8630955Y3334329D01*
X8667425Y3349436D01*
X8700248Y3371367D01*
X8728161Y3399280D01*
X8750092Y3432103D01*
X8765199Y3468573D01*
X8772900Y3507290D01*
Y3546765D01*
X8765199Y3585482D01*
X8750092Y3621953D01*
X8728161Y3654775D01*
X8700248Y3682689D01*
X8667425Y3704620D01*
X8630955Y3719727D01*
X8592238Y3727428D01*
D02*
G37*
G36*
X7512738D02*
X7473262D01*
X7434545Y3719727D01*
X7398075Y3704620D01*
X7365252Y3682689D01*
X7337339Y3654775D01*
X7315408Y3621953D01*
X7300301Y3585482D01*
X7292600Y3546765D01*
Y3507290D01*
X7300301Y3468573D01*
X7315408Y3432103D01*
X7337339Y3399280D01*
X7365252Y3371367D01*
X7398075Y3349436D01*
X7434545Y3334329D01*
X7473262Y3326628D01*
X7512738D01*
X7551455Y3334329D01*
X7587925Y3349436D01*
X7620748Y3371367D01*
X7648661Y3399280D01*
X7670592Y3432103D01*
X7685699Y3468573D01*
X7693400Y3507290D01*
Y3546765D01*
X7685699Y3585482D01*
X7670592Y3621953D01*
X7648661Y3654775D01*
X7620748Y3682689D01*
X7587925Y3704620D01*
X7551455Y3719727D01*
X7512738Y3727428D01*
D02*
G37*
G36*
X6420538D02*
X6381062D01*
X6342345Y3719727D01*
X6305875Y3704620D01*
X6273052Y3682689D01*
X6245139Y3654775D01*
X6223208Y3621953D01*
X6208101Y3585482D01*
X6200400Y3546765D01*
Y3507290D01*
X6208101Y3468573D01*
X6223208Y3432103D01*
X6245139Y3399280D01*
X6273052Y3371367D01*
X6305875Y3349436D01*
X6342345Y3334329D01*
X6381062Y3326628D01*
X6420538D01*
X6459255Y3334329D01*
X6495725Y3349436D01*
X6528548Y3371367D01*
X6556461Y3399280D01*
X6578392Y3432103D01*
X6593499Y3468573D01*
X6601200Y3507290D01*
Y3546765D01*
X6593499Y3585482D01*
X6578392Y3621953D01*
X6556461Y3654775D01*
X6528548Y3682689D01*
X6495725Y3704620D01*
X6459255Y3719727D01*
X6420538Y3727428D01*
D02*
G37*
G36*
X5379138Y3718300D02*
X5339662D01*
X5300945Y3710599D01*
X5264475Y3695492D01*
X5231652Y3673561D01*
X5203739Y3645648D01*
X5181808Y3612825D01*
X5166701Y3576355D01*
X5159000Y3537638D01*
Y3498162D01*
X5166701Y3459445D01*
X5181808Y3422975D01*
X5203739Y3390152D01*
X5231652Y3362239D01*
X5264475Y3340308D01*
X5300945Y3325201D01*
X5339662Y3317500D01*
X5379138D01*
X5417855Y3325201D01*
X5454325Y3340308D01*
X5487148Y3362239D01*
X5515061Y3390152D01*
X5536992Y3422975D01*
X5552099Y3459445D01*
X5559800Y3498162D01*
Y3537638D01*
X5552099Y3576355D01*
X5536992Y3612825D01*
X5515061Y3645648D01*
X5487148Y3673561D01*
X5454325Y3695492D01*
X5417855Y3710599D01*
X5379138Y3718300D01*
D02*
G37*
G36*
X4286938D02*
X4247462D01*
X4208745Y3710599D01*
X4172275Y3695492D01*
X4139452Y3673561D01*
X4111539Y3645648D01*
X4089608Y3612825D01*
X4074501Y3576355D01*
X4066800Y3537638D01*
Y3498162D01*
X4074501Y3459445D01*
X4089608Y3422975D01*
X4111539Y3390152D01*
X4139452Y3362239D01*
X4172275Y3340308D01*
X4208745Y3325201D01*
X4247462Y3317500D01*
X4286938D01*
X4325655Y3325201D01*
X4362125Y3340308D01*
X4394948Y3362239D01*
X4422861Y3390152D01*
X4444792Y3422975D01*
X4459899Y3459445D01*
X4467600Y3498162D01*
Y3537638D01*
X4459899Y3576355D01*
X4444792Y3612825D01*
X4422861Y3645648D01*
X4394948Y3673561D01*
X4362125Y3695492D01*
X4325655Y3710599D01*
X4286938Y3718300D01*
D02*
G37*
%LPD*%
D28*
X10388600Y7950200D02*
Y8191500D01*
X10185400Y7747000D02*
X10388600Y7950200D01*
D30*
X3349842Y6443700D02*
X3416300Y6377242D01*
X3189300Y6483300D02*
X3228900Y6443700D01*
X3467100Y6324600D02*
X3581400D01*
X3416300Y6375400D02*
Y6377242D01*
Y6375400D02*
X3467100Y6324600D01*
X3228900Y6443700D02*
X3349842D01*
X3581400Y6324600D02*
X3797300Y6108700D01*
X5080000D01*
X3543300Y6032500D02*
X4844527D01*
X4869927Y6007100D02*
X8978900D01*
X3338300Y6237500D02*
X3543300Y6032500D01*
X4844527D02*
X4869927Y6007100D01*
X3151100Y6237500D02*
X3338300D01*
X3124200Y6264400D02*
X3151100Y6237500D01*
X5080000Y6108700D02*
X8420100D01*
X3073400Y6464300D02*
X3100200Y6437500D01*
X8420100Y6108700D02*
X9359900Y7048500D01*
X6083300Y8610600D02*
X6210300Y8483600D01*
X4495800Y8610600D02*
X6083300D01*
X8978900Y6007100D02*
X9626600Y6654800D01*
Y7518400D01*
X9359900Y7721600D02*
X9486900Y7848600D01*
X9359900Y7048500D02*
Y7721600D01*
X10439400Y8394700D02*
X10642600Y8191500D01*
X9575800Y8394700D02*
X10439400D01*
X8953500Y7772400D02*
X9575800Y8394700D01*
X5600700Y6870700D02*
X8572500D01*
X8953500Y7251700D01*
Y7772400D01*
X10083800Y7848600D02*
X10185400Y7747000D01*
X9486900Y7848600D02*
X10083800D01*
X7340600Y7226300D02*
X8407400D01*
X7226300Y7340600D02*
X7340600Y7226300D01*
X6616700Y7340600D02*
X7226300D01*
X6007100D02*
X6604000D01*
D32*
X3291600Y4241800D02*
D03*
D33*
X11850700Y7476900D02*
D03*
X11965000Y5610000D02*
D03*
X3290900Y3095400D02*
D03*
D34*
X10756900Y4257028D02*
D03*
Y4807028D02*
D03*
X11849100Y4257028D02*
D03*
Y4807028D02*
D03*
X8572500Y4257028D02*
D03*
Y4807028D02*
D03*
X9664700Y4257028D02*
D03*
Y4807028D02*
D03*
X6400800Y4257028D02*
D03*
Y4807028D02*
D03*
X7493000Y4257028D02*
D03*
Y4807028D02*
D03*
X4267200Y4247900D02*
D03*
Y4797900D02*
D03*
X5359400Y4247900D02*
D03*
Y4797900D02*
D03*
D35*
X10756900Y3527028D02*
D03*
X11849100D02*
D03*
X8572500D02*
D03*
X9664700D02*
D03*
X6400800D02*
D03*
X7493000D02*
D03*
X4267200Y3517900D02*
D03*
X5359400D02*
D03*
D36*
X3289300Y6083300D02*
D03*
X3089300D02*
D03*
X3239300Y8283300D02*
D03*
X3039300D02*
D03*
D37*
X10388600Y8191500D02*
D03*
X5080000Y6108700D02*
D03*
X4876800Y6007100D02*
D03*
X4495800Y8610600D02*
D03*
X10045700Y7988300D02*
D03*
X9232900Y7810500D02*
D03*
X9486900Y7848600D02*
D03*
X10185400Y7747000D02*
D03*
X8407400Y7226300D02*
D03*
X6007100Y7340600D02*
D03*
X6616700D02*
D03*
X7226300D02*
D03*
X10642600Y8191500D02*
D03*
X9626600Y7518400D02*
D03*
X10731500Y7975600D02*
D03*
X8674100Y8369300D02*
D03*
X8026400Y7429500D02*
D03*
D38*
X3479800Y5029200D02*
D03*
X3302000D02*
D03*
X3124200D02*
D03*
Y4673600D02*
D03*
Y4851400D02*
D03*
X3302000D02*
D03*
Y4673600D02*
D03*
X3479800D02*
D03*
Y4851400D02*
D03*
X5626100Y7581900D02*
D03*
Y7759700D02*
D03*
Y7937500D02*
D03*
X5816600Y7759700D02*
D03*
Y7937500D02*
D03*
X5626100Y8293100D02*
D03*
Y8115300D02*
D03*
X5816600D02*
D03*
Y8293100D02*
D03*
Y7581900D02*
D03*
D39*
X4961947Y6650300D02*
D03*
Y5570300D02*
D03*
X3933247Y6650300D02*
D03*
Y5570300D02*
D03*
D40*
X3189300Y6283300D02*
D03*
Y6483300D02*
D03*
Y6683300D02*
D03*
Y6883300D02*
D03*
Y7083300D02*
D03*
Y7283300D02*
D03*
Y7483300D02*
D03*
Y7683300D02*
D03*
Y7883300D02*
D03*
Y8083300D02*
D03*
%TF.MD5,4662debed57889a35c7329ce035602b5*%
M02*
