%TF.GenerationSoftware,Altium Limited,Altium Designer,23.4.1 (23)*%
G04 Layer_Color=8421504*
%FSLAX45Y45*%
%MOMM*%
%TF.SameCoordinates,D7948EBF-BAFE-4555-BCF9-67E6E8CB6B5E*%
%TF.FilePolarity,Positive*%
%TF.FileFunction,Paste,Top*%
%TF.Part,Single*%
G01*
G75*
%TA.AperFunction,SMDPad,CuDef*%
%ADD10R,2.00000X2.00000*%
%ADD11R,2.15000X5.50000*%
%ADD12R,0.50000X0.85001*%
%ADD13R,0.60000X0.80000*%
%ADD14R,0.70000X0.90000*%
%ADD15R,1.40000X1.10000*%
%ADD16R,0.65000X1.45000*%
%ADD17R,4.86000X3.36000*%
%ADD20R,0.80000X0.90000*%
%ADD21R,0.90000X0.70000*%
%ADD22R,0.75000X0.90000*%
%ADD23R,1.00000X0.90000*%
G04:AMPARAMS|DCode=24|XSize=1.1mm|YSize=0.6mm|CornerRadius=0.051mm|HoleSize=0mm|Usage=FLASHONLY|Rotation=180.000|XOffset=0mm|YOffset=0mm|HoleType=Round|Shape=RoundedRectangle|*
%AMROUNDEDRECTD24*
21,1,1.10000,0.49800,0,0,180.0*
21,1,0.99800,0.60000,0,0,180.0*
1,1,0.10200,-0.49900,0.24900*
1,1,0.10200,0.49900,0.24900*
1,1,0.10200,0.49900,-0.24900*
1,1,0.10200,-0.49900,-0.24900*
%
%ADD24ROUNDEDRECTD24*%
%ADD25R,0.95000X0.80000*%
%ADD26R,1.40000X1.39000*%
%ADD27R,0.90000X1.00000*%
G36*
X10583037Y7985600D02*
X10539742D01*
X10525600Y7999742D01*
Y8013827D01*
X10583037D01*
Y7985600D01*
D02*
G37*
G36*
X10505600Y7999742D02*
X10491458Y7985600D01*
X10448163D01*
Y8013827D01*
X10505600D01*
Y7999742D01*
D02*
G37*
G36*
X10583037Y7937373D02*
X10525600D01*
Y7951458D01*
X10539742Y7965600D01*
X10583037D01*
Y7937373D01*
D02*
G37*
G36*
X10505600Y7951458D02*
Y7937373D01*
X10448163D01*
Y7965600D01*
X10491458D01*
X10505600Y7951458D01*
D02*
G37*
G36*
X6971900Y7669749D02*
X6921900D01*
Y7744751D01*
X6971900D01*
Y7669749D01*
D02*
G37*
G36*
X6844900D02*
X6794900D01*
Y7744751D01*
X6844900D01*
Y7669749D01*
D02*
G37*
G36*
X6717900D02*
X6667900D01*
Y7744751D01*
X6717900D01*
Y7669749D01*
D02*
G37*
G36*
X6590900D02*
X6540900D01*
Y7744751D01*
X6590900D01*
Y7669749D01*
D02*
G37*
G36*
X6336900Y7669399D02*
X6286900D01*
Y7744401D01*
X6336900D01*
Y7669399D01*
D02*
G37*
G36*
X6209900D02*
X6159900D01*
Y7744401D01*
X6209900D01*
Y7669399D01*
D02*
G37*
G36*
X6082900D02*
X6032900D01*
Y7744401D01*
X6082900D01*
Y7669399D01*
D02*
G37*
G36*
X5955900D02*
X5905900D01*
Y7744401D01*
X5955900D01*
Y7669399D01*
D02*
G37*
G36*
X7606900Y7667600D02*
X7556900D01*
Y7742601D01*
X7606900D01*
Y7667600D01*
D02*
G37*
G36*
X7479900D02*
X7429900D01*
Y7742601D01*
X7479900D01*
Y7667600D01*
D02*
G37*
G36*
X7352900D02*
X7302900D01*
Y7742601D01*
X7352900D01*
Y7667600D01*
D02*
G37*
G36*
X7225900D02*
X7175900D01*
Y7742601D01*
X7225900D01*
Y7667600D01*
D02*
G37*
G36*
X6916400Y7491800D02*
X6766400D01*
Y7641800D01*
X6916400D01*
Y7491800D01*
D02*
G37*
G36*
X6746400D02*
X6596400D01*
Y7641800D01*
X6746400D01*
Y7491800D01*
D02*
G37*
G36*
X6281400Y7491450D02*
X6131400D01*
Y7641450D01*
X6281400D01*
Y7491450D01*
D02*
G37*
G36*
X6111400D02*
X5961400D01*
Y7641450D01*
X6111400D01*
Y7491450D01*
D02*
G37*
G36*
X7551400Y7489650D02*
X7401400D01*
Y7639650D01*
X7551400D01*
Y7489650D01*
D02*
G37*
G36*
X7381400D02*
X7231400D01*
Y7639650D01*
X7381400D01*
Y7489650D01*
D02*
G37*
G36*
X6916400Y7321800D02*
X6766400D01*
Y7471800D01*
X6916400D01*
Y7321800D01*
D02*
G37*
G36*
X6746400D02*
X6596400D01*
Y7471800D01*
X6746400D01*
Y7321800D01*
D02*
G37*
G36*
X6281400Y7321450D02*
X6131400D01*
Y7471450D01*
X6281400D01*
Y7321450D01*
D02*
G37*
G36*
X6111400D02*
X5961400D01*
Y7471450D01*
X6111400D01*
Y7321450D01*
D02*
G37*
G36*
X7551400Y7319650D02*
X7401400D01*
Y7469650D01*
X7551400D01*
Y7319650D01*
D02*
G37*
G36*
X7381400D02*
X7231400D01*
Y7469650D01*
X7381400D01*
Y7319650D01*
D02*
G37*
G36*
X6966900Y7088849D02*
X6926900D01*
Y7163851D01*
X6966900D01*
Y7088849D01*
D02*
G37*
G36*
X6839900D02*
X6799900D01*
Y7163851D01*
X6839900D01*
Y7088849D01*
D02*
G37*
G36*
X6712900D02*
X6672900D01*
Y7163851D01*
X6712900D01*
Y7088849D01*
D02*
G37*
G36*
X6585900D02*
X6545900D01*
Y7163851D01*
X6585900D01*
Y7088849D01*
D02*
G37*
G36*
X6331900Y7088499D02*
X6291900D01*
Y7163501D01*
X6331900D01*
Y7088499D01*
D02*
G37*
G36*
X6204900D02*
X6164900D01*
Y7163501D01*
X6204900D01*
Y7088499D01*
D02*
G37*
G36*
X6077900D02*
X6037900D01*
Y7163501D01*
X6077900D01*
Y7088499D01*
D02*
G37*
G36*
X5950900D02*
X5910900D01*
Y7163501D01*
X5950900D01*
Y7088499D01*
D02*
G37*
G36*
X7601900Y7086700D02*
X7561900D01*
Y7161701D01*
X7601900D01*
Y7086700D01*
D02*
G37*
G36*
X7474900D02*
X7434900D01*
Y7161701D01*
X7474900D01*
Y7086700D01*
D02*
G37*
G36*
X7347900D02*
X7307900D01*
Y7161701D01*
X7347900D01*
Y7086700D01*
D02*
G37*
G36*
X7220900D02*
X7180900D01*
Y7161701D01*
X7220900D01*
Y7086700D01*
D02*
G37*
D10*
X8699500Y7134200D02*
D03*
Y6734200D02*
D03*
D11*
X8028400Y8153400D02*
D03*
X7643400D02*
D03*
D12*
X6311900Y7126500D02*
D03*
X6184900D02*
D03*
X6057900D02*
D03*
X5930900D02*
D03*
X7200900Y7124700D02*
D03*
X7327900D02*
D03*
X7454900D02*
D03*
X6565900Y7126850D02*
D03*
X6692900D02*
D03*
X6819900D02*
D03*
X6946900D02*
D03*
X7581900Y7124700D02*
D03*
D13*
X5930900Y7708900D02*
D03*
X6057900D02*
D03*
X6184900D02*
D03*
X6311900D02*
D03*
X6946900Y7709250D02*
D03*
X6819900D02*
D03*
X6692900D02*
D03*
X6565900D02*
D03*
X7581900Y7707100D02*
D03*
X7454900D02*
D03*
X7327900D02*
D03*
X7200900D02*
D03*
D14*
X8685600Y8445500D02*
D03*
X8535600D02*
D03*
X8698300Y7442200D02*
D03*
X8548300D02*
D03*
X8851900Y8445500D02*
D03*
X9001900D02*
D03*
D15*
X8026400Y7720400D02*
D03*
X9029700Y7822000D02*
D03*
X4353000Y7848200D02*
D03*
Y7998200D02*
D03*
X4635500Y7849800D02*
D03*
Y7999800D02*
D03*
X9029700Y7672000D02*
D03*
X8026400Y7570400D02*
D03*
D16*
X8674100Y7647300D02*
D03*
X8420100D02*
D03*
X8547100Y8202300D02*
D03*
X8801100D02*
D03*
X8674100D02*
D03*
X8420100D02*
D03*
X8547100Y7647300D02*
D03*
X8801100D02*
D03*
D17*
X4208200Y5438700D02*
D03*
D20*
X4604000Y7470800D02*
D03*
X4794000D02*
D03*
X4699000Y7670800D02*
D03*
X4184900Y7469200D02*
D03*
X4374900D02*
D03*
X4279900Y7669200D02*
D03*
D21*
X10515600Y8406200D02*
D03*
Y8256200D02*
D03*
D22*
X10677200Y7632700D02*
D03*
X10557200D02*
D03*
X9334900Y7986700D02*
D03*
X9454900D02*
D03*
D23*
X10185400Y8055600D02*
D03*
Y7895600D02*
D03*
D24*
X9645900Y7891700D02*
D03*
Y7986700D02*
D03*
Y8081700D02*
D03*
X9905900D02*
D03*
Y7986700D02*
D03*
Y7891700D02*
D03*
D25*
X4356100Y8179800D02*
D03*
Y8304800D02*
D03*
X4635500D02*
D03*
Y8179800D02*
D03*
D26*
X3810000Y5530700D02*
D03*
Y5346700D02*
D03*
D27*
X9627300Y7681900D02*
D03*
X9467300D02*
D03*
%TF.MD5,0b4f5261ddcbab3e9f048fb966a599db*%
M02*
