%FSTAX23Y23*%
%MOIN*%
%SFA1B1*%

%IPPOS*%
%ADD17R,0.038000X0.063000*%
%ADD18R,0.059000X0.058000*%
%ADD27C,0.140000*%
%ADD30R,0.039464X0.039464*%
%ADD31C,0.039464*%
%ADD32R,0.072929X0.072929*%
%ADD33C,0.072929*%
%ADD34C,0.068992*%
%ADD41O,0.072960X0.033590*%
%ADD42R,0.059181X0.051307*%
%ADD43R,0.048945X0.022961*%
%ADD44O,0.053275X0.027685*%
%ADD45O,0.072960X0.027685*%
%ADD46R,0.047370X0.049338*%
%ADD47R,0.049338X0.047370*%
%LNacoustics_4_soldermask_top-1*%
%LPD*%
G54D17*
X02654Y00835D03*
X02585D03*
G54D18*
X0262Y00937D03*
G54D27*
X00125Y0232D03*
Y0012D03*
X0264Y0232D03*
G54D30*
X0253Y01951D03*
X00225Y02029D03*
Y01549D03*
Y00949D03*
Y00485D03*
X0253Y0157D03*
Y0119D03*
G54D31*
X00225Y0193D03*
Y0198D03*
Y015D03*
Y0145D03*
Y0085D03*
Y009D03*
Y00435D03*
Y00386D03*
X0253Y02099D03*
Y0205D03*
Y02D03*
Y01619D03*
Y01668D03*
Y01717D03*
Y01338D03*
Y01289D03*
Y0124D03*
G54D32*
X02162Y004D03*
G54D33*
X02162Y00301D03*
Y00203D03*
G54D34*
X02445Y004D03*
Y00203D03*
G54D41*
X01054Y00232D03*
Y00282D03*
Y00332D03*
Y00382D03*
X00831Y00232D03*
Y00282D03*
Y00332D03*
Y00382D03*
X02394Y0195D03*
Y02D03*
Y0205D03*
Y021D03*
Y0215D03*
Y022D03*
Y0225D03*
X02172Y0195D03*
Y02D03*
Y0205D03*
Y021D03*
Y0215D03*
Y022D03*
Y0225D03*
X01054Y01432D03*
Y01482D03*
Y01532D03*
Y01582D03*
X00831Y01432D03*
Y01482D03*
Y01532D03*
Y01582D03*
Y02182D03*
Y02132D03*
Y02082D03*
Y02032D03*
X01054Y02182D03*
Y02132D03*
Y02082D03*
Y02032D03*
Y00832D03*
Y00882D03*
Y00932D03*
Y00982D03*
X00831Y00832D03*
Y00882D03*
Y00932D03*
Y00982D03*
G54D42*
X02167Y01865D03*
X0223D03*
X024D03*
X02337D03*
X02631Y00665D03*
X02568D03*
X02408D03*
X02471D03*
X01642Y01615D03*
X01705D03*
X01225Y0142D03*
X01162D03*
X0191Y016D03*
X01847D03*
X01865Y0136D03*
X01802D03*
X0106Y0167D03*
X00997D03*
X0097Y01345D03*
X00907D03*
X00499Y01397D03*
X00436D03*
X00499Y01617D03*
X00436D03*
X01642Y00415D03*
X01705D03*
X01225Y0022D03*
X01162D03*
X0191Y004D03*
X01847D03*
X01865Y0016D03*
X01802D03*
X0106Y0047D03*
X00997D03*
X0097Y00145D03*
X00907D03*
X00499Y00197D03*
X00436D03*
X00499Y00417D03*
X00436D03*
X01642Y02215D03*
X01705D03*
X01225Y0202D03*
X01162D03*
X0191Y022D03*
X01847D03*
X01865Y0196D03*
X01802D03*
X0106Y0227D03*
X00997D03*
X0097Y01945D03*
X00907D03*
X00499Y01997D03*
X00436D03*
X00499Y02217D03*
X00436D03*
Y01017D03*
X00499D03*
X00436Y00797D03*
X00499D03*
X00907Y00745D03*
X0097D03*
X00997Y0107D03*
X0106D03*
X01802Y0076D03*
X01865D03*
X01847Y01D03*
X0191D03*
X01162Y0082D03*
X01225D03*
X01705Y01015D03*
X01642D03*
G54D43*
X02271Y00928D03*
Y00902D03*
Y00877D03*
Y00851D03*
X02438Y00928D03*
Y00902D03*
Y00877D03*
Y00851D03*
G54D44*
X018Y01518D03*
Y01492D03*
Y01467D03*
Y01441D03*
X01916Y01518D03*
Y01492D03*
Y01467D03*
Y01441D03*
X018Y00318D03*
Y00292D03*
Y00267D03*
Y00241D03*
X01916Y00318D03*
Y00292D03*
Y00267D03*
Y00241D03*
X018Y02118D03*
Y02092D03*
Y02067D03*
Y02041D03*
X01916Y02118D03*
Y02092D03*
Y02067D03*
Y02041D03*
Y00841D03*
Y00867D03*
Y00892D03*
Y00918D03*
X018Y00841D03*
Y00867D03*
Y00892D03*
Y00918D03*
G54D45*
X01322Y01592D03*
Y01567D03*
Y01542D03*
Y01517D03*
Y01492D03*
Y01467D03*
Y01442D03*
Y01417D03*
X01544Y01592D03*
Y01567D03*
Y01542D03*
Y01517D03*
Y01492D03*
Y01467D03*
Y01442D03*
Y01417D03*
X01322Y00392D03*
Y00367D03*
Y00342D03*
Y00317D03*
Y00292D03*
Y00267D03*
Y00242D03*
Y00217D03*
X01544Y00392D03*
Y00367D03*
Y00342D03*
Y00317D03*
Y00292D03*
Y00267D03*
Y00242D03*
Y00217D03*
X01322Y02192D03*
Y02167D03*
Y02142D03*
Y02117D03*
Y02092D03*
Y02067D03*
Y02042D03*
Y02017D03*
X01544Y02192D03*
Y02167D03*
Y02142D03*
Y02117D03*
Y02092D03*
Y02067D03*
Y02042D03*
Y02017D03*
Y00817D03*
Y00842D03*
Y00867D03*
Y00892D03*
Y00917D03*
Y00942D03*
Y00967D03*
Y00992D03*
X01322Y00817D03*
Y00842D03*
Y00867D03*
Y00892D03*
Y00917D03*
Y00942D03*
Y00967D03*
Y00992D03*
G54D46*
X01148Y01505D03*
Y01574D03*
X01638Y01514D03*
Y01445D03*
X01228Y01574D03*
Y01505D03*
X01718Y01514D03*
Y01445D03*
X00738Y01541D03*
Y01473D03*
X00588Y01466D03*
Y01398D03*
X00348Y01466D03*
Y01398D03*
X00588Y01548D03*
Y01616D03*
X00348Y01548D03*
Y01616D03*
X01148Y00305D03*
Y00374D03*
X01638Y00314D03*
Y00245D03*
X01228Y00374D03*
Y00305D03*
X01718Y00314D03*
Y00245D03*
X00738Y00341D03*
Y00273D03*
X00588Y00266D03*
Y00198D03*
X00348Y00266D03*
Y00198D03*
X00588Y00348D03*
Y00416D03*
X00348Y00348D03*
Y00416D03*
X01148Y02105D03*
Y02174D03*
X01638Y02114D03*
Y02045D03*
X01228Y02174D03*
Y02105D03*
X01718Y02114D03*
Y02045D03*
X00738Y02141D03*
Y02073D03*
X00588Y02066D03*
Y01998D03*
X00348Y02066D03*
Y01998D03*
X00588Y02148D03*
Y02216D03*
X00348Y02148D03*
Y02216D03*
Y01016D03*
Y00948D03*
X00588Y01016D03*
Y00948D03*
X00348Y00798D03*
Y00866D03*
X00588Y00798D03*
Y00866D03*
X00738Y00873D03*
Y00941D03*
X01718Y00845D03*
Y00914D03*
X01228Y00905D03*
Y00974D03*
X01638Y00845D03*
Y00914D03*
X01148Y00974D03*
Y00905D03*
G54D47*
X01637Y01345D03*
X01569D03*
X01159Y01655D03*
X01227D03*
X00668Y01392D03*
X00737D03*
X00668Y01622D03*
X00737D03*
X01569Y00145D03*
X01637D03*
X02605Y00755D03*
X02674D03*
X02464Y0075D03*
X02395D03*
X01569Y01945D03*
X01637D03*
X01159Y00455D03*
X01227D03*
X00668Y00192D03*
X00737D03*
X00668Y00422D03*
X00737D03*
X01159Y02255D03*
X01227D03*
X00668Y01992D03*
X00737D03*
X00668Y02222D03*
X00737D03*
Y01022D03*
X00668D03*
X00737Y00792D03*
X00668D03*
X01227Y01055D03*
X01159D03*
X01569Y00745D03*
X01637D03*
M02*