G04*
G04 #@! TF.GenerationSoftware,Altium Limited,Altium Designer,19.1.7 (138)*
G04*
G04 Layer_Color=8421504*
%FSLAX25Y25*%
%MOIN*%
G70*
G01*
G75*
%ADD21R,0.03543X0.02756*%
%ADD22R,0.07874X0.05906*%
%ADD23R,0.07874X0.14961*%
%ADD24R,0.01772X0.01693*%
%ADD25R,0.03740X0.06693*%
%ADD26R,0.02756X0.03543*%
G04:AMPARAMS|DCode=27|XSize=23.62mil|YSize=57.09mil|CornerRadius=2.01mil|HoleSize=0mil|Usage=FLASHONLY|Rotation=0.000|XOffset=0mil|YOffset=0mil|HoleType=Round|Shape=RoundedRectangle|*
%AMROUNDEDRECTD27*
21,1,0.02362,0.05307,0,0,0.0*
21,1,0.01961,0.05709,0,0,0.0*
1,1,0.00402,0.00980,-0.02653*
1,1,0.00402,-0.00980,-0.02653*
1,1,0.00402,-0.00980,0.02653*
1,1,0.00402,0.00980,0.02653*
%
%ADD27ROUNDEDRECTD27*%
G04:AMPARAMS|DCode=28|XSize=94.49mil|YSize=122.05mil|CornerRadius=1.89mil|HoleSize=0mil|Usage=FLASHONLY|Rotation=270.000|XOffset=0mil|YOffset=0mil|HoleType=Round|Shape=RoundedRectangle|*
%AMROUNDEDRECTD28*
21,1,0.09449,0.11827,0,0,270.0*
21,1,0.09071,0.12205,0,0,270.0*
1,1,0.00378,-0.05913,-0.04535*
1,1,0.00378,-0.05913,0.04535*
1,1,0.00378,0.05913,0.04535*
1,1,0.00378,0.05913,-0.04535*
%
%ADD28ROUNDEDRECTD28*%
%ADD29R,0.04921X0.04331*%
%ADD30R,0.05512X0.05472*%
%ADD31R,0.19134X0.13228*%
%ADD32R,0.04724X0.10236*%
%ADD33R,0.03937X0.03543*%
%ADD34O,0.02756X0.08661*%
G04:AMPARAMS|DCode=35|XSize=15.75mil|YSize=25.59mil|CornerRadius=1.97mil|HoleSize=0mil|Usage=FLASHONLY|Rotation=90.000|XOffset=0mil|YOffset=0mil|HoleType=Round|Shape=RoundedRectangle|*
%AMROUNDEDRECTD35*
21,1,0.01575,0.02165,0,0,90.0*
21,1,0.01181,0.02559,0,0,90.0*
1,1,0.00394,0.01083,0.00591*
1,1,0.00394,0.01083,-0.00591*
1,1,0.00394,-0.01083,-0.00591*
1,1,0.00394,-0.01083,0.00591*
%
%ADD35ROUNDEDRECTD35*%
%ADD36R,0.07284X0.13386*%
%ADD37R,0.03543X0.03937*%
%ADD38R,0.03150X0.03543*%
%ADD39R,0.06600X0.01400*%
%ADD40R,0.06200X0.11100*%
%ADD41R,0.07874X0.07087*%
G04:AMPARAMS|DCode=42|XSize=17.72mil|YSize=55.12mil|CornerRadius=1.95mil|HoleSize=0mil|Usage=FLASHONLY|Rotation=90.000|XOffset=0mil|YOffset=0mil|HoleType=Round|Shape=RoundedRectangle|*
%AMROUNDEDRECTD42*
21,1,0.01772,0.05122,0,0,90.0*
21,1,0.01382,0.05512,0,0,90.0*
1,1,0.00390,0.02561,0.00691*
1,1,0.00390,0.02561,-0.00691*
1,1,0.00390,-0.02561,-0.00691*
1,1,0.00390,-0.02561,0.00691*
%
%ADD42ROUNDEDRECTD42*%
%ADD43R,0.10236X0.04724*%
%ADD44O,0.08661X0.02756*%
%ADD45R,0.06693X0.03740*%
%ADD46R,0.13228X0.19134*%
%ADD47R,0.05472X0.05512*%
%ADD48R,0.07087X0.08268*%
%ADD49R,0.03543X0.03150*%
%ADD50R,0.02559X0.02756*%
%ADD51R,0.34449X0.20472*%
G36*
X75100Y352541D02*
X81280D01*
Y347679D01*
X75100D01*
Y352541D01*
D02*
G37*
G36*
Y354510D02*
X81280D01*
Y360750D01*
X75100D01*
Y354510D01*
D02*
G37*
G36*
X89900Y352541D02*
X83720D01*
Y347679D01*
X89900D01*
Y352541D01*
D02*
G37*
G36*
Y354510D02*
X83720D01*
Y360750D01*
X89900D01*
Y354510D01*
D02*
G37*
G36*
X197600Y244291D02*
X203780D01*
Y239429D01*
X197600D01*
Y244291D01*
D02*
G37*
G36*
Y246260D02*
X203780D01*
Y252500D01*
X197600D01*
Y246260D01*
D02*
G37*
G36*
X212400Y244291D02*
X206220D01*
Y239429D01*
X212400D01*
Y244291D01*
D02*
G37*
G36*
Y246260D02*
X206220D01*
Y252500D01*
X212400D01*
Y246260D01*
D02*
G37*
G36*
X222100Y244291D02*
X228280D01*
Y239429D01*
X222100D01*
Y244291D01*
D02*
G37*
G36*
Y246260D02*
X228280D01*
Y252500D01*
X222100D01*
Y246260D01*
D02*
G37*
G36*
X236900Y244291D02*
X230720D01*
Y239429D01*
X236900D01*
Y244291D01*
D02*
G37*
G36*
Y246260D02*
X230720D01*
Y252500D01*
X236900D01*
Y246260D01*
D02*
G37*
G36*
X304643Y242336D02*
X305754D01*
Y244040D01*
D01*
X305197Y244597D01*
D01*
X304643D01*
Y242336D01*
D02*
G37*
G36*
X306541D02*
X307653D01*
Y244597D01*
X307098D01*
D01*
X306541Y244040D01*
D01*
Y242336D01*
D02*
G37*
G36*
X304643Y245385D02*
X305197D01*
D01*
X305754Y245941D01*
D01*
Y247646D01*
X304643D01*
Y245385D01*
D02*
G37*
G36*
X307098D02*
X307653D01*
Y247646D01*
X306541D01*
Y245941D01*
D01*
X307098Y245385D01*
D01*
D02*
G37*
D21*
X179057Y382560D02*
D03*
Y377048D02*
D03*
X73750Y315988D02*
D03*
Y321500D02*
D03*
X260875Y310744D02*
D03*
Y316256D02*
D03*
X487500Y177984D02*
D03*
Y172472D02*
D03*
X179342Y412006D02*
D03*
Y406494D02*
D03*
X324676Y379512D02*
D03*
Y374000D02*
D03*
X259113Y393256D02*
D03*
Y387744D02*
D03*
X326000Y306244D02*
D03*
Y311756D02*
D03*
X487500Y191256D02*
D03*
Y185744D02*
D03*
X487500Y166256D02*
D03*
Y160744D02*
D03*
Y154256D02*
D03*
Y148744D02*
D03*
Y141756D02*
D03*
Y136244D02*
D03*
X332250Y248694D02*
D03*
Y243182D02*
D03*
X337250Y243182D02*
D03*
Y248694D02*
D03*
X383973Y234297D02*
D03*
Y239809D02*
D03*
X378351Y241006D02*
D03*
Y235494D02*
D03*
X398973Y234297D02*
D03*
Y239809D02*
D03*
X393973Y234297D02*
D03*
Y239809D02*
D03*
X388973Y234297D02*
D03*
Y239809D02*
D03*
D22*
X186598Y384404D02*
D03*
Y375349D02*
D03*
Y366294D02*
D03*
X186848Y413821D02*
D03*
Y404766D02*
D03*
Y395711D02*
D03*
D23*
X211402Y375349D02*
D03*
X211652Y404766D02*
D03*
D24*
X75000Y364018D02*
D03*
X80000D02*
D03*
X85000D02*
D03*
X90000D02*
D03*
Y342482D02*
D03*
X85000D02*
D03*
X80000D02*
D03*
X75000D02*
D03*
X222000Y255768D02*
D03*
X227000D02*
D03*
X232000D02*
D03*
X237000D02*
D03*
Y234232D02*
D03*
X232000D02*
D03*
X227000D02*
D03*
X222000D02*
D03*
X197500Y255768D02*
D03*
X202500D02*
D03*
X207500D02*
D03*
X212500D02*
D03*
Y234232D02*
D03*
X207500D02*
D03*
X202500D02*
D03*
X197500D02*
D03*
D25*
X297861Y298698D02*
D03*
X308885D02*
D03*
X297861Y290448D02*
D03*
X308885D02*
D03*
X291906Y285500D02*
D03*
X280882D02*
D03*
X376259Y350000D02*
D03*
X365235D02*
D03*
X376259Y340750D02*
D03*
X365235D02*
D03*
X345651Y350000D02*
D03*
X356675D02*
D03*
X345726Y340750D02*
D03*
X356750D02*
D03*
X277833Y363500D02*
D03*
X288856D02*
D03*
X277988Y355250D02*
D03*
X289012D02*
D03*
X310512Y357250D02*
D03*
X299488D02*
D03*
X310284Y366441D02*
D03*
X299260D02*
D03*
X353988Y278000D02*
D03*
X365012D02*
D03*
X374000Y289000D02*
D03*
X362976D02*
D03*
X362988Y297500D02*
D03*
X374012D02*
D03*
D26*
X277638Y328500D02*
D03*
X283150D02*
D03*
X270378Y329749D02*
D03*
X264866D02*
D03*
X270378Y324521D02*
D03*
X264866D02*
D03*
X80119Y220250D02*
D03*
X85631D02*
D03*
X270382Y287000D02*
D03*
X275894D02*
D03*
X283150Y323500D02*
D03*
X277638D02*
D03*
X334506Y387744D02*
D03*
X328994D02*
D03*
Y393256D02*
D03*
X334506D02*
D03*
X342086Y391750D02*
D03*
X347598D02*
D03*
X342180Y386500D02*
D03*
X347691D02*
D03*
X264638Y408250D02*
D03*
X270150D02*
D03*
X270250Y402750D02*
D03*
X264738D02*
D03*
X276494Y405750D02*
D03*
X282006D02*
D03*
X276494Y400750D02*
D03*
X282006D02*
D03*
X334756Y325000D02*
D03*
X329244D02*
D03*
X480618Y248500D02*
D03*
X486130D02*
D03*
X480618Y242000D02*
D03*
X486130D02*
D03*
X480618Y236000D02*
D03*
X486130D02*
D03*
X480618Y229500D02*
D03*
X486130D02*
D03*
X480618Y223500D02*
D03*
X486130D02*
D03*
X480618Y217500D02*
D03*
X486130D02*
D03*
X480618Y211000D02*
D03*
X486130D02*
D03*
X480618Y204500D02*
D03*
X486130D02*
D03*
X466458Y251000D02*
D03*
X460947D02*
D03*
X341744Y324000D02*
D03*
X347256D02*
D03*
X341744Y319000D02*
D03*
X347256D02*
D03*
X329244Y320000D02*
D03*
X334756D02*
D03*
X248917Y231000D02*
D03*
X254429D02*
D03*
X337506Y238438D02*
D03*
X331994D02*
D03*
X337506Y233241D02*
D03*
X331994D02*
D03*
X251244Y418500D02*
D03*
X256756D02*
D03*
X411107Y240128D02*
D03*
X405595D02*
D03*
X405595Y245628D02*
D03*
X411107D02*
D03*
X405595Y251128D02*
D03*
X411107D02*
D03*
X411107Y256128D02*
D03*
X405595D02*
D03*
X378095Y251750D02*
D03*
X383607D02*
D03*
X378095Y256750D02*
D03*
X383607D02*
D03*
D27*
X267394Y294772D02*
D03*
X272394D02*
D03*
X277394D02*
D03*
X282394D02*
D03*
X267394Y316228D02*
D03*
X272394D02*
D03*
X277394D02*
D03*
X282394D02*
D03*
X281563Y393478D02*
D03*
X276563D02*
D03*
X271563D02*
D03*
X266563D02*
D03*
X281563Y372022D02*
D03*
X276563D02*
D03*
X271563D02*
D03*
X266563D02*
D03*
X332500Y358272D02*
D03*
X337500D02*
D03*
X342500D02*
D03*
X347500D02*
D03*
X332500Y379728D02*
D03*
X337500D02*
D03*
X342500D02*
D03*
X347500D02*
D03*
X347000Y312228D02*
D03*
X342000D02*
D03*
X337000D02*
D03*
X332000D02*
D03*
X347000Y290772D02*
D03*
X342000D02*
D03*
X337000D02*
D03*
X332000D02*
D03*
D28*
X274894Y305500D02*
D03*
X274063Y382750D02*
D03*
X340000Y369000D02*
D03*
X339500Y301500D02*
D03*
D29*
X80124Y227500D02*
D03*
X89376D02*
D03*
X340011Y268023D02*
D03*
X349263D02*
D03*
X310376Y268158D02*
D03*
X319628D02*
D03*
X502626Y176895D02*
D03*
X493374D02*
D03*
X502626Y188500D02*
D03*
X493374D02*
D03*
X502626Y164000D02*
D03*
X493374D02*
D03*
X502626Y151500D02*
D03*
X493374D02*
D03*
X502626Y139000D02*
D03*
X493374D02*
D03*
X502500Y204500D02*
D03*
X493248D02*
D03*
X502500Y211000D02*
D03*
X493248D02*
D03*
X502500Y217402D02*
D03*
X493248D02*
D03*
X502500Y223500D02*
D03*
X493248D02*
D03*
X502500Y229500D02*
D03*
X493248D02*
D03*
X502500Y236000D02*
D03*
X493248D02*
D03*
X502500Y242000D02*
D03*
X493248D02*
D03*
X502500Y248500D02*
D03*
X493248D02*
D03*
X273964Y418750D02*
D03*
X264712D02*
D03*
D30*
X106927Y207372D02*
D03*
Y200128D02*
D03*
X142500Y198756D02*
D03*
Y206000D02*
D03*
D31*
X91250Y203750D02*
D03*
X158177Y202378D02*
D03*
D32*
X84204Y274000D02*
D03*
X74164D02*
D03*
D33*
X95750Y292650D02*
D03*
Y286350D02*
D03*
X261550Y265157D02*
D03*
Y258858D02*
D03*
D34*
X73750Y286423D02*
D03*
X78750D02*
D03*
X83750D02*
D03*
X88750D02*
D03*
X73750Y308077D02*
D03*
X78750D02*
D03*
X83750D02*
D03*
X88750D02*
D03*
D35*
X292137Y264566D02*
D03*
Y262007D02*
D03*
Y259448D02*
D03*
X284066D02*
D03*
Y262007D02*
D03*
Y264566D02*
D03*
D36*
X313819Y317000D02*
D03*
X291969D02*
D03*
D37*
X371684Y280000D02*
D03*
X377983D02*
D03*
X362792Y267863D02*
D03*
X356493D02*
D03*
X333042Y268158D02*
D03*
X326743D02*
D03*
X290944Y253395D02*
D03*
X284644D02*
D03*
X309150Y235924D02*
D03*
X302850D02*
D03*
X271825Y265157D02*
D03*
X278124D02*
D03*
X302850Y255250D02*
D03*
X309150D02*
D03*
D38*
X379051Y271266D02*
D03*
X371571D02*
D03*
X375311Y263392D02*
D03*
X321247Y253713D02*
D03*
X328727D02*
D03*
X324987Y261587D02*
D03*
D39*
X346851Y251477D02*
D03*
Y248918D02*
D03*
Y246359D02*
D03*
Y243800D02*
D03*
Y241241D02*
D03*
Y238682D02*
D03*
Y236123D02*
D03*
X369051Y236123D02*
D03*
Y238682D02*
D03*
Y241241D02*
D03*
Y243800D02*
D03*
Y246359D02*
D03*
Y248918D02*
D03*
Y251477D02*
D03*
D40*
X396500Y382500D02*
D03*
Y406500D02*
D03*
X435500D02*
D03*
Y382500D02*
D03*
X396425Y345000D02*
D03*
Y369000D02*
D03*
X435425D02*
D03*
Y345000D02*
D03*
X397000Y268000D02*
D03*
Y292000D02*
D03*
X436000D02*
D03*
Y268000D02*
D03*
X396500Y307000D02*
D03*
Y331000D02*
D03*
X435500D02*
D03*
Y307000D02*
D03*
D41*
X375295Y371559D02*
D03*
X357579D02*
D03*
X309249Y384559D02*
D03*
X291532D02*
D03*
X373000Y313500D02*
D03*
X355283D02*
D03*
D42*
X466614Y229823D02*
D03*
Y232382D02*
D03*
Y234941D02*
D03*
Y237500D02*
D03*
Y240059D02*
D03*
Y242618D02*
D03*
Y245177D02*
D03*
X443386Y229823D02*
D03*
Y232382D02*
D03*
Y234941D02*
D03*
Y237500D02*
D03*
Y240059D02*
D03*
Y242618D02*
D03*
Y245177D02*
D03*
D43*
X287500Y245520D02*
D03*
Y235480D02*
D03*
D44*
X273327Y237000D02*
D03*
Y242000D02*
D03*
Y247000D02*
D03*
Y252000D02*
D03*
X251673Y237000D02*
D03*
Y242000D02*
D03*
Y247000D02*
D03*
Y252000D02*
D03*
D45*
X355000Y284976D02*
D03*
Y296000D02*
D03*
D46*
X92500Y398500D02*
D03*
D47*
X88878Y382823D02*
D03*
X96122D02*
D03*
D48*
X75750Y380589D02*
D03*
Y397911D02*
D03*
D49*
X389914Y252550D02*
D03*
X397788Y256290D02*
D03*
Y248810D02*
D03*
D50*
X354773Y229250D02*
D03*
X360088D02*
D03*
D51*
X165500Y282000D02*
D03*
Y239480D02*
D03*
X124500Y282000D02*
D03*
Y239480D02*
D03*
M02*
