%TF.GenerationSoftware,Altium Limited,Altium Designer,23.6.0 (18)*%
G04 Layer_Physical_Order=6*
G04 Layer_Color=16711680*
%FSLAX45Y45*%
%MOMM*%
%TF.SameCoordinates,DACBD49B-6CD5-42DE-81B8-5418E1F3F2F4*%
%TF.FilePolarity,Positive*%
%TF.FileFunction,Copper,L6,Bot,Signal*%
%TF.Part,Single*%
G01*
G75*
%TA.AperFunction,SMDPad,CuDef*%
%ADD12R,0.85000X0.75000*%
%ADD15R,0.90000X0.70000*%
%ADD21R,0.80000X0.95000*%
%ADD29R,0.80000X0.90000*%
%ADD40R,0.75000X0.85000*%
%ADD45R,1.25000X1.10000*%
%ADD51R,0.70000X0.90000*%
%TA.AperFunction,Conductor*%
%ADD55C,0.38100*%
%ADD56C,1.01600*%
%ADD57C,0.25400*%
%ADD58C,0.63500*%
%ADD59C,0.50800*%
%TA.AperFunction,ComponentPad*%
%ADD62C,1.55000*%
%ADD63R,1.55000X1.55000*%
%ADD64R,1.55000X1.55000*%
%ADD65C,1.30000*%
%ADD66C,1.80000*%
%ADD67R,1.80000X1.80000*%
%ADD68C,6.10000*%
%ADD69C,2.10000*%
%ADD70C,1.56000*%
%ADD71R,1.37000X1.37000*%
%ADD72C,1.37000*%
%ADD73C,9.50000*%
%ADD74C,2.03200*%
%TA.AperFunction,TestPad*%
%ADD75C,2.03200*%
%TA.AperFunction,ViaPad*%
%ADD76C,0.76200*%
%ADD77C,0.88900*%
%ADD78C,0.63500*%
%ADD79C,1.14300*%
%ADD80C,0.50800*%
%ADD81C,1.27000*%
%TA.AperFunction,Conductor*%
%ADD104C,1.27000*%
%TA.AperFunction,SMDPad,CuDef*%
%ADD105R,1.20620X0.95620*%
%ADD106R,1.01213X1.33108*%
%ADD107R,0.80650X1.30822*%
%ADD108R,0.85000X1.35000*%
%ADD109R,0.57000X1.40000*%
%ADD110C,1.80000*%
%ADD111R,0.95000X3.50000*%
%ADD112R,10.35000X9.00000*%
%TA.AperFunction,Conductor*%
%ADD113C,2.28600*%
G36*
X18516765Y13457590D02*
X18509880Y13464371D01*
X18496266Y13475789D01*
X18489536Y13480428D01*
X18482858Y13484354D01*
X18476231Y13487566D01*
X18469656Y13490063D01*
X18463133Y13491849D01*
X18456664Y13492918D01*
X18450548Y13493259D01*
X18443898Y13493085D01*
X18437370Y13492513D01*
X18431609Y13491560D01*
X18426616Y13490227D01*
X18422392Y13488513D01*
X18418935Y13486417D01*
X18416248Y13483942D01*
X18414326Y13481084D01*
X18413174Y13477844D01*
X18412790Y13474225D01*
Y13550426D01*
X18413174Y13546806D01*
X18414326Y13543567D01*
X18416248Y13540710D01*
X18418935Y13538232D01*
X18422392Y13536137D01*
X18426616Y13534422D01*
X18431609Y13533090D01*
X18437370Y13532137D01*
X18443898Y13531566D01*
X18450711Y13531387D01*
X18456879Y13531729D01*
X18463341Y13532793D01*
X18469868Y13534563D01*
X18476463Y13537041D01*
X18483125Y13540228D01*
X18489853Y13544124D01*
X18496648Y13548727D01*
X18503510Y13554039D01*
X18510435Y13560060D01*
X18517430Y13566788D01*
X18516765Y13457590D01*
D02*
G37*
G36*
X18284648Y13470224D02*
X18281563Y13469081D01*
X18278841Y13467175D01*
X18276482Y13464510D01*
X18274486Y13461079D01*
X18272853Y13456889D01*
X18271584Y13451936D01*
X18270676Y13446220D01*
X18270393Y13442862D01*
X18270622Y13440033D01*
X18271146Y13436752D01*
X18271819Y13433746D01*
X18272641Y13431012D01*
X18273613Y13428551D01*
X18274734Y13426364D01*
X18276006Y13424451D01*
X18277425Y13422809D01*
X18224089Y13423509D01*
X18225565Y13425128D01*
X18226883Y13427023D01*
X18228047Y13429193D01*
X18229056Y13431638D01*
X18229910Y13434360D01*
X18230608Y13437355D01*
X18231151Y13440627D01*
X18231403Y13442915D01*
X18231123Y13446220D01*
X18230217Y13451936D01*
X18228947Y13456889D01*
X18227315Y13461079D01*
X18225317Y13464510D01*
X18222958Y13467175D01*
X18220238Y13469081D01*
X18217152Y13470224D01*
X18213705Y13470605D01*
X18288095D01*
X18284648Y13470224D01*
D02*
G37*
G36*
X18517097Y13207248D02*
X18510156Y13214003D01*
X18496455Y13225378D01*
X18489693Y13230000D01*
X18482990Y13233911D01*
X18476346Y13237109D01*
X18469762Y13239600D01*
X18463235Y13241376D01*
X18456770Y13242442D01*
X18450629Y13242783D01*
X18443898Y13242607D01*
X18437370Y13242036D01*
X18431609Y13241083D01*
X18426616Y13239751D01*
X18422392Y13238036D01*
X18418935Y13235941D01*
X18416248Y13233463D01*
X18414326Y13230606D01*
X18413174Y13227367D01*
X18412790Y13223747D01*
Y13299948D01*
X18413174Y13296329D01*
X18414326Y13293089D01*
X18416248Y13290231D01*
X18418935Y13287756D01*
X18422392Y13285661D01*
X18426616Y13283946D01*
X18431609Y13282613D01*
X18437370Y13281660D01*
X18443898Y13281088D01*
X18450629Y13280913D01*
X18456770Y13281255D01*
X18463235Y13282320D01*
X18469762Y13284097D01*
X18476346Y13286586D01*
X18482990Y13289784D01*
X18489693Y13293697D01*
X18496455Y13298318D01*
X18503278Y13303650D01*
X18510156Y13309692D01*
X18517097Y13316447D01*
Y13207248D01*
D02*
G37*
G36*
X18284554Y13219272D02*
X18281383Y13218129D01*
X18278586Y13216225D01*
X18276163Y13213557D01*
X18274110Y13210127D01*
X18272433Y13205937D01*
X18271127Y13200984D01*
X18270197Y13195268D01*
X18269878Y13191595D01*
X18270123Y13188580D01*
X18270647Y13185301D01*
X18271320Y13182294D01*
X18272141Y13179559D01*
X18273112Y13177100D01*
X18274234Y13174911D01*
X18275504Y13172998D01*
X18276926Y13171358D01*
X18223589Y13172057D01*
X18225064Y13173676D01*
X18226382Y13175571D01*
X18227547Y13177740D01*
X18228555Y13180186D01*
X18229410Y13182907D01*
X18230109Y13185902D01*
X18230650Y13189174D01*
X18230933Y13191740D01*
X18230644Y13195268D01*
X18229762Y13200984D01*
X18228526Y13205937D01*
X18226939Y13210127D01*
X18224998Y13213557D01*
X18222704Y13216225D01*
X18220058Y13218129D01*
X18217056Y13219272D01*
X18213705Y13219653D01*
X18288095D01*
X18284554Y13219272D01*
D02*
G37*
G36*
X18314812Y12978790D02*
X18313336Y12977171D01*
X18312016Y12975278D01*
X18310854Y12973106D01*
X18309843Y12970662D01*
X18308990Y12967941D01*
X18308292Y12964944D01*
X18307748Y12961674D01*
X18307359Y12958128D01*
X18307307Y12956792D01*
X18307812Y12951079D01*
X18308765Y12945364D01*
X18310098Y12940411D01*
X18311812Y12936220D01*
X18313908Y12932791D01*
X18316385Y12930124D01*
X18319241Y12928220D01*
X18322479Y12927077D01*
X18326100Y12926695D01*
X18249899D01*
X18253519Y12927077D01*
X18256758Y12928220D01*
X18259615Y12930124D01*
X18262093Y12932791D01*
X18264188Y12936220D01*
X18265903Y12940411D01*
X18267235Y12945364D01*
X18268188Y12951079D01*
X18268707Y12956963D01*
X18268277Y12962267D01*
X18267754Y12965547D01*
X18267081Y12968555D01*
X18266258Y12971288D01*
X18265286Y12973749D01*
X18264166Y12975935D01*
X18262895Y12977850D01*
X18261475Y12979491D01*
X18314812Y12978790D01*
D02*
G37*
G36*
X18626678Y12954970D02*
X18626031Y12952940D01*
X18625462Y12950053D01*
X18624968Y12946309D01*
X18624208Y12936252D01*
X18623599Y12905856D01*
X18522000D01*
X18521962Y12914742D01*
X18519568Y12952940D01*
X18518922Y12954970D01*
X18518201Y12956143D01*
X18627400D01*
X18626678Y12954970D01*
D02*
G37*
G36*
X18623637Y12858954D02*
X18626031Y12820755D01*
X18626678Y12818726D01*
X18627400Y12817552D01*
X18518201D01*
X18518922Y12818726D01*
X18519568Y12820755D01*
X18520139Y12823642D01*
X18520631Y12827386D01*
X18521391Y12837444D01*
X18522000Y12867838D01*
X18623599D01*
X18623637Y12858954D01*
D02*
G37*
G36*
X15127682Y12682985D02*
X15124059Y12686484D01*
X15120406Y12689614D01*
X15116724Y12692377D01*
X15113016Y12694771D01*
X15109277Y12696796D01*
X15105510Y12698454D01*
X15101715Y12699743D01*
X15098566Y12700501D01*
X15097086Y12700257D01*
X15093744Y12699368D01*
X15090916Y12698225D01*
X15088603Y12696828D01*
X15086804Y12695177D01*
X15085519Y12693272D01*
X15084747Y12691113D01*
X15084491Y12688700D01*
Y12739500D01*
X15084747Y12737087D01*
X15085519Y12734928D01*
X15086804Y12733023D01*
X15088603Y12731372D01*
X15090916Y12729975D01*
X15093744Y12728832D01*
X15097086Y12727943D01*
X15098566Y12727699D01*
X15101715Y12728457D01*
X15105510Y12729746D01*
X15109277Y12731404D01*
X15113016Y12733429D01*
X15116724Y12735823D01*
X15120406Y12738586D01*
X15124059Y12741716D01*
X15127682Y12745215D01*
Y12682985D01*
D02*
G37*
G36*
X14629276D02*
X14625652Y12686484D01*
X14621999Y12689614D01*
X14618317Y12692377D01*
X14614607Y12694771D01*
X14610869Y12696796D01*
X14607103Y12698454D01*
X14603308Y12699743D01*
X14599484Y12700663D01*
X14595631Y12701216D01*
X14593117Y12701335D01*
X14590721Y12701273D01*
X14586353Y12700892D01*
X14582497Y12700257D01*
X14579153Y12699368D01*
X14576328Y12698225D01*
X14574013Y12696828D01*
X14572214Y12695177D01*
X14570929Y12693272D01*
X14570158Y12691113D01*
X14569901Y12688700D01*
Y12739500D01*
X14570158Y12737087D01*
X14570929Y12734928D01*
X14572214Y12733023D01*
X14574013Y12731372D01*
X14576328Y12729975D01*
X14579153Y12728832D01*
X14582497Y12727943D01*
X14586353Y12727308D01*
X14590721Y12726927D01*
X14593117Y12726865D01*
X14595631Y12726984D01*
X14599484Y12727537D01*
X14603308Y12728457D01*
X14607103Y12729746D01*
X14610869Y12731404D01*
X14614607Y12733429D01*
X14618317Y12735823D01*
X14621999Y12738586D01*
X14625652Y12741716D01*
X14629276Y12745215D01*
Y12682985D01*
D02*
G37*
G36*
X18517097Y12707249D02*
X18515924Y12707971D01*
X18513895Y12708617D01*
X18511008Y12709187D01*
X18507263Y12709681D01*
X18497206Y12710441D01*
X18466811Y12711049D01*
Y12812650D01*
X18475694Y12812688D01*
X18513895Y12815080D01*
X18515924Y12815727D01*
X18517097Y12816449D01*
Y12707249D01*
D02*
G37*
G36*
X15194794Y12741716D02*
X15198447Y12738586D01*
X15202129Y12735823D01*
X15205838Y12733429D01*
X15209576Y12731404D01*
X15213342Y12729746D01*
X15217139Y12728457D01*
X15220961Y12727537D01*
X15224812Y12726984D01*
X15226288Y12726914D01*
X15226782Y12726927D01*
X15231152Y12727308D01*
X15235008Y12727943D01*
X15238350Y12728832D01*
X15241177Y12729975D01*
X15243491Y12731372D01*
X15245290Y12733023D01*
X15246574Y12734928D01*
X15247346Y12737087D01*
X15247603Y12739500D01*
Y12688700D01*
X15247346Y12691113D01*
X15246574Y12693272D01*
X15245290Y12695177D01*
X15243491Y12696828D01*
X15241177Y12698225D01*
X15238350Y12699368D01*
X15235008Y12700257D01*
X15231152Y12700892D01*
X15226782Y12701273D01*
X15226288Y12701286D01*
X15224812Y12701216D01*
X15220961Y12700663D01*
X15217139Y12699743D01*
X15213342Y12698454D01*
X15209576Y12696796D01*
X15205838Y12694771D01*
X15202129Y12692377D01*
X15198447Y12689614D01*
X15194794Y12686484D01*
X15191170Y12682985D01*
Y12745215D01*
X15194794Y12741716D01*
D02*
G37*
G36*
X14696387D02*
X14700040Y12738586D01*
X14703722Y12735823D01*
X14707431Y12733429D01*
X14711169Y12731404D01*
X14714935Y12729746D01*
X14718431Y12728559D01*
X14719456Y12728832D01*
X14722284Y12729975D01*
X14724597Y12731372D01*
X14726398Y12733023D01*
X14727682Y12734928D01*
X14728453Y12737087D01*
X14728709Y12739500D01*
Y12726875D01*
X14730286Y12726800D01*
Y12701400D01*
X14728709Y12701325D01*
Y12688700D01*
X14728453Y12691113D01*
X14727682Y12693272D01*
X14726398Y12695177D01*
X14724597Y12696828D01*
X14722284Y12698225D01*
X14719456Y12699368D01*
X14718431Y12699641D01*
X14714935Y12698454D01*
X14711169Y12696796D01*
X14707431Y12694771D01*
X14703722Y12692377D01*
X14700040Y12689614D01*
X14696387Y12686484D01*
X14692763Y12682985D01*
Y12745215D01*
X14696387Y12741716D01*
D02*
G37*
G36*
X14450195Y12681800D02*
X14449940Y12684213D01*
X14449179Y12686372D01*
X14447910Y12688277D01*
X14446130Y12689928D01*
X14443845Y12691325D01*
X14441051Y12692468D01*
X14437749Y12693357D01*
X14433939Y12693992D01*
X14429620Y12694373D01*
X14424796Y12694500D01*
Y12719900D01*
X14429620Y12720027D01*
X14433939Y12720408D01*
X14437749Y12721043D01*
X14441051Y12721932D01*
X14443845Y12723075D01*
X14446130Y12724472D01*
X14447910Y12726123D01*
X14449179Y12728028D01*
X14449940Y12730187D01*
X14450195Y12732600D01*
Y12681800D01*
D02*
G37*
G36*
X7542784Y12598405D02*
X7527016Y12598335D01*
X7486818Y12595315D01*
X7475787Y12593372D01*
X7465940Y12590961D01*
X7457278Y12588082D01*
X7449800Y12584735D01*
X7443506Y12580919D01*
X7438396Y12576636D01*
X7420436Y12594596D01*
X7424719Y12599706D01*
X7428535Y12606000D01*
X7431882Y12613478D01*
X7434761Y12622140D01*
X7437172Y12631987D01*
X7439115Y12643018D01*
X7440589Y12655233D01*
X7442135Y12683216D01*
X7442205Y12698984D01*
X7542784Y12598405D01*
D02*
G37*
G36*
X11596075Y12596596D02*
X11599189Y12594263D01*
X11602544Y12592210D01*
X11606139Y12590438D01*
X11609974Y12588947D01*
X11614050Y12587736D01*
X11618366Y12586805D01*
X11622922Y12586156D01*
X11627718Y12585786D01*
X11632755Y12585698D01*
X11588752Y12541694D01*
X11588663Y12546731D01*
X11588294Y12551528D01*
X11587644Y12556084D01*
X11586714Y12560400D01*
X11585503Y12564476D01*
X11584012Y12568311D01*
X11582239Y12571906D01*
X11580187Y12575261D01*
X11577854Y12578375D01*
X11575240Y12581249D01*
X11593201Y12599209D01*
X11596075Y12596596D01*
D02*
G37*
G36*
X15348157Y12553635D02*
X15348918Y12551476D01*
X15350188Y12549571D01*
X15351965Y12547920D01*
X15354253Y12546523D01*
X15357047Y12545380D01*
X15360349Y12544491D01*
X15364159Y12543856D01*
X15368475Y12543475D01*
X15373302Y12543348D01*
Y12517948D01*
X15368475Y12517821D01*
X15364159Y12517440D01*
X15360349Y12516805D01*
X15357047Y12515916D01*
X15354253Y12514773D01*
X15351965Y12513376D01*
X15350188Y12511725D01*
X15348918Y12509820D01*
X15348157Y12507661D01*
X15347902Y12505248D01*
Y12556048D01*
X15348157Y12553635D01*
D02*
G37*
G36*
X15463075Y12495719D02*
X15460860Y12499670D01*
X15458435Y12503206D01*
X15455804Y12506325D01*
X15452966Y12509029D01*
X15449922Y12511316D01*
X15446671Y12513188D01*
X15443211Y12514643D01*
X15439545Y12515683D01*
X15435670Y12516307D01*
X15431590Y12516515D01*
X15440028Y12541915D01*
X15443524Y12542047D01*
X15447169Y12542441D01*
X15450967Y12543099D01*
X15454915Y12544020D01*
X15463268Y12546651D01*
X15467670Y12548361D01*
X15476929Y12552570D01*
X15481786Y12555070D01*
X15463075Y12495719D01*
D02*
G37*
G36*
X14450195Y12476800D02*
X14449940Y12479213D01*
X14449179Y12481372D01*
X14447910Y12483277D01*
X14446130Y12484928D01*
X14443845Y12486325D01*
X14441051Y12487468D01*
X14437749Y12488357D01*
X14433939Y12488992D01*
X14429620Y12489373D01*
X14424796Y12489500D01*
Y12514900D01*
X14429620Y12515027D01*
X14433939Y12515408D01*
X14437749Y12516043D01*
X14441051Y12516932D01*
X14443845Y12518075D01*
X14446130Y12519472D01*
X14447910Y12521123D01*
X14449179Y12523028D01*
X14449940Y12525187D01*
X14450195Y12527600D01*
Y12476800D01*
D02*
G37*
G36*
X14337326Y12532159D02*
X14339763Y12528625D01*
X14342404Y12525507D01*
X14345251Y12522805D01*
X14348305Y12520518D01*
X14351562Y12518647D01*
X14355025Y12517192D01*
X14358693Y12516153D01*
X14362567Y12515529D01*
X14366646Y12515321D01*
X14358304Y12489921D01*
X14354803Y12489789D01*
X14351154Y12489393D01*
X14347354Y12488731D01*
X14343407Y12487806D01*
X14339307Y12486616D01*
X14330663Y12483442D01*
X14326115Y12481458D01*
X14316576Y12476698D01*
X14335095Y12536108D01*
X14337326Y12532159D01*
D02*
G37*
G36*
X14939101Y12661600D02*
X15006599Y12594100D01*
X15006599Y12369100D01*
Y12365122D01*
X15003555Y12357771D01*
X14997929Y12352145D01*
X14990578Y12349100D01*
X14920973D01*
X14921089Y12346701D01*
X14921654Y12342841D01*
X14922597Y12339030D01*
X14923917Y12335268D01*
X14925613Y12331557D01*
X14927687Y12327895D01*
X14930138Y12324282D01*
X14932967Y12320720D01*
X14936169Y12317207D01*
X14939752Y12313743D01*
X14877563Y12311503D01*
X14880971Y12315286D01*
X14884019Y12319076D01*
X14886711Y12322873D01*
X14889043Y12326677D01*
X14891016Y12330489D01*
X14892630Y12334308D01*
X14893886Y12338135D01*
X14894783Y12341968D01*
X14895322Y12345809D01*
X14895474Y12349100D01*
X14822623D01*
X14815271Y12352145D01*
X14809645Y12357771D01*
X14806599Y12365122D01*
Y12369100D01*
Y12594100D01*
X14874100Y12661600D01*
Y12784100D01*
X14939101D01*
Y12661600D01*
D02*
G37*
G36*
X12732580Y12355644D02*
X12738271Y12341834D01*
X12740299Y12337821D01*
X12744552Y12330681D01*
X12746778Y12327554D01*
X12749068Y12324722D01*
X12751425Y12322185D01*
X12739824Y12297865D01*
X12736785Y12300610D01*
X12733604Y12302906D01*
X12730283Y12304753D01*
X12726821Y12306152D01*
X12723219Y12307102D01*
X12719475Y12307603D01*
X12715591Y12307656D01*
X12711566Y12307260D01*
X12707400Y12306416D01*
X12703093Y12305123D01*
X12730815Y12360837D01*
X12732580Y12355644D01*
D02*
G37*
G36*
X11067805Y12201902D02*
X11067297Y12202895D01*
X11065773Y12203784D01*
X11063233Y12204568D01*
X11059677Y12205248D01*
X11055105Y12205823D01*
X11042913Y12206659D01*
X11020252Y12207071D01*
X11019879Y12207066D01*
X11007458Y12206112D01*
X11004123Y12205539D01*
X11001192Y12204839D01*
X10998664Y12204012D01*
X10996539Y12203057D01*
X10994816Y12201976D01*
X10993497Y12200767D01*
X10990095Y12262904D01*
X10991388Y12261959D01*
X10993090Y12261113D01*
X10995200Y12260367D01*
X10997720Y12259720D01*
X11000649Y12259173D01*
X11007734Y12258377D01*
X11016455Y12257980D01*
X11018862Y12257955D01*
X11026657Y12258063D01*
X11049517Y12260068D01*
X11055105Y12261270D01*
X11059677Y12262740D01*
X11063233Y12264477D01*
X11065773Y12266482D01*
X11067297Y12268753D01*
X11067805Y12271292D01*
Y12201902D01*
D02*
G37*
G36*
X18322479Y12295124D02*
X18319241Y12293981D01*
X18316385Y12292076D01*
X18313908Y12289409D01*
X18311812Y12285980D01*
X18310098Y12281789D01*
X18308765Y12276836D01*
X18307812Y12271121D01*
X18307294Y12265238D01*
X18307722Y12259933D01*
X18308246Y12256653D01*
X18308919Y12253646D01*
X18309741Y12250912D01*
X18310713Y12248451D01*
X18311835Y12246264D01*
X18313104Y12244350D01*
X18314525Y12242709D01*
X18261189Y12243409D01*
X18262663Y12245028D01*
X18263983Y12246923D01*
X18265147Y12249093D01*
X18266156Y12251538D01*
X18267010Y12254259D01*
X18267708Y12257255D01*
X18268251Y12260526D01*
X18268640Y12264073D01*
X18268692Y12265409D01*
X18268188Y12271121D01*
X18267235Y12276836D01*
X18265903Y12281789D01*
X18264188Y12285980D01*
X18262093Y12289409D01*
X18259615Y12292076D01*
X18256758Y12293981D01*
X18253519Y12295124D01*
X18249899Y12295505D01*
X18326100D01*
X18322479Y12295124D01*
D02*
G37*
G36*
X9684503Y12268753D02*
X9686027Y12266482D01*
X9688567Y12264477D01*
X9692123Y12262740D01*
X9696695Y12261270D01*
X9702283Y12260068D01*
X9708887Y12259132D01*
X9716507Y12258464D01*
X9733666Y12257963D01*
X9735345Y12257980D01*
X9751151Y12259173D01*
X9754080Y12259720D01*
X9756600Y12260367D01*
X9758710Y12261113D01*
X9760412Y12261959D01*
X9761705Y12262904D01*
X9758303Y12200767D01*
X9756984Y12201976D01*
X9755261Y12203057D01*
X9753136Y12204012D01*
X9750608Y12204839D01*
X9747677Y12205539D01*
X9744342Y12206112D01*
X9736465Y12206875D01*
X9731921Y12207066D01*
X9729290Y12207100D01*
X9725143Y12207077D01*
X9688567Y12204568D01*
X9686027Y12203784D01*
X9684503Y12202895D01*
X9683995Y12201902D01*
Y12271292D01*
X9684503Y12268753D01*
D02*
G37*
G36*
X15535599Y12175054D02*
X15531531Y12178274D01*
X15523488Y12183697D01*
X15519514Y12185900D01*
X15515575Y12187764D01*
X15511665Y12189289D01*
X15507790Y12190475D01*
X15503944Y12191323D01*
X15500131Y12191831D01*
X15496352Y12192001D01*
X15493613Y12217401D01*
X15497572Y12217596D01*
X15501445Y12218183D01*
X15505228Y12219160D01*
X15508920Y12220529D01*
X15512524Y12222289D01*
X15516040Y12224440D01*
X15519467Y12226982D01*
X15522804Y12229916D01*
X15526053Y12233240D01*
X15529211Y12236955D01*
X15535599Y12175054D01*
D02*
G37*
G36*
X12655694Y12130460D02*
X12656352Y12127908D01*
X12657199Y12125391D01*
X12658234Y12122908D01*
X12659457Y12120461D01*
X12660868Y12118048D01*
X12662467Y12115669D01*
X12664254Y12113326D01*
X12666229Y12111016D01*
X12668391Y12108742D01*
X12653482Y12087730D01*
X12651153Y12089909D01*
X12648796Y12091814D01*
X12646413Y12093444D01*
X12644003Y12094800D01*
X12641566Y12095881D01*
X12639101Y12096688D01*
X12636610Y12097221D01*
X12634091Y12097480D01*
X12631546Y12097464D01*
X12628974Y12097174D01*
X12655223Y12133046D01*
X12655694Y12130460D01*
D02*
G37*
G36*
X14571626Y12070175D02*
X14569691Y12071985D01*
X14567619Y12073604D01*
X14565411Y12075033D01*
X14563068Y12076271D01*
X14560590Y12077319D01*
X14557973Y12078176D01*
X14555222Y12078843D01*
X14552335Y12079319D01*
X14549310Y12079605D01*
X14546152Y12079700D01*
Y12105100D01*
X14549310Y12105195D01*
X14552335Y12105481D01*
X14555222Y12105957D01*
X14557973Y12106624D01*
X14560590Y12107481D01*
X14563068Y12108529D01*
X14565411Y12109767D01*
X14567619Y12111196D01*
X14569691Y12112815D01*
X14571626Y12114625D01*
Y12070175D01*
D02*
G37*
G36*
X11139647Y12062207D02*
X11135660Y12064988D01*
X11130963Y12066345D01*
X11125555Y12066280D01*
X11119437Y12064792D01*
X11112608Y12061881D01*
X11105069Y12057547D01*
X11096819Y12051790D01*
X11087858Y12044610D01*
X11067805Y12025982D01*
X11031884Y12061902D01*
X11038709Y12069062D01*
X11050204Y12083234D01*
X11054873Y12090247D01*
X11058825Y12097211D01*
X11062058Y12104125D01*
X11064572Y12110991D01*
X11066368Y12117807D01*
X11067446Y12124574D01*
X11067805Y12131293D01*
X11139647Y12062207D01*
D02*
G37*
G36*
X9684354Y12124574D02*
X9685432Y12117807D01*
X9687228Y12110991D01*
X9689742Y12104125D01*
X9692975Y12097211D01*
X9696927Y12090247D01*
X9701596Y12083234D01*
X9706985Y12076173D01*
X9713091Y12069062D01*
X9719916Y12061902D01*
X9683995Y12025982D01*
X9673613Y12036007D01*
X9654981Y12051790D01*
X9646731Y12057547D01*
X9639192Y12061881D01*
X9632363Y12064792D01*
X9626245Y12066280D01*
X9620837Y12066345D01*
X9616140Y12064988D01*
X9612153Y12062207D01*
X9683995Y12131293D01*
X9684354Y12124574D01*
D02*
G37*
G36*
X18572020Y11933852D02*
X18570680Y11933533D01*
X18568788Y11932554D01*
X18566344Y11930916D01*
X18563347Y11928618D01*
X18555698Y11922044D01*
X18533775Y11900981D01*
X18461932Y11972823D01*
X18468188Y11979132D01*
X18493506Y12007836D01*
X18494485Y12009728D01*
X18494804Y12011068D01*
X18572020Y11933852D01*
D02*
G37*
G36*
X12108027Y11912266D02*
X12105860Y11909965D01*
X12103924Y11907625D01*
X12102219Y11905246D01*
X12100745Y11902829D01*
X12099501Y11900373D01*
X12098489Y11897879D01*
X12097708Y11895347D01*
X12097157Y11892775D01*
X12096837Y11890166D01*
X12096748Y11887517D01*
X12065318Y11918948D01*
X12067966Y11919037D01*
X12070575Y11919357D01*
X12073147Y11919908D01*
X12075679Y11920689D01*
X12078173Y11921701D01*
X12080629Y11922945D01*
X12083046Y11924419D01*
X12085425Y11926124D01*
X12087765Y11928060D01*
X12090066Y11930227D01*
X12108027Y11912266D01*
D02*
G37*
G36*
X7667164Y11535404D02*
X7662881Y11530294D01*
X7659065Y11524000D01*
X7655718Y11516522D01*
X7652839Y11507860D01*
X7650428Y11498013D01*
X7648485Y11486982D01*
X7647011Y11474767D01*
X7645465Y11446784D01*
X7645395Y11431016D01*
X7544816Y11531595D01*
X7560584Y11531665D01*
X7600782Y11534685D01*
X7611813Y11536628D01*
X7621660Y11539039D01*
X7630322Y11541918D01*
X7637800Y11545265D01*
X7644094Y11549081D01*
X7649204Y11553364D01*
X7667164Y11535404D01*
D02*
G37*
G36*
X18213705Y11214100D02*
X18213324Y11217719D01*
X18212181Y11220958D01*
X18210275Y11223816D01*
X18207610Y11226292D01*
X18204179Y11228387D01*
X18199989Y11230102D01*
X18195036Y11231436D01*
X18189320Y11232388D01*
X18183438Y11232907D01*
X18178133Y11232477D01*
X18174854Y11231954D01*
X18171846Y11231281D01*
X18169112Y11230459D01*
X18166650Y11229487D01*
X18164464Y11228366D01*
X18162550Y11227095D01*
X18160909Y11225675D01*
X18161609Y11279011D01*
X18163228Y11277536D01*
X18165123Y11276217D01*
X18167293Y11275053D01*
X18169737Y11274044D01*
X18172459Y11273190D01*
X18175455Y11272492D01*
X18178726Y11271948D01*
X18182272Y11271560D01*
X18183609Y11271508D01*
X18189320Y11272012D01*
X18195036Y11272964D01*
X18199989Y11274298D01*
X18204179Y11276013D01*
X18207610Y11278108D01*
X18210275Y11280584D01*
X18212181Y11283442D01*
X18213324Y11286680D01*
X18213705Y11290300D01*
Y11214100D01*
D02*
G37*
G36*
X7163649Y11148187D02*
X7164411Y11146028D01*
X7165681Y11144123D01*
X7167459Y11142472D01*
X7169745Y11141075D01*
X7172539Y11139932D01*
X7175841Y11139043D01*
X7179651Y11138408D01*
X7183969Y11138027D01*
X7188795Y11137900D01*
Y11112500D01*
X7183969Y11112373D01*
X7179651Y11111992D01*
X7175841Y11111357D01*
X7172539Y11110468D01*
X7169745Y11109325D01*
X7167459Y11107928D01*
X7165681Y11106277D01*
X7164411Y11104372D01*
X7163649Y11102213D01*
X7163395Y11099800D01*
Y11150600D01*
X7163649Y11148187D01*
D02*
G37*
G36*
X6959310Y11095547D02*
X6959053Y11097960D01*
X6958281Y11100119D01*
X6956996Y11102024D01*
X6955197Y11103675D01*
X6952883Y11105072D01*
X6950056Y11106215D01*
X6946714Y11107104D01*
X6942859Y11107739D01*
X6938489Y11108120D01*
X6933605Y11108247D01*
Y11133647D01*
X6938489Y11133774D01*
X6942859Y11134155D01*
X6946714Y11134790D01*
X6950056Y11135679D01*
X6952883Y11136822D01*
X6955197Y11138219D01*
X6956996Y11139870D01*
X6958281Y11141775D01*
X6959053Y11143934D01*
X6959310Y11146347D01*
Y11095547D01*
D02*
G37*
G36*
X6809125Y11180967D02*
X6839685Y11154678D01*
X6848859Y11148252D01*
X6857526Y11142994D01*
X6865687Y11138904D01*
X6873342Y11135983D01*
X6880490Y11134231D01*
X6887132Y11133647D01*
Y11108247D01*
X6880490Y11107662D01*
X6873342Y11105910D01*
X6865687Y11102989D01*
X6857526Y11098899D01*
X6848859Y11093642D01*
X6839685Y11087215D01*
X6830005Y11079621D01*
X6809125Y11060926D01*
X6797926Y11049827D01*
Y11192067D01*
X6809125Y11180967D01*
D02*
G37*
G36*
X18540083Y11071758D02*
X18568788Y11046440D01*
X18570680Y11045461D01*
X18572020Y11045142D01*
X18494804Y10967926D01*
X18494485Y10969266D01*
X18493506Y10971158D01*
X18491869Y10973603D01*
X18489571Y10976599D01*
X18482996Y10984248D01*
X18461932Y11006171D01*
X18533775Y11078013D01*
X18540083Y11071758D01*
D02*
G37*
G36*
X18626678Y10910270D02*
X18626031Y10908240D01*
X18625462Y10905353D01*
X18624968Y10901609D01*
X18624208Y10891552D01*
X18623599Y10861157D01*
X18522000D01*
X18521962Y10870041D01*
X18519568Y10908240D01*
X18518922Y10910270D01*
X18518201Y10911443D01*
X18627400D01*
X18626678Y10910270D01*
D02*
G37*
G36*
X7080336Y10891119D02*
X7080706Y10886322D01*
X7081355Y10881766D01*
X7082286Y10877450D01*
X7083497Y10873374D01*
X7084988Y10869539D01*
X7086760Y10865944D01*
X7088813Y10862589D01*
X7091146Y10859475D01*
X7093759Y10856601D01*
X7075799Y10838641D01*
X7072925Y10841254D01*
X7069811Y10843587D01*
X7066456Y10845640D01*
X7062861Y10847412D01*
X7059026Y10848903D01*
X7054950Y10850114D01*
X7050634Y10851045D01*
X7046078Y10851694D01*
X7041281Y10852064D01*
X7036244Y10852152D01*
X7080248Y10896156D01*
X7080336Y10891119D01*
D02*
G37*
G36*
X18623637Y10814254D02*
X18626031Y10776055D01*
X18626678Y10774025D01*
X18627400Y10772852D01*
X18518201D01*
X18518922Y10774025D01*
X18519568Y10776055D01*
X18520139Y10778942D01*
X18520631Y10782686D01*
X18521391Y10792743D01*
X18522000Y10823138D01*
X18623599D01*
X18623637Y10814254D01*
D02*
G37*
G36*
X12318907Y10776450D02*
X12320919Y10774779D01*
X12323076Y10773304D01*
X12325377Y10772026D01*
X12327822Y10770945D01*
X12330411Y10770061D01*
X12333145Y10769373D01*
X12336022Y10768881D01*
X12339044Y10768586D01*
X12342210Y10768488D01*
X12341238Y10743088D01*
X12338084Y10742996D01*
X12335059Y10742720D01*
X12332162Y10742260D01*
X12329394Y10741617D01*
X12326754Y10740790D01*
X12324242Y10739778D01*
X12321859Y10738583D01*
X12319605Y10737204D01*
X12317479Y10735641D01*
X12315482Y10733894D01*
X12317039Y10778317D01*
X12318907Y10776450D01*
D02*
G37*
G36*
X15319762Y10733259D02*
X15317892Y10735126D01*
X15315880Y10736797D01*
X15313724Y10738272D01*
X15311423Y10739550D01*
X15308978Y10740631D01*
X15306387Y10741515D01*
X15303654Y10742203D01*
X15300777Y10742695D01*
X15297755Y10742990D01*
X15294591Y10743088D01*
X15295561Y10768488D01*
X15298715Y10768580D01*
X15301741Y10768856D01*
X15304639Y10769316D01*
X15307407Y10769959D01*
X15310046Y10770786D01*
X15312556Y10771798D01*
X15314940Y10772993D01*
X15317195Y10774372D01*
X15319321Y10775935D01*
X15321318Y10777682D01*
X15319762Y10733259D01*
D02*
G37*
G36*
X18572020Y10639153D02*
X18570680Y10638834D01*
X18568788Y10637855D01*
X18566344Y10636217D01*
X18563347Y10633919D01*
X18555698Y10627345D01*
X18533775Y10606282D01*
X18461932Y10678124D01*
X18468188Y10684433D01*
X18493506Y10713137D01*
X18494485Y10715029D01*
X18494804Y10716369D01*
X18572020Y10639153D01*
D02*
G37*
G36*
X9581600Y12071900D02*
Y12048898D01*
X9590252D01*
X9590912Y12047392D01*
X9592385Y12045976D01*
X9593486Y12044257D01*
X9595994Y12042509D01*
X9598198Y12040391D01*
X9600100Y12039647D01*
X9601776Y12038479D01*
X9604762Y12037825D01*
X9607609Y12036711D01*
X9609652Y12036752D01*
X9611647Y12036315D01*
X9614655Y12036852D01*
X9616609Y12036891D01*
X9626600Y12026901D01*
Y10922000D01*
X9055100Y10350500D01*
X8585200D01*
X8140700Y10795000D01*
Y12484100D01*
X8286750Y12630150D01*
X9023350D01*
X9581600Y12071900D01*
D02*
G37*
G36*
X7289927Y9436211D02*
X7290308Y9431841D01*
X7290943Y9427986D01*
X7291832Y9424644D01*
X7292975Y9421817D01*
X7294372Y9419503D01*
X7296023Y9417704D01*
X7297928Y9416419D01*
X7300087Y9415647D01*
X7302500Y9415390D01*
X7251700D01*
X7254113Y9415647D01*
X7256272Y9416419D01*
X7258177Y9417704D01*
X7259828Y9419503D01*
X7261225Y9421817D01*
X7262368Y9424644D01*
X7263257Y9427986D01*
X7263892Y9431841D01*
X7264273Y9436211D01*
X7264400Y9441095D01*
X7289800D01*
X7289927Y9436211D01*
D02*
G37*
G36*
X8431900Y9308004D02*
X8418309Y9307930D01*
X8394102Y9306485D01*
X8383484Y9305115D01*
X8373858Y9303314D01*
X8365223Y9301081D01*
X8357579Y9298417D01*
X8350926Y9295320D01*
X8345264Y9291792D01*
X8340594Y9287833D01*
X8322633Y9305794D01*
X8326592Y9310464D01*
X8330120Y9316126D01*
X8333217Y9322779D01*
X8335881Y9330423D01*
X8338114Y9339058D01*
X8339915Y9348684D01*
X8341285Y9359302D01*
X8342730Y9383509D01*
X8342804Y9397100D01*
X8431900Y9308004D01*
D02*
G37*
G36*
X10922000Y12979401D02*
Y12288759D01*
X10917211Y12285994D01*
X10904206Y12272989D01*
X10895010Y12257061D01*
X10890250Y12239296D01*
Y12220904D01*
X10895010Y12203139D01*
X10904206Y12187211D01*
X10917211Y12174206D01*
X10922000Y12171441D01*
Y12064718D01*
X10920312Y12063744D01*
X10907307Y12050739D01*
X10898112Y12034811D01*
X10893351Y12017046D01*
Y11998654D01*
X10898112Y11980889D01*
X10907307Y11964961D01*
X10920312Y11951956D01*
X10922000Y11950982D01*
X10922000Y9753600D01*
X10414000Y9245600D01*
X9017000D01*
X8877300Y9385300D01*
Y10096500D01*
X9804400Y11023600D01*
X9804400Y11966484D01*
X9808517Y11967303D01*
X9824326Y11977866D01*
X9840762D01*
X9858527Y11982627D01*
X9874455Y11991822D01*
X9887460Y12004827D01*
X9896656Y12020755D01*
X9901416Y12038520D01*
Y12056912D01*
X9896656Y12074677D01*
X9887460Y12090605D01*
X9874455Y12103610D01*
X9858527Y12112806D01*
X9840762Y12117566D01*
X9822370D01*
X9817100Y12116154D01*
X9804400Y12125899D01*
Y12161189D01*
X9818661Y12165010D01*
X9834589Y12174206D01*
X9847594Y12187211D01*
X9856790Y12203139D01*
X9861550Y12220904D01*
Y12239296D01*
X9856790Y12257061D01*
X9847594Y12272989D01*
X9834589Y12285994D01*
X9818661Y12295190D01*
X9804400Y12299011D01*
Y12331697D01*
X9461498Y12674600D01*
X8280400D01*
X8153400Y12801601D01*
X8153400Y13474699D01*
X8407400Y13728700D01*
X10172700D01*
X10922000Y12979401D01*
D02*
G37*
G36*
X7239756Y9215695D02*
X7234696Y9210459D01*
X7226733Y9201083D01*
X7223829Y9196943D01*
X7221643Y9193168D01*
X7220176Y9189759D01*
X7219427Y9186715D01*
X7219396Y9184036D01*
X7220084Y9181722D01*
X7221491Y9179774D01*
X7185874Y9215390D01*
X7187823Y9213984D01*
X7190136Y9213296D01*
X7192815Y9213327D01*
X7195859Y9214075D01*
X7199269Y9215543D01*
X7203043Y9217728D01*
X7207183Y9220633D01*
X7211689Y9224255D01*
X7221795Y9233656D01*
X7239756Y9215695D01*
D02*
G37*
G36*
X7750047Y9192387D02*
X7750818Y9190228D01*
X7752104Y9188323D01*
X7753903Y9186672D01*
X7756216Y9185275D01*
X7759044Y9184132D01*
X7762386Y9183243D01*
X7766241Y9182608D01*
X7770611Y9182227D01*
X7775495Y9182100D01*
Y9156700D01*
X7770611Y9156573D01*
X7766241Y9156192D01*
X7762386Y9155557D01*
X7759044Y9154668D01*
X7756216Y9153525D01*
X7753903Y9152128D01*
X7752104Y9150477D01*
X7750818Y9148572D01*
X7750047Y9146413D01*
X7749790Y9144000D01*
Y9194800D01*
X7750047Y9192387D01*
D02*
G37*
G36*
X7540705Y9144000D02*
X7540451Y9146413D01*
X7539689Y9148572D01*
X7538419Y9150477D01*
X7536641Y9152128D01*
X7534355Y9153525D01*
X7531561Y9154668D01*
X7528259Y9155557D01*
X7524449Y9156192D01*
X7520131Y9156573D01*
X7515305Y9156700D01*
Y9182100D01*
X7520131Y9182227D01*
X7524449Y9182608D01*
X7528259Y9183243D01*
X7531561Y9184132D01*
X7534355Y9185275D01*
X7536641Y9186672D01*
X7538419Y9188323D01*
X7539689Y9190228D01*
X7540451Y9192387D01*
X7540705Y9194800D01*
Y9144000D01*
D02*
G37*
G36*
X7411747Y9192387D02*
X7412519Y9190228D01*
X7413804Y9188323D01*
X7415603Y9186672D01*
X7417917Y9185275D01*
X7420744Y9184132D01*
X7424086Y9183243D01*
X7427941Y9182608D01*
X7432311Y9182227D01*
X7437195Y9182100D01*
Y9156700D01*
X7432311Y9156573D01*
X7427941Y9156192D01*
X7424086Y9155557D01*
X7420744Y9154668D01*
X7417917Y9153525D01*
X7415603Y9152128D01*
X7413804Y9150477D01*
X7412519Y9148572D01*
X7411747Y9146413D01*
X7411490Y9144000D01*
Y9194800D01*
X7411747Y9192387D01*
D02*
G37*
G36*
X9016683Y9137652D02*
X9014034Y9137563D01*
X9011425Y9137243D01*
X9008853Y9136692D01*
X9006321Y9135911D01*
X9003827Y9134899D01*
X9001371Y9133655D01*
X8998954Y9132181D01*
X8996575Y9130476D01*
X8994235Y9128540D01*
X8991934Y9126373D01*
X8973973Y9144334D01*
X8976140Y9146635D01*
X8978076Y9148975D01*
X8979781Y9151354D01*
X8981255Y9153771D01*
X8982499Y9156227D01*
X8983511Y9158721D01*
X8984292Y9161253D01*
X8984843Y9163825D01*
X8985163Y9166434D01*
X8985252Y9169083D01*
X9016683Y9137652D01*
D02*
G37*
G36*
X10043264Y9178480D02*
X10044417Y9175242D01*
X10046337Y9172384D01*
X10049025Y9169908D01*
X10052482Y9167812D01*
X10056706Y9166098D01*
X10061699Y9164764D01*
X10067459Y9163812D01*
X10073988Y9163240D01*
X10081285Y9163050D01*
Y9124950D01*
X10073988Y9124759D01*
X10067459Y9124188D01*
X10061699Y9123235D01*
X10056706Y9121902D01*
X10052482Y9120188D01*
X10049025Y9118092D01*
X10046337Y9115615D01*
X10044417Y9112758D01*
X10043264Y9109519D01*
X10042880Y9105900D01*
Y9182100D01*
X10043264Y9178480D01*
D02*
G37*
G36*
X7395087Y9126051D02*
X7392928Y9125289D01*
X7391023Y9124019D01*
X7389372Y9122241D01*
X7387975Y9119955D01*
X7386832Y9117161D01*
X7385943Y9113859D01*
X7385308Y9110049D01*
X7384927Y9105731D01*
X7384800Y9100905D01*
X7359400D01*
X7359273Y9105731D01*
X7358892Y9110049D01*
X7358257Y9113859D01*
X7357368Y9117161D01*
X7356225Y9119955D01*
X7354828Y9122241D01*
X7353177Y9124019D01*
X7351272Y9125289D01*
X7349113Y9126051D01*
X7346700Y9126305D01*
X7397500D01*
X7395087Y9126051D01*
D02*
G37*
G36*
X9852787Y9078942D02*
X9850628Y9078171D01*
X9848723Y9076885D01*
X9847072Y9075086D01*
X9845675Y9072773D01*
X9844532Y9069945D01*
X9843643Y9066603D01*
X9843008Y9062748D01*
X9842627Y9058378D01*
X9842500Y9053494D01*
X9817100D01*
X9816973Y9058378D01*
X9816592Y9062748D01*
X9815957Y9066603D01*
X9815068Y9069945D01*
X9813925Y9072773D01*
X9812528Y9075086D01*
X9810877Y9076885D01*
X9808972Y9078171D01*
X9806813Y9078942D01*
X9804400Y9079199D01*
X9855200D01*
X9852787Y9078942D01*
D02*
G37*
G36*
X9842627Y9013780D02*
X9843008Y9009462D01*
X9843643Y9005652D01*
X9844532Y9002350D01*
X9845675Y8999556D01*
X9847072Y8997270D01*
X9848723Y8995492D01*
X9850628Y8994222D01*
X9852787Y8993460D01*
X9855200Y8993206D01*
X9804400D01*
X9806813Y8993460D01*
X9808972Y8994222D01*
X9810877Y8995492D01*
X9812528Y8997270D01*
X9813925Y8999556D01*
X9815068Y9002350D01*
X9815957Y9005652D01*
X9816592Y9009462D01*
X9816973Y9013780D01*
X9817100Y9018606D01*
X9842500D01*
X9842627Y9013780D01*
D02*
G37*
G36*
X10030587Y8863042D02*
X10028428Y8862271D01*
X10026523Y8860985D01*
X10024872Y8859186D01*
X10023475Y8856873D01*
X10022332Y8854045D01*
X10021443Y8850703D01*
X10020808Y8846848D01*
X10020427Y8842478D01*
X10020300Y8837594D01*
X9994900D01*
X9994773Y8842478D01*
X9994392Y8846848D01*
X9993757Y8850703D01*
X9992868Y8854045D01*
X9991725Y8856873D01*
X9990328Y8859186D01*
X9988677Y8860985D01*
X9986772Y8862271D01*
X9984613Y8863042D01*
X9982200Y8863299D01*
X10033000D01*
X10030587Y8863042D01*
D02*
G37*
G36*
X9852787D02*
X9850628Y8862271D01*
X9848723Y8860985D01*
X9847072Y8859186D01*
X9845675Y8856873D01*
X9844532Y8854045D01*
X9843643Y8850703D01*
X9843008Y8846848D01*
X9842627Y8842478D01*
X9842500Y8837594D01*
X9817100D01*
X9816973Y8842478D01*
X9816592Y8846848D01*
X9815957Y8850703D01*
X9815068Y8854045D01*
X9813925Y8856873D01*
X9812528Y8859186D01*
X9810877Y8860985D01*
X9808972Y8862271D01*
X9806813Y8863042D01*
X9804400Y8863299D01*
X9855200D01*
X9852787Y8863042D01*
D02*
G37*
G36*
X9842684Y8802987D02*
X9843237Y8799135D01*
X9844157Y8795311D01*
X9845446Y8791516D01*
X9847104Y8787750D01*
X9849129Y8784012D01*
X9851523Y8780302D01*
X9854286Y8776621D01*
X9857416Y8772968D01*
X9860915Y8769344D01*
X9798685D01*
X9802184Y8772968D01*
X9805314Y8776621D01*
X9808077Y8780302D01*
X9810471Y8784012D01*
X9812496Y8787750D01*
X9814154Y8791516D01*
X9815443Y8795311D01*
X9816363Y8799135D01*
X9816916Y8802987D01*
X9817100Y8806867D01*
X9842500D01*
X9842684Y8802987D01*
D02*
G37*
G36*
X10120256Y8755676D02*
X10116632Y8759175D01*
X10112979Y8762305D01*
X10109298Y8765067D01*
X10105588Y8767461D01*
X10101850Y8769487D01*
X10098084Y8771144D01*
X10094289Y8772433D01*
X10090465Y8773354D01*
X10086613Y8773907D01*
X10082733Y8774091D01*
Y8799491D01*
X10086613Y8799675D01*
X10090465Y8800227D01*
X10094289Y8801148D01*
X10098084Y8802437D01*
X10101850Y8804094D01*
X10105588Y8806120D01*
X10109298Y8808514D01*
X10112979Y8811276D01*
X10116632Y8814407D01*
X10120256Y8817906D01*
Y8755676D01*
D02*
G37*
G36*
X10043885Y8634607D02*
X10045037Y8631368D01*
X10046958Y8628511D01*
X10049646Y8626034D01*
X10053102Y8623939D01*
X10057327Y8622224D01*
X10062319Y8620891D01*
X10068080Y8619938D01*
X10074609Y8619367D01*
X10081906Y8619176D01*
Y8581076D01*
X10074609Y8580886D01*
X10068080Y8580314D01*
X10062319Y8579362D01*
X10057327Y8578028D01*
X10053102Y8576314D01*
X10049646Y8574218D01*
X10046958Y8571742D01*
X10045037Y8568884D01*
X10043885Y8565646D01*
X10043501Y8562026D01*
Y8638226D01*
X10043885Y8634607D01*
D02*
G37*
G36*
X12944704Y8548023D02*
X12942537Y8545722D01*
X12940601Y8543381D01*
X12938896Y8541003D01*
X12937422Y8538586D01*
X12936179Y8536130D01*
X12935165Y8533636D01*
X12934386Y8531103D01*
X12933833Y8528532D01*
X12933514Y8525922D01*
X12933424Y8523274D01*
X12901994Y8554705D01*
X12904643Y8554794D01*
X12907253Y8555114D01*
X12909824Y8555664D01*
X12912357Y8556446D01*
X12914850Y8557458D01*
X12917307Y8558701D01*
X12919724Y8560176D01*
X12922102Y8561881D01*
X12924442Y8563817D01*
X12926744Y8565984D01*
X12944704Y8548023D01*
D02*
G37*
G36*
X13952849Y8521648D02*
X13947852Y8526967D01*
X13937990Y8535924D01*
X13933125Y8539563D01*
X13928307Y8542642D01*
X13923531Y8545161D01*
X13918799Y8547121D01*
X13914111Y8548520D01*
X13909470Y8549360D01*
X13904871Y8549640D01*
X13906030Y8575040D01*
X13910483Y8575305D01*
X13915067Y8576101D01*
X13919778Y8577429D01*
X13924622Y8579286D01*
X13929594Y8581675D01*
X13934697Y8584594D01*
X13939929Y8588044D01*
X13945291Y8592025D01*
X13956406Y8601579D01*
X13952849Y8521648D01*
D02*
G37*
G36*
X9858501Y8535068D02*
X9856342Y8534297D01*
X9854437Y8533011D01*
X9852786Y8531212D01*
X9851389Y8528899D01*
X9850246Y8526071D01*
X9849357Y8522729D01*
X9848722Y8518874D01*
X9848341Y8514504D01*
X9848214Y8509620D01*
X9822814D01*
X9822687Y8514504D01*
X9822306Y8518874D01*
X9821671Y8522729D01*
X9820782Y8526071D01*
X9819639Y8528899D01*
X9818242Y8531212D01*
X9816591Y8533011D01*
X9814686Y8534297D01*
X9812527Y8535068D01*
X9810114Y8535325D01*
X9860914D01*
X9858501Y8535068D01*
D02*
G37*
G36*
X12879002Y8500732D02*
X12877068Y8502542D01*
X12874995Y8504161D01*
X12872789Y8505590D01*
X12870445Y8506828D01*
X12867966Y8507876D01*
X12865350Y8508733D01*
X12862599Y8509400D01*
X12859711Y8509876D01*
X12856688Y8510162D01*
X12853528Y8510257D01*
Y8535657D01*
X12856688Y8535752D01*
X12859711Y8536038D01*
X12862599Y8536514D01*
X12865350Y8537181D01*
X12867966Y8538038D01*
X12870445Y8539086D01*
X12872789Y8540324D01*
X12874995Y8541753D01*
X12877068Y8543372D01*
X12879002Y8545182D01*
Y8500732D01*
D02*
G37*
G36*
X9848341Y8482606D02*
X9848722Y8478288D01*
X9849357Y8474478D01*
X9850246Y8471176D01*
X9851389Y8468382D01*
X9852786Y8466096D01*
X9854437Y8464318D01*
X9856342Y8463048D01*
X9858501Y8462286D01*
X9860914Y8462032D01*
X9810114D01*
X9812527Y8462286D01*
X9814686Y8463048D01*
X9816591Y8464318D01*
X9818242Y8466096D01*
X9819639Y8468382D01*
X9820782Y8471176D01*
X9821671Y8474478D01*
X9822306Y8478288D01*
X9822687Y8482606D01*
X9822814Y8487432D01*
X9848214D01*
X9848341Y8482606D01*
D02*
G37*
G36*
X10045658Y8419913D02*
X10046429Y8417754D01*
X10047714Y8415849D01*
X10049514Y8414198D01*
X10051827Y8412801D01*
X10054655Y8411658D01*
X10057996Y8410769D01*
X10061852Y8410134D01*
X10066222Y8409753D01*
X10071106Y8409626D01*
Y8384226D01*
X10066222Y8384099D01*
X10061852Y8383718D01*
X10057996Y8383083D01*
X10054655Y8382194D01*
X10051827Y8381051D01*
X10049514Y8379654D01*
X10047714Y8378003D01*
X10046429Y8376098D01*
X10045658Y8373939D01*
X10045401Y8371526D01*
Y8422326D01*
X10045658Y8419913D01*
D02*
G37*
G36*
X9795799Y8371526D02*
X9795542Y8373939D01*
X9794771Y8376098D01*
X9793485Y8378003D01*
X9791686Y8379654D01*
X9789373Y8381051D01*
X9786545Y8382194D01*
X9783203Y8383083D01*
X9779348Y8383718D01*
X9774978Y8384099D01*
X9770094Y8384226D01*
Y8409626D01*
X9774978Y8409753D01*
X9779348Y8410134D01*
X9783203Y8410769D01*
X9786545Y8411658D01*
X9789373Y8412801D01*
X9791686Y8414198D01*
X9793485Y8415849D01*
X9794771Y8417754D01*
X9795542Y8419913D01*
X9795799Y8422326D01*
Y8371526D01*
D02*
G37*
G36*
X10107794Y8364653D02*
X10107180Y8368371D01*
X10106162Y8371699D01*
X10104740Y8374635D01*
X10102913Y8377179D01*
X10100682Y8379332D01*
X10098046Y8381094D01*
X10095006Y8382464D01*
X10091562Y8383443D01*
X10087714Y8384030D01*
X10083461Y8384226D01*
X10106631Y8409626D01*
X10111000Y8409656D01*
X10133378Y8411100D01*
X10136468Y8411551D01*
X10142100Y8412633D01*
X10107794Y8364653D01*
D02*
G37*
G36*
X10261841Y8302198D02*
X10262412Y8295669D01*
X10263365Y8289909D01*
X10264698Y8284916D01*
X10266413Y8280692D01*
X10268508Y8277235D01*
X10270985Y8274547D01*
X10273842Y8272627D01*
X10277081Y8271474D01*
X10280700Y8271090D01*
X10204500D01*
X10208120Y8271474D01*
X10211358Y8272627D01*
X10214216Y8274547D01*
X10216692Y8277235D01*
X10218788Y8280692D01*
X10220502Y8284916D01*
X10221836Y8289909D01*
X10222788Y8295669D01*
X10223360Y8302198D01*
X10223550Y8309495D01*
X10261650D01*
X10261841Y8302198D01*
D02*
G37*
G36*
X10200405Y8166100D02*
X10200024Y8169719D01*
X10198881Y8172958D01*
X10196976Y8175815D01*
X10194309Y8178292D01*
X10190880Y8180388D01*
X10186689Y8182102D01*
X10181736Y8183435D01*
X10176021Y8184388D01*
X10169544Y8184959D01*
X10162305Y8185150D01*
Y8223250D01*
X10169544Y8223440D01*
X10176021Y8224012D01*
X10181736Y8224965D01*
X10186689Y8226298D01*
X10190880Y8228012D01*
X10194309Y8230108D01*
X10196976Y8232585D01*
X10198881Y8235442D01*
X10200024Y8238680D01*
X10200405Y8242300D01*
Y8166100D01*
D02*
G37*
G36*
X10043264Y8238680D02*
X10044417Y8235442D01*
X10046337Y8232585D01*
X10049025Y8230108D01*
X10052482Y8228012D01*
X10056706Y8226298D01*
X10061699Y8224965D01*
X10067459Y8224012D01*
X10073988Y8223440D01*
X10081285Y8223250D01*
Y8185150D01*
X10073988Y8184959D01*
X10067459Y8184388D01*
X10061699Y8183435D01*
X10056706Y8182102D01*
X10052482Y8180388D01*
X10049025Y8178292D01*
X10046337Y8175815D01*
X10044417Y8172958D01*
X10043264Y8169719D01*
X10042880Y8166100D01*
Y8242300D01*
X10043264Y8238680D01*
D02*
G37*
G36*
X7018967Y8220206D02*
X7015008Y8215536D01*
X7011480Y8209874D01*
X7008383Y8203221D01*
X7005719Y8195577D01*
X7003486Y8186942D01*
X7001685Y8177316D01*
X7000315Y8166698D01*
X6998870Y8142491D01*
X6998796Y8128900D01*
X6909700Y8217996D01*
X6923291Y8218070D01*
X6947498Y8219515D01*
X6958116Y8220885D01*
X6967742Y8222686D01*
X6976377Y8224919D01*
X6984021Y8227583D01*
X6990674Y8230680D01*
X6996336Y8234208D01*
X7001006Y8238167D01*
X7018967Y8220206D01*
D02*
G37*
G36*
X9845886Y8162396D02*
X9846463Y8158529D01*
X9847425Y8154732D01*
X9848772Y8151006D01*
X9850503Y8147349D01*
X9852620Y8143763D01*
X9855120Y8140248D01*
X9855832Y8139399D01*
X9858394D01*
X9856042Y8139148D01*
X9858006Y8136803D01*
X9861277Y8133428D01*
X9864932Y8130123D01*
X9847387Y8128874D01*
X9846837Y8126803D01*
X9846202Y8122948D01*
X9845821Y8118578D01*
X9845694Y8113694D01*
X9820294D01*
X9820167Y8118578D01*
X9819786Y8122948D01*
X9819151Y8126803D01*
X9819135Y8126863D01*
X9802859Y8125704D01*
X9806172Y8129638D01*
X9809136Y8133559D01*
X9811751Y8137467D01*
X9812245Y8138317D01*
X9812166Y8138371D01*
X9810007Y8139142D01*
X9807594Y8139399D01*
X9812875D01*
X9814017Y8141361D01*
X9815935Y8145242D01*
X9817504Y8149109D01*
X9818725Y8152964D01*
X9819596Y8156804D01*
X9820119Y8160632D01*
X9820294Y8164446D01*
X9845694Y8166333D01*
X9845886Y8162396D01*
D02*
G37*
G36*
X10284795Y8137005D02*
X10281595Y8136624D01*
X10278731Y8135481D01*
X10276204Y8133576D01*
X10274014Y8130909D01*
X10272161Y8127480D01*
X10270645Y8123289D01*
X10269466Y8118336D01*
X10268624Y8112621D01*
X10268118Y8106144D01*
X10267950Y8098905D01*
X10229850D01*
X10229659Y8106187D01*
X10229088Y8112705D01*
X10228135Y8118458D01*
X10226802Y8123446D01*
X10225087Y8127669D01*
X10222992Y8131127D01*
X10220515Y8133820D01*
X10217658Y8135748D01*
X10214419Y8136911D01*
X10210800Y8137310D01*
X10284795Y8137005D01*
D02*
G37*
G36*
X10443337Y8137053D02*
X10441178Y8136281D01*
X10439273Y8134996D01*
X10437622Y8133197D01*
X10436225Y8130883D01*
X10435082Y8128056D01*
X10434193Y8124714D01*
X10434157Y8124496D01*
X10434707Y8122211D01*
X10435996Y8118416D01*
X10437654Y8114650D01*
X10439679Y8110912D01*
X10442073Y8107202D01*
X10444836Y8103521D01*
X10447966Y8099868D01*
X10451465Y8096244D01*
X10389235D01*
X10392734Y8099868D01*
X10395864Y8103521D01*
X10398627Y8107202D01*
X10401021Y8110912D01*
X10403046Y8114650D01*
X10404704Y8118416D01*
X10405993Y8122211D01*
X10406543Y8124496D01*
X10406507Y8124714D01*
X10405618Y8128056D01*
X10404475Y8130883D01*
X10403078Y8133197D01*
X10401427Y8134996D01*
X10399522Y8136281D01*
X10397363Y8137053D01*
X10394950Y8137310D01*
X10445750D01*
X10443337Y8137053D01*
D02*
G37*
G36*
X17679034Y8248396D02*
X17680940Y8231124D01*
X17684116Y8215884D01*
X17688560Y8202676D01*
X17694275Y8191500D01*
X17701260Y8182356D01*
X17709515Y8175244D01*
X17719040Y8170164D01*
X17729836Y8167116D01*
X17741901Y8166100D01*
X17627600Y8064500D01*
X17513300Y8166100D01*
X17525365Y8167116D01*
X17536160Y8170164D01*
X17545685Y8175244D01*
X17553940Y8182356D01*
X17560925Y8191500D01*
X17566640Y8202676D01*
X17571085Y8215884D01*
X17574260Y8231124D01*
X17576164Y8248396D01*
X17576801Y8267700D01*
X17678400D01*
X17679034Y8248396D01*
D02*
G37*
G36*
X9848977Y8073980D02*
X9849358Y8069662D01*
X9849993Y8065852D01*
X9850355Y8064506D01*
X9867265D01*
X9863766Y8060882D01*
X9860636Y8057229D01*
X9858204Y8053989D01*
X9859137Y8053660D01*
X9861550Y8053406D01*
X9857782D01*
X9855479Y8049838D01*
X9853454Y8046100D01*
X9851796Y8042334D01*
X9850507Y8038539D01*
X9849587Y8034715D01*
X9849034Y8030863D01*
X9848850Y8026983D01*
X9823450D01*
X9823266Y8030863D01*
X9822713Y8034715D01*
X9821793Y8038539D01*
X9820504Y8042334D01*
X9818846Y8046100D01*
X9816821Y8049838D01*
X9814518Y8053406D01*
X9810750D01*
X9813163Y8053660D01*
X9814096Y8053989D01*
X9811664Y8057229D01*
X9808534Y8060882D01*
X9805035Y8064506D01*
X9821945D01*
X9822307Y8065852D01*
X9822942Y8069662D01*
X9823323Y8073980D01*
X9823450Y8078806D01*
X9848850D01*
X9848977Y8073980D01*
D02*
G37*
G36*
X10026152Y7923242D02*
X10023993Y7922471D01*
X10022088Y7921185D01*
X10020437Y7919386D01*
X10019040Y7917073D01*
X10017897Y7914245D01*
X10017008Y7910903D01*
X10016373Y7907048D01*
X10015992Y7902678D01*
X10015865Y7897794D01*
X9990465D01*
X9990338Y7902678D01*
X9989957Y7907048D01*
X9989322Y7910903D01*
X9988433Y7914245D01*
X9987290Y7917073D01*
X9985893Y7919386D01*
X9984242Y7921185D01*
X9982337Y7922471D01*
X9980178Y7923242D01*
X9977765Y7923499D01*
X10028565D01*
X10026152Y7923242D01*
D02*
G37*
G36*
X9644527Y7911968D02*
X9648180Y7908838D01*
X9651861Y7906075D01*
X9655571Y7903681D01*
X9659309Y7901656D01*
X9663076Y7899998D01*
X9666871Y7898709D01*
X9670694Y7897789D01*
X9674546Y7897236D01*
X9678426Y7897052D01*
Y7871652D01*
X9674546Y7871468D01*
X9670694Y7870915D01*
X9666871Y7869995D01*
X9663076Y7868706D01*
X9659309Y7867048D01*
X9655571Y7865023D01*
X9651861Y7862629D01*
X9648180Y7859866D01*
X9644527Y7856736D01*
X9640903Y7853237D01*
Y7915467D01*
X9644527Y7911968D01*
D02*
G37*
G36*
X10023488Y7841220D02*
X10001256Y7828640D01*
Y7766685D01*
X9997632Y7770184D01*
X9993979Y7773314D01*
X9990298Y7776077D01*
X9986588Y7778471D01*
X9982850Y7780496D01*
X9979084Y7782154D01*
X9975289Y7783443D01*
X9971465Y7784363D01*
X9967613Y7784916D01*
X9963733Y7785100D01*
Y7810500D01*
X9967613Y7810684D01*
X9971465Y7811237D01*
X9975289Y7812157D01*
X9979084Y7813446D01*
X9982850Y7815104D01*
X9986588Y7817129D01*
X9990298Y7819523D01*
X9993979Y7822286D01*
X9997632Y7825416D01*
X10000673Y7828351D01*
X10000667Y7828442D01*
X10000516Y7828703D01*
X10000223Y7829093D01*
X9999788Y7829613D01*
X9996622Y7832986D01*
X9994185Y7835449D01*
X10012145Y7853409D01*
X10023488Y7841220D01*
D02*
G37*
G36*
X9845821Y7705680D02*
X9846202Y7701362D01*
X9846837Y7697552D01*
X9847726Y7694250D01*
X9848869Y7691456D01*
X9850266Y7689170D01*
X9851917Y7687392D01*
X9853822Y7686122D01*
X9855981Y7685360D01*
X9858394Y7685106D01*
X9807594D01*
X9810007Y7685360D01*
X9812166Y7686122D01*
X9814071Y7687392D01*
X9815722Y7689170D01*
X9817119Y7691456D01*
X9818262Y7694250D01*
X9819151Y7697552D01*
X9819786Y7701362D01*
X9820167Y7705680D01*
X9820294Y7710506D01*
X9845694D01*
X9845821Y7705680D01*
D02*
G37*
G36*
X9641516Y7711632D02*
X9638386Y7707979D01*
X9635623Y7704298D01*
X9633229Y7700588D01*
X9631204Y7696850D01*
X9629546Y7693084D01*
X9628257Y7689289D01*
X9627337Y7685465D01*
X9626784Y7681613D01*
X9626600Y7677733D01*
X9601200D01*
X9601016Y7681613D01*
X9600463Y7685465D01*
X9599543Y7689289D01*
X9598254Y7693084D01*
X9596596Y7696850D01*
X9594571Y7700588D01*
X9592177Y7704298D01*
X9589414Y7707979D01*
X9586284Y7711632D01*
X9582785Y7715256D01*
X9645015D01*
X9641516Y7711632D01*
D02*
G37*
G36*
X10043264Y7654480D02*
X10044417Y7651242D01*
X10046337Y7648385D01*
X10049025Y7645908D01*
X10052482Y7643812D01*
X10056706Y7642098D01*
X10061699Y7640765D01*
X10067459Y7639812D01*
X10073988Y7639240D01*
X10081285Y7639050D01*
Y7600950D01*
X10073988Y7600759D01*
X10067459Y7600188D01*
X10061699Y7599235D01*
X10056706Y7597902D01*
X10052482Y7596188D01*
X10049025Y7594092D01*
X10046337Y7591615D01*
X10044417Y7588758D01*
X10043264Y7585519D01*
X10042880Y7581900D01*
Y7658100D01*
X10043264Y7654480D01*
D02*
G37*
G36*
X9855981Y7554942D02*
X9853822Y7554171D01*
X9851917Y7552885D01*
X9850266Y7551086D01*
X9848869Y7548773D01*
X9847726Y7545945D01*
X9846837Y7542603D01*
X9846202Y7538748D01*
X9845821Y7534378D01*
X9845694Y7529494D01*
X9820294D01*
X9820167Y7534378D01*
X9819786Y7538748D01*
X9819151Y7542603D01*
X9818262Y7545945D01*
X9817119Y7548773D01*
X9815722Y7551086D01*
X9814071Y7552885D01*
X9812166Y7554171D01*
X9810007Y7554942D01*
X9807594Y7555199D01*
X9858394D01*
X9855981Y7554942D01*
D02*
G37*
G36*
X9845821Y7489780D02*
X9846202Y7485462D01*
X9846837Y7481652D01*
X9847726Y7478350D01*
X9848869Y7475556D01*
X9850266Y7473270D01*
X9851917Y7471492D01*
X9853822Y7470222D01*
X9855981Y7469460D01*
X9858394Y7469206D01*
X9807594D01*
X9810007Y7469460D01*
X9812166Y7470222D01*
X9814071Y7471492D01*
X9815722Y7473270D01*
X9817119Y7475556D01*
X9818262Y7478350D01*
X9819151Y7481652D01*
X9819786Y7485462D01*
X9820167Y7489780D01*
X9820294Y7494606D01*
X9845694D01*
X9845821Y7489780D01*
D02*
G37*
G36*
X18517097Y7415125D02*
X18521835Y7417761D01*
X18527927Y7422679D01*
Y7332820D01*
X18521835Y7337737D01*
X18517097Y7340373D01*
Y7323149D01*
X18510156Y7329904D01*
X18496455Y7341280D01*
X18489693Y7345901D01*
X18482990Y7349812D01*
X18477350Y7352528D01*
X18464116Y7354559D01*
X18433168Y7357243D01*
X18431609Y7356985D01*
X18426616Y7355651D01*
X18422392Y7353937D01*
X18418935Y7351841D01*
X18416248Y7349365D01*
X18414326Y7346507D01*
X18413174Y7343269D01*
X18412790Y7339649D01*
Y7358037D01*
X18385225Y7358699D01*
Y7396799D01*
X18407674Y7397058D01*
X18412790Y7397410D01*
Y7415849D01*
X18413174Y7412230D01*
X18414326Y7408991D01*
X18416248Y7406134D01*
X18418935Y7403657D01*
X18422392Y7401562D01*
X18426616Y7399847D01*
X18431042Y7398665D01*
X18464116Y7400940D01*
X18477350Y7402971D01*
X18482990Y7405687D01*
X18489693Y7409597D01*
X18496455Y7414219D01*
X18503278Y7419551D01*
X18510156Y7425595D01*
X18517097Y7432349D01*
Y7415125D01*
D02*
G37*
G36*
X10026152Y7339042D02*
X10023993Y7338271D01*
X10022088Y7336985D01*
X10020437Y7335186D01*
X10019040Y7332873D01*
X10017897Y7330045D01*
X10017008Y7326703D01*
X10016373Y7322848D01*
X10015992Y7318478D01*
X10015865Y7313594D01*
X9990465D01*
X9990338Y7318478D01*
X9989957Y7322848D01*
X9989322Y7326703D01*
X9988433Y7330045D01*
X9987290Y7332873D01*
X9985893Y7335186D01*
X9984242Y7336985D01*
X9982337Y7338271D01*
X9980178Y7339042D01*
X9977765Y7339299D01*
X10028565D01*
X10026152Y7339042D01*
D02*
G37*
G36*
X18284648Y7335173D02*
X18281563Y7334030D01*
X18278841Y7332125D01*
X18276482Y7329458D01*
X18274486Y7326029D01*
X18272853Y7321838D01*
X18271584Y7316885D01*
X18270676Y7311170D01*
X18270393Y7307811D01*
X18270622Y7304982D01*
X18271146Y7301702D01*
X18271819Y7298695D01*
X18272641Y7295961D01*
X18273613Y7293500D01*
X18274734Y7291313D01*
X18276006Y7289399D01*
X18277425Y7287758D01*
X18224089Y7288458D01*
X18225565Y7290077D01*
X18226883Y7291972D01*
X18228047Y7294142D01*
X18229056Y7296587D01*
X18229910Y7299308D01*
X18230608Y7302304D01*
X18231151Y7305575D01*
X18231403Y7307864D01*
X18231123Y7311170D01*
X18230217Y7316885D01*
X18228947Y7321838D01*
X18227315Y7326029D01*
X18225317Y7329458D01*
X18222958Y7332125D01*
X18220238Y7334030D01*
X18217152Y7335173D01*
X18213705Y7335554D01*
X18288095D01*
X18284648Y7335173D01*
D02*
G37*
G36*
X10023488Y7257020D02*
X10000675Y7244111D01*
X10000667Y7244242D01*
X10000516Y7244503D01*
X10000223Y7244893D01*
X9999788Y7245413D01*
X9996622Y7248786D01*
X9994185Y7251249D01*
X10012145Y7269209D01*
X10023488Y7257020D01*
D02*
G37*
G36*
X15735300Y7505700D02*
Y7137400D01*
X15684500Y7086600D01*
X15328900D01*
X15290800Y7124700D01*
Y7556500D01*
X15367000Y7632700D01*
X15608299D01*
X15735300Y7505700D01*
D02*
G37*
G36*
X9793278Y7010400D02*
X9793021Y7012813D01*
X9792250Y7014972D01*
X9790965Y7016877D01*
X9789165Y7018528D01*
X9786852Y7019925D01*
X9784024Y7021068D01*
X9780683Y7021957D01*
X9776827Y7022592D01*
X9772457Y7022973D01*
X9767573Y7023100D01*
Y7048500D01*
X9772457Y7048627D01*
X9776827Y7049008D01*
X9780683Y7049643D01*
X9784024Y7050532D01*
X9786852Y7051675D01*
X9789165Y7053072D01*
X9790965Y7054723D01*
X9792250Y7056628D01*
X9793021Y7058787D01*
X9793278Y7061200D01*
Y7010400D01*
D02*
G37*
G36*
X10043264Y7070280D02*
X10044417Y7067042D01*
X10046337Y7064184D01*
X10049025Y7061708D01*
X10052482Y7059613D01*
X10056706Y7057898D01*
X10061699Y7056564D01*
X10067459Y7055612D01*
X10073988Y7055040D01*
X10081285Y7054850D01*
Y7016750D01*
X10073988Y7016559D01*
X10067459Y7015988D01*
X10061699Y7015035D01*
X10056706Y7013702D01*
X10052482Y7011987D01*
X10049025Y7009892D01*
X10046337Y7007415D01*
X10044417Y7004558D01*
X10043264Y7001319D01*
X10042880Y6997700D01*
Y7073900D01*
X10043264Y7070280D01*
D02*
G37*
G36*
X9855981Y6970742D02*
X9853822Y6969971D01*
X9851917Y6968685D01*
X9850266Y6966886D01*
X9848869Y6964573D01*
X9847726Y6961745D01*
X9846837Y6958403D01*
X9846202Y6954548D01*
X9845821Y6950178D01*
X9845694Y6945294D01*
X9820294D01*
X9820167Y6950178D01*
X9819786Y6954548D01*
X9819151Y6958403D01*
X9818262Y6961745D01*
X9817119Y6964573D01*
X9815722Y6966886D01*
X9814071Y6968685D01*
X9812166Y6969971D01*
X9810007Y6970742D01*
X9807594Y6970999D01*
X9858394D01*
X9855981Y6970742D01*
D02*
G37*
G36*
X7505065Y6946903D02*
X7501437Y6946687D01*
X7497665Y6945969D01*
X7493750Y6944748D01*
X7489691Y6943024D01*
X7485488Y6940797D01*
X7481143Y6938068D01*
X7476653Y6934836D01*
X7472020Y6931101D01*
X7462324Y6922123D01*
X7417423Y6967024D01*
X7422163Y6971944D01*
X7430136Y6981353D01*
X7433368Y6985843D01*
X7436097Y6990188D01*
X7438324Y6994391D01*
X7440048Y6998450D01*
X7441269Y7002365D01*
X7441987Y7006137D01*
X7442203Y7009765D01*
X7505065Y6946903D01*
D02*
G37*
G36*
X18516139Y6824144D02*
X18509360Y6830971D01*
X18502615Y6837081D01*
X18495911Y6842471D01*
X18489243Y6847143D01*
X18482613Y6851096D01*
X18476019Y6854330D01*
X18469466Y6856845D01*
X18462949Y6858642D01*
X18456470Y6859720D01*
X18450954Y6860028D01*
X18445636Y6859889D01*
X18439107Y6859317D01*
X18433347Y6858365D01*
X18428354Y6857031D01*
X18424129Y6855317D01*
X18420673Y6853221D01*
X18417984Y6850745D01*
X18416064Y6847887D01*
X18414912Y6844649D01*
X18414528Y6841029D01*
Y6917229D01*
X18414912Y6913610D01*
X18416064Y6910371D01*
X18417984Y6907514D01*
X18420673Y6905037D01*
X18424129Y6902942D01*
X18428354Y6901227D01*
X18433347Y6899894D01*
X18439107Y6898941D01*
X18445636Y6898370D01*
X18451433Y6898219D01*
X18457095Y6898531D01*
X18463547Y6899585D01*
X18470081Y6901343D01*
X18476694Y6903803D01*
X18483389Y6906966D01*
X18490164Y6910832D01*
X18497020Y6915401D01*
X18503957Y6920673D01*
X18510974Y6926649D01*
X18518073Y6933326D01*
X18516139Y6824144D01*
D02*
G37*
G36*
X9845821Y6905580D02*
X9846202Y6901262D01*
X9846837Y6897452D01*
X9847726Y6894150D01*
X9848869Y6891356D01*
X9850266Y6889070D01*
X9851917Y6887292D01*
X9853822Y6886022D01*
X9855981Y6885260D01*
X9858394Y6885006D01*
X9807594D01*
X9810007Y6885260D01*
X9812166Y6886022D01*
X9814071Y6887292D01*
X9815722Y6889070D01*
X9817119Y6891356D01*
X9818262Y6894150D01*
X9819151Y6897452D01*
X9819786Y6901262D01*
X9820167Y6905580D01*
X9820294Y6910406D01*
X9845694D01*
X9845821Y6905580D01*
D02*
G37*
G36*
X9331540Y6835764D02*
X9332092Y6831912D01*
X9333013Y6828089D01*
X9334302Y6824294D01*
X9335959Y6820527D01*
X9337985Y6816789D01*
X9340379Y6813080D01*
X9343141Y6809398D01*
X9346272Y6805746D01*
X9349771Y6802121D01*
X9287541D01*
X9291040Y6805746D01*
X9294170Y6809398D01*
X9296932Y6813080D01*
X9299326Y6816789D01*
X9301352Y6820527D01*
X9303009Y6824294D01*
X9304298Y6828089D01*
X9305219Y6831912D01*
X9305772Y6835764D01*
X9305956Y6839645D01*
X9331356D01*
X9331540Y6835764D01*
D02*
G37*
G36*
X10043137Y6842887D02*
X10043909Y6840728D01*
X10045194Y6838823D01*
X10046993Y6837172D01*
X10049307Y6835775D01*
X10052134Y6834632D01*
X10055476Y6833743D01*
X10059331Y6833108D01*
X10063701Y6832727D01*
X10068585Y6832600D01*
Y6807200D01*
X10063701Y6807073D01*
X10059331Y6806692D01*
X10055476Y6806057D01*
X10052134Y6805168D01*
X10049307Y6804025D01*
X10046993Y6802628D01*
X10045194Y6800977D01*
X10043909Y6799072D01*
X10043137Y6796913D01*
X10042880Y6794500D01*
Y6845300D01*
X10043137Y6842887D01*
D02*
G37*
G36*
X18286385Y6837933D02*
X18283299Y6836790D01*
X18280579Y6834885D01*
X18278220Y6832218D01*
X18276224Y6828789D01*
X18274591Y6824598D01*
X18273320Y6819645D01*
X18272414Y6813930D01*
X18272131Y6810572D01*
X18272360Y6807743D01*
X18272884Y6804462D01*
X18273557Y6801455D01*
X18274377Y6798721D01*
X18275349Y6796261D01*
X18276471Y6794073D01*
X18277742Y6792159D01*
X18279163Y6790518D01*
X18225827Y6791218D01*
X18227301Y6792838D01*
X18228621Y6794732D01*
X18229785Y6796903D01*
X18230794Y6799348D01*
X18231647Y6802069D01*
X18232346Y6805065D01*
X18232889Y6808336D01*
X18233139Y6810625D01*
X18232861Y6813930D01*
X18231953Y6819645D01*
X18230684Y6824598D01*
X18229051Y6828789D01*
X18227055Y6832218D01*
X18224696Y6834885D01*
X18221974Y6836790D01*
X18218890Y6837933D01*
X18215442Y6838314D01*
X18289833D01*
X18286385Y6837933D01*
D02*
G37*
G36*
X7436004Y6814730D02*
X7438321Y6786155D01*
X7439711Y6779170D01*
X7441410Y6773455D01*
X7443418Y6769010D01*
X7445735Y6765835D01*
X7448361Y6763930D01*
X7451295Y6763295D01*
X7356905D01*
X7359839Y6763930D01*
X7362465Y6765835D01*
X7364782Y6769010D01*
X7366790Y6773455D01*
X7368489Y6779170D01*
X7369879Y6786155D01*
X7370960Y6794410D01*
X7372196Y6814730D01*
X7372350Y6826795D01*
X7435850D01*
X7436004Y6814730D01*
D02*
G37*
G36*
X8966295Y6737889D02*
X8966581Y6734866D01*
X8967057Y6731978D01*
X8967724Y6729227D01*
X8968581Y6726611D01*
X8969629Y6724132D01*
X8970867Y6721788D01*
X8972296Y6719581D01*
X8973915Y6717509D01*
X8975725Y6715574D01*
X8931275D01*
X8933085Y6717509D01*
X8934704Y6719581D01*
X8936133Y6721788D01*
X8937371Y6724132D01*
X8938419Y6726611D01*
X8939276Y6729227D01*
X8939943Y6731978D01*
X8940419Y6734866D01*
X8940705Y6737889D01*
X8940800Y6741049D01*
X8966200D01*
X8966295Y6737889D01*
D02*
G37*
G36*
X9286335Y6695660D02*
X9288675Y6693724D01*
X9291054Y6692019D01*
X9293471Y6690545D01*
X9295927Y6689301D01*
X9298421Y6688289D01*
X9300953Y6687508D01*
X9303525Y6686957D01*
X9306134Y6686637D01*
X9308782Y6686548D01*
X9277352Y6655118D01*
X9277263Y6657766D01*
X9276943Y6660375D01*
X9276392Y6662947D01*
X9275611Y6665479D01*
X9274599Y6667973D01*
X9273355Y6670429D01*
X9271881Y6672846D01*
X9270176Y6675225D01*
X9268240Y6677565D01*
X9266073Y6679866D01*
X9284034Y6697827D01*
X9286335Y6695660D01*
D02*
G37*
G36*
X7959628Y6648767D02*
X7961543Y6643370D01*
X7964733Y6638608D01*
X7969199Y6634480D01*
X7974942Y6630988D01*
X7981960Y6628130D01*
X7990255Y6625907D01*
X7999826Y6624320D01*
X8010672Y6623368D01*
X8016725Y6623209D01*
X8028629Y6624193D01*
X8034089Y6625082D01*
X8039092Y6626225D01*
X8043637Y6627622D01*
X8047727Y6629273D01*
X8051359Y6631178D01*
X8054534Y6633337D01*
X8057252Y6635750D01*
Y6546850D01*
X8054534Y6549263D01*
X8051359Y6551422D01*
X8047727Y6553327D01*
X8043637Y6554978D01*
X8039092Y6556375D01*
X8034089Y6557518D01*
X8028629Y6558407D01*
X8022712Y6559042D01*
X8014889Y6559343D01*
X8010672Y6559233D01*
X7999826Y6558280D01*
X7990255Y6556692D01*
X7981960Y6554470D01*
X7974942Y6551613D01*
X7969199Y6548120D01*
X7964733Y6543993D01*
X7961543Y6539230D01*
X7959628Y6533832D01*
X7958990Y6527800D01*
Y6654800D01*
X7959628Y6648767D01*
D02*
G37*
G36*
X7956361Y6413270D02*
X7953735Y6411365D01*
X7951418Y6408190D01*
X7949410Y6403745D01*
X7947711Y6398030D01*
X7946321Y6391045D01*
X7945240Y6382790D01*
X7944489Y6370432D01*
X7945520Y6356317D01*
X7946818Y6348062D01*
X7948488Y6341077D01*
X7950529Y6335362D01*
X7952940Y6330917D01*
X7955723Y6327742D01*
X7958877Y6325837D01*
X7962402Y6325202D01*
X7861798D01*
X7865323Y6325837D01*
X7868477Y6327742D01*
X7871260Y6330917D01*
X7873671Y6335362D01*
X7875712Y6341077D01*
X7877382Y6348062D01*
X7878680Y6356317D01*
X7879608Y6365842D01*
X7879698Y6368611D01*
X7877879Y6391045D01*
X7876489Y6398030D01*
X7874790Y6403745D01*
X7872782Y6408190D01*
X7870465Y6411365D01*
X7867839Y6413270D01*
X7864905Y6413905D01*
X7959295D01*
X7956361Y6413270D01*
D02*
G37*
G36*
X7448361D02*
X7445735Y6411365D01*
X7443418Y6408190D01*
X7441410Y6403745D01*
X7439711Y6398030D01*
X7438321Y6391045D01*
X7437240Y6382790D01*
X7436546Y6371373D01*
X7436980Y6365842D01*
X7438393Y6356317D01*
X7440371Y6348062D01*
X7442914Y6341077D01*
X7446022Y6335362D01*
X7449695Y6330917D01*
X7453933Y6327742D01*
X7458737Y6325837D01*
X7464105Y6325202D01*
X7344095D01*
X7349463Y6325837D01*
X7354267Y6327742D01*
X7358505Y6330917D01*
X7362178Y6335362D01*
X7365286Y6341077D01*
X7367829Y6348062D01*
X7369807Y6356317D01*
X7371220Y6365842D01*
X7371565Y6370243D01*
X7369879Y6391045D01*
X7368489Y6398030D01*
X7366790Y6403745D01*
X7364782Y6408190D01*
X7362465Y6411365D01*
X7359839Y6413270D01*
X7356905Y6413905D01*
X7451295D01*
X7448361Y6413270D01*
D02*
G37*
G36*
X7380016Y6230192D02*
X7378040Y6231628D01*
X7375705Y6232347D01*
X7373011D01*
X7369958Y6231628D01*
X7366545Y6230192D01*
X7362774Y6228036D01*
X7358643Y6225163D01*
X7354153Y6221570D01*
X7344095Y6212231D01*
X7326134Y6230192D01*
X7331163Y6235400D01*
X7339066Y6244740D01*
X7341940Y6248870D01*
X7344095Y6252642D01*
X7345532Y6256055D01*
X7346250Y6259108D01*
Y6261802D01*
X7345532Y6264137D01*
X7344095Y6266112D01*
X7380016Y6230192D01*
D02*
G37*
G36*
X7899732Y6044903D02*
X7897510Y6047742D01*
X7894584Y6049344D01*
X7890954Y6049710D01*
X7886622Y6048839D01*
X7881585Y6046733D01*
X7875845Y6043390D01*
X7869402Y6038811D01*
X7862255Y6032996D01*
X7845851Y6017658D01*
X7834858Y6060546D01*
X7841718Y6067673D01*
X7852681Y6080767D01*
X7856785Y6086735D01*
X7859969Y6092316D01*
X7862234Y6097511D01*
X7863580Y6102320D01*
X7864007Y6106742D01*
X7863514Y6110778D01*
X7862103Y6114427D01*
X7899732Y6044903D01*
D02*
G37*
G36*
X7825967Y5997774D02*
X7822776Y5994382D01*
X7820080Y5991083D01*
X7817879Y5987877D01*
X7816173Y5984764D01*
X7814961Y5981744D01*
X7814245Y5978817D01*
X7814023Y5975983D01*
X7814297Y5973243D01*
X7815065Y5970595D01*
X7816329Y5968040D01*
X7757966Y5984658D01*
X7758705Y5985206D01*
X7760098Y5986428D01*
X7788155Y6013853D01*
X7794779Y6020467D01*
X7825967Y5997774D01*
D02*
G37*
G36*
X7438580Y6025112D02*
X7435342Y6023960D01*
X7432484Y6022040D01*
X7430008Y6019351D01*
X7427912Y6015895D01*
X7426198Y6011670D01*
X7424864Y6006678D01*
X7423912Y6000917D01*
X7423440Y5995529D01*
X7423726Y5992709D01*
X7424446Y5988766D01*
X7425454Y5985146D01*
X7426750Y5981849D01*
X7428333Y5978875D01*
X7430205Y5976224D01*
X7432365Y5973896D01*
X7434813Y5971892D01*
X7437548Y5970210D01*
X7377912Y5952430D01*
X7379268Y5955113D01*
X7380482Y5958006D01*
X7381553Y5961107D01*
X7382481Y5964418D01*
X7383266Y5967938D01*
X7384408Y5975607D01*
X7384765Y5979755D01*
X7385027Y5987965D01*
X7384859Y5994388D01*
X7384288Y6000917D01*
X7383335Y6006678D01*
X7382002Y6011670D01*
X7380288Y6015895D01*
X7378192Y6019351D01*
X7375715Y6022040D01*
X7372858Y6023960D01*
X7369619Y6025112D01*
X7366000Y6025496D01*
X7442200D01*
X7438580Y6025112D01*
D02*
G37*
G36*
X18277711Y5967040D02*
X18276236Y5965421D01*
X18274918Y5963526D01*
X18273753Y5961356D01*
X18272745Y5958911D01*
X18271890Y5956190D01*
X18271191Y5953194D01*
X18270648Y5949923D01*
X18270398Y5947634D01*
X18270676Y5944328D01*
X18271584Y5938613D01*
X18272853Y5933660D01*
X18274486Y5929469D01*
X18276482Y5926040D01*
X18278841Y5923373D01*
X18281563Y5921468D01*
X18284648Y5920325D01*
X18288095Y5919944D01*
X18213705D01*
X18217152Y5920325D01*
X18220238Y5921468D01*
X18222958Y5923373D01*
X18225317Y5926040D01*
X18227315Y5929469D01*
X18228947Y5933660D01*
X18230217Y5938613D01*
X18231123Y5944328D01*
X18231407Y5947687D01*
X18231177Y5950516D01*
X18230653Y5953796D01*
X18229980Y5956803D01*
X18229160Y5959537D01*
X18228188Y5961998D01*
X18227066Y5964185D01*
X18225795Y5966099D01*
X18224374Y5967740D01*
X18277711Y5967040D01*
D02*
G37*
G36*
X18517097Y5823149D02*
X18510156Y5829904D01*
X18496455Y5841280D01*
X18489693Y5845901D01*
X18482990Y5849812D01*
X18476346Y5853011D01*
X18469762Y5855500D01*
X18463235Y5857277D01*
X18456770Y5858344D01*
X18450629Y5858684D01*
X18443898Y5858509D01*
X18437370Y5857937D01*
X18431609Y5856985D01*
X18426616Y5855651D01*
X18422392Y5853937D01*
X18418935Y5851841D01*
X18416248Y5849365D01*
X18414326Y5846507D01*
X18413174Y5843269D01*
X18412790Y5839649D01*
Y5915849D01*
X18413174Y5912230D01*
X18414326Y5908991D01*
X18416248Y5906134D01*
X18418935Y5903657D01*
X18422392Y5901562D01*
X18426616Y5899847D01*
X18431609Y5898514D01*
X18437370Y5897561D01*
X18443898Y5896990D01*
X18450629Y5896814D01*
X18456770Y5897155D01*
X18463235Y5898221D01*
X18469762Y5899999D01*
X18476346Y5902487D01*
X18482990Y5905687D01*
X18489693Y5909597D01*
X18496455Y5914219D01*
X18503278Y5919551D01*
X18510156Y5925595D01*
X18517097Y5932349D01*
Y5823149D01*
D02*
G37*
G36*
X7302627Y5742128D02*
X7303008Y5737772D01*
X7303643Y5733925D01*
X7304532Y5730590D01*
X7305675Y5727764D01*
X7307072Y5725449D01*
X7308723Y5723643D01*
X7310628Y5722349D01*
X7312787Y5721565D01*
X7315200Y5721291D01*
X7274005Y5721595D01*
X7274593Y5721849D01*
X7275119Y5722611D01*
X7275583Y5723881D01*
X7275986Y5725659D01*
X7276326Y5727945D01*
X7276821Y5734041D01*
X7277100Y5746995D01*
X7302500D01*
X7302627Y5742128D01*
D02*
G37*
G36*
X7567609Y5651500D02*
X7567352Y5653913D01*
X7566581Y5656072D01*
X7565296Y5657977D01*
X7563497Y5659628D01*
X7561183Y5661025D01*
X7558356Y5662168D01*
X7555014Y5663057D01*
X7551158Y5663692D01*
X7546789Y5664073D01*
X7541905Y5664200D01*
Y5689600D01*
X7546789Y5689727D01*
X7551158Y5690108D01*
X7555014Y5690743D01*
X7558356Y5691632D01*
X7561183Y5692775D01*
X7563497Y5694172D01*
X7565296Y5695823D01*
X7566581Y5697728D01*
X7567352Y5699887D01*
X7567609Y5702300D01*
Y5651500D01*
D02*
G37*
G36*
X7483649Y5699887D02*
X7484411Y5697728D01*
X7485681Y5695823D01*
X7487459Y5694172D01*
X7489745Y5692775D01*
X7492539Y5691632D01*
X7495841Y5690743D01*
X7499651Y5690108D01*
X7503969Y5689727D01*
X7508795Y5689600D01*
Y5664200D01*
X7503969Y5664073D01*
X7499651Y5663692D01*
X7495841Y5663057D01*
X7492539Y5662168D01*
X7489745Y5661025D01*
X7487459Y5659628D01*
X7485681Y5657977D01*
X7484411Y5656072D01*
X7483649Y5653913D01*
X7483395Y5651500D01*
Y5702300D01*
X7483649Y5699887D01*
D02*
G37*
G36*
X8044255Y5645971D02*
X8041745Y5648228D01*
X8039011Y5650248D01*
X8036051Y5652029D01*
X8032866Y5653574D01*
X8029456Y5654880D01*
X8025820Y5655949D01*
X8021959Y5656781D01*
X8017873Y5657375D01*
X8013562Y5657731D01*
X8009026Y5657850D01*
X8008419Y5695950D01*
X8012958Y5696072D01*
X8017265Y5696440D01*
X8021340Y5697052D01*
X8025183Y5697909D01*
X8028793Y5699011D01*
X8032171Y5700358D01*
X8035316Y5701950D01*
X8038229Y5703787D01*
X8040910Y5705868D01*
X8043359Y5708195D01*
X8044255Y5645971D01*
D02*
G37*
G36*
X7927076Y5711380D02*
X7928219Y5708142D01*
X7930124Y5705284D01*
X7932791Y5702808D01*
X7936220Y5700713D01*
X7940411Y5698998D01*
X7945364Y5697664D01*
X7951079Y5696712D01*
X7957556Y5696140D01*
X7964795Y5695950D01*
Y5657850D01*
X7957556Y5657659D01*
X7951079Y5657088D01*
X7945364Y5656135D01*
X7940411Y5654802D01*
X7936220Y5653088D01*
X7932791Y5650992D01*
X7930124Y5648515D01*
X7928219Y5645658D01*
X7927076Y5642419D01*
X7926695Y5638800D01*
Y5715000D01*
X7927076Y5711380D01*
D02*
G37*
%LPC*%
G36*
X9491801Y11241800D02*
X9467999D01*
X9445007Y11235639D01*
X9424393Y11223738D01*
X9407562Y11206907D01*
X9395661Y11186293D01*
X9389500Y11163301D01*
Y11139498D01*
X9395661Y11116507D01*
X9407562Y11095893D01*
X9424393Y11079062D01*
X9445007Y11067160D01*
X9467999Y11061000D01*
X9491801D01*
X9514793Y11067160D01*
X9535407Y11079062D01*
X9552238Y11095893D01*
X9564139Y11116507D01*
X9570300Y11139498D01*
Y11163301D01*
X9564139Y11186293D01*
X9552238Y11206907D01*
X9535407Y11223738D01*
X9514793Y11235639D01*
X9491801Y11241800D01*
D02*
G37*
G36*
X9291801D02*
X9267998D01*
X9245007Y11235639D01*
X9224393Y11223738D01*
X9207562Y11206907D01*
X9195661Y11186293D01*
X9189500Y11163301D01*
Y11139498D01*
X9195661Y11116507D01*
X9207562Y11095893D01*
X9224393Y11079062D01*
X9245007Y11067160D01*
X9267998Y11061000D01*
X9291801D01*
X9314793Y11067160D01*
X9335407Y11079062D01*
X9352238Y11095893D01*
X9364139Y11116507D01*
X9370300Y11139498D01*
Y11163301D01*
X9364139Y11186293D01*
X9352238Y11206907D01*
X9335407Y11223738D01*
X9314793Y11235639D01*
X9291801Y11241800D01*
D02*
G37*
%LPD*%
D12*
X18288000Y12457700D02*
D03*
Y12332700D02*
D03*
Y12764500D02*
D03*
Y12889500D02*
D03*
D15*
X11112500Y12096598D02*
D03*
Y12236597D02*
D03*
X9639300D02*
D03*
Y12096598D02*
D03*
D21*
X7580400Y9169400D02*
D03*
X7710400D02*
D03*
X7123700Y11125200D02*
D03*
X6998700D02*
D03*
D29*
X7372100Y9171000D02*
D03*
X7182100D02*
D03*
X7277100Y9371000D02*
D03*
D40*
X18375900Y5877749D02*
D03*
X18250900D02*
D03*
X18377637Y6880509D02*
D03*
X18252637D02*
D03*
X18375900Y7377749D02*
D03*
X18250900D02*
D03*
X18375900Y11252200D02*
D03*
X18250900D02*
D03*
X18375900Y13261848D02*
D03*
X18250900D02*
D03*
X18375900Y13512801D02*
D03*
X18250900D02*
D03*
D45*
X7629500Y5676900D02*
D03*
X7864500D02*
D03*
D51*
X7448700Y5676900D02*
D03*
X7308700D02*
D03*
D55*
X18288000Y12332700D02*
X18288499Y12333200D01*
X18288000Y12216352D02*
Y12332700D01*
X18287500Y12215852D02*
X18288000Y12216352D01*
X18250900Y7377749D02*
X18251401Y7378249D01*
X18250900Y7261401D02*
Y7377749D01*
X18250400Y7260901D02*
X18250900Y7261401D01*
X18134052Y11252700D02*
X18134552Y11252200D01*
X18250900D01*
X18251401Y11251700D01*
X18375900Y5877749D02*
X18375900Y5877749D01*
X18572800D01*
X18250900Y5994097D02*
X18251401Y5994597D01*
X18250900Y5877749D02*
Y5994097D01*
X18250400Y5877249D02*
X18250900Y5877749D01*
X18252138Y6763662D02*
X18252637Y6764161D01*
Y6880509D01*
X18253137Y6881010D01*
X18377637Y6880509D02*
X18379018Y6879129D01*
X18571420D01*
X18572800Y6877749D01*
X18375900Y7377749D02*
X18572800D01*
X18375900Y7377749D02*
X18375900Y7377749D01*
X18375900Y13261848D02*
X18572800D01*
X18375900Y13512801D02*
X18376375Y13512325D01*
X18572325D01*
X18572800Y13511850D01*
X18288000Y13005849D02*
X18288499Y13006348D01*
X18288000Y12889500D02*
Y13005849D01*
X18287500Y12889000D02*
X18288000Y12889500D01*
X18250400Y13395952D02*
X18250900Y13396452D01*
Y13512801D01*
X18251401Y13513300D01*
X18250400Y13261348D02*
X18250900Y13261848D01*
X18250400Y13145000D02*
Y13261348D01*
X18249899Y13144501D02*
X18250400Y13145000D01*
X8074907Y5676900D02*
X8075547Y5677540D01*
X7864500Y5676900D02*
X8074907D01*
X7404100Y5943600D02*
X7416800Y5930900D01*
X7404100Y5943600D02*
Y6072697D01*
X7778252Y5945106D02*
Y5976999D01*
X7912100Y6110848D01*
X10242600Y8204200D02*
X10248900Y8197900D01*
Y7612496D02*
Y8197900D01*
X10003165Y8204200D02*
X10242600D01*
X10248900Y8600126D02*
Y9042400D01*
X10242600Y8204200D02*
Y8326177D01*
X10248900Y8332477D01*
Y8597468D01*
X10246242Y8600126D02*
X10248900Y8597468D01*
X10003786Y8600126D02*
X10246242D01*
X10248900Y7188200D02*
Y7612496D01*
X10003165Y7620000D02*
X10241396D01*
X10248900Y7612496D01*
X10096500Y7035800D02*
X10248900Y7188200D01*
X10147300Y9144000D02*
X10248900Y9042400D01*
X10003165Y9144000D02*
X10147300D01*
X10009825Y7035800D02*
X10096500D01*
D56*
X18006949Y12761849D02*
X18572800D01*
X14579601Y9334500D02*
X18006949Y12761849D01*
X18375900Y11164046D02*
X18572800Y10967146D01*
X18375900Y11164046D02*
Y11823700D01*
X18384653D02*
X18572800Y12011848D01*
Y10717149D02*
Y10967146D01*
X17627600Y10452100D02*
X17741901Y10566400D01*
X18422050D02*
X18572800Y10717149D01*
X17741901Y10566400D02*
X18422050D01*
X17627600Y8115300D02*
Y10452100D01*
Y8115300D02*
X17741901D01*
X17513300D02*
X17627600D01*
X14579601Y8263716D02*
Y9334500D01*
X13779501Y8204200D02*
X14520084D01*
X14579601Y8263716D01*
X13639799Y8064499D02*
X13779501Y8204200D01*
X18572800Y12761849D02*
Y13011845D01*
D57*
X12752057Y8522957D02*
X12901677D01*
X12941060Y8562340D01*
X13992860D01*
X9832994Y7988300D02*
X9836150Y7991456D01*
Y8096250D01*
X9613900Y7175500D02*
Y7747000D01*
X9609159Y7884352D02*
X9692448D01*
X9832994Y7743806D01*
X9525000Y7975600D02*
X9690100D01*
X9867900Y7797800D02*
X10020850D01*
X9690100Y7975600D02*
X9754568Y7911132D01*
X9780911Y7884789D02*
X9867900Y7797800D01*
X9754568Y7907107D02*
Y7911132D01*
Y7907107D02*
X9776887Y7884789D01*
X9780911D01*
X9832994Y7620000D02*
Y7743806D01*
X10041535Y8786791D02*
X10152000D01*
X10007600Y8820726D02*
X10041535Y8786791D01*
X9118600Y6845300D02*
X9309100Y6654800D01*
X7289800Y5695800D02*
X7308700Y5676900D01*
X7289800Y6175896D02*
X7356490Y6242586D01*
X7289800Y5695800D02*
Y6175896D01*
X15481432Y12204701D02*
X15559419D01*
X14215314Y12192000D02*
X15468732D01*
X15481432Y12204701D01*
X15559419D02*
X15563982Y12209263D01*
X14202612Y12179300D02*
X14215314Y12192000D01*
X12877609Y12179300D02*
X14202612D01*
X12766514Y12290396D02*
X12877609Y12179300D01*
X12765253Y12290396D02*
X12766514D01*
X12708529Y12347121D02*
X12765253Y12290396D01*
X12688534Y12347121D02*
X12708529D01*
X15407455Y12530648D02*
X15408887Y12529215D01*
X15297600Y12530648D02*
X15407455D01*
X15489340Y12529215D02*
X15502705Y12515850D01*
X14390781Y12502200D02*
X14510201D01*
X14308759Y12502621D02*
X14390358D01*
X14295529Y12515850D02*
X14308759Y12502621D01*
X15408887Y12529215D02*
X15489340D01*
X14390358Y12502621D02*
X14390781Y12502200D01*
X13992860Y8562340D02*
X13995399Y8559800D01*
X10407600Y8204200D02*
X10420350Y8191450D01*
Y8064500D02*
Y8191450D01*
X10003165Y6819900D02*
X11049000D01*
X12752057Y8522957D01*
X12776200Y12598400D02*
X14173199D01*
X14282001Y12707200D02*
X14510201D01*
X14173199Y12598400D02*
X14282001Y12707200D01*
X14510201Y12714100D02*
X14661018D01*
X14906599Y12484100D02*
X14908200Y12482500D01*
Y12282500D02*
Y12482500D01*
Y12282500D02*
X14909801Y12280900D01*
X12065000Y11887200D02*
X12776200Y12598400D01*
X7356490Y6242586D02*
Y6242586D01*
X7391600Y6277697D01*
X10145074Y8396926D02*
X10147300Y8394700D01*
X10005686Y8396926D02*
X10145074D01*
X7448700Y5676900D02*
X7629500D01*
X7629500Y5676900D01*
X7391600Y6277697D02*
X7404100D01*
X14661018Y12714100D02*
X14756599D01*
X10020850Y7809950D02*
X10033000Y7797800D01*
X10003165Y7844429D02*
X10029247Y7818347D01*
X9318656Y6770378D02*
Y7769256D01*
X9525000Y7975600D01*
X8953500Y6692900D02*
Y9105900D01*
X9017000Y9169400D01*
X9829800Y8737600D02*
Y9144000D01*
X9832994Y8096250D02*
Y8204200D01*
X10033000Y7213600D02*
Y7230394D01*
X10003165Y7260229D02*
X10033000Y7230394D01*
X10003165Y7260229D02*
Y7404100D01*
X9613900Y7175500D02*
X9753600Y7035800D01*
X9832994D01*
Y6819900D02*
Y7035800D01*
Y7404100D02*
Y7620000D01*
X9835514Y8396926D02*
Y8598226D01*
X9833614Y8600126D02*
X9835514Y8598226D01*
X9273226Y8396926D02*
X9835514D01*
X9118600Y8242300D02*
X9273226Y8396926D01*
X9118600Y6845300D02*
Y8242300D01*
X7710400Y9169400D02*
X8204200D01*
X8432800Y9398000D01*
X7373700Y9169400D02*
X7580400D01*
X7372100Y9171000D02*
X7373700Y9169400D01*
X7181101Y9170001D02*
X7182100Y9171000D01*
X7372100Y8591300D02*
Y9171000D01*
X7572358Y9161358D02*
X7580400Y9169400D01*
X15342088Y10755788D02*
X15343201Y10754676D01*
X12294712Y10755788D02*
X15342088D01*
X12293600Y10756900D02*
X12294712Y10755788D01*
X15262251Y12714100D02*
X15297600Y12678752D01*
X15056599Y12714100D02*
X15262251D01*
X10007600Y8820726D02*
Y8924295D01*
X8077200Y13906500D02*
X10267950D01*
X11633200Y12541250D01*
X12666773Y12092400D02*
X14594299D01*
X12630673Y12128500D02*
X12666773Y12092400D01*
X12623800Y12128500D02*
X12630673D01*
X10003165Y7844429D02*
Y7988300D01*
X6908800Y8128000D02*
X7372100Y8591300D01*
X7340600Y9271000D02*
X7493000Y9423400D01*
X7277100Y9271000D02*
X7340600D01*
X7493000Y9423400D02*
Y11201400D01*
X7182100Y9176000D02*
X7277100Y9271000D01*
X7302500Y12458700D02*
X7543800Y12700000D01*
X7302500Y11391900D02*
Y12458700D01*
Y11391900D02*
X7493000Y11201400D01*
X7182100Y9171000D02*
Y9176000D01*
X7277100Y9371000D02*
Y10655300D01*
X7035800Y10896600D02*
X7277100Y10655300D01*
X7302500Y11125200D02*
X7340600Y11163300D01*
X7123700Y11125200D02*
X7302500D01*
X6725369Y11120947D02*
X6994447D01*
X6998700Y11125200D01*
X7899400Y11785600D02*
Y13728700D01*
X7543800Y11430000D02*
X7899400Y11785600D01*
Y13728700D02*
X8077200Y13906500D01*
D58*
X7404100Y6908800D02*
X7505700Y7010400D01*
X7404100Y6588600D02*
Y6908800D01*
X7912100Y6588600D02*
X7914800Y6591300D01*
X8102600D01*
X7912100Y6258952D02*
Y6588600D01*
X7404100Y6277697D02*
Y6588600D01*
D59*
X7622271Y7527771D02*
X7658100Y7563600D01*
X9648900Y12086997D02*
X9658900D01*
X9639300Y12096598D02*
X9648900Y12086997D01*
X9821256Y12047716D02*
X9831566D01*
X9658900Y12086997D02*
X9730742Y12015155D01*
X9788695D01*
X9821256Y12047716D01*
X10963201Y12007850D02*
X10965631Y12010280D01*
X11016182D01*
X10962530Y12232530D02*
X11108432D01*
X11112500Y12236597D01*
X9639300D02*
X9643368Y12232530D01*
X9789270D01*
X9791700Y12230100D01*
X10960100D02*
X10962530Y12232530D01*
X9639300Y12236597D02*
X9642401Y12239699D01*
X11102500Y12096598D02*
X11112500D01*
X11016182Y12010280D02*
X11102500Y12096598D01*
D62*
X12268200Y13233400D02*
D03*
Y12979401D02*
D03*
Y13792200D02*
D03*
X12522200D02*
D03*
D63*
X12268200Y12725400D02*
D03*
D64*
X12776200Y13792200D02*
D03*
D65*
X13358000Y8963900D02*
D03*
Y9163900D02*
D03*
X11988000Y8913900D02*
D03*
Y9113900D02*
D03*
X9479900Y11151400D02*
D03*
X9279900D02*
D03*
X9529900Y8581400D02*
D03*
X9329900D02*
D03*
D66*
X8432800Y10160000D02*
D03*
Y9906000D02*
D03*
Y9652000D02*
D03*
Y9398000D02*
D03*
Y9144000D02*
D03*
Y8890000D02*
D03*
Y8636000D02*
D03*
Y8382000D02*
D03*
Y8128000D02*
D03*
Y7874000D02*
D03*
Y7620000D02*
D03*
Y7366000D02*
D03*
Y7112000D02*
D03*
Y6858000D02*
D03*
Y6604000D02*
D03*
X6908800D02*
D03*
Y6858000D02*
D03*
Y7112000D02*
D03*
Y7366000D02*
D03*
Y7620000D02*
D03*
Y7874000D02*
D03*
Y8128000D02*
D03*
Y8382000D02*
D03*
Y8636000D02*
D03*
Y8890000D02*
D03*
Y9144000D02*
D03*
Y9398000D02*
D03*
Y9652000D02*
D03*
Y9906000D02*
D03*
D67*
Y10160000D02*
D03*
D68*
X18135600Y8293100D02*
D03*
X6858000Y13525500D02*
D03*
Y5778500D02*
D03*
X17843500Y13525500D02*
D03*
X17602200Y5778500D02*
D03*
X18021300Y10160000D02*
D03*
X9461500Y5778500D02*
D03*
D69*
X19545300Y7370249D02*
D03*
Y5872749D02*
D03*
Y11459647D02*
D03*
Y9962149D02*
D03*
Y9414949D02*
D03*
Y7917449D02*
D03*
Y13504347D02*
D03*
Y12006849D02*
D03*
D70*
X18822800Y5877749D02*
D03*
Y6127749D02*
D03*
Y6377749D02*
D03*
Y6627749D02*
D03*
Y6877749D02*
D03*
Y7127749D02*
D03*
Y7377749D02*
D03*
X18572800Y5877749D02*
D03*
Y6127749D02*
D03*
Y6377749D02*
D03*
Y6627749D02*
D03*
Y6877749D02*
D03*
Y7127749D02*
D03*
Y7377749D02*
D03*
X18822803Y9967148D02*
D03*
Y10217150D02*
D03*
Y10467147D02*
D03*
Y10717149D02*
D03*
Y10967146D02*
D03*
Y11217148D02*
D03*
Y11467150D02*
D03*
X18572800Y9967148D02*
D03*
Y10217150D02*
D03*
Y10467147D02*
D03*
Y10717149D02*
D03*
Y10967146D02*
D03*
Y11217148D02*
D03*
Y11467150D02*
D03*
X18822800Y7922449D02*
D03*
Y8172449D02*
D03*
Y8422449D02*
D03*
Y8672449D02*
D03*
Y8922449D02*
D03*
Y9172449D02*
D03*
Y9422449D02*
D03*
X18572800Y7922449D02*
D03*
Y8172449D02*
D03*
Y8422449D02*
D03*
Y8672449D02*
D03*
Y8922449D02*
D03*
Y9172449D02*
D03*
Y9422449D02*
D03*
X18822803Y12011848D02*
D03*
Y12261850D02*
D03*
Y12511847D02*
D03*
Y12761849D02*
D03*
Y13011845D02*
D03*
Y13261848D02*
D03*
Y13511850D02*
D03*
X18572800Y12011848D02*
D03*
Y12261850D02*
D03*
Y12511847D02*
D03*
Y12761849D02*
D03*
Y13011845D02*
D03*
Y13261848D02*
D03*
Y13511850D02*
D03*
D71*
X6616700Y10160000D02*
D03*
X8724900D02*
D03*
D72*
X6616700Y9906000D02*
D03*
Y9652000D02*
D03*
Y9398000D02*
D03*
Y9144000D02*
D03*
Y8890000D02*
D03*
Y8636000D02*
D03*
Y8382000D02*
D03*
Y8128000D02*
D03*
Y7874000D02*
D03*
Y7620000D02*
D03*
Y7366000D02*
D03*
Y7112000D02*
D03*
Y6858000D02*
D03*
Y6604000D02*
D03*
X8724900Y9906000D02*
D03*
Y9652000D02*
D03*
Y9398000D02*
D03*
Y9144000D02*
D03*
Y8890000D02*
D03*
Y8636000D02*
D03*
Y8382000D02*
D03*
Y8128000D02*
D03*
Y7874000D02*
D03*
Y7620000D02*
D03*
Y7366000D02*
D03*
Y7112000D02*
D03*
Y6858000D02*
D03*
Y6604000D02*
D03*
D73*
X8674100Y12090400D02*
D03*
Y13208000D02*
D03*
D74*
X6725369Y11120947D02*
D03*
X15125700Y13106400D02*
D03*
X8216900Y5867400D02*
D03*
X8483600D02*
D03*
D75*
X7543800Y12382500D02*
D03*
Y12065000D02*
D03*
Y12700000D02*
D03*
Y11430000D02*
D03*
Y13017500D02*
D03*
Y11747500D02*
D03*
D76*
X18328648Y9626100D02*
D03*
X18287500Y12215852D02*
D03*
X18250400Y7260901D02*
D03*
X10645148Y9295900D02*
D03*
X18134052Y11252700D02*
D03*
X18251401Y5994597D02*
D03*
X18252138Y6763662D02*
D03*
X18288499Y13006348D02*
D03*
X18250400Y13395952D02*
D03*
X18249899Y13144501D02*
D03*
D77*
X9836150Y8096250D02*
D03*
X9613900Y7747000D02*
D03*
X9609159Y7884352D02*
D03*
X10152000Y8786791D02*
D03*
X14617700Y13201649D02*
D03*
X17110193Y13070532D02*
D03*
X17107375Y12698236D02*
D03*
X14554201Y7747000D02*
D03*
X14630400Y6883400D02*
D03*
X14428157Y7100257D02*
D03*
X15563982Y12209263D02*
D03*
X16472375Y12325350D02*
D03*
X14033501D02*
D03*
X13182600D02*
D03*
X14295529Y12515850D02*
D03*
X15502705D02*
D03*
X17107375Y12325350D02*
D03*
X13398500D02*
D03*
X12688534Y12347121D02*
D03*
X16256474Y12325350D02*
D03*
X15571851Y12695696D02*
D03*
X13671220Y7666695D02*
D03*
X13670200Y7223476D02*
D03*
X13672501Y7439376D02*
D03*
X15509798Y10435322D02*
D03*
X15521672Y10105948D02*
D03*
X8075547Y5677540D02*
D03*
X7416800Y5930900D02*
D03*
X7778252Y5945106D02*
D03*
X14130791Y8674049D02*
D03*
X13813290D02*
D03*
X10420350Y8064500D02*
D03*
X12598400Y8204200D02*
D03*
X13398500Y8479790D02*
D03*
X16118631Y6858000D02*
D03*
Y7099300D02*
D03*
Y7340600D02*
D03*
X16116330Y7556500D02*
D03*
X14198599Y7327900D02*
D03*
X17794026Y7457915D02*
D03*
X17578127D02*
D03*
X17094200Y6705600D02*
D03*
Y6934200D02*
D03*
X15806133Y8086100D02*
D03*
X15577531D02*
D03*
X15348932D02*
D03*
X15571851Y13065173D02*
D03*
X16817336Y9145770D02*
D03*
Y9463270D02*
D03*
Y9780770D02*
D03*
Y10098270D02*
D03*
Y10415770D02*
D03*
X15531889Y9143230D02*
D03*
Y9460730D02*
D03*
Y9778230D02*
D03*
X14375790Y10190857D02*
D03*
X13665199Y9943621D02*
D03*
X13810750D02*
D03*
X14128250D02*
D03*
X13743462Y10098270D02*
D03*
Y10415770D02*
D03*
X12473889Y9778230D02*
D03*
Y10095730D02*
D03*
Y10413230D02*
D03*
X12513850Y12696325D02*
D03*
Y13065759D02*
D03*
X14033501Y12700000D02*
D03*
Y13068300D02*
D03*
X14909801Y12280900D02*
D03*
X16814799Y8166100D02*
D03*
X15963901Y8318500D02*
D03*
X11734800D02*
D03*
X14655800Y7975600D02*
D03*
X14427200Y7797800D02*
D03*
X13398500Y7457915D02*
D03*
X12839700Y6718300D02*
D03*
Y6946900D02*
D03*
X17614900Y12979401D02*
D03*
X10363200Y8540750D02*
D03*
X10152000Y8369300D02*
D03*
X14661018Y12714100D02*
D03*
X9318656Y6770378D02*
D03*
X9829800Y8737600D02*
D03*
X10033000Y7213600D02*
D03*
X12017000Y11240538D02*
D03*
X15051674D02*
D03*
X12268200Y11887200D02*
D03*
X15341600D02*
D03*
X15159425Y12714100D02*
D03*
X7663700Y7754100D02*
D03*
X7652500Y7373100D02*
D03*
X7467600Y7569200D02*
D03*
X7848600Y7558000D02*
D03*
X7658100Y7563600D02*
D03*
X16256474Y13067628D02*
D03*
X16472375D02*
D03*
Y12698193D02*
D03*
X16256474D02*
D03*
X11633200Y12541250D02*
D03*
X13182600Y12698865D02*
D03*
X13398500D02*
D03*
Y13068300D02*
D03*
X13182600D02*
D03*
X9831566Y12047716D02*
D03*
X11569700Y10871200D02*
D03*
X11303000D02*
D03*
X11169650Y10807700D02*
D03*
X11036300Y10871200D02*
D03*
X11436350Y10807700D02*
D03*
X10963201Y12007850D02*
D03*
X9791700Y12230100D02*
D03*
X10960100D02*
D03*
X10033000Y7797800D02*
D03*
X7035800Y10896600D02*
D03*
X7340600Y11163300D02*
D03*
X17513300Y12979401D02*
D03*
X17614900Y12877800D02*
D03*
X17513300D02*
D03*
X11436350Y11061700D02*
D03*
Y10934700D02*
D03*
X11569700Y10998200D02*
D03*
Y11125200D02*
D03*
X11169650Y10934700D02*
D03*
Y11061700D02*
D03*
X11036300Y11125200D02*
D03*
Y10998200D02*
D03*
X11303000D02*
D03*
Y11125200D02*
D03*
D78*
X9309100Y6654800D02*
D03*
X16922365Y12512227D02*
D03*
X9170479Y6592207D02*
D03*
X15544800Y7518400D02*
D03*
X15392400D02*
D03*
X15544800Y7175500D02*
D03*
X15379700D02*
D03*
X17741901Y8115300D02*
D03*
X17513300D02*
D03*
X13639799Y7886700D02*
D03*
Y8064499D02*
D03*
X11811000Y8445500D02*
D03*
Y8572500D02*
D03*
X11810398Y12420600D02*
D03*
X12065000Y11887200D02*
D03*
X9017000Y9169400D02*
D03*
X8953500Y6692900D02*
D03*
X9677400Y6489700D02*
D03*
X12901677Y8522957D02*
D03*
X12293600Y10756900D02*
D03*
X15343201Y10754676D02*
D03*
X16922365Y12881705D02*
D03*
X15845799Y10846300D02*
D03*
X15642599D02*
D03*
X15923100Y11239500D02*
D03*
Y11531600D02*
D03*
Y11633200D02*
D03*
Y11734800D02*
D03*
Y11836400D02*
D03*
Y11938000D02*
D03*
X15342368Y11439393D02*
D03*
X12865100Y11239500D02*
D03*
Y11531600D02*
D03*
Y11633200D02*
D03*
Y11734800D02*
D03*
Y11836400D02*
D03*
Y11938000D02*
D03*
X12623800Y12128500D02*
D03*
X14594299Y12092400D02*
D03*
X12584600Y10846300D02*
D03*
X12787800D02*
D03*
X12284367Y11439393D02*
D03*
D79*
X8839200Y11303000D02*
D03*
X8686800D02*
D03*
X8991600D02*
D03*
X14899863Y9296400D02*
D03*
X13995399Y8559800D02*
D03*
X14899863Y8864600D02*
D03*
X10223500Y9956800D02*
D03*
X10134600Y9779000D02*
D03*
X10223500Y9601200D02*
D03*
X10134600Y9423400D02*
D03*
X10045700Y9956800D02*
D03*
X9956800Y9779000D02*
D03*
X10045700Y9601200D02*
D03*
X9956800Y9423400D02*
D03*
X9867900Y9956800D02*
D03*
X9779000Y9779000D02*
D03*
X9867900Y9601200D02*
D03*
X9779000Y9423400D02*
D03*
X9690100Y9956800D02*
D03*
Y9601200D02*
D03*
X8978900Y9956800D02*
D03*
Y9601200D02*
D03*
X16192500Y8890000D02*
D03*
Y8712200D02*
D03*
X16179800Y9779000D02*
D03*
Y9461500D02*
D03*
Y10096500D02*
D03*
X8686800Y10744200D02*
D03*
X8839200D02*
D03*
X8991600D02*
D03*
X8686800Y11023600D02*
D03*
X8839200D02*
D03*
X8991600D02*
D03*
X14401801Y9296400D02*
D03*
X13970000D02*
D03*
X8915400Y10604500D02*
D03*
Y10883900D02*
D03*
Y11163300D02*
D03*
X8763000Y10604500D02*
D03*
Y11163300D02*
D03*
Y10883900D02*
D03*
X8610600Y10604500D02*
D03*
Y11163300D02*
D03*
Y10883900D02*
D03*
X11671300Y12814301D02*
D03*
Y13373100D02*
D03*
Y13093700D02*
D03*
Y13652499D02*
D03*
X11836400Y12814301D02*
D03*
Y13652499D02*
D03*
Y13373100D02*
D03*
Y13093700D02*
D03*
D80*
X16446500Y7428000D02*
D03*
X16326500D02*
D03*
X16446500Y7558000D02*
D03*
X16556500D02*
D03*
X16556500Y7428000D02*
D03*
X16326500Y7558000D02*
D03*
X12230100Y7428000D02*
D03*
X12110100D02*
D03*
X12230100Y7558000D02*
D03*
X12340100D02*
D03*
X12340100Y7428000D02*
D03*
X12110100Y7558000D02*
D03*
D81*
X7505700Y7010400D02*
D03*
X8102600Y6591300D02*
D03*
D104*
X14706599Y6235700D02*
X18430751D01*
X18572800Y6377749D01*
X13639799Y7886700D02*
Y8064499D01*
X13906500Y7035800D02*
X14706599Y6235700D01*
X13906500Y7035800D02*
Y7620000D01*
X13639799Y7886700D02*
X13906500Y7620000D01*
X18572800Y6377749D02*
Y6627749D01*
Y6877749D01*
Y7127749D02*
Y7377749D01*
Y6877749D02*
Y7127749D01*
D105*
X7404100Y6072697D02*
D03*
Y6277697D02*
D03*
X14510201Y12707200D02*
D03*
Y12502200D02*
D03*
D106*
X7912100Y6258952D02*
D03*
Y6110848D02*
D03*
X15297600Y12530648D02*
D03*
Y12678752D02*
D03*
D107*
X9835514Y8396926D02*
D03*
X10005686D02*
D03*
X9833614Y8600126D02*
D03*
X10003786D02*
D03*
X9832994Y9144000D02*
D03*
X10003165D02*
D03*
X9832994Y6819900D02*
D03*
X10003165D02*
D03*
X9832994Y7035800D02*
D03*
X10003165D02*
D03*
X9832994Y8928100D02*
D03*
X10003165D02*
D03*
X9832994Y7988300D02*
D03*
X10003165D02*
D03*
X9832994Y8204200D02*
D03*
X10003165D02*
D03*
X9832994Y7620000D02*
D03*
X10003165D02*
D03*
X9832994Y7404100D02*
D03*
X10003165D02*
D03*
D108*
X10242600Y8204200D02*
D03*
X10407600D02*
D03*
D109*
X14756599Y12714100D02*
D03*
X15056599D02*
D03*
D110*
X14906599Y12484100D02*
D03*
D111*
X7912100Y6588600D02*
D03*
X7404100D02*
D03*
D112*
X7658100Y7563600D02*
D03*
D113*
X17056100Y8953500D02*
Y11442700D01*
X18125247Y12511847D02*
X18572800D01*
X17056100Y11442700D02*
X18125247Y12511847D01*
X15544800Y7442200D02*
X17056100Y8953500D01*
%TF.MD5,818477e0c4651fb76ef893e0e2cf481f*%
M02*
