%TF.GenerationSoftware,Altium Limited,Altium Designer,24.1.2 (44)*%
G04 Layer_Physical_Order=1*
G04 Layer_Color=255*
%FSLAX45Y45*%
%MOMM*%
%TF.SameCoordinates,52D7BD39-7FF0-4AB0-A2C0-E3239692A872*%
%TF.FilePolarity,Positive*%
%TF.FileFunction,Copper,L1,Top,Signal*%
%TF.Part,Single*%
G01*
G75*
%TA.AperFunction,SMDPad,CuDef*%
%ADD10R,0.96520X0.66040*%
%ADD11R,1.20000X1.20000*%
%ADD12R,1.50000X1.60000*%
G04:AMPARAMS|DCode=13|XSize=0.8mm|YSize=0.25mm|CornerRadius=0.05mm|HoleSize=0mm|Usage=FLASHONLY|Rotation=270.000|XOffset=0mm|YOffset=0mm|HoleType=Round|Shape=RoundedRectangle|*
%AMROUNDEDRECTD13*
21,1,0.80000,0.15000,0,0,270.0*
21,1,0.70000,0.25000,0,0,270.0*
1,1,0.10000,-0.07500,-0.35000*
1,1,0.10000,-0.07500,0.35000*
1,1,0.10000,0.07500,0.35000*
1,1,0.10000,0.07500,-0.35000*
%
%ADD13ROUNDEDRECTD13*%
%ADD14R,1.10000X1.35000*%
%ADD15R,0.95000X1.70000*%
%ADD16R,1.00620X0.55620*%
%ADD17R,3.25100X3.12400*%
%ADD18R,1.60000X1.00000*%
%ADD19R,0.95000X0.85000*%
%ADD20R,0.80000X0.60000*%
G04:AMPARAMS|DCode=21|XSize=1.4mm|YSize=2.4mm|CornerRadius=0.049mm|HoleSize=0mm|Usage=FLASHONLY|Rotation=270.000|XOffset=0mm|YOffset=0mm|HoleType=Round|Shape=RoundedRectangle|*
%AMROUNDEDRECTD21*
21,1,1.40000,2.30200,0,0,270.0*
21,1,1.30200,2.40000,0,0,270.0*
1,1,0.09800,-1.15100,-0.65100*
1,1,0.09800,-1.15100,0.65100*
1,1,0.09800,1.15100,0.65100*
1,1,0.09800,1.15100,-0.65100*
%
%ADD21ROUNDEDRECTD21*%
G04:AMPARAMS|DCode=22|XSize=0.4mm|YSize=0.8mm|CornerRadius=0.05mm|HoleSize=0mm|Usage=FLASHONLY|Rotation=270.000|XOffset=0mm|YOffset=0mm|HoleType=Round|Shape=RoundedRectangle|*
%AMROUNDEDRECTD22*
21,1,0.40000,0.70000,0,0,270.0*
21,1,0.30000,0.80000,0,0,270.0*
1,1,0.10000,-0.35000,-0.15000*
1,1,0.10000,-0.35000,0.15000*
1,1,0.10000,0.35000,0.15000*
1,1,0.10000,0.35000,-0.15000*
%
%ADD22ROUNDEDRECTD22*%
G04:AMPARAMS|DCode=23|XSize=0.25mm|YSize=0.8mm|CornerRadius=0.05mm|HoleSize=0mm|Usage=FLASHONLY|Rotation=270.000|XOffset=0mm|YOffset=0mm|HoleType=Round|Shape=RoundedRectangle|*
%AMROUNDEDRECTD23*
21,1,0.25000,0.70000,0,0,270.0*
21,1,0.15000,0.80000,0,0,270.0*
1,1,0.10000,-0.35000,-0.07500*
1,1,0.10000,-0.35000,0.07500*
1,1,0.10000,0.35000,0.07500*
1,1,0.10000,0.35000,-0.07500*
%
%ADD23ROUNDEDRECTD23*%
%ADD24R,2.05000X1.10000*%
%ADD25R,0.85000X0.70000*%
%ADD26C,0.45000*%
G04:AMPARAMS|DCode=27|XSize=0.25mm|YSize=0.75mm|CornerRadius=0.05mm|HoleSize=0mm|Usage=FLASHONLY|Rotation=270.000|XOffset=0mm|YOffset=0mm|HoleType=Round|Shape=RoundedRectangle|*
%AMROUNDEDRECTD27*
21,1,0.25000,0.65000,0,0,270.0*
21,1,0.15000,0.75000,0,0,270.0*
1,1,0.10000,-0.32500,-0.07500*
1,1,0.10000,-0.32500,0.07500*
1,1,0.10000,0.32500,0.07500*
1,1,0.10000,0.32500,-0.07500*
%
%ADD27ROUNDEDRECTD27*%
%ADD28R,0.55620X1.00620*%
%TA.AperFunction,Conductor*%
%ADD29C,0.25400*%
%ADD30C,0.63500*%
%ADD31C,2.03200*%
%TA.AperFunction,ComponentPad*%
%ADD32C,1.56000*%
%ADD33C,2.10000*%
%TA.AperFunction,ViaPad*%
%ADD34C,0.88900*%
%ADD35C,1.14300*%
%ADD36C,0.50000*%
G36*
X16209435Y11260996D02*
X16227927Y11253337D01*
X16244566Y11242218D01*
X16258717Y11228066D01*
X16269836Y11211426D01*
X16277496Y11192935D01*
X16281400Y11173307D01*
Y11163300D01*
Y5905500D01*
Y5895493D01*
X16277496Y5875864D01*
X16269836Y5857374D01*
X16258717Y5840734D01*
X16244566Y5826582D01*
X16227927Y5815463D01*
X16209435Y5807804D01*
X16189807Y5803900D01*
X9641993D01*
X9622364Y5807804D01*
X9603874Y5815463D01*
X9587234Y5826582D01*
X9573082Y5840734D01*
X9561963Y5857374D01*
X9554304Y5875864D01*
X9550400Y5895493D01*
Y5905500D01*
Y11163300D01*
Y11173307D01*
X9554304Y11192935D01*
X9561963Y11211426D01*
X9573082Y11228066D01*
X9587234Y11242218D01*
X9603874Y11253337D01*
X9622364Y11260996D01*
X9641993Y11264900D01*
X16189807D01*
X16209435Y11260996D01*
D02*
G37*
%LPC*%
G36*
X10574326Y11081159D02*
X9771074D01*
Y10966041D01*
X10574326D01*
Y11081159D01*
D02*
G37*
G36*
X13654626Y11085420D02*
X13624973D01*
X13596330Y11077745D01*
X13570650Y11062918D01*
X13549683Y11041950D01*
X13534856Y11016270D01*
X13527180Y10987627D01*
Y10957973D01*
X13534856Y10929330D01*
X13549683Y10903650D01*
X13570650Y10882682D01*
X13596330Y10867855D01*
X13624973Y10860180D01*
X13654626D01*
X13683270Y10867855D01*
X13708949Y10882682D01*
X13729918Y10903650D01*
X13744745Y10929330D01*
X13752420Y10957973D01*
Y10987627D01*
X13744745Y11016270D01*
X13729918Y11041950D01*
X13708949Y11062918D01*
X13683270Y11077745D01*
X13654626Y11085420D01*
D02*
G37*
G36*
X12157127D02*
X12127473D01*
X12098830Y11077745D01*
X12073150Y11062918D01*
X12052182Y11041950D01*
X12037355Y11016270D01*
X12029680Y10987627D01*
Y10957973D01*
X12037355Y10929330D01*
X12052182Y10903650D01*
X12073150Y10882682D01*
X12098830Y10867855D01*
X12127473Y10860180D01*
X12157127D01*
X12185770Y10867855D01*
X12211450Y10882682D01*
X12232419Y10903650D01*
X12247245Y10929330D01*
X12254920Y10957973D01*
Y10987627D01*
X12247245Y11016270D01*
X12232419Y11041950D01*
X12211450Y11062918D01*
X12185770Y11077745D01*
X12157127Y11085420D01*
D02*
G37*
G36*
X12646072Y10085920D02*
X12623528D01*
X12601752Y10080085D01*
X12582228Y10068813D01*
X12566287Y10052872D01*
X12555015Y10033348D01*
X12549180Y10011572D01*
Y9989028D01*
X12555015Y9967252D01*
X12566287Y9947728D01*
X12582228Y9931787D01*
X12601752Y9920515D01*
X12623528Y9914680D01*
X12646072D01*
X12667848Y9920515D01*
X12687372Y9931787D01*
X12703313Y9947728D01*
X12714585Y9967252D01*
X12720420Y9989028D01*
Y10011572D01*
X12714585Y10033348D01*
X12703313Y10052872D01*
X12687372Y10068813D01*
X12667848Y10080085D01*
X12646072Y10085920D01*
D02*
G37*
G36*
X12396072D02*
X12373528D01*
X12351752Y10080085D01*
X12332228Y10068813D01*
X12316287Y10052872D01*
X12305015Y10033348D01*
X12299180Y10011572D01*
Y9989028D01*
X12305015Y9967252D01*
X12316287Y9947728D01*
X12332228Y9931787D01*
X12351752Y9920515D01*
X12373528Y9914680D01*
X12396072D01*
X12417848Y9920515D01*
X12437372Y9931787D01*
X12453313Y9947728D01*
X12464585Y9967252D01*
X12470420Y9989028D01*
Y10011572D01*
X12464585Y10033348D01*
X12453313Y10052872D01*
X12437372Y10068813D01*
X12417848Y10080085D01*
X12396072Y10085920D01*
D02*
G37*
G36*
X12146072D02*
X12123528D01*
X12101752Y10080085D01*
X12082228Y10068813D01*
X12066287Y10052872D01*
X12055015Y10033348D01*
X12049180Y10011572D01*
Y9989028D01*
X12055015Y9967252D01*
X12066287Y9947728D01*
X12082228Y9931787D01*
X12101752Y9920515D01*
X12123528Y9914680D01*
X12146072D01*
X12167848Y9920515D01*
X12187372Y9931787D01*
X12203313Y9947728D01*
X12214585Y9967252D01*
X12220420Y9989028D01*
Y10011572D01*
X12214585Y10033348D01*
X12203313Y10052872D01*
X12187372Y10068813D01*
X12167848Y10080085D01*
X12146072Y10085920D01*
D02*
G37*
G36*
X15171100Y10110462D02*
X13634801D01*
X13606288Y10106709D01*
X13579720Y10095703D01*
X13556905Y10078197D01*
X13539397Y10055381D01*
X13528391Y10028812D01*
X13524638Y10000300D01*
X13528391Y9971788D01*
X13539397Y9945219D01*
X13556905Y9922404D01*
X13579720Y9904897D01*
X13606288Y9893891D01*
X13634801Y9890138D01*
X15125468D01*
X15256837Y9758769D01*
Y9723748D01*
X14795500D01*
X14789668Y9721332D01*
X14787251Y9715500D01*
Y8826500D01*
X14789668Y8820668D01*
X14795500Y8818252D01*
X15303500D01*
X15309332Y8820668D01*
X15436333Y8947668D01*
X15438748Y8953500D01*
Y9569385D01*
X15444896Y9574104D01*
X15462402Y9596919D01*
X15473409Y9623488D01*
X15477162Y9652000D01*
Y9804400D01*
X15473409Y9832912D01*
X15462402Y9859481D01*
X15444896Y9882297D01*
X15248996Y10078197D01*
X15226181Y10095703D01*
X15199612Y10106709D01*
X15171100Y10110462D01*
D02*
G37*
G36*
X13182600Y10117448D02*
X12839700D01*
X12833868Y10115032D01*
X12757668Y10038832D01*
X12755252Y10033000D01*
Y9820516D01*
X12516368Y9581632D01*
X12513952Y9575800D01*
Y9172816D01*
X12391784Y9050648D01*
X12017616D01*
X11946248Y9122016D01*
Y9588500D01*
X11943832Y9594332D01*
X11880332Y9657832D01*
X11874500Y9660248D01*
X10477500D01*
X10471668Y9657832D01*
X10408168Y9594332D01*
X10405752Y9588500D01*
Y8826500D01*
X10408168Y8820668D01*
X10471668Y8757168D01*
X10903468Y8325368D01*
X10909300Y8322952D01*
X12928600D01*
X12934431Y8325368D01*
X13264632Y8655568D01*
X13267049Y8661400D01*
Y9694886D01*
X13279749Y9697413D01*
X13289397Y9674119D01*
X13306905Y9651304D01*
X13384103Y9574104D01*
X13390253Y9569385D01*
Y8953500D01*
X13392668Y8947668D01*
X13519669Y8820668D01*
X13525500Y8818252D01*
X14033501D01*
X14039333Y8820668D01*
X14041748Y8826500D01*
Y9715500D01*
X14039333Y9721332D01*
X14033501Y9723748D01*
X13544615D01*
X13539896Y9729896D01*
X13494962Y9774831D01*
Y10000300D01*
X13491209Y10028812D01*
X13480203Y10055381D01*
X13462695Y10078197D01*
X13439880Y10095703D01*
X13413312Y10106709D01*
X13384801Y10110462D01*
X13356288Y10106709D01*
X13329720Y10095703D01*
X13306905Y10078197D01*
X13289397Y10055381D01*
X13279749Y10032087D01*
X13269678Y10032811D01*
X13266714Y10033807D01*
X13264632Y10038832D01*
X13188432Y10115032D01*
X13182600Y10117448D01*
D02*
G37*
G36*
X15151100Y8301348D02*
X14820900D01*
X14815068Y8298932D01*
X14484868Y7968732D01*
X14482452Y7962900D01*
Y7788516D01*
X14459468Y7765532D01*
X14457053Y7759700D01*
Y7569200D01*
X14459468Y7563368D01*
X14472168Y7550668D01*
X14478000Y7548252D01*
X14503400D01*
X14509232Y7550668D01*
X14521931Y7563368D01*
X14533556Y7564694D01*
X14536076Y7564329D01*
X14544501Y7560840D01*
X14559500D01*
X14569159Y7564841D01*
X14573160Y7574500D01*
Y7644500D01*
X14572717Y7645566D01*
Y7666418D01*
X14609528Y7703227D01*
X14623444D01*
X14623445Y7703227D01*
X14631374Y7704804D01*
X14638095Y7709295D01*
X14665106Y7736307D01*
X14665611Y7736495D01*
X14675502Y7745694D01*
X14679564Y7748960D01*
X14683189Y7751503D01*
X14685033Y7752570D01*
X14695872D01*
X14695917Y7752552D01*
X14695959Y7752570D01*
X14722929D01*
Y7868430D01*
X14652071D01*
Y7796460D01*
X14652052Y7796416D01*
X14652071Y7796372D01*
Y7785532D01*
X14651004Y7783691D01*
X14648524Y7780157D01*
X14640979Y7771272D01*
X14636102Y7766226D01*
X14635893Y7765693D01*
X14614864Y7744663D01*
X14600945D01*
X14593016Y7743086D01*
X14586295Y7738595D01*
X14586295Y7738594D01*
X14537350Y7689650D01*
X14537048Y7689198D01*
X14524348Y7693050D01*
Y7718184D01*
X14560033Y7753868D01*
X14562448Y7759700D01*
Y7870584D01*
X14646516Y7954652D01*
X15151100D01*
X15156932Y7957068D01*
X15159348Y7962900D01*
Y8293100D01*
X15156932Y8298932D01*
X15151100Y8301348D01*
D02*
G37*
G36*
X14008099D02*
X13677901D01*
X13672067Y8298932D01*
X13669652Y8293100D01*
Y7962900D01*
X13672067Y7957068D01*
X13677901Y7954652D01*
X14182484D01*
X14266553Y7870584D01*
Y7759700D01*
X14268968Y7753868D01*
X14304652Y7718184D01*
Y7693050D01*
X14291953Y7689198D01*
X14291650Y7689650D01*
X14291649Y7689651D01*
X14242705Y7738595D01*
X14235983Y7743086D01*
X14228055Y7744663D01*
X14228053Y7744663D01*
X14214137D01*
X14193198Y7765603D01*
X14193010Y7766107D01*
X14183876Y7775943D01*
X14180647Y7779980D01*
X14178140Y7783582D01*
X14176930Y7785701D01*
Y7795636D01*
X14177254Y7796416D01*
X14176993Y7797042D01*
X14177151Y7797702D01*
X14176930Y7798065D01*
Y7868430D01*
X14106070D01*
Y7752570D01*
X14131435D01*
X14131798Y7752348D01*
X14132458Y7752506D01*
X14133084Y7752247D01*
X14133864Y7752570D01*
X14143799D01*
X14145917Y7751360D01*
X14149426Y7748918D01*
X14158261Y7741442D01*
X14163277Y7736601D01*
X14163811Y7736391D01*
X14190906Y7709296D01*
X14190906Y7709295D01*
X14197627Y7704804D01*
X14205556Y7703227D01*
X14205557Y7703227D01*
X14219473D01*
X14256282Y7666419D01*
Y7645566D01*
X14255840Y7644500D01*
Y7574500D01*
X14259840Y7564841D01*
X14269501Y7560840D01*
X14284500D01*
X14292923Y7564329D01*
X14295444Y7564694D01*
X14307068Y7563368D01*
X14319768Y7550668D01*
X14325600Y7548252D01*
X14350999D01*
X14356831Y7550668D01*
X14369531Y7563368D01*
X14371948Y7569200D01*
Y7759700D01*
X14369531Y7765532D01*
X14346548Y7788516D01*
Y7962900D01*
X14344131Y7968732D01*
X14013931Y8298932D01*
X14008099Y8301348D01*
D02*
G37*
G36*
X14185500Y7691748D02*
X13093700D01*
X13087868Y7689332D01*
X13085452Y7683500D01*
Y7327900D01*
X13087868Y7322068D01*
X13093700Y7319652D01*
X13742912D01*
Y7261475D01*
X13673410Y7191973D01*
X13668919Y7185252D01*
X13667342Y7177323D01*
X13667342Y7177322D01*
Y6986691D01*
X13667114Y6986181D01*
X13666995Y6981569D01*
X13666663Y6977778D01*
X13666145Y6974638D01*
X13665491Y6972181D01*
X13664784Y6970438D01*
X13664148Y6969384D01*
X13663701Y6968894D01*
X13663446Y6968721D01*
X13663168Y6968620D01*
X13662032Y6968490D01*
X13596620D01*
Y6887210D01*
X13708380D01*
Y6946168D01*
X13708778Y6948170D01*
X13708778Y6948171D01*
Y6966753D01*
X13709007Y6985866D01*
X13708987Y6985916D01*
X13709007Y6985965D01*
X13708778Y6986520D01*
Y7168741D01*
X13778279Y7238243D01*
X13778281Y7238243D01*
X13782771Y7244965D01*
X13784348Y7252893D01*
X13784348Y7252895D01*
Y7319652D01*
X13818880D01*
X13824712Y7322068D01*
X13827129Y7327900D01*
Y7328872D01*
X13952119D01*
X13957951Y7331288D01*
X14124751Y7498086D01*
X14139731Y7495106D01*
X14139841Y7494841D01*
X14149500Y7490840D01*
X14214500D01*
X14224159Y7494841D01*
X14228160Y7504500D01*
Y7519500D01*
X14224159Y7529159D01*
X14214500Y7533160D01*
X14176418D01*
X14171558Y7544893D01*
X14187917Y7561252D01*
X14219498D01*
X14220493Y7561252D01*
X14222009Y7561879D01*
X14223650Y7561878D01*
X14223653Y7561880D01*
X14225488Y7562640D01*
X14226649Y7563801D01*
X14228165Y7564429D01*
X14229572Y7565836D01*
X14230199Y7567352D01*
X14231358Y7568512D01*
X14232120Y7570348D01*
X14232121Y7570350D01*
X14232120Y7571656D01*
X14232326Y7571892D01*
X14232289Y7572398D01*
X14232748Y7573507D01*
X14232748Y7574499D01*
X14232748Y7574500D01*
X14232748Y7644498D01*
X14232748Y7645492D01*
X14232120Y7647009D01*
Y7648651D01*
X14231358Y7650489D01*
X14230199Y7651649D01*
X14229570Y7653165D01*
X14228165Y7654571D01*
X14226648Y7655199D01*
X14225488Y7656359D01*
X14223651Y7657120D01*
X14223544D01*
X14191331Y7689332D01*
X14185500Y7691748D01*
D02*
G37*
G36*
X10769600Y8237848D02*
X10439400D01*
X10438538Y8237491D01*
X10434330D01*
Y8235748D01*
X10433568Y8235432D01*
X10420868Y8222732D01*
X10418452Y8216900D01*
Y7924800D01*
X10420868Y7918968D01*
X10433568Y7906268D01*
X10439400Y7903852D01*
X10842384D01*
X10865860Y7880376D01*
X10860600Y7867676D01*
X10804070D01*
Y7751816D01*
X10812725D01*
X10813237Y7751538D01*
X10814684Y7751385D01*
X10814955Y7751290D01*
X10815194Y7751131D01*
X10815621Y7750670D01*
X10816243Y7749654D01*
X10816938Y7747952D01*
X10817588Y7745541D01*
X10818104Y7742442D01*
X10818435Y7738697D01*
X10818555Y7734123D01*
X10818782Y7733614D01*
Y7723780D01*
X10818782Y7723779D01*
X10820359Y7715850D01*
X10824850Y7709129D01*
X10829531Y7704448D01*
X10824271Y7691748D01*
X9766300D01*
X9760468Y7689332D01*
X9735068Y7663932D01*
X9732652Y7658100D01*
Y7543800D01*
X9735068Y7537968D01*
X9766016Y7507020D01*
X9761220Y7495440D01*
X9761220D01*
Y7414160D01*
X9822756D01*
X9822831Y7414138D01*
X9825453Y7412977D01*
X9828497Y7411240D01*
X9831811Y7408973D01*
X9839756Y7402353D01*
X9844099Y7398178D01*
X9844354Y7398078D01*
X9844479Y7397835D01*
X9844901Y7397700D01*
X9903949Y7338651D01*
X9903950Y7338650D01*
X9910671Y7334159D01*
X9918600Y7332582D01*
X10773718D01*
X10856449Y7249851D01*
X10856450Y7249850D01*
X10863172Y7245359D01*
X10871100Y7243782D01*
X10871101Y7243782D01*
X10903870D01*
X10905011Y7242641D01*
X10906849Y7241880D01*
X10908489D01*
X10910005Y7241252D01*
X10935592D01*
X10935925Y7241219D01*
X10936884Y7240822D01*
X10937322Y7240384D01*
X10937720Y7239425D01*
X10937752Y7239094D01*
X10937752Y7214502D01*
X10937752Y7213507D01*
X10938380Y7211991D01*
X10938379Y7210350D01*
X10938380Y7210348D01*
X10939140Y7208512D01*
X10940301Y7207351D01*
X10940929Y7205834D01*
X10940931Y7205833D01*
X10942336Y7204428D01*
X10943851Y7203801D01*
X10945011Y7202641D01*
X10946847Y7201880D01*
X10946849Y7201879D01*
X10947569Y7201880D01*
X10948490D01*
X10950007Y7201252D01*
X10951000Y7201252D01*
X10951002Y7201251D01*
X10951003Y7201252D01*
X10981444Y7201252D01*
X10982855Y7199713D01*
X10988250Y7190097D01*
X10975825Y7177672D01*
X10843455D01*
X10843454Y7177672D01*
X10835526Y7176095D01*
X10828804Y7171604D01*
X10828804Y7171603D01*
X10700197Y7042997D01*
X10699693Y7042810D01*
X10689857Y7033676D01*
X10685820Y7030447D01*
X10682218Y7027941D01*
X10680099Y7026730D01*
X10670164D01*
X10669384Y7027053D01*
X10668758Y7026793D01*
X10668098Y7026952D01*
X10667735Y7026730D01*
X10597370D01*
Y6999760D01*
X10597352Y6999716D01*
X10597370Y6999672D01*
Y6988832D01*
X10596304Y6986991D01*
X10593825Y6983457D01*
X10586279Y6974572D01*
X10581403Y6969526D01*
X10581192Y6968992D01*
X10488250Y6876050D01*
X10483759Y6869328D01*
X10482182Y6861400D01*
X10482182Y6861399D01*
Y6788427D01*
X10481961Y6787958D01*
X10481796Y6784470D01*
X10481354Y6781391D01*
X10480612Y6778307D01*
X10479559Y6775208D01*
X10478184Y6772082D01*
X10476469Y6768917D01*
X10474405Y6765719D01*
X10471979Y6762486D01*
X10469179Y6759220D01*
X10465851Y6755772D01*
X10465278Y6754315D01*
X10458757Y6747795D01*
X10450830Y6728657D01*
Y6707943D01*
X10458757Y6688805D01*
X10465278Y6682285D01*
X10465851Y6680828D01*
X10469179Y6677380D01*
X10471977Y6674116D01*
X10474405Y6670881D01*
X10476469Y6667683D01*
X10478184Y6664518D01*
X10479559Y6661392D01*
X10480613Y6658290D01*
X10481354Y6655210D01*
X10481796Y6652129D01*
X10481962Y6648642D01*
X10482182Y6648174D01*
Y6618390D01*
X10481955Y6617880D01*
X10481835Y6613246D01*
X10481503Y6609440D01*
X10480984Y6606290D01*
X10480330Y6603831D01*
X10479625Y6602088D01*
X10478994Y6601042D01*
X10478557Y6600567D01*
X10478320Y6600407D01*
X10478063Y6600315D01*
X10476891Y6600190D01*
X10447020D01*
Y6518910D01*
X10514890D01*
X10514934Y6518892D01*
X10514978Y6518910D01*
X10525818D01*
X10527659Y6517844D01*
X10531193Y6515365D01*
X10540078Y6507819D01*
X10545124Y6502943D01*
X10545658Y6502733D01*
X10599022Y6449368D01*
Y6440171D01*
X10599022Y6440170D01*
X10599420Y6438168D01*
Y6379210D01*
X10711180D01*
Y6460490D01*
X10639953D01*
X10638881Y6465878D01*
X10634390Y6472600D01*
X10634389Y6472600D01*
X10600780Y6506210D01*
X10606041Y6518909D01*
X10609378Y6518910D01*
X10711180D01*
Y6532775D01*
X10711458Y6533287D01*
X10711610Y6534734D01*
X10711706Y6535005D01*
X10711865Y6535243D01*
X10712326Y6535671D01*
X10713342Y6536292D01*
X10715043Y6536988D01*
X10717455Y6537638D01*
X10720554Y6538154D01*
X10724298Y6538485D01*
X10728872Y6538605D01*
X10729382Y6538832D01*
X10733618D01*
X10734128Y6538605D01*
X10738702Y6538485D01*
X10742446Y6538154D01*
X10745545Y6537638D01*
X10747957Y6536988D01*
X10749658Y6536292D01*
X10750675Y6535671D01*
X10751135Y6535243D01*
X10751294Y6535005D01*
X10751390Y6534734D01*
X10751542Y6533287D01*
X10751820Y6532775D01*
Y6518910D01*
X10863580D01*
Y6533541D01*
X10863705Y6534713D01*
X10863796Y6534969D01*
X10863957Y6535208D01*
X10864432Y6535644D01*
X10865478Y6536275D01*
X10867219Y6536979D01*
X10869680Y6537634D01*
X10872831Y6538153D01*
X10876636Y6538485D01*
X10881270Y6538605D01*
X10881780Y6538832D01*
X10983702D01*
X10983709Y6538793D01*
X10983872Y6538679D01*
X10984540Y6538010D01*
X10984755Y6537471D01*
X10991158Y6530896D01*
X11001369Y6519317D01*
X11005024Y6514531D01*
X11007820Y6510325D01*
X11009681Y6506892D01*
Y6371930D01*
X11174920D01*
Y6547170D01*
X11048795D01*
X11048762Y6547185D01*
X11048722Y6547170D01*
X11037204D01*
X11036416Y6547629D01*
X11032806Y6550180D01*
X11023619Y6558026D01*
X11018341Y6563133D01*
X11017806Y6563344D01*
X11006950Y6574200D01*
X11000229Y6578691D01*
X10992300Y6580268D01*
X10992299Y6580268D01*
X10881780D01*
X10881270Y6580495D01*
X10876636Y6580615D01*
X10872830Y6580947D01*
X10869680Y6581466D01*
X10867221Y6582120D01*
X10865478Y6582825D01*
X10864432Y6583456D01*
X10863957Y6583893D01*
X10863797Y6584130D01*
X10863705Y6584387D01*
X10863580Y6585559D01*
Y6600190D01*
X10833709D01*
X10832537Y6600315D01*
X10832281Y6600406D01*
X10832042Y6600567D01*
X10831606Y6601042D01*
X10830975Y6602088D01*
X10830271Y6603829D01*
X10829616Y6606290D01*
X10829097Y6609441D01*
X10828765Y6613246D01*
X10828645Y6617880D01*
X10828418Y6618390D01*
Y6713219D01*
X10828418Y6713220D01*
X10826841Y6721148D01*
X10822350Y6727870D01*
X10764610Y6785610D01*
X10769871Y6798310D01*
X10863580D01*
Y6857268D01*
X10863978Y6859270D01*
X10863978Y6859271D01*
Y6865928D01*
X10919793Y6921743D01*
X10920298Y6921931D01*
X10929983Y6930925D01*
X10933980Y6934128D01*
X10937568Y6936635D01*
X10939948Y6938010D01*
X11015980D01*
Y7009938D01*
X11016249Y7010423D01*
X11016225Y7011227D01*
X11016303Y7011419D01*
X11015980Y7019290D01*
X11010990Y7031990D01*
X11140649Y7161650D01*
X11140650Y7161650D01*
X11145141Y7168372D01*
X11146718Y7176300D01*
X11146718Y7176301D01*
Y7213434D01*
X11147160Y7214500D01*
Y7284500D01*
X11143159Y7294159D01*
X11133500Y7298160D01*
X11118500D01*
X11108841Y7294159D01*
X11107873Y7291822D01*
X11094127D01*
X11093159Y7294159D01*
X11083500Y7298160D01*
X11068500D01*
X11058841Y7294159D01*
X11057873Y7291822D01*
X11044127D01*
X11043159Y7294159D01*
X11033500Y7298160D01*
X11018500D01*
X11008841Y7294159D01*
X11006321Y7288074D01*
X10996699Y7288510D01*
X10993217Y7289625D01*
X10992860Y7290488D01*
X10991699Y7291648D01*
X10991071Y7293164D01*
X10989665Y7294571D01*
X10988322Y7295127D01*
X10988141Y7295585D01*
X10987941Y7305602D01*
X10988263Y7308731D01*
X10988322Y7308873D01*
X10990659Y7309841D01*
X10994660Y7319500D01*
Y7334500D01*
X10990659Y7344159D01*
X10981000Y7348160D01*
X10911000D01*
X10901341Y7344159D01*
X10897340Y7334500D01*
Y7319500D01*
X10901341Y7309841D01*
X10903678Y7308873D01*
X10903741Y7308718D01*
X10904059Y7305624D01*
X10903859Y7295582D01*
X10903678Y7295127D01*
X10902336Y7294571D01*
X10900929Y7293164D01*
X10900301Y7291648D01*
X10899141Y7290488D01*
X10898380Y7288650D01*
X10886422Y7285218D01*
X10879682D01*
X10796950Y7367950D01*
X10790229Y7372441D01*
X10782300Y7374018D01*
X10775301Y7383454D01*
X10774882Y7386718D01*
X10886251Y7498086D01*
X10901231Y7495106D01*
X10901341Y7494841D01*
X10911000Y7490840D01*
X10976000D01*
X10985659Y7494841D01*
X10989660Y7504500D01*
Y7519500D01*
X10985659Y7529159D01*
X10976000Y7533160D01*
X10937918D01*
X10933057Y7544893D01*
X10949417Y7561252D01*
X10980998D01*
X10981993Y7561252D01*
X10983509Y7561879D01*
X10985150Y7561878D01*
X10985152Y7561880D01*
X10986988Y7562640D01*
X10988149Y7563801D01*
X10989665Y7564429D01*
X10991071Y7565836D01*
X10991699Y7567352D01*
X10992859Y7568512D01*
X10993620Y7570348D01*
X10993621Y7570350D01*
X10993620Y7571656D01*
X10993825Y7571892D01*
X10993789Y7572398D01*
X10994248Y7573507D01*
X10994248Y7574499D01*
X10994248Y7574500D01*
X10994248Y7644516D01*
X10996706Y7646599D01*
X11005835Y7650706D01*
X11011110Y7645034D01*
X11014376Y7640972D01*
X11016917Y7637349D01*
X11017340Y7636618D01*
Y7574500D01*
X11021341Y7564841D01*
X11031000Y7560840D01*
X11046000D01*
X11055659Y7564841D01*
X11057868Y7570174D01*
X11059230Y7570924D01*
X11070539Y7573080D01*
X11071708Y7572927D01*
X11081268Y7563368D01*
X11087100Y7560952D01*
X11093230D01*
X11093500Y7560840D01*
X11108500D01*
X11108770Y7560952D01*
X11112500D01*
X11118332Y7563368D01*
X11131032Y7576068D01*
X11133448Y7581900D01*
Y7607300D01*
Y7785100D01*
X11131032Y7790932D01*
X11042132Y7879832D01*
X10866748Y8055216D01*
Y8140700D01*
X10864332Y8146532D01*
X10775432Y8235432D01*
X10774670Y8235748D01*
Y8237491D01*
X10770462D01*
X10769600Y8237848D01*
D02*
G37*
G36*
X11912600D02*
X11582400D01*
X11581538Y8237491D01*
X11577330D01*
Y8235748D01*
X11576568Y8235432D01*
X11487668Y8146532D01*
X11485252Y8140700D01*
Y8055216D01*
X11309868Y7879832D01*
X11220968Y7790932D01*
X11218552Y7785100D01*
Y7607300D01*
Y7581900D01*
X11220968Y7576068D01*
X11233668Y7563368D01*
X11239500Y7560952D01*
X11243230D01*
X11243500Y7560840D01*
X11258500D01*
X11258770Y7560952D01*
X11264900D01*
X11270732Y7563368D01*
X11280292Y7572927D01*
X11281461Y7573080D01*
X11292770Y7570924D01*
X11294132Y7570174D01*
X11296341Y7564841D01*
X11306000Y7560840D01*
X11321000D01*
X11330659Y7564841D01*
X11334660Y7574500D01*
Y7636618D01*
X11335083Y7637349D01*
X11337562Y7640883D01*
X11343354Y7647703D01*
X11356192Y7645918D01*
X11357752Y7644576D01*
X11357752Y7574500D01*
X11357752Y7574499D01*
X11357752Y7573507D01*
X11358380Y7571991D01*
X11358379Y7570350D01*
X11358380Y7570348D01*
X11359140Y7568512D01*
X11360300Y7567352D01*
X11360928Y7565836D01*
X11362335Y7564429D01*
X11363851Y7563801D01*
X11365012Y7562640D01*
X11366848Y7561880D01*
X11366850Y7561878D01*
X11367568Y7561879D01*
X11368491Y7561879D01*
X11370007Y7561252D01*
X11371002Y7561252D01*
X11402583D01*
X11418943Y7544893D01*
X11414082Y7533160D01*
X11376000D01*
X11366341Y7529159D01*
X11362340Y7519500D01*
Y7504500D01*
X11366341Y7494841D01*
X11376000Y7490840D01*
X11441000D01*
X11450659Y7494841D01*
X11450769Y7495106D01*
X11465749Y7498086D01*
X11603668Y7360168D01*
X11609500Y7357752D01*
X12357100D01*
X12362932Y7360168D01*
X12451832Y7449068D01*
X12454248Y7454900D01*
X12454248Y7658100D01*
X12451832Y7663932D01*
X12426432Y7689332D01*
X12420600Y7691748D01*
X11539296D01*
X11536511Y7694314D01*
X11532460Y7701664D01*
X11531899Y7704448D01*
X11533218Y7711079D01*
Y7733615D01*
X11533445Y7734126D01*
X11533565Y7738759D01*
X11533897Y7742565D01*
X11534416Y7745715D01*
X11535070Y7748175D01*
X11535775Y7749917D01*
X11536406Y7750963D01*
X11536843Y7751438D01*
X11537080Y7751599D01*
X11537337Y7751691D01*
X11538509Y7751815D01*
X11547930D01*
Y7867675D01*
X11491400D01*
X11486140Y7880375D01*
X11509616Y7903852D01*
X11912600D01*
X11918432Y7906268D01*
X11931132Y7918968D01*
X11933548Y7924800D01*
Y8216900D01*
X11931132Y8222732D01*
X11918432Y8235432D01*
X11917670Y8235748D01*
Y8237491D01*
X11913462D01*
X11912600Y8237848D01*
D02*
G37*
G36*
X14679500Y7398160D02*
X14609500D01*
X14599841Y7394159D01*
X14595840Y7384500D01*
Y7369500D01*
X14599841Y7359841D01*
X14602177Y7358873D01*
Y7345127D01*
X14599841Y7344159D01*
X14595840Y7334500D01*
Y7319500D01*
X14599841Y7309841D01*
X14602179Y7308873D01*
X14602237Y7308732D01*
X14602559Y7305603D01*
X14602359Y7295585D01*
X14602177Y7295127D01*
X14600835Y7294571D01*
X14599429Y7293164D01*
X14598801Y7291648D01*
X14597639Y7290488D01*
X14597282Y7289626D01*
X14593800Y7288510D01*
X14584180Y7288074D01*
X14581659Y7294159D01*
X14572000Y7298160D01*
X14557001D01*
X14547340Y7294159D01*
X14546373Y7291822D01*
X14532626D01*
X14531659Y7294159D01*
X14522000Y7298160D01*
X14507001D01*
X14497340Y7294159D01*
X14496373Y7291822D01*
X14482626D01*
X14481659Y7294159D01*
X14472000Y7298160D01*
X14457001D01*
X14447340Y7294159D01*
X14443340Y7284500D01*
Y7214500D01*
X14443782Y7213434D01*
Y6990001D01*
X14443782Y6990000D01*
X14445358Y6982071D01*
X14449850Y6975350D01*
X14477612Y6947587D01*
X14477800Y6947083D01*
X14486934Y6937247D01*
X14490163Y6933210D01*
X14492670Y6929608D01*
X14493880Y6927489D01*
Y6917554D01*
X14493558Y6916774D01*
X14493817Y6916148D01*
X14493658Y6915488D01*
X14493880Y6915125D01*
Y6885380D01*
X14589120D01*
Y6928224D01*
X14600853Y6933084D01*
X14609682Y6924255D01*
Y6542191D01*
X14609454Y6541680D01*
X14609335Y6537064D01*
X14609003Y6533269D01*
X14608484Y6530125D01*
X14607829Y6527672D01*
X14607124Y6525928D01*
X14606490Y6524875D01*
X14606046Y6524389D01*
X14605792Y6524217D01*
X14605521Y6524119D01*
X14604376Y6523990D01*
X14549120D01*
Y6442710D01*
X14660880D01*
Y6457341D01*
X14661005Y6458513D01*
X14661096Y6458769D01*
X14661256Y6459008D01*
X14661732Y6459444D01*
X14662778Y6460075D01*
X14664519Y6460779D01*
X14666980Y6461434D01*
X14670131Y6461953D01*
X14672527Y6462162D01*
X14675612Y6461617D01*
X14678171Y6460764D01*
X14680147Y6459700D01*
X14681689Y6458439D01*
X14682950Y6456898D01*
X14684013Y6454921D01*
X14684866Y6452361D01*
X14685435Y6449139D01*
X14685664Y6444816D01*
X14685883Y6444359D01*
Y6201822D01*
X14685655Y6201312D01*
X14685535Y6196738D01*
X14685204Y6192993D01*
X14684688Y6189895D01*
X14684038Y6187483D01*
X14683342Y6185782D01*
X14682721Y6184765D01*
X14682294Y6184305D01*
X14682056Y6184146D01*
X14681784Y6184050D01*
X14680338Y6183898D01*
X14679825Y6183620D01*
X14567880D01*
Y6008380D01*
X14733121D01*
Y6170920D01*
X14733121Y6173703D01*
X14733240Y6173871D01*
X14733224Y6175165D01*
X14733444Y6175695D01*
X14733121Y6183620D01*
X14728900D01*
X14728809Y6183942D01*
X14728432Y6185930D01*
X14727603Y6196635D01*
X14727547Y6201196D01*
X14727318Y6201731D01*
Y6444359D01*
X14727536Y6444817D01*
X14727763Y6449139D01*
X14728333Y6452362D01*
X14728394Y6452544D01*
X14731242Y6454835D01*
X14734949Y6456550D01*
X14736546Y6456882D01*
X14747881Y6447748D01*
Y6440880D01*
X14843120D01*
Y6457325D01*
X14843250Y6458472D01*
X14843347Y6458743D01*
X14843518Y6458996D01*
X14844003Y6459440D01*
X14845056Y6460075D01*
X14846800Y6460780D01*
X14849252Y6461434D01*
X14852399Y6461953D01*
X14856194Y6462285D01*
X14860809Y6462405D01*
X14861320Y6462632D01*
X14911920D01*
X14912430Y6462405D01*
X14917064Y6462285D01*
X14920869Y6461953D01*
X14924020Y6461434D01*
X14926479Y6460780D01*
X14928223Y6460075D01*
X14929268Y6459444D01*
X14929742Y6459007D01*
X14929903Y6458770D01*
X14929996Y6458513D01*
X14930119Y6457341D01*
Y6442710D01*
X15041879D01*
Y6523990D01*
X14930119D01*
Y6509359D01*
X14929996Y6508187D01*
X14929904Y6507931D01*
X14929742Y6507692D01*
X14929268Y6507256D01*
X14928223Y6506625D01*
X14926482Y6505921D01*
X14924020Y6505266D01*
X14920869Y6504747D01*
X14917064Y6504415D01*
X14912430Y6504295D01*
X14911920Y6504068D01*
X14861314D01*
X14860803Y6504295D01*
X14856219Y6504411D01*
X14852451Y6504729D01*
X14849319Y6505228D01*
X14846881Y6505855D01*
X14845149Y6506533D01*
X14844125Y6507132D01*
X14843689Y6507519D01*
X14843582Y6507672D01*
X14843536Y6507795D01*
X14843394Y6509098D01*
X14843393Y6509099D01*
X14843120Y6509596D01*
Y6516120D01*
X14835245Y6516444D01*
X14835065Y6516370D01*
X14834293Y6516394D01*
X14833794Y6516120D01*
X14760580D01*
X14757205Y6516120D01*
X14756706Y6516394D01*
X14755934Y6516370D01*
X14755756Y6516443D01*
X14747881Y6516120D01*
Y6509596D01*
X14747607Y6509099D01*
X14747606Y6509098D01*
X14747462Y6507795D01*
X14747418Y6507672D01*
X14747311Y6507519D01*
X14746873Y6507131D01*
X14745851Y6506533D01*
X14744119Y6505855D01*
X14741679Y6505227D01*
X14738551Y6504729D01*
X14734781Y6504411D01*
X14730197Y6504295D01*
X14729684Y6504068D01*
X14708322D01*
X14708218Y6504138D01*
X14707866Y6504068D01*
X14705334D01*
X14704984Y6504138D01*
X14704880Y6504068D01*
X14679080D01*
X14678571Y6504295D01*
X14673936Y6504415D01*
X14670129Y6504747D01*
X14667886Y6505117D01*
X14664529Y6510003D01*
X14663464Y6511869D01*
X14661203Y6516117D01*
X14660880Y6523990D01*
X14654491Y6523990D01*
X14654065Y6524238D01*
X14654063Y6524238D01*
X14653830Y6524270D01*
X14653778Y6524342D01*
X14653256Y6525444D01*
X14652666Y6527305D01*
X14652153Y6529758D01*
X14651437Y6537122D01*
X14651346Y6541634D01*
X14651118Y6542154D01*
Y6932837D01*
X14649541Y6940765D01*
X14645050Y6947487D01*
X14645049Y6947487D01*
X14535217Y7057319D01*
Y7200922D01*
X14547340Y7204841D01*
X14548650Y7204299D01*
X14548811Y7204057D01*
X14549451Y7203929D01*
X14549890Y7203446D01*
X14551144Y7202854D01*
X14554317Y7200911D01*
X14555904Y7199767D01*
X14568709Y7188522D01*
X14571693Y7185583D01*
X14571754Y7185558D01*
X14571780Y7185497D01*
X14572307Y7185293D01*
X14711282Y7046318D01*
Y6994130D01*
X14711055Y6993619D01*
X14710934Y6988986D01*
X14710603Y6985180D01*
X14710085Y6982030D01*
X14709430Y6979570D01*
X14708725Y6977828D01*
X14708093Y6976782D01*
X14707657Y6976307D01*
X14707420Y6976147D01*
X14707162Y6976055D01*
X14705991Y6975930D01*
X14674071D01*
Y6905070D01*
X14745108D01*
X14747110Y6904672D01*
X14767526D01*
X14770712Y6902424D01*
X14780125Y6894378D01*
X14785568Y6889108D01*
X14785574Y6889106D01*
X14785577Y6889099D01*
X14786110Y6888890D01*
X14812881Y6862118D01*
Y6667502D01*
X14812881Y6667500D01*
X14814459Y6659572D01*
X14818950Y6652850D01*
X14861784Y6610016D01*
X14861784Y6610015D01*
X14868507Y6605524D01*
X14876434Y6603947D01*
X14876436Y6603947D01*
X14949818D01*
X14950287Y6603726D01*
X14953775Y6603561D01*
X14956854Y6603119D01*
X14959938Y6602377D01*
X14963036Y6601324D01*
X14966162Y6599949D01*
X14969327Y6598234D01*
X14972527Y6596170D01*
X14975758Y6593744D01*
X14979025Y6590945D01*
X14982474Y6587616D01*
X14983929Y6587043D01*
X14990450Y6580523D01*
X15009587Y6572595D01*
X15018810D01*
X15020244Y6571971D01*
X15025038Y6571887D01*
X15029321Y6571557D01*
X15033327Y6570986D01*
X15037048Y6570183D01*
X15040497Y6569158D01*
X15043681Y6567920D01*
X15046616Y6566474D01*
X15049321Y6564819D01*
X15051811Y6562953D01*
X15054395Y6560604D01*
X15054881Y6560429D01*
X15104353Y6510958D01*
X15104539Y6510453D01*
X15113673Y6500617D01*
X15116904Y6496580D01*
X15117284Y6496033D01*
X15114838Y6485623D01*
X15112691Y6482171D01*
X15105969Y6477680D01*
X15105969Y6477679D01*
X15028847Y6400557D01*
X15028343Y6400370D01*
X15018507Y6391236D01*
X15014470Y6388007D01*
X15010867Y6385501D01*
X15008749Y6384290D01*
X14998814D01*
X14998035Y6384613D01*
X14997408Y6384353D01*
X14996748Y6384512D01*
X14996385Y6384290D01*
X14930119D01*
Y6303010D01*
X15041879D01*
Y6338795D01*
X15042102Y6339158D01*
X15041943Y6339818D01*
X15042203Y6340444D01*
X15041879Y6341224D01*
Y6351159D01*
X15043089Y6353277D01*
X15045532Y6356786D01*
X15053008Y6365622D01*
X15057849Y6370636D01*
X15058060Y6371169D01*
X15129202Y6442312D01*
X15156178D01*
X15156180Y6442312D01*
X15158182Y6442710D01*
X15232381D01*
Y6523990D01*
X15166115D01*
X15165752Y6524212D01*
X15165092Y6524053D01*
X15164465Y6524313D01*
X15163686Y6523990D01*
X15153751D01*
X15151633Y6525200D01*
X15148125Y6527642D01*
X15139288Y6535118D01*
X15134274Y6539959D01*
X15133740Y6540169D01*
X15084181Y6589729D01*
X15084006Y6590215D01*
X15081657Y6592798D01*
X15079790Y6595291D01*
X15078136Y6597994D01*
X15076691Y6600928D01*
X15075452Y6604113D01*
X15074426Y6607562D01*
X15073624Y6611284D01*
X15073053Y6615289D01*
X15072723Y6619572D01*
X15072639Y6624366D01*
X15072015Y6625801D01*
Y6635023D01*
X15064087Y6654160D01*
X15049440Y6668808D01*
X15030302Y6676735D01*
X15009587D01*
X14990450Y6668808D01*
X14983929Y6662288D01*
X14982474Y6661714D01*
X14979025Y6658386D01*
X14975761Y6655588D01*
X14972527Y6653161D01*
X14969327Y6651097D01*
X14966162Y6649381D01*
X14963037Y6648006D01*
X14959935Y6646953D01*
X14956854Y6646211D01*
X14953773Y6645769D01*
X14950287Y6645604D01*
X14949818Y6645383D01*
X14885017D01*
X14854318Y6676082D01*
Y6870699D01*
X14854318Y6870700D01*
X14852740Y6878629D01*
X14848250Y6885350D01*
X14815073Y6918526D01*
X14814859Y6919064D01*
X14808688Y6925410D01*
X14798808Y6936681D01*
X14795255Y6941381D01*
X14792506Y6945563D01*
X14790625Y6949065D01*
X14789931Y6950852D01*
Y6959858D01*
X14789990Y6960283D01*
X14789931Y6960362D01*
X14789931Y6964992D01*
X14790422Y6975607D01*
X14791292Y6976379D01*
X14800842Y6978404D01*
X14804105Y6978957D01*
X14807326Y6977624D01*
X14823244Y6971030D01*
X14843958D01*
X14863095Y6978957D01*
X14877744Y6993605D01*
X14885670Y7012743D01*
Y7033457D01*
X14882056Y7042185D01*
X14892821Y7049379D01*
X14901782Y7040418D01*
Y6981322D01*
X14901555Y6980812D01*
X14901434Y6976238D01*
X14901105Y6972493D01*
X14900587Y6969395D01*
X14899937Y6966983D01*
X14899242Y6965282D01*
X14898621Y6964265D01*
X14898193Y6963805D01*
X14897955Y6963646D01*
X14897684Y6963550D01*
X14896237Y6963398D01*
X14895724Y6963120D01*
X14872380D01*
Y6877880D01*
X14972620D01*
Y6963120D01*
X14949275D01*
X14948763Y6963398D01*
X14947316Y6963550D01*
X14947044Y6963646D01*
X14946806Y6963805D01*
X14946379Y6964265D01*
X14945758Y6965282D01*
X14945062Y6966983D01*
X14944412Y6969395D01*
X14943896Y6972493D01*
X14943565Y6976238D01*
X14943445Y6980812D01*
X14943217Y6981322D01*
Y7049000D01*
X14941641Y7056928D01*
X14937151Y7063650D01*
X14937149Y7063651D01*
X14803519Y7197282D01*
Y7264399D01*
X14803519Y7264400D01*
X14801941Y7272329D01*
X14797450Y7279050D01*
X14734850Y7341650D01*
X14728130Y7346141D01*
X14720200Y7347718D01*
X14720200Y7347718D01*
X14693077D01*
X14689159Y7359842D01*
X14693159Y7369500D01*
Y7384500D01*
X14689159Y7394159D01*
X14679500Y7398160D01*
D02*
G37*
G36*
X11441000D02*
X11371000D01*
X11361341Y7394159D01*
X11357340Y7384500D01*
Y7369500D01*
X11361341Y7359841D01*
X11363678Y7358873D01*
Y7345127D01*
X11361341Y7344159D01*
X11357340Y7334500D01*
Y7319500D01*
X11361341Y7309841D01*
X11363679Y7308873D01*
X11363737Y7308732D01*
X11364059Y7305603D01*
X11363859Y7295585D01*
X11363677Y7295127D01*
X11362335Y7294571D01*
X11360929Y7293164D01*
X11360300Y7291648D01*
X11359140Y7290488D01*
X11358783Y7289626D01*
X11355300Y7288510D01*
X11345679Y7288074D01*
X11343159Y7294159D01*
X11333500Y7298160D01*
X11318500D01*
X11308841Y7294159D01*
X11307873Y7291822D01*
X11294127D01*
X11293159Y7294159D01*
X11283500Y7298160D01*
X11268500D01*
X11258841Y7294159D01*
X11257873Y7291822D01*
X11244127D01*
X11243159Y7294159D01*
X11233500Y7298160D01*
X11218500D01*
X11208841Y7294159D01*
X11204840Y7284500D01*
Y7214500D01*
X11205282Y7213434D01*
Y7085881D01*
X11147088Y7027687D01*
X11146583Y7027500D01*
X11136747Y7018366D01*
X11132710Y7015137D01*
X11129108Y7012631D01*
X11126989Y7011420D01*
X11117054D01*
X11116274Y7011743D01*
X11115648Y7011483D01*
X11114988Y7011642D01*
X11114625Y7011420D01*
X11064880D01*
Y6936180D01*
X11160120D01*
Y6965925D01*
X11160342Y6966288D01*
X11160183Y6966947D01*
X11160443Y6967574D01*
X11160120Y6968354D01*
Y6978289D01*
X11161330Y6980407D01*
X11163772Y6983916D01*
X11171248Y6992751D01*
X11176089Y6997766D01*
X11176299Y6998299D01*
X11194270Y7016270D01*
X11206970Y7011009D01*
Y6955870D01*
X11322830D01*
Y7007377D01*
X11334563Y7012237D01*
X11350917Y6995884D01*
X11351105Y6995378D01*
X11360304Y6985488D01*
X11363570Y6981426D01*
X11366113Y6977800D01*
X11367180Y6975958D01*
Y6965118D01*
X11367162Y6965074D01*
X11367180Y6965031D01*
Y6923680D01*
X11449919D01*
X11450590Y6922061D01*
X11453878Y6909995D01*
X11443988Y6900796D01*
X11439926Y6897530D01*
X11436300Y6894986D01*
X11434458Y6893920D01*
X11423618D01*
X11423574Y6893938D01*
X11423531Y6893920D01*
X11367180D01*
Y6808680D01*
X11467420D01*
Y6850030D01*
X11467438Y6850074D01*
X11467420Y6850118D01*
Y6860958D01*
X11468486Y6862799D01*
X11470965Y6866333D01*
X11478511Y6875218D01*
X11483387Y6880264D01*
X11483598Y6880798D01*
X11528581Y6925782D01*
X11540224D01*
X11540225Y6925782D01*
X11542227Y6926180D01*
X11625145D01*
Y7008571D01*
X11637845Y7013832D01*
X11648482Y7003195D01*
X11648490Y7003149D01*
X11648621Y7003057D01*
X11649340Y7002338D01*
X11649555Y7001799D01*
X11655961Y6995220D01*
X11666179Y6983633D01*
X11669834Y6978848D01*
X11672628Y6974644D01*
X11674480Y6971228D01*
Y6936180D01*
X11769720D01*
Y7011420D01*
X11713687D01*
X11713656Y7011434D01*
X11713618Y7011420D01*
X11706802D01*
X11704800Y7011818D01*
X11704799Y7011818D01*
X11701405D01*
X11701283Y7011888D01*
X11697676Y7014438D01*
X11688490Y7022282D01*
X11683218Y7027383D01*
X11682683Y7027594D01*
X11590418Y7119859D01*
Y7226300D01*
X11588841Y7234228D01*
X11584350Y7240950D01*
X11584349Y7240950D01*
X11482750Y7342550D01*
X11476029Y7347041D01*
X11468100Y7348618D01*
X11468099Y7348618D01*
X11456029D01*
X11456028Y7348620D01*
X11451271Y7361318D01*
X11454660Y7369500D01*
Y7384500D01*
X11450659Y7394159D01*
X11441000Y7398160D01*
D02*
G37*
G36*
X15659100Y7691748D02*
X14643500D01*
X14637668Y7689332D01*
X14605457Y7657120D01*
X14605350D01*
X14603511Y7656359D01*
X14602351Y7655199D01*
X14600836Y7654571D01*
X14599429Y7653165D01*
X14598801Y7651649D01*
X14597641Y7650489D01*
X14596880Y7648651D01*
Y7647009D01*
X14596252Y7645492D01*
X14596252Y7644498D01*
X14596252Y7574500D01*
X14596252Y7574499D01*
X14596252Y7573507D01*
X14596880Y7571991D01*
X14596880Y7570350D01*
X14596880Y7570348D01*
X14597639Y7568512D01*
X14598801Y7567352D01*
X14599428Y7565836D01*
X14600835Y7564429D01*
X14602351Y7563801D01*
X14603513Y7562640D01*
X14605348Y7561880D01*
X14605350Y7561878D01*
X14606068Y7561879D01*
X14606992Y7561879D01*
X14608507Y7561252D01*
X14609502Y7561252D01*
X14641083D01*
X14657443Y7544893D01*
X14652582Y7533160D01*
X14614500D01*
X14604842Y7529159D01*
X14600841Y7519500D01*
Y7504500D01*
X14604842Y7494841D01*
X14614500Y7490840D01*
X14679500D01*
X14689159Y7494841D01*
X14689268Y7495106D01*
X14704250Y7498086D01*
X14867567Y7334768D01*
X14873399Y7332352D01*
X15092282D01*
Y6986690D01*
X15092055Y6986180D01*
X15091936Y6981546D01*
X15091603Y6977740D01*
X15091084Y6974590D01*
X15090430Y6972131D01*
X15089725Y6970388D01*
X15089095Y6969342D01*
X15088657Y6968867D01*
X15088420Y6968707D01*
X15088164Y6968615D01*
X15086990Y6968490D01*
X15063078D01*
X15058900Y6973896D01*
X15056891Y6981095D01*
X15057822Y6982180D01*
X15061150Y6985628D01*
X15061722Y6987085D01*
X15068243Y6993605D01*
X15076170Y7012743D01*
Y7033457D01*
X15068243Y7052595D01*
X15053595Y7067243D01*
X15034457Y7075170D01*
X15013744D01*
X14994604Y7067243D01*
X14979958Y7052595D01*
X14972031Y7033457D01*
Y7012743D01*
X14979958Y6993605D01*
X14986478Y6987085D01*
X14987051Y6985628D01*
X14990379Y6982180D01*
X14993176Y6978916D01*
X14995605Y6975681D01*
X14997668Y6972483D01*
X14999384Y6969318D01*
X15000758Y6966192D01*
X15001813Y6963090D01*
X15002554Y6960010D01*
X15002995Y6956929D01*
X15003162Y6953442D01*
X15003381Y6952974D01*
Y6861811D01*
X15003381Y6861810D01*
X15004959Y6853881D01*
X15009450Y6847160D01*
X15040857Y6815753D01*
X15041045Y6815248D01*
X15050244Y6805358D01*
X15053510Y6801296D01*
X15056053Y6797670D01*
X15057120Y6795828D01*
Y6784988D01*
X15057101Y6784944D01*
X15057120Y6784901D01*
Y6747510D01*
X15168880D01*
Y6828790D01*
X15101010D01*
X15100966Y6828808D01*
X15100922Y6828790D01*
X15090082D01*
X15088242Y6829856D01*
X15084708Y6832335D01*
X15075822Y6839881D01*
X15070776Y6844757D01*
X15070242Y6844967D01*
X15044818Y6870392D01*
Y6886249D01*
X15057120Y6887210D01*
X15057518Y6887210D01*
X15168880D01*
Y6968490D01*
X15139009D01*
X15137837Y6968615D01*
X15137581Y6968706D01*
X15137341Y6968867D01*
X15136906Y6969342D01*
X15136275Y6970388D01*
X15135571Y6972129D01*
X15134917Y6974590D01*
X15134396Y6977741D01*
X15134065Y6981546D01*
X15133945Y6986180D01*
X15133717Y6986690D01*
Y7332352D01*
X15684500D01*
X15690332Y7334768D01*
X15692747Y7340600D01*
Y7658100D01*
X15690332Y7663932D01*
X15664932Y7689332D01*
X15659100Y7691748D01*
D02*
G37*
G36*
X14219501Y7348160D02*
X14149500D01*
X14139841Y7344159D01*
X14135840Y7334500D01*
Y7319500D01*
X14139841Y7309841D01*
X14142178Y7308873D01*
X14142241Y7308718D01*
X14142558Y7305624D01*
X14142358Y7295582D01*
X14142178Y7295127D01*
X14140836Y7294571D01*
X14139429Y7293164D01*
X14138802Y7291648D01*
X14137640Y7290488D01*
X14136880Y7288650D01*
X14136880Y7287010D01*
X14136252Y7285494D01*
Y7280655D01*
X14132411Y7279891D01*
X14125690Y7275400D01*
X14125690Y7275399D01*
X13695348Y6845057D01*
X13694843Y6844870D01*
X13685007Y6835736D01*
X13680969Y6832507D01*
X13677368Y6830001D01*
X13675249Y6828790D01*
X13665314D01*
X13664534Y6829113D01*
X13663908Y6828853D01*
X13663248Y6829012D01*
X13662885Y6828790D01*
X13596620D01*
Y6747510D01*
X13708380D01*
Y6783295D01*
X13708601Y6783658D01*
X13708443Y6784318D01*
X13708704Y6784944D01*
X13708380Y6785724D01*
Y6795659D01*
X13709590Y6797777D01*
X13712032Y6801286D01*
X13719508Y6810122D01*
X13724348Y6815136D01*
X13724559Y6815669D01*
X14148921Y7240032D01*
X14158049D01*
X14158566Y7239804D01*
X14174782Y7239444D01*
X14176228Y7239327D01*
X14176253Y7239094D01*
X14176253Y7214502D01*
X14176253Y7213507D01*
X14176880Y7211991D01*
X14176878Y7210350D01*
X14176880Y7210348D01*
X14177640Y7208512D01*
X14178801Y7207351D01*
X14179430Y7205834D01*
X14179430Y7205834D01*
X14180836Y7204428D01*
X14182352Y7203801D01*
X14183511Y7202641D01*
X14185347Y7201880D01*
X14185349Y7201879D01*
X14186069Y7201880D01*
X14186990D01*
X14188507Y7201252D01*
X14189500Y7201252D01*
X14189502Y7201252D01*
X14194016Y7198779D01*
X14196922Y7184122D01*
X14119960Y7107160D01*
X14115469Y7100438D01*
X14113892Y7092510D01*
X14113892Y7092509D01*
Y6994131D01*
X14113664Y6993621D01*
X14113545Y6989009D01*
X14113213Y6985217D01*
X14112695Y6982078D01*
X14112041Y6979621D01*
X14111336Y6977878D01*
X14110698Y6976823D01*
X14110251Y6976334D01*
X14109996Y6976161D01*
X14109718Y6976060D01*
X14108582Y6975930D01*
X14039070D01*
Y6948960D01*
X14039052Y6948916D01*
X14039070Y6948872D01*
Y6938032D01*
X14038004Y6936191D01*
X14035526Y6932657D01*
X14027979Y6923772D01*
X14023103Y6918726D01*
X14022893Y6918192D01*
X13908981Y6804282D01*
X13908495Y6804107D01*
X13905913Y6801758D01*
X13903419Y6799891D01*
X13900717Y6798237D01*
X13897783Y6796791D01*
X13894598Y6795553D01*
X13891148Y6794527D01*
X13887427Y6793725D01*
X13883421Y6793154D01*
X13879138Y6792824D01*
X13874345Y6792740D01*
X13872910Y6792115D01*
X13863689D01*
X13844550Y6784188D01*
X13829903Y6769541D01*
X13821976Y6750403D01*
Y6741181D01*
X13821352Y6739746D01*
X13821268Y6734953D01*
X13820937Y6730669D01*
X13820366Y6726664D01*
X13819563Y6722942D01*
X13818539Y6719493D01*
X13817300Y6716308D01*
X13815854Y6713374D01*
X13814198Y6710669D01*
X13812334Y6708179D01*
X13809984Y6705596D01*
X13809808Y6705109D01*
X13658942Y6554241D01*
X13654449Y6547520D01*
X13653130Y6540882D01*
X13652646Y6539788D01*
X13652544Y6535490D01*
X13652260Y6531960D01*
X13651817Y6529037D01*
X13651260Y6526765D01*
X13650671Y6525176D01*
X13650172Y6524279D01*
X13649983Y6524054D01*
X13649432Y6523990D01*
X13596620D01*
Y6442710D01*
X13670818D01*
X13672820Y6442312D01*
X13672821Y6442312D01*
X13699799D01*
X13770857Y6371253D01*
X13771045Y6370748D01*
X13780244Y6360858D01*
X13783510Y6356796D01*
X13786053Y6353170D01*
X13787120Y6351328D01*
Y6340488D01*
X13787102Y6340444D01*
X13787120Y6340401D01*
Y6312973D01*
X13787119Y6309040D01*
X13774854Y6301961D01*
X13774113Y6302456D01*
X13766185Y6304033D01*
X13766183Y6304033D01*
X13736658D01*
X13724643Y6316047D01*
X13724455Y6316552D01*
X13715256Y6326442D01*
X13711990Y6330504D01*
X13709447Y6334130D01*
X13708380Y6335972D01*
Y6346812D01*
X13708398Y6346856D01*
X13708380Y6346899D01*
Y6384290D01*
X13596620D01*
Y6303010D01*
X13664490D01*
X13664534Y6302992D01*
X13664578Y6303010D01*
X13675418D01*
X13677258Y6301944D01*
X13680794Y6299465D01*
X13689677Y6291919D01*
X13694724Y6287043D01*
X13695258Y6286833D01*
X13713425Y6268666D01*
X13713425Y6268665D01*
X13720148Y6264174D01*
X13728075Y6262597D01*
X13728076Y6262597D01*
X13757603D01*
X13769617Y6250583D01*
X13769804Y6250078D01*
X13779004Y6240188D01*
X13782269Y6236126D01*
X13784814Y6232500D01*
X13785880Y6230658D01*
Y6219818D01*
X13785863Y6219774D01*
X13785880Y6219731D01*
Y6128380D01*
X13921120D01*
Y6263620D01*
X13829770D01*
X13829726Y6263638D01*
X13829681Y6263620D01*
X13818842D01*
X13817001Y6264686D01*
X13813467Y6267165D01*
X13804582Y6274711D01*
X13799536Y6279587D01*
X13799004Y6279797D01*
X13788490Y6290310D01*
X13793752Y6303009D01*
X13797282Y6303010D01*
X13797282Y6303010D01*
X13797322Y6303010D01*
X13898880D01*
Y6384290D01*
X13831010D01*
X13830966Y6384308D01*
X13830922Y6384290D01*
X13820082D01*
X13818240Y6385356D01*
X13814706Y6387835D01*
X13805823Y6395381D01*
X13800777Y6400257D01*
X13800243Y6400467D01*
X13723030Y6477680D01*
X13716309Y6482171D01*
X13708380Y6483748D01*
Y6523990D01*
X13705251D01*
X13699989Y6536690D01*
X13839108Y6675809D01*
X13839597Y6675984D01*
X13842178Y6678333D01*
X13844672Y6680200D01*
X13847374Y6681854D01*
X13850308Y6683300D01*
X13853493Y6684538D01*
X13856943Y6685563D01*
X13860664Y6686366D01*
X13864668Y6686937D01*
X13868953Y6687267D01*
X13873746Y6687351D01*
X13875182Y6687975D01*
X13884402D01*
X13903542Y6695903D01*
X13918188Y6710550D01*
X13926115Y6729688D01*
Y6738910D01*
X13926740Y6740345D01*
X13926823Y6745138D01*
X13927155Y6749422D01*
X13927725Y6753426D01*
X13928528Y6757149D01*
X13929553Y6760598D01*
X13930791Y6763783D01*
X13932237Y6766717D01*
X13933891Y6769422D01*
X13935757Y6771912D01*
X13938107Y6774495D01*
X13938281Y6774982D01*
X14052107Y6888807D01*
X14052612Y6888995D01*
X14062502Y6898194D01*
X14066563Y6901460D01*
X14070190Y6904003D01*
X14072032Y6905070D01*
X14082872D01*
X14082916Y6905052D01*
X14082959Y6905070D01*
X14154930D01*
Y6953609D01*
X14155328Y6955610D01*
Y6974193D01*
X14155557Y6993306D01*
X14155537Y6993356D01*
X14155557Y6993405D01*
X14155328Y6993960D01*
Y7083928D01*
X14256686Y7185286D01*
X14257210Y7185489D01*
X14266013Y7193882D01*
X14270795Y7197976D01*
X14274847Y7201026D01*
X14276401Y7202038D01*
X14277737Y7202799D01*
X14279111Y7203446D01*
X14279549Y7203929D01*
X14280190Y7204057D01*
X14280350Y7204299D01*
X14281659Y7204841D01*
X14293782Y7200922D01*
Y7073448D01*
X14183949Y6963617D01*
X14179459Y6956895D01*
X14177882Y6948967D01*
X14177882Y6948966D01*
Y6542154D01*
X14177654Y6541634D01*
X14177559Y6537006D01*
X14177293Y6533134D01*
X14176874Y6529886D01*
X14176335Y6527305D01*
X14175745Y6525444D01*
X14175221Y6524341D01*
X14175169Y6524270D01*
X14174936Y6524238D01*
X14174934Y6524238D01*
X14174510Y6523990D01*
X14168120D01*
X14167796Y6516118D01*
X14165541Y6511881D01*
X14164465Y6509996D01*
X14161115Y6505117D01*
X14158868Y6504747D01*
X14155064Y6504415D01*
X14150430Y6504295D01*
X14149921Y6504068D01*
X14130472D01*
X14130368Y6504138D01*
X14130016Y6504068D01*
X14127484D01*
X14127133Y6504138D01*
X14127029Y6504068D01*
X14107581D01*
X14107069Y6504295D01*
X14102435Y6504415D01*
X14098630Y6504747D01*
X14095480Y6505266D01*
X14093021Y6505920D01*
X14091278Y6506625D01*
X14090231Y6507256D01*
X14089757Y6507693D01*
X14089597Y6507930D01*
X14089505Y6508187D01*
X14089380Y6509359D01*
Y6523990D01*
X13977620D01*
Y6510125D01*
X13977342Y6509613D01*
X13977190Y6508166D01*
X13977094Y6507895D01*
X13976935Y6507657D01*
X13976474Y6507229D01*
X13975458Y6506608D01*
X13973756Y6505912D01*
X13971346Y6505262D01*
X13968246Y6504746D01*
X13964502Y6504415D01*
X13959927Y6504295D01*
X13959418Y6504068D01*
X13917082D01*
X13916573Y6504295D01*
X13911998Y6504415D01*
X13908253Y6504746D01*
X13905154Y6505262D01*
X13902744Y6505912D01*
X13901042Y6506608D01*
X13900024Y6507229D01*
X13899565Y6507657D01*
X13899406Y6507895D01*
X13899310Y6508166D01*
X13899158Y6509613D01*
X13898880Y6510125D01*
Y6523990D01*
X13787120D01*
Y6442710D01*
X13898880D01*
Y6456575D01*
X13899158Y6457087D01*
X13899310Y6458534D01*
X13899406Y6458805D01*
X13899565Y6459043D01*
X13900026Y6459471D01*
X13901042Y6460092D01*
X13902744Y6460788D01*
X13905154Y6461438D01*
X13908253Y6461954D01*
X13911998Y6462285D01*
X13916573Y6462405D01*
X13917082Y6462632D01*
X13959418D01*
X13959927Y6462405D01*
X13964502Y6462285D01*
X13968246Y6461954D01*
X13971346Y6461438D01*
X13973756Y6460788D01*
X13975458Y6460092D01*
X13976476Y6459471D01*
X13976935Y6459043D01*
X13977094Y6458805D01*
X13977190Y6458534D01*
X13977342Y6457087D01*
X13977620Y6456575D01*
Y6442710D01*
X14089380D01*
Y6444926D01*
X14093011Y6449557D01*
X14101424Y6454373D01*
X14103358Y6453677D01*
X14105626Y6452295D01*
X14107359Y6450418D01*
X14107587Y6449139D01*
X14107814Y6444816D01*
X14108032Y6444359D01*
Y6201816D01*
X14107805Y6201304D01*
X14107687Y6196721D01*
X14107368Y6192956D01*
X14106866Y6189838D01*
X14106235Y6187397D01*
X14105554Y6185674D01*
X14104951Y6184651D01*
X14104556Y6184210D01*
X14104388Y6184094D01*
X14104237Y6184039D01*
X14102908Y6183895D01*
X14102908Y6183893D01*
X14102409Y6183620D01*
X14095880D01*
X14095557Y6175745D01*
X14095628Y6175567D01*
X14095605Y6174800D01*
X14095880Y6174299D01*
Y6008380D01*
X14261121D01*
Y6183620D01*
X14154773D01*
X14153629Y6183748D01*
X14153357Y6183847D01*
X14153104Y6184018D01*
X14152660Y6184504D01*
X14152025Y6185556D01*
X14151320Y6187298D01*
X14150665Y6189755D01*
X14150146Y6192898D01*
X14149815Y6196693D01*
X14149695Y6201310D01*
X14149467Y6201820D01*
Y6444359D01*
X14149686Y6444817D01*
X14149915Y6449139D01*
X14150140Y6450418D01*
X14151872Y6452293D01*
X14154144Y6453679D01*
X14156078Y6454373D01*
X14164490Y6449557D01*
X14168120Y6444926D01*
Y6442710D01*
X14279880D01*
Y6523990D01*
X14224625D01*
X14223480Y6524119D01*
X14223209Y6524217D01*
X14222955Y6524389D01*
X14222510Y6524875D01*
X14221875Y6525928D01*
X14221170Y6527671D01*
X14220515Y6530125D01*
X14219997Y6533269D01*
X14219666Y6537064D01*
X14219545Y6541680D01*
X14219318Y6542191D01*
Y6886249D01*
X14231619Y6887210D01*
Y6887210D01*
X14299490D01*
X14299535Y6887192D01*
X14299577Y6887210D01*
X14310419D01*
X14312259Y6886144D01*
X14315793Y6883665D01*
X14324678Y6876119D01*
X14329724Y6871243D01*
X14330258Y6871033D01*
X14398227Y6803064D01*
Y6491303D01*
X14398003Y6490812D01*
X14397833Y6486114D01*
X14397363Y6481883D01*
X14396590Y6477818D01*
X14395509Y6473905D01*
X14394127Y6470133D01*
X14392439Y6466490D01*
X14390436Y6462963D01*
X14388110Y6459541D01*
X14385451Y6456216D01*
X14382246Y6452774D01*
X14382059Y6452268D01*
X14294466Y6364677D01*
X14292998Y6364715D01*
X14289255Y6365046D01*
X14286156Y6365562D01*
X14283743Y6366212D01*
X14282042Y6366908D01*
X14281026Y6367529D01*
X14280565Y6367957D01*
X14280406Y6368195D01*
X14280310Y6368466D01*
X14280157Y6369913D01*
X14279880Y6370425D01*
Y6384290D01*
X14168120D01*
Y6303010D01*
X14279880D01*
Y6316875D01*
X14280157Y6317387D01*
X14280310Y6318834D01*
X14280406Y6319105D01*
X14280565Y6319343D01*
X14281026Y6319771D01*
X14282042Y6320392D01*
X14283743Y6321088D01*
X14286156Y6321738D01*
X14289255Y6322254D01*
X14292998Y6322585D01*
X14297572Y6322705D01*
X14298082Y6322932D01*
X14302737D01*
X14302739Y6322932D01*
X14310667Y6324509D01*
X14317389Y6329000D01*
X14406024Y6417635D01*
X14406502Y6417804D01*
X14409718Y6420699D01*
X14412399Y6422576D01*
X14414813Y6423782D01*
X14416963Y6424427D01*
X14418945Y6424625D01*
X14420927Y6424427D01*
X14423077Y6423782D01*
X14425490Y6422576D01*
X14428169Y6420699D01*
X14431387Y6417804D01*
X14431865Y6417635D01*
X14518869Y6330632D01*
X14518869Y6330631D01*
X14525591Y6326140D01*
X14532225Y6324820D01*
X14533319Y6324336D01*
X14537555Y6324233D01*
X14541026Y6323951D01*
X14543898Y6323511D01*
X14546123Y6322960D01*
X14547668Y6322377D01*
X14548535Y6321890D01*
X14548749Y6321707D01*
X14548849Y6320818D01*
X14549120Y6320332D01*
Y6303010D01*
X14660880D01*
Y6384290D01*
X14549120D01*
Y6376940D01*
X14536420Y6371680D01*
X14455832Y6452268D01*
X14455643Y6452774D01*
X14452438Y6456216D01*
X14449780Y6459538D01*
X14447453Y6462963D01*
X14445451Y6466490D01*
X14443764Y6470132D01*
X14442380Y6473905D01*
X14441301Y6477818D01*
X14440524Y6481883D01*
X14440056Y6486114D01*
X14439886Y6490812D01*
X14439664Y6491303D01*
Y6811645D01*
X14438086Y6819574D01*
X14433595Y6826295D01*
X14433594Y6826296D01*
X14359644Y6900247D01*
X14359454Y6900752D01*
X14350256Y6910642D01*
X14346989Y6914704D01*
X14344447Y6918330D01*
X14343381Y6920172D01*
Y6924600D01*
X14343398Y6924644D01*
X14343381Y6924688D01*
Y6931012D01*
X14343398Y6931056D01*
X14343381Y6931099D01*
Y6935528D01*
X14344446Y6937369D01*
X14346925Y6940903D01*
X14354471Y6949788D01*
X14359348Y6954834D01*
X14359557Y6955367D01*
X14379150Y6974960D01*
X14383641Y6981681D01*
X14385217Y6989610D01*
X14385217Y6989611D01*
Y7213434D01*
X14385660Y7214500D01*
Y7284500D01*
X14381659Y7294159D01*
X14372000Y7298160D01*
X14357001D01*
X14347340Y7294159D01*
X14346373Y7291822D01*
X14332626D01*
X14331659Y7294159D01*
X14322000Y7298160D01*
X14307001D01*
X14297340Y7294159D01*
X14296373Y7291822D01*
X14282626D01*
X14281659Y7294159D01*
X14272000Y7298160D01*
X14257001D01*
X14247340Y7294159D01*
X14244821Y7288074D01*
X14235199Y7288510D01*
X14231717Y7289625D01*
X14231360Y7290488D01*
X14230199Y7291648D01*
X14229572Y7293164D01*
X14228165Y7294571D01*
X14226822Y7295127D01*
X14226640Y7295585D01*
X14226440Y7305602D01*
X14226762Y7308731D01*
X14226822Y7308873D01*
X14229160Y7309841D01*
X14233160Y7319500D01*
Y7334500D01*
X14229160Y7344159D01*
X14219501Y7348160D01*
D02*
G37*
G36*
X10558780Y6460490D02*
X10447020D01*
Y6379210D01*
X10476891D01*
X10478063Y6379085D01*
X10478319Y6378994D01*
X10478558Y6378833D01*
X10478994Y6378358D01*
X10479625Y6377312D01*
X10480329Y6375571D01*
X10480984Y6373110D01*
X10481503Y6369959D01*
X10481835Y6366154D01*
X10481955Y6361520D01*
X10482182Y6361010D01*
Y6350001D01*
X10482182Y6350000D01*
X10483759Y6342071D01*
X10488250Y6335350D01*
X10564450Y6259150D01*
X10571171Y6254659D01*
X10579100Y6253082D01*
X10579101Y6253082D01*
X11331549D01*
X11331550Y6253082D01*
X11339479Y6254659D01*
X11346200Y6259150D01*
X11362717Y6275667D01*
X11363223Y6275855D01*
X11373112Y6285054D01*
X11377175Y6288320D01*
X11380800Y6290863D01*
X11382642Y6291930D01*
X11393483D01*
X11393526Y6291912D01*
X11393570Y6291930D01*
X11484920D01*
Y6427170D01*
X11349680D01*
Y6335820D01*
X11349662Y6335776D01*
X11349680Y6335732D01*
Y6324892D01*
X11348615Y6323051D01*
X11346136Y6319517D01*
X11338589Y6310632D01*
X11333713Y6305586D01*
X11333503Y6305053D01*
X11322968Y6294518D01*
X10587682D01*
X10523618Y6358582D01*
Y6361010D01*
X10523845Y6361520D01*
X10523965Y6366154D01*
X10524297Y6369960D01*
X10524816Y6373110D01*
X10525470Y6375569D01*
X10526175Y6377312D01*
X10526806Y6378358D01*
X10527243Y6378833D01*
X10527480Y6378993D01*
X10527737Y6379085D01*
X10528909Y6379210D01*
X10558780D01*
Y6460490D01*
D02*
G37*
G36*
X15232381Y6384290D02*
X15120621D01*
Y6325332D01*
X15120222Y6323330D01*
X15120222Y6323329D01*
Y6304747D01*
X15119994Y6285634D01*
X15120012Y6285584D01*
X15119992Y6285535D01*
X15120222Y6284980D01*
Y6170022D01*
X15030087Y6079887D01*
X15029584Y6079700D01*
X15019746Y6070566D01*
X15015710Y6067337D01*
X15012108Y6064831D01*
X15009988Y6063620D01*
X15000053D01*
X14999274Y6063943D01*
X14998648Y6063683D01*
X14997987Y6063842D01*
X14997626Y6063620D01*
X14907880D01*
Y5928380D01*
X15043120D01*
Y6018125D01*
X15043343Y6018488D01*
X15043182Y6019147D01*
X15043443Y6019774D01*
X15043120Y6020554D01*
Y6030489D01*
X15044330Y6032607D01*
X15046771Y6036116D01*
X15054248Y6044951D01*
X15059090Y6049966D01*
X15059299Y6050499D01*
X15155589Y6146790D01*
X15155589Y6146790D01*
X15160081Y6153512D01*
X15161658Y6161440D01*
Y6284809D01*
X15161885Y6285319D01*
X15162006Y6289931D01*
X15162337Y6293722D01*
X15162856Y6296862D01*
X15163510Y6299319D01*
X15164215Y6301062D01*
X15164851Y6302116D01*
X15165298Y6302606D01*
X15165553Y6302779D01*
X15165831Y6302880D01*
X15166969Y6303010D01*
X15232381D01*
Y6384290D01*
D02*
G37*
%LPD*%
G36*
X10549217Y11053422D02*
X10549925Y11053321D01*
X10550835Y11053220D01*
X10552755Y11052816D01*
X10554979Y11052209D01*
X10557305Y11051299D01*
X10558518Y11050693D01*
X10559630Y11049985D01*
X10560641Y11049075D01*
X10561651Y11048165D01*
X10561753Y11048064D01*
X10561854Y11047963D01*
X10562157Y11047660D01*
X10562460Y11047154D01*
X10562865Y11046649D01*
X10563269Y11045941D01*
X10563673Y11045133D01*
X10564179Y11044122D01*
X10564684Y11043111D01*
X10565089Y11041898D01*
X10565493Y11040482D01*
X10565897Y11039067D01*
X10566201Y11037450D01*
X10566504Y11035731D01*
X10566605Y11033810D01*
X10566706Y11031788D01*
Y10996305D01*
X10545173D01*
Y11027037D01*
Y11027138D01*
Y11027239D01*
Y11027947D01*
X10545072Y11028857D01*
X10544971Y11029969D01*
X10544668Y11031182D01*
X10544365Y11032395D01*
X10543859Y11033608D01*
X10543152Y11034518D01*
X10543051Y11034619D01*
X10542848Y11034821D01*
X10542343Y11035226D01*
X10541736Y11035630D01*
X10540928Y11036034D01*
X10540018Y11036439D01*
X10538906Y11036641D01*
X10537693Y11036742D01*
X10537086D01*
X10536277Y11036540D01*
X10535469Y11036338D01*
X10534458Y11036034D01*
X10533346Y11035428D01*
X10532335Y11034720D01*
X10531324Y11033709D01*
X10531223Y11033608D01*
X10530920Y11033103D01*
X10530616Y11032395D01*
X10530212Y11031283D01*
X10529706Y11029868D01*
X10529403Y11028048D01*
X10529201Y11026936D01*
X10529100Y11025723D01*
X10528999Y11024510D01*
Y11023095D01*
Y10996305D01*
X10507567D01*
Y11052209D01*
X10527482D01*
Y11043111D01*
X10527583Y11043212D01*
X10527685Y11043313D01*
X10527887Y11043616D01*
X10528291Y11044021D01*
X10529100Y11045032D01*
X10530313Y11046245D01*
X10531627Y11047458D01*
X10533144Y11048873D01*
X10534761Y11050086D01*
X10536480Y11051097D01*
X10536581D01*
X10536682Y11051198D01*
X10537288Y11051501D01*
X10538299Y11051906D01*
X10539613Y11052310D01*
X10541231Y11052714D01*
X10543152Y11053119D01*
X10545376Y11053422D01*
X10547701Y11053523D01*
X10548510D01*
X10549217Y11053422D01*
D02*
G37*
G36*
X10351582Y11053321D02*
X10352896Y11053119D01*
X10354413Y11052816D01*
X10356131Y11052209D01*
X10358153Y11051501D01*
X10360175Y11050490D01*
X10353503Y11035226D01*
X10353301Y11035327D01*
X10352896Y11035529D01*
X10352189Y11035731D01*
X10351380Y11036034D01*
X10350369Y11036338D01*
X10349459Y11036641D01*
X10348448Y11036742D01*
X10347539Y11036843D01*
X10347336D01*
X10346831Y11036742D01*
X10346123Y11036641D01*
X10345112Y11036439D01*
X10344101Y11035933D01*
X10342989Y11035327D01*
X10341877Y11034518D01*
X10340968Y11033305D01*
Y11033204D01*
X10340867Y11033103D01*
X10340664Y11032799D01*
X10340462Y11032294D01*
X10340260Y11031788D01*
X10339957Y11031081D01*
X10339653Y11030171D01*
X10339350Y11029160D01*
X10339047Y11028048D01*
X10338744Y11026734D01*
X10338440Y11025217D01*
X10338238Y11023499D01*
X10338036Y11021679D01*
X10337834Y11019657D01*
X10337733Y11017433D01*
Y11015007D01*
Y10996305D01*
X10316200D01*
Y11052209D01*
X10336216D01*
Y11043111D01*
X10336317Y11043313D01*
X10336520Y11043616D01*
X10336722Y11044021D01*
X10337328Y11045032D01*
X10338036Y11046245D01*
X10338946Y11047660D01*
X10339957Y11048974D01*
X10341069Y11050187D01*
X10342181Y11051198D01*
X10342282Y11051299D01*
X10342686Y11051602D01*
X10343394Y11051906D01*
X10344304Y11052411D01*
X10345416Y11052816D01*
X10346629Y11053119D01*
X10348145Y11053422D01*
X10349763Y11053523D01*
X10350571D01*
X10351582Y11053321D01*
D02*
G37*
G36*
X10076107Y11053422D02*
X10076814Y11053321D01*
X10077724Y11053220D01*
X10079645Y11052816D01*
X10081869Y11052209D01*
X10084194Y11051299D01*
X10085407Y11050693D01*
X10086519Y11049985D01*
X10087530Y11049075D01*
X10088541Y11048165D01*
X10088642Y11048064D01*
X10088743Y11047963D01*
X10089046Y11047660D01*
X10089350Y11047154D01*
X10089754Y11046649D01*
X10090158Y11045941D01*
X10090563Y11045133D01*
X10091068Y11044122D01*
X10091574Y11043111D01*
X10091978Y11041898D01*
X10092382Y11040482D01*
X10092787Y11039067D01*
X10093090Y11037450D01*
X10093393Y11035731D01*
X10093494Y11033810D01*
X10093596Y11031788D01*
Y10996305D01*
X10072063D01*
Y11027037D01*
Y11027138D01*
Y11027239D01*
Y11027947D01*
X10071962Y11028857D01*
X10071861Y11029969D01*
X10071557Y11031182D01*
X10071254Y11032395D01*
X10070749Y11033608D01*
X10070041Y11034518D01*
X10069940Y11034619D01*
X10069738Y11034821D01*
X10069232Y11035226D01*
X10068626Y11035630D01*
X10067817Y11036034D01*
X10066907Y11036439D01*
X10065795Y11036641D01*
X10064582Y11036742D01*
X10063976D01*
X10063167Y11036540D01*
X10062358Y11036338D01*
X10061347Y11036034D01*
X10060235Y11035428D01*
X10059224Y11034720D01*
X10058213Y11033709D01*
X10058112Y11033608D01*
X10057809Y11033103D01*
X10057506Y11032395D01*
X10057101Y11031283D01*
X10056596Y11029868D01*
X10056293Y11028048D01*
X10056090Y11026936D01*
X10055989Y11025723D01*
X10055888Y11024510D01*
Y11023095D01*
Y10996305D01*
X10034457D01*
Y11052209D01*
X10054372D01*
Y11043111D01*
X10054473Y11043212D01*
X10054574Y11043313D01*
X10054776Y11043616D01*
X10055181Y11044021D01*
X10055989Y11045032D01*
X10057202Y11046245D01*
X10058517Y11047458D01*
X10060033Y11048873D01*
X10061650Y11050086D01*
X10063369Y11051097D01*
X10063470D01*
X10063571Y11051198D01*
X10064178Y11051501D01*
X10065189Y11051906D01*
X10066503Y11052310D01*
X10068120Y11052714D01*
X10070041Y11053119D01*
X10072265Y11053422D01*
X10074590Y11053523D01*
X10075399D01*
X10076107Y11053422D01*
D02*
G37*
G36*
X10230373Y10996305D02*
X10210862D01*
Y11055141D01*
X10195698Y10996305D01*
X10178007D01*
X10163046Y11055141D01*
Y10996305D01*
X10143535D01*
Y11073539D01*
X10174873D01*
X10187005Y11026532D01*
X10199034Y11073539D01*
X10230373D01*
Y10996305D01*
D02*
G37*
G36*
X9898387Y10992464D02*
Y10992363D01*
X9898185Y10992059D01*
X9897982Y10991554D01*
X9897780Y10990846D01*
X9897376Y10990037D01*
X9896972Y10989027D01*
X9896062Y10987005D01*
X9894849Y10984680D01*
X9893534Y10982354D01*
X9892928Y10981344D01*
X9892119Y10980333D01*
X9891412Y10979423D01*
X9890704Y10978715D01*
X9890603Y10978614D01*
X9890401Y10978513D01*
X9890097Y10978210D01*
X9889693Y10977906D01*
X9889086Y10977502D01*
X9888379Y10977098D01*
X9887469Y10976693D01*
X9886458Y10976188D01*
X9885346Y10975682D01*
X9884133Y10975278D01*
X9882718Y10974874D01*
X9881201Y10974469D01*
X9879483Y10974166D01*
X9877764Y10973863D01*
X9875843Y10973762D01*
X9873720Y10973661D01*
X9872305D01*
X9871699Y10973762D01*
X9870991D01*
X9870182Y10973863D01*
X9869272D01*
X9868160Y10973964D01*
X9867048Y10974065D01*
X9865734Y10974267D01*
X9864319Y10974368D01*
X9862802Y10974570D01*
X9861084Y10974773D01*
X9859365Y10974975D01*
X9857748Y10989936D01*
X9857849D01*
X9857950Y10989835D01*
X9858557Y10989734D01*
X9859466Y10989431D01*
X9860781Y10989229D01*
X9862196Y10988925D01*
X9864016Y10988622D01*
X9865936Y10988521D01*
X9867958Y10988420D01*
X9868565D01*
X9869272Y10988521D01*
X9870182Y10988622D01*
X9871193Y10988824D01*
X9872204Y10989229D01*
X9873215Y10989633D01*
X9874125Y10990240D01*
X9874226Y10990341D01*
X9874529Y10990543D01*
X9874934Y10991048D01*
X9875540Y10991655D01*
X9876147Y10992464D01*
X9876753Y10993576D01*
X9877461Y10994789D01*
X9878067Y10996305D01*
X9854614Y11052209D01*
X9877158D01*
X9888783Y11014906D01*
X9899499Y11052209D01*
X9920627D01*
X9898387Y10992464D01*
D02*
G37*
G36*
X10467029Y11053422D02*
X10469253D01*
X10471680Y11053220D01*
X10474308Y11053018D01*
X10476835Y11052816D01*
X10479160Y11052411D01*
X10479261D01*
X10479464Y11052310D01*
X10479767D01*
X10480171Y11052209D01*
X10481182Y11051906D01*
X10482598Y11051400D01*
X10484114Y11050794D01*
X10485731Y11049985D01*
X10487349Y11049075D01*
X10488865Y11047862D01*
X10488966Y11047761D01*
X10489371Y11047458D01*
X10489775Y11046851D01*
X10490483Y11046144D01*
X10491089Y11045234D01*
X10491898Y11044021D01*
X10492606Y11042706D01*
X10493212Y11041190D01*
X10493313Y11040988D01*
X10493515Y11040482D01*
X10493718Y11039573D01*
X10494021Y11038562D01*
X10494324Y11037247D01*
X10494627Y11035832D01*
X10494729Y11034417D01*
X10494830Y11032900D01*
Y11008133D01*
Y11007931D01*
Y11007526D01*
Y11006819D01*
X10494931Y11005909D01*
Y11004898D01*
X10495032Y11003887D01*
X10495133Y11002876D01*
X10495234Y11001966D01*
Y11001865D01*
X10495335Y11001562D01*
X10495537Y11001056D01*
X10495739Y11000450D01*
X10496043Y10999641D01*
X10496346Y10998630D01*
X10496851Y10997518D01*
X10497458Y10996305D01*
X10477341D01*
Y10996406D01*
X10477139Y10996608D01*
X10476936Y10997013D01*
X10476734Y10997518D01*
X10476128Y10998529D01*
X10475723Y10999540D01*
Y10999641D01*
Y10999742D01*
X10475622Y11000046D01*
X10475521Y11000450D01*
X10475420Y11000854D01*
X10475319Y11001461D01*
X10475117Y11002270D01*
X10475016Y11003078D01*
X10474813Y11002876D01*
X10474308Y11002472D01*
X10473499Y11001663D01*
X10472387Y11000854D01*
X10471174Y10999944D01*
X10469759Y10998934D01*
X10468242Y10998024D01*
X10466625Y10997316D01*
X10466524D01*
X10466322Y10997215D01*
X10466018Y10997114D01*
X10465614Y10996912D01*
X10465109Y10996811D01*
X10464401Y10996608D01*
X10462885Y10996204D01*
X10460863Y10995699D01*
X10458639Y10995395D01*
X10456111Y10995092D01*
X10453382Y10994991D01*
X10452472D01*
X10451764Y10995092D01*
X10450956D01*
X10449945Y10995193D01*
X10448833Y10995395D01*
X10447721Y10995598D01*
X10445295Y10996103D01*
X10442767Y10996912D01*
X10440341Y10998024D01*
X10439229Y10998731D01*
X10438218Y10999540D01*
X10438117Y10999641D01*
X10438016Y10999742D01*
X10437713Y11000046D01*
X10437409Y11000349D01*
X10436601Y11001360D01*
X10435691Y11002775D01*
X10434680Y11004393D01*
X10433871Y11006414D01*
X10433265Y11008638D01*
X10433164Y11009851D01*
X10433062Y11011065D01*
Y11011166D01*
Y11011368D01*
Y11011671D01*
X10433164Y11012177D01*
X10433265Y11013289D01*
X10433568Y11014805D01*
X10433972Y11016422D01*
X10434680Y11018141D01*
X10435590Y11019961D01*
X10436803Y11021578D01*
X10437005Y11021780D01*
X10437207Y11021983D01*
X10437510Y11022286D01*
X10438016Y11022589D01*
X10438521Y11022993D01*
X10439128Y11023398D01*
X10439937Y11023903D01*
X10440847Y11024409D01*
X10441756Y11024914D01*
X10442969Y11025420D01*
X10444183Y11025925D01*
X10445598Y11026329D01*
X10447114Y11026835D01*
X10448732Y11027239D01*
X10450551Y11027644D01*
X10450652D01*
X10451057Y11027745D01*
X10451663Y11027846D01*
X10452472Y11028048D01*
X10453483Y11028250D01*
X10454595Y11028452D01*
X10455808Y11028756D01*
X10457021Y11028958D01*
X10459751Y11029564D01*
X10462278Y11030171D01*
X10463491Y11030373D01*
X10464502Y11030676D01*
X10465513Y11030879D01*
X10466221Y11031081D01*
X10466423D01*
X10466827Y11031283D01*
X10467636Y11031485D01*
X10468546Y11031788D01*
X10469658Y11032193D01*
X10470972Y11032597D01*
X10472387Y11033103D01*
X10473904Y11033709D01*
Y11033911D01*
Y11034316D01*
X10473803Y11035023D01*
X10473701Y11035832D01*
X10473499Y11036742D01*
X10473196Y11037652D01*
X10472792Y11038461D01*
X10472185Y11039168D01*
X10472084Y11039269D01*
X10471882Y11039471D01*
X10471477Y11039674D01*
X10470871Y11039977D01*
X10470062Y11040280D01*
X10469152Y11040583D01*
X10467939Y11040685D01*
X10466524Y11040786D01*
X10465614D01*
X10464704Y11040685D01*
X10463491Y11040583D01*
X10462177Y11040381D01*
X10460863Y11040078D01*
X10459650Y11039674D01*
X10458538Y11039067D01*
X10458437Y11038966D01*
X10458234Y11038764D01*
X10457830Y11038461D01*
X10457426Y11037955D01*
X10456819Y11037349D01*
X10456314Y11036439D01*
X10455808Y11035428D01*
X10455303Y11034215D01*
X10434781Y11036338D01*
Y11036439D01*
X10434882Y11036540D01*
Y11036843D01*
X10434983Y11037247D01*
X10435286Y11038157D01*
X10435590Y11039370D01*
X10436095Y11040786D01*
X10436601Y11042100D01*
X10437308Y11043515D01*
X10438016Y11044728D01*
X10438117Y11044829D01*
X10438420Y11045234D01*
X10438926Y11045840D01*
X10439633Y11046548D01*
X10440543Y11047357D01*
X10441655Y11048266D01*
X10442969Y11049176D01*
X10444385Y11050086D01*
X10444486Y11050187D01*
X10444890Y11050389D01*
X10445598Y11050693D01*
X10446508Y11050996D01*
X10447620Y11051400D01*
X10449035Y11051805D01*
X10450652Y11052209D01*
X10452472Y11052613D01*
X10452674D01*
X10452978Y11052714D01*
X10453382D01*
X10454393Y11052917D01*
X10455808Y11053119D01*
X10457527Y11053220D01*
X10459346Y11053422D01*
X10461469Y11053523D01*
X10466120D01*
X10467029Y11053422D01*
D02*
G37*
G36*
X9993919D02*
X9996143D01*
X9998569Y11053220D01*
X10001197Y11053018D01*
X10003725Y11052816D01*
X10006050Y11052411D01*
X10006151D01*
X10006353Y11052310D01*
X10006656D01*
X10007061Y11052209D01*
X10008072Y11051906D01*
X10009487Y11051400D01*
X10011003Y11050794D01*
X10012621Y11049985D01*
X10014238Y11049075D01*
X10015755Y11047862D01*
X10015856Y11047761D01*
X10016260Y11047458D01*
X10016664Y11046851D01*
X10017372Y11046144D01*
X10017979Y11045234D01*
X10018787Y11044021D01*
X10019495Y11042706D01*
X10020102Y11041190D01*
X10020203Y11040988D01*
X10020405Y11040482D01*
X10020607Y11039573D01*
X10020910Y11038562D01*
X10021214Y11037247D01*
X10021517Y11035832D01*
X10021618Y11034417D01*
X10021719Y11032900D01*
Y11008133D01*
Y11007931D01*
Y11007526D01*
Y11006819D01*
X10021820Y11005909D01*
Y11004898D01*
X10021921Y11003887D01*
X10022022Y11002876D01*
X10022123Y11001966D01*
Y11001865D01*
X10022225Y11001562D01*
X10022427Y11001056D01*
X10022629Y11000450D01*
X10022932Y10999641D01*
X10023235Y10998630D01*
X10023741Y10997518D01*
X10024347Y10996305D01*
X10004230D01*
Y10996406D01*
X10004028Y10996608D01*
X10003826Y10997013D01*
X10003624Y10997518D01*
X10003017Y10998529D01*
X10002613Y10999540D01*
Y10999641D01*
Y10999742D01*
X10002512Y11000046D01*
X10002411Y11000450D01*
X10002309Y11000854D01*
X10002208Y11001461D01*
X10002006Y11002270D01*
X10001905Y11003078D01*
X10001703Y11002876D01*
X10001197Y11002472D01*
X10000389Y11001663D01*
X9999277Y11000854D01*
X9998064Y10999944D01*
X9996648Y10998934D01*
X9995132Y10998024D01*
X9993514Y10997316D01*
X9993413D01*
X9993211Y10997215D01*
X9992908Y10997114D01*
X9992504Y10996912D01*
X9991998Y10996811D01*
X9991290Y10996608D01*
X9989774Y10996204D01*
X9987752Y10995699D01*
X9985528Y10995395D01*
X9983001Y10995092D01*
X9980271Y10994991D01*
X9979362D01*
X9978654Y10995092D01*
X9977845D01*
X9976834Y10995193D01*
X9975722Y10995395D01*
X9974610Y10995598D01*
X9972184Y10996103D01*
X9969657Y10996912D01*
X9967231Y10998024D01*
X9966118Y10998731D01*
X9965108Y10999540D01*
X9965006Y10999641D01*
X9964905Y10999742D01*
X9964602Y11000046D01*
X9964299Y11000349D01*
X9963490Y11001360D01*
X9962580Y11002775D01*
X9961569Y11004393D01*
X9960761Y11006414D01*
X9960154Y11008638D01*
X9960053Y11009851D01*
X9959952Y11011065D01*
Y11011166D01*
Y11011368D01*
Y11011671D01*
X9960053Y11012177D01*
X9960154Y11013289D01*
X9960457Y11014805D01*
X9960862Y11016422D01*
X9961569Y11018141D01*
X9962479Y11019961D01*
X9963692Y11021578D01*
X9963894Y11021780D01*
X9964097Y11021983D01*
X9964400Y11022286D01*
X9964905Y11022589D01*
X9965411Y11022993D01*
X9966017Y11023398D01*
X9966826Y11023903D01*
X9967736Y11024409D01*
X9968646Y11024914D01*
X9969859Y11025420D01*
X9971072Y11025925D01*
X9972487Y11026329D01*
X9974004Y11026835D01*
X9975621Y11027239D01*
X9977441Y11027644D01*
X9977542D01*
X9977946Y11027745D01*
X9978553Y11027846D01*
X9979362Y11028048D01*
X9980372Y11028250D01*
X9981484Y11028452D01*
X9982698Y11028756D01*
X9983911Y11028958D01*
X9986640Y11029564D01*
X9989167Y11030171D01*
X9990381Y11030373D01*
X9991391Y11030676D01*
X9992402Y11030879D01*
X9993110Y11031081D01*
X9993312D01*
X9993717Y11031283D01*
X9994525Y11031485D01*
X9995435Y11031788D01*
X9996547Y11032193D01*
X9997861Y11032597D01*
X9999277Y11033103D01*
X10000793Y11033709D01*
Y11033911D01*
Y11034316D01*
X10000692Y11035023D01*
X10000591Y11035832D01*
X10000389Y11036742D01*
X10000085Y11037652D01*
X9999681Y11038461D01*
X9999074Y11039168D01*
X9998973Y11039269D01*
X9998771Y11039471D01*
X9998367Y11039674D01*
X9997760Y11039977D01*
X9996952Y11040280D01*
X9996042Y11040583D01*
X9994829Y11040685D01*
X9993413Y11040786D01*
X9992504D01*
X9991594Y11040685D01*
X9990381Y11040583D01*
X9989066Y11040381D01*
X9987752Y11040078D01*
X9986539Y11039674D01*
X9985427Y11039067D01*
X9985326Y11038966D01*
X9985124Y11038764D01*
X9984719Y11038461D01*
X9984315Y11037955D01*
X9983709Y11037349D01*
X9983203Y11036439D01*
X9982698Y11035428D01*
X9982192Y11034215D01*
X9961670Y11036338D01*
Y11036439D01*
X9961772Y11036540D01*
Y11036843D01*
X9961873Y11037247D01*
X9962176Y11038157D01*
X9962479Y11039370D01*
X9962985Y11040786D01*
X9963490Y11042100D01*
X9964198Y11043515D01*
X9964905Y11044728D01*
X9965006Y11044829D01*
X9965310Y11045234D01*
X9965815Y11045840D01*
X9966523Y11046548D01*
X9967433Y11047357D01*
X9968545Y11048266D01*
X9969859Y11049176D01*
X9971274Y11050086D01*
X9971375Y11050187D01*
X9971780Y11050389D01*
X9972487Y11050693D01*
X9973397Y11050996D01*
X9974509Y11051400D01*
X9975924Y11051805D01*
X9977542Y11052209D01*
X9979362Y11052613D01*
X9979564D01*
X9979867Y11052714D01*
X9980271D01*
X9981282Y11052917D01*
X9982698Y11053119D01*
X9984416Y11053220D01*
X9986236Y11053422D01*
X9988359Y11053523D01*
X9993009D01*
X9993919Y11053422D01*
D02*
G37*
G36*
X9948933Y10996305D02*
X9927400D01*
Y11073539D01*
X9948933D01*
Y10996305D01*
D02*
G37*
G36*
X9821153Y11073438D02*
X9822265D01*
X9823478Y11073337D01*
X9824691D01*
X9827420Y11073034D01*
X9830251Y11072731D01*
X9832980Y11072225D01*
X9834295Y11071922D01*
X9835407Y11071619D01*
X9835508D01*
X9835710Y11071518D01*
X9836013Y11071417D01*
X9836417Y11071214D01*
X9837428Y11070709D01*
X9838743Y11070001D01*
X9840259Y11069091D01*
X9841876Y11067777D01*
X9843393Y11066362D01*
X9844808Y11064542D01*
Y11064441D01*
X9845010Y11064340D01*
X9845111Y11064037D01*
X9845415Y11063632D01*
X9845617Y11063127D01*
X9845920Y11062520D01*
X9846628Y11061004D01*
X9847335Y11059184D01*
X9847841Y11057061D01*
X9848245Y11054635D01*
X9848447Y11052007D01*
Y11051906D01*
Y11051704D01*
Y11051400D01*
Y11050895D01*
X9848346Y11050389D01*
Y11049783D01*
X9848144Y11048266D01*
X9847740Y11046447D01*
X9847234Y11044627D01*
X9846527Y11042706D01*
X9845617Y11040887D01*
X9845516Y11040685D01*
X9845111Y11040078D01*
X9844505Y11039269D01*
X9843696Y11038258D01*
X9842584Y11037045D01*
X9841270Y11035731D01*
X9839753Y11034518D01*
X9838035Y11033406D01*
X9837934Y11033305D01*
X9837529Y11033103D01*
X9836822Y11032799D01*
X9835811Y11032395D01*
X9834699Y11031890D01*
X9833183Y11031384D01*
X9831565Y11030879D01*
X9829644Y11030373D01*
X9829846Y11030272D01*
X9830352Y11030070D01*
X9831060Y11029868D01*
X9832071Y11029463D01*
X9834092Y11028452D01*
X9835103Y11027947D01*
X9835912Y11027441D01*
X9836013D01*
X9836114Y11027239D01*
X9836417Y11027037D01*
X9836923Y11026633D01*
X9837428Y11026026D01*
X9838035Y11025319D01*
X9838844Y11024510D01*
X9839652Y11023398D01*
X9839753Y11023297D01*
X9840057Y11022892D01*
X9840461Y11022286D01*
X9841068Y11021578D01*
X9842180Y11020062D01*
X9842584Y11019253D01*
X9842988Y11018545D01*
X9854715Y10996305D01*
X9827724D01*
X9814885Y11019860D01*
Y11019961D01*
X9814784Y11020062D01*
X9814480Y11020567D01*
X9813975Y11021376D01*
X9813470Y11022286D01*
X9812762Y11023297D01*
X9812054Y11024308D01*
X9811246Y11025116D01*
X9810538Y11025824D01*
X9810437Y11025925D01*
X9810134Y11026127D01*
X9809527Y11026431D01*
X9808819Y11026734D01*
X9808011Y11027037D01*
X9807000Y11027340D01*
X9805888Y11027543D01*
X9804675Y11027644D01*
X9802653D01*
Y10996305D01*
X9778694D01*
Y11073539D01*
X9820243D01*
X9821153Y11073438D01*
D02*
G37*
G36*
X10275056Y11053422D02*
X10276168D01*
X10277583Y11053220D01*
X10279200Y11053018D01*
X10281020Y11052714D01*
X10282941Y11052310D01*
X10284963Y11051805D01*
X10286985Y11051097D01*
X10289107Y11050389D01*
X10291230Y11049378D01*
X10293252Y11048266D01*
X10295274Y11046952D01*
X10297094Y11045436D01*
X10298812Y11043717D01*
X10298913Y11043616D01*
X10299116Y11043313D01*
X10299419Y11042909D01*
X10299924Y11042302D01*
X10300430Y11041493D01*
X10301036Y11040583D01*
X10301643Y11039573D01*
X10302350Y11038359D01*
X10302957Y11037045D01*
X10303564Y11035529D01*
X10304170Y11033911D01*
X10304676Y11032294D01*
X10305181Y11030474D01*
X10305484Y11028554D01*
X10305687Y11026532D01*
X10305788Y11024409D01*
Y11024308D01*
Y11023802D01*
X10305687Y11023196D01*
Y11022286D01*
X10305484Y11021174D01*
X10305383Y11019860D01*
X10305080Y11018444D01*
X10304676Y11016928D01*
X10304271Y11015209D01*
X10303665Y11013592D01*
X10302957Y11011772D01*
X10302148Y11009953D01*
X10301137Y11008234D01*
X10300025Y11006515D01*
X10298711Y11004797D01*
X10297195Y11003179D01*
X10297094Y11003078D01*
X10296790Y11002876D01*
X10296285Y11002472D01*
X10295577Y11001865D01*
X10294769Y11001259D01*
X10293657Y11000551D01*
X10292443Y10999843D01*
X10291028Y10999136D01*
X10289411Y10998327D01*
X10287591Y10997619D01*
X10285670Y10996912D01*
X10283547Y10996305D01*
X10281222Y10995800D01*
X10278796Y10995395D01*
X10276168Y10995092D01*
X10273438Y10994991D01*
X10272124D01*
X10271214Y10995092D01*
X10270102Y10995193D01*
X10268788Y10995395D01*
X10267272Y10995598D01*
X10265654Y10995800D01*
X10262217Y10996608D01*
X10260397Y10997215D01*
X10258578Y10997822D01*
X10256758Y10998630D01*
X10255039Y10999540D01*
X10253321Y11000551D01*
X10251703Y11001764D01*
X10251602Y11001865D01*
X10251299Y11002168D01*
X10250794Y11002674D01*
X10250086Y11003281D01*
X10249378Y11004190D01*
X10248468Y11005201D01*
X10247559Y11006414D01*
X10246649Y11007729D01*
X10245638Y11009245D01*
X10244728Y11010963D01*
X10243818Y11012783D01*
X10243111Y11014704D01*
X10242403Y11016827D01*
X10241897Y11019152D01*
X10241594Y11021477D01*
X10241493Y11024004D01*
Y11024105D01*
Y11024611D01*
X10241594Y11025217D01*
Y11026127D01*
X10241796Y11027239D01*
X10241999Y11028554D01*
X10242201Y11029969D01*
X10242605Y11031485D01*
X10243009Y11033103D01*
X10243616Y11034821D01*
X10244324Y11036540D01*
X10245132Y11038359D01*
X10246143Y11040078D01*
X10247255Y11041898D01*
X10248570Y11043515D01*
X10250086Y11045133D01*
X10250187Y11045234D01*
X10250490Y11045537D01*
X10250996Y11045941D01*
X10251703Y11046447D01*
X10252512Y11047053D01*
X10253624Y11047761D01*
X10254837Y11048570D01*
X10256253Y11049378D01*
X10257769Y11050086D01*
X10259589Y11050895D01*
X10261509Y11051602D01*
X10263531Y11052209D01*
X10265755Y11052714D01*
X10268181Y11053119D01*
X10270709Y11053422D01*
X10273438Y11053523D01*
X10274146D01*
X10275056Y11053422D01*
D02*
G37*
G36*
X10386257D02*
X10387773Y11053220D01*
X10389492Y11053018D01*
X10391311Y11052613D01*
X10393030Y11052007D01*
X10394749Y11051299D01*
X10394951Y11051198D01*
X10395456Y11050895D01*
X10396265Y11050288D01*
X10397377Y11049581D01*
X10398590Y11048570D01*
X10399904Y11047256D01*
X10401320Y11045739D01*
X10402735Y11043919D01*
Y11052209D01*
X10422852D01*
Y10999439D01*
Y10996912D01*
Y10996811D01*
Y10996710D01*
Y10996406D01*
Y10996002D01*
X10422751Y10994991D01*
X10422549Y10993778D01*
X10422347Y10992261D01*
X10421942Y10990543D01*
X10421336Y10988824D01*
X10420628Y10987005D01*
Y10986904D01*
X10420527Y10986803D01*
X10420224Y10986196D01*
X10419718Y10985387D01*
X10419011Y10984275D01*
X10418202Y10983062D01*
X10417191Y10981748D01*
X10415978Y10980535D01*
X10414664Y10979322D01*
X10414462Y10979221D01*
X10413956Y10978816D01*
X10413147Y10978311D01*
X10412035Y10977704D01*
X10410721Y10976997D01*
X10409104Y10976289D01*
X10407183Y10975682D01*
X10405161Y10975076D01*
X10405060D01*
X10404858Y10974975D01*
X10404555D01*
X10404150Y10974874D01*
X10403645Y10974773D01*
X10402937Y10974671D01*
X10401421Y10974368D01*
X10399500Y10974065D01*
X10397276Y10973863D01*
X10394850Y10973762D01*
X10392120Y10973661D01*
X10390503D01*
X10389391Y10973762D01*
X10387975Y10973863D01*
X10386459Y10973964D01*
X10384740Y10974065D01*
X10382921Y10974267D01*
X10379079Y10974874D01*
X10375238Y10975783D01*
X10373418Y10976390D01*
X10371801Y10977098D01*
X10370284Y10977805D01*
X10368970Y10978715D01*
X10368869Y10978816D01*
X10368667Y10978917D01*
X10368364Y10979221D01*
X10367959Y10979625D01*
X10367555Y10980130D01*
X10366948Y10980737D01*
X10366443Y10981445D01*
X10365836Y10982253D01*
X10364724Y10984174D01*
X10363713Y10986499D01*
X10363309Y10987813D01*
X10363006Y10989128D01*
X10362804Y10990644D01*
X10362702Y10992160D01*
Y10992261D01*
Y10992363D01*
Y10992969D01*
Y10993778D01*
X10362804Y10994991D01*
X10383628Y10992666D01*
Y10992565D01*
X10383730Y10992160D01*
X10383932Y10991756D01*
X10384235Y10991149D01*
X10384943Y10989835D01*
X10385347Y10989229D01*
X10385954Y10988723D01*
X10386055Y10988622D01*
X10386358Y10988521D01*
X10386863Y10988218D01*
X10387571Y10987915D01*
X10388481Y10987611D01*
X10389492Y10987409D01*
X10390604Y10987207D01*
X10391918Y10987106D01*
X10392727D01*
X10393535Y10987207D01*
X10394546Y10987409D01*
X10395658Y10987712D01*
X10396872Y10988218D01*
X10397882Y10988824D01*
X10398893Y10989633D01*
X10398994Y10989734D01*
X10399298Y10990139D01*
X10399601Y10990745D01*
X10400106Y10991655D01*
X10400511Y10992767D01*
X10400814Y10994283D01*
X10401117Y10996002D01*
X10401218Y10998125D01*
Y11006515D01*
X10401117Y11006313D01*
X10400713Y11005909D01*
X10400005Y11005201D01*
X10399197Y11004494D01*
X10398287Y11003584D01*
X10397175Y11002674D01*
X10396063Y11001865D01*
X10394850Y11001158D01*
X10394749D01*
X10394647Y11001056D01*
X10394344Y11000955D01*
X10393940Y11000753D01*
X10393030Y11000349D01*
X10391615Y10999843D01*
X10390098Y10999338D01*
X10388279Y10998934D01*
X10386257Y10998630D01*
X10384134Y10998529D01*
X10383628D01*
X10383022Y10998630D01*
X10382314Y10998731D01*
X10381303Y10998832D01*
X10380191Y10999035D01*
X10378978Y10999338D01*
X10377664Y10999742D01*
X10376249Y11000248D01*
X10374833Y11000955D01*
X10373317Y11001764D01*
X10371801Y11002674D01*
X10370284Y11003786D01*
X10368768Y11005100D01*
X10367353Y11006617D01*
X10366038Y11008335D01*
X10365937Y11008436D01*
X10365836Y11008638D01*
X10365634Y11009043D01*
X10365331Y11009548D01*
X10364926Y11010256D01*
X10364522Y11011166D01*
X10364118Y11012076D01*
X10363612Y11013188D01*
X10363208Y11014502D01*
X10362702Y11015816D01*
X10362298Y11017332D01*
X10361995Y11019051D01*
X10361590Y11020769D01*
X10361388Y11022589D01*
X10361287Y11024611D01*
X10361186Y11026734D01*
Y11026835D01*
Y11027340D01*
Y11027947D01*
X10361287Y11028857D01*
X10361388Y11029969D01*
X10361489Y11031182D01*
X10361691Y11032597D01*
X10361995Y11034114D01*
X10362702Y11037349D01*
X10363208Y11038966D01*
X10363814Y11040685D01*
X10364522Y11042302D01*
X10365432Y11043818D01*
X10366342Y11045335D01*
X10367454Y11046649D01*
X10367555Y11046750D01*
X10367757Y11046952D01*
X10368161Y11047256D01*
X10368566Y11047761D01*
X10369273Y11048266D01*
X10369981Y11048873D01*
X10370891Y11049480D01*
X10371902Y11050086D01*
X10373014Y11050693D01*
X10374328Y11051400D01*
X10375642Y11051906D01*
X10377159Y11052411D01*
X10378675Y11052917D01*
X10380394Y11053220D01*
X10382213Y11053422D01*
X10384033Y11053523D01*
X10385145D01*
X10386257Y11053422D01*
D02*
G37*
%LPC*%
G36*
X10473904Y11022892D02*
X10473701Y11022791D01*
X10473095Y11022589D01*
X10472286Y11022286D01*
X10471073Y11021983D01*
X10469658Y11021477D01*
X10468141Y11020972D01*
X10466423Y11020567D01*
X10464603Y11020062D01*
X10464502D01*
X10464300Y11019961D01*
X10463997Y11019860D01*
X10463592Y11019759D01*
X10462480Y11019455D01*
X10461065Y11018950D01*
X10459650Y11018444D01*
X10458335Y11017939D01*
X10457122Y11017231D01*
X10456718Y11016928D01*
X10456314Y11016625D01*
X10456213Y11016524D01*
X10456010Y11016321D01*
X10455808Y11015917D01*
X10455505Y11015513D01*
X10455101Y11014906D01*
X10454898Y11014198D01*
X10454696Y11013491D01*
X10454595Y11012682D01*
Y11012581D01*
Y11012278D01*
X10454696Y11011772D01*
X10454797Y11011166D01*
X10454999Y11010458D01*
X10455303Y11009750D01*
X10455707Y11009043D01*
X10456314Y11008436D01*
X10456415Y11008335D01*
X10456617Y11008234D01*
X10457021Y11007931D01*
X10457628Y11007729D01*
X10458335Y11007425D01*
X10459245Y11007122D01*
X10460256Y11007021D01*
X10461469Y11006920D01*
X10462076D01*
X10462783Y11007021D01*
X10463693Y11007122D01*
X10464704Y11007324D01*
X10465816Y11007627D01*
X10467029Y11008032D01*
X10468141Y11008638D01*
X10468242Y11008739D01*
X10468647Y11008942D01*
X10469253Y11009346D01*
X10469860Y11009851D01*
X10470568Y11010458D01*
X10471376Y11011166D01*
X10471983Y11011974D01*
X10472589Y11012884D01*
X10472691Y11012985D01*
X10472792Y11013390D01*
X10472994Y11013895D01*
X10473297Y11014704D01*
X10473499Y11015614D01*
X10473701Y11016726D01*
X10473803Y11018040D01*
X10473904Y11019455D01*
Y11022892D01*
D02*
G37*
G36*
X10000793D02*
X10000591Y11022791D01*
X9999984Y11022589D01*
X9999176Y11022286D01*
X9997962Y11021983D01*
X9996547Y11021477D01*
X9995031Y11020972D01*
X9993312Y11020567D01*
X9991493Y11020062D01*
X9991391D01*
X9991189Y11019961D01*
X9990886Y11019860D01*
X9990482Y11019759D01*
X9989370Y11019455D01*
X9987954Y11018950D01*
X9986539Y11018444D01*
X9985225Y11017939D01*
X9984012Y11017231D01*
X9983607Y11016928D01*
X9983203Y11016625D01*
X9983102Y11016524D01*
X9982900Y11016321D01*
X9982698Y11015917D01*
X9982394Y11015513D01*
X9981990Y11014906D01*
X9981788Y11014198D01*
X9981586Y11013491D01*
X9981484Y11012682D01*
Y11012581D01*
Y11012278D01*
X9981586Y11011772D01*
X9981687Y11011166D01*
X9981889Y11010458D01*
X9982192Y11009750D01*
X9982596Y11009043D01*
X9983203Y11008436D01*
X9983304Y11008335D01*
X9983506Y11008234D01*
X9983911Y11007931D01*
X9984517Y11007729D01*
X9985225Y11007425D01*
X9986135Y11007122D01*
X9987146Y11007021D01*
X9988359Y11006920D01*
X9988965D01*
X9989673Y11007021D01*
X9990583Y11007122D01*
X9991594Y11007324D01*
X9992706Y11007627D01*
X9993919Y11008032D01*
X9995031Y11008638D01*
X9995132Y11008739D01*
X9995536Y11008942D01*
X9996143Y11009346D01*
X9996749Y11009851D01*
X9997457Y11010458D01*
X9998266Y11011166D01*
X9998872Y11011974D01*
X9999479Y11012884D01*
X9999580Y11012985D01*
X9999681Y11013390D01*
X9999883Y11013895D01*
X10000187Y11014704D01*
X10000389Y11015614D01*
X10000591Y11016726D01*
X10000692Y11018040D01*
X10000793Y11019455D01*
Y11022892D01*
D02*
G37*
G36*
X9813166Y11057971D02*
X9802653D01*
Y11042201D01*
X9812964D01*
X9813470Y11042302D01*
X9814076D01*
X9814986Y11042403D01*
X9816098Y11042605D01*
X9817412Y11042909D01*
X9819030Y11043212D01*
X9819131D01*
X9819434Y11043313D01*
X9819838Y11043515D01*
X9820445Y11043717D01*
X9821051Y11044021D01*
X9821759Y11044425D01*
X9822366Y11045032D01*
X9822972Y11045638D01*
X9823073Y11045739D01*
X9823174Y11045941D01*
X9823478Y11046346D01*
X9823781Y11046952D01*
X9823983Y11047559D01*
X9824286Y11048368D01*
X9824388Y11049277D01*
X9824489Y11050187D01*
Y11050389D01*
Y11050794D01*
X9824388Y11051501D01*
X9824185Y11052310D01*
X9823882Y11053220D01*
X9823478Y11054231D01*
X9822871Y11055141D01*
X9822062Y11055949D01*
X9821961Y11056051D01*
X9821557Y11056253D01*
X9820950Y11056556D01*
X9820041Y11056960D01*
X9818827Y11057365D01*
X9817311Y11057668D01*
X9815390Y11057870D01*
X9813166Y11057971D01*
D02*
G37*
G36*
X10273741Y11038764D02*
X10273539D01*
X10272933Y11038663D01*
X10272124Y11038562D01*
X10271012Y11038359D01*
X10269799Y11037854D01*
X10268586Y11037247D01*
X10267272Y11036338D01*
X10266058Y11035124D01*
X10265957Y11034922D01*
X10265553Y11034417D01*
X10265149Y11033608D01*
X10264542Y11032395D01*
X10264037Y11030879D01*
X10263531Y11028958D01*
X10263127Y11026734D01*
X10263026Y11024105D01*
Y11024004D01*
Y11023802D01*
Y11023398D01*
Y11022892D01*
X10263127Y11022286D01*
X10263228Y11021578D01*
X10263430Y11019961D01*
X10263733Y11018141D01*
X10264239Y11016220D01*
X10264946Y11014502D01*
X10265957Y11012985D01*
X10266058Y11012884D01*
X10266463Y11012480D01*
X10267170Y11011873D01*
X10268080Y11011267D01*
X10269192Y11010559D01*
X10270507Y11010054D01*
X10272023Y11009649D01*
X10273640Y11009447D01*
X10273843D01*
X10274449Y11009548D01*
X10275258Y11009649D01*
X10276370Y11009851D01*
X10277583Y11010357D01*
X10278796Y11010963D01*
X10280009Y11011772D01*
X10281222Y11012985D01*
X10281323Y11013188D01*
X10281728Y11013693D01*
X10282233Y11014502D01*
X10282739Y11015715D01*
X10283345Y11017332D01*
X10283750Y11019253D01*
X10284154Y11021578D01*
X10284255Y11024308D01*
Y11024409D01*
Y11024611D01*
Y11025015D01*
Y11025521D01*
X10284154Y11026127D01*
X10284053Y11026835D01*
X10283851Y11028351D01*
X10283547Y11030171D01*
X10282941Y11031991D01*
X10282233Y11033608D01*
X10281222Y11035124D01*
X10281121Y11035327D01*
X10280717Y11035731D01*
X10280009Y11036236D01*
X10279200Y11036944D01*
X10278088Y11037652D01*
X10276774Y11038157D01*
X10275359Y11038562D01*
X10273741Y11038764D01*
D02*
G37*
G36*
X10391514Y11037955D02*
X10390806D01*
X10390098Y11037753D01*
X10389189Y11037551D01*
X10388178Y11037247D01*
X10387066Y11036641D01*
X10386055Y11035933D01*
X10385044Y11034922D01*
X10384943Y11034821D01*
X10384639Y11034316D01*
X10384235Y11033608D01*
X10383831Y11032597D01*
X10383426Y11031182D01*
X10383022Y11029463D01*
X10382719Y11027441D01*
X10382618Y11025015D01*
Y11024914D01*
Y11024712D01*
Y11024409D01*
Y11024004D01*
X10382719Y11022993D01*
X10382921Y11021578D01*
X10383224Y11020163D01*
X10383730Y11018646D01*
X10384336Y11017231D01*
X10385145Y11016018D01*
X10385246Y11015917D01*
X10385650Y11015614D01*
X10386156Y11015108D01*
X10386964Y11014603D01*
X10387874Y11014097D01*
X10389087Y11013592D01*
X10390402Y11013289D01*
X10391918Y11013188D01*
X10392626D01*
X10393333Y11013390D01*
X10394243Y11013592D01*
X10395355Y11013895D01*
X10396467Y11014401D01*
X10397579Y11015108D01*
X10398590Y11016119D01*
X10398691Y11016220D01*
X10398994Y11016726D01*
X10399500Y11017433D01*
X10400005Y11018444D01*
X10400410Y11019657D01*
X10400915Y11021275D01*
X10401218Y11023196D01*
X10401320Y11025319D01*
Y11025420D01*
Y11025622D01*
Y11025925D01*
Y11026329D01*
X10401218Y11027441D01*
X10401016Y11028756D01*
X10400612Y11030272D01*
X10400106Y11031788D01*
X10399399Y11033305D01*
X10398489Y11034619D01*
X10398388Y11034720D01*
X10397984Y11035124D01*
X10397377Y11035630D01*
X10396568Y11036338D01*
X10395557Y11036944D01*
X10394344Y11037450D01*
X10393030Y11037854D01*
X10391514Y11037955D01*
D02*
G37*
%LPD*%
G36*
X15430499Y8953500D02*
X15303500Y8826500D01*
X14795500D01*
Y9715500D01*
X15430499D01*
Y8953500D01*
D02*
G37*
G36*
X13258800Y10033000D02*
Y8661400D01*
X12928600Y8331200D01*
X10909300D01*
X10477500Y8763000D01*
X10414000Y8826500D01*
Y9588500D01*
X10477500Y9652000D01*
X11874500D01*
X11938000Y9588500D01*
Y9118600D01*
X12014200Y9042400D01*
X12395200D01*
X12522200Y9169400D01*
Y9575800D01*
X12763500Y9817100D01*
Y10033000D01*
X12839700Y10109200D01*
X13182600D01*
X13258800Y10033000D01*
D02*
G37*
G36*
X14033501Y8826500D02*
X13525500D01*
X13398500Y8953500D01*
Y9715500D01*
X14033501D01*
Y8826500D01*
D02*
G37*
G36*
X14695917Y7760800D02*
X14693968Y7762206D01*
X14691653Y7762894D01*
X14688976Y7762863D01*
X14685931Y7762115D01*
X14682523Y7760647D01*
X14678748Y7758461D01*
X14674606Y7755557D01*
X14670100Y7751935D01*
X14659995Y7742534D01*
X14642033Y7760495D01*
X14647095Y7765731D01*
X14655057Y7775107D01*
X14657962Y7779247D01*
X14660147Y7783022D01*
X14661615Y7786431D01*
X14662363Y7789475D01*
X14662395Y7792154D01*
X14661707Y7794468D01*
X14660300Y7796416D01*
X14695917Y7760800D01*
D02*
G37*
G36*
X15151100Y7962900D02*
X14643100D01*
X14554201Y7874000D01*
Y7759700D01*
X14516100Y7721600D01*
Y7569200D01*
X14503400Y7556500D01*
X14478000D01*
X14465300Y7569200D01*
Y7759700D01*
X14490700Y7785100D01*
Y7962900D01*
X14820900Y8293100D01*
X15151100D01*
Y7962900D01*
D02*
G37*
G36*
X14167567Y7794440D02*
X14166850Y7792105D01*
Y7789411D01*
X14167567Y7786358D01*
X14169005Y7782945D01*
X14171159Y7779174D01*
X14174034Y7775043D01*
X14177626Y7770553D01*
X14186966Y7760495D01*
X14169005Y7742534D01*
X14163797Y7747563D01*
X14154457Y7755466D01*
X14150327Y7758340D01*
X14146555Y7760495D01*
X14143143Y7761932D01*
X14140089Y7762650D01*
X14137395D01*
X14135060Y7761932D01*
X14133084Y7760495D01*
X14169005Y7796416D01*
X14167567Y7794440D01*
D02*
G37*
G36*
X14338300Y7962900D02*
Y7785100D01*
X14363699Y7759700D01*
Y7569200D01*
X14350999Y7556500D01*
X14325600D01*
X14312900Y7569200D01*
Y7721600D01*
X14274800Y7759700D01*
Y7874000D01*
X14185899Y7962900D01*
X13677901D01*
Y8293100D01*
X14008099D01*
X14338300Y7962900D01*
D02*
G37*
G36*
X14219501Y7649500D02*
X14220494Y7649500D01*
X14222331Y7648739D01*
X14223740Y7647332D01*
X14224500Y7645494D01*
X14224500Y7644500D01*
X14224500Y7580129D01*
D01*
Y7574500D01*
X14224500Y7574500D01*
X14224500Y7573505D01*
X14223740Y7571667D01*
X14222331Y7570261D01*
X14220496Y7569500D01*
X14219501Y7569500D01*
X14184500D01*
X14147212Y7532212D01*
X14139841Y7529159D01*
X14136787Y7521788D01*
X13952119Y7337120D01*
X13818880D01*
Y7327900D01*
X13093700D01*
Y7683500D01*
X14185500D01*
X14219501Y7649500D01*
D02*
G37*
G36*
X13700455Y6960565D02*
X13662660Y6960260D01*
X13665073Y6960536D01*
X13667232Y6961321D01*
X13669138Y6962617D01*
X13670789Y6964422D01*
X13672185Y6966738D01*
X13673328Y6969563D01*
X13674217Y6972899D01*
X13674852Y6976744D01*
X13675233Y6981100D01*
X13675360Y6985965D01*
X13700760D01*
X13700455Y6960565D01*
D02*
G37*
G36*
X10862487Y7759486D02*
X10860328Y7758724D01*
X10858423Y7757454D01*
X10856772Y7755676D01*
X10855375Y7753390D01*
X10854232Y7750596D01*
X10853343Y7747294D01*
X10852708Y7743484D01*
X10852327Y7739166D01*
X10852200Y7734340D01*
X10826800D01*
X10826673Y7739166D01*
X10826292Y7743484D01*
X10825657Y7747294D01*
X10824768Y7750596D01*
X10823625Y7753390D01*
X10822228Y7755676D01*
X10820577Y7757454D01*
X10818672Y7758724D01*
X10816513Y7759486D01*
X10814100Y7759740D01*
X10864900D01*
X10862487Y7759486D01*
D02*
G37*
G36*
X11034081Y7670265D02*
X11051632Y7650359D01*
X11052462Y7648655D01*
X11052399Y7647709D01*
X11051443Y7647522D01*
X11049593Y7648093D01*
X11026223Y7624613D01*
X11027625Y7626565D01*
X11028310Y7628882D01*
X11028278Y7631563D01*
X11027528Y7634608D01*
X11026060Y7638018D01*
X11023875Y7641792D01*
X11020972Y7645931D01*
X11017351Y7650434D01*
X11007957Y7660534D01*
X11027890Y7676523D01*
X11034081Y7670265D01*
D02*
G37*
G36*
X10981000Y7649500D02*
X10981994Y7649500D01*
X10983832Y7648739D01*
X10985239Y7647332D01*
X10986000Y7645494D01*
X10986000Y7644500D01*
X10986000Y7580129D01*
D01*
Y7574500D01*
X10986000Y7574500D01*
X10986000Y7573505D01*
X10985239Y7571667D01*
X10983832Y7570261D01*
X10981995Y7569500D01*
X10981000Y7569500D01*
X10946000D01*
X10908712Y7532212D01*
X10901341Y7529159D01*
X10898288Y7521788D01*
X10767900Y7391400D01*
X9909800D01*
X9889226Y7411974D01*
X9889033Y7412486D01*
X9878612Y7423600D01*
X9874955Y7428065D01*
X9872980Y7430819D01*
Y7495440D01*
X9789260D01*
X9740900Y7543800D01*
Y7658100D01*
X9766300Y7683500D01*
X10947000D01*
X10981000Y7649500D01*
D02*
G37*
G36*
X10858500Y8140700D02*
Y8051800D01*
X11036300Y7874000D01*
X11125200Y7785100D01*
Y7607300D01*
Y7581900D01*
X11112500Y7569200D01*
X11087100D01*
X11074400Y7581900D01*
Y7708900D01*
X11023600Y7759700D01*
X10972800D01*
X10909300Y7823200D01*
Y7848600D01*
X10845800Y7912100D01*
X10439400D01*
X10426700Y7924800D01*
Y8216900D01*
X10439400Y8229600D01*
X10769600D01*
X10858500Y8140700D01*
D02*
G37*
G36*
X9862664Y7441497D02*
X9861447Y7439713D01*
X9861100Y7437412D01*
X9861622Y7434594D01*
X9863014Y7431260D01*
X9865275Y7427410D01*
X9868406Y7423043D01*
X9872406Y7418160D01*
X9883016Y7406845D01*
X9849815Y7404124D01*
X9845259Y7408504D01*
X9836790Y7415561D01*
X9832876Y7418238D01*
X9829177Y7420348D01*
X9825692Y7421891D01*
X9822421Y7422867D01*
X9819365Y7423275D01*
X9816522Y7423116D01*
X9813894Y7422390D01*
X9864750Y7442766D01*
X9862664Y7441497D01*
D02*
G37*
G36*
X10981000Y7289500D02*
X10981995Y7289500D01*
X10983832Y7288739D01*
X10985239Y7287332D01*
X10986000Y7285494D01*
X10986000Y7284500D01*
X10986000Y7284500D01*
X10986000Y7214500D01*
X10986000Y7213505D01*
X10985239Y7211668D01*
X10983832Y7210261D01*
X10981994Y7209500D01*
X10981000Y7209500D01*
X10951000Y7209500D01*
X10950005Y7209500D01*
X10948168Y7210261D01*
X10946761Y7211667D01*
X10946000Y7213505D01*
X10946000Y7214500D01*
Y7214500D01*
X10946000Y7239500D01*
X10945808Y7241451D01*
X10944315Y7245056D01*
X10941556Y7247815D01*
X10937951Y7249308D01*
X10936000Y7249500D01*
Y7249500D01*
X10910005D01*
X10908168Y7250261D01*
X10906761Y7251668D01*
X10906000Y7253505D01*
Y7254500D01*
Y7254500D01*
Y7284500D01*
Y7285494D01*
X10906761Y7287332D01*
X10908168Y7288739D01*
X10910005Y7289500D01*
X10911000D01*
X10911000Y7289500D01*
X10981000Y7289500D01*
D02*
G37*
G36*
X10723266Y7018805D02*
X10718237Y7013597D01*
X10710334Y7004257D01*
X10707460Y7000126D01*
X10705305Y6996355D01*
X10703868Y6992942D01*
X10703150Y6989889D01*
Y6987195D01*
X10703868Y6984860D01*
X10705305Y6982884D01*
X10669384Y7018805D01*
X10671360Y7017368D01*
X10673695Y7016650D01*
X10676389D01*
X10679442Y7017368D01*
X10682855Y7018805D01*
X10686626Y7020960D01*
X10690757Y7023834D01*
X10695247Y7027426D01*
X10705305Y7036766D01*
X10723266Y7018805D01*
D02*
G37*
G36*
X10997399Y7030421D02*
X10997721Y7026422D01*
X10998260Y7022893D01*
X10999013Y7019835D01*
X10999982Y7017247D01*
X11001166Y7015129D01*
X11002565Y7013483D01*
X11004180Y7012306D01*
X11006010Y7011600D01*
X11008055Y7011365D01*
X10961065Y7011060D01*
X10963122Y7011311D01*
X10964963Y7012036D01*
X10966586Y7013235D01*
X10967994Y7014907D01*
X10969185Y7017053D01*
X10970159Y7019673D01*
X10970917Y7022767D01*
X10971458Y7026334D01*
X10971783Y7030376D01*
X10971891Y7034891D01*
X10997291D01*
X10997399Y7030421D01*
D02*
G37*
G36*
X10873616Y7011365D02*
X10868587Y7006157D01*
X10860684Y6996817D01*
X10857810Y6992686D01*
X10855655Y6988915D01*
X10854218Y6985502D01*
X10853500Y6982449D01*
Y6979755D01*
X10854218Y6977420D01*
X10855655Y6975444D01*
X10819734Y7011365D01*
X10821710Y7009928D01*
X10824045Y7009210D01*
X10826739D01*
X10829792Y7009928D01*
X10833205Y7011365D01*
X10836976Y7013520D01*
X10841107Y7016394D01*
X10845597Y7019986D01*
X10855655Y7029326D01*
X10873616Y7011365D01*
D02*
G37*
G36*
X10641216Y6964100D02*
X10639268Y6965506D01*
X10636954Y6966194D01*
X10634275Y6966163D01*
X10631231Y6965415D01*
X10627822Y6963947D01*
X10624047Y6961762D01*
X10619907Y6958857D01*
X10615401Y6955235D01*
X10605295Y6945834D01*
X10587334Y6963795D01*
X10592394Y6969031D01*
X10600357Y6978407D01*
X10603261Y6982547D01*
X10605447Y6986322D01*
X10606915Y6989731D01*
X10607663Y6992775D01*
X10607694Y6995454D01*
X10607006Y6997768D01*
X10605600Y6999716D01*
X10641216Y6964100D01*
D02*
G37*
G36*
X10751820Y7018060D02*
Y6981900D01*
X10751802Y6981856D01*
X10751820Y6981812D01*
Y6970972D01*
X10750754Y6969131D01*
X10748275Y6965597D01*
X10740729Y6956712D01*
X10735853Y6951666D01*
X10735643Y6951133D01*
X10719390Y6934880D01*
X10714899Y6928159D01*
X10713322Y6920230D01*
X10713322Y6920229D01*
Y6786881D01*
X10713322Y6786880D01*
X10714899Y6778951D01*
X10719390Y6772230D01*
X10786982Y6704638D01*
Y6618390D01*
X10786755Y6617880D01*
X10786635Y6613246D01*
X10786303Y6609440D01*
X10785784Y6606290D01*
X10785130Y6603831D01*
X10784425Y6602088D01*
X10783794Y6601042D01*
X10783357Y6600567D01*
X10783120Y6600407D01*
X10782863Y6600315D01*
X10781691Y6600190D01*
X10751820D01*
Y6586325D01*
X10751542Y6585813D01*
X10751390Y6584366D01*
X10751294Y6584095D01*
X10751135Y6583857D01*
X10750674Y6583429D01*
X10749658Y6582808D01*
X10747957Y6582112D01*
X10745545Y6581462D01*
X10742446Y6580946D01*
X10738702Y6580615D01*
X10734128Y6580495D01*
X10733618Y6580268D01*
X10729382D01*
X10728872Y6580495D01*
X10724298Y6580615D01*
X10720554Y6580946D01*
X10717455Y6581462D01*
X10715043Y6582112D01*
X10713342Y6582808D01*
X10712325Y6583429D01*
X10711865Y6583857D01*
X10711706Y6584095D01*
X10711610Y6584366D01*
X10711458Y6585813D01*
X10711180Y6586325D01*
Y6600190D01*
X10599420D01*
Y6528883D01*
X10599419Y6525531D01*
X10586720Y6520270D01*
X10575043Y6531947D01*
X10574855Y6532452D01*
X10565656Y6542342D01*
X10562390Y6546404D01*
X10559847Y6550030D01*
X10558780Y6551872D01*
Y6562712D01*
X10558798Y6562756D01*
X10558780Y6562799D01*
Y6600190D01*
X10528909D01*
X10527737Y6600315D01*
X10527481Y6600406D01*
X10527242Y6600567D01*
X10526806Y6601042D01*
X10526175Y6602088D01*
X10525471Y6603829D01*
X10524816Y6606290D01*
X10524297Y6609441D01*
X10523965Y6613246D01*
X10523845Y6617880D01*
X10523618Y6618390D01*
Y6648173D01*
X10523839Y6648642D01*
X10524004Y6652130D01*
X10524446Y6655209D01*
X10525188Y6658293D01*
X10526241Y6661392D01*
X10527616Y6664518D01*
X10529331Y6667683D01*
X10531395Y6670881D01*
X10533821Y6674114D01*
X10536621Y6677380D01*
X10539949Y6680828D01*
X10540522Y6682285D01*
X10547043Y6688805D01*
X10554970Y6707943D01*
Y6728657D01*
X10547043Y6747795D01*
X10540522Y6754315D01*
X10539949Y6755772D01*
X10536621Y6759220D01*
X10533823Y6762484D01*
X10531395Y6765719D01*
X10529331Y6768917D01*
X10527616Y6772082D01*
X10526241Y6775208D01*
X10525187Y6778310D01*
X10524446Y6781390D01*
X10524004Y6784471D01*
X10523838Y6787958D01*
X10523618Y6788426D01*
Y6852818D01*
X10610407Y6939607D01*
X10610912Y6939795D01*
X10620802Y6948994D01*
X10624864Y6952260D01*
X10628490Y6954803D01*
X10630332Y6955870D01*
X10641172D01*
X10641216Y6955852D01*
X10641259Y6955870D01*
X10713230D01*
Y6981235D01*
X10713452Y6981598D01*
X10713294Y6982258D01*
X10713553Y6982884D01*
X10713230Y6983664D01*
Y6993599D01*
X10714440Y6995717D01*
X10716882Y6999226D01*
X10724358Y7008061D01*
X10729199Y7013076D01*
X10729409Y7013610D01*
X10741970Y7026170D01*
X10751820Y7018060D01*
D02*
G37*
G36*
X10950606Y6946240D02*
X10948545Y6947533D01*
X10946143Y6948132D01*
X10943401Y6948039D01*
X10940319Y6947252D01*
X10936897Y6945772D01*
X10933135Y6943599D01*
X10929033Y6940733D01*
X10924590Y6937173D01*
X10914685Y6927974D01*
X10894184Y6943395D01*
X10899357Y6948744D01*
X10907472Y6958271D01*
X10910414Y6962449D01*
X10912612Y6966236D01*
X10914067Y6969633D01*
X10914778Y6972639D01*
X10914746Y6975255D01*
X10913969Y6977481D01*
X10912450Y6979315D01*
X10950606Y6946240D01*
D02*
G37*
G36*
X10795666D02*
X10793718Y6947646D01*
X10791404Y6948334D01*
X10788725Y6948303D01*
X10785681Y6947555D01*
X10782272Y6946087D01*
X10778497Y6943902D01*
X10774357Y6940997D01*
X10769851Y6937375D01*
X10759745Y6927974D01*
X10741784Y6945935D01*
X10746844Y6951171D01*
X10754807Y6960547D01*
X10757712Y6964687D01*
X10759897Y6968462D01*
X10761365Y6971871D01*
X10762113Y6974915D01*
X10762144Y6977594D01*
X10761456Y6979908D01*
X10760050Y6981856D01*
X10795666Y6946240D01*
D02*
G37*
G36*
X10515784Y6783687D02*
X10516337Y6779835D01*
X10517257Y6776011D01*
X10518546Y6772216D01*
X10520204Y6768450D01*
X10522229Y6764712D01*
X10524623Y6761002D01*
X10527386Y6757321D01*
X10530516Y6753668D01*
X10534015Y6750044D01*
X10471785D01*
X10475284Y6753668D01*
X10478414Y6757321D01*
X10481177Y6761002D01*
X10483571Y6764712D01*
X10485596Y6768450D01*
X10487254Y6772216D01*
X10488543Y6776011D01*
X10489463Y6779835D01*
X10490016Y6783687D01*
X10490200Y6787567D01*
X10515600D01*
X10515784Y6783687D01*
D02*
G37*
G36*
X10530516Y6682932D02*
X10527386Y6679279D01*
X10524623Y6675598D01*
X10522229Y6671888D01*
X10520204Y6668150D01*
X10518546Y6664384D01*
X10517257Y6660589D01*
X10516337Y6656765D01*
X10515784Y6652913D01*
X10515600Y6649033D01*
X10490200D01*
X10490016Y6652913D01*
X10489463Y6656765D01*
X10488543Y6660589D01*
X10487254Y6664384D01*
X10485596Y6668150D01*
X10483571Y6671888D01*
X10481177Y6675598D01*
X10478414Y6679279D01*
X10475284Y6682932D01*
X10471785Y6686556D01*
X10534015D01*
X10530516Y6682932D01*
D02*
G37*
G36*
X10820527Y6612781D02*
X10820908Y6608411D01*
X10821543Y6604556D01*
X10822432Y6601214D01*
X10823575Y6598387D01*
X10824972Y6596073D01*
X10826623Y6594274D01*
X10828528Y6592989D01*
X10830687Y6592217D01*
X10833100Y6591960D01*
X10782300D01*
X10784713Y6592217D01*
X10786872Y6592989D01*
X10788777Y6594274D01*
X10790428Y6596073D01*
X10791825Y6598387D01*
X10792968Y6601214D01*
X10793857Y6604556D01*
X10794492Y6608411D01*
X10794873Y6612781D01*
X10795000Y6617665D01*
X10820400D01*
X10820527Y6612781D01*
D02*
G37*
G36*
X10515727D02*
X10516108Y6608411D01*
X10516743Y6604556D01*
X10517632Y6601214D01*
X10518775Y6598387D01*
X10520172Y6596073D01*
X10521823Y6594274D01*
X10523728Y6592989D01*
X10525887Y6592217D01*
X10528300Y6591960D01*
X10477500D01*
X10479913Y6592217D01*
X10482072Y6592989D01*
X10483977Y6594274D01*
X10485628Y6596073D01*
X10487025Y6598387D01*
X10488168Y6601214D01*
X10489057Y6604556D01*
X10489692Y6608411D01*
X10490073Y6612781D01*
X10490200Y6617665D01*
X10515600D01*
X10515727Y6612781D01*
D02*
G37*
G36*
X10855607Y6582537D02*
X10856379Y6580378D01*
X10857664Y6578473D01*
X10859463Y6576822D01*
X10861777Y6575425D01*
X10864604Y6574282D01*
X10867946Y6573393D01*
X10871801Y6572758D01*
X10876171Y6572377D01*
X10881055Y6572250D01*
Y6546850D01*
X10876171Y6546723D01*
X10871801Y6546342D01*
X10867946Y6545707D01*
X10864604Y6544818D01*
X10861777Y6543675D01*
X10859463Y6542278D01*
X10857664Y6540627D01*
X10856379Y6538722D01*
X10855607Y6536563D01*
X10855350Y6534150D01*
Y6584950D01*
X10855607Y6582537D01*
D02*
G37*
G36*
X10759745Y6534150D02*
X10759491Y6536563D01*
X10758729Y6538722D01*
X10757459Y6540627D01*
X10755681Y6542278D01*
X10753395Y6543675D01*
X10750601Y6544818D01*
X10747299Y6545707D01*
X10743489Y6546342D01*
X10739171Y6546723D01*
X10734345Y6546850D01*
Y6572250D01*
X10739171Y6572377D01*
X10743489Y6572758D01*
X10747299Y6573393D01*
X10750601Y6574282D01*
X10753395Y6575425D01*
X10755681Y6576822D01*
X10757459Y6578473D01*
X10758729Y6580378D01*
X10759491Y6582537D01*
X10759745Y6584950D01*
Y6534150D01*
D02*
G37*
G36*
X10703509Y6582537D02*
X10704271Y6580378D01*
X10705541Y6578473D01*
X10707319Y6576822D01*
X10709605Y6575425D01*
X10712399Y6574282D01*
X10715701Y6573393D01*
X10719511Y6572758D01*
X10723829Y6572377D01*
X10728655Y6572250D01*
Y6546850D01*
X10723829Y6546723D01*
X10719511Y6546342D01*
X10715701Y6545707D01*
X10712399Y6544818D01*
X10709605Y6543675D01*
X10707319Y6542278D01*
X10705541Y6540627D01*
X10704271Y6538722D01*
X10703509Y6536563D01*
X10703255Y6534150D01*
Y6584950D01*
X10703509Y6582537D01*
D02*
G37*
G36*
X10549144Y6560808D02*
X10548456Y6558494D01*
X10548487Y6555815D01*
X10549235Y6552771D01*
X10550703Y6549362D01*
X10552888Y6545587D01*
X10555793Y6541447D01*
X10559415Y6536941D01*
X10568816Y6526835D01*
X10550855Y6508874D01*
X10545619Y6513934D01*
X10536243Y6521897D01*
X10532103Y6524802D01*
X10528328Y6526987D01*
X10524919Y6528455D01*
X10521875Y6529203D01*
X10519196Y6529234D01*
X10516882Y6528546D01*
X10514934Y6527140D01*
X10550550Y6562756D01*
X10549144Y6560808D01*
D02*
G37*
G36*
X11018064Y6551923D02*
X11027738Y6543662D01*
X11031952Y6540683D01*
X11035752Y6538473D01*
X11039136Y6537030D01*
X11042106Y6536356D01*
X11044661Y6536449D01*
X11046801Y6537311D01*
X11048526Y6538940D01*
X11017910Y6498324D01*
X11019004Y6500585D01*
X11019249Y6503342D01*
X11018645Y6506593D01*
X11017193Y6510340D01*
X11014893Y6514583D01*
X11011744Y6519321D01*
X11007747Y6524554D01*
X10997207Y6536506D01*
X10990665Y6543225D01*
X11012605Y6557206D01*
X11018064Y6551923D01*
D02*
G37*
G36*
X11535487Y7759788D02*
X11533328Y7759017D01*
X11531423Y7757731D01*
X11529772Y7755932D01*
X11528375Y7753619D01*
X11527232Y7750791D01*
X11526343Y7747450D01*
X11525708Y7743594D01*
X11525327Y7739224D01*
X11525200Y7734340D01*
X11499800D01*
X11499673Y7739224D01*
X11499292Y7743594D01*
X11498657Y7747450D01*
X11497768Y7750791D01*
X11496625Y7753619D01*
X11495228Y7755932D01*
X11493577Y7757731D01*
X11491672Y7759017D01*
X11489513Y7759788D01*
X11487100Y7760045D01*
X11537900D01*
X11535487Y7759788D01*
D02*
G37*
G36*
X12446000Y7658100D02*
X12446000Y7454900D01*
X12357100Y7366000D01*
X11609500D01*
X11453712Y7521788D01*
X11450659Y7529159D01*
X11443288Y7532212D01*
X11406000Y7569500D01*
X11371000Y7569500D01*
X11370005Y7569500D01*
X11368167Y7570261D01*
X11366761Y7571667D01*
X11366000Y7573505D01*
X11366000Y7574500D01*
X11366000Y7574500D01*
X11366000Y7644500D01*
X11366000Y7645494D01*
X11366761Y7647332D01*
X11368168Y7648739D01*
X11370005Y7649500D01*
X11371000Y7649500D01*
X11371000Y7649500D01*
X11396982Y7675482D01*
X11497620D01*
X11497621Y7675482D01*
X11505550Y7677059D01*
X11512271Y7681550D01*
X11514221Y7683500D01*
X12420600D01*
X12446000Y7658100D01*
D02*
G37*
G36*
X11344043Y7660535D02*
X11338987Y7655302D01*
X11331028Y7645931D01*
X11328125Y7641792D01*
X11325940Y7638018D01*
X11324472Y7634608D01*
X11323722Y7631563D01*
X11323690Y7628882D01*
X11324375Y7626565D01*
X11325777Y7624614D01*
X11302407Y7648093D01*
X11300557Y7647522D01*
X11299600Y7647709D01*
X11299537Y7648655D01*
X11300368Y7650359D01*
X11302091Y7652823D01*
X11304708Y7656045D01*
X11312622Y7664766D01*
X11324109Y7676523D01*
X11344043Y7660535D01*
D02*
G37*
G36*
X11925300Y8216900D02*
Y7924800D01*
X11912600Y7912100D01*
X11506200D01*
X11442700Y7848600D01*
Y7823200D01*
X11379200Y7759700D01*
X11328400D01*
X11277600Y7708900D01*
Y7581900D01*
X11264900Y7569200D01*
X11239500D01*
X11226800Y7581900D01*
Y7607300D01*
Y7785100D01*
X11315700Y7874000D01*
X11493500Y8051800D01*
Y8140700D01*
X11582400Y8229600D01*
X11912600D01*
X11925300Y8216900D01*
D02*
G37*
G36*
X14679500Y7289500D02*
X14680495D01*
X14682332Y7288739D01*
X14683739Y7287332D01*
X14684500Y7285494D01*
Y7284500D01*
X14684500Y7254500D01*
X14684500Y7254500D01*
Y7253505D01*
X14683739Y7251668D01*
X14682332Y7250261D01*
X14680495Y7249500D01*
X14654500D01*
X14654500Y7249500D01*
X14652550Y7249308D01*
X14648944Y7247815D01*
X14646185Y7245056D01*
X14644691Y7241451D01*
X14644501Y7239500D01*
X14644501Y7214500D01*
X14644501D01*
X14644501Y7213505D01*
X14643739Y7211667D01*
X14642332Y7210261D01*
X14640494Y7209500D01*
X14639500Y7209500D01*
X14609500Y7209500D01*
X14609500D01*
X14608505Y7209500D01*
X14606668Y7210261D01*
X14605261Y7211668D01*
X14604500Y7213505D01*
X14604500Y7214500D01*
X14604500Y7284500D01*
X14604500Y7284500D01*
X14604500Y7285494D01*
X14605261Y7287332D01*
X14606667Y7288739D01*
X14608505Y7289500D01*
X14609500Y7289500D01*
X14679500Y7289500D01*
Y7289500D01*
D02*
G37*
G36*
X14575684Y7243478D02*
X14575240Y7240921D01*
X14575443Y7238068D01*
X14576295Y7234920D01*
X14577798Y7231476D01*
X14579950Y7227736D01*
X14582750Y7223700D01*
X14586198Y7219368D01*
X14595042Y7209818D01*
X14577483Y7191458D01*
X14574329Y7194564D01*
X14561049Y7206225D01*
X14558890Y7207782D01*
X14555069Y7210123D01*
X14553407Y7210907D01*
X14576778Y7245739D01*
X14575684Y7243478D01*
D02*
G37*
G36*
X14796475Y7078446D02*
X14799590Y7076113D01*
X14802943Y7074060D01*
X14806538Y7072288D01*
X14810374Y7070797D01*
X14814450Y7069586D01*
X14818765Y7068655D01*
X14823322Y7068006D01*
X14828119Y7067636D01*
X14833156Y7067548D01*
X14789153Y7023544D01*
X14789064Y7028581D01*
X14788693Y7033378D01*
X14788045Y7037934D01*
X14787114Y7042250D01*
X14785902Y7046326D01*
X14784412Y7050161D01*
X14782640Y7053756D01*
X14780586Y7057111D01*
X14778255Y7060225D01*
X14775641Y7063099D01*
X14793600Y7081059D01*
X14796475Y7078446D01*
D02*
G37*
G36*
X14744827Y6988521D02*
X14745209Y6984151D01*
X14745844Y6980296D01*
X14746732Y6976954D01*
X14747874Y6974127D01*
X14749272Y6971813D01*
X14750923Y6970014D01*
X14752827Y6968729D01*
X14754987Y6967957D01*
X14757401Y6967700D01*
X14706599D01*
X14709013Y6967957D01*
X14711172Y6968729D01*
X14713077Y6970014D01*
X14714728Y6971813D01*
X14716125Y6974127D01*
X14717268Y6976954D01*
X14718156Y6980296D01*
X14718793Y6984151D01*
X14719173Y6988521D01*
X14719299Y6993405D01*
X14744701D01*
X14744827Y6988521D01*
D02*
G37*
G36*
X14935327Y6975769D02*
X14935709Y6971451D01*
X14936343Y6967641D01*
X14937231Y6964339D01*
X14938374Y6961545D01*
X14939772Y6959259D01*
X14941423Y6957481D01*
X14943327Y6956211D01*
X14945486Y6955449D01*
X14947900Y6955195D01*
X14897099D01*
X14899513Y6955449D01*
X14901672Y6956211D01*
X14903577Y6957481D01*
X14905228Y6959259D01*
X14906625Y6961545D01*
X14907768Y6964339D01*
X14908656Y6967641D01*
X14909293Y6971451D01*
X14909673Y6975769D01*
X14909801Y6980595D01*
X14935201D01*
X14935327Y6975769D01*
D02*
G37*
G36*
X14507013Y6965627D02*
X14516353Y6957724D01*
X14520483Y6954850D01*
X14524255Y6952695D01*
X14527669Y6951258D01*
X14530721Y6950540D01*
X14533415D01*
X14535750Y6951258D01*
X14537726Y6952695D01*
X14501805Y6916774D01*
X14503242Y6918750D01*
X14503960Y6921084D01*
Y6923779D01*
X14503242Y6926832D01*
X14501805Y6930244D01*
X14499651Y6934016D01*
X14496776Y6938147D01*
X14493184Y6942637D01*
X14483844Y6952695D01*
X14501805Y6970656D01*
X14507013Y6965627D01*
D02*
G37*
G36*
X14781078Y6955732D02*
X14780952Y6952802D01*
X14781635Y6949427D01*
X14783121Y6945605D01*
X14785413Y6941338D01*
X14788509Y6936625D01*
X14792410Y6931466D01*
X14802629Y6919811D01*
X14808946Y6913315D01*
X14791306Y6895034D01*
X14785678Y6900482D01*
X14775781Y6908942D01*
X14771510Y6911955D01*
X14767693Y6914157D01*
X14764326Y6915548D01*
X14761412Y6916127D01*
X14758951Y6915894D01*
X14756941Y6914850D01*
X14755383Y6912995D01*
X14782005Y6958216D01*
X14781078Y6955732D01*
D02*
G37*
G36*
X14988200Y6593550D02*
X14984576Y6597049D01*
X14980923Y6600180D01*
X14977243Y6602942D01*
X14973534Y6605336D01*
X14969795Y6607361D01*
X14966028Y6609019D01*
X14962233Y6610308D01*
X14958411Y6611229D01*
X14954558Y6611781D01*
X14950677Y6611965D01*
Y6637365D01*
X14954558Y6637549D01*
X14958411Y6638102D01*
X14962233Y6639023D01*
X14966028Y6640312D01*
X14969795Y6641969D01*
X14973534Y6643995D01*
X14977243Y6646389D01*
X14980923Y6649151D01*
X14984576Y6652281D01*
X14988200Y6655780D01*
Y6593550D01*
D02*
G37*
G36*
X15064481Y6619184D02*
X15064850Y6614387D01*
X15065500Y6609831D01*
X15066431Y6605515D01*
X15067642Y6601440D01*
X15069133Y6597604D01*
X15070905Y6594009D01*
X15072958Y6590655D01*
X15075291Y6587540D01*
X15077904Y6584666D01*
X15059944Y6566706D01*
X15057069Y6569319D01*
X15053955Y6571652D01*
X15050601Y6573705D01*
X15047006Y6575477D01*
X15043170Y6576968D01*
X15039095Y6578179D01*
X15034779Y6579110D01*
X15030223Y6579760D01*
X15025426Y6580129D01*
X15020389Y6580217D01*
X15064394Y6624221D01*
X15064481Y6619184D01*
D02*
G37*
G36*
X14643199Y6536639D02*
X14643987Y6528511D01*
X14644678Y6525209D01*
X14645564Y6522415D01*
X14646648Y6520129D01*
X14647929Y6518351D01*
X14649406Y6517081D01*
X14651083Y6516319D01*
X14652956Y6516065D01*
X14605000Y6515760D01*
X14607413Y6516032D01*
X14609572Y6516814D01*
X14611478Y6518108D01*
X14613129Y6519912D01*
X14614525Y6522227D01*
X14615668Y6525053D01*
X14616557Y6528390D01*
X14617192Y6532237D01*
X14617574Y6536596D01*
X14617700Y6541465D01*
X14643100D01*
X14643199Y6536639D01*
D02*
G37*
G36*
X15133752Y6528997D02*
X15143092Y6521094D01*
X15147224Y6518220D01*
X15150995Y6516065D01*
X15154408Y6514628D01*
X15157462Y6513910D01*
X15160155D01*
X15162489Y6514628D01*
X15164465Y6516065D01*
X15128545Y6480144D01*
X15129982Y6482120D01*
X15130701Y6484455D01*
Y6487149D01*
X15129982Y6490202D01*
X15128545Y6493615D01*
X15126390Y6497386D01*
X15123515Y6501517D01*
X15119923Y6506007D01*
X15110583Y6516065D01*
X15128545Y6534026D01*
X15133752Y6528997D01*
D02*
G37*
G36*
X14938350Y6457950D02*
X14938094Y6460363D01*
X14937321Y6462522D01*
X14936037Y6464427D01*
X14934238Y6466078D01*
X14931923Y6467475D01*
X14929095Y6468618D01*
X14925754Y6469507D01*
X14921899Y6470142D01*
X14917529Y6470523D01*
X14912645Y6470650D01*
Y6496050D01*
X14917529Y6496177D01*
X14921899Y6496558D01*
X14925754Y6497193D01*
X14929095Y6498082D01*
X14931923Y6499225D01*
X14934238Y6500622D01*
X14936037Y6502273D01*
X14937321Y6504178D01*
X14938094Y6506337D01*
X14938350Y6508750D01*
Y6457950D01*
D02*
G37*
G36*
X14835449Y6505887D02*
X14836211Y6503823D01*
X14837482Y6502001D01*
X14839259Y6500422D01*
X14841545Y6499086D01*
X14844339Y6497993D01*
X14847641Y6497143D01*
X14851451Y6496536D01*
X14855769Y6496171D01*
X14860596Y6496050D01*
Y6470650D01*
X14855725Y6470523D01*
X14851366Y6470142D01*
X14847517Y6469507D01*
X14844180Y6468618D01*
X14841354Y6467475D01*
X14839040Y6466078D01*
X14837236Y6464427D01*
X14835944Y6462522D01*
X14835161Y6460363D01*
X14834891Y6457950D01*
X14835194Y6508195D01*
X14835449Y6505887D01*
D02*
G37*
G36*
X14652907Y6506337D02*
X14653679Y6504178D01*
X14654964Y6502273D01*
X14656763Y6500622D01*
X14659077Y6499225D01*
X14661903Y6498082D01*
X14665247Y6497193D01*
X14669101Y6496558D01*
X14673471Y6496177D01*
X14678355Y6496050D01*
Y6477220D01*
X14706599Y6496050D01*
X14730405Y6480180D01*
Y6496050D01*
X14735231Y6496171D01*
X14739549Y6496536D01*
X14743359Y6497143D01*
X14746661Y6497993D01*
X14749455Y6499086D01*
X14751741Y6500422D01*
X14753519Y6502001D01*
X14754790Y6503823D01*
X14755551Y6505887D01*
X14755804Y6508195D01*
X14756110Y6457950D01*
X14755840Y6460363D01*
X14755057Y6462522D01*
X14753764Y6464427D01*
X14751961Y6466078D01*
X14749644Y6467475D01*
X14746819Y6468618D01*
X14743481Y6469507D01*
X14739635Y6470142D01*
X14738832Y6470212D01*
X14735556Y6469634D01*
X14731746Y6468364D01*
X14728444Y6466586D01*
X14725650Y6464300D01*
X14723364Y6461506D01*
X14721587Y6458204D01*
X14720316Y6454394D01*
X14719554Y6450076D01*
X14719299Y6445250D01*
X14693900D01*
X14693646Y6450076D01*
X14692883Y6454394D01*
X14691614Y6458204D01*
X14689836Y6461506D01*
X14687550Y6464300D01*
X14684756Y6466586D01*
X14681454Y6468364D01*
X14677644Y6469634D01*
X14673326Y6470396D01*
X14672508Y6470439D01*
X14669101Y6470142D01*
X14665247Y6469507D01*
X14661903Y6468618D01*
X14659077Y6467475D01*
X14656763Y6466078D01*
X14654964Y6464427D01*
X14653679Y6462522D01*
X14652907Y6460363D01*
X14652650Y6457950D01*
Y6508750D01*
X14652907Y6506337D01*
D02*
G37*
G36*
X15051917Y6376365D02*
X15046887Y6371157D01*
X15038985Y6361817D01*
X15036110Y6357686D01*
X15033955Y6353915D01*
X15032518Y6350502D01*
X15031799Y6347449D01*
Y6344755D01*
X15032518Y6342420D01*
X15033955Y6340444D01*
X14998035Y6376365D01*
X15000011Y6374928D01*
X15002345Y6374210D01*
X15005038D01*
X15008092Y6374928D01*
X15011505Y6376365D01*
X15015276Y6378520D01*
X15019408Y6381394D01*
X15023897Y6384986D01*
X15033955Y6394326D01*
X15051917Y6376365D01*
D02*
G37*
G36*
X14719359Y6196269D02*
X14720242Y6184839D01*
X14720773Y6182045D01*
X14721422Y6179759D01*
X14722188Y6177981D01*
X14723073Y6176711D01*
X14724075Y6175949D01*
X14725195Y6175695D01*
X14681200D01*
X14683614Y6175949D01*
X14685773Y6176711D01*
X14687677Y6177981D01*
X14689328Y6179759D01*
X14690726Y6182045D01*
X14691869Y6184839D01*
X14692757Y6188141D01*
X14693391Y6191951D01*
X14693773Y6196269D01*
X14693900Y6201095D01*
X14719299D01*
X14719359Y6196269D01*
D02*
G37*
G36*
X11441000Y7289500D02*
X11441995D01*
X11443832Y7288739D01*
X11445239Y7287332D01*
X11446000Y7285494D01*
Y7284500D01*
X11446000Y7254500D01*
X11446000Y7254500D01*
Y7253505D01*
X11445238Y7251668D01*
X11443832Y7250261D01*
X11441994Y7249500D01*
X11429359D01*
X11431447Y7247317D01*
X11417229Y7225614D01*
X11414088Y7228648D01*
X11408089Y7233787D01*
X11406000Y7235326D01*
X11406000Y7214500D01*
X11406000D01*
X11406000Y7213505D01*
X11405239Y7211667D01*
X11403832Y7210261D01*
X11401994Y7209500D01*
X11401000Y7209500D01*
X11371000Y7209500D01*
X11371000D01*
X11370005Y7209500D01*
X11368168Y7210261D01*
X11366761Y7211668D01*
X11366000Y7213505D01*
X11366000Y7214500D01*
X11366000Y7284500D01*
X11366000Y7284500D01*
X11366000Y7285494D01*
X11366761Y7287332D01*
X11368167Y7288739D01*
X11370005Y7289500D01*
X11371000Y7289500D01*
X11441000Y7289500D01*
Y7289500D01*
D02*
G37*
G36*
X11451428Y7227616D02*
X11454588Y7225297D01*
X11457953Y7223332D01*
X11461523Y7221722D01*
X11465300Y7220467D01*
X11469281Y7219566D01*
X11473469Y7219020D01*
X11477861Y7218829D01*
X11482460Y7218992D01*
X11487264Y7219510D01*
X11449374Y7170145D01*
X11448630Y7175321D01*
X11446546Y7184869D01*
X11445205Y7189242D01*
X11443665Y7193347D01*
X11441927Y7197185D01*
X11439989Y7200755D01*
X11437852Y7204058D01*
X11435517Y7207093D01*
X11432982Y7209861D01*
X11448474Y7230290D01*
X11451428Y7227616D01*
D02*
G37*
G36*
X11288827Y7039321D02*
X11289208Y7034951D01*
X11289843Y7031096D01*
X11290732Y7027754D01*
X11291875Y7024927D01*
X11293272Y7022613D01*
X11294923Y7020814D01*
X11296828Y7019529D01*
X11298987Y7018757D01*
X11301400Y7018500D01*
X11250600D01*
X11253013Y7018757D01*
X11255172Y7019529D01*
X11257077Y7020814D01*
X11258728Y7022613D01*
X11260125Y7024927D01*
X11261268Y7027754D01*
X11262157Y7031096D01*
X11262792Y7034951D01*
X11263173Y7039321D01*
X11263300Y7044205D01*
X11288700D01*
X11288827Y7039321D01*
D02*
G37*
G36*
X11170156Y7003495D02*
X11165127Y6998286D01*
X11157224Y6988947D01*
X11154350Y6984816D01*
X11152195Y6981044D01*
X11150758Y6977632D01*
X11150040Y6974579D01*
Y6971884D01*
X11150758Y6969550D01*
X11152195Y6967574D01*
X11116274Y7003495D01*
X11118250Y7002058D01*
X11120585Y7001340D01*
X11123279D01*
X11126332Y7002058D01*
X11129745Y7003495D01*
X11133516Y7005650D01*
X11137647Y7008524D01*
X11142137Y7012116D01*
X11152195Y7021456D01*
X11170156Y7003495D01*
D02*
G37*
G36*
X11380341Y7013896D02*
X11389717Y7005933D01*
X11393857Y7003028D01*
X11397632Y7000843D01*
X11401041Y6999375D01*
X11404085Y6998627D01*
X11406764Y6998596D01*
X11409078Y6999284D01*
X11411026Y7000690D01*
X11375410Y6965074D01*
X11376816Y6967022D01*
X11377504Y6969336D01*
X11377473Y6972015D01*
X11376725Y6975059D01*
X11375257Y6978468D01*
X11373071Y6982243D01*
X11370167Y6986383D01*
X11366545Y6990888D01*
X11357144Y7000995D01*
X11375105Y7018956D01*
X11380341Y7013896D01*
D02*
G37*
G36*
X11682938Y7016176D02*
X11692607Y7007920D01*
X11696820Y7004943D01*
X11700619Y7002733D01*
X11704004Y7001290D01*
X11706975Y7000614D01*
X11709532Y7000706D01*
X11711675Y7001564D01*
X11713403Y7003190D01*
X11682710Y6962652D01*
X11683807Y6964909D01*
X11684054Y6967663D01*
X11683453Y6970913D01*
X11682002Y6974659D01*
X11679702Y6978901D01*
X11676553Y6983639D01*
X11672555Y6988873D01*
X11662010Y7000830D01*
X11655464Y7007553D01*
X11677482Y7021456D01*
X11682938Y7016176D01*
D02*
G37*
G36*
X11477456Y6885995D02*
X11472396Y6880759D01*
X11464433Y6871383D01*
X11461529Y6867243D01*
X11459343Y6863468D01*
X11457875Y6860059D01*
X11457127Y6857015D01*
X11457096Y6854336D01*
X11457784Y6852022D01*
X11459190Y6850074D01*
X11423574Y6885690D01*
X11425522Y6884284D01*
X11427836Y6883596D01*
X11430515Y6883627D01*
X11433559Y6884375D01*
X11436968Y6885843D01*
X11440743Y6888028D01*
X11444883Y6890933D01*
X11449389Y6894555D01*
X11459495Y6903956D01*
X11477456Y6885995D01*
D02*
G37*
G36*
X15684500Y7658100D02*
Y7340600D01*
X14873399D01*
X14692212Y7521788D01*
X14689159Y7529159D01*
X14681789Y7532212D01*
X14644501Y7569500D01*
X14609500Y7569500D01*
X14608505Y7569500D01*
X14606667Y7570261D01*
X14605261Y7571667D01*
X14604500Y7573505D01*
X14604500Y7574500D01*
X14604500Y7574500D01*
X14604500Y7644500D01*
X14604500Y7645494D01*
X14605261Y7647332D01*
X14606668Y7648739D01*
X14608505Y7649500D01*
X14609500Y7649500D01*
X14609500Y7649500D01*
X14643500Y7683500D01*
X15659100D01*
X15684500Y7658100D01*
D02*
G37*
G36*
X15125827Y6981081D02*
X15126208Y6976711D01*
X15126843Y6972856D01*
X15127731Y6969514D01*
X15128876Y6966687D01*
X15130272Y6964373D01*
X15131923Y6962574D01*
X15133829Y6961289D01*
X15135986Y6960517D01*
X15138400Y6960260D01*
X15087601D01*
X15090013Y6960517D01*
X15092172Y6961289D01*
X15094077Y6962574D01*
X15095728Y6964373D01*
X15097125Y6966687D01*
X15098268Y6969514D01*
X15099158Y6972856D01*
X15099792Y6976711D01*
X15100172Y6981081D01*
X15100301Y6985965D01*
X15125700D01*
X15125827Y6981081D01*
D02*
G37*
G36*
X15051717Y6987732D02*
X15048586Y6984079D01*
X15045824Y6980398D01*
X15043430Y6976688D01*
X15041405Y6972950D01*
X15039746Y6969184D01*
X15038457Y6965389D01*
X15037537Y6961565D01*
X15036984Y6957713D01*
X15036800Y6953833D01*
X15011400D01*
X15011217Y6957713D01*
X15010663Y6961565D01*
X15009743Y6965389D01*
X15008453Y6969184D01*
X15006796Y6972950D01*
X15004771Y6976688D01*
X15002377Y6980398D01*
X14999614Y6984079D01*
X14996484Y6987732D01*
X14992986Y6991356D01*
X15055215D01*
X15051717Y6987732D01*
D02*
G37*
G36*
X15070280Y6833766D02*
X15079657Y6825803D01*
X15083797Y6822898D01*
X15087572Y6820713D01*
X15090981Y6819245D01*
X15094025Y6818497D01*
X15096704Y6818466D01*
X15099017Y6819154D01*
X15100966Y6820560D01*
X15065350Y6784944D01*
X15066756Y6786892D01*
X15067444Y6789206D01*
X15067413Y6791885D01*
X15066666Y6794929D01*
X15065198Y6798338D01*
X15063013Y6802113D01*
X15060107Y6806253D01*
X15056485Y6810759D01*
X15047084Y6820865D01*
X15065045Y6838826D01*
X15070280Y6833766D01*
D02*
G37*
G36*
X14219501Y7289500D02*
X14220496Y7289500D01*
X14222331Y7288739D01*
X14223740Y7287332D01*
X14224500Y7285494D01*
X14224500Y7284500D01*
X14224500Y7284500D01*
X14224500Y7214500D01*
X14224500Y7213505D01*
X14223740Y7211668D01*
X14222331Y7210261D01*
X14220494Y7209500D01*
X14219501Y7209500D01*
X14189500Y7209500D01*
X14188506Y7209500D01*
X14186668Y7210261D01*
X14185262Y7211667D01*
X14184500Y7213505D01*
X14184500Y7214500D01*
Y7214500D01*
X14184500Y7239500D01*
X14184308Y7241451D01*
X14182816Y7245056D01*
X14180623Y7247247D01*
X14175208Y7247684D01*
X14158749Y7248050D01*
X14158447Y7249500D01*
X14148505D01*
X14146667Y7250261D01*
X14145261Y7251668D01*
X14144501Y7253505D01*
Y7254500D01*
Y7254500D01*
Y7284500D01*
Y7285494D01*
X14145261Y7287332D01*
X14146667Y7288739D01*
X14148505Y7289500D01*
X14149500D01*
X14149500Y7289500D01*
X14219501Y7289500D01*
D02*
G37*
G36*
X14275594Y7210907D02*
X14273930Y7210123D01*
X14272104Y7209082D01*
X14270110Y7207782D01*
X14265627Y7204409D01*
X14260480Y7200003D01*
X14251518Y7191458D01*
X14233958Y7209818D01*
X14238704Y7214741D01*
X14246249Y7223700D01*
X14249049Y7227736D01*
X14251201Y7231476D01*
X14252704Y7234920D01*
X14253557Y7238068D01*
X14253761Y7240921D01*
X14253316Y7243478D01*
X14252223Y7245739D01*
X14275594Y7210907D01*
D02*
G37*
G36*
X14147005Y6968005D02*
X14109210Y6967700D01*
X14111623Y6967976D01*
X14113782Y6968761D01*
X14115688Y6970057D01*
X14117339Y6971862D01*
X14118735Y6974178D01*
X14119878Y6977003D01*
X14120767Y6980339D01*
X14121402Y6984184D01*
X14121783Y6988540D01*
X14121910Y6993405D01*
X14147310D01*
X14147005Y6968005D01*
D02*
G37*
G36*
X14353416Y6960565D02*
X14348357Y6955329D01*
X14340393Y6945953D01*
X14337488Y6941813D01*
X14335303Y6938038D01*
X14333835Y6934629D01*
X14333087Y6931585D01*
X14333057Y6928962D01*
X14335150Y6931056D01*
X14333743Y6929108D01*
X14333369Y6927850D01*
X14333743Y6926592D01*
X14335150Y6924644D01*
X14333057Y6926738D01*
X14333087Y6924115D01*
X14333835Y6921071D01*
X14335303Y6917662D01*
X14337488Y6913887D01*
X14340393Y6909747D01*
X14344016Y6905241D01*
X14353416Y6895135D01*
X14335455Y6877174D01*
X14330219Y6882234D01*
X14320844Y6890197D01*
X14316702Y6893102D01*
X14312927Y6895287D01*
X14309518Y6896755D01*
X14306474Y6897503D01*
X14303796Y6897534D01*
X14301482Y6896846D01*
X14299535Y6895440D01*
X14331944Y6927850D01*
X14299535Y6960260D01*
X14301482Y6958854D01*
X14303796Y6958166D01*
X14306474Y6958197D01*
X14309518Y6958945D01*
X14312927Y6960413D01*
X14316702Y6962598D01*
X14320844Y6965503D01*
X14325349Y6969125D01*
X14335455Y6978526D01*
X14353416Y6960565D01*
D02*
G37*
G36*
X14082916Y6913300D02*
X14080968Y6914706D01*
X14078654Y6915394D01*
X14075975Y6915363D01*
X14072931Y6914615D01*
X14069522Y6913147D01*
X14065747Y6910962D01*
X14061607Y6908057D01*
X14057101Y6904435D01*
X14046996Y6895034D01*
X14029034Y6912995D01*
X14034094Y6918231D01*
X14042056Y6927607D01*
X14044962Y6931747D01*
X14047147Y6935522D01*
X14048615Y6938931D01*
X14049364Y6941975D01*
X14049394Y6944654D01*
X14048706Y6946968D01*
X14047301Y6948916D01*
X14082916Y6913300D01*
D02*
G37*
G36*
X13718416Y6820865D02*
X13713387Y6815657D01*
X13705484Y6806317D01*
X13702609Y6802186D01*
X13700455Y6798415D01*
X13699017Y6795002D01*
X13698300Y6791949D01*
Y6789255D01*
X13699017Y6786920D01*
X13700455Y6784944D01*
X13664534Y6820865D01*
X13666510Y6819428D01*
X13668845Y6818710D01*
X13671539D01*
X13674593Y6819428D01*
X13678004Y6820865D01*
X13681776Y6823020D01*
X13685907Y6825894D01*
X13690398Y6829486D01*
X13700455Y6838826D01*
X13718416Y6820865D01*
D02*
G37*
G36*
X13932005Y6780044D02*
X13929391Y6777170D01*
X13927058Y6774056D01*
X13925006Y6770701D01*
X13923235Y6767106D01*
X13921742Y6763271D01*
X13920531Y6759196D01*
X13919601Y6754880D01*
X13918951Y6750323D01*
X13918582Y6745527D01*
X13918494Y6740490D01*
X13874490Y6784493D01*
X13879527Y6784582D01*
X13884325Y6784951D01*
X13888879Y6785601D01*
X13893196Y6786531D01*
X13897272Y6787742D01*
X13901106Y6789234D01*
X13904701Y6791006D01*
X13908057Y6793058D01*
X13911171Y6795391D01*
X13914046Y6798005D01*
X13932005Y6780044D01*
D02*
G37*
G36*
X13873601Y6695598D02*
X13868564Y6695509D01*
X13863768Y6695140D01*
X13859212Y6694490D01*
X13854897Y6693560D01*
X13850819Y6692349D01*
X13846985Y6690857D01*
X13843390Y6689085D01*
X13840034Y6687033D01*
X13836922Y6684700D01*
X13834047Y6682086D01*
X13816086Y6700047D01*
X13818700Y6702921D01*
X13821033Y6706035D01*
X13823085Y6709390D01*
X13824858Y6712985D01*
X13826349Y6716820D01*
X13827560Y6720895D01*
X13828490Y6725211D01*
X13829140Y6729768D01*
X13829509Y6734564D01*
X13829597Y6739601D01*
X13873601Y6695598D01*
D02*
G37*
G36*
X14211427Y6536596D02*
X14211807Y6532237D01*
X14212444Y6528390D01*
X14213332Y6525053D01*
X14214474Y6522227D01*
X14215872Y6519912D01*
X14217523Y6518108D01*
X14219427Y6516814D01*
X14221587Y6516032D01*
X14224001Y6515760D01*
X14176045Y6516065D01*
X14177917Y6516319D01*
X14179593Y6517081D01*
X14181071Y6518351D01*
X14182352Y6520129D01*
X14183437Y6522415D01*
X14184323Y6525209D01*
X14185013Y6528511D01*
X14185506Y6532321D01*
X14185802Y6536639D01*
X14185899Y6541465D01*
X14211301D01*
X14211427Y6536596D01*
D02*
G37*
G36*
X13686398Y6535063D02*
X13686723Y6531012D01*
X13687265Y6527437D01*
X13688023Y6524340D01*
X13688998Y6521718D01*
X13690189Y6519573D01*
X13691595Y6517905D01*
X13693221Y6516714D01*
X13695061Y6515999D01*
X13697118Y6515760D01*
X13650066D01*
X13652122Y6515999D01*
X13653963Y6516714D01*
X13655586Y6517905D01*
X13656995Y6519573D01*
X13658185Y6521718D01*
X13659158Y6524340D01*
X13659917Y6527437D01*
X13660458Y6531012D01*
X13660783Y6535063D01*
X13660892Y6539591D01*
X13686292D01*
X13686398Y6535063D01*
D02*
G37*
G36*
X14176350Y6457950D02*
X14176093Y6460363D01*
X14175320Y6462522D01*
X14174036Y6464427D01*
X14172237Y6466078D01*
X14169923Y6467475D01*
X14167096Y6468618D01*
X14163754Y6469507D01*
X14160252Y6470084D01*
X14157706Y6469634D01*
X14153896Y6468364D01*
X14150594Y6466586D01*
X14147800Y6464300D01*
X14145514Y6461506D01*
X14143736Y6458204D01*
X14142467Y6454394D01*
X14141704Y6450076D01*
X14141451Y6445250D01*
X14116051D01*
X14115796Y6450076D01*
X14115034Y6454394D01*
X14113763Y6458204D01*
X14111986Y6461506D01*
X14109700Y6464300D01*
X14106906Y6466586D01*
X14103604Y6468364D01*
X14099794Y6469634D01*
X14097247Y6470084D01*
X14093745Y6469507D01*
X14090404Y6468618D01*
X14087576Y6467475D01*
X14085263Y6466078D01*
X14083464Y6464427D01*
X14082179Y6462522D01*
X14081407Y6460363D01*
X14081149Y6457950D01*
Y6508750D01*
X14081407Y6506337D01*
X14082179Y6504178D01*
X14083464Y6502273D01*
X14085263Y6500622D01*
X14087576Y6499225D01*
X14090404Y6498082D01*
X14093745Y6497193D01*
X14097601Y6496558D01*
X14101971Y6496177D01*
X14106854Y6496050D01*
Y6481453D01*
X14128751Y6496050D01*
X14150645Y6481453D01*
Y6496050D01*
X14155528Y6496177D01*
X14159898Y6496558D01*
X14163754Y6497193D01*
X14167096Y6498082D01*
X14169923Y6499225D01*
X14172237Y6500622D01*
X14174036Y6502273D01*
X14175320Y6504178D01*
X14176093Y6506337D01*
X14176350Y6508750D01*
Y6457950D01*
D02*
G37*
G36*
X13985545D02*
X13985291Y6460363D01*
X13984529Y6462522D01*
X13983260Y6464427D01*
X13981480Y6466078D01*
X13979195Y6467475D01*
X13976401Y6468618D01*
X13973099Y6469507D01*
X13969289Y6470142D01*
X13964970Y6470523D01*
X13960146Y6470650D01*
Y6496050D01*
X13964970Y6496177D01*
X13969289Y6496558D01*
X13973099Y6497193D01*
X13976401Y6498082D01*
X13979195Y6499225D01*
X13981480Y6500622D01*
X13983260Y6502273D01*
X13984529Y6504178D01*
X13985291Y6506337D01*
X13985545Y6508750D01*
Y6457950D01*
D02*
G37*
G36*
X13891209Y6506337D02*
X13891971Y6504178D01*
X13893240Y6502273D01*
X13895020Y6500622D01*
X13897305Y6499225D01*
X13900099Y6498082D01*
X13903401Y6497193D01*
X13907211Y6496558D01*
X13911530Y6496177D01*
X13916354Y6496050D01*
Y6470650D01*
X13911530Y6470523D01*
X13907211Y6470142D01*
X13903401Y6469507D01*
X13900099Y6468618D01*
X13897305Y6467475D01*
X13895020Y6466078D01*
X13893240Y6464427D01*
X13891971Y6462522D01*
X13891209Y6460363D01*
X13890955Y6457950D01*
Y6508750D01*
X13891209Y6506337D01*
D02*
G37*
G36*
X14431824Y6485510D02*
X14432362Y6480653D01*
X14433261Y6475945D01*
X14434518Y6471386D01*
X14436134Y6466976D01*
X14438110Y6462714D01*
X14440445Y6458601D01*
X14443140Y6454637D01*
X14446193Y6450822D01*
X14449605Y6447155D01*
X14436905Y6423934D01*
X14433313Y6427167D01*
X14429721Y6429682D01*
X14426129Y6431478D01*
X14422537Y6432555D01*
X14418945Y6432914D01*
X14415353Y6432555D01*
X14411761Y6431478D01*
X14408170Y6429682D01*
X14404576Y6427167D01*
X14400984Y6423934D01*
X14388284Y6447155D01*
X14391698Y6450822D01*
X14394749Y6454637D01*
X14397444Y6458601D01*
X14399779Y6462714D01*
X14401755Y6466976D01*
X14403371Y6471386D01*
X14404628Y6475945D01*
X14405527Y6480653D01*
X14406065Y6485510D01*
X14406245Y6490516D01*
X14431645D01*
X14431824Y6485510D01*
D02*
G37*
G36*
X13800281Y6389266D02*
X13809657Y6381303D01*
X13813797Y6378398D01*
X13817572Y6376213D01*
X13820981Y6374745D01*
X13824025Y6373997D01*
X13826704Y6373966D01*
X13829018Y6374654D01*
X13830966Y6376060D01*
X13795351Y6340444D01*
X13796756Y6342392D01*
X13797444Y6344706D01*
X13797414Y6347385D01*
X13796664Y6350429D01*
X13795197Y6353838D01*
X13793011Y6357613D01*
X13790108Y6361753D01*
X13786485Y6366259D01*
X13777084Y6376365D01*
X13795045Y6394326D01*
X13800281Y6389266D01*
D02*
G37*
G36*
X14557045Y6321755D02*
X14556810Y6323812D01*
X14556104Y6325653D01*
X14554927Y6327276D01*
X14553281Y6328684D01*
X14551163Y6329875D01*
X14548575Y6330849D01*
X14545517Y6331607D01*
X14541988Y6332148D01*
X14537988Y6332473D01*
X14533519Y6332581D01*
Y6357981D01*
X14537988Y6358089D01*
X14541988Y6358414D01*
X14545517Y6358955D01*
X14548575Y6359713D01*
X14551163Y6360687D01*
X14553281Y6361878D01*
X14554927Y6363285D01*
X14556104Y6364909D01*
X14556810Y6366750D01*
X14557045Y6368807D01*
Y6321755D01*
D02*
G37*
G36*
X14272209Y6366637D02*
X14272971Y6364478D01*
X14274242Y6362573D01*
X14276019Y6360922D01*
X14278305Y6359525D01*
X14281099Y6358382D01*
X14284401Y6357493D01*
X14288211Y6356858D01*
X14292529Y6356477D01*
X14297356Y6356350D01*
Y6330950D01*
X14292529Y6330823D01*
X14288211Y6330442D01*
X14284401Y6329807D01*
X14281099Y6328918D01*
X14278305Y6327775D01*
X14276019Y6326378D01*
X14274242Y6324727D01*
X14272971Y6322822D01*
X14272209Y6320663D01*
X14271954Y6318250D01*
Y6369050D01*
X14272209Y6366637D01*
D02*
G37*
G36*
X13698744Y6344908D02*
X13698056Y6342594D01*
X13698087Y6339915D01*
X13698836Y6336871D01*
X13700304Y6333462D01*
X13702489Y6329687D01*
X13705392Y6325547D01*
X13709015Y6321041D01*
X13718416Y6310935D01*
X13700455Y6292974D01*
X13695219Y6298034D01*
X13685843Y6305997D01*
X13681703Y6308902D01*
X13677928Y6311087D01*
X13674519Y6312555D01*
X13671475Y6313303D01*
X13668796Y6313334D01*
X13666483Y6312646D01*
X13664534Y6311240D01*
X13700150Y6346856D01*
X13698744Y6344908D01*
D02*
G37*
G36*
X13799042Y6268596D02*
X13808417Y6260633D01*
X13812556Y6257728D01*
X13816331Y6255543D01*
X13819740Y6254075D01*
X13822784Y6253327D01*
X13825464Y6253296D01*
X13827779Y6253984D01*
X13829726Y6255390D01*
X13794110Y6219774D01*
X13795515Y6221722D01*
X13796204Y6224036D01*
X13796175Y6226715D01*
X13795425Y6229759D01*
X13793958Y6233168D01*
X13791772Y6236943D01*
X13788869Y6241083D01*
X13785245Y6245588D01*
X13775844Y6255695D01*
X13793805Y6273656D01*
X13799042Y6268596D01*
D02*
G37*
G36*
X14141577Y6196225D02*
X14141959Y6191866D01*
X14142593Y6188018D01*
X14143481Y6184681D01*
X14144624Y6181855D01*
X14146022Y6179540D01*
X14147673Y6177736D01*
X14149577Y6176443D01*
X14151736Y6175661D01*
X14154150Y6175390D01*
X14103806Y6175695D01*
X14106133Y6175949D01*
X14108212Y6176711D01*
X14110049Y6177981D01*
X14111642Y6179759D01*
X14112988Y6182045D01*
X14114091Y6184839D01*
X14114948Y6188141D01*
X14115559Y6191951D01*
X14115929Y6196269D01*
X14116051Y6201095D01*
X14141451D01*
X14141577Y6196225D01*
D02*
G37*
G36*
X10525887Y6387183D02*
X10523728Y6386411D01*
X10521823Y6385126D01*
X10520172Y6383327D01*
X10518775Y6381013D01*
X10517632Y6378186D01*
X10516743Y6374844D01*
X10516108Y6370989D01*
X10515727Y6366619D01*
X10515600Y6361735D01*
X10490200D01*
X10490073Y6366619D01*
X10489692Y6370989D01*
X10489057Y6374844D01*
X10488168Y6378186D01*
X10487025Y6381013D01*
X10485628Y6383327D01*
X10483977Y6385126D01*
X10482072Y6386411D01*
X10479913Y6387183D01*
X10477500Y6387440D01*
X10528300D01*
X10525887Y6387183D01*
D02*
G37*
G36*
X11393526Y6300160D02*
X11391578Y6301566D01*
X11389264Y6302254D01*
X11386586Y6302223D01*
X11383541Y6301475D01*
X11380132Y6300007D01*
X11376357Y6297822D01*
X11372217Y6294917D01*
X11367712Y6291295D01*
X11357605Y6281894D01*
X11339645Y6299855D01*
X11344704Y6305091D01*
X11352668Y6314467D01*
X11355572Y6318607D01*
X11357758Y6322382D01*
X11359225Y6325791D01*
X11359974Y6328835D01*
X11360004Y6331514D01*
X11359316Y6333828D01*
X11357910Y6335776D01*
X11393526Y6300160D01*
D02*
G37*
G36*
X15163927Y6310964D02*
X15161768Y6310179D01*
X15159863Y6308883D01*
X15158212Y6307078D01*
X15156815Y6304762D01*
X15155672Y6301937D01*
X15154784Y6298601D01*
X15154147Y6294756D01*
X15153767Y6290400D01*
X15153641Y6285535D01*
X15128239D01*
X15128545Y6310935D01*
X15166341Y6311240D01*
X15163927Y6310964D01*
D02*
G37*
G36*
X15053156Y6055695D02*
X15048128Y6050487D01*
X15040224Y6041147D01*
X15037350Y6037016D01*
X15035194Y6033244D01*
X15033759Y6029832D01*
X15033040Y6026779D01*
Y6024084D01*
X15033759Y6021750D01*
X15035194Y6019774D01*
X14999274Y6055695D01*
X15001250Y6054258D01*
X15003584Y6053540D01*
X15006279D01*
X15009332Y6054258D01*
X15012744Y6055695D01*
X15016516Y6057850D01*
X15020647Y6060724D01*
X15025137Y6064316D01*
X15035194Y6073656D01*
X15053156Y6055695D01*
D02*
G37*
D10*
X14033501Y6343650D02*
D03*
Y6483350D02*
D03*
X14224001D02*
D03*
Y6343650D02*
D03*
X13842999Y6483350D02*
D03*
Y6343650D02*
D03*
X13652499D02*
D03*
Y6483350D02*
D03*
X14287500Y6927850D02*
D03*
X14605000Y6343650D02*
D03*
X10960100Y6838950D02*
D03*
X10807700Y6419850D02*
D03*
X14287500Y6788150D02*
D03*
X15113000Y6927850D02*
D03*
Y6788150D02*
D03*
X13652499Y6927850D02*
D03*
Y6788150D02*
D03*
X15176500Y6343650D02*
D03*
Y6483350D02*
D03*
X14986000D02*
D03*
Y6343650D02*
D03*
X14605000Y6483350D02*
D03*
X10960100Y6978650D02*
D03*
X9817100Y7454800D02*
D03*
Y7594500D02*
D03*
X10807700Y6838950D02*
D03*
Y6978650D02*
D03*
Y6559550D02*
D03*
X10655300Y6419850D02*
D03*
Y6559550D02*
D03*
X10502900Y6419850D02*
D03*
Y6559550D02*
D03*
D11*
X13853500Y6196000D02*
D03*
Y5996000D02*
D03*
X11417300Y6559550D02*
D03*
X14975500Y6196000D02*
D03*
Y5996000D02*
D03*
X11417300Y6359550D02*
D03*
D12*
X14178500Y6096000D02*
D03*
X14650500D02*
D03*
X11092300Y6459550D02*
D03*
D13*
X14364500Y7249500D02*
D03*
X14314500D02*
D03*
X14264500D02*
D03*
X11176000D02*
D03*
Y7609500D02*
D03*
X14414500D02*
D03*
Y7249500D02*
D03*
X14552000Y7609500D02*
D03*
X14489500D02*
D03*
X14339500D02*
D03*
X14277000D02*
D03*
X14464500Y7249500D02*
D03*
X14514500D02*
D03*
X14564500D02*
D03*
X11326000D02*
D03*
X11276000D02*
D03*
X11226000D02*
D03*
X11126000D02*
D03*
X11076000D02*
D03*
X11026000D02*
D03*
X11038500Y7609500D02*
D03*
X11101000D02*
D03*
X11251000D02*
D03*
X11313500D02*
D03*
D14*
X13805000Y9334500D02*
D03*
X10185500Y9271000D02*
D03*
X12166500D02*
D03*
X14135001Y9334500D02*
D03*
X14694000D02*
D03*
X15024001D02*
D03*
X10515500Y9271000D02*
D03*
X11836500D02*
D03*
D15*
X13842999Y9588500D02*
D03*
X10210500Y9491225D02*
D03*
X12141500Y9491226D02*
D03*
X14123000Y9588500D02*
D03*
X14706000D02*
D03*
X14986000D02*
D03*
X10490500Y9491225D02*
D03*
X11861500Y9491226D02*
D03*
D16*
X14097000Y6940500D02*
D03*
X10655300Y6826300D02*
D03*
X11264900D02*
D03*
X14097000Y6775500D02*
D03*
X14732001D02*
D03*
Y6940500D02*
D03*
X10655300Y6991300D02*
D03*
X11264900D02*
D03*
D17*
X13842999Y9019550D02*
D03*
Y8125450D02*
D03*
X14986000Y9019550D02*
D03*
Y8125450D02*
D03*
X10604500Y8073671D02*
D03*
Y8967771D02*
D03*
X11747500Y8073671D02*
D03*
Y8967771D02*
D03*
D18*
X11684000Y7279500D02*
D03*
X10668000D02*
D03*
X14922501D02*
D03*
X13906500D02*
D03*
Y7579500D02*
D03*
X14922501D02*
D03*
X11684000D02*
D03*
X10668000D02*
D03*
D19*
X11570025Y6841300D02*
D03*
Y6976300D02*
D03*
D20*
X11112500Y6843800D02*
D03*
X11722100D02*
D03*
X14541499Y6793000D02*
D03*
X14795500Y6348500D02*
D03*
X14541499Y6923000D02*
D03*
X14795500Y6478500D02*
D03*
X11112500Y6973800D02*
D03*
X11722100D02*
D03*
D21*
X11176000Y7429500D02*
D03*
X14414500D02*
D03*
D22*
X11406000Y7434500D02*
D03*
X10946000D02*
D03*
X14184500D02*
D03*
X14644501D02*
D03*
D23*
X10946000Y7377000D02*
D03*
X14184500D02*
D03*
Y7327000D02*
D03*
X14644501D02*
D03*
Y7377000D02*
D03*
X11406000D02*
D03*
Y7327000D02*
D03*
X10946000D02*
D03*
D24*
X10067549Y7264500D02*
D03*
X10390275D02*
D03*
X12284451D02*
D03*
X11961725D02*
D03*
X13589000D02*
D03*
X13271500D02*
D03*
X15239999D02*
D03*
X15557500D02*
D03*
Y7594500D02*
D03*
X15239999D02*
D03*
X13271500D02*
D03*
X13589000D02*
D03*
X10067549D02*
D03*
X10390275D02*
D03*
X12284451D02*
D03*
X11961725D02*
D03*
D25*
X14922501Y6795500D02*
D03*
Y6920500D02*
D03*
X11417300Y6851300D02*
D03*
Y6966300D02*
D03*
D26*
X14629500Y7594500D02*
D03*
X14199500Y7264500D02*
D03*
X14629500D02*
D03*
X14199500Y7594500D02*
D03*
X10961000D02*
D03*
X11391000Y7264500D02*
D03*
X10961000D02*
D03*
X11391000Y7594500D02*
D03*
D27*
X14182001Y7512000D02*
D03*
X14647000D02*
D03*
X11408500D02*
D03*
X10943500D02*
D03*
D28*
X14306500Y7810500D02*
D03*
X14141499D02*
D03*
X14522501D02*
D03*
X14687500D02*
D03*
X10839500Y7809746D02*
D03*
X11004500D02*
D03*
X11512500Y7809745D02*
D03*
X11347500D02*
D03*
D29*
X14795204Y6210879D02*
Y6348203D01*
Y6210879D02*
X14810083Y6196000D01*
X14975500D01*
X10782300Y7353300D02*
X10871100Y7264500D01*
X9918600Y7353300D02*
X10782300D01*
X9817100Y7454800D02*
X9918600Y7353300D01*
X11391000Y7264500D02*
X11396304D01*
X11485304Y7175500D01*
X11493500D01*
X13874046Y6740045D02*
X14074500Y6940500D01*
X13673592Y6539591D02*
X13874046Y6740045D01*
X15192500Y7594500D02*
X15239999D01*
X15113000Y6927850D02*
Y7515000D01*
X15192500Y7594500D01*
X13667740Y6927850D02*
X13688060Y6948170D01*
Y7177323D01*
X13763631Y7252893D01*
Y7466630D01*
X13876500Y7579500D01*
X13906500D01*
X13652499Y6927850D02*
X13667740D01*
X14644501Y7327000D02*
X14720200D01*
X14782800Y7188700D02*
Y7264400D01*
X14720200Y7327000D02*
X14782800Y7264400D01*
Y7188700D02*
X14922501Y7049000D01*
X14644501Y7327000D02*
X14644501Y7327000D01*
X14922501Y6920500D02*
Y7049000D01*
X14600945Y7723945D02*
X14623445D01*
X14552000Y7609500D02*
Y7675000D01*
X14687500Y7788000D02*
Y7810500D01*
X14623445Y7723945D02*
X14687500Y7788000D01*
X14552000Y7675000D02*
X14600945Y7723945D01*
X14205556D02*
X14228055D01*
X14277000Y7675000D01*
X14141499Y7788000D02*
Y7810500D01*
Y7788000D02*
X14205556Y7723945D01*
X14277000Y7609500D02*
Y7675000D01*
X13653271Y6483350D02*
X13673592Y6503670D01*
Y6539591D01*
X13660120Y6475730D02*
X13672820Y6463030D01*
X13652499Y6483350D02*
X13653271D01*
X14074500Y6940500D02*
X14119501D01*
X15156180Y6463030D02*
X15176500Y6483350D01*
X14876434Y6624665D02*
X15019945D01*
X15161259Y6483350D01*
X15176500D01*
X14833600Y6667500D02*
Y6870700D01*
Y6667500D02*
X14876434Y6624665D01*
X14778909Y6925390D02*
X14833600Y6870700D01*
X14922501Y6708100D02*
Y6795500D01*
X14732001Y6940500D02*
X14747110Y6925390D01*
X14778909D01*
X14732001Y6940500D02*
Y7054900D01*
X14986000Y6343650D02*
X15001241D01*
X15120621Y6463030D01*
X15156180D01*
X13652499Y6483350D02*
X13667740D01*
X13708380Y6463030D02*
X13827760Y6343650D01*
X13842999D01*
X13672820Y6463030D02*
X13708380D01*
X14629500Y7227200D02*
X14833600Y7023100D01*
X14629500Y7227200D02*
Y7264500D01*
X15024100Y6861810D02*
Y7023100D01*
Y6861810D02*
X15097760Y6788150D01*
X15113000D01*
X13667740D02*
X14140340Y7260750D01*
X13652499Y6788150D02*
X13667740D01*
X14140340Y7260750D02*
X14195750D01*
X14199500Y7264500D01*
X14732001Y6688100D02*
Y6775500D01*
X14097000Y6688100D02*
Y6775500D01*
X14198599Y6948967D02*
X14314500Y7064867D01*
X14218919Y6483350D02*
X14224001D01*
X14198599Y6503670D02*
X14218919Y6483350D01*
X14198599Y6503670D02*
Y6948967D01*
X14287500Y6700750D02*
Y6788150D01*
X14514500Y7048737D02*
X14630400Y6932837D01*
X14610080Y6483350D02*
X14630400Y6503670D01*
Y6932837D01*
X14605000Y6483350D02*
X14610080D01*
X14541499Y6705600D02*
Y6793000D01*
X13853500Y5996000D02*
X14033501Y6176000D01*
Y6343650D01*
X15140939Y6161440D02*
Y6323330D01*
X14975500Y5996000D02*
X15140939Y6161440D01*
X15161259Y6343650D02*
X15176500D01*
X15140939Y6323330D02*
X15161259Y6343650D01*
X13667740D02*
X13728075Y6283315D01*
X13766185D01*
X13652499Y6343650D02*
X13667740D01*
X13766185Y6283315D02*
X13853500Y6196000D01*
X14418945Y6459855D02*
Y6811645D01*
X14302740Y6927850D02*
X14418945Y6811645D01*
X14302739Y6343650D02*
X14418945Y6459855D01*
X14603369Y6345281D02*
X14605000Y6343650D01*
X14533519Y6345281D02*
X14603369D01*
X14418945Y6459855D02*
X14533519Y6345281D01*
X14224001Y6343650D02*
X14302739D01*
X14287500Y6927850D02*
X14302740D01*
X14706599Y6483350D02*
X14986000D01*
X14605000D02*
X14706599D01*
Y6152100D02*
Y6483350D01*
X14650500Y6096000D02*
X14706599Y6152100D01*
X14119501Y6940500D02*
X14134610Y6955610D01*
Y7092510D01*
X14264500Y7222400D01*
Y7249500D01*
X14564500Y7222400D02*
Y7249500D01*
Y7222400D02*
X14732001Y7054900D01*
X14514500Y7048737D02*
Y7249500D01*
X14464500Y6990000D02*
X14531500Y6923000D01*
X14541499D01*
X14464500Y6990000D02*
Y7249500D01*
X14128751Y6483350D02*
X14224001D01*
X14033501D02*
X14128751D01*
Y6145750D02*
X14178500Y6096000D01*
X14128751Y6145750D02*
Y6483350D01*
X13842999D02*
X14033501D01*
X14314500Y7064867D02*
Y7249500D01*
X14364500Y6989610D02*
Y7249500D01*
X14302740Y6927850D02*
X14364500Y6989610D01*
X10655300Y6718300D02*
Y6826300D01*
X10960100Y6730950D02*
Y6838950D01*
X11112500Y6735800D02*
Y6843800D01*
X11264900Y6718300D02*
Y6826300D01*
X11570025Y6733300D02*
Y6841300D01*
X11722100Y6735800D02*
Y6843800D01*
X11423650Y6553200D02*
X11569700D01*
X11417300Y6559550D02*
X11423650Y6553200D01*
X10807700Y6419850D02*
X10915700D01*
X11409800Y6966300D02*
X11417300D01*
X11326000Y7050100D02*
Y7249500D01*
Y7050100D02*
X11409800Y6966300D01*
X11226000Y7077300D02*
Y7249500D01*
X11112500Y6973800D02*
X11122500D01*
X11226000Y7077300D01*
X10947904Y7103975D02*
X10962783Y7118854D01*
X10822940Y6978650D02*
X10947904Y7103614D01*
Y7103975D01*
X11025800Y7249300D02*
X11026000Y7249500D01*
X10677800Y6991300D02*
X10843454Y7156954D01*
X10655300Y6991300D02*
X10677800D01*
X11417300Y6851300D02*
X11424800D01*
X11540225Y6946500D02*
X11570025Y6976300D01*
X11520000Y6946500D02*
X11540225D01*
X11424800Y6851300D02*
X11520000Y6946500D01*
X10924540Y6958330D02*
X10944860Y6978650D01*
X10822940Y6838950D02*
X10843260Y6859270D01*
Y6874510D02*
X10924540Y6955790D01*
X10807700Y6838950D02*
X10822940D01*
X10843260Y6859270D02*
Y6874510D01*
X10924540Y6955790D02*
Y6958330D01*
X10871100Y7264500D02*
X10961000D01*
X11038300Y7609700D02*
Y7648152D01*
Y7609700D02*
X11038500Y7609500D01*
X11313500D02*
X11313700Y7609700D01*
Y7648153D01*
X10977552Y7708900D02*
X11038300Y7648152D01*
X10839500Y7723779D02*
X10854379Y7708900D01*
X10839500Y7723779D02*
Y7809746D01*
X10854379Y7708900D02*
X10977552D01*
X11313700Y7648153D02*
X11361747Y7696200D01*
X11497621D02*
X11512500Y7711079D01*
X11361747Y7696200D02*
X11497621D01*
X11512500Y7711079D02*
Y7809745D01*
X11433100Y7327000D02*
X11434000Y7327900D01*
X11406000Y7327000D02*
X11433100D01*
X11434000Y7327900D02*
X11468100D01*
X11704800Y6991100D02*
X11722100Y6973800D01*
X11689878Y6991100D02*
X11704800D01*
X10792460Y6978650D02*
X10807700D01*
Y6559550D02*
Y6713220D01*
X10734040Y6786880D02*
X10807700Y6713220D01*
X10734040Y6786880D02*
Y6920230D01*
X10792460Y6978650D01*
X10655300Y6559550D02*
X10807700D01*
X10632800Y6991300D02*
X10655300D01*
X11276000Y7002400D02*
Y7249500D01*
X11264900Y6991300D02*
X11276000Y7002400D01*
X10843454Y7156954D02*
X10984407D01*
X11025800Y7198348D02*
Y7249300D01*
X10984407Y7156954D02*
X11025800Y7198348D01*
X11005054Y7118854D02*
X11076000Y7189800D01*
X10962783Y7118854D02*
X11005054D01*
X11076000Y7189800D02*
Y7249500D01*
X10964271Y6978650D02*
X10984591Y6998970D01*
X11126000Y7176300D02*
Y7249500D01*
X10984591Y7034891D02*
X11126000Y7176300D01*
X10944860Y6978650D02*
X10964271D01*
X10984591Y6998970D02*
Y7034891D01*
X11025000Y6526850D02*
X11030000D01*
X11092300Y6464550D01*
Y6459550D02*
Y6464550D01*
X10807700Y6559550D02*
X10992300D01*
X11025000Y6526850D01*
X11331550Y6273800D02*
X11417300Y6359550D01*
X10502900Y6350000D02*
X10579100Y6273800D01*
X11331550D01*
X10502900Y6350000D02*
Y6419850D01*
Y6861400D02*
X10632800Y6991300D01*
X10640060Y6419850D02*
X10655300D01*
X10502900Y6559550D02*
X10518140D01*
X10619740Y6440170D02*
X10640060Y6419850D01*
X10619740Y6440170D02*
Y6457950D01*
X10518140Y6559550D02*
X10619740Y6457950D01*
X11468100Y7327900D02*
X11569700Y7226300D01*
Y7111277D02*
X11689878Y6991100D01*
X11569700Y7111277D02*
Y7226300D01*
X10502900Y6559550D02*
Y6718300D01*
Y6861400D01*
D30*
X15239999Y7124700D02*
Y7264500D01*
X12141500Y9491226D02*
X12281300D01*
X14922501Y7140599D02*
Y7279500D01*
X14123000Y9588500D02*
X14262801D01*
X14135001Y9334500D02*
X14274800D01*
X14554201D02*
X14694000D01*
X14566200Y9588500D02*
X14706000D01*
X15557500Y7124700D02*
Y7264500D01*
X13271500Y7124700D02*
Y7264500D01*
X13589000Y7124700D02*
Y7264500D01*
X13906500Y7139700D02*
Y7279500D01*
X10067549Y7124700D02*
Y7264500D01*
X10390275Y7124700D02*
Y7264500D01*
X10668000Y7139700D02*
Y7279500D01*
X11684000Y7139700D02*
Y7279500D01*
X11961725Y7124700D02*
Y7264500D01*
X12284451Y7124700D02*
Y7264500D01*
X10045700Y9271000D02*
X10185500D01*
X10070700Y9491225D02*
X10210500D01*
X12166500Y9271000D02*
X12306300D01*
D31*
X13004800Y10000300D02*
X13134801D01*
X12884801D02*
X13004800D01*
X13384801Y9729200D02*
X13462000Y9652000D01*
X13384801Y9729200D02*
Y10000300D01*
X13634801D02*
X15171100D01*
X15367000Y9652000D02*
Y9804400D01*
X15171100Y10000300D02*
X15367000Y9804400D01*
D32*
X12134800Y10000300D02*
D03*
X12384800D02*
D03*
X12634800D02*
D03*
X12884801D02*
D03*
X13134801D02*
D03*
X13384801D02*
D03*
X13634801D02*
D03*
X12134800Y10250300D02*
D03*
X12384800D02*
D03*
X12634800D02*
D03*
X12884801D02*
D03*
X13134801D02*
D03*
X13384801D02*
D03*
X13634801D02*
D03*
D33*
X13639799Y10972800D02*
D03*
X12142300D02*
D03*
D34*
X14795500Y6197600D02*
D03*
X14030991Y6183686D02*
D03*
X15239999Y7124700D02*
D03*
X12281300Y9491226D02*
D03*
X12128500Y7620000D02*
D03*
X11493500Y7175500D02*
D03*
X15019945Y6624665D02*
D03*
X13874046Y6740045D02*
D03*
X14922501Y7140599D02*
D03*
X14262801Y9588500D02*
D03*
X14274800Y9334500D02*
D03*
X14554201D02*
D03*
X14566200Y9588500D02*
D03*
X15557500Y7124700D02*
D03*
X13271500D02*
D03*
X13589000D02*
D03*
X13906500Y7139700D02*
D03*
X10067549Y7124700D02*
D03*
X10390275D02*
D03*
X10668000Y7139700D02*
D03*
X11684000D02*
D03*
X11961725Y7124700D02*
D03*
X12284451D02*
D03*
X10045700Y9271000D02*
D03*
X10070700Y9491225D02*
D03*
X12306300Y9271000D02*
D03*
X14922501Y6708100D02*
D03*
X14833600Y7023100D02*
D03*
X15024100D02*
D03*
X14732001Y6688100D02*
D03*
X14097000D02*
D03*
X14287500Y6700750D02*
D03*
X14541499Y6705600D02*
D03*
X10655300Y6718300D02*
D03*
X10960100Y6730950D02*
D03*
X11112500Y6735800D02*
D03*
X11264900Y6718300D02*
D03*
X11570025Y6733300D02*
D03*
X11722100Y6735800D02*
D03*
X11569700Y6553200D02*
D03*
X10915700Y6419850D02*
D03*
X10502900Y6718300D02*
D03*
X11176000Y8839200D02*
D03*
D35*
X15241675Y7454900D02*
D03*
X15559175D02*
D03*
X13590675D02*
D03*
X13273175D02*
D03*
X10391949D02*
D03*
X10069224D02*
D03*
X11963400D02*
D03*
X12280900D02*
D03*
X11303000Y9220200D02*
D03*
X11049000D02*
D03*
X11176000Y9093200D02*
D03*
X11049000Y8966200D02*
D03*
X11303000D02*
D03*
X15367000Y9398000D02*
D03*
X15239999Y9525000D02*
D03*
X15367000Y9652000D02*
D03*
X13462000Y9398000D02*
D03*
X13589000Y9525000D02*
D03*
X13462000Y9652000D02*
D03*
D36*
X11271000Y7429500D02*
D03*
X11176000D02*
D03*
X11081000D02*
D03*
X14414500D02*
D03*
X14509500D02*
D03*
X14319501D02*
D03*
%TF.MD5,139eec860e58092d0fd4664eadf36cb0*%
M02*
