%TF.GenerationSoftware,Altium Limited,Altium Designer,24.1.2 (44)*%
G04 Layer_Physical_Order=4*
G04 Layer_Color=16711680*
%FSLAX45Y45*%
%MOMM*%
%TF.SameCoordinates,52D7BD39-7FF0-4AB0-A2C0-E3239692A872*%
%TF.FilePolarity,Positive*%
%TF.FileFunction,Copper,L4,Bot,Signal*%
%TF.Part,Single*%
G01*
G75*
%TA.AperFunction,Conductor*%
%ADD29C,0.25400*%
%TA.AperFunction,ComponentPad*%
%ADD32C,1.56000*%
%ADD33C,2.10000*%
%TA.AperFunction,ViaPad*%
%ADD34C,0.88900*%
%ADD35C,1.14300*%
%ADD36C,0.50000*%
G36*
X16209435Y11260996D02*
X16227927Y11253337D01*
X16244566Y11242218D01*
X16258717Y11228066D01*
X16269836Y11211426D01*
X16277496Y11192935D01*
X16281400Y11173307D01*
Y11163300D01*
Y5905500D01*
Y5895493D01*
X16277496Y5875864D01*
X16269836Y5857374D01*
X16258717Y5840734D01*
X16244566Y5826582D01*
X16227927Y5815463D01*
X16209435Y5807804D01*
X16189807Y5803900D01*
X9641993D01*
X9622364Y5807804D01*
X9603874Y5815463D01*
X9587234Y5826582D01*
X9573082Y5840734D01*
X9561963Y5857374D01*
X9554304Y5875864D01*
X9550400Y5895493D01*
Y5905500D01*
Y11163300D01*
Y11173307D01*
X9554304Y11192935D01*
X9561963Y11211426D01*
X9573082Y11228066D01*
X9587234Y11242218D01*
X9603874Y11253337D01*
X9622364Y11260996D01*
X9641993Y11264900D01*
X16189807D01*
X16209435Y11260996D01*
D02*
G37*
%LPC*%
G36*
X13654626Y11085420D02*
X13624973D01*
X13596330Y11077745D01*
X13570650Y11062918D01*
X13549683Y11041950D01*
X13534856Y11016270D01*
X13527180Y10987627D01*
Y10957973D01*
X13534856Y10929330D01*
X13549683Y10903650D01*
X13570650Y10882682D01*
X13596330Y10867855D01*
X13624973Y10860180D01*
X13654626D01*
X13683270Y10867855D01*
X13708949Y10882682D01*
X13729918Y10903650D01*
X13744745Y10929330D01*
X13752420Y10957973D01*
Y10987627D01*
X13744745Y11016270D01*
X13729918Y11041950D01*
X13708949Y11062918D01*
X13683270Y11077745D01*
X13654626Y11085420D01*
D02*
G37*
G36*
X12157127D02*
X12127473D01*
X12098830Y11077745D01*
X12073150Y11062918D01*
X12052182Y11041950D01*
X12037355Y11016270D01*
X12029680Y10987627D01*
Y10957973D01*
X12037355Y10929330D01*
X12052182Y10903650D01*
X12073150Y10882682D01*
X12098830Y10867855D01*
X12127473Y10860180D01*
X12157127D01*
X12185770Y10867855D01*
X12211450Y10882682D01*
X12232419Y10903650D01*
X12247245Y10929330D01*
X12254920Y10957973D01*
Y10987627D01*
X12247245Y11016270D01*
X12232419Y11041950D01*
X12211450Y11062918D01*
X12185770Y11077745D01*
X12157127Y11085420D01*
D02*
G37*
G36*
X13646072Y10085920D02*
X13623528D01*
X13601752Y10080085D01*
X13582228Y10068813D01*
X13566287Y10052872D01*
X13555016Y10033348D01*
X13549181Y10011572D01*
Y9989028D01*
X13555016Y9967252D01*
X13566287Y9947728D01*
X13582228Y9931787D01*
X13601752Y9920515D01*
X13623528Y9914680D01*
X13646072D01*
X13667848Y9920515D01*
X13687372Y9931787D01*
X13703313Y9947728D01*
X13714584Y9967252D01*
X13720419Y9989028D01*
Y10011572D01*
X13714584Y10033348D01*
X13703313Y10052872D01*
X13687372Y10068813D01*
X13667848Y10080085D01*
X13646072Y10085920D01*
D02*
G37*
G36*
X13396072D02*
X13373528D01*
X13351752Y10080085D01*
X13332228Y10068813D01*
X13316287Y10052872D01*
X13305016Y10033348D01*
X13299181Y10011572D01*
Y9989028D01*
X13305016Y9967252D01*
X13316287Y9947728D01*
X13332228Y9931787D01*
X13351752Y9920515D01*
X13373528Y9914680D01*
X13396072D01*
X13417848Y9920515D01*
X13437372Y9931787D01*
X13453313Y9947728D01*
X13464584Y9967252D01*
X13470419Y9989028D01*
Y10011572D01*
X13464584Y10033348D01*
X13453313Y10052872D01*
X13437372Y10068813D01*
X13417848Y10080085D01*
X13396072Y10085920D01*
D02*
G37*
G36*
X13146072D02*
X13123528D01*
X13101752Y10080085D01*
X13082228Y10068813D01*
X13066287Y10052872D01*
X13055016Y10033348D01*
X13049181Y10011572D01*
Y9989028D01*
X13055016Y9967252D01*
X13066287Y9947728D01*
X13082228Y9931787D01*
X13101752Y9920515D01*
X13123528Y9914680D01*
X13146072D01*
X13167848Y9920515D01*
X13187372Y9931787D01*
X13203313Y9947728D01*
X13214584Y9967252D01*
X13220419Y9989028D01*
Y10011572D01*
X13214584Y10033348D01*
X13203313Y10052872D01*
X13187372Y10068813D01*
X13167848Y10080085D01*
X13146072Y10085920D01*
D02*
G37*
G36*
X12896072D02*
X12873528D01*
X12851752Y10080085D01*
X12832228Y10068813D01*
X12816287Y10052872D01*
X12805016Y10033348D01*
X12799180Y10011572D01*
Y9989028D01*
X12805016Y9967252D01*
X12816287Y9947728D01*
X12832228Y9931787D01*
X12851752Y9920515D01*
X12873528Y9914680D01*
X12896072D01*
X12917848Y9920515D01*
X12937372Y9931787D01*
X12953313Y9947728D01*
X12964584Y9967252D01*
X12970419Y9989028D01*
Y10011572D01*
X12964584Y10033348D01*
X12953313Y10052872D01*
X12937372Y10068813D01*
X12917848Y10080085D01*
X12896072Y10085920D01*
D02*
G37*
G36*
X12623800Y10142848D02*
X11582400D01*
X11576568Y10140432D01*
X10649468Y9213332D01*
X10647052Y9207500D01*
Y8537816D01*
X9900168Y7790932D01*
X9897752Y7785100D01*
Y7391400D01*
X9900168Y7385568D01*
X9963668Y7322068D01*
X9969500Y7319652D01*
X10852186D01*
X10857047Y7307919D01*
X10824800Y7275672D01*
X10820309Y7268951D01*
X10818731Y7261022D01*
X10818732Y7261021D01*
Y7063431D01*
X10537837Y6782536D01*
X10537350Y6782361D01*
X10534767Y6780013D01*
X10532275Y6778145D01*
X10529571Y6776492D01*
X10526637Y6775045D01*
X10523453Y6773807D01*
X10520003Y6772782D01*
X10516281Y6771980D01*
X10512277Y6771409D01*
X10507993Y6771079D01*
X10503199Y6770994D01*
X10501764Y6770370D01*
X10492543D01*
X10473405Y6762443D01*
X10458757Y6747795D01*
X10450830Y6728657D01*
Y6707943D01*
X10458757Y6688805D01*
X10473405Y6674157D01*
X10492543Y6666230D01*
X10513257D01*
X10532395Y6674157D01*
X10547043Y6688805D01*
X10554970Y6707943D01*
Y6717164D01*
X10555594Y6718599D01*
X10555679Y6723393D01*
X10556009Y6727677D01*
X10556580Y6731681D01*
X10557382Y6735404D01*
X10558407Y6738853D01*
X10559645Y6742037D01*
X10561092Y6744971D01*
X10562746Y6747676D01*
X10564612Y6750167D01*
X10566961Y6752750D01*
X10567136Y6753237D01*
X10854099Y7040199D01*
X10854100Y7040200D01*
X10858591Y7046921D01*
X10860168Y7054850D01*
X10860168Y7054851D01*
Y7252440D01*
X10932068Y7324340D01*
X10941230Y7323834D01*
X10946389Y7322068D01*
X10947904Y7321440D01*
X10949064Y7320280D01*
X10950705D01*
X10952221Y7319652D01*
X11472782D01*
Y7223278D01*
X11464005Y7219643D01*
X11449357Y7204995D01*
X11441430Y7185857D01*
Y7165143D01*
X11449357Y7146005D01*
X11464005Y7131357D01*
X11483143Y7123430D01*
X11503857D01*
X11522995Y7131357D01*
X11537643Y7146005D01*
X11545570Y7165143D01*
Y7185857D01*
X11537643Y7204995D01*
X11522995Y7219643D01*
X11514218Y7223278D01*
Y7319652D01*
X13649734D01*
Y6943639D01*
X13649734Y6943638D01*
X13651312Y6935710D01*
X13655803Y6928988D01*
X13809808Y6774982D01*
X13809984Y6774495D01*
X13812334Y6771913D01*
X13814200Y6769420D01*
X13815854Y6766717D01*
X13817300Y6763783D01*
X13818539Y6760598D01*
X13819563Y6757148D01*
X13820366Y6753427D01*
X13820937Y6749422D01*
X13821268Y6745138D01*
X13821352Y6740345D01*
X13821976Y6738910D01*
Y6729688D01*
X13829903Y6710550D01*
X13844550Y6695903D01*
X13863689Y6687975D01*
X13884402D01*
X13903542Y6695903D01*
X13918188Y6710550D01*
X13926115Y6729688D01*
Y6750403D01*
X13918188Y6769541D01*
X13903542Y6784188D01*
X13884402Y6792115D01*
X13875182D01*
X13873746Y6792740D01*
X13868953Y6792824D01*
X13864668Y6793154D01*
X13860664Y6793725D01*
X13856943Y6794527D01*
X13853493Y6795553D01*
X13850308Y6796791D01*
X13847374Y6798237D01*
X13844670Y6799892D01*
X13842178Y6801758D01*
X13839597Y6804107D01*
X13839108Y6804282D01*
X13691171Y6952220D01*
Y7319652D01*
X15130382D01*
Y7067083D01*
X15087903Y7024605D01*
X15076170Y7029465D01*
Y7033457D01*
X15068243Y7052595D01*
X15053595Y7067243D01*
X15034457Y7075170D01*
X15013744D01*
X14994604Y7067243D01*
X14988084Y7060722D01*
X14986629Y7060149D01*
X14983180Y7056821D01*
X14979916Y7054023D01*
X14976682Y7051595D01*
X14973483Y7049531D01*
X14970319Y7047816D01*
X14967192Y7046441D01*
X14964090Y7045387D01*
X14961011Y7044646D01*
X14957928Y7044204D01*
X14954442Y7044038D01*
X14953973Y7043818D01*
X14903728D01*
X14903258Y7044039D01*
X14899770Y7044204D01*
X14896690Y7044646D01*
X14893607Y7045388D01*
X14890508Y7046441D01*
X14887383Y7047816D01*
X14884216Y7049531D01*
X14881020Y7051595D01*
X14877786Y7054021D01*
X14874519Y7056821D01*
X14871072Y7060149D01*
X14869615Y7060722D01*
X14863095Y7067243D01*
X14843958Y7075170D01*
X14823244D01*
X14804105Y7067243D01*
X14789458Y7052595D01*
X14781531Y7033457D01*
Y7012743D01*
X14789458Y6993605D01*
X14804105Y6978957D01*
X14823244Y6971030D01*
X14843958D01*
X14863095Y6978957D01*
X14869615Y6985478D01*
X14871072Y6986051D01*
X14874519Y6989379D01*
X14877785Y6992177D01*
X14881020Y6994605D01*
X14884216Y6996669D01*
X14887383Y6998384D01*
X14890508Y6999759D01*
X14893610Y7000813D01*
X14896690Y7001554D01*
X14899771Y7001996D01*
X14903258Y7002162D01*
X14903726Y7002382D01*
X14953973D01*
X14954442Y7002161D01*
X14957930Y7001996D01*
X14961009Y7001554D01*
X14964093Y7000812D01*
X14967192Y6999759D01*
X14970319Y6998384D01*
X14973483Y6996669D01*
X14976682Y6994605D01*
X14979913Y6992179D01*
X14983180Y6989379D01*
X14986629Y6986051D01*
X14988084Y6985478D01*
X14994604Y6978957D01*
X15013744Y6971030D01*
X15017735D01*
X15022595Y6959297D01*
X15005295Y6941996D01*
X15000804Y6935275D01*
X14999226Y6927346D01*
X14999226Y6927345D01*
Y6694792D01*
X14999007Y6694323D01*
X14998840Y6690835D01*
X14998399Y6687756D01*
X14997656Y6684672D01*
X14996603Y6681574D01*
X14995229Y6678448D01*
X14993513Y6675283D01*
X14991449Y6672084D01*
X14989023Y6668851D01*
X14986224Y6665585D01*
X14982896Y6662137D01*
X14982323Y6660681D01*
X14975803Y6654160D01*
X14967876Y6635023D01*
Y6614308D01*
X14975803Y6595170D01*
X14990450Y6580523D01*
X15009587Y6572595D01*
X15030302D01*
X15049440Y6580523D01*
X15064087Y6595170D01*
X15072015Y6614308D01*
Y6635023D01*
X15064087Y6654160D01*
X15057567Y6660681D01*
X15056995Y6662137D01*
X15053665Y6665585D01*
X15050868Y6668849D01*
X15048441Y6672084D01*
X15046376Y6675283D01*
X15044661Y6678448D01*
X15043286Y6681573D01*
X15042232Y6684675D01*
X15041492Y6687755D01*
X15041049Y6690836D01*
X15040883Y6694323D01*
X15040663Y6694791D01*
Y6918764D01*
X15165750Y7043852D01*
X15170241Y7050573D01*
X15171819Y7058502D01*
X15171819Y7058503D01*
Y7319652D01*
X15621001D01*
X15626833Y7322068D01*
X15703032Y7398268D01*
X15705447Y7404100D01*
Y9842500D01*
X15703032Y9848332D01*
X15537932Y10013432D01*
X15532100Y10015848D01*
X13944600D01*
X13938768Y10013432D01*
X13801485Y9876148D01*
X12817715D01*
X12759048Y9934816D01*
Y10007600D01*
X12756632Y10013432D01*
X12629632Y10140432D01*
X12623800Y10142848D01*
D02*
G37*
%LPD*%
G36*
X15366428Y9340853D02*
X15359006Y9340767D01*
X15345502Y9339620D01*
X15339421Y9338559D01*
X15333788Y9337174D01*
X15328603Y9335463D01*
X15323865Y9333428D01*
X15319572Y9331068D01*
X15315729Y9328382D01*
X15312334Y9325372D01*
X15294373Y9343333D01*
X15297382Y9346729D01*
X15300069Y9350573D01*
X15302428Y9354864D01*
X15304463Y9359602D01*
X15306174Y9364788D01*
X15307559Y9370421D01*
X15308620Y9376502D01*
X15309357Y9383030D01*
X15309767Y9390006D01*
X15309853Y9397428D01*
X15366428Y9340853D01*
D02*
G37*
G36*
X13519234Y9390006D02*
X13520380Y9376502D01*
X13521442Y9370421D01*
X13522826Y9364788D01*
X13524538Y9359602D01*
X13526572Y9354864D01*
X13528932Y9350573D01*
X13531618Y9346729D01*
X13534628Y9343333D01*
X13516667Y9325372D01*
X13513271Y9328382D01*
X13509427Y9331068D01*
X13505136Y9333428D01*
X13500398Y9335463D01*
X13495212Y9337174D01*
X13489578Y9338559D01*
X13483498Y9339620D01*
X13476970Y9340356D01*
X13469994Y9340767D01*
X13462572Y9340853D01*
X13519147Y9397428D01*
X13519234Y9390006D01*
D02*
G37*
G36*
X11203616Y8803832D02*
X11200486Y8800179D01*
X11197723Y8796498D01*
X11195329Y8792788D01*
X11193304Y8789050D01*
X11191646Y8785284D01*
X11190357Y8781489D01*
X11189437Y8777665D01*
X11188884Y8773813D01*
X11188700Y8769933D01*
X11163300D01*
X11163116Y8773813D01*
X11162563Y8777665D01*
X11161643Y8781489D01*
X11160354Y8785284D01*
X11158696Y8789050D01*
X11156671Y8792788D01*
X11154277Y8796498D01*
X11151514Y8800179D01*
X11148384Y8803832D01*
X11144885Y8807456D01*
X11207115D01*
X11203616Y8803832D01*
D02*
G37*
G36*
X12750800Y10007600D02*
Y9931400D01*
X12814301Y9867900D01*
X13804900D01*
X13944600Y10007600D01*
X15532100D01*
X15697200Y9842500D01*
Y7404100D01*
X15621001Y7327900D01*
X15171819D01*
Y9173518D01*
X15317339Y9319040D01*
X15317804Y9319200D01*
X15320844Y9321894D01*
X15323936Y9324055D01*
X15327489Y9326009D01*
X15331528Y9327743D01*
X15336069Y9329241D01*
X15341116Y9330482D01*
X15346564Y9331433D01*
X15359404Y9332523D01*
X15366524Y9332605D01*
X15367984Y9333230D01*
X15379884D01*
X15403690Y9343091D01*
X15421909Y9361311D01*
X15431770Y9385116D01*
Y9410884D01*
X15421909Y9434689D01*
X15403690Y9452909D01*
X15379884Y9462770D01*
X15354115D01*
X15330312Y9452909D01*
X15312091Y9434689D01*
X15302229Y9410884D01*
Y9398984D01*
X15301605Y9397524D01*
X15301521Y9390296D01*
X15301135Y9383736D01*
X15300452Y9377673D01*
X15299483Y9372117D01*
X15298241Y9367069D01*
X15296742Y9362527D01*
X15295007Y9358488D01*
X15293053Y9354934D01*
X15290894Y9351842D01*
X15288200Y9348804D01*
X15288040Y9348339D01*
X15136450Y9196750D01*
X15131960Y9190029D01*
X15130382Y9182100D01*
X15130382Y9182099D01*
Y7327900D01*
X13691171D01*
Y9189547D01*
X13689594Y9197476D01*
X13685103Y9204197D01*
X13685101Y9204197D01*
X13540961Y9348339D01*
X13540800Y9348804D01*
X13538106Y9351843D01*
X13535945Y9354936D01*
X13533990Y9358489D01*
X13532257Y9362527D01*
X13530759Y9367069D01*
X13529518Y9372116D01*
X13528568Y9377563D01*
X13527477Y9390404D01*
X13527396Y9397524D01*
X13526770Y9398984D01*
Y9410884D01*
X13516908Y9434689D01*
X13498689Y9452909D01*
X13474884Y9462770D01*
X13449117D01*
X13425311Y9452909D01*
X13407091Y9434689D01*
X13397231Y9410884D01*
Y9385116D01*
X13407091Y9361311D01*
X13425311Y9343091D01*
X13449117Y9333230D01*
X13461015D01*
X13462476Y9332605D01*
X13469704Y9332522D01*
X13476263Y9332135D01*
X13482327Y9331452D01*
X13487883Y9330483D01*
X13492931Y9329241D01*
X13497473Y9327743D01*
X13501512Y9326008D01*
X13505066Y9324053D01*
X13508157Y9321893D01*
X13511195Y9319200D01*
X13511661Y9319040D01*
X13649734Y9180965D01*
Y7327900D01*
X10952221D01*
X10947361Y7339633D01*
X11035680Y7427952D01*
X11048380Y7423011D01*
X11053346Y7411022D01*
X11062522Y7401846D01*
X11074512Y7396880D01*
X11087488D01*
X11099478Y7401846D01*
X11108654Y7411022D01*
X11113620Y7423012D01*
Y7435988D01*
X11108654Y7447978D01*
X11099478Y7457154D01*
X11087489Y7462120D01*
X11082548Y7474820D01*
X11190649Y7582922D01*
X11190650Y7582922D01*
X11195141Y7589644D01*
X11196718Y7597572D01*
Y8769073D01*
X11196939Y8769542D01*
X11197104Y8773030D01*
X11197546Y8776109D01*
X11198288Y8779193D01*
X11199341Y8782292D01*
X11200716Y8785418D01*
X11202431Y8788583D01*
X11204495Y8791781D01*
X11206921Y8795014D01*
X11209721Y8798280D01*
X11213049Y8801728D01*
X11213622Y8803185D01*
X11220143Y8809705D01*
X11228070Y8828843D01*
Y8849557D01*
X11220143Y8868695D01*
X11205495Y8883343D01*
X11186357Y8891270D01*
X11165643D01*
X11146505Y8883343D01*
X11131857Y8868695D01*
X11123930Y8849557D01*
Y8828843D01*
X11131857Y8809705D01*
X11138378Y8803185D01*
X11138951Y8801728D01*
X11142279Y8798280D01*
X11145077Y8795016D01*
X11147505Y8791781D01*
X11149569Y8788583D01*
X11151284Y8785418D01*
X11152659Y8782292D01*
X11153713Y8779190D01*
X11154454Y8776110D01*
X11154896Y8773029D01*
X11155062Y8769542D01*
X11155282Y8769074D01*
Y7606154D01*
X10877028Y7327900D01*
X9969500D01*
X9906000Y7391400D01*
Y7785100D01*
X10655300Y8534400D01*
Y9207500D01*
X11582400Y10134600D01*
X12623800D01*
X12750800Y10007600D01*
D02*
G37*
G36*
X14992355Y6991985D02*
X14988731Y6995484D01*
X14985078Y6998614D01*
X14981398Y7001377D01*
X14977689Y7003771D01*
X14973950Y7005796D01*
X14970184Y7007454D01*
X14966389Y7008743D01*
X14962566Y7009663D01*
X14958713Y7010216D01*
X14954832Y7010400D01*
Y7035800D01*
X14958713Y7035984D01*
X14962566Y7036537D01*
X14966389Y7037457D01*
X14970184Y7038746D01*
X14973950Y7040404D01*
X14977689Y7042429D01*
X14981398Y7044823D01*
X14985078Y7047586D01*
X14988731Y7050716D01*
X14992355Y7054215D01*
Y6991985D01*
D02*
G37*
G36*
X14868968Y7050716D02*
X14872621Y7047586D01*
X14876302Y7044823D01*
X14880013Y7042429D01*
X14883749Y7040404D01*
X14887515Y7038746D01*
X14891312Y7037457D01*
X14895135Y7036537D01*
X14898987Y7035984D01*
X14902867Y7035800D01*
Y7010400D01*
X14898987Y7010216D01*
X14895135Y7009663D01*
X14891312Y7008743D01*
X14887515Y7007454D01*
X14883749Y7005796D01*
X14880013Y7003771D01*
X14876302Y7001377D01*
X14872621Y6998614D01*
X14868968Y6995484D01*
X14865344Y6991985D01*
Y7054215D01*
X14868968Y7050716D01*
D02*
G37*
G36*
X13836922Y6795391D02*
X13840034Y6793058D01*
X13843390Y6791006D01*
X13846985Y6789234D01*
X13850819Y6787742D01*
X13854897Y6786531D01*
X13859212Y6785601D01*
X13863768Y6784951D01*
X13868564Y6784582D01*
X13873601Y6784493D01*
X13829597Y6740490D01*
X13829509Y6745527D01*
X13829140Y6750323D01*
X13828490Y6754880D01*
X13827560Y6759196D01*
X13826349Y6763271D01*
X13824858Y6767106D01*
X13823085Y6770701D01*
X13821033Y6774056D01*
X13818700Y6777170D01*
X13816086Y6780044D01*
X13834047Y6798005D01*
X13836922Y6795391D01*
D02*
G37*
G36*
X10560859Y6758299D02*
X10558246Y6755425D01*
X10555913Y6752311D01*
X10553860Y6748956D01*
X10552088Y6745361D01*
X10550597Y6741526D01*
X10549386Y6737450D01*
X10548455Y6733134D01*
X10547806Y6728578D01*
X10547436Y6723781D01*
X10547348Y6718744D01*
X10503345Y6762748D01*
X10508381Y6762836D01*
X10513178Y6763206D01*
X10517734Y6763855D01*
X10522050Y6764786D01*
X10526126Y6765997D01*
X10529961Y6767488D01*
X10533556Y6769260D01*
X10536911Y6771313D01*
X10540025Y6773646D01*
X10542899Y6776259D01*
X10560859Y6758299D01*
D02*
G37*
G36*
X15032829Y6690052D02*
X15033382Y6686200D01*
X15034302Y6682377D01*
X15035591Y6678582D01*
X15037250Y6674815D01*
X15039275Y6671077D01*
X15041669Y6667367D01*
X15044431Y6663686D01*
X15047562Y6660033D01*
X15051060Y6656409D01*
X14988831D01*
X14992329Y6660033D01*
X14995459Y6663686D01*
X14998221Y6667367D01*
X15000615Y6671077D01*
X15002641Y6674815D01*
X15004298Y6678582D01*
X15005586Y6682377D01*
X15006508Y6686200D01*
X15007060Y6690052D01*
X15007245Y6693932D01*
X15032645D01*
X15032829Y6690052D01*
D02*
G37*
%LPC*%
G36*
X15379884Y9716770D02*
X15354115D01*
X15330312Y9706909D01*
X15312091Y9688689D01*
X15302229Y9664884D01*
Y9639116D01*
X15312091Y9615311D01*
X15330312Y9597091D01*
X15354115Y9587230D01*
X15379884D01*
X15403690Y9597091D01*
X15421909Y9615311D01*
X15431770Y9639116D01*
Y9664884D01*
X15421909Y9688689D01*
X15403690Y9706909D01*
X15379884Y9716770D01*
D02*
G37*
G36*
X13474884D02*
X13449117D01*
X13425311Y9706909D01*
X13407091Y9688689D01*
X13397231Y9664884D01*
Y9639116D01*
X13407091Y9615311D01*
X13425311Y9597091D01*
X13449117Y9587230D01*
X13474884D01*
X13498689Y9597091D01*
X13516908Y9615311D01*
X13526770Y9639116D01*
Y9664884D01*
X13516908Y9688689D01*
X13498689Y9706909D01*
X13474884Y9716770D01*
D02*
G37*
G36*
X14576556Y9640570D02*
X14555843D01*
X14536705Y9632643D01*
X14522057Y9617995D01*
X14514130Y9598857D01*
Y9578143D01*
X14522057Y9559005D01*
X14536705Y9544357D01*
X14555843Y9536430D01*
X14576556D01*
X14595695Y9544357D01*
X14610342Y9559005D01*
X14618269Y9578143D01*
Y9598857D01*
X14610342Y9617995D01*
X14595695Y9632643D01*
X14576556Y9640570D01*
D02*
G37*
G36*
X14273157D02*
X14252443D01*
X14233305Y9632643D01*
X14218657Y9617995D01*
X14210730Y9598857D01*
Y9578143D01*
X14218657Y9559005D01*
X14233305Y9544357D01*
X14252443Y9536430D01*
X14273157D01*
X14292294Y9544357D01*
X14306943Y9559005D01*
X14314870Y9578143D01*
Y9598857D01*
X14306943Y9617995D01*
X14292294Y9632643D01*
X14273157Y9640570D01*
D02*
G37*
G36*
X15252884Y9589770D02*
X15227116D01*
X15203311Y9579909D01*
X15185091Y9561689D01*
X15175230Y9537884D01*
Y9512116D01*
X15185091Y9488311D01*
X15203311Y9470091D01*
X15227116Y9460230D01*
X15252884D01*
X15276689Y9470091D01*
X15294910Y9488311D01*
X15304770Y9512116D01*
Y9537884D01*
X15294910Y9561689D01*
X15276689Y9579909D01*
X15252884Y9589770D01*
D02*
G37*
G36*
X13601884D02*
X13576115D01*
X13552312Y9579909D01*
X13534091Y9561689D01*
X13524229Y9537884D01*
Y9512116D01*
X13534091Y9488311D01*
X13552312Y9470091D01*
X13576115Y9460230D01*
X13601884D01*
X13625690Y9470091D01*
X13643909Y9488311D01*
X13653770Y9512116D01*
Y9537884D01*
X13643909Y9561689D01*
X13625690Y9579909D01*
X13601884Y9589770D01*
D02*
G37*
G36*
X12291657Y9543296D02*
X12270943D01*
X12251805Y9535368D01*
X12237157Y9520721D01*
X12229230Y9501583D01*
Y9480868D01*
X12237157Y9461730D01*
X12251805Y9447083D01*
X12270943Y9439156D01*
X12291657D01*
X12310795Y9447083D01*
X12325443Y9461730D01*
X12333370Y9480868D01*
Y9501583D01*
X12325443Y9520721D01*
X12310795Y9535368D01*
X12291657Y9543296D01*
D02*
G37*
G36*
X14564557Y9386570D02*
X14543843D01*
X14524706Y9378643D01*
X14510057Y9363995D01*
X14502130Y9344857D01*
Y9324143D01*
X14510057Y9305005D01*
X14524706Y9290357D01*
X14543843Y9282430D01*
X14564557D01*
X14583694Y9290357D01*
X14598343Y9305005D01*
X14606270Y9324143D01*
Y9344857D01*
X14598343Y9363995D01*
X14583694Y9378643D01*
X14564557Y9386570D01*
D02*
G37*
G36*
X14285156D02*
X14264442D01*
X14245305Y9378643D01*
X14230656Y9363995D01*
X14222729Y9344857D01*
Y9324143D01*
X14230656Y9305005D01*
X14245305Y9290357D01*
X14264442Y9282430D01*
X14285156D01*
X14304295Y9290357D01*
X14318942Y9305005D01*
X14326871Y9324143D01*
Y9344857D01*
X14318942Y9363995D01*
X14304295Y9378643D01*
X14285156Y9386570D01*
D02*
G37*
G36*
X12316657Y9323070D02*
X12295943D01*
X12276805Y9315143D01*
X12262157Y9300495D01*
X12254230Y9281357D01*
Y9260643D01*
X12262157Y9241505D01*
X12276805Y9226857D01*
X12295943Y9218930D01*
X12316657D01*
X12335795Y9226857D01*
X12350443Y9241505D01*
X12358370Y9260643D01*
Y9281357D01*
X12350443Y9300495D01*
X12335795Y9315143D01*
X12316657Y9323070D01*
D02*
G37*
G36*
X11315884Y9284970D02*
X11290116D01*
X11266311Y9275109D01*
X11248091Y9256889D01*
X11238230Y9233084D01*
Y9207316D01*
X11248091Y9183511D01*
X11266311Y9165291D01*
X11290116Y9155430D01*
X11315884D01*
X11339689Y9165291D01*
X11357909Y9183511D01*
X11367770Y9207316D01*
Y9233084D01*
X11357909Y9256889D01*
X11339689Y9275109D01*
X11315884Y9284970D01*
D02*
G37*
G36*
X11061884D02*
X11036116D01*
X11012311Y9275109D01*
X10994091Y9256889D01*
X10984230Y9233084D01*
Y9207316D01*
X10994091Y9183511D01*
X11012311Y9165291D01*
X11036116Y9155430D01*
X11061884D01*
X11085689Y9165291D01*
X11103909Y9183511D01*
X11113770Y9207316D01*
Y9233084D01*
X11103909Y9256889D01*
X11085689Y9275109D01*
X11061884Y9284970D01*
D02*
G37*
G36*
X11188884Y9157970D02*
X11163116D01*
X11139311Y9148109D01*
X11121091Y9129889D01*
X11111230Y9106084D01*
Y9080316D01*
X11121091Y9056511D01*
X11139311Y9038291D01*
X11163116Y9028430D01*
X11188884D01*
X11212689Y9038291D01*
X11230909Y9056511D01*
X11240770Y9080316D01*
Y9106084D01*
X11230909Y9129889D01*
X11212689Y9148109D01*
X11188884Y9157970D01*
D02*
G37*
G36*
X11315884Y9030970D02*
X11290116D01*
X11266311Y9021109D01*
X11248091Y9002889D01*
X11238230Y8979084D01*
Y8953316D01*
X11248091Y8929511D01*
X11266311Y8911291D01*
X11290116Y8901430D01*
X11315884D01*
X11339689Y8911291D01*
X11357909Y8929511D01*
X11367770Y8953316D01*
Y8979084D01*
X11357909Y9002889D01*
X11339689Y9021109D01*
X11315884Y9030970D01*
D02*
G37*
G36*
X11061884D02*
X11036116D01*
X11012311Y9021109D01*
X10994091Y9002889D01*
X10984230Y8979084D01*
Y8953316D01*
X10994091Y8929511D01*
X11012311Y8911291D01*
X11036116Y8901430D01*
X11061884D01*
X11085689Y8911291D01*
X11103909Y8929511D01*
X11113770Y8953316D01*
Y8979084D01*
X11103909Y9002889D01*
X11085689Y9021109D01*
X11061884Y9030970D01*
D02*
G37*
G36*
X14515988Y7462120D02*
X14503012D01*
X14491022Y7457154D01*
X14481847Y7447978D01*
X14476880Y7435988D01*
Y7423012D01*
X14481847Y7411022D01*
X14491022Y7401846D01*
X14503012Y7396880D01*
X14515988D01*
X14527979Y7401846D01*
X14537154Y7411022D01*
X14542120Y7423012D01*
Y7435988D01*
X14537154Y7447978D01*
X14527979Y7457154D01*
X14515988Y7462120D01*
D02*
G37*
G36*
X14420988D02*
X14408012D01*
X14396022Y7457154D01*
X14386845Y7447978D01*
X14381880Y7435988D01*
Y7423012D01*
X14386845Y7411022D01*
X14396022Y7401846D01*
X14408012Y7396880D01*
X14420988D01*
X14432977Y7401846D01*
X14442154Y7411022D01*
X14447121Y7423012D01*
Y7435988D01*
X14442154Y7447978D01*
X14432977Y7457154D01*
X14420988Y7462120D01*
D02*
G37*
G36*
X14325987D02*
X14313013D01*
X14301022Y7457154D01*
X14291846Y7447978D01*
X14286880Y7435988D01*
Y7423012D01*
X14291846Y7411022D01*
X14301022Y7401846D01*
X14313013Y7396880D01*
X14325987D01*
X14337978Y7401846D01*
X14347154Y7411022D01*
X14352119Y7423012D01*
Y7435988D01*
X14347154Y7447978D01*
X14337978Y7457154D01*
X14325987Y7462120D01*
D02*
G37*
G36*
X11277488D02*
X11264512D01*
X11252522Y7457154D01*
X11243346Y7447978D01*
X11238380Y7435988D01*
Y7423012D01*
X11243346Y7411022D01*
X11252522Y7401846D01*
X11264512Y7396880D01*
X11277488D01*
X11289478Y7401846D01*
X11298654Y7411022D01*
X11303620Y7423012D01*
Y7435988D01*
X11298654Y7447978D01*
X11289478Y7457154D01*
X11277488Y7462120D01*
D02*
G37*
G36*
X11182488D02*
X11169512D01*
X11157522Y7457154D01*
X11148346Y7447978D01*
X11143380Y7435988D01*
Y7423012D01*
X11148346Y7411022D01*
X11157522Y7401846D01*
X11169512Y7396880D01*
X11182488D01*
X11194478Y7401846D01*
X11203654Y7411022D01*
X11208620Y7423012D01*
Y7435988D01*
X11203654Y7447978D01*
X11194478Y7457154D01*
X11182488Y7462120D01*
D02*
G37*
%LPD*%
D29*
X11963400Y7454900D02*
X12128500Y7620000D01*
X11906250Y7397750D02*
X11963400Y7454900D01*
X11493500Y7175500D02*
Y7366000D01*
X11525250Y7397750D02*
X11906250D01*
X11493500Y7366000D02*
X11525250Y7397750D01*
X15019945Y6927346D02*
X15151100Y7058502D01*
Y9182100D02*
X15367000Y9398000D01*
X15151100Y7058502D02*
Y9182100D01*
X13670453Y6943638D02*
Y9189547D01*
X13462000Y9398000D02*
X13670453Y9189547D01*
Y6943638D02*
X13874046Y6740045D01*
X15019945Y6624665D02*
Y6927346D01*
X14833600Y7023100D02*
X15024100D01*
X10502900Y6718300D02*
X10839450Y7054850D01*
Y7261022D01*
X11176000Y7597572D01*
Y8839200D01*
D32*
X12134800Y10000300D02*
D03*
X12384800D02*
D03*
X12634800D02*
D03*
X12884801D02*
D03*
X13134801D02*
D03*
X13384801D02*
D03*
X13634801D02*
D03*
X12134800Y10250300D02*
D03*
X12384800D02*
D03*
X12634800D02*
D03*
X12884801D02*
D03*
X13134801D02*
D03*
X13384801D02*
D03*
X13634801D02*
D03*
D33*
X13639799Y10972800D02*
D03*
X12142300D02*
D03*
D34*
X14795500Y6197600D02*
D03*
X14030991Y6183686D02*
D03*
X15239999Y7124700D02*
D03*
X12281300Y9491226D02*
D03*
X12128500Y7620000D02*
D03*
X11493500Y7175500D02*
D03*
X15019945Y6624665D02*
D03*
X13874046Y6740045D02*
D03*
X14922501Y7140599D02*
D03*
X14262801Y9588500D02*
D03*
X14274800Y9334500D02*
D03*
X14554201D02*
D03*
X14566200Y9588500D02*
D03*
X15557500Y7124700D02*
D03*
X13271500D02*
D03*
X13589000D02*
D03*
X13906500Y7139700D02*
D03*
X10067549Y7124700D02*
D03*
X10390275D02*
D03*
X10668000Y7139700D02*
D03*
X11684000D02*
D03*
X11961725Y7124700D02*
D03*
X12284451D02*
D03*
X10045700Y9271000D02*
D03*
X10070700Y9491225D02*
D03*
X12306300Y9271000D02*
D03*
X14922501Y6708100D02*
D03*
X14833600Y7023100D02*
D03*
X15024100D02*
D03*
X14732001Y6688100D02*
D03*
X14097000D02*
D03*
X14287500Y6700750D02*
D03*
X14541499Y6705600D02*
D03*
X10655300Y6718300D02*
D03*
X10960100Y6730950D02*
D03*
X11112500Y6735800D02*
D03*
X11264900Y6718300D02*
D03*
X11570025Y6733300D02*
D03*
X11722100Y6735800D02*
D03*
X11569700Y6553200D02*
D03*
X10915700Y6419850D02*
D03*
X10502900Y6718300D02*
D03*
X11176000Y8839200D02*
D03*
D35*
X15241675Y7454900D02*
D03*
X15559175D02*
D03*
X13590675D02*
D03*
X13273175D02*
D03*
X10391949D02*
D03*
X10069224D02*
D03*
X11963400D02*
D03*
X12280900D02*
D03*
X11303000Y9220200D02*
D03*
X11049000D02*
D03*
X11176000Y9093200D02*
D03*
X11049000Y8966200D02*
D03*
X11303000D02*
D03*
X15367000Y9398000D02*
D03*
X15239999Y9525000D02*
D03*
X15367000Y9652000D02*
D03*
X13462000Y9398000D02*
D03*
X13589000Y9525000D02*
D03*
X13462000Y9652000D02*
D03*
D36*
X11271000Y7429500D02*
D03*
X11176000D02*
D03*
X11081000D02*
D03*
X14414500D02*
D03*
X14509500D02*
D03*
X14319501D02*
D03*
%TF.MD5,b217e8c7a22bc75fdc3d9d64e4cef2b5*%
M02*
