%TF.GenerationSoftware,Altium Limited,Altium Designer,24.1.2 (44)*%
G04 Layer_Physical_Order=2*
G04 Layer_Color=32768*
%FSLAX45Y45*%
%MOMM*%
%TF.SameCoordinates,52D7BD39-7FF0-4AB0-A2C0-E3239692A872*%
%TF.FilePolarity,Negative*%
%TF.FileFunction,Copper,L2,Inr,Plane*%
%TF.Part,Single*%
G01*
G75*
%TA.AperFunction,NonConductor*%
%ADD37C,1.01600*%
%TA.AperFunction,ComponentPad*%
%ADD38C,2.21600*%
G04:AMPARAMS|DCode=39|XSize=2.724mm|YSize=2.724mm|CornerRadius=0mm|HoleSize=0mm|Usage=FLASHONLY|Rotation=0.000|XOffset=0mm|YOffset=0mm|HoleType=Round|Shape=Relief|Width=0.254mm|Gap=0.254mm|Entries=4|*
%AMTHD39*
7,0,0,2.72400,2.21600,0.25400,45*
%
%ADD39THD39*%
%ADD40C,2.71600*%
%TA.AperFunction,ViaPad*%
G04:AMPARAMS|DCode=41|XSize=1.905mm|YSize=1.905mm|CornerRadius=0mm|HoleSize=0mm|Usage=FLASHONLY|Rotation=0.000|XOffset=0mm|YOffset=0mm|HoleType=Round|Shape=Relief|Width=0.254mm|Gap=0.254mm|Entries=4|*
%AMTHD41*
7,0,0,1.90500,1.39700,0.25400,45*
%
%ADD41THD41*%
G04:AMPARAMS|DCode=42|XSize=1.8288mm|YSize=1.8288mm|CornerRadius=0mm|HoleSize=0mm|Usage=FLASHONLY|Rotation=0.000|XOffset=0mm|YOffset=0mm|HoleType=Round|Shape=Relief|Width=0.254mm|Gap=0.254mm|Entries=4|*
%AMTHD42*
7,0,0,1.82880,1.32080,0.25400,45*
%
%ADD42THD42*%
%ADD43C,1.65100*%
%ADD44C,1.39700*%
G04:AMPARAMS|DCode=45|XSize=1.824mm|YSize=1.824mm|CornerRadius=0mm|HoleSize=0mm|Usage=FLASHONLY|Rotation=0.000|XOffset=0mm|YOffset=0mm|HoleType=Round|Shape=Relief|Width=0.254mm|Gap=0.254mm|Entries=4|*
%AMTHD45*
7,0,0,1.82400,1.31600,0.25400,45*
%
%ADD45THD45*%
D37*
X9550400Y5905500D02*
G03*
X9652000Y5803900I101600J0D01*
G01*
X16179800D02*
G03*
X16281400Y5905500I0J101600D01*
G01*
Y11163300D02*
G03*
X16179800Y11264900I-101600J0D01*
G01*
X9652000D02*
G03*
X9550400Y11163300I0J-101600D01*
G01*
X9652000Y5803900D02*
X16179800D01*
X16281400Y5905500D02*
Y11163300D01*
X9652000Y11264900D02*
X16179800D01*
X9550400Y5905500D02*
Y11163300D01*
D38*
X12134800Y10000300D02*
D03*
X12384800D02*
D03*
X12634800D02*
D03*
X12884801D02*
D03*
X13134801D02*
D03*
X13384801D02*
D03*
X13634801D02*
D03*
D39*
X12134800Y10250300D02*
D03*
X12384800D02*
D03*
X12634800D02*
D03*
X12884801D02*
D03*
X13134801D02*
D03*
X13384801D02*
D03*
X13634801D02*
D03*
D40*
X13639799Y10972800D02*
D03*
X12142300D02*
D03*
D41*
X14795500Y6197600D02*
D03*
X14030991Y6183686D02*
D03*
X14922501Y6708100D02*
D03*
X14732001Y6688100D02*
D03*
X14097000D02*
D03*
X14287500Y6700750D02*
D03*
X14541499Y6705600D02*
D03*
X10655300Y6718300D02*
D03*
X10960100Y6730950D02*
D03*
X11112500Y6735800D02*
D03*
X11264900Y6718300D02*
D03*
X11570025Y6733300D02*
D03*
X11722100Y6735800D02*
D03*
X11569700Y6553200D02*
D03*
X10915700Y6419850D02*
D03*
D42*
X15239999Y7124700D02*
D03*
X12281300Y9491226D02*
D03*
X14922501Y7140599D02*
D03*
X14262801Y9588500D02*
D03*
X14274800Y9334500D02*
D03*
X14554201D02*
D03*
X14566200Y9588500D02*
D03*
X15557500Y7124700D02*
D03*
X13271500D02*
D03*
X13589000D02*
D03*
X13906500Y7139700D02*
D03*
X10067549Y7124700D02*
D03*
X10390275D02*
D03*
X10668000Y7139700D02*
D03*
X11684000D02*
D03*
X11961725Y7124700D02*
D03*
X12284451D02*
D03*
X10045700Y9271000D02*
D03*
X10070700Y9491225D02*
D03*
X12306300Y9271000D02*
D03*
D43*
X15241675Y7454900D02*
D03*
X15559175D02*
D03*
X13590675D02*
D03*
X13273175D02*
D03*
X10391949D02*
D03*
X10069224D02*
D03*
X11963400D02*
D03*
X12280900D02*
D03*
X11303000Y9220200D02*
D03*
X11049000D02*
D03*
X11176000Y9093200D02*
D03*
X11049000Y8966200D02*
D03*
X11303000D02*
D03*
X15367000Y9398000D02*
D03*
X15239999Y9525000D02*
D03*
X15367000Y9652000D02*
D03*
X13462000Y9398000D02*
D03*
X13589000Y9525000D02*
D03*
X13462000Y9652000D02*
D03*
D44*
X12128500Y7620000D02*
D03*
X11493500Y7175500D02*
D03*
X15019945Y6624665D02*
D03*
X13874046Y6740045D02*
D03*
X14833600Y7023100D02*
D03*
X15024100D02*
D03*
X10502900Y6718300D02*
D03*
X11176000Y8839200D02*
D03*
D45*
X11271000Y7429500D02*
D03*
X11176000D02*
D03*
X11081000D02*
D03*
X14414500D02*
D03*
X14509500D02*
D03*
X14319501D02*
D03*
%TF.MD5,9f80e9b5af0c4f39c35ceae8d46c3c72*%
M02*
