%TF.GenerationSoftware,Altium Limited,Altium Designer,24.8.2 (39)*%
G04 Layer_Color=16711935*
%FSLAX45Y45*%
%MOMM*%
%TF.SameCoordinates,E8BDA5DE-7BDE-4699-8ED0-D138E9546F0F*%
%TF.FilePolarity,Negative*%
%TF.FileFunction,Soldermask,Bot*%
%TF.Part,Single*%
G01*
G75*
%TA.AperFunction,ComponentPad*%
%ADD55C,1.76320*%
%ADD56C,2.30320*%
%TA.AperFunction,ViaPad*%
%ADD57C,1.72720*%
%ADD58C,0.83820*%
%ADD59C,1.09220*%
D55*
X1980500Y8259000D02*
D03*
X2230500D02*
D03*
X2480500D02*
D03*
X2730500D02*
D03*
X2980500D02*
D03*
X3230500D02*
D03*
X3480500D02*
D03*
X1980500Y8509000D02*
D03*
X2230500D02*
D03*
X2480500D02*
D03*
X2730500D02*
D03*
X2980500D02*
D03*
X3230500D02*
D03*
X3480500D02*
D03*
D56*
X3485500Y9231500D02*
D03*
X1988000D02*
D03*
D57*
X3492500Y8001000D02*
D03*
X3238500D02*
D03*
X3517900Y3365500D02*
D03*
X3327400D02*
D03*
X1765300Y3683000D02*
D03*
Y3873500D02*
D03*
X2222500Y8001000D02*
D03*
X1968500D02*
D03*
D58*
Y5207000D02*
D03*
X1778000D02*
D03*
X1968500Y5334000D02*
D03*
X1778000D02*
D03*
X1968500Y5461000D02*
D03*
X1778000D02*
D03*
Y5588000D02*
D03*
X1968500D02*
D03*
Y5715000D02*
D03*
X1778000D02*
D03*
X2692400Y6604000D02*
D03*
Y6502400D02*
D03*
D59*
X2194641Y6046587D02*
D03*
X3314700Y6159500D02*
D03*
X3327400Y5994400D02*
D03*
X3002918Y6478270D02*
D03*
X3238500Y3683000D02*
D03*
X3429000Y6159500D02*
D03*
Y6350000D02*
D03*
Y6540500D02*
D03*
Y6731000D02*
D03*
Y6921500D02*
D03*
X2667000Y4254500D02*
D03*
X3403600Y4381500D02*
D03*
X2984500Y6223000D02*
D03*
X1841500Y6350000D02*
D03*
Y6477000D02*
D03*
Y6604000D02*
D03*
X2540000Y6858000D02*
D03*
Y7239000D02*
D03*
Y7556500D02*
D03*
Y7874000D02*
D03*
X2413000Y7239000D02*
D03*
Y7556500D02*
D03*
Y7874000D02*
D03*
Y6858000D02*
D03*
X2286000Y6985000D02*
D03*
Y7112000D02*
D03*
Y7239000D02*
D03*
X2984500Y8064500D02*
D03*
Y7937500D02*
D03*
Y7683500D02*
D03*
Y7429500D02*
D03*
Y7175500D02*
D03*
Y7048500D02*
D03*
Y7302500D02*
D03*
Y7556500D02*
D03*
Y7810500D02*
D03*
%TF.MD5,615dbf3c51041e4442a53d38f11695cf*%
M02*
