%TF.GenerationSoftware,Altium Limited,Altium Designer,24.8.2 (39)*%
G04 Layer_Physical_Order=2*
G04 Layer_Color=16711680*
%FSLAX45Y45*%
%MOMM*%
%TF.SameCoordinates,E8BDA5DE-7BDE-4699-8ED0-D138E9546F0F*%
%TF.FilePolarity,Positive*%
%TF.FileFunction,Copper,L2,Bot,Signal*%
%TF.Part,Single*%
G01*
G75*
%TA.AperFunction,Conductor*%
%ADD36C,0.25400*%
%TA.AperFunction,ComponentPad*%
%ADD38C,1.56000*%
%ADD39C,2.10000*%
%TA.AperFunction,ViaPad*%
%ADD40C,1.52400*%
%ADD41C,0.63500*%
%ADD42C,0.88900*%
G36*
X3619500Y6781800D02*
Y5905500D01*
X3432087D01*
Y5918199D01*
X3432088Y5918200D01*
X3429919Y5929102D01*
X3423744Y5938344D01*
X3384885Y5977203D01*
X3387090Y5982527D01*
Y6006273D01*
X3378003Y6028212D01*
X3361212Y6045003D01*
X3339273Y6054090D01*
X3315527D01*
X3293588Y6045003D01*
X3279687Y6031102D01*
X3266987Y6035189D01*
Y6071500D01*
X3297503Y6102015D01*
X3302827Y6099810D01*
X3326573D01*
X3348512Y6108897D01*
X3365303Y6125688D01*
X3374390Y6147627D01*
Y6171373D01*
X3365303Y6193312D01*
X3348512Y6210103D01*
X3326573Y6219190D01*
X3302827D01*
X3299973Y6218008D01*
X3059379Y6458602D01*
X3062608Y6466397D01*
Y6490143D01*
X3053521Y6512082D01*
X3036730Y6528873D01*
X3014791Y6537960D01*
X2991045D01*
X2969106Y6528873D01*
X2952315Y6512082D01*
X2943228Y6490143D01*
Y6466397D01*
X2952315Y6444458D01*
X2969106Y6427667D01*
X2991045Y6418580D01*
X3014791D01*
X3017645Y6419762D01*
X3258239Y6179168D01*
X3255010Y6171373D01*
Y6147627D01*
X3257215Y6142303D01*
X3218356Y6103444D01*
X3212181Y6094202D01*
X3210012Y6083300D01*
X3210013Y6083299D01*
Y5905500D01*
X3012987D01*
Y6170192D01*
X3018312Y6172397D01*
X3035103Y6189188D01*
X3044190Y6211127D01*
Y6234873D01*
X3035103Y6256812D01*
X3018312Y6273603D01*
X2996373Y6282690D01*
X2972627D01*
X2950688Y6273603D01*
X2933897Y6256812D01*
X2924810Y6234873D01*
Y6211127D01*
X2933897Y6189188D01*
X2950688Y6172397D01*
X2956013Y6170192D01*
Y5905500D01*
X2124696D01*
Y6210300D01*
X2119864Y6221964D01*
X2108200Y6226796D01*
X1794496D01*
Y6663704D01*
X2133600D01*
X2145264Y6668536D01*
X2150096Y6680200D01*
Y6781800D01*
Y7349504D01*
X2794000D01*
X2805664Y7354336D01*
X2810496Y7366000D01*
Y8111504D01*
X3352800D01*
X3364464Y8116336D01*
X3369296Y8128000D01*
Y8369300D01*
X3364464Y8380964D01*
X3352800Y8385796D01*
X2616200D01*
X2604536Y8380964D01*
X2599704Y8369300D01*
Y8169896D01*
X2538047D01*
X2534644Y8182596D01*
X2537751Y8184390D01*
X2555110Y8201749D01*
X2567386Y8223011D01*
X2573740Y8246725D01*
Y8271275D01*
X2567386Y8294989D01*
X2555110Y8316251D01*
X2537751Y8333610D01*
X2516489Y8345886D01*
X2492775Y8352240D01*
X2468225D01*
X2444511Y8345886D01*
X2423249Y8333610D01*
X2405890Y8316251D01*
X2393614Y8294989D01*
X2387260Y8271275D01*
Y8246725D01*
X2393614Y8223011D01*
X2405890Y8201749D01*
X2423249Y8184390D01*
X2426356Y8182596D01*
X2422953Y8169896D01*
X2288047D01*
X2284644Y8182596D01*
X2287751Y8184390D01*
X2305110Y8201749D01*
X2317386Y8223011D01*
X2323740Y8246725D01*
Y8271275D01*
X2317386Y8294989D01*
X2305110Y8316251D01*
X2287751Y8333610D01*
X2266489Y8345886D01*
X2242775Y8352240D01*
X2218225D01*
X2194511Y8345886D01*
X2173249Y8333610D01*
X2155890Y8316251D01*
X2143614Y8294989D01*
X2137260Y8271275D01*
Y8246725D01*
X2143614Y8223011D01*
X2155890Y8201749D01*
X2173249Y8184390D01*
X2176356Y8182596D01*
X2172953Y8169896D01*
X2038047D01*
X2034644Y8182596D01*
X2037751Y8184390D01*
X2055110Y8201749D01*
X2067386Y8223011D01*
X2073740Y8246725D01*
Y8271275D01*
X2067386Y8294989D01*
X2055110Y8316251D01*
X2037751Y8333610D01*
X2016489Y8345886D01*
X1992775Y8352240D01*
X1968225D01*
X1944511Y8345886D01*
X1923249Y8333610D01*
X1905890Y8316251D01*
X1893614Y8294989D01*
X1887260Y8271275D01*
Y8246725D01*
X1893614Y8223011D01*
X1905890Y8201749D01*
X1923249Y8184390D01*
X1926356Y8182596D01*
X1922953Y8169896D01*
X1651000D01*
Y8610600D01*
X3619500D01*
Y6781800D01*
D02*
G37*
G36*
X3352800Y8128000D02*
X2794000D01*
Y7366000D01*
X2133600D01*
Y6680200D01*
X1778000D01*
Y6210300D01*
X2108200D01*
Y5080000D01*
X1651000D01*
Y5842000D01*
Y8153400D01*
X2616200D01*
Y8369300D01*
X3352800D01*
Y8128000D01*
D02*
G37*
%LPC*%
G36*
X2551873Y7298690D02*
X2528127D01*
X2506188Y7289603D01*
X2489397Y7272812D01*
X2483373Y7258268D01*
X2469627D01*
X2463603Y7272812D01*
X2446812Y7289603D01*
X2424873Y7298690D01*
X2401127D01*
X2379188Y7289603D01*
X2362397Y7272812D01*
X2356373Y7258268D01*
X2342627D01*
X2336603Y7272812D01*
X2319812Y7289603D01*
X2297873Y7298690D01*
X2274127D01*
X2252188Y7289603D01*
X2235397Y7272812D01*
X2226310Y7250873D01*
Y7227127D01*
X2235397Y7205188D01*
X2252188Y7188397D01*
X2266732Y7182373D01*
Y7168627D01*
X2252188Y7162603D01*
X2235397Y7145812D01*
X2226310Y7123873D01*
Y7100127D01*
X2235397Y7078188D01*
X2252188Y7061397D01*
X2266732Y7055373D01*
Y7041627D01*
X2252188Y7035603D01*
X2235397Y7018812D01*
X2226310Y6996873D01*
Y6973127D01*
X2235397Y6951188D01*
X2252188Y6934397D01*
X2274127Y6925310D01*
X2297873D01*
X2319812Y6934397D01*
X2336603Y6951188D01*
X2345690Y6973127D01*
Y6996873D01*
X2336603Y7018812D01*
X2319812Y7035603D01*
X2305268Y7041627D01*
Y7055373D01*
X2319812Y7061397D01*
X2336603Y7078188D01*
X2345690Y7100127D01*
Y7123873D01*
X2336603Y7145812D01*
X2319812Y7162603D01*
X2305268Y7168627D01*
Y7182373D01*
X2319812Y7188397D01*
X2336603Y7205188D01*
X2342627Y7219732D01*
X2356373D01*
X2362397Y7205188D01*
X2379188Y7188397D01*
X2401127Y7179310D01*
X2424873D01*
X2446812Y7188397D01*
X2463603Y7205188D01*
X2469627Y7219732D01*
X2483373D01*
X2489397Y7205188D01*
X2506188Y7188397D01*
X2528127Y7179310D01*
X2551873D01*
X2573812Y7188397D01*
X2590603Y7205188D01*
X2599690Y7227127D01*
Y7250873D01*
X2590603Y7272812D01*
X2573812Y7289603D01*
X2551873Y7298690D01*
D02*
G37*
G36*
Y6917690D02*
X2528127D01*
X2506188Y6908603D01*
X2489397Y6891812D01*
X2483373Y6877268D01*
X2469627D01*
X2463603Y6891812D01*
X2446812Y6908603D01*
X2424873Y6917690D01*
X2401127D01*
X2379188Y6908603D01*
X2362397Y6891812D01*
X2353310Y6869873D01*
Y6846127D01*
X2362397Y6824188D01*
X2379188Y6807397D01*
X2401127Y6798310D01*
X2424873D01*
X2446812Y6807397D01*
X2463603Y6824188D01*
X2469627Y6838732D01*
X2483373D01*
X2489397Y6824188D01*
X2506188Y6807397D01*
X2528127Y6798310D01*
X2551873D01*
X2573812Y6807397D01*
X2590603Y6824188D01*
X2599690Y6846127D01*
Y6869873D01*
X2590603Y6891812D01*
X2573812Y6908603D01*
X2551873Y6917690D01*
D02*
G37*
G36*
X2234538Y8092440D02*
X2210462D01*
X2187205Y8086208D01*
X2166355Y8074170D01*
X2149330Y8057145D01*
X2137292Y8036295D01*
X2131060Y8013038D01*
Y7988962D01*
X2137292Y7965705D01*
X2149330Y7944855D01*
X2166355Y7927830D01*
X2187205Y7915792D01*
X2210462Y7909560D01*
X2234538D01*
X2257795Y7915792D01*
X2278645Y7927830D01*
X2295670Y7944855D01*
X2307708Y7965705D01*
X2313940Y7988962D01*
Y8013038D01*
X2307708Y8036295D01*
X2295670Y8057145D01*
X2278645Y8074170D01*
X2257795Y8086208D01*
X2234538Y8092440D01*
D02*
G37*
G36*
X1980538D02*
X1956462D01*
X1933205Y8086208D01*
X1912355Y8074170D01*
X1895330Y8057145D01*
X1883292Y8036295D01*
X1877060Y8013038D01*
Y7988962D01*
X1883292Y7965705D01*
X1895330Y7944855D01*
X1912355Y7927830D01*
X1933205Y7915792D01*
X1956462Y7909560D01*
X1980538D01*
X2003795Y7915792D01*
X2024645Y7927830D01*
X2041670Y7944855D01*
X2053708Y7965705D01*
X2059940Y7988962D01*
Y8013038D01*
X2053708Y8036295D01*
X2041670Y8057145D01*
X2024645Y8074170D01*
X2003795Y8086208D01*
X1980538Y8092440D01*
D02*
G37*
G36*
X2551873Y7933690D02*
X2528127D01*
X2506188Y7924603D01*
X2489397Y7907812D01*
X2483373Y7893268D01*
X2469627D01*
X2463603Y7907812D01*
X2446812Y7924603D01*
X2424873Y7933690D01*
X2401127D01*
X2379188Y7924603D01*
X2362397Y7907812D01*
X2353310Y7885873D01*
Y7862127D01*
X2362397Y7840188D01*
X2379188Y7823397D01*
X2401127Y7814310D01*
X2424873D01*
X2446812Y7823397D01*
X2463603Y7840188D01*
X2469627Y7854732D01*
X2483373D01*
X2489397Y7840188D01*
X2506188Y7823397D01*
X2528127Y7814310D01*
X2551873D01*
X2573812Y7823397D01*
X2590603Y7840188D01*
X2599690Y7862127D01*
Y7885873D01*
X2590603Y7907812D01*
X2573812Y7924603D01*
X2551873Y7933690D01*
D02*
G37*
G36*
Y7616190D02*
X2528127D01*
X2506188Y7607103D01*
X2489397Y7590312D01*
X2483373Y7575768D01*
X2469627D01*
X2463603Y7590312D01*
X2446812Y7607103D01*
X2424873Y7616190D01*
X2401127D01*
X2379188Y7607103D01*
X2362397Y7590312D01*
X2353310Y7568373D01*
Y7544627D01*
X2362397Y7522688D01*
X2379188Y7505897D01*
X2401127Y7496810D01*
X2424873D01*
X2446812Y7505897D01*
X2463603Y7522688D01*
X2469627Y7537232D01*
X2483373D01*
X2489397Y7522688D01*
X2506188Y7505897D01*
X2528127Y7496810D01*
X2551873D01*
X2573812Y7505897D01*
X2590603Y7522688D01*
X2599690Y7544627D01*
Y7568373D01*
X2590603Y7590312D01*
X2573812Y7607103D01*
X2551873Y7616190D01*
D02*
G37*
%LPD*%
D36*
X3238500Y3683000D02*
Y6083300D01*
X3002918Y6474776D02*
X3314700Y6162994D01*
X3238500Y6083300D02*
X3314700Y6159500D01*
X3002918Y6474776D02*
Y6478270D01*
X3314700Y6159500D02*
Y6162994D01*
X3327400Y5994400D02*
X3403600Y5918200D01*
Y4381500D02*
Y5918200D01*
X2984500Y4445000D02*
Y6223000D01*
X2667000Y4254500D02*
X2794000D01*
X2984500Y4445000D01*
D38*
X1980500Y8259000D02*
D03*
X2230500D02*
D03*
X2480500D02*
D03*
X2730500D02*
D03*
X2980500D02*
D03*
X3230500D02*
D03*
X3480500D02*
D03*
X1980500Y8509000D02*
D03*
X2230500D02*
D03*
X2480500D02*
D03*
X2730500D02*
D03*
X2980500D02*
D03*
X3230500D02*
D03*
X3480500D02*
D03*
D39*
X3485500Y9231500D02*
D03*
X1988000D02*
D03*
D40*
X3492500Y8001000D02*
D03*
X3238500D02*
D03*
X3517900Y3365500D02*
D03*
X3327400D02*
D03*
X1765300Y3683000D02*
D03*
Y3873500D02*
D03*
X2222500Y8001000D02*
D03*
X1968500D02*
D03*
D41*
Y5207000D02*
D03*
X1778000D02*
D03*
X1968500Y5334000D02*
D03*
X1778000D02*
D03*
X1968500Y5461000D02*
D03*
X1778000D02*
D03*
Y5588000D02*
D03*
X1968500D02*
D03*
Y5715000D02*
D03*
X1778000D02*
D03*
X2692400Y6604000D02*
D03*
Y6502400D02*
D03*
D42*
X2194641Y6046587D02*
D03*
X3314700Y6159500D02*
D03*
X3327400Y5994400D02*
D03*
X3002918Y6478270D02*
D03*
X3238500Y3683000D02*
D03*
X3429000Y6159500D02*
D03*
Y6350000D02*
D03*
Y6540500D02*
D03*
Y6731000D02*
D03*
Y6921500D02*
D03*
X2667000Y4254500D02*
D03*
X3403600Y4381500D02*
D03*
X2984500Y6223000D02*
D03*
X1841500Y6350000D02*
D03*
Y6477000D02*
D03*
Y6604000D02*
D03*
X2540000Y6858000D02*
D03*
Y7239000D02*
D03*
Y7556500D02*
D03*
Y7874000D02*
D03*
X2413000Y7239000D02*
D03*
Y7556500D02*
D03*
Y7874000D02*
D03*
Y6858000D02*
D03*
X2286000Y6985000D02*
D03*
Y7112000D02*
D03*
Y7239000D02*
D03*
X2984500Y8064500D02*
D03*
Y7937500D02*
D03*
Y7683500D02*
D03*
Y7429500D02*
D03*
Y7175500D02*
D03*
Y7048500D02*
D03*
Y7302500D02*
D03*
Y7556500D02*
D03*
Y7810500D02*
D03*
%TF.MD5,4fb262e44281e8ba1cef56fcf98fe95e*%
M02*
