M48
;Layer_Color=9474304
;FILE_FORMAT=2:5
INCH,LZ
;TYPE=PLATED
T1F00S00C0.03504
T2F00S00C0.03543
T3F00S00C0.04724
T4F00S00C0.06417
T5F00S00C0.06693
;TYPE=NON_PLATED
T6F00S00C0.04724
T7F00S00C0.05118
T8F00S00C0.07087
T9F00S00C0.12795
%
T01
X01575Y0286
Y0296
Y0306
X0176
Y0296
Y0286
X0186Y0291
Y0301
Y0311
X01475
Y0301
Y0291
Y0321
Y0331
X01575Y0326
Y0316
X0176
Y0326
X0186Y0321
Y0331
T02
X0287Y01125
X0297
X0309
X0319
T03
X0111252Y0099158
X0121095
Y0109
X0111252
Y0118842
Y0128685
X0121095
Y0138528
X0111252
X0121095Y0118842
X0160236Y0130724
X0170079
X0179921
X0189764
X0218736
X0228579
X0238421
X0248264
X0251079Y0098224
X0260921
X0270764
X0241236
X0212185Y0098154
X0202343
X01925
X0182658
X0187157Y0070528
Y0060685
Y0050842
Y0041
Y0031157
X0197
Y0041
Y0050842
Y0060685
Y0070528
X0134724Y0169736
Y0179579
Y0189421
Y0199264
X0102126
Y0189421
Y0179579
Y0169736
X0069901
Y0179579
Y0189421
Y0199264
X0036724
Y0189421
Y0179579
Y0169736
X0057401Y0227972
Y0237815
Y0247657
Y02575
X0089901Y0257528
Y0247685
Y0237842
Y0228
X00825Y0361472
Y0371315
Y0381157
Y0391
X0115724Y0391264
Y0381421
Y0371579
Y0361736
T04
X0198992Y0278008
X0134508
Y0338992
X0198992
T05
X0119953Y0090614
Y0147071
X0151693Y0130724
X0198307
X0210193
X0220728Y0098154
X0232693Y0098224
X0279307
X0256807Y0130724
X0195858Y0079071
X0174114Y0098154
X0195858Y0022614
X0134724Y0161193
X0102126
X0069901
X0036724
Y0207807
X0057401Y0219429
X0069901Y0207807
X0089901Y0219457
X0102126Y0207807
X0134724
X0089901Y0266071
X0057401Y0266043
X00825Y0352929
X0115724Y0353193
Y0399807
X00825Y0399543
T06
X02375Y005
Y006
Y007
X02575
Y006
Y005
X02785Y0050429
Y0060429
Y0070429
X0302
Y0060429
Y0050429
X03235Y0050685
Y0060685
Y0070685
X03475Y0071
Y0061
Y0051
T07
X0197421Y0103429
X0175Y0136
X02335
X0256Y01035
X014Y01845
X0107401
X0075177
X0042
X0062677Y0242736
X0095177Y0242764
X0087776Y0376236
X0121Y03765
T08
X035275Y0144711
X0411346Y0153323
X0433
X0456832Y0143429
X0475Y0197929
Y02145
Y0231
Y0255929
Y02725
Y0289
X0470168Y0310429
X0433Y0302142
Y0285606
Y0269071
Y0252535
Y0236
Y0219465
Y0202929
Y0186394
Y0169858
X0411346
Y0186394
Y0202929
Y0219465
Y0236
Y0252535
Y0269071
Y0285606
Y0302142
X03815Y0285642
Y0269071
Y0252571
X03805Y0227071
Y02105
Y0194
X0369285Y0173351
X0361Y0159
X04625
X0468143Y0174505
X037225Y0309711
X0364Y0324
X0355715Y0338351
X0411346Y0335213
Y0318677
X0433
Y0335213
X0458857Y0341505
X04645Y0326
T09
X0211Y0286
X01225
Y0331
X0211
M30
