G04*
G04 #@! TF.GenerationSoftware,Altium Limited,Altium Designer,18.1.9 (240)*
G04*
G04 Layer_Physical_Order=1*
G04 Layer_Color=255*
%FSLAX25Y25*%
%MOIN*%
G70*
G01*
G75*
%ADD11C,0.01000*%
%ADD13R,0.07087X0.02756*%
%ADD14R,0.08661X0.06299*%
%ADD32C,0.10000*%
%ADD33R,0.05906X0.05906*%
%ADD34C,0.05906*%
%ADD35C,0.05118*%
%ADD36C,0.06142*%
%ADD37C,0.08268*%
%ADD38O,0.11811X0.07874*%
%ADD39C,0.11811*%
G04:AMPARAMS|DCode=40|XSize=129.92mil|YSize=157.48mil|CornerRadius=0mil|HoleSize=0mil|Usage=FLASHONLY|Rotation=60.000|XOffset=0mil|YOffset=0mil|HoleType=Round|Shape=Round|*
%AMOVALD40*
21,1,0.02756,0.12992,0.00000,0.00000,150.0*
1,1,0.12992,0.01193,-0.00689*
1,1,0.12992,-0.01193,0.00689*
%
%ADD40OVALD40*%

G04:AMPARAMS|DCode=41|XSize=129.92mil|YSize=157.48mil|CornerRadius=0mil|HoleSize=0mil|Usage=FLASHONLY|Rotation=250.000|XOffset=0mil|YOffset=0mil|HoleType=Round|Shape=Round|*
%AMOVALD41*
21,1,0.02756,0.12992,0.00000,0.00000,340.0*
1,1,0.12992,-0.01295,0.00471*
1,1,0.12992,0.01295,-0.00471*
%
%ADD41OVALD41*%

%ADD42O,0.15748X0.12992*%
G04:AMPARAMS|DCode=43|XSize=129.92mil|YSize=157.48mil|CornerRadius=0mil|HoleSize=0mil|Usage=FLASHONLY|Rotation=120.000|XOffset=0mil|YOffset=0mil|HoleType=Round|Shape=Round|*
%AMOVALD43*
21,1,0.02756,0.12992,0.00000,0.00000,210.0*
1,1,0.12992,0.01193,0.00689*
1,1,0.12992,-0.01193,-0.00689*
%
%ADD43OVALD43*%

%ADD44C,0.05512*%
%ADD45R,0.05512X0.05512*%
%ADD46C,0.08465*%
G04:AMPARAMS|DCode=47|XSize=129.92mil|YSize=157.48mil|CornerRadius=0mil|HoleSize=0mil|Usage=FLASHONLY|Rotation=290.000|XOffset=0mil|YOffset=0mil|HoleType=Round|Shape=Round|*
%AMOVALD47*
21,1,0.02756,0.12992,0.00000,0.00000,20.0*
1,1,0.12992,-0.01295,-0.00471*
1,1,0.12992,0.01295,0.00471*
%
%ADD47OVALD47*%

D11*
X270280Y97803D02*
X270858Y97224D01*
X260437Y97803D02*
X261016Y97224D01*
X230461Y118842D02*
X251079Y98224D01*
X121095Y118842D02*
X230461D01*
X175811Y105000D02*
X182658Y98154D01*
X155311Y105000D02*
X175811D01*
X153811Y103500D02*
X155311Y105000D01*
X181653Y109000D02*
X192500Y98154D01*
X121095Y109000D02*
X181653D01*
X225189Y114272D02*
X241236Y98224D01*
X115823Y114272D02*
X225189D01*
X250264Y361736D02*
X287000Y325000D01*
X115724Y361736D02*
X250264D01*
X247421Y371579D02*
X297000Y322000D01*
X115724Y371579D02*
X247421D01*
X244315Y381421D02*
X309000Y316736D01*
X115724Y381421D02*
X244315D01*
X243736Y391264D02*
X319000Y316000D01*
X115724Y391264D02*
X243736D01*
X319000Y316000D02*
X319000Y112500D01*
X309000Y316736D02*
X309000Y112500D01*
X297000Y322000D02*
X297000Y112500D01*
X287000D02*
Y325000D01*
X128921Y234579D02*
X136500D01*
X104000Y259500D02*
X128921Y234579D01*
X104000Y259500D02*
Y323000D01*
X90500Y336500D02*
X104000Y323000D01*
X90500Y336500D02*
Y359000D01*
X88028Y361472D02*
X90500Y359000D01*
X82500Y361472D02*
X88028D01*
X82500Y371315D02*
X86185D01*
X93500Y364000D01*
Y337500D02*
Y364000D01*
X88842Y381157D02*
X97500Y372500D01*
X82500Y391000D02*
X101000Y372500D01*
X97500Y337500D02*
Y372500D01*
X101000Y339000D02*
Y372500D01*
X82500Y381157D02*
X88842D01*
X93500Y337500D02*
X107000Y324000D01*
Y262500D02*
Y324000D01*
Y262500D02*
X130000Y239500D01*
X136500D01*
X130079Y244421D02*
X136500D01*
X109500Y265000D02*
X130079Y244421D01*
X109500Y265000D02*
Y325500D01*
X97500Y337500D02*
X109500Y325500D01*
X101000Y339000D02*
X111500Y328500D01*
Y268000D02*
Y328500D01*
Y268000D02*
X130157Y249342D01*
X136500D01*
X327658Y31157D02*
X347500Y51000D01*
X197000Y31157D02*
X327658D01*
X308815Y36000D02*
X323500Y50685D01*
X192500Y36000D02*
X308815D01*
X187657Y31157D02*
X192500Y36000D01*
X187157Y31157D02*
X187657D01*
X290571Y39000D02*
X302000Y50429D01*
X224000Y39000D02*
X290571D01*
X222000Y41000D02*
X224000Y39000D01*
X197000Y41000D02*
X222000D01*
X270071Y42000D02*
X278500Y50429D01*
X225000Y42000D02*
X270071D01*
X221500Y45500D02*
X225000Y42000D01*
X198964Y45500D02*
X221500D01*
X198893Y45571D02*
X198964Y45500D01*
X191728Y45571D02*
X198893D01*
X187157Y41000D02*
X191728Y45571D01*
X252063Y44563D02*
X257500Y50000D01*
X228937Y44563D02*
X252063D01*
X222657Y50842D02*
X228937Y44563D01*
X197000Y50842D02*
X222657D01*
X187157D02*
X192315Y56000D01*
X227000D01*
X233000Y50000D01*
X237500D01*
X111252Y118842D02*
X115823Y114272D01*
X115937Y124000D02*
X153512D01*
X111252Y109000D02*
X116524Y103728D01*
X122988D01*
X123216Y103500D01*
X153811D01*
X121095Y128685D02*
X132685D01*
X141000Y137000D01*
X163803D01*
X170079Y130724D01*
X111252Y128685D02*
X115937Y124000D01*
X153512D02*
X160236Y130724D01*
X115823Y133957D02*
X127457D01*
X215303Y144000D02*
X228579Y130724D01*
X133087Y144000D02*
X215303D01*
X127614Y138528D02*
X133087Y144000D01*
X121095Y138528D02*
X127614D01*
X111252D02*
X115823Y133957D01*
X127457D02*
X134500Y141000D01*
X213500D01*
X218736Y135764D01*
Y130724D02*
Y135764D01*
X65634Y155559D02*
X107059D01*
X51457Y169736D02*
X65634Y155559D01*
X36724Y169736D02*
X51457D01*
X107059Y155559D02*
X121236Y169736D01*
X134724D01*
X64571Y175008D02*
X108087D01*
X60000Y179579D02*
X64571Y175008D01*
X36724Y179579D02*
X60000D01*
X112657D02*
X134724D01*
X108087Y175008D02*
X112657Y179579D01*
X64492Y193992D02*
X107508D01*
X59921Y189421D02*
X64492Y193992D01*
X36724Y189421D02*
X59921D01*
X112079D02*
X134724D01*
X107508Y193992D02*
X112079Y189421D01*
X36724Y199264D02*
X52264D01*
X66441Y213441D01*
X106059D01*
X120236Y199264D01*
X134724D01*
X69901Y189421D02*
X102126D01*
X69901Y169736D02*
X102126D01*
X69901Y179579D02*
X102126D01*
X69901Y199264D02*
X102126D01*
X57401Y227972D02*
X57429Y228000D01*
X89901D01*
X89874Y237815D02*
X89901Y237842D01*
X57401Y237815D02*
X89874D01*
X57401Y247657D02*
X57429Y247685D01*
X89901D01*
X89874Y257500D02*
X89901Y257528D01*
X57401Y257500D02*
X89874D01*
X157500Y286000D02*
X176000D01*
X147500Y291000D02*
X186000D01*
X157500Y296000D02*
X176000D01*
X147500Y301000D02*
X186000D01*
X157500Y306000D02*
X176000D01*
X147500Y311000D02*
X186000D01*
X157500Y316000D02*
X176000D01*
X147500Y321000D02*
X186000D01*
X157500Y326000D02*
X176000D01*
X147500Y331000D02*
X186000D01*
X204016Y98154D02*
X204516Y97654D01*
X213858Y98154D02*
X214358Y97654D01*
D13*
X136500Y234579D02*
D03*
Y239500D02*
D03*
Y244421D02*
D03*
Y249342D02*
D03*
D14*
X147524Y258201D02*
D03*
Y225721D02*
D03*
D32*
X433000Y335213D02*
X439292Y341505D01*
X458857D01*
X433000Y318677D02*
X441177D01*
X448500Y326000D01*
X464500D01*
X433000Y302142D02*
X447642D01*
X455929Y310429D01*
X470168D01*
X433000Y285606D02*
X453177D01*
X456571Y289000D01*
X475000D01*
X433000Y269071D02*
X433571Y268500D01*
X457000D01*
X461000Y272500D01*
X475000D01*
X433000Y252535D02*
X471606D01*
X475000Y255929D01*
X433000Y236000D02*
X470000D01*
X475000Y231000D01*
X433000Y219465D02*
X456035D01*
X461000Y214500D01*
X475000D01*
X433000Y202929D02*
X455571D01*
X460571Y197929D01*
X475000D01*
X433000Y186394D02*
X456254D01*
X468143Y174505D01*
X433000Y169858D02*
X440142D01*
X451000Y159000D01*
X462500D01*
X433000Y153323D02*
X442894Y143429D01*
X456832D01*
X402734Y144711D02*
X411346Y153323D01*
X352750Y144711D02*
X402734D01*
X405858Y169858D02*
X411346D01*
X395000Y159000D02*
X405858Y169858D01*
X361000Y159000D02*
X395000D01*
X402394Y186394D02*
X411346D01*
X389351Y173351D02*
X402394Y186394D01*
X369285Y173351D02*
X389351D01*
X401165Y202929D02*
X411346D01*
X392236Y194000D02*
X401165Y202929D01*
X380500Y194000D02*
X392236D01*
X398823Y219465D02*
X411346D01*
X389858Y210500D02*
X398823Y219465D01*
X380500Y210500D02*
X389858D01*
X389429Y236000D02*
X411346D01*
X380500Y227071D02*
X389429Y236000D01*
X411311Y252571D02*
X411346Y252535D01*
X381500Y252571D02*
X411311D01*
X411346Y269071D02*
X411346Y269071D01*
X381500Y269071D02*
X411346D01*
X411311Y285642D02*
X411346Y285606D01*
X381500Y285642D02*
X411311D01*
X395858Y302142D02*
X411346D01*
X388289Y309711D02*
X395858Y302142D01*
X372250Y309711D02*
X388289D01*
X364000Y323307D02*
X406716D01*
X411346Y318677D01*
X364000Y323307D02*
Y324000D01*
X408208Y338351D02*
X411346Y335213D01*
X355715Y338351D02*
X408208D01*
D33*
X287000Y112500D02*
D03*
X309000D02*
D03*
D34*
X297000D02*
D03*
X319000D02*
D03*
D35*
X121000Y376500D02*
D03*
X87776Y376236D02*
D03*
X75177Y184500D02*
D03*
X140000D02*
D03*
X42000D02*
D03*
X107401D02*
D03*
X95177Y242764D02*
D03*
X62677Y242736D02*
D03*
X197421Y103429D02*
D03*
X256000Y103500D02*
D03*
X175000Y136000D02*
D03*
X233500D02*
D03*
D36*
X115724Y391264D02*
D03*
Y381421D02*
D03*
Y371579D02*
D03*
Y361736D02*
D03*
X82500Y391000D02*
D03*
Y381157D02*
D03*
Y371315D02*
D03*
Y361472D02*
D03*
X187157Y31157D02*
D03*
X197000D02*
D03*
X187157Y41000D02*
D03*
X197000D02*
D03*
X187157Y50842D02*
D03*
Y60685D02*
D03*
X197000Y70528D02*
D03*
Y60685D02*
D03*
Y50842D02*
D03*
X187157Y70528D02*
D03*
X69901Y199264D02*
D03*
Y189421D02*
D03*
Y179579D02*
D03*
Y169736D02*
D03*
X134724D02*
D03*
Y179579D02*
D03*
Y189421D02*
D03*
Y199264D02*
D03*
X36724D02*
D03*
Y189421D02*
D03*
Y179579D02*
D03*
Y169736D02*
D03*
X102126D02*
D03*
Y179579D02*
D03*
Y189421D02*
D03*
Y199264D02*
D03*
X89901Y228000D02*
D03*
Y237842D02*
D03*
Y247685D02*
D03*
Y257528D02*
D03*
X57401Y257500D02*
D03*
Y247657D02*
D03*
Y237815D02*
D03*
Y227972D02*
D03*
X212185Y98154D02*
D03*
X202343D02*
D03*
X192500D02*
D03*
X182658D02*
D03*
X270764Y98224D02*
D03*
X260921D02*
D03*
X251079D02*
D03*
X241236D02*
D03*
X111252Y99158D02*
D03*
X121095D02*
D03*
X111252Y109000D02*
D03*
X121095D02*
D03*
X111252Y118842D02*
D03*
Y128685D02*
D03*
X121095Y138528D02*
D03*
Y128685D02*
D03*
Y118842D02*
D03*
X111252Y138528D02*
D03*
X189764Y130724D02*
D03*
X179921D02*
D03*
X170079D02*
D03*
X160236D02*
D03*
X248264D02*
D03*
X238421D02*
D03*
X228579D02*
D03*
X218736D02*
D03*
D37*
X115724Y353193D02*
D03*
Y399807D02*
D03*
X82500Y352929D02*
D03*
Y399543D02*
D03*
X195858Y22614D02*
D03*
Y79071D02*
D03*
X69901Y161193D02*
D03*
Y207807D02*
D03*
X134724D02*
D03*
Y161193D02*
D03*
X36724D02*
D03*
Y207807D02*
D03*
X102126D02*
D03*
Y161193D02*
D03*
X89901Y266071D02*
D03*
Y219457D02*
D03*
X57401Y219429D02*
D03*
Y266043D02*
D03*
X174114Y98154D02*
D03*
X220728D02*
D03*
X232693Y98224D02*
D03*
X279307D02*
D03*
X119953Y90614D02*
D03*
Y147071D02*
D03*
X151693Y130724D02*
D03*
X198307D02*
D03*
X210193D02*
D03*
X256807D02*
D03*
D38*
X323500Y70685D02*
D03*
Y60685D02*
D03*
Y50685D02*
D03*
X237500Y70000D02*
D03*
Y60000D02*
D03*
Y50000D02*
D03*
X278500Y70429D02*
D03*
Y60429D02*
D03*
Y50429D02*
D03*
X347500Y71000D02*
D03*
Y61000D02*
D03*
Y51000D02*
D03*
X302000Y70429D02*
D03*
Y60429D02*
D03*
Y50429D02*
D03*
X257500Y70000D02*
D03*
Y60000D02*
D03*
Y50000D02*
D03*
D39*
X433000Y153323D02*
D03*
Y169858D02*
D03*
Y186394D02*
D03*
Y202929D02*
D03*
Y219465D02*
D03*
Y236000D02*
D03*
Y252535D02*
D03*
Y269071D02*
D03*
Y285606D02*
D03*
Y302142D02*
D03*
Y318677D02*
D03*
Y335213D02*
D03*
X411346Y153323D02*
D03*
Y169858D02*
D03*
Y186394D02*
D03*
Y202929D02*
D03*
Y219465D02*
D03*
Y236000D02*
D03*
Y252535D02*
D03*
Y269071D02*
D03*
Y285606D02*
D03*
Y302142D02*
D03*
Y318677D02*
D03*
Y335213D02*
D03*
D40*
X352750Y144711D02*
D03*
X361000Y159000D02*
D03*
X369285Y173351D02*
D03*
D41*
X468143Y174505D02*
D03*
X462500Y159000D02*
D03*
X456832Y143429D02*
D03*
D42*
X380500Y194000D02*
D03*
Y210500D02*
D03*
Y227071D02*
D03*
X475000Y231000D02*
D03*
Y214500D02*
D03*
Y197929D02*
D03*
X381500Y252571D02*
D03*
Y269071D02*
D03*
Y285642D02*
D03*
X475000Y289000D02*
D03*
Y272500D02*
D03*
Y255929D02*
D03*
D43*
X372250Y309711D02*
D03*
X364000Y324000D02*
D03*
X355715Y338351D02*
D03*
D44*
X157500Y286000D02*
D03*
X147500Y291000D02*
D03*
X157500Y296000D02*
D03*
X147500Y301000D02*
D03*
X157500Y306000D02*
D03*
X147500Y311000D02*
D03*
X157500Y316000D02*
D03*
Y326000D02*
D03*
X147500Y331000D02*
D03*
X176000Y286000D02*
D03*
X186000Y291000D02*
D03*
X176000Y296000D02*
D03*
X186000Y301000D02*
D03*
X176000Y306000D02*
D03*
X186000Y311000D02*
D03*
X176000Y316000D02*
D03*
Y326000D02*
D03*
X186000Y331000D02*
D03*
D45*
X147500Y321000D02*
D03*
X186000D02*
D03*
D46*
X134508Y338992D02*
D03*
Y278008D02*
D03*
X198992Y338992D02*
D03*
Y278008D02*
D03*
D47*
X458857Y341505D02*
D03*
X464500Y326000D02*
D03*
X470168Y310429D02*
D03*
M02*
