G04*
G04 #@! TF.GenerationSoftware,Altium Limited,Altium Designer,18.1.9 (240)*
G04*
G04 Layer_Color=65535*
%FSLAX25Y25*%
%MOIN*%
G70*
G01*
G75*
%ADD10C,0.00787*%
%ADD11C,0.01000*%
%ADD12C,0.00591*%
G36*
X273225Y268625D02*
X272864Y268384D01*
X272382Y268023D01*
X271660Y267542D01*
X271539Y267421D01*
X271058Y267060D01*
X270336Y266217D01*
X269252Y265134D01*
X269132Y265014D01*
X269012Y264893D01*
X268530Y264171D01*
X267928Y263208D01*
X267808Y262847D01*
X267688Y262366D01*
Y262245D01*
X267808Y262125D01*
X268049Y261643D01*
X268289Y261764D01*
X268771Y261884D01*
X269493Y262125D01*
X270215Y262486D01*
X270336D01*
X270577Y262606D01*
X270938Y262727D01*
X271419Y262967D01*
X272864Y263449D01*
X274428Y263930D01*
X274669D01*
X275151Y264171D01*
X275873Y264412D01*
X276956Y264653D01*
X278160Y264893D01*
X279484Y265254D01*
X282493Y265856D01*
X283336Y266097D01*
X283456D01*
X283697Y266217D01*
X284058D01*
X284539Y266338D01*
X285141Y266458D01*
X285984Y266579D01*
X287789Y266819D01*
X289956Y267060D01*
X292364Y267421D01*
X294891Y267662D01*
X297660Y267782D01*
X297780Y267662D01*
X298141Y267180D01*
X298743Y266338D01*
X299465Y265375D01*
X300187Y264171D01*
X300910Y262847D01*
X301752Y261403D01*
X302354Y259838D01*
X302474Y259597D01*
X302595Y259116D01*
X302956Y258273D01*
X303197Y257310D01*
X303558Y256106D01*
X303799Y254903D01*
X304039Y253578D01*
X304160Y252255D01*
Y252134D01*
Y251653D01*
Y251051D01*
X304280Y250208D01*
X304160Y249245D01*
Y248162D01*
X303919Y245995D01*
Y245875D01*
X303799Y245514D01*
Y245032D01*
X303678Y244310D01*
X303317Y242866D01*
X303197Y242143D01*
X302956Y241542D01*
X302354Y239977D01*
X302474Y239856D01*
X302595Y239495D01*
Y239375D01*
X302715Y239254D01*
Y239134D01*
X302956Y238773D01*
X303076Y238292D01*
X303317Y237569D01*
X303678Y236727D01*
X303919Y235884D01*
X304521Y233838D01*
Y233717D01*
X304641Y233356D01*
X304762Y232634D01*
X304882Y231912D01*
X305002Y230949D01*
X305123Y229866D01*
X305243Y227579D01*
Y227338D01*
Y226736D01*
X305123Y225773D01*
X305002Y224569D01*
X304882Y223125D01*
X304641Y221560D01*
X304160Y219875D01*
X303678Y218190D01*
Y218310D01*
Y218430D01*
Y218792D01*
Y218912D01*
Y219273D01*
X303558Y219755D01*
X303437Y220477D01*
X303197Y221199D01*
X302956Y222042D01*
X302474Y223005D01*
X301873Y223847D01*
X301752Y223968D01*
X301512Y224208D01*
X301150Y224690D01*
X300549Y225171D01*
X299826Y225653D01*
X298864Y226255D01*
X297901Y226736D01*
X296697Y227097D01*
Y226977D01*
Y226495D01*
X296817Y225893D01*
X297058Y225292D01*
Y225171D01*
X297299Y224931D01*
X297419Y224569D01*
X297780Y224088D01*
X298743Y223125D01*
X299947Y222162D01*
X299826D01*
X299345Y222282D01*
X298623Y222523D01*
X297780Y222764D01*
X296817Y223125D01*
X295734Y223486D01*
X293326Y224690D01*
X293206D01*
X292965Y224931D01*
X292604Y225171D01*
X292123Y225532D01*
X290919Y226495D01*
X289595Y227699D01*
X289475Y227819D01*
X288993Y228181D01*
X288873Y228060D01*
X288752Y227819D01*
X288391Y227458D01*
X288030Y226977D01*
X287067Y225532D01*
X285863Y223847D01*
Y223727D01*
X285623Y223486D01*
X285382Y223125D01*
X285021Y222764D01*
X283938Y221560D01*
X282613Y220236D01*
X280928Y218912D01*
X279002Y217708D01*
X277919Y217106D01*
X276715Y216745D01*
X275512Y216505D01*
X274308Y216384D01*
X274188Y216143D01*
X273706Y215421D01*
X272984Y214338D01*
X272141Y212894D01*
X271178Y211208D01*
X270095Y209282D01*
X269132Y207116D01*
X268169Y204949D01*
Y204829D01*
Y204708D01*
X268049Y204106D01*
X267928Y203144D01*
X267808Y202181D01*
Y202060D01*
Y201819D01*
Y201097D01*
Y200977D01*
Y200856D01*
X268049Y200014D01*
X268289Y198931D01*
X268771Y197847D01*
X268891Y197607D01*
X269252Y197125D01*
X269854Y196523D01*
X270456Y196162D01*
X270336D01*
X269854Y196282D01*
X269132Y196523D01*
X268410Y196764D01*
X268289D01*
X268169Y196884D01*
X267447Y197245D01*
X267688Y197005D01*
X268169Y196523D01*
X268891Y195681D01*
X269734Y194838D01*
X270697Y193875D01*
X271660Y193153D01*
X272623Y192671D01*
X272984Y192551D01*
X273225D01*
X272743Y192431D01*
X272141Y192310D01*
X270336D01*
X269373Y192551D01*
X268410Y192912D01*
X267447Y193514D01*
X267567Y193394D01*
X267808Y193032D01*
X268289Y192551D01*
X269012Y191949D01*
X269975Y191347D01*
X271299Y190866D01*
X272864Y190505D01*
X274669Y190384D01*
X276475D01*
X277317Y190264D01*
X278401D01*
X279604Y190144D01*
X280928Y190023D01*
X283817Y189662D01*
X286947Y189181D01*
X290076Y188458D01*
X293206Y187375D01*
X293447Y187255D01*
X293928Y187014D01*
X294771Y186653D01*
X295854Y186051D01*
X297058Y185449D01*
X298502Y184727D01*
X301512Y182921D01*
X301391D01*
X301150Y183042D01*
X300669D01*
X299947Y183162D01*
X299225D01*
X298262Y183282D01*
X296095Y183403D01*
X293567D01*
X290919Y183162D01*
X288271Y182801D01*
X285623Y182079D01*
X285382Y181958D01*
X284900Y181838D01*
X284178Y181477D01*
X283456Y181116D01*
X288993D01*
X289956Y180995D01*
X291160Y180875D01*
X292364D01*
X295012Y180514D01*
X294289D01*
X293808Y180634D01*
X292364D01*
X291521Y180514D01*
X290438D01*
X288030Y180273D01*
X285262Y179792D01*
X282132Y179069D01*
X278641Y177986D01*
X278521D01*
X278039Y177745D01*
X277438Y177505D01*
X276836Y177264D01*
X276595Y177144D01*
X275993Y176903D01*
X275151Y176542D01*
X274188Y176060D01*
X273947Y175940D01*
X273465Y175458D01*
X272623Y174857D01*
X271419Y174014D01*
X270095Y172931D01*
X268651Y171727D01*
X265641Y169079D01*
X265401Y168838D01*
X264799Y168357D01*
X263715Y167634D01*
X262271Y166671D01*
X260345Y165588D01*
X258058Y164384D01*
X255290Y163301D01*
X252160Y162338D01*
X252040D01*
X251799Y162218D01*
X251317Y162097D01*
X250715Y161977D01*
X249873Y161857D01*
X249030Y161616D01*
X246743Y161255D01*
X244215Y161014D01*
X241447Y160894D01*
X238558Y161014D01*
X235549Y161495D01*
X235429D01*
X235188Y161616D01*
X234827Y161736D01*
X234345Y161857D01*
X233141Y162338D01*
X231456Y163060D01*
X229651Y164023D01*
X227725Y165227D01*
X225799Y166792D01*
X223993Y168718D01*
Y168838D01*
X223753Y168958D01*
X223632Y169319D01*
X223271Y169681D01*
X222910Y170282D01*
X222549Y171005D01*
X221706Y172690D01*
X220743Y174857D01*
X219780Y177505D01*
X219058Y180634D01*
X218577Y184125D01*
X217373Y182921D01*
Y183042D01*
X217493Y183162D01*
X217614Y183523D01*
X217734Y184005D01*
X217975Y184727D01*
X218095Y185690D01*
X218336Y186773D01*
X218456Y188218D01*
Y188338D01*
Y188579D01*
Y189060D01*
Y189542D01*
Y190264D01*
Y191106D01*
X218577Y192912D01*
Y193032D01*
Y193273D01*
Y193755D01*
Y194236D01*
Y195440D01*
Y195921D01*
Y196282D01*
Y196403D01*
X218336Y196523D01*
X218216Y196403D01*
X217975Y196282D01*
X217734Y196042D01*
X217373Y195681D01*
X217253Y195560D01*
X217012Y195199D01*
X216530Y194718D01*
X216169Y194116D01*
Y194236D01*
Y194477D01*
Y194597D01*
Y194958D01*
X216290Y195560D01*
X216410Y196282D01*
X216530Y197125D01*
X216771Y198088D01*
X217132Y199051D01*
X217614Y200134D01*
X217734Y200255D01*
X217854Y200495D01*
X218095Y200856D01*
X218336Y201458D01*
X218456Y201579D01*
X218577Y201940D01*
X218817Y202301D01*
X219058Y202662D01*
Y202782D01*
X219179Y202903D01*
X219299Y203384D01*
Y203505D01*
X219058D01*
X218817Y203384D01*
X218577Y203264D01*
X218095Y202903D01*
X217493Y202421D01*
X215447Y200616D01*
X215567Y200736D01*
X215688Y201218D01*
X216049Y201819D01*
X216530Y202542D01*
X216651Y202662D01*
X217012Y203144D01*
X217493Y203866D01*
X218216Y204708D01*
Y204829D01*
X218456Y204949D01*
X218817Y205431D01*
X219419Y206153D01*
X219901Y206755D01*
X220021Y206875D01*
X220262Y207477D01*
X220743Y208199D01*
X221225Y209282D01*
Y209403D01*
X221345Y209523D01*
X221706Y210245D01*
X222067Y211208D01*
X222428Y212051D01*
X222790Y213255D01*
X222910Y213495D01*
X223151Y214097D01*
X223392Y215060D01*
X223873Y216264D01*
X224475Y217588D01*
X225197Y219153D01*
X226762Y222523D01*
X226882Y222764D01*
X227123Y223245D01*
X227484Y224088D01*
X227965Y225171D01*
X228567Y226495D01*
X229169Y227940D01*
X230373Y231190D01*
Y231310D01*
X230132Y231551D01*
X229891Y231912D01*
X229530Y232153D01*
X229410Y232273D01*
X229169Y232393D01*
X228688Y232514D01*
X228206D01*
X227805Y232434D01*
X227725Y232393D01*
X227604D01*
X227805Y232434D01*
X227965Y232514D01*
X228327Y232634D01*
X228808Y232754D01*
X229771Y232995D01*
X230253Y232875D01*
X230493Y232754D01*
Y232875D01*
Y232995D01*
Y233116D01*
X230373Y233597D01*
X230132Y234319D01*
X229771Y235042D01*
X229290Y236004D01*
X228567Y236967D01*
X227604Y237930D01*
X226521Y238893D01*
X226641D01*
X227003Y239014D01*
X227484Y239134D01*
X228206Y239254D01*
X228928D01*
X229891Y239375D01*
X231817Y239495D01*
X231697Y239616D01*
X231577Y239977D01*
X231216Y240458D01*
X230734Y241060D01*
X229410Y242505D01*
X227845Y244069D01*
X227965D01*
X228206Y243949D01*
X228688D01*
X229290Y243829D01*
X230614Y243467D01*
X232178Y242866D01*
Y242986D01*
X232058Y243227D01*
X231577Y243949D01*
Y244069D01*
X231336Y244310D01*
X231095Y244792D01*
X230854Y245514D01*
X230493Y246477D01*
X230253Y247680D01*
X230012Y249125D01*
X229771Y250930D01*
Y251051D01*
Y251171D01*
Y251773D01*
X229651Y252856D01*
X229530Y254180D01*
X229410Y255745D01*
X229290Y257430D01*
X228928Y261162D01*
Y261403D01*
X228808Y262004D01*
X228688Y262847D01*
X228327Y263930D01*
X227965Y265134D01*
X227484Y266338D01*
X226762Y267542D01*
X225919Y268504D01*
X226040D01*
X226280Y268384D01*
X226762Y268264D01*
X227243Y268143D01*
X227364D01*
X227965Y267903D01*
X228447Y267782D01*
X229049Y267542D01*
X229771Y267180D01*
X230614Y266819D01*
X230734D01*
X231095Y266579D01*
X231577Y266338D01*
X232299Y266097D01*
X233864Y265254D01*
X235669Y264051D01*
X235790Y263930D01*
X236151Y263810D01*
X236632Y263329D01*
X237354Y262847D01*
X238197Y262125D01*
X239280Y261282D01*
X240364Y260319D01*
X241567Y259116D01*
X241688Y258995D01*
X242169Y258514D01*
X242771Y257912D01*
X243614Y256949D01*
X244577Y255866D01*
X245660Y254541D01*
X246743Y253097D01*
X247827Y251532D01*
X247947D01*
X248067Y251773D01*
X248790Y252255D01*
X249873Y252856D01*
X251077Y253578D01*
Y253699D01*
Y253940D01*
Y254541D01*
Y254662D01*
Y254782D01*
X251197Y255504D01*
X251438Y256467D01*
X251919Y257791D01*
X252521Y259356D01*
X253484Y261041D01*
X254688Y262727D01*
X256253Y264532D01*
Y264412D01*
X256132Y264051D01*
X256012Y263810D01*
X255891Y263569D01*
X255771Y263208D01*
Y263088D01*
X255651Y262847D01*
X255410Y262004D01*
Y261884D01*
X255290Y261643D01*
X255049Y260921D01*
Y260801D01*
Y260680D01*
Y260079D01*
X255169Y259958D01*
X255410Y259838D01*
X255530D01*
X255771Y259958D01*
X256253Y260440D01*
X256854Y261162D01*
X257697Y262004D01*
X258419Y262847D01*
X259141Y263810D01*
X259623Y264653D01*
X259864Y265495D01*
X259984Y265375D01*
X260104Y264773D01*
Y264653D01*
X260225Y264412D01*
X260465Y264051D01*
X260586Y263449D01*
Y263329D01*
X260706Y263088D01*
X260826Y262727D01*
Y262366D01*
X260947Y262606D01*
X261428Y263088D01*
X262151Y263810D01*
X262993Y264653D01*
X263114D01*
X263234Y264893D01*
X263595Y265134D01*
X264076Y265495D01*
X264558Y265856D01*
X265280Y266338D01*
X266243Y266819D01*
X267206Y267301D01*
X267326Y267421D01*
X267688Y267542D01*
X268289Y267782D01*
X269012Y268023D01*
X269975Y268264D01*
X271058Y268504D01*
X272141Y268745D01*
X273345D01*
X273225Y268625D01*
D02*
G37*
G36*
X323967Y281191D02*
X323660Y280782D01*
X323058Y280060D01*
X322215Y279097D01*
X321252Y277893D01*
X320049Y276569D01*
X318724Y275125D01*
X317280Y273560D01*
X314150Y270069D01*
X310539Y266579D01*
X306928Y263088D01*
X305002Y261523D01*
X303197Y260079D01*
Y260199D01*
X303076Y260319D01*
X302836Y260921D01*
X302354Y261764D01*
X301873Y262847D01*
X301993Y262967D01*
X302474Y263208D01*
X303197Y263690D01*
X304160Y264292D01*
X305243Y265014D01*
X306567Y265977D01*
X308012Y266940D01*
X309697Y268143D01*
X311382Y269467D01*
X313188Y270912D01*
X316919Y274042D01*
X320650Y277532D01*
X323967Y281191D01*
X324021Y281264D01*
X324141Y281384D01*
X323967Y281191D01*
D02*
G37*
G36*
X237475Y268865D02*
X237956Y268504D01*
X238799Y268023D01*
X239641Y267301D01*
X240725Y266579D01*
X241928Y265616D01*
X244456Y263690D01*
X244577Y263569D01*
X245058Y263208D01*
X245660Y262727D01*
X246382Y262125D01*
X248067Y260680D01*
X248790Y259838D01*
X249512Y259116D01*
X249632Y258995D01*
X249752Y258754D01*
X250354Y258153D01*
X250836Y257310D01*
X250956Y256949D01*
Y256708D01*
X250836Y256467D01*
X250715Y255986D01*
X250595Y255384D01*
X250475Y254541D01*
Y254421D01*
Y254301D01*
Y253940D01*
X247827Y252255D01*
Y252375D01*
Y252495D01*
X247706Y252856D01*
X247465Y253217D01*
X247104Y253819D01*
X246623Y254541D01*
X246021Y255264D01*
X245178Y256227D01*
X245058Y256347D01*
X244817Y256708D01*
X244336Y257190D01*
X243734Y257912D01*
X242169Y259477D01*
X240364Y261041D01*
X238077Y263208D01*
X237956Y263449D01*
X237354Y268986D01*
X237475Y268865D01*
D02*
G37*
G36*
X269252Y201940D02*
X269854D01*
X270817Y201819D01*
X271901Y201579D01*
X273225Y201458D01*
X274790Y201218D01*
X276475Y200856D01*
X278401Y200495D01*
X280327Y200134D01*
X284660Y199171D01*
X289354Y198088D01*
X294169Y196643D01*
X294289D01*
X294771Y196403D01*
X295493Y196282D01*
X296456Y195921D01*
X297539Y195560D01*
X298864Y195079D01*
X300428Y194597D01*
X301993Y193995D01*
X305604Y192671D01*
X309456Y191106D01*
X313428Y189542D01*
X317280Y187736D01*
X317400D01*
X317761Y187495D01*
X318243Y187255D01*
X318965Y186894D01*
X319808Y186532D01*
X320891Y186051D01*
X321974Y185449D01*
X323299Y184847D01*
X326067Y183403D01*
X329076Y181958D01*
X332206Y180273D01*
X335336Y178588D01*
X335456D01*
X335697Y178347D01*
X336178Y178107D01*
X336660Y177866D01*
X337382Y177384D01*
X338104Y177023D01*
X339910Y175940D01*
X341956Y174736D01*
X344002Y173412D01*
X346048Y172208D01*
X347734Y171005D01*
X352067Y167875D01*
X351826Y167996D01*
X351104Y168357D01*
X350021Y169079D01*
X348456Y169921D01*
X346650Y170884D01*
X344363Y172088D01*
X341836Y173412D01*
X339067Y174736D01*
X336058Y176301D01*
X332808Y177866D01*
X329437Y179310D01*
X325826Y180875D01*
X318363Y184005D01*
X314512Y185329D01*
X310660Y186653D01*
X310419Y186773D01*
X309697Y186894D01*
X308613Y187255D01*
X307169Y187736D01*
X305363Y188338D01*
X303197Y188940D01*
X300789Y189542D01*
X298021Y190264D01*
X295132Y190986D01*
X292002Y191829D01*
X288752Y192551D01*
X285382Y193273D01*
X278401Y194597D01*
X271299Y195560D01*
X271419Y195681D01*
X271539Y196162D01*
Y196282D01*
X271419Y196523D01*
X271299Y196764D01*
X270938Y196884D01*
X270577D01*
X270456Y197005D01*
X270215Y197125D01*
X269975Y197607D01*
X269493Y198449D01*
Y198570D01*
X269373Y198690D01*
X269132Y199292D01*
X268891Y200134D01*
X268651Y201218D01*
Y201338D01*
Y201458D01*
Y202060D01*
X268771D01*
X269252Y201940D01*
D02*
G37*
G36*
X228688Y235764D02*
X228928Y235282D01*
X229290Y234560D01*
X229651Y233838D01*
X229410D01*
X228928Y233717D01*
X228206Y233597D01*
X227364Y233236D01*
X227243D01*
X227123Y232995D01*
X227003Y232754D01*
X226882Y232393D01*
Y232273D01*
X227003Y232153D01*
Y232032D01*
X227123Y231912D01*
X227364Y231792D01*
X227604Y231671D01*
X228928D01*
X229530Y231431D01*
Y231310D01*
Y231190D01*
X229410Y230949D01*
X229290Y230468D01*
X228928Y229625D01*
X228567Y228542D01*
X227965Y227338D01*
X227364Y225893D01*
X226040Y222884D01*
Y222764D01*
X225919Y222643D01*
X225799Y222523D01*
Y222403D01*
Y222282D01*
X225678Y222162D01*
X225197Y221680D01*
X224354Y221079D01*
X223392Y220116D01*
X222188Y219032D01*
X220743Y217588D01*
X219179Y216023D01*
X217614Y214338D01*
X215808Y212412D01*
X214003Y210366D01*
X212077Y208079D01*
X210271Y205792D01*
X206660Y200736D01*
X205095Y198088D01*
X203530Y195440D01*
X203651D01*
X203771Y195560D01*
X204132Y195681D01*
X204614Y195801D01*
X205818Y196282D01*
X207503Y196764D01*
X209429Y197366D01*
X211595Y197968D01*
X213882Y198570D01*
X216290Y199051D01*
Y198931D01*
X216169Y198690D01*
X216049Y198329D01*
X215929Y197727D01*
X215567Y196282D01*
X215447Y194597D01*
Y194477D01*
Y194116D01*
Y193995D01*
X215567Y193875D01*
X215688Y193634D01*
X216049Y193394D01*
X216410D01*
X216651Y193514D01*
X216771Y193755D01*
Y193875D01*
X217012Y194116D01*
X217373Y194477D01*
X217854Y195079D01*
Y194958D01*
Y194597D01*
Y193995D01*
Y193153D01*
Y192912D01*
Y192431D01*
Y192190D01*
Y191829D01*
X217734D01*
X217493Y191708D01*
X217012Y191588D01*
X216410Y191347D01*
X215567Y190986D01*
X214725Y190625D01*
X213642Y190264D01*
X212558Y189782D01*
X210030Y188699D01*
X207141Y187255D01*
X204253Y185810D01*
X201123Y184005D01*
X201003D01*
X200762Y183764D01*
X200280Y183523D01*
X199799Y183162D01*
X199077Y182681D01*
X198234Y182199D01*
X196308Y180875D01*
X194142Y179431D01*
X191734Y177745D01*
X189447Y175940D01*
X187160Y174134D01*
X187040D01*
X186919Y173894D01*
X186197Y173292D01*
X185114Y172329D01*
X183669Y171005D01*
X182105Y169560D01*
X180419Y167996D01*
X176808Y164625D01*
X176567Y164384D01*
X176086Y163903D01*
X175243Y163060D01*
X174281Y161977D01*
X173197Y160773D01*
X172114Y159449D01*
X171151Y158246D01*
X170188Y157042D01*
X168142Y154273D01*
X168262Y154514D01*
X168623Y154996D01*
X169225Y155838D01*
X170068Y157162D01*
X171030Y158727D01*
X172355Y160773D01*
X173799Y163060D01*
X175605Y165829D01*
X177531Y168958D01*
X179577Y172449D01*
X181984Y176301D01*
X184512Y180514D01*
X187280Y185208D01*
X190290Y190144D01*
X193419Y195560D01*
X196790Y201338D01*
X196910Y201458D01*
X197151Y201940D01*
X197512Y202542D01*
X198114Y203505D01*
X198716Y204588D01*
X199558Y205792D01*
X200401Y207236D01*
X201484Y208801D01*
X203651Y212171D01*
X206178Y215662D01*
X208827Y219032D01*
X211475Y222282D01*
X211595Y222403D01*
X211836Y222643D01*
X212197Y223125D01*
X212799Y223606D01*
X213521Y224329D01*
X214364Y225171D01*
X215327Y226014D01*
X216410Y226977D01*
X218938Y229143D01*
X221827Y231431D01*
X225077Y233717D01*
X228567Y235884D01*
X228688Y235764D01*
D02*
G37*
G36*
X450866Y118867D02*
X333500D01*
Y132821D01*
X450866D01*
Y118867D01*
D02*
G37*
G36*
X283276Y372036D02*
X283300D01*
X283323Y372013D01*
X283392Y371990D01*
X283485Y371967D01*
X283600Y371944D01*
X284572D01*
X284711Y371921D01*
X284827Y371874D01*
X284943Y371805D01*
X285012Y371689D01*
X284966Y371481D01*
X278278D01*
X278232Y371504D01*
X278186Y371550D01*
X278116Y371597D01*
Y371620D01*
X278093Y371666D01*
X278116Y371782D01*
X278163Y371944D01*
X279759D01*
Y388234D01*
X278163D01*
X278093Y388743D01*
X278139D01*
X278255Y388767D01*
X278440Y388790D01*
X278672Y388813D01*
X278949Y388836D01*
X279250Y388859D01*
X279551Y388836D01*
X279852Y388813D01*
X279898D01*
X279991Y388790D01*
X280916D01*
X281240Y388813D01*
X281587Y388836D01*
X281633D01*
X281749Y388859D01*
X281934Y388905D01*
X282166Y388975D01*
X282420Y389067D01*
X282721Y389160D01*
X282999Y389322D01*
X283276Y389484D01*
Y372036D01*
D02*
G37*
G36*
X226745Y387910D02*
X226907D01*
X227023Y387887D01*
X227278Y387818D01*
X227602Y387702D01*
X227764Y387610D01*
X227926Y387494D01*
X228087Y387355D01*
X228226Y387170D01*
X228342Y386985D01*
X228435Y386753D01*
X228504Y386476D01*
X228550Y386175D01*
Y386152D01*
Y386059D01*
X228527Y385944D01*
X228481Y385782D01*
X228435Y385596D01*
X228319Y385388D01*
X228180Y385180D01*
X227995Y384948D01*
X227972Y384925D01*
X227902Y384856D01*
X227787Y384763D01*
X227625Y384671D01*
X227440Y384555D01*
X227208Y384462D01*
X226977Y384416D01*
X226722Y384393D01*
X226699D01*
X226607Y384416D01*
X226468Y384439D01*
X226283Y384462D01*
X226097Y384532D01*
X225866Y384625D01*
X225658Y384763D01*
X225450Y384925D01*
X225426Y384948D01*
X225380Y385018D01*
X225288Y385134D01*
X225195Y385272D01*
X225102Y385457D01*
X225010Y385689D01*
X224940Y385920D01*
X224917Y386175D01*
Y386198D01*
Y386291D01*
X224940Y386429D01*
X224987Y386614D01*
X225033Y386823D01*
X225126Y387054D01*
X225265Y387262D01*
X225426Y387494D01*
X225450Y387517D01*
X225519Y387586D01*
X225635Y387679D01*
X225797Y387772D01*
X225982Y387841D01*
X226213Y387910D01*
X226468Y387933D01*
X226745Y387910D01*
D02*
G37*
G36*
X408186Y387795D02*
X408371Y387748D01*
X408579Y387679D01*
X408788Y387586D01*
X408996Y387471D01*
X409204Y387286D01*
X409228Y387262D01*
X409297Y387193D01*
X409366Y387077D01*
X409482Y386939D01*
X409575Y386753D01*
X409644Y386545D01*
X409713Y386314D01*
X409736Y386036D01*
Y386013D01*
Y385967D01*
Y385944D01*
Y385920D01*
Y385897D01*
Y385805D01*
X409713Y385666D01*
X409667Y385504D01*
X409621Y385296D01*
X409528Y385110D01*
X409389Y384902D01*
X409228Y384694D01*
X409204Y384671D01*
X409135Y384625D01*
X409019Y384532D01*
X408880Y384462D01*
X408718Y384370D01*
X408510Y384277D01*
X408279Y384231D01*
X408024Y384208D01*
X407747D01*
X407608Y384231D01*
X407422Y384277D01*
X407237Y384324D01*
X407029Y384416D01*
X406821Y384555D01*
X406613Y384717D01*
X406590Y384740D01*
X406543Y384810D01*
X406451Y384925D01*
X406381Y385064D01*
X406289Y385249D01*
X406196Y385457D01*
X406150Y385712D01*
X406127Y385967D01*
Y385990D01*
Y386013D01*
Y386036D01*
Y386129D01*
Y386267D01*
X406150Y386429D01*
X406196Y386614D01*
X406265Y386823D01*
X406404Y387054D01*
X406566Y387262D01*
X406590Y387286D01*
X406659Y387355D01*
X406775Y387448D01*
X406937Y387540D01*
X407122Y387633D01*
X407353Y387725D01*
X407608Y387795D01*
X407908Y387818D01*
X408047D01*
X408186Y387795D01*
D02*
G37*
G36*
X361235Y387772D02*
X361420Y387725D01*
X361629Y387656D01*
X361837Y387563D01*
X362068Y387448D01*
X362253Y387286D01*
X362276Y387262D01*
X362323Y387193D01*
X362415Y387077D01*
X362508Y386939D01*
X362600Y386753D01*
X362670Y386522D01*
X362716Y386244D01*
X362739Y385944D01*
Y385920D01*
Y385897D01*
Y385805D01*
X362716Y385666D01*
X362670Y385504D01*
X362624Y385296D01*
X362531Y385110D01*
X362392Y384902D01*
X362230Y384694D01*
X362207Y384671D01*
X362138Y384625D01*
X362045Y384532D01*
X361906Y384462D01*
X361721Y384370D01*
X361513Y384277D01*
X361281Y384231D01*
X361027Y384208D01*
X360842D01*
X360726Y384231D01*
X360448Y384300D01*
X360124Y384416D01*
X359962Y384509D01*
X359800Y384648D01*
X359638Y384787D01*
X359500Y384972D01*
X359361Y385157D01*
X359268Y385411D01*
X359199Y385689D01*
X359153Y386013D01*
Y386036D01*
Y386129D01*
X359176Y386267D01*
X359199Y386429D01*
X359268Y386614D01*
X359361Y386823D01*
X359500Y387054D01*
X359685Y387262D01*
X359708Y387286D01*
X359777Y387355D01*
X359893Y387448D01*
X360055Y387540D01*
X360240Y387656D01*
X360448Y387725D01*
X360680Y387795D01*
X361073D01*
X361235Y387772D01*
D02*
G37*
G36*
X156492Y389461D02*
X157210Y389368D01*
X157580Y389299D01*
X157973Y389206D01*
X158390Y389090D01*
X158783Y388929D01*
X158806D01*
X158853Y388882D01*
X158968Y388836D01*
X159107Y388790D01*
X159292Y388697D01*
X159524Y388628D01*
X159801Y388512D01*
X160125Y388396D01*
X160149D01*
X160172Y388373D01*
X160287Y388350D01*
X160473Y388327D01*
X160681D01*
X160912Y388350D01*
X161144Y388443D01*
X161352Y388581D01*
X161444Y388697D01*
X161514Y388836D01*
Y388859D01*
X161537Y388882D01*
X161583Y388929D01*
X161606D01*
X161629Y388952D01*
X161768Y388998D01*
X161791D01*
X161838Y389021D01*
X161953Y389067D01*
Y383143D01*
X161838Y383051D01*
X161791Y383074D01*
X161745Y383120D01*
X161676Y383167D01*
X161653Y383190D01*
X161606Y383213D01*
X161491Y383329D01*
Y383352D01*
X161468Y383375D01*
X161421Y383491D01*
Y383514D01*
X161398Y383537D01*
Y383606D01*
X161375Y383676D01*
X161305Y383907D01*
X161190Y384208D01*
X161051Y384578D01*
X160889Y384972D01*
X160658Y385411D01*
X160403Y385897D01*
Y385920D01*
X160380Y385967D01*
X160334Y386013D01*
X160264Y386105D01*
X160125Y386360D01*
X159917Y386638D01*
X159663Y386985D01*
X159408Y387309D01*
X159107Y387633D01*
X158783Y387933D01*
X158760Y387957D01*
X158737Y387980D01*
X158668Y388026D01*
X158575Y388095D01*
X158320Y388281D01*
X158020Y388466D01*
X157626Y388651D01*
X157187Y388836D01*
X156724Y388952D01*
X156469Y388998D01*
X156076D01*
X155983Y388975D01*
X155729Y388952D01*
X155428Y388859D01*
X155058Y388743D01*
X154664Y388535D01*
X154456Y388419D01*
X154248Y388258D01*
X154040Y388095D01*
X153854Y387887D01*
X153831Y387841D01*
X153785Y387795D01*
X153716Y387702D01*
X153669Y387610D01*
X153577Y387471D01*
X153507Y387332D01*
X153415Y387147D01*
X153299Y386962D01*
X153207Y386730D01*
X153114Y386499D01*
X152998Y386221D01*
X152906Y385920D01*
X152813Y385596D01*
X152721Y385249D01*
X152628Y384879D01*
Y384856D01*
X152605Y384787D01*
X152582Y384671D01*
X152559Y384509D01*
X152535Y384300D01*
X152489Y384069D01*
X152466Y383791D01*
X152420Y383491D01*
X152374Y383167D01*
X152350Y382820D01*
X152281Y382056D01*
X152235Y381246D01*
X152211Y380413D01*
Y380367D01*
Y380251D01*
Y380066D01*
X152235Y379811D01*
Y379534D01*
X152258Y379210D01*
X152304Y378516D01*
Y378492D01*
Y378423D01*
X152327Y378307D01*
Y378145D01*
X152350Y377960D01*
X152374Y377729D01*
X152397Y377474D01*
X152443Y377197D01*
X152489Y376873D01*
X152535Y376549D01*
X152651Y375831D01*
X152790Y375091D01*
X152975Y374327D01*
Y374304D01*
X152998Y374281D01*
X153021Y374212D01*
X153044Y374119D01*
X153114Y373887D01*
X153230Y373610D01*
X153392Y373309D01*
X153577Y372985D01*
X153808Y372684D01*
X154086Y372407D01*
X154132Y372383D01*
X154225Y372291D01*
X154387Y372198D01*
X154618Y372059D01*
X154873Y371944D01*
X155173Y371828D01*
X155520Y371759D01*
X155868Y371712D01*
X156030D01*
X156238Y371736D01*
X156492Y371759D01*
X156816Y371805D01*
X157163Y371898D01*
X157557Y372013D01*
X157973Y372175D01*
X157996Y372198D01*
X158089Y372245D01*
X158228Y372314D01*
X158413Y372430D01*
X158644Y372592D01*
X158899Y372777D01*
X159177Y373008D01*
X159454Y373263D01*
X159755Y373587D01*
X160056Y373934D01*
X160357Y374327D01*
X160634Y374790D01*
X160889Y375276D01*
X161120Y375808D01*
X161329Y376410D01*
X161491Y377058D01*
Y377081D01*
X161514Y377127D01*
X161537Y377289D01*
X161583Y377474D01*
X161629Y377544D01*
X161653Y377590D01*
X161676Y377613D01*
X161745Y377636D01*
X161861Y377659D01*
X162046Y377682D01*
Y371411D01*
X162023D01*
X162000Y371458D01*
X161884Y371550D01*
X161699Y371712D01*
X161491Y371921D01*
X161468Y371944D01*
X161444Y372013D01*
X161375Y372083D01*
X161305Y372198D01*
X161120Y372407D01*
X161005Y372476D01*
X160912Y372522D01*
X160866D01*
X160820Y372545D01*
X160727Y372522D01*
X160611D01*
X160473Y372476D01*
X160310Y372407D01*
X160102Y372314D01*
X160056Y372291D01*
X159963Y372245D01*
X159778Y372152D01*
X159547Y372036D01*
X159246Y371921D01*
X158899Y371782D01*
X158482Y371643D01*
X158043Y371504D01*
X158020D01*
X157996Y371481D01*
X157927D01*
X157834Y371458D01*
X157603Y371411D01*
X157302Y371342D01*
X156955Y371273D01*
X156585Y371226D01*
X156215Y371203D01*
X155844Y371180D01*
X155173D01*
X155104Y371203D01*
X154988D01*
X154873Y371226D01*
X154734Y371250D01*
X154410Y371342D01*
X153993Y371435D01*
X153531Y371597D01*
X153021Y371782D01*
X152466Y372036D01*
X152443D01*
X152397Y372083D01*
X152327Y372106D01*
X152235Y372175D01*
X151957Y372337D01*
X151633Y372545D01*
X151263Y372800D01*
X150892Y373101D01*
X150522Y373425D01*
X150198Y373795D01*
X150175Y373841D01*
X150059Y373957D01*
X149921Y374142D01*
X149735Y374420D01*
X149527Y374744D01*
X149296Y375160D01*
X149041Y375623D01*
X148810Y376132D01*
Y376155D01*
X148787Y376202D01*
X148764Y376271D01*
X148717Y376387D01*
X148671Y376502D01*
X148602Y376664D01*
X148486Y377011D01*
X148347Y377428D01*
X148231Y377868D01*
X148139Y378307D01*
X148069Y378770D01*
Y378793D01*
Y378886D01*
X148046Y379025D01*
Y379187D01*
X148023Y379395D01*
Y379603D01*
X148000Y380089D01*
Y380135D01*
Y380228D01*
X148023Y380413D01*
Y380644D01*
X148046Y380945D01*
X148093Y381269D01*
X148139Y381639D01*
X148208Y382056D01*
Y382079D01*
Y382102D01*
X148255Y382241D01*
X148301Y382472D01*
X148370Y382727D01*
X148440Y383051D01*
X148532Y383375D01*
X148625Y383699D01*
X148740Y384000D01*
X148764Y384046D01*
X148810Y384138D01*
X148879Y384300D01*
X148995Y384532D01*
X149111Y384787D01*
X149296Y385110D01*
X149481Y385434D01*
X149712Y385805D01*
Y385828D01*
X149735Y385851D01*
X149828Y385967D01*
X149967Y386152D01*
X150129Y386383D01*
X150314Y386638D01*
X150545Y386915D01*
X150777Y387193D01*
X151008Y387424D01*
X151031Y387448D01*
X151078Y387494D01*
X151170Y387563D01*
X151286Y387679D01*
X151448Y387795D01*
X151610Y387933D01*
X151818Y388095D01*
X152050Y388258D01*
X152304Y388419D01*
X152582Y388581D01*
X153207Y388905D01*
X153878Y389183D01*
X154225Y389299D01*
X154595Y389391D01*
X154618D01*
X154688Y389415D01*
X154803D01*
X154942Y389438D01*
X155127Y389461D01*
X155359Y389484D01*
X156168D01*
X156492Y389461D01*
D02*
G37*
G36*
X191364Y380760D02*
X191387Y380783D01*
X191480Y380876D01*
X191619Y380992D01*
X191781Y381153D01*
X192151Y381501D01*
X192336Y381686D01*
X192521Y381848D01*
X192568Y381871D01*
X192707Y381963D01*
X192915Y382102D01*
X193192Y382241D01*
X193563Y382403D01*
X194026Y382542D01*
X194535Y382658D01*
X195113Y382704D01*
X195692D01*
X196062Y382658D01*
X196455Y382611D01*
X196895Y382496D01*
X197311Y382334D01*
X197682Y382125D01*
X197705Y382102D01*
X197751Y382056D01*
X197844Y381986D01*
X197936Y381871D01*
X198052Y381732D01*
X198191Y381570D01*
X198329Y381362D01*
X198445Y381130D01*
X198468Y381107D01*
X198492Y381015D01*
X198538Y380899D01*
X198607Y380760D01*
X198677Y380575D01*
X198723Y380367D01*
X198746Y380158D01*
X198769Y379950D01*
Y379927D01*
Y379881D01*
Y379811D01*
X198792Y379696D01*
Y379557D01*
Y379372D01*
Y379163D01*
X198815Y378886D01*
Y378585D01*
X198839Y378238D01*
Y377868D01*
Y377428D01*
X198862Y376942D01*
Y376410D01*
X198885Y375831D01*
Y375183D01*
Y372152D01*
X200435D01*
X200482Y371573D01*
X193979D01*
Y372152D01*
X195368D01*
Y372175D01*
Y372198D01*
Y372314D01*
Y372337D01*
X195391Y372383D01*
Y372499D01*
Y372522D01*
Y372545D01*
Y372661D01*
Y379765D01*
Y379811D01*
Y379904D01*
Y379927D01*
Y380020D01*
X195368Y380135D01*
X195344Y380297D01*
X195321Y380482D01*
X195252Y380691D01*
X195183Y380899D01*
X195067Y381107D01*
X195044Y381130D01*
X194997Y381223D01*
X194882Y381339D01*
X194766Y381454D01*
X194604Y381593D01*
X194442Y381686D01*
X194234Y381778D01*
X194026Y381801D01*
X193933D01*
X193817Y381778D01*
X193655Y381732D01*
X193470Y381663D01*
X193262Y381570D01*
X193007Y381431D01*
X192753Y381246D01*
X192730Y381223D01*
X192660Y381153D01*
X192544Y381061D01*
X192429Y380922D01*
X192267Y380737D01*
X192105Y380506D01*
X191943Y380251D01*
X191781Y379950D01*
X191758Y379904D01*
X191711Y379811D01*
X191642Y379649D01*
X191573Y379441D01*
X191503Y379210D01*
X191434Y378932D01*
X191387Y378654D01*
X191364Y378377D01*
Y378330D01*
Y378238D01*
Y372175D01*
X192799D01*
X192822Y371597D01*
X186343D01*
X186297Y372083D01*
X188009D01*
Y376988D01*
Y381848D01*
X186343D01*
Y382449D01*
X186389D01*
X186505Y382472D01*
X186667D01*
X186898Y382496D01*
X187454D01*
X188032Y382472D01*
X188171D01*
X188333Y382449D01*
X189074D01*
X189374Y382472D01*
X189721Y382496D01*
X189768D01*
X189883Y382519D01*
X190045Y382542D01*
X190277Y382611D01*
X190531Y382658D01*
X190809Y382750D01*
X191087Y382866D01*
X191364Y382981D01*
Y380760D01*
D02*
G37*
G36*
X180766Y381061D02*
X180789Y381084D01*
X180836Y381130D01*
X180928Y381223D01*
X181067Y381339D01*
X181229Y381501D01*
X181414Y381686D01*
X181646Y381917D01*
X181900Y382172D01*
X181923Y382195D01*
X181993Y382264D01*
X182108Y382357D01*
X182247Y382449D01*
X182432Y382565D01*
X182664Y382681D01*
X182918Y382750D01*
X183196Y382820D01*
X183242D01*
X183335Y382843D01*
X183474D01*
X183682Y382866D01*
X184145D01*
X184399Y382843D01*
X184654Y382796D01*
X184746D01*
X184839Y382773D01*
X184955Y382727D01*
X185070Y382658D01*
X185232Y382588D01*
X185371Y382472D01*
X185510Y382311D01*
X185533Y382287D01*
X185579Y382241D01*
X185626Y382125D01*
X185695Y382010D01*
X185765Y381871D01*
X185834Y381686D01*
X185857Y381501D01*
X185880Y381315D01*
Y381292D01*
Y381269D01*
Y381130D01*
Y380922D01*
Y380714D01*
Y380667D01*
Y380552D01*
X185857Y380367D01*
X185788Y380158D01*
Y380135D01*
X185765Y380112D01*
X185695Y379996D01*
X185602Y379835D01*
X185441Y379649D01*
X185394Y379626D01*
X185255Y379534D01*
X185070Y379395D01*
X184793Y379256D01*
X184769D01*
X184723Y379233D01*
X184654Y379210D01*
X184561Y379187D01*
X184330Y379117D01*
X184098Y379094D01*
X184052D01*
X183913Y379117D01*
X183728Y379140D01*
X183497Y379187D01*
X183474D01*
X183427Y379210D01*
X183335Y379256D01*
X183219Y379302D01*
X183080Y379372D01*
X182941Y379464D01*
X182803Y379580D01*
X182664Y379719D01*
X182641Y379742D01*
X182617Y379788D01*
X182571Y379881D01*
X182502Y379996D01*
X182386Y380297D01*
X182340Y380459D01*
X182317Y380644D01*
Y380667D01*
Y380760D01*
Y380876D01*
X182340Y381038D01*
X182363Y381246D01*
X182386Y381454D01*
X182502Y381894D01*
X182479Y381871D01*
X182409Y381848D01*
X182293Y381778D01*
X182155Y381686D01*
X181993Y381547D01*
X181831Y381385D01*
X181646Y381200D01*
X181460Y380968D01*
X181437Y380945D01*
X181391Y380853D01*
X181322Y380737D01*
X181229Y380575D01*
X181137Y380367D01*
X181044Y380158D01*
X180974Y379904D01*
X180928Y379673D01*
Y379649D01*
Y379603D01*
X180905Y379534D01*
Y379441D01*
Y379302D01*
X180882Y379140D01*
X180859Y378793D01*
X180836Y378354D01*
X180813Y377868D01*
X180789Y377335D01*
Y376803D01*
Y376780D01*
Y376711D01*
Y376595D01*
Y376479D01*
Y372175D01*
X182941D01*
X182988Y371597D01*
X175629D01*
X175606Y372152D01*
X177272D01*
Y381848D01*
X175652D01*
X175583Y382403D01*
X175629D01*
X175745Y382426D01*
X175930Y382449D01*
X176161Y382472D01*
X176740D01*
X177341Y382449D01*
X177480D01*
X177642Y382426D01*
X178105D01*
X178406Y382449D01*
X178730Y382472D01*
X179077Y382496D01*
X179123D01*
X179239Y382519D01*
X179424Y382565D01*
X179656Y382611D01*
X179910Y382704D01*
X180188Y382796D01*
X180489Y382935D01*
X180766Y383074D01*
Y381061D01*
D02*
G37*
G36*
X308569Y380506D02*
X308592Y380552D01*
X308684Y380644D01*
X308800Y380806D01*
X308985Y381015D01*
X309216Y381269D01*
X309517Y381501D01*
X309864Y381755D01*
X310258Y382010D01*
X310281D01*
X310304Y382033D01*
X310373Y382079D01*
X310466Y382102D01*
X310674Y382218D01*
X310975Y382334D01*
X311299Y382426D01*
X311692Y382542D01*
X312086Y382611D01*
X312479Y382634D01*
X312757D01*
X312919Y382611D01*
X313058D01*
X313196Y382588D01*
X313382Y382542D01*
X313613Y382496D01*
X313867Y382403D01*
X314122Y382311D01*
X314400Y382172D01*
X314701Y382010D01*
X314955Y381801D01*
X315210Y381547D01*
X315441Y381269D01*
X315649Y380922D01*
X315811Y380529D01*
X315904Y380066D01*
X315950Y379557D01*
Y372013D01*
X315996D01*
X316135Y371990D01*
X316343Y371967D01*
X316598Y371944D01*
X316876Y371898D01*
X317153Y371874D01*
X317408Y371828D01*
X317639Y371805D01*
X317663Y371759D01*
Y371643D01*
Y371597D01*
X317639Y371504D01*
X311183D01*
Y371527D01*
Y371550D01*
X311206Y371666D01*
X311253Y371782D01*
X311299Y371828D01*
X311345Y371851D01*
X311391Y371874D01*
X311438D01*
X311554Y371898D01*
X311692Y371921D01*
X311877D01*
X312132Y371944D01*
X312456Y371967D01*
Y371990D01*
Y372036D01*
Y372129D01*
X312479Y372221D01*
Y372383D01*
Y372453D01*
Y372476D01*
Y380066D01*
Y380089D01*
Y380182D01*
X312456Y380320D01*
Y380459D01*
X312363Y380830D01*
X312317Y380992D01*
X312225Y381130D01*
Y381153D01*
X312178Y381177D01*
X312109Y381246D01*
X312039Y381315D01*
X311924Y381408D01*
X311762Y381477D01*
X311577Y381547D01*
X311368Y381593D01*
X311345D01*
X311322Y381616D01*
X311068D01*
X310952Y381593D01*
X310813Y381570D01*
X310628Y381524D01*
X310443Y381454D01*
X310234Y381362D01*
X310049Y381246D01*
X310026Y381223D01*
X309957Y381177D01*
X309841Y381061D01*
X309702Y380945D01*
X309540Y380760D01*
X309355Y380552D01*
X309170Y380297D01*
X309008Y379996D01*
X308985Y379950D01*
X308939Y379858D01*
X308869Y379696D01*
X308800Y379487D01*
X308707Y379256D01*
X308638Y379001D01*
X308592Y378701D01*
X308569Y378423D01*
Y372545D01*
Y372059D01*
X308592Y372036D01*
X308638D01*
X308707Y372013D01*
X308800Y371990D01*
X308939Y371967D01*
X309101D01*
X309309Y371944D01*
X309401D01*
X309517Y371921D01*
X309633Y371898D01*
X309772Y371828D01*
X309911Y371759D01*
X310049Y371643D01*
X310142Y371504D01*
X303709D01*
X303616Y371527D01*
X303570Y371550D01*
X303454Y371643D01*
Y371666D01*
X303408Y371689D01*
X303385Y371736D01*
X303339Y371759D01*
X303431Y371944D01*
X305051D01*
Y381801D01*
X303431D01*
X303385Y382334D01*
X303431D01*
X303547Y382357D01*
X303732Y382380D01*
X303964Y382403D01*
X304519D01*
X305098Y382380D01*
X305236D01*
X305398Y382357D01*
X306162D01*
X306486Y382380D01*
X306833Y382403D01*
X306879D01*
X306995Y382426D01*
X307180Y382472D01*
X307412Y382519D01*
X307689Y382588D01*
X307967Y382681D01*
X308268Y382796D01*
X308569Y382935D01*
Y380506D01*
D02*
G37*
G36*
X409575Y371921D02*
X411287D01*
Y371342D01*
X404437D01*
Y371898D01*
X406080D01*
Y381639D01*
X404461D01*
X404414Y382241D01*
X404923D01*
X405270Y382218D01*
X406775D01*
X407052Y382241D01*
X407191D01*
X407284Y382264D01*
X407538Y382287D01*
X407839Y382311D01*
X407862D01*
X407908Y382334D01*
X408001D01*
X408117Y382357D01*
X408256Y382380D01*
X408418Y382403D01*
X408788Y382472D01*
X408811D01*
X408880Y382496D01*
X408973Y382519D01*
X409089Y382542D01*
X409343Y382588D01*
X409459Y382611D01*
X409575Y382634D01*
Y371921D01*
D02*
G37*
G36*
X390276Y380760D02*
X390322Y380806D01*
X390415Y380899D01*
X390530Y381061D01*
X390692Y381246D01*
X390831Y381408D01*
X390970Y381570D01*
X391063Y381686D01*
X391109Y381732D01*
X391132Y381755D01*
X391225Y381848D01*
X391387Y381940D01*
X391572Y382079D01*
X391826Y382218D01*
X392104Y382357D01*
X392428Y382496D01*
X392775Y382588D01*
X392821D01*
X392937Y382611D01*
X393122Y382634D01*
X393377Y382658D01*
X393631D01*
X393932Y382611D01*
X394233Y382565D01*
X394510Y382449D01*
X394534D01*
X394580Y382403D01*
X394649Y382357D01*
X394742Y382264D01*
X394858Y382172D01*
X394950Y382056D01*
X395066Y381894D01*
X395181Y381732D01*
X395205Y381709D01*
X395228Y381663D01*
X395274Y381570D01*
X395343Y381454D01*
X395436Y381153D01*
X395459Y380968D01*
X395482Y380806D01*
Y380783D01*
Y380691D01*
Y380667D01*
Y380621D01*
X395459Y380552D01*
X395436Y380459D01*
X395367Y380228D01*
X395251Y379950D01*
X395066Y379649D01*
X394834Y379372D01*
X394534Y379140D01*
X394348Y379048D01*
X394140Y378978D01*
X394094D01*
X393955Y378932D01*
X393724Y378909D01*
X393469D01*
X393168Y378932D01*
X392867Y379001D01*
X392567Y379140D01*
X392289Y379349D01*
X392266Y379372D01*
X392196Y379487D01*
X392104Y379649D01*
X391988Y379858D01*
X391919Y380158D01*
X391873Y380506D01*
Y380922D01*
X391919Y381130D01*
X391965Y381385D01*
Y381408D01*
X391988Y381454D01*
X392011Y381547D01*
Y381639D01*
X392034Y381732D01*
X392011D01*
X391965Y381686D01*
X391896Y381639D01*
X391803Y381570D01*
X391572Y381362D01*
X391294Y381107D01*
X391016Y380760D01*
X390762Y380367D01*
X390577Y379927D01*
X390507Y379696D01*
X390461Y379441D01*
Y379418D01*
Y379395D01*
X390438Y379325D01*
Y379233D01*
Y379140D01*
X390415Y379001D01*
Y378839D01*
X390391Y378631D01*
X390368Y378423D01*
Y378192D01*
X390345Y377914D01*
Y377636D01*
Y377312D01*
X390322Y376988D01*
Y376618D01*
Y376225D01*
Y371921D01*
X392590D01*
X392636Y371365D01*
X385162D01*
X385116Y371898D01*
X386758D01*
Y381616D01*
X385139D01*
X385092Y382172D01*
X385139D01*
X385254Y382195D01*
X385439D01*
X385671Y382218D01*
X385949Y382241D01*
X386249D01*
X386851Y382218D01*
X387615D01*
X387915Y382241D01*
X388240Y382264D01*
X388587Y382311D01*
X388633D01*
X388749Y382334D01*
X388934Y382380D01*
X389165Y382426D01*
X389420Y382519D01*
X389720Y382611D01*
X389998Y382750D01*
X390276Y382889D01*
Y380760D01*
D02*
G37*
G36*
X348161Y380459D02*
X348184Y380482D01*
X348230Y380529D01*
X348300Y380621D01*
X348392Y380737D01*
X348531Y380876D01*
X348670Y381015D01*
X349040Y381362D01*
X349457Y381709D01*
X349943Y382010D01*
X350197Y382149D01*
X350452Y382241D01*
X350729Y382334D01*
X351007Y382380D01*
X351030D01*
X351123Y382403D01*
X351239D01*
X351401Y382426D01*
X351725Y382472D01*
X351910Y382496D01*
X352627D01*
X352997Y382449D01*
X353090D01*
X353205Y382426D01*
X353344Y382403D01*
X353668Y382311D01*
X354015Y382149D01*
X354039D01*
X354085Y382102D01*
X354177Y382056D01*
X354293Y381986D01*
X354548Y381778D01*
X354849Y381477D01*
X354872Y381454D01*
X354895Y381408D01*
X354941Y381315D01*
X355010Y381200D01*
X355080Y381038D01*
X355172Y380853D01*
X355265Y380644D01*
X355334Y380413D01*
Y380390D01*
X355381Y380297D01*
X355404Y380182D01*
X355450Y380043D01*
X355496Y379858D01*
X355520Y379673D01*
X355566Y379279D01*
Y379233D01*
Y379140D01*
Y372638D01*
Y371921D01*
X357209D01*
X357255Y371365D01*
X350776D01*
Y371898D01*
X352072D01*
Y372592D01*
Y379580D01*
Y379603D01*
Y379696D01*
Y379835D01*
X352048Y380020D01*
X352002Y380390D01*
X351956Y380598D01*
X351887Y380783D01*
Y380806D01*
X351863Y380853D01*
X351817Y380945D01*
X351748Y381038D01*
X351632Y381153D01*
X351516Y381269D01*
X351354Y381385D01*
X351169Y381477D01*
X351146D01*
X351077Y381501D01*
X350984Y381524D01*
X350845Y381547D01*
X350683D01*
X350498Y381524D01*
X350267Y381454D01*
X350012Y381362D01*
X349989Y381339D01*
X349897Y381315D01*
X349781Y381246D01*
X349619Y381153D01*
X349457Y381015D01*
X349272Y380876D01*
X349110Y380714D01*
X348948Y380506D01*
X348925Y380482D01*
X348902Y380436D01*
X348832Y380320D01*
X348740Y380205D01*
X348647Y380043D01*
X348554Y379835D01*
X348462Y379626D01*
X348369Y379372D01*
Y379349D01*
X348346Y379256D01*
X348300Y379117D01*
X348277Y378955D01*
X348230Y378770D01*
X348184Y378562D01*
X348161Y378122D01*
Y378099D01*
Y371944D01*
X349526D01*
X349596Y371342D01*
X343001D01*
Y371898D01*
X344644D01*
Y381616D01*
X343047D01*
X342978Y382195D01*
X343024D01*
X343140Y382218D01*
X343325D01*
X343556Y382241D01*
X344111D01*
X344713Y382218D01*
X345778D01*
X346101Y382241D01*
X346449Y382287D01*
X346495D01*
X346611Y382311D01*
X346796Y382357D01*
X347027Y382403D01*
X347282Y382472D01*
X347583Y382565D01*
X347860Y382681D01*
X348161Y382820D01*
Y380459D01*
D02*
G37*
G36*
X362716Y371921D02*
X364405D01*
X364452Y371365D01*
X357579D01*
X357533Y371898D01*
X359222D01*
Y381639D01*
X357556D01*
Y382241D01*
X358042D01*
X358204Y382218D01*
X358713D01*
X359037Y382195D01*
X359638D01*
X359893Y382218D01*
X360194Y382241D01*
X360263D01*
X360356Y382264D01*
X360448Y382287D01*
X360564Y382311D01*
X360703Y382334D01*
X360865Y382357D01*
X361073Y382403D01*
X361328Y382426D01*
X361605Y382496D01*
X361929Y382542D01*
X362299Y382611D01*
X362716Y382681D01*
Y371921D01*
D02*
G37*
G36*
X403327Y380691D02*
Y380667D01*
Y380598D01*
X403350Y380482D01*
Y380390D01*
Y380274D01*
X403373Y380158D01*
X403396Y379996D01*
Y379811D01*
X403419Y379580D01*
X403442Y379325D01*
X403466Y379048D01*
X403419Y379025D01*
X403304Y379001D01*
X403165Y378978D01*
X403026Y379001D01*
X403003Y379025D01*
X402933Y379071D01*
X402864Y379163D01*
X402771Y379302D01*
Y379325D01*
X402748Y379372D01*
X402702Y379464D01*
X402633Y379603D01*
X402563Y379742D01*
X402471Y379904D01*
X402262Y380274D01*
X401962Y380691D01*
X401614Y381084D01*
X401221Y381454D01*
X400990Y381593D01*
X400758Y381732D01*
X400735Y381755D01*
X400666Y381778D01*
X400550Y381824D01*
X400388Y381894D01*
X400203Y381940D01*
X400018Y381986D01*
X399786Y382010D01*
X399555Y382033D01*
X399416D01*
X399300Y382010D01*
X399023Y381963D01*
X398676Y381848D01*
X398653D01*
X398606Y381824D01*
X398514Y381778D01*
X398398Y381732D01*
X398143Y381593D01*
X397889Y381431D01*
X397843Y381385D01*
X397750Y381269D01*
X397611Y381061D01*
X397472Y380806D01*
Y380783D01*
X397449Y380737D01*
X397426Y380667D01*
X397403Y380575D01*
X397357Y380320D01*
X397334Y380066D01*
Y380043D01*
Y379996D01*
X397357Y379904D01*
X397380Y379811D01*
X397472Y379580D01*
X397542Y379441D01*
X397634Y379325D01*
X397657D01*
X397681Y379279D01*
X397750Y379233D01*
X397843Y379163D01*
X397958Y379117D01*
X398097Y379048D01*
X398444Y378932D01*
X398514D01*
X398629Y378909D01*
X398768Y378886D01*
X398976Y378839D01*
X399254Y378816D01*
X399578Y378747D01*
X399995Y378678D01*
X400041D01*
X400203Y378654D01*
X400411Y378608D01*
X400689Y378562D01*
X400967Y378492D01*
X401290Y378446D01*
X401591Y378377D01*
X401846Y378330D01*
X401869D01*
X401938Y378307D01*
X402054Y378261D01*
X402193Y378215D01*
X402355Y378145D01*
X402540Y378053D01*
X402748Y377937D01*
X402956Y377798D01*
X403188Y377613D01*
X403396Y377428D01*
X403581Y377197D01*
X403766Y376919D01*
X403928Y376618D01*
X404067Y376271D01*
X404160Y375878D01*
X404206Y375438D01*
Y375415D01*
Y375345D01*
Y375230D01*
Y375091D01*
Y375068D01*
Y374975D01*
X404183Y374836D01*
X404160Y374628D01*
X404113Y374397D01*
X404067Y374142D01*
X403975Y373864D01*
X403859Y373540D01*
X403836Y373494D01*
X403790Y373402D01*
X403720Y373263D01*
X403628Y373055D01*
X403373Y372638D01*
X403211Y372430D01*
X403026Y372221D01*
X403003Y372198D01*
X402956Y372152D01*
X402864Y372083D01*
X402725Y371967D01*
X402563Y371851D01*
X402355Y371736D01*
X402123Y371597D01*
X401869Y371481D01*
X401568Y371365D01*
X401267Y371250D01*
X400920Y371180D01*
X400527Y371111D01*
X400133Y371088D01*
X399717Y371111D01*
X399277Y371180D01*
X398815Y371296D01*
X398791D01*
X398722Y371319D01*
X398606Y371342D01*
X398491Y371388D01*
X398190Y371481D01*
X398051Y371504D01*
X397912Y371550D01*
X397889Y371573D01*
X397796Y371597D01*
X397657Y371620D01*
X397496Y371643D01*
X397403D01*
X397310Y371620D01*
X397195Y371597D01*
X397056Y371550D01*
X396894Y371481D01*
X396755Y371388D01*
X396616Y371250D01*
X396570Y371203D01*
X396524Y371180D01*
X396454Y371134D01*
X396431D01*
X396385Y371111D01*
X396315Y371088D01*
X396200Y371064D01*
X396177D01*
X396107Y371041D01*
X395945Y371018D01*
Y375253D01*
X395968D01*
X395991Y375276D01*
X396130Y375299D01*
X396269D01*
X396408Y375253D01*
X396431Y375230D01*
X396500Y375183D01*
X396593Y375068D01*
X396616Y374975D01*
X396662Y374859D01*
Y374836D01*
X396709Y374744D01*
X396755Y374628D01*
X396824Y374466D01*
X396917Y374258D01*
X397033Y374026D01*
X397171Y373795D01*
X397357Y373540D01*
X397542Y373263D01*
X397750Y373008D01*
X397981Y372754D01*
X398236Y372499D01*
X398537Y372268D01*
X398838Y372059D01*
X399185Y371898D01*
X399555Y371759D01*
X399601D01*
X399694Y371736D01*
X399879Y371689D01*
X400087Y371666D01*
X400342Y371643D01*
X400642Y371666D01*
X400943Y371712D01*
X401267Y371782D01*
X401314Y371805D01*
X401406Y371851D01*
X401568Y371921D01*
X401753Y372059D01*
X401962Y372221D01*
X402170Y372430D01*
X402355Y372684D01*
X402517Y373008D01*
Y373031D01*
X402563Y373124D01*
X402586Y373240D01*
X402609Y373378D01*
X402633Y373564D01*
Y373749D01*
X402609Y373957D01*
X402540Y374142D01*
Y374165D01*
X402494Y374235D01*
X402447Y374304D01*
X402355Y374420D01*
X402239Y374535D01*
X402100Y374651D01*
X401915Y374744D01*
X401684Y374836D01*
X401661D01*
X401591Y374859D01*
X401452Y374883D01*
X401290Y374929D01*
X401059Y374975D01*
X400805Y375021D01*
X400481Y375068D01*
X400110Y375137D01*
X400064D01*
X399948Y375160D01*
X399763Y375183D01*
X399555Y375230D01*
X399347Y375253D01*
X399138Y375299D01*
X398976Y375322D01*
X398861Y375345D01*
X398838D01*
X398815Y375368D01*
X398745D01*
X398653Y375392D01*
X398398Y375461D01*
X398120Y375554D01*
X397773Y375669D01*
X397426Y375831D01*
X397102Y376016D01*
X396801Y376248D01*
X396778Y376271D01*
X396686Y376387D01*
X396570Y376549D01*
X396408Y376757D01*
X396246Y377058D01*
X396107Y377428D01*
X395991Y377868D01*
X395899Y378377D01*
Y378400D01*
Y378446D01*
Y378516D01*
Y378608D01*
Y378863D01*
X395945Y379187D01*
X396014Y379580D01*
X396130Y380020D01*
X396315Y380482D01*
X396570Y380945D01*
Y380968D01*
X396616Y380992D01*
X396709Y381153D01*
X396894Y381362D01*
X397125Y381593D01*
X397403Y381848D01*
X397750Y382079D01*
X398143Y382264D01*
X398352Y382311D01*
X398583Y382357D01*
X398606D01*
X398653Y382380D01*
X398745D01*
X398884Y382403D01*
X399162Y382426D01*
X399509Y382449D01*
X399740D01*
X399879Y382426D01*
X400064D01*
X400272Y382403D01*
X400689Y382334D01*
X400735D01*
X400851Y382311D01*
X401013Y382264D01*
X401267Y382195D01*
X401290D01*
X401337Y382172D01*
X401406D01*
X401499Y382149D01*
X401684Y382079D01*
X401869Y382033D01*
X402193D01*
X402401Y382079D01*
X402424D01*
X402447Y382102D01*
X402586Y382172D01*
X402771Y382287D01*
X402980Y382472D01*
X403327D01*
Y380691D01*
D02*
G37*
G36*
X221608Y382935D02*
X221817Y382912D01*
X222094Y382820D01*
X222117D01*
X222164Y382796D01*
X222233Y382750D01*
X222326Y382704D01*
X222534Y382519D01*
X222650Y382403D01*
X222765Y382264D01*
X222789Y382241D01*
X222812Y382195D01*
X222858Y382125D01*
X222927Y382010D01*
X223020Y381755D01*
X223043Y381616D01*
X223066Y381454D01*
Y381431D01*
X223043Y381385D01*
X223020Y381292D01*
X222997Y381200D01*
X222858Y380945D01*
X222765Y380806D01*
X222650Y380691D01*
X222626Y380667D01*
X222603Y380644D01*
X222534Y380575D01*
X222441Y380529D01*
X222187Y380390D01*
X222048Y380344D01*
X221886Y380320D01*
X221701D01*
X221516Y380344D01*
X221284Y380413D01*
X221053Y380506D01*
X220845Y380667D01*
X220683Y380922D01*
X220637Y381061D01*
X220590Y381246D01*
Y381269D01*
Y381362D01*
Y381477D01*
X220613Y381616D01*
Y381801D01*
X220660Y382010D01*
X220729Y382472D01*
X220706Y382449D01*
X220613Y382357D01*
X220498Y382241D01*
X220359Y382079D01*
X220220Y381940D01*
X220081Y381801D01*
X219965Y381686D01*
X219896Y381616D01*
Y381593D01*
X219873Y381501D01*
X219896Y381385D01*
X219965Y381246D01*
X219988Y381223D01*
X220012Y381177D01*
X220081Y381107D01*
X220150Y380992D01*
X220220Y380853D01*
X220312Y380691D01*
X220498Y380320D01*
X220637Y379858D01*
X220752Y379325D01*
X220775Y379048D01*
X220752Y378747D01*
X220729Y378446D01*
X220660Y378145D01*
Y378122D01*
X220637Y378076D01*
X220613Y377983D01*
X220567Y377868D01*
X220498Y377752D01*
X220428Y377590D01*
X220220Y377243D01*
X220081Y377058D01*
X219919Y376849D01*
X219757Y376664D01*
X219549Y376456D01*
X219318Y376271D01*
X219063Y376109D01*
X218785Y375947D01*
X218461Y375808D01*
X218415Y375785D01*
X218299Y375739D01*
X218114Y375692D01*
X217883Y375623D01*
X217582Y375531D01*
X217258Y375484D01*
X216888Y375438D01*
X216517Y375415D01*
X216402D01*
X216263Y375438D01*
X216078D01*
X215870Y375461D01*
X215638Y375507D01*
X215129Y375646D01*
X215106D01*
X215083Y375669D01*
X214921Y375692D01*
X214736Y375716D01*
X214366D01*
X214250Y375692D01*
X213972Y375623D01*
X213625Y375507D01*
X213602D01*
X213556Y375484D01*
X213463Y375438D01*
X213370Y375392D01*
X213139Y375230D01*
X212908Y375044D01*
X212861Y374998D01*
X212792Y374883D01*
X212699Y374674D01*
X212676Y374559D01*
X212653Y374420D01*
Y374397D01*
Y374374D01*
Y374350D01*
X212676Y374281D01*
X212746Y374212D01*
X212838Y374119D01*
X212861Y374096D01*
X212954Y374073D01*
X213070Y374026D01*
X213209Y373980D01*
X213232D01*
X213301Y373957D01*
X213417Y373934D01*
X213556D01*
X213718Y373911D01*
X213903Y373887D01*
X214319Y373864D01*
X218508D01*
X218670Y373841D01*
X218855Y373818D01*
X219271Y373772D01*
X219734Y373656D01*
X220197Y373494D01*
X220613Y373263D01*
X220798Y373101D01*
X220960Y372939D01*
X221007Y372892D01*
X221099Y372754D01*
X221215Y372545D01*
X221377Y372221D01*
X221516Y371828D01*
X221632Y371342D01*
X221701Y370764D01*
Y370093D01*
Y370069D01*
Y370046D01*
X221678Y369907D01*
X221655Y369676D01*
X221608Y369398D01*
X221516Y369051D01*
X221400Y368658D01*
X221215Y368241D01*
X220984Y367802D01*
Y367779D01*
X220960Y367755D01*
X220868Y367617D01*
X220729Y367385D01*
X220544Y367131D01*
X220289Y366830D01*
X220035Y366529D01*
X219711Y366251D01*
X219387Y365997D01*
X219364Y365974D01*
X219294Y365950D01*
X219179Y365881D01*
X219017Y365789D01*
X218831Y365696D01*
X218577Y365603D01*
X218322Y365511D01*
X218022Y365418D01*
X217975D01*
X217883Y365372D01*
X217721Y365326D01*
X217536Y365279D01*
X217304Y365233D01*
X217073Y365187D01*
X216564Y365141D01*
X215985D01*
X215754Y365164D01*
X215499D01*
X215222Y365187D01*
X214620Y365279D01*
X213995Y365395D01*
X213370Y365603D01*
X212815Y365858D01*
X212792Y365881D01*
X212746Y365904D01*
X212653Y365974D01*
X212538Y366043D01*
X212260Y366274D01*
X211959Y366575D01*
X211635Y366969D01*
X211381Y367455D01*
X211288Y367709D01*
X211219Y367987D01*
X211172Y368288D01*
Y368612D01*
Y368635D01*
X211195Y368704D01*
Y368797D01*
X211219Y368912D01*
X211311Y369213D01*
X211473Y369537D01*
X211496Y369560D01*
X211519Y369607D01*
X211566Y369676D01*
X211635Y369769D01*
X211797Y369954D01*
X212005Y370139D01*
X212028D01*
X212052Y370185D01*
X212121Y370231D01*
X212213Y370278D01*
X212329Y370347D01*
X212468Y370440D01*
X212815Y370648D01*
X212838Y370671D01*
X212908Y370717D01*
X213047Y370764D01*
X213023Y370787D01*
X212977Y370810D01*
X212885Y370856D01*
X212792Y370949D01*
X212653Y371041D01*
X212514Y371180D01*
X212375Y371342D01*
X212237Y371527D01*
X212098Y371736D01*
X211959Y371967D01*
X211843Y372221D01*
X211751Y372522D01*
X211681Y372846D01*
X211658Y373193D01*
Y373587D01*
X211704Y374003D01*
Y374026D01*
X211728Y374073D01*
X211751Y374165D01*
X211774Y374281D01*
X211890Y374559D01*
X212075Y374906D01*
X212213Y375091D01*
X212352Y375276D01*
X212538Y375438D01*
X212723Y375623D01*
X212954Y375762D01*
X213232Y375901D01*
X213532Y376016D01*
X213856Y376109D01*
X213070Y376757D01*
X213023Y376803D01*
X212931Y376896D01*
X212792Y377058D01*
X212607Y377289D01*
X212445Y377567D01*
X212260Y377891D01*
X212144Y378261D01*
X212052Y378678D01*
Y378701D01*
Y378724D01*
Y378793D01*
Y378886D01*
Y379094D01*
Y379395D01*
X212098Y379719D01*
X212190Y380089D01*
X212329Y380459D01*
X212514Y380853D01*
Y380876D01*
X212538Y380899D01*
X212630Y381015D01*
X212769Y381200D01*
X212977Y381431D01*
X213232Y381663D01*
X213556Y381917D01*
X213926Y382149D01*
X214342Y382334D01*
X214366D01*
X214458Y382380D01*
X214597Y382426D01*
X214782Y382472D01*
X214990Y382519D01*
X215268Y382588D01*
X215546Y382634D01*
X215893Y382681D01*
X216240Y382704D01*
X216980D01*
X217397Y382658D01*
X217790Y382588D01*
X218207Y382472D01*
X218623Y382334D01*
X219017Y382125D01*
X219040Y382102D01*
X219109Y382079D01*
X219202Y382056D01*
X219341Y382033D01*
X219387D01*
X219479Y382056D01*
X219618Y382125D01*
X219757Y382241D01*
X219780Y382264D01*
X219803Y382287D01*
X219873Y382357D01*
X219942Y382426D01*
X220174Y382588D01*
X220498Y382750D01*
X220521D01*
X220590Y382773D01*
X220683Y382820D01*
X220798Y382866D01*
X221076Y382935D01*
X221377Y382958D01*
X221516D01*
X221608Y382935D01*
D02*
G37*
G36*
X375489Y381686D02*
X375397D01*
X375304Y381663D01*
X375165Y381639D01*
X374888Y381547D01*
X374749Y381477D01*
X374633Y381362D01*
X374610Y381339D01*
X374587Y381292D01*
X374517Y381223D01*
X374448Y381130D01*
X374356Y381015D01*
X374263Y380853D01*
X374170Y380691D01*
X374078Y380482D01*
Y380459D01*
X374055Y380413D01*
X374008Y380320D01*
X373939Y380182D01*
X373869Y380020D01*
X373777Y379811D01*
X373661Y379557D01*
X373522Y379256D01*
X373384Y378932D01*
X373222Y378562D01*
X373037Y378145D01*
X372828Y377706D01*
X372620Y377197D01*
X372389Y376664D01*
X372134Y376086D01*
X371856Y375461D01*
X371833Y375438D01*
X371810Y375322D01*
X371741Y375160D01*
X371648Y374929D01*
X371532Y374628D01*
X371370Y374281D01*
X371208Y373841D01*
X371000Y373355D01*
Y373332D01*
X370977Y373286D01*
X370954Y373217D01*
X370908Y373124D01*
X370792Y372892D01*
X370676Y372592D01*
X370537Y372268D01*
X370375Y371944D01*
X370237Y371620D01*
X370121Y371365D01*
X370098Y371319D01*
X370005Y371226D01*
X369866Y371134D01*
X369681Y371088D01*
X369635D01*
X369473Y371134D01*
X369311Y371226D01*
X369218Y371296D01*
X369126Y371388D01*
Y371411D01*
X369103Y371435D01*
X369080Y371504D01*
X369033Y371597D01*
X368987Y371712D01*
X368918Y371874D01*
X368825Y372059D01*
X368733Y372268D01*
X368617Y372522D01*
X368478Y372800D01*
X368339Y373124D01*
X368200Y373494D01*
X368015Y373887D01*
X367830Y374327D01*
X367622Y374813D01*
X367390Y375345D01*
Y375368D01*
X367367Y375392D01*
X367344Y375461D01*
X367298Y375554D01*
X367182Y375808D01*
X367043Y376132D01*
X366881Y376525D01*
X366696Y376965D01*
X366488Y377428D01*
X366280Y377937D01*
X365840Y378955D01*
X365632Y379441D01*
X365447Y379881D01*
X365262Y380297D01*
X365123Y380644D01*
X365007Y380922D01*
X364961Y381038D01*
X364914Y381130D01*
Y381153D01*
X364891Y381177D01*
X364845Y381315D01*
X364729Y381454D01*
X364614Y381547D01*
X364590Y381570D01*
X364498Y381616D01*
X364336Y381639D01*
X364105Y381663D01*
X363780D01*
X363711Y381686D01*
X363665D01*
X363595Y382195D01*
X369727D01*
X369751Y381663D01*
X368408D01*
X371208Y375415D01*
Y375438D01*
X371232Y375461D01*
X371255Y375531D01*
X371278Y375623D01*
X371370Y375831D01*
X371486Y376132D01*
X371625Y376479D01*
X371787Y376873D01*
X371949Y377289D01*
X372134Y377729D01*
X372296Y378168D01*
X372481Y378585D01*
X372620Y379001D01*
X372782Y379349D01*
X372898Y379649D01*
X372990Y379904D01*
X373060Y380066D01*
X373083Y380112D01*
Y380135D01*
X373106Y380158D01*
X373129Y380251D01*
X373152Y380390D01*
X373199Y380552D01*
X373222Y380760D01*
X373199Y380945D01*
X373152Y381130D01*
X373060Y381315D01*
X373037Y381339D01*
X372990Y381385D01*
X372921Y381454D01*
X372805Y381524D01*
X372643Y381593D01*
X372435Y381663D01*
X372203Y381686D01*
X371926Y381663D01*
X371833D01*
X371671Y381686D01*
Y382195D01*
X375466D01*
X375489Y381686D01*
D02*
G37*
G36*
X344158Y388605D02*
X344111Y388581D01*
X343996Y388443D01*
Y388419D01*
X343950Y388373D01*
X343880Y388258D01*
X343857Y388234D01*
X343788Y388165D01*
X343741D01*
X343602Y388119D01*
X343417Y388072D01*
X343209Y388003D01*
X342954Y387910D01*
X342723Y387795D01*
X342538Y387656D01*
X342376Y387517D01*
X342353Y387494D01*
X342330Y387448D01*
X342283Y387332D01*
X342237Y387193D01*
X342168Y386985D01*
X342122Y386707D01*
X342098Y386406D01*
X342075Y386013D01*
Y376502D01*
Y376479D01*
Y376410D01*
Y376294D01*
X342052Y376155D01*
Y375993D01*
X342029Y375785D01*
X341983Y375554D01*
X341936Y375299D01*
X341821Y374744D01*
X341635Y374165D01*
X341358Y373587D01*
X341196Y373309D01*
X341011Y373031D01*
Y373008D01*
X340965Y372962D01*
X340895Y372892D01*
X340826Y372800D01*
X340710Y372707D01*
X340571Y372568D01*
X340432Y372430D01*
X340247Y372291D01*
X339831Y371967D01*
X339298Y371666D01*
X338697Y371388D01*
X338002Y371180D01*
X337956D01*
X337817Y371134D01*
X337609Y371111D01*
X337332Y371064D01*
X336984Y371018D01*
X336591Y370995D01*
X336151Y370972D01*
X335665Y370949D01*
X335156Y370972D01*
X334601Y371018D01*
X334046Y371088D01*
X333490Y371203D01*
X332912Y371365D01*
X332356Y371573D01*
X331824Y371828D01*
X331292Y372152D01*
X331246Y372175D01*
X331130Y372268D01*
X330968Y372407D01*
X330737Y372615D01*
X330482Y372869D01*
X330227Y373193D01*
X329950Y373564D01*
X329672Y374003D01*
Y374026D01*
X329649Y374049D01*
X329603Y374119D01*
X329580Y374212D01*
X329464Y374466D01*
X329348Y374767D01*
X329209Y375137D01*
X329117Y375531D01*
X329024Y375947D01*
X329001Y376363D01*
Y376387D01*
Y387378D01*
Y388095D01*
X328978D01*
X328955Y388119D01*
X328862D01*
X328770Y388142D01*
X328631Y388165D01*
X327613D01*
X327289Y388188D01*
X327150Y388211D01*
X327034Y388258D01*
X327127Y388628D01*
X334763D01*
X334856Y388466D01*
X334832Y388443D01*
X334717Y388350D01*
X334670Y388304D01*
X334578Y388234D01*
X334531Y388211D01*
X334439Y388188D01*
X332866D01*
Y387494D01*
Y376942D01*
Y376919D01*
Y376873D01*
Y376711D01*
Y376688D01*
Y376595D01*
X332889Y376456D01*
Y376294D01*
X332912Y376063D01*
X332958Y375808D01*
X333004Y375531D01*
X333074Y375206D01*
Y375160D01*
X333120Y375068D01*
X333166Y374906D01*
X333213Y374697D01*
X333282Y374466D01*
X333375Y374235D01*
X333467Y373980D01*
X333583Y373749D01*
Y373726D01*
X333629Y373679D01*
X333675Y373610D01*
X333745Y373517D01*
X333930Y373286D01*
X334231Y373008D01*
X334578Y372707D01*
X335041Y372430D01*
X335318Y372291D01*
X335596Y372175D01*
X335920Y372083D01*
X336244Y372013D01*
X336313D01*
X336406Y371990D01*
X336498D01*
X336776Y371967D01*
X337077Y371944D01*
X337170D01*
X337308Y371967D01*
X337447D01*
X337655Y371990D01*
X337864Y372036D01*
X338118Y372106D01*
X338373Y372175D01*
X338396D01*
X338489Y372221D01*
X338627Y372268D01*
X338812Y372337D01*
X339206Y372499D01*
X339414Y372615D01*
X339599Y372730D01*
X339622Y372754D01*
X339715Y372823D01*
X339854Y372916D01*
X340016Y373078D01*
X340224Y373263D01*
X340409Y373517D01*
X340617Y373795D01*
X340826Y374119D01*
X340849Y374165D01*
X340918Y374281D01*
X340988Y374466D01*
X341103Y374697D01*
X341196Y374975D01*
X341265Y375299D01*
X341335Y375623D01*
X341358Y375947D01*
Y375970D01*
Y376063D01*
Y376202D01*
X341381Y376387D01*
Y376664D01*
Y377011D01*
X341404Y377451D01*
Y377960D01*
Y378238D01*
X341427Y378562D01*
Y378886D01*
Y379256D01*
Y379649D01*
X341450Y380066D01*
Y380506D01*
Y380968D01*
X341474Y381454D01*
Y381986D01*
Y382542D01*
X341497Y383120D01*
Y383722D01*
Y384370D01*
X341520Y385041D01*
Y385758D01*
Y385782D01*
Y385805D01*
Y385828D01*
Y385920D01*
Y386059D01*
X341497Y386221D01*
X341474Y386429D01*
X341450Y386638D01*
X341358Y387124D01*
Y387147D01*
Y387170D01*
X341312Y387286D01*
X341219Y387448D01*
X341057Y387656D01*
X340849Y387841D01*
X340687Y387933D01*
X340525Y388026D01*
X340340Y388095D01*
X340131Y388142D01*
X339877Y388188D01*
X339599Y388211D01*
X339206D01*
X339159Y388234D01*
X339113Y388281D01*
Y388327D01*
X339090Y388419D01*
Y388443D01*
Y388489D01*
X339136Y388628D01*
X344158D01*
Y388605D01*
D02*
G37*
G36*
X228481Y372198D02*
X230147D01*
Y372175D01*
X230170Y372152D01*
X230193Y372013D01*
X230216Y371851D01*
X230193Y371712D01*
X230170Y371689D01*
X230124Y371643D01*
X230008Y371573D01*
X229916Y371550D01*
X223367D01*
Y372152D01*
X225010D01*
Y381871D01*
X223367D01*
X223344Y382472D01*
X226445D01*
X226583Y382496D01*
X226745Y382519D01*
X226954Y382542D01*
X227393Y382634D01*
X227416D01*
X227509Y382658D01*
X227625Y382704D01*
X227787Y382773D01*
X228134Y382912D01*
X228319Y383005D01*
X228481Y383097D01*
Y372198D01*
D02*
G37*
G36*
X252547Y388813D02*
X253588D01*
X253634Y388790D01*
X253703Y388767D01*
X253773Y388674D01*
X253796Y388651D01*
X253842Y388605D01*
X253889Y388512D01*
X253935Y388396D01*
Y388373D01*
X253958Y388350D01*
X253981Y388281D01*
X254028Y388165D01*
X254074Y388026D01*
X254143Y387841D01*
X254213Y387610D01*
X254305Y387332D01*
X254421Y387008D01*
X254560Y386614D01*
X254722Y386175D01*
X254907Y385643D01*
X255092Y385087D01*
X255323Y384439D01*
X255578Y383699D01*
X255855Y382912D01*
Y382889D01*
X255902Y382796D01*
X255948Y382634D01*
X256017Y382449D01*
X256110Y382195D01*
X256203Y381917D01*
X256318Y381593D01*
X256434Y381223D01*
X256573Y380830D01*
X256712Y380413D01*
X256874Y379950D01*
X257036Y379487D01*
X257360Y378516D01*
X257707Y377520D01*
X257730Y377497D01*
X257753Y377428D01*
X257822Y377312D01*
X257915Y377173D01*
Y377197D01*
X257961Y377289D01*
X258008Y377428D01*
X258054Y377590D01*
X258146Y377821D01*
X258239Y378099D01*
X258331Y378400D01*
X258447Y378724D01*
X258586Y379094D01*
X258725Y379487D01*
X259003Y380344D01*
X259327Y381246D01*
X259650Y382195D01*
Y382218D01*
X259674Y382241D01*
X259697Y382311D01*
X259720Y382403D01*
X259812Y382634D01*
X259905Y382935D01*
X260044Y383306D01*
X260183Y383745D01*
X260368Y384208D01*
X260530Y384717D01*
X260900Y385758D01*
X261085Y386291D01*
X261270Y386800D01*
X261432Y387286D01*
X261594Y387725D01*
X261733Y388142D01*
X261849Y388489D01*
Y388512D01*
X261895Y388558D01*
X261941Y388628D01*
X262011Y388697D01*
X262034Y388720D01*
X262103Y388767D01*
X262173Y388790D01*
X262242Y388813D01*
X267981D01*
Y388258D01*
X266222D01*
Y372036D01*
X266292D01*
X266361Y372013D01*
X266454D01*
X266685Y371990D01*
X266963Y371967D01*
X267264Y371921D01*
X267541Y371898D01*
X267796Y371874D01*
X267912Y371851D01*
X267981D01*
Y371828D01*
Y371805D01*
Y371666D01*
Y371643D01*
Y371620D01*
Y371504D01*
X260391D01*
X260275Y371527D01*
X260183Y371550D01*
Y371573D01*
X260160Y371620D01*
Y371759D01*
Y371851D01*
X260183Y371967D01*
X262150D01*
Y387286D01*
X262034Y387309D01*
Y387286D01*
X261988Y387170D01*
X261941Y387008D01*
X261872Y386776D01*
X261779Y386476D01*
X261664Y386129D01*
X261525Y385735D01*
X261363Y385272D01*
Y385249D01*
X261340Y385226D01*
X261317Y385157D01*
X261293Y385064D01*
X261201Y384810D01*
X261085Y384486D01*
X260969Y384115D01*
X260831Y383722D01*
X260530Y382889D01*
X260507Y382843D01*
X260460Y382704D01*
X260391Y382496D01*
X260298Y382241D01*
X260206Y381940D01*
X260090Y381593D01*
X259836Y380876D01*
Y380853D01*
X259812Y380806D01*
X259789Y380714D01*
X259743Y380598D01*
X259674Y380436D01*
X259604Y380228D01*
X259535Y379996D01*
X259442Y379742D01*
X259327Y379441D01*
X259211Y379094D01*
X259095Y378724D01*
X258956Y378330D01*
X258794Y377891D01*
X258632Y377405D01*
X258447Y376896D01*
X258262Y376363D01*
Y376340D01*
X258216Y376225D01*
X258170Y376086D01*
X258100Y375878D01*
X258008Y375623D01*
X257915Y375345D01*
X257799Y375021D01*
X257684Y374697D01*
X257429Y373957D01*
X257174Y373217D01*
X256920Y372522D01*
X256804Y372198D01*
X256712Y371898D01*
Y371874D01*
X256689Y371805D01*
X256619Y371712D01*
X256527Y371597D01*
X256504Y371573D01*
X256434Y371550D01*
X256342Y371504D01*
X256226Y371481D01*
X256110D01*
X255971Y371527D01*
X255879Y371573D01*
X255786Y371666D01*
X255694Y371759D01*
X255624Y371898D01*
Y371921D01*
X255601Y371967D01*
X255578Y372036D01*
X255555Y372129D01*
X255508Y372245D01*
X255462Y372407D01*
X255393Y372568D01*
X255323Y372777D01*
X255161Y373217D01*
X254976Y373772D01*
X254768Y374374D01*
X254537Y375044D01*
X254259Y375785D01*
X254004Y376572D01*
X253703Y377405D01*
X253403Y378284D01*
X253079Y379187D01*
X252755Y380112D01*
X252107Y381986D01*
Y382010D01*
X252084Y382033D01*
X252037Y382172D01*
X251968Y382357D01*
X251875Y382634D01*
X251760Y382958D01*
X251621Y383329D01*
X251482Y383745D01*
X251320Y384162D01*
X250973Y385087D01*
X250626Y385990D01*
X250464Y386429D01*
X250325Y386846D01*
X250163Y387193D01*
X250047Y387517D01*
Y387494D01*
Y387424D01*
X250024Y387355D01*
Y387239D01*
X250001Y387031D01*
Y386962D01*
Y386915D01*
Y374235D01*
Y374212D01*
Y374188D01*
Y374119D01*
Y374026D01*
X250024Y373795D01*
X250047Y373540D01*
X250071Y373240D01*
X250140Y372962D01*
X250209Y372730D01*
X250302Y372545D01*
X250325Y372522D01*
X250371Y372499D01*
X250464Y372430D01*
X250626Y372337D01*
X250834Y372245D01*
X251112Y372129D01*
X251482Y372036D01*
X251922Y371921D01*
X251945D01*
X252014Y371874D01*
X252037D01*
X252061Y371851D01*
X252130Y371736D01*
X252153D01*
X252176Y371689D01*
X252269Y371643D01*
X252153Y371504D01*
X247433Y371527D01*
X247340Y371666D01*
X247363Y371689D01*
X247409Y371736D01*
X247479Y371805D01*
X247502Y371828D01*
X247548Y371874D01*
X247618Y371944D01*
X247664Y371990D01*
X247687Y372013D01*
X247710Y372036D01*
X247780Y372059D01*
X247895D01*
X247965Y372083D01*
X248057Y372106D01*
X248312Y372198D01*
X248590Y372337D01*
X248844Y372545D01*
X248983Y372684D01*
X249099Y372846D01*
X249191Y373031D01*
X249261Y373240D01*
X249307Y373471D01*
X249330Y373749D01*
Y373772D01*
Y373841D01*
Y373957D01*
Y374119D01*
Y374304D01*
Y374559D01*
Y374813D01*
Y375114D01*
Y375438D01*
Y375785D01*
Y376549D01*
Y377359D01*
Y378238D01*
Y378261D01*
Y378354D01*
Y378469D01*
Y378654D01*
Y378886D01*
Y379140D01*
Y379441D01*
Y379788D01*
Y380182D01*
Y380575D01*
Y381015D01*
Y381477D01*
Y381963D01*
Y382472D01*
Y383537D01*
Y383560D01*
Y383676D01*
Y383815D01*
Y384023D01*
Y384254D01*
Y384555D01*
Y384856D01*
Y385203D01*
Y385920D01*
Y386661D01*
Y387401D01*
Y387725D01*
Y388049D01*
Y388072D01*
X249307Y388119D01*
X249284Y388258D01*
X247548D01*
X247525Y388836D01*
X252084D01*
X252547Y388813D01*
D02*
G37*
G36*
X290473Y371921D02*
X292116D01*
X292209Y371759D01*
X292185Y371736D01*
X292162Y371712D01*
X292093Y371643D01*
X292070D01*
X292046Y371597D01*
X291931Y371527D01*
X291884Y371504D01*
X291815Y371481D01*
X285382D01*
Y371504D01*
Y371527D01*
X285359Y371666D01*
Y371805D01*
Y371851D01*
X285382Y371874D01*
X285405Y371898D01*
X285475Y371921D01*
X285544D01*
X285637Y371944D01*
X286933D01*
Y388211D01*
X285313D01*
X285290Y388813D01*
X288923D01*
X288992Y388836D01*
X289085D01*
X289316Y388905D01*
X289640Y388998D01*
X289663D01*
X289733Y389044D01*
X289802Y389067D01*
X289918Y389137D01*
X290195Y389322D01*
X290473Y389553D01*
Y371921D01*
D02*
G37*
G36*
X235886Y382704D02*
X236140Y382658D01*
X236441Y382588D01*
X236811Y382496D01*
X237182Y382357D01*
X237598Y382172D01*
X237621D01*
X237644Y382149D01*
X237783Y382079D01*
X237991Y381963D01*
X238223Y381801D01*
X238500Y381593D01*
X238778Y381362D01*
X239056Y381107D01*
X239287Y380806D01*
X239310Y380783D01*
X239334Y380737D01*
X239380Y380667D01*
X239449Y380575D01*
X239588Y380344D01*
X239750Y380043D01*
Y380020D01*
X239796Y379973D01*
X239820Y379881D01*
X239889Y379765D01*
X239958Y379603D01*
X240028Y379418D01*
X240097Y379210D01*
X240190Y378978D01*
X240213Y378955D01*
X240236Y378886D01*
X240282Y378770D01*
X240329Y378631D01*
X240444Y378354D01*
X240491Y378215D01*
X240514Y378122D01*
Y378099D01*
X240537Y378030D01*
Y377937D01*
Y377821D01*
Y377798D01*
Y377729D01*
Y377613D01*
X240514Y377497D01*
X233803D01*
Y377474D01*
Y377382D01*
Y377266D01*
Y377104D01*
Y376896D01*
Y376688D01*
Y376202D01*
Y375716D01*
Y375484D01*
Y375253D01*
X233826Y375068D01*
Y374929D01*
Y374813D01*
Y374744D01*
Y374697D01*
X233849Y374605D01*
X233873Y374420D01*
X233896Y374212D01*
X233965Y373957D01*
X234034Y373679D01*
X234127Y373378D01*
X234243Y373078D01*
X234266Y373055D01*
X234289Y372962D01*
X234359Y372869D01*
X234474Y372730D01*
X234590Y372568D01*
X234775Y372430D01*
X234983Y372291D01*
X235238Y372175D01*
X235261D01*
X235377Y372129D01*
X235515Y372106D01*
X235701Y372059D01*
X235932Y372013D01*
X236187Y371990D01*
X236464D01*
X236742Y372013D01*
X236765D01*
X236881Y372036D01*
X237020Y372059D01*
X237182Y372106D01*
X237390Y372175D01*
X237621Y372245D01*
X237829Y372360D01*
X238038Y372476D01*
X238061D01*
X238084Y372522D01*
X238153Y372568D01*
X238246Y372638D01*
X238477Y372846D01*
X238755Y373147D01*
X238917Y373309D01*
X239079Y373517D01*
X239241Y373749D01*
X239403Y374003D01*
X239565Y374281D01*
X239704Y374582D01*
X239843Y374906D01*
X239982Y375253D01*
Y375276D01*
X240005Y375299D01*
X240097Y375438D01*
X240236Y375577D01*
X240444Y375692D01*
Y375646D01*
Y375507D01*
Y375299D01*
X240398Y375021D01*
X240329Y374674D01*
X240190Y374281D01*
X240005Y373841D01*
X239727Y373355D01*
X239704Y373309D01*
X239611Y373193D01*
X239472Y373008D01*
X239287Y372800D01*
X239056Y372545D01*
X238801Y372291D01*
X238477Y372059D01*
X238130Y371851D01*
X238084Y371828D01*
X237968Y371782D01*
X237760Y371689D01*
X237482Y371597D01*
X237158Y371504D01*
X236788Y371411D01*
X236372Y371365D01*
X235909Y371319D01*
X235469D01*
X235238Y371342D01*
X234983Y371365D01*
X234682Y371411D01*
X234382Y371458D01*
X234034Y371527D01*
X233711Y371620D01*
X233340Y371736D01*
X232993Y371874D01*
X232646Y372036D01*
X232322Y372245D01*
X231998Y372476D01*
X231697Y372754D01*
X231674Y372777D01*
X231605Y372869D01*
X231489Y372985D01*
X231350Y373170D01*
X231188Y373402D01*
X231003Y373656D01*
X230818Y373980D01*
X230633Y374327D01*
X230448Y374721D01*
X230286Y375160D01*
X230170Y375623D01*
X230078Y376132D01*
X230008Y376664D01*
Y377220D01*
X230078Y377798D01*
X230193Y378423D01*
Y378469D01*
X230240Y378585D01*
X230309Y378747D01*
X230378Y378978D01*
X230494Y379256D01*
X230656Y379557D01*
X230841Y379904D01*
X231049Y380251D01*
X231327Y380621D01*
X231628Y380968D01*
X231975Y381315D01*
X232368Y381663D01*
X232808Y381963D01*
X233294Y382218D01*
X233849Y382449D01*
X234451Y382611D01*
X234474D01*
X234544Y382634D01*
X234636Y382658D01*
X234775Y382681D01*
X234937D01*
X235122Y382704D01*
X235515Y382727D01*
X235678D01*
X235886Y382704D01*
D02*
G37*
G36*
X206614Y382727D02*
X206938Y382681D01*
X206961D01*
X207030Y382658D01*
X207123Y382634D01*
X207238Y382611D01*
X207400Y382542D01*
X207586Y382496D01*
X208002Y382311D01*
X208488Y382033D01*
X208742Y381871D01*
X208997Y381686D01*
X209252Y381477D01*
X209483Y381246D01*
X209737Y380992D01*
X209969Y380691D01*
X209992Y380667D01*
X210015Y380621D01*
X210085Y380529D01*
X210177Y380390D01*
X210270Y380251D01*
X210362Y380066D01*
X210594Y379649D01*
X210825Y379163D01*
X211010Y378631D01*
X211080Y378354D01*
X211126Y378076D01*
Y377798D01*
Y377520D01*
X204392D01*
Y377497D01*
Y377405D01*
Y377289D01*
Y377127D01*
Y376919D01*
Y376688D01*
Y376202D01*
Y375716D01*
Y375484D01*
Y375276D01*
X204415Y375068D01*
Y374929D01*
Y374813D01*
Y374744D01*
Y374697D01*
X204438Y374605D01*
X204462Y374443D01*
X204485Y374212D01*
X204554Y373957D01*
X204624Y373679D01*
X204716Y373402D01*
X204832Y373101D01*
X204855Y373078D01*
X204901Y372985D01*
X204971Y372869D01*
X205063Y372730D01*
X205202Y372568D01*
X205387Y372430D01*
X205595Y372268D01*
X205850Y372152D01*
X205873D01*
X205966Y372106D01*
X206128Y372083D01*
X206313Y372036D01*
X206521Y371990D01*
X206776Y371967D01*
X207053D01*
X207331Y371990D01*
X207377D01*
X207470Y372013D01*
X207609Y372036D01*
X207794Y372083D01*
X208002Y372152D01*
X208210Y372245D01*
X208442Y372337D01*
X208650Y372453D01*
X208673D01*
X208719Y372499D01*
X208766Y372545D01*
X208858Y372615D01*
X209090Y372823D01*
X209390Y373124D01*
X209529Y373309D01*
X209691Y373517D01*
X209853Y373749D01*
X210015Y374003D01*
X210177Y374281D01*
X210316Y374582D01*
X210455Y374906D01*
X210571Y375253D01*
Y375276D01*
X210617Y375345D01*
X210733Y375507D01*
X210825Y375577D01*
X210941Y375623D01*
X211080Y375646D01*
X211242Y375623D01*
Y375600D01*
X211219Y375554D01*
X211195Y375461D01*
X211172Y375368D01*
X211126Y375230D01*
X211080Y375068D01*
X210941Y374697D01*
X210779Y374281D01*
X210594Y373818D01*
X210362Y373378D01*
X210085Y372962D01*
X210062Y372916D01*
X209946Y372800D01*
X209784Y372615D01*
X209529Y372383D01*
X209228Y372152D01*
X208858Y371921D01*
X208418Y371712D01*
X207909Y371527D01*
X207886D01*
X207863Y371504D01*
X207794D01*
X207724Y371481D01*
X207493Y371435D01*
X207192Y371365D01*
X206845Y371319D01*
X206475Y371273D01*
X206058D01*
X205619Y371296D01*
X205572D01*
X205434Y371319D01*
X205202Y371365D01*
X204924Y371411D01*
X204600Y371481D01*
X204253Y371573D01*
X203883Y371712D01*
X203513Y371851D01*
X203467Y371874D01*
X203351Y371944D01*
X203189Y372036D01*
X202958Y372175D01*
X202703Y372383D01*
X202425Y372615D01*
X202125Y372869D01*
X201847Y373193D01*
X201824Y373240D01*
X201731Y373355D01*
X201592Y373564D01*
X201453Y373818D01*
X201268Y374142D01*
X201106Y374512D01*
X200944Y374906D01*
X200805Y375368D01*
Y375392D01*
X200782Y375461D01*
X200759Y375554D01*
X200736Y375692D01*
X200713Y375878D01*
X200667Y376086D01*
X200643Y376317D01*
X200620Y376572D01*
Y377150D01*
X200667Y377798D01*
X200713Y378145D01*
X200782Y378492D01*
X200875Y378839D01*
X200991Y379187D01*
Y379210D01*
X201037Y379279D01*
X201060Y379372D01*
X201129Y379487D01*
X201222Y379649D01*
X201315Y379835D01*
X201569Y380251D01*
X201916Y380714D01*
X202356Y381200D01*
X202587Y381454D01*
X202865Y381686D01*
X203166Y381894D01*
X203490Y382102D01*
X203513D01*
X203559Y382149D01*
X203652Y382195D01*
X203767Y382241D01*
X203929Y382311D01*
X204115Y382380D01*
X204300Y382449D01*
X204531Y382519D01*
X205063Y382658D01*
X205642Y382727D01*
X205943Y382750D01*
X206266D01*
X206614Y382727D01*
D02*
G37*
G36*
X169543Y382681D02*
X170006Y382634D01*
X170052D01*
X170168Y382611D01*
X170353Y382565D01*
X170608Y382519D01*
X170886Y382449D01*
X171209Y382357D01*
X171880Y382125D01*
X171904D01*
X171950Y382102D01*
X172043Y382056D01*
X172181Y381986D01*
X172320Y381894D01*
X172459Y381801D01*
X172644Y381663D01*
X172806Y381501D01*
X172991Y381315D01*
X173153Y381107D01*
X173315Y380853D01*
X173454Y380575D01*
X173593Y380274D01*
X173685Y379927D01*
X173755Y379557D01*
X173778Y379140D01*
Y379117D01*
Y379094D01*
Y379048D01*
Y378955D01*
Y378816D01*
Y378631D01*
Y378400D01*
Y378099D01*
Y377729D01*
Y377266D01*
Y376988D01*
Y376711D01*
Y376410D01*
Y376063D01*
Y375692D01*
Y375299D01*
Y374883D01*
Y374443D01*
Y373957D01*
Y373448D01*
Y373425D01*
Y373355D01*
Y373309D01*
Y373193D01*
Y373055D01*
Y372916D01*
Y372892D01*
X173801Y372823D01*
X173847Y372730D01*
X173894Y372592D01*
X173917Y372568D01*
X173986Y372522D01*
X174079Y372453D01*
X174241Y372430D01*
X174380D01*
X174495Y372476D01*
X174634Y372568D01*
X174657Y372592D01*
X174727Y372684D01*
X174796Y372777D01*
X174842Y372892D01*
Y372916D01*
X174889Y373008D01*
X174912Y373147D01*
X174981Y373355D01*
Y373378D01*
X175004Y373448D01*
X175028Y373540D01*
Y373656D01*
Y373679D01*
Y373702D01*
X175514D01*
Y373679D01*
X175537Y373587D01*
Y373448D01*
Y373286D01*
X175514Y373101D01*
X175467Y372869D01*
X175398Y372638D01*
X175259Y372407D01*
X175236Y372383D01*
X175189Y372314D01*
X175097Y372198D01*
X174981Y372059D01*
X174819Y371921D01*
X174634Y371782D01*
X174426Y371643D01*
X174195Y371527D01*
X174171D01*
X174079Y371504D01*
X173940Y371458D01*
X173778Y371411D01*
X173570Y371365D01*
X173338Y371342D01*
X172852Y371273D01*
X172737D01*
X172621Y371296D01*
X172436D01*
X172251Y371342D01*
X172019Y371411D01*
X171788Y371481D01*
X171533Y371597D01*
X171510Y371620D01*
X171418Y371666D01*
X171302Y371759D01*
X171140Y371874D01*
X170978Y372013D01*
X170793Y372198D01*
X170608Y372407D01*
X170446Y372661D01*
X170423Y372638D01*
X170376Y372592D01*
X170307Y372499D01*
X170191Y372383D01*
X170052Y372268D01*
X169867Y372129D01*
X169659Y371967D01*
X169428Y371828D01*
X169404Y371805D01*
X169312Y371759D01*
X169196Y371712D01*
X169034Y371643D01*
X168826Y371550D01*
X168618Y371481D01*
X168410Y371435D01*
X168201Y371388D01*
X168109D01*
X167993Y371365D01*
X167831D01*
X167646Y371342D01*
X166929D01*
X166373Y371388D01*
X165771Y371481D01*
X165170Y371643D01*
X164892Y371759D01*
X164614Y371898D01*
X164568Y371921D01*
X164476Y371990D01*
X164337Y372106D01*
X164152Y372245D01*
X163967Y372453D01*
X163781Y372707D01*
X163596Y373008D01*
X163458Y373355D01*
Y373378D01*
X163434Y373402D01*
X163411Y373540D01*
X163365Y373726D01*
X163342Y373980D01*
X163319Y374304D01*
X163342Y374628D01*
X163388Y374998D01*
X163481Y375368D01*
Y375392D01*
X163504Y375415D01*
X163550Y375531D01*
X163643Y375716D01*
X163781Y375924D01*
X163967Y376155D01*
X164198Y376410D01*
X164476Y376641D01*
X164800Y376826D01*
X164823D01*
X164869Y376849D01*
X164938Y376873D01*
X165031Y376919D01*
X165286Y377011D01*
X165610Y377127D01*
X166003Y377243D01*
X166466Y377382D01*
X166952Y377474D01*
X167461Y377567D01*
X167484D01*
X167530Y377590D01*
X167623D01*
X167738Y377613D01*
X168016Y377636D01*
X168340Y377682D01*
X168363D01*
X168433Y377706D01*
X168525D01*
X168664Y377729D01*
X168826Y377752D01*
X169011D01*
X169219Y377775D01*
X169451Y377798D01*
X169567D01*
X169682Y377821D01*
X169821D01*
X170145Y377868D01*
X170307D01*
X170446Y377891D01*
Y377914D01*
Y378030D01*
X170423Y378168D01*
Y378377D01*
X170399Y378585D01*
X170376Y378863D01*
X170353Y379418D01*
X170307Y379996D01*
Y380274D01*
X170284Y380529D01*
X170261Y380737D01*
Y380922D01*
X170238Y381061D01*
Y381130D01*
Y381153D01*
X170214Y381223D01*
X170191Y381292D01*
X170145Y381408D01*
X170076Y381547D01*
X169983Y381663D01*
X169844Y381801D01*
X169659Y381917D01*
X169636Y381940D01*
X169567Y381963D01*
X169451Y382010D01*
X169312Y382079D01*
X169127Y382125D01*
X168919Y382172D01*
X168687Y382218D01*
X168386D01*
X168271Y382195D01*
X168086Y382172D01*
X167854Y382149D01*
X167576Y382102D01*
X167276Y382033D01*
X166628Y381871D01*
X166581Y381848D01*
X166489Y381801D01*
X166466Y381778D01*
X166350Y381686D01*
X166304Y381639D01*
X166234Y381547D01*
X166258Y381524D01*
X166304Y381501D01*
X166373Y381408D01*
X166396Y381385D01*
X166466Y381339D01*
X166535Y381269D01*
X166605Y381223D01*
X166628D01*
X166651Y381200D01*
X166790Y381107D01*
X166952Y380968D01*
X167137Y380760D01*
X167299Y380506D01*
X167414Y380158D01*
X167438Y379973D01*
X167414Y379788D01*
X167391Y379557D01*
X167322Y379325D01*
X167299Y379279D01*
X167253Y379163D01*
X167137Y379025D01*
X166975Y378839D01*
X166720Y378678D01*
X166419Y378539D01*
X166234Y378492D01*
X166003Y378469D01*
X165771Y378446D01*
X165517Y378469D01*
X165494D01*
X165448Y378492D01*
X165378D01*
X165262Y378539D01*
X165031Y378654D01*
X164892Y378747D01*
X164753Y378863D01*
X164730Y378886D01*
X164707Y378932D01*
X164638Y379001D01*
X164568Y379094D01*
X164429Y379325D01*
X164360Y379464D01*
X164314Y379626D01*
Y379649D01*
Y379696D01*
Y379788D01*
Y379904D01*
Y380066D01*
X164337Y380228D01*
X164406Y380598D01*
X164476Y380806D01*
X164568Y381015D01*
X164707Y381223D01*
X164846Y381454D01*
X165031Y381639D01*
X165262Y381848D01*
X165540Y382033D01*
X165841Y382195D01*
X165864D01*
X165910Y382218D01*
X166003Y382264D01*
X166142Y382311D01*
X166304Y382357D01*
X166489Y382426D01*
X166720Y382472D01*
X166975Y382542D01*
X167253Y382588D01*
X167576Y382634D01*
X167923Y382681D01*
X168294Y382704D01*
X169104D01*
X169543Y382681D01*
D02*
G37*
G36*
X298132Y382611D02*
X298317D01*
X298526Y382565D01*
X298757Y382542D01*
X299035Y382472D01*
X299312Y382403D01*
X299636Y382311D01*
X299960Y382218D01*
X300307Y382079D01*
X300655Y381917D01*
X300978Y381732D01*
X301326Y381501D01*
X301650Y381246D01*
X301974Y380968D01*
X301997Y380945D01*
X302043Y380899D01*
X302135Y380806D01*
X302228Y380691D01*
X302367Y380529D01*
X302506Y380344D01*
X302645Y380112D01*
X302807Y379858D01*
X302945Y379580D01*
X303107Y379279D01*
X303246Y378955D01*
X303362Y378608D01*
X303454Y378215D01*
X303547Y377821D01*
X303593Y377382D01*
Y376942D01*
Y376919D01*
Y376826D01*
Y376688D01*
X303570Y376525D01*
Y376294D01*
X303524Y376063D01*
X303478Y375762D01*
X303431Y375461D01*
X303339Y375137D01*
X303246Y374813D01*
X303107Y374466D01*
X302945Y374119D01*
X302760Y373772D01*
X302552Y373425D01*
X302297Y373101D01*
X301997Y372777D01*
X301974Y372754D01*
X301927Y372707D01*
X301835Y372638D01*
X301696Y372522D01*
X301534Y372407D01*
X301349Y372268D01*
X301117Y372129D01*
X300840Y371967D01*
X300562Y371828D01*
X300238Y371666D01*
X299891Y371527D01*
X299521Y371411D01*
X299127Y371296D01*
X298711Y371226D01*
X298271Y371180D01*
X297808Y371157D01*
X297554D01*
X297369Y371180D01*
X297160Y371203D01*
X296883Y371250D01*
X296605Y371296D01*
X296304Y371342D01*
X295610Y371527D01*
X295263Y371643D01*
X294893Y371805D01*
X294546Y371967D01*
X294198Y372175D01*
X293851Y372407D01*
X293528Y372684D01*
X293504Y372707D01*
X293458Y372754D01*
X293366Y372846D01*
X293273Y372962D01*
X293157Y373124D01*
X293018Y373309D01*
X292856Y373540D01*
X292694Y373795D01*
X292556Y374073D01*
X292394Y374374D01*
X292255Y374721D01*
X292139Y375114D01*
X292023Y375507D01*
X291931Y375947D01*
X291884Y376410D01*
X291861Y376896D01*
Y376919D01*
Y377011D01*
Y377127D01*
X291884Y377312D01*
X291908Y377520D01*
X291954Y377775D01*
X292000Y378053D01*
X292070Y378354D01*
X292139Y378678D01*
X292255Y379001D01*
X292394Y379349D01*
X292556Y379696D01*
X292741Y380043D01*
X292972Y380390D01*
X293227Y380714D01*
X293528Y381038D01*
X293551Y381061D01*
X293597Y381107D01*
X293713Y381200D01*
X293828Y381292D01*
X294013Y381408D01*
X294198Y381547D01*
X294430Y381709D01*
X294708Y381848D01*
X295008Y382010D01*
X295332Y382149D01*
X295703Y382287D01*
X296096Y382403D01*
X296513Y382496D01*
X296952Y382588D01*
X297415Y382634D01*
X298017D01*
X298132Y382611D01*
D02*
G37*
G36*
X273627Y382542D02*
X274206Y382449D01*
X274530Y382357D01*
X274830Y382241D01*
X275154Y382102D01*
X275478Y381917D01*
X275501D01*
X275524Y381894D01*
X275663Y381801D01*
X275849Y381663D01*
X276103Y381454D01*
X276381Y381177D01*
X276681Y380853D01*
X277006Y380459D01*
X277306Y379996D01*
Y379973D01*
X277353Y379927D01*
X277376Y379858D01*
X277445Y379765D01*
X277561Y379510D01*
X277723Y379187D01*
X277885Y378793D01*
X278024Y378377D01*
X278139Y377914D01*
X278186Y377451D01*
X271336D01*
Y377428D01*
Y377382D01*
Y377289D01*
X271359Y377150D01*
Y376988D01*
Y376780D01*
Y376549D01*
Y376271D01*
Y376248D01*
Y376132D01*
Y375993D01*
X271382Y375808D01*
Y375600D01*
Y375368D01*
X271406Y374906D01*
Y374883D01*
Y374813D01*
X271429Y374697D01*
X271452Y374559D01*
X271475Y374374D01*
X271498Y374188D01*
X271568Y373772D01*
Y373749D01*
Y373726D01*
X271614Y373587D01*
X271683Y373378D01*
X271776Y373124D01*
X271938Y372846D01*
X272123Y372568D01*
X272377Y372314D01*
X272678Y372106D01*
X272725Y372083D01*
X272840Y372036D01*
X273025Y371967D01*
X273280Y371921D01*
X273604Y371874D01*
X273951Y371851D01*
X274367Y371898D01*
X274807Y372013D01*
X274830D01*
X274900Y372036D01*
X274992Y372083D01*
X275131Y372152D01*
X275293Y372221D01*
X275478Y372337D01*
X275687Y372453D01*
X275895Y372615D01*
X276103Y372800D01*
X276334Y373008D01*
X276566Y373240D01*
X276774Y373517D01*
X276982Y373818D01*
X277168Y374165D01*
X277353Y374535D01*
X277491Y374952D01*
Y374975D01*
X277515Y375021D01*
X277584Y375183D01*
X277653Y375345D01*
X277700Y375415D01*
X277723Y375461D01*
X277746Y375484D01*
X277815Y375507D01*
X277885Y375531D01*
X277977Y375554D01*
X278070Y375577D01*
X278209Y375600D01*
Y375577D01*
X278186Y375507D01*
Y375392D01*
X278139Y375230D01*
X278093Y375044D01*
X278047Y374836D01*
X277885Y374350D01*
Y374327D01*
X277838Y374235D01*
X277792Y374119D01*
X277723Y373957D01*
X277561Y373610D01*
X277329Y373240D01*
X277306Y373193D01*
X277214Y373078D01*
X277052Y372869D01*
X276844Y372638D01*
X276612Y372383D01*
X276311Y372129D01*
X275964Y371874D01*
X275594Y371666D01*
X275548Y371643D01*
X275409Y371597D01*
X275201Y371504D01*
X274923Y371411D01*
X274576Y371319D01*
X274159Y371226D01*
X273720Y371157D01*
X273234Y371134D01*
X273002D01*
X272840Y371157D01*
X272655Y371180D01*
X272424Y371203D01*
X272169Y371250D01*
X271892Y371319D01*
X271290Y371481D01*
X270966Y371597D01*
X270619Y371736D01*
X270295Y371898D01*
X269971Y372106D01*
X269647Y372337D01*
X269346Y372592D01*
X269323Y372615D01*
X269277Y372661D01*
X269207Y372754D01*
X269092Y372869D01*
X268976Y373008D01*
X268837Y373193D01*
X268698Y373402D01*
X268536Y373633D01*
X268374Y373887D01*
X268235Y374188D01*
X268097Y374512D01*
X267958Y374836D01*
X267842Y375206D01*
X267750Y375600D01*
X267703Y376016D01*
X267657Y376456D01*
Y376479D01*
Y376572D01*
X267634Y376688D01*
Y376826D01*
Y376873D01*
Y376988D01*
X267657Y377173D01*
X267680Y377428D01*
X267726Y377729D01*
X267796Y378076D01*
X267888Y378446D01*
X268027Y378863D01*
Y378886D01*
X268050Y378909D01*
X268097Y379048D01*
X268189Y379256D01*
X268305Y379510D01*
X268444Y379811D01*
X268606Y380112D01*
X268791Y380390D01*
X268999Y380667D01*
X269022Y380691D01*
X269045Y380737D01*
X269115Y380806D01*
X269207Y380899D01*
X269323Y381015D01*
X269439Y381130D01*
X269786Y381431D01*
X270202Y381732D01*
X270711Y382033D01*
X271290Y382287D01*
X271614Y382403D01*
X271938Y382496D01*
X271961D01*
X272030Y382519D01*
X272123D01*
X272262Y382542D01*
X272424Y382565D01*
X272609Y382588D01*
X273072D01*
X273627Y382542D01*
D02*
G37*
G36*
X380418Y382496D02*
X380719Y382449D01*
X381066Y382357D01*
X381459Y382241D01*
X381876Y382079D01*
X382339Y381871D01*
X382362D01*
X382385Y381848D01*
X382454Y381801D01*
X382547Y381755D01*
X382755Y381616D01*
X383033Y381431D01*
X383334Y381200D01*
X383635Y380945D01*
X383935Y380621D01*
X384190Y380297D01*
X384213Y380274D01*
X384259Y380205D01*
X384329Y380066D01*
X384421Y379904D01*
X384537Y379696D01*
X384653Y379441D01*
X384769Y379163D01*
X384884Y378839D01*
X384907Y378793D01*
X384930Y378701D01*
X384977Y378516D01*
X385046Y378307D01*
X385092Y378076D01*
X385139Y377798D01*
X385185Y377544D01*
X385208Y377266D01*
X378336D01*
Y377243D01*
Y377197D01*
Y377104D01*
X378359Y376988D01*
Y376826D01*
Y376618D01*
X378382Y376387D01*
Y376109D01*
Y376086D01*
Y375970D01*
X378405Y375831D01*
Y375646D01*
X378428Y375438D01*
Y375206D01*
X378451Y374744D01*
Y374721D01*
Y374651D01*
X378474Y374535D01*
X378498Y374397D01*
Y374212D01*
X378521Y374026D01*
X378590Y373633D01*
Y373610D01*
X378613Y373517D01*
X378660Y373378D01*
X378706Y373217D01*
X378868Y372846D01*
X378960Y372661D01*
X379099Y372476D01*
X379122Y372453D01*
X379169Y372407D01*
X379261Y372337D01*
X379354Y372245D01*
X379631Y372036D01*
X379793Y371944D01*
X379978Y371874D01*
X380002D01*
X380071Y371851D01*
X380164Y371828D01*
X380303Y371805D01*
X380464Y371782D01*
X380626Y371759D01*
X381112D01*
X381228Y371782D01*
X381344Y371805D01*
X381506Y371828D01*
X381691Y371851D01*
X382084Y371967D01*
X382131Y371990D01*
X382246Y372036D01*
X382431Y372129D01*
X382640Y372245D01*
X382894Y372407D01*
X383149Y372592D01*
X383403Y372823D01*
X383635Y373101D01*
X383658Y373147D01*
X383727Y373240D01*
X383843Y373402D01*
X383982Y373633D01*
X384144Y373911D01*
X384306Y374235D01*
X384468Y374582D01*
X384630Y374998D01*
Y375021D01*
X384653Y375044D01*
X384722Y375183D01*
X384861Y375322D01*
X385023Y375484D01*
X385278Y375322D01*
X385254Y375276D01*
X385231Y375183D01*
X385185Y375021D01*
X385139Y374836D01*
X385069Y374674D01*
X385023Y374512D01*
X385000Y374374D01*
X384977Y374327D01*
Y374304D01*
X384954Y374258D01*
X384930Y374188D01*
X384884Y374096D01*
X384769Y373841D01*
X384583Y373517D01*
X384352Y373170D01*
X384051Y372777D01*
X383681Y372383D01*
X383218Y372013D01*
X383195D01*
X383149Y371967D01*
X383079Y371921D01*
X382987Y371874D01*
X382871Y371805D01*
X382732Y371712D01*
X382385Y371550D01*
X381968Y371365D01*
X381506Y371203D01*
X380997Y371111D01*
X380464Y371064D01*
X380349D01*
X380187Y371041D01*
X380048D01*
X379863Y371064D01*
X379631Y371088D01*
X379331Y371134D01*
X379007Y371203D01*
X378636Y371296D01*
X378243Y371435D01*
X378197Y371458D01*
X378058Y371504D01*
X377873Y371597D01*
X377618Y371689D01*
X377364Y371828D01*
X377063Y371990D01*
X376785Y372152D01*
X376507Y372337D01*
X376484Y372360D01*
X376415Y372430D01*
X376299Y372522D01*
X376160Y372684D01*
X375998Y372846D01*
X375836Y373078D01*
X375628Y373332D01*
X375443Y373633D01*
X375420Y373679D01*
X375374Y373772D01*
X375281Y373934D01*
X375165Y374142D01*
X375073Y374374D01*
X374957Y374628D01*
X374888Y374906D01*
X374818Y375183D01*
Y375230D01*
X374795Y375345D01*
X374772Y375531D01*
X374749Y375785D01*
X374726Y376086D01*
X374703Y376433D01*
Y376826D01*
X374749Y377243D01*
X374795Y377706D01*
X374888Y378168D01*
X375003Y378654D01*
X375188Y379163D01*
X375420Y379649D01*
X375698Y380135D01*
X376045Y380598D01*
X376461Y381038D01*
X376484Y381061D01*
X376577Y381153D01*
X376716Y381269D01*
X376901Y381408D01*
X377132Y381570D01*
X377410Y381732D01*
X377734Y381917D01*
X378104Y382079D01*
X378127D01*
X378150Y382102D01*
X378289Y382149D01*
X378474Y382218D01*
X378729Y382311D01*
X379030Y382380D01*
X379354Y382449D01*
X379678Y382496D01*
X380002Y382519D01*
X380187D01*
X380418Y382496D01*
D02*
G37*
G36*
X415799Y382241D02*
X424268D01*
Y381663D01*
X422788D01*
X425518Y375461D01*
Y375484D01*
X425541Y375507D01*
X425564Y375577D01*
X425611Y375669D01*
X425703Y375901D01*
X425819Y376178D01*
Y376202D01*
X425842Y376248D01*
X425888Y376340D01*
X425935Y376433D01*
X426027Y376688D01*
X426143Y376919D01*
Y376942D01*
X426166Y376965D01*
X426235Y377127D01*
X426305Y377312D01*
X426397Y377544D01*
Y377567D01*
X426420Y377613D01*
X426467Y377706D01*
X426513Y377845D01*
X426582Y377983D01*
X426652Y378145D01*
X426814Y378539D01*
X426999Y378955D01*
X427184Y379395D01*
X427346Y379811D01*
X427485Y380182D01*
Y380205D01*
X427508Y380251D01*
X427531Y380320D01*
Y380413D01*
X427554Y380644D01*
Y380922D01*
X427508Y381038D01*
X427439Y381177D01*
X427369Y381292D01*
X427253Y381408D01*
X427115Y381501D01*
X426930Y381570D01*
X426698Y381616D01*
X426420Y381639D01*
X426096D01*
X426050Y382195D01*
X429868D01*
Y381732D01*
X429822D01*
X429683Y381709D01*
X429498Y381663D01*
X429313Y381593D01*
X429267Y381570D01*
X429174Y381501D01*
X429035Y381408D01*
X428897Y381246D01*
X428873Y381200D01*
X428781Y381107D01*
X428688Y380968D01*
X428596Y380830D01*
X428573Y380806D01*
X428526Y380714D01*
X428457Y380575D01*
X428364Y380367D01*
X428341Y380320D01*
X428318Y380251D01*
X428272Y380182D01*
X428225Y380066D01*
X428179Y379950D01*
X428110Y379788D01*
X428017Y379626D01*
X427948Y379418D01*
X427832Y379210D01*
X427739Y378955D01*
X427624Y378678D01*
X427485Y378400D01*
X427346Y378076D01*
X427207Y377752D01*
X427045Y377382D01*
Y377359D01*
X426999Y377289D01*
X426953Y377197D01*
X426906Y377058D01*
X426837Y376896D01*
X426744Y376711D01*
X426559Y376271D01*
X426351Y375808D01*
X426143Y375322D01*
X425935Y374859D01*
X425842Y374628D01*
X425749Y374443D01*
X425726Y374420D01*
X425703Y374327D01*
X425634Y374212D01*
X425564Y374003D01*
X425472Y373772D01*
X425356Y373471D01*
X425217Y373124D01*
X425078Y372730D01*
X424916Y372268D01*
X424754Y371759D01*
X424569Y371203D01*
X424384Y370579D01*
X424199Y369907D01*
X423991Y369190D01*
X423806Y368403D01*
X423597Y367570D01*
X423574Y367524D01*
X423551Y367408D01*
X423482Y367246D01*
X423389Y367015D01*
X423273Y366760D01*
X423111Y366483D01*
X422950Y366182D01*
X422764Y365881D01*
X422741Y365858D01*
X422718Y365812D01*
X422649Y365742D01*
X422556Y365650D01*
X422417Y365534D01*
X422278Y365441D01*
X422070Y365349D01*
X421862Y365279D01*
X421839D01*
X421746Y365256D01*
X421630Y365233D01*
X421468Y365210D01*
X421283Y365187D01*
X421075Y365164D01*
X420867Y365187D01*
X420636Y365210D01*
X420612D01*
X420543Y365233D01*
X420427Y365256D01*
X420288Y365303D01*
X419964Y365418D01*
X419664Y365603D01*
X419617Y365650D01*
X419502Y365765D01*
X419363Y365974D01*
X419201Y366251D01*
Y366274D01*
X419178Y366321D01*
X419155Y366390D01*
X419108Y366483D01*
X419039Y366714D01*
X419016Y366969D01*
Y366992D01*
Y367038D01*
Y367108D01*
X419039Y367177D01*
X419085Y367408D01*
X419178Y367663D01*
Y367686D01*
X419201Y367732D01*
X419247Y367802D01*
X419293Y367894D01*
X419455Y368103D01*
X419571Y368218D01*
X419710Y368311D01*
X419733Y368334D01*
X419779Y368357D01*
X419849Y368403D01*
X419964Y368450D01*
X420219Y368519D01*
X420358Y368565D01*
X420728D01*
X420913Y368542D01*
X421121Y368519D01*
X421353Y368496D01*
X421584Y368426D01*
X421793Y368357D01*
X421954Y368241D01*
X421978Y368218D01*
X422024Y368172D01*
X422070Y368056D01*
X422163Y367894D01*
X422255Y367663D01*
X422348Y367362D01*
X422464Y366992D01*
X422510Y366783D01*
X422556Y366529D01*
Y366552D01*
X422579Y366598D01*
X422625Y366691D01*
X422649Y366783D01*
X422764Y367061D01*
X422880Y367385D01*
X422996Y367709D01*
X423111Y368010D01*
X423158Y368149D01*
X423181Y368241D01*
X423204Y368334D01*
X423227Y368380D01*
X423250Y368426D01*
X423273Y368542D01*
X423320Y368704D01*
X423389Y368959D01*
X423459Y369213D01*
X423505Y369537D01*
X423597Y370208D01*
Y370231D01*
Y370254D01*
Y370347D01*
Y370370D01*
Y370463D01*
X423574Y370602D01*
Y370764D01*
X423528Y370972D01*
X423482Y371180D01*
X423412Y371411D01*
X423320Y371643D01*
Y371666D01*
X423273Y371736D01*
X423227Y371874D01*
X423158Y372059D01*
X423042Y372291D01*
X422926Y372615D01*
X422741Y373008D01*
X422556Y373471D01*
X422325Y374003D01*
X422070Y374628D01*
X421908Y374975D01*
X421746Y375345D01*
X421584Y375739D01*
X421399Y376155D01*
X421214Y376595D01*
X421029Y377058D01*
X420797Y377544D01*
X420589Y378076D01*
X420358Y378608D01*
X420103Y379187D01*
X419849Y379788D01*
X419571Y380413D01*
Y380436D01*
X419548Y380506D01*
X419502Y380598D01*
X419455Y380714D01*
X419340Y381015D01*
X419178Y381339D01*
Y381362D01*
X419155Y381385D01*
X419039Y381477D01*
X418877Y381593D01*
X418669Y381686D01*
X415822D01*
Y380992D01*
Y374235D01*
Y374212D01*
Y374165D01*
Y374026D01*
Y374003D01*
Y373934D01*
Y373818D01*
X415845Y373679D01*
Y373517D01*
X415892Y373332D01*
X415961Y372939D01*
X415984Y372892D01*
X416031Y372800D01*
X416123Y372661D01*
X416262Y372499D01*
X416308Y372453D01*
X416401Y372383D01*
X416517Y372314D01*
X416586Y372291D01*
X416678D01*
X416771Y372314D01*
X416887Y372337D01*
X417026Y372407D01*
X417188Y372476D01*
X417373Y372568D01*
X417558Y372684D01*
X417720Y372846D01*
X417766Y372892D01*
X417789Y372939D01*
X417859Y373008D01*
X417882Y373031D01*
X417905Y373078D01*
X417951Y373124D01*
X417974Y373147D01*
X417998Y373170D01*
X418090Y373193D01*
X418113D01*
X418159Y373217D01*
X418206D01*
X418275Y373193D01*
X418298D01*
X418345Y373170D01*
X418391Y373147D01*
X418460Y373078D01*
X418437Y373031D01*
X418391Y372939D01*
X418298Y372777D01*
X418159Y372592D01*
X417974Y372360D01*
X417743Y372129D01*
X417465Y371898D01*
X417141Y371666D01*
X417095Y371643D01*
X416979Y371573D01*
X416817Y371481D01*
X416586Y371388D01*
X416308Y371273D01*
X416008Y371180D01*
X415684Y371111D01*
X415336Y371088D01*
X415198D01*
X415036Y371111D01*
X414804Y371134D01*
X414550Y371180D01*
X414272Y371250D01*
X413994Y371342D01*
X413694Y371481D01*
X413670Y371504D01*
X413601Y371527D01*
X413508Y371597D01*
X413393Y371689D01*
X413254Y371805D01*
X413115Y371967D01*
X412953Y372129D01*
X412814Y372337D01*
X412791Y372360D01*
X412768Y372453D01*
X412699Y372568D01*
X412629Y372707D01*
X412560Y372892D01*
X412513Y373101D01*
X412467Y373309D01*
X412444Y373540D01*
Y373564D01*
Y373587D01*
Y380922D01*
Y381663D01*
X411125D01*
Y382172D01*
X411148D01*
X411194Y382195D01*
X411287Y382218D01*
X411379Y382241D01*
X411518Y382287D01*
X411680Y382334D01*
X412050Y382472D01*
X412490Y382681D01*
X412953Y382958D01*
X413416Y383306D01*
X413647Y383514D01*
X413879Y383745D01*
X413902Y383768D01*
X413925Y383815D01*
X413994Y383884D01*
X414064Y383977D01*
X414179Y384092D01*
X414272Y384231D01*
X414503Y384578D01*
X414758Y385018D01*
X414966Y385504D01*
X415151Y386036D01*
X415198Y386314D01*
X415244Y386591D01*
Y386614D01*
Y386661D01*
Y386753D01*
Y386846D01*
Y386869D01*
Y386939D01*
Y387031D01*
X415267Y387147D01*
Y387170D01*
X415313Y387239D01*
X415360Y387309D01*
X415429Y387378D01*
X415452Y387401D01*
X415521Y387424D01*
X415637Y387448D01*
X415799Y387471D01*
Y382241D01*
D02*
G37*
%LPC*%
G36*
X252762Y244069D02*
X252906Y243829D01*
X252882Y243949D01*
X252762Y244069D01*
D02*
G37*
G36*
X296697Y262606D02*
X297058Y262004D01*
X297178Y261764D01*
X297539Y261282D01*
X297901Y260319D01*
X298262Y259116D01*
Y258995D01*
Y258754D01*
X298382Y258393D01*
Y257912D01*
X298502Y257190D01*
Y256347D01*
Y255384D01*
Y254301D01*
Y254180D01*
Y253699D01*
X298382Y253097D01*
X298141Y252134D01*
X297780Y250930D01*
X297299Y249606D01*
X296697Y248042D01*
X295854Y246356D01*
X295734Y246116D01*
X295373Y245514D01*
X294891Y244551D01*
X294049Y243347D01*
X293086Y241782D01*
X291882Y240097D01*
X290438Y238171D01*
X288752Y236245D01*
Y236486D01*
X288632Y236606D01*
X288512Y236967D01*
X288271Y237449D01*
X287789Y238171D01*
X287308Y238893D01*
X286465Y239856D01*
X285502Y240940D01*
X284299Y242143D01*
X282734Y243588D01*
X280928Y245273D01*
X278762Y247199D01*
X276114Y249245D01*
X273225Y251653D01*
X269854Y254180D01*
X269975Y254060D01*
X270336Y253819D01*
X270817Y253338D01*
X271539Y252616D01*
X271660D01*
X271780Y252375D01*
X272021Y252134D01*
X272502Y251653D01*
X273104Y251171D01*
X273827Y250329D01*
X274669Y249486D01*
X275632Y248403D01*
X275752Y248282D01*
X276114Y247921D01*
X276715Y247199D01*
X277317Y246477D01*
X278160Y245514D01*
X278882Y244430D01*
X280567Y242143D01*
X280688Y242023D01*
X280928Y241662D01*
X281289Y240940D01*
X281771Y240097D01*
X282252Y239134D01*
X282854Y237930D01*
X283456Y236606D01*
X283938Y235162D01*
X284058Y235042D01*
X284178Y234560D01*
X284419Y233717D01*
X284539Y232875D01*
X284780Y231792D01*
X284900Y230588D01*
Y229264D01*
X284780Y228060D01*
X284900Y228181D01*
X285141Y228301D01*
X285502Y228662D01*
X286104Y229023D01*
X286225Y229143D01*
X286826Y229625D01*
X287188Y230106D01*
X287789Y230588D01*
X288391Y231190D01*
X289234Y231912D01*
X289354Y232032D01*
X289595Y232273D01*
X290076Y232754D01*
X290678Y233236D01*
X292002Y234681D01*
X293447Y236245D01*
X293567Y236366D01*
X293808Y236606D01*
X294169Y237088D01*
X294651Y237810D01*
X295252Y238653D01*
X295854Y239495D01*
X296456Y240579D01*
X297178Y241782D01*
X297299Y241903D01*
X297539Y242384D01*
X297780Y242986D01*
X298262Y243829D01*
X298743Y244792D01*
X299104Y245875D01*
X299947Y248162D01*
Y248282D01*
X300067Y248764D01*
X300187Y249366D01*
X300308Y250208D01*
Y251171D01*
Y252375D01*
Y253699D01*
X300067Y255023D01*
Y255143D01*
X299947Y255625D01*
X299706Y256347D01*
X299465Y257310D01*
X299104Y258393D01*
X298502Y259597D01*
X297901Y260801D01*
X297058Y262004D01*
Y262125D01*
X296937Y262245D01*
X296697Y262606D01*
D02*
G37*
G36*
X270938Y247680D02*
X271058Y247560D01*
X271178Y247440D01*
X271419Y246958D01*
X271901Y246236D01*
X272502Y245273D01*
X273465Y243829D01*
X274067Y242866D01*
X274669Y241903D01*
X274789Y241782D01*
X275030Y241301D01*
X275391Y240699D01*
X275752Y239856D01*
X276234Y238893D01*
X276715Y237690D01*
X277558Y235282D01*
X277799Y233958D01*
X278039Y232634D01*
Y231431D01*
X277799Y230227D01*
X277317Y229143D01*
X276595Y228301D01*
X275512Y227579D01*
X274188Y227097D01*
X274067D01*
X273706Y226977D01*
X271178D01*
X270095Y227097D01*
X268891Y227338D01*
X267567Y227819D01*
X267447Y227940D01*
X266965Y228060D01*
X266364Y228421D01*
X265521Y228903D01*
X264678Y229505D01*
X263595Y230227D01*
X261549Y232032D01*
X261428Y232153D01*
X261067Y232514D01*
X260586Y232995D01*
X259984Y233717D01*
X259382Y234560D01*
X258540Y235403D01*
X256975Y237449D01*
X256854Y237569D01*
X256614Y237930D01*
X256253Y238412D01*
X255771Y239134D01*
X254808Y240699D01*
X253845Y242264D01*
X252906Y243829D01*
X253003Y243347D01*
X253364Y242505D01*
X253725Y241421D01*
Y241301D01*
X253845Y241060D01*
X254086Y240699D01*
X254327Y240097D01*
X254808Y239254D01*
X255290Y238171D01*
X256012Y236967D01*
X256734Y235523D01*
X256854Y235403D01*
X257215Y234801D01*
X257697Y234079D01*
X258299Y233116D01*
X259021Y232032D01*
X259864Y230829D01*
X261789Y228421D01*
X261910Y228301D01*
X262271Y227940D01*
X262873Y227338D01*
X263595Y226736D01*
X264678Y225893D01*
X265762Y225051D01*
X267206Y224208D01*
X268651Y223486D01*
X268891Y223366D01*
X269373Y223245D01*
X270215Y222884D01*
X271299Y222643D01*
X272502Y222403D01*
X273947Y222282D01*
X275512Y222403D01*
X277197Y222643D01*
X277438Y222764D01*
X277919Y222884D01*
X278641Y223245D01*
X279484Y223847D01*
X280327Y224569D01*
X281049Y225532D01*
X281650Y226736D01*
X281891Y228301D01*
Y228542D01*
Y229143D01*
X281771Y229986D01*
X281650Y231310D01*
X281289Y232754D01*
X280688Y234440D01*
X279965Y236245D01*
X278882Y238171D01*
Y238292D01*
X278762Y238412D01*
X278280Y239134D01*
X277678Y240097D01*
X276715Y241421D01*
X275512Y242866D01*
X274188Y244430D01*
X272623Y246116D01*
X270938Y247680D01*
D02*
G37*
G36*
X249752Y243347D02*
Y243227D01*
X249632Y243106D01*
X249512Y242745D01*
X249271Y242384D01*
X248669Y241180D01*
X248067Y239616D01*
X247345Y237930D01*
X246623Y235884D01*
X246021Y233838D01*
X245539Y231792D01*
Y231551D01*
X245419Y230829D01*
X245178Y229866D01*
X245058Y228542D01*
X244938Y227097D01*
Y225532D01*
Y223968D01*
X245058Y222403D01*
Y222282D01*
X245178Y221801D01*
X245419Y220958D01*
X245660Y219995D01*
X246021Y218912D01*
X246382Y217708D01*
X247465Y215060D01*
X247586Y214940D01*
X247827Y214458D01*
X248067Y213856D01*
X248549Y213134D01*
X249873Y211208D01*
X251438Y209403D01*
X251558Y209282D01*
X251799Y209042D01*
X252280Y208681D01*
X252882Y208079D01*
X254206Y206875D01*
X255651Y205551D01*
X255771Y205431D01*
X256012Y205310D01*
X256373Y205069D01*
X256854Y204708D01*
X257938Y203986D01*
X259141Y203384D01*
X260345Y202782D01*
X259864Y203264D01*
X259021Y203866D01*
X258058Y204829D01*
X256854Y205912D01*
X255651Y207116D01*
X254447Y208560D01*
X253243Y210005D01*
X253123Y210245D01*
X252762Y210727D01*
X252280Y211449D01*
X251799Y212532D01*
X251197Y213616D01*
X250595Y214940D01*
X249993Y216264D01*
X249632Y217588D01*
Y217708D01*
X249512Y218190D01*
X249391Y218912D01*
X249271Y219755D01*
X249030Y220718D01*
X248910Y221801D01*
X248549Y224208D01*
Y224329D01*
Y224690D01*
Y225292D01*
Y226014D01*
Y227579D01*
X248669Y228421D01*
X248790Y229143D01*
X249151Y230829D01*
X249271Y230708D01*
X249512Y230347D01*
X249873Y229745D01*
X250475Y228903D01*
X251077Y228060D01*
X251919Y227097D01*
X252882Y226134D01*
X253965Y225171D01*
X254086Y225051D01*
X254567Y224810D01*
X255169Y224329D01*
X255891Y223847D01*
X256854Y223245D01*
X257938Y222643D01*
X260345Y221560D01*
X260465D01*
X260947Y221440D01*
X261549Y221199D01*
X262391Y220958D01*
X263354Y220597D01*
X264317Y220356D01*
X266604Y219755D01*
X266725D01*
X267086Y219634D01*
X267688Y219514D01*
X268410Y219393D01*
X269975Y219032D01*
X271539Y218792D01*
X273345D01*
X273225Y218912D01*
X272502Y219032D01*
X271299Y219393D01*
X269975Y219875D01*
X268289Y220356D01*
X266484Y221079D01*
X264678Y222042D01*
X262873Y223005D01*
X262632Y223125D01*
X262151Y223486D01*
X261308Y224088D01*
X260345Y224931D01*
X259141Y225893D01*
X258058Y226977D01*
X256854Y228181D01*
X255891Y229384D01*
X255771Y229505D01*
X255530Y229986D01*
X255049Y230588D01*
X254567Y231431D01*
X253965Y232514D01*
X253364Y233597D01*
X252040Y235884D01*
X251919Y236004D01*
X251799Y236486D01*
X251558Y237088D01*
X251197Y237810D01*
X250595Y239495D01*
X250114Y241301D01*
X249752Y243347D01*
D02*
G37*
G36*
X224194Y208480D02*
X224114Y208319D01*
X224114Y208199D01*
X224194Y208480D01*
D02*
G37*
G36*
X250715Y249005D02*
X250475Y248884D01*
X249873Y248403D01*
X248910Y247680D01*
X247586Y246718D01*
X246021Y245393D01*
X244215Y243708D01*
X242290Y241662D01*
X240243Y239375D01*
X240123Y239254D01*
X239762Y238773D01*
X239160Y238051D01*
X238438Y237088D01*
X237475Y235764D01*
X236391Y234319D01*
X235188Y232514D01*
X233984Y230588D01*
X232660Y228421D01*
X231336Y226014D01*
X230012Y223486D01*
X228688Y220718D01*
X227364Y217829D01*
X226160Y214699D01*
X225077Y211569D01*
X224194Y208480D01*
X224354Y208801D01*
X224595Y209523D01*
X224956Y210366D01*
X225438Y211329D01*
X225919Y212532D01*
X227123Y214940D01*
Y215060D01*
X227364Y215301D01*
X227484Y215662D01*
X227845Y216143D01*
X228567Y217347D01*
X229530Y218792D01*
X230734Y220356D01*
X232058Y221801D01*
X233382Y223125D01*
X233984Y223606D01*
X234706Y223968D01*
Y223727D01*
X234827Y223125D01*
X235067Y222282D01*
X235429Y220958D01*
X235910Y219514D01*
X236632Y217708D01*
X237595Y215782D01*
X238679Y213736D01*
X238799Y213616D01*
X238919Y213375D01*
X239280Y212894D01*
X239762Y212292D01*
X240484Y211449D01*
X241327Y210606D01*
X242410Y209644D01*
X243614Y208560D01*
X245058Y207357D01*
X246743Y206153D01*
X248549Y204949D01*
X250715Y203745D01*
X253123Y202421D01*
X255651Y201218D01*
X258540Y200014D01*
X261669Y198810D01*
X261428Y198931D01*
X260947Y199171D01*
X259984Y199532D01*
X258660Y200134D01*
X258540D01*
X258299Y200375D01*
X257817Y200616D01*
X257215Y200977D01*
X256373Y201579D01*
X255290Y202301D01*
X253965Y203264D01*
X252401Y204347D01*
X252160Y204468D01*
X251678Y204949D01*
X250836Y205671D01*
X249873Y206514D01*
X248669Y207597D01*
X247465Y208921D01*
X246262Y210245D01*
X245058Y211690D01*
X244938Y211810D01*
X244817Y212051D01*
X244456Y212412D01*
X244095Y213014D01*
X243614Y213736D01*
X243132Y214579D01*
X242530Y215662D01*
X242049Y216745D01*
X240966Y219273D01*
X240243Y222282D01*
X240002Y223847D01*
X239882Y225532D01*
Y227338D01*
X240002Y229143D01*
Y229264D01*
X240123Y229625D01*
X240243Y230106D01*
X240364Y230829D01*
X240604Y231792D01*
X240966Y232754D01*
X241327Y233958D01*
X241808Y235282D01*
X242410Y236727D01*
X243252Y238292D01*
X244095Y239977D01*
X245058Y241662D01*
X246262Y243467D01*
X247586Y245273D01*
X249030Y247199D01*
X250715Y249005D01*
D02*
G37*
G36*
X419325Y130688D02*
X418381D01*
Y129610D01*
X419325D01*
Y130688D01*
D02*
G37*
G36*
X391850D02*
X390906D01*
Y129610D01*
X391850D01*
Y130688D01*
D02*
G37*
G36*
X363353Y130821D02*
X363208D01*
X362919Y130810D01*
X362664Y130777D01*
X362420Y130733D01*
X362208Y130688D01*
X362042Y130644D01*
X361964Y130622D01*
X361909Y130599D01*
X361864Y130577D01*
X361831Y130566D01*
X361808Y130555D01*
X361797D01*
X361575Y130444D01*
X361375Y130322D01*
X361209Y130188D01*
X361075Y130066D01*
X360975Y129955D01*
X360897Y129866D01*
X360842Y129799D01*
X360831Y129788D01*
Y129777D01*
X360720Y129588D01*
X360642Y129399D01*
X360586Y129210D01*
X360553Y129044D01*
X360531Y128899D01*
X360509Y128788D01*
Y128744D01*
Y128710D01*
Y128699D01*
Y128688D01*
X360520Y128499D01*
X360553Y128322D01*
X360597Y128155D01*
X360642Y128011D01*
X360686Y127900D01*
X360731Y127811D01*
X360764Y127755D01*
X360775Y127733D01*
X360886Y127577D01*
X361020Y127433D01*
X361153Y127311D01*
X361286Y127211D01*
X361397Y127122D01*
X361497Y127066D01*
X361564Y127022D01*
X361575Y127011D01*
X361586D01*
X361675Y126966D01*
X361775Y126922D01*
X361997Y126844D01*
X362253Y126766D01*
X362497Y126689D01*
X362719Y126622D01*
X362820Y126600D01*
X362908Y126577D01*
X362975Y126555D01*
X363031Y126544D01*
X363064Y126533D01*
X363075D01*
X363264Y126488D01*
X363442Y126444D01*
X363597Y126400D01*
X363731Y126366D01*
X363864Y126333D01*
X363975Y126300D01*
X364075Y126277D01*
X364153Y126244D01*
X364230Y126222D01*
X364286Y126211D01*
X364375Y126178D01*
X364430Y126166D01*
X364442Y126155D01*
X364608Y126089D01*
X364753Y126011D01*
X364875Y125933D01*
X364964Y125866D01*
X365041Y125800D01*
X365086Y125755D01*
X365119Y125722D01*
X365130Y125711D01*
X365208Y125611D01*
X365264Y125500D01*
X365297Y125389D01*
X365330Y125300D01*
X365341Y125211D01*
X365353Y125144D01*
Y125089D01*
Y125078D01*
X365341Y124944D01*
X365319Y124822D01*
X365286Y124711D01*
X365242Y124622D01*
X365197Y124533D01*
X365164Y124478D01*
X365142Y124433D01*
X365130Y124422D01*
X365041Y124311D01*
X364930Y124222D01*
X364819Y124144D01*
X364719Y124067D01*
X364619Y124022D01*
X364542Y123978D01*
X364486Y123956D01*
X364464Y123944D01*
X364297Y123889D01*
X364119Y123844D01*
X363942Y123822D01*
X363786Y123800D01*
X363653Y123789D01*
X363542Y123778D01*
X363442D01*
X363197Y123789D01*
X362975Y123811D01*
X362775Y123844D01*
X362597Y123889D01*
X362453Y123933D01*
X362342Y123967D01*
X362308Y123978D01*
X362275Y123989D01*
X362264Y124000D01*
X362253D01*
X362075Y124089D01*
X361909Y124189D01*
X361786Y124289D01*
X361675Y124389D01*
X361586Y124467D01*
X361531Y124544D01*
X361497Y124589D01*
X361486Y124600D01*
X361408Y124744D01*
X361331Y124900D01*
X361286Y125066D01*
X361242Y125211D01*
X361209Y125355D01*
X361186Y125455D01*
Y125500D01*
X361175Y125533D01*
Y125544D01*
Y125555D01*
X360220Y125466D01*
X360242Y125189D01*
X360286Y124922D01*
X360353Y124689D01*
X360431Y124478D01*
X360509Y124311D01*
X360542Y124244D01*
X360564Y124189D01*
X360597Y124144D01*
X360609Y124111D01*
X360631Y124089D01*
Y124078D01*
X360798Y123867D01*
X360975Y123678D01*
X361164Y123522D01*
X361342Y123389D01*
X361497Y123289D01*
X361631Y123222D01*
X361675Y123200D01*
X361708Y123178D01*
X361731Y123167D01*
X361742D01*
X362020Y123067D01*
X362308Y122989D01*
X362597Y122944D01*
X362875Y122900D01*
X363008Y122889D01*
X363120Y122878D01*
X363219D01*
X363308Y122867D01*
X363486D01*
X363786Y122878D01*
X364064Y122911D01*
X364319Y122967D01*
X364530Y123022D01*
X364708Y123067D01*
X364786Y123100D01*
X364853Y123122D01*
X364897Y123144D01*
X364930Y123155D01*
X364953Y123167D01*
X364964D01*
X365197Y123289D01*
X365397Y123422D01*
X365575Y123567D01*
X365719Y123700D01*
X365830Y123811D01*
X365908Y123911D01*
X365964Y123978D01*
X365975Y123989D01*
Y124000D01*
X366097Y124211D01*
X366186Y124411D01*
X366241Y124600D01*
X366286Y124778D01*
X366308Y124933D01*
X366330Y125055D01*
Y125155D01*
X366319Y125378D01*
X366286Y125589D01*
X366230Y125777D01*
X366175Y125933D01*
X366108Y126066D01*
X366064Y126166D01*
X366019Y126222D01*
X366008Y126244D01*
X365875Y126411D01*
X365719Y126566D01*
X365553Y126700D01*
X365386Y126822D01*
X365242Y126911D01*
X365119Y126977D01*
X365075Y127000D01*
X365041Y127022D01*
X365019Y127033D01*
X365008D01*
X364919Y127077D01*
X364808Y127111D01*
X364686Y127155D01*
X364553Y127200D01*
X364275Y127277D01*
X363986Y127355D01*
X363853Y127388D01*
X363731Y127422D01*
X363608Y127455D01*
X363508Y127477D01*
X363431Y127499D01*
X363364Y127511D01*
X363319Y127522D01*
X363308D01*
X363086Y127577D01*
X362886Y127622D01*
X362708Y127677D01*
X362553Y127722D01*
X362408Y127777D01*
X362286Y127822D01*
X362175Y127866D01*
X362075Y127900D01*
X361997Y127944D01*
X361931Y127977D01*
X361886Y127999D01*
X361842Y128033D01*
X361786Y128066D01*
X361775Y128077D01*
X361675Y128188D01*
X361609Y128299D01*
X361553Y128411D01*
X361520Y128522D01*
X361497Y128611D01*
X361486Y128688D01*
Y128733D01*
Y128755D01*
X361508Y128933D01*
X361553Y129088D01*
X361620Y129222D01*
X361697Y129344D01*
X361764Y129433D01*
X361831Y129510D01*
X361875Y129555D01*
X361897Y129566D01*
X361986Y129622D01*
X362075Y129677D01*
X362286Y129766D01*
X362508Y129822D01*
X362731Y129866D01*
X362931Y129888D01*
X363019Y129899D01*
X363086Y129910D01*
X363242D01*
X363553Y129899D01*
X363830Y129855D01*
X364053Y129788D01*
X364242Y129722D01*
X364386Y129655D01*
X364497Y129588D01*
X364553Y129544D01*
X364575Y129533D01*
X364730Y129377D01*
X364853Y129210D01*
X364953Y129033D01*
X365019Y128855D01*
X365064Y128688D01*
X365097Y128566D01*
X365108Y128511D01*
X365119Y128477D01*
Y128455D01*
Y128444D01*
X366097Y128522D01*
X366075Y128766D01*
X366019Y128988D01*
X365964Y129199D01*
X365886Y129377D01*
X365819Y129522D01*
X365764Y129633D01*
X365741Y129666D01*
X365719Y129699D01*
X365708Y129710D01*
Y129722D01*
X365564Y129910D01*
X365408Y130077D01*
X365242Y130221D01*
X365075Y130333D01*
X364930Y130433D01*
X364819Y130488D01*
X364775Y130510D01*
X364741Y130533D01*
X364719Y130544D01*
X364708D01*
X364464Y130633D01*
X364197Y130699D01*
X363953Y130755D01*
X363719Y130788D01*
X363508Y130810D01*
X363431D01*
X363353Y130821D01*
D02*
G37*
G36*
X411415Y128699D02*
X411292D01*
X411092Y128688D01*
X410915Y128666D01*
X410759Y128633D01*
X410626Y128588D01*
X410515Y128544D01*
X410426Y128511D01*
X410381Y128488D01*
X410359Y128477D01*
X410226Y128388D01*
X410092Y128288D01*
X409981Y128188D01*
X409881Y128077D01*
X409793Y127988D01*
X409737Y127911D01*
X409693Y127866D01*
X409682Y127844D01*
Y128577D01*
X408826D01*
Y120867D01*
X409770D01*
Y123578D01*
X409859Y123467D01*
X409959Y123367D01*
X410070Y123278D01*
X410159Y123211D01*
X410248Y123144D01*
X410315Y123100D01*
X410370Y123078D01*
X410381Y123067D01*
X410526Y123000D01*
X410670Y122956D01*
X410815Y122922D01*
X410948Y122900D01*
X411059Y122889D01*
X411148Y122878D01*
X411226D01*
X411459Y122889D01*
X411692Y122933D01*
X411892Y122989D01*
X412081Y123056D01*
X412237Y123122D01*
X412348Y123178D01*
X412392Y123200D01*
X412426Y123222D01*
X412437Y123233D01*
X412448D01*
X412659Y123389D01*
X412837Y123556D01*
X412992Y123722D01*
X413115Y123889D01*
X413214Y124044D01*
X413292Y124167D01*
X413314Y124211D01*
X413337Y124244D01*
X413348Y124267D01*
Y124278D01*
X413448Y124544D01*
X413525Y124811D01*
X413581Y125066D01*
X413625Y125311D01*
X413648Y125511D01*
Y125600D01*
X413659Y125678D01*
Y125822D01*
X413648Y126111D01*
X413614Y126389D01*
X413570Y126633D01*
X413514Y126855D01*
X413459Y127033D01*
X413437Y127111D01*
X413414Y127177D01*
X413392Y127222D01*
X413381Y127255D01*
X413370Y127277D01*
Y127288D01*
X413259Y127522D01*
X413126Y127733D01*
X412992Y127911D01*
X412859Y128055D01*
X412737Y128166D01*
X412637Y128255D01*
X412570Y128299D01*
X412559Y128322D01*
X412548D01*
X412337Y128444D01*
X412126Y128544D01*
X411915Y128611D01*
X411715Y128655D01*
X411548Y128677D01*
X411470Y128688D01*
X411415Y128699D01*
D02*
G37*
G36*
X416925D02*
X416847D01*
X416725Y128688D01*
X416614Y128666D01*
X416503Y128633D01*
X416414Y128599D01*
X416348Y128566D01*
X416281Y128533D01*
X416248Y128511D01*
X416236Y128499D01*
X416136Y128411D01*
X416036Y128299D01*
X415936Y128166D01*
X415847Y128044D01*
X415759Y127922D01*
X415703Y127822D01*
X415659Y127744D01*
X415648Y127733D01*
Y128577D01*
X414792D01*
Y123000D01*
X415736D01*
Y125911D01*
X415747Y126133D01*
X415759Y126333D01*
X415781Y126522D01*
X415814Y126689D01*
X415847Y126822D01*
X415870Y126922D01*
X415881Y126988D01*
X415892Y127011D01*
X415936Y127133D01*
X415992Y127233D01*
X416047Y127322D01*
X416103Y127400D01*
X416159Y127455D01*
X416192Y127499D01*
X416225Y127522D01*
X416236Y127533D01*
X416325Y127600D01*
X416425Y127644D01*
X416525Y127677D01*
X416603Y127699D01*
X416681Y127711D01*
X416736Y127722D01*
X416792D01*
X416914Y127711D01*
X417036Y127688D01*
X417159Y127655D01*
X417259Y127622D01*
X417347Y127588D01*
X417414Y127555D01*
X417458Y127533D01*
X417470Y127522D01*
X417814Y128388D01*
X417625Y128488D01*
X417447Y128566D01*
X417292Y128622D01*
X417147Y128666D01*
X417025Y128688D01*
X416925Y128699D01*
D02*
G37*
G36*
X387062D02*
X386984D01*
X386861Y128688D01*
X386750Y128666D01*
X386639Y128633D01*
X386550Y128599D01*
X386484Y128566D01*
X386417Y128533D01*
X386384Y128511D01*
X386373Y128499D01*
X386273Y128411D01*
X386173Y128299D01*
X386073Y128166D01*
X385984Y128044D01*
X385895Y127922D01*
X385839Y127822D01*
X385795Y127744D01*
X385784Y127733D01*
Y128577D01*
X384928D01*
Y123000D01*
X385873D01*
Y125911D01*
X385884Y126133D01*
X385895Y126333D01*
X385917Y126522D01*
X385950Y126689D01*
X385984Y126822D01*
X386006Y126922D01*
X386017Y126988D01*
X386028Y127011D01*
X386073Y127133D01*
X386128Y127233D01*
X386184Y127322D01*
X386239Y127400D01*
X386295Y127455D01*
X386328Y127499D01*
X386362Y127522D01*
X386373Y127533D01*
X386462Y127600D01*
X386562Y127644D01*
X386662Y127677D01*
X386739Y127699D01*
X386817Y127711D01*
X386873Y127722D01*
X386928D01*
X387050Y127711D01*
X387173Y127688D01*
X387295Y127655D01*
X387395Y127622D01*
X387484Y127588D01*
X387550Y127555D01*
X387595Y127533D01*
X387606Y127522D01*
X387950Y128388D01*
X387761Y128488D01*
X387584Y128566D01*
X387428Y128622D01*
X387284Y128666D01*
X387161Y128688D01*
X387062Y128699D01*
D02*
G37*
G36*
X354409D02*
X354331D01*
X354132Y128688D01*
X353954Y128655D01*
X353776Y128611D01*
X353609Y128544D01*
X353454Y128466D01*
X353309Y128388D01*
X353187Y128299D01*
X353065Y128211D01*
X352954Y128111D01*
X352865Y128022D01*
X352787Y127944D01*
X352720Y127866D01*
X352665Y127799D01*
X352632Y127755D01*
X352609Y127722D01*
X352598Y127711D01*
X352532Y127877D01*
X352443Y128022D01*
X352343Y128144D01*
X352254Y128244D01*
X352165Y128333D01*
X352098Y128388D01*
X352054Y128422D01*
X352032Y128433D01*
X351876Y128522D01*
X351710Y128588D01*
X351543Y128633D01*
X351376Y128666D01*
X351243Y128688D01*
X351121Y128699D01*
X351021D01*
X350821Y128688D01*
X350632Y128655D01*
X350465Y128622D01*
X350321Y128577D01*
X350199Y128522D01*
X350110Y128488D01*
X350054Y128455D01*
X350032Y128444D01*
X349876Y128344D01*
X349743Y128233D01*
X349621Y128122D01*
X349521Y128011D01*
X349443Y127922D01*
X349376Y127844D01*
X349343Y127799D01*
X349332Y127777D01*
Y128577D01*
X348488D01*
Y123000D01*
X349432D01*
Y125889D01*
X349443Y126155D01*
X349454Y126389D01*
X349476Y126588D01*
X349510Y126755D01*
X349543Y126877D01*
X349565Y126966D01*
X349576Y127022D01*
X349587Y127044D01*
X349654Y127189D01*
X349732Y127311D01*
X349810Y127422D01*
X349887Y127511D01*
X349965Y127577D01*
X350021Y127622D01*
X350065Y127655D01*
X350076Y127666D01*
X350210Y127733D01*
X350332Y127788D01*
X350465Y127822D01*
X350576Y127855D01*
X350665Y127866D01*
X350743Y127877D01*
X350810D01*
X350998Y127866D01*
X351154Y127833D01*
X351287Y127777D01*
X351387Y127722D01*
X351465Y127655D01*
X351521Y127611D01*
X351554Y127566D01*
X351565Y127555D01*
X351643Y127422D01*
X351698Y127277D01*
X351743Y127122D01*
X351765Y126966D01*
X351787Y126833D01*
X351798Y126711D01*
Y126666D01*
Y126644D01*
Y126622D01*
Y126611D01*
Y123000D01*
X352743D01*
Y126233D01*
X352765Y126533D01*
X352809Y126788D01*
X352865Y127000D01*
X352943Y127177D01*
X353009Y127311D01*
X353076Y127400D01*
X353120Y127455D01*
X353132Y127477D01*
X353287Y127611D01*
X353454Y127711D01*
X353620Y127777D01*
X353776Y127833D01*
X353909Y127855D01*
X354020Y127866D01*
X354065Y127877D01*
X354120D01*
X354243Y127866D01*
X354343Y127855D01*
X354443Y127833D01*
X354520Y127799D01*
X354598Y127766D01*
X354643Y127744D01*
X354676Y127733D01*
X354687Y127722D01*
X354776Y127655D01*
X354842Y127588D01*
X354898Y127522D01*
X354942Y127455D01*
X354976Y127400D01*
X354998Y127355D01*
X355020Y127322D01*
Y127311D01*
X355054Y127211D01*
X355076Y127077D01*
X355087Y126944D01*
X355098Y126811D01*
X355109Y126689D01*
Y126588D01*
Y126522D01*
Y126511D01*
Y126500D01*
Y123000D01*
X356053D01*
Y127000D01*
X356031Y127155D01*
X356009Y127311D01*
X355987Y127444D01*
X355954Y127577D01*
X355909Y127688D01*
X355876Y127788D01*
X355831Y127888D01*
X355787Y127966D01*
X355753Y128044D01*
X355676Y128144D01*
X355631Y128211D01*
X355609Y128233D01*
X355431Y128388D01*
X355220Y128499D01*
X355009Y128588D01*
X354809Y128644D01*
X354620Y128677D01*
X354542Y128688D01*
X354465D01*
X354409Y128699D01*
D02*
G37*
G36*
X395227D02*
X394961D01*
X394805Y128677D01*
X394672Y128666D01*
X394550Y128644D01*
X394450Y128622D01*
X394372Y128599D01*
X394327Y128588D01*
X394305Y128577D01*
X394172Y128533D01*
X394050Y128488D01*
X393950Y128444D01*
X393861Y128400D01*
X393794Y128366D01*
X393750Y128333D01*
X393716Y128322D01*
X393705Y128311D01*
X393594Y128233D01*
X393505Y128144D01*
X393427Y128044D01*
X393361Y127966D01*
X393305Y127888D01*
X393272Y127833D01*
X393250Y127788D01*
X393239Y127777D01*
X393183Y127655D01*
X393139Y127544D01*
X393116Y127422D01*
X393094Y127322D01*
X393083Y127222D01*
X393072Y127155D01*
Y127111D01*
Y127088D01*
X393083Y126933D01*
X393105Y126800D01*
X393139Y126666D01*
X393172Y126555D01*
X393205Y126466D01*
X393239Y126389D01*
X393261Y126344D01*
X393272Y126333D01*
X393361Y126211D01*
X393461Y126111D01*
X393561Y126022D01*
X393661Y125944D01*
X393750Y125889D01*
X393816Y125844D01*
X393861Y125822D01*
X393883Y125811D01*
X393961Y125777D01*
X394061Y125733D01*
X394283Y125655D01*
X394516Y125589D01*
X394761Y125511D01*
X394972Y125455D01*
X395072Y125422D01*
X395161Y125400D01*
X395227Y125378D01*
X395283Y125366D01*
X395316Y125355D01*
X395327D01*
X395472Y125322D01*
X395594Y125289D01*
X395705Y125255D01*
X395805Y125222D01*
X395894Y125200D01*
X395972Y125166D01*
X396105Y125122D01*
X396194Y125089D01*
X396250Y125055D01*
X396283Y125044D01*
X396294Y125033D01*
X396394Y124967D01*
X396461Y124878D01*
X396516Y124800D01*
X396549Y124722D01*
X396572Y124644D01*
X396583Y124589D01*
Y124544D01*
Y124533D01*
X396572Y124400D01*
X396538Y124289D01*
X396483Y124178D01*
X396427Y124089D01*
X396361Y124011D01*
X396316Y123956D01*
X396272Y123922D01*
X396261Y123911D01*
X396127Y123822D01*
X395983Y123767D01*
X395816Y123722D01*
X395661Y123689D01*
X395516Y123667D01*
X395405Y123655D01*
X395294D01*
X395061Y123667D01*
X394861Y123700D01*
X394694Y123744D01*
X394550Y123800D01*
X394439Y123855D01*
X394350Y123900D01*
X394305Y123933D01*
X394283Y123944D01*
X394161Y124067D01*
X394061Y124211D01*
X393994Y124355D01*
X393939Y124489D01*
X393894Y124611D01*
X393872Y124722D01*
X393850Y124789D01*
Y124800D01*
Y124811D01*
X392916Y124667D01*
X392994Y124355D01*
X393094Y124078D01*
X393216Y123855D01*
X393339Y123667D01*
X393450Y123511D01*
X393550Y123411D01*
X393616Y123344D01*
X393628Y123333D01*
X393639Y123322D01*
X393750Y123244D01*
X393872Y123178D01*
X394139Y123067D01*
X394416Y122989D01*
X394683Y122933D01*
X394805Y122911D01*
X394916Y122900D01*
X395027Y122889D01*
X395116D01*
X395194Y122878D01*
X395294D01*
X395538Y122889D01*
X395749Y122911D01*
X395950Y122944D01*
X396127Y122989D01*
X396272Y123033D01*
X396383Y123067D01*
X396449Y123089D01*
X396461Y123100D01*
X396472D01*
X396661Y123200D01*
X396816Y123300D01*
X396949Y123411D01*
X397072Y123511D01*
X397161Y123600D01*
X397216Y123678D01*
X397260Y123722D01*
X397272Y123744D01*
X397360Y123900D01*
X397427Y124067D01*
X397483Y124211D01*
X397516Y124344D01*
X397538Y124467D01*
X397549Y124555D01*
Y124633D01*
X397538Y124811D01*
X397516Y124967D01*
X397472Y125100D01*
X397438Y125222D01*
X397394Y125322D01*
X397349Y125389D01*
X397327Y125433D01*
X397316Y125444D01*
X397227Y125555D01*
X397127Y125655D01*
X397027Y125744D01*
X396927Y125811D01*
X396827Y125866D01*
X396761Y125900D01*
X396716Y125922D01*
X396694Y125933D01*
X396616Y125966D01*
X396527Y126000D01*
X396316Y126077D01*
X396083Y126155D01*
X395849Y126222D01*
X395638Y126289D01*
X395538Y126311D01*
X395461Y126333D01*
X395394Y126355D01*
X395339Y126366D01*
X395305Y126377D01*
X395294D01*
X395172Y126411D01*
X395061Y126444D01*
X394961Y126466D01*
X394872Y126500D01*
X394727Y126533D01*
X394616Y126566D01*
X394538Y126600D01*
X394494Y126611D01*
X394472Y126622D01*
X394461D01*
X394372Y126666D01*
X394294Y126700D01*
X394228Y126744D01*
X394183Y126777D01*
X394139Y126811D01*
X394116Y126844D01*
X394105Y126855D01*
X394094Y126866D01*
X394027Y126977D01*
X393994Y127088D01*
Y127133D01*
X393983Y127166D01*
Y127189D01*
Y127200D01*
X393994Y127300D01*
X394027Y127400D01*
X394072Y127488D01*
X394127Y127555D01*
X394172Y127622D01*
X394216Y127666D01*
X394250Y127688D01*
X394261Y127699D01*
X394383Y127777D01*
X394527Y127833D01*
X394683Y127866D01*
X394827Y127900D01*
X394972Y127911D01*
X395083Y127922D01*
X395194D01*
X395383Y127911D01*
X395561Y127888D01*
X395705Y127844D01*
X395816Y127799D01*
X395916Y127755D01*
X395983Y127711D01*
X396027Y127688D01*
X396038Y127677D01*
X396149Y127577D01*
X396227Y127466D01*
X396294Y127355D01*
X396350Y127255D01*
X396383Y127155D01*
X396405Y127077D01*
X396416Y127033D01*
Y127011D01*
X397338Y127133D01*
X397294Y127322D01*
X397249Y127488D01*
X397194Y127633D01*
X397138Y127766D01*
X397083Y127855D01*
X397038Y127933D01*
X397016Y127977D01*
X397005Y127988D01*
X396905Y128100D01*
X396794Y128200D01*
X396672Y128288D01*
X396549Y128366D01*
X396438Y128422D01*
X396350Y128466D01*
X396294Y128488D01*
X396283Y128499D01*
X396272D01*
X396083Y128566D01*
X395883Y128611D01*
X395694Y128655D01*
X395516Y128677D01*
X395350Y128688D01*
X395227Y128699D01*
D02*
G37*
G36*
X369952D02*
X369863D01*
X369597Y128688D01*
X369352Y128644D01*
X369119Y128588D01*
X368930Y128533D01*
X368763Y128466D01*
X368697Y128433D01*
X368641Y128411D01*
X368597Y128388D01*
X368563Y128366D01*
X368541Y128355D01*
X368530D01*
X368319Y128222D01*
X368130Y128055D01*
X367974Y127888D01*
X367841Y127722D01*
X367741Y127577D01*
X367675Y127455D01*
X367652Y127411D01*
X367630Y127377D01*
X367619Y127355D01*
Y127344D01*
X367519Y127077D01*
X367452Y126811D01*
X367397Y126544D01*
X367364Y126300D01*
X367352Y126189D01*
X367341Y126089D01*
Y126000D01*
X367330Y125922D01*
Y125766D01*
X367341Y125511D01*
X367364Y125277D01*
X367397Y125044D01*
X367441Y124844D01*
X367486Y124644D01*
X367552Y124478D01*
X367608Y124311D01*
X367675Y124167D01*
X367741Y124044D01*
X367797Y123933D01*
X367863Y123833D01*
X367908Y123756D01*
X367952Y123700D01*
X367986Y123655D01*
X368008Y123633D01*
X368019Y123622D01*
X368152Y123489D01*
X368297Y123378D01*
X368441Y123278D01*
X368597Y123189D01*
X368752Y123122D01*
X368897Y123056D01*
X369197Y122967D01*
X369330Y122944D01*
X369452Y122922D01*
X369563Y122900D01*
X369663Y122889D01*
X369741Y122878D01*
X369852D01*
X370019Y122889D01*
X370185Y122900D01*
X370474Y122967D01*
X370741Y123044D01*
X370963Y123144D01*
X371052Y123200D01*
X371141Y123244D01*
X371219Y123289D01*
X371274Y123333D01*
X371319Y123367D01*
X371352Y123389D01*
X371374Y123400D01*
X371385Y123411D01*
X371496Y123522D01*
X371596Y123633D01*
X371774Y123878D01*
X371919Y124133D01*
X372019Y124366D01*
X372096Y124589D01*
X372119Y124678D01*
X372141Y124767D01*
X372152Y124833D01*
X372163Y124878D01*
X372174Y124911D01*
Y124922D01*
X371241Y125044D01*
X371196Y124800D01*
X371130Y124578D01*
X371041Y124400D01*
X370963Y124255D01*
X370885Y124133D01*
X370819Y124055D01*
X370785Y124000D01*
X370763Y123989D01*
X370619Y123878D01*
X370463Y123800D01*
X370308Y123733D01*
X370163Y123700D01*
X370041Y123678D01*
X369930Y123667D01*
X369863Y123655D01*
X369841D01*
X369719Y123667D01*
X369597Y123678D01*
X369374Y123733D01*
X369185Y123811D01*
X369019Y123911D01*
X368897Y124000D01*
X368797Y124078D01*
X368741Y124133D01*
X368719Y124155D01*
X368641Y124255D01*
X368575Y124378D01*
X368475Y124622D01*
X368397Y124900D01*
X368352Y125166D01*
X368319Y125411D01*
X368308Y125511D01*
Y125611D01*
X368297Y125678D01*
Y125744D01*
Y125777D01*
Y125789D01*
Y125989D01*
X368319Y126178D01*
X368341Y126355D01*
X368363Y126511D01*
X368397Y126655D01*
X368441Y126788D01*
X368475Y126911D01*
X368519Y127022D01*
X368563Y127111D01*
X368597Y127189D01*
X368641Y127255D01*
X368674Y127311D01*
X368697Y127355D01*
X368719Y127388D01*
X368741Y127400D01*
Y127411D01*
X368830Y127499D01*
X368919Y127577D01*
X369108Y127711D01*
X369308Y127799D01*
X369485Y127855D01*
X369652Y127900D01*
X369774Y127911D01*
X369830Y127922D01*
X369897D01*
X370063Y127911D01*
X370219Y127877D01*
X370352Y127833D01*
X370474Y127777D01*
X370563Y127722D01*
X370641Y127677D01*
X370685Y127644D01*
X370696Y127633D01*
X370808Y127522D01*
X370908Y127388D01*
X370996Y127244D01*
X371052Y127111D01*
X371108Y126988D01*
X371141Y126889D01*
X371152Y126822D01*
X371163Y126811D01*
Y126800D01*
X372085Y126944D01*
X372007Y127244D01*
X371896Y127499D01*
X371774Y127722D01*
X371652Y127900D01*
X371530Y128044D01*
X371430Y128144D01*
X371363Y128211D01*
X371352Y128233D01*
X371341D01*
X371108Y128388D01*
X370863Y128499D01*
X370619Y128588D01*
X370385Y128644D01*
X370174Y128677D01*
X370085Y128688D01*
X370019D01*
X369952Y128699D01*
D02*
G37*
G36*
X446300Y130721D02*
X446222D01*
X446033Y130710D01*
X445856Y130688D01*
X445678Y130655D01*
X445522Y130610D01*
X445222Y130488D01*
X445089Y130433D01*
X444978Y130366D01*
X444867Y130288D01*
X444778Y130233D01*
X444689Y130166D01*
X444622Y130110D01*
X444567Y130066D01*
X444533Y130033D01*
X444511Y130010D01*
X444500Y129999D01*
X444378Y129866D01*
X444278Y129710D01*
X444178Y129566D01*
X444100Y129411D01*
X444034Y129244D01*
X443978Y129088D01*
X443900Y128799D01*
X443867Y128655D01*
X443845Y128533D01*
X443834Y128411D01*
X443822Y128311D01*
X443811Y128233D01*
Y128122D01*
X443822Y127911D01*
X443845Y127722D01*
X443867Y127533D01*
X443911Y127355D01*
X443967Y127200D01*
X444023Y127044D01*
X444078Y126911D01*
X444145Y126788D01*
X444200Y126677D01*
X444256Y126577D01*
X444311Y126500D01*
X444367Y126422D01*
X444411Y126366D01*
X444434Y126333D01*
X444456Y126311D01*
X444467Y126300D01*
X444589Y126178D01*
X444722Y126077D01*
X444856Y125978D01*
X445000Y125900D01*
X445133Y125833D01*
X445267Y125777D01*
X445522Y125700D01*
X445633Y125666D01*
X445745Y125644D01*
X445833Y125633D01*
X445922Y125622D01*
X445989Y125611D01*
X446078D01*
X446289Y125622D01*
X446489Y125655D01*
X446667Y125700D01*
X446833Y125755D01*
X446955Y125800D01*
X447055Y125844D01*
X447122Y125877D01*
X447144Y125889D01*
X447322Y126000D01*
X447478Y126122D01*
X447611Y126244D01*
X447722Y126355D01*
X447800Y126466D01*
X447866Y126544D01*
X447911Y126600D01*
X447922Y126622D01*
Y126533D01*
Y126477D01*
Y126444D01*
Y126433D01*
X447911Y126211D01*
X447900Y126000D01*
X447878Y125811D01*
X447855Y125633D01*
X447822Y125489D01*
X447800Y125378D01*
X447789Y125333D01*
Y125300D01*
X447778Y125289D01*
Y125277D01*
X447722Y125078D01*
X447667Y124900D01*
X447611Y124744D01*
X447555Y124611D01*
X447511Y124511D01*
X447467Y124433D01*
X447444Y124378D01*
X447433Y124366D01*
X447344Y124244D01*
X447256Y124144D01*
X447167Y124055D01*
X447078Y123978D01*
X447011Y123911D01*
X446944Y123867D01*
X446900Y123844D01*
X446889Y123833D01*
X446767Y123767D01*
X446633Y123722D01*
X446511Y123689D01*
X446389Y123667D01*
X446289Y123655D01*
X446211Y123644D01*
X446133D01*
X445956Y123655D01*
X445789Y123689D01*
X445645Y123733D01*
X445522Y123789D01*
X445433Y123833D01*
X445356Y123878D01*
X445311Y123911D01*
X445300Y123922D01*
X445189Y124044D01*
X445100Y124189D01*
X445022Y124344D01*
X444967Y124500D01*
X444922Y124633D01*
X444889Y124755D01*
X444878Y124800D01*
Y124822D01*
X444867Y124844D01*
Y124855D01*
X443956Y124778D01*
X444023Y124455D01*
X444111Y124178D01*
X444222Y123933D01*
X444334Y123733D01*
X444445Y123578D01*
X444500Y123511D01*
X444545Y123456D01*
X444578Y123422D01*
X444611Y123389D01*
X444622Y123378D01*
X444633Y123367D01*
X444745Y123278D01*
X444867Y123200D01*
X445111Y123078D01*
X445356Y122989D01*
X445589Y122933D01*
X445800Y122889D01*
X445889Y122878D01*
X445967D01*
X446022Y122867D01*
X446111D01*
X446422Y122889D01*
X446700Y122933D01*
X446955Y123011D01*
X447167Y123100D01*
X447256Y123133D01*
X447344Y123178D01*
X447411Y123222D01*
X447478Y123256D01*
X447522Y123278D01*
X447555Y123300D01*
X447578Y123322D01*
X447589D01*
X447811Y123511D01*
X448011Y123722D01*
X448167Y123944D01*
X448300Y124155D01*
X448411Y124344D01*
X448455Y124433D01*
X448489Y124500D01*
X448511Y124566D01*
X448533Y124611D01*
X448544Y124633D01*
Y124644D01*
X448600Y124811D01*
X448655Y125000D01*
X448733Y125378D01*
X448789Y125777D01*
X448822Y126155D01*
X448844Y126322D01*
X448855Y126488D01*
Y126633D01*
X448866Y126755D01*
Y127255D01*
X448855Y127499D01*
X448833Y127722D01*
X448811Y127933D01*
X448789Y128122D01*
X448766Y128299D01*
X448733Y128466D01*
X448700Y128611D01*
X448666Y128733D01*
X448644Y128844D01*
X448611Y128944D01*
X448589Y129022D01*
X448566Y129077D01*
X448544Y129122D01*
X448533Y129144D01*
Y129155D01*
X448400Y129422D01*
X448255Y129655D01*
X448089Y129855D01*
X447944Y130022D01*
X447800Y130144D01*
X447689Y130233D01*
X447644Y130266D01*
X447611Y130288D01*
X447600Y130310D01*
X447589D01*
X447356Y130444D01*
X447122Y130544D01*
X446889Y130622D01*
X446678Y130666D01*
X446489Y130699D01*
X446411Y130710D01*
X446356D01*
X446300Y130721D01*
D02*
G37*
G36*
X441389D02*
X440778D01*
X440667Y130533D01*
X440545Y130355D01*
X440401Y130177D01*
X440267Y130022D01*
X440134Y129888D01*
X440034Y129777D01*
X439990Y129744D01*
X439956Y129710D01*
X439945Y129699D01*
X439934Y129688D01*
X439701Y129499D01*
X439467Y129322D01*
X439245Y129166D01*
X439023Y129044D01*
X438834Y128933D01*
X438756Y128888D01*
X438690Y128855D01*
X438634Y128822D01*
X438590Y128811D01*
X438567Y128788D01*
X438556D01*
Y127877D01*
X438723Y127944D01*
X438890Y128022D01*
X439056Y128100D01*
X439212Y128177D01*
X439345Y128244D01*
X439456Y128299D01*
X439523Y128344D01*
X439534Y128355D01*
X439545D01*
X439745Y128477D01*
X439923Y128599D01*
X440078Y128710D01*
X440201Y128811D01*
X440312Y128888D01*
X440378Y128955D01*
X440434Y128999D01*
X440445Y129010D01*
Y123000D01*
X441389D01*
Y130721D01*
D02*
G37*
G36*
X428535D02*
X428424D01*
X428224Y130710D01*
X428035Y130699D01*
X427857Y130666D01*
X427691Y130633D01*
X427535Y130588D01*
X427391Y130544D01*
X427257Y130488D01*
X427135Y130433D01*
X427024Y130377D01*
X426935Y130322D01*
X426858Y130277D01*
X426791Y130233D01*
X426735Y130199D01*
X426702Y130166D01*
X426680Y130155D01*
X426669Y130144D01*
X426558Y130033D01*
X426458Y129910D01*
X426358Y129777D01*
X426280Y129644D01*
X426147Y129377D01*
X426058Y129111D01*
X426024Y128988D01*
X425991Y128866D01*
X425969Y128766D01*
X425947Y128677D01*
X425935Y128599D01*
Y128544D01*
X425924Y128511D01*
Y128499D01*
X426891Y128400D01*
X426913Y128655D01*
X426958Y128877D01*
X427024Y129077D01*
X427102Y129233D01*
X427169Y129366D01*
X427235Y129455D01*
X427280Y129510D01*
X427302Y129533D01*
X427469Y129666D01*
X427646Y129766D01*
X427835Y129844D01*
X428002Y129888D01*
X428157Y129921D01*
X428291Y129933D01*
X428335Y129944D01*
X428402D01*
X428635Y129933D01*
X428846Y129888D01*
X429024Y129822D01*
X429179Y129755D01*
X429302Y129677D01*
X429380Y129622D01*
X429435Y129577D01*
X429457Y129555D01*
X429591Y129399D01*
X429691Y129244D01*
X429768Y129088D01*
X429813Y128933D01*
X429846Y128811D01*
X429857Y128699D01*
X429868Y128633D01*
Y128622D01*
Y128611D01*
X429846Y128411D01*
X429802Y128200D01*
X429724Y128011D01*
X429646Y127833D01*
X429557Y127688D01*
X429480Y127566D01*
X429457Y127522D01*
X429435Y127488D01*
X429413Y127477D01*
Y127466D01*
X429324Y127344D01*
X429213Y127222D01*
X429091Y127088D01*
X428957Y126955D01*
X428680Y126689D01*
X428402Y126422D01*
X428257Y126300D01*
X428135Y126189D01*
X428013Y126089D01*
X427913Y126000D01*
X427835Y125933D01*
X427769Y125877D01*
X427724Y125844D01*
X427713Y125833D01*
X427435Y125600D01*
X427180Y125378D01*
X426969Y125178D01*
X426802Y125011D01*
X426657Y124866D01*
X426558Y124767D01*
X426502Y124700D01*
X426480Y124689D01*
Y124678D01*
X426324Y124489D01*
X426202Y124311D01*
X426091Y124133D01*
X426002Y123978D01*
X425935Y123844D01*
X425891Y123744D01*
X425869Y123678D01*
X425858Y123667D01*
Y123655D01*
X425813Y123533D01*
X425791Y123422D01*
X425769Y123311D01*
X425758Y123211D01*
X425746Y123122D01*
Y123000D01*
X430846D01*
Y123911D01*
X427058D01*
X427191Y124100D01*
X427257Y124178D01*
X427313Y124255D01*
X427369Y124322D01*
X427413Y124366D01*
X427446Y124400D01*
X427458Y124411D01*
X427513Y124467D01*
X427580Y124522D01*
X427735Y124667D01*
X427913Y124833D01*
X428102Y125000D01*
X428280Y125144D01*
X428357Y125211D01*
X428424Y125277D01*
X428480Y125322D01*
X428524Y125355D01*
X428546Y125378D01*
X428557Y125389D01*
X428735Y125544D01*
X428913Y125689D01*
X429068Y125833D01*
X429213Y125955D01*
X429346Y126077D01*
X429457Y126189D01*
X429568Y126289D01*
X429657Y126377D01*
X429746Y126466D01*
X429813Y126533D01*
X429868Y126588D01*
X429924Y126644D01*
X429979Y126711D01*
X430002Y126733D01*
X430157Y126922D01*
X430291Y127088D01*
X430402Y127255D01*
X430490Y127388D01*
X430557Y127511D01*
X430602Y127600D01*
X430624Y127655D01*
X430635Y127677D01*
X430702Y127844D01*
X430746Y128011D01*
X430791Y128166D01*
X430813Y128299D01*
X430824Y128422D01*
X430835Y128511D01*
Y128566D01*
Y128588D01*
X430824Y128755D01*
X430802Y128911D01*
X430779Y129066D01*
X430735Y129199D01*
X430624Y129466D01*
X430513Y129677D01*
X430446Y129777D01*
X430391Y129855D01*
X430335Y129933D01*
X430279Y129988D01*
X430235Y130033D01*
X430213Y130077D01*
X430191Y130088D01*
X430179Y130099D01*
X430057Y130210D01*
X429924Y130310D01*
X429779Y130388D01*
X429635Y130455D01*
X429346Y130566D01*
X429057Y130644D01*
X428935Y130666D01*
X428813Y130688D01*
X428702Y130699D01*
X428613Y130710D01*
X428535Y130721D01*
D02*
G37*
G36*
X421691Y130688D02*
X420747D01*
Y123000D01*
X421691D01*
Y130688D01*
D02*
G37*
G36*
X419325Y128577D02*
X418381D01*
Y123000D01*
X419325D01*
Y128577D01*
D02*
G37*
G36*
X404982Y130688D02*
X403871D01*
X400938Y123000D01*
X402016D01*
X402849Y125333D01*
X406071D01*
X406971Y123000D01*
X408126D01*
X404982Y130688D01*
D02*
G37*
G36*
X391850Y128577D02*
X390906D01*
Y123000D01*
X391850D01*
Y128577D01*
D02*
G37*
G36*
X389439Y130688D02*
X388495D01*
Y123000D01*
X389439D01*
Y130688D01*
D02*
G37*
G36*
X373930D02*
X372985D01*
Y123000D01*
X373930D01*
Y126044D01*
X373941Y126277D01*
X373952Y126477D01*
X373974Y126655D01*
X374007Y126800D01*
X374041Y126911D01*
X374063Y127000D01*
X374074Y127044D01*
X374085Y127066D01*
X374152Y127200D01*
X374230Y127322D01*
X374318Y127422D01*
X374407Y127511D01*
X374485Y127577D01*
X374552Y127622D01*
X374596Y127655D01*
X374607Y127666D01*
X374752Y127744D01*
X374885Y127799D01*
X375018Y127833D01*
X375129Y127866D01*
X375240Y127877D01*
X375318Y127888D01*
X375385D01*
X375585Y127877D01*
X375763Y127833D01*
X375907Y127788D01*
X376029Y127722D01*
X376129Y127666D01*
X376196Y127611D01*
X376240Y127566D01*
X376252Y127555D01*
X376351Y127422D01*
X376429Y127255D01*
X376485Y127088D01*
X376529Y126922D01*
X376552Y126766D01*
X376563Y126644D01*
Y126600D01*
Y126566D01*
Y126544D01*
Y126533D01*
Y123000D01*
X377507D01*
Y126522D01*
X377496Y126811D01*
X377474Y127066D01*
X377440Y127277D01*
X377407Y127455D01*
X377374Y127600D01*
X377340Y127699D01*
X377318Y127755D01*
X377307Y127777D01*
X377218Y127933D01*
X377118Y128066D01*
X377007Y128177D01*
X376907Y128277D01*
X376807Y128355D01*
X376729Y128411D01*
X376674Y128444D01*
X376651Y128455D01*
X376474Y128533D01*
X376296Y128599D01*
X376118Y128644D01*
X375952Y128666D01*
X375807Y128688D01*
X375685Y128699D01*
X375585D01*
X375407Y128688D01*
X375229Y128666D01*
X375063Y128633D01*
X374907Y128577D01*
X374618Y128455D01*
X374496Y128388D01*
X374385Y128322D01*
X374285Y128244D01*
X374185Y128177D01*
X374107Y128111D01*
X374052Y128055D01*
X373996Y127999D01*
X373963Y127966D01*
X373941Y127944D01*
X373930Y127933D01*
Y130688D01*
D02*
G37*
G36*
X341588D02*
X335500D01*
Y129777D01*
X338033D01*
Y123000D01*
X339055D01*
Y129777D01*
X341588D01*
Y130688D01*
D02*
G37*
G36*
X381351Y128699D02*
X381240D01*
X381029Y128688D01*
X380829Y128666D01*
X380640Y128633D01*
X380462Y128577D01*
X380295Y128522D01*
X380140Y128455D01*
X379996Y128388D01*
X379873Y128311D01*
X379751Y128244D01*
X379651Y128166D01*
X379562Y128100D01*
X379496Y128044D01*
X379440Y127988D01*
X379396Y127955D01*
X379373Y127933D01*
X379362Y127922D01*
X379240Y127766D01*
X379129Y127600D01*
X379029Y127433D01*
X378940Y127255D01*
X378873Y127066D01*
X378818Y126889D01*
X378729Y126533D01*
X378696Y126377D01*
X378674Y126222D01*
X378662Y126089D01*
X378651Y125966D01*
X378640Y125866D01*
Y125733D01*
X378651Y125489D01*
X378674Y125255D01*
X378707Y125033D01*
X378751Y124833D01*
X378807Y124644D01*
X378862Y124467D01*
X378929Y124311D01*
X378996Y124167D01*
X379062Y124044D01*
X379129Y123933D01*
X379185Y123844D01*
X379240Y123767D01*
X379285Y123700D01*
X379318Y123655D01*
X379340Y123633D01*
X379351Y123622D01*
X379496Y123489D01*
X379640Y123378D01*
X379796Y123278D01*
X379962Y123189D01*
X380118Y123122D01*
X380284Y123056D01*
X380595Y122967D01*
X380740Y122944D01*
X380873Y122922D01*
X380995Y122900D01*
X381095Y122889D01*
X381173Y122878D01*
X381295D01*
X381640Y122900D01*
X381951Y122956D01*
X382229Y123022D01*
X382340Y123067D01*
X382451Y123111D01*
X382551Y123155D01*
X382640Y123200D01*
X382706Y123233D01*
X382773Y123267D01*
X382818Y123300D01*
X382851Y123322D01*
X382873Y123344D01*
X382884D01*
X383106Y123544D01*
X383284Y123756D01*
X383440Y123978D01*
X383551Y124189D01*
X383640Y124378D01*
X383673Y124467D01*
X383706Y124533D01*
X383729Y124600D01*
X383740Y124644D01*
X383751Y124667D01*
Y124678D01*
X382773Y124800D01*
X382684Y124589D01*
X382584Y124411D01*
X382484Y124255D01*
X382395Y124133D01*
X382317Y124044D01*
X382251Y123978D01*
X382195Y123933D01*
X382184Y123922D01*
X382040Y123833D01*
X381895Y123767D01*
X381740Y123722D01*
X381607Y123689D01*
X381484Y123667D01*
X381384Y123655D01*
X381295D01*
X381162Y123667D01*
X381040Y123678D01*
X380818Y123733D01*
X380618Y123811D01*
X380440Y123900D01*
X380307Y123978D01*
X380207Y124055D01*
X380140Y124111D01*
X380129Y124133D01*
X380118D01*
X379962Y124333D01*
X379840Y124555D01*
X379751Y124800D01*
X379684Y125022D01*
X379651Y125222D01*
X379629Y125311D01*
X379618Y125389D01*
Y125455D01*
X379607Y125500D01*
Y125533D01*
Y125544D01*
X383773D01*
X383784Y125655D01*
Y125789D01*
X383773Y126044D01*
X383751Y126277D01*
X383717Y126500D01*
X383673Y126711D01*
X383617Y126900D01*
X383562Y127077D01*
X383495Y127233D01*
X383429Y127377D01*
X383362Y127511D01*
X383295Y127622D01*
X383240Y127711D01*
X383184Y127788D01*
X383140Y127855D01*
X383106Y127900D01*
X383084Y127922D01*
X383073Y127933D01*
X382940Y128066D01*
X382795Y128188D01*
X382640Y128288D01*
X382484Y128377D01*
X382329Y128455D01*
X382184Y128511D01*
X382029Y128566D01*
X381895Y128599D01*
X381751Y128633D01*
X381629Y128655D01*
X381518Y128677D01*
X381429Y128688D01*
X381351Y128699D01*
D02*
G37*
G36*
X344888D02*
X344777D01*
X344588Y128688D01*
X344410Y128677D01*
X344066Y128599D01*
X343766Y128499D01*
X343633Y128444D01*
X343510Y128388D01*
X343399Y128333D01*
X343310Y128277D01*
X343221Y128222D01*
X343155Y128177D01*
X343099Y128133D01*
X343055Y128100D01*
X343033Y128088D01*
X343021Y128077D01*
X342866Y127933D01*
X342744Y127766D01*
X342621Y127588D01*
X342533Y127411D01*
X342444Y127222D01*
X342377Y127022D01*
X342321Y126833D01*
X342277Y126655D01*
X342233Y126477D01*
X342210Y126322D01*
X342188Y126166D01*
X342177Y126044D01*
Y125933D01*
X342166Y125855D01*
Y125789D01*
X342177Y125533D01*
X342199Y125289D01*
X342233Y125066D01*
X342277Y124855D01*
X342333Y124667D01*
X342388Y124489D01*
X342455Y124322D01*
X342522Y124178D01*
X342588Y124044D01*
X342655Y123933D01*
X342710Y123844D01*
X342766Y123767D01*
X342810Y123700D01*
X342844Y123655D01*
X342866Y123633D01*
X342877Y123622D01*
X343021Y123489D01*
X343166Y123378D01*
X343321Y123278D01*
X343477Y123189D01*
X343633Y123122D01*
X343799Y123056D01*
X344099Y122967D01*
X344233Y122944D01*
X344366Y122922D01*
X344477Y122900D01*
X344577Y122889D01*
X344666Y122878D01*
X344777D01*
X345043Y122889D01*
X345288Y122933D01*
X345521Y122989D01*
X345710Y123044D01*
X345877Y123111D01*
X345943Y123133D01*
X345999Y123155D01*
X346055Y123178D01*
X346088Y123200D01*
X346099Y123211D01*
X346110D01*
X346332Y123355D01*
X346521Y123511D01*
X346688Y123667D01*
X346821Y123822D01*
X346921Y123956D01*
X346999Y124067D01*
X347021Y124111D01*
X347043Y124144D01*
X347054Y124155D01*
Y124167D01*
X347165Y124422D01*
X347243Y124700D01*
X347310Y124978D01*
X347343Y125255D01*
X347365Y125378D01*
Y125489D01*
X347377Y125600D01*
X347388Y125689D01*
Y125866D01*
X347377Y126111D01*
X347354Y126333D01*
X347321Y126544D01*
X347277Y126744D01*
X347221Y126933D01*
X347154Y127100D01*
X347088Y127266D01*
X347021Y127400D01*
X346954Y127522D01*
X346888Y127633D01*
X346821Y127733D01*
X346765Y127811D01*
X346721Y127866D01*
X346688Y127911D01*
X346666Y127933D01*
X346654Y127944D01*
X346510Y128077D01*
X346366Y128188D01*
X346210Y128299D01*
X346055Y128377D01*
X345899Y128455D01*
X345743Y128511D01*
X345443Y128611D01*
X345299Y128633D01*
X345177Y128655D01*
X345066Y128677D01*
X344966Y128688D01*
X344888Y128699D01*
D02*
G37*
G36*
X434468Y130721D02*
X434368D01*
X434068Y130699D01*
X433790Y130655D01*
X433557Y130577D01*
X433357Y130499D01*
X433190Y130410D01*
X433124Y130377D01*
X433068Y130333D01*
X433024Y130310D01*
X432990Y130288D01*
X432979Y130266D01*
X432968D01*
X432768Y130088D01*
X432601Y129877D01*
X432457Y129666D01*
X432346Y129466D01*
X432257Y129277D01*
X432213Y129199D01*
X432190Y129122D01*
X432168Y129066D01*
X432146Y129022D01*
X432135Y128999D01*
Y128988D01*
X432090Y128822D01*
X432046Y128655D01*
X431979Y128288D01*
X431924Y127922D01*
X431890Y127577D01*
X431879Y127411D01*
X431868Y127266D01*
Y127133D01*
X431857Y127011D01*
Y126788D01*
X431868Y126400D01*
X431890Y126033D01*
X431924Y125700D01*
X431979Y125389D01*
X432035Y125100D01*
X432101Y124844D01*
X432168Y124611D01*
X432235Y124411D01*
X432301Y124233D01*
X432379Y124078D01*
X432435Y123944D01*
X432490Y123844D01*
X432546Y123756D01*
X432579Y123700D01*
X432601Y123667D01*
X432613Y123655D01*
X432735Y123522D01*
X432868Y123400D01*
X433012Y123289D01*
X433157Y123200D01*
X433301Y123122D01*
X433446Y123056D01*
X433590Y123011D01*
X433723Y122967D01*
X433857Y122933D01*
X433979Y122911D01*
X434090Y122889D01*
X434179Y122878D01*
X434257Y122867D01*
X434368D01*
X434668Y122889D01*
X434946Y122933D01*
X435179Y123011D01*
X435379Y123089D01*
X435546Y123167D01*
X435601Y123211D01*
X435657Y123244D01*
X435701Y123267D01*
X435734Y123289D01*
X435745Y123311D01*
X435757D01*
X435957Y123500D01*
X436123Y123700D01*
X436268Y123922D01*
X436379Y124122D01*
X436468Y124311D01*
X436512Y124389D01*
X436534Y124467D01*
X436557Y124522D01*
X436579Y124566D01*
X436590Y124589D01*
Y124600D01*
X436645Y124767D01*
X436690Y124933D01*
X436757Y125289D01*
X436812Y125655D01*
X436845Y126011D01*
X436857Y126166D01*
X436868Y126311D01*
Y126444D01*
X436879Y126566D01*
Y127000D01*
X436868Y127200D01*
Y127377D01*
X436857Y127555D01*
X436834Y127711D01*
X436823Y127866D01*
X436812Y127999D01*
X436790Y128122D01*
X436779Y128233D01*
X436757Y128333D01*
X436745Y128411D01*
X436734Y128477D01*
X436723Y128533D01*
X436712Y128566D01*
X436701Y128588D01*
Y128599D01*
X436634Y128844D01*
X436557Y129066D01*
X436468Y129255D01*
X436401Y129422D01*
X436323Y129566D01*
X436279Y129666D01*
X436234Y129722D01*
X436223Y129744D01*
X436101Y129910D01*
X435979Y130055D01*
X435846Y130177D01*
X435723Y130288D01*
X435612Y130366D01*
X435523Y130421D01*
X435468Y130455D01*
X435457Y130466D01*
X435446D01*
X435268Y130555D01*
X435079Y130610D01*
X434901Y130655D01*
X434734Y130688D01*
X434590Y130710D01*
X434468Y130721D01*
D02*
G37*
%LPD*%
G36*
X411315Y127944D02*
X411426Y127933D01*
X411626Y127877D01*
X411803Y127788D01*
X411959Y127688D01*
X412081Y127588D01*
X412170Y127511D01*
X412226Y127444D01*
X412248Y127433D01*
Y127422D01*
X412326Y127322D01*
X412392Y127200D01*
X412503Y126944D01*
X412581Y126689D01*
X412637Y126433D01*
X412670Y126200D01*
X412681Y126100D01*
Y126011D01*
X412692Y125933D01*
Y125877D01*
Y125844D01*
Y125833D01*
Y125633D01*
X412670Y125444D01*
X412648Y125266D01*
X412626Y125100D01*
X412592Y124955D01*
X412548Y124822D01*
X412503Y124689D01*
X412470Y124589D01*
X412426Y124489D01*
X412381Y124411D01*
X412348Y124333D01*
X412303Y124278D01*
X412281Y124233D01*
X412259Y124200D01*
X412237Y124189D01*
Y124178D01*
X412148Y124089D01*
X412059Y124011D01*
X411881Y123878D01*
X411703Y123789D01*
X411537Y123722D01*
X411381Y123689D01*
X411270Y123667D01*
X411226Y123655D01*
X411159D01*
X411048Y123667D01*
X410937Y123678D01*
X410737Y123733D01*
X410559Y123822D01*
X410404Y123911D01*
X410281Y124000D01*
X410192Y124089D01*
X410137Y124144D01*
X410115Y124167D01*
X410037Y124267D01*
X409970Y124378D01*
X409859Y124633D01*
X409793Y124889D01*
X409737Y125155D01*
X409704Y125389D01*
X409693Y125489D01*
Y125577D01*
X409682Y125655D01*
Y125711D01*
Y125744D01*
Y125755D01*
Y125955D01*
X409704Y126133D01*
X409726Y126300D01*
X409748Y126466D01*
X409793Y126611D01*
X409826Y126744D01*
X409870Y126866D01*
X409915Y126977D01*
X409948Y127066D01*
X409993Y127155D01*
X410037Y127222D01*
X410070Y127288D01*
X410092Y127333D01*
X410115Y127366D01*
X410137Y127377D01*
Y127388D01*
X410226Y127488D01*
X410315Y127577D01*
X410404Y127655D01*
X410504Y127722D01*
X410681Y127822D01*
X410848Y127888D01*
X410992Y127922D01*
X411103Y127944D01*
X411148Y127955D01*
X411203D01*
X411315Y127944D01*
D02*
G37*
G36*
X446567Y129921D02*
X446767Y129866D01*
X446944Y129788D01*
X447100Y129710D01*
X447222Y129622D01*
X447311Y129544D01*
X447367Y129488D01*
X447389Y129477D01*
Y129466D01*
X447533Y129277D01*
X447644Y129066D01*
X447722Y128844D01*
X447767Y128633D01*
X447800Y128455D01*
X447811Y128377D01*
Y128299D01*
X447822Y128244D01*
Y128200D01*
Y128177D01*
Y128166D01*
X447800Y127877D01*
X447755Y127622D01*
X447689Y127411D01*
X447611Y127233D01*
X447522Y127088D01*
X447456Y126988D01*
X447411Y126922D01*
X447389Y126900D01*
X447222Y126744D01*
X447044Y126633D01*
X446867Y126555D01*
X446689Y126500D01*
X446544Y126466D01*
X446422Y126455D01*
X446378Y126444D01*
X446311D01*
X446078Y126466D01*
X445867Y126511D01*
X445678Y126588D01*
X445511Y126677D01*
X445389Y126755D01*
X445289Y126833D01*
X445233Y126877D01*
X445211Y126900D01*
X445067Y127077D01*
X444956Y127277D01*
X444889Y127477D01*
X444834Y127666D01*
X444800Y127833D01*
X444789Y127900D01*
Y127966D01*
X444778Y128022D01*
Y128055D01*
Y128077D01*
Y128088D01*
X444800Y128377D01*
X444845Y128644D01*
X444922Y128877D01*
X445011Y129066D01*
X445089Y129222D01*
X445167Y129333D01*
X445189Y129366D01*
X445211Y129399D01*
X445233Y129411D01*
Y129422D01*
X445322Y129510D01*
X445411Y129599D01*
X445600Y129722D01*
X445789Y129822D01*
X445967Y129877D01*
X446111Y129921D01*
X446233Y129933D01*
X446278Y129944D01*
X446456D01*
X446567Y129921D01*
D02*
G37*
G36*
X404482Y129633D02*
X404571Y129366D01*
X404660Y129099D01*
X404749Y128844D01*
X404793Y128733D01*
X404826Y128622D01*
X404860Y128522D01*
X404893Y128444D01*
X404915Y128377D01*
X404938Y128322D01*
X404949Y128288D01*
Y128277D01*
X405749Y126166D01*
X403149D01*
X403982Y128411D01*
X404082Y128688D01*
X404160Y128955D01*
X404238Y129199D01*
X404293Y129422D01*
X404338Y129610D01*
X404360Y129688D01*
X404371Y129766D01*
X404393Y129810D01*
Y129855D01*
X404404Y129877D01*
Y129888D01*
X404482Y129633D01*
D02*
G37*
G36*
X381384Y127911D02*
X381506Y127900D01*
X381740Y127833D01*
X381940Y127744D01*
X382106Y127644D01*
X382240Y127544D01*
X382340Y127455D01*
X382395Y127388D01*
X382417Y127377D01*
Y127366D01*
X382518Y127222D01*
X382606Y127055D01*
X382662Y126889D01*
X382717Y126711D01*
X382751Y126566D01*
X382773Y126433D01*
Y126389D01*
X382784Y126355D01*
Y126333D01*
Y126322D01*
X379662D01*
X379696Y126577D01*
X379762Y126811D01*
X379840Y127011D01*
X379929Y127166D01*
X380007Y127300D01*
X380084Y127400D01*
X380129Y127455D01*
X380151Y127477D01*
X380329Y127622D01*
X380507Y127733D01*
X380696Y127811D01*
X380873Y127866D01*
X381018Y127900D01*
X381140Y127911D01*
X381184Y127922D01*
X381251D01*
X381384Y127911D01*
D02*
G37*
G36*
X344910D02*
X345032Y127900D01*
X345255Y127844D01*
X345455Y127755D01*
X345621Y127655D01*
X345755Y127555D01*
X345854Y127477D01*
X345921Y127411D01*
X345943Y127400D01*
Y127388D01*
X346032Y127288D01*
X346099Y127166D01*
X346221Y126922D01*
X346310Y126655D01*
X346366Y126411D01*
X346399Y126178D01*
X346410Y126077D01*
Y125989D01*
X346421Y125922D01*
Y125866D01*
Y125833D01*
Y125822D01*
Y125622D01*
X346399Y125433D01*
X346377Y125266D01*
X346343Y125100D01*
X346310Y124955D01*
X346266Y124822D01*
X346232Y124700D01*
X346188Y124589D01*
X346143Y124500D01*
X346099Y124411D01*
X346055Y124344D01*
X346021Y124289D01*
X345988Y124244D01*
X345966Y124211D01*
X345954Y124200D01*
X345943Y124189D01*
X345854Y124100D01*
X345755Y124011D01*
X345566Y123878D01*
X345366Y123789D01*
X345188Y123722D01*
X345021Y123689D01*
X344899Y123667D01*
X344844Y123655D01*
X344777D01*
X344643Y123667D01*
X344521Y123678D01*
X344288Y123733D01*
X344088Y123822D01*
X343921Y123922D01*
X343788Y124011D01*
X343688Y124100D01*
X343621Y124155D01*
X343610Y124178D01*
X343599D01*
X343521Y124289D01*
X343444Y124400D01*
X343333Y124655D01*
X343244Y124922D01*
X343188Y125189D01*
X343155Y125422D01*
X343144Y125522D01*
Y125611D01*
X343133Y125689D01*
Y125744D01*
Y125777D01*
Y125789D01*
X343144Y125978D01*
X343155Y126166D01*
X343177Y126333D01*
X343210Y126488D01*
X343244Y126633D01*
X343277Y126766D01*
X343321Y126877D01*
X343366Y126988D01*
X343410Y127077D01*
X343455Y127166D01*
X343488Y127233D01*
X343521Y127288D01*
X343555Y127333D01*
X343577Y127366D01*
X343599Y127377D01*
Y127388D01*
X343688Y127477D01*
X343788Y127566D01*
X343977Y127699D01*
X344177Y127788D01*
X344366Y127855D01*
X344532Y127900D01*
X344655Y127911D01*
X344710Y127922D01*
X344777D01*
X344910Y127911D01*
D02*
G37*
G36*
X434479Y129933D02*
X434601Y129921D01*
X434712Y129888D01*
X434812Y129844D01*
X435001Y129744D01*
X435168Y129633D01*
X435290Y129510D01*
X435390Y129411D01*
X435423Y129366D01*
X435446Y129333D01*
X435468Y129322D01*
Y129311D01*
X435546Y129177D01*
X435612Y129022D01*
X435679Y128844D01*
X435723Y128655D01*
X435768Y128455D01*
X435801Y128244D01*
X435857Y127822D01*
X435879Y127611D01*
X435890Y127422D01*
X435901Y127244D01*
Y127100D01*
X435912Y126966D01*
Y126866D01*
Y126811D01*
Y126800D01*
Y126788D01*
Y126444D01*
X435890Y126133D01*
X435868Y125855D01*
X435846Y125589D01*
X435812Y125366D01*
X435768Y125155D01*
X435723Y124978D01*
X435690Y124811D01*
X435645Y124678D01*
X435601Y124566D01*
X435568Y124467D01*
X435523Y124389D01*
X435501Y124333D01*
X435479Y124300D01*
X435457Y124278D01*
Y124267D01*
X435368Y124155D01*
X435279Y124067D01*
X435190Y123978D01*
X435101Y123911D01*
X434912Y123800D01*
X434746Y123722D01*
X434590Y123678D01*
X434479Y123655D01*
X434435Y123644D01*
X434368D01*
X434246Y123655D01*
X434135Y123667D01*
X433923Y123744D01*
X433735Y123844D01*
X433568Y123956D01*
X433446Y124067D01*
X433346Y124167D01*
X433290Y124244D01*
X433268Y124255D01*
Y124267D01*
X433190Y124400D01*
X433124Y124555D01*
X433057Y124733D01*
X433012Y124922D01*
X432968Y125122D01*
X432935Y125333D01*
X432879Y125766D01*
X432857Y125966D01*
X432846Y126155D01*
X432835Y126333D01*
Y126477D01*
X432824Y126611D01*
Y126711D01*
Y126766D01*
Y126788D01*
X432835Y127133D01*
X432846Y127444D01*
X432868Y127733D01*
X432901Y127999D01*
X432935Y128233D01*
X432979Y128444D01*
X433024Y128633D01*
X433068Y128799D01*
X433112Y128944D01*
X433146Y129066D01*
X433190Y129166D01*
X433224Y129255D01*
X433257Y129311D01*
X433279Y129355D01*
X433301Y129377D01*
Y129388D01*
X433379Y129488D01*
X433457Y129577D01*
X433546Y129644D01*
X433635Y129710D01*
X433812Y129810D01*
X433979Y129877D01*
X434124Y129910D01*
X434246Y129933D01*
X434290Y129944D01*
X434357D01*
X434479Y129933D01*
D02*
G37*
%LPC*%
G36*
X216517Y382241D02*
X216379D01*
X216286Y382218D01*
X216194Y382195D01*
X215916Y382125D01*
X215777Y382033D01*
X215638Y381940D01*
X215615Y381917D01*
X215569Y381894D01*
X215523Y381824D01*
X215453Y381755D01*
X215291Y381524D01*
X215222Y381385D01*
X215175Y381223D01*
Y381200D01*
X215152Y381153D01*
X215129Y381038D01*
X215083Y380922D01*
X215060Y380783D01*
X215013Y380598D01*
X214967Y380228D01*
Y380205D01*
Y380135D01*
Y379996D01*
X214944Y379858D01*
Y379649D01*
Y379441D01*
Y379187D01*
Y378932D01*
X214967Y378354D01*
X215037Y377775D01*
X215106Y377197D01*
X215175Y376942D01*
X215245Y376711D01*
X215268Y376664D01*
X215314Y376572D01*
X215384Y376433D01*
X215476Y376294D01*
X215499Y376271D01*
X215569Y376225D01*
X215661Y376155D01*
X215823Y376109D01*
X215870D01*
X215962Y376086D01*
X216078Y376063D01*
X216170Y376040D01*
X216749D01*
X216888Y376063D01*
X217073Y376132D01*
X217281Y376271D01*
X217304D01*
X217327Y376317D01*
X217420Y376433D01*
X217536Y376595D01*
X217605Y376826D01*
Y376849D01*
X217628Y376896D01*
Y377011D01*
X217651Y377104D01*
X217674Y377220D01*
X217698Y377359D01*
X217721Y377520D01*
X217744Y377706D01*
X217767Y377937D01*
X217813Y378192D01*
X217860Y378492D01*
X217906Y378816D01*
X217952Y379187D01*
X217860D01*
Y380089D01*
Y380112D01*
Y380158D01*
Y380228D01*
X217836Y380320D01*
X217813Y380459D01*
Y380621D01*
X217767Y380830D01*
X217744Y381038D01*
Y381061D01*
Y381084D01*
X217698Y381223D01*
X217628Y381385D01*
X217536Y381616D01*
X217374Y381824D01*
X217165Y382010D01*
X216888Y382172D01*
X216703Y382218D01*
X216517Y382241D01*
D02*
G37*
G36*
X217790Y370717D02*
X215129D01*
X214643Y370694D01*
X214088D01*
X214018Y370671D01*
X213926Y370648D01*
X213718Y370579D01*
X213602Y370486D01*
X213486Y370393D01*
X213440Y370347D01*
X213347Y370231D01*
X213232Y370046D01*
X213070Y369792D01*
X212931Y369537D01*
X212815Y369236D01*
X212746Y368936D01*
X212723Y368635D01*
Y368612D01*
Y368565D01*
Y368496D01*
X212746Y368380D01*
X212792Y368126D01*
X212861Y367779D01*
X213000Y367431D01*
X213209Y367038D01*
X213324Y366853D01*
X213486Y366691D01*
X213648Y366529D01*
X213856Y366367D01*
X213880Y366344D01*
X213926Y366321D01*
X214018Y366251D01*
X214157Y366182D01*
X214296Y366112D01*
X214481Y366020D01*
X214713Y365950D01*
X214944Y365858D01*
X214967D01*
X215060Y365812D01*
X215175Y365789D01*
X215337Y365742D01*
X215523Y365696D01*
X215731Y365673D01*
X216124Y365627D01*
X216286D01*
X216379Y365650D01*
X216656Y365673D01*
X216957Y365742D01*
X216980D01*
X217073Y365765D01*
X217189Y365812D01*
X217351Y365858D01*
X217536Y365904D01*
X217767Y365997D01*
X218276Y366205D01*
X218831Y366483D01*
X219387Y366830D01*
X219896Y367269D01*
X220104Y367501D01*
X220312Y367779D01*
X220336Y367802D01*
X220382Y367894D01*
X220451Y368033D01*
X220544Y368218D01*
X220613Y368426D01*
X220683Y368681D01*
X220706Y368959D01*
Y369236D01*
Y369260D01*
X220683Y369352D01*
X220660Y369491D01*
X220613Y369653D01*
X220544Y369838D01*
X220428Y370000D01*
X220289Y370162D01*
X220104Y370301D01*
X220058Y370324D01*
X219965Y370370D01*
X219803Y370416D01*
X219595Y370509D01*
X219364Y370579D01*
X219063Y370625D01*
X218762Y370671D01*
X218438Y370694D01*
X217975D01*
X217790Y370717D01*
D02*
G37*
G36*
X235284Y382241D02*
X235261D01*
X235191Y382218D01*
X235099Y382195D01*
X234960Y382172D01*
X234821Y382102D01*
X234659Y382033D01*
X234497Y381917D01*
X234335Y381778D01*
X234312Y381755D01*
X234266Y381709D01*
X234220Y381616D01*
X234127Y381524D01*
X234058Y381385D01*
X233988Y381223D01*
X233919Y381038D01*
X233896Y380853D01*
Y380806D01*
Y380760D01*
Y380714D01*
Y380621D01*
Y380506D01*
Y380367D01*
Y380182D01*
Y379973D01*
Y379696D01*
X233873Y379395D01*
Y379025D01*
Y378608D01*
Y378122D01*
X236858D01*
Y378145D01*
Y378238D01*
X236835Y378377D01*
Y378539D01*
X236811Y378747D01*
Y378978D01*
X236765Y379464D01*
X236742Y379973D01*
X236719Y380205D01*
X236696Y380413D01*
Y380598D01*
X236672Y380737D01*
Y380830D01*
Y380876D01*
Y380899D01*
X236649Y380968D01*
X236626Y381061D01*
X236603Y381200D01*
X236534Y381339D01*
X236464Y381501D01*
X236349Y381639D01*
X236210Y381801D01*
X236187Y381824D01*
X236140Y381871D01*
X236048Y381940D01*
X235955Y382010D01*
X235816Y382102D01*
X235654Y382172D01*
X235469Y382218D01*
X235284Y382241D01*
D02*
G37*
G36*
X205943D02*
X205850D01*
X205757Y382218D01*
X205642Y382195D01*
X205503Y382125D01*
X205341Y382056D01*
X205179Y381963D01*
X205017Y381848D01*
X204994Y381824D01*
X204947Y381778D01*
X204878Y381709D01*
X204809Y381593D01*
X204647Y381339D01*
X204554Y381177D01*
X204508Y380992D01*
Y380968D01*
Y380922D01*
Y380853D01*
Y380783D01*
Y380667D01*
Y380529D01*
X204485Y380367D01*
Y380182D01*
Y379950D01*
Y379673D01*
Y379349D01*
Y378978D01*
Y378562D01*
Y378099D01*
X207470D01*
Y378122D01*
Y378215D01*
X207447Y378354D01*
Y378539D01*
X207423Y378747D01*
Y378978D01*
X207377Y379487D01*
X207354Y379996D01*
X207331Y380251D01*
Y380482D01*
X207308Y380667D01*
Y380830D01*
X207285Y380922D01*
Y380992D01*
Y381015D01*
X207261Y381084D01*
Y381177D01*
X207215Y381292D01*
X207169Y381431D01*
X207076Y381570D01*
X206984Y381732D01*
X206845Y381871D01*
X206822Y381894D01*
X206776Y381940D01*
X206683Y381986D01*
X206591Y382056D01*
X206452Y382125D01*
X206290Y382195D01*
X206128Y382218D01*
X205943Y382241D01*
D02*
G37*
G36*
X170515Y377312D02*
X170423D01*
X170330Y377289D01*
X170214D01*
X170052Y377266D01*
X169890D01*
X169520Y377220D01*
X169127Y377197D01*
X168803Y377173D01*
X168664Y377150D01*
X168548D01*
X168479Y377127D01*
X168363D01*
X168294Y377104D01*
X168201Y377081D01*
X167970Y377011D01*
X167692Y376896D01*
X167414Y376711D01*
X167183Y376502D01*
X166975Y376202D01*
X166929Y376016D01*
X166882Y375831D01*
Y375808D01*
X166859Y375739D01*
Y375646D01*
X166836Y375531D01*
X166813Y375206D01*
X166790Y374859D01*
Y374836D01*
Y374744D01*
Y374628D01*
X166813Y374466D01*
Y374281D01*
X166836Y374096D01*
X166905Y373656D01*
Y373633D01*
Y373610D01*
X166929Y373540D01*
X166952Y373448D01*
X167044Y373217D01*
X167160Y372962D01*
Y372939D01*
X167206Y372916D01*
X167299Y372754D01*
X167438Y372592D01*
X167600Y372407D01*
X167646Y372383D01*
X167738Y372337D01*
X167900Y372268D01*
X168086Y372198D01*
X168340Y372129D01*
X168595Y372106D01*
X168849Y372129D01*
X169127Y372198D01*
X169150Y372221D01*
X169243Y372268D01*
X169381Y372337D01*
X169520Y372476D01*
X169682Y372638D01*
X169844Y372846D01*
X169983Y373101D01*
X170099Y373402D01*
Y373425D01*
X170122Y373494D01*
X170145Y373610D01*
X170168Y373749D01*
X170214Y373934D01*
X170238Y374119D01*
X170307Y374559D01*
Y374582D01*
X170330Y374674D01*
Y374813D01*
X170353Y374975D01*
X170376Y375206D01*
X170399Y375438D01*
X170423Y375739D01*
Y376040D01*
Y376086D01*
Y376178D01*
X170446Y376340D01*
Y376525D01*
X170492Y376942D01*
Y377150D01*
X170515Y377312D01*
D02*
G37*
G36*
X297832Y382033D02*
X297531D01*
X297230Y382010D01*
X296906Y381940D01*
X296628Y381778D01*
X296605Y381755D01*
X296513Y381686D01*
X296397Y381570D01*
X296258Y381385D01*
X296119Y381130D01*
X295980Y380853D01*
X295888Y380482D01*
X295818Y380043D01*
Y380020D01*
Y379973D01*
Y379858D01*
Y379742D01*
X295795Y379603D01*
Y379418D01*
Y379048D01*
Y379025D01*
Y378955D01*
Y378839D01*
Y378701D01*
Y378516D01*
Y378330D01*
Y377868D01*
Y377845D01*
Y377752D01*
Y377636D01*
X295818Y377497D01*
Y377197D01*
Y377035D01*
Y376896D01*
Y373656D01*
Y373633D01*
Y373540D01*
X295842Y373425D01*
X295888Y373263D01*
X295934Y373078D01*
X296027Y372892D01*
X296142Y372661D01*
X296281Y372453D01*
X296304Y372430D01*
X296374Y372360D01*
X296466Y372268D01*
X296605Y372152D01*
X296767Y372013D01*
X296952Y371898D01*
X297160Y371782D01*
X297392Y371689D01*
X297415D01*
X297508Y371666D01*
X297646Y371643D01*
X297878D01*
X297970Y371666D01*
X298109Y371689D01*
X298387Y371782D01*
X298572Y371851D01*
X298734Y371944D01*
X298757Y371967D01*
X298803Y371990D01*
X298896Y372059D01*
X298989Y372152D01*
X299197Y372383D01*
X299312Y372522D01*
X299382Y372661D01*
X299405Y372684D01*
X299428Y372777D01*
X299498Y372939D01*
X299544Y373124D01*
X299613Y373355D01*
X299660Y373610D01*
X299706Y373887D01*
X299729Y374188D01*
Y374212D01*
Y374304D01*
Y374420D01*
Y374605D01*
Y374836D01*
X299752Y375091D01*
Y375392D01*
Y375739D01*
Y376109D01*
Y376502D01*
Y376942D01*
Y377382D01*
Y378354D01*
X299729Y379395D01*
Y379418D01*
Y379441D01*
Y379534D01*
Y379557D01*
Y379649D01*
X299706Y379788D01*
Y379973D01*
X299660Y380182D01*
X299613Y380413D01*
X299567Y380667D01*
X299474Y380922D01*
Y380945D01*
X299451Y380968D01*
X299382Y381107D01*
X299243Y381292D01*
X299058Y381501D01*
X299035Y381524D01*
X299012Y381547D01*
X298896Y381663D01*
X298711Y381778D01*
X298503Y381894D01*
X298479D01*
X298456Y381917D01*
X298317Y381940D01*
X298109Y381986D01*
X297832Y382033D01*
D02*
G37*
G36*
X273141Y382056D02*
X272910D01*
X272678Y382010D01*
X272401Y381940D01*
X272123Y381801D01*
X271845Y381593D01*
X271730Y381454D01*
X271637Y381292D01*
X271568Y381107D01*
X271521Y380899D01*
Y380876D01*
Y380806D01*
Y380760D01*
X271498Y380667D01*
Y380575D01*
Y380436D01*
X271475Y380274D01*
Y380066D01*
X271452Y379835D01*
Y379534D01*
X271429Y379210D01*
X271406Y378839D01*
X271382Y378423D01*
X271359Y377937D01*
X274344D01*
Y377960D01*
Y378053D01*
Y378168D01*
Y378354D01*
Y378539D01*
Y378770D01*
Y379256D01*
Y379765D01*
Y379996D01*
Y380205D01*
Y380390D01*
Y380529D01*
Y380644D01*
Y380691D01*
Y380737D01*
Y380760D01*
Y380830D01*
X274321Y380922D01*
X274298Y381038D01*
X274252Y381153D01*
X274182Y381315D01*
X274090Y381454D01*
X273974Y381593D01*
X273951Y381616D01*
X273905Y381663D01*
X273835Y381732D01*
X273743Y381801D01*
X273488Y381963D01*
X273326Y382010D01*
X273141Y382056D01*
D02*
G37*
G36*
X379978Y381986D02*
X379840D01*
X379747Y381963D01*
X379655D01*
X379400Y381871D01*
X379261Y381801D01*
X379122Y381709D01*
X379099Y381686D01*
X379053Y381663D01*
X378937Y381524D01*
X378775Y381315D01*
X378706Y381177D01*
X378660Y381038D01*
Y381015D01*
X378636Y380945D01*
Y380876D01*
X378613Y380783D01*
Y380644D01*
X378590Y380506D01*
X378567Y380320D01*
X378544Y380112D01*
X378521Y379835D01*
X378474Y379534D01*
X378428Y379210D01*
X378382Y378816D01*
X378336Y378377D01*
X378289Y377868D01*
X381529D01*
Y377891D01*
Y377983D01*
X381506Y378099D01*
Y378284D01*
X381483Y378492D01*
Y378701D01*
X381436Y379210D01*
X381413Y379742D01*
X381390Y379996D01*
X381367Y380228D01*
Y380436D01*
X381344Y380621D01*
X381321Y380760D01*
Y380853D01*
Y380876D01*
X381297Y380922D01*
X381274Y381015D01*
X381228Y381130D01*
X381182Y381246D01*
X381089Y381385D01*
X380974Y381524D01*
X380835Y381639D01*
X380812Y381663D01*
X380765Y381686D01*
X380696Y381755D01*
X380580Y381824D01*
X380303Y381940D01*
X380140Y381963D01*
X379978Y381986D01*
D02*
G37*
%LPD*%
D10*
X302000Y107500D02*
Y117500D01*
X282000Y107500D02*
X302000D01*
X282000D02*
Y117500D01*
X302000D01*
X324000Y107500D02*
Y117500D01*
X304000Y107500D02*
X324000D01*
X304000D02*
Y117500D01*
X324000D01*
X167929Y277004D02*
Y339996D01*
X253913Y277004D02*
Y339996D01*
X167929D02*
X193272D01*
X204713D02*
X253913D01*
X167929Y277004D02*
X193272D01*
X204713D02*
X253913D01*
D11*
X315500Y50685D02*
Y70685D01*
X229500Y50000D02*
Y70000D01*
X270500Y50429D02*
Y70429D01*
X339500Y51000D02*
Y71000D01*
X294000Y50429D02*
Y70429D01*
X249500Y50000D02*
Y70000D01*
X343224Y150211D02*
X359974Y179222D01*
X467022Y139263D02*
X478480Y170743D01*
X369500Y194000D02*
Y227500D01*
X486000Y197500D02*
Y231000D01*
X370500Y252571D02*
Y286071D01*
X486000Y255500D02*
Y289000D01*
X345974Y333222D02*
X362724Y304211D01*
X469193Y345267D02*
X480651Y313787D01*
X282600Y120900D02*
Y126898D01*
X285599D01*
X286599Y125898D01*
Y123899D01*
X285599Y122899D01*
X282600D01*
X288598Y120900D02*
X290597D01*
X289598D01*
Y126898D01*
X288598Y125898D01*
X297595Y120900D02*
X293596D01*
X297595Y124899D01*
Y125898D01*
X296596Y126898D01*
X294596D01*
X293596Y125898D01*
X304600Y120900D02*
Y126898D01*
X307599D01*
X308599Y125898D01*
Y123899D01*
X307599Y122899D01*
X304600D01*
X310598Y120900D02*
X312597D01*
X311598D01*
Y126898D01*
X310598Y125898D01*
X319595Y126898D02*
X315596D01*
Y123899D01*
X317596Y124899D01*
X318596D01*
X319595Y123899D01*
Y121900D01*
X318596Y120900D01*
X316596D01*
X315596Y121900D01*
X137599Y270798D02*
X135599D01*
X136599D01*
Y265800D01*
X135599Y264800D01*
X134600D01*
X133600Y265800D01*
X143597Y264800D02*
X139598D01*
X143597Y268799D01*
Y269798D01*
X142597Y270798D01*
X140598D01*
X139598Y269798D01*
X315500Y82498D02*
X319499Y78500D01*
X315500D02*
X319499Y82498D01*
X315500Y80499D02*
X319499D01*
X317499Y78500D02*
Y82498D01*
X321498Y77500D02*
X323497D01*
X322498D01*
Y83498D01*
X321498Y82498D01*
X326496D02*
X327496Y83498D01*
X329496D01*
X330495Y82498D01*
Y81499D01*
X329496Y80499D01*
X328496D01*
X329496D01*
X330495Y79499D01*
Y78500D01*
X329496Y77500D01*
X327496D01*
X326496Y78500D01*
X269500Y81998D02*
X273499Y78000D01*
X269500D02*
X273499Y81998D01*
X269500Y79999D02*
X273499D01*
X271499Y78000D02*
Y81998D01*
X275498Y77000D02*
X277497D01*
X276498D01*
Y82998D01*
X275498Y81998D01*
X284495Y77000D02*
X280496D01*
X284495Y80999D01*
Y81998D01*
X283495Y82998D01*
X281496D01*
X280496Y81998D01*
X229000D02*
X232999Y78000D01*
X229000D02*
X232999Y81998D01*
X229000Y79999D02*
X232999D01*
X230999Y78000D02*
Y81998D01*
X234998Y77000D02*
X236997D01*
X235998D01*
Y82998D01*
X234998Y81998D01*
X239996Y77000D02*
X241996D01*
X240996D01*
Y82998D01*
X239996Y81998D01*
X338500Y82998D02*
X342499Y79000D01*
X338500D02*
X342499Y82998D01*
X338500Y80999D02*
X342499D01*
X340499Y79000D02*
Y82998D01*
X344498Y78000D02*
X346497D01*
X345498D01*
Y83998D01*
X344498Y82998D01*
X349496D02*
X350496Y83998D01*
X352496D01*
X353495Y82998D01*
Y79000D01*
X352496Y78000D01*
X350496D01*
X349496Y79000D01*
Y82998D01*
X294500Y81998D02*
X298499Y78000D01*
X294500D02*
X298499Y81998D01*
X294500Y79999D02*
X298499D01*
X296499Y78000D02*
Y81998D01*
X300498Y78000D02*
X301498Y77000D01*
X303497D01*
X304497Y78000D01*
Y81998D01*
X303497Y82998D01*
X301498D01*
X300498Y81998D01*
Y80999D01*
X301498Y79999D01*
X304497D01*
X252000Y81998D02*
X255999Y78000D01*
X252000D02*
X255999Y81998D01*
X252000Y79999D02*
X255999D01*
X253999Y78000D02*
Y81998D01*
X257998D02*
X258998Y82998D01*
X260997D01*
X261997Y81998D01*
Y80999D01*
X260997Y79999D01*
X261997Y78999D01*
Y78000D01*
X260997Y77000D01*
X258998D01*
X257998Y78000D01*
Y78999D01*
X258998Y79999D01*
X257998Y80999D01*
Y81998D01*
X258998Y79999D02*
X260997D01*
X455828Y128973D02*
X453438Y134098D01*
X457195Y132730D02*
X452070Y130341D01*
X456511Y130852D02*
X452754Y132219D01*
X455317Y133414D02*
X453949Y129657D01*
X483499Y297191D02*
X478374Y299581D01*
X482131Y300949D02*
X479741Y295824D01*
X482815Y299070D02*
X479058Y297703D01*
X480253Y300265D02*
X481620Y296508D01*
X478204Y294200D02*
X474447Y292833D01*
X474105Y293772D01*
X476495Y298898D01*
X476153Y299837D01*
X340573Y348577D02*
X346035Y347114D01*
X342572Y345114D02*
X344036Y350577D01*
X341572Y346846D02*
X345035Y348845D01*
X344303Y346114D02*
X342304Y349577D01*
X348730Y354442D02*
X347499Y352576D01*
X346767Y349845D01*
X347766Y348113D01*
X349132Y347748D01*
X350864Y348747D01*
X351229Y350113D01*
X350730Y350979D01*
X349364Y351344D01*
X346767Y349845D01*
X480500Y240502D02*
X476501Y244500D01*
X480500D02*
X476501Y240502D01*
X480500Y242501D02*
X476501D01*
X478501Y244500D02*
Y240502D01*
X470503Y239502D02*
X474502D01*
Y242501D01*
X472503Y241501D01*
X471503D01*
X470503Y242501D01*
Y244500D01*
X471503Y245500D01*
X473502D01*
X474502Y244500D01*
X376000Y302569D02*
X379999Y298571D01*
X376000D02*
X379999Y302569D01*
X376000Y300570D02*
X379999D01*
X377999Y298571D02*
Y302569D01*
X384997Y297571D02*
Y303569D01*
X381998Y300570D01*
X385997D01*
X481500Y183502D02*
X477501Y187500D01*
X481500D02*
X477501Y183502D01*
X481500Y185501D02*
X477501D01*
X479501Y187500D02*
Y183502D01*
X475502D02*
X474502Y182502D01*
X472503D01*
X471503Y183502D01*
Y184501D01*
X472503Y185501D01*
X473503D01*
X472503D01*
X471503Y186501D01*
Y187500D01*
X472503Y188500D01*
X474502D01*
X475502Y187500D01*
X375000Y242998D02*
X378999Y239000D01*
X375000D02*
X378999Y242998D01*
X375000Y240999D02*
X378999D01*
X376999Y239000D02*
Y242998D01*
X384997Y238000D02*
X380998D01*
X384997Y241999D01*
Y242998D01*
X383997Y243998D01*
X381998D01*
X380998Y242998D01*
X373785Y189144D02*
X375249Y183682D01*
X371786Y185681D02*
X377248Y187145D01*
X372785Y187413D02*
X376248Y185414D01*
X373517Y184682D02*
X375517Y188145D01*
X376480Y181817D02*
X378212Y180817D01*
X377346Y181317D01*
X380345Y186511D01*
X378980Y186145D01*
X125799Y215300D02*
Y221298D01*
X128798D01*
X129797Y220298D01*
Y218299D01*
X128798Y217299D01*
X125799D01*
X131797Y215300D02*
X133796D01*
X132796D01*
Y221298D01*
X131797Y220298D01*
X136795Y215300D02*
X138795D01*
X137795D01*
Y221298D01*
X136795Y220298D01*
X93200Y215300D02*
Y221298D01*
X96199D01*
X97199Y220298D01*
Y218299D01*
X96199Y217299D01*
X93200D01*
X99198Y216300D02*
X100198Y215300D01*
X102197D01*
X103197Y216300D01*
Y220298D01*
X102197Y221298D01*
X100198D01*
X99198Y220298D01*
Y219299D01*
X100198Y218299D01*
X103197D01*
X81000Y273600D02*
Y279598D01*
X83999D01*
X84999Y278598D01*
Y276599D01*
X83999Y275599D01*
X81000D01*
X86998Y279598D02*
X90997D01*
Y278598D01*
X86998Y274600D01*
Y273600D01*
X170600Y122554D02*
Y128552D01*
X173599D01*
X174599Y127552D01*
Y125553D01*
X173599Y124553D01*
X170600D01*
X180597Y128552D02*
X176598D01*
Y125553D01*
X178597Y126552D01*
X179597D01*
X180597Y125553D01*
Y123553D01*
X179597Y122554D01*
X177598D01*
X176598Y123553D01*
X229205Y122700D02*
Y128698D01*
X232205D01*
X233204Y127698D01*
Y125699D01*
X232205Y124699D01*
X229205D01*
X238203Y122700D02*
Y128698D01*
X235204Y125699D01*
X239202D01*
X148205Y155171D02*
Y161169D01*
X151205D01*
X152204Y160169D01*
Y158170D01*
X151205Y157170D01*
X148205D01*
X158202Y155171D02*
X154204D01*
X158202Y159170D01*
Y160169D01*
X157203Y161169D01*
X155203D01*
X154204Y160169D01*
X206684Y155124D02*
Y161123D01*
X209683D01*
X210683Y160123D01*
Y158123D01*
X209683Y157124D01*
X206684D01*
X212682Y155124D02*
X214682D01*
X213682D01*
Y161123D01*
X212682Y160123D01*
X172399Y354298D02*
X170399D01*
X171399D01*
Y349300D01*
X170399Y348300D01*
X169400D01*
X168400Y349300D01*
X174398Y348300D02*
X176397D01*
X175398D01*
Y354298D01*
X174398Y353298D01*
D12*
X150965Y163240D02*
Y205760D01*
X126555Y163240D02*
X150965D01*
X126555Y205760D02*
X150965D01*
X118366Y163240D02*
Y205760D01*
X93957Y163240D02*
X118366D01*
X93957Y205760D02*
X118366D01*
X106141Y221504D02*
Y264024D01*
X81732Y221504D02*
X106141D01*
X81732Y264024D02*
X106141D01*
X176161Y114394D02*
X218681D01*
Y89984D02*
Y114394D01*
X176161Y89984D02*
Y114394D01*
X234740Y114465D02*
X277260D01*
Y90055D02*
Y114465D01*
X234740Y90055D02*
Y114465D01*
X153740Y146965D02*
X196260D01*
Y122555D02*
Y146965D01*
X153740Y122555D02*
Y146965D01*
X212240D02*
X254760D01*
Y122555D02*
Y146965D01*
X212240Y122555D02*
Y146965D01*
M02*
