G04*
G04 #@! TF.GenerationSoftware,Altium Limited,Altium Designer,18.1.9 (240)*
G04*
G04 Layer_Color=8388736*
%FSLAX25Y25*%
%MOIN*%
G70*
G01*
G75*
%ADD15R,0.07887X0.03556*%
%ADD16R,0.09461X0.07099*%
%ADD17R,0.06706X0.06706*%
%ADD18C,0.06706*%
%ADD19C,0.05918*%
%ADD20C,0.06942*%
%ADD21C,0.09068*%
%ADD22O,0.12611X0.08674*%
%ADD23C,0.12611*%
G04:AMPARAMS|DCode=24|XSize=137.92mil|YSize=165.48mil|CornerRadius=0mil|HoleSize=0mil|Usage=FLASHONLY|Rotation=60.000|XOffset=0mil|YOffset=0mil|HoleType=Round|Shape=Round|*
%AMOVALD24*
21,1,0.02756,0.13792,0.00000,0.00000,150.0*
1,1,0.13792,0.01193,-0.00689*
1,1,0.13792,-0.01193,0.00689*
%
%ADD24OVALD24*%

G04:AMPARAMS|DCode=25|XSize=137.92mil|YSize=165.48mil|CornerRadius=0mil|HoleSize=0mil|Usage=FLASHONLY|Rotation=250.000|XOffset=0mil|YOffset=0mil|HoleType=Round|Shape=Round|*
%AMOVALD25*
21,1,0.02756,0.13792,0.00000,0.00000,340.0*
1,1,0.13792,-0.01295,0.00471*
1,1,0.13792,0.01295,-0.00471*
%
%ADD25OVALD25*%

%ADD26O,0.16548X0.13792*%
G04:AMPARAMS|DCode=27|XSize=137.92mil|YSize=165.48mil|CornerRadius=0mil|HoleSize=0mil|Usage=FLASHONLY|Rotation=120.000|XOffset=0mil|YOffset=0mil|HoleType=Round|Shape=Round|*
%AMOVALD27*
21,1,0.02756,0.13792,0.00000,0.00000,210.0*
1,1,0.13792,0.01193,0.00689*
1,1,0.13792,-0.01193,-0.00689*
%
%ADD27OVALD27*%

%ADD28C,0.06312*%
%ADD29R,0.06312X0.06312*%
%ADD30C,0.09265*%
G04:AMPARAMS|DCode=31|XSize=137.92mil|YSize=165.48mil|CornerRadius=0mil|HoleSize=0mil|Usage=FLASHONLY|Rotation=290.000|XOffset=0mil|YOffset=0mil|HoleType=Round|Shape=Round|*
%AMOVALD31*
21,1,0.02756,0.13792,0.00000,0.00000,20.0*
1,1,0.13792,-0.01295,-0.00471*
1,1,0.13792,0.01295,0.00471*
%
%ADD31OVALD31*%

D15*
X136500Y234579D02*
D03*
Y239500D02*
D03*
Y244421D02*
D03*
Y249342D02*
D03*
D16*
X147524Y258201D02*
D03*
Y225721D02*
D03*
D17*
X287000Y112500D02*
D03*
X309000D02*
D03*
D18*
X297000D02*
D03*
X319000D02*
D03*
D19*
X121000Y376500D02*
D03*
X87776Y376236D02*
D03*
X75177Y184500D02*
D03*
X140000D02*
D03*
X42000D02*
D03*
X107401D02*
D03*
X95177Y242764D02*
D03*
X62677Y242736D02*
D03*
X197421Y103429D02*
D03*
X256000Y103500D02*
D03*
X175000Y136000D02*
D03*
X233500D02*
D03*
D20*
X115724Y391264D02*
D03*
Y381421D02*
D03*
Y371579D02*
D03*
Y361736D02*
D03*
X82500Y391000D02*
D03*
Y381157D02*
D03*
Y371315D02*
D03*
Y361472D02*
D03*
X187157Y31157D02*
D03*
X197000D02*
D03*
X187157Y41000D02*
D03*
X197000D02*
D03*
X187157Y50842D02*
D03*
Y60685D02*
D03*
X197000Y70528D02*
D03*
Y60685D02*
D03*
Y50842D02*
D03*
X187157Y70528D02*
D03*
X69901Y199264D02*
D03*
Y189421D02*
D03*
Y179579D02*
D03*
Y169736D02*
D03*
X134724D02*
D03*
Y179579D02*
D03*
Y189421D02*
D03*
Y199264D02*
D03*
X36724D02*
D03*
Y189421D02*
D03*
Y179579D02*
D03*
Y169736D02*
D03*
X102126D02*
D03*
Y179579D02*
D03*
Y189421D02*
D03*
Y199264D02*
D03*
X89901Y228000D02*
D03*
Y237842D02*
D03*
Y247685D02*
D03*
Y257528D02*
D03*
X57401Y257500D02*
D03*
Y247657D02*
D03*
Y237815D02*
D03*
Y227972D02*
D03*
X212185Y98154D02*
D03*
X202343D02*
D03*
X192500D02*
D03*
X182658D02*
D03*
X270764Y98224D02*
D03*
X260921D02*
D03*
X251079D02*
D03*
X241236D02*
D03*
X111252Y99158D02*
D03*
X121095D02*
D03*
X111252Y109000D02*
D03*
X121095D02*
D03*
X111252Y118842D02*
D03*
Y128685D02*
D03*
X121095Y138528D02*
D03*
Y128685D02*
D03*
Y118842D02*
D03*
X111252Y138528D02*
D03*
X189764Y130724D02*
D03*
X179921D02*
D03*
X170079D02*
D03*
X160236D02*
D03*
X248264D02*
D03*
X238421D02*
D03*
X228579D02*
D03*
X218736D02*
D03*
D21*
X115724Y353193D02*
D03*
Y399807D02*
D03*
X82500Y352929D02*
D03*
Y399543D02*
D03*
X195858Y22614D02*
D03*
Y79071D02*
D03*
X69901Y161193D02*
D03*
Y207807D02*
D03*
X134724D02*
D03*
Y161193D02*
D03*
X36724D02*
D03*
Y207807D02*
D03*
X102126D02*
D03*
Y161193D02*
D03*
X89901Y266071D02*
D03*
Y219457D02*
D03*
X57401Y219429D02*
D03*
Y266043D02*
D03*
X174114Y98154D02*
D03*
X220728D02*
D03*
X232693Y98224D02*
D03*
X279307D02*
D03*
X119953Y90614D02*
D03*
Y147071D02*
D03*
X151693Y130724D02*
D03*
X198307D02*
D03*
X210193D02*
D03*
X256807D02*
D03*
D22*
X323500Y70685D02*
D03*
Y60685D02*
D03*
Y50685D02*
D03*
X237500Y70000D02*
D03*
Y60000D02*
D03*
Y50000D02*
D03*
X278500Y70429D02*
D03*
Y60429D02*
D03*
Y50429D02*
D03*
X347500Y71000D02*
D03*
Y61000D02*
D03*
Y51000D02*
D03*
X302000Y70429D02*
D03*
Y60429D02*
D03*
Y50429D02*
D03*
X257500Y70000D02*
D03*
Y60000D02*
D03*
Y50000D02*
D03*
D23*
X433000Y153323D02*
D03*
Y169858D02*
D03*
Y186394D02*
D03*
Y202929D02*
D03*
Y219465D02*
D03*
Y236000D02*
D03*
Y252535D02*
D03*
Y269071D02*
D03*
Y285606D02*
D03*
Y302142D02*
D03*
Y318677D02*
D03*
Y335213D02*
D03*
X411346Y153323D02*
D03*
Y169858D02*
D03*
Y186394D02*
D03*
Y202929D02*
D03*
Y219465D02*
D03*
Y236000D02*
D03*
Y252535D02*
D03*
Y269071D02*
D03*
Y285606D02*
D03*
Y302142D02*
D03*
Y318677D02*
D03*
Y335213D02*
D03*
D24*
X352750Y144711D02*
D03*
X361000Y159000D02*
D03*
X369285Y173351D02*
D03*
D25*
X468143Y174505D02*
D03*
X462500Y159000D02*
D03*
X456832Y143429D02*
D03*
D26*
X380500Y194000D02*
D03*
Y210500D02*
D03*
Y227071D02*
D03*
X475000Y231000D02*
D03*
Y214500D02*
D03*
Y197929D02*
D03*
X381500Y252571D02*
D03*
Y269071D02*
D03*
Y285642D02*
D03*
X475000Y289000D02*
D03*
Y272500D02*
D03*
Y255929D02*
D03*
D27*
X372250Y309711D02*
D03*
X364000Y324000D02*
D03*
X355715Y338351D02*
D03*
D28*
X157500Y286000D02*
D03*
X147500Y291000D02*
D03*
X157500Y296000D02*
D03*
X147500Y301000D02*
D03*
X157500Y306000D02*
D03*
X147500Y311000D02*
D03*
X157500Y316000D02*
D03*
Y326000D02*
D03*
X147500Y331000D02*
D03*
X176000Y286000D02*
D03*
X186000Y291000D02*
D03*
X176000Y296000D02*
D03*
X186000Y301000D02*
D03*
X176000Y306000D02*
D03*
X186000Y311000D02*
D03*
X176000Y316000D02*
D03*
Y326000D02*
D03*
X186000Y331000D02*
D03*
D29*
X147500Y321000D02*
D03*
X186000D02*
D03*
D30*
X134508Y338992D02*
D03*
Y278008D02*
D03*
X198992Y338992D02*
D03*
Y278008D02*
D03*
D31*
X458857Y341505D02*
D03*
X464500Y326000D02*
D03*
X470168Y310429D02*
D03*
M02*
